%TF.GenerationSoftware,KiCad,Pcbnew,(6.0.10)*%
%TF.CreationDate,2023-02-13T15:46:09+09:00*%
%TF.ProjectId,esp-prog-adator,6573702d-7072-46f6-972d-616461746f72,2*%
%TF.SameCoordinates,PX82144b0PY795bdf0*%
%TF.FileFunction,Copper,L1,Top*%
%TF.FilePolarity,Positive*%
%FSLAX46Y46*%
G04 Gerber Fmt 4.6, Leading zero omitted, Abs format (unit mm)*
G04 Created by KiCad (PCBNEW (6.0.10)) date 2023-02-13 15:46:09*
%MOMM*%
%LPD*%
G01*
G04 APERTURE LIST*
%TA.AperFunction,ComponentPad*%
%ADD10R,1.700000X1.700000*%
%TD*%
%TA.AperFunction,ComponentPad*%
%ADD11O,1.700000X1.700000*%
%TD*%
%TA.AperFunction,ViaPad*%
%ADD12C,0.800000*%
%TD*%
%TA.AperFunction,Conductor*%
%ADD13C,0.500000*%
%TD*%
%TA.AperFunction,Conductor*%
%ADD14C,0.250000*%
%TD*%
G04 APERTURE END LIST*
D10*
%TO.P,J5,1,Pin_1*%
%TO.N,+3V3*%
X13284000Y46609000D03*
D11*
%TO.P,J5,2,Pin_2*%
%TO.N,/Vprog*%
X15824000Y46609000D03*
%TO.P,J5,3,Pin_3*%
%TO.N,+5V*%
X18364000Y46609000D03*
%TD*%
D10*
%TO.P,J6,1,Pin_1*%
%TO.N,+3V3*%
X30284000Y46609000D03*
D11*
%TO.P,J6,2,Pin_2*%
%TO.N,/Vjtag*%
X27744000Y46609000D03*
%TO.P,J6,3,Pin_3*%
%TO.N,+5V*%
X25204000Y46609000D03*
%TD*%
D10*
%TO.P,J1,1,Pin_1*%
%TO.N,+3V3*%
X9144000Y47599600D03*
D11*
%TO.P,J1,2,Pin_2*%
X6604000Y47599600D03*
%TO.P,J1,3,Pin_3*%
%TO.N,/EN*%
X9144000Y45059600D03*
%TO.P,J1,4,Pin_4*%
X6604000Y45059600D03*
%TO.P,J1,5,Pin_5*%
%TO.N,Net-(J1-Pad5)*%
X9144000Y42519600D03*
%TO.P,J1,6,Pin_6*%
X6604000Y42519600D03*
%TO.P,J1,7,Pin_7*%
%TO.N,Net-(J1-Pad7)*%
X9144000Y39979600D03*
%TO.P,J1,8,Pin_8*%
X6604000Y39979600D03*
%TO.P,J1,9,Pin_9*%
%TO.N,Net-(J1-Pad10)*%
X9144000Y37439600D03*
%TO.P,J1,10,Pin_10*%
X6604000Y37439600D03*
%TO.P,J1,11,Pin_11*%
%TO.N,Net-(J1-Pad11)*%
X9144000Y34899600D03*
%TO.P,J1,12,Pin_12*%
X6604000Y34899600D03*
%TO.P,J1,13,Pin_13*%
%TO.N,Net-(J1-Pad13)*%
X9144000Y32359600D03*
%TO.P,J1,14,Pin_14*%
X6604000Y32359600D03*
%TO.P,J1,15,Pin_15*%
%TO.N,Net-(J1-Pad15)*%
X9144000Y29819600D03*
%TO.P,J1,16,Pin_16*%
X6604000Y29819600D03*
%TO.P,J1,17,Pin_17*%
%TO.N,Net-(J1-Pad17)*%
X9144000Y27279600D03*
%TO.P,J1,18,Pin_18*%
X6604000Y27279600D03*
%TO.P,J1,19,Pin_19*%
%TO.N,Net-(J1-Pad19)*%
X9144000Y24739600D03*
%TO.P,J1,20,Pin_20*%
X6604000Y24739600D03*
%TO.P,J1,21,Pin_21*%
%TO.N,Net-(J1-Pad21)*%
X9144000Y22199600D03*
%TO.P,J1,22,Pin_22*%
X6604000Y22199600D03*
%TO.P,J1,23,Pin_23*%
%TO.N,/TMS(G14)*%
X9144000Y19659600D03*
%TO.P,J1,24,Pin_24*%
X6604000Y19659600D03*
%TO.P,J1,25,Pin_25*%
%TO.N,/TDI(G12)*%
X9144000Y17119600D03*
%TO.P,J1,26,Pin_26*%
X6604000Y17119600D03*
%TO.P,J1,27,Pin_27*%
%TO.N,Net-(J1-Pad27)*%
X9144000Y14579600D03*
%TO.P,J1,28,Pin_28*%
X6604000Y14579600D03*
%TO.P,J1,29,Pin_29*%
%TO.N,/TCK(G13)*%
X9144000Y12039600D03*
%TO.P,J1,30,Pin_30*%
X6604000Y12039600D03*
%TO.P,J1,31,Pin_31*%
%TO.N,Net-(J1-Pad31)*%
X9144000Y9499600D03*
%TO.P,J1,32,Pin_32*%
X6604000Y9499600D03*
%TO.P,J1,33,Pin_33*%
%TO.N,Net-(J1-Pad33)*%
X9144000Y6959600D03*
%TO.P,J1,34,Pin_34*%
X6604000Y6959600D03*
%TO.P,J1,35,Pin_35*%
%TO.N,Net-(J1-Pad35)*%
X9144000Y4419600D03*
%TO.P,J1,36,Pin_36*%
X6604000Y4419600D03*
%TO.P,J1,37,Pin_37*%
%TO.N,+5V*%
X9144000Y1879600D03*
%TO.P,J1,38,Pin_38*%
X6604000Y1879600D03*
%TD*%
D10*
%TO.P,J2,1,Pin_1*%
%TO.N,GND*%
X37084000Y47599600D03*
D11*
%TO.P,J2,2,Pin_2*%
X34544000Y47599600D03*
%TO.P,J2,3,Pin_3*%
%TO.N,Net-(J2-Pad3)*%
X37084000Y45059600D03*
%TO.P,J2,4,Pin_4*%
X34544000Y45059600D03*
%TO.P,J2,5,Pin_5*%
%TO.N,Net-(J2-Pad5)*%
X37084000Y42519600D03*
%TO.P,J2,6,Pin_6*%
X34544000Y42519600D03*
%TO.P,J2,7,Pin_7*%
%TO.N,/TXD*%
X37084000Y39979600D03*
%TO.P,J2,8,Pin_8*%
X34544000Y39979600D03*
%TO.P,J2,9,Pin_9*%
%TO.N,/RXD*%
X37084000Y37439600D03*
%TO.P,J2,10,Pin_10*%
X34544000Y37439600D03*
%TO.P,J2,11,Pin_11*%
%TO.N,Net-(J2-Pad11)*%
X37084000Y34899600D03*
%TO.P,J2,12,Pin_12*%
X34544000Y34899600D03*
%TO.P,J2,13,Pin_13*%
%TO.N,Net-(J2-Pad13)*%
X37084000Y32359600D03*
%TO.P,J2,14,Pin_14*%
X34544000Y32359600D03*
%TO.P,J2,15,Pin_15*%
%TO.N,Net-(J2-Pad15)*%
X37084000Y29819600D03*
%TO.P,J2,16,Pin_16*%
X34544000Y29819600D03*
%TO.P,J2,17,Pin_17*%
%TO.N,Net-(J2-Pad17)*%
X37084000Y27279600D03*
%TO.P,J2,18,Pin_18*%
X34544000Y27279600D03*
%TO.P,J2,19,Pin_19*%
%TO.N,Net-(J2-Pad19)*%
X37084000Y24739600D03*
%TO.P,J2,20,Pin_20*%
X34544000Y24739600D03*
%TO.P,J2,21,Pin_21*%
%TO.N,Net-(J2-Pad21)*%
X37084000Y22199600D03*
%TO.P,J2,22,Pin_22*%
X34544000Y22199600D03*
%TO.P,J2,23,Pin_23*%
%TO.N,Net-(J2-Pad23)*%
X37084000Y19659600D03*
%TO.P,J2,24,Pin_24*%
X34544000Y19659600D03*
%TO.P,J2,25,Pin_25*%
%TO.N,Net-(J2-Pad25)*%
X37084000Y17119600D03*
%TO.P,J2,26,Pin_26*%
X34544000Y17119600D03*
%TO.P,J2,27,Pin_27*%
%TO.N,/G00*%
X37084000Y14579600D03*
%TO.P,J2,28,Pin_28*%
X34544000Y14579600D03*
%TO.P,J2,29,Pin_29*%
%TO.N,Net-(J2-Pad29)*%
X37084000Y12039600D03*
%TO.P,J2,30,Pin_30*%
X34544000Y12039600D03*
%TO.P,J2,31,Pin_31*%
%TO.N,/TDO(G15)*%
X37084000Y9499600D03*
%TO.P,J2,32,Pin_32*%
X34544000Y9499600D03*
%TO.P,J2,33,Pin_33*%
%TO.N,Net-(J2-Pad33)*%
X37084000Y6959600D03*
%TO.P,J2,34,Pin_34*%
X34544000Y6959600D03*
%TO.P,J2,35,Pin_35*%
%TO.N,Net-(J2-Pad35)*%
X37084000Y4419600D03*
%TO.P,J2,36,Pin_36*%
X34544000Y4419600D03*
%TO.P,J2,37,Pin_37*%
%TO.N,Net-(J2-Pad37)*%
X37084000Y1879600D03*
%TO.P,J2,38,Pin_38*%
X34544000Y1879600D03*
%TD*%
D10*
%TO.P,JTAG1,1,Pin_1*%
%TO.N,unconnected-(JTAG1-Pad1)*%
X27940000Y41249600D03*
D11*
%TO.P,JTAG1,2,Pin_2*%
%TO.N,GND*%
X30480000Y41249600D03*
%TO.P,JTAG1,3,Pin_3*%
%TO.N,/TDI(G12)*%
X27940000Y38709600D03*
%TO.P,JTAG1,4,Pin_4*%
%TO.N,unconnected-(JTAG1-Pad4)*%
X30480000Y38709600D03*
%TO.P,JTAG1,5,Pin_5*%
%TO.N,/TDO(G15)*%
X27940000Y36169600D03*
%TO.P,JTAG1,6,Pin_6*%
%TO.N,unconnected-(JTAG1-Pad6)*%
X30480000Y36169600D03*
%TO.P,JTAG1,7,Pin_7*%
%TO.N,/TCK(G13)*%
X27940000Y33629600D03*
%TO.P,JTAG1,8,Pin_8*%
%TO.N,unconnected-(JTAG1-Pad8)*%
X30480000Y33629600D03*
%TO.P,JTAG1,9,Pin_9*%
%TO.N,/TMS(G14)*%
X27940000Y31089600D03*
%TO.P,JTAG1,10,Pin_10*%
%TO.N,/Vjtag*%
X30480000Y31089600D03*
%TD*%
D10*
%TO.P,PROG1,1,Pin_1*%
%TO.N,/G00*%
X13248000Y41249600D03*
D11*
%TO.P,PROG1,2,Pin_2*%
%TO.N,/RXD*%
X15788000Y41249600D03*
%TO.P,PROG1,3,Pin_3*%
%TO.N,GND*%
X13248000Y38709600D03*
%TO.P,PROG1,4,Pin_4*%
%TO.N,/TXD*%
X15788000Y38709600D03*
%TO.P,PROG1,5,Pin_5*%
%TO.N,/Vprog*%
X13248000Y36169600D03*
%TO.P,PROG1,6,Pin_6*%
%TO.N,/EN*%
X15788000Y36169600D03*
%TD*%
D12*
%TO.N,GND*%
X12065000Y43942000D03*
%TO.N,/RXD*%
X32385000Y43561000D03*
%TO.N,/TMS(G14)*%
X16510000Y19659600D03*
%TO.N,/G00*%
X21082000Y43053000D03*
%TO.N,/TDO(G15)*%
X21844000Y30734000D03*
%TD*%
D13*
%TO.N,GND*%
X12065000Y43942000D02*
X11430000Y43307000D01*
X34544000Y47599600D02*
X34137600Y47599600D01*
X11430000Y43307000D02*
X11430000Y39878000D01*
X11430000Y39878000D02*
X12598400Y38709600D01*
X30480000Y43942000D02*
X30480000Y41249600D01*
X34137600Y47599600D02*
X30480000Y43942000D01*
X12598400Y38709600D02*
X13248000Y38709600D01*
%TO.N,+3V3*%
X13284000Y47066000D02*
X14986000Y48768000D01*
X13284000Y46609000D02*
X13284000Y47066000D01*
X30284000Y47186000D02*
X30284000Y46609000D01*
X14986000Y48768000D02*
X28702000Y48768000D01*
X12776000Y47117000D02*
X9626600Y47117000D01*
X9626600Y47117000D02*
X9144000Y47599600D01*
X13284000Y46609000D02*
X12776000Y47117000D01*
X28702000Y48768000D02*
X30284000Y47186000D01*
%TO.N,+5V*%
X18364000Y46609000D02*
X25204000Y46609000D01*
X18364000Y46609000D02*
X18669000Y46304000D01*
X18669000Y11404600D02*
X9144000Y1879600D01*
X18669000Y46304000D02*
X18669000Y11404600D01*
D14*
%TO.N,/RXD*%
X32385000Y43561000D02*
X33020000Y42926000D01*
X33020000Y38963600D02*
X34544000Y37439600D01*
X33020000Y42926000D02*
X33020000Y38963600D01*
%TO.N,/TMS(G14)*%
X9144000Y19659600D02*
X16510000Y19659600D01*
%TO.N,/G00*%
X21082000Y43053000D02*
X23368000Y40767000D01*
X33934400Y14579600D02*
X34544000Y14579600D01*
X23368000Y40767000D02*
X23368000Y25146000D01*
X23368000Y25146000D02*
X33934400Y14579600D01*
%TO.N,/TDO(G15)*%
X21844000Y30734000D02*
X21844000Y21590000D01*
X21844000Y21590000D02*
X33934400Y9499600D01*
X33934400Y9499600D02*
X34544000Y9499600D01*
D13*
%TO.N,/Vprog*%
X17399000Y35242500D02*
X16319500Y34163000D01*
X15824000Y46152000D02*
X17399000Y44577000D01*
X14478000Y34163000D02*
X13248000Y35393000D01*
X13248000Y35393000D02*
X13248000Y36169600D01*
X16319500Y34163000D02*
X14478000Y34163000D01*
X17399000Y44577000D02*
X17399000Y35242500D01*
X15824000Y46609000D02*
X15824000Y46152000D01*
%TO.N,/Vjtag*%
X30480000Y31089600D02*
X30480000Y30480000D01*
X29057600Y29057600D02*
X26822400Y29057600D01*
X27744000Y46159000D02*
X27744000Y46609000D01*
X26822400Y29057600D02*
X25146000Y30734000D01*
X30480000Y30480000D02*
X29057600Y29057600D01*
X25146000Y43561000D02*
X27744000Y46159000D01*
X25146000Y30734000D02*
X25146000Y43561000D01*
%TD*%
M02*
