%TF.GenerationSoftware,KiCad,Pcbnew,(6.0.10)*%
%TF.CreationDate,2023-02-13T00:06:07+09:00*%
%TF.ProjectId,esp-prog-adator,6573702d-7072-46f6-972d-616461746f72,2*%
%TF.SameCoordinates,PX85d5798PY7999e20*%
%TF.FileFunction,Legend,Top*%
%TF.FilePolarity,Positive*%
%FSLAX46Y46*%
G04 Gerber Fmt 4.6, Leading zero omitted, Abs format (unit mm)*
G04 Created by KiCad (PCBNEW (6.0.10)) date 2023-02-13 00:06:07*
%MOMM*%
%LPD*%
G01*
G04 APERTURE LIST*
%ADD10C,0.150000*%
%ADD11C,0.100000*%
%ADD12C,0.120000*%
%ADD13R,1.700000X1.700000*%
%ADD14O,1.700000X1.700000*%
G04 APERTURE END LIST*
D10*
X323904Y2006620D02*
X323904Y1625667D01*
X704857Y1587572D01*
X666761Y1625667D01*
X628666Y1701858D01*
X628666Y1892334D01*
X666761Y1968524D01*
X704857Y2006620D01*
X781047Y2044715D01*
X971523Y2044715D01*
X1047714Y2006620D01*
X1085809Y1968524D01*
X1123904Y1892334D01*
X1123904Y1701858D01*
X1085809Y1625667D01*
X1047714Y1587572D01*
X323904Y2273286D02*
X1123904Y2539953D01*
X323904Y2806620D01*
X704857Y44723124D02*
X704857Y44989791D01*
X1123904Y45104077D02*
X1123904Y44723124D01*
X323904Y44723124D01*
X323904Y45104077D01*
X1123904Y45446934D02*
X323904Y45446934D01*
X1123904Y45904077D01*
X323904Y45904077D01*
X35452000Y10305981D02*
X35490095Y10382172D01*
X35490095Y10496458D01*
X35452000Y10610743D01*
X35375809Y10686934D01*
X35299619Y10725029D01*
X35147238Y10763124D01*
X35032952Y10763124D01*
X34880571Y10725029D01*
X34804380Y10686934D01*
X34728190Y10610743D01*
X34690095Y10496458D01*
X34690095Y10420267D01*
X34728190Y10305981D01*
X34766285Y10267886D01*
X35032952Y10267886D01*
X35032952Y10420267D01*
X34690095Y9505981D02*
X34690095Y9963124D01*
X34690095Y9734553D02*
X35490095Y9734553D01*
X35375809Y9810743D01*
X35299619Y9886934D01*
X35261523Y9963124D01*
X35490095Y8782172D02*
X35490095Y9163124D01*
X35109142Y9201220D01*
X35147238Y9163124D01*
X35185333Y9086934D01*
X35185333Y8896458D01*
X35147238Y8820267D01*
X35109142Y8782172D01*
X35032952Y8744077D01*
X34842476Y8744077D01*
X34766285Y8782172D01*
X34728190Y8820267D01*
X34690095Y8896458D01*
X34690095Y9086934D01*
X34728190Y9163124D01*
X34766285Y9201220D01*
X8217333Y49206096D02*
X8712571Y49206096D01*
X8445904Y48901334D01*
X8560190Y48901334D01*
X8636380Y48863239D01*
X8674476Y48825143D01*
X8712571Y48748953D01*
X8712571Y48558477D01*
X8674476Y48482286D01*
X8636380Y48444191D01*
X8560190Y48406096D01*
X8331619Y48406096D01*
X8255428Y48444191D01*
X8217333Y48482286D01*
X8979238Y48939429D02*
X9169714Y48406096D01*
X9360190Y48939429D01*
X9588761Y49206096D02*
X10084000Y49206096D01*
X9817333Y48901334D01*
X9931619Y48901334D01*
X10007809Y48863239D01*
X10045904Y48825143D01*
X10084000Y48748953D01*
X10084000Y48558477D01*
X10045904Y48482286D01*
X10007809Y48444191D01*
X9931619Y48406096D01*
X9703047Y48406096D01*
X9626857Y48444191D01*
X9588761Y48482286D01*
X14464952Y49206096D02*
X14084000Y49206096D01*
X14045904Y48825143D01*
X14084000Y48863239D01*
X14160190Y48901334D01*
X14350666Y48901334D01*
X14426857Y48863239D01*
X14464952Y48825143D01*
X14503047Y48748953D01*
X14503047Y48558477D01*
X14464952Y48482286D01*
X14426857Y48444191D01*
X14350666Y48406096D01*
X14160190Y48406096D01*
X14084000Y48444191D01*
X14045904Y48482286D01*
X14769714Y48939429D02*
X14960190Y48406096D01*
X15150666Y48939429D01*
D11*
X21728666Y45341334D02*
X21728666Y44841334D01*
X21695333Y44741334D01*
X21628666Y44674667D01*
X21528666Y44641334D01*
X21462000Y44641334D01*
X21962000Y45341334D02*
X22362000Y45341334D01*
X22162000Y44641334D02*
X22162000Y45341334D01*
X22562000Y44841334D02*
X22895333Y44841334D01*
X22495333Y44641334D02*
X22728666Y45341334D01*
X22962000Y44641334D01*
X23562000Y45308000D02*
X23495333Y45341334D01*
X23395333Y45341334D01*
X23295333Y45308000D01*
X23228666Y45241334D01*
X23195333Y45174667D01*
X23162000Y45041334D01*
X23162000Y44941334D01*
X23195333Y44808000D01*
X23228666Y44741334D01*
X23295333Y44674667D01*
X23395333Y44641334D01*
X23462000Y44641334D01*
X23562000Y44674667D01*
X23595333Y44708000D01*
X23595333Y44941334D01*
X23462000Y44941334D01*
X24428666Y44641334D02*
X24428666Y45341334D01*
X24695333Y45341334D01*
X24762000Y45308000D01*
X24795333Y45274667D01*
X24828666Y45208000D01*
X24828666Y45108000D01*
X24795333Y45041334D01*
X24762000Y45008000D01*
X24695333Y44974667D01*
X24428666Y44974667D01*
X25062000Y45341334D02*
X25228666Y44641334D01*
X25362000Y45141334D01*
X25495333Y44641334D01*
X25662000Y45341334D01*
X26328666Y44641334D02*
X26095333Y44974667D01*
X25928666Y44641334D02*
X25928666Y45341334D01*
X26195333Y45341334D01*
X26262000Y45308000D01*
X26295333Y45274667D01*
X26328666Y45208000D01*
X26328666Y45108000D01*
X26295333Y45041334D01*
X26262000Y45008000D01*
X26195333Y44974667D01*
X25928666Y44974667D01*
D10*
X362000Y16719620D02*
X323904Y16643429D01*
X323904Y16529143D01*
X362000Y16414858D01*
X438190Y16338667D01*
X514380Y16300572D01*
X666761Y16262477D01*
X781047Y16262477D01*
X933428Y16300572D01*
X1009619Y16338667D01*
X1085809Y16414858D01*
X1123904Y16529143D01*
X1123904Y16605334D01*
X1085809Y16719620D01*
X1047714Y16757715D01*
X781047Y16757715D01*
X781047Y16605334D01*
X1123904Y17519620D02*
X1123904Y17062477D01*
X1123904Y17291048D02*
X323904Y17291048D01*
X438190Y17214858D01*
X514380Y17138667D01*
X552476Y17062477D01*
X400095Y17824381D02*
X362000Y17862477D01*
X323904Y17938667D01*
X323904Y18129143D01*
X362000Y18205334D01*
X400095Y18243429D01*
X476285Y18281524D01*
X552476Y18281524D01*
X666761Y18243429D01*
X1123904Y17786286D01*
X1123904Y18281524D01*
X35490095Y40843124D02*
X35490095Y40385981D01*
X34690095Y40614553D02*
X35490095Y40614553D01*
X35490095Y40195505D02*
X34690095Y39662172D01*
X35490095Y39662172D02*
X34690095Y40195505D01*
X8628285Y33456620D02*
X8628285Y34456620D01*
X9009238Y34456620D01*
X9104476Y34409000D01*
X9152095Y34361381D01*
X9199714Y34266143D01*
X9199714Y34123286D01*
X9152095Y34028048D01*
X9104476Y33980429D01*
X9009238Y33932810D01*
X8628285Y33932810D01*
X10199714Y33456620D02*
X9866380Y33932810D01*
X9628285Y33456620D02*
X9628285Y34456620D01*
X10009238Y34456620D01*
X10104476Y34409000D01*
X10152095Y34361381D01*
X10199714Y34266143D01*
X10199714Y34123286D01*
X10152095Y34028048D01*
X10104476Y33980429D01*
X10009238Y33932810D01*
X9628285Y33932810D01*
X10818761Y34456620D02*
X11009238Y34456620D01*
X11104476Y34409000D01*
X11199714Y34313762D01*
X11247333Y34123286D01*
X11247333Y33789953D01*
X11199714Y33599477D01*
X11104476Y33504239D01*
X11009238Y33456620D01*
X10818761Y33456620D01*
X10723523Y33504239D01*
X10628285Y33599477D01*
X10580666Y33789953D01*
X10580666Y34123286D01*
X10628285Y34313762D01*
X10723523Y34409000D01*
X10818761Y34456620D01*
X12199714Y34409000D02*
X12104476Y34456620D01*
X11961619Y34456620D01*
X11818761Y34409000D01*
X11723523Y34313762D01*
X11675904Y34218524D01*
X11628285Y34028048D01*
X11628285Y33885191D01*
X11675904Y33694715D01*
X11723523Y33599477D01*
X11818761Y33504239D01*
X11961619Y33456620D01*
X12056857Y33456620D01*
X12199714Y33504239D01*
X12247333Y33551858D01*
X12247333Y33885191D01*
X12056857Y33885191D01*
X24106333Y29376620D02*
X24106333Y28662334D01*
X24058714Y28519477D01*
X23963476Y28424239D01*
X23820619Y28376620D01*
X23725380Y28376620D01*
X24439666Y29376620D02*
X25011095Y29376620D01*
X24725380Y28376620D02*
X24725380Y29376620D01*
X25296809Y28662334D02*
X25773000Y28662334D01*
X25201571Y28376620D02*
X25534904Y29376620D01*
X25868238Y28376620D01*
X26725380Y29329000D02*
X26630142Y29376620D01*
X26487285Y29376620D01*
X26344428Y29329000D01*
X26249190Y29233762D01*
X26201571Y29138524D01*
X26153952Y28948048D01*
X26153952Y28805191D01*
X26201571Y28614715D01*
X26249190Y28519477D01*
X26344428Y28424239D01*
X26487285Y28376620D01*
X26582523Y28376620D01*
X26725380Y28424239D01*
X26773000Y28471858D01*
X26773000Y28805191D01*
X26582523Y28805191D01*
X9821285Y6435715D02*
X10221285Y6435715D01*
X10392714Y5807143D02*
X9821285Y5807143D01*
X9821285Y7007143D01*
X10392714Y7007143D01*
X10849857Y5864286D02*
X11021285Y5807143D01*
X11307000Y5807143D01*
X11421285Y5864286D01*
X11478428Y5921429D01*
X11535571Y6035715D01*
X11535571Y6150000D01*
X11478428Y6264286D01*
X11421285Y6321429D01*
X11307000Y6378572D01*
X11078428Y6435715D01*
X10964142Y6492858D01*
X10907000Y6550000D01*
X10849857Y6664286D01*
X10849857Y6778572D01*
X10907000Y6892858D01*
X10964142Y6950000D01*
X11078428Y7007143D01*
X11364142Y7007143D01*
X11535571Y6950000D01*
X12049857Y5807143D02*
X12049857Y7007143D01*
X12507000Y7007143D01*
X12621285Y6950000D01*
X12678428Y6892858D01*
X12735571Y6778572D01*
X12735571Y6607143D01*
X12678428Y6492858D01*
X12621285Y6435715D01*
X12507000Y6378572D01*
X12049857Y6378572D01*
X13249857Y6264286D02*
X14164142Y6264286D01*
X14735571Y5807143D02*
X14735571Y7007143D01*
X15192714Y7007143D01*
X15307000Y6950000D01*
X15364142Y6892858D01*
X15421285Y6778572D01*
X15421285Y6607143D01*
X15364142Y6492858D01*
X15307000Y6435715D01*
X15192714Y6378572D01*
X14735571Y6378572D01*
X15935571Y5807143D02*
X15935571Y6607143D01*
X15935571Y6378572D02*
X15992714Y6492858D01*
X16049857Y6550000D01*
X16164142Y6607143D01*
X16278428Y6607143D01*
X16849857Y5807143D02*
X16735571Y5864286D01*
X16678428Y5921429D01*
X16621285Y6035715D01*
X16621285Y6378572D01*
X16678428Y6492858D01*
X16735571Y6550000D01*
X16849857Y6607143D01*
X17021285Y6607143D01*
X17135571Y6550000D01*
X17192714Y6492858D01*
X17249857Y6378572D01*
X17249857Y6035715D01*
X17192714Y5921429D01*
X17135571Y5864286D01*
X17021285Y5807143D01*
X16849857Y5807143D01*
X18278428Y6607143D02*
X18278428Y5635715D01*
X18221285Y5521429D01*
X18164142Y5464286D01*
X18049857Y5407143D01*
X17878428Y5407143D01*
X17764142Y5464286D01*
X18278428Y5864286D02*
X18164142Y5807143D01*
X17935571Y5807143D01*
X17821285Y5864286D01*
X17764142Y5921429D01*
X17707000Y6035715D01*
X17707000Y6378572D01*
X17764142Y6492858D01*
X17821285Y6550000D01*
X17935571Y6607143D01*
X18164142Y6607143D01*
X18278428Y6550000D01*
X19707000Y6150000D02*
X20278428Y6150000D01*
X19592714Y5807143D02*
X19992714Y7007143D01*
X20392714Y5807143D01*
X21307000Y5807143D02*
X21307000Y7007143D01*
X21307000Y5864286D02*
X21192714Y5807143D01*
X20964142Y5807143D01*
X20849857Y5864286D01*
X20792714Y5921429D01*
X20735571Y6035715D01*
X20735571Y6378572D01*
X20792714Y6492858D01*
X20849857Y6550000D01*
X20964142Y6607143D01*
X21192714Y6607143D01*
X21307000Y6550000D01*
X22392714Y5807143D02*
X22392714Y6435715D01*
X22335571Y6550000D01*
X22221285Y6607143D01*
X21992714Y6607143D01*
X21878428Y6550000D01*
X22392714Y5864286D02*
X22278428Y5807143D01*
X21992714Y5807143D01*
X21878428Y5864286D01*
X21821285Y5978572D01*
X21821285Y6092858D01*
X21878428Y6207143D01*
X21992714Y6264286D01*
X22278428Y6264286D01*
X22392714Y6321429D01*
X22964142Y6607143D02*
X22964142Y5407143D01*
X22964142Y6550000D02*
X23078428Y6607143D01*
X23307000Y6607143D01*
X23421285Y6550000D01*
X23478428Y6492858D01*
X23535571Y6378572D01*
X23535571Y6035715D01*
X23478428Y5921429D01*
X23421285Y5864286D01*
X23307000Y5807143D01*
X23078428Y5807143D01*
X22964142Y5864286D01*
X23878428Y6607143D02*
X24335571Y6607143D01*
X24049857Y7007143D02*
X24049857Y5978572D01*
X24107000Y5864286D01*
X24221285Y5807143D01*
X24335571Y5807143D01*
X24907000Y5807143D02*
X24792714Y5864286D01*
X24735571Y5921429D01*
X24678428Y6035715D01*
X24678428Y6378572D01*
X24735571Y6492858D01*
X24792714Y6550000D01*
X24907000Y6607143D01*
X25078428Y6607143D01*
X25192714Y6550000D01*
X25249857Y6492858D01*
X25307000Y6378572D01*
X25307000Y6035715D01*
X25249857Y5921429D01*
X25192714Y5864286D01*
X25078428Y5807143D01*
X24907000Y5807143D01*
X25821285Y5807143D02*
X25821285Y6607143D01*
X25821285Y6378572D02*
X25878428Y6492858D01*
X25935571Y6550000D01*
X26049857Y6607143D01*
X26164142Y6607143D01*
D11*
X9230333Y44641334D02*
X9230333Y45341334D01*
X9497000Y45341334D01*
X9563666Y45308000D01*
X9597000Y45274667D01*
X9630333Y45208000D01*
X9630333Y45108000D01*
X9597000Y45041334D01*
X9563666Y45008000D01*
X9497000Y44974667D01*
X9230333Y44974667D01*
X10330333Y44641334D02*
X10097000Y44974667D01*
X9930333Y44641334D02*
X9930333Y45341334D01*
X10197000Y45341334D01*
X10263666Y45308000D01*
X10297000Y45274667D01*
X10330333Y45208000D01*
X10330333Y45108000D01*
X10297000Y45041334D01*
X10263666Y45008000D01*
X10197000Y44974667D01*
X9930333Y44974667D01*
X10763666Y45341334D02*
X10897000Y45341334D01*
X10963666Y45308000D01*
X11030333Y45241334D01*
X11063666Y45108000D01*
X11063666Y44874667D01*
X11030333Y44741334D01*
X10963666Y44674667D01*
X10897000Y44641334D01*
X10763666Y44641334D01*
X10697000Y44674667D01*
X10630333Y44741334D01*
X10597000Y44874667D01*
X10597000Y45108000D01*
X10630333Y45241334D01*
X10697000Y45308000D01*
X10763666Y45341334D01*
X11730333Y45308000D02*
X11663666Y45341334D01*
X11563666Y45341334D01*
X11463666Y45308000D01*
X11397000Y45241334D01*
X11363666Y45174667D01*
X11330333Y45041334D01*
X11330333Y44941334D01*
X11363666Y44808000D01*
X11397000Y44741334D01*
X11463666Y44674667D01*
X11563666Y44641334D01*
X11630333Y44641334D01*
X11730333Y44674667D01*
X11763666Y44708000D01*
X11763666Y44941334D01*
X11630333Y44941334D01*
X12597000Y44641334D02*
X12597000Y45341334D01*
X12863666Y45341334D01*
X12930333Y45308000D01*
X12963666Y45274667D01*
X12997000Y45208000D01*
X12997000Y45108000D01*
X12963666Y45041334D01*
X12930333Y45008000D01*
X12863666Y44974667D01*
X12597000Y44974667D01*
X13230333Y45341334D02*
X13397000Y44641334D01*
X13530333Y45141334D01*
X13663666Y44641334D01*
X13830333Y45341334D01*
X14497000Y44641334D02*
X14263666Y44974667D01*
X14097000Y44641334D02*
X14097000Y45341334D01*
X14363666Y45341334D01*
X14430333Y45308000D01*
X14463666Y45274667D01*
X14497000Y45208000D01*
X14497000Y45108000D01*
X14463666Y45041334D01*
X14430333Y45008000D01*
X14363666Y44974667D01*
X14097000Y44974667D01*
D10*
X362000Y11766620D02*
X323904Y11690429D01*
X323904Y11576143D01*
X362000Y11461858D01*
X438190Y11385667D01*
X514380Y11347572D01*
X666761Y11309477D01*
X781047Y11309477D01*
X933428Y11347572D01*
X1009619Y11385667D01*
X1085809Y11461858D01*
X1123904Y11576143D01*
X1123904Y11652334D01*
X1085809Y11766620D01*
X1047714Y11804715D01*
X781047Y11804715D01*
X781047Y11652334D01*
X1123904Y12566620D02*
X1123904Y12109477D01*
X1123904Y12338048D02*
X323904Y12338048D01*
X438190Y12261858D01*
X514380Y12185667D01*
X552476Y12109477D01*
X323904Y12833286D02*
X323904Y13328524D01*
X628666Y13061858D01*
X628666Y13176143D01*
X666761Y13252334D01*
X704857Y13290429D01*
X781047Y13328524D01*
X971523Y13328524D01*
X1047714Y13290429D01*
X1085809Y13252334D01*
X1123904Y13176143D01*
X1123904Y12947572D01*
X1085809Y12871381D01*
X1047714Y12833286D01*
X362000Y19513620D02*
X323904Y19437429D01*
X323904Y19323143D01*
X362000Y19208858D01*
X438190Y19132667D01*
X514380Y19094572D01*
X666761Y19056477D01*
X781047Y19056477D01*
X933428Y19094572D01*
X1009619Y19132667D01*
X1085809Y19208858D01*
X1123904Y19323143D01*
X1123904Y19399334D01*
X1085809Y19513620D01*
X1047714Y19551715D01*
X781047Y19551715D01*
X781047Y19399334D01*
X1123904Y20313620D02*
X1123904Y19856477D01*
X1123904Y20085048D02*
X323904Y20085048D01*
X438190Y20008858D01*
X514380Y19932667D01*
X552476Y19856477D01*
X590571Y20999334D02*
X1123904Y20999334D01*
X285809Y20808858D02*
X857238Y20618381D01*
X857238Y21113620D01*
X34690095Y37725334D02*
X35071047Y37992000D01*
X34690095Y38182477D02*
X35490095Y38182477D01*
X35490095Y37877715D01*
X35452000Y37801524D01*
X35413904Y37763429D01*
X35337714Y37725334D01*
X35223428Y37725334D01*
X35147238Y37763429D01*
X35109142Y37801524D01*
X35071047Y37877715D01*
X35071047Y38182477D01*
X35490095Y37458667D02*
X34690095Y36925334D01*
X35490095Y36925334D02*
X34690095Y37458667D01*
X23539571Y3956096D02*
X23272904Y4337048D01*
X23082428Y3956096D02*
X23082428Y4756096D01*
X23387190Y4756096D01*
X23463380Y4718000D01*
X23501476Y4679905D01*
X23539571Y4603715D01*
X23539571Y4489429D01*
X23501476Y4413239D01*
X23463380Y4375143D01*
X23387190Y4337048D01*
X23082428Y4337048D01*
X24187190Y3994191D02*
X24111000Y3956096D01*
X23958619Y3956096D01*
X23882428Y3994191D01*
X23844333Y4070381D01*
X23844333Y4375143D01*
X23882428Y4451334D01*
X23958619Y4489429D01*
X24111000Y4489429D01*
X24187190Y4451334D01*
X24225285Y4375143D01*
X24225285Y4298953D01*
X23844333Y4222762D01*
X24491952Y4489429D02*
X24682428Y3956096D01*
X24872904Y4489429D01*
X25177666Y4032286D02*
X25215761Y3994191D01*
X25177666Y3956096D01*
X25139571Y3994191D01*
X25177666Y4032286D01*
X25177666Y3956096D01*
X25520523Y4679905D02*
X25558619Y4718000D01*
X25634809Y4756096D01*
X25825285Y4756096D01*
X25901476Y4718000D01*
X25939571Y4679905D01*
X25977666Y4603715D01*
X25977666Y4527524D01*
X25939571Y4413239D01*
X25482428Y3956096D01*
X25977666Y3956096D01*
X323904Y46888524D02*
X323904Y47383762D01*
X628666Y47117096D01*
X628666Y47231381D01*
X666761Y47307572D01*
X704857Y47345667D01*
X781047Y47383762D01*
X971523Y47383762D01*
X1047714Y47345667D01*
X1085809Y47307572D01*
X1123904Y47231381D01*
X1123904Y47002810D01*
X1085809Y46926620D01*
X1047714Y46888524D01*
X323904Y47612334D02*
X1123904Y47879000D01*
X323904Y48145667D01*
X323904Y48336143D02*
X323904Y48831381D01*
X628666Y48564715D01*
X628666Y48679000D01*
X666761Y48755191D01*
X704857Y48793286D01*
X781047Y48831381D01*
X971523Y48831381D01*
X1047714Y48793286D01*
X1085809Y48755191D01*
X1123904Y48679000D01*
X1123904Y48450429D01*
X1085809Y48374239D01*
X1047714Y48336143D01*
X35452000Y15284381D02*
X35490095Y15360572D01*
X35490095Y15474858D01*
X35452000Y15589143D01*
X35375809Y15665334D01*
X35299619Y15703429D01*
X35147238Y15741524D01*
X35032952Y15741524D01*
X34880571Y15703429D01*
X34804380Y15665334D01*
X34728190Y15589143D01*
X34690095Y15474858D01*
X34690095Y15398667D01*
X34728190Y15284381D01*
X34766285Y15246286D01*
X35032952Y15246286D01*
X35032952Y15398667D01*
X35490095Y14751048D02*
X35490095Y14674858D01*
X35452000Y14598667D01*
X35413904Y14560572D01*
X35337714Y14522477D01*
X35185333Y14484381D01*
X34994857Y14484381D01*
X34842476Y14522477D01*
X34766285Y14560572D01*
X34728190Y14598667D01*
X34690095Y14674858D01*
X34690095Y14751048D01*
X34728190Y14827239D01*
X34766285Y14865334D01*
X34842476Y14903429D01*
X34994857Y14941524D01*
X35185333Y14941524D01*
X35337714Y14903429D01*
X35413904Y14865334D01*
X35452000Y14827239D01*
X35490095Y14751048D01*
X35490095Y13989143D02*
X35490095Y13912953D01*
X35452000Y13836762D01*
X35413904Y13798667D01*
X35337714Y13760572D01*
X35185333Y13722477D01*
X34994857Y13722477D01*
X34842476Y13760572D01*
X34766285Y13798667D01*
X34728190Y13836762D01*
X34690095Y13912953D01*
X34690095Y13989143D01*
X34728190Y14065334D01*
X34766285Y14103429D01*
X34842476Y14141524D01*
X34994857Y14179620D01*
X35185333Y14179620D01*
X35337714Y14141524D01*
X35413904Y14103429D01*
X35452000Y14065334D01*
X35490095Y13989143D01*
X20155333Y49206096D02*
X20650571Y49206096D01*
X20383904Y48901334D01*
X20498190Y48901334D01*
X20574380Y48863239D01*
X20612476Y48825143D01*
X20650571Y48748953D01*
X20650571Y48558477D01*
X20612476Y48482286D01*
X20574380Y48444191D01*
X20498190Y48406096D01*
X20269619Y48406096D01*
X20193428Y48444191D01*
X20155333Y48482286D01*
X20917238Y48939429D02*
X21107714Y48406096D01*
X21298190Y48939429D01*
X21526761Y49206096D02*
X22022000Y49206096D01*
X21755333Y48901334D01*
X21869619Y48901334D01*
X21945809Y48863239D01*
X21983904Y48825143D01*
X22022000Y48748953D01*
X22022000Y48558477D01*
X21983904Y48482286D01*
X21945809Y48444191D01*
X21869619Y48406096D01*
X21641047Y48406096D01*
X21564857Y48444191D01*
X21526761Y48482286D01*
X26402952Y49206096D02*
X26022000Y49206096D01*
X25983904Y48825143D01*
X26022000Y48863239D01*
X26098190Y48901334D01*
X26288666Y48901334D01*
X26364857Y48863239D01*
X26402952Y48825143D01*
X26441047Y48748953D01*
X26441047Y48558477D01*
X26402952Y48482286D01*
X26364857Y48444191D01*
X26288666Y48406096D01*
X26098190Y48406096D01*
X26022000Y48444191D01*
X25983904Y48482286D01*
X26707714Y48939429D02*
X26898190Y48406096D01*
X27088666Y48939429D01*
X35452000Y48463124D02*
X35490095Y48539315D01*
X35490095Y48653600D01*
X35452000Y48767886D01*
X35375809Y48844077D01*
X35299619Y48882172D01*
X35147238Y48920267D01*
X35032952Y48920267D01*
X34880571Y48882172D01*
X34804380Y48844077D01*
X34728190Y48767886D01*
X34690095Y48653600D01*
X34690095Y48577410D01*
X34728190Y48463124D01*
X34766285Y48425029D01*
X35032952Y48425029D01*
X35032952Y48577410D01*
X34690095Y48082172D02*
X35490095Y48082172D01*
X34690095Y47625029D01*
X35490095Y47625029D01*
X34690095Y47244077D02*
X35490095Y47244077D01*
X35490095Y47053600D01*
X35452000Y46939315D01*
X35375809Y46863124D01*
X35299619Y46825029D01*
X35147238Y46786934D01*
X35032952Y46786934D01*
X34880571Y46825029D01*
X34804380Y46863124D01*
X34728190Y46939315D01*
X34690095Y47053600D01*
X34690095Y47244077D01*
D12*
%TO.C,J5*%
X9347000Y45533000D02*
X8017000Y45533000D01*
X10617000Y48193000D02*
X15757000Y48193000D01*
X8017000Y45533000D02*
X8017000Y46863000D01*
X10617000Y45533000D02*
X15757000Y45533000D01*
X15757000Y45533000D02*
X15757000Y48193000D01*
X10617000Y45533000D02*
X10617000Y48193000D01*
%TO.C,J6*%
X26347000Y48193000D02*
X27677000Y48193000D01*
X25077000Y48193000D02*
X19937000Y48193000D01*
X25077000Y48193000D02*
X25077000Y45533000D01*
X25077000Y45533000D02*
X19937000Y45533000D01*
X19937000Y48193000D02*
X19937000Y45533000D01*
X27677000Y48193000D02*
X27677000Y46863000D01*
%TO.C,J1*%
X1337000Y803600D02*
X6537000Y803600D01*
X3937000Y46583600D02*
X6537000Y46583600D01*
X1337000Y49183600D02*
X1337000Y803600D01*
X6537000Y49183600D02*
X6537000Y47853600D01*
X5207000Y49183600D02*
X6537000Y49183600D01*
X3937000Y49183600D02*
X3937000Y46583600D01*
X6537000Y46583600D02*
X6537000Y803600D01*
X1337000Y49183600D02*
X3937000Y49183600D01*
%TO.C,J2*%
X31877000Y49183600D02*
X31877000Y46583600D01*
X34477000Y46583600D02*
X34477000Y803600D01*
X31877000Y46583600D02*
X34477000Y46583600D01*
X34477000Y49183600D02*
X34477000Y47853600D01*
X29277000Y803600D02*
X34477000Y803600D01*
X33147000Y49183600D02*
X34477000Y49183600D01*
X29277000Y49183600D02*
X29277000Y803600D01*
X29277000Y49183600D02*
X31877000Y49183600D01*
%TD*%
%LPC*%
D13*
%TO.C,J5*%
X9347000Y46863000D03*
D14*
X11887000Y46863000D03*
X14427000Y46863000D03*
%TD*%
D13*
%TO.C,J6*%
X26347000Y46863000D03*
D14*
X23807000Y46863000D03*
X21267000Y46863000D03*
%TD*%
D13*
%TO.C,J1*%
X5207000Y47853600D03*
D14*
X2667000Y47853600D03*
X5207000Y45313600D03*
X2667000Y45313600D03*
X5207000Y42773600D03*
X2667000Y42773600D03*
X5207000Y40233600D03*
X2667000Y40233600D03*
X5207000Y37693600D03*
X2667000Y37693600D03*
X5207000Y35153600D03*
X2667000Y35153600D03*
X5207000Y32613600D03*
X2667000Y32613600D03*
X5207000Y30073600D03*
X2667000Y30073600D03*
X5207000Y27533600D03*
X2667000Y27533600D03*
X5207000Y24993600D03*
X2667000Y24993600D03*
X5207000Y22453600D03*
X2667000Y22453600D03*
X5207000Y19913600D03*
X2667000Y19913600D03*
X5207000Y17373600D03*
X2667000Y17373600D03*
X5207000Y14833600D03*
X2667000Y14833600D03*
X5207000Y12293600D03*
X2667000Y12293600D03*
X5207000Y9753600D03*
X2667000Y9753600D03*
X5207000Y7213600D03*
X2667000Y7213600D03*
X5207000Y4673600D03*
X2667000Y4673600D03*
X5207000Y2133600D03*
X2667000Y2133600D03*
%TD*%
D13*
%TO.C,J2*%
X33147000Y47853600D03*
D14*
X30607000Y47853600D03*
X33147000Y45313600D03*
X30607000Y45313600D03*
X33147000Y42773600D03*
X30607000Y42773600D03*
X33147000Y40233600D03*
X30607000Y40233600D03*
X33147000Y37693600D03*
X30607000Y37693600D03*
X33147000Y35153600D03*
X30607000Y35153600D03*
X33147000Y32613600D03*
X30607000Y32613600D03*
X33147000Y30073600D03*
X30607000Y30073600D03*
X33147000Y27533600D03*
X30607000Y27533600D03*
X33147000Y24993600D03*
X30607000Y24993600D03*
X33147000Y22453600D03*
X30607000Y22453600D03*
X33147000Y19913600D03*
X30607000Y19913600D03*
X33147000Y17373600D03*
X30607000Y17373600D03*
X33147000Y14833600D03*
X30607000Y14833600D03*
X33147000Y12293600D03*
X30607000Y12293600D03*
X33147000Y9753600D03*
X30607000Y9753600D03*
X33147000Y7213600D03*
X30607000Y7213600D03*
X33147000Y4673600D03*
X30607000Y4673600D03*
X33147000Y2133600D03*
X30607000Y2133600D03*
%TD*%
D13*
%TO.C,JTAG1*%
X24003000Y41503600D03*
D14*
X26543000Y41503600D03*
X24003000Y38963600D03*
X26543000Y38963600D03*
X24003000Y36423600D03*
X26543000Y36423600D03*
X24003000Y33883600D03*
X26543000Y33883600D03*
X24003000Y31343600D03*
X26543000Y31343600D03*
%TD*%
D13*
%TO.C,PROG1*%
X9311000Y41503600D03*
D14*
X11851000Y41503600D03*
X9311000Y38963600D03*
X11851000Y38963600D03*
X9311000Y36423600D03*
X11851000Y36423600D03*
%TD*%
M02*
