%TF.GenerationSoftware,KiCad,Pcbnew,(6.0.10)*%
%TF.CreationDate,2023-02-13T00:06:07+09:00*%
%TF.ProjectId,esp-prog-adator,6573702d-7072-46f6-972d-616461746f72,2*%
%TF.SameCoordinates,PX85d5798PY7999e20*%
%TF.FileFunction,Copper,L1,Top*%
%TF.FilePolarity,Positive*%
%FSLAX46Y46*%
G04 Gerber Fmt 4.6, Leading zero omitted, Abs format (unit mm)*
G04 Created by KiCad (PCBNEW (6.0.10)) date 2023-02-13 00:06:07*
%MOMM*%
%LPD*%
G01*
G04 APERTURE LIST*
%TA.AperFunction,ComponentPad*%
%ADD10R,1.700000X1.700000*%
%TD*%
%TA.AperFunction,ComponentPad*%
%ADD11O,1.700000X1.700000*%
%TD*%
%TA.AperFunction,ViaPad*%
%ADD12C,0.800000*%
%TD*%
%TA.AperFunction,Conductor*%
%ADD13C,0.500000*%
%TD*%
%TA.AperFunction,Conductor*%
%ADD14C,0.250000*%
%TD*%
G04 APERTURE END LIST*
D10*
%TO.P,J5,1,Pin_1*%
%TO.N,+3V3*%
X9347000Y46863000D03*
D11*
%TO.P,J5,2,Pin_2*%
%TO.N,/Vprog*%
X11887000Y46863000D03*
%TO.P,J5,3,Pin_3*%
%TO.N,+5V*%
X14427000Y46863000D03*
%TD*%
D10*
%TO.P,J6,1,Pin_1*%
%TO.N,+3V3*%
X26347000Y46863000D03*
D11*
%TO.P,J6,2,Pin_2*%
%TO.N,/Vjtag*%
X23807000Y46863000D03*
%TO.P,J6,3,Pin_3*%
%TO.N,+5V*%
X21267000Y46863000D03*
%TD*%
D10*
%TO.P,J1,1,Pin_1*%
%TO.N,+3V3*%
X5207000Y47853600D03*
D11*
%TO.P,J1,2,Pin_2*%
X2667000Y47853600D03*
%TO.P,J1,3,Pin_3*%
%TO.N,/EN*%
X5207000Y45313600D03*
%TO.P,J1,4,Pin_4*%
X2667000Y45313600D03*
%TO.P,J1,5,Pin_5*%
%TO.N,Net-(J1-Pad5)*%
X5207000Y42773600D03*
%TO.P,J1,6,Pin_6*%
X2667000Y42773600D03*
%TO.P,J1,7,Pin_7*%
%TO.N,Net-(J1-Pad7)*%
X5207000Y40233600D03*
%TO.P,J1,8,Pin_8*%
X2667000Y40233600D03*
%TO.P,J1,9,Pin_9*%
%TO.N,Net-(J1-Pad10)*%
X5207000Y37693600D03*
%TO.P,J1,10,Pin_10*%
X2667000Y37693600D03*
%TO.P,J1,11,Pin_11*%
%TO.N,Net-(J1-Pad11)*%
X5207000Y35153600D03*
%TO.P,J1,12,Pin_12*%
X2667000Y35153600D03*
%TO.P,J1,13,Pin_13*%
%TO.N,Net-(J1-Pad13)*%
X5207000Y32613600D03*
%TO.P,J1,14,Pin_14*%
X2667000Y32613600D03*
%TO.P,J1,15,Pin_15*%
%TO.N,Net-(J1-Pad15)*%
X5207000Y30073600D03*
%TO.P,J1,16,Pin_16*%
X2667000Y30073600D03*
%TO.P,J1,17,Pin_17*%
%TO.N,Net-(J1-Pad17)*%
X5207000Y27533600D03*
%TO.P,J1,18,Pin_18*%
X2667000Y27533600D03*
%TO.P,J1,19,Pin_19*%
%TO.N,Net-(J1-Pad19)*%
X5207000Y24993600D03*
%TO.P,J1,20,Pin_20*%
X2667000Y24993600D03*
%TO.P,J1,21,Pin_21*%
%TO.N,Net-(J1-Pad21)*%
X5207000Y22453600D03*
%TO.P,J1,22,Pin_22*%
X2667000Y22453600D03*
%TO.P,J1,23,Pin_23*%
%TO.N,/TMS(G14)*%
X5207000Y19913600D03*
%TO.P,J1,24,Pin_24*%
X2667000Y19913600D03*
%TO.P,J1,25,Pin_25*%
%TO.N,/TDI(G12)*%
X5207000Y17373600D03*
%TO.P,J1,26,Pin_26*%
X2667000Y17373600D03*
%TO.P,J1,27,Pin_27*%
%TO.N,Net-(J1-Pad27)*%
X5207000Y14833600D03*
%TO.P,J1,28,Pin_28*%
X2667000Y14833600D03*
%TO.P,J1,29,Pin_29*%
%TO.N,/TCK(G13)*%
X5207000Y12293600D03*
%TO.P,J1,30,Pin_30*%
X2667000Y12293600D03*
%TO.P,J1,31,Pin_31*%
%TO.N,Net-(J1-Pad31)*%
X5207000Y9753600D03*
%TO.P,J1,32,Pin_32*%
X2667000Y9753600D03*
%TO.P,J1,33,Pin_33*%
%TO.N,Net-(J1-Pad33)*%
X5207000Y7213600D03*
%TO.P,J1,34,Pin_34*%
X2667000Y7213600D03*
%TO.P,J1,35,Pin_35*%
%TO.N,Net-(J1-Pad35)*%
X5207000Y4673600D03*
%TO.P,J1,36,Pin_36*%
X2667000Y4673600D03*
%TO.P,J1,37,Pin_37*%
%TO.N,+5V*%
X5207000Y2133600D03*
%TO.P,J1,38,Pin_38*%
X2667000Y2133600D03*
%TD*%
D10*
%TO.P,J2,1,Pin_1*%
%TO.N,GND*%
X33147000Y47853600D03*
D11*
%TO.P,J2,2,Pin_2*%
X30607000Y47853600D03*
%TO.P,J2,3,Pin_3*%
%TO.N,Net-(J2-Pad3)*%
X33147000Y45313600D03*
%TO.P,J2,4,Pin_4*%
X30607000Y45313600D03*
%TO.P,J2,5,Pin_5*%
%TO.N,Net-(J2-Pad5)*%
X33147000Y42773600D03*
%TO.P,J2,6,Pin_6*%
X30607000Y42773600D03*
%TO.P,J2,7,Pin_7*%
%TO.N,/TXD*%
X33147000Y40233600D03*
%TO.P,J2,8,Pin_8*%
X30607000Y40233600D03*
%TO.P,J2,9,Pin_9*%
%TO.N,/RXD*%
X33147000Y37693600D03*
%TO.P,J2,10,Pin_10*%
X30607000Y37693600D03*
%TO.P,J2,11,Pin_11*%
%TO.N,Net-(J2-Pad11)*%
X33147000Y35153600D03*
%TO.P,J2,12,Pin_12*%
X30607000Y35153600D03*
%TO.P,J2,13,Pin_13*%
%TO.N,Net-(J2-Pad13)*%
X33147000Y32613600D03*
%TO.P,J2,14,Pin_14*%
X30607000Y32613600D03*
%TO.P,J2,15,Pin_15*%
%TO.N,Net-(J2-Pad15)*%
X33147000Y30073600D03*
%TO.P,J2,16,Pin_16*%
X30607000Y30073600D03*
%TO.P,J2,17,Pin_17*%
%TO.N,Net-(J2-Pad17)*%
X33147000Y27533600D03*
%TO.P,J2,18,Pin_18*%
X30607000Y27533600D03*
%TO.P,J2,19,Pin_19*%
%TO.N,Net-(J2-Pad19)*%
X33147000Y24993600D03*
%TO.P,J2,20,Pin_20*%
X30607000Y24993600D03*
%TO.P,J2,21,Pin_21*%
%TO.N,Net-(J2-Pad21)*%
X33147000Y22453600D03*
%TO.P,J2,22,Pin_22*%
X30607000Y22453600D03*
%TO.P,J2,23,Pin_23*%
%TO.N,Net-(J2-Pad23)*%
X33147000Y19913600D03*
%TO.P,J2,24,Pin_24*%
X30607000Y19913600D03*
%TO.P,J2,25,Pin_25*%
%TO.N,Net-(J2-Pad25)*%
X33147000Y17373600D03*
%TO.P,J2,26,Pin_26*%
X30607000Y17373600D03*
%TO.P,J2,27,Pin_27*%
%TO.N,/G00*%
X33147000Y14833600D03*
%TO.P,J2,28,Pin_28*%
X30607000Y14833600D03*
%TO.P,J2,29,Pin_29*%
%TO.N,Net-(J2-Pad29)*%
X33147000Y12293600D03*
%TO.P,J2,30,Pin_30*%
X30607000Y12293600D03*
%TO.P,J2,31,Pin_31*%
%TO.N,/TDO(G15)*%
X33147000Y9753600D03*
%TO.P,J2,32,Pin_32*%
X30607000Y9753600D03*
%TO.P,J2,33,Pin_33*%
%TO.N,Net-(J2-Pad33)*%
X33147000Y7213600D03*
%TO.P,J2,34,Pin_34*%
X30607000Y7213600D03*
%TO.P,J2,35,Pin_35*%
%TO.N,Net-(J2-Pad35)*%
X33147000Y4673600D03*
%TO.P,J2,36,Pin_36*%
X30607000Y4673600D03*
%TO.P,J2,37,Pin_37*%
%TO.N,Net-(J2-Pad37)*%
X33147000Y2133600D03*
%TO.P,J2,38,Pin_38*%
X30607000Y2133600D03*
%TD*%
D10*
%TO.P,JTAG1,1,Pin_1*%
%TO.N,unconnected-(JTAG1-Pad1)*%
X24003000Y41503600D03*
D11*
%TO.P,JTAG1,2,Pin_2*%
%TO.N,GND*%
X26543000Y41503600D03*
%TO.P,JTAG1,3,Pin_3*%
%TO.N,/TDI(G12)*%
X24003000Y38963600D03*
%TO.P,JTAG1,4,Pin_4*%
%TO.N,unconnected-(JTAG1-Pad4)*%
X26543000Y38963600D03*
%TO.P,JTAG1,5,Pin_5*%
%TO.N,/TDO(G15)*%
X24003000Y36423600D03*
%TO.P,JTAG1,6,Pin_6*%
%TO.N,unconnected-(JTAG1-Pad6)*%
X26543000Y36423600D03*
%TO.P,JTAG1,7,Pin_7*%
%TO.N,/TCK(G13)*%
X24003000Y33883600D03*
%TO.P,JTAG1,8,Pin_8*%
%TO.N,unconnected-(JTAG1-Pad8)*%
X26543000Y33883600D03*
%TO.P,JTAG1,9,Pin_9*%
%TO.N,/TMS(G14)*%
X24003000Y31343600D03*
%TO.P,JTAG1,10,Pin_10*%
%TO.N,/Vjtag*%
X26543000Y31343600D03*
%TD*%
D10*
%TO.P,PROG1,1,Pin_1*%
%TO.N,/G00*%
X9311000Y41503600D03*
D11*
%TO.P,PROG1,2,Pin_2*%
%TO.N,/RXD*%
X11851000Y41503600D03*
%TO.P,PROG1,3,Pin_3*%
%TO.N,GND*%
X9311000Y38963600D03*
%TO.P,PROG1,4,Pin_4*%
%TO.N,/TXD*%
X11851000Y38963600D03*
%TO.P,PROG1,5,Pin_5*%
%TO.N,/Vprog*%
X9311000Y36423600D03*
%TO.P,PROG1,6,Pin_6*%
%TO.N,/EN*%
X11851000Y36423600D03*
%TD*%
D12*
%TO.N,GND*%
X8128000Y44196000D03*
%TO.N,/RXD*%
X28448000Y43815000D03*
%TO.N,/TMS(G14)*%
X12573000Y19913600D03*
%TO.N,/G00*%
X17145000Y43307000D03*
%TO.N,/TDO(G15)*%
X17907000Y30988000D03*
%TD*%
D13*
%TO.N,GND*%
X8128000Y44196000D02*
X7493000Y43561000D01*
X30607000Y47853600D02*
X30200600Y47853600D01*
X7493000Y43561000D02*
X7493000Y40132000D01*
X7493000Y40132000D02*
X8661400Y38963600D01*
X26543000Y44196000D02*
X26543000Y41503600D01*
X30200600Y47853600D02*
X26543000Y44196000D01*
X8661400Y38963600D02*
X9311000Y38963600D01*
%TO.N,+3V3*%
X9347000Y47320000D02*
X11049000Y49022000D01*
X9347000Y46863000D02*
X9347000Y47320000D01*
X26347000Y47440000D02*
X26347000Y46863000D01*
X11049000Y49022000D02*
X24765000Y49022000D01*
X8839000Y47371000D02*
X5689600Y47371000D01*
X5689600Y47371000D02*
X5207000Y47853600D01*
X9347000Y46863000D02*
X8839000Y47371000D01*
X24765000Y49022000D02*
X26347000Y47440000D01*
%TO.N,+5V*%
X14427000Y46863000D02*
X21267000Y46863000D01*
X14427000Y46863000D02*
X14732000Y46558000D01*
X14732000Y11658600D02*
X5207000Y2133600D01*
X14732000Y46558000D02*
X14732000Y11658600D01*
D14*
%TO.N,/RXD*%
X28448000Y43815000D02*
X29083000Y43180000D01*
X29083000Y39217600D02*
X30607000Y37693600D01*
X29083000Y43180000D02*
X29083000Y39217600D01*
%TO.N,/TMS(G14)*%
X5207000Y19913600D02*
X12573000Y19913600D01*
%TO.N,/G00*%
X17145000Y43307000D02*
X19431000Y41021000D01*
X29997400Y14833600D02*
X30607000Y14833600D01*
X19431000Y41021000D02*
X19431000Y25400000D01*
X19431000Y25400000D02*
X29997400Y14833600D01*
%TO.N,/TDO(G15)*%
X17907000Y30988000D02*
X17907000Y21844000D01*
X17907000Y21844000D02*
X29997400Y9753600D01*
X29997400Y9753600D02*
X30607000Y9753600D01*
D13*
%TO.N,/Vprog*%
X13462000Y35496500D02*
X12382500Y34417000D01*
X11887000Y46406000D02*
X13462000Y44831000D01*
X10541000Y34417000D02*
X9311000Y35647000D01*
X9311000Y35647000D02*
X9311000Y36423600D01*
X12382500Y34417000D02*
X10541000Y34417000D01*
X13462000Y44831000D02*
X13462000Y35496500D01*
X11887000Y46863000D02*
X11887000Y46406000D01*
%TO.N,/Vjtag*%
X26543000Y31343600D02*
X26543000Y30734000D01*
X25120600Y29311600D02*
X22885400Y29311600D01*
X23807000Y46413000D02*
X23807000Y46863000D01*
X22885400Y29311600D02*
X21209000Y30988000D01*
X26543000Y30734000D02*
X25120600Y29311600D01*
X21209000Y43815000D02*
X23807000Y46413000D01*
X21209000Y30988000D02*
X21209000Y43815000D01*
%TD*%
M02*
