%TF.GenerationSoftware,KiCad,Pcbnew,(5.1.9)-1*%
%TF.CreationDate,2021-09-08T22:52:31+09:00*%
%TF.ProjectId,esp-prog-adator,6573702d-7072-46f6-972d-616461746f72,rev?*%
%TF.SameCoordinates,Original*%
%TF.FileFunction,Soldermask,Bot*%
%TF.FilePolarity,Negative*%
%FSLAX46Y46*%
G04 Gerber Fmt 4.6, Leading zero omitted, Abs format (unit mm)*
G04 Created by KiCad (PCBNEW (5.1.9)-1) date 2021-09-08 22:52:31*
%MOMM*%
%LPD*%
G01*
G04 APERTURE LIST*
%ADD10O,1.700000X1.700000*%
%ADD11R,1.700000X1.700000*%
G04 APERTURE END LIST*
D10*
%TO.C,J1*%
X83820000Y-116840000D03*
X86360000Y-116840000D03*
X83820000Y-114300000D03*
X86360000Y-114300000D03*
X83820000Y-111760000D03*
X86360000Y-111760000D03*
X83820000Y-109220000D03*
X86360000Y-109220000D03*
X83820000Y-106680000D03*
X86360000Y-106680000D03*
X83820000Y-104140000D03*
X86360000Y-104140000D03*
X83820000Y-101600000D03*
X86360000Y-101600000D03*
X83820000Y-99060000D03*
X86360000Y-99060000D03*
X83820000Y-96520000D03*
X86360000Y-96520000D03*
X83820000Y-93980000D03*
X86360000Y-93980000D03*
X83820000Y-91440000D03*
X86360000Y-91440000D03*
X83820000Y-88900000D03*
X86360000Y-88900000D03*
X83820000Y-86360000D03*
X86360000Y-86360000D03*
X83820000Y-83820000D03*
X86360000Y-83820000D03*
X83820000Y-81280000D03*
X86360000Y-81280000D03*
X83820000Y-78740000D03*
X86360000Y-78740000D03*
X83820000Y-76200000D03*
X86360000Y-76200000D03*
X83820000Y-73660000D03*
X86360000Y-73660000D03*
X83820000Y-71120000D03*
D11*
X86360000Y-71120000D03*
%TD*%
%TO.C,J5*%
X90170000Y-71120000D03*
D10*
X92710000Y-71120000D03*
X95250000Y-71120000D03*
%TD*%
%TO.C,J6*%
X107950000Y-71120000D03*
X105410000Y-71120000D03*
D11*
X102870000Y-71120000D03*
%TD*%
%TO.C,J2*%
X114300000Y-71120000D03*
D10*
X111760000Y-71120000D03*
X114300000Y-73660000D03*
X111760000Y-73660000D03*
X114300000Y-76200000D03*
X111760000Y-76200000D03*
X114300000Y-78740000D03*
X111760000Y-78740000D03*
X114300000Y-81280000D03*
X111760000Y-81280000D03*
X114300000Y-83820000D03*
X111760000Y-83820000D03*
X114300000Y-86360000D03*
X111760000Y-86360000D03*
X114300000Y-88900000D03*
X111760000Y-88900000D03*
X114300000Y-91440000D03*
X111760000Y-91440000D03*
X114300000Y-93980000D03*
X111760000Y-93980000D03*
X114300000Y-96520000D03*
X111760000Y-96520000D03*
X114300000Y-99060000D03*
X111760000Y-99060000D03*
X114300000Y-101600000D03*
X111760000Y-101600000D03*
X114300000Y-104140000D03*
X111760000Y-104140000D03*
X114300000Y-106680000D03*
X111760000Y-106680000D03*
X114300000Y-109220000D03*
X111760000Y-109220000D03*
X114300000Y-111760000D03*
X111760000Y-111760000D03*
X114300000Y-114300000D03*
X111760000Y-114300000D03*
X114300000Y-116840000D03*
X111760000Y-116840000D03*
%TD*%
D11*
%TO.C,JTAG1*%
X105156000Y-77470000D03*
D10*
X107696000Y-77470000D03*
X105156000Y-80010000D03*
X107696000Y-80010000D03*
X105156000Y-82550000D03*
X107696000Y-82550000D03*
X105156000Y-85090000D03*
X107696000Y-85090000D03*
X105156000Y-87630000D03*
X107696000Y-87630000D03*
%TD*%
D11*
%TO.C,PROG1*%
X90464000Y-77470000D03*
D10*
X93004000Y-77470000D03*
X90464000Y-80010000D03*
X93004000Y-80010000D03*
X90464000Y-82550000D03*
X93004000Y-82550000D03*
%TD*%
M02*
