%TF.GenerationSoftware,KiCad,Pcbnew,(6.0.10)*%
%TF.CreationDate,2023-02-13T15:46:09+09:00*%
%TF.ProjectId,esp-prog-adator,6573702d-7072-46f6-972d-616461746f72,2*%
%TF.SameCoordinates,PX82144b0PY795bdf0*%
%TF.FileFunction,Soldermask,Top*%
%TF.FilePolarity,Negative*%
%FSLAX46Y46*%
G04 Gerber Fmt 4.6, Leading zero omitted, Abs format (unit mm)*
G04 Created by KiCad (PCBNEW (6.0.10)) date 2023-02-13 15:46:09*
%MOMM*%
%LPD*%
G01*
G04 APERTURE LIST*
%ADD10R,1.700000X1.700000*%
%ADD11O,1.700000X1.700000*%
G04 APERTURE END LIST*
D10*
%TO.C,J5*%
X13284000Y46609000D03*
D11*
X15824000Y46609000D03*
X18364000Y46609000D03*
%TD*%
D10*
%TO.C,J6*%
X30284000Y46609000D03*
D11*
X27744000Y46609000D03*
X25204000Y46609000D03*
%TD*%
D10*
%TO.C,J1*%
X9144000Y47599600D03*
D11*
X6604000Y47599600D03*
X9144000Y45059600D03*
X6604000Y45059600D03*
X9144000Y42519600D03*
X6604000Y42519600D03*
X9144000Y39979600D03*
X6604000Y39979600D03*
X9144000Y37439600D03*
X6604000Y37439600D03*
X9144000Y34899600D03*
X6604000Y34899600D03*
X9144000Y32359600D03*
X6604000Y32359600D03*
X9144000Y29819600D03*
X6604000Y29819600D03*
X9144000Y27279600D03*
X6604000Y27279600D03*
X9144000Y24739600D03*
X6604000Y24739600D03*
X9144000Y22199600D03*
X6604000Y22199600D03*
X9144000Y19659600D03*
X6604000Y19659600D03*
X9144000Y17119600D03*
X6604000Y17119600D03*
X9144000Y14579600D03*
X6604000Y14579600D03*
X9144000Y12039600D03*
X6604000Y12039600D03*
X9144000Y9499600D03*
X6604000Y9499600D03*
X9144000Y6959600D03*
X6604000Y6959600D03*
X9144000Y4419600D03*
X6604000Y4419600D03*
X9144000Y1879600D03*
X6604000Y1879600D03*
%TD*%
D10*
%TO.C,J2*%
X37084000Y47599600D03*
D11*
X34544000Y47599600D03*
X37084000Y45059600D03*
X34544000Y45059600D03*
X37084000Y42519600D03*
X34544000Y42519600D03*
X37084000Y39979600D03*
X34544000Y39979600D03*
X37084000Y37439600D03*
X34544000Y37439600D03*
X37084000Y34899600D03*
X34544000Y34899600D03*
X37084000Y32359600D03*
X34544000Y32359600D03*
X37084000Y29819600D03*
X34544000Y29819600D03*
X37084000Y27279600D03*
X34544000Y27279600D03*
X37084000Y24739600D03*
X34544000Y24739600D03*
X37084000Y22199600D03*
X34544000Y22199600D03*
X37084000Y19659600D03*
X34544000Y19659600D03*
X37084000Y17119600D03*
X34544000Y17119600D03*
X37084000Y14579600D03*
X34544000Y14579600D03*
X37084000Y12039600D03*
X34544000Y12039600D03*
X37084000Y9499600D03*
X34544000Y9499600D03*
X37084000Y6959600D03*
X34544000Y6959600D03*
X37084000Y4419600D03*
X34544000Y4419600D03*
X37084000Y1879600D03*
X34544000Y1879600D03*
%TD*%
D10*
%TO.C,JTAG1*%
X27940000Y41249600D03*
D11*
X30480000Y41249600D03*
X27940000Y38709600D03*
X30480000Y38709600D03*
X27940000Y36169600D03*
X30480000Y36169600D03*
X27940000Y33629600D03*
X30480000Y33629600D03*
X27940000Y31089600D03*
X30480000Y31089600D03*
%TD*%
D10*
%TO.C,PROG1*%
X13248000Y41249600D03*
D11*
X15788000Y41249600D03*
X13248000Y38709600D03*
X15788000Y38709600D03*
X13248000Y36169600D03*
X15788000Y36169600D03*
%TD*%
M02*
