%TF.GenerationSoftware,KiCad,Pcbnew,(6.0.10)*%
%TF.CreationDate,2023-02-13T00:06:07+09:00*%
%TF.ProjectId,esp-prog-adator,6573702d-7072-46f6-972d-616461746f72,2*%
%TF.SameCoordinates,PX85d5798PY7999e20*%
%TF.FileFunction,Legend,Bot*%
%TF.FilePolarity,Positive*%
%FSLAX46Y46*%
G04 Gerber Fmt 4.6, Leading zero omitted, Abs format (unit mm)*
G04 Created by KiCad (PCBNEW (6.0.10)) date 2023-02-13 00:06:07*
%MOMM*%
%LPD*%
G01*
G04 APERTURE LIST*
%ADD10C,0.150000*%
%ADD11C,0.120000*%
%ADD12R,1.700000X1.700000*%
%ADD13O,1.700000X1.700000*%
G04 APERTURE END LIST*
D10*
X12199714Y33456620D02*
X12199714Y34456620D01*
X11818761Y34456620D01*
X11723523Y34409000D01*
X11675904Y34361381D01*
X11628285Y34266143D01*
X11628285Y34123286D01*
X11675904Y34028048D01*
X11723523Y33980429D01*
X11818761Y33932810D01*
X12199714Y33932810D01*
X10628285Y33456620D02*
X10961619Y33932810D01*
X11199714Y33456620D02*
X11199714Y34456620D01*
X10818761Y34456620D01*
X10723523Y34409000D01*
X10675904Y34361381D01*
X10628285Y34266143D01*
X10628285Y34123286D01*
X10675904Y34028048D01*
X10723523Y33980429D01*
X10818761Y33932810D01*
X11199714Y33932810D01*
X10009238Y34456620D02*
X9818761Y34456620D01*
X9723523Y34409000D01*
X9628285Y34313762D01*
X9580666Y34123286D01*
X9580666Y33789953D01*
X9628285Y33599477D01*
X9723523Y33504239D01*
X9818761Y33456620D01*
X10009238Y33456620D01*
X10104476Y33504239D01*
X10199714Y33599477D01*
X10247333Y33789953D01*
X10247333Y34123286D01*
X10199714Y34313762D01*
X10104476Y34409000D01*
X10009238Y34456620D01*
X8628285Y34409000D02*
X8723523Y34456620D01*
X8866380Y34456620D01*
X9009238Y34409000D01*
X9104476Y34313762D01*
X9152095Y34218524D01*
X9199714Y34028048D01*
X9199714Y33885191D01*
X9152095Y33694715D01*
X9104476Y33599477D01*
X9009238Y33504239D01*
X8866380Y33456620D01*
X8771142Y33456620D01*
X8628285Y33504239D01*
X8580666Y33551858D01*
X8580666Y33885191D01*
X8771142Y33885191D01*
X26439666Y29376620D02*
X26439666Y28662334D01*
X26487285Y28519477D01*
X26582523Y28424239D01*
X26725380Y28376620D01*
X26820619Y28376620D01*
X26106333Y29376620D02*
X25534904Y29376620D01*
X25820619Y28376620D02*
X25820619Y29376620D01*
X25249190Y28662334D02*
X24773000Y28662334D01*
X25344428Y28376620D02*
X25011095Y29376620D01*
X24677761Y28376620D01*
X23820619Y29329000D02*
X23915857Y29376620D01*
X24058714Y29376620D01*
X24201571Y29329000D01*
X24296809Y29233762D01*
X24344428Y29138524D01*
X24392047Y28948048D01*
X24392047Y28805191D01*
X24344428Y28614715D01*
X24296809Y28519477D01*
X24201571Y28424239D01*
X24058714Y28376620D01*
X23963476Y28376620D01*
X23820619Y28424239D01*
X23773000Y28471858D01*
X23773000Y28805191D01*
X23963476Y28805191D01*
D11*
%TO.C,JTAG1*%
X27873000Y42833600D02*
X27873000Y30013600D01*
X25273000Y40233600D02*
X22673000Y40233600D01*
X22673000Y42833600D02*
X22673000Y41503600D01*
X24003000Y42833600D02*
X22673000Y42833600D01*
X22673000Y40233600D02*
X22673000Y30013600D01*
X27873000Y42833600D02*
X25273000Y42833600D01*
X27873000Y30013600D02*
X22673000Y30013600D01*
X25273000Y42833600D02*
X25273000Y40233600D01*
%TO.C,PROG1*%
X13181000Y42833600D02*
X13181000Y35093600D01*
X10581000Y42833600D02*
X10581000Y40233600D01*
X13181000Y42833600D02*
X10581000Y42833600D01*
X7981000Y40233600D02*
X7981000Y35093600D01*
X7981000Y42833600D02*
X7981000Y41503600D01*
X10581000Y40233600D02*
X7981000Y40233600D01*
X13181000Y35093600D02*
X7981000Y35093600D01*
X9311000Y42833600D02*
X7981000Y42833600D01*
%TD*%
%LPC*%
D12*
%TO.C,J5*%
X9347000Y46863000D03*
D13*
X11887000Y46863000D03*
X14427000Y46863000D03*
%TD*%
D12*
%TO.C,J6*%
X26347000Y46863000D03*
D13*
X23807000Y46863000D03*
X21267000Y46863000D03*
%TD*%
D12*
%TO.C,J1*%
X5207000Y47853600D03*
D13*
X2667000Y47853600D03*
X5207000Y45313600D03*
X2667000Y45313600D03*
X5207000Y42773600D03*
X2667000Y42773600D03*
X5207000Y40233600D03*
X2667000Y40233600D03*
X5207000Y37693600D03*
X2667000Y37693600D03*
X5207000Y35153600D03*
X2667000Y35153600D03*
X5207000Y32613600D03*
X2667000Y32613600D03*
X5207000Y30073600D03*
X2667000Y30073600D03*
X5207000Y27533600D03*
X2667000Y27533600D03*
X5207000Y24993600D03*
X2667000Y24993600D03*
X5207000Y22453600D03*
X2667000Y22453600D03*
X5207000Y19913600D03*
X2667000Y19913600D03*
X5207000Y17373600D03*
X2667000Y17373600D03*
X5207000Y14833600D03*
X2667000Y14833600D03*
X5207000Y12293600D03*
X2667000Y12293600D03*
X5207000Y9753600D03*
X2667000Y9753600D03*
X5207000Y7213600D03*
X2667000Y7213600D03*
X5207000Y4673600D03*
X2667000Y4673600D03*
X5207000Y2133600D03*
X2667000Y2133600D03*
%TD*%
D12*
%TO.C,J2*%
X33147000Y47853600D03*
D13*
X30607000Y47853600D03*
X33147000Y45313600D03*
X30607000Y45313600D03*
X33147000Y42773600D03*
X30607000Y42773600D03*
X33147000Y40233600D03*
X30607000Y40233600D03*
X33147000Y37693600D03*
X30607000Y37693600D03*
X33147000Y35153600D03*
X30607000Y35153600D03*
X33147000Y32613600D03*
X30607000Y32613600D03*
X33147000Y30073600D03*
X30607000Y30073600D03*
X33147000Y27533600D03*
X30607000Y27533600D03*
X33147000Y24993600D03*
X30607000Y24993600D03*
X33147000Y22453600D03*
X30607000Y22453600D03*
X33147000Y19913600D03*
X30607000Y19913600D03*
X33147000Y17373600D03*
X30607000Y17373600D03*
X33147000Y14833600D03*
X30607000Y14833600D03*
X33147000Y12293600D03*
X30607000Y12293600D03*
X33147000Y9753600D03*
X30607000Y9753600D03*
X33147000Y7213600D03*
X30607000Y7213600D03*
X33147000Y4673600D03*
X30607000Y4673600D03*
X33147000Y2133600D03*
X30607000Y2133600D03*
%TD*%
D12*
%TO.C,JTAG1*%
X24003000Y41503600D03*
D13*
X26543000Y41503600D03*
X24003000Y38963600D03*
X26543000Y38963600D03*
X24003000Y36423600D03*
X26543000Y36423600D03*
X24003000Y33883600D03*
X26543000Y33883600D03*
X24003000Y31343600D03*
X26543000Y31343600D03*
%TD*%
D12*
%TO.C,PROG1*%
X9311000Y41503600D03*
D13*
X11851000Y41503600D03*
X9311000Y38963600D03*
X11851000Y38963600D03*
X9311000Y36423600D03*
X11851000Y36423600D03*
%TD*%
M02*
