%TF.GenerationSoftware,KiCad,Pcbnew,(5.1.9)-1*%
%TF.CreationDate,2021-09-08T19:44:18+09:00*%
%TF.ProjectId,esp-prog-adator,6573702d-7072-46f6-972d-616461746f72,rev?*%
%TF.SameCoordinates,Original*%
%TF.FileFunction,Legend,Bot*%
%TF.FilePolarity,Positive*%
%FSLAX46Y46*%
G04 Gerber Fmt 4.6, Leading zero omitted, Abs format (unit mm)*
G04 Created by KiCad (PCBNEW (5.1.9)-1) date 2021-09-08 19:44:18*
%MOMM*%
%LPD*%
G01*
G04 APERTURE LIST*
%ADD10C,0.120000*%
%ADD11C,0.150000*%
G04 APERTURE END LIST*
D10*
%TO.C,JTAG1*%
X105410000Y-76140000D02*
X104080000Y-76140000D01*
X104080000Y-76140000D02*
X104080000Y-77470000D01*
X106680000Y-76140000D02*
X106680000Y-78740000D01*
X106680000Y-78740000D02*
X104080000Y-78740000D01*
X104080000Y-78740000D02*
X104080000Y-88960000D01*
X109280000Y-88960000D02*
X104080000Y-88960000D01*
X109280000Y-76140000D02*
X109280000Y-88960000D01*
X109280000Y-76140000D02*
X106680000Y-76140000D01*
%TO.C,PROG1*%
X90170000Y-76140000D02*
X88840000Y-76140000D01*
X88840000Y-76140000D02*
X88840000Y-77470000D01*
X91440000Y-76140000D02*
X91440000Y-78740000D01*
X91440000Y-78740000D02*
X88840000Y-78740000D01*
X88840000Y-78740000D02*
X88840000Y-83880000D01*
X94040000Y-83880000D02*
X88840000Y-83880000D01*
X94040000Y-76140000D02*
X94040000Y-83880000D01*
X94040000Y-76140000D02*
X91440000Y-76140000D01*
%TO.C,JTAG1*%
D11*
X108322857Y-92162380D02*
X108322857Y-92876666D01*
X108370476Y-93019523D01*
X108465714Y-93114761D01*
X108608571Y-93162380D01*
X108703809Y-93162380D01*
X107989523Y-92162380D02*
X107418095Y-92162380D01*
X107703809Y-93162380D02*
X107703809Y-92162380D01*
X107132380Y-92876666D02*
X106656190Y-92876666D01*
X107227619Y-93162380D02*
X106894285Y-92162380D01*
X106560952Y-93162380D01*
X105703809Y-92210000D02*
X105799047Y-92162380D01*
X105941904Y-92162380D01*
X106084761Y-92210000D01*
X106180000Y-92305238D01*
X106227619Y-92400476D01*
X106275238Y-92590952D01*
X106275238Y-92733809D01*
X106227619Y-92924285D01*
X106180000Y-93019523D01*
X106084761Y-93114761D01*
X105941904Y-93162380D01*
X105846666Y-93162380D01*
X105703809Y-93114761D01*
X105656190Y-93067142D01*
X105656190Y-92733809D01*
X105846666Y-92733809D01*
X104703809Y-93162380D02*
X105275238Y-93162380D01*
X104989523Y-93162380D02*
X104989523Y-92162380D01*
X105084761Y-92305238D01*
X105180000Y-92400476D01*
X105275238Y-92448095D01*
%TO.C,PROG1*%
X93701904Y-88082380D02*
X93701904Y-87082380D01*
X93320952Y-87082380D01*
X93225714Y-87130000D01*
X93178095Y-87177619D01*
X93130476Y-87272857D01*
X93130476Y-87415714D01*
X93178095Y-87510952D01*
X93225714Y-87558571D01*
X93320952Y-87606190D01*
X93701904Y-87606190D01*
X92130476Y-88082380D02*
X92463809Y-87606190D01*
X92701904Y-88082380D02*
X92701904Y-87082380D01*
X92320952Y-87082380D01*
X92225714Y-87130000D01*
X92178095Y-87177619D01*
X92130476Y-87272857D01*
X92130476Y-87415714D01*
X92178095Y-87510952D01*
X92225714Y-87558571D01*
X92320952Y-87606190D01*
X92701904Y-87606190D01*
X91511428Y-87082380D02*
X91320952Y-87082380D01*
X91225714Y-87130000D01*
X91130476Y-87225238D01*
X91082857Y-87415714D01*
X91082857Y-87749047D01*
X91130476Y-87939523D01*
X91225714Y-88034761D01*
X91320952Y-88082380D01*
X91511428Y-88082380D01*
X91606666Y-88034761D01*
X91701904Y-87939523D01*
X91749523Y-87749047D01*
X91749523Y-87415714D01*
X91701904Y-87225238D01*
X91606666Y-87130000D01*
X91511428Y-87082380D01*
X90130476Y-87130000D02*
X90225714Y-87082380D01*
X90368571Y-87082380D01*
X90511428Y-87130000D01*
X90606666Y-87225238D01*
X90654285Y-87320476D01*
X90701904Y-87510952D01*
X90701904Y-87653809D01*
X90654285Y-87844285D01*
X90606666Y-87939523D01*
X90511428Y-88034761D01*
X90368571Y-88082380D01*
X90273333Y-88082380D01*
X90130476Y-88034761D01*
X90082857Y-87987142D01*
X90082857Y-87653809D01*
X90273333Y-87653809D01*
X89130476Y-88082380D02*
X89701904Y-88082380D01*
X89416190Y-88082380D02*
X89416190Y-87082380D01*
X89511428Y-87225238D01*
X89606666Y-87320476D01*
X89701904Y-87368095D01*
%TD*%
M02*
