%TF.GenerationSoftware,KiCad,Pcbnew,(5.1.9)-1*%
%TF.CreationDate,2022-02-10T01:20:13+09:00*%
%TF.ProjectId,joystick-input,6a6f7973-7469-4636-9b2d-696e7075742e,rev?*%
%TF.SameCoordinates,Original*%
%TF.FileFunction,Legend,Bot*%
%TF.FilePolarity,Positive*%
%FSLAX46Y46*%
G04 Gerber Fmt 4.6, Leading zero omitted, Abs format (unit mm)*
G04 Created by KiCad (PCBNEW (5.1.9)-1) date 2022-02-10 01:20:13*
%MOMM*%
%LPD*%
G01*
G04 APERTURE LIST*
%ADD10C,0.100000*%
%ADD11C,0.150000*%
G04 APERTURE END LIST*
D10*
X119764333Y-95566666D02*
X119997666Y-95233333D01*
X120164333Y-95566666D02*
X120164333Y-94866666D01*
X119897666Y-94866666D01*
X119831000Y-94900000D01*
X119797666Y-94933333D01*
X119764333Y-95000000D01*
X119764333Y-95100000D01*
X119797666Y-95166666D01*
X119831000Y-95200000D01*
X119897666Y-95233333D01*
X120164333Y-95233333D01*
X119197666Y-95533333D02*
X119264333Y-95566666D01*
X119397666Y-95566666D01*
X119464333Y-95533333D01*
X119497666Y-95466666D01*
X119497666Y-95200000D01*
X119464333Y-95133333D01*
X119397666Y-95100000D01*
X119264333Y-95100000D01*
X119197666Y-95133333D01*
X119164333Y-95200000D01*
X119164333Y-95266666D01*
X119497666Y-95333333D01*
X118931000Y-95100000D02*
X118764333Y-95566666D01*
X118597666Y-95100000D01*
X118331000Y-95500000D02*
X118297666Y-95533333D01*
X118331000Y-95566666D01*
X118364333Y-95533333D01*
X118331000Y-95500000D01*
X118331000Y-95566666D01*
X118031000Y-94933333D02*
X117997666Y-94900000D01*
X117931000Y-94866666D01*
X117764333Y-94866666D01*
X117697666Y-94900000D01*
X117664333Y-94933333D01*
X117631000Y-95000000D01*
X117631000Y-95066666D01*
X117664333Y-95166666D01*
X118064333Y-95566666D01*
X117631000Y-95566666D01*
D11*
X131459952Y-93638666D02*
X130983761Y-93638666D01*
X131555190Y-93924380D02*
X131221857Y-92924380D01*
X130888523Y-93924380D01*
X130555190Y-93924380D02*
X130555190Y-93257714D01*
X130555190Y-93352952D02*
X130507571Y-93305333D01*
X130412333Y-93257714D01*
X130269476Y-93257714D01*
X130174238Y-93305333D01*
X130126619Y-93400571D01*
X130126619Y-93924380D01*
X130126619Y-93400571D02*
X130079000Y-93305333D01*
X129983761Y-93257714D01*
X129840904Y-93257714D01*
X129745666Y-93305333D01*
X129698047Y-93400571D01*
X129698047Y-93924380D01*
X129079000Y-93924380D02*
X129174238Y-93876761D01*
X129221857Y-93829142D01*
X129269476Y-93733904D01*
X129269476Y-93448190D01*
X129221857Y-93352952D01*
X129174238Y-93305333D01*
X129079000Y-93257714D01*
X128936142Y-93257714D01*
X128840904Y-93305333D01*
X128793285Y-93352952D01*
X128745666Y-93448190D01*
X128745666Y-93733904D01*
X128793285Y-93829142D01*
X128840904Y-93876761D01*
X128936142Y-93924380D01*
X129079000Y-93924380D01*
X128364714Y-93876761D02*
X128269476Y-93924380D01*
X128079000Y-93924380D01*
X127983761Y-93876761D01*
X127936142Y-93781523D01*
X127936142Y-93733904D01*
X127983761Y-93638666D01*
X128079000Y-93591047D01*
X128221857Y-93591047D01*
X128317095Y-93543428D01*
X128364714Y-93448190D01*
X128364714Y-93400571D01*
X128317095Y-93305333D01*
X128221857Y-93257714D01*
X128079000Y-93257714D01*
X127983761Y-93305333D01*
X126459952Y-92924380D02*
X126459952Y-93638666D01*
X126507571Y-93781523D01*
X126602809Y-93876761D01*
X126745666Y-93924380D01*
X126840904Y-93924380D01*
X125840904Y-93924380D02*
X125936142Y-93876761D01*
X125983761Y-93829142D01*
X126031380Y-93733904D01*
X126031380Y-93448190D01*
X125983761Y-93352952D01*
X125936142Y-93305333D01*
X125840904Y-93257714D01*
X125698047Y-93257714D01*
X125602809Y-93305333D01*
X125555190Y-93352952D01*
X125507571Y-93448190D01*
X125507571Y-93733904D01*
X125555190Y-93829142D01*
X125602809Y-93876761D01*
X125698047Y-93924380D01*
X125840904Y-93924380D01*
X125174238Y-93257714D02*
X124936142Y-93924380D01*
X124698047Y-93257714D02*
X124936142Y-93924380D01*
X125031380Y-94162476D01*
X125079000Y-94210095D01*
X125174238Y-94257714D01*
X124364714Y-93876761D02*
X124269476Y-93924380D01*
X124079000Y-93924380D01*
X123983761Y-93876761D01*
X123936142Y-93781523D01*
X123936142Y-93733904D01*
X123983761Y-93638666D01*
X124079000Y-93591047D01*
X124221857Y-93591047D01*
X124317095Y-93543428D01*
X124364714Y-93448190D01*
X124364714Y-93400571D01*
X124317095Y-93305333D01*
X124221857Y-93257714D01*
X124079000Y-93257714D01*
X123983761Y-93305333D01*
X123650428Y-93257714D02*
X123269476Y-93257714D01*
X123507571Y-92924380D02*
X123507571Y-93781523D01*
X123459952Y-93876761D01*
X123364714Y-93924380D01*
X123269476Y-93924380D01*
X122936142Y-93924380D02*
X122936142Y-93257714D01*
X122936142Y-92924380D02*
X122983761Y-92972000D01*
X122936142Y-93019619D01*
X122888523Y-92972000D01*
X122936142Y-92924380D01*
X122936142Y-93019619D01*
X122031380Y-93876761D02*
X122126619Y-93924380D01*
X122317095Y-93924380D01*
X122412333Y-93876761D01*
X122459952Y-93829142D01*
X122507571Y-93733904D01*
X122507571Y-93448190D01*
X122459952Y-93352952D01*
X122412333Y-93305333D01*
X122317095Y-93257714D01*
X122126619Y-93257714D01*
X122031380Y-93305333D01*
X121602809Y-93924380D02*
X121602809Y-92924380D01*
X121507571Y-93543428D02*
X121221857Y-93924380D01*
X121221857Y-93257714D02*
X121602809Y-93638666D01*
X120031380Y-93924380D02*
X120031380Y-92924380D01*
X119555190Y-93257714D02*
X119555190Y-93924380D01*
X119555190Y-93352952D02*
X119507571Y-93305333D01*
X119412333Y-93257714D01*
X119269476Y-93257714D01*
X119174238Y-93305333D01*
X119126619Y-93400571D01*
X119126619Y-93924380D01*
X118650428Y-93257714D02*
X118650428Y-94257714D01*
X118650428Y-93305333D02*
X118555190Y-93257714D01*
X118364714Y-93257714D01*
X118269476Y-93305333D01*
X118221857Y-93352952D01*
X118174238Y-93448190D01*
X118174238Y-93733904D01*
X118221857Y-93829142D01*
X118269476Y-93876761D01*
X118364714Y-93924380D01*
X118555190Y-93924380D01*
X118650428Y-93876761D01*
X117317095Y-93257714D02*
X117317095Y-93924380D01*
X117745666Y-93257714D02*
X117745666Y-93781523D01*
X117698047Y-93876761D01*
X117602809Y-93924380D01*
X117459952Y-93924380D01*
X117364714Y-93876761D01*
X117317095Y-93829142D01*
X116983761Y-93257714D02*
X116602809Y-93257714D01*
X116840904Y-92924380D02*
X116840904Y-93781523D01*
X116793285Y-93876761D01*
X116698047Y-93924380D01*
X116602809Y-93924380D01*
M02*
