%TF.GenerationSoftware,KiCad,Pcbnew,(6.0.2)*%
%TF.CreationDate,2022-04-10T13:38:05+09:00*%
%TF.ProjectId,joystick-input,6a6f7973-7469-4636-9b2d-696e7075742e,rev?*%
%TF.SameCoordinates,Original*%
%TF.FileFunction,Soldermask,Bot*%
%TF.FilePolarity,Negative*%
%FSLAX46Y46*%
G04 Gerber Fmt 4.6, Leading zero omitted, Abs format (unit mm)*
G04 Created by KiCad (PCBNEW (6.0.2)) date 2022-04-10 13:38:05*
%MOMM*%
%LPD*%
G01*
G04 APERTURE LIST*
G04 Aperture macros list*
%AMRoundRect*
0 Rectangle with rounded corners*
0 $1 Rounding radius*
0 $2 $3 $4 $5 $6 $7 $8 $9 X,Y pos of 4 corners*
0 Add a 4 corners polygon primitive as box body*
4,1,4,$2,$3,$4,$5,$6,$7,$8,$9,$2,$3,0*
0 Add four circle primitives for the rounded corners*
1,1,$1+$1,$2,$3*
1,1,$1+$1,$4,$5*
1,1,$1+$1,$6,$7*
1,1,$1+$1,$8,$9*
0 Add four rect primitives between the rounded corners*
20,1,$1+$1,$2,$3,$4,$5,0*
20,1,$1+$1,$4,$5,$6,$7,0*
20,1,$1+$1,$6,$7,$8,$9,0*
20,1,$1+$1,$8,$9,$2,$3,0*%
G04 Aperture macros list end*
%ADD10O,2.000000X1.700000*%
%ADD11RoundRect,0.250000X-0.750000X0.600000X-0.750000X-0.600000X0.750000X-0.600000X0.750000X0.600000X0*%
%ADD12O,1.700000X1.950000*%
%ADD13RoundRect,0.250000X0.600000X0.725000X-0.600000X0.725000X-0.600000X-0.725000X0.600000X-0.725000X0*%
%ADD14O,1.700000X1.700000*%
%ADD15R,1.700000X1.700000*%
G04 APERTURE END LIST*
D10*
%TO.C,J19*%
X97790000Y-67016000D03*
D11*
X97790000Y-64516000D03*
%TD*%
D10*
%TO.C,J18*%
X104648000Y-67016000D03*
D11*
X104648000Y-64516000D03*
%TD*%
D10*
%TO.C,J17*%
X111506000Y-67016000D03*
D11*
X111506000Y-64516000D03*
%TD*%
D10*
%TO.C,J16*%
X118364000Y-67016000D03*
D11*
X118364000Y-64516000D03*
%TD*%
D10*
%TO.C,J15*%
X125222000Y-67016000D03*
D11*
X125222000Y-64516000D03*
%TD*%
D10*
%TO.C,J14*%
X132080000Y-67016000D03*
D11*
X132080000Y-64516000D03*
%TD*%
D10*
%TO.C,J13*%
X138938000Y-67016000D03*
D11*
X138938000Y-64516000D03*
%TD*%
D10*
%TO.C,J29*%
X97790000Y-75652000D03*
D11*
X97790000Y-73152000D03*
%TD*%
D10*
%TO.C,J28*%
X104648000Y-75652000D03*
D11*
X104648000Y-73152000D03*
%TD*%
D10*
%TO.C,J27*%
X111506000Y-75652000D03*
D11*
X111506000Y-73152000D03*
%TD*%
D10*
%TO.C,J26*%
X118364000Y-75652000D03*
D11*
X118364000Y-73152000D03*
%TD*%
D10*
%TO.C,J25*%
X125222000Y-75652000D03*
D11*
X125222000Y-73152000D03*
%TD*%
D10*
%TO.C,J24*%
X132080000Y-75652000D03*
D11*
X132080000Y-73152000D03*
%TD*%
D10*
%TO.C,J23*%
X138938000Y-75652000D03*
D11*
X138938000Y-73152000D03*
%TD*%
D10*
%TO.C,J12*%
X145796000Y-67016000D03*
D11*
X145796000Y-64516000D03*
%TD*%
D12*
%TO.C,J11*%
X151798000Y-65532000D03*
X154298000Y-65532000D03*
X156798000Y-65532000D03*
X159298000Y-65532000D03*
D13*
X161798000Y-65532000D03*
%TD*%
D10*
%TO.C,J22*%
X145796000Y-75652000D03*
D11*
X145796000Y-73152000D03*
%TD*%
D12*
%TO.C,J21*%
X151798000Y-74168000D03*
X154298000Y-74168000D03*
X156798000Y-74168000D03*
X159298000Y-74168000D03*
D13*
X161798000Y-74168000D03*
%TD*%
D14*
%TO.C,OUT1*%
X161925000Y-91948000D03*
X161925000Y-89408000D03*
X161925000Y-86868000D03*
X161925000Y-84328000D03*
D15*
X161925000Y-81788000D03*
%TD*%
D14*
%TO.C,IN1*%
X96901000Y-92075000D03*
X96901000Y-89535000D03*
X96901000Y-86995000D03*
X96901000Y-84455000D03*
D15*
X96901000Y-81915000D03*
%TD*%
M02*
