%TF.GenerationSoftware,KiCad,Pcbnew,(5.1.9)-1*%
%TF.CreationDate,2022-02-10T01:20:13+09:00*%
%TF.ProjectId,joystick-input,6a6f7973-7469-4636-9b2d-696e7075742e,rev?*%
%TF.SameCoordinates,Original*%
%TF.FileFunction,Legend,Top*%
%TF.FilePolarity,Positive*%
%FSLAX46Y46*%
G04 Gerber Fmt 4.6, Leading zero omitted, Abs format (unit mm)*
G04 Created by KiCad (PCBNEW (5.1.9)-1) date 2022-02-10 01:20:13*
%MOMM*%
%LPD*%
G01*
G04 APERTURE LIST*
%ADD10C,0.100000*%
%ADD11C,0.120000*%
%ADD12C,0.150000*%
G04 APERTURE END LIST*
D10*
X151380047Y-93767190D02*
X151361000Y-93805285D01*
X151322904Y-93843380D01*
X151265761Y-93900523D01*
X151246714Y-93938619D01*
X151246714Y-93976714D01*
X151341952Y-93957666D02*
X151322904Y-93995761D01*
X151284809Y-94033857D01*
X151208619Y-94052904D01*
X151075285Y-94052904D01*
X150999095Y-94033857D01*
X150961000Y-93995761D01*
X150941952Y-93957666D01*
X150941952Y-93881476D01*
X150961000Y-93843380D01*
X150999095Y-93805285D01*
X151075285Y-93786238D01*
X151208619Y-93786238D01*
X151284809Y-93805285D01*
X151322904Y-93843380D01*
X151341952Y-93881476D01*
X151341952Y-93957666D01*
X150941952Y-93652904D02*
X150941952Y-93386238D01*
X151341952Y-93557666D01*
X151189571Y-93233857D02*
X151189571Y-92929095D01*
X151341952Y-92738619D02*
X150941952Y-92738619D01*
X150941952Y-92643380D01*
X150961000Y-92586238D01*
X150999095Y-92548142D01*
X151037190Y-92529095D01*
X151113380Y-92510047D01*
X151170523Y-92510047D01*
X151246714Y-92529095D01*
X151284809Y-92548142D01*
X151322904Y-92586238D01*
X151341952Y-92643380D01*
X151341952Y-92738619D01*
X151322904Y-92357666D02*
X151341952Y-92300523D01*
X151341952Y-92205285D01*
X151322904Y-92167190D01*
X151303857Y-92148142D01*
X151265761Y-92129095D01*
X151227666Y-92129095D01*
X151189571Y-92148142D01*
X151170523Y-92167190D01*
X151151476Y-92205285D01*
X151132428Y-92281476D01*
X151113380Y-92319571D01*
X151094333Y-92338619D01*
X151056238Y-92357666D01*
X151018142Y-92357666D01*
X150980047Y-92338619D01*
X150961000Y-92319571D01*
X150941952Y-92281476D01*
X150941952Y-92186238D01*
X150961000Y-92129095D01*
X152175285Y-93738619D02*
X151603857Y-93738619D01*
X152175285Y-92443380D02*
X151603857Y-92443380D01*
X133219047Y-93767190D02*
X133200000Y-93805285D01*
X133161904Y-93843380D01*
X133104761Y-93900523D01*
X133085714Y-93938619D01*
X133085714Y-93976714D01*
X133180952Y-93957666D02*
X133161904Y-93995761D01*
X133123809Y-94033857D01*
X133047619Y-94052904D01*
X132914285Y-94052904D01*
X132838095Y-94033857D01*
X132800000Y-93995761D01*
X132780952Y-93957666D01*
X132780952Y-93881476D01*
X132800000Y-93843380D01*
X132838095Y-93805285D01*
X132914285Y-93786238D01*
X133047619Y-93786238D01*
X133123809Y-93805285D01*
X133161904Y-93843380D01*
X133180952Y-93881476D01*
X133180952Y-93957666D01*
X132780952Y-93652904D02*
X132780952Y-93386238D01*
X133180952Y-93557666D01*
X133028571Y-93233857D02*
X133028571Y-92929095D01*
X133180952Y-92738619D02*
X132780952Y-92738619D01*
X132780952Y-92643380D01*
X132800000Y-92586238D01*
X132838095Y-92548142D01*
X132876190Y-92529095D01*
X132952380Y-92510047D01*
X133009523Y-92510047D01*
X133085714Y-92529095D01*
X133123809Y-92548142D01*
X133161904Y-92586238D01*
X133180952Y-92643380D01*
X133180952Y-92738619D01*
X133161904Y-92357666D02*
X133180952Y-92300523D01*
X133180952Y-92205285D01*
X133161904Y-92167190D01*
X133142857Y-92148142D01*
X133104761Y-92129095D01*
X133066666Y-92129095D01*
X133028571Y-92148142D01*
X133009523Y-92167190D01*
X132990476Y-92205285D01*
X132971428Y-92281476D01*
X132952380Y-92319571D01*
X132933333Y-92338619D01*
X132895238Y-92357666D01*
X132857142Y-92357666D01*
X132819047Y-92338619D01*
X132800000Y-92319571D01*
X132780952Y-92281476D01*
X132780952Y-92186238D01*
X132800000Y-92129095D01*
X134014285Y-93738619D02*
X133442857Y-93738619D01*
X134014285Y-92443380D02*
X133442857Y-92443380D01*
X115185047Y-93767190D02*
X115166000Y-93805285D01*
X115127904Y-93843380D01*
X115070761Y-93900523D01*
X115051714Y-93938619D01*
X115051714Y-93976714D01*
X115146952Y-93957666D02*
X115127904Y-93995761D01*
X115089809Y-94033857D01*
X115013619Y-94052904D01*
X114880285Y-94052904D01*
X114804095Y-94033857D01*
X114766000Y-93995761D01*
X114746952Y-93957666D01*
X114746952Y-93881476D01*
X114766000Y-93843380D01*
X114804095Y-93805285D01*
X114880285Y-93786238D01*
X115013619Y-93786238D01*
X115089809Y-93805285D01*
X115127904Y-93843380D01*
X115146952Y-93881476D01*
X115146952Y-93957666D01*
X114746952Y-93652904D02*
X114746952Y-93386238D01*
X115146952Y-93557666D01*
X114994571Y-93233857D02*
X114994571Y-92929095D01*
X115146952Y-92738619D02*
X114746952Y-92738619D01*
X114746952Y-92643380D01*
X114766000Y-92586238D01*
X114804095Y-92548142D01*
X114842190Y-92529095D01*
X114918380Y-92510047D01*
X114975523Y-92510047D01*
X115051714Y-92529095D01*
X115089809Y-92548142D01*
X115127904Y-92586238D01*
X115146952Y-92643380D01*
X115146952Y-92738619D01*
X115127904Y-92357666D02*
X115146952Y-92300523D01*
X115146952Y-92205285D01*
X115127904Y-92167190D01*
X115108857Y-92148142D01*
X115070761Y-92129095D01*
X115032666Y-92129095D01*
X114994571Y-92148142D01*
X114975523Y-92167190D01*
X114956476Y-92205285D01*
X114937428Y-92281476D01*
X114918380Y-92319571D01*
X114899333Y-92338619D01*
X114861238Y-92357666D01*
X114823142Y-92357666D01*
X114785047Y-92338619D01*
X114766000Y-92319571D01*
X114746952Y-92281476D01*
X114746952Y-92186238D01*
X114766000Y-92129095D01*
X115980285Y-93738619D02*
X115408857Y-93738619D01*
X115980285Y-92443380D02*
X115408857Y-92443380D01*
X160844666Y-92222000D02*
X160144666Y-92222000D01*
X160144666Y-92055333D01*
X160178000Y-91955333D01*
X160244666Y-91888666D01*
X160311333Y-91855333D01*
X160444666Y-91822000D01*
X160544666Y-91822000D01*
X160678000Y-91855333D01*
X160744666Y-91888666D01*
X160811333Y-91955333D01*
X160844666Y-92055333D01*
X160844666Y-92222000D01*
X160144666Y-91622000D02*
X160144666Y-91222000D01*
X160844666Y-91422000D02*
X160144666Y-91422000D01*
X160778000Y-89522000D02*
X160811333Y-89555333D01*
X160844666Y-89655333D01*
X160844666Y-89722000D01*
X160811333Y-89822000D01*
X160744666Y-89888666D01*
X160678000Y-89922000D01*
X160544666Y-89955333D01*
X160444666Y-89955333D01*
X160311333Y-89922000D01*
X160244666Y-89888666D01*
X160178000Y-89822000D01*
X160144666Y-89722000D01*
X160144666Y-89655333D01*
X160178000Y-89555333D01*
X160211333Y-89522000D01*
X160844666Y-89222000D02*
X160144666Y-89222000D01*
X160844666Y-88822000D02*
X160444666Y-89122000D01*
X160144666Y-88822000D02*
X160544666Y-89222000D01*
X160844666Y-87122000D02*
X160844666Y-87455333D01*
X160144666Y-87455333D01*
X160844666Y-86888666D02*
X160144666Y-86888666D01*
X160144666Y-86722000D01*
X160178000Y-86622000D01*
X160244666Y-86555333D01*
X160311333Y-86522000D01*
X160444666Y-86488666D01*
X160544666Y-86488666D01*
X160678000Y-86522000D01*
X160744666Y-86555333D01*
X160811333Y-86622000D01*
X160844666Y-86722000D01*
X160844666Y-86888666D01*
X160178000Y-84222000D02*
X160144666Y-84288666D01*
X160144666Y-84388666D01*
X160178000Y-84488666D01*
X160244666Y-84555333D01*
X160311333Y-84588666D01*
X160444666Y-84622000D01*
X160544666Y-84622000D01*
X160678000Y-84588666D01*
X160744666Y-84555333D01*
X160811333Y-84488666D01*
X160844666Y-84388666D01*
X160844666Y-84322000D01*
X160811333Y-84222000D01*
X160778000Y-84188666D01*
X160544666Y-84188666D01*
X160544666Y-84322000D01*
X160144666Y-82388666D02*
X160844666Y-82155333D01*
X160144666Y-81922000D01*
X98300333Y-81865666D02*
X97600333Y-82099000D01*
X98300333Y-82332333D01*
X98267000Y-84532333D02*
X98300333Y-84465666D01*
X98300333Y-84365666D01*
X98267000Y-84265666D01*
X98200333Y-84199000D01*
X98133666Y-84165666D01*
X98000333Y-84132333D01*
X97900333Y-84132333D01*
X97767000Y-84165666D01*
X97700333Y-84199000D01*
X97633666Y-84265666D01*
X97600333Y-84365666D01*
X97600333Y-84432333D01*
X97633666Y-84532333D01*
X97667000Y-84565666D01*
X97900333Y-84565666D01*
X97900333Y-84432333D01*
X97600333Y-86799000D02*
X97600333Y-86465666D01*
X98300333Y-86465666D01*
X97600333Y-87032333D02*
X98300333Y-87032333D01*
X98300333Y-87199000D01*
X98267000Y-87299000D01*
X98200333Y-87365666D01*
X98133666Y-87399000D01*
X98000333Y-87432333D01*
X97900333Y-87432333D01*
X97767000Y-87399000D01*
X97700333Y-87365666D01*
X97633666Y-87299000D01*
X97600333Y-87199000D01*
X97600333Y-87032333D01*
X97667000Y-89732333D02*
X97633666Y-89699000D01*
X97600333Y-89599000D01*
X97600333Y-89532333D01*
X97633666Y-89432333D01*
X97700333Y-89365666D01*
X97767000Y-89332333D01*
X97900333Y-89299000D01*
X98000333Y-89299000D01*
X98133666Y-89332333D01*
X98200333Y-89365666D01*
X98267000Y-89432333D01*
X98300333Y-89532333D01*
X98300333Y-89599000D01*
X98267000Y-89699000D01*
X98233666Y-89732333D01*
X97600333Y-90032333D02*
X98300333Y-90032333D01*
X97600333Y-90432333D02*
X98000333Y-90132333D01*
X98300333Y-90432333D02*
X97900333Y-90032333D01*
X97600333Y-91799000D02*
X98300333Y-91799000D01*
X97600333Y-92132333D02*
X98300333Y-92132333D01*
X97600333Y-92532333D01*
X98300333Y-92532333D01*
D11*
%TO.C,74HC165_1*%
X150749000Y-84221000D02*
X147299000Y-84221000D01*
X150749000Y-84221000D02*
X152699000Y-84221000D01*
X150749000Y-94341000D02*
X148799000Y-94341000D01*
X150749000Y-94341000D02*
X152699000Y-94341000D01*
%TO.C,J22*%
X109598000Y-80183000D02*
X109598000Y-79583000D01*
X111698000Y-80883000D02*
X110298000Y-80883000D01*
X112398000Y-79583000D02*
X112398000Y-80183000D01*
X110298000Y-78883000D02*
X111698000Y-78883000D01*
X109598000Y-79583000D02*
G75*
G02*
X110298000Y-78883000I700000J0D01*
G01*
X110298000Y-80883000D02*
G75*
G02*
X109598000Y-80183000I0J700000D01*
G01*
X112398000Y-80183000D02*
G75*
G02*
X111698000Y-80883000I-700000J0D01*
G01*
X111698000Y-78883000D02*
G75*
G02*
X112398000Y-79583000I0J-700000D01*
G01*
%TO.C,J21*%
X106232500Y-80183000D02*
X106232500Y-79583000D01*
X108332500Y-80883000D02*
X106932500Y-80883000D01*
X109032500Y-79583000D02*
X109032500Y-80183000D01*
X106932500Y-78883000D02*
X108332500Y-78883000D01*
X106232500Y-79583000D02*
G75*
G02*
X106932500Y-78883000I700000J0D01*
G01*
X106932500Y-80883000D02*
G75*
G02*
X106232500Y-80183000I0J700000D01*
G01*
X109032500Y-80183000D02*
G75*
G02*
X108332500Y-80883000I-700000J0D01*
G01*
X108332500Y-78883000D02*
G75*
G02*
X109032500Y-79583000I0J-700000D01*
G01*
%TO.C,J20*%
X102867000Y-80183000D02*
X102867000Y-79583000D01*
X104967000Y-80883000D02*
X103567000Y-80883000D01*
X105667000Y-79583000D02*
X105667000Y-80183000D01*
X103567000Y-78883000D02*
X104967000Y-78883000D01*
X102867000Y-79583000D02*
G75*
G02*
X103567000Y-78883000I700000J0D01*
G01*
X103567000Y-80883000D02*
G75*
G02*
X102867000Y-80183000I0J700000D01*
G01*
X105667000Y-80183000D02*
G75*
G02*
X104967000Y-80883000I-700000J0D01*
G01*
X104967000Y-78883000D02*
G75*
G02*
X105667000Y-79583000I0J-700000D01*
G01*
%TO.C,J19*%
X99501500Y-80183000D02*
X99501500Y-79583000D01*
X101601500Y-80883000D02*
X100201500Y-80883000D01*
X102301500Y-79583000D02*
X102301500Y-80183000D01*
X100201500Y-78883000D02*
X101601500Y-78883000D01*
X99501500Y-79583000D02*
G75*
G02*
X100201500Y-78883000I700000J0D01*
G01*
X100201500Y-80883000D02*
G75*
G02*
X99501500Y-80183000I0J700000D01*
G01*
X102301500Y-80183000D02*
G75*
G02*
X101601500Y-80883000I-700000J0D01*
G01*
X101601500Y-78883000D02*
G75*
G02*
X102301500Y-79583000I0J-700000D01*
G01*
%TO.C,J18*%
X100250000Y-61956000D02*
X94280000Y-61956000D01*
X94280000Y-61956000D02*
X94280000Y-69576000D01*
X94280000Y-69576000D02*
X100250000Y-69576000D01*
X100250000Y-69576000D02*
X100250000Y-61956000D01*
X100240000Y-65266000D02*
X99490000Y-65266000D01*
X99490000Y-65266000D02*
X99490000Y-66266000D01*
X99490000Y-66266000D02*
X100240000Y-66266000D01*
X100240000Y-66266000D02*
X100240000Y-65266000D01*
X100240000Y-61966000D02*
X99490000Y-61966000D01*
X99490000Y-61966000D02*
X99490000Y-63766000D01*
X99490000Y-63766000D02*
X100240000Y-63766000D01*
X100240000Y-63766000D02*
X100240000Y-61966000D01*
X100240000Y-67766000D02*
X99490000Y-67766000D01*
X99490000Y-67766000D02*
X99490000Y-69566000D01*
X99490000Y-69566000D02*
X100240000Y-69566000D01*
X100240000Y-69566000D02*
X100240000Y-67766000D01*
X97990000Y-61966000D02*
X97990000Y-62716000D01*
X97990000Y-62716000D02*
X95040000Y-62716000D01*
X95040000Y-62716000D02*
X95040000Y-65766000D01*
X97990000Y-69566000D02*
X97990000Y-68816000D01*
X97990000Y-68816000D02*
X95040000Y-68816000D01*
X95040000Y-68816000D02*
X95040000Y-65766000D01*
X100540000Y-62916000D02*
X100540000Y-61666000D01*
X100540000Y-61666000D02*
X99290000Y-61666000D01*
%TO.C,J17*%
X107108000Y-61956000D02*
X101138000Y-61956000D01*
X101138000Y-61956000D02*
X101138000Y-69576000D01*
X101138000Y-69576000D02*
X107108000Y-69576000D01*
X107108000Y-69576000D02*
X107108000Y-61956000D01*
X107098000Y-65266000D02*
X106348000Y-65266000D01*
X106348000Y-65266000D02*
X106348000Y-66266000D01*
X106348000Y-66266000D02*
X107098000Y-66266000D01*
X107098000Y-66266000D02*
X107098000Y-65266000D01*
X107098000Y-61966000D02*
X106348000Y-61966000D01*
X106348000Y-61966000D02*
X106348000Y-63766000D01*
X106348000Y-63766000D02*
X107098000Y-63766000D01*
X107098000Y-63766000D02*
X107098000Y-61966000D01*
X107098000Y-67766000D02*
X106348000Y-67766000D01*
X106348000Y-67766000D02*
X106348000Y-69566000D01*
X106348000Y-69566000D02*
X107098000Y-69566000D01*
X107098000Y-69566000D02*
X107098000Y-67766000D01*
X104848000Y-61966000D02*
X104848000Y-62716000D01*
X104848000Y-62716000D02*
X101898000Y-62716000D01*
X101898000Y-62716000D02*
X101898000Y-65766000D01*
X104848000Y-69566000D02*
X104848000Y-68816000D01*
X104848000Y-68816000D02*
X101898000Y-68816000D01*
X101898000Y-68816000D02*
X101898000Y-65766000D01*
X107398000Y-62916000D02*
X107398000Y-61666000D01*
X107398000Y-61666000D02*
X106148000Y-61666000D01*
%TO.C,J16*%
X113966000Y-61956000D02*
X107996000Y-61956000D01*
X107996000Y-61956000D02*
X107996000Y-69576000D01*
X107996000Y-69576000D02*
X113966000Y-69576000D01*
X113966000Y-69576000D02*
X113966000Y-61956000D01*
X113956000Y-65266000D02*
X113206000Y-65266000D01*
X113206000Y-65266000D02*
X113206000Y-66266000D01*
X113206000Y-66266000D02*
X113956000Y-66266000D01*
X113956000Y-66266000D02*
X113956000Y-65266000D01*
X113956000Y-61966000D02*
X113206000Y-61966000D01*
X113206000Y-61966000D02*
X113206000Y-63766000D01*
X113206000Y-63766000D02*
X113956000Y-63766000D01*
X113956000Y-63766000D02*
X113956000Y-61966000D01*
X113956000Y-67766000D02*
X113206000Y-67766000D01*
X113206000Y-67766000D02*
X113206000Y-69566000D01*
X113206000Y-69566000D02*
X113956000Y-69566000D01*
X113956000Y-69566000D02*
X113956000Y-67766000D01*
X111706000Y-61966000D02*
X111706000Y-62716000D01*
X111706000Y-62716000D02*
X108756000Y-62716000D01*
X108756000Y-62716000D02*
X108756000Y-65766000D01*
X111706000Y-69566000D02*
X111706000Y-68816000D01*
X111706000Y-68816000D02*
X108756000Y-68816000D01*
X108756000Y-68816000D02*
X108756000Y-65766000D01*
X114256000Y-62916000D02*
X114256000Y-61666000D01*
X114256000Y-61666000D02*
X113006000Y-61666000D01*
%TO.C,J15*%
X120824000Y-61956000D02*
X114854000Y-61956000D01*
X114854000Y-61956000D02*
X114854000Y-69576000D01*
X114854000Y-69576000D02*
X120824000Y-69576000D01*
X120824000Y-69576000D02*
X120824000Y-61956000D01*
X120814000Y-65266000D02*
X120064000Y-65266000D01*
X120064000Y-65266000D02*
X120064000Y-66266000D01*
X120064000Y-66266000D02*
X120814000Y-66266000D01*
X120814000Y-66266000D02*
X120814000Y-65266000D01*
X120814000Y-61966000D02*
X120064000Y-61966000D01*
X120064000Y-61966000D02*
X120064000Y-63766000D01*
X120064000Y-63766000D02*
X120814000Y-63766000D01*
X120814000Y-63766000D02*
X120814000Y-61966000D01*
X120814000Y-67766000D02*
X120064000Y-67766000D01*
X120064000Y-67766000D02*
X120064000Y-69566000D01*
X120064000Y-69566000D02*
X120814000Y-69566000D01*
X120814000Y-69566000D02*
X120814000Y-67766000D01*
X118564000Y-61966000D02*
X118564000Y-62716000D01*
X118564000Y-62716000D02*
X115614000Y-62716000D01*
X115614000Y-62716000D02*
X115614000Y-65766000D01*
X118564000Y-69566000D02*
X118564000Y-68816000D01*
X118564000Y-68816000D02*
X115614000Y-68816000D01*
X115614000Y-68816000D02*
X115614000Y-65766000D01*
X121114000Y-62916000D02*
X121114000Y-61666000D01*
X121114000Y-61666000D02*
X119864000Y-61666000D01*
%TO.C,J14*%
X127682000Y-61956000D02*
X121712000Y-61956000D01*
X121712000Y-61956000D02*
X121712000Y-69576000D01*
X121712000Y-69576000D02*
X127682000Y-69576000D01*
X127682000Y-69576000D02*
X127682000Y-61956000D01*
X127672000Y-65266000D02*
X126922000Y-65266000D01*
X126922000Y-65266000D02*
X126922000Y-66266000D01*
X126922000Y-66266000D02*
X127672000Y-66266000D01*
X127672000Y-66266000D02*
X127672000Y-65266000D01*
X127672000Y-61966000D02*
X126922000Y-61966000D01*
X126922000Y-61966000D02*
X126922000Y-63766000D01*
X126922000Y-63766000D02*
X127672000Y-63766000D01*
X127672000Y-63766000D02*
X127672000Y-61966000D01*
X127672000Y-67766000D02*
X126922000Y-67766000D01*
X126922000Y-67766000D02*
X126922000Y-69566000D01*
X126922000Y-69566000D02*
X127672000Y-69566000D01*
X127672000Y-69566000D02*
X127672000Y-67766000D01*
X125422000Y-61966000D02*
X125422000Y-62716000D01*
X125422000Y-62716000D02*
X122472000Y-62716000D01*
X122472000Y-62716000D02*
X122472000Y-65766000D01*
X125422000Y-69566000D02*
X125422000Y-68816000D01*
X125422000Y-68816000D02*
X122472000Y-68816000D01*
X122472000Y-68816000D02*
X122472000Y-65766000D01*
X127972000Y-62916000D02*
X127972000Y-61666000D01*
X127972000Y-61666000D02*
X126722000Y-61666000D01*
%TO.C,J13*%
X134540000Y-61956000D02*
X128570000Y-61956000D01*
X128570000Y-61956000D02*
X128570000Y-69576000D01*
X128570000Y-69576000D02*
X134540000Y-69576000D01*
X134540000Y-69576000D02*
X134540000Y-61956000D01*
X134530000Y-65266000D02*
X133780000Y-65266000D01*
X133780000Y-65266000D02*
X133780000Y-66266000D01*
X133780000Y-66266000D02*
X134530000Y-66266000D01*
X134530000Y-66266000D02*
X134530000Y-65266000D01*
X134530000Y-61966000D02*
X133780000Y-61966000D01*
X133780000Y-61966000D02*
X133780000Y-63766000D01*
X133780000Y-63766000D02*
X134530000Y-63766000D01*
X134530000Y-63766000D02*
X134530000Y-61966000D01*
X134530000Y-67766000D02*
X133780000Y-67766000D01*
X133780000Y-67766000D02*
X133780000Y-69566000D01*
X133780000Y-69566000D02*
X134530000Y-69566000D01*
X134530000Y-69566000D02*
X134530000Y-67766000D01*
X132280000Y-61966000D02*
X132280000Y-62716000D01*
X132280000Y-62716000D02*
X129330000Y-62716000D01*
X129330000Y-62716000D02*
X129330000Y-65766000D01*
X132280000Y-69566000D02*
X132280000Y-68816000D01*
X132280000Y-68816000D02*
X129330000Y-68816000D01*
X129330000Y-68816000D02*
X129330000Y-65766000D01*
X134830000Y-62916000D02*
X134830000Y-61666000D01*
X134830000Y-61666000D02*
X133580000Y-61666000D01*
%TO.C,J12*%
X141398000Y-61956000D02*
X135428000Y-61956000D01*
X135428000Y-61956000D02*
X135428000Y-69576000D01*
X135428000Y-69576000D02*
X141398000Y-69576000D01*
X141398000Y-69576000D02*
X141398000Y-61956000D01*
X141388000Y-65266000D02*
X140638000Y-65266000D01*
X140638000Y-65266000D02*
X140638000Y-66266000D01*
X140638000Y-66266000D02*
X141388000Y-66266000D01*
X141388000Y-66266000D02*
X141388000Y-65266000D01*
X141388000Y-61966000D02*
X140638000Y-61966000D01*
X140638000Y-61966000D02*
X140638000Y-63766000D01*
X140638000Y-63766000D02*
X141388000Y-63766000D01*
X141388000Y-63766000D02*
X141388000Y-61966000D01*
X141388000Y-67766000D02*
X140638000Y-67766000D01*
X140638000Y-67766000D02*
X140638000Y-69566000D01*
X140638000Y-69566000D02*
X141388000Y-69566000D01*
X141388000Y-69566000D02*
X141388000Y-67766000D01*
X139138000Y-61966000D02*
X139138000Y-62716000D01*
X139138000Y-62716000D02*
X136188000Y-62716000D01*
X136188000Y-62716000D02*
X136188000Y-65766000D01*
X139138000Y-69566000D02*
X139138000Y-68816000D01*
X139138000Y-68816000D02*
X136188000Y-68816000D01*
X136188000Y-68816000D02*
X136188000Y-65766000D01*
X141688000Y-62916000D02*
X141688000Y-61666000D01*
X141688000Y-61666000D02*
X140438000Y-61666000D01*
%TO.C,J11*%
X100250000Y-70592000D02*
X94280000Y-70592000D01*
X94280000Y-70592000D02*
X94280000Y-78212000D01*
X94280000Y-78212000D02*
X100250000Y-78212000D01*
X100250000Y-78212000D02*
X100250000Y-70592000D01*
X100240000Y-73902000D02*
X99490000Y-73902000D01*
X99490000Y-73902000D02*
X99490000Y-74902000D01*
X99490000Y-74902000D02*
X100240000Y-74902000D01*
X100240000Y-74902000D02*
X100240000Y-73902000D01*
X100240000Y-70602000D02*
X99490000Y-70602000D01*
X99490000Y-70602000D02*
X99490000Y-72402000D01*
X99490000Y-72402000D02*
X100240000Y-72402000D01*
X100240000Y-72402000D02*
X100240000Y-70602000D01*
X100240000Y-76402000D02*
X99490000Y-76402000D01*
X99490000Y-76402000D02*
X99490000Y-78202000D01*
X99490000Y-78202000D02*
X100240000Y-78202000D01*
X100240000Y-78202000D02*
X100240000Y-76402000D01*
X97990000Y-70602000D02*
X97990000Y-71352000D01*
X97990000Y-71352000D02*
X95040000Y-71352000D01*
X95040000Y-71352000D02*
X95040000Y-74402000D01*
X97990000Y-78202000D02*
X97990000Y-77452000D01*
X97990000Y-77452000D02*
X95040000Y-77452000D01*
X95040000Y-77452000D02*
X95040000Y-74402000D01*
X100540000Y-71552000D02*
X100540000Y-70302000D01*
X100540000Y-70302000D02*
X99290000Y-70302000D01*
%TO.C,J10*%
X107108000Y-70592000D02*
X101138000Y-70592000D01*
X101138000Y-70592000D02*
X101138000Y-78212000D01*
X101138000Y-78212000D02*
X107108000Y-78212000D01*
X107108000Y-78212000D02*
X107108000Y-70592000D01*
X107098000Y-73902000D02*
X106348000Y-73902000D01*
X106348000Y-73902000D02*
X106348000Y-74902000D01*
X106348000Y-74902000D02*
X107098000Y-74902000D01*
X107098000Y-74902000D02*
X107098000Y-73902000D01*
X107098000Y-70602000D02*
X106348000Y-70602000D01*
X106348000Y-70602000D02*
X106348000Y-72402000D01*
X106348000Y-72402000D02*
X107098000Y-72402000D01*
X107098000Y-72402000D02*
X107098000Y-70602000D01*
X107098000Y-76402000D02*
X106348000Y-76402000D01*
X106348000Y-76402000D02*
X106348000Y-78202000D01*
X106348000Y-78202000D02*
X107098000Y-78202000D01*
X107098000Y-78202000D02*
X107098000Y-76402000D01*
X104848000Y-70602000D02*
X104848000Y-71352000D01*
X104848000Y-71352000D02*
X101898000Y-71352000D01*
X101898000Y-71352000D02*
X101898000Y-74402000D01*
X104848000Y-78202000D02*
X104848000Y-77452000D01*
X104848000Y-77452000D02*
X101898000Y-77452000D01*
X101898000Y-77452000D02*
X101898000Y-74402000D01*
X107398000Y-71552000D02*
X107398000Y-70302000D01*
X107398000Y-70302000D02*
X106148000Y-70302000D01*
%TO.C,J9*%
X113966000Y-70592000D02*
X107996000Y-70592000D01*
X107996000Y-70592000D02*
X107996000Y-78212000D01*
X107996000Y-78212000D02*
X113966000Y-78212000D01*
X113966000Y-78212000D02*
X113966000Y-70592000D01*
X113956000Y-73902000D02*
X113206000Y-73902000D01*
X113206000Y-73902000D02*
X113206000Y-74902000D01*
X113206000Y-74902000D02*
X113956000Y-74902000D01*
X113956000Y-74902000D02*
X113956000Y-73902000D01*
X113956000Y-70602000D02*
X113206000Y-70602000D01*
X113206000Y-70602000D02*
X113206000Y-72402000D01*
X113206000Y-72402000D02*
X113956000Y-72402000D01*
X113956000Y-72402000D02*
X113956000Y-70602000D01*
X113956000Y-76402000D02*
X113206000Y-76402000D01*
X113206000Y-76402000D02*
X113206000Y-78202000D01*
X113206000Y-78202000D02*
X113956000Y-78202000D01*
X113956000Y-78202000D02*
X113956000Y-76402000D01*
X111706000Y-70602000D02*
X111706000Y-71352000D01*
X111706000Y-71352000D02*
X108756000Y-71352000D01*
X108756000Y-71352000D02*
X108756000Y-74402000D01*
X111706000Y-78202000D02*
X111706000Y-77452000D01*
X111706000Y-77452000D02*
X108756000Y-77452000D01*
X108756000Y-77452000D02*
X108756000Y-74402000D01*
X114256000Y-71552000D02*
X114256000Y-70302000D01*
X114256000Y-70302000D02*
X113006000Y-70302000D01*
%TO.C,J8*%
X120824000Y-70592000D02*
X114854000Y-70592000D01*
X114854000Y-70592000D02*
X114854000Y-78212000D01*
X114854000Y-78212000D02*
X120824000Y-78212000D01*
X120824000Y-78212000D02*
X120824000Y-70592000D01*
X120814000Y-73902000D02*
X120064000Y-73902000D01*
X120064000Y-73902000D02*
X120064000Y-74902000D01*
X120064000Y-74902000D02*
X120814000Y-74902000D01*
X120814000Y-74902000D02*
X120814000Y-73902000D01*
X120814000Y-70602000D02*
X120064000Y-70602000D01*
X120064000Y-70602000D02*
X120064000Y-72402000D01*
X120064000Y-72402000D02*
X120814000Y-72402000D01*
X120814000Y-72402000D02*
X120814000Y-70602000D01*
X120814000Y-76402000D02*
X120064000Y-76402000D01*
X120064000Y-76402000D02*
X120064000Y-78202000D01*
X120064000Y-78202000D02*
X120814000Y-78202000D01*
X120814000Y-78202000D02*
X120814000Y-76402000D01*
X118564000Y-70602000D02*
X118564000Y-71352000D01*
X118564000Y-71352000D02*
X115614000Y-71352000D01*
X115614000Y-71352000D02*
X115614000Y-74402000D01*
X118564000Y-78202000D02*
X118564000Y-77452000D01*
X118564000Y-77452000D02*
X115614000Y-77452000D01*
X115614000Y-77452000D02*
X115614000Y-74402000D01*
X121114000Y-71552000D02*
X121114000Y-70302000D01*
X121114000Y-70302000D02*
X119864000Y-70302000D01*
%TO.C,J7*%
X127682000Y-70592000D02*
X121712000Y-70592000D01*
X121712000Y-70592000D02*
X121712000Y-78212000D01*
X121712000Y-78212000D02*
X127682000Y-78212000D01*
X127682000Y-78212000D02*
X127682000Y-70592000D01*
X127672000Y-73902000D02*
X126922000Y-73902000D01*
X126922000Y-73902000D02*
X126922000Y-74902000D01*
X126922000Y-74902000D02*
X127672000Y-74902000D01*
X127672000Y-74902000D02*
X127672000Y-73902000D01*
X127672000Y-70602000D02*
X126922000Y-70602000D01*
X126922000Y-70602000D02*
X126922000Y-72402000D01*
X126922000Y-72402000D02*
X127672000Y-72402000D01*
X127672000Y-72402000D02*
X127672000Y-70602000D01*
X127672000Y-76402000D02*
X126922000Y-76402000D01*
X126922000Y-76402000D02*
X126922000Y-78202000D01*
X126922000Y-78202000D02*
X127672000Y-78202000D01*
X127672000Y-78202000D02*
X127672000Y-76402000D01*
X125422000Y-70602000D02*
X125422000Y-71352000D01*
X125422000Y-71352000D02*
X122472000Y-71352000D01*
X122472000Y-71352000D02*
X122472000Y-74402000D01*
X125422000Y-78202000D02*
X125422000Y-77452000D01*
X125422000Y-77452000D02*
X122472000Y-77452000D01*
X122472000Y-77452000D02*
X122472000Y-74402000D01*
X127972000Y-71552000D02*
X127972000Y-70302000D01*
X127972000Y-70302000D02*
X126722000Y-70302000D01*
%TO.C,J6*%
X134540000Y-70592000D02*
X128570000Y-70592000D01*
X128570000Y-70592000D02*
X128570000Y-78212000D01*
X128570000Y-78212000D02*
X134540000Y-78212000D01*
X134540000Y-78212000D02*
X134540000Y-70592000D01*
X134530000Y-73902000D02*
X133780000Y-73902000D01*
X133780000Y-73902000D02*
X133780000Y-74902000D01*
X133780000Y-74902000D02*
X134530000Y-74902000D01*
X134530000Y-74902000D02*
X134530000Y-73902000D01*
X134530000Y-70602000D02*
X133780000Y-70602000D01*
X133780000Y-70602000D02*
X133780000Y-72402000D01*
X133780000Y-72402000D02*
X134530000Y-72402000D01*
X134530000Y-72402000D02*
X134530000Y-70602000D01*
X134530000Y-76402000D02*
X133780000Y-76402000D01*
X133780000Y-76402000D02*
X133780000Y-78202000D01*
X133780000Y-78202000D02*
X134530000Y-78202000D01*
X134530000Y-78202000D02*
X134530000Y-76402000D01*
X132280000Y-70602000D02*
X132280000Y-71352000D01*
X132280000Y-71352000D02*
X129330000Y-71352000D01*
X129330000Y-71352000D02*
X129330000Y-74402000D01*
X132280000Y-78202000D02*
X132280000Y-77452000D01*
X132280000Y-77452000D02*
X129330000Y-77452000D01*
X129330000Y-77452000D02*
X129330000Y-74402000D01*
X134830000Y-71552000D02*
X134830000Y-70302000D01*
X134830000Y-70302000D02*
X133580000Y-70302000D01*
%TO.C,J5*%
X141398000Y-70592000D02*
X135428000Y-70592000D01*
X135428000Y-70592000D02*
X135428000Y-78212000D01*
X135428000Y-78212000D02*
X141398000Y-78212000D01*
X141398000Y-78212000D02*
X141398000Y-70592000D01*
X141388000Y-73902000D02*
X140638000Y-73902000D01*
X140638000Y-73902000D02*
X140638000Y-74902000D01*
X140638000Y-74902000D02*
X141388000Y-74902000D01*
X141388000Y-74902000D02*
X141388000Y-73902000D01*
X141388000Y-70602000D02*
X140638000Y-70602000D01*
X140638000Y-70602000D02*
X140638000Y-72402000D01*
X140638000Y-72402000D02*
X141388000Y-72402000D01*
X141388000Y-72402000D02*
X141388000Y-70602000D01*
X141388000Y-76402000D02*
X140638000Y-76402000D01*
X140638000Y-76402000D02*
X140638000Y-78202000D01*
X140638000Y-78202000D02*
X141388000Y-78202000D01*
X141388000Y-78202000D02*
X141388000Y-76402000D01*
X139138000Y-70602000D02*
X139138000Y-71352000D01*
X139138000Y-71352000D02*
X136188000Y-71352000D01*
X136188000Y-71352000D02*
X136188000Y-74402000D01*
X139138000Y-78202000D02*
X139138000Y-77452000D01*
X139138000Y-77452000D02*
X136188000Y-77452000D01*
X136188000Y-77452000D02*
X136188000Y-74402000D01*
X141688000Y-71552000D02*
X141688000Y-70302000D01*
X141688000Y-70302000D02*
X140438000Y-70302000D01*
%TO.C,J4*%
X148256000Y-61956000D02*
X142286000Y-61956000D01*
X142286000Y-61956000D02*
X142286000Y-69576000D01*
X142286000Y-69576000D02*
X148256000Y-69576000D01*
X148256000Y-69576000D02*
X148256000Y-61956000D01*
X148246000Y-65266000D02*
X147496000Y-65266000D01*
X147496000Y-65266000D02*
X147496000Y-66266000D01*
X147496000Y-66266000D02*
X148246000Y-66266000D01*
X148246000Y-66266000D02*
X148246000Y-65266000D01*
X148246000Y-61966000D02*
X147496000Y-61966000D01*
X147496000Y-61966000D02*
X147496000Y-63766000D01*
X147496000Y-63766000D02*
X148246000Y-63766000D01*
X148246000Y-63766000D02*
X148246000Y-61966000D01*
X148246000Y-67766000D02*
X147496000Y-67766000D01*
X147496000Y-67766000D02*
X147496000Y-69566000D01*
X147496000Y-69566000D02*
X148246000Y-69566000D01*
X148246000Y-69566000D02*
X148246000Y-67766000D01*
X145996000Y-61966000D02*
X145996000Y-62716000D01*
X145996000Y-62716000D02*
X143046000Y-62716000D01*
X143046000Y-62716000D02*
X143046000Y-65766000D01*
X145996000Y-69566000D02*
X145996000Y-68816000D01*
X145996000Y-68816000D02*
X143046000Y-68816000D01*
X143046000Y-68816000D02*
X143046000Y-65766000D01*
X148546000Y-62916000D02*
X148546000Y-61666000D01*
X148546000Y-61666000D02*
X147296000Y-61666000D01*
%TO.C,J3*%
X164358000Y-68119000D02*
X164358000Y-62149000D01*
X164358000Y-62149000D02*
X149238000Y-62149000D01*
X149238000Y-62149000D02*
X149238000Y-68119000D01*
X149238000Y-68119000D02*
X164358000Y-68119000D01*
X161048000Y-68109000D02*
X161048000Y-67359000D01*
X161048000Y-67359000D02*
X152548000Y-67359000D01*
X152548000Y-67359000D02*
X152548000Y-68109000D01*
X152548000Y-68109000D02*
X161048000Y-68109000D01*
X164348000Y-68109000D02*
X164348000Y-67359000D01*
X164348000Y-67359000D02*
X162548000Y-67359000D01*
X162548000Y-67359000D02*
X162548000Y-68109000D01*
X162548000Y-68109000D02*
X164348000Y-68109000D01*
X151048000Y-68109000D02*
X151048000Y-67359000D01*
X151048000Y-67359000D02*
X149248000Y-67359000D01*
X149248000Y-67359000D02*
X149248000Y-68109000D01*
X149248000Y-68109000D02*
X151048000Y-68109000D01*
X164348000Y-65859000D02*
X163598000Y-65859000D01*
X163598000Y-65859000D02*
X163598000Y-62909000D01*
X163598000Y-62909000D02*
X156798000Y-62909000D01*
X149248000Y-65859000D02*
X149998000Y-65859000D01*
X149998000Y-65859000D02*
X149998000Y-62909000D01*
X149998000Y-62909000D02*
X156798000Y-62909000D01*
X163398000Y-68409000D02*
X164648000Y-68409000D01*
X164648000Y-68409000D02*
X164648000Y-67159000D01*
%TO.C,J2*%
X148256000Y-70592000D02*
X142286000Y-70592000D01*
X142286000Y-70592000D02*
X142286000Y-78212000D01*
X142286000Y-78212000D02*
X148256000Y-78212000D01*
X148256000Y-78212000D02*
X148256000Y-70592000D01*
X148246000Y-73902000D02*
X147496000Y-73902000D01*
X147496000Y-73902000D02*
X147496000Y-74902000D01*
X147496000Y-74902000D02*
X148246000Y-74902000D01*
X148246000Y-74902000D02*
X148246000Y-73902000D01*
X148246000Y-70602000D02*
X147496000Y-70602000D01*
X147496000Y-70602000D02*
X147496000Y-72402000D01*
X147496000Y-72402000D02*
X148246000Y-72402000D01*
X148246000Y-72402000D02*
X148246000Y-70602000D01*
X148246000Y-76402000D02*
X147496000Y-76402000D01*
X147496000Y-76402000D02*
X147496000Y-78202000D01*
X147496000Y-78202000D02*
X148246000Y-78202000D01*
X148246000Y-78202000D02*
X148246000Y-76402000D01*
X145996000Y-70602000D02*
X145996000Y-71352000D01*
X145996000Y-71352000D02*
X143046000Y-71352000D01*
X143046000Y-71352000D02*
X143046000Y-74402000D01*
X145996000Y-78202000D02*
X145996000Y-77452000D01*
X145996000Y-77452000D02*
X143046000Y-77452000D01*
X143046000Y-77452000D02*
X143046000Y-74402000D01*
X148546000Y-71552000D02*
X148546000Y-70302000D01*
X148546000Y-70302000D02*
X147296000Y-70302000D01*
%TO.C,J1*%
X164358000Y-77009000D02*
X164358000Y-71039000D01*
X164358000Y-71039000D02*
X149238000Y-71039000D01*
X149238000Y-71039000D02*
X149238000Y-77009000D01*
X149238000Y-77009000D02*
X164358000Y-77009000D01*
X161048000Y-76999000D02*
X161048000Y-76249000D01*
X161048000Y-76249000D02*
X152548000Y-76249000D01*
X152548000Y-76249000D02*
X152548000Y-76999000D01*
X152548000Y-76999000D02*
X161048000Y-76999000D01*
X164348000Y-76999000D02*
X164348000Y-76249000D01*
X164348000Y-76249000D02*
X162548000Y-76249000D01*
X162548000Y-76249000D02*
X162548000Y-76999000D01*
X162548000Y-76999000D02*
X164348000Y-76999000D01*
X151048000Y-76999000D02*
X151048000Y-76249000D01*
X151048000Y-76249000D02*
X149248000Y-76249000D01*
X149248000Y-76249000D02*
X149248000Y-76999000D01*
X149248000Y-76999000D02*
X151048000Y-76999000D01*
X164348000Y-74749000D02*
X163598000Y-74749000D01*
X163598000Y-74749000D02*
X163598000Y-71799000D01*
X163598000Y-71799000D02*
X156798000Y-71799000D01*
X149248000Y-74749000D02*
X149998000Y-74749000D01*
X149998000Y-74749000D02*
X149998000Y-71799000D01*
X149998000Y-71799000D02*
X156798000Y-71799000D01*
X163398000Y-77299000D02*
X164648000Y-77299000D01*
X164648000Y-77299000D02*
X164648000Y-76049000D01*
%TO.C,C3*%
X120007748Y-83593000D02*
X120530252Y-83593000D01*
X120007748Y-85063000D02*
X120530252Y-85063000D01*
%TO.C,C2*%
X138041748Y-83593000D02*
X138564252Y-83593000D01*
X138041748Y-85063000D02*
X138564252Y-85063000D01*
%TO.C,C1*%
X156202748Y-83593000D02*
X156725252Y-83593000D01*
X156202748Y-85063000D02*
X156725252Y-85063000D01*
%TO.C,OUT1*%
X160976000Y-80458000D02*
X162306000Y-80458000D01*
X160976000Y-81788000D02*
X160976000Y-80458000D01*
X160976000Y-83058000D02*
X163636000Y-83058000D01*
X163636000Y-83058000D02*
X163636000Y-93278000D01*
X160976000Y-83058000D02*
X160976000Y-93278000D01*
X160976000Y-93278000D02*
X163636000Y-93278000D01*
%TO.C,IN1*%
X95952000Y-80585000D02*
X97282000Y-80585000D01*
X95952000Y-81915000D02*
X95952000Y-80585000D01*
X95952000Y-83185000D02*
X98612000Y-83185000D01*
X98612000Y-83185000D02*
X98612000Y-93405000D01*
X95952000Y-83185000D02*
X95952000Y-93405000D01*
X95952000Y-93405000D02*
X98612000Y-93405000D01*
%TO.C,RN1*%
X145053000Y-91128000D02*
X144253000Y-91128000D01*
X145053000Y-87688000D02*
X144253000Y-87688000D01*
%TO.C,RN2*%
X156572000Y-91128000D02*
X157372000Y-91128000D01*
X156572000Y-87688000D02*
X157372000Y-87688000D01*
%TO.C,SHORT1*%
X104920000Y-93202000D02*
X100820000Y-93202000D01*
X100820000Y-93202000D02*
X100820000Y-91202000D01*
X100820000Y-91202000D02*
X104920000Y-91202000D01*
X104920000Y-91202000D02*
X104920000Y-93202000D01*
%TO.C,PULL1*%
X104920000Y-89138000D02*
X100820000Y-89138000D01*
X100820000Y-89138000D02*
X100820000Y-87138000D01*
X100820000Y-87138000D02*
X104920000Y-87138000D01*
X104920000Y-87138000D02*
X104920000Y-89138000D01*
%TO.C,RN3*%
X126892000Y-87688000D02*
X126092000Y-87688000D01*
X126892000Y-91128000D02*
X126092000Y-91128000D01*
%TO.C,RN4*%
X138411000Y-91001000D02*
X139211000Y-91001000D01*
X138411000Y-87561000D02*
X139211000Y-87561000D01*
%TO.C,RN5*%
X108921500Y-87561000D02*
X108121500Y-87561000D01*
X108921500Y-91001000D02*
X108121500Y-91001000D01*
%TO.C,RN6*%
X120377000Y-91128000D02*
X121177000Y-91128000D01*
X120377000Y-87688000D02*
X121177000Y-87688000D01*
%TO.C,74HC165_3*%
X114617500Y-94404500D02*
X116567500Y-94404500D01*
X114617500Y-94404500D02*
X112667500Y-94404500D01*
X114617500Y-84284500D02*
X116567500Y-84284500D01*
X114617500Y-84284500D02*
X111167500Y-84284500D01*
%TO.C,74HC165_2*%
X132651500Y-84284500D02*
X129201500Y-84284500D01*
X132651500Y-84284500D02*
X134601500Y-84284500D01*
X132651500Y-94404500D02*
X130701500Y-94404500D01*
X132651500Y-94404500D02*
X134601500Y-94404500D01*
%TO.C,74HC165_1*%
D12*
X147865666Y-94993666D02*
X148332333Y-94993666D01*
X148032333Y-95693666D01*
X148899000Y-95227000D02*
X148899000Y-95693666D01*
X148732333Y-94960333D02*
X148565666Y-95460333D01*
X148999000Y-95460333D01*
X149265666Y-95693666D02*
X149265666Y-94993666D01*
X149265666Y-95327000D02*
X149665666Y-95327000D01*
X149665666Y-95693666D02*
X149665666Y-94993666D01*
X150399000Y-95627000D02*
X150365666Y-95660333D01*
X150265666Y-95693666D01*
X150199000Y-95693666D01*
X150099000Y-95660333D01*
X150032333Y-95593666D01*
X149999000Y-95527000D01*
X149965666Y-95393666D01*
X149965666Y-95293666D01*
X149999000Y-95160333D01*
X150032333Y-95093666D01*
X150099000Y-95027000D01*
X150199000Y-94993666D01*
X150265666Y-94993666D01*
X150365666Y-95027000D01*
X150399000Y-95060333D01*
X151065666Y-95693666D02*
X150665666Y-95693666D01*
X150865666Y-95693666D02*
X150865666Y-94993666D01*
X150799000Y-95093666D01*
X150732333Y-95160333D01*
X150665666Y-95193666D01*
X151665666Y-94993666D02*
X151532333Y-94993666D01*
X151465666Y-95027000D01*
X151432333Y-95060333D01*
X151365666Y-95160333D01*
X151332333Y-95293666D01*
X151332333Y-95560333D01*
X151365666Y-95627000D01*
X151399000Y-95660333D01*
X151465666Y-95693666D01*
X151599000Y-95693666D01*
X151665666Y-95660333D01*
X151699000Y-95627000D01*
X151732333Y-95560333D01*
X151732333Y-95393666D01*
X151699000Y-95327000D01*
X151665666Y-95293666D01*
X151599000Y-95260333D01*
X151465666Y-95260333D01*
X151399000Y-95293666D01*
X151365666Y-95327000D01*
X151332333Y-95393666D01*
X152365666Y-94993666D02*
X152032333Y-94993666D01*
X151999000Y-95327000D01*
X152032333Y-95293666D01*
X152099000Y-95260333D01*
X152265666Y-95260333D01*
X152332333Y-95293666D01*
X152365666Y-95327000D01*
X152399000Y-95393666D01*
X152399000Y-95560333D01*
X152365666Y-95627000D01*
X152332333Y-95660333D01*
X152265666Y-95693666D01*
X152099000Y-95693666D01*
X152032333Y-95660333D01*
X151999000Y-95627000D01*
X152532333Y-95760333D02*
X153065666Y-95760333D01*
X153599000Y-95693666D02*
X153199000Y-95693666D01*
X153399000Y-95693666D02*
X153399000Y-94993666D01*
X153332333Y-95093666D01*
X153265666Y-95160333D01*
X153199000Y-95193666D01*
%TO.C,J22*%
X110188476Y-81240380D02*
X110188476Y-81954666D01*
X110140857Y-82097523D01*
X110045619Y-82192761D01*
X109902761Y-82240380D01*
X109807523Y-82240380D01*
X110617047Y-81335619D02*
X110664666Y-81288000D01*
X110759904Y-81240380D01*
X110998000Y-81240380D01*
X111093238Y-81288000D01*
X111140857Y-81335619D01*
X111188476Y-81430857D01*
X111188476Y-81526095D01*
X111140857Y-81668952D01*
X110569428Y-82240380D01*
X111188476Y-82240380D01*
X111569428Y-81335619D02*
X111617047Y-81288000D01*
X111712285Y-81240380D01*
X111950380Y-81240380D01*
X112045619Y-81288000D01*
X112093238Y-81335619D01*
X112140857Y-81430857D01*
X112140857Y-81526095D01*
X112093238Y-81668952D01*
X111521809Y-82240380D01*
X112140857Y-82240380D01*
%TO.C,J21*%
X106822976Y-81240380D02*
X106822976Y-81954666D01*
X106775357Y-82097523D01*
X106680119Y-82192761D01*
X106537261Y-82240380D01*
X106442023Y-82240380D01*
X107251547Y-81335619D02*
X107299166Y-81288000D01*
X107394404Y-81240380D01*
X107632500Y-81240380D01*
X107727738Y-81288000D01*
X107775357Y-81335619D01*
X107822976Y-81430857D01*
X107822976Y-81526095D01*
X107775357Y-81668952D01*
X107203928Y-82240380D01*
X107822976Y-82240380D01*
X108775357Y-82240380D02*
X108203928Y-82240380D01*
X108489642Y-82240380D02*
X108489642Y-81240380D01*
X108394404Y-81383238D01*
X108299166Y-81478476D01*
X108203928Y-81526095D01*
%TO.C,J20*%
X103457476Y-81240380D02*
X103457476Y-81954666D01*
X103409857Y-82097523D01*
X103314619Y-82192761D01*
X103171761Y-82240380D01*
X103076523Y-82240380D01*
X103886047Y-81335619D02*
X103933666Y-81288000D01*
X104028904Y-81240380D01*
X104267000Y-81240380D01*
X104362238Y-81288000D01*
X104409857Y-81335619D01*
X104457476Y-81430857D01*
X104457476Y-81526095D01*
X104409857Y-81668952D01*
X103838428Y-82240380D01*
X104457476Y-82240380D01*
X105076523Y-81240380D02*
X105171761Y-81240380D01*
X105267000Y-81288000D01*
X105314619Y-81335619D01*
X105362238Y-81430857D01*
X105409857Y-81621333D01*
X105409857Y-81859428D01*
X105362238Y-82049904D01*
X105314619Y-82145142D01*
X105267000Y-82192761D01*
X105171761Y-82240380D01*
X105076523Y-82240380D01*
X104981285Y-82192761D01*
X104933666Y-82145142D01*
X104886047Y-82049904D01*
X104838428Y-81859428D01*
X104838428Y-81621333D01*
X104886047Y-81430857D01*
X104933666Y-81335619D01*
X104981285Y-81288000D01*
X105076523Y-81240380D01*
%TO.C,J19*%
X100091976Y-81240380D02*
X100091976Y-81954666D01*
X100044357Y-82097523D01*
X99949119Y-82192761D01*
X99806261Y-82240380D01*
X99711023Y-82240380D01*
X101091976Y-82240380D02*
X100520547Y-82240380D01*
X100806261Y-82240380D02*
X100806261Y-81240380D01*
X100711023Y-81383238D01*
X100615785Y-81478476D01*
X100520547Y-81526095D01*
X101568166Y-82240380D02*
X101758642Y-82240380D01*
X101853880Y-82192761D01*
X101901500Y-82145142D01*
X101996738Y-82002285D01*
X102044357Y-81811809D01*
X102044357Y-81430857D01*
X101996738Y-81335619D01*
X101949119Y-81288000D01*
X101853880Y-81240380D01*
X101663404Y-81240380D01*
X101568166Y-81288000D01*
X101520547Y-81335619D01*
X101472928Y-81430857D01*
X101472928Y-81668952D01*
X101520547Y-81764190D01*
X101568166Y-81811809D01*
X101663404Y-81859428D01*
X101853880Y-81859428D01*
X101949119Y-81811809D01*
X101996738Y-81764190D01*
X102044357Y-81668952D01*
%TO.C,J18*%
X100792380Y-66575523D02*
X101506666Y-66575523D01*
X101649523Y-66623142D01*
X101744761Y-66718380D01*
X101792380Y-66861238D01*
X101792380Y-66956476D01*
X101792380Y-65575523D02*
X101792380Y-66146952D01*
X101792380Y-65861238D02*
X100792380Y-65861238D01*
X100935238Y-65956476D01*
X101030476Y-66051714D01*
X101078095Y-66146952D01*
X101220952Y-65004095D02*
X101173333Y-65099333D01*
X101125714Y-65146952D01*
X101030476Y-65194571D01*
X100982857Y-65194571D01*
X100887619Y-65146952D01*
X100840000Y-65099333D01*
X100792380Y-65004095D01*
X100792380Y-64813619D01*
X100840000Y-64718380D01*
X100887619Y-64670761D01*
X100982857Y-64623142D01*
X101030476Y-64623142D01*
X101125714Y-64670761D01*
X101173333Y-64718380D01*
X101220952Y-64813619D01*
X101220952Y-65004095D01*
X101268571Y-65099333D01*
X101316190Y-65146952D01*
X101411428Y-65194571D01*
X101601904Y-65194571D01*
X101697142Y-65146952D01*
X101744761Y-65099333D01*
X101792380Y-65004095D01*
X101792380Y-64813619D01*
X101744761Y-64718380D01*
X101697142Y-64670761D01*
X101601904Y-64623142D01*
X101411428Y-64623142D01*
X101316190Y-64670761D01*
X101268571Y-64718380D01*
X101220952Y-64813619D01*
%TO.C,J17*%
X107650380Y-66575523D02*
X108364666Y-66575523D01*
X108507523Y-66623142D01*
X108602761Y-66718380D01*
X108650380Y-66861238D01*
X108650380Y-66956476D01*
X108650380Y-65575523D02*
X108650380Y-66146952D01*
X108650380Y-65861238D02*
X107650380Y-65861238D01*
X107793238Y-65956476D01*
X107888476Y-66051714D01*
X107936095Y-66146952D01*
X107650380Y-65242190D02*
X107650380Y-64575523D01*
X108650380Y-65004095D01*
%TO.C,J16*%
X114508380Y-66575523D02*
X115222666Y-66575523D01*
X115365523Y-66623142D01*
X115460761Y-66718380D01*
X115508380Y-66861238D01*
X115508380Y-66956476D01*
X115508380Y-65575523D02*
X115508380Y-66146952D01*
X115508380Y-65861238D02*
X114508380Y-65861238D01*
X114651238Y-65956476D01*
X114746476Y-66051714D01*
X114794095Y-66146952D01*
X114508380Y-64718380D02*
X114508380Y-64908857D01*
X114556000Y-65004095D01*
X114603619Y-65051714D01*
X114746476Y-65146952D01*
X114936952Y-65194571D01*
X115317904Y-65194571D01*
X115413142Y-65146952D01*
X115460761Y-65099333D01*
X115508380Y-65004095D01*
X115508380Y-64813619D01*
X115460761Y-64718380D01*
X115413142Y-64670761D01*
X115317904Y-64623142D01*
X115079809Y-64623142D01*
X114984571Y-64670761D01*
X114936952Y-64718380D01*
X114889333Y-64813619D01*
X114889333Y-65004095D01*
X114936952Y-65099333D01*
X114984571Y-65146952D01*
X115079809Y-65194571D01*
%TO.C,J15*%
X121366380Y-66575523D02*
X122080666Y-66575523D01*
X122223523Y-66623142D01*
X122318761Y-66718380D01*
X122366380Y-66861238D01*
X122366380Y-66956476D01*
X122366380Y-65575523D02*
X122366380Y-66146952D01*
X122366380Y-65861238D02*
X121366380Y-65861238D01*
X121509238Y-65956476D01*
X121604476Y-66051714D01*
X121652095Y-66146952D01*
X121366380Y-64670761D02*
X121366380Y-65146952D01*
X121842571Y-65194571D01*
X121794952Y-65146952D01*
X121747333Y-65051714D01*
X121747333Y-64813619D01*
X121794952Y-64718380D01*
X121842571Y-64670761D01*
X121937809Y-64623142D01*
X122175904Y-64623142D01*
X122271142Y-64670761D01*
X122318761Y-64718380D01*
X122366380Y-64813619D01*
X122366380Y-65051714D01*
X122318761Y-65146952D01*
X122271142Y-65194571D01*
%TO.C,J14*%
X128224380Y-66575523D02*
X128938666Y-66575523D01*
X129081523Y-66623142D01*
X129176761Y-66718380D01*
X129224380Y-66861238D01*
X129224380Y-66956476D01*
X129224380Y-65575523D02*
X129224380Y-66146952D01*
X129224380Y-65861238D02*
X128224380Y-65861238D01*
X128367238Y-65956476D01*
X128462476Y-66051714D01*
X128510095Y-66146952D01*
X128557714Y-64718380D02*
X129224380Y-64718380D01*
X128176761Y-64956476D02*
X128891047Y-65194571D01*
X128891047Y-64575523D01*
%TO.C,J13*%
X135082380Y-66575523D02*
X135796666Y-66575523D01*
X135939523Y-66623142D01*
X136034761Y-66718380D01*
X136082380Y-66861238D01*
X136082380Y-66956476D01*
X136082380Y-65575523D02*
X136082380Y-66146952D01*
X136082380Y-65861238D02*
X135082380Y-65861238D01*
X135225238Y-65956476D01*
X135320476Y-66051714D01*
X135368095Y-66146952D01*
X135082380Y-65242190D02*
X135082380Y-64623142D01*
X135463333Y-64956476D01*
X135463333Y-64813619D01*
X135510952Y-64718380D01*
X135558571Y-64670761D01*
X135653809Y-64623142D01*
X135891904Y-64623142D01*
X135987142Y-64670761D01*
X136034761Y-64718380D01*
X136082380Y-64813619D01*
X136082380Y-65099333D01*
X136034761Y-65194571D01*
X135987142Y-65242190D01*
%TO.C,J12*%
X141940380Y-66575523D02*
X142654666Y-66575523D01*
X142797523Y-66623142D01*
X142892761Y-66718380D01*
X142940380Y-66861238D01*
X142940380Y-66956476D01*
X142940380Y-65575523D02*
X142940380Y-66146952D01*
X142940380Y-65861238D02*
X141940380Y-65861238D01*
X142083238Y-65956476D01*
X142178476Y-66051714D01*
X142226095Y-66146952D01*
X142035619Y-65194571D02*
X141988000Y-65146952D01*
X141940380Y-65051714D01*
X141940380Y-64813619D01*
X141988000Y-64718380D01*
X142035619Y-64670761D01*
X142130857Y-64623142D01*
X142226095Y-64623142D01*
X142368952Y-64670761D01*
X142940380Y-65242190D01*
X142940380Y-64623142D01*
%TO.C,J11*%
X100792380Y-75211523D02*
X101506666Y-75211523D01*
X101649523Y-75259142D01*
X101744761Y-75354380D01*
X101792380Y-75497238D01*
X101792380Y-75592476D01*
X101792380Y-74211523D02*
X101792380Y-74782952D01*
X101792380Y-74497238D02*
X100792380Y-74497238D01*
X100935238Y-74592476D01*
X101030476Y-74687714D01*
X101078095Y-74782952D01*
X101792380Y-73259142D02*
X101792380Y-73830571D01*
X101792380Y-73544857D02*
X100792380Y-73544857D01*
X100935238Y-73640095D01*
X101030476Y-73735333D01*
X101078095Y-73830571D01*
%TO.C,J10*%
X107650380Y-75211523D02*
X108364666Y-75211523D01*
X108507523Y-75259142D01*
X108602761Y-75354380D01*
X108650380Y-75497238D01*
X108650380Y-75592476D01*
X108650380Y-74211523D02*
X108650380Y-74782952D01*
X108650380Y-74497238D02*
X107650380Y-74497238D01*
X107793238Y-74592476D01*
X107888476Y-74687714D01*
X107936095Y-74782952D01*
X107650380Y-73592476D02*
X107650380Y-73497238D01*
X107698000Y-73402000D01*
X107745619Y-73354380D01*
X107840857Y-73306761D01*
X108031333Y-73259142D01*
X108269428Y-73259142D01*
X108459904Y-73306761D01*
X108555142Y-73354380D01*
X108602761Y-73402000D01*
X108650380Y-73497238D01*
X108650380Y-73592476D01*
X108602761Y-73687714D01*
X108555142Y-73735333D01*
X108459904Y-73782952D01*
X108269428Y-73830571D01*
X108031333Y-73830571D01*
X107840857Y-73782952D01*
X107745619Y-73735333D01*
X107698000Y-73687714D01*
X107650380Y-73592476D01*
%TO.C,J9*%
X114508380Y-74735333D02*
X115222666Y-74735333D01*
X115365523Y-74782952D01*
X115460761Y-74878190D01*
X115508380Y-75021047D01*
X115508380Y-75116285D01*
X115508380Y-74211523D02*
X115508380Y-74021047D01*
X115460761Y-73925809D01*
X115413142Y-73878190D01*
X115270285Y-73782952D01*
X115079809Y-73735333D01*
X114698857Y-73735333D01*
X114603619Y-73782952D01*
X114556000Y-73830571D01*
X114508380Y-73925809D01*
X114508380Y-74116285D01*
X114556000Y-74211523D01*
X114603619Y-74259142D01*
X114698857Y-74306761D01*
X114936952Y-74306761D01*
X115032190Y-74259142D01*
X115079809Y-74211523D01*
X115127428Y-74116285D01*
X115127428Y-73925809D01*
X115079809Y-73830571D01*
X115032190Y-73782952D01*
X114936952Y-73735333D01*
%TO.C,J8*%
X121366380Y-74735333D02*
X122080666Y-74735333D01*
X122223523Y-74782952D01*
X122318761Y-74878190D01*
X122366380Y-75021047D01*
X122366380Y-75116285D01*
X121794952Y-74116285D02*
X121747333Y-74211523D01*
X121699714Y-74259142D01*
X121604476Y-74306761D01*
X121556857Y-74306761D01*
X121461619Y-74259142D01*
X121414000Y-74211523D01*
X121366380Y-74116285D01*
X121366380Y-73925809D01*
X121414000Y-73830571D01*
X121461619Y-73782952D01*
X121556857Y-73735333D01*
X121604476Y-73735333D01*
X121699714Y-73782952D01*
X121747333Y-73830571D01*
X121794952Y-73925809D01*
X121794952Y-74116285D01*
X121842571Y-74211523D01*
X121890190Y-74259142D01*
X121985428Y-74306761D01*
X122175904Y-74306761D01*
X122271142Y-74259142D01*
X122318761Y-74211523D01*
X122366380Y-74116285D01*
X122366380Y-73925809D01*
X122318761Y-73830571D01*
X122271142Y-73782952D01*
X122175904Y-73735333D01*
X121985428Y-73735333D01*
X121890190Y-73782952D01*
X121842571Y-73830571D01*
X121794952Y-73925809D01*
%TO.C,J7*%
X128224380Y-74735333D02*
X128938666Y-74735333D01*
X129081523Y-74782952D01*
X129176761Y-74878190D01*
X129224380Y-75021047D01*
X129224380Y-75116285D01*
X128224380Y-74354380D02*
X128224380Y-73687714D01*
X129224380Y-74116285D01*
%TO.C,J6*%
X135082380Y-74735333D02*
X135796666Y-74735333D01*
X135939523Y-74782952D01*
X136034761Y-74878190D01*
X136082380Y-75021047D01*
X136082380Y-75116285D01*
X135082380Y-73830571D02*
X135082380Y-74021047D01*
X135130000Y-74116285D01*
X135177619Y-74163904D01*
X135320476Y-74259142D01*
X135510952Y-74306761D01*
X135891904Y-74306761D01*
X135987142Y-74259142D01*
X136034761Y-74211523D01*
X136082380Y-74116285D01*
X136082380Y-73925809D01*
X136034761Y-73830571D01*
X135987142Y-73782952D01*
X135891904Y-73735333D01*
X135653809Y-73735333D01*
X135558571Y-73782952D01*
X135510952Y-73830571D01*
X135463333Y-73925809D01*
X135463333Y-74116285D01*
X135510952Y-74211523D01*
X135558571Y-74259142D01*
X135653809Y-74306761D01*
%TO.C,J5*%
X141940380Y-74735333D02*
X142654666Y-74735333D01*
X142797523Y-74782952D01*
X142892761Y-74878190D01*
X142940380Y-75021047D01*
X142940380Y-75116285D01*
X141940380Y-73782952D02*
X141940380Y-74259142D01*
X142416571Y-74306761D01*
X142368952Y-74259142D01*
X142321333Y-74163904D01*
X142321333Y-73925809D01*
X142368952Y-73830571D01*
X142416571Y-73782952D01*
X142511809Y-73735333D01*
X142749904Y-73735333D01*
X142845142Y-73782952D01*
X142892761Y-73830571D01*
X142940380Y-73925809D01*
X142940380Y-74163904D01*
X142892761Y-74259142D01*
X142845142Y-74306761D01*
%TO.C,J4*%
X148798380Y-66099333D02*
X149512666Y-66099333D01*
X149655523Y-66146952D01*
X149750761Y-66242190D01*
X149798380Y-66385047D01*
X149798380Y-66480285D01*
X149131714Y-65194571D02*
X149798380Y-65194571D01*
X148750761Y-65432666D02*
X149465047Y-65670761D01*
X149465047Y-65051714D01*
%TO.C,J3*%
X156464666Y-68661380D02*
X156464666Y-69375666D01*
X156417047Y-69518523D01*
X156321809Y-69613761D01*
X156178952Y-69661380D01*
X156083714Y-69661380D01*
X156845619Y-68661380D02*
X157464666Y-68661380D01*
X157131333Y-69042333D01*
X157274190Y-69042333D01*
X157369428Y-69089952D01*
X157417047Y-69137571D01*
X157464666Y-69232809D01*
X157464666Y-69470904D01*
X157417047Y-69566142D01*
X157369428Y-69613761D01*
X157274190Y-69661380D01*
X156988476Y-69661380D01*
X156893238Y-69613761D01*
X156845619Y-69566142D01*
%TO.C,J2*%
X148798380Y-74735333D02*
X149512666Y-74735333D01*
X149655523Y-74782952D01*
X149750761Y-74878190D01*
X149798380Y-75021047D01*
X149798380Y-75116285D01*
X148893619Y-74306761D02*
X148846000Y-74259142D01*
X148798380Y-74163904D01*
X148798380Y-73925809D01*
X148846000Y-73830571D01*
X148893619Y-73782952D01*
X148988857Y-73735333D01*
X149084095Y-73735333D01*
X149226952Y-73782952D01*
X149798380Y-74354380D01*
X149798380Y-73735333D01*
%TO.C,J1*%
X156464666Y-77551380D02*
X156464666Y-78265666D01*
X156417047Y-78408523D01*
X156321809Y-78503761D01*
X156178952Y-78551380D01*
X156083714Y-78551380D01*
X157464666Y-78551380D02*
X156893238Y-78551380D01*
X157178952Y-78551380D02*
X157178952Y-77551380D01*
X157083714Y-77694238D01*
X156988476Y-77789476D01*
X156893238Y-77837095D01*
%TO.C,C3*%
D10*
X120185666Y-83109571D02*
X120161857Y-83133380D01*
X120090428Y-83157190D01*
X120042809Y-83157190D01*
X119971380Y-83133380D01*
X119923761Y-83085761D01*
X119899952Y-83038142D01*
X119876142Y-82942904D01*
X119876142Y-82871476D01*
X119899952Y-82776238D01*
X119923761Y-82728619D01*
X119971380Y-82681000D01*
X120042809Y-82657190D01*
X120090428Y-82657190D01*
X120161857Y-82681000D01*
X120185666Y-82704809D01*
X120352333Y-82657190D02*
X120661857Y-82657190D01*
X120495190Y-82847666D01*
X120566619Y-82847666D01*
X120614238Y-82871476D01*
X120638047Y-82895285D01*
X120661857Y-82942904D01*
X120661857Y-83061952D01*
X120638047Y-83109571D01*
X120614238Y-83133380D01*
X120566619Y-83157190D01*
X120423761Y-83157190D01*
X120376142Y-83133380D01*
X120352333Y-83109571D01*
%TO.C,C2*%
X138219666Y-83109571D02*
X138195857Y-83133380D01*
X138124428Y-83157190D01*
X138076809Y-83157190D01*
X138005380Y-83133380D01*
X137957761Y-83085761D01*
X137933952Y-83038142D01*
X137910142Y-82942904D01*
X137910142Y-82871476D01*
X137933952Y-82776238D01*
X137957761Y-82728619D01*
X138005380Y-82681000D01*
X138076809Y-82657190D01*
X138124428Y-82657190D01*
X138195857Y-82681000D01*
X138219666Y-82704809D01*
X138410142Y-82704809D02*
X138433952Y-82681000D01*
X138481571Y-82657190D01*
X138600619Y-82657190D01*
X138648238Y-82681000D01*
X138672047Y-82704809D01*
X138695857Y-82752428D01*
X138695857Y-82800047D01*
X138672047Y-82871476D01*
X138386333Y-83157190D01*
X138695857Y-83157190D01*
%TO.C,C1*%
X156380666Y-83109571D02*
X156356857Y-83133380D01*
X156285428Y-83157190D01*
X156237809Y-83157190D01*
X156166380Y-83133380D01*
X156118761Y-83085761D01*
X156094952Y-83038142D01*
X156071142Y-82942904D01*
X156071142Y-82871476D01*
X156094952Y-82776238D01*
X156118761Y-82728619D01*
X156166380Y-82681000D01*
X156237809Y-82657190D01*
X156285428Y-82657190D01*
X156356857Y-82681000D01*
X156380666Y-82704809D01*
X156856857Y-83157190D02*
X156571142Y-83157190D01*
X156714000Y-83157190D02*
X156714000Y-82657190D01*
X156666380Y-82728619D01*
X156618761Y-82776238D01*
X156571142Y-82800047D01*
%TO.C,OUT1*%
D12*
X160637666Y-93850666D02*
X160771000Y-93850666D01*
X160837666Y-93884000D01*
X160904333Y-93950666D01*
X160937666Y-94084000D01*
X160937666Y-94317333D01*
X160904333Y-94450666D01*
X160837666Y-94517333D01*
X160771000Y-94550666D01*
X160637666Y-94550666D01*
X160571000Y-94517333D01*
X160504333Y-94450666D01*
X160471000Y-94317333D01*
X160471000Y-94084000D01*
X160504333Y-93950666D01*
X160571000Y-93884000D01*
X160637666Y-93850666D01*
X161237666Y-93850666D02*
X161237666Y-94417333D01*
X161271000Y-94484000D01*
X161304333Y-94517333D01*
X161371000Y-94550666D01*
X161504333Y-94550666D01*
X161571000Y-94517333D01*
X161604333Y-94484000D01*
X161637666Y-94417333D01*
X161637666Y-93850666D01*
X161871000Y-93850666D02*
X162271000Y-93850666D01*
X162071000Y-94550666D02*
X162071000Y-93850666D01*
X162871000Y-94550666D02*
X162471000Y-94550666D01*
X162671000Y-94550666D02*
X162671000Y-93850666D01*
X162604333Y-93950666D01*
X162537666Y-94017333D01*
X162471000Y-94050666D01*
%TO.C,IN1*%
X97598000Y-94677666D02*
X97598000Y-93977666D01*
X97931333Y-94677666D02*
X97931333Y-93977666D01*
X98331333Y-94677666D01*
X98331333Y-93977666D01*
X99031333Y-94677666D02*
X98631333Y-94677666D01*
X98831333Y-94677666D02*
X98831333Y-93977666D01*
X98764666Y-94077666D01*
X98698000Y-94144333D01*
X98631333Y-94177666D01*
%TO.C,RN1*%
D10*
X144434761Y-87373590D02*
X144268095Y-87135495D01*
X144149047Y-87373590D02*
X144149047Y-86873590D01*
X144339523Y-86873590D01*
X144387142Y-86897400D01*
X144410952Y-86921209D01*
X144434761Y-86968828D01*
X144434761Y-87040257D01*
X144410952Y-87087876D01*
X144387142Y-87111685D01*
X144339523Y-87135495D01*
X144149047Y-87135495D01*
X144649047Y-87373590D02*
X144649047Y-86873590D01*
X144934761Y-87373590D01*
X144934761Y-86873590D01*
X145434761Y-87373590D02*
X145149047Y-87373590D01*
X145291904Y-87373590D02*
X145291904Y-86873590D01*
X145244285Y-86945019D01*
X145196666Y-86992638D01*
X145149047Y-87016447D01*
%TO.C,RN2*%
X156626761Y-87348190D02*
X156460095Y-87110095D01*
X156341047Y-87348190D02*
X156341047Y-86848190D01*
X156531523Y-86848190D01*
X156579142Y-86872000D01*
X156602952Y-86895809D01*
X156626761Y-86943428D01*
X156626761Y-87014857D01*
X156602952Y-87062476D01*
X156579142Y-87086285D01*
X156531523Y-87110095D01*
X156341047Y-87110095D01*
X156841047Y-87348190D02*
X156841047Y-86848190D01*
X157126761Y-87348190D01*
X157126761Y-86848190D01*
X157341047Y-86895809D02*
X157364857Y-86872000D01*
X157412476Y-86848190D01*
X157531523Y-86848190D01*
X157579142Y-86872000D01*
X157602952Y-86895809D01*
X157626761Y-86943428D01*
X157626761Y-86991047D01*
X157602952Y-87062476D01*
X157317238Y-87348190D01*
X157626761Y-87348190D01*
%TO.C,SHORT1*%
D12*
X100986666Y-90707333D02*
X101086666Y-90740666D01*
X101253333Y-90740666D01*
X101320000Y-90707333D01*
X101353333Y-90674000D01*
X101386666Y-90607333D01*
X101386666Y-90540666D01*
X101353333Y-90474000D01*
X101320000Y-90440666D01*
X101253333Y-90407333D01*
X101120000Y-90374000D01*
X101053333Y-90340666D01*
X101020000Y-90307333D01*
X100986666Y-90240666D01*
X100986666Y-90174000D01*
X101020000Y-90107333D01*
X101053333Y-90074000D01*
X101120000Y-90040666D01*
X101286666Y-90040666D01*
X101386666Y-90074000D01*
X101686666Y-90740666D02*
X101686666Y-90040666D01*
X101686666Y-90374000D02*
X102086666Y-90374000D01*
X102086666Y-90740666D02*
X102086666Y-90040666D01*
X102553333Y-90040666D02*
X102686666Y-90040666D01*
X102753333Y-90074000D01*
X102820000Y-90140666D01*
X102853333Y-90274000D01*
X102853333Y-90507333D01*
X102820000Y-90640666D01*
X102753333Y-90707333D01*
X102686666Y-90740666D01*
X102553333Y-90740666D01*
X102486666Y-90707333D01*
X102420000Y-90640666D01*
X102386666Y-90507333D01*
X102386666Y-90274000D01*
X102420000Y-90140666D01*
X102486666Y-90074000D01*
X102553333Y-90040666D01*
X103553333Y-90740666D02*
X103320000Y-90407333D01*
X103153333Y-90740666D02*
X103153333Y-90040666D01*
X103420000Y-90040666D01*
X103486666Y-90074000D01*
X103520000Y-90107333D01*
X103553333Y-90174000D01*
X103553333Y-90274000D01*
X103520000Y-90340666D01*
X103486666Y-90374000D01*
X103420000Y-90407333D01*
X103153333Y-90407333D01*
X103753333Y-90040666D02*
X104153333Y-90040666D01*
X103953333Y-90740666D02*
X103953333Y-90040666D01*
X104753333Y-90740666D02*
X104353333Y-90740666D01*
X104553333Y-90740666D02*
X104553333Y-90040666D01*
X104486666Y-90140666D01*
X104420000Y-90207333D01*
X104353333Y-90240666D01*
D10*
X105077142Y-92428190D02*
X105077142Y-91928190D01*
X105196190Y-91928190D01*
X105267619Y-91952000D01*
X105315238Y-91999619D01*
X105339047Y-92047238D01*
X105362857Y-92142476D01*
X105362857Y-92213904D01*
X105339047Y-92309142D01*
X105315238Y-92356761D01*
X105267619Y-92404380D01*
X105196190Y-92428190D01*
X105077142Y-92428190D01*
X105577142Y-92428190D02*
X105577142Y-91928190D01*
X105862857Y-92428190D01*
X105862857Y-91928190D01*
X99877142Y-91928190D02*
X99877142Y-92332952D01*
X99900952Y-92380571D01*
X99924761Y-92404380D01*
X99972380Y-92428190D01*
X100067619Y-92428190D01*
X100115238Y-92404380D01*
X100139047Y-92380571D01*
X100162857Y-92332952D01*
X100162857Y-91928190D01*
X100400952Y-92428190D02*
X100400952Y-91928190D01*
X100591428Y-91928190D01*
X100639047Y-91952000D01*
X100662857Y-91975809D01*
X100686666Y-92023428D01*
X100686666Y-92094857D01*
X100662857Y-92142476D01*
X100639047Y-92166285D01*
X100591428Y-92190095D01*
X100400952Y-92190095D01*
%TO.C,PULL1*%
D12*
X101420000Y-86803666D02*
X101420000Y-86103666D01*
X101686666Y-86103666D01*
X101753333Y-86137000D01*
X101786666Y-86170333D01*
X101820000Y-86237000D01*
X101820000Y-86337000D01*
X101786666Y-86403666D01*
X101753333Y-86437000D01*
X101686666Y-86470333D01*
X101420000Y-86470333D01*
X102120000Y-86103666D02*
X102120000Y-86670333D01*
X102153333Y-86737000D01*
X102186666Y-86770333D01*
X102253333Y-86803666D01*
X102386666Y-86803666D01*
X102453333Y-86770333D01*
X102486666Y-86737000D01*
X102520000Y-86670333D01*
X102520000Y-86103666D01*
X103186666Y-86803666D02*
X102853333Y-86803666D01*
X102853333Y-86103666D01*
X103753333Y-86803666D02*
X103420000Y-86803666D01*
X103420000Y-86103666D01*
X104353333Y-86803666D02*
X103953333Y-86803666D01*
X104153333Y-86803666D02*
X104153333Y-86103666D01*
X104086666Y-86203666D01*
X104020000Y-86270333D01*
X103953333Y-86303666D01*
D10*
X105077142Y-87864190D02*
X105077142Y-88268952D01*
X105100952Y-88316571D01*
X105124761Y-88340380D01*
X105172380Y-88364190D01*
X105267619Y-88364190D01*
X105315238Y-88340380D01*
X105339047Y-88316571D01*
X105362857Y-88268952D01*
X105362857Y-87864190D01*
X105600952Y-88364190D02*
X105600952Y-87864190D01*
X105791428Y-87864190D01*
X105839047Y-87888000D01*
X105862857Y-87911809D01*
X105886666Y-87959428D01*
X105886666Y-88030857D01*
X105862857Y-88078476D01*
X105839047Y-88102285D01*
X105791428Y-88126095D01*
X105600952Y-88126095D01*
X99877142Y-88364190D02*
X99877142Y-87864190D01*
X99996190Y-87864190D01*
X100067619Y-87888000D01*
X100115238Y-87935619D01*
X100139047Y-87983238D01*
X100162857Y-88078476D01*
X100162857Y-88149904D01*
X100139047Y-88245142D01*
X100115238Y-88292761D01*
X100067619Y-88340380D01*
X99996190Y-88364190D01*
X99877142Y-88364190D01*
X100377142Y-88364190D02*
X100377142Y-87864190D01*
X100662857Y-88364190D01*
X100662857Y-87864190D01*
%TO.C,RN3*%
X126146761Y-87398990D02*
X125980095Y-87160895D01*
X125861047Y-87398990D02*
X125861047Y-86898990D01*
X126051523Y-86898990D01*
X126099142Y-86922800D01*
X126122952Y-86946609D01*
X126146761Y-86994228D01*
X126146761Y-87065657D01*
X126122952Y-87113276D01*
X126099142Y-87137085D01*
X126051523Y-87160895D01*
X125861047Y-87160895D01*
X126361047Y-87398990D02*
X126361047Y-86898990D01*
X126646761Y-87398990D01*
X126646761Y-86898990D01*
X126837238Y-86898990D02*
X127146761Y-86898990D01*
X126980095Y-87089466D01*
X127051523Y-87089466D01*
X127099142Y-87113276D01*
X127122952Y-87137085D01*
X127146761Y-87184704D01*
X127146761Y-87303752D01*
X127122952Y-87351371D01*
X127099142Y-87375180D01*
X127051523Y-87398990D01*
X126908666Y-87398990D01*
X126861047Y-87375180D01*
X126837238Y-87351371D01*
%TO.C,RN4*%
X138465761Y-91843990D02*
X138299095Y-91605895D01*
X138180047Y-91843990D02*
X138180047Y-91343990D01*
X138370523Y-91343990D01*
X138418142Y-91367800D01*
X138441952Y-91391609D01*
X138465761Y-91439228D01*
X138465761Y-91510657D01*
X138441952Y-91558276D01*
X138418142Y-91582085D01*
X138370523Y-91605895D01*
X138180047Y-91605895D01*
X138680047Y-91843990D02*
X138680047Y-91343990D01*
X138965761Y-91843990D01*
X138965761Y-91343990D01*
X139418142Y-91510657D02*
X139418142Y-91843990D01*
X139299095Y-91320180D02*
X139180047Y-91677323D01*
X139489571Y-91677323D01*
%TO.C,RN5*%
X108176261Y-87221190D02*
X108009595Y-86983095D01*
X107890547Y-87221190D02*
X107890547Y-86721190D01*
X108081023Y-86721190D01*
X108128642Y-86745000D01*
X108152452Y-86768809D01*
X108176261Y-86816428D01*
X108176261Y-86887857D01*
X108152452Y-86935476D01*
X108128642Y-86959285D01*
X108081023Y-86983095D01*
X107890547Y-86983095D01*
X108390547Y-87221190D02*
X108390547Y-86721190D01*
X108676261Y-87221190D01*
X108676261Y-86721190D01*
X109152452Y-86721190D02*
X108914357Y-86721190D01*
X108890547Y-86959285D01*
X108914357Y-86935476D01*
X108961976Y-86911666D01*
X109081023Y-86911666D01*
X109128642Y-86935476D01*
X109152452Y-86959285D01*
X109176261Y-87006904D01*
X109176261Y-87125952D01*
X109152452Y-87173571D01*
X109128642Y-87197380D01*
X109081023Y-87221190D01*
X108961976Y-87221190D01*
X108914357Y-87197380D01*
X108890547Y-87173571D01*
%TO.C,RN6*%
X120431761Y-91965910D02*
X120265095Y-91727815D01*
X120146047Y-91965910D02*
X120146047Y-91465910D01*
X120336523Y-91465910D01*
X120384142Y-91489720D01*
X120407952Y-91513529D01*
X120431761Y-91561148D01*
X120431761Y-91632577D01*
X120407952Y-91680196D01*
X120384142Y-91704005D01*
X120336523Y-91727815D01*
X120146047Y-91727815D01*
X120646047Y-91965910D02*
X120646047Y-91465910D01*
X120931761Y-91965910D01*
X120931761Y-91465910D01*
X121384142Y-91465910D02*
X121288904Y-91465910D01*
X121241285Y-91489720D01*
X121217476Y-91513529D01*
X121169857Y-91584958D01*
X121146047Y-91680196D01*
X121146047Y-91870672D01*
X121169857Y-91918291D01*
X121193666Y-91942100D01*
X121241285Y-91965910D01*
X121336523Y-91965910D01*
X121384142Y-91942100D01*
X121407952Y-91918291D01*
X121431761Y-91870672D01*
X121431761Y-91751624D01*
X121407952Y-91704005D01*
X121384142Y-91680196D01*
X121336523Y-91656386D01*
X121241285Y-91656386D01*
X121193666Y-91680196D01*
X121169857Y-91704005D01*
X121146047Y-91751624D01*
%TO.C,74HC165_3*%
D12*
X111734166Y-95057166D02*
X112200833Y-95057166D01*
X111900833Y-95757166D01*
X112767500Y-95290500D02*
X112767500Y-95757166D01*
X112600833Y-95023833D02*
X112434166Y-95523833D01*
X112867500Y-95523833D01*
X113134166Y-95757166D02*
X113134166Y-95057166D01*
X113134166Y-95390500D02*
X113534166Y-95390500D01*
X113534166Y-95757166D02*
X113534166Y-95057166D01*
X114267500Y-95690500D02*
X114234166Y-95723833D01*
X114134166Y-95757166D01*
X114067500Y-95757166D01*
X113967500Y-95723833D01*
X113900833Y-95657166D01*
X113867500Y-95590500D01*
X113834166Y-95457166D01*
X113834166Y-95357166D01*
X113867500Y-95223833D01*
X113900833Y-95157166D01*
X113967500Y-95090500D01*
X114067500Y-95057166D01*
X114134166Y-95057166D01*
X114234166Y-95090500D01*
X114267500Y-95123833D01*
X114934166Y-95757166D02*
X114534166Y-95757166D01*
X114734166Y-95757166D02*
X114734166Y-95057166D01*
X114667500Y-95157166D01*
X114600833Y-95223833D01*
X114534166Y-95257166D01*
X115534166Y-95057166D02*
X115400833Y-95057166D01*
X115334166Y-95090500D01*
X115300833Y-95123833D01*
X115234166Y-95223833D01*
X115200833Y-95357166D01*
X115200833Y-95623833D01*
X115234166Y-95690500D01*
X115267500Y-95723833D01*
X115334166Y-95757166D01*
X115467500Y-95757166D01*
X115534166Y-95723833D01*
X115567500Y-95690500D01*
X115600833Y-95623833D01*
X115600833Y-95457166D01*
X115567500Y-95390500D01*
X115534166Y-95357166D01*
X115467500Y-95323833D01*
X115334166Y-95323833D01*
X115267500Y-95357166D01*
X115234166Y-95390500D01*
X115200833Y-95457166D01*
X116234166Y-95057166D02*
X115900833Y-95057166D01*
X115867500Y-95390500D01*
X115900833Y-95357166D01*
X115967500Y-95323833D01*
X116134166Y-95323833D01*
X116200833Y-95357166D01*
X116234166Y-95390500D01*
X116267500Y-95457166D01*
X116267500Y-95623833D01*
X116234166Y-95690500D01*
X116200833Y-95723833D01*
X116134166Y-95757166D01*
X115967500Y-95757166D01*
X115900833Y-95723833D01*
X115867500Y-95690500D01*
X116400833Y-95823833D02*
X116934166Y-95823833D01*
X117034166Y-95057166D02*
X117467500Y-95057166D01*
X117234166Y-95323833D01*
X117334166Y-95323833D01*
X117400833Y-95357166D01*
X117434166Y-95390500D01*
X117467500Y-95457166D01*
X117467500Y-95623833D01*
X117434166Y-95690500D01*
X117400833Y-95723833D01*
X117334166Y-95757166D01*
X117134166Y-95757166D01*
X117067500Y-95723833D01*
X117034166Y-95690500D01*
%TO.C,74HC165_2*%
X129768166Y-95057166D02*
X130234833Y-95057166D01*
X129934833Y-95757166D01*
X130801500Y-95290500D02*
X130801500Y-95757166D01*
X130634833Y-95023833D02*
X130468166Y-95523833D01*
X130901500Y-95523833D01*
X131168166Y-95757166D02*
X131168166Y-95057166D01*
X131168166Y-95390500D02*
X131568166Y-95390500D01*
X131568166Y-95757166D02*
X131568166Y-95057166D01*
X132301500Y-95690500D02*
X132268166Y-95723833D01*
X132168166Y-95757166D01*
X132101500Y-95757166D01*
X132001500Y-95723833D01*
X131934833Y-95657166D01*
X131901500Y-95590500D01*
X131868166Y-95457166D01*
X131868166Y-95357166D01*
X131901500Y-95223833D01*
X131934833Y-95157166D01*
X132001500Y-95090500D01*
X132101500Y-95057166D01*
X132168166Y-95057166D01*
X132268166Y-95090500D01*
X132301500Y-95123833D01*
X132968166Y-95757166D02*
X132568166Y-95757166D01*
X132768166Y-95757166D02*
X132768166Y-95057166D01*
X132701500Y-95157166D01*
X132634833Y-95223833D01*
X132568166Y-95257166D01*
X133568166Y-95057166D02*
X133434833Y-95057166D01*
X133368166Y-95090500D01*
X133334833Y-95123833D01*
X133268166Y-95223833D01*
X133234833Y-95357166D01*
X133234833Y-95623833D01*
X133268166Y-95690500D01*
X133301500Y-95723833D01*
X133368166Y-95757166D01*
X133501500Y-95757166D01*
X133568166Y-95723833D01*
X133601500Y-95690500D01*
X133634833Y-95623833D01*
X133634833Y-95457166D01*
X133601500Y-95390500D01*
X133568166Y-95357166D01*
X133501500Y-95323833D01*
X133368166Y-95323833D01*
X133301500Y-95357166D01*
X133268166Y-95390500D01*
X133234833Y-95457166D01*
X134268166Y-95057166D02*
X133934833Y-95057166D01*
X133901500Y-95390500D01*
X133934833Y-95357166D01*
X134001500Y-95323833D01*
X134168166Y-95323833D01*
X134234833Y-95357166D01*
X134268166Y-95390500D01*
X134301500Y-95457166D01*
X134301500Y-95623833D01*
X134268166Y-95690500D01*
X134234833Y-95723833D01*
X134168166Y-95757166D01*
X134001500Y-95757166D01*
X133934833Y-95723833D01*
X133901500Y-95690500D01*
X134434833Y-95823833D02*
X134968166Y-95823833D01*
X135101500Y-95123833D02*
X135134833Y-95090500D01*
X135201500Y-95057166D01*
X135368166Y-95057166D01*
X135434833Y-95090500D01*
X135468166Y-95123833D01*
X135501500Y-95190500D01*
X135501500Y-95257166D01*
X135468166Y-95357166D01*
X135068166Y-95757166D01*
X135501500Y-95757166D01*
%TD*%
M02*
