%TF.GenerationSoftware,KiCad,Pcbnew,(6.0.2)*%
%TF.CreationDate,2022-04-10T13:38:05+09:00*%
%TF.ProjectId,joystick-input,6a6f7973-7469-4636-9b2d-696e7075742e,rev?*%
%TF.SameCoordinates,Original*%
%TF.FileFunction,Copper,L1,Top*%
%TF.FilePolarity,Positive*%
%FSLAX46Y46*%
G04 Gerber Fmt 4.6, Leading zero omitted, Abs format (unit mm)*
G04 Created by KiCad (PCBNEW (6.0.2)) date 2022-04-10 13:38:05*
%MOMM*%
%LPD*%
G01*
G04 APERTURE LIST*
G04 Aperture macros list*
%AMRoundRect*
0 Rectangle with rounded corners*
0 $1 Rounding radius*
0 $2 $3 $4 $5 $6 $7 $8 $9 X,Y pos of 4 corners*
0 Add a 4 corners polygon primitive as box body*
4,1,4,$2,$3,$4,$5,$6,$7,$8,$9,$2,$3,0*
0 Add four circle primitives for the rounded corners*
1,1,$1+$1,$2,$3*
1,1,$1+$1,$4,$5*
1,1,$1+$1,$6,$7*
1,1,$1+$1,$8,$9*
0 Add four rect primitives between the rounded corners*
20,1,$1+$1,$2,$3,$4,$5,0*
20,1,$1+$1,$4,$5,$6,$7,0*
20,1,$1+$1,$6,$7,$8,$9,0*
20,1,$1+$1,$8,$9,$2,$3,0*%
%AMFreePoly0*
4,1,22,0.500000,-0.750000,0.000000,-0.750000,0.000000,-0.745033,-0.079941,-0.743568,-0.215256,-0.701293,-0.333266,-0.622738,-0.424486,-0.514219,-0.481581,-0.384460,-0.499164,-0.250000,-0.500000,-0.250000,-0.500000,0.250000,-0.499164,0.250000,-0.499963,0.256109,-0.478152,0.396186,-0.417904,0.524511,-0.324060,0.630769,-0.204165,0.706417,-0.067858,0.745374,0.000000,0.744959,0.000000,0.750000,
0.500000,0.750000,0.500000,-0.750000,0.500000,-0.750000,$1*%
%AMFreePoly1*
4,1,20,0.000000,0.744959,0.073905,0.744508,0.209726,0.703889,0.328688,0.626782,0.421226,0.519385,0.479903,0.390333,0.500000,0.250000,0.500000,-0.250000,0.499851,-0.262216,0.476331,-0.402017,0.414519,-0.529596,0.319384,-0.634700,0.198574,-0.708877,0.061801,-0.746166,0.000000,-0.745033,0.000000,-0.750000,-0.500000,-0.750000,-0.500000,0.750000,0.000000,0.750000,0.000000,0.744959,
0.000000,0.744959,$1*%
G04 Aperture macros list end*
%TA.AperFunction,SMDPad,CuDef*%
%ADD10R,1.000000X1.500000*%
%TD*%
%TA.AperFunction,SMDPad,CuDef*%
%ADD11FreePoly0,0.000000*%
%TD*%
%TA.AperFunction,SMDPad,CuDef*%
%ADD12FreePoly1,0.000000*%
%TD*%
%TA.AperFunction,SMDPad,CuDef*%
%ADD13RoundRect,0.150000X-0.825000X-0.150000X0.825000X-0.150000X0.825000X0.150000X-0.825000X0.150000X0*%
%TD*%
%TA.AperFunction,ComponentPad*%
%ADD14O,2.000000X1.700000*%
%TD*%
%TA.AperFunction,ComponentPad*%
%ADD15RoundRect,0.250000X-0.750000X0.600000X-0.750000X-0.600000X0.750000X-0.600000X0.750000X0.600000X0*%
%TD*%
%TA.AperFunction,ComponentPad*%
%ADD16O,1.700000X1.950000*%
%TD*%
%TA.AperFunction,ComponentPad*%
%ADD17RoundRect,0.250000X0.600000X0.725000X-0.600000X0.725000X-0.600000X-0.725000X0.600000X-0.725000X0*%
%TD*%
%TA.AperFunction,SMDPad,CuDef*%
%ADD18RoundRect,0.250000X-0.337500X-0.475000X0.337500X-0.475000X0.337500X0.475000X-0.337500X0.475000X0*%
%TD*%
%TA.AperFunction,ComponentPad*%
%ADD19O,1.700000X1.700000*%
%TD*%
%TA.AperFunction,ComponentPad*%
%ADD20R,1.700000X1.700000*%
%TD*%
%TA.AperFunction,SMDPad,CuDef*%
%ADD21R,0.900000X0.400000*%
%TD*%
%TA.AperFunction,ViaPad*%
%ADD22C,0.800000*%
%TD*%
%TA.AperFunction,Conductor*%
%ADD23C,0.500000*%
%TD*%
%TA.AperFunction,Conductor*%
%ADD24C,0.250000*%
%TD*%
G04 APERTURE END LIST*
%TO.C,JP2*%
G36*
X103770000Y-92502000D02*
G01*
X103270000Y-92502000D01*
X103270000Y-91902000D01*
X103770000Y-91902000D01*
X103770000Y-92502000D01*
G37*
%TO.C,JP1*%
G36*
X103770000Y-88387200D02*
G01*
X103270000Y-88387200D01*
X103270000Y-87787200D01*
X103770000Y-87787200D01*
X103770000Y-88387200D01*
G37*
%TO.C,JP6*%
G36*
X111146400Y-80208400D02*
G01*
X110646400Y-80208400D01*
X110646400Y-79608400D01*
X111146400Y-79608400D01*
X111146400Y-80208400D01*
G37*
%TO.C,JP5*%
G36*
X107793600Y-80208400D02*
G01*
X107293600Y-80208400D01*
X107293600Y-79608400D01*
X107793600Y-79608400D01*
X107793600Y-80208400D01*
G37*
%TO.C,JP4*%
G36*
X104440800Y-80208400D02*
G01*
X103940800Y-80208400D01*
X103940800Y-79608400D01*
X104440800Y-79608400D01*
X104440800Y-80208400D01*
G37*
%TO.C,JP3*%
G36*
X101088000Y-80208400D02*
G01*
X100588000Y-80208400D01*
X100588000Y-79608400D01*
X101088000Y-79608400D01*
X101088000Y-80208400D01*
G37*
%TD*%
D10*
%TO.P,JP2,1,A*%
%TO.N,GND*%
X104170000Y-92202000D03*
%TO.P,JP2,2,C*%
%TO.N,/C_SHORT*%
X102870000Y-92202000D03*
%TO.P,JP2,3,B*%
%TO.N,VCC*%
X101570000Y-92202000D03*
%TD*%
%TO.P,JP1,1,A*%
%TO.N,VCC*%
X104170000Y-88087200D03*
%TO.P,JP1,2,C*%
%TO.N,/PULL*%
X102870000Y-88087200D03*
%TO.P,JP1,3,B*%
%TO.N,GND*%
X101570000Y-88087200D03*
%TD*%
D11*
%TO.P,JP6,1,A*%
%TO.N,/C_P2_X*%
X110246400Y-79908400D03*
D12*
%TO.P,JP6,2,B*%
%TO.N,/C_P2_RIGHT*%
X111546400Y-79908400D03*
%TD*%
D11*
%TO.P,JP5,1,A*%
%TO.N,/C_P2_Y*%
X106893600Y-79908400D03*
D12*
%TO.P,JP5,2,B*%
%TO.N,/C_P2_LEFT*%
X108193600Y-79908400D03*
%TD*%
D11*
%TO.P,JP4,1,A*%
%TO.N,/C_P2_L*%
X103540800Y-79908400D03*
D12*
%TO.P,JP4,2,B*%
%TO.N,/C_P2_DOWN*%
X104840800Y-79908400D03*
%TD*%
D11*
%TO.P,JP3,1,A*%
%TO.N,/C_P2_R*%
X100188000Y-79908400D03*
D12*
%TO.P,JP3,2,B*%
%TO.N,/C_P2_UP*%
X101488000Y-79908400D03*
%TD*%
D13*
%TO.P,74HC165_1,16,VCC*%
%TO.N,VCC*%
X153224000Y-84836000D03*
%TO.P,74HC165_1,15,~{CE}*%
%TO.N,GND*%
X153224000Y-86106000D03*
%TO.P,74HC165_1,14,D3*%
%TO.N,/C_P1_START*%
X153224000Y-87376000D03*
%TO.P,74HC165_1,13,D2*%
%TO.N,/C_P1_SELECT*%
X153224000Y-88646000D03*
%TO.P,74HC165_1,12,D1*%
%TO.N,/C_P1_A*%
X153224000Y-89916000D03*
%TO.P,74HC165_1,11,D0*%
%TO.N,/C_P1_B*%
X153224000Y-91186000D03*
%TO.P,74HC165_1,10,DS*%
%TO.N,/D_OUT_2*%
X153224000Y-92456000D03*
%TO.P,74HC165_1,9,Q7*%
%TO.N,/D_OUT*%
X153224000Y-93726000D03*
%TO.P,74HC165_1,8,GND*%
%TO.N,GND*%
X148274000Y-93726000D03*
%TO.P,74HC165_1,7,~{Q7}*%
%TO.N,unconnected-(74HC165_1-Pad7)*%
X148274000Y-92456000D03*
%TO.P,74HC165_1,6,D7*%
%TO.N,/C_P1_UP*%
X148274000Y-91186000D03*
%TO.P,74HC165_1,5,D6*%
%TO.N,/C_P1_DOWN*%
X148274000Y-89916000D03*
%TO.P,74HC165_1,4,D5*%
%TO.N,/C_P1_LEFT*%
X148274000Y-88646000D03*
%TO.P,74HC165_1,3,D4*%
%TO.N,/C_P1_RIGHT*%
X148274000Y-87376000D03*
%TO.P,74HC165_1,2,CP*%
%TO.N,/CLK*%
X148274000Y-86106000D03*
%TO.P,74HC165_1,1,~{PL}*%
%TO.N,/LOAD*%
X148274000Y-84836000D03*
%TD*%
D14*
%TO.P,J19,2,Pin_2*%
%TO.N,/C_P1_R*%
X97790000Y-67016000D03*
D15*
%TO.P,J19,1,Pin_1*%
%TO.N,/C_SHORT*%
X97790000Y-64516000D03*
%TD*%
D14*
%TO.P,J18,2,Pin_2*%
%TO.N,/C_P1_L*%
X104648000Y-67016000D03*
D15*
%TO.P,J18,1,Pin_1*%
%TO.N,/C_SHORT*%
X104648000Y-64516000D03*
%TD*%
D14*
%TO.P,J17,2,Pin_2*%
%TO.N,/C_P1_Y*%
X111506000Y-67016000D03*
D15*
%TO.P,J17,1,Pin_1*%
%TO.N,/C_SHORT*%
X111506000Y-64516000D03*
%TD*%
D14*
%TO.P,J16,2,Pin_2*%
%TO.N,/C_P1_X*%
X118364000Y-67016000D03*
D15*
%TO.P,J16,1,Pin_1*%
%TO.N,/C_SHORT*%
X118364000Y-64516000D03*
%TD*%
D14*
%TO.P,J15,2,Pin_2*%
%TO.N,/C_P1_B*%
X125222000Y-67016000D03*
D15*
%TO.P,J15,1,Pin_1*%
%TO.N,/C_SHORT*%
X125222000Y-64516000D03*
%TD*%
D14*
%TO.P,J14,2,Pin_2*%
%TO.N,/C_P1_A*%
X132080000Y-67016000D03*
D15*
%TO.P,J14,1,Pin_1*%
%TO.N,/C_SHORT*%
X132080000Y-64516000D03*
%TD*%
D14*
%TO.P,J13,2,Pin_2*%
%TO.N,/C_P1_SELECT*%
X138938000Y-67016000D03*
D15*
%TO.P,J13,1,Pin_1*%
%TO.N,/C_SHORT*%
X138938000Y-64516000D03*
%TD*%
D14*
%TO.P,J29,2,Pin_2*%
%TO.N,/C_P2_R*%
X97790000Y-75652000D03*
D15*
%TO.P,J29,1,Pin_1*%
%TO.N,/C_SHORT*%
X97790000Y-73152000D03*
%TD*%
D14*
%TO.P,J28,2,Pin_2*%
%TO.N,/C_P2_L*%
X104648000Y-75652000D03*
D15*
%TO.P,J28,1,Pin_1*%
%TO.N,/C_SHORT*%
X104648000Y-73152000D03*
%TD*%
D14*
%TO.P,J27,2,Pin_2*%
%TO.N,/C_P2_Y*%
X111506000Y-75652000D03*
D15*
%TO.P,J27,1,Pin_1*%
%TO.N,/C_SHORT*%
X111506000Y-73152000D03*
%TD*%
D14*
%TO.P,J26,2,Pin_2*%
%TO.N,/C_P2_X*%
X118364000Y-75652000D03*
D15*
%TO.P,J26,1,Pin_1*%
%TO.N,/C_SHORT*%
X118364000Y-73152000D03*
%TD*%
D14*
%TO.P,J25,2,Pin_2*%
%TO.N,/C_P2_B*%
X125222000Y-75652000D03*
D15*
%TO.P,J25,1,Pin_1*%
%TO.N,/C_SHORT*%
X125222000Y-73152000D03*
%TD*%
D14*
%TO.P,J24,2,Pin_2*%
%TO.N,/C_P2_A*%
X132080000Y-75652000D03*
D15*
%TO.P,J24,1,Pin_1*%
%TO.N,/C_SHORT*%
X132080000Y-73152000D03*
%TD*%
D14*
%TO.P,J23,2,Pin_2*%
%TO.N,/C_P2_SELECT*%
X138938000Y-75652000D03*
D15*
%TO.P,J23,1,Pin_1*%
%TO.N,/C_SHORT*%
X138938000Y-73152000D03*
%TD*%
D14*
%TO.P,J12,2,Pin_2*%
%TO.N,/C_P1_START*%
X145796000Y-67016000D03*
D15*
%TO.P,J12,1,Pin_1*%
%TO.N,/C_SHORT*%
X145796000Y-64516000D03*
%TD*%
D16*
%TO.P,J11,5,Pin_5*%
%TO.N,/C_SHORT*%
X151798000Y-65532000D03*
%TO.P,J11,4,Pin_4*%
%TO.N,/C_P1_LEFT*%
X154298000Y-65532000D03*
%TO.P,J11,3,Pin_3*%
%TO.N,/C_P1_RIGHT*%
X156798000Y-65532000D03*
%TO.P,J11,2,Pin_2*%
%TO.N,/C_P1_DOWN*%
X159298000Y-65532000D03*
D17*
%TO.P,J11,1,Pin_1*%
%TO.N,/C_P1_UP*%
X161798000Y-65532000D03*
%TD*%
D14*
%TO.P,J22,2,Pin_2*%
%TO.N,/C_P2_START*%
X145796000Y-75652000D03*
D15*
%TO.P,J22,1,Pin_1*%
%TO.N,/C_SHORT*%
X145796000Y-73152000D03*
%TD*%
D16*
%TO.P,J21,5,Pin_5*%
%TO.N,/C_SHORT*%
X151798000Y-74168000D03*
%TO.P,J21,4,Pin_4*%
%TO.N,/C_P2_LEFT*%
X154298000Y-74168000D03*
%TO.P,J21,3,Pin_3*%
%TO.N,/C_P2_RIGHT*%
X156798000Y-74168000D03*
%TO.P,J21,2,Pin_2*%
%TO.N,/C_P2_DOWN*%
X159298000Y-74168000D03*
D17*
%TO.P,J21,1,Pin_1*%
%TO.N,/C_P2_UP*%
X161798000Y-74168000D03*
%TD*%
D18*
%TO.P,C3,2*%
%TO.N,GND*%
X121306500Y-84328000D03*
%TO.P,C3,1*%
%TO.N,VCC*%
X119231500Y-84328000D03*
%TD*%
%TO.P,C2,2*%
%TO.N,GND*%
X139340500Y-84328000D03*
%TO.P,C2,1*%
%TO.N,VCC*%
X137265500Y-84328000D03*
%TD*%
%TO.P,C1,2*%
%TO.N,GND*%
X157501500Y-84328000D03*
%TO.P,C1,1*%
%TO.N,VCC*%
X155426500Y-84328000D03*
%TD*%
D19*
%TO.P,OUT1,5,Pin_5*%
%TO.N,/D_OUT*%
X161925000Y-91948000D03*
%TO.P,OUT1,4,Pin_4*%
%TO.N,/CLK*%
X161925000Y-89408000D03*
%TO.P,OUT1,3,Pin_3*%
%TO.N,/LOAD*%
X161925000Y-86868000D03*
%TO.P,OUT1,2,Pin_2*%
%TO.N,GND*%
X161925000Y-84328000D03*
D20*
%TO.P,OUT1,1,Pin_1*%
%TO.N,VCC*%
X161925000Y-81788000D03*
%TD*%
D19*
%TO.P,IN1,5,Pin_5*%
%TO.N,/D_IN*%
X96901000Y-92075000D03*
%TO.P,IN1,4,Pin_4*%
%TO.N,/CLK*%
X96901000Y-89535000D03*
%TO.P,IN1,3,Pin_3*%
%TO.N,/LOAD*%
X96901000Y-86995000D03*
%TO.P,IN1,2,Pin_2*%
%TO.N,GND*%
X96901000Y-84455000D03*
D20*
%TO.P,IN1,1,Pin_1*%
%TO.N,VCC*%
X96901000Y-81915000D03*
%TD*%
D21*
%TO.P,RN1,2,R2.1*%
%TO.N,/PULL*%
X143803000Y-89008000D03*
%TO.P,RN1,3,R3.1*%
X143803000Y-89808000D03*
%TO.P,RN1,1,R1.1*%
X143803000Y-88208000D03*
%TO.P,RN1,4,R4.1*%
X143803000Y-90608000D03*
%TO.P,RN1,8,R1.2*%
%TO.N,/C_P1_RIGHT*%
X145503000Y-88208000D03*
%TO.P,RN1,7,R2.2*%
%TO.N,/C_P1_LEFT*%
X145503000Y-89008000D03*
%TO.P,RN1,6,R3.2*%
%TO.N,/C_P1_DOWN*%
X145503000Y-89808000D03*
%TO.P,RN1,5,R4.2*%
%TO.N,/C_P1_UP*%
X145503000Y-90608000D03*
%TD*%
%TO.P,RN2,5,R4.2*%
%TO.N,/C_P1_START*%
X156122000Y-88208000D03*
%TO.P,RN2,6,R3.2*%
%TO.N,/C_P1_SELECT*%
X156122000Y-89008000D03*
%TO.P,RN2,7,R2.2*%
%TO.N,/C_P1_A*%
X156122000Y-89808000D03*
%TO.P,RN2,8,R1.2*%
%TO.N,/C_P1_B*%
X156122000Y-90608000D03*
%TO.P,RN2,4,R4.1*%
%TO.N,/PULL*%
X157822000Y-88208000D03*
%TO.P,RN2,1,R1.1*%
X157822000Y-90608000D03*
%TO.P,RN2,3,R3.1*%
X157822000Y-89008000D03*
%TO.P,RN2,2,R2.1*%
X157822000Y-89808000D03*
%TD*%
%TO.P,RN3,5,R4.2*%
%TO.N,/C_P1_X*%
X127342000Y-90608000D03*
%TO.P,RN3,6,R3.2*%
%TO.N,/C_P1_Y*%
X127342000Y-89808000D03*
%TO.P,RN3,7,R2.2*%
%TO.N,/C_P1_L*%
X127342000Y-89008000D03*
%TO.P,RN3,8,R1.2*%
%TO.N,/C_P1_R*%
X127342000Y-88208000D03*
%TO.P,RN3,4,R4.1*%
%TO.N,/PULL*%
X125642000Y-90608000D03*
%TO.P,RN3,1,R1.1*%
X125642000Y-88208000D03*
%TO.P,RN3,3,R3.1*%
X125642000Y-89808000D03*
%TO.P,RN3,2,R2.1*%
X125642000Y-89008000D03*
%TD*%
%TO.P,RN4,5,R4.2*%
%TO.N,/C_P2_UP*%
X137961000Y-88081000D03*
%TO.P,RN4,6,R3.2*%
%TO.N,/C_P2_DOWN*%
X137961000Y-88881000D03*
%TO.P,RN4,7,R2.2*%
%TO.N,/C_P2_LEFT*%
X137961000Y-89681000D03*
%TO.P,RN4,8,R1.2*%
%TO.N,/C_P2_RIGHT*%
X137961000Y-90481000D03*
%TO.P,RN4,4,R4.1*%
%TO.N,/PULL*%
X139661000Y-88081000D03*
%TO.P,RN4,1,R1.1*%
X139661000Y-90481000D03*
%TO.P,RN4,3,R3.1*%
X139661000Y-88881000D03*
%TO.P,RN4,2,R2.1*%
X139661000Y-89681000D03*
%TD*%
%TO.P,RN5,5,R4.2*%
%TO.N,/C_P2_START*%
X109371500Y-90481000D03*
%TO.P,RN5,6,R3.2*%
%TO.N,/C_P2_SELECT*%
X109371500Y-89681000D03*
%TO.P,RN5,7,R2.2*%
%TO.N,/C_P2_A*%
X109371500Y-88881000D03*
%TO.P,RN5,8,R1.2*%
%TO.N,/C_P2_B*%
X109371500Y-88081000D03*
%TO.P,RN5,4,R4.1*%
%TO.N,/PULL*%
X107671500Y-90481000D03*
%TO.P,RN5,1,R1.1*%
X107671500Y-88081000D03*
%TO.P,RN5,3,R3.1*%
X107671500Y-89681000D03*
%TO.P,RN5,2,R2.1*%
X107671500Y-88881000D03*
%TD*%
%TO.P,RN6,5,R4.2*%
%TO.N,/C_P2_X*%
X119927000Y-88208000D03*
%TO.P,RN6,6,R3.2*%
%TO.N,/C_P2_Y*%
X119927000Y-89008000D03*
%TO.P,RN6,7,R2.2*%
%TO.N,/C_P2_L*%
X119927000Y-89808000D03*
%TO.P,RN6,8,R1.2*%
%TO.N,/C_P2_R*%
X119927000Y-90608000D03*
%TO.P,RN6,4,R4.1*%
%TO.N,/PULL*%
X121627000Y-88208000D03*
%TO.P,RN6,1,R1.1*%
X121627000Y-90608000D03*
%TO.P,RN6,3,R3.1*%
X121627000Y-89008000D03*
%TO.P,RN6,2,R2.1*%
X121627000Y-89808000D03*
%TD*%
D13*
%TO.P,74HC165_3,16,VCC*%
%TO.N,VCC*%
X117092500Y-84899500D03*
%TO.P,74HC165_3,15,~{CE}*%
%TO.N,GND*%
X117092500Y-86169500D03*
%TO.P,74HC165_3,14,D3*%
%TO.N,/C_P2_X*%
X117092500Y-87439500D03*
%TO.P,74HC165_3,13,D2*%
%TO.N,/C_P2_Y*%
X117092500Y-88709500D03*
%TO.P,74HC165_3,12,D1*%
%TO.N,/C_P2_L*%
X117092500Y-89979500D03*
%TO.P,74HC165_3,11,D0*%
%TO.N,/C_P2_R*%
X117092500Y-91249500D03*
%TO.P,74HC165_3,10,DS*%
%TO.N,/D_IN*%
X117092500Y-92519500D03*
%TO.P,74HC165_3,9,Q7*%
%TO.N,/D_OUT_3*%
X117092500Y-93789500D03*
%TO.P,74HC165_3,8,GND*%
%TO.N,GND*%
X112142500Y-93789500D03*
%TO.P,74HC165_3,7,~{Q7}*%
%TO.N,unconnected-(74HC165_3-Pad7)*%
X112142500Y-92519500D03*
%TO.P,74HC165_3,6,D7*%
%TO.N,/C_P2_START*%
X112142500Y-91249500D03*
%TO.P,74HC165_3,5,D6*%
%TO.N,/C_P2_SELECT*%
X112142500Y-89979500D03*
%TO.P,74HC165_3,4,D5*%
%TO.N,/C_P2_A*%
X112142500Y-88709500D03*
%TO.P,74HC165_3,3,D4*%
%TO.N,/C_P2_B*%
X112142500Y-87439500D03*
%TO.P,74HC165_3,2,CP*%
%TO.N,/CLK*%
X112142500Y-86169500D03*
%TO.P,74HC165_3,1,~{PL}*%
%TO.N,/LOAD*%
X112142500Y-84899500D03*
%TD*%
%TO.P,74HC165_2,16,VCC*%
%TO.N,VCC*%
X135126500Y-84899500D03*
%TO.P,74HC165_2,15,~{CE}*%
%TO.N,GND*%
X135126500Y-86169500D03*
%TO.P,74HC165_2,14,D3*%
%TO.N,/C_P2_UP*%
X135126500Y-87439500D03*
%TO.P,74HC165_2,13,D2*%
%TO.N,/C_P2_DOWN*%
X135126500Y-88709500D03*
%TO.P,74HC165_2,12,D1*%
%TO.N,/C_P2_LEFT*%
X135126500Y-89979500D03*
%TO.P,74HC165_2,11,D0*%
%TO.N,/C_P2_RIGHT*%
X135126500Y-91249500D03*
%TO.P,74HC165_2,10,DS*%
%TO.N,/D_OUT_3*%
X135126500Y-92519500D03*
%TO.P,74HC165_2,9,Q7*%
%TO.N,/D_OUT_2*%
X135126500Y-93789500D03*
%TO.P,74HC165_2,8,GND*%
%TO.N,GND*%
X130176500Y-93789500D03*
%TO.P,74HC165_2,7,~{Q7}*%
%TO.N,unconnected-(74HC165_2-Pad7)*%
X130176500Y-92519500D03*
%TO.P,74HC165_2,6,D7*%
%TO.N,/C_P1_X*%
X130176500Y-91249500D03*
%TO.P,74HC165_2,5,D6*%
%TO.N,/C_P1_Y*%
X130176500Y-89979500D03*
%TO.P,74HC165_2,4,D5*%
%TO.N,/C_P1_L*%
X130176500Y-88709500D03*
%TO.P,74HC165_2,3,D4*%
%TO.N,/C_P1_R*%
X130176500Y-87439500D03*
%TO.P,74HC165_2,2,CP*%
%TO.N,/CLK*%
X130176500Y-86169500D03*
%TO.P,74HC165_2,1,~{PL}*%
%TO.N,/LOAD*%
X130176500Y-84899500D03*
%TD*%
D22*
%TO.N,GND*%
X99669600Y-89408000D03*
X104546400Y-90119200D03*
%TO.N,/PULL*%
X141541492Y-93916490D03*
X123571001Y-93598999D03*
X157797494Y-93535491D03*
X102870000Y-89966800D03*
X107671506Y-94194994D03*
%TO.N,GND*%
X114617500Y-90551000D03*
X127508000Y-84328000D03*
X120650000Y-93345000D03*
X123571000Y-89662000D03*
X126809500Y-93408500D03*
X138366500Y-93535500D03*
X132651500Y-89598500D03*
X109220000Y-92837000D03*
X132778500Y-85852000D03*
X150812500Y-89281000D03*
X148780500Y-81661000D03*
X158115000Y-81534000D03*
X145669000Y-84328000D03*
X156654500Y-81534000D03*
X147447000Y-81597500D03*
X157607000Y-86360000D03*
X141732000Y-91376500D03*
X156718000Y-92456000D03*
X159004000Y-92456000D03*
X146113500Y-81597500D03*
X126174500Y-84328000D03*
X124650500Y-84328000D03*
X114263010Y-85852000D03*
X107696000Y-84074000D03*
X108712000Y-84074000D03*
X144526000Y-84328000D03*
%TO.N,/LOAD*%
X109791500Y-84899500D03*
%TO.N,/CLK*%
X109791500Y-86106000D03*
%TO.N,/C_P1_START*%
X154939980Y-87519510D03*
%TO.N,/C_P1_SELECT*%
X155003500Y-88709500D03*
%TO.N,/C_P1_A*%
X155003503Y-89979513D03*
%TO.N,/C_P1_B*%
X155003500Y-91122500D03*
%TO.N,/C_P1_UP*%
X146685000Y-91313000D03*
%TO.N,/C_P1_DOWN*%
X146685000Y-89979500D03*
%TO.N,/C_P1_LEFT*%
X146685000Y-88773000D03*
%TO.N,/C_P1_RIGHT*%
X146685000Y-87503000D03*
%TO.N,/C_P1_X*%
X128524000Y-91313000D03*
%TO.N,/C_P1_Y*%
X128460506Y-89979500D03*
%TO.N,/C_P1_L*%
X128528660Y-88773000D03*
%TO.N,/C_P1_R*%
X128528660Y-87479701D03*
%TO.N,/C_P2_START*%
X110591600Y-91160600D03*
X116332000Y-80130956D03*
%TO.N,/C_P2_SELECT*%
X110553500Y-89852500D03*
X115318280Y-80119356D03*
%TO.N,/C_P2_A*%
X110553500Y-88582500D03*
X114318458Y-80093859D03*
%TO.N,/C_P2_B*%
X110515400Y-87350600D03*
X113318898Y-80063810D03*
%TO.N,/C_P2_UP*%
X136779000Y-87376000D03*
X139700000Y-80772000D03*
%TO.N,/C_P2_DOWN*%
X136779000Y-88773000D03*
X138430000Y-80708500D03*
%TO.N,/C_P2_LEFT*%
X136779000Y-90043000D03*
X137096500Y-80645000D03*
%TO.N,/C_P2_RIGHT*%
X136779000Y-91313000D03*
X135699500Y-80580967D03*
%TO.N,/C_P2_X*%
X118744998Y-87376000D03*
%TO.N,/C_P2_Y*%
X118745000Y-88773000D03*
%TO.N,/C_P2_L*%
X118745000Y-90043000D03*
%TO.N,/C_P2_R*%
X118745000Y-91313000D03*
%TD*%
D23*
%TO.N,VCC*%
X106057700Y-88087200D02*
X106108500Y-88138000D01*
X104170000Y-88087200D02*
X106057700Y-88087200D01*
D24*
%TO.N,/C_SHORT*%
X95059500Y-89916000D02*
X95059500Y-75882500D01*
X95948500Y-90805000D02*
X95059500Y-89916000D01*
X95059500Y-75882500D02*
X97790000Y-73152000D01*
X102870000Y-91202000D02*
X102473000Y-90805000D01*
X102473000Y-90805000D02*
X95948500Y-90805000D01*
X102870000Y-92202000D02*
X102870000Y-91202000D01*
D23*
%TO.N,VCC*%
X106108500Y-88138000D02*
X106172000Y-88074500D01*
X106172000Y-93662500D02*
X106172000Y-88138000D01*
X106172000Y-88074500D02*
X106172000Y-82931000D01*
X105473500Y-94361000D02*
X106172000Y-93662500D01*
X101570000Y-93452000D02*
X102479000Y-94361000D01*
X102479000Y-94361000D02*
X105473500Y-94361000D01*
X101570000Y-92202000D02*
X101570000Y-93452000D01*
X106172000Y-88138000D02*
X106108500Y-88138000D01*
D24*
%TO.N,/PULL*%
X102870000Y-89966800D02*
X102870000Y-88138000D01*
%TO.N,/C_P2_RIGHT*%
X135424501Y-80855966D02*
X135699500Y-80580967D01*
X112493966Y-80855966D02*
X135424501Y-80855966D01*
X111546400Y-79908400D02*
X112493966Y-80855966D01*
%TO.N,/C_P2_X*%
X116054500Y-75652000D02*
X118364000Y-75652000D01*
X110856000Y-77343000D02*
X114363500Y-77343000D01*
X110246400Y-77952600D02*
X110856000Y-77343000D01*
X110246400Y-79908400D02*
X110246400Y-77952600D01*
X114363500Y-77343000D02*
X116054500Y-75652000D01*
%TO.N,/C_P2_LEFT*%
X136435523Y-81305977D02*
X137096500Y-80645000D01*
X109591177Y-81305977D02*
X136435523Y-81305977D01*
X108193600Y-79908400D02*
X109591177Y-81305977D01*
%TO.N,/C_P2_Y*%
X106893600Y-77248900D02*
X108490500Y-75652000D01*
X108490500Y-75652000D02*
X111506000Y-75652000D01*
X106893600Y-79908400D02*
X106893600Y-77248900D01*
%TO.N,/C_P2_DOWN*%
X106688388Y-81755988D02*
X137382512Y-81755988D01*
X137382512Y-81755988D02*
X138430000Y-80708500D01*
X104840800Y-79908400D02*
X106688388Y-81755988D01*
%TO.N,/C_P2_L*%
X104624500Y-75652000D02*
X104648000Y-75652000D01*
X103530400Y-79898000D02*
X103530400Y-76746100D01*
X103530400Y-76746100D02*
X104624500Y-75652000D01*
X103540800Y-79908400D02*
X103530400Y-79898000D01*
%TO.N,/C_P2_UP*%
X138266001Y-82205999D02*
X139700000Y-80772000D01*
X101488000Y-79934950D02*
X103759049Y-82205999D01*
X101488000Y-79908400D02*
X101488000Y-79934950D01*
X103759049Y-82205999D02*
X138266001Y-82205999D01*
%TO.N,/C_P2_R*%
X97813500Y-75652000D02*
X97790000Y-75652000D01*
X100188000Y-79908400D02*
X100188000Y-78026500D01*
X100188000Y-78026500D02*
X97813500Y-75652000D01*
%TO.N,/C_P2_LEFT*%
X136779000Y-90043000D02*
X135190000Y-90043000D01*
X135190000Y-90043000D02*
X135126500Y-89979500D01*
%TO.N,/PULL*%
X143803000Y-90608000D02*
X143803000Y-88208000D01*
X143803000Y-90608000D02*
X143803000Y-91654982D01*
X143803000Y-91654982D02*
X141541492Y-93916490D01*
X139661000Y-88081000D02*
X139661000Y-92035998D01*
X139661000Y-92035998D02*
X141541492Y-93916490D01*
X125642000Y-90608000D02*
X125642000Y-88208000D01*
X125642000Y-90608000D02*
X125642000Y-91528000D01*
X125642000Y-91528000D02*
X123571001Y-93598999D01*
X121627000Y-91654998D02*
X123571001Y-93598999D01*
X121627000Y-88208000D02*
X121627000Y-91654998D01*
X157822000Y-88208000D02*
X157822000Y-93510985D01*
X157822000Y-93510985D02*
X157797494Y-93535491D01*
X107671500Y-88081000D02*
X107671500Y-94194988D01*
X107671500Y-94194988D02*
X107671506Y-94194994D01*
D23*
%TO.N,VCC*%
X153211300Y-84899500D02*
X153287500Y-84899500D01*
X135698000Y-84328000D02*
X137265500Y-84328000D01*
X135126500Y-84899500D02*
X135698000Y-84328000D01*
X117602000Y-84328000D02*
X119231500Y-84328000D01*
X117092500Y-84837500D02*
X117602000Y-84328000D01*
X117092500Y-84899500D02*
X117092500Y-84837500D01*
X153859000Y-84328000D02*
X153287500Y-84899500D01*
X155426500Y-84328000D02*
X153859000Y-84328000D01*
X119231500Y-82973000D02*
X119189500Y-82931000D01*
X119231500Y-84328000D02*
X119231500Y-82973000D01*
X137265500Y-82952500D02*
X137265500Y-84328000D01*
X137287000Y-82931000D02*
X137265500Y-82952500D01*
X155448000Y-82931000D02*
X159639000Y-82931000D01*
X155448000Y-83058000D02*
X155448000Y-82931000D01*
X155426500Y-83079500D02*
X155448000Y-83058000D01*
X155426500Y-84328000D02*
X155426500Y-83079500D01*
X160782000Y-81788000D02*
X161925000Y-81788000D01*
X159639000Y-82931000D02*
X160782000Y-81788000D01*
X99695000Y-82931000D02*
X159639000Y-82931000D01*
X98679000Y-81915000D02*
X99695000Y-82931000D01*
X96901000Y-81915000D02*
X98679000Y-81915000D01*
%TO.N,GND*%
X133096000Y-86169500D02*
X132778500Y-85852000D01*
X135126500Y-86169500D02*
X133096000Y-86169500D01*
X153224000Y-86106000D02*
X157353000Y-86106000D01*
X157353000Y-86106000D02*
X157607000Y-86360000D01*
X117092500Y-86169500D02*
X114580510Y-86169500D01*
X114580510Y-86169500D02*
X114263010Y-85852000D01*
D24*
%TO.N,/D_IN*%
X116117500Y-92519500D02*
X117092500Y-92519500D01*
X113196500Y-95440500D02*
X116117500Y-92519500D01*
X100266500Y-95440500D02*
X113196500Y-95440500D01*
X96901000Y-92075000D02*
X100266500Y-95440500D01*
%TO.N,/D_OUT*%
X161925000Y-92202000D02*
X161925000Y-91948000D01*
X159131000Y-94996000D02*
X161925000Y-92202000D01*
X154417800Y-94996000D02*
X159131000Y-94996000D01*
X153020800Y-93599000D02*
X154417800Y-94996000D01*
%TO.N,/LOAD*%
X129095500Y-84899500D02*
X130176500Y-84899500D01*
X128460500Y-84899500D02*
X129095500Y-84899500D01*
X127835490Y-85524510D02*
X128460500Y-84899500D01*
X115252500Y-84899500D02*
X115877510Y-85524510D01*
X112142500Y-84899500D02*
X115252500Y-84899500D01*
X118506075Y-85524510D02*
X118591598Y-85438987D01*
X115877510Y-85524510D02*
X118506075Y-85524510D01*
X119999925Y-85524510D02*
X127835490Y-85524510D01*
X119914402Y-85438987D02*
X119999925Y-85524510D01*
X118591598Y-85438987D02*
X119914402Y-85438987D01*
X161544000Y-86868000D02*
X161925000Y-86868000D01*
X152215742Y-85474510D02*
X160150510Y-85474510D01*
X136148258Y-85524510D02*
X136201768Y-85471000D01*
X160150510Y-85474510D02*
X161544000Y-86868000D01*
X151640732Y-84899500D02*
X152215742Y-85474510D01*
X148337500Y-84899500D02*
X151640732Y-84899500D01*
X134104742Y-85524510D02*
X136148258Y-85524510D01*
X147766000Y-85471000D02*
X148337500Y-84899500D01*
X134051232Y-85471000D02*
X134104742Y-85524510D01*
X133858000Y-85471000D02*
X134051232Y-85471000D01*
X133286500Y-84899500D02*
X133858000Y-85471000D01*
X136201768Y-85471000D02*
X147766000Y-85471000D01*
X130176500Y-84899500D02*
X133286500Y-84899500D01*
X112142500Y-84899500D02*
X109791500Y-84899500D01*
%TO.N,/CLK*%
X148337500Y-86169500D02*
X149796500Y-86169500D01*
X159575500Y-87185500D02*
X161798000Y-89408000D01*
X148142521Y-85974521D02*
X148337500Y-86169500D01*
X161798000Y-89408000D02*
X161925000Y-89408000D01*
X136988227Y-85974521D02*
X148142521Y-85974521D01*
X156498998Y-87185500D02*
X159575500Y-87185500D01*
X136148258Y-86814490D02*
X136988227Y-85974521D01*
X156044508Y-86731010D02*
X156498998Y-87185500D01*
X132153490Y-86814490D02*
X136148258Y-86814490D01*
X149796500Y-86169500D02*
X150358010Y-86731010D01*
X131419600Y-86080600D02*
X132153490Y-86814490D01*
X150358010Y-86731010D02*
X156044508Y-86731010D01*
X130087600Y-86080600D02*
X131419600Y-86080600D01*
X109855000Y-86169500D02*
X109791500Y-86106000D01*
X112142500Y-86169500D02*
X109855000Y-86169500D01*
X112787490Y-86814490D02*
X112142500Y-86169500D01*
X118739268Y-86169500D02*
X118094278Y-86814490D01*
X130176500Y-86169500D02*
X118739268Y-86169500D01*
X118094278Y-86814490D02*
X112787490Y-86814490D01*
%TO.N,/C_P1_START*%
X154859990Y-87439500D02*
X154940000Y-87519510D01*
X153287500Y-87439500D02*
X154859990Y-87439500D01*
X155628490Y-88208000D02*
X156122000Y-88208000D01*
X154940000Y-87519510D02*
X155628490Y-88208000D01*
X154940000Y-87519510D02*
X154939980Y-87519510D01*
%TO.N,/C_P1_SELECT*%
X155302000Y-89008000D02*
X155003500Y-88709500D01*
X156122000Y-89008000D02*
X155302000Y-89008000D01*
X154822314Y-88709500D02*
X155003500Y-88709500D01*
X153287500Y-88709500D02*
X154822314Y-88709500D01*
%TO.N,/C_P1_A*%
X153287500Y-89979500D02*
X155003490Y-89979500D01*
X156122000Y-89808000D02*
X155175016Y-89808000D01*
X155003490Y-89979500D02*
X155003503Y-89979513D01*
X155175016Y-89808000D02*
X155003503Y-89979513D01*
%TO.N,/C_P1_B*%
X153287500Y-91249500D02*
X154876500Y-91249500D01*
X154876500Y-91249500D02*
X155003500Y-91122500D01*
X156122000Y-90608000D02*
X156122000Y-91058000D01*
X156122000Y-91058000D02*
X156057500Y-91122500D01*
X156057500Y-91122500D02*
X155003500Y-91122500D01*
%TO.N,/C_P1_UP*%
X147256496Y-91249500D02*
X148337500Y-91249500D01*
X147192996Y-91313000D02*
X147256496Y-91249500D01*
X146685000Y-91313000D02*
X147192996Y-91313000D01*
X146208000Y-91313000D02*
X145503000Y-90608000D01*
X146685000Y-91313000D02*
X146208000Y-91313000D01*
%TO.N,/C_P1_DOWN*%
X146513500Y-89808000D02*
X146685000Y-89979500D01*
X145503000Y-89808000D02*
X146513500Y-89808000D01*
X148337500Y-89979500D02*
X146685000Y-89979500D01*
%TO.N,/C_P1_LEFT*%
X147002500Y-88709500D02*
X148337500Y-88709500D01*
X146939000Y-88773000D02*
X147002500Y-88709500D01*
X146685000Y-88773000D02*
X146939000Y-88773000D01*
X145738000Y-88773000D02*
X145503000Y-89008000D01*
X146685000Y-88773000D02*
X145738000Y-88773000D01*
%TO.N,/C_P1_RIGHT*%
X146757820Y-87439500D02*
X148337500Y-87439500D01*
X146694320Y-87503000D02*
X146757820Y-87439500D01*
X146685000Y-87503000D02*
X146694320Y-87503000D01*
X146208000Y-87503000D02*
X145503000Y-88208000D01*
X146685000Y-87503000D02*
X146208000Y-87503000D01*
%TO.N,/C_P1_X*%
X128587500Y-91249500D02*
X128524000Y-91313000D01*
X130176500Y-91249500D02*
X128587500Y-91249500D01*
X128047000Y-91313000D02*
X127342000Y-90608000D01*
X128524000Y-91313000D02*
X128047000Y-91313000D01*
%TO.N,/C_P1_Y*%
X130176500Y-89979500D02*
X128460506Y-89979500D01*
X127342000Y-89808000D02*
X128289006Y-89808000D01*
X128289006Y-89808000D02*
X128460506Y-89979500D01*
%TO.N,/C_P1_L*%
X130113000Y-88773000D02*
X130176500Y-88709500D01*
X128528660Y-88773000D02*
X130113000Y-88773000D01*
X128293660Y-89008000D02*
X128528660Y-88773000D01*
X127342000Y-89008000D02*
X128293660Y-89008000D01*
%TO.N,/C_P1_R*%
X128528660Y-87625340D02*
X128528660Y-87479701D01*
X127946000Y-88208000D02*
X128528660Y-87625340D01*
X127342000Y-88208000D02*
X127946000Y-88208000D01*
X128568861Y-87439500D02*
X130176500Y-87439500D01*
X128528660Y-87479701D02*
X128568861Y-87439500D01*
%TO.N,/C_P2_START*%
X110617000Y-91186000D02*
X110591600Y-91160600D01*
X112333000Y-91186000D02*
X110617000Y-91186000D01*
X110680500Y-91249500D02*
X112142500Y-91249500D01*
X110591600Y-91160600D02*
X110680500Y-91249500D01*
X110051100Y-91160600D02*
X110591600Y-91160600D01*
X109371500Y-90481000D02*
X110051100Y-91160600D01*
X143724000Y-77724000D02*
X137584486Y-77724000D01*
X135577529Y-79730957D02*
X116731999Y-79730957D01*
X116731999Y-79730957D02*
X116332000Y-80130956D01*
X145796000Y-75652000D02*
X143724000Y-77724000D01*
X137584486Y-77724000D02*
X135577529Y-79730957D01*
%TO.N,/C_P2_SELECT*%
X110680500Y-89979500D02*
X110553500Y-89852500D01*
X112142500Y-89979500D02*
X110680500Y-89979500D01*
X110382000Y-89681000D02*
X110553500Y-89852500D01*
X109371500Y-89681000D02*
X110382000Y-89681000D01*
X116253136Y-79184500D02*
X115318280Y-80119356D01*
X135405500Y-79184500D02*
X116253136Y-79184500D01*
X138938000Y-75652000D02*
X135405500Y-79184500D01*
%TO.N,/C_P2_A*%
X110680500Y-88709500D02*
X110553500Y-88582500D01*
X112142500Y-88709500D02*
X110680500Y-88709500D01*
X110255000Y-88881000D02*
X110553500Y-88582500D01*
X109371500Y-88881000D02*
X110255000Y-88881000D01*
X115677828Y-78734489D02*
X114318458Y-80093859D01*
X132080000Y-75652000D02*
X128997511Y-78734489D01*
X128997511Y-78734489D02*
X115677828Y-78734489D01*
%TO.N,/C_P2_B*%
X110101900Y-87350600D02*
X110515400Y-87350600D01*
X109371500Y-88081000D02*
X110101900Y-87350600D01*
X112053600Y-87350600D02*
X112142500Y-87439500D01*
X110515400Y-87350600D02*
X112053600Y-87350600D01*
X125222000Y-75652000D02*
X123467500Y-77406500D01*
X115976208Y-77406500D02*
X113318898Y-80063810D01*
X123467500Y-77406500D02*
X115976208Y-77406500D01*
%TO.N,/C_P2_UP*%
X137484000Y-88081000D02*
X136779000Y-87376000D01*
X137961000Y-88081000D02*
X137484000Y-88081000D01*
X136715500Y-87439500D02*
X136779000Y-87376000D01*
X135126500Y-87439500D02*
X136715500Y-87439500D01*
X139954000Y-80518000D02*
X139700000Y-80772000D01*
X156804000Y-80518000D02*
X139954000Y-80518000D01*
X161798000Y-75524000D02*
X156804000Y-80518000D01*
X161798000Y-74168000D02*
X161798000Y-75524000D01*
%TO.N,/C_P2_DOWN*%
X135571000Y-88773000D02*
X135418600Y-88620600D01*
X136779000Y-88773000D02*
X135571000Y-88773000D01*
X137942000Y-88900000D02*
X137961000Y-88881000D01*
X136906000Y-88900000D02*
X137942000Y-88900000D01*
X136779000Y-88773000D02*
X136906000Y-88900000D01*
X139091501Y-80046999D02*
X138430000Y-80708500D01*
X159298000Y-75652000D02*
X154903001Y-80046999D01*
X154903001Y-80046999D02*
X139091501Y-80046999D01*
X159298000Y-74168000D02*
X159298000Y-75652000D01*
%TO.N,/C_P2_LEFT*%
X137141000Y-89681000D02*
X137961000Y-89681000D01*
X136779000Y-90043000D02*
X137141000Y-89681000D01*
X138144512Y-79596988D02*
X137096500Y-80645000D01*
X150273012Y-79596988D02*
X138144512Y-79596988D01*
X154298000Y-75572000D02*
X150273012Y-79596988D01*
X154298000Y-74168000D02*
X154298000Y-75572000D01*
%TO.N,/C_P2_RIGHT*%
X137961000Y-90481000D02*
X137611000Y-90481000D01*
X137611000Y-90481000D02*
X136779000Y-91313000D01*
X136779000Y-91313000D02*
X136626600Y-91160600D01*
X136626600Y-91160600D02*
X135418600Y-91160600D01*
X136715500Y-91249500D02*
X136779000Y-91313000D01*
X135126500Y-91249500D02*
X136715500Y-91249500D01*
X137133490Y-79146977D02*
X135699500Y-80580967D01*
X153035000Y-75565000D02*
X149453023Y-79146977D01*
X153035000Y-73406000D02*
X153035000Y-75565000D01*
X149453023Y-79146977D02*
X137133490Y-79146977D01*
X153670000Y-72771000D02*
X153035000Y-73406000D01*
X155401000Y-72771000D02*
X153670000Y-72771000D01*
X156798000Y-74168000D02*
X155401000Y-72771000D01*
%TO.N,/C_P2_X*%
X117283000Y-87376000D02*
X118744998Y-87376000D01*
X119095000Y-87376000D02*
X118744998Y-87376000D01*
X119927000Y-88208000D02*
X119095000Y-87376000D01*
%TO.N,/C_P2_Y*%
X118681500Y-88709500D02*
X118745000Y-88773000D01*
X117092500Y-88709500D02*
X118681500Y-88709500D01*
X119908000Y-89027000D02*
X119927000Y-89008000D01*
X118999000Y-89027000D02*
X119908000Y-89027000D01*
X118745000Y-88773000D02*
X118999000Y-89027000D01*
%TO.N,/C_P2_L*%
X118681500Y-89979500D02*
X118745000Y-90043000D01*
X117092500Y-89979500D02*
X118681500Y-89979500D01*
X119908000Y-89789000D02*
X119927000Y-89808000D01*
X118999000Y-89789000D02*
X119908000Y-89789000D01*
X118745000Y-90043000D02*
X118999000Y-89789000D01*
%TO.N,/C_P2_R*%
X118681500Y-91249500D02*
X118745000Y-91313000D01*
X117092500Y-91249500D02*
X118681500Y-91249500D01*
X119323000Y-90608000D02*
X119927000Y-90608000D01*
X118745000Y-91186000D02*
X119323000Y-90608000D01*
X118745000Y-91313000D02*
X118745000Y-91186000D01*
%TO.N,/C_SHORT*%
X138938000Y-64516000D02*
X145796000Y-64516000D01*
X132080000Y-64516000D02*
X138938000Y-64516000D01*
X125222000Y-64516000D02*
X132080000Y-64516000D01*
X118364000Y-64516000D02*
X125222000Y-64516000D01*
X111506000Y-64516000D02*
X118364000Y-64516000D01*
X104648000Y-64516000D02*
X111506000Y-64516000D01*
X97790000Y-64516000D02*
X104648000Y-64516000D01*
X97790000Y-73152000D02*
X104648000Y-73152000D01*
X104648000Y-73152000D02*
X111506000Y-73152000D01*
X111506000Y-73152000D02*
X118364000Y-73152000D01*
X118364000Y-73152000D02*
X125222000Y-73152000D01*
X125222000Y-73152000D02*
X132080000Y-73152000D01*
X132080000Y-73152000D02*
X138938000Y-73152000D01*
X138938000Y-73152000D02*
X145796000Y-73152000D01*
X150782000Y-64516000D02*
X145796000Y-64516000D01*
X151798000Y-65532000D02*
X150782000Y-64516000D01*
X151798000Y-74168000D02*
X151798000Y-65532000D01*
X95059500Y-70421500D02*
X97790000Y-73152000D01*
X95059500Y-67246500D02*
X95059500Y-70421500D01*
X97790000Y-64516000D02*
X95059500Y-67246500D01*
%TO.N,/D_OUT_2*%
X136841000Y-94996000D02*
X135571000Y-93726000D01*
X140912996Y-94996000D02*
X136841000Y-94996000D01*
X149709000Y-94996000D02*
X149288500Y-94996000D01*
X152249000Y-92456000D02*
X149709000Y-94996000D01*
X153224000Y-92456000D02*
X152249000Y-92456000D01*
X149288500Y-94996000D02*
X140912996Y-94996000D01*
%TO.N,/D_OUT_3*%
X117392500Y-94089500D02*
X117092500Y-93789500D01*
X118299000Y-94996000D02*
X117392500Y-94089500D01*
X131675000Y-94996000D02*
X118299000Y-94996000D01*
X134151500Y-92519500D02*
X131675000Y-94996000D01*
X135126500Y-92519500D02*
X134151500Y-92519500D01*
%TD*%
%TA.AperFunction,Conductor*%
%TO.N,GND*%
G36*
X164534121Y-78760002D02*
G01*
X164580614Y-78813658D01*
X164592000Y-78866000D01*
X164592000Y-93989347D01*
X164571998Y-94057468D01*
X164518342Y-94103961D01*
X164448068Y-94114065D01*
X164384170Y-94085158D01*
X164294365Y-94008458D01*
X164270260Y-93987870D01*
X164061530Y-93859960D01*
X164056960Y-93858067D01*
X164056956Y-93858065D01*
X163839933Y-93768172D01*
X163839931Y-93768171D01*
X163835360Y-93766278D01*
X163724739Y-93739720D01*
X163602132Y-93710284D01*
X163602126Y-93710283D01*
X163597319Y-93709129D01*
X163353269Y-93689922D01*
X163109219Y-93709129D01*
X163104412Y-93710283D01*
X163104406Y-93710284D01*
X162981799Y-93739720D01*
X162871178Y-93766278D01*
X162866607Y-93768171D01*
X162866605Y-93768172D01*
X162649582Y-93858065D01*
X162649578Y-93858067D01*
X162645008Y-93859960D01*
X162436278Y-93987870D01*
X162432518Y-93991082D01*
X162432513Y-93991085D01*
X162290060Y-94112752D01*
X162250127Y-94146858D01*
X162246914Y-94150620D01*
X162094354Y-94329244D01*
X162094351Y-94329249D01*
X162091139Y-94333009D01*
X161963229Y-94541739D01*
X161961336Y-94546309D01*
X161961334Y-94546313D01*
X161884000Y-94733016D01*
X161869547Y-94767909D01*
X161865011Y-94786803D01*
X161813553Y-95001137D01*
X161813552Y-95001143D01*
X161812398Y-95005950D01*
X161793191Y-95250000D01*
X161812398Y-95494050D01*
X161813552Y-95498857D01*
X161813553Y-95498863D01*
X161844725Y-95628702D01*
X161869547Y-95732091D01*
X161871440Y-95736662D01*
X161871441Y-95736664D01*
X161959079Y-95948241D01*
X161963229Y-95958261D01*
X162091139Y-96166991D01*
X162215135Y-96312172D01*
X162244165Y-96376959D01*
X162233560Y-96447159D01*
X162186685Y-96500482D01*
X162119323Y-96520000D01*
X96696826Y-96520000D01*
X96628705Y-96499998D01*
X96582212Y-96446342D01*
X96572108Y-96376068D01*
X96601015Y-96312169D01*
X96654740Y-96249265D01*
X96740755Y-96148555D01*
X96866093Y-95944021D01*
X96867995Y-95939431D01*
X96955998Y-95726971D01*
X96955999Y-95726969D01*
X96957892Y-95722398D01*
X96982835Y-95618504D01*
X97012737Y-95493956D01*
X97012738Y-95493950D01*
X97013892Y-95489143D01*
X97032713Y-95250000D01*
X97013892Y-95010857D01*
X97012738Y-95006050D01*
X97012737Y-95006044D01*
X96959047Y-94782414D01*
X96957892Y-94777602D01*
X96939424Y-94733016D01*
X96867988Y-94560553D01*
X96867986Y-94560549D01*
X96866093Y-94555979D01*
X96740755Y-94351445D01*
X96584963Y-94169037D01*
X96402555Y-94013245D01*
X96198021Y-93887907D01*
X96193451Y-93886014D01*
X96193447Y-93886012D01*
X95980971Y-93798002D01*
X95980969Y-93798001D01*
X95976398Y-93796108D01*
X95894375Y-93776416D01*
X95747956Y-93741263D01*
X95747950Y-93741262D01*
X95743143Y-93740108D01*
X95504000Y-93721287D01*
X95264857Y-93740108D01*
X95260050Y-93741262D01*
X95260044Y-93741263D01*
X95113625Y-93776416D01*
X95031602Y-93796108D01*
X95027031Y-93798001D01*
X95027029Y-93798002D01*
X94814553Y-93886012D01*
X94814549Y-93886014D01*
X94809979Y-93887907D01*
X94605445Y-94013245D01*
X94556122Y-94055371D01*
X94441831Y-94152985D01*
X94377041Y-94182016D01*
X94306841Y-94171411D01*
X94253518Y-94124536D01*
X94234000Y-94057174D01*
X94234000Y-90222111D01*
X94254002Y-90153990D01*
X94307658Y-90107497D01*
X94377932Y-90097393D01*
X94442512Y-90126887D01*
X94473260Y-90168830D01*
X94473482Y-90169593D01*
X94477515Y-90176413D01*
X94477518Y-90176419D01*
X94483793Y-90187028D01*
X94492488Y-90204776D01*
X94499948Y-90223617D01*
X94504610Y-90230033D01*
X94504610Y-90230034D01*
X94525936Y-90259387D01*
X94532452Y-90269307D01*
X94545571Y-90291489D01*
X94554958Y-90307362D01*
X94569279Y-90321683D01*
X94582119Y-90336716D01*
X94594028Y-90353107D01*
X94600133Y-90358158D01*
X94600138Y-90358163D01*
X94628104Y-90381299D01*
X94636882Y-90389287D01*
X95444848Y-91197253D01*
X95452388Y-91205539D01*
X95456500Y-91212018D01*
X95462277Y-91217443D01*
X95506151Y-91258643D01*
X95508993Y-91261398D01*
X95528730Y-91281135D01*
X95531927Y-91283615D01*
X95540947Y-91291318D01*
X95573179Y-91321586D01*
X95580125Y-91325405D01*
X95580128Y-91325407D01*
X95590934Y-91331348D01*
X95607453Y-91342199D01*
X95621901Y-91353405D01*
X95623458Y-91354613D01*
X95622282Y-91356130D01*
X95663716Y-91400512D01*
X95676417Y-91470363D01*
X95665409Y-91510115D01*
X95623871Y-91599601D01*
X95623869Y-91599606D01*
X95621688Y-91604305D01*
X95561989Y-91819570D01*
X95561440Y-91824707D01*
X95561300Y-91826016D01*
X95538251Y-92041695D01*
X95538548Y-92046848D01*
X95538548Y-92046851D01*
X95549275Y-92232886D01*
X95551110Y-92264715D01*
X95552247Y-92269761D01*
X95552248Y-92269767D01*
X95565823Y-92330000D01*
X95600222Y-92482639D01*
X95684266Y-92689616D01*
X95686965Y-92694020D01*
X95794561Y-92869601D01*
X95800987Y-92880088D01*
X95947250Y-93048938D01*
X96119126Y-93191632D01*
X96312000Y-93304338D01*
X96316825Y-93306180D01*
X96316826Y-93306181D01*
X96353750Y-93320281D01*
X96520692Y-93384030D01*
X96525760Y-93385061D01*
X96525763Y-93385062D01*
X96633012Y-93406882D01*
X96739597Y-93428567D01*
X96744772Y-93428757D01*
X96744774Y-93428757D01*
X96957673Y-93436564D01*
X96957677Y-93436564D01*
X96962837Y-93436753D01*
X96967957Y-93436097D01*
X96967959Y-93436097D01*
X97179288Y-93409025D01*
X97179289Y-93409025D01*
X97184416Y-93408368D01*
X97189367Y-93406883D01*
X97189370Y-93406882D01*
X97230829Y-93394444D01*
X97301825Y-93394028D01*
X97356131Y-93426035D01*
X98565000Y-94634905D01*
X99762848Y-95832753D01*
X99770388Y-95841039D01*
X99774500Y-95847518D01*
X99780277Y-95852943D01*
X99824151Y-95894143D01*
X99826993Y-95896898D01*
X99846730Y-95916635D01*
X99849927Y-95919115D01*
X99858947Y-95926818D01*
X99891179Y-95957086D01*
X99898125Y-95960905D01*
X99898128Y-95960907D01*
X99908934Y-95966848D01*
X99925453Y-95977699D01*
X99941459Y-95990114D01*
X99948728Y-95993259D01*
X99948732Y-95993262D01*
X99982037Y-96007674D01*
X99992687Y-96012891D01*
X100031440Y-96034195D01*
X100039115Y-96036166D01*
X100039116Y-96036166D01*
X100051062Y-96039233D01*
X100069767Y-96045637D01*
X100088355Y-96053681D01*
X100096178Y-96054920D01*
X100096188Y-96054923D01*
X100132024Y-96060599D01*
X100143644Y-96063005D01*
X100175459Y-96071173D01*
X100186470Y-96074000D01*
X100206724Y-96074000D01*
X100226434Y-96075551D01*
X100246443Y-96078720D01*
X100254335Y-96077974D01*
X100273080Y-96076202D01*
X100290462Y-96074559D01*
X100302319Y-96074000D01*
X113117733Y-96074000D01*
X113128916Y-96074527D01*
X113136409Y-96076202D01*
X113144335Y-96075953D01*
X113144336Y-96075953D01*
X113204486Y-96074062D01*
X113208445Y-96074000D01*
X113236356Y-96074000D01*
X113240291Y-96073503D01*
X113240356Y-96073495D01*
X113252193Y-96072562D01*
X113284451Y-96071548D01*
X113288470Y-96071422D01*
X113296389Y-96071173D01*
X113315843Y-96065521D01*
X113335200Y-96061513D01*
X113347430Y-96059968D01*
X113347431Y-96059968D01*
X113355297Y-96058974D01*
X113362668Y-96056055D01*
X113362670Y-96056055D01*
X113396412Y-96042696D01*
X113407642Y-96038851D01*
X113442483Y-96028729D01*
X113442484Y-96028729D01*
X113450093Y-96026518D01*
X113456912Y-96022485D01*
X113456917Y-96022483D01*
X113467528Y-96016207D01*
X113485276Y-96007512D01*
X113504117Y-96000052D01*
X113539887Y-95974064D01*
X113549807Y-95967548D01*
X113581035Y-95949080D01*
X113581038Y-95949078D01*
X113587862Y-95945042D01*
X113602183Y-95930721D01*
X113617217Y-95917880D01*
X113627194Y-95910631D01*
X113633607Y-95905972D01*
X113661798Y-95871895D01*
X113669788Y-95863116D01*
X115433739Y-94099166D01*
X115496051Y-94065140D01*
X115566867Y-94070205D01*
X115623702Y-94112752D01*
X115643831Y-94153109D01*
X115658355Y-94203101D01*
X115662392Y-94209927D01*
X115739009Y-94339480D01*
X115739011Y-94339483D01*
X115743047Y-94346307D01*
X115860693Y-94463953D01*
X115867517Y-94467989D01*
X115867520Y-94467991D01*
X115971978Y-94529767D01*
X116003899Y-94548645D01*
X116011510Y-94550856D01*
X116011512Y-94550857D01*
X116043906Y-94560268D01*
X116163669Y-94595062D01*
X116170074Y-94595566D01*
X116170079Y-94595567D01*
X116198542Y-94597807D01*
X116198550Y-94597807D01*
X116200998Y-94598000D01*
X116952906Y-94598000D01*
X117021027Y-94618002D01*
X117042001Y-94634905D01*
X117795343Y-95388247D01*
X117802887Y-95396537D01*
X117807000Y-95403018D01*
X117812777Y-95408443D01*
X117856667Y-95449658D01*
X117859509Y-95452413D01*
X117879231Y-95472135D01*
X117882352Y-95474556D01*
X117882359Y-95474562D01*
X117882424Y-95474612D01*
X117891445Y-95482317D01*
X117923679Y-95512586D01*
X117930627Y-95516405D01*
X117930629Y-95516407D01*
X117941432Y-95522346D01*
X117957959Y-95533202D01*
X117967698Y-95540757D01*
X117967700Y-95540758D01*
X117973960Y-95545614D01*
X118014540Y-95563174D01*
X118025188Y-95568391D01*
X118049976Y-95582018D01*
X118063940Y-95589695D01*
X118071616Y-95591666D01*
X118071619Y-95591667D01*
X118083562Y-95594733D01*
X118102266Y-95601137D01*
X118102269Y-95601138D01*
X118120855Y-95609181D01*
X118128678Y-95610420D01*
X118128688Y-95610423D01*
X118164524Y-95616099D01*
X118176144Y-95618505D01*
X118207959Y-95626673D01*
X118218970Y-95629500D01*
X118239224Y-95629500D01*
X118258934Y-95631051D01*
X118278943Y-95634220D01*
X118286835Y-95633474D01*
X118305580Y-95631702D01*
X118322962Y-95630059D01*
X118334819Y-95629500D01*
X131596233Y-95629500D01*
X131607416Y-95630027D01*
X131614909Y-95631702D01*
X131622835Y-95631453D01*
X131622836Y-95631453D01*
X131682986Y-95629562D01*
X131686945Y-95629500D01*
X131714856Y-95629500D01*
X131718791Y-95629003D01*
X131718856Y-95628995D01*
X131730693Y-95628062D01*
X131762951Y-95627048D01*
X131766970Y-95626922D01*
X131774889Y-95626673D01*
X131794343Y-95621021D01*
X131813700Y-95617013D01*
X131825930Y-95615468D01*
X131825931Y-95615468D01*
X131833797Y-95614474D01*
X131841168Y-95611555D01*
X131841170Y-95611555D01*
X131874912Y-95598196D01*
X131886142Y-95594351D01*
X131920983Y-95584229D01*
X131920984Y-95584229D01*
X131928593Y-95582018D01*
X131935412Y-95577985D01*
X131935417Y-95577983D01*
X131946028Y-95571707D01*
X131963776Y-95563012D01*
X131982617Y-95555552D01*
X132002987Y-95540753D01*
X132018387Y-95529564D01*
X132028307Y-95523048D01*
X132059535Y-95504580D01*
X132059538Y-95504578D01*
X132066362Y-95500542D01*
X132080683Y-95486221D01*
X132095717Y-95473380D01*
X132097432Y-95472134D01*
X132112107Y-95461472D01*
X132140298Y-95427395D01*
X132148288Y-95418616D01*
X133467739Y-94099166D01*
X133530051Y-94065140D01*
X133600867Y-94070205D01*
X133657702Y-94112752D01*
X133677831Y-94153109D01*
X133692355Y-94203101D01*
X133696392Y-94209927D01*
X133773009Y-94339480D01*
X133773011Y-94339483D01*
X133777047Y-94346307D01*
X133894693Y-94463953D01*
X133901517Y-94467989D01*
X133901520Y-94467991D01*
X134005978Y-94529767D01*
X134037899Y-94548645D01*
X134045510Y-94550856D01*
X134045512Y-94550857D01*
X134077906Y-94560268D01*
X134197669Y-94595062D01*
X134204074Y-94595566D01*
X134204079Y-94595567D01*
X134232542Y-94597807D01*
X134232550Y-94597807D01*
X134234998Y-94598000D01*
X135494906Y-94598000D01*
X135563027Y-94618002D01*
X135584001Y-94634905D01*
X136337343Y-95388247D01*
X136344887Y-95396537D01*
X136349000Y-95403018D01*
X136354777Y-95408443D01*
X136398667Y-95449658D01*
X136401509Y-95452413D01*
X136421230Y-95472134D01*
X136424425Y-95474612D01*
X136433446Y-95482317D01*
X136465679Y-95512586D01*
X136476340Y-95518447D01*
X136483432Y-95522346D01*
X136499956Y-95533199D01*
X136515959Y-95545613D01*
X136556543Y-95563176D01*
X136567173Y-95568383D01*
X136605940Y-95589695D01*
X136613617Y-95591666D01*
X136613622Y-95591668D01*
X136625558Y-95594732D01*
X136644266Y-95601137D01*
X136662855Y-95609181D01*
X136670683Y-95610421D01*
X136670690Y-95610423D01*
X136706524Y-95616099D01*
X136718144Y-95618505D01*
X136749959Y-95626673D01*
X136760970Y-95629500D01*
X136781224Y-95629500D01*
X136800934Y-95631051D01*
X136820943Y-95634220D01*
X136828835Y-95633474D01*
X136847580Y-95631702D01*
X136864962Y-95630059D01*
X136876819Y-95629500D01*
X149630233Y-95629500D01*
X149641416Y-95630027D01*
X149648909Y-95631702D01*
X149656835Y-95631453D01*
X149656836Y-95631453D01*
X149716986Y-95629562D01*
X149720945Y-95629500D01*
X149748856Y-95629500D01*
X149752791Y-95629003D01*
X149752856Y-95628995D01*
X149764693Y-95628062D01*
X149796951Y-95627048D01*
X149800970Y-95626922D01*
X149808889Y-95626673D01*
X149828343Y-95621021D01*
X149847700Y-95617013D01*
X149859930Y-95615468D01*
X149859931Y-95615468D01*
X149867797Y-95614474D01*
X149875168Y-95611555D01*
X149875170Y-95611555D01*
X149908912Y-95598196D01*
X149920142Y-95594351D01*
X149954983Y-95584229D01*
X149954984Y-95584229D01*
X149962593Y-95582018D01*
X149969412Y-95577985D01*
X149969417Y-95577983D01*
X149980028Y-95571707D01*
X149997776Y-95563012D01*
X150016617Y-95555552D01*
X150036987Y-95540753D01*
X150052387Y-95529564D01*
X150062307Y-95523048D01*
X150093535Y-95504580D01*
X150093538Y-95504578D01*
X150100362Y-95500542D01*
X150114683Y-95486221D01*
X150129717Y-95473380D01*
X150131432Y-95472134D01*
X150146107Y-95461472D01*
X150174298Y-95427395D01*
X150182288Y-95418616D01*
X151565239Y-94035665D01*
X151627551Y-94001639D01*
X151698366Y-94006704D01*
X151755202Y-94049251D01*
X151775331Y-94089607D01*
X151789855Y-94139601D01*
X151793892Y-94146427D01*
X151870509Y-94275980D01*
X151870511Y-94275983D01*
X151874547Y-94282807D01*
X151992193Y-94400453D01*
X151999017Y-94404489D01*
X151999020Y-94404491D01*
X152001058Y-94405696D01*
X152135399Y-94485145D01*
X152143010Y-94487356D01*
X152143012Y-94487357D01*
X152195231Y-94502528D01*
X152295169Y-94531562D01*
X152301574Y-94532066D01*
X152301579Y-94532067D01*
X152330042Y-94534307D01*
X152330050Y-94534307D01*
X152332498Y-94534500D01*
X153008206Y-94534500D01*
X153076327Y-94554502D01*
X153097301Y-94571405D01*
X153914143Y-95388247D01*
X153921687Y-95396537D01*
X153925800Y-95403018D01*
X153931577Y-95408443D01*
X153975467Y-95449658D01*
X153978309Y-95452413D01*
X153998030Y-95472134D01*
X154001225Y-95474612D01*
X154010246Y-95482317D01*
X154042479Y-95512586D01*
X154053140Y-95518447D01*
X154060232Y-95522346D01*
X154076756Y-95533199D01*
X154092759Y-95545613D01*
X154133343Y-95563176D01*
X154143973Y-95568383D01*
X154182740Y-95589695D01*
X154190417Y-95591666D01*
X154190422Y-95591668D01*
X154202358Y-95594732D01*
X154221066Y-95601137D01*
X154239655Y-95609181D01*
X154247480Y-95610420D01*
X154247482Y-95610421D01*
X154283319Y-95616097D01*
X154294940Y-95618504D01*
X154326759Y-95626673D01*
X154337770Y-95629500D01*
X154358031Y-95629500D01*
X154377740Y-95631051D01*
X154397743Y-95634219D01*
X154405635Y-95633473D01*
X154410862Y-95632979D01*
X154441754Y-95630059D01*
X154453611Y-95629500D01*
X159052233Y-95629500D01*
X159063416Y-95630027D01*
X159070909Y-95631702D01*
X159078835Y-95631453D01*
X159078836Y-95631453D01*
X159138986Y-95629562D01*
X159142945Y-95629500D01*
X159170856Y-95629500D01*
X159174791Y-95629003D01*
X159174856Y-95628995D01*
X159186693Y-95628062D01*
X159218951Y-95627048D01*
X159222970Y-95626922D01*
X159230889Y-95626673D01*
X159250343Y-95621021D01*
X159269700Y-95617013D01*
X159281930Y-95615468D01*
X159281931Y-95615468D01*
X159289797Y-95614474D01*
X159297168Y-95611555D01*
X159297170Y-95611555D01*
X159330912Y-95598196D01*
X159342142Y-95594351D01*
X159376983Y-95584229D01*
X159376984Y-95584229D01*
X159384593Y-95582018D01*
X159391412Y-95577985D01*
X159391417Y-95577983D01*
X159402028Y-95571707D01*
X159419776Y-95563012D01*
X159438617Y-95555552D01*
X159458987Y-95540753D01*
X159474387Y-95529564D01*
X159484307Y-95523048D01*
X159515535Y-95504580D01*
X159515538Y-95504578D01*
X159522362Y-95500542D01*
X159536683Y-95486221D01*
X159551717Y-95473380D01*
X159553432Y-95472134D01*
X159568107Y-95461472D01*
X159596298Y-95427395D01*
X159604288Y-95418616D01*
X161683999Y-93338905D01*
X161746311Y-93304879D01*
X161777711Y-93302085D01*
X161981673Y-93309564D01*
X161981677Y-93309564D01*
X161986837Y-93309753D01*
X161991957Y-93309097D01*
X161991959Y-93309097D01*
X162203288Y-93282025D01*
X162203289Y-93282025D01*
X162208416Y-93281368D01*
X162264640Y-93264500D01*
X162417429Y-93218661D01*
X162417434Y-93218659D01*
X162422384Y-93217174D01*
X162622994Y-93118896D01*
X162804860Y-92989173D01*
X162808679Y-92985368D01*
X162920566Y-92873871D01*
X162963096Y-92831489D01*
X163093453Y-92650077D01*
X163096971Y-92642960D01*
X163190136Y-92454453D01*
X163190137Y-92454451D01*
X163192430Y-92449811D01*
X163226934Y-92336244D01*
X163255865Y-92241023D01*
X163255865Y-92241021D01*
X163257370Y-92236069D01*
X163286529Y-92014590D01*
X163286983Y-91996027D01*
X163288074Y-91951365D01*
X163288074Y-91951361D01*
X163288156Y-91948000D01*
X163269852Y-91725361D01*
X163215431Y-91508702D01*
X163126354Y-91303840D01*
X163061440Y-91203498D01*
X163007822Y-91120617D01*
X163007820Y-91120614D01*
X163005014Y-91116277D01*
X162854670Y-90951051D01*
X162850619Y-90947852D01*
X162850615Y-90947848D01*
X162683414Y-90815800D01*
X162683410Y-90815798D01*
X162679359Y-90812598D01*
X162638053Y-90789796D01*
X162588084Y-90739364D01*
X162573312Y-90669921D01*
X162598428Y-90603516D01*
X162625780Y-90576909D01*
X162692276Y-90529478D01*
X162804860Y-90449173D01*
X162963096Y-90291489D01*
X162986164Y-90259387D01*
X163090435Y-90114277D01*
X163093453Y-90110077D01*
X163097362Y-90102169D01*
X163190136Y-89914453D01*
X163190137Y-89914451D01*
X163192430Y-89909811D01*
X163232820Y-89776872D01*
X163255865Y-89701023D01*
X163255865Y-89701021D01*
X163257370Y-89696069D01*
X163286529Y-89474590D01*
X163286746Y-89465705D01*
X163288074Y-89411365D01*
X163288074Y-89411361D01*
X163288156Y-89408000D01*
X163269852Y-89185361D01*
X163215431Y-88968702D01*
X163126354Y-88763840D01*
X163041623Y-88632866D01*
X163007822Y-88580617D01*
X163007820Y-88580614D01*
X163005014Y-88576277D01*
X162854670Y-88411051D01*
X162850619Y-88407852D01*
X162850615Y-88407848D01*
X162683414Y-88275800D01*
X162683410Y-88275798D01*
X162679359Y-88272598D01*
X162638053Y-88249796D01*
X162588084Y-88199364D01*
X162573312Y-88129921D01*
X162598428Y-88063516D01*
X162625780Y-88036909D01*
X162692276Y-87989478D01*
X162804860Y-87909173D01*
X162825350Y-87888755D01*
X162918001Y-87796427D01*
X162963096Y-87751489D01*
X163053675Y-87625435D01*
X163090435Y-87574277D01*
X163093453Y-87570077D01*
X163115772Y-87524919D01*
X163190136Y-87374453D01*
X163190137Y-87374451D01*
X163192430Y-87369811D01*
X163238366Y-87218617D01*
X163255865Y-87161023D01*
X163255865Y-87161021D01*
X163257370Y-87156069D01*
X163286529Y-86934590D01*
X163287058Y-86912933D01*
X163288074Y-86871365D01*
X163288074Y-86871361D01*
X163288156Y-86868000D01*
X163269852Y-86645361D01*
X163215431Y-86428702D01*
X163126354Y-86223840D01*
X163080807Y-86153435D01*
X163007822Y-86040617D01*
X163007820Y-86040614D01*
X163005014Y-86036277D01*
X162854670Y-85871051D01*
X162850619Y-85867852D01*
X162850615Y-85867848D01*
X162683414Y-85735800D01*
X162683410Y-85735798D01*
X162679359Y-85732598D01*
X162637569Y-85709529D01*
X162587598Y-85659097D01*
X162572826Y-85589654D01*
X162597942Y-85523248D01*
X162625294Y-85496641D01*
X162800328Y-85371792D01*
X162808200Y-85365139D01*
X162959052Y-85214812D01*
X162965730Y-85206965D01*
X163090003Y-85034020D01*
X163095313Y-85025183D01*
X163189670Y-84834267D01*
X163193469Y-84824672D01*
X163255377Y-84620910D01*
X163257555Y-84610837D01*
X163258986Y-84599962D01*
X163256775Y-84585778D01*
X163243617Y-84582000D01*
X160608225Y-84582000D01*
X160594694Y-84585973D01*
X160593257Y-84595966D01*
X160623565Y-84730446D01*
X160626646Y-84740280D01*
X160633930Y-84758219D01*
X160641026Y-84828860D01*
X160608803Y-84892123D01*
X160547493Y-84927923D01*
X160476561Y-84924893D01*
X160467146Y-84921259D01*
X160434972Y-84907336D01*
X160424323Y-84902119D01*
X160385570Y-84880815D01*
X160365947Y-84875777D01*
X160347244Y-84869373D01*
X160335930Y-84864477D01*
X160335929Y-84864477D01*
X160328655Y-84861329D01*
X160320832Y-84860090D01*
X160320822Y-84860087D01*
X160284986Y-84854411D01*
X160273366Y-84852005D01*
X160238221Y-84842982D01*
X160238220Y-84842982D01*
X160230540Y-84841010D01*
X160210286Y-84841010D01*
X160190575Y-84839459D01*
X160178396Y-84837530D01*
X160170567Y-84836290D01*
X160162675Y-84837036D01*
X160126549Y-84840451D01*
X160114691Y-84841010D01*
X158723000Y-84841010D01*
X158654879Y-84821008D01*
X158608386Y-84767352D01*
X158597000Y-84715010D01*
X158597000Y-84600115D01*
X158592525Y-84584876D01*
X158591135Y-84583671D01*
X158583452Y-84582000D01*
X157373500Y-84582000D01*
X157305379Y-84561998D01*
X157258886Y-84508342D01*
X157247500Y-84456000D01*
X157247500Y-84200000D01*
X157267502Y-84131879D01*
X157321158Y-84085386D01*
X157373500Y-84074000D01*
X158578884Y-84074000D01*
X158594123Y-84069525D01*
X158595328Y-84068135D01*
X158596999Y-84060452D01*
X158596999Y-83815500D01*
X158617001Y-83747379D01*
X158670657Y-83700886D01*
X158722999Y-83689500D01*
X159571930Y-83689500D01*
X159590880Y-83690933D01*
X159605115Y-83693099D01*
X159605119Y-83693099D01*
X159612349Y-83694199D01*
X159619641Y-83693606D01*
X159619644Y-83693606D01*
X159665018Y-83689915D01*
X159675233Y-83689500D01*
X159683293Y-83689500D01*
X159700680Y-83687473D01*
X159711507Y-83686211D01*
X159715882Y-83685778D01*
X159781339Y-83680454D01*
X159781342Y-83680453D01*
X159788637Y-83679860D01*
X159795601Y-83677604D01*
X159801560Y-83676413D01*
X159807415Y-83675029D01*
X159814681Y-83674182D01*
X159883327Y-83649265D01*
X159887455Y-83647848D01*
X159949936Y-83627607D01*
X159949938Y-83627606D01*
X159956899Y-83625351D01*
X159963154Y-83621555D01*
X159968628Y-83619049D01*
X159974058Y-83616330D01*
X159980937Y-83613833D01*
X159987058Y-83609820D01*
X160041976Y-83573814D01*
X160045680Y-83571477D01*
X160108107Y-83533595D01*
X160116484Y-83526197D01*
X160116508Y-83526224D01*
X160119500Y-83523571D01*
X160122733Y-83520868D01*
X160128852Y-83516856D01*
X160182128Y-83460617D01*
X160184506Y-83458175D01*
X160594299Y-83048382D01*
X160656611Y-83014356D01*
X160727426Y-83019421D01*
X160758957Y-83036649D01*
X160828295Y-83088615D01*
X160836704Y-83091767D01*
X160836705Y-83091768D01*
X160945960Y-83132726D01*
X161002725Y-83175367D01*
X161027425Y-83241929D01*
X161012218Y-83311278D01*
X160992825Y-83337759D01*
X160869590Y-83466717D01*
X160863104Y-83474727D01*
X160743098Y-83650649D01*
X160738000Y-83659623D01*
X160648338Y-83852783D01*
X160644775Y-83862470D01*
X160589389Y-84062183D01*
X160590912Y-84070607D01*
X160603292Y-84074000D01*
X163243344Y-84074000D01*
X163256875Y-84070027D01*
X163258180Y-84060947D01*
X163216214Y-83893875D01*
X163212894Y-83884124D01*
X163127969Y-83688808D01*
X163123105Y-83679739D01*
X163007426Y-83500926D01*
X163001136Y-83492757D01*
X162857293Y-83334677D01*
X162826241Y-83270831D01*
X162834635Y-83200333D01*
X162879812Y-83145564D01*
X162906256Y-83131895D01*
X163013297Y-83091767D01*
X163021705Y-83088615D01*
X163138261Y-83001261D01*
X163225615Y-82884705D01*
X163276745Y-82748316D01*
X163283500Y-82686134D01*
X163283500Y-80889866D01*
X163276745Y-80827684D01*
X163225615Y-80691295D01*
X163138261Y-80574739D01*
X163021705Y-80487385D01*
X162885316Y-80436255D01*
X162823134Y-80429500D01*
X161026866Y-80429500D01*
X160964684Y-80436255D01*
X160828295Y-80487385D01*
X160711739Y-80574739D01*
X160624385Y-80691295D01*
X160573255Y-80827684D01*
X160566500Y-80889866D01*
X160566500Y-80968848D01*
X160546498Y-81036969D01*
X160492842Y-81083462D01*
X160479330Y-81088715D01*
X160471065Y-81091392D01*
X160471058Y-81091395D01*
X160464101Y-81093649D01*
X160457847Y-81097444D01*
X160452372Y-81099951D01*
X160446942Y-81102670D01*
X160440063Y-81105167D01*
X160433943Y-81109180D01*
X160433942Y-81109180D01*
X160379024Y-81145186D01*
X160375320Y-81147523D01*
X160312893Y-81185405D01*
X160304516Y-81192803D01*
X160304492Y-81192776D01*
X160301500Y-81195429D01*
X160298267Y-81198132D01*
X160292148Y-81202144D01*
X160287116Y-81207456D01*
X160238872Y-81258383D01*
X160236494Y-81260825D01*
X159361724Y-82135595D01*
X159299412Y-82169621D01*
X159272629Y-82172500D01*
X155475835Y-82172500D01*
X155468033Y-82172258D01*
X155406702Y-82168453D01*
X155393740Y-82170680D01*
X155372404Y-82172500D01*
X139499595Y-82172500D01*
X139431474Y-82152498D01*
X139384981Y-82098842D01*
X139374877Y-82028568D01*
X139404371Y-81963988D01*
X139410500Y-81957404D01*
X139650501Y-81717404D01*
X139712813Y-81683379D01*
X139739596Y-81680500D01*
X139795487Y-81680500D01*
X139801939Y-81679128D01*
X139801944Y-81679128D01*
X139888888Y-81660647D01*
X139982288Y-81640794D01*
X140136403Y-81572178D01*
X140150722Y-81565803D01*
X140150724Y-81565802D01*
X140156752Y-81563118D01*
X140171371Y-81552497D01*
X140212157Y-81522864D01*
X140311253Y-81450866D01*
X140356979Y-81400082D01*
X140434621Y-81313852D01*
X140434622Y-81313851D01*
X140439040Y-81308944D01*
X140493569Y-81214498D01*
X140544951Y-81165506D01*
X140602687Y-81151500D01*
X156725233Y-81151500D01*
X156736416Y-81152027D01*
X156743909Y-81153702D01*
X156751835Y-81153453D01*
X156751836Y-81153453D01*
X156811986Y-81151562D01*
X156815945Y-81151500D01*
X156843856Y-81151500D01*
X156847791Y-81151003D01*
X156847856Y-81150995D01*
X156859693Y-81150062D01*
X156891951Y-81149048D01*
X156895970Y-81148922D01*
X156903889Y-81148673D01*
X156923343Y-81143021D01*
X156942700Y-81139013D01*
X156954930Y-81137468D01*
X156954931Y-81137468D01*
X156962797Y-81136474D01*
X156970168Y-81133555D01*
X156970170Y-81133555D01*
X157003912Y-81120196D01*
X157015142Y-81116351D01*
X157049983Y-81106229D01*
X157049984Y-81106229D01*
X157057593Y-81104018D01*
X157064412Y-81099985D01*
X157064417Y-81099983D01*
X157075028Y-81093707D01*
X157092776Y-81085012D01*
X157111617Y-81077552D01*
X157147387Y-81051564D01*
X157157307Y-81045048D01*
X157188535Y-81026580D01*
X157188538Y-81026578D01*
X157195362Y-81022542D01*
X157209683Y-81008221D01*
X157224717Y-80995380D01*
X157234694Y-80988131D01*
X157241107Y-80983472D01*
X157269298Y-80949395D01*
X157277288Y-80940616D01*
X159440999Y-78776905D01*
X159503311Y-78742879D01*
X159530094Y-78740000D01*
X164466000Y-78740000D01*
X164534121Y-78760002D01*
G37*
%TD.AperFunction*%
%TA.AperFunction,Conductor*%
G36*
X115551121Y-87467992D02*
G01*
X115597614Y-87521648D01*
X115609000Y-87573990D01*
X115609000Y-87656002D01*
X115611938Y-87693331D01*
X115658355Y-87853101D01*
X115743047Y-87996307D01*
X115745729Y-87998989D01*
X115771002Y-88063361D01*
X115757100Y-88132984D01*
X115746928Y-88148812D01*
X115743047Y-88152693D01*
X115658355Y-88295899D01*
X115656144Y-88303510D01*
X115656143Y-88303512D01*
X115644358Y-88344076D01*
X115611938Y-88455669D01*
X115609000Y-88492998D01*
X115609000Y-88926002D01*
X115609193Y-88928450D01*
X115609193Y-88928458D01*
X115611267Y-88954804D01*
X115611938Y-88963331D01*
X115637695Y-89051988D01*
X115653116Y-89105067D01*
X115658355Y-89123101D01*
X115743047Y-89266307D01*
X115745729Y-89268989D01*
X115771002Y-89333361D01*
X115757100Y-89402984D01*
X115746928Y-89418812D01*
X115743047Y-89422693D01*
X115658355Y-89565899D01*
X115656144Y-89573510D01*
X115656143Y-89573512D01*
X115649112Y-89597715D01*
X115611938Y-89725669D01*
X115609000Y-89762998D01*
X115609000Y-90196002D01*
X115609193Y-90198450D01*
X115609193Y-90198458D01*
X115611055Y-90222111D01*
X115611938Y-90233331D01*
X115632915Y-90305534D01*
X115647713Y-90356469D01*
X115658355Y-90393101D01*
X115743047Y-90536307D01*
X115745729Y-90538989D01*
X115771002Y-90603361D01*
X115757100Y-90672984D01*
X115746928Y-90688812D01*
X115743047Y-90692693D01*
X115658355Y-90835899D01*
X115611938Y-90995669D01*
X115609000Y-91032998D01*
X115609000Y-91466002D01*
X115609193Y-91468450D01*
X115609193Y-91468458D01*
X115611390Y-91496365D01*
X115611938Y-91503331D01*
X115638543Y-91594907D01*
X115654798Y-91650856D01*
X115658355Y-91663101D01*
X115743047Y-91806307D01*
X115745729Y-91808989D01*
X115771002Y-91873361D01*
X115757100Y-91942984D01*
X115746925Y-91958815D01*
X115743047Y-91962693D01*
X115739016Y-91969509D01*
X115739013Y-91969513D01*
X115707137Y-92023414D01*
X115685695Y-92050176D01*
X115680393Y-92054028D01*
X115675345Y-92060130D01*
X115675344Y-92060131D01*
X115652202Y-92088105D01*
X115644212Y-92096884D01*
X113731988Y-94009107D01*
X113669676Y-94043133D01*
X113631541Y-94040405D01*
X113631259Y-94044424D01*
X113618077Y-94043500D01*
X110680622Y-94043500D01*
X110667091Y-94047473D01*
X110665956Y-94055371D01*
X110706607Y-94195290D01*
X110712852Y-94209721D01*
X110789411Y-94339178D01*
X110799051Y-94351604D01*
X110905396Y-94457949D01*
X110917822Y-94467589D01*
X111047279Y-94544148D01*
X111061710Y-94550393D01*
X111094787Y-94560003D01*
X111154622Y-94598217D01*
X111184299Y-94662713D01*
X111174395Y-94733016D01*
X111128055Y-94786803D01*
X111059633Y-94807000D01*
X108585447Y-94807000D01*
X108517326Y-94786998D01*
X108470833Y-94733342D01*
X108460729Y-94663068D01*
X108476327Y-94618002D01*
X108506033Y-94566550D01*
X108565048Y-94384922D01*
X108568406Y-94352978D01*
X108584320Y-94201559D01*
X108585010Y-94194994D01*
X108579951Y-94146858D01*
X108565738Y-94011629D01*
X108565738Y-94011627D01*
X108565048Y-94005066D01*
X108506033Y-93823438D01*
X108491348Y-93798002D01*
X108453066Y-93731697D01*
X108410546Y-93658050D01*
X108404450Y-93651279D01*
X108337364Y-93576773D01*
X108306646Y-93512766D01*
X108305000Y-93492463D01*
X108305000Y-91239433D01*
X108325002Y-91171312D01*
X108367178Y-91132000D01*
X108368205Y-91131615D01*
X108423548Y-91090138D01*
X108445935Y-91073360D01*
X108512442Y-91048512D01*
X108581824Y-91063565D01*
X108597065Y-91073360D01*
X108667608Y-91126229D01*
X108674795Y-91131615D01*
X108811184Y-91182745D01*
X108873366Y-91189500D01*
X109131906Y-91189500D01*
X109200027Y-91209502D01*
X109221001Y-91226405D01*
X109547443Y-91552847D01*
X109554987Y-91561137D01*
X109559100Y-91567618D01*
X109564877Y-91573043D01*
X109608767Y-91614258D01*
X109611609Y-91617013D01*
X109631331Y-91636735D01*
X109634455Y-91639158D01*
X109634459Y-91639162D01*
X109634524Y-91639212D01*
X109643545Y-91646917D01*
X109675779Y-91677186D01*
X109682727Y-91681005D01*
X109682729Y-91681007D01*
X109693532Y-91686946D01*
X109710059Y-91697802D01*
X109719798Y-91705357D01*
X109719800Y-91705358D01*
X109726060Y-91710214D01*
X109766640Y-91727774D01*
X109777288Y-91732991D01*
X109804928Y-91748186D01*
X109816040Y-91754295D01*
X109823716Y-91756266D01*
X109823719Y-91756267D01*
X109835662Y-91759333D01*
X109854366Y-91765737D01*
X109856495Y-91766658D01*
X109872955Y-91773781D01*
X109880777Y-91775020D01*
X109880784Y-91775022D01*
X109885157Y-91775714D01*
X109888307Y-91777207D01*
X109888399Y-91777234D01*
X109888395Y-91777249D01*
X109949311Y-91806125D01*
X109959082Y-91815849D01*
X109980347Y-91839466D01*
X109985686Y-91843345D01*
X110125112Y-91944644D01*
X110134848Y-91951718D01*
X110140876Y-91954402D01*
X110140878Y-91954403D01*
X110300357Y-92025407D01*
X110309312Y-92029394D01*
X110396545Y-92047936D01*
X110489656Y-92067728D01*
X110489661Y-92067728D01*
X110496113Y-92069100D01*
X110551230Y-92069100D01*
X110619351Y-92089102D01*
X110665844Y-92142758D01*
X110675948Y-92213032D01*
X110672227Y-92230252D01*
X110663733Y-92259489D01*
X110663732Y-92259493D01*
X110661938Y-92265669D01*
X110661434Y-92272074D01*
X110661433Y-92272079D01*
X110660654Y-92281981D01*
X110659000Y-92302998D01*
X110659000Y-92736002D01*
X110661938Y-92773331D01*
X110677615Y-92827292D01*
X110695851Y-92890060D01*
X110708355Y-92933101D01*
X110793047Y-93076307D01*
X110795987Y-93079247D01*
X110821320Y-93143766D01*
X110807421Y-93213389D01*
X110795374Y-93232136D01*
X110789410Y-93239824D01*
X110712852Y-93369279D01*
X110706607Y-93383710D01*
X110667561Y-93518105D01*
X110667601Y-93532206D01*
X110674870Y-93535500D01*
X113604378Y-93535500D01*
X113617909Y-93531527D01*
X113619044Y-93523629D01*
X113578393Y-93383710D01*
X113572148Y-93369279D01*
X113495589Y-93239823D01*
X113489629Y-93232140D01*
X113463680Y-93166056D01*
X113477578Y-93096433D01*
X113487921Y-93080339D01*
X113491953Y-93076307D01*
X113576645Y-92933101D01*
X113589150Y-92890060D01*
X113607385Y-92827292D01*
X113623062Y-92773331D01*
X113626000Y-92736002D01*
X113626000Y-92302998D01*
X113624346Y-92281981D01*
X113623567Y-92272079D01*
X113623566Y-92272074D01*
X113623062Y-92265669D01*
X113587568Y-92143495D01*
X113578857Y-92113512D01*
X113578856Y-92113510D01*
X113576645Y-92105899D01*
X113491953Y-91962693D01*
X113489271Y-91960011D01*
X113463998Y-91895639D01*
X113477900Y-91826016D01*
X113488072Y-91810188D01*
X113491953Y-91806307D01*
X113576645Y-91663101D01*
X113580203Y-91650856D01*
X113596457Y-91594907D01*
X113623062Y-91503331D01*
X113623611Y-91496365D01*
X113625807Y-91468458D01*
X113625807Y-91468450D01*
X113626000Y-91466002D01*
X113626000Y-91032998D01*
X113623062Y-90995669D01*
X113576645Y-90835899D01*
X113491953Y-90692693D01*
X113489271Y-90690011D01*
X113463998Y-90625639D01*
X113477900Y-90556016D01*
X113488072Y-90540188D01*
X113491953Y-90536307D01*
X113576645Y-90393101D01*
X113587288Y-90356469D01*
X113602085Y-90305534D01*
X113623062Y-90233331D01*
X113623946Y-90222111D01*
X113625807Y-90198458D01*
X113625807Y-90198450D01*
X113626000Y-90196002D01*
X113626000Y-89762998D01*
X113623062Y-89725669D01*
X113585888Y-89597715D01*
X113578857Y-89573512D01*
X113578856Y-89573510D01*
X113576645Y-89565899D01*
X113491953Y-89422693D01*
X113489271Y-89420011D01*
X113463998Y-89355639D01*
X113477900Y-89286016D01*
X113488072Y-89270188D01*
X113491953Y-89266307D01*
X113576645Y-89123101D01*
X113581885Y-89105067D01*
X113597305Y-89051988D01*
X113623062Y-88963331D01*
X113623734Y-88954804D01*
X113625807Y-88928458D01*
X113625807Y-88928450D01*
X113626000Y-88926002D01*
X113626000Y-88492998D01*
X113623062Y-88455669D01*
X113590642Y-88344076D01*
X113578857Y-88303512D01*
X113578856Y-88303510D01*
X113576645Y-88295899D01*
X113491953Y-88152693D01*
X113489271Y-88150011D01*
X113463998Y-88085639D01*
X113477900Y-88016016D01*
X113488072Y-88000188D01*
X113491953Y-87996307D01*
X113576645Y-87853101D01*
X113623062Y-87693331D01*
X113626000Y-87656002D01*
X113626000Y-87573990D01*
X113646002Y-87505869D01*
X113699658Y-87459376D01*
X113752000Y-87447990D01*
X115483000Y-87447990D01*
X115551121Y-87467992D01*
G37*
%TD.AperFunction*%
%TA.AperFunction,Conductor*%
G36*
X131836038Y-87367387D02*
G01*
X131869033Y-87381666D01*
X131879663Y-87386873D01*
X131918430Y-87408185D01*
X131926107Y-87410156D01*
X131926112Y-87410158D01*
X131938048Y-87413222D01*
X131956756Y-87419627D01*
X131975345Y-87427671D01*
X131983173Y-87428911D01*
X131983180Y-87428913D01*
X132019014Y-87434589D01*
X132030634Y-87436995D01*
X132065779Y-87446018D01*
X132073460Y-87447990D01*
X132093714Y-87447990D01*
X132113424Y-87449541D01*
X132133433Y-87452710D01*
X132141325Y-87451964D01*
X132177451Y-87448549D01*
X132189309Y-87447990D01*
X133517000Y-87447990D01*
X133585121Y-87467992D01*
X133631614Y-87521648D01*
X133643000Y-87573990D01*
X133643000Y-87656002D01*
X133645938Y-87693331D01*
X133692355Y-87853101D01*
X133777047Y-87996307D01*
X133779729Y-87998989D01*
X133805002Y-88063361D01*
X133791100Y-88132984D01*
X133780928Y-88148812D01*
X133777047Y-88152693D01*
X133692355Y-88295899D01*
X133690144Y-88303510D01*
X133690143Y-88303512D01*
X133678358Y-88344076D01*
X133645938Y-88455669D01*
X133643000Y-88492998D01*
X133643000Y-88926002D01*
X133643193Y-88928450D01*
X133643193Y-88928458D01*
X133645267Y-88954804D01*
X133645938Y-88963331D01*
X133671695Y-89051988D01*
X133687116Y-89105067D01*
X133692355Y-89123101D01*
X133777047Y-89266307D01*
X133779729Y-89268989D01*
X133805002Y-89333361D01*
X133791100Y-89402984D01*
X133780928Y-89418812D01*
X133777047Y-89422693D01*
X133692355Y-89565899D01*
X133690144Y-89573510D01*
X133690143Y-89573512D01*
X133683112Y-89597715D01*
X133645938Y-89725669D01*
X133643000Y-89762998D01*
X133643000Y-90196002D01*
X133643193Y-90198450D01*
X133643193Y-90198458D01*
X133645055Y-90222111D01*
X133645938Y-90233331D01*
X133666915Y-90305534D01*
X133681713Y-90356469D01*
X133692355Y-90393101D01*
X133777047Y-90536307D01*
X133779729Y-90538989D01*
X133805002Y-90603361D01*
X133791100Y-90672984D01*
X133780928Y-90688812D01*
X133777047Y-90692693D01*
X133692355Y-90835899D01*
X133645938Y-90995669D01*
X133643000Y-91032998D01*
X133643000Y-91466002D01*
X133643193Y-91468450D01*
X133643193Y-91468458D01*
X133645390Y-91496365D01*
X133645938Y-91503331D01*
X133672543Y-91594907D01*
X133688798Y-91650856D01*
X133692355Y-91663101D01*
X133777047Y-91806307D01*
X133779729Y-91808989D01*
X133805002Y-91873361D01*
X133791100Y-91942984D01*
X133780925Y-91958815D01*
X133777047Y-91962693D01*
X133773016Y-91969509D01*
X133773013Y-91969513D01*
X133741137Y-92023414D01*
X133719695Y-92050176D01*
X133714393Y-92054028D01*
X133709345Y-92060130D01*
X133709344Y-92060131D01*
X133686202Y-92088105D01*
X133678212Y-92096884D01*
X131765988Y-94009107D01*
X131703676Y-94043133D01*
X131665541Y-94040405D01*
X131665259Y-94044424D01*
X131652077Y-94043500D01*
X128714622Y-94043500D01*
X128701091Y-94047473D01*
X128699956Y-94055370D01*
X128742367Y-94201346D01*
X128742165Y-94272342D01*
X128703611Y-94331959D01*
X128638946Y-94361268D01*
X128621370Y-94362500D01*
X124389048Y-94362500D01*
X124320927Y-94342498D01*
X124274434Y-94288842D01*
X124264330Y-94218568D01*
X124295411Y-94152191D01*
X124310041Y-94135943D01*
X124393221Y-93991871D01*
X124402224Y-93976278D01*
X124402225Y-93976277D01*
X124405528Y-93970555D01*
X124464543Y-93788927D01*
X124466725Y-93768172D01*
X124474949Y-93689922D01*
X124481908Y-93623705D01*
X124508921Y-93558049D01*
X124518123Y-93547781D01*
X126034253Y-92031652D01*
X126042539Y-92024112D01*
X126049018Y-92020000D01*
X126095644Y-91970348D01*
X126098398Y-91967507D01*
X126118135Y-91947770D01*
X126120615Y-91944573D01*
X126128320Y-91935551D01*
X126129250Y-91934561D01*
X126158586Y-91903321D01*
X126162405Y-91896375D01*
X126162407Y-91896372D01*
X126168348Y-91885566D01*
X126179199Y-91869047D01*
X126181749Y-91865759D01*
X126191614Y-91853041D01*
X126194759Y-91845772D01*
X126194762Y-91845768D01*
X126209174Y-91812463D01*
X126214391Y-91801813D01*
X126235695Y-91763060D01*
X126237794Y-91754887D01*
X126239514Y-91748186D01*
X126240733Y-91743437D01*
X126247137Y-91724734D01*
X126252033Y-91713420D01*
X126252033Y-91713419D01*
X126255181Y-91706145D01*
X126256420Y-91698322D01*
X126256423Y-91698312D01*
X126262099Y-91662476D01*
X126264505Y-91650856D01*
X126273528Y-91615711D01*
X126273528Y-91615710D01*
X126275500Y-91608030D01*
X126275500Y-91587776D01*
X126277051Y-91568065D01*
X126278980Y-91555886D01*
X126280220Y-91548057D01*
X126276059Y-91504038D01*
X126275500Y-91492181D01*
X126275500Y-91366433D01*
X126295502Y-91298312D01*
X126337678Y-91259000D01*
X126338705Y-91258615D01*
X126398307Y-91213946D01*
X126416435Y-91200360D01*
X126482942Y-91175512D01*
X126552324Y-91190565D01*
X126567565Y-91200360D01*
X126638108Y-91253229D01*
X126645295Y-91258615D01*
X126781684Y-91309745D01*
X126843866Y-91316500D01*
X127102406Y-91316500D01*
X127170527Y-91336502D01*
X127191501Y-91353405D01*
X127543343Y-91705247D01*
X127550887Y-91713537D01*
X127555000Y-91720018D01*
X127560777Y-91725443D01*
X127604667Y-91766658D01*
X127607509Y-91769413D01*
X127627231Y-91789135D01*
X127630355Y-91791558D01*
X127630359Y-91791562D01*
X127630424Y-91791612D01*
X127639445Y-91799317D01*
X127671679Y-91829586D01*
X127678627Y-91833405D01*
X127678629Y-91833407D01*
X127689432Y-91839346D01*
X127705959Y-91850202D01*
X127715698Y-91857757D01*
X127715700Y-91857758D01*
X127721960Y-91862614D01*
X127762540Y-91880174D01*
X127773188Y-91885391D01*
X127804994Y-91902877D01*
X127804998Y-91902879D01*
X127811940Y-91906695D01*
X127819615Y-91908666D01*
X127820447Y-91908995D01*
X127867700Y-91941836D01*
X127912747Y-91991866D01*
X127992778Y-92050012D01*
X128057885Y-92097315D01*
X128067248Y-92104118D01*
X128073276Y-92106802D01*
X128073278Y-92106803D01*
X128203675Y-92164859D01*
X128241712Y-92181794D01*
X128333353Y-92201273D01*
X128422056Y-92220128D01*
X128422061Y-92220128D01*
X128428513Y-92221500D01*
X128567000Y-92221500D01*
X128635121Y-92241502D01*
X128681614Y-92295158D01*
X128693000Y-92347500D01*
X128693000Y-92736002D01*
X128695938Y-92773331D01*
X128711615Y-92827292D01*
X128729851Y-92890060D01*
X128742355Y-92933101D01*
X128827047Y-93076307D01*
X128829987Y-93079247D01*
X128855320Y-93143766D01*
X128841421Y-93213389D01*
X128829374Y-93232136D01*
X128823410Y-93239824D01*
X128746852Y-93369279D01*
X128740607Y-93383710D01*
X128701561Y-93518105D01*
X128701601Y-93532206D01*
X128708870Y-93535500D01*
X131638378Y-93535500D01*
X131651909Y-93531527D01*
X131653044Y-93523629D01*
X131612393Y-93383710D01*
X131606148Y-93369279D01*
X131529589Y-93239823D01*
X131523629Y-93232140D01*
X131497680Y-93166056D01*
X131511578Y-93096433D01*
X131521921Y-93080339D01*
X131525953Y-93076307D01*
X131610645Y-92933101D01*
X131623150Y-92890060D01*
X131641385Y-92827292D01*
X131657062Y-92773331D01*
X131660000Y-92736002D01*
X131660000Y-92302998D01*
X131658346Y-92281981D01*
X131657567Y-92272079D01*
X131657566Y-92272074D01*
X131657062Y-92265669D01*
X131621568Y-92143495D01*
X131612857Y-92113512D01*
X131612856Y-92113510D01*
X131610645Y-92105899D01*
X131525953Y-91962693D01*
X131523271Y-91960011D01*
X131497998Y-91895639D01*
X131511900Y-91826016D01*
X131522072Y-91810188D01*
X131525953Y-91806307D01*
X131610645Y-91663101D01*
X131614203Y-91650856D01*
X131630457Y-91594907D01*
X131657062Y-91503331D01*
X131657611Y-91496365D01*
X131659807Y-91468458D01*
X131659807Y-91468450D01*
X131660000Y-91466002D01*
X131660000Y-91032998D01*
X131657062Y-90995669D01*
X131610645Y-90835899D01*
X131525953Y-90692693D01*
X131523271Y-90690011D01*
X131497998Y-90625639D01*
X131511900Y-90556016D01*
X131522072Y-90540188D01*
X131525953Y-90536307D01*
X131610645Y-90393101D01*
X131621288Y-90356469D01*
X131636085Y-90305534D01*
X131657062Y-90233331D01*
X131657946Y-90222111D01*
X131659807Y-90198458D01*
X131659807Y-90198450D01*
X131660000Y-90196002D01*
X131660000Y-89762998D01*
X131657062Y-89725669D01*
X131619888Y-89597715D01*
X131612857Y-89573512D01*
X131612856Y-89573510D01*
X131610645Y-89565899D01*
X131525953Y-89422693D01*
X131523271Y-89420011D01*
X131497998Y-89355639D01*
X131511900Y-89286016D01*
X131522072Y-89270188D01*
X131525953Y-89266307D01*
X131610645Y-89123101D01*
X131615885Y-89105067D01*
X131631305Y-89051988D01*
X131657062Y-88963331D01*
X131657734Y-88954804D01*
X131659807Y-88928458D01*
X131659807Y-88928450D01*
X131660000Y-88926002D01*
X131660000Y-88492998D01*
X131657062Y-88455669D01*
X131624642Y-88344076D01*
X131612857Y-88303512D01*
X131612856Y-88303510D01*
X131610645Y-88295899D01*
X131525953Y-88152693D01*
X131523271Y-88150011D01*
X131497998Y-88085639D01*
X131511900Y-88016016D01*
X131522072Y-88000188D01*
X131525953Y-87996307D01*
X131610645Y-87853101D01*
X131657062Y-87693331D01*
X131660000Y-87656002D01*
X131660000Y-87483025D01*
X131680002Y-87414904D01*
X131733658Y-87368411D01*
X131803932Y-87358307D01*
X131836038Y-87367387D01*
G37*
%TD.AperFunction*%
%TA.AperFunction,Conductor*%
G36*
X159329027Y-87839002D02*
G01*
X159350001Y-87855905D01*
X160549255Y-89055159D01*
X160583281Y-89117471D01*
X160585447Y-89157642D01*
X160562251Y-89374695D01*
X160562548Y-89379848D01*
X160562548Y-89379851D01*
X160573714Y-89573512D01*
X160575110Y-89597715D01*
X160576247Y-89602761D01*
X160576248Y-89602767D01*
X160591080Y-89668579D01*
X160624222Y-89815639D01*
X160708266Y-90022616D01*
X160744044Y-90081000D01*
X160816022Y-90198458D01*
X160824987Y-90213088D01*
X160971250Y-90381938D01*
X161143126Y-90524632D01*
X161188250Y-90551000D01*
X161216445Y-90567476D01*
X161265169Y-90619114D01*
X161278240Y-90688897D01*
X161251509Y-90754669D01*
X161211055Y-90788027D01*
X161198607Y-90794507D01*
X161194474Y-90797610D01*
X161194471Y-90797612D01*
X161024100Y-90925530D01*
X161019965Y-90928635D01*
X160999265Y-90950296D01*
X160899490Y-91054705D01*
X160865629Y-91090138D01*
X160862715Y-91094410D01*
X160862714Y-91094411D01*
X160810291Y-91171261D01*
X160739743Y-91274680D01*
X160702639Y-91354614D01*
X160649135Y-91469880D01*
X160645688Y-91477305D01*
X160585989Y-91692570D01*
X160562251Y-91914695D01*
X160562548Y-91919848D01*
X160562548Y-91919851D01*
X160573328Y-92106803D01*
X160575110Y-92137715D01*
X160624222Y-92355639D01*
X160653345Y-92427360D01*
X160665341Y-92456904D01*
X160672437Y-92527545D01*
X160637693Y-92593403D01*
X159770966Y-93460129D01*
X158905500Y-94325595D01*
X158843188Y-94359621D01*
X158816405Y-94362500D01*
X158558358Y-94362500D01*
X158490237Y-94342498D01*
X158443744Y-94288842D01*
X158433640Y-94218568D01*
X158464721Y-94152192D01*
X158536534Y-94072435D01*
X158611926Y-93941852D01*
X158628717Y-93912770D01*
X158628718Y-93912769D01*
X158632021Y-93907047D01*
X158691036Y-93725419D01*
X158710998Y-93535491D01*
X158703907Y-93468027D01*
X158691726Y-93352126D01*
X158691726Y-93352124D01*
X158691036Y-93345563D01*
X158632021Y-93163935D01*
X158620377Y-93143766D01*
X158539837Y-93004268D01*
X158539835Y-93004265D01*
X158536534Y-92998547D01*
X158524813Y-92985529D01*
X158487864Y-92944494D01*
X158457147Y-92880486D01*
X158455500Y-92860183D01*
X158455500Y-91366433D01*
X158475502Y-91298312D01*
X158517678Y-91259000D01*
X158518705Y-91258615D01*
X158635261Y-91171261D01*
X158722615Y-91054705D01*
X158773745Y-90918316D01*
X158780500Y-90856134D01*
X158780500Y-90359866D01*
X158775406Y-90312973D01*
X158774598Y-90305534D01*
X158774598Y-90305532D01*
X158773745Y-90297684D01*
X158763107Y-90269307D01*
X158756705Y-90252229D01*
X158751522Y-90181422D01*
X158756705Y-90163771D01*
X158770973Y-90125711D01*
X158770973Y-90125709D01*
X158773745Y-90118316D01*
X158774921Y-90107497D01*
X158780131Y-90059531D01*
X158780500Y-90056134D01*
X158780500Y-89559866D01*
X158777712Y-89534199D01*
X158774598Y-89505534D01*
X158774598Y-89505532D01*
X158773745Y-89497684D01*
X158770539Y-89489131D01*
X158756705Y-89452229D01*
X158751522Y-89381422D01*
X158756705Y-89363771D01*
X158770973Y-89325711D01*
X158770973Y-89325709D01*
X158773745Y-89318316D01*
X158777059Y-89287815D01*
X158780131Y-89259531D01*
X158780500Y-89256134D01*
X158780500Y-88759866D01*
X158773745Y-88697684D01*
X158756705Y-88652229D01*
X158751522Y-88581422D01*
X158756705Y-88563771D01*
X158770973Y-88525711D01*
X158770973Y-88525709D01*
X158773745Y-88518316D01*
X158776496Y-88492998D01*
X158780131Y-88459531D01*
X158780500Y-88456134D01*
X158780500Y-87959866D01*
X158780131Y-87956469D01*
X158779947Y-87953072D01*
X158781378Y-87952995D01*
X158792876Y-87888755D01*
X158841183Y-87836727D01*
X158905626Y-87819000D01*
X159260906Y-87819000D01*
X159329027Y-87839002D01*
G37*
%TD.AperFunction*%
%TA.AperFunction,Conductor*%
G36*
X149969753Y-87235449D02*
G01*
X149982689Y-87247596D01*
X149989635Y-87251415D01*
X149989638Y-87251417D01*
X150000444Y-87257358D01*
X150016963Y-87268209D01*
X150032969Y-87280624D01*
X150040238Y-87283769D01*
X150040242Y-87283772D01*
X150073547Y-87298184D01*
X150084197Y-87303401D01*
X150122950Y-87324705D01*
X150138510Y-87328700D01*
X150142572Y-87329743D01*
X150161277Y-87336147D01*
X150179865Y-87344191D01*
X150187688Y-87345430D01*
X150187698Y-87345433D01*
X150223534Y-87351109D01*
X150235154Y-87353515D01*
X150270299Y-87362538D01*
X150277980Y-87364510D01*
X150298234Y-87364510D01*
X150317944Y-87366061D01*
X150337953Y-87369230D01*
X150345845Y-87368484D01*
X150381971Y-87365069D01*
X150393829Y-87364510D01*
X151614500Y-87364510D01*
X151682621Y-87384512D01*
X151729114Y-87438168D01*
X151740500Y-87490510D01*
X151740500Y-87592502D01*
X151743438Y-87629831D01*
X151751755Y-87658458D01*
X151786642Y-87778540D01*
X151789855Y-87789601D01*
X151874547Y-87932807D01*
X151877229Y-87935489D01*
X151902502Y-87999861D01*
X151888600Y-88069484D01*
X151878428Y-88085312D01*
X151874547Y-88089193D01*
X151789855Y-88232399D01*
X151787644Y-88240010D01*
X151787643Y-88240012D01*
X151778901Y-88270104D01*
X151743438Y-88392169D01*
X151742934Y-88398574D01*
X151742933Y-88398579D01*
X151741651Y-88414870D01*
X151740500Y-88429498D01*
X151740500Y-88862502D01*
X151740693Y-88864950D01*
X151740693Y-88864958D01*
X151742444Y-88887200D01*
X151743438Y-88899831D01*
X151789855Y-89059601D01*
X151874547Y-89202807D01*
X151877229Y-89205489D01*
X151902502Y-89269861D01*
X151888600Y-89339484D01*
X151878428Y-89355312D01*
X151874547Y-89359193D01*
X151789855Y-89502399D01*
X151743438Y-89662169D01*
X151742934Y-89668574D01*
X151742933Y-89668579D01*
X151740770Y-89696069D01*
X151740500Y-89699498D01*
X151740500Y-90132502D01*
X151740693Y-90134950D01*
X151740693Y-90134958D01*
X151742901Y-90163006D01*
X151743438Y-90169831D01*
X151761751Y-90232866D01*
X151787555Y-90321683D01*
X151789855Y-90329601D01*
X151874547Y-90472807D01*
X151877229Y-90475489D01*
X151902502Y-90539861D01*
X151888600Y-90609484D01*
X151878428Y-90625312D01*
X151874547Y-90629193D01*
X151789855Y-90772399D01*
X151787644Y-90780010D01*
X151787643Y-90780012D01*
X151778901Y-90810104D01*
X151743438Y-90932169D01*
X151742934Y-90938574D01*
X151742933Y-90938579D01*
X151741081Y-90962116D01*
X151740500Y-90969498D01*
X151740500Y-91402502D01*
X151740693Y-91404950D01*
X151740693Y-91404958D01*
X151742926Y-91433321D01*
X151743438Y-91439831D01*
X151761769Y-91502928D01*
X151786420Y-91587776D01*
X151789855Y-91599601D01*
X151874547Y-91742807D01*
X151877229Y-91745489D01*
X151902502Y-91809861D01*
X151888600Y-91879484D01*
X151878425Y-91895315D01*
X151874547Y-91899193D01*
X151870516Y-91906009D01*
X151870513Y-91906013D01*
X151858678Y-91926026D01*
X151840224Y-91957231D01*
X151838637Y-91959914D01*
X151817198Y-91986673D01*
X151811893Y-91990528D01*
X151806840Y-91996636D01*
X151806839Y-91996637D01*
X151783712Y-92024593D01*
X151775722Y-92033373D01*
X149863488Y-93945607D01*
X149801176Y-93979633D01*
X149763041Y-93976905D01*
X149762759Y-93980924D01*
X149749577Y-93980000D01*
X146812122Y-93980000D01*
X146798591Y-93983973D01*
X146797456Y-93991871D01*
X146838107Y-94131790D01*
X146844352Y-94146221D01*
X146859811Y-94172361D01*
X146877270Y-94241177D01*
X146854753Y-94308509D01*
X146799409Y-94352978D01*
X146751357Y-94362500D01*
X142525252Y-94362500D01*
X142457131Y-94342498D01*
X142410638Y-94288842D01*
X142400534Y-94218568D01*
X142405419Y-94197564D01*
X142432994Y-94112696D01*
X142435034Y-94106418D01*
X142437269Y-94085158D01*
X142445686Y-94005066D01*
X142452399Y-93941196D01*
X142479412Y-93875540D01*
X142488614Y-93865272D01*
X144195247Y-92158639D01*
X144203537Y-92151095D01*
X144210018Y-92146982D01*
X144256659Y-92097314D01*
X144259413Y-92094473D01*
X144279134Y-92074752D01*
X144281612Y-92071557D01*
X144289318Y-92062535D01*
X144314158Y-92036083D01*
X144319586Y-92030303D01*
X144329346Y-92012550D01*
X144340199Y-91996027D01*
X144342806Y-91992666D01*
X144352613Y-91980023D01*
X144370176Y-91939439D01*
X144375383Y-91928809D01*
X144396695Y-91890042D01*
X144398666Y-91882365D01*
X144398668Y-91882360D01*
X144401732Y-91870424D01*
X144408138Y-91851712D01*
X144408792Y-91850202D01*
X144416181Y-91833127D01*
X144417421Y-91825299D01*
X144417423Y-91825292D01*
X144423099Y-91789458D01*
X144425505Y-91777838D01*
X144434528Y-91742693D01*
X144434528Y-91742692D01*
X144436500Y-91735012D01*
X144436500Y-91714758D01*
X144438051Y-91695047D01*
X144439980Y-91682868D01*
X144441220Y-91675039D01*
X144437059Y-91631020D01*
X144436500Y-91619163D01*
X144436500Y-91366433D01*
X144456502Y-91298312D01*
X144498678Y-91259000D01*
X144499705Y-91258615D01*
X144559307Y-91213946D01*
X144577435Y-91200360D01*
X144643942Y-91175512D01*
X144713324Y-91190565D01*
X144728565Y-91200360D01*
X144799108Y-91253229D01*
X144806295Y-91258615D01*
X144942684Y-91309745D01*
X145004866Y-91316500D01*
X145263406Y-91316500D01*
X145331527Y-91336502D01*
X145352501Y-91353405D01*
X145704343Y-91705247D01*
X145711887Y-91713537D01*
X145716000Y-91720018D01*
X145721777Y-91725443D01*
X145765667Y-91766658D01*
X145768509Y-91769413D01*
X145788231Y-91789135D01*
X145791355Y-91791558D01*
X145791359Y-91791562D01*
X145791424Y-91791612D01*
X145800445Y-91799317D01*
X145832679Y-91829586D01*
X145839627Y-91833405D01*
X145839629Y-91833407D01*
X145850432Y-91839346D01*
X145866959Y-91850202D01*
X145876698Y-91857757D01*
X145876700Y-91857758D01*
X145882960Y-91862614D01*
X145923540Y-91880174D01*
X145934188Y-91885391D01*
X145965994Y-91902877D01*
X145965998Y-91902879D01*
X145972940Y-91906695D01*
X145980615Y-91908666D01*
X145981447Y-91908995D01*
X146028700Y-91941836D01*
X146073747Y-91991866D01*
X146153778Y-92050012D01*
X146218885Y-92097315D01*
X146228248Y-92104118D01*
X146234276Y-92106802D01*
X146234278Y-92106803D01*
X146364675Y-92164859D01*
X146402712Y-92181794D01*
X146494353Y-92201273D01*
X146583056Y-92220128D01*
X146583061Y-92220128D01*
X146589513Y-92221500D01*
X146664500Y-92221500D01*
X146732621Y-92241502D01*
X146779114Y-92295158D01*
X146790500Y-92347500D01*
X146790500Y-92672502D01*
X146790693Y-92674950D01*
X146790693Y-92674958D01*
X146792194Y-92694020D01*
X146793438Y-92709831D01*
X146801755Y-92738458D01*
X146828783Y-92831489D01*
X146839855Y-92869601D01*
X146862889Y-92908550D01*
X146908320Y-92985368D01*
X146924547Y-93012807D01*
X146927487Y-93015747D01*
X146952820Y-93080266D01*
X146938921Y-93149889D01*
X146926874Y-93168636D01*
X146920910Y-93176324D01*
X146844352Y-93305779D01*
X146838107Y-93320210D01*
X146799061Y-93454605D01*
X146799101Y-93468706D01*
X146806370Y-93472000D01*
X149735878Y-93472000D01*
X149749409Y-93468027D01*
X149750544Y-93460129D01*
X149709893Y-93320210D01*
X149703648Y-93305779D01*
X149627089Y-93176323D01*
X149621129Y-93168640D01*
X149595180Y-93102556D01*
X149609078Y-93032933D01*
X149619421Y-93016839D01*
X149623453Y-93012807D01*
X149708145Y-92869601D01*
X149719218Y-92831489D01*
X149746245Y-92738458D01*
X149754562Y-92709831D01*
X149755807Y-92694020D01*
X149757307Y-92674958D01*
X149757307Y-92674950D01*
X149757500Y-92672502D01*
X149757500Y-92239498D01*
X149756980Y-92232886D01*
X149755067Y-92208579D01*
X149755066Y-92208574D01*
X149754562Y-92202169D01*
X149718358Y-92077554D01*
X149710357Y-92050012D01*
X149710356Y-92050010D01*
X149708145Y-92042399D01*
X149623453Y-91899193D01*
X149620771Y-91896511D01*
X149595498Y-91832139D01*
X149609400Y-91762516D01*
X149619572Y-91746688D01*
X149623453Y-91742807D01*
X149708145Y-91599601D01*
X149711581Y-91587776D01*
X149736231Y-91502928D01*
X149754562Y-91439831D01*
X149755075Y-91433321D01*
X149757307Y-91404958D01*
X149757307Y-91404950D01*
X149757500Y-91402502D01*
X149757500Y-90969498D01*
X149756919Y-90962116D01*
X149755067Y-90938579D01*
X149755066Y-90938574D01*
X149754562Y-90932169D01*
X149719099Y-90810104D01*
X149710357Y-90780012D01*
X149710356Y-90780010D01*
X149708145Y-90772399D01*
X149623453Y-90629193D01*
X149620771Y-90626511D01*
X149595498Y-90562139D01*
X149609400Y-90492516D01*
X149619572Y-90476688D01*
X149623453Y-90472807D01*
X149708145Y-90329601D01*
X149710446Y-90321683D01*
X149736249Y-90232866D01*
X149754562Y-90169831D01*
X149755100Y-90163006D01*
X149757307Y-90134958D01*
X149757307Y-90134950D01*
X149757500Y-90132502D01*
X149757500Y-89699498D01*
X149757230Y-89696069D01*
X149755067Y-89668579D01*
X149755066Y-89668574D01*
X149754562Y-89662169D01*
X149708145Y-89502399D01*
X149623453Y-89359193D01*
X149620771Y-89356511D01*
X149595498Y-89292139D01*
X149609400Y-89222516D01*
X149619572Y-89206688D01*
X149623453Y-89202807D01*
X149708145Y-89059601D01*
X149754562Y-88899831D01*
X149755557Y-88887200D01*
X149757307Y-88864958D01*
X149757307Y-88864950D01*
X149757500Y-88862502D01*
X149757500Y-88429498D01*
X149756349Y-88414870D01*
X149755067Y-88398579D01*
X149755066Y-88398574D01*
X149754562Y-88392169D01*
X149719099Y-88270104D01*
X149710357Y-88240012D01*
X149710356Y-88240010D01*
X149708145Y-88232399D01*
X149623453Y-88089193D01*
X149620771Y-88086511D01*
X149595498Y-88022139D01*
X149609400Y-87952516D01*
X149619572Y-87936688D01*
X149623453Y-87932807D01*
X149708145Y-87789601D01*
X149711359Y-87778540D01*
X149746245Y-87658458D01*
X149754562Y-87629831D01*
X149757500Y-87592502D01*
X149757500Y-87327298D01*
X149777502Y-87259177D01*
X149831158Y-87212684D01*
X149901432Y-87202580D01*
X149969753Y-87235449D01*
G37*
%TD.AperFunction*%
%TA.AperFunction,Conductor*%
G36*
X157032324Y-91190565D02*
G01*
X157047565Y-91200360D01*
X157065693Y-91213946D01*
X157125295Y-91258615D01*
X157125951Y-91258861D01*
X157173157Y-91306175D01*
X157188500Y-91366433D01*
X157188500Y-92805750D01*
X157168498Y-92873871D01*
X157156136Y-92890060D01*
X157124237Y-92925488D01*
X157058454Y-92998547D01*
X157027454Y-93052240D01*
X156974612Y-93143766D01*
X156962967Y-93163935D01*
X156903952Y-93345563D01*
X156903262Y-93352124D01*
X156903262Y-93352126D01*
X156891081Y-93468027D01*
X156883990Y-93535491D01*
X156903952Y-93725419D01*
X156962967Y-93907047D01*
X156966270Y-93912769D01*
X156966271Y-93912770D01*
X156983062Y-93941852D01*
X157058454Y-94072435D01*
X157130267Y-94152192D01*
X157160983Y-94216197D01*
X157152219Y-94286650D01*
X157106757Y-94341182D01*
X157036630Y-94362500D01*
X154747225Y-94362500D01*
X154679104Y-94342498D01*
X154632611Y-94288842D01*
X154622507Y-94218568D01*
X154638771Y-94172361D01*
X154654110Y-94146424D01*
X154654110Y-94146423D01*
X154658145Y-94139601D01*
X154660415Y-94131790D01*
X154678306Y-94070205D01*
X154704562Y-93979831D01*
X154705293Y-93970555D01*
X154707307Y-93944958D01*
X154707307Y-93944950D01*
X154707500Y-93942502D01*
X154707500Y-93509498D01*
X154707307Y-93507042D01*
X154705067Y-93478579D01*
X154705066Y-93478574D01*
X154704562Y-93472169D01*
X154673209Y-93364250D01*
X154660357Y-93320012D01*
X154660356Y-93320010D01*
X154658145Y-93312399D01*
X154573453Y-93169193D01*
X154570771Y-93166511D01*
X154545498Y-93102139D01*
X154559400Y-93032516D01*
X154569572Y-93016688D01*
X154573453Y-93012807D01*
X154658145Y-92869601D01*
X154669218Y-92831489D01*
X154696245Y-92738458D01*
X154704562Y-92709831D01*
X154705807Y-92694020D01*
X154707307Y-92674958D01*
X154707307Y-92674950D01*
X154707500Y-92672502D01*
X154707500Y-92239498D01*
X154706980Y-92232886D01*
X154705067Y-92208579D01*
X154705066Y-92208574D01*
X154704562Y-92202169D01*
X154702768Y-92195993D01*
X154702767Y-92195989D01*
X154698124Y-92180008D01*
X154696906Y-92175817D01*
X154697107Y-92104820D01*
X154735660Y-92045204D01*
X154800325Y-92015894D01*
X154844098Y-92017415D01*
X154894392Y-92028105D01*
X154908013Y-92031000D01*
X155098987Y-92031000D01*
X155105439Y-92029628D01*
X155105444Y-92029628D01*
X155205758Y-92008305D01*
X155285788Y-91991294D01*
X155302546Y-91983833D01*
X155454222Y-91916303D01*
X155454224Y-91916302D01*
X155460252Y-91913618D01*
X155466471Y-91909100D01*
X155609414Y-91805245D01*
X155614753Y-91801366D01*
X155619168Y-91796463D01*
X155624080Y-91792040D01*
X155625205Y-91793289D01*
X155678514Y-91760449D01*
X155711700Y-91756000D01*
X155978733Y-91756000D01*
X155989916Y-91756527D01*
X155997409Y-91758202D01*
X156005335Y-91757953D01*
X156005336Y-91757953D01*
X156065486Y-91756062D01*
X156069445Y-91756000D01*
X156097356Y-91756000D01*
X156101291Y-91755503D01*
X156101356Y-91755495D01*
X156113193Y-91754562D01*
X156145451Y-91753548D01*
X156149470Y-91753422D01*
X156157389Y-91753173D01*
X156176843Y-91747521D01*
X156196200Y-91743513D01*
X156208430Y-91741968D01*
X156208431Y-91741968D01*
X156216297Y-91740974D01*
X156223668Y-91738055D01*
X156223670Y-91738055D01*
X156257412Y-91724696D01*
X156268642Y-91720851D01*
X156303483Y-91710729D01*
X156303484Y-91710729D01*
X156311093Y-91708518D01*
X156317912Y-91704485D01*
X156317917Y-91704483D01*
X156328528Y-91698207D01*
X156346276Y-91689512D01*
X156365117Y-91682052D01*
X156392062Y-91662476D01*
X156400887Y-91656064D01*
X156410807Y-91649548D01*
X156442035Y-91631080D01*
X156442038Y-91631078D01*
X156448862Y-91627042D01*
X156463186Y-91612718D01*
X156478213Y-91599883D01*
X156494607Y-91587972D01*
X156499661Y-91581863D01*
X156499663Y-91581861D01*
X156515310Y-91562947D01*
X156526937Y-91551320D01*
X156529018Y-91550000D01*
X156575646Y-91500346D01*
X156578400Y-91497505D01*
X156598135Y-91477770D01*
X156600615Y-91474573D01*
X156608320Y-91465551D01*
X156610215Y-91463533D01*
X156638586Y-91433321D01*
X156642405Y-91426375D01*
X156642407Y-91426372D01*
X156648348Y-91415566D01*
X156659199Y-91399047D01*
X156664217Y-91392577D01*
X156671614Y-91383041D01*
X156686135Y-91349485D01*
X156731546Y-91294911D01*
X156757542Y-91281544D01*
X156810297Y-91261767D01*
X156818705Y-91258615D01*
X156825892Y-91253229D01*
X156896435Y-91200360D01*
X156962942Y-91175512D01*
X157032324Y-91190565D01*
G37*
%TD.AperFunction*%
%TA.AperFunction,Conductor*%
G36*
X120837324Y-91190565D02*
G01*
X120852565Y-91200360D01*
X120870693Y-91213946D01*
X120930295Y-91258615D01*
X120930951Y-91258861D01*
X120978157Y-91306175D01*
X120993500Y-91366433D01*
X120993500Y-91576231D01*
X120992973Y-91587414D01*
X120991298Y-91594907D01*
X120991547Y-91602833D01*
X120991547Y-91602834D01*
X120993438Y-91662984D01*
X120993500Y-91666943D01*
X120993500Y-91694854D01*
X120993997Y-91698788D01*
X120993997Y-91698789D01*
X120994005Y-91698854D01*
X120994938Y-91710691D01*
X120996327Y-91754887D01*
X121000718Y-91770001D01*
X121001978Y-91774337D01*
X121005987Y-91793698D01*
X121008526Y-91813795D01*
X121011445Y-91821166D01*
X121011445Y-91821168D01*
X121024804Y-91854910D01*
X121028649Y-91866140D01*
X121038252Y-91899193D01*
X121040982Y-91908591D01*
X121045015Y-91915410D01*
X121045017Y-91915415D01*
X121051293Y-91926026D01*
X121059988Y-91943774D01*
X121067448Y-91962615D01*
X121072110Y-91969031D01*
X121072110Y-91969032D01*
X121093436Y-91998385D01*
X121099952Y-92008305D01*
X121116079Y-92035573D01*
X121122458Y-92046360D01*
X121136779Y-92060681D01*
X121149619Y-92075714D01*
X121161528Y-92092105D01*
X121167634Y-92097156D01*
X121195605Y-92120296D01*
X121204384Y-92128286D01*
X122623879Y-93547781D01*
X122657905Y-93610093D01*
X122660093Y-93623702D01*
X122667053Y-93689922D01*
X122675278Y-93768172D01*
X122677459Y-93788927D01*
X122736474Y-93970555D01*
X122739777Y-93976277D01*
X122739778Y-93976278D01*
X122748781Y-93991871D01*
X122831961Y-94135943D01*
X122846591Y-94152192D01*
X122877307Y-94216197D01*
X122868544Y-94286650D01*
X122823081Y-94341181D01*
X122752954Y-94362500D01*
X118648152Y-94362500D01*
X118580031Y-94342498D01*
X118533538Y-94288842D01*
X118523434Y-94218568D01*
X118527155Y-94201348D01*
X118571267Y-94049511D01*
X118571268Y-94049507D01*
X118573062Y-94043331D01*
X118573666Y-94035665D01*
X118575807Y-94008458D01*
X118575807Y-94008450D01*
X118576000Y-94006002D01*
X118576000Y-93572998D01*
X118575807Y-93570542D01*
X118573567Y-93542079D01*
X118573566Y-93542074D01*
X118573062Y-93535669D01*
X118534407Y-93402615D01*
X118528857Y-93383512D01*
X118528856Y-93383510D01*
X118526645Y-93375899D01*
X118441953Y-93232693D01*
X118439271Y-93230011D01*
X118413998Y-93165639D01*
X118427900Y-93096016D01*
X118438072Y-93080188D01*
X118441953Y-93076307D01*
X118526645Y-92933101D01*
X118539150Y-92890060D01*
X118557385Y-92827292D01*
X118573062Y-92773331D01*
X118576000Y-92736002D01*
X118576000Y-92347500D01*
X118596002Y-92279379D01*
X118649658Y-92232886D01*
X118702000Y-92221500D01*
X118840487Y-92221500D01*
X118846939Y-92220128D01*
X118846944Y-92220128D01*
X118935647Y-92201273D01*
X119027288Y-92181794D01*
X119065325Y-92164859D01*
X119195722Y-92106803D01*
X119195724Y-92106802D01*
X119201752Y-92104118D01*
X119211116Y-92097315D01*
X119276222Y-92050012D01*
X119356253Y-91991866D01*
X119360675Y-91986955D01*
X119479621Y-91854852D01*
X119479622Y-91854851D01*
X119484040Y-91849944D01*
X119551563Y-91732991D01*
X119576223Y-91690279D01*
X119576224Y-91690278D01*
X119579527Y-91684556D01*
X119638542Y-91502928D01*
X119640892Y-91480574D01*
X119642470Y-91465551D01*
X119646277Y-91429329D01*
X119673290Y-91363673D01*
X119731511Y-91323043D01*
X119771587Y-91316500D01*
X120425134Y-91316500D01*
X120487316Y-91309745D01*
X120623705Y-91258615D01*
X120630892Y-91253229D01*
X120701435Y-91200360D01*
X120767942Y-91175512D01*
X120837324Y-91190565D01*
G37*
%TD.AperFunction*%
%TA.AperFunction,Conductor*%
G36*
X138871324Y-91063565D02*
G01*
X138886565Y-91073360D01*
X138908952Y-91090138D01*
X138964295Y-91131615D01*
X138964951Y-91131861D01*
X139012157Y-91179175D01*
X139027500Y-91239433D01*
X139027500Y-91957231D01*
X139026973Y-91968414D01*
X139025298Y-91975907D01*
X139025547Y-91983832D01*
X139025547Y-91983833D01*
X139027438Y-92043977D01*
X139027500Y-92047936D01*
X139027500Y-92075854D01*
X139027997Y-92079788D01*
X139027997Y-92079789D01*
X139028005Y-92079854D01*
X139028938Y-92091691D01*
X139030327Y-92135887D01*
X139034616Y-92150650D01*
X139035978Y-92155337D01*
X139039987Y-92174698D01*
X139040884Y-92181794D01*
X139042526Y-92194795D01*
X139045445Y-92202166D01*
X139045445Y-92202168D01*
X139058804Y-92235910D01*
X139062649Y-92247140D01*
X139067755Y-92264715D01*
X139074982Y-92289591D01*
X139079015Y-92296410D01*
X139079017Y-92296415D01*
X139085293Y-92307026D01*
X139093988Y-92324774D01*
X139101448Y-92343615D01*
X139106110Y-92350031D01*
X139106110Y-92350032D01*
X139127436Y-92379385D01*
X139133952Y-92389305D01*
X139156458Y-92427360D01*
X139170779Y-92441681D01*
X139183619Y-92456714D01*
X139195528Y-92473105D01*
X139201634Y-92478156D01*
X139229605Y-92501296D01*
X139238384Y-92509286D01*
X140594370Y-93865272D01*
X140628396Y-93927584D01*
X140630584Y-93941193D01*
X140637298Y-94005066D01*
X140645716Y-94085158D01*
X140647950Y-94106418D01*
X140649990Y-94112696D01*
X140677565Y-94197564D01*
X140679592Y-94268532D01*
X140642930Y-94329329D01*
X140579218Y-94360655D01*
X140557732Y-94362500D01*
X137155595Y-94362500D01*
X137087474Y-94342498D01*
X137066500Y-94325595D01*
X136646905Y-93906000D01*
X136612879Y-93843688D01*
X136610000Y-93816905D01*
X136610000Y-93572998D01*
X136609807Y-93570542D01*
X136607567Y-93542079D01*
X136607566Y-93542074D01*
X136607062Y-93535669D01*
X136568407Y-93402615D01*
X136562857Y-93383512D01*
X136562856Y-93383510D01*
X136560645Y-93375899D01*
X136475953Y-93232693D01*
X136473271Y-93230011D01*
X136447998Y-93165639D01*
X136461900Y-93096016D01*
X136472072Y-93080188D01*
X136475953Y-93076307D01*
X136560645Y-92933101D01*
X136573150Y-92890060D01*
X136591385Y-92827292D01*
X136607062Y-92773331D01*
X136610000Y-92736002D01*
X136610000Y-92347500D01*
X136630002Y-92279379D01*
X136683658Y-92232886D01*
X136736000Y-92221500D01*
X136874487Y-92221500D01*
X136880939Y-92220128D01*
X136880944Y-92220128D01*
X136969647Y-92201273D01*
X137061288Y-92181794D01*
X137099325Y-92164859D01*
X137229722Y-92106803D01*
X137229724Y-92106802D01*
X137235752Y-92104118D01*
X137245116Y-92097315D01*
X137310222Y-92050012D01*
X137390253Y-91991866D01*
X137394675Y-91986955D01*
X137513621Y-91854852D01*
X137513622Y-91854851D01*
X137518040Y-91849944D01*
X137585563Y-91732991D01*
X137610223Y-91690279D01*
X137610224Y-91690278D01*
X137613527Y-91684556D01*
X137672542Y-91502928D01*
X137674711Y-91482297D01*
X137683497Y-91398695D01*
X137689907Y-91337706D01*
X137716920Y-91272050D01*
X137726122Y-91261782D01*
X137761499Y-91226405D01*
X137823811Y-91192379D01*
X137850594Y-91189500D01*
X138459134Y-91189500D01*
X138521316Y-91182745D01*
X138657705Y-91131615D01*
X138664892Y-91126229D01*
X138735435Y-91073360D01*
X138801942Y-91048512D01*
X138871324Y-91063565D01*
G37*
%TD.AperFunction*%
%TA.AperFunction,Conductor*%
G36*
X146054677Y-86628023D02*
G01*
X146101170Y-86681679D01*
X146111274Y-86751953D01*
X146081780Y-86816533D01*
X146075753Y-86822677D01*
X146073747Y-86824134D01*
X146026823Y-86876248D01*
X145968340Y-86912933D01*
X145962020Y-86914769D01*
X145962018Y-86914770D01*
X145954407Y-86916981D01*
X145947584Y-86921016D01*
X145936966Y-86927295D01*
X145919213Y-86935992D01*
X145911568Y-86939019D01*
X145900383Y-86943448D01*
X145893968Y-86948109D01*
X145864612Y-86969437D01*
X145854695Y-86975951D01*
X145816638Y-86998458D01*
X145802317Y-87012779D01*
X145787284Y-87025619D01*
X145770893Y-87037528D01*
X145744516Y-87069413D01*
X145742712Y-87071593D01*
X145734722Y-87080374D01*
X145352499Y-87462596D01*
X145290187Y-87496621D01*
X145263404Y-87499500D01*
X145004866Y-87499500D01*
X144942684Y-87506255D01*
X144806295Y-87557385D01*
X144799110Y-87562770D01*
X144799108Y-87562771D01*
X144728565Y-87615640D01*
X144662058Y-87640488D01*
X144592676Y-87625435D01*
X144577435Y-87615640D01*
X144506892Y-87562771D01*
X144506890Y-87562770D01*
X144499705Y-87557385D01*
X144363316Y-87506255D01*
X144301134Y-87499500D01*
X143304866Y-87499500D01*
X143242684Y-87506255D01*
X143106295Y-87557385D01*
X142989739Y-87644739D01*
X142902385Y-87761295D01*
X142851255Y-87897684D01*
X142844500Y-87959866D01*
X142844500Y-88456134D01*
X142844869Y-88459531D01*
X142848505Y-88492998D01*
X142851255Y-88518316D01*
X142854027Y-88525709D01*
X142854027Y-88525711D01*
X142868295Y-88563771D01*
X142873478Y-88634578D01*
X142868295Y-88652229D01*
X142851255Y-88697684D01*
X142844500Y-88759866D01*
X142844500Y-89256134D01*
X142844869Y-89259531D01*
X142847942Y-89287815D01*
X142851255Y-89318316D01*
X142854027Y-89325709D01*
X142854027Y-89325711D01*
X142868295Y-89363771D01*
X142873478Y-89434578D01*
X142868295Y-89452229D01*
X142854461Y-89489131D01*
X142851255Y-89497684D01*
X142850402Y-89505532D01*
X142850402Y-89505534D01*
X142847288Y-89534199D01*
X142844500Y-89559866D01*
X142844500Y-90056134D01*
X142844869Y-90059531D01*
X142850080Y-90107497D01*
X142851255Y-90118316D01*
X142854027Y-90125709D01*
X142854027Y-90125711D01*
X142868295Y-90163771D01*
X142873478Y-90234578D01*
X142868295Y-90252229D01*
X142861893Y-90269307D01*
X142851255Y-90297684D01*
X142850402Y-90305532D01*
X142850402Y-90305534D01*
X142849594Y-90312973D01*
X142844500Y-90359866D01*
X142844500Y-90856134D01*
X142851255Y-90918316D01*
X142902385Y-91054705D01*
X142989739Y-91171261D01*
X142996919Y-91176642D01*
X143102703Y-91255923D01*
X143145218Y-91312782D01*
X143150244Y-91383601D01*
X143116233Y-91445844D01*
X141630587Y-92931490D01*
X141568275Y-92965516D01*
X141497460Y-92960451D01*
X141452397Y-92931490D01*
X140331405Y-91810498D01*
X140297379Y-91748186D01*
X140294500Y-91721403D01*
X140294500Y-91239433D01*
X140314502Y-91171312D01*
X140356678Y-91132000D01*
X140357705Y-91131615D01*
X140474261Y-91044261D01*
X140561615Y-90927705D01*
X140612745Y-90791316D01*
X140619500Y-90729134D01*
X140619500Y-90232866D01*
X140617695Y-90216246D01*
X140613598Y-90178534D01*
X140613598Y-90178532D01*
X140612745Y-90170684D01*
X140606487Y-90153990D01*
X140595705Y-90125229D01*
X140590522Y-90054422D01*
X140595705Y-90036771D01*
X140609973Y-89998711D01*
X140609973Y-89998709D01*
X140612745Y-89991316D01*
X140616122Y-89960235D01*
X140619131Y-89932531D01*
X140619500Y-89929134D01*
X140619500Y-89432866D01*
X140616799Y-89408000D01*
X140613598Y-89378534D01*
X140613598Y-89378532D01*
X140612745Y-89370684D01*
X140608437Y-89359193D01*
X140595705Y-89325229D01*
X140590522Y-89254422D01*
X140595705Y-89236771D01*
X140609973Y-89198711D01*
X140609973Y-89198709D01*
X140612745Y-89191316D01*
X140619500Y-89129134D01*
X140619500Y-88632866D01*
X140615519Y-88596221D01*
X140613598Y-88578534D01*
X140613598Y-88578532D01*
X140612745Y-88570684D01*
X140601943Y-88541870D01*
X140595705Y-88525229D01*
X140590522Y-88454422D01*
X140595705Y-88436771D01*
X140609973Y-88398711D01*
X140609973Y-88398709D01*
X140612745Y-88391316D01*
X140616718Y-88354748D01*
X140619131Y-88332531D01*
X140619500Y-88329134D01*
X140619500Y-87832866D01*
X140612745Y-87770684D01*
X140561615Y-87634295D01*
X140474261Y-87517739D01*
X140357705Y-87430385D01*
X140221316Y-87379255D01*
X140159134Y-87372500D01*
X139162866Y-87372500D01*
X139100684Y-87379255D01*
X138964295Y-87430385D01*
X138957110Y-87435770D01*
X138957108Y-87435771D01*
X138886565Y-87488640D01*
X138820058Y-87513488D01*
X138750676Y-87498435D01*
X138735435Y-87488640D01*
X138664892Y-87435771D01*
X138664890Y-87435770D01*
X138657705Y-87430385D01*
X138521316Y-87379255D01*
X138459134Y-87372500D01*
X137805587Y-87372500D01*
X137737466Y-87352498D01*
X137690973Y-87298842D01*
X137680277Y-87259670D01*
X137677669Y-87234849D01*
X137672542Y-87186072D01*
X137613527Y-87004444D01*
X137608075Y-86995000D01*
X137548846Y-86892414D01*
X137518040Y-86839056D01*
X137499378Y-86818330D01*
X137468662Y-86754324D01*
X137477425Y-86683871D01*
X137522888Y-86629339D01*
X137593015Y-86608021D01*
X145986556Y-86608021D01*
X146054677Y-86628023D01*
G37*
%TD.AperFunction*%
%TA.AperFunction,Conductor*%
G36*
X127720191Y-86823002D02*
G01*
X127766684Y-86876658D01*
X127776788Y-86946932D01*
X127761189Y-86992000D01*
X127697437Y-87102422D01*
X127694133Y-87108145D01*
X127635118Y-87289773D01*
X127634428Y-87296334D01*
X127634428Y-87296336D01*
X127629268Y-87345433D01*
X127625213Y-87384020D01*
X127624934Y-87386670D01*
X127597921Y-87452327D01*
X127539700Y-87492957D01*
X127499624Y-87499500D01*
X126843866Y-87499500D01*
X126781684Y-87506255D01*
X126645295Y-87557385D01*
X126638110Y-87562770D01*
X126638108Y-87562771D01*
X126567565Y-87615640D01*
X126501058Y-87640488D01*
X126431676Y-87625435D01*
X126416435Y-87615640D01*
X126345892Y-87562771D01*
X126345890Y-87562770D01*
X126338705Y-87557385D01*
X126202316Y-87506255D01*
X126140134Y-87499500D01*
X125143866Y-87499500D01*
X125081684Y-87506255D01*
X124945295Y-87557385D01*
X124828739Y-87644739D01*
X124741385Y-87761295D01*
X124690255Y-87897684D01*
X124683500Y-87959866D01*
X124683500Y-88456134D01*
X124683869Y-88459531D01*
X124687505Y-88492998D01*
X124690255Y-88518316D01*
X124693027Y-88525709D01*
X124693027Y-88525711D01*
X124707295Y-88563771D01*
X124712478Y-88634578D01*
X124707295Y-88652229D01*
X124690255Y-88697684D01*
X124683500Y-88759866D01*
X124683500Y-89256134D01*
X124683869Y-89259531D01*
X124686942Y-89287815D01*
X124690255Y-89318316D01*
X124693027Y-89325709D01*
X124693027Y-89325711D01*
X124707295Y-89363771D01*
X124712478Y-89434578D01*
X124707295Y-89452229D01*
X124693461Y-89489131D01*
X124690255Y-89497684D01*
X124689402Y-89505532D01*
X124689402Y-89505534D01*
X124686288Y-89534199D01*
X124683500Y-89559866D01*
X124683500Y-90056134D01*
X124683869Y-90059531D01*
X124689080Y-90107497D01*
X124690255Y-90118316D01*
X124693027Y-90125709D01*
X124693027Y-90125711D01*
X124707295Y-90163771D01*
X124712478Y-90234578D01*
X124707295Y-90252229D01*
X124700893Y-90269307D01*
X124690255Y-90297684D01*
X124689402Y-90305532D01*
X124689402Y-90305534D01*
X124688594Y-90312973D01*
X124683500Y-90359866D01*
X124683500Y-90856134D01*
X124690255Y-90918316D01*
X124741385Y-91054705D01*
X124828739Y-91171261D01*
X124835919Y-91176642D01*
X124835920Y-91176643D01*
X124869120Y-91201525D01*
X124911635Y-91258384D01*
X124916661Y-91329203D01*
X124882650Y-91391446D01*
X124270905Y-92003190D01*
X123660096Y-92613999D01*
X123597784Y-92648025D01*
X123526968Y-92642960D01*
X123481906Y-92613999D01*
X122313758Y-91445851D01*
X122279732Y-91383539D01*
X122284797Y-91312724D01*
X122327288Y-91255930D01*
X122433080Y-91176643D01*
X122433081Y-91176642D01*
X122440261Y-91171261D01*
X122527615Y-91054705D01*
X122578745Y-90918316D01*
X122585500Y-90856134D01*
X122585500Y-90359866D01*
X122580406Y-90312973D01*
X122579598Y-90305534D01*
X122579598Y-90305532D01*
X122578745Y-90297684D01*
X122568107Y-90269307D01*
X122561705Y-90252229D01*
X122556522Y-90181422D01*
X122561705Y-90163771D01*
X122575973Y-90125711D01*
X122575973Y-90125709D01*
X122578745Y-90118316D01*
X122579921Y-90107497D01*
X122585131Y-90059531D01*
X122585500Y-90056134D01*
X122585500Y-89559866D01*
X122582712Y-89534199D01*
X122579598Y-89505534D01*
X122579598Y-89505532D01*
X122578745Y-89497684D01*
X122575539Y-89489131D01*
X122561705Y-89452229D01*
X122556522Y-89381422D01*
X122561705Y-89363771D01*
X122575973Y-89325711D01*
X122575973Y-89325709D01*
X122578745Y-89318316D01*
X122582059Y-89287815D01*
X122585131Y-89259531D01*
X122585500Y-89256134D01*
X122585500Y-88759866D01*
X122578745Y-88697684D01*
X122561705Y-88652229D01*
X122556522Y-88581422D01*
X122561705Y-88563771D01*
X122575973Y-88525711D01*
X122575973Y-88525709D01*
X122578745Y-88518316D01*
X122581496Y-88492998D01*
X122585131Y-88459531D01*
X122585500Y-88456134D01*
X122585500Y-87959866D01*
X122578745Y-87897684D01*
X122527615Y-87761295D01*
X122440261Y-87644739D01*
X122323705Y-87557385D01*
X122187316Y-87506255D01*
X122125134Y-87499500D01*
X121128866Y-87499500D01*
X121066684Y-87506255D01*
X120930295Y-87557385D01*
X120923110Y-87562770D01*
X120923108Y-87562771D01*
X120852565Y-87615640D01*
X120786058Y-87640488D01*
X120716676Y-87625435D01*
X120701435Y-87615640D01*
X120630892Y-87562771D01*
X120630890Y-87562770D01*
X120623705Y-87557385D01*
X120487316Y-87506255D01*
X120425134Y-87499500D01*
X120166595Y-87499500D01*
X120098474Y-87479498D01*
X120077499Y-87462595D01*
X119633000Y-87018095D01*
X119598975Y-86955783D01*
X119604040Y-86884967D01*
X119646587Y-86828132D01*
X119713107Y-86803321D01*
X119722096Y-86803000D01*
X127652070Y-86803000D01*
X127720191Y-86823002D01*
G37*
%TD.AperFunction*%
%TA.AperFunction,Conductor*%
G36*
X105348070Y-88887200D02*
G01*
X105398188Y-88937486D01*
X105413500Y-88997687D01*
X105413500Y-91292938D01*
X105393498Y-91361059D01*
X105339842Y-91407552D01*
X105269568Y-91417656D01*
X105204988Y-91388162D01*
X105169518Y-91337168D01*
X105123324Y-91213946D01*
X105114786Y-91198351D01*
X105038285Y-91096276D01*
X105025724Y-91083715D01*
X104923649Y-91007214D01*
X104908054Y-90998676D01*
X104787606Y-90953522D01*
X104772351Y-90949895D01*
X104721486Y-90944369D01*
X104714672Y-90944000D01*
X104442115Y-90944000D01*
X104426876Y-90948475D01*
X104425671Y-90949865D01*
X104424000Y-90957548D01*
X104424000Y-92330000D01*
X104403998Y-92398121D01*
X104350342Y-92444614D01*
X104298000Y-92456000D01*
X104042000Y-92456000D01*
X103973879Y-92435998D01*
X103927386Y-92382342D01*
X103916000Y-92330000D01*
X103916000Y-90962116D01*
X103911525Y-90946877D01*
X103910135Y-90945672D01*
X103902452Y-90944001D01*
X103625331Y-90944001D01*
X103618510Y-90944371D01*
X103567648Y-90949895D01*
X103564842Y-90950562D01*
X103562589Y-90950444D01*
X103559793Y-90950748D01*
X103559744Y-90950296D01*
X103493942Y-90946859D01*
X103436299Y-90905412D01*
X103430327Y-90896342D01*
X103429552Y-90894383D01*
X103403564Y-90858613D01*
X103397045Y-90848687D01*
X103396731Y-90848156D01*
X103379274Y-90779339D01*
X103401794Y-90712009D01*
X103431125Y-90682086D01*
X103447869Y-90669921D01*
X103481253Y-90645666D01*
X103488752Y-90637338D01*
X103604621Y-90508652D01*
X103604622Y-90508651D01*
X103609040Y-90503744D01*
X103677315Y-90385488D01*
X103701223Y-90344079D01*
X103701224Y-90344078D01*
X103704527Y-90338356D01*
X103763542Y-90156728D01*
X103766679Y-90126887D01*
X103782814Y-89973365D01*
X103783504Y-89966800D01*
X103768917Y-89828015D01*
X103764232Y-89783435D01*
X103764232Y-89783433D01*
X103763542Y-89776872D01*
X103704527Y-89595244D01*
X103684102Y-89559866D01*
X103669572Y-89534700D01*
X103652834Y-89465705D01*
X103676055Y-89398613D01*
X103731862Y-89354726D01*
X103778691Y-89345700D01*
X104718134Y-89345700D01*
X104780316Y-89338945D01*
X104916705Y-89287815D01*
X105033261Y-89200461D01*
X105120615Y-89083905D01*
X105169518Y-88953457D01*
X105212160Y-88896693D01*
X105278721Y-88871993D01*
X105348070Y-88887200D01*
G37*
%TD.AperFunction*%
%TA.AperFunction,Conductor*%
G36*
X98469459Y-82778140D02*
G01*
X99111230Y-83419911D01*
X99123616Y-83434323D01*
X99132149Y-83445918D01*
X99132154Y-83445923D01*
X99136492Y-83451818D01*
X99142070Y-83456557D01*
X99142073Y-83456560D01*
X99176768Y-83486035D01*
X99184284Y-83492965D01*
X99189979Y-83498660D01*
X99192861Y-83500940D01*
X99212251Y-83516281D01*
X99215655Y-83519072D01*
X99261700Y-83558190D01*
X99271285Y-83566333D01*
X99277801Y-83569661D01*
X99282850Y-83573028D01*
X99287979Y-83576195D01*
X99293716Y-83580734D01*
X99359875Y-83611655D01*
X99363769Y-83613558D01*
X99428808Y-83646769D01*
X99435916Y-83648508D01*
X99441559Y-83650607D01*
X99447322Y-83652524D01*
X99453950Y-83655622D01*
X99461112Y-83657112D01*
X99461113Y-83657112D01*
X99525412Y-83670486D01*
X99529696Y-83671456D01*
X99600610Y-83688808D01*
X99606212Y-83689156D01*
X99606215Y-83689156D01*
X99611764Y-83689500D01*
X99611762Y-83689536D01*
X99615755Y-83689775D01*
X99619947Y-83690149D01*
X99627115Y-83691640D01*
X99704520Y-83689546D01*
X99707928Y-83689500D01*
X105287500Y-83689500D01*
X105355621Y-83709502D01*
X105402114Y-83763158D01*
X105413500Y-83815500D01*
X105413500Y-87176713D01*
X105393498Y-87244834D01*
X105339842Y-87291327D01*
X105269568Y-87301431D01*
X105204988Y-87271937D01*
X105169518Y-87220943D01*
X105123767Y-87098903D01*
X105120615Y-87090495D01*
X105033261Y-86973939D01*
X104916705Y-86886585D01*
X104780316Y-86835455D01*
X104718134Y-86828700D01*
X103621866Y-86828700D01*
X103559684Y-86835455D01*
X103552285Y-86838229D01*
X103549146Y-86838975D01*
X103490854Y-86838975D01*
X103487715Y-86838229D01*
X103480316Y-86835455D01*
X103418134Y-86828700D01*
X102321866Y-86828700D01*
X102259684Y-86835455D01*
X102252284Y-86838229D01*
X102248058Y-86839234D01*
X102189761Y-86839234D01*
X102172354Y-86835095D01*
X102121486Y-86829569D01*
X102114672Y-86829200D01*
X101842115Y-86829200D01*
X101826876Y-86833675D01*
X101825671Y-86835065D01*
X101824000Y-86842748D01*
X101824000Y-89327084D01*
X101828475Y-89342323D01*
X101829865Y-89343528D01*
X101837548Y-89345199D01*
X101961598Y-89345199D01*
X102029719Y-89365201D01*
X102076212Y-89418857D01*
X102086316Y-89489131D01*
X102070717Y-89534199D01*
X102052415Y-89565899D01*
X102035473Y-89595244D01*
X101976458Y-89776872D01*
X101975768Y-89783433D01*
X101975768Y-89783435D01*
X101971083Y-89828015D01*
X101956496Y-89966800D01*
X101957186Y-89973365D01*
X101963383Y-90032330D01*
X101950610Y-90102169D01*
X101902108Y-90154015D01*
X101838073Y-90171500D01*
X98297477Y-90171500D01*
X98229356Y-90151498D01*
X98182863Y-90097842D01*
X98172759Y-90027568D01*
X98176917Y-90008879D01*
X98233370Y-89823069D01*
X98262529Y-89601590D01*
X98263465Y-89563283D01*
X98264074Y-89538365D01*
X98264074Y-89538361D01*
X98264156Y-89535000D01*
X98245852Y-89312361D01*
X98191431Y-89095702D01*
X98102354Y-88890840D01*
X98096550Y-88881869D01*
X100562001Y-88881869D01*
X100562371Y-88888690D01*
X100567895Y-88939552D01*
X100571521Y-88954804D01*
X100616676Y-89075254D01*
X100625214Y-89090849D01*
X100701715Y-89192924D01*
X100714276Y-89205485D01*
X100816351Y-89281986D01*
X100831946Y-89290524D01*
X100952394Y-89335678D01*
X100967649Y-89339305D01*
X101018514Y-89344831D01*
X101025328Y-89345200D01*
X101297885Y-89345200D01*
X101313124Y-89340725D01*
X101314329Y-89339335D01*
X101316000Y-89331652D01*
X101316000Y-88359315D01*
X101311525Y-88344076D01*
X101310135Y-88342871D01*
X101302452Y-88341200D01*
X100580116Y-88341200D01*
X100564877Y-88345675D01*
X100563672Y-88347065D01*
X100562001Y-88354748D01*
X100562001Y-88881869D01*
X98096550Y-88881869D01*
X98017381Y-88759492D01*
X97983822Y-88707617D01*
X97983820Y-88707614D01*
X97981014Y-88703277D01*
X97830670Y-88538051D01*
X97826619Y-88534852D01*
X97826615Y-88534848D01*
X97659414Y-88402800D01*
X97659410Y-88402798D01*
X97655359Y-88399598D01*
X97614053Y-88376796D01*
X97564084Y-88326364D01*
X97549312Y-88256921D01*
X97574428Y-88190516D01*
X97601780Y-88163909D01*
X97654193Y-88126523D01*
X97780860Y-88036173D01*
X97827719Y-87989478D01*
X97905296Y-87912171D01*
X97939096Y-87878489D01*
X97962810Y-87845488D01*
X97984657Y-87815085D01*
X100562000Y-87815085D01*
X100566475Y-87830324D01*
X100567865Y-87831529D01*
X100575548Y-87833200D01*
X101297885Y-87833200D01*
X101313124Y-87828725D01*
X101314329Y-87827335D01*
X101316000Y-87819652D01*
X101316000Y-86847316D01*
X101311525Y-86832077D01*
X101310135Y-86830872D01*
X101302452Y-86829201D01*
X101025331Y-86829201D01*
X101018510Y-86829571D01*
X100967648Y-86835095D01*
X100952396Y-86838721D01*
X100831946Y-86883876D01*
X100816351Y-86892414D01*
X100714276Y-86968915D01*
X100701715Y-86981476D01*
X100625214Y-87083551D01*
X100616676Y-87099146D01*
X100571522Y-87219594D01*
X100567895Y-87234849D01*
X100562369Y-87285714D01*
X100562000Y-87292528D01*
X100562000Y-87815085D01*
X97984657Y-87815085D01*
X98066435Y-87701277D01*
X98069453Y-87697077D01*
X98074473Y-87686921D01*
X98166136Y-87501453D01*
X98166137Y-87501451D01*
X98168430Y-87496811D01*
X98233370Y-87283069D01*
X98262529Y-87061590D01*
X98263925Y-87004444D01*
X98264074Y-86998365D01*
X98264074Y-86998361D01*
X98264156Y-86995000D01*
X98245852Y-86772361D01*
X98191431Y-86555702D01*
X98102354Y-86350840D01*
X98053955Y-86276026D01*
X97983822Y-86167617D01*
X97983820Y-86167614D01*
X97981014Y-86163277D01*
X97830670Y-85998051D01*
X97826619Y-85994852D01*
X97826615Y-85994848D01*
X97659414Y-85862800D01*
X97659410Y-85862798D01*
X97655359Y-85859598D01*
X97613569Y-85836529D01*
X97563598Y-85786097D01*
X97548826Y-85716654D01*
X97573942Y-85650248D01*
X97601294Y-85623641D01*
X97776328Y-85498792D01*
X97784200Y-85492139D01*
X97935052Y-85341812D01*
X97941730Y-85333965D01*
X98066003Y-85161020D01*
X98071313Y-85152183D01*
X98165670Y-84961267D01*
X98169469Y-84951672D01*
X98231377Y-84747910D01*
X98233555Y-84737837D01*
X98234986Y-84726962D01*
X98232775Y-84712778D01*
X98219617Y-84709000D01*
X96773000Y-84709000D01*
X96704879Y-84688998D01*
X96658386Y-84635342D01*
X96647000Y-84583000D01*
X96647000Y-84327000D01*
X96667002Y-84258879D01*
X96720658Y-84212386D01*
X96773000Y-84201000D01*
X98219344Y-84201000D01*
X98232875Y-84197027D01*
X98234180Y-84187947D01*
X98192214Y-84020875D01*
X98188894Y-84011124D01*
X98103972Y-83815814D01*
X98099105Y-83806739D01*
X97983426Y-83627926D01*
X97977136Y-83619757D01*
X97833293Y-83461677D01*
X97802241Y-83397831D01*
X97810635Y-83327333D01*
X97855812Y-83272564D01*
X97882256Y-83258895D01*
X97989297Y-83218767D01*
X97997705Y-83215615D01*
X98114261Y-83128261D01*
X98201615Y-83011705D01*
X98252745Y-82875316D01*
X98253598Y-82867464D01*
X98253599Y-82867460D01*
X98255101Y-82853628D01*
X98282342Y-82788066D01*
X98340705Y-82747639D01*
X98411659Y-82745183D01*
X98469459Y-82778140D01*
G37*
%TD.AperFunction*%
%TA.AperFunction,Conductor*%
G36*
X116931750Y-83709502D02*
G01*
X116978243Y-83763158D01*
X116988347Y-83833432D01*
X116958853Y-83898012D01*
X116952724Y-83904595D01*
X116803224Y-84054095D01*
X116740912Y-84088121D01*
X116714129Y-84091000D01*
X116200998Y-84091000D01*
X116198550Y-84091193D01*
X116198542Y-84091193D01*
X116170079Y-84093433D01*
X116170074Y-84093434D01*
X116163669Y-84093938D01*
X116063731Y-84122972D01*
X116011512Y-84138143D01*
X116011510Y-84138144D01*
X116003899Y-84140355D01*
X115997072Y-84144392D01*
X115997073Y-84144392D01*
X115867520Y-84221009D01*
X115867517Y-84221011D01*
X115860693Y-84225047D01*
X115745245Y-84340495D01*
X115682933Y-84374521D01*
X115612118Y-84369456D01*
X115591205Y-84357799D01*
X115590626Y-84358778D01*
X115583801Y-84354742D01*
X115577541Y-84349886D01*
X115570272Y-84346741D01*
X115570268Y-84346738D01*
X115536963Y-84332326D01*
X115526313Y-84327109D01*
X115487560Y-84305805D01*
X115467937Y-84300767D01*
X115449234Y-84294363D01*
X115437920Y-84289467D01*
X115437919Y-84289467D01*
X115430645Y-84286319D01*
X115422822Y-84285080D01*
X115422812Y-84285077D01*
X115386976Y-84279401D01*
X115375356Y-84276995D01*
X115340211Y-84267972D01*
X115340210Y-84267972D01*
X115332530Y-84266000D01*
X115312276Y-84266000D01*
X115292565Y-84264449D01*
X115284181Y-84263121D01*
X115272557Y-84261280D01*
X115243286Y-84264047D01*
X115228539Y-84265441D01*
X115216681Y-84266000D01*
X113467450Y-84266000D01*
X113399329Y-84245998D01*
X113386229Y-84235441D01*
X113386175Y-84235511D01*
X113379915Y-84230655D01*
X113374307Y-84225047D01*
X113367483Y-84221011D01*
X113367480Y-84221009D01*
X113237927Y-84144392D01*
X113237928Y-84144392D01*
X113231101Y-84140355D01*
X113223490Y-84138144D01*
X113223488Y-84138143D01*
X113171269Y-84122972D01*
X113071331Y-84093938D01*
X113064926Y-84093434D01*
X113064921Y-84093433D01*
X113036458Y-84091193D01*
X113036450Y-84091193D01*
X113034002Y-84091000D01*
X111250998Y-84091000D01*
X111248550Y-84091193D01*
X111248542Y-84091193D01*
X111220079Y-84093433D01*
X111220074Y-84093434D01*
X111213669Y-84093938D01*
X111113731Y-84122972D01*
X111061512Y-84138143D01*
X111061510Y-84138144D01*
X111053899Y-84140355D01*
X111047072Y-84144392D01*
X111047073Y-84144392D01*
X110917520Y-84221009D01*
X110917517Y-84221011D01*
X110910693Y-84225047D01*
X110905085Y-84230655D01*
X110898825Y-84235511D01*
X110897656Y-84234004D01*
X110844333Y-84263121D01*
X110817550Y-84266000D01*
X110499700Y-84266000D01*
X110431579Y-84245998D01*
X110412353Y-84229657D01*
X110412080Y-84229960D01*
X110407168Y-84225537D01*
X110402753Y-84220634D01*
X110292259Y-84140355D01*
X110253594Y-84112263D01*
X110253593Y-84112262D01*
X110248252Y-84108382D01*
X110242224Y-84105698D01*
X110242222Y-84105697D01*
X110079819Y-84033391D01*
X110079818Y-84033391D01*
X110073788Y-84030706D01*
X109980387Y-84010853D01*
X109893444Y-83992372D01*
X109893439Y-83992372D01*
X109886987Y-83991000D01*
X109696013Y-83991000D01*
X109689561Y-83992372D01*
X109689556Y-83992372D01*
X109602613Y-84010853D01*
X109509212Y-84030706D01*
X109503182Y-84033391D01*
X109503181Y-84033391D01*
X109340778Y-84105697D01*
X109340776Y-84105698D01*
X109334748Y-84108382D01*
X109180247Y-84220634D01*
X109175826Y-84225544D01*
X109175825Y-84225545D01*
X109066703Y-84346738D01*
X109052460Y-84362556D01*
X108956973Y-84527944D01*
X108897958Y-84709572D01*
X108897268Y-84716133D01*
X108897268Y-84716135D01*
X108882767Y-84854106D01*
X108877996Y-84899500D01*
X108878686Y-84906065D01*
X108884137Y-84957924D01*
X108897958Y-85089428D01*
X108956973Y-85271056D01*
X108960276Y-85276778D01*
X108960277Y-85276779D01*
X109052460Y-85436444D01*
X109050790Y-85437408D01*
X109071537Y-85495556D01*
X109055458Y-85564707D01*
X109053169Y-85568269D01*
X109052460Y-85569056D01*
X109032017Y-85604465D01*
X108990099Y-85677069D01*
X108956973Y-85734444D01*
X108897958Y-85916072D01*
X108897268Y-85922633D01*
X108897268Y-85922635D01*
X108890442Y-85987586D01*
X108877996Y-86106000D01*
X108878686Y-86112565D01*
X108890881Y-86228590D01*
X108897958Y-86295928D01*
X108956973Y-86477556D01*
X109052460Y-86642944D01*
X109056878Y-86647851D01*
X109056879Y-86647852D01*
X109144923Y-86745635D01*
X109180247Y-86784866D01*
X109262703Y-86844774D01*
X109328274Y-86892414D01*
X109334748Y-86897118D01*
X109340776Y-86899802D01*
X109340778Y-86899803D01*
X109391957Y-86922589D01*
X109446053Y-86968569D01*
X109466702Y-87036496D01*
X109447350Y-87104804D01*
X109429803Y-87126791D01*
X109220999Y-87335595D01*
X109158687Y-87369621D01*
X109131904Y-87372500D01*
X108873366Y-87372500D01*
X108811184Y-87379255D01*
X108674795Y-87430385D01*
X108667610Y-87435770D01*
X108667608Y-87435771D01*
X108597065Y-87488640D01*
X108530558Y-87513488D01*
X108461176Y-87498435D01*
X108445935Y-87488640D01*
X108375392Y-87435771D01*
X108375390Y-87435770D01*
X108368205Y-87430385D01*
X108231816Y-87379255D01*
X108169634Y-87372500D01*
X107173366Y-87372500D01*
X107111184Y-87379255D01*
X107103788Y-87382027D01*
X107103782Y-87382029D01*
X107100729Y-87383174D01*
X107098185Y-87383360D01*
X107096100Y-87383856D01*
X107096020Y-87383519D01*
X107029922Y-87388357D01*
X106967553Y-87354436D01*
X106933424Y-87292180D01*
X106930500Y-87265192D01*
X106930500Y-83815500D01*
X106950502Y-83747379D01*
X107004158Y-83700886D01*
X107056500Y-83689500D01*
X116863629Y-83689500D01*
X116931750Y-83709502D01*
G37*
%TD.AperFunction*%
%TA.AperFunction,Conductor*%
G36*
X159904037Y-86128012D02*
G01*
X159925011Y-86144915D01*
X160525731Y-86745635D01*
X160559757Y-86807947D01*
X160562279Y-86834436D01*
X160562251Y-86834695D01*
X160569970Y-86968558D01*
X160570231Y-86973091D01*
X160554184Y-87042250D01*
X160503293Y-87091754D01*
X160433717Y-87105887D01*
X160367546Y-87080160D01*
X160355345Y-87069439D01*
X160079148Y-86793242D01*
X160071613Y-86784962D01*
X160067500Y-86778482D01*
X160017848Y-86731856D01*
X160015007Y-86729102D01*
X159995270Y-86709365D01*
X159992073Y-86706885D01*
X159983051Y-86699180D01*
X159980872Y-86697134D01*
X159950821Y-86668914D01*
X159943875Y-86665095D01*
X159943872Y-86665093D01*
X159933066Y-86659152D01*
X159916547Y-86648301D01*
X159915968Y-86647852D01*
X159900541Y-86635886D01*
X159893272Y-86632741D01*
X159893268Y-86632738D01*
X159859963Y-86618326D01*
X159849313Y-86613109D01*
X159810560Y-86591805D01*
X159790937Y-86586767D01*
X159772234Y-86580363D01*
X159760920Y-86575467D01*
X159760919Y-86575467D01*
X159753645Y-86572319D01*
X159745822Y-86571080D01*
X159745812Y-86571077D01*
X159709976Y-86565401D01*
X159698356Y-86562995D01*
X159663211Y-86553972D01*
X159663210Y-86553972D01*
X159655530Y-86552000D01*
X159635276Y-86552000D01*
X159615565Y-86550449D01*
X159603386Y-86548520D01*
X159595557Y-86547280D01*
X159556691Y-86550954D01*
X159551539Y-86551441D01*
X159539681Y-86552000D01*
X156813593Y-86552000D01*
X156745472Y-86531998D01*
X156724497Y-86515095D01*
X156643123Y-86433720D01*
X156548155Y-86338752D01*
X156540621Y-86330472D01*
X156536508Y-86323992D01*
X156530727Y-86318563D01*
X156527223Y-86314328D01*
X156499212Y-86249091D01*
X156510917Y-86179066D01*
X156558622Y-86126485D01*
X156624306Y-86108010D01*
X159835916Y-86108010D01*
X159904037Y-86128012D01*
G37*
%TD.AperFunction*%
%TA.AperFunction,Conductor*%
G36*
X133040026Y-85553002D02*
G01*
X133061000Y-85569905D01*
X133354353Y-85863258D01*
X133361887Y-85871537D01*
X133366000Y-85878018D01*
X133406095Y-85915669D01*
X133415651Y-85924643D01*
X133418493Y-85927398D01*
X133438230Y-85947135D01*
X133441427Y-85949615D01*
X133450446Y-85957318D01*
X133456644Y-85963138D01*
X133492612Y-86024349D01*
X133489776Y-86095289D01*
X133449037Y-86153435D01*
X133383329Y-86180324D01*
X133370394Y-86180990D01*
X132468085Y-86180990D01*
X132399964Y-86160988D01*
X132378990Y-86144085D01*
X131983000Y-85748095D01*
X131948974Y-85685783D01*
X131954039Y-85614968D01*
X131996586Y-85558132D01*
X132063106Y-85533321D01*
X132072095Y-85533000D01*
X132971905Y-85533000D01*
X133040026Y-85553002D01*
G37*
%TD.AperFunction*%
%TA.AperFunction,Conductor*%
G36*
X115006027Y-85553002D02*
G01*
X115027001Y-85569905D01*
X115373853Y-85916757D01*
X115381397Y-85925047D01*
X115385510Y-85931528D01*
X115408374Y-85952998D01*
X115419173Y-85963139D01*
X115455139Y-86024352D01*
X115452302Y-86095291D01*
X115411562Y-86153436D01*
X115345854Y-86180324D01*
X115332921Y-86180990D01*
X113752000Y-86180990D01*
X113683879Y-86160988D01*
X113637386Y-86107332D01*
X113626000Y-86054990D01*
X113626000Y-85952998D01*
X113625733Y-85949608D01*
X113623567Y-85922079D01*
X113623566Y-85922074D01*
X113623062Y-85915669D01*
X113581033Y-85771002D01*
X113578857Y-85763512D01*
X113578856Y-85763510D01*
X113576645Y-85755899D01*
X113557269Y-85723137D01*
X113539811Y-85654322D01*
X113562328Y-85586991D01*
X113617673Y-85542522D01*
X113665724Y-85533000D01*
X114937906Y-85533000D01*
X115006027Y-85553002D01*
G37*
%TD.AperFunction*%
%TA.AperFunction,Conductor*%
G36*
X135027750Y-83709502D02*
G01*
X135074243Y-83763158D01*
X135084347Y-83833432D01*
X135054853Y-83898012D01*
X135048724Y-83904595D01*
X134899224Y-84054095D01*
X134836912Y-84088121D01*
X134810129Y-84091000D01*
X134234998Y-84091000D01*
X134232550Y-84091193D01*
X134232542Y-84091193D01*
X134204079Y-84093433D01*
X134204074Y-84093434D01*
X134197669Y-84093938D01*
X134097731Y-84122972D01*
X134045512Y-84138143D01*
X134045510Y-84138144D01*
X134037899Y-84140355D01*
X134031072Y-84144392D01*
X134031073Y-84144392D01*
X133901520Y-84221009D01*
X133901517Y-84221011D01*
X133894693Y-84225047D01*
X133779245Y-84340495D01*
X133716933Y-84374521D01*
X133646118Y-84369456D01*
X133625205Y-84357799D01*
X133624626Y-84358778D01*
X133617801Y-84354742D01*
X133611541Y-84349886D01*
X133604272Y-84346741D01*
X133604268Y-84346738D01*
X133570963Y-84332326D01*
X133560313Y-84327109D01*
X133521560Y-84305805D01*
X133501937Y-84300767D01*
X133483234Y-84294363D01*
X133471920Y-84289467D01*
X133471919Y-84289467D01*
X133464645Y-84286319D01*
X133456822Y-84285080D01*
X133456812Y-84285077D01*
X133420976Y-84279401D01*
X133409356Y-84276995D01*
X133374211Y-84267972D01*
X133374210Y-84267972D01*
X133366530Y-84266000D01*
X133346276Y-84266000D01*
X133326565Y-84264449D01*
X133318181Y-84263121D01*
X133306557Y-84261280D01*
X133277286Y-84264047D01*
X133262539Y-84265441D01*
X133250681Y-84266000D01*
X131501450Y-84266000D01*
X131433329Y-84245998D01*
X131420229Y-84235441D01*
X131420175Y-84235511D01*
X131413915Y-84230655D01*
X131408307Y-84225047D01*
X131401483Y-84221011D01*
X131401480Y-84221009D01*
X131271927Y-84144392D01*
X131271928Y-84144392D01*
X131265101Y-84140355D01*
X131257490Y-84138144D01*
X131257488Y-84138143D01*
X131205269Y-84122972D01*
X131105331Y-84093938D01*
X131098926Y-84093434D01*
X131098921Y-84093433D01*
X131070458Y-84091193D01*
X131070450Y-84091193D01*
X131068002Y-84091000D01*
X129284998Y-84091000D01*
X129282550Y-84091193D01*
X129282542Y-84091193D01*
X129254079Y-84093433D01*
X129254074Y-84093434D01*
X129247669Y-84093938D01*
X129147731Y-84122972D01*
X129095512Y-84138143D01*
X129095510Y-84138144D01*
X129087899Y-84140355D01*
X129081072Y-84144392D01*
X129081073Y-84144392D01*
X128951520Y-84221009D01*
X128951517Y-84221011D01*
X128944693Y-84225047D01*
X128939085Y-84230655D01*
X128932825Y-84235511D01*
X128931656Y-84234004D01*
X128878333Y-84263121D01*
X128851550Y-84266000D01*
X128539268Y-84266000D01*
X128528085Y-84265473D01*
X128520592Y-84263798D01*
X128512666Y-84264047D01*
X128512665Y-84264047D01*
X128452502Y-84265938D01*
X128448544Y-84266000D01*
X128420644Y-84266000D01*
X128416654Y-84266504D01*
X128404820Y-84267436D01*
X128360611Y-84268826D01*
X128352995Y-84271039D01*
X128352993Y-84271039D01*
X128341152Y-84274479D01*
X128321793Y-84278488D01*
X128320483Y-84278654D01*
X128301703Y-84281026D01*
X128294337Y-84283942D01*
X128294331Y-84283944D01*
X128260598Y-84297300D01*
X128249368Y-84301145D01*
X128233328Y-84305805D01*
X128206907Y-84313481D01*
X128200084Y-84317516D01*
X128189466Y-84323795D01*
X128171713Y-84332492D01*
X128164068Y-84335519D01*
X128152883Y-84339948D01*
X128139205Y-84349886D01*
X128117112Y-84365937D01*
X128107195Y-84372451D01*
X128069138Y-84394958D01*
X128054817Y-84409279D01*
X128039784Y-84422119D01*
X128023393Y-84434028D01*
X127997016Y-84465913D01*
X127995212Y-84468093D01*
X127987222Y-84476874D01*
X127609989Y-84854106D01*
X127547677Y-84888131D01*
X127520894Y-84891010D01*
X122528000Y-84891010D01*
X122459879Y-84871008D01*
X122413386Y-84817352D01*
X122402000Y-84765010D01*
X122402000Y-84600115D01*
X122397525Y-84584876D01*
X122396135Y-84583671D01*
X122388452Y-84582000D01*
X121178500Y-84582000D01*
X121110379Y-84561998D01*
X121063886Y-84508342D01*
X121052500Y-84456000D01*
X121052500Y-84200000D01*
X121072502Y-84131879D01*
X121126158Y-84085386D01*
X121178500Y-84074000D01*
X122383884Y-84074000D01*
X122399123Y-84069525D01*
X122400328Y-84068135D01*
X122401999Y-84060452D01*
X122401999Y-83815500D01*
X122422001Y-83747379D01*
X122475657Y-83700886D01*
X122527999Y-83689500D01*
X134959629Y-83689500D01*
X135027750Y-83709502D01*
G37*
%TD.AperFunction*%
%TA.AperFunction,Conductor*%
G36*
X153188750Y-83709502D02*
G01*
X153235243Y-83763158D01*
X153245347Y-83833432D01*
X153215853Y-83898012D01*
X153209724Y-83904595D01*
X153123724Y-83990595D01*
X153061412Y-84024621D01*
X153034629Y-84027500D01*
X152332498Y-84027500D01*
X152330050Y-84027693D01*
X152330042Y-84027693D01*
X152301579Y-84029933D01*
X152301574Y-84029934D01*
X152295169Y-84030438D01*
X152195231Y-84059472D01*
X152143012Y-84074643D01*
X152143010Y-84074644D01*
X152135399Y-84076855D01*
X152128572Y-84080892D01*
X152128573Y-84080892D01*
X151999020Y-84157509D01*
X151999017Y-84157511D01*
X151992193Y-84161547D01*
X151906181Y-84247559D01*
X151843869Y-84281585D01*
X151797373Y-84282912D01*
X151775208Y-84279401D01*
X151763588Y-84276995D01*
X151728443Y-84267972D01*
X151728442Y-84267972D01*
X151720762Y-84266000D01*
X151700508Y-84266000D01*
X151680797Y-84264449D01*
X151672413Y-84263121D01*
X151660789Y-84261280D01*
X151631518Y-84264047D01*
X151616771Y-84265441D01*
X151604913Y-84266000D01*
X149662450Y-84266000D01*
X149594329Y-84245998D01*
X149573355Y-84229095D01*
X149505807Y-84161547D01*
X149498983Y-84157511D01*
X149498980Y-84157509D01*
X149369427Y-84080892D01*
X149369428Y-84080892D01*
X149362601Y-84076855D01*
X149354990Y-84074644D01*
X149354988Y-84074643D01*
X149302769Y-84059472D01*
X149202831Y-84030438D01*
X149196426Y-84029934D01*
X149196421Y-84029933D01*
X149167958Y-84027693D01*
X149167950Y-84027693D01*
X149165502Y-84027500D01*
X147382498Y-84027500D01*
X147380050Y-84027693D01*
X147380042Y-84027693D01*
X147351579Y-84029933D01*
X147351574Y-84029934D01*
X147345169Y-84030438D01*
X147245231Y-84059472D01*
X147193012Y-84074643D01*
X147193010Y-84074644D01*
X147185399Y-84076855D01*
X147178572Y-84080892D01*
X147178573Y-84080892D01*
X147049020Y-84157509D01*
X147049017Y-84157511D01*
X147042193Y-84161547D01*
X146924547Y-84279193D01*
X146920511Y-84286017D01*
X146920509Y-84286020D01*
X146871802Y-84368379D01*
X146839855Y-84422399D01*
X146837644Y-84430010D01*
X146837643Y-84430012D01*
X146830093Y-84456000D01*
X146793438Y-84582169D01*
X146792934Y-84588574D01*
X146792933Y-84588579D01*
X146790693Y-84617042D01*
X146790500Y-84619498D01*
X146790500Y-84711500D01*
X146770498Y-84779621D01*
X146716842Y-84826114D01*
X146664500Y-84837500D01*
X140562000Y-84837500D01*
X140493879Y-84817498D01*
X140447386Y-84763842D01*
X140436000Y-84711500D01*
X140436000Y-84600115D01*
X140431525Y-84584876D01*
X140430135Y-84583671D01*
X140422452Y-84582000D01*
X139212500Y-84582000D01*
X139144379Y-84561998D01*
X139097886Y-84508342D01*
X139086500Y-84456000D01*
X139086500Y-84200000D01*
X139106502Y-84131879D01*
X139160158Y-84085386D01*
X139212500Y-84074000D01*
X140417884Y-84074000D01*
X140433123Y-84069525D01*
X140434328Y-84068135D01*
X140435999Y-84060452D01*
X140435999Y-83815500D01*
X140456001Y-83747379D01*
X140509657Y-83700886D01*
X140561999Y-83689500D01*
X153120629Y-83689500D01*
X153188750Y-83709502D01*
G37*
%TD.AperFunction*%
%TD*%
M02*
