M48
; DRILL file {KiCad (5.1.9)-1} date 02/13/22 18:11:33
; FORMAT={-:-/ absolute / inch / decimal}
; #@! TF.CreationDate,2022-02-13T18:11:33+09:00
; #@! TF.GenerationSoftware,Kicad,Pcbnew,(5.1.9)-1
; #@! TF.FileFunction,Plated,1,2,PTH
FMAT,2
INCH
T1C0.0157
T2C0.0374
T3C0.0394
%
G90
G05
T1
X4.0525Y-3.5425
X4.1Y-3.55
X4.239Y-3.7085
X4.24Y-3.31
X4.28Y-3.31
X4.3Y-3.655
X4.3225Y-3.3425
X4.3225Y-3.39
X4.351Y-3.439
X4.3525Y-3.4875
X4.3525Y-3.5375
X4.354Y-3.589
X4.4614Y-3.1521
X4.4985Y-3.38
X4.5007Y-3.1533
X4.5125Y-3.565
X4.5401Y-3.1543
X4.58Y-3.1548
X4.675Y-3.44
X4.675Y-3.495
X4.675Y-3.545
X4.675Y-3.595
X4.75Y-3.675
X4.865Y-3.53
X4.865Y-3.685
X4.9075Y-3.32
X4.9675Y-3.32
X4.9925Y-3.6775
X5.02Y-3.32
X5.0575Y-3.5425
X5.06Y-3.595
X5.0602Y-3.4441
X5.0602Y-3.495
X5.2225Y-3.5275
X5.2275Y-3.38
X5.3425Y-3.1725
X5.385Y-3.44
X5.385Y-3.495
X5.385Y-3.545
X5.385Y-3.595
X5.3975Y-3.175
X5.4475Y-3.6825
X5.45Y-3.1775
X5.5Y-3.18
X5.5725Y-3.6975
X5.58Y-3.5975
X5.69Y-3.32
X5.735Y-3.32
X5.7525Y-3.2125
X5.775Y-3.445
X5.775Y-3.495
X5.775Y-3.5425
X5.775Y-3.595
X5.805Y-3.2125
X5.8575Y-3.215
X5.9375Y-3.515
X6.1Y-3.4457
X6.1025Y-3.4925
X6.1025Y-3.5875
X6.1025Y-3.5425
X6.1675Y-3.21
X6.17Y-3.64
X6.205Y-3.4
X6.2125Y-3.6825
X6.225Y-3.21
X6.26Y-3.64
T2
X5.9763Y-2.58
X5.9763Y-2.92
X6.0747Y-2.58
X6.0747Y-2.92
X6.1731Y-2.58
X6.1731Y-2.92
X6.2716Y-2.58
X6.2716Y-2.92
X6.37Y-2.58
X6.37Y-2.92
T3
X3.815Y-3.225
X3.815Y-3.325
X3.815Y-3.425
X3.815Y-3.525
X3.815Y-3.625
X3.85Y-2.54
X3.85Y-2.6384
X3.85Y-2.88
X3.85Y-2.9784
X4.12Y-2.54
X4.12Y-2.6384
X4.12Y-2.88
X4.12Y-2.9784
X4.39Y-2.54
X4.39Y-2.6384
X4.39Y-2.88
X4.39Y-2.9784
X4.66Y-2.54
X4.66Y-2.6384
X4.66Y-2.88
X4.66Y-2.9784
X4.93Y-2.54
X4.93Y-2.6384
X4.93Y-2.88
X4.93Y-2.9784
X5.2Y-2.54
X5.2Y-2.6384
X5.2Y-2.88
X5.2Y-2.9784
X5.47Y-2.54
X5.47Y-2.6384
X5.47Y-2.88
X5.47Y-2.9784
X5.74Y-2.54
X5.74Y-2.6384
X5.74Y-2.88
X5.74Y-2.9784
X6.375Y-3.22
X6.375Y-3.32
X6.375Y-3.42
X6.375Y-3.52
X6.375Y-3.62
T0
M30
