%TF.GenerationSoftware,KiCad,Pcbnew,(5.1.9)-1*%
%TF.CreationDate,2022-02-10T01:20:13+09:00*%
%TF.ProjectId,joystick-input,6a6f7973-7469-4636-9b2d-696e7075742e,rev?*%
%TF.SameCoordinates,Original*%
%TF.FileFunction,Copper,L1,Top*%
%TF.FilePolarity,Positive*%
%FSLAX46Y46*%
G04 Gerber Fmt 4.6, Leading zero omitted, Abs format (unit mm)*
G04 Created by KiCad (PCBNEW (5.1.9)-1) date 2022-02-10 01:20:13*
%MOMM*%
%LPD*%
G01*
G04 APERTURE LIST*
%TA.AperFunction,EtchedComponent*%
%ADD10C,0.100000*%
%TD*%
%TA.AperFunction,SMDPad,CuDef*%
%ADD11C,0.100000*%
%TD*%
%TA.AperFunction,ComponentPad*%
%ADD12O,2.000000X1.700000*%
%TD*%
%TA.AperFunction,ComponentPad*%
%ADD13O,1.700000X1.950000*%
%TD*%
%TA.AperFunction,ComponentPad*%
%ADD14O,1.700000X1.700000*%
%TD*%
%TA.AperFunction,ComponentPad*%
%ADD15R,1.700000X1.700000*%
%TD*%
%TA.AperFunction,SMDPad,CuDef*%
%ADD16R,0.900000X0.400000*%
%TD*%
%TA.AperFunction,SMDPad,CuDef*%
%ADD17R,1.000000X1.500000*%
%TD*%
%TA.AperFunction,ViaPad*%
%ADD18C,0.800000*%
%TD*%
%TA.AperFunction,Conductor*%
%ADD19C,0.500000*%
%TD*%
%TA.AperFunction,Conductor*%
%ADD20C,0.250000*%
%TD*%
%TA.AperFunction,Conductor*%
%ADD21C,0.254000*%
%TD*%
%TA.AperFunction,Conductor*%
%ADD22C,0.100000*%
%TD*%
G04 APERTURE END LIST*
D10*
%TO.C,J22*%
G36*
X111248000Y-79583000D02*
G01*
X110748000Y-79583000D01*
X110748000Y-80183000D01*
X111248000Y-80183000D01*
X111248000Y-79583000D01*
G37*
%TO.C,J21*%
G36*
X107882500Y-79583000D02*
G01*
X107382500Y-79583000D01*
X107382500Y-80183000D01*
X107882500Y-80183000D01*
X107882500Y-79583000D01*
G37*
%TO.C,J20*%
G36*
X104517000Y-79583000D02*
G01*
X104017000Y-79583000D01*
X104017000Y-80183000D01*
X104517000Y-80183000D01*
X104517000Y-79583000D01*
G37*
%TO.C,J19*%
G36*
X101151500Y-79583000D02*
G01*
X100651500Y-79583000D01*
X100651500Y-80183000D01*
X101151500Y-80183000D01*
X101151500Y-79583000D01*
G37*
%TO.C,SHORT1*%
G36*
X103770000Y-92502000D02*
G01*
X103270000Y-92502000D01*
X103270000Y-91902000D01*
X103770000Y-91902000D01*
X103770000Y-92502000D01*
G37*
%TO.C,PULL1*%
G36*
X103770000Y-88438000D02*
G01*
X103270000Y-88438000D01*
X103270000Y-87838000D01*
X103770000Y-87838000D01*
X103770000Y-88438000D01*
G37*
%TD*%
%TO.P,74HC165_1,16*%
%TO.N,VCC*%
%TA.AperFunction,SMDPad,CuDef*%
G36*
G01*
X152249000Y-84986000D02*
X152249000Y-84686000D01*
G75*
G02*
X152399000Y-84536000I150000J0D01*
G01*
X154049000Y-84536000D01*
G75*
G02*
X154199000Y-84686000I0J-150000D01*
G01*
X154199000Y-84986000D01*
G75*
G02*
X154049000Y-85136000I-150000J0D01*
G01*
X152399000Y-85136000D01*
G75*
G02*
X152249000Y-84986000I0J150000D01*
G01*
G37*
%TD.AperFunction*%
%TO.P,74HC165_1,15*%
%TO.N,GND*%
%TA.AperFunction,SMDPad,CuDef*%
G36*
G01*
X152249000Y-86256000D02*
X152249000Y-85956000D01*
G75*
G02*
X152399000Y-85806000I150000J0D01*
G01*
X154049000Y-85806000D01*
G75*
G02*
X154199000Y-85956000I0J-150000D01*
G01*
X154199000Y-86256000D01*
G75*
G02*
X154049000Y-86406000I-150000J0D01*
G01*
X152399000Y-86406000D01*
G75*
G02*
X152249000Y-86256000I0J150000D01*
G01*
G37*
%TD.AperFunction*%
%TO.P,74HC165_1,14*%
%TO.N,/C_P1_START*%
%TA.AperFunction,SMDPad,CuDef*%
G36*
G01*
X152249000Y-87526000D02*
X152249000Y-87226000D01*
G75*
G02*
X152399000Y-87076000I150000J0D01*
G01*
X154049000Y-87076000D01*
G75*
G02*
X154199000Y-87226000I0J-150000D01*
G01*
X154199000Y-87526000D01*
G75*
G02*
X154049000Y-87676000I-150000J0D01*
G01*
X152399000Y-87676000D01*
G75*
G02*
X152249000Y-87526000I0J150000D01*
G01*
G37*
%TD.AperFunction*%
%TO.P,74HC165_1,13*%
%TO.N,/C_P1_SELECT*%
%TA.AperFunction,SMDPad,CuDef*%
G36*
G01*
X152249000Y-88796000D02*
X152249000Y-88496000D01*
G75*
G02*
X152399000Y-88346000I150000J0D01*
G01*
X154049000Y-88346000D01*
G75*
G02*
X154199000Y-88496000I0J-150000D01*
G01*
X154199000Y-88796000D01*
G75*
G02*
X154049000Y-88946000I-150000J0D01*
G01*
X152399000Y-88946000D01*
G75*
G02*
X152249000Y-88796000I0J150000D01*
G01*
G37*
%TD.AperFunction*%
%TO.P,74HC165_1,12*%
%TO.N,/C_P1_A*%
%TA.AperFunction,SMDPad,CuDef*%
G36*
G01*
X152249000Y-90066000D02*
X152249000Y-89766000D01*
G75*
G02*
X152399000Y-89616000I150000J0D01*
G01*
X154049000Y-89616000D01*
G75*
G02*
X154199000Y-89766000I0J-150000D01*
G01*
X154199000Y-90066000D01*
G75*
G02*
X154049000Y-90216000I-150000J0D01*
G01*
X152399000Y-90216000D01*
G75*
G02*
X152249000Y-90066000I0J150000D01*
G01*
G37*
%TD.AperFunction*%
%TO.P,74HC165_1,11*%
%TO.N,/C_P1_B*%
%TA.AperFunction,SMDPad,CuDef*%
G36*
G01*
X152249000Y-91336000D02*
X152249000Y-91036000D01*
G75*
G02*
X152399000Y-90886000I150000J0D01*
G01*
X154049000Y-90886000D01*
G75*
G02*
X154199000Y-91036000I0J-150000D01*
G01*
X154199000Y-91336000D01*
G75*
G02*
X154049000Y-91486000I-150000J0D01*
G01*
X152399000Y-91486000D01*
G75*
G02*
X152249000Y-91336000I0J150000D01*
G01*
G37*
%TD.AperFunction*%
%TO.P,74HC165_1,10*%
%TO.N,/D_OUT_2*%
%TA.AperFunction,SMDPad,CuDef*%
G36*
G01*
X152249000Y-92606000D02*
X152249000Y-92306000D01*
G75*
G02*
X152399000Y-92156000I150000J0D01*
G01*
X154049000Y-92156000D01*
G75*
G02*
X154199000Y-92306000I0J-150000D01*
G01*
X154199000Y-92606000D01*
G75*
G02*
X154049000Y-92756000I-150000J0D01*
G01*
X152399000Y-92756000D01*
G75*
G02*
X152249000Y-92606000I0J150000D01*
G01*
G37*
%TD.AperFunction*%
%TO.P,74HC165_1,9*%
%TO.N,/D_OUT*%
%TA.AperFunction,SMDPad,CuDef*%
G36*
G01*
X152249000Y-93876000D02*
X152249000Y-93576000D01*
G75*
G02*
X152399000Y-93426000I150000J0D01*
G01*
X154049000Y-93426000D01*
G75*
G02*
X154199000Y-93576000I0J-150000D01*
G01*
X154199000Y-93876000D01*
G75*
G02*
X154049000Y-94026000I-150000J0D01*
G01*
X152399000Y-94026000D01*
G75*
G02*
X152249000Y-93876000I0J150000D01*
G01*
G37*
%TD.AperFunction*%
%TO.P,74HC165_1,8*%
%TO.N,GND*%
%TA.AperFunction,SMDPad,CuDef*%
G36*
G01*
X147299000Y-93876000D02*
X147299000Y-93576000D01*
G75*
G02*
X147449000Y-93426000I150000J0D01*
G01*
X149099000Y-93426000D01*
G75*
G02*
X149249000Y-93576000I0J-150000D01*
G01*
X149249000Y-93876000D01*
G75*
G02*
X149099000Y-94026000I-150000J0D01*
G01*
X147449000Y-94026000D01*
G75*
G02*
X147299000Y-93876000I0J150000D01*
G01*
G37*
%TD.AperFunction*%
%TO.P,74HC165_1,7*%
%TO.N,N/C*%
%TA.AperFunction,SMDPad,CuDef*%
G36*
G01*
X147299000Y-92606000D02*
X147299000Y-92306000D01*
G75*
G02*
X147449000Y-92156000I150000J0D01*
G01*
X149099000Y-92156000D01*
G75*
G02*
X149249000Y-92306000I0J-150000D01*
G01*
X149249000Y-92606000D01*
G75*
G02*
X149099000Y-92756000I-150000J0D01*
G01*
X147449000Y-92756000D01*
G75*
G02*
X147299000Y-92606000I0J150000D01*
G01*
G37*
%TD.AperFunction*%
%TO.P,74HC165_1,6*%
%TO.N,/C_P1_UP*%
%TA.AperFunction,SMDPad,CuDef*%
G36*
G01*
X147299000Y-91336000D02*
X147299000Y-91036000D01*
G75*
G02*
X147449000Y-90886000I150000J0D01*
G01*
X149099000Y-90886000D01*
G75*
G02*
X149249000Y-91036000I0J-150000D01*
G01*
X149249000Y-91336000D01*
G75*
G02*
X149099000Y-91486000I-150000J0D01*
G01*
X147449000Y-91486000D01*
G75*
G02*
X147299000Y-91336000I0J150000D01*
G01*
G37*
%TD.AperFunction*%
%TO.P,74HC165_1,5*%
%TO.N,/C_P1_DOWN*%
%TA.AperFunction,SMDPad,CuDef*%
G36*
G01*
X147299000Y-90066000D02*
X147299000Y-89766000D01*
G75*
G02*
X147449000Y-89616000I150000J0D01*
G01*
X149099000Y-89616000D01*
G75*
G02*
X149249000Y-89766000I0J-150000D01*
G01*
X149249000Y-90066000D01*
G75*
G02*
X149099000Y-90216000I-150000J0D01*
G01*
X147449000Y-90216000D01*
G75*
G02*
X147299000Y-90066000I0J150000D01*
G01*
G37*
%TD.AperFunction*%
%TO.P,74HC165_1,4*%
%TO.N,/C_P1_LEFT*%
%TA.AperFunction,SMDPad,CuDef*%
G36*
G01*
X147299000Y-88796000D02*
X147299000Y-88496000D01*
G75*
G02*
X147449000Y-88346000I150000J0D01*
G01*
X149099000Y-88346000D01*
G75*
G02*
X149249000Y-88496000I0J-150000D01*
G01*
X149249000Y-88796000D01*
G75*
G02*
X149099000Y-88946000I-150000J0D01*
G01*
X147449000Y-88946000D01*
G75*
G02*
X147299000Y-88796000I0J150000D01*
G01*
G37*
%TD.AperFunction*%
%TO.P,74HC165_1,3*%
%TO.N,/C_P1_RIGHT*%
%TA.AperFunction,SMDPad,CuDef*%
G36*
G01*
X147299000Y-87526000D02*
X147299000Y-87226000D01*
G75*
G02*
X147449000Y-87076000I150000J0D01*
G01*
X149099000Y-87076000D01*
G75*
G02*
X149249000Y-87226000I0J-150000D01*
G01*
X149249000Y-87526000D01*
G75*
G02*
X149099000Y-87676000I-150000J0D01*
G01*
X147449000Y-87676000D01*
G75*
G02*
X147299000Y-87526000I0J150000D01*
G01*
G37*
%TD.AperFunction*%
%TO.P,74HC165_1,2*%
%TO.N,/CLK*%
%TA.AperFunction,SMDPad,CuDef*%
G36*
G01*
X147299000Y-86256000D02*
X147299000Y-85956000D01*
G75*
G02*
X147449000Y-85806000I150000J0D01*
G01*
X149099000Y-85806000D01*
G75*
G02*
X149249000Y-85956000I0J-150000D01*
G01*
X149249000Y-86256000D01*
G75*
G02*
X149099000Y-86406000I-150000J0D01*
G01*
X147449000Y-86406000D01*
G75*
G02*
X147299000Y-86256000I0J150000D01*
G01*
G37*
%TD.AperFunction*%
%TO.P,74HC165_1,1*%
%TO.N,/LOAD*%
%TA.AperFunction,SMDPad,CuDef*%
G36*
G01*
X147299000Y-84986000D02*
X147299000Y-84686000D01*
G75*
G02*
X147449000Y-84536000I150000J0D01*
G01*
X149099000Y-84536000D01*
G75*
G02*
X149249000Y-84686000I0J-150000D01*
G01*
X149249000Y-84986000D01*
G75*
G02*
X149099000Y-85136000I-150000J0D01*
G01*
X147449000Y-85136000D01*
G75*
G02*
X147299000Y-84986000I0J150000D01*
G01*
G37*
%TD.AperFunction*%
%TD*%
%TA.AperFunction,SMDPad,CuDef*%
D11*
%TO.P,J22,1*%
%TO.N,/C_P2_X*%
G36*
X110848000Y-80633000D02*
G01*
X110348000Y-80633000D01*
X110348000Y-80632398D01*
X110323466Y-80632398D01*
X110274635Y-80627588D01*
X110226510Y-80618016D01*
X110179555Y-80603772D01*
X110134222Y-80584995D01*
X110090949Y-80561864D01*
X110050150Y-80534604D01*
X110012221Y-80503476D01*
X109977524Y-80468779D01*
X109946396Y-80430850D01*
X109919136Y-80390051D01*
X109896005Y-80346778D01*
X109877228Y-80301445D01*
X109862984Y-80254490D01*
X109853412Y-80206365D01*
X109848602Y-80157534D01*
X109848602Y-80133000D01*
X109848000Y-80133000D01*
X109848000Y-79633000D01*
X109848602Y-79633000D01*
X109848602Y-79608466D01*
X109853412Y-79559635D01*
X109862984Y-79511510D01*
X109877228Y-79464555D01*
X109896005Y-79419222D01*
X109919136Y-79375949D01*
X109946396Y-79335150D01*
X109977524Y-79297221D01*
X110012221Y-79262524D01*
X110050150Y-79231396D01*
X110090949Y-79204136D01*
X110134222Y-79181005D01*
X110179555Y-79162228D01*
X110226510Y-79147984D01*
X110274635Y-79138412D01*
X110323466Y-79133602D01*
X110348000Y-79133602D01*
X110348000Y-79133000D01*
X110848000Y-79133000D01*
X110848000Y-80633000D01*
G37*
%TD.AperFunction*%
%TA.AperFunction,SMDPad,CuDef*%
%TO.P,J22,2*%
%TO.N,/C_P2_RIGHT*%
G36*
X111648000Y-79133602D02*
G01*
X111672534Y-79133602D01*
X111721365Y-79138412D01*
X111769490Y-79147984D01*
X111816445Y-79162228D01*
X111861778Y-79181005D01*
X111905051Y-79204136D01*
X111945850Y-79231396D01*
X111983779Y-79262524D01*
X112018476Y-79297221D01*
X112049604Y-79335150D01*
X112076864Y-79375949D01*
X112099995Y-79419222D01*
X112118772Y-79464555D01*
X112133016Y-79511510D01*
X112142588Y-79559635D01*
X112147398Y-79608466D01*
X112147398Y-79633000D01*
X112148000Y-79633000D01*
X112148000Y-80133000D01*
X112147398Y-80133000D01*
X112147398Y-80157534D01*
X112142588Y-80206365D01*
X112133016Y-80254490D01*
X112118772Y-80301445D01*
X112099995Y-80346778D01*
X112076864Y-80390051D01*
X112049604Y-80430850D01*
X112018476Y-80468779D01*
X111983779Y-80503476D01*
X111945850Y-80534604D01*
X111905051Y-80561864D01*
X111861778Y-80584995D01*
X111816445Y-80603772D01*
X111769490Y-80618016D01*
X111721365Y-80627588D01*
X111672534Y-80632398D01*
X111648000Y-80632398D01*
X111648000Y-80633000D01*
X111148000Y-80633000D01*
X111148000Y-79133000D01*
X111648000Y-79133000D01*
X111648000Y-79133602D01*
G37*
%TD.AperFunction*%
%TD*%
%TA.AperFunction,SMDPad,CuDef*%
%TO.P,J21,1*%
%TO.N,/C_P2_Y*%
G36*
X107482500Y-80633000D02*
G01*
X106982500Y-80633000D01*
X106982500Y-80632398D01*
X106957966Y-80632398D01*
X106909135Y-80627588D01*
X106861010Y-80618016D01*
X106814055Y-80603772D01*
X106768722Y-80584995D01*
X106725449Y-80561864D01*
X106684650Y-80534604D01*
X106646721Y-80503476D01*
X106612024Y-80468779D01*
X106580896Y-80430850D01*
X106553636Y-80390051D01*
X106530505Y-80346778D01*
X106511728Y-80301445D01*
X106497484Y-80254490D01*
X106487912Y-80206365D01*
X106483102Y-80157534D01*
X106483102Y-80133000D01*
X106482500Y-80133000D01*
X106482500Y-79633000D01*
X106483102Y-79633000D01*
X106483102Y-79608466D01*
X106487912Y-79559635D01*
X106497484Y-79511510D01*
X106511728Y-79464555D01*
X106530505Y-79419222D01*
X106553636Y-79375949D01*
X106580896Y-79335150D01*
X106612024Y-79297221D01*
X106646721Y-79262524D01*
X106684650Y-79231396D01*
X106725449Y-79204136D01*
X106768722Y-79181005D01*
X106814055Y-79162228D01*
X106861010Y-79147984D01*
X106909135Y-79138412D01*
X106957966Y-79133602D01*
X106982500Y-79133602D01*
X106982500Y-79133000D01*
X107482500Y-79133000D01*
X107482500Y-80633000D01*
G37*
%TD.AperFunction*%
%TA.AperFunction,SMDPad,CuDef*%
%TO.P,J21,2*%
%TO.N,/C_P2_LEFT*%
G36*
X108282500Y-79133602D02*
G01*
X108307034Y-79133602D01*
X108355865Y-79138412D01*
X108403990Y-79147984D01*
X108450945Y-79162228D01*
X108496278Y-79181005D01*
X108539551Y-79204136D01*
X108580350Y-79231396D01*
X108618279Y-79262524D01*
X108652976Y-79297221D01*
X108684104Y-79335150D01*
X108711364Y-79375949D01*
X108734495Y-79419222D01*
X108753272Y-79464555D01*
X108767516Y-79511510D01*
X108777088Y-79559635D01*
X108781898Y-79608466D01*
X108781898Y-79633000D01*
X108782500Y-79633000D01*
X108782500Y-80133000D01*
X108781898Y-80133000D01*
X108781898Y-80157534D01*
X108777088Y-80206365D01*
X108767516Y-80254490D01*
X108753272Y-80301445D01*
X108734495Y-80346778D01*
X108711364Y-80390051D01*
X108684104Y-80430850D01*
X108652976Y-80468779D01*
X108618279Y-80503476D01*
X108580350Y-80534604D01*
X108539551Y-80561864D01*
X108496278Y-80584995D01*
X108450945Y-80603772D01*
X108403990Y-80618016D01*
X108355865Y-80627588D01*
X108307034Y-80632398D01*
X108282500Y-80632398D01*
X108282500Y-80633000D01*
X107782500Y-80633000D01*
X107782500Y-79133000D01*
X108282500Y-79133000D01*
X108282500Y-79133602D01*
G37*
%TD.AperFunction*%
%TD*%
%TA.AperFunction,SMDPad,CuDef*%
%TO.P,J20,1*%
%TO.N,/C_P2_L*%
G36*
X104117000Y-80633000D02*
G01*
X103617000Y-80633000D01*
X103617000Y-80632398D01*
X103592466Y-80632398D01*
X103543635Y-80627588D01*
X103495510Y-80618016D01*
X103448555Y-80603772D01*
X103403222Y-80584995D01*
X103359949Y-80561864D01*
X103319150Y-80534604D01*
X103281221Y-80503476D01*
X103246524Y-80468779D01*
X103215396Y-80430850D01*
X103188136Y-80390051D01*
X103165005Y-80346778D01*
X103146228Y-80301445D01*
X103131984Y-80254490D01*
X103122412Y-80206365D01*
X103117602Y-80157534D01*
X103117602Y-80133000D01*
X103117000Y-80133000D01*
X103117000Y-79633000D01*
X103117602Y-79633000D01*
X103117602Y-79608466D01*
X103122412Y-79559635D01*
X103131984Y-79511510D01*
X103146228Y-79464555D01*
X103165005Y-79419222D01*
X103188136Y-79375949D01*
X103215396Y-79335150D01*
X103246524Y-79297221D01*
X103281221Y-79262524D01*
X103319150Y-79231396D01*
X103359949Y-79204136D01*
X103403222Y-79181005D01*
X103448555Y-79162228D01*
X103495510Y-79147984D01*
X103543635Y-79138412D01*
X103592466Y-79133602D01*
X103617000Y-79133602D01*
X103617000Y-79133000D01*
X104117000Y-79133000D01*
X104117000Y-80633000D01*
G37*
%TD.AperFunction*%
%TA.AperFunction,SMDPad,CuDef*%
%TO.P,J20,2*%
%TO.N,/C_P2_DOWN*%
G36*
X104917000Y-79133602D02*
G01*
X104941534Y-79133602D01*
X104990365Y-79138412D01*
X105038490Y-79147984D01*
X105085445Y-79162228D01*
X105130778Y-79181005D01*
X105174051Y-79204136D01*
X105214850Y-79231396D01*
X105252779Y-79262524D01*
X105287476Y-79297221D01*
X105318604Y-79335150D01*
X105345864Y-79375949D01*
X105368995Y-79419222D01*
X105387772Y-79464555D01*
X105402016Y-79511510D01*
X105411588Y-79559635D01*
X105416398Y-79608466D01*
X105416398Y-79633000D01*
X105417000Y-79633000D01*
X105417000Y-80133000D01*
X105416398Y-80133000D01*
X105416398Y-80157534D01*
X105411588Y-80206365D01*
X105402016Y-80254490D01*
X105387772Y-80301445D01*
X105368995Y-80346778D01*
X105345864Y-80390051D01*
X105318604Y-80430850D01*
X105287476Y-80468779D01*
X105252779Y-80503476D01*
X105214850Y-80534604D01*
X105174051Y-80561864D01*
X105130778Y-80584995D01*
X105085445Y-80603772D01*
X105038490Y-80618016D01*
X104990365Y-80627588D01*
X104941534Y-80632398D01*
X104917000Y-80632398D01*
X104917000Y-80633000D01*
X104417000Y-80633000D01*
X104417000Y-79133000D01*
X104917000Y-79133000D01*
X104917000Y-79133602D01*
G37*
%TD.AperFunction*%
%TD*%
%TA.AperFunction,SMDPad,CuDef*%
%TO.P,J19,1*%
%TO.N,/C_P2_R*%
G36*
X100751500Y-80633000D02*
G01*
X100251500Y-80633000D01*
X100251500Y-80632398D01*
X100226966Y-80632398D01*
X100178135Y-80627588D01*
X100130010Y-80618016D01*
X100083055Y-80603772D01*
X100037722Y-80584995D01*
X99994449Y-80561864D01*
X99953650Y-80534604D01*
X99915721Y-80503476D01*
X99881024Y-80468779D01*
X99849896Y-80430850D01*
X99822636Y-80390051D01*
X99799505Y-80346778D01*
X99780728Y-80301445D01*
X99766484Y-80254490D01*
X99756912Y-80206365D01*
X99752102Y-80157534D01*
X99752102Y-80133000D01*
X99751500Y-80133000D01*
X99751500Y-79633000D01*
X99752102Y-79633000D01*
X99752102Y-79608466D01*
X99756912Y-79559635D01*
X99766484Y-79511510D01*
X99780728Y-79464555D01*
X99799505Y-79419222D01*
X99822636Y-79375949D01*
X99849896Y-79335150D01*
X99881024Y-79297221D01*
X99915721Y-79262524D01*
X99953650Y-79231396D01*
X99994449Y-79204136D01*
X100037722Y-79181005D01*
X100083055Y-79162228D01*
X100130010Y-79147984D01*
X100178135Y-79138412D01*
X100226966Y-79133602D01*
X100251500Y-79133602D01*
X100251500Y-79133000D01*
X100751500Y-79133000D01*
X100751500Y-80633000D01*
G37*
%TD.AperFunction*%
%TA.AperFunction,SMDPad,CuDef*%
%TO.P,J19,2*%
%TO.N,/C_P2_UP*%
G36*
X101551500Y-79133602D02*
G01*
X101576034Y-79133602D01*
X101624865Y-79138412D01*
X101672990Y-79147984D01*
X101719945Y-79162228D01*
X101765278Y-79181005D01*
X101808551Y-79204136D01*
X101849350Y-79231396D01*
X101887279Y-79262524D01*
X101921976Y-79297221D01*
X101953104Y-79335150D01*
X101980364Y-79375949D01*
X102003495Y-79419222D01*
X102022272Y-79464555D01*
X102036516Y-79511510D01*
X102046088Y-79559635D01*
X102050898Y-79608466D01*
X102050898Y-79633000D01*
X102051500Y-79633000D01*
X102051500Y-80133000D01*
X102050898Y-80133000D01*
X102050898Y-80157534D01*
X102046088Y-80206365D01*
X102036516Y-80254490D01*
X102022272Y-80301445D01*
X102003495Y-80346778D01*
X101980364Y-80390051D01*
X101953104Y-80430850D01*
X101921976Y-80468779D01*
X101887279Y-80503476D01*
X101849350Y-80534604D01*
X101808551Y-80561864D01*
X101765278Y-80584995D01*
X101719945Y-80603772D01*
X101672990Y-80618016D01*
X101624865Y-80627588D01*
X101576034Y-80632398D01*
X101551500Y-80632398D01*
X101551500Y-80633000D01*
X101051500Y-80633000D01*
X101051500Y-79133000D01*
X101551500Y-79133000D01*
X101551500Y-79133602D01*
G37*
%TD.AperFunction*%
%TD*%
D12*
%TO.P,J18,2*%
%TO.N,/C_P1_R*%
X97790000Y-67016000D03*
%TO.P,J18,1*%
%TO.N,/C_SHORT*%
%TA.AperFunction,ComponentPad*%
G36*
G01*
X97040000Y-63666000D02*
X98540000Y-63666000D01*
G75*
G02*
X98790000Y-63916000I0J-250000D01*
G01*
X98790000Y-65116000D01*
G75*
G02*
X98540000Y-65366000I-250000J0D01*
G01*
X97040000Y-65366000D01*
G75*
G02*
X96790000Y-65116000I0J250000D01*
G01*
X96790000Y-63916000D01*
G75*
G02*
X97040000Y-63666000I250000J0D01*
G01*
G37*
%TD.AperFunction*%
%TD*%
%TO.P,J17,2*%
%TO.N,/C_P1_L*%
X104648000Y-67016000D03*
%TO.P,J17,1*%
%TO.N,/C_SHORT*%
%TA.AperFunction,ComponentPad*%
G36*
G01*
X103898000Y-63666000D02*
X105398000Y-63666000D01*
G75*
G02*
X105648000Y-63916000I0J-250000D01*
G01*
X105648000Y-65116000D01*
G75*
G02*
X105398000Y-65366000I-250000J0D01*
G01*
X103898000Y-65366000D01*
G75*
G02*
X103648000Y-65116000I0J250000D01*
G01*
X103648000Y-63916000D01*
G75*
G02*
X103898000Y-63666000I250000J0D01*
G01*
G37*
%TD.AperFunction*%
%TD*%
%TO.P,J16,2*%
%TO.N,/C_P1_Y*%
X111506000Y-67016000D03*
%TO.P,J16,1*%
%TO.N,/C_SHORT*%
%TA.AperFunction,ComponentPad*%
G36*
G01*
X110756000Y-63666000D02*
X112256000Y-63666000D01*
G75*
G02*
X112506000Y-63916000I0J-250000D01*
G01*
X112506000Y-65116000D01*
G75*
G02*
X112256000Y-65366000I-250000J0D01*
G01*
X110756000Y-65366000D01*
G75*
G02*
X110506000Y-65116000I0J250000D01*
G01*
X110506000Y-63916000D01*
G75*
G02*
X110756000Y-63666000I250000J0D01*
G01*
G37*
%TD.AperFunction*%
%TD*%
%TO.P,J15,2*%
%TO.N,/C_P1_X*%
X118364000Y-67016000D03*
%TO.P,J15,1*%
%TO.N,/C_SHORT*%
%TA.AperFunction,ComponentPad*%
G36*
G01*
X117614000Y-63666000D02*
X119114000Y-63666000D01*
G75*
G02*
X119364000Y-63916000I0J-250000D01*
G01*
X119364000Y-65116000D01*
G75*
G02*
X119114000Y-65366000I-250000J0D01*
G01*
X117614000Y-65366000D01*
G75*
G02*
X117364000Y-65116000I0J250000D01*
G01*
X117364000Y-63916000D01*
G75*
G02*
X117614000Y-63666000I250000J0D01*
G01*
G37*
%TD.AperFunction*%
%TD*%
%TO.P,J14,2*%
%TO.N,/C_P1_B*%
X125222000Y-67016000D03*
%TO.P,J14,1*%
%TO.N,/C_SHORT*%
%TA.AperFunction,ComponentPad*%
G36*
G01*
X124472000Y-63666000D02*
X125972000Y-63666000D01*
G75*
G02*
X126222000Y-63916000I0J-250000D01*
G01*
X126222000Y-65116000D01*
G75*
G02*
X125972000Y-65366000I-250000J0D01*
G01*
X124472000Y-65366000D01*
G75*
G02*
X124222000Y-65116000I0J250000D01*
G01*
X124222000Y-63916000D01*
G75*
G02*
X124472000Y-63666000I250000J0D01*
G01*
G37*
%TD.AperFunction*%
%TD*%
%TO.P,J13,2*%
%TO.N,/C_P1_A*%
X132080000Y-67016000D03*
%TO.P,J13,1*%
%TO.N,/C_SHORT*%
%TA.AperFunction,ComponentPad*%
G36*
G01*
X131330000Y-63666000D02*
X132830000Y-63666000D01*
G75*
G02*
X133080000Y-63916000I0J-250000D01*
G01*
X133080000Y-65116000D01*
G75*
G02*
X132830000Y-65366000I-250000J0D01*
G01*
X131330000Y-65366000D01*
G75*
G02*
X131080000Y-65116000I0J250000D01*
G01*
X131080000Y-63916000D01*
G75*
G02*
X131330000Y-63666000I250000J0D01*
G01*
G37*
%TD.AperFunction*%
%TD*%
%TO.P,J12,2*%
%TO.N,/C_P1_SELECT*%
X138938000Y-67016000D03*
%TO.P,J12,1*%
%TO.N,/C_SHORT*%
%TA.AperFunction,ComponentPad*%
G36*
G01*
X138188000Y-63666000D02*
X139688000Y-63666000D01*
G75*
G02*
X139938000Y-63916000I0J-250000D01*
G01*
X139938000Y-65116000D01*
G75*
G02*
X139688000Y-65366000I-250000J0D01*
G01*
X138188000Y-65366000D01*
G75*
G02*
X137938000Y-65116000I0J250000D01*
G01*
X137938000Y-63916000D01*
G75*
G02*
X138188000Y-63666000I250000J0D01*
G01*
G37*
%TD.AperFunction*%
%TD*%
%TO.P,J11,2*%
%TO.N,/C_P2_R*%
X97790000Y-75652000D03*
%TO.P,J11,1*%
%TO.N,/C_SHORT*%
%TA.AperFunction,ComponentPad*%
G36*
G01*
X97040000Y-72302000D02*
X98540000Y-72302000D01*
G75*
G02*
X98790000Y-72552000I0J-250000D01*
G01*
X98790000Y-73752000D01*
G75*
G02*
X98540000Y-74002000I-250000J0D01*
G01*
X97040000Y-74002000D01*
G75*
G02*
X96790000Y-73752000I0J250000D01*
G01*
X96790000Y-72552000D01*
G75*
G02*
X97040000Y-72302000I250000J0D01*
G01*
G37*
%TD.AperFunction*%
%TD*%
%TO.P,J10,2*%
%TO.N,/C_P2_L*%
X104648000Y-75652000D03*
%TO.P,J10,1*%
%TO.N,/C_SHORT*%
%TA.AperFunction,ComponentPad*%
G36*
G01*
X103898000Y-72302000D02*
X105398000Y-72302000D01*
G75*
G02*
X105648000Y-72552000I0J-250000D01*
G01*
X105648000Y-73752000D01*
G75*
G02*
X105398000Y-74002000I-250000J0D01*
G01*
X103898000Y-74002000D01*
G75*
G02*
X103648000Y-73752000I0J250000D01*
G01*
X103648000Y-72552000D01*
G75*
G02*
X103898000Y-72302000I250000J0D01*
G01*
G37*
%TD.AperFunction*%
%TD*%
%TO.P,J9,2*%
%TO.N,/C_P2_Y*%
X111506000Y-75652000D03*
%TO.P,J9,1*%
%TO.N,/C_SHORT*%
%TA.AperFunction,ComponentPad*%
G36*
G01*
X110756000Y-72302000D02*
X112256000Y-72302000D01*
G75*
G02*
X112506000Y-72552000I0J-250000D01*
G01*
X112506000Y-73752000D01*
G75*
G02*
X112256000Y-74002000I-250000J0D01*
G01*
X110756000Y-74002000D01*
G75*
G02*
X110506000Y-73752000I0J250000D01*
G01*
X110506000Y-72552000D01*
G75*
G02*
X110756000Y-72302000I250000J0D01*
G01*
G37*
%TD.AperFunction*%
%TD*%
%TO.P,J8,2*%
%TO.N,/C_P2_X*%
X118364000Y-75652000D03*
%TO.P,J8,1*%
%TO.N,/C_SHORT*%
%TA.AperFunction,ComponentPad*%
G36*
G01*
X117614000Y-72302000D02*
X119114000Y-72302000D01*
G75*
G02*
X119364000Y-72552000I0J-250000D01*
G01*
X119364000Y-73752000D01*
G75*
G02*
X119114000Y-74002000I-250000J0D01*
G01*
X117614000Y-74002000D01*
G75*
G02*
X117364000Y-73752000I0J250000D01*
G01*
X117364000Y-72552000D01*
G75*
G02*
X117614000Y-72302000I250000J0D01*
G01*
G37*
%TD.AperFunction*%
%TD*%
%TO.P,J7,2*%
%TO.N,/C_P2_B*%
X125222000Y-75652000D03*
%TO.P,J7,1*%
%TO.N,/C_SHORT*%
%TA.AperFunction,ComponentPad*%
G36*
G01*
X124472000Y-72302000D02*
X125972000Y-72302000D01*
G75*
G02*
X126222000Y-72552000I0J-250000D01*
G01*
X126222000Y-73752000D01*
G75*
G02*
X125972000Y-74002000I-250000J0D01*
G01*
X124472000Y-74002000D01*
G75*
G02*
X124222000Y-73752000I0J250000D01*
G01*
X124222000Y-72552000D01*
G75*
G02*
X124472000Y-72302000I250000J0D01*
G01*
G37*
%TD.AperFunction*%
%TD*%
%TO.P,J6,2*%
%TO.N,/C_P2_A*%
X132080000Y-75652000D03*
%TO.P,J6,1*%
%TO.N,/C_SHORT*%
%TA.AperFunction,ComponentPad*%
G36*
G01*
X131330000Y-72302000D02*
X132830000Y-72302000D01*
G75*
G02*
X133080000Y-72552000I0J-250000D01*
G01*
X133080000Y-73752000D01*
G75*
G02*
X132830000Y-74002000I-250000J0D01*
G01*
X131330000Y-74002000D01*
G75*
G02*
X131080000Y-73752000I0J250000D01*
G01*
X131080000Y-72552000D01*
G75*
G02*
X131330000Y-72302000I250000J0D01*
G01*
G37*
%TD.AperFunction*%
%TD*%
%TO.P,J5,2*%
%TO.N,/C_P2_SELECT*%
X138938000Y-75652000D03*
%TO.P,J5,1*%
%TO.N,/C_SHORT*%
%TA.AperFunction,ComponentPad*%
G36*
G01*
X138188000Y-72302000D02*
X139688000Y-72302000D01*
G75*
G02*
X139938000Y-72552000I0J-250000D01*
G01*
X139938000Y-73752000D01*
G75*
G02*
X139688000Y-74002000I-250000J0D01*
G01*
X138188000Y-74002000D01*
G75*
G02*
X137938000Y-73752000I0J250000D01*
G01*
X137938000Y-72552000D01*
G75*
G02*
X138188000Y-72302000I250000J0D01*
G01*
G37*
%TD.AperFunction*%
%TD*%
%TO.P,J4,2*%
%TO.N,/C_P1_START*%
X145796000Y-67016000D03*
%TO.P,J4,1*%
%TO.N,/C_SHORT*%
%TA.AperFunction,ComponentPad*%
G36*
G01*
X145046000Y-63666000D02*
X146546000Y-63666000D01*
G75*
G02*
X146796000Y-63916000I0J-250000D01*
G01*
X146796000Y-65116000D01*
G75*
G02*
X146546000Y-65366000I-250000J0D01*
G01*
X145046000Y-65366000D01*
G75*
G02*
X144796000Y-65116000I0J250000D01*
G01*
X144796000Y-63916000D01*
G75*
G02*
X145046000Y-63666000I250000J0D01*
G01*
G37*
%TD.AperFunction*%
%TD*%
D13*
%TO.P,J3,5*%
%TO.N,/C_SHORT*%
X151798000Y-65659000D03*
%TO.P,J3,4*%
%TO.N,/C_P1_LEFT*%
X154298000Y-65659000D03*
%TO.P,J3,3*%
%TO.N,/C_P1_RIGHT*%
X156798000Y-65659000D03*
%TO.P,J3,2*%
%TO.N,/C_P1_DOWN*%
X159298000Y-65659000D03*
%TO.P,J3,1*%
%TO.N,/C_P1_UP*%
%TA.AperFunction,ComponentPad*%
G36*
G01*
X162648000Y-64934000D02*
X162648000Y-66384000D01*
G75*
G02*
X162398000Y-66634000I-250000J0D01*
G01*
X161198000Y-66634000D01*
G75*
G02*
X160948000Y-66384000I0J250000D01*
G01*
X160948000Y-64934000D01*
G75*
G02*
X161198000Y-64684000I250000J0D01*
G01*
X162398000Y-64684000D01*
G75*
G02*
X162648000Y-64934000I0J-250000D01*
G01*
G37*
%TD.AperFunction*%
%TD*%
D12*
%TO.P,J2,2*%
%TO.N,/C_P2_START*%
X145796000Y-75652000D03*
%TO.P,J2,1*%
%TO.N,/C_SHORT*%
%TA.AperFunction,ComponentPad*%
G36*
G01*
X145046000Y-72302000D02*
X146546000Y-72302000D01*
G75*
G02*
X146796000Y-72552000I0J-250000D01*
G01*
X146796000Y-73752000D01*
G75*
G02*
X146546000Y-74002000I-250000J0D01*
G01*
X145046000Y-74002000D01*
G75*
G02*
X144796000Y-73752000I0J250000D01*
G01*
X144796000Y-72552000D01*
G75*
G02*
X145046000Y-72302000I250000J0D01*
G01*
G37*
%TD.AperFunction*%
%TD*%
D13*
%TO.P,J1,5*%
%TO.N,/C_SHORT*%
X151798000Y-74549000D03*
%TO.P,J1,4*%
%TO.N,/C_P2_LEFT*%
X154298000Y-74549000D03*
%TO.P,J1,3*%
%TO.N,/C_P2_RIGHT*%
X156798000Y-74549000D03*
%TO.P,J1,2*%
%TO.N,/C_P2_DOWN*%
X159298000Y-74549000D03*
%TO.P,J1,1*%
%TO.N,/C_P2_UP*%
%TA.AperFunction,ComponentPad*%
G36*
G01*
X162648000Y-73824000D02*
X162648000Y-75274000D01*
G75*
G02*
X162398000Y-75524000I-250000J0D01*
G01*
X161198000Y-75524000D01*
G75*
G02*
X160948000Y-75274000I0J250000D01*
G01*
X160948000Y-73824000D01*
G75*
G02*
X161198000Y-73574000I250000J0D01*
G01*
X162398000Y-73574000D01*
G75*
G02*
X162648000Y-73824000I0J-250000D01*
G01*
G37*
%TD.AperFunction*%
%TD*%
%TO.P,C3,2*%
%TO.N,GND*%
%TA.AperFunction,SMDPad,CuDef*%
G36*
G01*
X120719000Y-84803000D02*
X120719000Y-83853000D01*
G75*
G02*
X120969000Y-83603000I250000J0D01*
G01*
X121644000Y-83603000D01*
G75*
G02*
X121894000Y-83853000I0J-250000D01*
G01*
X121894000Y-84803000D01*
G75*
G02*
X121644000Y-85053000I-250000J0D01*
G01*
X120969000Y-85053000D01*
G75*
G02*
X120719000Y-84803000I0J250000D01*
G01*
G37*
%TD.AperFunction*%
%TO.P,C3,1*%
%TO.N,VCC*%
%TA.AperFunction,SMDPad,CuDef*%
G36*
G01*
X118644000Y-84803000D02*
X118644000Y-83853000D01*
G75*
G02*
X118894000Y-83603000I250000J0D01*
G01*
X119569000Y-83603000D01*
G75*
G02*
X119819000Y-83853000I0J-250000D01*
G01*
X119819000Y-84803000D01*
G75*
G02*
X119569000Y-85053000I-250000J0D01*
G01*
X118894000Y-85053000D01*
G75*
G02*
X118644000Y-84803000I0J250000D01*
G01*
G37*
%TD.AperFunction*%
%TD*%
%TO.P,C2,2*%
%TO.N,GND*%
%TA.AperFunction,SMDPad,CuDef*%
G36*
G01*
X138753000Y-84803000D02*
X138753000Y-83853000D01*
G75*
G02*
X139003000Y-83603000I250000J0D01*
G01*
X139678000Y-83603000D01*
G75*
G02*
X139928000Y-83853000I0J-250000D01*
G01*
X139928000Y-84803000D01*
G75*
G02*
X139678000Y-85053000I-250000J0D01*
G01*
X139003000Y-85053000D01*
G75*
G02*
X138753000Y-84803000I0J250000D01*
G01*
G37*
%TD.AperFunction*%
%TO.P,C2,1*%
%TO.N,VCC*%
%TA.AperFunction,SMDPad,CuDef*%
G36*
G01*
X136678000Y-84803000D02*
X136678000Y-83853000D01*
G75*
G02*
X136928000Y-83603000I250000J0D01*
G01*
X137603000Y-83603000D01*
G75*
G02*
X137853000Y-83853000I0J-250000D01*
G01*
X137853000Y-84803000D01*
G75*
G02*
X137603000Y-85053000I-250000J0D01*
G01*
X136928000Y-85053000D01*
G75*
G02*
X136678000Y-84803000I0J250000D01*
G01*
G37*
%TD.AperFunction*%
%TD*%
%TO.P,C1,2*%
%TO.N,GND*%
%TA.AperFunction,SMDPad,CuDef*%
G36*
G01*
X156914000Y-84803000D02*
X156914000Y-83853000D01*
G75*
G02*
X157164000Y-83603000I250000J0D01*
G01*
X157839000Y-83603000D01*
G75*
G02*
X158089000Y-83853000I0J-250000D01*
G01*
X158089000Y-84803000D01*
G75*
G02*
X157839000Y-85053000I-250000J0D01*
G01*
X157164000Y-85053000D01*
G75*
G02*
X156914000Y-84803000I0J250000D01*
G01*
G37*
%TD.AperFunction*%
%TO.P,C1,1*%
%TO.N,VCC*%
%TA.AperFunction,SMDPad,CuDef*%
G36*
G01*
X154839000Y-84803000D02*
X154839000Y-83853000D01*
G75*
G02*
X155089000Y-83603000I250000J0D01*
G01*
X155764000Y-83603000D01*
G75*
G02*
X156014000Y-83853000I0J-250000D01*
G01*
X156014000Y-84803000D01*
G75*
G02*
X155764000Y-85053000I-250000J0D01*
G01*
X155089000Y-85053000D01*
G75*
G02*
X154839000Y-84803000I0J250000D01*
G01*
G37*
%TD.AperFunction*%
%TD*%
D14*
%TO.P,OUT1,5*%
%TO.N,/D_OUT*%
X162306000Y-91948000D03*
%TO.P,OUT1,4*%
%TO.N,/CLK*%
X162306000Y-89408000D03*
%TO.P,OUT1,3*%
%TO.N,/LOAD*%
X162306000Y-86868000D03*
%TO.P,OUT1,2*%
%TO.N,GND*%
X162306000Y-84328000D03*
D15*
%TO.P,OUT1,1*%
%TO.N,VCC*%
X162306000Y-81788000D03*
%TD*%
D14*
%TO.P,IN1,5*%
%TO.N,/D_IN*%
X97282000Y-92075000D03*
%TO.P,IN1,4*%
%TO.N,/CLK*%
X97282000Y-89535000D03*
%TO.P,IN1,3*%
%TO.N,/LOAD*%
X97282000Y-86995000D03*
%TO.P,IN1,2*%
%TO.N,GND*%
X97282000Y-84455000D03*
D15*
%TO.P,IN1,1*%
%TO.N,VCC*%
X97282000Y-81915000D03*
%TD*%
D16*
%TO.P,RN1,2*%
%TO.N,/PULL*%
X143803000Y-89008000D03*
%TO.P,RN1,3*%
X143803000Y-89808000D03*
%TO.P,RN1,1*%
X143803000Y-88208000D03*
%TO.P,RN1,4*%
X143803000Y-90608000D03*
%TO.P,RN1,8*%
%TO.N,/C_P1_RIGHT*%
X145503000Y-88208000D03*
%TO.P,RN1,7*%
%TO.N,/C_P1_LEFT*%
X145503000Y-89008000D03*
%TO.P,RN1,6*%
%TO.N,/C_P1_DOWN*%
X145503000Y-89808000D03*
%TO.P,RN1,5*%
%TO.N,/C_P1_UP*%
X145503000Y-90608000D03*
%TD*%
%TO.P,RN2,5*%
%TO.N,/C_P1_START*%
X156122000Y-88208000D03*
%TO.P,RN2,6*%
%TO.N,/C_P1_SELECT*%
X156122000Y-89008000D03*
%TO.P,RN2,7*%
%TO.N,/C_P1_A*%
X156122000Y-89808000D03*
%TO.P,RN2,8*%
%TO.N,/C_P1_B*%
X156122000Y-90608000D03*
%TO.P,RN2,4*%
%TO.N,/PULL*%
X157822000Y-88208000D03*
%TO.P,RN2,1*%
X157822000Y-90608000D03*
%TO.P,RN2,3*%
X157822000Y-89008000D03*
%TO.P,RN2,2*%
X157822000Y-89808000D03*
%TD*%
D17*
%TO.P,SHORT1,2*%
%TO.N,/C_SHORT*%
X102870000Y-92202000D03*
%TO.P,SHORT1,3*%
%TO.N,VCC*%
X101570000Y-92202000D03*
%TO.P,SHORT1,1*%
%TO.N,GND*%
X104170000Y-92202000D03*
%TD*%
%TO.P,PULL1,2*%
%TO.N,/PULL*%
X102870000Y-88138000D03*
%TO.P,PULL1,3*%
%TO.N,GND*%
X101570000Y-88138000D03*
%TO.P,PULL1,1*%
%TO.N,VCC*%
X104170000Y-88138000D03*
%TD*%
D16*
%TO.P,RN3,5*%
%TO.N,/C_P1_X*%
X127342000Y-90608000D03*
%TO.P,RN3,6*%
%TO.N,/C_P1_Y*%
X127342000Y-89808000D03*
%TO.P,RN3,7*%
%TO.N,/C_P1_L*%
X127342000Y-89008000D03*
%TO.P,RN3,8*%
%TO.N,/C_P1_R*%
X127342000Y-88208000D03*
%TO.P,RN3,4*%
%TO.N,/PULL*%
X125642000Y-90608000D03*
%TO.P,RN3,1*%
X125642000Y-88208000D03*
%TO.P,RN3,3*%
X125642000Y-89808000D03*
%TO.P,RN3,2*%
X125642000Y-89008000D03*
%TD*%
%TO.P,RN4,5*%
%TO.N,/C_P2_UP*%
X137961000Y-88081000D03*
%TO.P,RN4,6*%
%TO.N,/C_P2_DOWN*%
X137961000Y-88881000D03*
%TO.P,RN4,7*%
%TO.N,/C_P2_LEFT*%
X137961000Y-89681000D03*
%TO.P,RN4,8*%
%TO.N,/C_P2_RIGHT*%
X137961000Y-90481000D03*
%TO.P,RN4,4*%
%TO.N,/PULL*%
X139661000Y-88081000D03*
%TO.P,RN4,1*%
X139661000Y-90481000D03*
%TO.P,RN4,3*%
X139661000Y-88881000D03*
%TO.P,RN4,2*%
X139661000Y-89681000D03*
%TD*%
%TO.P,RN5,5*%
%TO.N,/C_P2_START*%
X109371500Y-90481000D03*
%TO.P,RN5,6*%
%TO.N,/C_P2_SELECT*%
X109371500Y-89681000D03*
%TO.P,RN5,7*%
%TO.N,/C_P2_A*%
X109371500Y-88881000D03*
%TO.P,RN5,8*%
%TO.N,/C_P2_B*%
X109371500Y-88081000D03*
%TO.P,RN5,4*%
%TO.N,/PULL*%
X107671500Y-90481000D03*
%TO.P,RN5,1*%
X107671500Y-88081000D03*
%TO.P,RN5,3*%
X107671500Y-89681000D03*
%TO.P,RN5,2*%
X107671500Y-88881000D03*
%TD*%
%TO.P,RN6,5*%
%TO.N,/C_P2_X*%
X119927000Y-88208000D03*
%TO.P,RN6,6*%
%TO.N,/C_P2_Y*%
X119927000Y-89008000D03*
%TO.P,RN6,7*%
%TO.N,/C_P2_L*%
X119927000Y-89808000D03*
%TO.P,RN6,8*%
%TO.N,/C_P2_R*%
X119927000Y-90608000D03*
%TO.P,RN6,4*%
%TO.N,/PULL*%
X121627000Y-88208000D03*
%TO.P,RN6,1*%
X121627000Y-90608000D03*
%TO.P,RN6,3*%
X121627000Y-89008000D03*
%TO.P,RN6,2*%
X121627000Y-89808000D03*
%TD*%
%TO.P,74HC165_3,16*%
%TO.N,VCC*%
%TA.AperFunction,SMDPad,CuDef*%
G36*
G01*
X116117500Y-85049500D02*
X116117500Y-84749500D01*
G75*
G02*
X116267500Y-84599500I150000J0D01*
G01*
X117917500Y-84599500D01*
G75*
G02*
X118067500Y-84749500I0J-150000D01*
G01*
X118067500Y-85049500D01*
G75*
G02*
X117917500Y-85199500I-150000J0D01*
G01*
X116267500Y-85199500D01*
G75*
G02*
X116117500Y-85049500I0J150000D01*
G01*
G37*
%TD.AperFunction*%
%TO.P,74HC165_3,15*%
%TO.N,GND*%
%TA.AperFunction,SMDPad,CuDef*%
G36*
G01*
X116117500Y-86319500D02*
X116117500Y-86019500D01*
G75*
G02*
X116267500Y-85869500I150000J0D01*
G01*
X117917500Y-85869500D01*
G75*
G02*
X118067500Y-86019500I0J-150000D01*
G01*
X118067500Y-86319500D01*
G75*
G02*
X117917500Y-86469500I-150000J0D01*
G01*
X116267500Y-86469500D01*
G75*
G02*
X116117500Y-86319500I0J150000D01*
G01*
G37*
%TD.AperFunction*%
%TO.P,74HC165_3,14*%
%TO.N,/C_P2_X*%
%TA.AperFunction,SMDPad,CuDef*%
G36*
G01*
X116117500Y-87589500D02*
X116117500Y-87289500D01*
G75*
G02*
X116267500Y-87139500I150000J0D01*
G01*
X117917500Y-87139500D01*
G75*
G02*
X118067500Y-87289500I0J-150000D01*
G01*
X118067500Y-87589500D01*
G75*
G02*
X117917500Y-87739500I-150000J0D01*
G01*
X116267500Y-87739500D01*
G75*
G02*
X116117500Y-87589500I0J150000D01*
G01*
G37*
%TD.AperFunction*%
%TO.P,74HC165_3,13*%
%TO.N,/C_P2_Y*%
%TA.AperFunction,SMDPad,CuDef*%
G36*
G01*
X116117500Y-88859500D02*
X116117500Y-88559500D01*
G75*
G02*
X116267500Y-88409500I150000J0D01*
G01*
X117917500Y-88409500D01*
G75*
G02*
X118067500Y-88559500I0J-150000D01*
G01*
X118067500Y-88859500D01*
G75*
G02*
X117917500Y-89009500I-150000J0D01*
G01*
X116267500Y-89009500D01*
G75*
G02*
X116117500Y-88859500I0J150000D01*
G01*
G37*
%TD.AperFunction*%
%TO.P,74HC165_3,12*%
%TO.N,/C_P2_L*%
%TA.AperFunction,SMDPad,CuDef*%
G36*
G01*
X116117500Y-90129500D02*
X116117500Y-89829500D01*
G75*
G02*
X116267500Y-89679500I150000J0D01*
G01*
X117917500Y-89679500D01*
G75*
G02*
X118067500Y-89829500I0J-150000D01*
G01*
X118067500Y-90129500D01*
G75*
G02*
X117917500Y-90279500I-150000J0D01*
G01*
X116267500Y-90279500D01*
G75*
G02*
X116117500Y-90129500I0J150000D01*
G01*
G37*
%TD.AperFunction*%
%TO.P,74HC165_3,11*%
%TO.N,/C_P2_R*%
%TA.AperFunction,SMDPad,CuDef*%
G36*
G01*
X116117500Y-91399500D02*
X116117500Y-91099500D01*
G75*
G02*
X116267500Y-90949500I150000J0D01*
G01*
X117917500Y-90949500D01*
G75*
G02*
X118067500Y-91099500I0J-150000D01*
G01*
X118067500Y-91399500D01*
G75*
G02*
X117917500Y-91549500I-150000J0D01*
G01*
X116267500Y-91549500D01*
G75*
G02*
X116117500Y-91399500I0J150000D01*
G01*
G37*
%TD.AperFunction*%
%TO.P,74HC165_3,10*%
%TO.N,/D_IN*%
%TA.AperFunction,SMDPad,CuDef*%
G36*
G01*
X116117500Y-92669500D02*
X116117500Y-92369500D01*
G75*
G02*
X116267500Y-92219500I150000J0D01*
G01*
X117917500Y-92219500D01*
G75*
G02*
X118067500Y-92369500I0J-150000D01*
G01*
X118067500Y-92669500D01*
G75*
G02*
X117917500Y-92819500I-150000J0D01*
G01*
X116267500Y-92819500D01*
G75*
G02*
X116117500Y-92669500I0J150000D01*
G01*
G37*
%TD.AperFunction*%
%TO.P,74HC165_3,9*%
%TO.N,/D_OUT_3*%
%TA.AperFunction,SMDPad,CuDef*%
G36*
G01*
X116117500Y-93939500D02*
X116117500Y-93639500D01*
G75*
G02*
X116267500Y-93489500I150000J0D01*
G01*
X117917500Y-93489500D01*
G75*
G02*
X118067500Y-93639500I0J-150000D01*
G01*
X118067500Y-93939500D01*
G75*
G02*
X117917500Y-94089500I-150000J0D01*
G01*
X116267500Y-94089500D01*
G75*
G02*
X116117500Y-93939500I0J150000D01*
G01*
G37*
%TD.AperFunction*%
%TO.P,74HC165_3,8*%
%TO.N,GND*%
%TA.AperFunction,SMDPad,CuDef*%
G36*
G01*
X111167500Y-93939500D02*
X111167500Y-93639500D01*
G75*
G02*
X111317500Y-93489500I150000J0D01*
G01*
X112967500Y-93489500D01*
G75*
G02*
X113117500Y-93639500I0J-150000D01*
G01*
X113117500Y-93939500D01*
G75*
G02*
X112967500Y-94089500I-150000J0D01*
G01*
X111317500Y-94089500D01*
G75*
G02*
X111167500Y-93939500I0J150000D01*
G01*
G37*
%TD.AperFunction*%
%TO.P,74HC165_3,7*%
%TO.N,N/C*%
%TA.AperFunction,SMDPad,CuDef*%
G36*
G01*
X111167500Y-92669500D02*
X111167500Y-92369500D01*
G75*
G02*
X111317500Y-92219500I150000J0D01*
G01*
X112967500Y-92219500D01*
G75*
G02*
X113117500Y-92369500I0J-150000D01*
G01*
X113117500Y-92669500D01*
G75*
G02*
X112967500Y-92819500I-150000J0D01*
G01*
X111317500Y-92819500D01*
G75*
G02*
X111167500Y-92669500I0J150000D01*
G01*
G37*
%TD.AperFunction*%
%TO.P,74HC165_3,6*%
%TO.N,/C_P2_START*%
%TA.AperFunction,SMDPad,CuDef*%
G36*
G01*
X111167500Y-91399500D02*
X111167500Y-91099500D01*
G75*
G02*
X111317500Y-90949500I150000J0D01*
G01*
X112967500Y-90949500D01*
G75*
G02*
X113117500Y-91099500I0J-150000D01*
G01*
X113117500Y-91399500D01*
G75*
G02*
X112967500Y-91549500I-150000J0D01*
G01*
X111317500Y-91549500D01*
G75*
G02*
X111167500Y-91399500I0J150000D01*
G01*
G37*
%TD.AperFunction*%
%TO.P,74HC165_3,5*%
%TO.N,/C_P2_SELECT*%
%TA.AperFunction,SMDPad,CuDef*%
G36*
G01*
X111167500Y-90129500D02*
X111167500Y-89829500D01*
G75*
G02*
X111317500Y-89679500I150000J0D01*
G01*
X112967500Y-89679500D01*
G75*
G02*
X113117500Y-89829500I0J-150000D01*
G01*
X113117500Y-90129500D01*
G75*
G02*
X112967500Y-90279500I-150000J0D01*
G01*
X111317500Y-90279500D01*
G75*
G02*
X111167500Y-90129500I0J150000D01*
G01*
G37*
%TD.AperFunction*%
%TO.P,74HC165_3,4*%
%TO.N,/C_P2_A*%
%TA.AperFunction,SMDPad,CuDef*%
G36*
G01*
X111167500Y-88859500D02*
X111167500Y-88559500D01*
G75*
G02*
X111317500Y-88409500I150000J0D01*
G01*
X112967500Y-88409500D01*
G75*
G02*
X113117500Y-88559500I0J-150000D01*
G01*
X113117500Y-88859500D01*
G75*
G02*
X112967500Y-89009500I-150000J0D01*
G01*
X111317500Y-89009500D01*
G75*
G02*
X111167500Y-88859500I0J150000D01*
G01*
G37*
%TD.AperFunction*%
%TO.P,74HC165_3,3*%
%TO.N,/C_P2_B*%
%TA.AperFunction,SMDPad,CuDef*%
G36*
G01*
X111167500Y-87589500D02*
X111167500Y-87289500D01*
G75*
G02*
X111317500Y-87139500I150000J0D01*
G01*
X112967500Y-87139500D01*
G75*
G02*
X113117500Y-87289500I0J-150000D01*
G01*
X113117500Y-87589500D01*
G75*
G02*
X112967500Y-87739500I-150000J0D01*
G01*
X111317500Y-87739500D01*
G75*
G02*
X111167500Y-87589500I0J150000D01*
G01*
G37*
%TD.AperFunction*%
%TO.P,74HC165_3,2*%
%TO.N,/CLK*%
%TA.AperFunction,SMDPad,CuDef*%
G36*
G01*
X111167500Y-86319500D02*
X111167500Y-86019500D01*
G75*
G02*
X111317500Y-85869500I150000J0D01*
G01*
X112967500Y-85869500D01*
G75*
G02*
X113117500Y-86019500I0J-150000D01*
G01*
X113117500Y-86319500D01*
G75*
G02*
X112967500Y-86469500I-150000J0D01*
G01*
X111317500Y-86469500D01*
G75*
G02*
X111167500Y-86319500I0J150000D01*
G01*
G37*
%TD.AperFunction*%
%TO.P,74HC165_3,1*%
%TO.N,/LOAD*%
%TA.AperFunction,SMDPad,CuDef*%
G36*
G01*
X111167500Y-85049500D02*
X111167500Y-84749500D01*
G75*
G02*
X111317500Y-84599500I150000J0D01*
G01*
X112967500Y-84599500D01*
G75*
G02*
X113117500Y-84749500I0J-150000D01*
G01*
X113117500Y-85049500D01*
G75*
G02*
X112967500Y-85199500I-150000J0D01*
G01*
X111317500Y-85199500D01*
G75*
G02*
X111167500Y-85049500I0J150000D01*
G01*
G37*
%TD.AperFunction*%
%TD*%
%TO.P,74HC165_2,16*%
%TO.N,VCC*%
%TA.AperFunction,SMDPad,CuDef*%
G36*
G01*
X134151500Y-85049500D02*
X134151500Y-84749500D01*
G75*
G02*
X134301500Y-84599500I150000J0D01*
G01*
X135951500Y-84599500D01*
G75*
G02*
X136101500Y-84749500I0J-150000D01*
G01*
X136101500Y-85049500D01*
G75*
G02*
X135951500Y-85199500I-150000J0D01*
G01*
X134301500Y-85199500D01*
G75*
G02*
X134151500Y-85049500I0J150000D01*
G01*
G37*
%TD.AperFunction*%
%TO.P,74HC165_2,15*%
%TO.N,GND*%
%TA.AperFunction,SMDPad,CuDef*%
G36*
G01*
X134151500Y-86319500D02*
X134151500Y-86019500D01*
G75*
G02*
X134301500Y-85869500I150000J0D01*
G01*
X135951500Y-85869500D01*
G75*
G02*
X136101500Y-86019500I0J-150000D01*
G01*
X136101500Y-86319500D01*
G75*
G02*
X135951500Y-86469500I-150000J0D01*
G01*
X134301500Y-86469500D01*
G75*
G02*
X134151500Y-86319500I0J150000D01*
G01*
G37*
%TD.AperFunction*%
%TO.P,74HC165_2,14*%
%TO.N,/C_P2_UP*%
%TA.AperFunction,SMDPad,CuDef*%
G36*
G01*
X134151500Y-87589500D02*
X134151500Y-87289500D01*
G75*
G02*
X134301500Y-87139500I150000J0D01*
G01*
X135951500Y-87139500D01*
G75*
G02*
X136101500Y-87289500I0J-150000D01*
G01*
X136101500Y-87589500D01*
G75*
G02*
X135951500Y-87739500I-150000J0D01*
G01*
X134301500Y-87739500D01*
G75*
G02*
X134151500Y-87589500I0J150000D01*
G01*
G37*
%TD.AperFunction*%
%TO.P,74HC165_2,13*%
%TO.N,/C_P2_DOWN*%
%TA.AperFunction,SMDPad,CuDef*%
G36*
G01*
X134151500Y-88859500D02*
X134151500Y-88559500D01*
G75*
G02*
X134301500Y-88409500I150000J0D01*
G01*
X135951500Y-88409500D01*
G75*
G02*
X136101500Y-88559500I0J-150000D01*
G01*
X136101500Y-88859500D01*
G75*
G02*
X135951500Y-89009500I-150000J0D01*
G01*
X134301500Y-89009500D01*
G75*
G02*
X134151500Y-88859500I0J150000D01*
G01*
G37*
%TD.AperFunction*%
%TO.P,74HC165_2,12*%
%TO.N,/C_P2_LEFT*%
%TA.AperFunction,SMDPad,CuDef*%
G36*
G01*
X134151500Y-90129500D02*
X134151500Y-89829500D01*
G75*
G02*
X134301500Y-89679500I150000J0D01*
G01*
X135951500Y-89679500D01*
G75*
G02*
X136101500Y-89829500I0J-150000D01*
G01*
X136101500Y-90129500D01*
G75*
G02*
X135951500Y-90279500I-150000J0D01*
G01*
X134301500Y-90279500D01*
G75*
G02*
X134151500Y-90129500I0J150000D01*
G01*
G37*
%TD.AperFunction*%
%TO.P,74HC165_2,11*%
%TO.N,/C_P2_RIGHT*%
%TA.AperFunction,SMDPad,CuDef*%
G36*
G01*
X134151500Y-91399500D02*
X134151500Y-91099500D01*
G75*
G02*
X134301500Y-90949500I150000J0D01*
G01*
X135951500Y-90949500D01*
G75*
G02*
X136101500Y-91099500I0J-150000D01*
G01*
X136101500Y-91399500D01*
G75*
G02*
X135951500Y-91549500I-150000J0D01*
G01*
X134301500Y-91549500D01*
G75*
G02*
X134151500Y-91399500I0J150000D01*
G01*
G37*
%TD.AperFunction*%
%TO.P,74HC165_2,10*%
%TO.N,/D_OUT_3*%
%TA.AperFunction,SMDPad,CuDef*%
G36*
G01*
X134151500Y-92669500D02*
X134151500Y-92369500D01*
G75*
G02*
X134301500Y-92219500I150000J0D01*
G01*
X135951500Y-92219500D01*
G75*
G02*
X136101500Y-92369500I0J-150000D01*
G01*
X136101500Y-92669500D01*
G75*
G02*
X135951500Y-92819500I-150000J0D01*
G01*
X134301500Y-92819500D01*
G75*
G02*
X134151500Y-92669500I0J150000D01*
G01*
G37*
%TD.AperFunction*%
%TO.P,74HC165_2,9*%
%TO.N,/D_OUT_2*%
%TA.AperFunction,SMDPad,CuDef*%
G36*
G01*
X134151500Y-93939500D02*
X134151500Y-93639500D01*
G75*
G02*
X134301500Y-93489500I150000J0D01*
G01*
X135951500Y-93489500D01*
G75*
G02*
X136101500Y-93639500I0J-150000D01*
G01*
X136101500Y-93939500D01*
G75*
G02*
X135951500Y-94089500I-150000J0D01*
G01*
X134301500Y-94089500D01*
G75*
G02*
X134151500Y-93939500I0J150000D01*
G01*
G37*
%TD.AperFunction*%
%TO.P,74HC165_2,8*%
%TO.N,GND*%
%TA.AperFunction,SMDPad,CuDef*%
G36*
G01*
X129201500Y-93939500D02*
X129201500Y-93639500D01*
G75*
G02*
X129351500Y-93489500I150000J0D01*
G01*
X131001500Y-93489500D01*
G75*
G02*
X131151500Y-93639500I0J-150000D01*
G01*
X131151500Y-93939500D01*
G75*
G02*
X131001500Y-94089500I-150000J0D01*
G01*
X129351500Y-94089500D01*
G75*
G02*
X129201500Y-93939500I0J150000D01*
G01*
G37*
%TD.AperFunction*%
%TO.P,74HC165_2,7*%
%TO.N,N/C*%
%TA.AperFunction,SMDPad,CuDef*%
G36*
G01*
X129201500Y-92669500D02*
X129201500Y-92369500D01*
G75*
G02*
X129351500Y-92219500I150000J0D01*
G01*
X131001500Y-92219500D01*
G75*
G02*
X131151500Y-92369500I0J-150000D01*
G01*
X131151500Y-92669500D01*
G75*
G02*
X131001500Y-92819500I-150000J0D01*
G01*
X129351500Y-92819500D01*
G75*
G02*
X129201500Y-92669500I0J150000D01*
G01*
G37*
%TD.AperFunction*%
%TO.P,74HC165_2,6*%
%TO.N,/C_P1_X*%
%TA.AperFunction,SMDPad,CuDef*%
G36*
G01*
X129201500Y-91399500D02*
X129201500Y-91099500D01*
G75*
G02*
X129351500Y-90949500I150000J0D01*
G01*
X131001500Y-90949500D01*
G75*
G02*
X131151500Y-91099500I0J-150000D01*
G01*
X131151500Y-91399500D01*
G75*
G02*
X131001500Y-91549500I-150000J0D01*
G01*
X129351500Y-91549500D01*
G75*
G02*
X129201500Y-91399500I0J150000D01*
G01*
G37*
%TD.AperFunction*%
%TO.P,74HC165_2,5*%
%TO.N,/C_P1_Y*%
%TA.AperFunction,SMDPad,CuDef*%
G36*
G01*
X129201500Y-90129500D02*
X129201500Y-89829500D01*
G75*
G02*
X129351500Y-89679500I150000J0D01*
G01*
X131001500Y-89679500D01*
G75*
G02*
X131151500Y-89829500I0J-150000D01*
G01*
X131151500Y-90129500D01*
G75*
G02*
X131001500Y-90279500I-150000J0D01*
G01*
X129351500Y-90279500D01*
G75*
G02*
X129201500Y-90129500I0J150000D01*
G01*
G37*
%TD.AperFunction*%
%TO.P,74HC165_2,4*%
%TO.N,/C_P1_L*%
%TA.AperFunction,SMDPad,CuDef*%
G36*
G01*
X129201500Y-88859500D02*
X129201500Y-88559500D01*
G75*
G02*
X129351500Y-88409500I150000J0D01*
G01*
X131001500Y-88409500D01*
G75*
G02*
X131151500Y-88559500I0J-150000D01*
G01*
X131151500Y-88859500D01*
G75*
G02*
X131001500Y-89009500I-150000J0D01*
G01*
X129351500Y-89009500D01*
G75*
G02*
X129201500Y-88859500I0J150000D01*
G01*
G37*
%TD.AperFunction*%
%TO.P,74HC165_2,3*%
%TO.N,/C_P1_R*%
%TA.AperFunction,SMDPad,CuDef*%
G36*
G01*
X129201500Y-87589500D02*
X129201500Y-87289500D01*
G75*
G02*
X129351500Y-87139500I150000J0D01*
G01*
X131001500Y-87139500D01*
G75*
G02*
X131151500Y-87289500I0J-150000D01*
G01*
X131151500Y-87589500D01*
G75*
G02*
X131001500Y-87739500I-150000J0D01*
G01*
X129351500Y-87739500D01*
G75*
G02*
X129201500Y-87589500I0J150000D01*
G01*
G37*
%TD.AperFunction*%
%TO.P,74HC165_2,2*%
%TO.N,/CLK*%
%TA.AperFunction,SMDPad,CuDef*%
G36*
G01*
X129201500Y-86319500D02*
X129201500Y-86019500D01*
G75*
G02*
X129351500Y-85869500I150000J0D01*
G01*
X131001500Y-85869500D01*
G75*
G02*
X131151500Y-86019500I0J-150000D01*
G01*
X131151500Y-86319500D01*
G75*
G02*
X131001500Y-86469500I-150000J0D01*
G01*
X129351500Y-86469500D01*
G75*
G02*
X129201500Y-86319500I0J150000D01*
G01*
G37*
%TD.AperFunction*%
%TO.P,74HC165_2,1*%
%TO.N,/LOAD*%
%TA.AperFunction,SMDPad,CuDef*%
G36*
G01*
X129201500Y-85049500D02*
X129201500Y-84749500D01*
G75*
G02*
X129351500Y-84599500I150000J0D01*
G01*
X131001500Y-84599500D01*
G75*
G02*
X131151500Y-84749500I0J-150000D01*
G01*
X131151500Y-85049500D01*
G75*
G02*
X131001500Y-85199500I-150000J0D01*
G01*
X129351500Y-85199500D01*
G75*
G02*
X129201500Y-85049500I0J150000D01*
G01*
G37*
%TD.AperFunction*%
%TD*%
D18*
%TO.N,GND*%
X114617500Y-90868500D03*
X127508000Y-84328000D03*
%TO.N,/C_P1_UP*%
X146685000Y-91313000D03*
%TO.N,/C_P1_LEFT*%
X146685000Y-88773000D03*
%TO.N,/C_P1_X*%
X128524000Y-91313000D03*
%TO.N,/C_P1_L*%
X128528660Y-88773000D03*
%TO.N,/C_P1_R*%
X128528660Y-87479701D03*
%TO.N,/C_P2_START*%
X110591600Y-91160600D03*
%TO.N,/C_P2_SELECT*%
X110553500Y-89852500D03*
%TO.N,/C_P2_A*%
X110553500Y-88582500D03*
%TO.N,/C_P2_B*%
X110515400Y-87350600D03*
%TO.N,/PULL*%
X141541492Y-93916490D03*
X123571001Y-93598999D03*
X107695997Y-93535503D03*
X157861003Y-93599000D03*
%TO.N,VCC*%
X106235500Y-88138000D03*
X106235484Y-82931000D03*
%TO.N,GND*%
X120650000Y-93345000D03*
X123571000Y-89662000D03*
X126809500Y-93408500D03*
X138366500Y-93535500D03*
X132778500Y-91440000D03*
X100393500Y-90233500D03*
X109220000Y-92837000D03*
X104139998Y-94043502D03*
X132778500Y-85852000D03*
X150812500Y-88328500D03*
X148780500Y-81661000D03*
X158115000Y-81534000D03*
X145669000Y-84201000D03*
X151066500Y-91122500D03*
X156654500Y-81534000D03*
X147447000Y-81597500D03*
X157607000Y-86360000D03*
X114680992Y-85852000D03*
X115062000Y-83947000D03*
X141732000Y-91376500D03*
X155829000Y-93154500D03*
X159639000Y-92900500D03*
X159448500Y-81534000D03*
X146113500Y-81597500D03*
X126174500Y-84328000D03*
X124650500Y-84328000D03*
%TO.N,/C_P1_START*%
X154939980Y-87519510D03*
%TO.N,/C_P1_SELECT*%
X155003500Y-88709500D03*
%TO.N,/C_P1_A*%
X155003503Y-89979513D03*
%TO.N,/C_P1_B*%
X155003500Y-91122500D03*
%TO.N,/C_P1_DOWN*%
X146685000Y-89979500D03*
%TO.N,/C_P1_RIGHT*%
X146685000Y-87503000D03*
%TO.N,/C_P1_Y*%
X128460506Y-89979500D03*
%TO.N,/C_P2_START*%
X116332000Y-80130956D03*
%TO.N,/C_P2_DOWN*%
X136779000Y-88773000D03*
%TO.N,/C_P2_LEFT*%
X136779000Y-90043000D03*
%TO.N,/C_P2_L*%
X118745000Y-90043000D03*
%TO.N,/C_P2_SELECT*%
X115331996Y-80130956D03*
%TO.N,/C_P2_A*%
X114332400Y-80102115D03*
%TO.N,/C_P2_B*%
X113333106Y-80064237D03*
%TO.N,/C_P2_UP*%
X136779000Y-87376000D03*
X139700000Y-80772000D03*
%TO.N,/C_P2_DOWN*%
X138430000Y-80708500D03*
%TO.N,/C_P2_LEFT*%
X137096500Y-80645000D03*
%TO.N,/C_P2_RIGHT*%
X136779000Y-91313000D03*
X135699500Y-80580967D03*
%TO.N,/C_P2_X*%
X118744998Y-87376000D03*
%TO.N,/C_P2_Y*%
X118745000Y-88773000D03*
%TO.N,/C_P2_R*%
X118745000Y-91313000D03*
%TO.N,/C_SHORT*%
X100012500Y-93916500D03*
%TD*%
D19*
%TO.N,VCC*%
X162306000Y-81788000D02*
X162687000Y-81407000D01*
X153211300Y-84899500D02*
X153287500Y-84899500D01*
X135698000Y-84328000D02*
X137265500Y-84328000D01*
X135126500Y-84899500D02*
X135698000Y-84328000D01*
X117602000Y-84328000D02*
X119231500Y-84328000D01*
X117092500Y-84837500D02*
X117602000Y-84328000D01*
X117092500Y-84899500D02*
X117092500Y-84837500D01*
X153859000Y-84328000D02*
X153287500Y-84899500D01*
X155426500Y-84328000D02*
X153859000Y-84328000D01*
D20*
%TO.N,/D_IN*%
X117092500Y-92519500D02*
X117156000Y-92456000D01*
X117156000Y-92456000D02*
X117283000Y-92456000D01*
%TO.N,/LOAD*%
X129095500Y-84899500D02*
X130176500Y-84899500D01*
X128460500Y-84899500D02*
X129095500Y-84899500D01*
X127835490Y-85524510D02*
X128460500Y-84899500D01*
X115252500Y-84899500D02*
X115877510Y-85524510D01*
X112142500Y-84899500D02*
X115252500Y-84899500D01*
%TO.N,/C_P1_L*%
X127151500Y-89020500D02*
X127151500Y-89051500D01*
%TO.N,/C_P1_X*%
X130176500Y-91249500D02*
X129349500Y-91249500D01*
%TO.N,/C_P2_START*%
X110617000Y-91186000D02*
X110591600Y-91160600D01*
X112333000Y-91186000D02*
X110617000Y-91186000D01*
%TO.N,/C_P2_A*%
X112072600Y-88881000D02*
X112333000Y-88620600D01*
%TO.N,/C_P2_B*%
X110540800Y-87376000D02*
X110515400Y-87350600D01*
%TO.N,/PULL*%
X143485500Y-90494000D02*
X143485500Y-90468827D01*
X143803000Y-90608000D02*
X143803000Y-88208000D01*
X143803000Y-90608000D02*
X143803000Y-91654982D01*
X143803000Y-91654982D02*
X141541492Y-93916490D01*
X139661000Y-88081000D02*
X139661000Y-92035998D01*
X139661000Y-92035998D02*
X141541492Y-93916490D01*
X125642000Y-90608000D02*
X125642000Y-88208000D01*
X125642000Y-90608000D02*
X125642000Y-91528000D01*
X125642000Y-91528000D02*
X123571001Y-93598999D01*
X121627000Y-91654998D02*
X123571001Y-93598999D01*
X121627000Y-88208000D02*
X121627000Y-91654998D01*
X107671500Y-93511006D02*
X107695997Y-93535503D01*
X107671500Y-88081000D02*
X107671500Y-93511006D01*
X157885500Y-93574503D02*
X157861003Y-93599000D01*
X157885500Y-88081000D02*
X157885500Y-93574503D01*
X102870000Y-88138000D02*
X102870000Y-87138000D01*
X102870000Y-87138000D02*
X103521000Y-86487000D01*
X107695997Y-88074497D02*
X107695997Y-93535503D01*
X103521000Y-86487000D02*
X106108500Y-86487000D01*
X106108500Y-86487000D02*
X107695997Y-88074497D01*
D19*
%TO.N,VCC*%
X160782000Y-81788000D02*
X162306000Y-81788000D01*
X159893000Y-82677000D02*
X160782000Y-81788000D01*
X119231500Y-82973000D02*
X119189500Y-82931000D01*
X119231500Y-84328000D02*
X119231500Y-82973000D01*
X99695000Y-82931000D02*
X159639000Y-82931000D01*
X159639000Y-82931000D02*
X159893000Y-82677000D01*
X98806000Y-82042000D02*
X99695000Y-82931000D01*
X97409000Y-82042000D02*
X98806000Y-82042000D01*
X97282000Y-81915000D02*
X97409000Y-82042000D01*
X137265500Y-82952500D02*
X137265500Y-84328000D01*
X137287000Y-82931000D02*
X137265500Y-82952500D01*
X155448000Y-82931000D02*
X159639000Y-82931000D01*
X155448000Y-83058000D02*
X155448000Y-82931000D01*
X155426500Y-83079500D02*
X155448000Y-83058000D01*
X155426500Y-84328000D02*
X155426500Y-83079500D01*
X104170000Y-88841998D02*
X104170000Y-88138000D01*
X101570000Y-91441998D02*
X104170000Y-88841998D01*
X101570000Y-92202000D02*
X101570000Y-91441998D01*
X104170000Y-88138000D02*
X105791000Y-88138000D01*
X105791000Y-88138000D02*
X106235500Y-88138000D01*
%TO.N,GND*%
X104170000Y-92202000D02*
X104170000Y-94013500D01*
X104170000Y-94013500D02*
X104139998Y-94043502D01*
X133096000Y-86169500D02*
X132778500Y-85852000D01*
X135126500Y-86169500D02*
X133096000Y-86169500D01*
X153224000Y-86106000D02*
X157353000Y-86106000D01*
X157353000Y-86106000D02*
X157607000Y-86360000D01*
X117092500Y-86169500D02*
X114998492Y-86169500D01*
X114998492Y-86169500D02*
X114680992Y-85852000D01*
D20*
%TO.N,/D_IN*%
X116117500Y-92519500D02*
X117092500Y-92519500D01*
X99000919Y-94996000D02*
X113641000Y-94996000D01*
X97282000Y-93277081D02*
X99000919Y-94996000D01*
X113641000Y-94996000D02*
X116117500Y-92519500D01*
X97282000Y-92075000D02*
X97282000Y-93277081D01*
%TO.N,/D_OUT*%
X159258000Y-94996000D02*
X161456001Y-92797999D01*
X154417800Y-94996000D02*
X159258000Y-94996000D01*
X161456001Y-92797999D02*
X162306000Y-91948000D01*
X153020800Y-93599000D02*
X154417800Y-94996000D01*
%TO.N,/LOAD*%
X115760500Y-85407500D02*
X115877510Y-85524510D01*
X127835490Y-85524510D02*
X127889000Y-85471000D01*
X97663000Y-86995000D02*
X97282000Y-86995000D01*
X99758500Y-84899500D02*
X97663000Y-86995000D01*
X112142500Y-84899500D02*
X99758500Y-84899500D01*
X161456001Y-86018001D02*
X162306000Y-86868000D01*
X160912510Y-85474510D02*
X161456001Y-86018001D01*
X152215742Y-85474510D02*
X160912510Y-85474510D01*
X148337500Y-84899500D02*
X151640732Y-84899500D01*
X136201768Y-85471000D02*
X147766000Y-85471000D01*
X134104742Y-85524510D02*
X136148258Y-85524510D01*
X136148258Y-85524510D02*
X136201768Y-85471000D01*
X134051232Y-85471000D02*
X134104742Y-85524510D01*
X151640732Y-84899500D02*
X152215742Y-85474510D01*
X133858000Y-85471000D02*
X134051232Y-85471000D01*
X133286500Y-84899500D02*
X133858000Y-85471000D01*
X147766000Y-85471000D02*
X148337500Y-84899500D01*
X130176500Y-84899500D02*
X133286500Y-84899500D01*
X118506075Y-85524510D02*
X118591598Y-85438987D01*
X115877510Y-85524510D02*
X118506075Y-85524510D01*
X119999925Y-85524510D02*
X127835490Y-85524510D01*
X119914402Y-85438987D02*
X119999925Y-85524510D01*
X118591598Y-85438987D02*
X119914402Y-85438987D01*
%TO.N,/CLK*%
X110971491Y-85973491D02*
X111167500Y-86169500D01*
X111167500Y-86169500D02*
X112142500Y-86169500D01*
X100843509Y-85973491D02*
X110971491Y-85973491D01*
X97282000Y-89535000D02*
X100843509Y-85973491D01*
X156498998Y-87185500D02*
X160083500Y-87185500D01*
X149796500Y-86169500D02*
X150358010Y-86731010D01*
X160083500Y-87185500D02*
X162306000Y-89408000D01*
X148337500Y-86169500D02*
X149796500Y-86169500D01*
X148142521Y-85974521D02*
X148337500Y-86169500D01*
X136988227Y-85974521D02*
X148142521Y-85974521D01*
X156044508Y-86731010D02*
X156498998Y-87185500D01*
X150358010Y-86731010D02*
X156044508Y-86731010D01*
X136148258Y-86814490D02*
X136988227Y-85974521D01*
X132153490Y-86814490D02*
X136148258Y-86814490D01*
X131419600Y-86080600D02*
X132153490Y-86814490D01*
X130087600Y-86080600D02*
X131419600Y-86080600D01*
X115807528Y-86814490D02*
X115727509Y-86894509D01*
X118094278Y-86814490D02*
X115807528Y-86814490D01*
X113117500Y-86169500D02*
X112142500Y-86169500D01*
X118392510Y-86516258D02*
X118094278Y-86814490D01*
X118392510Y-86337981D02*
X118392510Y-86516258D01*
X118560991Y-86169500D02*
X118392510Y-86337981D01*
X115727509Y-86894509D02*
X113842509Y-86894509D01*
X130176500Y-86169500D02*
X118560991Y-86169500D01*
X113842509Y-86894509D02*
X113117500Y-86169500D01*
%TO.N,/C_P1_START*%
X154859990Y-87439500D02*
X154940000Y-87519510D01*
X153287500Y-87439500D02*
X154859990Y-87439500D01*
X155628490Y-88208000D02*
X156122000Y-88208000D01*
X154940000Y-87519510D02*
X155628490Y-88208000D01*
X154940000Y-87519510D02*
X154939980Y-87519510D01*
%TO.N,/C_P1_SELECT*%
X155302000Y-89008000D02*
X155003500Y-88709500D01*
X156122000Y-89008000D02*
X155302000Y-89008000D01*
X154822314Y-88709500D02*
X155003500Y-88709500D01*
X153287500Y-88709500D02*
X154822314Y-88709500D01*
%TO.N,/C_P1_A*%
X153287500Y-89979500D02*
X155003490Y-89979500D01*
X156122000Y-89808000D02*
X155175016Y-89808000D01*
X155003490Y-89979500D02*
X155003503Y-89979513D01*
X155175016Y-89808000D02*
X155003503Y-89979513D01*
%TO.N,/C_P1_B*%
X153287500Y-91249500D02*
X154876500Y-91249500D01*
X154876500Y-91249500D02*
X155003500Y-91122500D01*
X156122000Y-90608000D02*
X156122000Y-91058000D01*
X156122000Y-91058000D02*
X156057500Y-91122500D01*
X156057500Y-91122500D02*
X155003500Y-91122500D01*
%TO.N,/C_P1_UP*%
X147256496Y-91249500D02*
X148337500Y-91249500D01*
X147192996Y-91313000D02*
X147256496Y-91249500D01*
X146685000Y-91313000D02*
X147192996Y-91313000D01*
X146208000Y-91313000D02*
X145503000Y-90608000D01*
X146685000Y-91313000D02*
X146208000Y-91313000D01*
%TO.N,/C_P1_DOWN*%
X146513500Y-89808000D02*
X146685000Y-89979500D01*
X145503000Y-89808000D02*
X146513500Y-89808000D01*
X148337500Y-89979500D02*
X146685000Y-89979500D01*
%TO.N,/C_P1_LEFT*%
X147002500Y-88709500D02*
X148337500Y-88709500D01*
X146939000Y-88773000D02*
X147002500Y-88709500D01*
X146685000Y-88773000D02*
X146939000Y-88773000D01*
X145738000Y-88773000D02*
X145503000Y-89008000D01*
X146685000Y-88773000D02*
X145738000Y-88773000D01*
%TO.N,/C_P1_RIGHT*%
X146757820Y-87439500D02*
X148337500Y-87439500D01*
X146694320Y-87503000D02*
X146757820Y-87439500D01*
X146685000Y-87503000D02*
X146694320Y-87503000D01*
X146208000Y-87503000D02*
X145503000Y-88208000D01*
X146685000Y-87503000D02*
X146208000Y-87503000D01*
%TO.N,/C_P1_X*%
X128587500Y-91249500D02*
X128524000Y-91313000D01*
X130176500Y-91249500D02*
X128587500Y-91249500D01*
X128047000Y-91313000D02*
X127342000Y-90608000D01*
X128524000Y-91313000D02*
X128047000Y-91313000D01*
%TO.N,/C_P1_Y*%
X130176500Y-89979500D02*
X128460506Y-89979500D01*
X127342000Y-89808000D02*
X128289006Y-89808000D01*
X128289006Y-89808000D02*
X128460506Y-89979500D01*
%TO.N,/C_P1_L*%
X130113000Y-88773000D02*
X130176500Y-88709500D01*
X128528660Y-88773000D02*
X130113000Y-88773000D01*
X128293660Y-89008000D02*
X128528660Y-88773000D01*
X127342000Y-89008000D02*
X128293660Y-89008000D01*
%TO.N,/C_P1_R*%
X127329500Y-88220500D02*
X127342000Y-88208000D01*
X127151500Y-88220500D02*
X127329500Y-88220500D01*
X128528660Y-87625340D02*
X128528660Y-87479701D01*
X127946000Y-88208000D02*
X128528660Y-87625340D01*
X127342000Y-88208000D02*
X127946000Y-88208000D01*
X128568861Y-87439500D02*
X130176500Y-87439500D01*
X128528660Y-87479701D02*
X128568861Y-87439500D01*
%TO.N,/C_P2_START*%
X110680500Y-91249500D02*
X112142500Y-91249500D01*
X110591600Y-91160600D02*
X110680500Y-91249500D01*
X110051100Y-91160600D02*
X110591600Y-91160600D01*
X109371500Y-90481000D02*
X110051100Y-91160600D01*
X143724000Y-77724000D02*
X137584486Y-77724000D01*
X135577529Y-79730957D02*
X116731999Y-79730957D01*
X116731999Y-79730957D02*
X116332000Y-80130956D01*
X145796000Y-75652000D02*
X143724000Y-77724000D01*
X137584486Y-77724000D02*
X135577529Y-79730957D01*
%TO.N,/C_P2_SELECT*%
X110680500Y-89979500D02*
X110553500Y-89852500D01*
X112142500Y-89979500D02*
X110680500Y-89979500D01*
X110382000Y-89681000D02*
X110553500Y-89852500D01*
X109371500Y-89681000D02*
X110382000Y-89681000D01*
X115331996Y-80000502D02*
X115331996Y-80130956D01*
X116147998Y-79184500D02*
X115331996Y-80000502D01*
X135405500Y-79184500D02*
X116147998Y-79184500D01*
X138938000Y-75652000D02*
X135405500Y-79184500D01*
%TO.N,/C_P2_A*%
X110680500Y-88709500D02*
X110553500Y-88582500D01*
X112142500Y-88709500D02*
X110680500Y-88709500D01*
X110255000Y-88881000D02*
X110553500Y-88582500D01*
X109371500Y-88881000D02*
X110255000Y-88881000D01*
X115700026Y-78734489D02*
X114332400Y-80102115D01*
X132080000Y-75652000D02*
X128997511Y-78734489D01*
X128997511Y-78734489D02*
X115700026Y-78734489D01*
%TO.N,/C_P2_B*%
X110101900Y-87350600D02*
X110515400Y-87350600D01*
X109371500Y-88081000D02*
X110101900Y-87350600D01*
X112053600Y-87350600D02*
X112142500Y-87439500D01*
X110515400Y-87350600D02*
X112053600Y-87350600D01*
X123467500Y-77406500D02*
X115990843Y-77406500D01*
X125222000Y-75652000D02*
X123467500Y-77406500D01*
X115990843Y-77406500D02*
X113333106Y-80064237D01*
%TO.N,/C_P2_UP*%
X137484000Y-88081000D02*
X136779000Y-87376000D01*
X137961000Y-88081000D02*
X137484000Y-88081000D01*
X136715500Y-87439500D02*
X136779000Y-87376000D01*
X135126500Y-87439500D02*
X136715500Y-87439500D01*
X103874499Y-82205999D02*
X138266001Y-82205999D01*
X138266001Y-82205999D02*
X139700000Y-80772000D01*
X101551500Y-79883000D02*
X103874499Y-82205999D01*
X139954000Y-80518000D02*
X139700000Y-80772000D01*
X156804000Y-80518000D02*
X139954000Y-80518000D01*
X161798000Y-74549000D02*
X161798000Y-75524000D01*
X161798000Y-75524000D02*
X156804000Y-80518000D01*
%TO.N,/C_P2_DOWN*%
X135571000Y-88773000D02*
X135418600Y-88620600D01*
X136779000Y-88773000D02*
X135571000Y-88773000D01*
X137942000Y-88900000D02*
X137961000Y-88881000D01*
X136906000Y-88900000D02*
X137942000Y-88900000D01*
X136779000Y-88773000D02*
X136906000Y-88900000D01*
X137382512Y-81755988D02*
X138430000Y-80708500D01*
X104917000Y-79883000D02*
X106789988Y-81755988D01*
X106789988Y-81755988D02*
X137382512Y-81755988D01*
X139091501Y-80046999D02*
X138430000Y-80708500D01*
X154490251Y-80046999D02*
X139091501Y-80046999D01*
X159298000Y-75239250D02*
X154490251Y-80046999D01*
X159298000Y-74549000D02*
X159298000Y-75239250D01*
%TO.N,/C_P2_LEFT*%
X135642498Y-89979500D02*
X135126500Y-89979500D01*
X137141000Y-89681000D02*
X137961000Y-89681000D01*
X136779000Y-90043000D02*
X137141000Y-89681000D01*
X135190000Y-90043000D02*
X135126500Y-89979500D01*
X136779000Y-90043000D02*
X135190000Y-90043000D01*
X109705477Y-81305977D02*
X136435523Y-81305977D01*
X136435523Y-81305977D02*
X137096500Y-80645000D01*
X108282500Y-79883000D02*
X109705477Y-81305977D01*
X138144512Y-79596988D02*
X137096500Y-80645000D01*
X154298000Y-74549000D02*
X154298000Y-75381500D01*
X150082512Y-79596988D02*
X138144512Y-79596988D01*
X154298000Y-75381500D02*
X150082512Y-79596988D01*
%TO.N,/C_P2_RIGHT*%
X137961000Y-90481000D02*
X137611000Y-90481000D01*
X137611000Y-90481000D02*
X136779000Y-91313000D01*
X136779000Y-91313000D02*
X136626600Y-91160600D01*
X136626600Y-91160600D02*
X135418600Y-91160600D01*
X136715500Y-91249500D02*
X136779000Y-91313000D01*
X135126500Y-91249500D02*
X136715500Y-91249500D01*
X135424501Y-80855966D02*
X135699500Y-80580967D01*
X111648000Y-80215500D02*
X112288466Y-80855966D01*
X112288466Y-80855966D02*
X135424501Y-80855966D01*
X111648000Y-79883000D02*
X111648000Y-80215500D01*
X137133490Y-79146977D02*
X135699500Y-80580967D01*
X156798000Y-74549000D02*
X155210500Y-72961500D01*
X155210500Y-72961500D02*
X153860500Y-72961500D01*
X153860500Y-72961500D02*
X153035000Y-73787000D01*
X153035000Y-73787000D02*
X153035000Y-76008090D01*
X153035000Y-76008090D02*
X149896113Y-79146977D01*
X149896113Y-79146977D02*
X137133490Y-79146977D01*
%TO.N,/C_P2_X*%
X117283000Y-87376000D02*
X118744998Y-87376000D01*
X119095000Y-87376000D02*
X118744998Y-87376000D01*
X119927000Y-88208000D02*
X119095000Y-87376000D01*
X116054500Y-75652000D02*
X118364000Y-75652000D01*
X114363500Y-77343000D02*
X116054500Y-75652000D01*
X110856000Y-77343000D02*
X114363500Y-77343000D01*
X110348000Y-77851000D02*
X110856000Y-77343000D01*
X110348000Y-79883000D02*
X110348000Y-77851000D01*
%TO.N,/C_P2_Y*%
X118681500Y-88709500D02*
X118745000Y-88773000D01*
X117092500Y-88709500D02*
X118681500Y-88709500D01*
X119908000Y-89027000D02*
X119927000Y-89008000D01*
X118999000Y-89027000D02*
X119908000Y-89027000D01*
X118745000Y-88773000D02*
X118999000Y-89027000D01*
X108490500Y-75652000D02*
X111506000Y-75652000D01*
X106982500Y-77160000D02*
X108490500Y-75652000D01*
X106982500Y-79883000D02*
X106982500Y-77160000D01*
%TO.N,/C_P2_L*%
X118681500Y-89979500D02*
X118745000Y-90043000D01*
X117092500Y-89979500D02*
X118681500Y-89979500D01*
X119908000Y-89789000D02*
X119927000Y-89808000D01*
X118999000Y-89789000D02*
X119908000Y-89789000D01*
X118745000Y-90043000D02*
X118999000Y-89789000D01*
X104624500Y-75652000D02*
X104648000Y-75652000D01*
X103617000Y-76659500D02*
X104624500Y-75652000D01*
X103617000Y-79883000D02*
X103617000Y-76659500D01*
%TO.N,/C_P2_R*%
X118681500Y-91249500D02*
X118745000Y-91313000D01*
X117092500Y-91249500D02*
X118681500Y-91249500D01*
X119323000Y-90608000D02*
X119927000Y-90608000D01*
X118745000Y-91186000D02*
X119323000Y-90608000D01*
X118745000Y-91313000D02*
X118745000Y-91186000D01*
X97813500Y-75652000D02*
X97790000Y-75652000D01*
X100251500Y-78090000D02*
X97813500Y-75652000D01*
X100251500Y-79883000D02*
X100251500Y-78090000D01*
%TO.N,/C_SHORT*%
X151798000Y-74549000D02*
X151798000Y-65659000D01*
X138938000Y-64516000D02*
X145796000Y-64516000D01*
X132080000Y-64516000D02*
X138938000Y-64516000D01*
X125222000Y-64516000D02*
X132080000Y-64516000D01*
X118364000Y-64516000D02*
X125222000Y-64516000D01*
X111506000Y-64516000D02*
X118364000Y-64516000D01*
X104648000Y-64516000D02*
X111506000Y-64516000D01*
X97790000Y-64516000D02*
X104648000Y-64516000D01*
X97790000Y-73152000D02*
X104648000Y-73152000D01*
X104648000Y-73152000D02*
X111506000Y-73152000D01*
X111506000Y-73152000D02*
X118364000Y-73152000D01*
X118364000Y-73152000D02*
X125222000Y-73152000D01*
X125222000Y-73152000D02*
X132080000Y-73152000D01*
X132080000Y-73152000D02*
X138938000Y-73152000D01*
X138938000Y-73152000D02*
X145796000Y-73152000D01*
X102155500Y-93916500D02*
X100012500Y-93916500D01*
X102870000Y-93202000D02*
X102155500Y-93916500D01*
X102870000Y-92202000D02*
X102870000Y-93202000D01*
X150655000Y-64516000D02*
X145796000Y-64516000D01*
X151798000Y-65659000D02*
X150655000Y-64516000D01*
X96075500Y-71437500D02*
X97790000Y-73152000D01*
X96075500Y-66230500D02*
X96075500Y-71437500D01*
X97790000Y-64516000D02*
X96075500Y-66230500D01*
%TO.N,/D_OUT_2*%
X136841000Y-94996000D02*
X135571000Y-93726000D01*
X136841000Y-94996000D02*
X136746500Y-94901500D01*
X140912996Y-94996000D02*
X136841000Y-94996000D01*
X153020800Y-92329000D02*
X153020800Y-92343200D01*
X149709000Y-94996000D02*
X149288500Y-94996000D01*
X152249000Y-92456000D02*
X149709000Y-94996000D01*
X153224000Y-92456000D02*
X152249000Y-92456000D01*
X149288500Y-94996000D02*
X140912996Y-94996000D01*
%TO.N,/D_OUT_3*%
X135190000Y-92456000D02*
X135126500Y-92519500D01*
X135571000Y-92456000D02*
X135190000Y-92456000D01*
X117392500Y-94089500D02*
X117092500Y-93789500D01*
X118299000Y-94996000D02*
X117392500Y-94089500D01*
X131675000Y-94996000D02*
X118299000Y-94996000D01*
X134151500Y-92519500D02*
X131675000Y-94996000D01*
X135126500Y-92519500D02*
X134151500Y-92519500D01*
%TD*%
D21*
%TO.N,GND*%
X99221036Y-79153125D02*
X99183527Y-79243681D01*
X99147218Y-79363377D01*
X99128096Y-79459510D01*
X99115836Y-79583991D01*
X99115836Y-79608550D01*
X99113428Y-79633000D01*
X99113428Y-80133000D01*
X99115836Y-80157450D01*
X99115836Y-80182009D01*
X99128096Y-80306490D01*
X99147218Y-80402623D01*
X99183527Y-80522319D01*
X99221036Y-80612875D01*
X99280002Y-80723192D01*
X99334458Y-80804691D01*
X99413810Y-80901382D01*
X99483118Y-80970690D01*
X99579809Y-81050042D01*
X99661308Y-81104498D01*
X99771625Y-81163464D01*
X99862181Y-81200973D01*
X99981877Y-81237282D01*
X100078010Y-81256404D01*
X100202491Y-81268664D01*
X100227050Y-81268664D01*
X100251500Y-81271072D01*
X100751500Y-81271072D01*
X100875982Y-81258812D01*
X100901500Y-81251071D01*
X100927018Y-81258812D01*
X101051500Y-81271072D01*
X101551500Y-81271072D01*
X101575950Y-81268664D01*
X101600509Y-81268664D01*
X101724990Y-81256404D01*
X101821123Y-81237282D01*
X101828686Y-81234988D01*
X102639698Y-82046000D01*
X100061579Y-82046000D01*
X99462532Y-81446954D01*
X99434817Y-81413183D01*
X99300059Y-81302589D01*
X99146313Y-81220411D01*
X98979490Y-81169805D01*
X98849477Y-81157000D01*
X98849469Y-81157000D01*
X98806000Y-81152719D01*
X98770072Y-81156257D01*
X98770072Y-81065000D01*
X98757812Y-80940518D01*
X98721502Y-80820820D01*
X98662537Y-80710506D01*
X98583185Y-80613815D01*
X98486494Y-80534463D01*
X98376180Y-80475498D01*
X98256482Y-80439188D01*
X98132000Y-80426928D01*
X96432000Y-80426928D01*
X96307518Y-80439188D01*
X96187820Y-80475498D01*
X96077506Y-80534463D01*
X95980815Y-80613815D01*
X95901463Y-80710506D01*
X95842498Y-80820820D01*
X95806188Y-80940518D01*
X95793928Y-81065000D01*
X95793928Y-82765000D01*
X95806188Y-82889482D01*
X95842498Y-83009180D01*
X95901463Y-83119494D01*
X95980815Y-83216185D01*
X96077506Y-83295537D01*
X96187820Y-83354502D01*
X96268466Y-83378966D01*
X96184412Y-83454731D01*
X96010359Y-83688080D01*
X95885175Y-83950901D01*
X95840524Y-84098110D01*
X95961845Y-84328000D01*
X97155000Y-84328000D01*
X97155000Y-84308000D01*
X97409000Y-84308000D01*
X97409000Y-84328000D01*
X98602155Y-84328000D01*
X98723476Y-84098110D01*
X98678825Y-83950901D01*
X98553641Y-83688080D01*
X98379588Y-83454731D01*
X98295534Y-83378966D01*
X98376180Y-83354502D01*
X98486494Y-83295537D01*
X98583185Y-83216185D01*
X98648734Y-83136313D01*
X99038470Y-83526049D01*
X99066183Y-83559817D01*
X99099951Y-83587530D01*
X99099953Y-83587532D01*
X99118801Y-83603000D01*
X99200941Y-83670411D01*
X99354687Y-83752589D01*
X99521510Y-83803195D01*
X99651523Y-83816000D01*
X99651531Y-83816000D01*
X99695000Y-83820281D01*
X99738469Y-83816000D01*
X105697030Y-83816000D01*
X105745228Y-83848205D01*
X105933586Y-83926226D01*
X106133545Y-83966000D01*
X106337423Y-83966000D01*
X106537382Y-83926226D01*
X106725740Y-83848205D01*
X106773938Y-83816000D01*
X116862422Y-83816000D01*
X116716994Y-83961428D01*
X116267500Y-83961428D01*
X116113755Y-83976571D01*
X115965918Y-84021416D01*
X115829671Y-84094242D01*
X115710249Y-84192249D01*
X115658813Y-84254924D01*
X115544747Y-84193954D01*
X115401486Y-84150497D01*
X115289833Y-84139500D01*
X115289822Y-84139500D01*
X115252500Y-84135824D01*
X115215178Y-84139500D01*
X113460476Y-84139500D01*
X113405329Y-84094242D01*
X113269082Y-84021416D01*
X113121245Y-83976571D01*
X112967500Y-83961428D01*
X111317500Y-83961428D01*
X111163755Y-83976571D01*
X111015918Y-84021416D01*
X110879671Y-84094242D01*
X110824524Y-84139500D01*
X99795833Y-84139500D01*
X99758500Y-84135823D01*
X99721167Y-84139500D01*
X99609514Y-84150497D01*
X99466253Y-84193954D01*
X99334224Y-84264526D01*
X99218499Y-84359499D01*
X99194701Y-84388497D01*
X98702651Y-84880547D01*
X98723476Y-84811890D01*
X98602155Y-84582000D01*
X97409000Y-84582000D01*
X97409000Y-84602000D01*
X97155000Y-84602000D01*
X97155000Y-84582000D01*
X95961845Y-84582000D01*
X95840524Y-84811890D01*
X95885175Y-84959099D01*
X96010359Y-85221920D01*
X96184412Y-85455269D01*
X96400645Y-85650178D01*
X96517534Y-85719805D01*
X96335368Y-85841525D01*
X96128525Y-86048368D01*
X95966010Y-86291589D01*
X95854068Y-86561842D01*
X95797000Y-86848740D01*
X95797000Y-87141260D01*
X95854068Y-87428158D01*
X95966010Y-87698411D01*
X96128525Y-87941632D01*
X96335368Y-88148475D01*
X96509760Y-88265000D01*
X96335368Y-88381525D01*
X96128525Y-88588368D01*
X95966010Y-88831589D01*
X95854068Y-89101842D01*
X95797000Y-89388740D01*
X95797000Y-89681260D01*
X95854068Y-89968158D01*
X95966010Y-90238411D01*
X96128525Y-90481632D01*
X96335368Y-90688475D01*
X96509760Y-90805000D01*
X96335368Y-90921525D01*
X96128525Y-91128368D01*
X95966010Y-91371589D01*
X95854068Y-91641842D01*
X95797000Y-91928740D01*
X95797000Y-92221260D01*
X95854068Y-92508158D01*
X95966010Y-92778411D01*
X96128525Y-93021632D01*
X96335368Y-93228475D01*
X96526088Y-93355910D01*
X96532998Y-93426067D01*
X96541631Y-93454526D01*
X96576454Y-93569327D01*
X96647026Y-93701357D01*
X96701321Y-93767515D01*
X96742000Y-93817082D01*
X96770998Y-93840880D01*
X98437120Y-95507003D01*
X98460918Y-95536001D01*
X98489916Y-95559799D01*
X98576643Y-95630974D01*
X98708672Y-95701546D01*
X98851933Y-95745003D01*
X99000919Y-95759677D01*
X99038252Y-95756000D01*
X113603678Y-95756000D01*
X113641000Y-95759676D01*
X113678322Y-95756000D01*
X113678333Y-95756000D01*
X113789986Y-95745003D01*
X113933247Y-95701546D01*
X114065276Y-95630974D01*
X114181001Y-95536001D01*
X114204804Y-95506997D01*
X115523428Y-94188374D01*
X115539416Y-94241082D01*
X115612242Y-94377329D01*
X115710249Y-94496751D01*
X115829671Y-94594758D01*
X115965918Y-94667584D01*
X116113755Y-94712429D01*
X116267500Y-94727572D01*
X116955771Y-94727572D01*
X117735201Y-95507003D01*
X117758999Y-95536001D01*
X117787997Y-95559799D01*
X117874724Y-95630974D01*
X118006753Y-95701546D01*
X118150014Y-95745003D01*
X118299000Y-95759677D01*
X118336333Y-95756000D01*
X131637678Y-95756000D01*
X131675000Y-95759676D01*
X131712322Y-95756000D01*
X131712333Y-95756000D01*
X131823986Y-95745003D01*
X131967247Y-95701546D01*
X132099276Y-95630974D01*
X132215001Y-95536001D01*
X132238804Y-95506997D01*
X133557428Y-94188374D01*
X133573416Y-94241082D01*
X133646242Y-94377329D01*
X133744249Y-94496751D01*
X133863671Y-94594758D01*
X133999918Y-94667584D01*
X134147755Y-94712429D01*
X134301500Y-94727572D01*
X135497771Y-94727572D01*
X136277201Y-95507003D01*
X136300999Y-95536001D01*
X136416724Y-95630974D01*
X136548753Y-95701546D01*
X136692014Y-95745003D01*
X136803667Y-95756000D01*
X136803676Y-95756000D01*
X136840999Y-95759676D01*
X136878322Y-95756000D01*
X149671678Y-95756000D01*
X149709000Y-95759676D01*
X149746322Y-95756000D01*
X149746333Y-95756000D01*
X149857986Y-95745003D01*
X150001247Y-95701546D01*
X150133276Y-95630974D01*
X150249001Y-95536001D01*
X150272804Y-95506997D01*
X151654928Y-94124874D01*
X151670916Y-94177582D01*
X151743742Y-94313829D01*
X151841749Y-94433251D01*
X151961171Y-94531258D01*
X152097418Y-94604084D01*
X152245255Y-94648929D01*
X152399000Y-94664072D01*
X153011071Y-94664072D01*
X153854001Y-95507003D01*
X153877799Y-95536001D01*
X153993524Y-95630974D01*
X154125553Y-95701546D01*
X154268814Y-95745003D01*
X154380467Y-95756000D01*
X154380476Y-95756000D01*
X154417799Y-95759676D01*
X154455122Y-95756000D01*
X159220678Y-95756000D01*
X159258000Y-95759676D01*
X159295322Y-95756000D01*
X159295333Y-95756000D01*
X159406986Y-95745003D01*
X159550247Y-95701546D01*
X159682276Y-95630974D01*
X159798001Y-95536001D01*
X159821804Y-95506997D01*
X161939592Y-93389210D01*
X162159740Y-93433000D01*
X162452260Y-93433000D01*
X162739158Y-93375932D01*
X163009411Y-93263990D01*
X163252632Y-93101475D01*
X163459475Y-92894632D01*
X163621990Y-92651411D01*
X163733932Y-92381158D01*
X163791000Y-92094260D01*
X163791000Y-91801740D01*
X163733932Y-91514842D01*
X163621990Y-91244589D01*
X163459475Y-91001368D01*
X163252632Y-90794525D01*
X163078240Y-90678000D01*
X163252632Y-90561475D01*
X163459475Y-90354632D01*
X163621990Y-90111411D01*
X163733932Y-89841158D01*
X163791000Y-89554260D01*
X163791000Y-89261740D01*
X163733932Y-88974842D01*
X163621990Y-88704589D01*
X163459475Y-88461368D01*
X163252632Y-88254525D01*
X163078240Y-88138000D01*
X163252632Y-88021475D01*
X163459475Y-87814632D01*
X163621990Y-87571411D01*
X163733932Y-87301158D01*
X163791000Y-87014260D01*
X163791000Y-86721740D01*
X163733932Y-86434842D01*
X163621990Y-86164589D01*
X163459475Y-85921368D01*
X163252632Y-85714525D01*
X163070466Y-85592805D01*
X163187355Y-85523178D01*
X163403588Y-85328269D01*
X163577641Y-85094920D01*
X163702825Y-84832099D01*
X163747476Y-84684890D01*
X163626155Y-84455000D01*
X162433000Y-84455000D01*
X162433000Y-84475000D01*
X162179000Y-84475000D01*
X162179000Y-84455000D01*
X160985845Y-84455000D01*
X160864524Y-84684890D01*
X160873508Y-84714510D01*
X158724705Y-84714510D01*
X158724000Y-84613750D01*
X158565250Y-84455000D01*
X157628500Y-84455000D01*
X157628500Y-84475000D01*
X157374500Y-84475000D01*
X157374500Y-84455000D01*
X157354500Y-84455000D01*
X157354500Y-84201000D01*
X157374500Y-84201000D01*
X157374500Y-84181000D01*
X157628500Y-84181000D01*
X157628500Y-84201000D01*
X158565250Y-84201000D01*
X158724000Y-84042250D01*
X158725582Y-83816000D01*
X159595531Y-83816000D01*
X159639000Y-83820281D01*
X159682469Y-83816000D01*
X159682477Y-83816000D01*
X159812490Y-83803195D01*
X159979313Y-83752589D01*
X160133059Y-83670411D01*
X160267817Y-83559817D01*
X160295534Y-83526044D01*
X160891891Y-82929687D01*
X160925463Y-82992494D01*
X161004815Y-83089185D01*
X161101506Y-83168537D01*
X161211820Y-83227502D01*
X161292466Y-83251966D01*
X161208412Y-83327731D01*
X161034359Y-83561080D01*
X160909175Y-83823901D01*
X160864524Y-83971110D01*
X160985845Y-84201000D01*
X162179000Y-84201000D01*
X162179000Y-84181000D01*
X162433000Y-84181000D01*
X162433000Y-84201000D01*
X163626155Y-84201000D01*
X163747476Y-83971110D01*
X163702825Y-83823901D01*
X163577641Y-83561080D01*
X163403588Y-83327731D01*
X163319534Y-83251966D01*
X163400180Y-83227502D01*
X163510494Y-83168537D01*
X163607185Y-83089185D01*
X163686537Y-82992494D01*
X163745502Y-82882180D01*
X163781812Y-82762482D01*
X163794072Y-82638000D01*
X163794072Y-80938000D01*
X163781812Y-80813518D01*
X163745502Y-80693820D01*
X163686537Y-80583506D01*
X163607185Y-80486815D01*
X163510494Y-80407463D01*
X163400180Y-80348498D01*
X163280482Y-80312188D01*
X163156000Y-80299928D01*
X161456000Y-80299928D01*
X161331518Y-80312188D01*
X161211820Y-80348498D01*
X161101506Y-80407463D01*
X161004815Y-80486815D01*
X160925463Y-80583506D01*
X160866498Y-80693820D01*
X160830188Y-80813518D01*
X160821414Y-80902601D01*
X160782000Y-80898719D01*
X160738531Y-80903000D01*
X160738523Y-80903000D01*
X160608510Y-80915805D01*
X160441687Y-80966411D01*
X160342700Y-81019320D01*
X160287941Y-81048589D01*
X160186953Y-81131468D01*
X160186951Y-81131470D01*
X160153183Y-81159183D01*
X160125470Y-81192951D01*
X159297954Y-82020468D01*
X159272422Y-82046000D01*
X155491477Y-82046000D01*
X155448000Y-82041718D01*
X155404524Y-82046000D01*
X139500801Y-82046000D01*
X139739802Y-81807000D01*
X139801939Y-81807000D01*
X140001898Y-81767226D01*
X140190256Y-81689205D01*
X140359774Y-81575937D01*
X140503937Y-81431774D01*
X140606685Y-81278000D01*
X156766678Y-81278000D01*
X156804000Y-81281676D01*
X156841322Y-81278000D01*
X156841333Y-81278000D01*
X156952986Y-81267003D01*
X157096247Y-81223546D01*
X157228276Y-81152974D01*
X157344001Y-81058001D01*
X157367804Y-81028997D01*
X159275801Y-79121000D01*
X164478501Y-79121000D01*
X164478501Y-94127892D01*
X164477299Y-94127089D01*
X164155414Y-93993760D01*
X163813703Y-93925789D01*
X163465297Y-93925789D01*
X163123586Y-93993760D01*
X162801701Y-94127089D01*
X162512012Y-94320652D01*
X162265652Y-94567012D01*
X162072089Y-94856701D01*
X161938760Y-95178586D01*
X161870789Y-95520297D01*
X161870789Y-95868703D01*
X161938760Y-96210414D01*
X162072089Y-96532299D01*
X162072891Y-96533500D01*
X96736754Y-96533500D01*
X96789835Y-96454059D01*
X96920818Y-96137837D01*
X96987593Y-95802138D01*
X96987593Y-95459862D01*
X96920818Y-95124163D01*
X96789835Y-94807941D01*
X96599676Y-94523349D01*
X96357651Y-94281324D01*
X96073059Y-94091165D01*
X95756837Y-93960182D01*
X95421138Y-93893407D01*
X95078862Y-93893407D01*
X94743163Y-93960182D01*
X94615000Y-94013269D01*
X94615000Y-79121000D01*
X99238207Y-79121000D01*
X99221036Y-79153125D01*
%TA.AperFunction,Conductor*%
D22*
G36*
X99221036Y-79153125D02*
G01*
X99183527Y-79243681D01*
X99147218Y-79363377D01*
X99128096Y-79459510D01*
X99115836Y-79583991D01*
X99115836Y-79608550D01*
X99113428Y-79633000D01*
X99113428Y-80133000D01*
X99115836Y-80157450D01*
X99115836Y-80182009D01*
X99128096Y-80306490D01*
X99147218Y-80402623D01*
X99183527Y-80522319D01*
X99221036Y-80612875D01*
X99280002Y-80723192D01*
X99334458Y-80804691D01*
X99413810Y-80901382D01*
X99483118Y-80970690D01*
X99579809Y-81050042D01*
X99661308Y-81104498D01*
X99771625Y-81163464D01*
X99862181Y-81200973D01*
X99981877Y-81237282D01*
X100078010Y-81256404D01*
X100202491Y-81268664D01*
X100227050Y-81268664D01*
X100251500Y-81271072D01*
X100751500Y-81271072D01*
X100875982Y-81258812D01*
X100901500Y-81251071D01*
X100927018Y-81258812D01*
X101051500Y-81271072D01*
X101551500Y-81271072D01*
X101575950Y-81268664D01*
X101600509Y-81268664D01*
X101724990Y-81256404D01*
X101821123Y-81237282D01*
X101828686Y-81234988D01*
X102639698Y-82046000D01*
X100061579Y-82046000D01*
X99462532Y-81446954D01*
X99434817Y-81413183D01*
X99300059Y-81302589D01*
X99146313Y-81220411D01*
X98979490Y-81169805D01*
X98849477Y-81157000D01*
X98849469Y-81157000D01*
X98806000Y-81152719D01*
X98770072Y-81156257D01*
X98770072Y-81065000D01*
X98757812Y-80940518D01*
X98721502Y-80820820D01*
X98662537Y-80710506D01*
X98583185Y-80613815D01*
X98486494Y-80534463D01*
X98376180Y-80475498D01*
X98256482Y-80439188D01*
X98132000Y-80426928D01*
X96432000Y-80426928D01*
X96307518Y-80439188D01*
X96187820Y-80475498D01*
X96077506Y-80534463D01*
X95980815Y-80613815D01*
X95901463Y-80710506D01*
X95842498Y-80820820D01*
X95806188Y-80940518D01*
X95793928Y-81065000D01*
X95793928Y-82765000D01*
X95806188Y-82889482D01*
X95842498Y-83009180D01*
X95901463Y-83119494D01*
X95980815Y-83216185D01*
X96077506Y-83295537D01*
X96187820Y-83354502D01*
X96268466Y-83378966D01*
X96184412Y-83454731D01*
X96010359Y-83688080D01*
X95885175Y-83950901D01*
X95840524Y-84098110D01*
X95961845Y-84328000D01*
X97155000Y-84328000D01*
X97155000Y-84308000D01*
X97409000Y-84308000D01*
X97409000Y-84328000D01*
X98602155Y-84328000D01*
X98723476Y-84098110D01*
X98678825Y-83950901D01*
X98553641Y-83688080D01*
X98379588Y-83454731D01*
X98295534Y-83378966D01*
X98376180Y-83354502D01*
X98486494Y-83295537D01*
X98583185Y-83216185D01*
X98648734Y-83136313D01*
X99038470Y-83526049D01*
X99066183Y-83559817D01*
X99099951Y-83587530D01*
X99099953Y-83587532D01*
X99118801Y-83603000D01*
X99200941Y-83670411D01*
X99354687Y-83752589D01*
X99521510Y-83803195D01*
X99651523Y-83816000D01*
X99651531Y-83816000D01*
X99695000Y-83820281D01*
X99738469Y-83816000D01*
X105697030Y-83816000D01*
X105745228Y-83848205D01*
X105933586Y-83926226D01*
X106133545Y-83966000D01*
X106337423Y-83966000D01*
X106537382Y-83926226D01*
X106725740Y-83848205D01*
X106773938Y-83816000D01*
X116862422Y-83816000D01*
X116716994Y-83961428D01*
X116267500Y-83961428D01*
X116113755Y-83976571D01*
X115965918Y-84021416D01*
X115829671Y-84094242D01*
X115710249Y-84192249D01*
X115658813Y-84254924D01*
X115544747Y-84193954D01*
X115401486Y-84150497D01*
X115289833Y-84139500D01*
X115289822Y-84139500D01*
X115252500Y-84135824D01*
X115215178Y-84139500D01*
X113460476Y-84139500D01*
X113405329Y-84094242D01*
X113269082Y-84021416D01*
X113121245Y-83976571D01*
X112967500Y-83961428D01*
X111317500Y-83961428D01*
X111163755Y-83976571D01*
X111015918Y-84021416D01*
X110879671Y-84094242D01*
X110824524Y-84139500D01*
X99795833Y-84139500D01*
X99758500Y-84135823D01*
X99721167Y-84139500D01*
X99609514Y-84150497D01*
X99466253Y-84193954D01*
X99334224Y-84264526D01*
X99218499Y-84359499D01*
X99194701Y-84388497D01*
X98702651Y-84880547D01*
X98723476Y-84811890D01*
X98602155Y-84582000D01*
X97409000Y-84582000D01*
X97409000Y-84602000D01*
X97155000Y-84602000D01*
X97155000Y-84582000D01*
X95961845Y-84582000D01*
X95840524Y-84811890D01*
X95885175Y-84959099D01*
X96010359Y-85221920D01*
X96184412Y-85455269D01*
X96400645Y-85650178D01*
X96517534Y-85719805D01*
X96335368Y-85841525D01*
X96128525Y-86048368D01*
X95966010Y-86291589D01*
X95854068Y-86561842D01*
X95797000Y-86848740D01*
X95797000Y-87141260D01*
X95854068Y-87428158D01*
X95966010Y-87698411D01*
X96128525Y-87941632D01*
X96335368Y-88148475D01*
X96509760Y-88265000D01*
X96335368Y-88381525D01*
X96128525Y-88588368D01*
X95966010Y-88831589D01*
X95854068Y-89101842D01*
X95797000Y-89388740D01*
X95797000Y-89681260D01*
X95854068Y-89968158D01*
X95966010Y-90238411D01*
X96128525Y-90481632D01*
X96335368Y-90688475D01*
X96509760Y-90805000D01*
X96335368Y-90921525D01*
X96128525Y-91128368D01*
X95966010Y-91371589D01*
X95854068Y-91641842D01*
X95797000Y-91928740D01*
X95797000Y-92221260D01*
X95854068Y-92508158D01*
X95966010Y-92778411D01*
X96128525Y-93021632D01*
X96335368Y-93228475D01*
X96526088Y-93355910D01*
X96532998Y-93426067D01*
X96541631Y-93454526D01*
X96576454Y-93569327D01*
X96647026Y-93701357D01*
X96701321Y-93767515D01*
X96742000Y-93817082D01*
X96770998Y-93840880D01*
X98437120Y-95507003D01*
X98460918Y-95536001D01*
X98489916Y-95559799D01*
X98576643Y-95630974D01*
X98708672Y-95701546D01*
X98851933Y-95745003D01*
X99000919Y-95759677D01*
X99038252Y-95756000D01*
X113603678Y-95756000D01*
X113641000Y-95759676D01*
X113678322Y-95756000D01*
X113678333Y-95756000D01*
X113789986Y-95745003D01*
X113933247Y-95701546D01*
X114065276Y-95630974D01*
X114181001Y-95536001D01*
X114204804Y-95506997D01*
X115523428Y-94188374D01*
X115539416Y-94241082D01*
X115612242Y-94377329D01*
X115710249Y-94496751D01*
X115829671Y-94594758D01*
X115965918Y-94667584D01*
X116113755Y-94712429D01*
X116267500Y-94727572D01*
X116955771Y-94727572D01*
X117735201Y-95507003D01*
X117758999Y-95536001D01*
X117787997Y-95559799D01*
X117874724Y-95630974D01*
X118006753Y-95701546D01*
X118150014Y-95745003D01*
X118299000Y-95759677D01*
X118336333Y-95756000D01*
X131637678Y-95756000D01*
X131675000Y-95759676D01*
X131712322Y-95756000D01*
X131712333Y-95756000D01*
X131823986Y-95745003D01*
X131967247Y-95701546D01*
X132099276Y-95630974D01*
X132215001Y-95536001D01*
X132238804Y-95506997D01*
X133557428Y-94188374D01*
X133573416Y-94241082D01*
X133646242Y-94377329D01*
X133744249Y-94496751D01*
X133863671Y-94594758D01*
X133999918Y-94667584D01*
X134147755Y-94712429D01*
X134301500Y-94727572D01*
X135497771Y-94727572D01*
X136277201Y-95507003D01*
X136300999Y-95536001D01*
X136416724Y-95630974D01*
X136548753Y-95701546D01*
X136692014Y-95745003D01*
X136803667Y-95756000D01*
X136803676Y-95756000D01*
X136840999Y-95759676D01*
X136878322Y-95756000D01*
X149671678Y-95756000D01*
X149709000Y-95759676D01*
X149746322Y-95756000D01*
X149746333Y-95756000D01*
X149857986Y-95745003D01*
X150001247Y-95701546D01*
X150133276Y-95630974D01*
X150249001Y-95536001D01*
X150272804Y-95506997D01*
X151654928Y-94124874D01*
X151670916Y-94177582D01*
X151743742Y-94313829D01*
X151841749Y-94433251D01*
X151961171Y-94531258D01*
X152097418Y-94604084D01*
X152245255Y-94648929D01*
X152399000Y-94664072D01*
X153011071Y-94664072D01*
X153854001Y-95507003D01*
X153877799Y-95536001D01*
X153993524Y-95630974D01*
X154125553Y-95701546D01*
X154268814Y-95745003D01*
X154380467Y-95756000D01*
X154380476Y-95756000D01*
X154417799Y-95759676D01*
X154455122Y-95756000D01*
X159220678Y-95756000D01*
X159258000Y-95759676D01*
X159295322Y-95756000D01*
X159295333Y-95756000D01*
X159406986Y-95745003D01*
X159550247Y-95701546D01*
X159682276Y-95630974D01*
X159798001Y-95536001D01*
X159821804Y-95506997D01*
X161939592Y-93389210D01*
X162159740Y-93433000D01*
X162452260Y-93433000D01*
X162739158Y-93375932D01*
X163009411Y-93263990D01*
X163252632Y-93101475D01*
X163459475Y-92894632D01*
X163621990Y-92651411D01*
X163733932Y-92381158D01*
X163791000Y-92094260D01*
X163791000Y-91801740D01*
X163733932Y-91514842D01*
X163621990Y-91244589D01*
X163459475Y-91001368D01*
X163252632Y-90794525D01*
X163078240Y-90678000D01*
X163252632Y-90561475D01*
X163459475Y-90354632D01*
X163621990Y-90111411D01*
X163733932Y-89841158D01*
X163791000Y-89554260D01*
X163791000Y-89261740D01*
X163733932Y-88974842D01*
X163621990Y-88704589D01*
X163459475Y-88461368D01*
X163252632Y-88254525D01*
X163078240Y-88138000D01*
X163252632Y-88021475D01*
X163459475Y-87814632D01*
X163621990Y-87571411D01*
X163733932Y-87301158D01*
X163791000Y-87014260D01*
X163791000Y-86721740D01*
X163733932Y-86434842D01*
X163621990Y-86164589D01*
X163459475Y-85921368D01*
X163252632Y-85714525D01*
X163070466Y-85592805D01*
X163187355Y-85523178D01*
X163403588Y-85328269D01*
X163577641Y-85094920D01*
X163702825Y-84832099D01*
X163747476Y-84684890D01*
X163626155Y-84455000D01*
X162433000Y-84455000D01*
X162433000Y-84475000D01*
X162179000Y-84475000D01*
X162179000Y-84455000D01*
X160985845Y-84455000D01*
X160864524Y-84684890D01*
X160873508Y-84714510D01*
X158724705Y-84714510D01*
X158724000Y-84613750D01*
X158565250Y-84455000D01*
X157628500Y-84455000D01*
X157628500Y-84475000D01*
X157374500Y-84475000D01*
X157374500Y-84455000D01*
X157354500Y-84455000D01*
X157354500Y-84201000D01*
X157374500Y-84201000D01*
X157374500Y-84181000D01*
X157628500Y-84181000D01*
X157628500Y-84201000D01*
X158565250Y-84201000D01*
X158724000Y-84042250D01*
X158725582Y-83816000D01*
X159595531Y-83816000D01*
X159639000Y-83820281D01*
X159682469Y-83816000D01*
X159682477Y-83816000D01*
X159812490Y-83803195D01*
X159979313Y-83752589D01*
X160133059Y-83670411D01*
X160267817Y-83559817D01*
X160295534Y-83526044D01*
X160891891Y-82929687D01*
X160925463Y-82992494D01*
X161004815Y-83089185D01*
X161101506Y-83168537D01*
X161211820Y-83227502D01*
X161292466Y-83251966D01*
X161208412Y-83327731D01*
X161034359Y-83561080D01*
X160909175Y-83823901D01*
X160864524Y-83971110D01*
X160985845Y-84201000D01*
X162179000Y-84201000D01*
X162179000Y-84181000D01*
X162433000Y-84181000D01*
X162433000Y-84201000D01*
X163626155Y-84201000D01*
X163747476Y-83971110D01*
X163702825Y-83823901D01*
X163577641Y-83561080D01*
X163403588Y-83327731D01*
X163319534Y-83251966D01*
X163400180Y-83227502D01*
X163510494Y-83168537D01*
X163607185Y-83089185D01*
X163686537Y-82992494D01*
X163745502Y-82882180D01*
X163781812Y-82762482D01*
X163794072Y-82638000D01*
X163794072Y-80938000D01*
X163781812Y-80813518D01*
X163745502Y-80693820D01*
X163686537Y-80583506D01*
X163607185Y-80486815D01*
X163510494Y-80407463D01*
X163400180Y-80348498D01*
X163280482Y-80312188D01*
X163156000Y-80299928D01*
X161456000Y-80299928D01*
X161331518Y-80312188D01*
X161211820Y-80348498D01*
X161101506Y-80407463D01*
X161004815Y-80486815D01*
X160925463Y-80583506D01*
X160866498Y-80693820D01*
X160830188Y-80813518D01*
X160821414Y-80902601D01*
X160782000Y-80898719D01*
X160738531Y-80903000D01*
X160738523Y-80903000D01*
X160608510Y-80915805D01*
X160441687Y-80966411D01*
X160342700Y-81019320D01*
X160287941Y-81048589D01*
X160186953Y-81131468D01*
X160186951Y-81131470D01*
X160153183Y-81159183D01*
X160125470Y-81192951D01*
X159297954Y-82020468D01*
X159272422Y-82046000D01*
X155491477Y-82046000D01*
X155448000Y-82041718D01*
X155404524Y-82046000D01*
X139500801Y-82046000D01*
X139739802Y-81807000D01*
X139801939Y-81807000D01*
X140001898Y-81767226D01*
X140190256Y-81689205D01*
X140359774Y-81575937D01*
X140503937Y-81431774D01*
X140606685Y-81278000D01*
X156766678Y-81278000D01*
X156804000Y-81281676D01*
X156841322Y-81278000D01*
X156841333Y-81278000D01*
X156952986Y-81267003D01*
X157096247Y-81223546D01*
X157228276Y-81152974D01*
X157344001Y-81058001D01*
X157367804Y-81028997D01*
X159275801Y-79121000D01*
X164478501Y-79121000D01*
X164478501Y-94127892D01*
X164477299Y-94127089D01*
X164155414Y-93993760D01*
X163813703Y-93925789D01*
X163465297Y-93925789D01*
X163123586Y-93993760D01*
X162801701Y-94127089D01*
X162512012Y-94320652D01*
X162265652Y-94567012D01*
X162072089Y-94856701D01*
X161938760Y-95178586D01*
X161870789Y-95520297D01*
X161870789Y-95868703D01*
X161938760Y-96210414D01*
X162072089Y-96532299D01*
X162072891Y-96533500D01*
X96736754Y-96533500D01*
X96789835Y-96454059D01*
X96920818Y-96137837D01*
X96987593Y-95802138D01*
X96987593Y-95459862D01*
X96920818Y-95124163D01*
X96789835Y-94807941D01*
X96599676Y-94523349D01*
X96357651Y-94281324D01*
X96073059Y-94091165D01*
X95756837Y-93960182D01*
X95421138Y-93893407D01*
X95078862Y-93893407D01*
X94743163Y-93960182D01*
X94615000Y-94013269D01*
X94615000Y-79121000D01*
X99238207Y-79121000D01*
X99221036Y-79153125D01*
G37*
%TD.AperFunction*%
D21*
X120822506Y-91338537D02*
X120867001Y-91362320D01*
X120867001Y-91617666D01*
X120863324Y-91654998D01*
X120867001Y-91692331D01*
X120877998Y-91803984D01*
X120882931Y-91820247D01*
X120921454Y-91947244D01*
X120992026Y-92079274D01*
X121061357Y-92163753D01*
X121087000Y-92194999D01*
X121115998Y-92218797D01*
X122536001Y-93638801D01*
X122536001Y-93700938D01*
X122575775Y-93900897D01*
X122653796Y-94089255D01*
X122751848Y-94236000D01*
X118647126Y-94236000D01*
X118690429Y-94093245D01*
X118705572Y-93939500D01*
X118705572Y-93639500D01*
X118690429Y-93485755D01*
X118645584Y-93337918D01*
X118572758Y-93201671D01*
X118534046Y-93154500D01*
X118572758Y-93107329D01*
X118645584Y-92971082D01*
X118690429Y-92823245D01*
X118705572Y-92669500D01*
X118705572Y-92369500D01*
X118703454Y-92348000D01*
X118846939Y-92348000D01*
X119046898Y-92308226D01*
X119235256Y-92230205D01*
X119404774Y-92116937D01*
X119548937Y-91972774D01*
X119662205Y-91803256D01*
X119740226Y-91614898D01*
X119773807Y-91446072D01*
X120377000Y-91446072D01*
X120501482Y-91433812D01*
X120621180Y-91397502D01*
X120731494Y-91338537D01*
X120777000Y-91301191D01*
X120822506Y-91338537D01*
%TA.AperFunction,Conductor*%
D22*
G36*
X120822506Y-91338537D02*
G01*
X120867001Y-91362320D01*
X120867001Y-91617666D01*
X120863324Y-91654998D01*
X120867001Y-91692331D01*
X120877998Y-91803984D01*
X120882931Y-91820247D01*
X120921454Y-91947244D01*
X120992026Y-92079274D01*
X121061357Y-92163753D01*
X121087000Y-92194999D01*
X121115998Y-92218797D01*
X122536001Y-93638801D01*
X122536001Y-93700938D01*
X122575775Y-93900897D01*
X122653796Y-94089255D01*
X122751848Y-94236000D01*
X118647126Y-94236000D01*
X118690429Y-94093245D01*
X118705572Y-93939500D01*
X118705572Y-93639500D01*
X118690429Y-93485755D01*
X118645584Y-93337918D01*
X118572758Y-93201671D01*
X118534046Y-93154500D01*
X118572758Y-93107329D01*
X118645584Y-92971082D01*
X118690429Y-92823245D01*
X118705572Y-92669500D01*
X118705572Y-92369500D01*
X118703454Y-92348000D01*
X118846939Y-92348000D01*
X119046898Y-92308226D01*
X119235256Y-92230205D01*
X119404774Y-92116937D01*
X119548937Y-91972774D01*
X119662205Y-91803256D01*
X119740226Y-91614898D01*
X119773807Y-91446072D01*
X120377000Y-91446072D01*
X120501482Y-91433812D01*
X120621180Y-91397502D01*
X120731494Y-91338537D01*
X120777000Y-91301191D01*
X120822506Y-91338537D01*
G37*
%TD.AperFunction*%
D21*
X131861243Y-87520036D02*
X132004504Y-87563493D01*
X132116157Y-87574490D01*
X132116166Y-87574490D01*
X132153489Y-87578166D01*
X132190812Y-87574490D01*
X133513428Y-87574490D01*
X133513428Y-87589500D01*
X133528571Y-87743245D01*
X133573416Y-87891082D01*
X133646242Y-88027329D01*
X133684954Y-88074500D01*
X133646242Y-88121671D01*
X133573416Y-88257918D01*
X133528571Y-88405755D01*
X133513428Y-88559500D01*
X133513428Y-88859500D01*
X133528571Y-89013245D01*
X133573416Y-89161082D01*
X133646242Y-89297329D01*
X133684954Y-89344500D01*
X133646242Y-89391671D01*
X133573416Y-89527918D01*
X133528571Y-89675755D01*
X133513428Y-89829500D01*
X133513428Y-90129500D01*
X133528571Y-90283245D01*
X133573416Y-90431082D01*
X133646242Y-90567329D01*
X133684954Y-90614500D01*
X133646242Y-90661671D01*
X133573416Y-90797918D01*
X133528571Y-90945755D01*
X133513428Y-91099500D01*
X133513428Y-91399500D01*
X133528571Y-91553245D01*
X133573416Y-91701082D01*
X133646242Y-91837329D01*
X133684954Y-91884500D01*
X133646242Y-91931671D01*
X133627850Y-91966080D01*
X133611499Y-91979499D01*
X133587701Y-92008497D01*
X131653724Y-93942474D01*
X131627750Y-93916500D01*
X130303500Y-93916500D01*
X130303500Y-93936500D01*
X130049500Y-93936500D01*
X130049500Y-93916500D01*
X128725250Y-93916500D01*
X128566500Y-94075250D01*
X128563428Y-94089500D01*
X128575688Y-94213982D01*
X128582367Y-94236000D01*
X124390154Y-94236000D01*
X124488206Y-94089255D01*
X124566227Y-93900897D01*
X124606001Y-93700938D01*
X124606001Y-93638800D01*
X126153003Y-92091799D01*
X126182001Y-92068001D01*
X126213447Y-92029684D01*
X126276974Y-91952277D01*
X126347546Y-91820247D01*
X126352479Y-91803984D01*
X126391003Y-91676986D01*
X126402000Y-91565333D01*
X126402000Y-91565323D01*
X126405676Y-91528000D01*
X126402000Y-91490677D01*
X126402000Y-91362320D01*
X126446494Y-91338537D01*
X126492000Y-91301191D01*
X126537506Y-91338537D01*
X126647820Y-91397502D01*
X126767518Y-91433812D01*
X126892000Y-91446072D01*
X127105271Y-91446072D01*
X127483201Y-91824002D01*
X127506999Y-91853001D01*
X127622724Y-91947974D01*
X127754753Y-92018546D01*
X127770660Y-92023371D01*
X127864226Y-92116937D01*
X128033744Y-92230205D01*
X128222102Y-92308226D01*
X128422061Y-92348000D01*
X128565546Y-92348000D01*
X128563428Y-92369500D01*
X128563428Y-92669500D01*
X128578571Y-92823245D01*
X128623416Y-92971082D01*
X128695230Y-93105436D01*
X128670963Y-93135006D01*
X128611998Y-93245320D01*
X128575688Y-93365018D01*
X128563428Y-93489500D01*
X128566500Y-93503750D01*
X128725250Y-93662500D01*
X130049500Y-93662500D01*
X130049500Y-93642500D01*
X130303500Y-93642500D01*
X130303500Y-93662500D01*
X131627750Y-93662500D01*
X131786500Y-93503750D01*
X131789572Y-93489500D01*
X131777312Y-93365018D01*
X131741002Y-93245320D01*
X131682037Y-93135006D01*
X131657770Y-93105436D01*
X131729584Y-92971082D01*
X131774429Y-92823245D01*
X131789572Y-92669500D01*
X131789572Y-92369500D01*
X131774429Y-92215755D01*
X131729584Y-92067918D01*
X131656758Y-91931671D01*
X131618046Y-91884500D01*
X131656758Y-91837329D01*
X131729584Y-91701082D01*
X131774429Y-91553245D01*
X131789572Y-91399500D01*
X131789572Y-91099500D01*
X131774429Y-90945755D01*
X131729584Y-90797918D01*
X131656758Y-90661671D01*
X131618046Y-90614500D01*
X131656758Y-90567329D01*
X131729584Y-90431082D01*
X131774429Y-90283245D01*
X131789572Y-90129500D01*
X131789572Y-89829500D01*
X131774429Y-89675755D01*
X131729584Y-89527918D01*
X131656758Y-89391671D01*
X131618046Y-89344500D01*
X131656758Y-89297329D01*
X131729584Y-89161082D01*
X131774429Y-89013245D01*
X131789572Y-88859500D01*
X131789572Y-88559500D01*
X131774429Y-88405755D01*
X131729584Y-88257918D01*
X131656758Y-88121671D01*
X131618046Y-88074500D01*
X131656758Y-88027329D01*
X131729584Y-87891082D01*
X131774429Y-87743245D01*
X131789572Y-87589500D01*
X131789572Y-87481726D01*
X131861243Y-87520036D01*
%TA.AperFunction,Conductor*%
D22*
G36*
X131861243Y-87520036D02*
G01*
X132004504Y-87563493D01*
X132116157Y-87574490D01*
X132116166Y-87574490D01*
X132153489Y-87578166D01*
X132190812Y-87574490D01*
X133513428Y-87574490D01*
X133513428Y-87589500D01*
X133528571Y-87743245D01*
X133573416Y-87891082D01*
X133646242Y-88027329D01*
X133684954Y-88074500D01*
X133646242Y-88121671D01*
X133573416Y-88257918D01*
X133528571Y-88405755D01*
X133513428Y-88559500D01*
X133513428Y-88859500D01*
X133528571Y-89013245D01*
X133573416Y-89161082D01*
X133646242Y-89297329D01*
X133684954Y-89344500D01*
X133646242Y-89391671D01*
X133573416Y-89527918D01*
X133528571Y-89675755D01*
X133513428Y-89829500D01*
X133513428Y-90129500D01*
X133528571Y-90283245D01*
X133573416Y-90431082D01*
X133646242Y-90567329D01*
X133684954Y-90614500D01*
X133646242Y-90661671D01*
X133573416Y-90797918D01*
X133528571Y-90945755D01*
X133513428Y-91099500D01*
X133513428Y-91399500D01*
X133528571Y-91553245D01*
X133573416Y-91701082D01*
X133646242Y-91837329D01*
X133684954Y-91884500D01*
X133646242Y-91931671D01*
X133627850Y-91966080D01*
X133611499Y-91979499D01*
X133587701Y-92008497D01*
X131653724Y-93942474D01*
X131627750Y-93916500D01*
X130303500Y-93916500D01*
X130303500Y-93936500D01*
X130049500Y-93936500D01*
X130049500Y-93916500D01*
X128725250Y-93916500D01*
X128566500Y-94075250D01*
X128563428Y-94089500D01*
X128575688Y-94213982D01*
X128582367Y-94236000D01*
X124390154Y-94236000D01*
X124488206Y-94089255D01*
X124566227Y-93900897D01*
X124606001Y-93700938D01*
X124606001Y-93638800D01*
X126153003Y-92091799D01*
X126182001Y-92068001D01*
X126213447Y-92029684D01*
X126276974Y-91952277D01*
X126347546Y-91820247D01*
X126352479Y-91803984D01*
X126391003Y-91676986D01*
X126402000Y-91565333D01*
X126402000Y-91565323D01*
X126405676Y-91528000D01*
X126402000Y-91490677D01*
X126402000Y-91362320D01*
X126446494Y-91338537D01*
X126492000Y-91301191D01*
X126537506Y-91338537D01*
X126647820Y-91397502D01*
X126767518Y-91433812D01*
X126892000Y-91446072D01*
X127105271Y-91446072D01*
X127483201Y-91824002D01*
X127506999Y-91853001D01*
X127622724Y-91947974D01*
X127754753Y-92018546D01*
X127770660Y-92023371D01*
X127864226Y-92116937D01*
X128033744Y-92230205D01*
X128222102Y-92308226D01*
X128422061Y-92348000D01*
X128565546Y-92348000D01*
X128563428Y-92369500D01*
X128563428Y-92669500D01*
X128578571Y-92823245D01*
X128623416Y-92971082D01*
X128695230Y-93105436D01*
X128670963Y-93135006D01*
X128611998Y-93245320D01*
X128575688Y-93365018D01*
X128563428Y-93489500D01*
X128566500Y-93503750D01*
X128725250Y-93662500D01*
X130049500Y-93662500D01*
X130049500Y-93642500D01*
X130303500Y-93642500D01*
X130303500Y-93662500D01*
X131627750Y-93662500D01*
X131786500Y-93503750D01*
X131789572Y-93489500D01*
X131777312Y-93365018D01*
X131741002Y-93245320D01*
X131682037Y-93135006D01*
X131657770Y-93105436D01*
X131729584Y-92971082D01*
X131774429Y-92823245D01*
X131789572Y-92669500D01*
X131789572Y-92369500D01*
X131774429Y-92215755D01*
X131729584Y-92067918D01*
X131656758Y-91931671D01*
X131618046Y-91884500D01*
X131656758Y-91837329D01*
X131729584Y-91701082D01*
X131774429Y-91553245D01*
X131789572Y-91399500D01*
X131789572Y-91099500D01*
X131774429Y-90945755D01*
X131729584Y-90797918D01*
X131656758Y-90661671D01*
X131618046Y-90614500D01*
X131656758Y-90567329D01*
X131729584Y-90431082D01*
X131774429Y-90283245D01*
X131789572Y-90129500D01*
X131789572Y-89829500D01*
X131774429Y-89675755D01*
X131729584Y-89527918D01*
X131656758Y-89391671D01*
X131618046Y-89344500D01*
X131656758Y-89297329D01*
X131729584Y-89161082D01*
X131774429Y-89013245D01*
X131789572Y-88859500D01*
X131789572Y-88559500D01*
X131774429Y-88405755D01*
X131729584Y-88257918D01*
X131656758Y-88121671D01*
X131618046Y-88074500D01*
X131656758Y-88027329D01*
X131729584Y-87891082D01*
X131774429Y-87743245D01*
X131789572Y-87589500D01*
X131789572Y-87481726D01*
X131861243Y-87520036D01*
G37*
%TD.AperFunction*%
D21*
X138856506Y-91211537D02*
X138901001Y-91235320D01*
X138901001Y-91998666D01*
X138897324Y-92035998D01*
X138901001Y-92073331D01*
X138911998Y-92184984D01*
X138921332Y-92215755D01*
X138955454Y-92328244D01*
X139026026Y-92460274D01*
X139097201Y-92547000D01*
X139121000Y-92575999D01*
X139149998Y-92599797D01*
X140506492Y-93956292D01*
X140506492Y-94018429D01*
X140546266Y-94218388D01*
X140553561Y-94236000D01*
X137155802Y-94236000D01*
X136739572Y-93819771D01*
X136739572Y-93639500D01*
X136724429Y-93485755D01*
X136679584Y-93337918D01*
X136606758Y-93201671D01*
X136568046Y-93154500D01*
X136606758Y-93107329D01*
X136679584Y-92971082D01*
X136724429Y-92823245D01*
X136739572Y-92669500D01*
X136739572Y-92369500D01*
X136737454Y-92348000D01*
X136880939Y-92348000D01*
X137080898Y-92308226D01*
X137269256Y-92230205D01*
X137438774Y-92116937D01*
X137582937Y-91972774D01*
X137696205Y-91803256D01*
X137774226Y-91614898D01*
X137814000Y-91414939D01*
X137814000Y-91352802D01*
X137847730Y-91319072D01*
X138411000Y-91319072D01*
X138535482Y-91306812D01*
X138655180Y-91270502D01*
X138765494Y-91211537D01*
X138811000Y-91174191D01*
X138856506Y-91211537D01*
%TA.AperFunction,Conductor*%
D22*
G36*
X138856506Y-91211537D02*
G01*
X138901001Y-91235320D01*
X138901001Y-91998666D01*
X138897324Y-92035998D01*
X138901001Y-92073331D01*
X138911998Y-92184984D01*
X138921332Y-92215755D01*
X138955454Y-92328244D01*
X139026026Y-92460274D01*
X139097201Y-92547000D01*
X139121000Y-92575999D01*
X139149998Y-92599797D01*
X140506492Y-93956292D01*
X140506492Y-94018429D01*
X140546266Y-94218388D01*
X140553561Y-94236000D01*
X137155802Y-94236000D01*
X136739572Y-93819771D01*
X136739572Y-93639500D01*
X136724429Y-93485755D01*
X136679584Y-93337918D01*
X136606758Y-93201671D01*
X136568046Y-93154500D01*
X136606758Y-93107329D01*
X136679584Y-92971082D01*
X136724429Y-92823245D01*
X136739572Y-92669500D01*
X136739572Y-92369500D01*
X136737454Y-92348000D01*
X136880939Y-92348000D01*
X137080898Y-92308226D01*
X137269256Y-92230205D01*
X137438774Y-92116937D01*
X137582937Y-91972774D01*
X137696205Y-91803256D01*
X137774226Y-91614898D01*
X137814000Y-91414939D01*
X137814000Y-91352802D01*
X137847730Y-91319072D01*
X138411000Y-91319072D01*
X138535482Y-91306812D01*
X138655180Y-91270502D01*
X138765494Y-91211537D01*
X138811000Y-91174191D01*
X138856506Y-91211537D01*
G37*
%TD.AperFunction*%
D21*
X157017506Y-91338537D02*
X157125501Y-91396262D01*
X157125501Y-92870791D01*
X157057066Y-92939226D01*
X156943798Y-93108744D01*
X156865777Y-93297102D01*
X156826003Y-93497061D01*
X156826003Y-93700939D01*
X156865777Y-93900898D01*
X156943798Y-94089256D01*
X157041849Y-94236000D01*
X154745859Y-94236000D01*
X154777084Y-94177582D01*
X154821929Y-94029745D01*
X154837072Y-93876000D01*
X154837072Y-93576000D01*
X154821929Y-93422255D01*
X154777084Y-93274418D01*
X154704258Y-93138171D01*
X154665546Y-93091000D01*
X154704258Y-93043829D01*
X154777084Y-92907582D01*
X154821929Y-92759745D01*
X154837072Y-92606000D01*
X154837072Y-92306000D01*
X154821929Y-92152255D01*
X154818509Y-92140980D01*
X154901561Y-92157500D01*
X155105439Y-92157500D01*
X155305398Y-92117726D01*
X155493756Y-92039705D01*
X155663274Y-91926437D01*
X155707211Y-91882500D01*
X156020178Y-91882500D01*
X156057500Y-91886176D01*
X156094822Y-91882500D01*
X156094833Y-91882500D01*
X156206486Y-91871503D01*
X156349747Y-91828046D01*
X156481776Y-91757474D01*
X156597501Y-91662501D01*
X156621304Y-91633497D01*
X156632997Y-91621804D01*
X156662001Y-91598001D01*
X156756974Y-91482276D01*
X156799599Y-91402532D01*
X156816180Y-91397502D01*
X156926494Y-91338537D01*
X156972000Y-91301191D01*
X157017506Y-91338537D01*
%TA.AperFunction,Conductor*%
D22*
G36*
X157017506Y-91338537D02*
G01*
X157125501Y-91396262D01*
X157125501Y-92870791D01*
X157057066Y-92939226D01*
X156943798Y-93108744D01*
X156865777Y-93297102D01*
X156826003Y-93497061D01*
X156826003Y-93700939D01*
X156865777Y-93900898D01*
X156943798Y-94089256D01*
X157041849Y-94236000D01*
X154745859Y-94236000D01*
X154777084Y-94177582D01*
X154821929Y-94029745D01*
X154837072Y-93876000D01*
X154837072Y-93576000D01*
X154821929Y-93422255D01*
X154777084Y-93274418D01*
X154704258Y-93138171D01*
X154665546Y-93091000D01*
X154704258Y-93043829D01*
X154777084Y-92907582D01*
X154821929Y-92759745D01*
X154837072Y-92606000D01*
X154837072Y-92306000D01*
X154821929Y-92152255D01*
X154818509Y-92140980D01*
X154901561Y-92157500D01*
X155105439Y-92157500D01*
X155305398Y-92117726D01*
X155493756Y-92039705D01*
X155663274Y-91926437D01*
X155707211Y-91882500D01*
X156020178Y-91882500D01*
X156057500Y-91886176D01*
X156094822Y-91882500D01*
X156094833Y-91882500D01*
X156206486Y-91871503D01*
X156349747Y-91828046D01*
X156481776Y-91757474D01*
X156597501Y-91662501D01*
X156621304Y-91633497D01*
X156632997Y-91621804D01*
X156662001Y-91598001D01*
X156756974Y-91482276D01*
X156799599Y-91402532D01*
X156816180Y-91397502D01*
X156926494Y-91338537D01*
X156972000Y-91301191D01*
X157017506Y-91338537D01*
G37*
%TD.AperFunction*%
D21*
X160864790Y-89041592D02*
X160821000Y-89261740D01*
X160821000Y-89554260D01*
X160878068Y-89841158D01*
X160990010Y-90111411D01*
X161152525Y-90354632D01*
X161359368Y-90561475D01*
X161533760Y-90678000D01*
X161359368Y-90794525D01*
X161152525Y-91001368D01*
X160990010Y-91244589D01*
X160878068Y-91514842D01*
X160821000Y-91801740D01*
X160821000Y-92094260D01*
X160864790Y-92314408D01*
X158943199Y-94236000D01*
X158680157Y-94236000D01*
X158778208Y-94089256D01*
X158856229Y-93900898D01*
X158896003Y-93700939D01*
X158896003Y-93497061D01*
X158856229Y-93297102D01*
X158778208Y-93108744D01*
X158664940Y-92939226D01*
X158645500Y-92919786D01*
X158645500Y-91322939D01*
X158723185Y-91259185D01*
X158802537Y-91162494D01*
X158861502Y-91052180D01*
X158897812Y-90932482D01*
X158910072Y-90808000D01*
X158910072Y-90408000D01*
X158897812Y-90283518D01*
X158874904Y-90208000D01*
X158897812Y-90132482D01*
X158910072Y-90008000D01*
X158910072Y-89608000D01*
X158897812Y-89483518D01*
X158874904Y-89408000D01*
X158897812Y-89332482D01*
X158910072Y-89208000D01*
X158910072Y-88808000D01*
X158897812Y-88683518D01*
X158874904Y-88608000D01*
X158897812Y-88532482D01*
X158910072Y-88408000D01*
X158910072Y-88008000D01*
X158903916Y-87945500D01*
X159768699Y-87945500D01*
X160864790Y-89041592D01*
%TA.AperFunction,Conductor*%
D22*
G36*
X160864790Y-89041592D02*
G01*
X160821000Y-89261740D01*
X160821000Y-89554260D01*
X160878068Y-89841158D01*
X160990010Y-90111411D01*
X161152525Y-90354632D01*
X161359368Y-90561475D01*
X161533760Y-90678000D01*
X161359368Y-90794525D01*
X161152525Y-91001368D01*
X160990010Y-91244589D01*
X160878068Y-91514842D01*
X160821000Y-91801740D01*
X160821000Y-92094260D01*
X160864790Y-92314408D01*
X158943199Y-94236000D01*
X158680157Y-94236000D01*
X158778208Y-94089256D01*
X158856229Y-93900898D01*
X158896003Y-93700939D01*
X158896003Y-93497061D01*
X158856229Y-93297102D01*
X158778208Y-93108744D01*
X158664940Y-92939226D01*
X158645500Y-92919786D01*
X158645500Y-91322939D01*
X158723185Y-91259185D01*
X158802537Y-91162494D01*
X158861502Y-91052180D01*
X158897812Y-90932482D01*
X158910072Y-90808000D01*
X158910072Y-90408000D01*
X158897812Y-90283518D01*
X158874904Y-90208000D01*
X158897812Y-90132482D01*
X158910072Y-90008000D01*
X158910072Y-89608000D01*
X158897812Y-89483518D01*
X158874904Y-89408000D01*
X158897812Y-89332482D01*
X158910072Y-89208000D01*
X158910072Y-88808000D01*
X158897812Y-88683518D01*
X158874904Y-88608000D01*
X158897812Y-88532482D01*
X158910072Y-88408000D01*
X158910072Y-88008000D01*
X158903916Y-87945500D01*
X159768699Y-87945500D01*
X160864790Y-89041592D01*
G37*
%TD.AperFunction*%
D21*
X105745244Y-89055205D02*
X105933602Y-89133226D01*
X106133561Y-89173000D01*
X106337439Y-89173000D01*
X106537398Y-89133226D01*
X106586566Y-89112860D01*
X106595688Y-89205482D01*
X106618596Y-89281000D01*
X106595688Y-89356518D01*
X106583428Y-89481000D01*
X106583428Y-89881000D01*
X106595688Y-90005482D01*
X106618596Y-90081000D01*
X106595688Y-90156518D01*
X106583428Y-90281000D01*
X106583428Y-90681000D01*
X106595688Y-90805482D01*
X106631998Y-90925180D01*
X106690963Y-91035494D01*
X106770315Y-91132185D01*
X106867006Y-91211537D01*
X106911501Y-91235320D01*
X106911501Y-92856288D01*
X106892060Y-92875729D01*
X106778792Y-93045247D01*
X106700771Y-93233605D01*
X106660997Y-93433564D01*
X106660997Y-93637442D01*
X106700771Y-93837401D01*
X106778792Y-94025759D01*
X106892060Y-94195277D01*
X106932783Y-94236000D01*
X102910801Y-94236000D01*
X103381002Y-93765799D01*
X103410001Y-93742001D01*
X103504974Y-93626276D01*
X103532921Y-93573991D01*
X103545518Y-93577812D01*
X103670000Y-93590072D01*
X103884250Y-93587000D01*
X104043000Y-93428250D01*
X104043000Y-93072593D01*
X104064781Y-93061012D01*
X104117703Y-93033345D01*
X104119437Y-93031951D01*
X104121404Y-93030905D01*
X104167737Y-92993117D01*
X104214286Y-92955690D01*
X104215717Y-92953985D01*
X104217443Y-92952577D01*
X104255539Y-92906527D01*
X104293947Y-92860754D01*
X104295020Y-92858802D01*
X104296439Y-92857087D01*
X104297000Y-92856049D01*
X104297000Y-93428250D01*
X104455750Y-93587000D01*
X104670000Y-93590072D01*
X104794482Y-93577812D01*
X104914180Y-93541502D01*
X105024494Y-93482537D01*
X105121185Y-93403185D01*
X105200537Y-93306494D01*
X105259502Y-93196180D01*
X105295812Y-93076482D01*
X105308072Y-92952000D01*
X105305000Y-92487750D01*
X105146250Y-92329000D01*
X104405000Y-92329000D01*
X104405000Y-92075000D01*
X105146250Y-92075000D01*
X105305000Y-91916250D01*
X105308072Y-91452000D01*
X105295812Y-91327518D01*
X105259502Y-91207820D01*
X105200537Y-91097506D01*
X105121185Y-91000815D01*
X105024494Y-90921463D01*
X104914180Y-90862498D01*
X104794482Y-90826188D01*
X104670000Y-90813928D01*
X104455750Y-90817000D01*
X104297000Y-90975750D01*
X104297000Y-91548260D01*
X104261117Y-91504263D01*
X104223690Y-91457714D01*
X104221985Y-91456283D01*
X104220577Y-91454557D01*
X104174527Y-91416461D01*
X104128754Y-91378053D01*
X104126802Y-91376980D01*
X104125087Y-91375561D01*
X104072539Y-91347149D01*
X104043000Y-91330909D01*
X104043000Y-90975750D01*
X103884250Y-90817000D01*
X103670000Y-90813928D01*
X103545518Y-90826188D01*
X103520000Y-90833929D01*
X103494482Y-90826188D01*
X103442507Y-90821069D01*
X104744880Y-89518697D01*
X104794482Y-89513812D01*
X104914180Y-89477502D01*
X105024494Y-89418537D01*
X105121185Y-89339185D01*
X105200537Y-89242494D01*
X105259502Y-89132180D01*
X105292621Y-89023000D01*
X105697046Y-89023000D01*
X105745244Y-89055205D01*
%TA.AperFunction,Conductor*%
D22*
G36*
X105745244Y-89055205D02*
G01*
X105933602Y-89133226D01*
X106133561Y-89173000D01*
X106337439Y-89173000D01*
X106537398Y-89133226D01*
X106586566Y-89112860D01*
X106595688Y-89205482D01*
X106618596Y-89281000D01*
X106595688Y-89356518D01*
X106583428Y-89481000D01*
X106583428Y-89881000D01*
X106595688Y-90005482D01*
X106618596Y-90081000D01*
X106595688Y-90156518D01*
X106583428Y-90281000D01*
X106583428Y-90681000D01*
X106595688Y-90805482D01*
X106631998Y-90925180D01*
X106690963Y-91035494D01*
X106770315Y-91132185D01*
X106867006Y-91211537D01*
X106911501Y-91235320D01*
X106911501Y-92856288D01*
X106892060Y-92875729D01*
X106778792Y-93045247D01*
X106700771Y-93233605D01*
X106660997Y-93433564D01*
X106660997Y-93637442D01*
X106700771Y-93837401D01*
X106778792Y-94025759D01*
X106892060Y-94195277D01*
X106932783Y-94236000D01*
X102910801Y-94236000D01*
X103381002Y-93765799D01*
X103410001Y-93742001D01*
X103504974Y-93626276D01*
X103532921Y-93573991D01*
X103545518Y-93577812D01*
X103670000Y-93590072D01*
X103884250Y-93587000D01*
X104043000Y-93428250D01*
X104043000Y-93072593D01*
X104064781Y-93061012D01*
X104117703Y-93033345D01*
X104119437Y-93031951D01*
X104121404Y-93030905D01*
X104167737Y-92993117D01*
X104214286Y-92955690D01*
X104215717Y-92953985D01*
X104217443Y-92952577D01*
X104255539Y-92906527D01*
X104293947Y-92860754D01*
X104295020Y-92858802D01*
X104296439Y-92857087D01*
X104297000Y-92856049D01*
X104297000Y-93428250D01*
X104455750Y-93587000D01*
X104670000Y-93590072D01*
X104794482Y-93577812D01*
X104914180Y-93541502D01*
X105024494Y-93482537D01*
X105121185Y-93403185D01*
X105200537Y-93306494D01*
X105259502Y-93196180D01*
X105295812Y-93076482D01*
X105308072Y-92952000D01*
X105305000Y-92487750D01*
X105146250Y-92329000D01*
X104405000Y-92329000D01*
X104405000Y-92075000D01*
X105146250Y-92075000D01*
X105305000Y-91916250D01*
X105308072Y-91452000D01*
X105295812Y-91327518D01*
X105259502Y-91207820D01*
X105200537Y-91097506D01*
X105121185Y-91000815D01*
X105024494Y-90921463D01*
X104914180Y-90862498D01*
X104794482Y-90826188D01*
X104670000Y-90813928D01*
X104455750Y-90817000D01*
X104297000Y-90975750D01*
X104297000Y-91548260D01*
X104261117Y-91504263D01*
X104223690Y-91457714D01*
X104221985Y-91456283D01*
X104220577Y-91454557D01*
X104174527Y-91416461D01*
X104128754Y-91378053D01*
X104126802Y-91376980D01*
X104125087Y-91375561D01*
X104072539Y-91347149D01*
X104043000Y-91330909D01*
X104043000Y-90975750D01*
X103884250Y-90817000D01*
X103670000Y-90813928D01*
X103545518Y-90826188D01*
X103520000Y-90833929D01*
X103494482Y-90826188D01*
X103442507Y-90821069D01*
X104744880Y-89518697D01*
X104794482Y-89513812D01*
X104914180Y-89477502D01*
X105024494Y-89418537D01*
X105121185Y-89339185D01*
X105200537Y-89242494D01*
X105259502Y-89132180D01*
X105292621Y-89023000D01*
X105697046Y-89023000D01*
X105745244Y-89055205D01*
G37*
%TD.AperFunction*%
D21*
X113794993Y-87653506D02*
X113842509Y-87658186D01*
X113879842Y-87654509D01*
X115485831Y-87654509D01*
X115494571Y-87743245D01*
X115539416Y-87891082D01*
X115612242Y-88027329D01*
X115650954Y-88074500D01*
X115612242Y-88121671D01*
X115539416Y-88257918D01*
X115494571Y-88405755D01*
X115479428Y-88559500D01*
X115479428Y-88859500D01*
X115494571Y-89013245D01*
X115539416Y-89161082D01*
X115612242Y-89297329D01*
X115650954Y-89344500D01*
X115612242Y-89391671D01*
X115539416Y-89527918D01*
X115494571Y-89675755D01*
X115479428Y-89829500D01*
X115479428Y-90129500D01*
X115494571Y-90283245D01*
X115539416Y-90431082D01*
X115612242Y-90567329D01*
X115650954Y-90614500D01*
X115612242Y-90661671D01*
X115539416Y-90797918D01*
X115494571Y-90945755D01*
X115479428Y-91099500D01*
X115479428Y-91399500D01*
X115494571Y-91553245D01*
X115539416Y-91701082D01*
X115612242Y-91837329D01*
X115650954Y-91884500D01*
X115612242Y-91931671D01*
X115593850Y-91966080D01*
X115577499Y-91979499D01*
X115553701Y-92008497D01*
X113619724Y-93942474D01*
X113593750Y-93916500D01*
X112269500Y-93916500D01*
X112269500Y-93936500D01*
X112015500Y-93936500D01*
X112015500Y-93916500D01*
X110691250Y-93916500D01*
X110532500Y-94075250D01*
X110529428Y-94089500D01*
X110541688Y-94213982D01*
X110548367Y-94236000D01*
X108459211Y-94236000D01*
X108499934Y-94195277D01*
X108613202Y-94025759D01*
X108691223Y-93837401D01*
X108730997Y-93637442D01*
X108730997Y-93433564D01*
X108691223Y-93233605D01*
X108613202Y-93045247D01*
X108499934Y-92875729D01*
X108455997Y-92831792D01*
X108455997Y-91222226D01*
X108475994Y-91211537D01*
X108521500Y-91174191D01*
X108567006Y-91211537D01*
X108677320Y-91270502D01*
X108797018Y-91306812D01*
X108921500Y-91319072D01*
X109134771Y-91319072D01*
X109487301Y-91671602D01*
X109511099Y-91700601D01*
X109540097Y-91724399D01*
X109626824Y-91795574D01*
X109758853Y-91866146D01*
X109865910Y-91898621D01*
X109931826Y-91964537D01*
X110101344Y-92077805D01*
X110289702Y-92155826D01*
X110489661Y-92195600D01*
X110550685Y-92195600D01*
X110544571Y-92215755D01*
X110529428Y-92369500D01*
X110529428Y-92669500D01*
X110544571Y-92823245D01*
X110589416Y-92971082D01*
X110661230Y-93105436D01*
X110636963Y-93135006D01*
X110577998Y-93245320D01*
X110541688Y-93365018D01*
X110529428Y-93489500D01*
X110532500Y-93503750D01*
X110691250Y-93662500D01*
X112015500Y-93662500D01*
X112015500Y-93642500D01*
X112269500Y-93642500D01*
X112269500Y-93662500D01*
X113593750Y-93662500D01*
X113752500Y-93503750D01*
X113755572Y-93489500D01*
X113743312Y-93365018D01*
X113707002Y-93245320D01*
X113648037Y-93135006D01*
X113623770Y-93105436D01*
X113695584Y-92971082D01*
X113740429Y-92823245D01*
X113755572Y-92669500D01*
X113755572Y-92369500D01*
X113740429Y-92215755D01*
X113695584Y-92067918D01*
X113622758Y-91931671D01*
X113584046Y-91884500D01*
X113622758Y-91837329D01*
X113695584Y-91701082D01*
X113740429Y-91553245D01*
X113755572Y-91399500D01*
X113755572Y-91099500D01*
X113740429Y-90945755D01*
X113695584Y-90797918D01*
X113622758Y-90661671D01*
X113584046Y-90614500D01*
X113622758Y-90567329D01*
X113695584Y-90431082D01*
X113740429Y-90283245D01*
X113755572Y-90129500D01*
X113755572Y-89829500D01*
X113740429Y-89675755D01*
X113695584Y-89527918D01*
X113622758Y-89391671D01*
X113584046Y-89344500D01*
X113622758Y-89297329D01*
X113695584Y-89161082D01*
X113740429Y-89013245D01*
X113755572Y-88859500D01*
X113755572Y-88559500D01*
X113740429Y-88405755D01*
X113695584Y-88257918D01*
X113622758Y-88121671D01*
X113584046Y-88074500D01*
X113622758Y-88027329D01*
X113695584Y-87891082D01*
X113740429Y-87743245D01*
X113749707Y-87649046D01*
X113794993Y-87653506D01*
%TA.AperFunction,Conductor*%
D22*
G36*
X113794993Y-87653506D02*
G01*
X113842509Y-87658186D01*
X113879842Y-87654509D01*
X115485831Y-87654509D01*
X115494571Y-87743245D01*
X115539416Y-87891082D01*
X115612242Y-88027329D01*
X115650954Y-88074500D01*
X115612242Y-88121671D01*
X115539416Y-88257918D01*
X115494571Y-88405755D01*
X115479428Y-88559500D01*
X115479428Y-88859500D01*
X115494571Y-89013245D01*
X115539416Y-89161082D01*
X115612242Y-89297329D01*
X115650954Y-89344500D01*
X115612242Y-89391671D01*
X115539416Y-89527918D01*
X115494571Y-89675755D01*
X115479428Y-89829500D01*
X115479428Y-90129500D01*
X115494571Y-90283245D01*
X115539416Y-90431082D01*
X115612242Y-90567329D01*
X115650954Y-90614500D01*
X115612242Y-90661671D01*
X115539416Y-90797918D01*
X115494571Y-90945755D01*
X115479428Y-91099500D01*
X115479428Y-91399500D01*
X115494571Y-91553245D01*
X115539416Y-91701082D01*
X115612242Y-91837329D01*
X115650954Y-91884500D01*
X115612242Y-91931671D01*
X115593850Y-91966080D01*
X115577499Y-91979499D01*
X115553701Y-92008497D01*
X113619724Y-93942474D01*
X113593750Y-93916500D01*
X112269500Y-93916500D01*
X112269500Y-93936500D01*
X112015500Y-93936500D01*
X112015500Y-93916500D01*
X110691250Y-93916500D01*
X110532500Y-94075250D01*
X110529428Y-94089500D01*
X110541688Y-94213982D01*
X110548367Y-94236000D01*
X108459211Y-94236000D01*
X108499934Y-94195277D01*
X108613202Y-94025759D01*
X108691223Y-93837401D01*
X108730997Y-93637442D01*
X108730997Y-93433564D01*
X108691223Y-93233605D01*
X108613202Y-93045247D01*
X108499934Y-92875729D01*
X108455997Y-92831792D01*
X108455997Y-91222226D01*
X108475994Y-91211537D01*
X108521500Y-91174191D01*
X108567006Y-91211537D01*
X108677320Y-91270502D01*
X108797018Y-91306812D01*
X108921500Y-91319072D01*
X109134771Y-91319072D01*
X109487301Y-91671602D01*
X109511099Y-91700601D01*
X109540097Y-91724399D01*
X109626824Y-91795574D01*
X109758853Y-91866146D01*
X109865910Y-91898621D01*
X109931826Y-91964537D01*
X110101344Y-92077805D01*
X110289702Y-92155826D01*
X110489661Y-92195600D01*
X110550685Y-92195600D01*
X110544571Y-92215755D01*
X110529428Y-92369500D01*
X110529428Y-92669500D01*
X110544571Y-92823245D01*
X110589416Y-92971082D01*
X110661230Y-93105436D01*
X110636963Y-93135006D01*
X110577998Y-93245320D01*
X110541688Y-93365018D01*
X110529428Y-93489500D01*
X110532500Y-93503750D01*
X110691250Y-93662500D01*
X112015500Y-93662500D01*
X112015500Y-93642500D01*
X112269500Y-93642500D01*
X112269500Y-93662500D01*
X113593750Y-93662500D01*
X113752500Y-93503750D01*
X113755572Y-93489500D01*
X113743312Y-93365018D01*
X113707002Y-93245320D01*
X113648037Y-93135006D01*
X113623770Y-93105436D01*
X113695584Y-92971082D01*
X113740429Y-92823245D01*
X113755572Y-92669500D01*
X113755572Y-92369500D01*
X113740429Y-92215755D01*
X113695584Y-92067918D01*
X113622758Y-91931671D01*
X113584046Y-91884500D01*
X113622758Y-91837329D01*
X113695584Y-91701082D01*
X113740429Y-91553245D01*
X113755572Y-91399500D01*
X113755572Y-91099500D01*
X113740429Y-90945755D01*
X113695584Y-90797918D01*
X113622758Y-90661671D01*
X113584046Y-90614500D01*
X113622758Y-90567329D01*
X113695584Y-90431082D01*
X113740429Y-90283245D01*
X113755572Y-90129500D01*
X113755572Y-89829500D01*
X113740429Y-89675755D01*
X113695584Y-89527918D01*
X113622758Y-89391671D01*
X113584046Y-89344500D01*
X113622758Y-89297329D01*
X113695584Y-89161082D01*
X113740429Y-89013245D01*
X113755572Y-88859500D01*
X113755572Y-88559500D01*
X113740429Y-88405755D01*
X113695584Y-88257918D01*
X113622758Y-88121671D01*
X113584046Y-88074500D01*
X113622758Y-88027329D01*
X113695584Y-87891082D01*
X113740429Y-87743245D01*
X113749707Y-87649046D01*
X113794993Y-87653506D01*
G37*
%TD.AperFunction*%
D21*
X149933733Y-87365984D02*
X149999357Y-87401061D01*
X150065763Y-87436556D01*
X150209024Y-87480013D01*
X150320677Y-87491010D01*
X150320686Y-87491010D01*
X150358009Y-87494686D01*
X150395332Y-87491010D01*
X151610928Y-87491010D01*
X151610928Y-87526000D01*
X151626071Y-87679745D01*
X151670916Y-87827582D01*
X151743742Y-87963829D01*
X151782454Y-88011000D01*
X151743742Y-88058171D01*
X151670916Y-88194418D01*
X151626071Y-88342255D01*
X151610928Y-88496000D01*
X151610928Y-88796000D01*
X151626071Y-88949745D01*
X151670916Y-89097582D01*
X151743742Y-89233829D01*
X151782454Y-89281000D01*
X151743742Y-89328171D01*
X151670916Y-89464418D01*
X151626071Y-89612255D01*
X151610928Y-89766000D01*
X151610928Y-90066000D01*
X151626071Y-90219745D01*
X151670916Y-90367582D01*
X151743742Y-90503829D01*
X151782454Y-90551000D01*
X151743742Y-90598171D01*
X151670916Y-90734418D01*
X151626071Y-90882255D01*
X151610928Y-91036000D01*
X151610928Y-91336000D01*
X151626071Y-91489745D01*
X151670916Y-91637582D01*
X151743742Y-91773829D01*
X151782454Y-91821000D01*
X151743742Y-91868171D01*
X151725350Y-91902580D01*
X151708999Y-91915999D01*
X151685205Y-91944992D01*
X149751224Y-93878974D01*
X149725250Y-93853000D01*
X148401000Y-93853000D01*
X148401000Y-93873000D01*
X148147000Y-93873000D01*
X148147000Y-93853000D01*
X146822750Y-93853000D01*
X146664000Y-94011750D01*
X146660928Y-94026000D01*
X146673188Y-94150482D01*
X146699130Y-94236000D01*
X142529423Y-94236000D01*
X142536718Y-94218388D01*
X142576492Y-94018429D01*
X142576492Y-93956291D01*
X144314003Y-92218781D01*
X144343001Y-92194983D01*
X144437974Y-92079258D01*
X144508546Y-91947229D01*
X144552003Y-91803968D01*
X144563000Y-91692315D01*
X144563000Y-91692306D01*
X144566676Y-91654983D01*
X144563000Y-91617660D01*
X144563000Y-91362320D01*
X144607494Y-91338537D01*
X144653000Y-91301191D01*
X144698506Y-91338537D01*
X144808820Y-91397502D01*
X144928518Y-91433812D01*
X145053000Y-91446072D01*
X145266271Y-91446072D01*
X145644201Y-91824002D01*
X145667999Y-91853001D01*
X145783724Y-91947974D01*
X145915753Y-92018546D01*
X145931660Y-92023371D01*
X146025226Y-92116937D01*
X146194744Y-92230205D01*
X146383102Y-92308226D01*
X146583061Y-92348000D01*
X146660928Y-92348000D01*
X146660928Y-92606000D01*
X146676071Y-92759745D01*
X146720916Y-92907582D01*
X146792730Y-93041936D01*
X146768463Y-93071506D01*
X146709498Y-93181820D01*
X146673188Y-93301518D01*
X146660928Y-93426000D01*
X146664000Y-93440250D01*
X146822750Y-93599000D01*
X148147000Y-93599000D01*
X148147000Y-93579000D01*
X148401000Y-93579000D01*
X148401000Y-93599000D01*
X149725250Y-93599000D01*
X149884000Y-93440250D01*
X149887072Y-93426000D01*
X149874812Y-93301518D01*
X149838502Y-93181820D01*
X149779537Y-93071506D01*
X149755270Y-93041936D01*
X149827084Y-92907582D01*
X149871929Y-92759745D01*
X149887072Y-92606000D01*
X149887072Y-92306000D01*
X149871929Y-92152255D01*
X149827084Y-92004418D01*
X149754258Y-91868171D01*
X149715546Y-91821000D01*
X149754258Y-91773829D01*
X149827084Y-91637582D01*
X149871929Y-91489745D01*
X149887072Y-91336000D01*
X149887072Y-91036000D01*
X149871929Y-90882255D01*
X149827084Y-90734418D01*
X149754258Y-90598171D01*
X149715546Y-90551000D01*
X149754258Y-90503829D01*
X149827084Y-90367582D01*
X149871929Y-90219745D01*
X149887072Y-90066000D01*
X149887072Y-89766000D01*
X149871929Y-89612255D01*
X149827084Y-89464418D01*
X149754258Y-89328171D01*
X149715546Y-89281000D01*
X149754258Y-89233829D01*
X149827084Y-89097582D01*
X149871929Y-88949745D01*
X149887072Y-88796000D01*
X149887072Y-88496000D01*
X149871929Y-88342255D01*
X149827084Y-88194418D01*
X149754258Y-88058171D01*
X149715546Y-88011000D01*
X149754258Y-87963829D01*
X149827084Y-87827582D01*
X149871929Y-87679745D01*
X149887072Y-87526000D01*
X149887072Y-87327690D01*
X149933733Y-87365984D01*
%TA.AperFunction,Conductor*%
D22*
G36*
X149933733Y-87365984D02*
G01*
X149999357Y-87401061D01*
X150065763Y-87436556D01*
X150209024Y-87480013D01*
X150320677Y-87491010D01*
X150320686Y-87491010D01*
X150358009Y-87494686D01*
X150395332Y-87491010D01*
X151610928Y-87491010D01*
X151610928Y-87526000D01*
X151626071Y-87679745D01*
X151670916Y-87827582D01*
X151743742Y-87963829D01*
X151782454Y-88011000D01*
X151743742Y-88058171D01*
X151670916Y-88194418D01*
X151626071Y-88342255D01*
X151610928Y-88496000D01*
X151610928Y-88796000D01*
X151626071Y-88949745D01*
X151670916Y-89097582D01*
X151743742Y-89233829D01*
X151782454Y-89281000D01*
X151743742Y-89328171D01*
X151670916Y-89464418D01*
X151626071Y-89612255D01*
X151610928Y-89766000D01*
X151610928Y-90066000D01*
X151626071Y-90219745D01*
X151670916Y-90367582D01*
X151743742Y-90503829D01*
X151782454Y-90551000D01*
X151743742Y-90598171D01*
X151670916Y-90734418D01*
X151626071Y-90882255D01*
X151610928Y-91036000D01*
X151610928Y-91336000D01*
X151626071Y-91489745D01*
X151670916Y-91637582D01*
X151743742Y-91773829D01*
X151782454Y-91821000D01*
X151743742Y-91868171D01*
X151725350Y-91902580D01*
X151708999Y-91915999D01*
X151685205Y-91944992D01*
X149751224Y-93878974D01*
X149725250Y-93853000D01*
X148401000Y-93853000D01*
X148401000Y-93873000D01*
X148147000Y-93873000D01*
X148147000Y-93853000D01*
X146822750Y-93853000D01*
X146664000Y-94011750D01*
X146660928Y-94026000D01*
X146673188Y-94150482D01*
X146699130Y-94236000D01*
X142529423Y-94236000D01*
X142536718Y-94218388D01*
X142576492Y-94018429D01*
X142576492Y-93956291D01*
X144314003Y-92218781D01*
X144343001Y-92194983D01*
X144437974Y-92079258D01*
X144508546Y-91947229D01*
X144552003Y-91803968D01*
X144563000Y-91692315D01*
X144563000Y-91692306D01*
X144566676Y-91654983D01*
X144563000Y-91617660D01*
X144563000Y-91362320D01*
X144607494Y-91338537D01*
X144653000Y-91301191D01*
X144698506Y-91338537D01*
X144808820Y-91397502D01*
X144928518Y-91433812D01*
X145053000Y-91446072D01*
X145266271Y-91446072D01*
X145644201Y-91824002D01*
X145667999Y-91853001D01*
X145783724Y-91947974D01*
X145915753Y-92018546D01*
X145931660Y-92023371D01*
X146025226Y-92116937D01*
X146194744Y-92230205D01*
X146383102Y-92308226D01*
X146583061Y-92348000D01*
X146660928Y-92348000D01*
X146660928Y-92606000D01*
X146676071Y-92759745D01*
X146720916Y-92907582D01*
X146792730Y-93041936D01*
X146768463Y-93071506D01*
X146709498Y-93181820D01*
X146673188Y-93301518D01*
X146660928Y-93426000D01*
X146664000Y-93440250D01*
X146822750Y-93599000D01*
X148147000Y-93599000D01*
X148147000Y-93579000D01*
X148401000Y-93579000D01*
X148401000Y-93599000D01*
X149725250Y-93599000D01*
X149884000Y-93440250D01*
X149887072Y-93426000D01*
X149874812Y-93301518D01*
X149838502Y-93181820D01*
X149779537Y-93071506D01*
X149755270Y-93041936D01*
X149827084Y-92907582D01*
X149871929Y-92759745D01*
X149887072Y-92606000D01*
X149887072Y-92306000D01*
X149871929Y-92152255D01*
X149827084Y-92004418D01*
X149754258Y-91868171D01*
X149715546Y-91821000D01*
X149754258Y-91773829D01*
X149827084Y-91637582D01*
X149871929Y-91489745D01*
X149887072Y-91336000D01*
X149887072Y-91036000D01*
X149871929Y-90882255D01*
X149827084Y-90734418D01*
X149754258Y-90598171D01*
X149715546Y-90551000D01*
X149754258Y-90503829D01*
X149827084Y-90367582D01*
X149871929Y-90219745D01*
X149887072Y-90066000D01*
X149887072Y-89766000D01*
X149871929Y-89612255D01*
X149827084Y-89464418D01*
X149754258Y-89328171D01*
X149715546Y-89281000D01*
X149754258Y-89233829D01*
X149827084Y-89097582D01*
X149871929Y-88949745D01*
X149887072Y-88796000D01*
X149887072Y-88496000D01*
X149871929Y-88342255D01*
X149827084Y-88194418D01*
X149754258Y-88058171D01*
X149715546Y-88011000D01*
X149754258Y-87963829D01*
X149827084Y-87827582D01*
X149871929Y-87679745D01*
X149887072Y-87526000D01*
X149887072Y-87327690D01*
X149933733Y-87365984D01*
G37*
%TD.AperFunction*%
D21*
X102207079Y-86766009D02*
X102194482Y-86762188D01*
X102070000Y-86749928D01*
X101855750Y-86753000D01*
X101697000Y-86911750D01*
X101697000Y-88011000D01*
X101717000Y-88011000D01*
X101717000Y-88265000D01*
X101697000Y-88265000D01*
X101697000Y-89364250D01*
X101855750Y-89523000D01*
X102070000Y-89526072D01*
X102194482Y-89513812D01*
X102220000Y-89506071D01*
X102245518Y-89513812D01*
X102246510Y-89513910D01*
X100974951Y-90785469D01*
X100941184Y-90813181D01*
X100925534Y-90832250D01*
X100825820Y-90862498D01*
X100715506Y-90921463D01*
X100618815Y-91000815D01*
X100539463Y-91097506D01*
X100480498Y-91207820D01*
X100444188Y-91327518D01*
X100431928Y-91452000D01*
X100431928Y-92952000D01*
X100433772Y-92970721D01*
X100314398Y-92921274D01*
X100114439Y-92881500D01*
X99910561Y-92881500D01*
X99710602Y-92921274D01*
X99522244Y-92999295D01*
X99352726Y-93112563D01*
X99208563Y-93256726D01*
X99095295Y-93426244D01*
X99017274Y-93614602D01*
X98977500Y-93814561D01*
X98977500Y-93897779D01*
X98268414Y-93188693D01*
X98435475Y-93021632D01*
X98597990Y-92778411D01*
X98709932Y-92508158D01*
X98767000Y-92221260D01*
X98767000Y-91928740D01*
X98709932Y-91641842D01*
X98597990Y-91371589D01*
X98435475Y-91128368D01*
X98228632Y-90921525D01*
X98054240Y-90805000D01*
X98228632Y-90688475D01*
X98435475Y-90481632D01*
X98597990Y-90238411D01*
X98709932Y-89968158D01*
X98767000Y-89681260D01*
X98767000Y-89388740D01*
X98723209Y-89168592D01*
X99003801Y-88888000D01*
X100431928Y-88888000D01*
X100444188Y-89012482D01*
X100480498Y-89132180D01*
X100539463Y-89242494D01*
X100618815Y-89339185D01*
X100715506Y-89418537D01*
X100825820Y-89477502D01*
X100945518Y-89513812D01*
X101070000Y-89526072D01*
X101284250Y-89523000D01*
X101443000Y-89364250D01*
X101443000Y-88265000D01*
X100593750Y-88265000D01*
X100435000Y-88423750D01*
X100431928Y-88888000D01*
X99003801Y-88888000D01*
X100432400Y-87459401D01*
X100435000Y-87852250D01*
X100593750Y-88011000D01*
X101443000Y-88011000D01*
X101443000Y-86911750D01*
X101284250Y-86753000D01*
X101140858Y-86750944D01*
X101158311Y-86733491D01*
X102224460Y-86733491D01*
X102207079Y-86766009D01*
%TA.AperFunction,Conductor*%
D22*
G36*
X102207079Y-86766009D02*
G01*
X102194482Y-86762188D01*
X102070000Y-86749928D01*
X101855750Y-86753000D01*
X101697000Y-86911750D01*
X101697000Y-88011000D01*
X101717000Y-88011000D01*
X101717000Y-88265000D01*
X101697000Y-88265000D01*
X101697000Y-89364250D01*
X101855750Y-89523000D01*
X102070000Y-89526072D01*
X102194482Y-89513812D01*
X102220000Y-89506071D01*
X102245518Y-89513812D01*
X102246510Y-89513910D01*
X100974951Y-90785469D01*
X100941184Y-90813181D01*
X100925534Y-90832250D01*
X100825820Y-90862498D01*
X100715506Y-90921463D01*
X100618815Y-91000815D01*
X100539463Y-91097506D01*
X100480498Y-91207820D01*
X100444188Y-91327518D01*
X100431928Y-91452000D01*
X100431928Y-92952000D01*
X100433772Y-92970721D01*
X100314398Y-92921274D01*
X100114439Y-92881500D01*
X99910561Y-92881500D01*
X99710602Y-92921274D01*
X99522244Y-92999295D01*
X99352726Y-93112563D01*
X99208563Y-93256726D01*
X99095295Y-93426244D01*
X99017274Y-93614602D01*
X98977500Y-93814561D01*
X98977500Y-93897779D01*
X98268414Y-93188693D01*
X98435475Y-93021632D01*
X98597990Y-92778411D01*
X98709932Y-92508158D01*
X98767000Y-92221260D01*
X98767000Y-91928740D01*
X98709932Y-91641842D01*
X98597990Y-91371589D01*
X98435475Y-91128368D01*
X98228632Y-90921525D01*
X98054240Y-90805000D01*
X98228632Y-90688475D01*
X98435475Y-90481632D01*
X98597990Y-90238411D01*
X98709932Y-89968158D01*
X98767000Y-89681260D01*
X98767000Y-89388740D01*
X98723209Y-89168592D01*
X99003801Y-88888000D01*
X100431928Y-88888000D01*
X100444188Y-89012482D01*
X100480498Y-89132180D01*
X100539463Y-89242494D01*
X100618815Y-89339185D01*
X100715506Y-89418537D01*
X100825820Y-89477502D01*
X100945518Y-89513812D01*
X101070000Y-89526072D01*
X101284250Y-89523000D01*
X101443000Y-89364250D01*
X101443000Y-88265000D01*
X100593750Y-88265000D01*
X100435000Y-88423750D01*
X100431928Y-88888000D01*
X99003801Y-88888000D01*
X100432400Y-87459401D01*
X100435000Y-87852250D01*
X100593750Y-88011000D01*
X101443000Y-88011000D01*
X101443000Y-86911750D01*
X101284250Y-86753000D01*
X101140858Y-86750944D01*
X101158311Y-86733491D01*
X102224460Y-86733491D01*
X102207079Y-86766009D01*
G37*
%TD.AperFunction*%
D21*
X145931660Y-86792629D02*
X145915753Y-86797454D01*
X145783724Y-86868026D01*
X145667999Y-86962999D01*
X145644201Y-86991998D01*
X145266271Y-87369928D01*
X145053000Y-87369928D01*
X144928518Y-87382188D01*
X144808820Y-87418498D01*
X144698506Y-87477463D01*
X144653000Y-87514809D01*
X144607494Y-87477463D01*
X144497180Y-87418498D01*
X144377482Y-87382188D01*
X144253000Y-87369928D01*
X143353000Y-87369928D01*
X143228518Y-87382188D01*
X143108820Y-87418498D01*
X142998506Y-87477463D01*
X142901815Y-87556815D01*
X142822463Y-87653506D01*
X142763498Y-87763820D01*
X142727188Y-87883518D01*
X142714928Y-88008000D01*
X142714928Y-88408000D01*
X142727188Y-88532482D01*
X142750096Y-88608000D01*
X142727188Y-88683518D01*
X142714928Y-88808000D01*
X142714928Y-89208000D01*
X142727188Y-89332482D01*
X142750096Y-89408000D01*
X142727188Y-89483518D01*
X142714928Y-89608000D01*
X142714928Y-90008000D01*
X142727188Y-90132482D01*
X142750096Y-90208000D01*
X142727188Y-90283518D01*
X142714928Y-90408000D01*
X142714928Y-90808000D01*
X142727188Y-90932482D01*
X142763498Y-91052180D01*
X142822463Y-91162494D01*
X142901815Y-91259185D01*
X142998506Y-91338537D01*
X143028572Y-91354608D01*
X141541492Y-92841689D01*
X140421000Y-91721197D01*
X140421000Y-91235320D01*
X140465494Y-91211537D01*
X140562185Y-91132185D01*
X140641537Y-91035494D01*
X140700502Y-90925180D01*
X140736812Y-90805482D01*
X140749072Y-90681000D01*
X140749072Y-90281000D01*
X140736812Y-90156518D01*
X140713904Y-90081000D01*
X140736812Y-90005482D01*
X140749072Y-89881000D01*
X140749072Y-89481000D01*
X140736812Y-89356518D01*
X140713904Y-89281000D01*
X140736812Y-89205482D01*
X140749072Y-89081000D01*
X140749072Y-88681000D01*
X140736812Y-88556518D01*
X140713904Y-88481000D01*
X140736812Y-88405482D01*
X140749072Y-88281000D01*
X140749072Y-87881000D01*
X140736812Y-87756518D01*
X140700502Y-87636820D01*
X140641537Y-87526506D01*
X140562185Y-87429815D01*
X140465494Y-87350463D01*
X140355180Y-87291498D01*
X140235482Y-87255188D01*
X140111000Y-87242928D01*
X139211000Y-87242928D01*
X139086518Y-87255188D01*
X138966820Y-87291498D01*
X138856506Y-87350463D01*
X138811000Y-87387809D01*
X138765494Y-87350463D01*
X138655180Y-87291498D01*
X138535482Y-87255188D01*
X138411000Y-87242928D01*
X137807807Y-87242928D01*
X137774226Y-87074102D01*
X137696205Y-86885744D01*
X137595161Y-86734521D01*
X145989768Y-86734521D01*
X145931660Y-86792629D01*
%TA.AperFunction,Conductor*%
D22*
G36*
X145931660Y-86792629D02*
G01*
X145915753Y-86797454D01*
X145783724Y-86868026D01*
X145667999Y-86962999D01*
X145644201Y-86991998D01*
X145266271Y-87369928D01*
X145053000Y-87369928D01*
X144928518Y-87382188D01*
X144808820Y-87418498D01*
X144698506Y-87477463D01*
X144653000Y-87514809D01*
X144607494Y-87477463D01*
X144497180Y-87418498D01*
X144377482Y-87382188D01*
X144253000Y-87369928D01*
X143353000Y-87369928D01*
X143228518Y-87382188D01*
X143108820Y-87418498D01*
X142998506Y-87477463D01*
X142901815Y-87556815D01*
X142822463Y-87653506D01*
X142763498Y-87763820D01*
X142727188Y-87883518D01*
X142714928Y-88008000D01*
X142714928Y-88408000D01*
X142727188Y-88532482D01*
X142750096Y-88608000D01*
X142727188Y-88683518D01*
X142714928Y-88808000D01*
X142714928Y-89208000D01*
X142727188Y-89332482D01*
X142750096Y-89408000D01*
X142727188Y-89483518D01*
X142714928Y-89608000D01*
X142714928Y-90008000D01*
X142727188Y-90132482D01*
X142750096Y-90208000D01*
X142727188Y-90283518D01*
X142714928Y-90408000D01*
X142714928Y-90808000D01*
X142727188Y-90932482D01*
X142763498Y-91052180D01*
X142822463Y-91162494D01*
X142901815Y-91259185D01*
X142998506Y-91338537D01*
X143028572Y-91354608D01*
X141541492Y-92841689D01*
X140421000Y-91721197D01*
X140421000Y-91235320D01*
X140465494Y-91211537D01*
X140562185Y-91132185D01*
X140641537Y-91035494D01*
X140700502Y-90925180D01*
X140736812Y-90805482D01*
X140749072Y-90681000D01*
X140749072Y-90281000D01*
X140736812Y-90156518D01*
X140713904Y-90081000D01*
X140736812Y-90005482D01*
X140749072Y-89881000D01*
X140749072Y-89481000D01*
X140736812Y-89356518D01*
X140713904Y-89281000D01*
X140736812Y-89205482D01*
X140749072Y-89081000D01*
X140749072Y-88681000D01*
X140736812Y-88556518D01*
X140713904Y-88481000D01*
X140736812Y-88405482D01*
X140749072Y-88281000D01*
X140749072Y-87881000D01*
X140736812Y-87756518D01*
X140700502Y-87636820D01*
X140641537Y-87526506D01*
X140562185Y-87429815D01*
X140465494Y-87350463D01*
X140355180Y-87291498D01*
X140235482Y-87255188D01*
X140111000Y-87242928D01*
X139211000Y-87242928D01*
X139086518Y-87255188D01*
X138966820Y-87291498D01*
X138856506Y-87350463D01*
X138811000Y-87387809D01*
X138765494Y-87350463D01*
X138655180Y-87291498D01*
X138535482Y-87255188D01*
X138411000Y-87242928D01*
X137807807Y-87242928D01*
X137774226Y-87074102D01*
X137696205Y-86885744D01*
X137595161Y-86734521D01*
X145989768Y-86734521D01*
X145931660Y-86792629D01*
G37*
%TD.AperFunction*%
D21*
X127611455Y-86989445D02*
X127533434Y-87177803D01*
X127495218Y-87369928D01*
X126892000Y-87369928D01*
X126767518Y-87382188D01*
X126647820Y-87418498D01*
X126537506Y-87477463D01*
X126492000Y-87514809D01*
X126446494Y-87477463D01*
X126336180Y-87418498D01*
X126216482Y-87382188D01*
X126092000Y-87369928D01*
X125192000Y-87369928D01*
X125067518Y-87382188D01*
X124947820Y-87418498D01*
X124837506Y-87477463D01*
X124740815Y-87556815D01*
X124661463Y-87653506D01*
X124602498Y-87763820D01*
X124566188Y-87883518D01*
X124553928Y-88008000D01*
X124553928Y-88408000D01*
X124566188Y-88532482D01*
X124589096Y-88608000D01*
X124566188Y-88683518D01*
X124553928Y-88808000D01*
X124553928Y-89208000D01*
X124566188Y-89332482D01*
X124589096Y-89408000D01*
X124566188Y-89483518D01*
X124553928Y-89608000D01*
X124553928Y-90008000D01*
X124566188Y-90132482D01*
X124589096Y-90208000D01*
X124566188Y-90283518D01*
X124553928Y-90408000D01*
X124553928Y-90808000D01*
X124566188Y-90932482D01*
X124602498Y-91052180D01*
X124661463Y-91162494D01*
X124740815Y-91259185D01*
X124793102Y-91302096D01*
X123571001Y-92524198D01*
X122401417Y-91354614D01*
X122431494Y-91338537D01*
X122528185Y-91259185D01*
X122607537Y-91162494D01*
X122666502Y-91052180D01*
X122702812Y-90932482D01*
X122715072Y-90808000D01*
X122715072Y-90408000D01*
X122702812Y-90283518D01*
X122679904Y-90208000D01*
X122702812Y-90132482D01*
X122715072Y-90008000D01*
X122715072Y-89608000D01*
X122702812Y-89483518D01*
X122679904Y-89408000D01*
X122702812Y-89332482D01*
X122715072Y-89208000D01*
X122715072Y-88808000D01*
X122702812Y-88683518D01*
X122679904Y-88608000D01*
X122702812Y-88532482D01*
X122715072Y-88408000D01*
X122715072Y-88008000D01*
X122702812Y-87883518D01*
X122666502Y-87763820D01*
X122607537Y-87653506D01*
X122528185Y-87556815D01*
X122431494Y-87477463D01*
X122321180Y-87418498D01*
X122201482Y-87382188D01*
X122077000Y-87369928D01*
X121177000Y-87369928D01*
X121052518Y-87382188D01*
X120932820Y-87418498D01*
X120822506Y-87477463D01*
X120777000Y-87514809D01*
X120731494Y-87477463D01*
X120621180Y-87418498D01*
X120501482Y-87382188D01*
X120377000Y-87369928D01*
X120163730Y-87369928D01*
X119723301Y-86929500D01*
X127651509Y-86929500D01*
X127611455Y-86989445D01*
%TA.AperFunction,Conductor*%
D22*
G36*
X127611455Y-86989445D02*
G01*
X127533434Y-87177803D01*
X127495218Y-87369928D01*
X126892000Y-87369928D01*
X126767518Y-87382188D01*
X126647820Y-87418498D01*
X126537506Y-87477463D01*
X126492000Y-87514809D01*
X126446494Y-87477463D01*
X126336180Y-87418498D01*
X126216482Y-87382188D01*
X126092000Y-87369928D01*
X125192000Y-87369928D01*
X125067518Y-87382188D01*
X124947820Y-87418498D01*
X124837506Y-87477463D01*
X124740815Y-87556815D01*
X124661463Y-87653506D01*
X124602498Y-87763820D01*
X124566188Y-87883518D01*
X124553928Y-88008000D01*
X124553928Y-88408000D01*
X124566188Y-88532482D01*
X124589096Y-88608000D01*
X124566188Y-88683518D01*
X124553928Y-88808000D01*
X124553928Y-89208000D01*
X124566188Y-89332482D01*
X124589096Y-89408000D01*
X124566188Y-89483518D01*
X124553928Y-89608000D01*
X124553928Y-90008000D01*
X124566188Y-90132482D01*
X124589096Y-90208000D01*
X124566188Y-90283518D01*
X124553928Y-90408000D01*
X124553928Y-90808000D01*
X124566188Y-90932482D01*
X124602498Y-91052180D01*
X124661463Y-91162494D01*
X124740815Y-91259185D01*
X124793102Y-91302096D01*
X123571001Y-92524198D01*
X122401417Y-91354614D01*
X122431494Y-91338537D01*
X122528185Y-91259185D01*
X122607537Y-91162494D01*
X122666502Y-91052180D01*
X122702812Y-90932482D01*
X122715072Y-90808000D01*
X122715072Y-90408000D01*
X122702812Y-90283518D01*
X122679904Y-90208000D01*
X122702812Y-90132482D01*
X122715072Y-90008000D01*
X122715072Y-89608000D01*
X122702812Y-89483518D01*
X122679904Y-89408000D01*
X122702812Y-89332482D01*
X122715072Y-89208000D01*
X122715072Y-88808000D01*
X122702812Y-88683518D01*
X122679904Y-88608000D01*
X122702812Y-88532482D01*
X122715072Y-88408000D01*
X122715072Y-88008000D01*
X122702812Y-87883518D01*
X122666502Y-87763820D01*
X122607537Y-87653506D01*
X122528185Y-87556815D01*
X122431494Y-87477463D01*
X122321180Y-87418498D01*
X122201482Y-87382188D01*
X122077000Y-87369928D01*
X121177000Y-87369928D01*
X121052518Y-87382188D01*
X120932820Y-87418498D01*
X120822506Y-87477463D01*
X120777000Y-87514809D01*
X120731494Y-87477463D01*
X120621180Y-87418498D01*
X120501482Y-87382188D01*
X120377000Y-87369928D01*
X120163730Y-87369928D01*
X119723301Y-86929500D01*
X127651509Y-86929500D01*
X127611455Y-86989445D01*
G37*
%TD.AperFunction*%
D21*
X160864790Y-86501592D02*
X160821000Y-86721740D01*
X160821000Y-86848199D01*
X160647304Y-86674503D01*
X160623501Y-86645499D01*
X160507776Y-86550526D01*
X160375747Y-86479954D01*
X160232486Y-86436497D01*
X160120833Y-86425500D01*
X160120822Y-86425500D01*
X160083500Y-86421824D01*
X160046178Y-86425500D01*
X156813799Y-86425500D01*
X156622809Y-86234510D01*
X160597709Y-86234510D01*
X160864790Y-86501592D01*
%TA.AperFunction,Conductor*%
D22*
G36*
X160864790Y-86501592D02*
G01*
X160821000Y-86721740D01*
X160821000Y-86848199D01*
X160647304Y-86674503D01*
X160623501Y-86645499D01*
X160507776Y-86550526D01*
X160375747Y-86479954D01*
X160232486Y-86436497D01*
X160120833Y-86425500D01*
X160120822Y-86425500D01*
X160083500Y-86421824D01*
X160046178Y-86425500D01*
X156813799Y-86425500D01*
X156622809Y-86234510D01*
X160597709Y-86234510D01*
X160864790Y-86501592D01*
G37*
%TD.AperFunction*%
D21*
X115313710Y-86035512D02*
X115337509Y-86064511D01*
X115366507Y-86088309D01*
X115422802Y-86134509D01*
X114157311Y-86134509D01*
X113682301Y-85659500D01*
X114937699Y-85659500D01*
X115313710Y-86035512D01*
%TA.AperFunction,Conductor*%
D22*
G36*
X115313710Y-86035512D02*
G01*
X115337509Y-86064511D01*
X115366507Y-86088309D01*
X115422802Y-86134509D01*
X114157311Y-86134509D01*
X113682301Y-85659500D01*
X114937699Y-85659500D01*
X115313710Y-86035512D01*
G37*
%TD.AperFunction*%
D21*
X133294200Y-85982002D02*
X133317999Y-86011001D01*
X133346997Y-86034799D01*
X133370990Y-86054490D01*
X132468292Y-86054490D01*
X132073301Y-85659500D01*
X132971699Y-85659500D01*
X133294200Y-85982002D01*
%TA.AperFunction,Conductor*%
D22*
G36*
X133294200Y-85982002D02*
G01*
X133317999Y-86011001D01*
X133346997Y-86034799D01*
X133370990Y-86054490D01*
X132468292Y-86054490D01*
X132073301Y-85659500D01*
X132971699Y-85659500D01*
X133294200Y-85982002D01*
G37*
%TD.AperFunction*%
D21*
X134812994Y-83961428D02*
X134301500Y-83961428D01*
X134147755Y-83976571D01*
X133999918Y-84021416D01*
X133863671Y-84094242D01*
X133744249Y-84192249D01*
X133692813Y-84254924D01*
X133578747Y-84193954D01*
X133435486Y-84150497D01*
X133323833Y-84139500D01*
X133323822Y-84139500D01*
X133286500Y-84135824D01*
X133249178Y-84139500D01*
X131494476Y-84139500D01*
X131439329Y-84094242D01*
X131303082Y-84021416D01*
X131155245Y-83976571D01*
X131001500Y-83961428D01*
X129351500Y-83961428D01*
X129197755Y-83976571D01*
X129049918Y-84021416D01*
X128913671Y-84094242D01*
X128858524Y-84139500D01*
X128497833Y-84139500D01*
X128460500Y-84135823D01*
X128423167Y-84139500D01*
X128311514Y-84150497D01*
X128168253Y-84193954D01*
X128036224Y-84264526D01*
X127920499Y-84359499D01*
X127896700Y-84388498D01*
X127520689Y-84764510D01*
X122530054Y-84764510D01*
X122529000Y-84613750D01*
X122370250Y-84455000D01*
X121433500Y-84455000D01*
X121433500Y-84475000D01*
X121179500Y-84475000D01*
X121179500Y-84455000D01*
X121159500Y-84455000D01*
X121159500Y-84201000D01*
X121179500Y-84201000D01*
X121179500Y-84181000D01*
X121433500Y-84181000D01*
X121433500Y-84201000D01*
X122370250Y-84201000D01*
X122529000Y-84042250D01*
X122530582Y-83816000D01*
X134958422Y-83816000D01*
X134812994Y-83961428D01*
%TA.AperFunction,Conductor*%
D22*
G36*
X134812994Y-83961428D02*
G01*
X134301500Y-83961428D01*
X134147755Y-83976571D01*
X133999918Y-84021416D01*
X133863671Y-84094242D01*
X133744249Y-84192249D01*
X133692813Y-84254924D01*
X133578747Y-84193954D01*
X133435486Y-84150497D01*
X133323833Y-84139500D01*
X133323822Y-84139500D01*
X133286500Y-84135824D01*
X133249178Y-84139500D01*
X131494476Y-84139500D01*
X131439329Y-84094242D01*
X131303082Y-84021416D01*
X131155245Y-83976571D01*
X131001500Y-83961428D01*
X129351500Y-83961428D01*
X129197755Y-83976571D01*
X129049918Y-84021416D01*
X128913671Y-84094242D01*
X128858524Y-84139500D01*
X128497833Y-84139500D01*
X128460500Y-84135823D01*
X128423167Y-84139500D01*
X128311514Y-84150497D01*
X128168253Y-84193954D01*
X128036224Y-84264526D01*
X127920499Y-84359499D01*
X127896700Y-84388498D01*
X127520689Y-84764510D01*
X122530054Y-84764510D01*
X122529000Y-84613750D01*
X122370250Y-84455000D01*
X121433500Y-84455000D01*
X121433500Y-84475000D01*
X121179500Y-84475000D01*
X121179500Y-84455000D01*
X121159500Y-84455000D01*
X121159500Y-84201000D01*
X121179500Y-84201000D01*
X121179500Y-84181000D01*
X121433500Y-84181000D01*
X121433500Y-84201000D01*
X122370250Y-84201000D01*
X122529000Y-84042250D01*
X122530582Y-83816000D01*
X134958422Y-83816000D01*
X134812994Y-83961428D01*
G37*
%TD.AperFunction*%
D21*
X153037494Y-83897928D02*
X152399000Y-83897928D01*
X152245255Y-83913071D01*
X152097418Y-83957916D01*
X151961171Y-84030742D01*
X151841749Y-84128749D01*
X151817087Y-84158799D01*
X151789718Y-84150497D01*
X151678065Y-84139500D01*
X151678054Y-84139500D01*
X151640732Y-84135824D01*
X151603410Y-84139500D01*
X149665074Y-84139500D01*
X149656251Y-84128749D01*
X149536829Y-84030742D01*
X149400582Y-83957916D01*
X149252745Y-83913071D01*
X149099000Y-83897928D01*
X147449000Y-83897928D01*
X147295255Y-83913071D01*
X147147418Y-83957916D01*
X147011171Y-84030742D01*
X146891749Y-84128749D01*
X146793742Y-84248171D01*
X146720916Y-84384418D01*
X146676071Y-84532255D01*
X146660928Y-84686000D01*
X146660928Y-84711000D01*
X140563680Y-84711000D01*
X140563000Y-84613750D01*
X140404250Y-84455000D01*
X139467500Y-84455000D01*
X139467500Y-84475000D01*
X139213500Y-84475000D01*
X139213500Y-84455000D01*
X139193500Y-84455000D01*
X139193500Y-84201000D01*
X139213500Y-84201000D01*
X139213500Y-84181000D01*
X139467500Y-84181000D01*
X139467500Y-84201000D01*
X140404250Y-84201000D01*
X140563000Y-84042250D01*
X140564582Y-83816000D01*
X153119422Y-83816000D01*
X153037494Y-83897928D01*
%TA.AperFunction,Conductor*%
D22*
G36*
X153037494Y-83897928D02*
G01*
X152399000Y-83897928D01*
X152245255Y-83913071D01*
X152097418Y-83957916D01*
X151961171Y-84030742D01*
X151841749Y-84128749D01*
X151817087Y-84158799D01*
X151789718Y-84150497D01*
X151678065Y-84139500D01*
X151678054Y-84139500D01*
X151640732Y-84135824D01*
X151603410Y-84139500D01*
X149665074Y-84139500D01*
X149656251Y-84128749D01*
X149536829Y-84030742D01*
X149400582Y-83957916D01*
X149252745Y-83913071D01*
X149099000Y-83897928D01*
X147449000Y-83897928D01*
X147295255Y-83913071D01*
X147147418Y-83957916D01*
X147011171Y-84030742D01*
X146891749Y-84128749D01*
X146793742Y-84248171D01*
X146720916Y-84384418D01*
X146676071Y-84532255D01*
X146660928Y-84686000D01*
X146660928Y-84711000D01*
X140563680Y-84711000D01*
X140563000Y-84613750D01*
X140404250Y-84455000D01*
X139467500Y-84455000D01*
X139467500Y-84475000D01*
X139213500Y-84475000D01*
X139213500Y-84455000D01*
X139193500Y-84455000D01*
X139193500Y-84201000D01*
X139213500Y-84201000D01*
X139213500Y-84181000D01*
X139467500Y-84181000D01*
X139467500Y-84201000D01*
X140404250Y-84201000D01*
X140563000Y-84042250D01*
X140564582Y-83816000D01*
X153119422Y-83816000D01*
X153037494Y-83897928D01*
G37*
%TD.AperFunction*%
%TD*%
M02*
