%TF.GenerationSoftware,KiCad,Pcbnew,(5.1.9)-1*%
%TF.CreationDate,2022-02-10T01:20:13+09:00*%
%TF.ProjectId,joystick-input,6a6f7973-7469-4636-9b2d-696e7075742e,rev?*%
%TF.SameCoordinates,Original*%
%TF.FileFunction,Soldermask,Bot*%
%TF.FilePolarity,Negative*%
%FSLAX46Y46*%
G04 Gerber Fmt 4.6, Leading zero omitted, Abs format (unit mm)*
G04 Created by KiCad (PCBNEW (5.1.9)-1) date 2022-02-10 01:20:13*
%MOMM*%
%LPD*%
G01*
G04 APERTURE LIST*
%ADD10O,2.000000X1.700000*%
%ADD11O,1.700000X1.950000*%
%ADD12O,1.700000X1.700000*%
%ADD13R,1.700000X1.700000*%
G04 APERTURE END LIST*
D10*
%TO.C,J18*%
X97790000Y-67016000D03*
G36*
G01*
X97040000Y-63666000D02*
X98540000Y-63666000D01*
G75*
G02*
X98790000Y-63916000I0J-250000D01*
G01*
X98790000Y-65116000D01*
G75*
G02*
X98540000Y-65366000I-250000J0D01*
G01*
X97040000Y-65366000D01*
G75*
G02*
X96790000Y-65116000I0J250000D01*
G01*
X96790000Y-63916000D01*
G75*
G02*
X97040000Y-63666000I250000J0D01*
G01*
G37*
%TD*%
%TO.C,J17*%
X104648000Y-67016000D03*
G36*
G01*
X103898000Y-63666000D02*
X105398000Y-63666000D01*
G75*
G02*
X105648000Y-63916000I0J-250000D01*
G01*
X105648000Y-65116000D01*
G75*
G02*
X105398000Y-65366000I-250000J0D01*
G01*
X103898000Y-65366000D01*
G75*
G02*
X103648000Y-65116000I0J250000D01*
G01*
X103648000Y-63916000D01*
G75*
G02*
X103898000Y-63666000I250000J0D01*
G01*
G37*
%TD*%
%TO.C,J16*%
X111506000Y-67016000D03*
G36*
G01*
X110756000Y-63666000D02*
X112256000Y-63666000D01*
G75*
G02*
X112506000Y-63916000I0J-250000D01*
G01*
X112506000Y-65116000D01*
G75*
G02*
X112256000Y-65366000I-250000J0D01*
G01*
X110756000Y-65366000D01*
G75*
G02*
X110506000Y-65116000I0J250000D01*
G01*
X110506000Y-63916000D01*
G75*
G02*
X110756000Y-63666000I250000J0D01*
G01*
G37*
%TD*%
%TO.C,J15*%
X118364000Y-67016000D03*
G36*
G01*
X117614000Y-63666000D02*
X119114000Y-63666000D01*
G75*
G02*
X119364000Y-63916000I0J-250000D01*
G01*
X119364000Y-65116000D01*
G75*
G02*
X119114000Y-65366000I-250000J0D01*
G01*
X117614000Y-65366000D01*
G75*
G02*
X117364000Y-65116000I0J250000D01*
G01*
X117364000Y-63916000D01*
G75*
G02*
X117614000Y-63666000I250000J0D01*
G01*
G37*
%TD*%
%TO.C,J14*%
X125222000Y-67016000D03*
G36*
G01*
X124472000Y-63666000D02*
X125972000Y-63666000D01*
G75*
G02*
X126222000Y-63916000I0J-250000D01*
G01*
X126222000Y-65116000D01*
G75*
G02*
X125972000Y-65366000I-250000J0D01*
G01*
X124472000Y-65366000D01*
G75*
G02*
X124222000Y-65116000I0J250000D01*
G01*
X124222000Y-63916000D01*
G75*
G02*
X124472000Y-63666000I250000J0D01*
G01*
G37*
%TD*%
%TO.C,J13*%
X132080000Y-67016000D03*
G36*
G01*
X131330000Y-63666000D02*
X132830000Y-63666000D01*
G75*
G02*
X133080000Y-63916000I0J-250000D01*
G01*
X133080000Y-65116000D01*
G75*
G02*
X132830000Y-65366000I-250000J0D01*
G01*
X131330000Y-65366000D01*
G75*
G02*
X131080000Y-65116000I0J250000D01*
G01*
X131080000Y-63916000D01*
G75*
G02*
X131330000Y-63666000I250000J0D01*
G01*
G37*
%TD*%
%TO.C,J12*%
X138938000Y-67016000D03*
G36*
G01*
X138188000Y-63666000D02*
X139688000Y-63666000D01*
G75*
G02*
X139938000Y-63916000I0J-250000D01*
G01*
X139938000Y-65116000D01*
G75*
G02*
X139688000Y-65366000I-250000J0D01*
G01*
X138188000Y-65366000D01*
G75*
G02*
X137938000Y-65116000I0J250000D01*
G01*
X137938000Y-63916000D01*
G75*
G02*
X138188000Y-63666000I250000J0D01*
G01*
G37*
%TD*%
%TO.C,J11*%
X97790000Y-75652000D03*
G36*
G01*
X97040000Y-72302000D02*
X98540000Y-72302000D01*
G75*
G02*
X98790000Y-72552000I0J-250000D01*
G01*
X98790000Y-73752000D01*
G75*
G02*
X98540000Y-74002000I-250000J0D01*
G01*
X97040000Y-74002000D01*
G75*
G02*
X96790000Y-73752000I0J250000D01*
G01*
X96790000Y-72552000D01*
G75*
G02*
X97040000Y-72302000I250000J0D01*
G01*
G37*
%TD*%
%TO.C,J10*%
X104648000Y-75652000D03*
G36*
G01*
X103898000Y-72302000D02*
X105398000Y-72302000D01*
G75*
G02*
X105648000Y-72552000I0J-250000D01*
G01*
X105648000Y-73752000D01*
G75*
G02*
X105398000Y-74002000I-250000J0D01*
G01*
X103898000Y-74002000D01*
G75*
G02*
X103648000Y-73752000I0J250000D01*
G01*
X103648000Y-72552000D01*
G75*
G02*
X103898000Y-72302000I250000J0D01*
G01*
G37*
%TD*%
%TO.C,J9*%
X111506000Y-75652000D03*
G36*
G01*
X110756000Y-72302000D02*
X112256000Y-72302000D01*
G75*
G02*
X112506000Y-72552000I0J-250000D01*
G01*
X112506000Y-73752000D01*
G75*
G02*
X112256000Y-74002000I-250000J0D01*
G01*
X110756000Y-74002000D01*
G75*
G02*
X110506000Y-73752000I0J250000D01*
G01*
X110506000Y-72552000D01*
G75*
G02*
X110756000Y-72302000I250000J0D01*
G01*
G37*
%TD*%
%TO.C,J8*%
X118364000Y-75652000D03*
G36*
G01*
X117614000Y-72302000D02*
X119114000Y-72302000D01*
G75*
G02*
X119364000Y-72552000I0J-250000D01*
G01*
X119364000Y-73752000D01*
G75*
G02*
X119114000Y-74002000I-250000J0D01*
G01*
X117614000Y-74002000D01*
G75*
G02*
X117364000Y-73752000I0J250000D01*
G01*
X117364000Y-72552000D01*
G75*
G02*
X117614000Y-72302000I250000J0D01*
G01*
G37*
%TD*%
%TO.C,J7*%
X125222000Y-75652000D03*
G36*
G01*
X124472000Y-72302000D02*
X125972000Y-72302000D01*
G75*
G02*
X126222000Y-72552000I0J-250000D01*
G01*
X126222000Y-73752000D01*
G75*
G02*
X125972000Y-74002000I-250000J0D01*
G01*
X124472000Y-74002000D01*
G75*
G02*
X124222000Y-73752000I0J250000D01*
G01*
X124222000Y-72552000D01*
G75*
G02*
X124472000Y-72302000I250000J0D01*
G01*
G37*
%TD*%
%TO.C,J6*%
X132080000Y-75652000D03*
G36*
G01*
X131330000Y-72302000D02*
X132830000Y-72302000D01*
G75*
G02*
X133080000Y-72552000I0J-250000D01*
G01*
X133080000Y-73752000D01*
G75*
G02*
X132830000Y-74002000I-250000J0D01*
G01*
X131330000Y-74002000D01*
G75*
G02*
X131080000Y-73752000I0J250000D01*
G01*
X131080000Y-72552000D01*
G75*
G02*
X131330000Y-72302000I250000J0D01*
G01*
G37*
%TD*%
%TO.C,J5*%
X138938000Y-75652000D03*
G36*
G01*
X138188000Y-72302000D02*
X139688000Y-72302000D01*
G75*
G02*
X139938000Y-72552000I0J-250000D01*
G01*
X139938000Y-73752000D01*
G75*
G02*
X139688000Y-74002000I-250000J0D01*
G01*
X138188000Y-74002000D01*
G75*
G02*
X137938000Y-73752000I0J250000D01*
G01*
X137938000Y-72552000D01*
G75*
G02*
X138188000Y-72302000I250000J0D01*
G01*
G37*
%TD*%
%TO.C,J4*%
X145796000Y-67016000D03*
G36*
G01*
X145046000Y-63666000D02*
X146546000Y-63666000D01*
G75*
G02*
X146796000Y-63916000I0J-250000D01*
G01*
X146796000Y-65116000D01*
G75*
G02*
X146546000Y-65366000I-250000J0D01*
G01*
X145046000Y-65366000D01*
G75*
G02*
X144796000Y-65116000I0J250000D01*
G01*
X144796000Y-63916000D01*
G75*
G02*
X145046000Y-63666000I250000J0D01*
G01*
G37*
%TD*%
D11*
%TO.C,J3*%
X151798000Y-65659000D03*
X154298000Y-65659000D03*
X156798000Y-65659000D03*
X159298000Y-65659000D03*
G36*
G01*
X162648000Y-64934000D02*
X162648000Y-66384000D01*
G75*
G02*
X162398000Y-66634000I-250000J0D01*
G01*
X161198000Y-66634000D01*
G75*
G02*
X160948000Y-66384000I0J250000D01*
G01*
X160948000Y-64934000D01*
G75*
G02*
X161198000Y-64684000I250000J0D01*
G01*
X162398000Y-64684000D01*
G75*
G02*
X162648000Y-64934000I0J-250000D01*
G01*
G37*
%TD*%
D10*
%TO.C,J2*%
X145796000Y-75652000D03*
G36*
G01*
X145046000Y-72302000D02*
X146546000Y-72302000D01*
G75*
G02*
X146796000Y-72552000I0J-250000D01*
G01*
X146796000Y-73752000D01*
G75*
G02*
X146546000Y-74002000I-250000J0D01*
G01*
X145046000Y-74002000D01*
G75*
G02*
X144796000Y-73752000I0J250000D01*
G01*
X144796000Y-72552000D01*
G75*
G02*
X145046000Y-72302000I250000J0D01*
G01*
G37*
%TD*%
D11*
%TO.C,J1*%
X151798000Y-74549000D03*
X154298000Y-74549000D03*
X156798000Y-74549000D03*
X159298000Y-74549000D03*
G36*
G01*
X162648000Y-73824000D02*
X162648000Y-75274000D01*
G75*
G02*
X162398000Y-75524000I-250000J0D01*
G01*
X161198000Y-75524000D01*
G75*
G02*
X160948000Y-75274000I0J250000D01*
G01*
X160948000Y-73824000D01*
G75*
G02*
X161198000Y-73574000I250000J0D01*
G01*
X162398000Y-73574000D01*
G75*
G02*
X162648000Y-73824000I0J-250000D01*
G01*
G37*
%TD*%
D12*
%TO.C,OUT1*%
X162306000Y-91948000D03*
X162306000Y-89408000D03*
X162306000Y-86868000D03*
X162306000Y-84328000D03*
D13*
X162306000Y-81788000D03*
%TD*%
D12*
%TO.C,IN1*%
X97282000Y-92075000D03*
X97282000Y-89535000D03*
X97282000Y-86995000D03*
X97282000Y-84455000D03*
D13*
X97282000Y-81915000D03*
%TD*%
M02*
