<?xml version="1.0" encoding="UTF-8" standalone="no"?>
<!-- Created with Inkscape (http://www.inkscape.org/) -->

<svg
   width="50.264587mm"
   height="58.263897mm"
   viewBox="0 0 50.264587 58.263897"
   version="1.1"
   id="svg721"
   xml:space="preserve"
   inkscape:version="1.2 (dc2aedaf03, 2022-05-15)"
   sodipodi:docname="monitor_osd_control_button-silk_layer2.svg"
   xmlns:inkscape="http://www.inkscape.org/namespaces/inkscape"
   xmlns:sodipodi="http://sodipodi.sourceforge.net/DTD/sodipodi-0.dtd"
   xmlns="http://www.w3.org/2000/svg"
   xmlns:svg="http://www.w3.org/2000/svg"><sodipodi:namedview
     id="namedview723"
     pagecolor="#ffffff"
     bordercolor="#666666"
     borderopacity="1.0"
     inkscape:showpageshadow="2"
     inkscape:pageopacity="0.0"
     inkscape:pagecheckerboard="0"
     inkscape:deskcolor="#d1d1d1"
     inkscape:document-units="mm"
     showgrid="false"
     inkscape:zoom="2.8145191"
     inkscape:cx="29.845241"
     inkscape:cy="91.489875"
     inkscape:window-width="2270"
     inkscape:window-height="1333"
     inkscape:window-x="162"
     inkscape:window-y="52"
     inkscape:window-maximized="0"
     inkscape:current-layer="layer1" /><defs
     id="defs718"><marker
       id="DistanceX"
       orient="auto"
       refX="0"
       refY="0"
       style="overflow:visible"><path
         d="M 3,-3 -3,3 M 0,-5 V 5"
         style="stroke:#000000;stroke-width:0.5"
         id="path727" /></marker><pattern
       id="Hatch"
       patternUnits="userSpaceOnUse"
       width="8"
       height="8"
       x="0"
       y="0"><path
         d="M8 4 l-4,4"
         stroke="#000000"
         stroke-width="0.25"
         linecap="square"
         id="path730" /><path
         d="M6 2 l-4,4"
         stroke="#000000"
         stroke-width="0.25"
         linecap="square"
         id="path732" /><path
         d="M4 0 l-4,4"
         stroke="#000000"
         stroke-width="0.25"
         linecap="square"
         id="path734" /></pattern><symbol
       id="*Model_Space" /><symbol
       id="*Paper_Space" /><symbol
       id="*Paper_Space0" /></defs><g
     inkscape:label="Layer 1"
     inkscape:groupmode="layer"
     id="layer1"
     transform="translate(-43.999309,-145.5583)"><g
       inkscape:label="0"
       id="g742"
       transform="matrix(0.26458333,0,0,0.26458333,69.131603,-130.30951)" /><g
       inkscape:label="SECTION_CUTTING_LINE"
       id="g744"
       transform="matrix(0.26458333,0,0,0.26458333,69.131603,-130.30951)" /><g
       inkscape:label="DETAIL_VIEW_BORDER"
       id="g746"
       transform="matrix(0.26458333,0,0,0.26458333,69.131603,-130.30951)" /><g
       inkscape:label="DETAIL_VIEW_PARENT_BORDER"
       id="g748"
       transform="matrix(0.26458333,0,0,0.26458333,69.131603,-130.30951)" /><g
       inkscape:label="TEXT"
       id="g750"
       transform="matrix(0.26458333,0,0,0.26458333,69.131603,-130.30951)" /><g
       inkscape:label="SKETCHED_GEOMETRY"
       id="g752"
       transform="matrix(0.26458333,0,0,0.26458333,69.131603,-130.30951)" /><g
       inkscape:label="VIRTUAL_SHARPS"
       id="g754"
       transform="matrix(0.26458333,0,0,0.26458333,69.131603,-130.30951)" /><g
       inkscape:label="CENTERLINES"
       id="g756"
       transform="matrix(0.26458333,0,0,0.26458333,69.131603,-130.30951)" /><g
       inkscape:label="CENTERMARKS"
       id="g758"
       transform="matrix(0.26458333,0,0,0.26458333,69.131603,-130.30951)" /><g
       inkscape:label="TABLES"
       id="g760"
       transform="matrix(0.26458333,0,0,0.26458333,69.131603,-130.30951)" /><g
       inkscape:label="IMAGES"
       id="g762"
       transform="matrix(0.26458333,0,0,0.26458333,69.131603,-130.30951)" /><g
       inkscape:label="ANNOTATION_LINES"
       id="g764"
       transform="matrix(0.26458333,0,0,0.26458333,69.131603,-130.30951)" /><g
       inkscape:label="ANNOTATION_TEXT"
       id="g766"
       transform="matrix(0.26458333,0,0,0.26458333,69.131603,-130.30951)" /><g
       inkscape:label="SIDE_THREAD_SYMBOLS"
       id="g768"
       transform="matrix(0.26458333,0,0,0.26458333,69.131603,-130.30951)" /><g
       inkscape:label="SIDE_THREAD_SYMBOLS_HIDDEN"
       id="g770"
       transform="matrix(0.26458333,0,0,0.26458333,69.131603,-130.30951)" /><g
       inkscape:label="SURFACE_THREAD_SYMBOLS"
       id="g772"
       transform="matrix(0.26458333,0,0,0.26458333,69.131603,-130.30951)" /><g
       inkscape:label="SURFACE_THREAD_SYMBOLS_ON_AXIS"
       id="g774"
       transform="matrix(0.26458333,0,0,0.26458333,69.131603,-130.30951)" /><g
       inkscape:label="SURFACE_THREAD_SYMBOLS_HIDDEN"
       id="g776"
       transform="matrix(0.26458333,0,0,0.26458333,69.131603,-130.30951)" /><g
       inkscape:label="BLIND_THREAD_SYMBOLS"
       id="g778"
       transform="matrix(0.26458333,0,0,0.26458333,69.131603,-130.30951)" /><g
       inkscape:label="BLIND_THREAD_SYMBOLS_HIDDEN"
       id="g780"
       transform="matrix(0.26458333,0,0,0.26458333,69.131603,-130.30951)" /><g
       inkscape:label="EXPLODE_LINES"
       id="g782"
       transform="matrix(0.26458333,0,0,0.26458333,69.131603,-130.30951)" /><g
       inkscape:label="HIDDEN_EXPLODE_LINES"
       id="g784"
       transform="matrix(0.26458333,0,0,0.26458333,69.131603,-130.30951)" /><g
       inkscape:label="BREAK_LINES"
       id="g786"
       transform="matrix(0.26458333,0,0,0.26458333,69.131603,-130.30951)" /><g
       inkscape:label="SHEETMETAL_BEND_LINES_UP"
       id="g788"
       transform="matrix(0.26458333,0,0,0.26458333,69.131603,-130.30951)" /><g
       inkscape:label="SHEETMETAL_BEND_LINES_DOWN"
       id="g790"
       transform="matrix(0.26458333,0,0,0.26458333,69.131603,-130.30951)" /><g
       inkscape:label="SHEETMETAL_BEND_TANGENT_LINES"
       id="g792"
       transform="matrix(0.26458333,0,0,0.26458333,69.131603,-130.30951)" /><g
       inkscape:label="SHEETMETAL_CUT_LINES"
       id="g794"
       transform="matrix(0.26458333,0,0,0.26458333,69.131603,-130.30951)" /><g
       inkscape:label="REGION_ASSOC_POINTS"
       id="g796"
       transform="matrix(0.26458333,0,0,0.26458333,69.131603,-130.30951)" /><g
       inkscape:label="Hidden"
       id="g798"
       transform="matrix(0.26458333,0,0,0.26458333,69.131603,-130.30951)" /><g
       inkscape:label="Visible"
       id="g800"
       transform="matrix(0.26458333,0,0,0.26458333,69.131603,-130.30951)" /><path
       style="fill:none;stroke:#000000;stroke-width:0.264583"
       d="M 94.131606,187.69055 V 181.6898"
       id="path804" /><path
       d="m 90.131603,181.69049 a 1.9999999,1.9999999 0 0 0 -2,2.00001"
       style="fill:none;stroke:#000000;stroke-width:0.264583"
       id="path808" /><path
       d="m 90.131603,181.69049 a 1.9999999,1.9999999 0 0 0 -2,2.00001"
       style="fill:none;stroke:#000000;stroke-width:0.264583"
       id="path812" /><path
       style="fill:none;stroke:#000000;stroke-width:0.264583"
       d="m 44.1316,181.6898 h 3.999998"
       id="path816" /><path
       style="fill:none;stroke:#000000;stroke-width:0.264583"
       d="m 50.131609,187.69055 v -4.0005"
       id="path820" /><path
       style="fill:none;stroke:#000000;stroke-width:0.264583"
       d="M 44.1316,187.69055 V 181.6898"
       id="path826" /><path
       d="m 92.131603,200.69048 a 1.0000001,1.0000001 0 0 0 -2,0 1.0000001,1.0000001 0 0 0 2,0 z"
       style="fill:none;stroke:#000000;stroke-width:0.264583"
       id="path828" /><path
       style="fill:none;stroke:#000000;stroke-width:0.264583"
       d="m 44.1316,187.69055 h 6.000009"
       id="path830" /><path
       d="m 92.131603,148.69049 a 1.0000001,1.0000001 0 0 0 -2,0 1.0000001,1.0000001 0 0 0 2,0 z"
       style="fill:none;stroke:#000000;stroke-width:0.264583"
       id="path832" /><path
       style="fill:none;stroke:#000000;stroke-width:0.264583"
       d="m 50.131609,187.69055 v -4.0005"
       id="path834" /><path
       style="fill:none;stroke:#000000;stroke-width:0.264583"
       d="m 44.1316,187.69055 h 6.000009"
       id="path836" /><path
       style="fill:none;stroke:#000000;stroke-width:0.264583"
       d="m 87.131604,193.6913 v 5.9981"
       id="path838" /><path
       style="fill:none;stroke:#000000;stroke-width:0.264583"
       d="m 50.131609,145.69059 v 4.0005"
       id="path840" /><path
       style="fill:none;stroke:#000000;stroke-width:0.264583"
       d="m 44.1316,145.69059 h 6.000009"
       id="path842" /><path
       style="fill:none;stroke:#000000;stroke-width:0.264583"
       d="m 74.881607,173.94015 v 11.50144"
       id="path844" /><path
       style="fill:none;stroke:#000000;stroke-width:0.264583"
       d="m 63.381599,173.94015 v 11.50144"
       id="path846" /><path
       style="fill:none;stroke:#000000;stroke-width:0.264583"
       d="m 44.1316,151.69134 h 3.999998"
       id="path848" /><path
       style="fill:none;stroke:#000000;stroke-width:0.264583"
       d="m 44.1316,145.69059 v 6.00075"
       id="path850" /><path
       style="fill:none;stroke:#000000;stroke-width:0.264583"
       d="M 94.131606,187.69055 H 88.131597"
       id="path852" /><path
       style="fill:none;stroke:#000000;stroke-width:0.264583"
       d="m 50.381614,160.94117 v 11.4988"
       id="path854" /><path
       style="fill:none;stroke:#000000;stroke-width:0.264583"
       d="m 76.131605,192.69117 v 7.99836"
       id="path856" /><path
       style="fill:none;stroke:#000000;stroke-width:0.264583"
       d="M 63.381599,172.43997 H 74.881607"
       id="path858" /><path
       d="m 48.131603,148.69049 a 1.0000001,1.0000001 0 0 0 -2,0 1.0000001,1.0000001 0 0 0 2,0 z"
       style="fill:none;stroke:#000000;stroke-width:0.264583"
       id="path860" /><path
       style="fill:none;stroke:#000000;stroke-width:0.264583"
       d="m 61.881596,160.94117 v 11.4988"
       id="path862" /><path
       style="fill:none;stroke:#000000;stroke-width:0.264583"
       d="m 59.881611,193.43994 h 7.499993"
       id="path864" /><path
       style="fill:none;stroke:#000000;stroke-width:0.264583"
       d="m 63.381599,160.94117 v 11.4988"
       id="path866" /><path
       style="fill:none;stroke:#000000;stroke-width:0.264583"
       d="M 63.381599,173.94015 H 74.881607"
       id="path868" /><path
       style="fill:none;stroke:#000000;stroke-width:0.264583"
       d="m 59.881611,199.94076 h 7.499993"
       id="path870" /><path
       style="fill:none;stroke:#000000;stroke-width:0.264583"
       d="m 74.881607,160.94117 v 11.4988"
       id="path872" /><path
       style="fill:none;stroke:#000000;stroke-width:0.264583"
       d="M 63.381599,185.44159 H 74.881607"
       id="path874" /><path
       style="fill:none;stroke:#000000;stroke-width:0.264583"
       d="m 59.881611,193.43994 v 6.50082"
       id="path876" /><path
       style="fill:none;stroke:#000000;stroke-width:0.264583"
       d="M 50.381614,160.94117 H 61.881596"
       id="path878" /><path
       style="fill:none;stroke:#000000;stroke-width:0.264583"
       d="M 51.131602,192.69117 H 76.131605"
       id="path880" /><path
       style="fill:none;stroke:#000000;stroke-width:0.264583"
       d="m 76.38161,160.94117 v 11.4988"
       id="path882" /><path
       style="fill:none;stroke:#000000;stroke-width:0.264583"
       d="M 50.381614,172.43997 H 61.881596"
       id="path884" /><path
       style="fill:none;stroke:#000000;stroke-width:0.264583"
       d="m 51.131602,192.69117 v 7.99836"
       id="path886" /><path
       style="fill:none;stroke:#000000;stroke-width:0.264583"
       d="M 63.381599,160.94117 H 74.881607"
       id="path888" /><path
       style="fill:none;stroke:#000000;stroke-width:0.264583"
       d="M 51.131602,200.68953 H 76.131605"
       id="path890" /><path
       style="fill:none;stroke:#000000;stroke-width:0.264583"
       d="m 87.881592,160.94117 v 11.4988"
       id="path892" /><path
       d="m 92.131603,184.69049 a 1.0000001,1.0000001 0 0 0 -2,0 1.0000001,1.0000001 0 0 0 2,0 z"
       style="fill:none;stroke:#000000;stroke-width:0.264583"
       id="path894" /><path
       style="fill:none;stroke:#000000;stroke-width:0.264583"
       d="M 94.131606,145.69059 H 88.131597"
       id="path896" /><path
       style="fill:none;stroke:#000000;stroke-width:0.264583"
       d="m 88.131597,203.6899 v -4.0005"
       id="path898" /><path
       style="fill:none;stroke:#000000;stroke-width:0.264583"
       d="M 94.131606,187.69055 V 181.6898"
       id="path900" /><path
       style="fill:none;stroke:#000000;stroke-width:0.264583"
       d="M 76.38161,160.94117 H 87.881592"
       id="path902" /><path
       style="fill:none;stroke:#000000;stroke-width:0.264583"
       d="M 94.131606,187.69055 H 88.131597"
       id="path904" /><path
       style="fill:none;stroke:#000000;stroke-width:0.264583"
       d="M 76.38161,172.43997 H 87.881592"
       id="path906" /><path
       style="fill:none;stroke:#000000;stroke-width:0.264583"
       d="M 94.131606,181.6898 H 90.131608"
       id="path908" /><path
       style="fill:none;stroke:#000000;stroke-width:0.264583"
       d="M 74.881607,159.44099 V 147.93955"
       id="path910" /><path
       style="fill:none;stroke:#000000;stroke-width:0.264583"
       d="m 88.131597,187.69055 v -4.0005"
       id="path912" /><path
       style="fill:none;stroke:#000000;stroke-width:0.264583"
       d="M 63.381599,159.44099 V 147.93955"
       id="path914" /><path
       style="fill:none;stroke:#000000;stroke-width:0.264583"
       d="m 88.131597,187.69055 v -4.0005"
       id="path916" /><path
       style="fill:none;stroke:#000000;stroke-width:0.264583"
       d="M 63.381599,147.93955 H 74.881607"
       id="path918" /><path
       style="fill:none;stroke:#000000;stroke-width:0.264583"
       d="M 94.131606,181.6898 H 90.131608"
       id="path920" /><path
       style="fill:none;stroke:#000000;stroke-width:0.264583"
       d="M 63.381599,159.44099 H 74.881607"
       id="path922" /><path
       d="m 48.131603,151.69049 a 1.9999999,1.9999999 0 0 0 2,-2.00001"
       style="fill:none;stroke:#000000;stroke-width:0.264583"
       id="path924" /><path
       d="m 88.131603,149.69048 a 1.9999999,1.9999999 0 0 0 2,2.00001"
       style="fill:none;stroke:#000000;stroke-width:0.264583"
       id="path926" /><path
       style="fill:none;stroke:#000000;stroke-width:0.264583"
       d="m 88.131597,145.69059 v 4.0005"
       id="path928" /><path
       style="fill:none;stroke:#000000;stroke-width:0.264583"
       d="m 94.131606,145.69059 v 6.00075"
       id="path930" /><path
       style="fill:none;stroke:#000000;stroke-width:0.264583"
       d="M 94.131606,151.69134 H 90.131608"
       id="path932" /><path
       style="fill:none;stroke:#000000;stroke-width:0.264583"
       d="M 94.131606,145.69059 H 88.131597"
       id="path934" /><path
       d="m 48.131603,184.69049 a 1.0000001,1.0000001 0 0 0 -2,0 1.0000001,1.0000001 0 0 0 2,0 z"
       style="fill:none;stroke:#000000;stroke-width:0.264583"
       id="path936" /><path
       d="m 88.131603,149.69048 a 1.9999999,1.9999999 0 0 0 2,2.00001"
       style="fill:none;stroke:#000000;stroke-width:0.264583"
       id="path938" /><path
       d="m 64.131603,196.69048 a 0.50000005,0.50000005 0 0 0 -1,0 0.50000005,0.50000005 0 0 0 1,0 z"
       style="fill:none;stroke:#000000;stroke-width:0.264583"
       id="path940" /><path
       d="m 48.131603,151.69049 a 1.9999999,1.9999999 0 0 0 2,-2.00001"
       style="fill:none;stroke:#000000;stroke-width:0.264583"
       id="path942" /><path
       style="fill:none;stroke:#000000;stroke-width:0.264583"
       d="m 44.1316,145.69059 v 6.00075"
       id="path944" /><path
       style="fill:none;stroke:#000000;stroke-width:0.264583"
       d="m 88.131597,145.69059 v 4.0005"
       id="path946" /><path
       style="fill:none;stroke:#000000;stroke-width:0.264583"
       d="m 44.1316,145.69059 h 6.000009"
       id="path948" /><path
       style="fill:none;stroke:#000000;stroke-width:0.264583"
       d="M 94.131606,151.69134 H 90.131608"
       id="path950" /><path
       style="fill:none;stroke:#000000;stroke-width:0.264583"
       d="m 44.1316,151.69134 h 3.999998"
       id="path952" /><path
       style="fill:none;stroke:#000000;stroke-width:0.264583"
       d="m 94.131606,145.69059 v 6.00075"
       id="path954" /><path
       style="fill:none;stroke:#000000;stroke-width:0.264583"
       d="m 50.131609,145.69059 v 4.0005"
       id="path956" /><path
       style="fill:none;stroke:#000000;stroke-width:0.264583"
       d="M 44.1316,187.69055 V 181.6898"
       id="path958" /><path
       style="fill:none;stroke:#000000;stroke-width:0.264583"
       d="M 74.881607,147.93955 H 63.381599"
       id="path962" /><path
       d="m 90.131603,197.69048 a 1.9999999,1.9999999 0 0 0 -2,2.00001"
       style="fill:none;stroke:#000000;stroke-width:0.264583"
       id="path964" /><path
       d="m 90.131603,197.69048 a 1.9999999,1.9999999 0 0 0 -2,2.00001"
       style="fill:none;stroke:#000000;stroke-width:0.264583"
       id="path966" /><path
       style="fill:none;stroke:#000000;stroke-width:0.264583"
       d="M 94.131606,203.6899 H 88.131597"
       id="path968" /><path
       style="fill:none;stroke:#000000;stroke-width:0.264583"
       d="m 94.131606,203.6899 v -5.9981"
       id="path970" /><path
       style="fill:none;stroke:#000000;stroke-width:0.264583"
       d="m 88.131597,203.6899 v -4.0005"
       id="path972" /><path
       style="fill:none;stroke:#000000;stroke-width:0.264583"
       d="M 94.131606,197.6918 H 90.131608"
       id="path974" /><path
       style="fill:none;stroke:#000000;stroke-width:0.264583"
       d="M 94.131606,203.6899 H 88.131597"
       id="path978" /><path
       style="fill:none;stroke:#000000;stroke-width:0.264583"
       d="M 94.131606,197.6918 H 90.131608"
       id="path982" /><path
       style="fill:none;stroke:#000000;stroke-width:0.264583"
       d="m 94.131606,203.6899 v -5.9981"
       id="path986" /><path
       d="m 50.131603,183.6905 a 1.9999999,1.9999999 0 0 0 -2,-2.00001"
       style="fill:none;stroke:#000000;stroke-width:0.264583"
       id="path988" /><path
       style="fill:none;stroke:#000000;stroke-width:0.264583"
       d="m 81.131595,193.6913 h 6.000009"
       id="path990" /><path
       d="m 50.131603,183.6905 a 1.9999999,1.9999999 0 0 0 -2,-2.00001"
       style="fill:none;stroke:#000000;stroke-width:0.264583"
       id="path992" /><path
       style="fill:none;stroke:#000000;stroke-width:0.264583"
       d="m 81.131595,199.6894 h 6.000009"
       id="path994" /><path
       style="fill:none;stroke:#000000;stroke-width:0.264583"
       d="m 44.1316,181.6898 h 3.999998"
       id="path996" /><path
       style="fill:none;stroke:#000000;stroke-width:0.264583"
       d="m 67.381604,193.43994 v 6.50082"
       id="path998" /><path
       style="fill:none;stroke:#000000;stroke-width:0.264583"
       d="m 81.131595,193.6913 v 5.9981"
       id="path1000" /><g
       inkscape:label="ModelSketch_Point"
       id="g1004"
       transform="matrix(0.26458333,0,0,0.26458333,69.131603,-130.30951)" /><g
       inkscape:label="ModelSketch_Construction"
       id="g1006"
       transform="matrix(0.26458333,0,0,0.26458333,69.131603,-130.30951)" /><g
       inkscape:label="HIDDEN_BASE_VIEW"
       id="g1008"
       transform="matrix(0.26458333,0,0,0.26458333,69.131603,-130.30951)" /><g
       inkscape:label="TANGENT_LINES"
       id="g1010"
       transform="matrix(0.26458333,0,0,0.26458333,69.131603,-130.30951)" /><g
       inkscape:label="TANGENT_HIDDEN"
       id="g1012"
       transform="matrix(0.26458333,0,0,0.26458333,69.131603,-130.30951)" /><g
       inkscape:label="INVISIBLE_LINES"
       id="g1014"
       transform="matrix(0.26458333,0,0,0.26458333,69.131603,-130.30951)" /><g
       inkscape:label="VIEW_HATCHES"
       id="g1016"
       transform="matrix(0.26458333,0,0,0.26458333,69.131603,-130.30951)" /><g
       inkscape:label="SECTION_JOG_LINES"
       id="g1018"
       transform="matrix(0.26458333,0,0,0.26458333,69.131603,-130.30951)" /></g></svg>
