<?xml version="1.0" encoding="UTF-8" standalone="no"?>
<svg
   viewBox="0 0 215.59129 275.45011"
   width="215.59129"
   height="275.4501"
   version="1.1"
   id="svg4996"
   sodipodi:docname="monitor_control_button_layout_2.svg"
   inkscape:version="1.2 (dc2aedaf03, 2022-05-15)"
   xmlns:inkscape="http://www.inkscape.org/namespaces/inkscape"
   xmlns:sodipodi="http://sodipodi.sourceforge.net/DTD/sodipodi-0.dtd"
   xmlns="http://www.w3.org/2000/svg"
   xmlns:svg="http://www.w3.org/2000/svg">
  <sodipodi:namedview
     id="namedview4998"
     pagecolor="#ffffff"
     bordercolor="#666666"
     borderopacity="1.0"
     inkscape:showpageshadow="2"
     inkscape:pageopacity="0.0"
     inkscape:pagecheckerboard="0"
     inkscape:deskcolor="#d1d1d1"
     showgrid="false"
     inkscape:zoom="0.64693626"
     inkscape:cx="-51.782536"
     inkscape:cy="792.96838"
     inkscape:window-width="3440"
     inkscape:window-height="1351"
     inkscape:window-x="-9"
     inkscape:window-y="-9"
     inkscape:window-maximized="1"
     inkscape:current-layer="g4994" />
  <desc
     id="desc4684">monitor_control_button_layout_2.dxf - scale = 1.000000, origin = (0.000000, 0.000000), method = manual</desc>
  <defs
     id="defs4696">
    <marker
       id="DistanceX"
       orient="auto"
       refX="0"
       refY="0"
       style="overflow:visible">
      <path
         d="M 3,-3 -3,3 M 0,-5 V 5"
         style="stroke:#000000;stroke-width:0.5"
         id="path4686" />
    </marker>
    <pattern
       id="Hatch"
       patternUnits="userSpaceOnUse"
       width="8"
       height="8"
       x="0"
       y="0">
      <path
         d="M8 4 l-4,4"
         stroke="#000000"
         stroke-width="0.25"
         linecap="square"
         id="path4689" />
      <path
         d="M6 2 l-4,4"
         stroke="#000000"
         stroke-width="0.25"
         linecap="square"
         id="path4691" />
      <path
         d="M4 0 l-4,4"
         stroke="#000000"
         stroke-width="0.25"
         linecap="square"
         id="path4693" />
    </pattern>
  </defs>
  <g
     inkscape:groupmode="layer"
     inkscape:label="0"
     id="g4698" />
  <g
     inkscape:groupmode="layer"
     inkscape:label="Layer 1"
     id="g4710" />
  <g
     inkscape:groupmode="layer"
     inkscape:label="ModelSketch_Visible"
     id="g4994">
    <path
       style="fill:none;stroke:#000000"
       d="m 200.50994,35.304478 h -15.118"
       id="path4712" />
    <path
       style="fill:none;stroke:#000000"
       d="m 174.05294,209.16148 v 22.67"
       id="path4714" />
    <path
       style="fill:none;stroke:#000000"
       d="m 200.50994,12.624478 v 22.68"
       id="path4716" />
    <path
       style="fill:none;stroke:#000000"
       d="m 151.37594,209.16148 v 22.67"
       id="path4718" />
    <path
       style="fill:none;stroke:#000000"
       d="m 177.83294,12.624478 v 15.12"
       id="path4720" />
    <path
       style="fill:none;stroke:#000000"
       d="m 151.37594,231.83148 h 22.677"
       id="path4722" />
    <path
       style="fill:none;stroke:#000000"
       d="m 177.83294,27.743478 0.575,2.893"
       id="path4724" />
    <path
       style="fill:none;stroke:#000000"
       d="m 178.40794,30.636478 1.639,2.452"
       id="path4726" />
    <path
       style="fill:none;stroke:#000000"
       d="m 180.04694,33.088478 2.452,1.639"
       id="path4728" />
    <path
       style="fill:none;stroke:#000000"
       d="m 182.49894,34.727478 2.893,0.575"
       id="path4730" />
    <path
       style="fill:none;stroke:#000000"
       d="m 151.37594,209.16148 h 22.677"
       id="path4732" />
    <path
       style="fill:none;stroke:#000000"
       d="m 26.651741,35.302478 2.8927,-0.575"
       id="path4734" />
    <path
       style="fill:none;stroke:#000000"
       d="m 29.544441,34.727478 2.4521,-1.639"
       id="path4736" />
    <path
       style="fill:none;stroke:#000000"
       d="m 31.996541,33.088478 1.6388,-2.452"
       id="path4738" />
    <path
       style="fill:none;stroke:#000000"
       d="m 33.635341,30.636478 0.5753,-2.893"
       id="path4740" />
    <path
       style="fill:none;stroke:#000000"
       d="m 34.210641,258.29148 v -15.12"
       id="path4742" />
    <path
       style="fill:none;stroke:#000000"
       d="m 34.210641,12.624478 v 15.12"
       id="path4744" />
    <path
       style="fill:none;stroke:#000000"
       d="m 11.533641,258.29148 h 22.677"
       id="path4746" />
    <path
       style="fill:none;stroke:#000000"
       d="m 11.533641,12.624478 v 22.68"
       id="path4748" />
    <path
       style="fill:none;stroke:#000000"
       d="m 11.533641,258.29148 v -22.68"
       id="path4750" />
    <path
       style="fill:none;stroke:#000000"
       d="m 11.533641,35.304478 h 15.118"
       id="path4752" />
    <path
       style="fill:none;stroke:#000000"
       d="m 11.533641,235.61148 h 15.118"
       id="path4754" />
    <path
       style="fill:none;stroke:#000000"
       d="m 11.533641,12.624478 h 22.677"
       id="path4756" />
    <path
       style="fill:none;stroke:#000000"
       d="m 11.533641,235.61148 h 15.118"
       id="path4758" />
    <path
       style="fill:none;stroke:#000000"
       d="m 127.75394,133.09448 v 43.467"
       id="path4760" />
    <path
       style="fill:none;stroke:#000000"
       d="m 11.533641,258.29148 h 22.677"
       id="path4762" />
    <path
       style="fill:none;stroke:#000000"
       d="m 84.289341,133.09448 v 43.467"
       id="path4764" />
    <path
       style="fill:none;stroke:#000000"
       d="m 11.533641,258.29148 v -22.68"
       id="path4766" />
    <path
       style="fill:none;stroke:#000000"
       d="m 34.210641,258.29148 v -15.12"
       id="path4768" />
    <path
       style="fill:none;stroke:#000000"
       d="M 84.289341,133.09448 H 127.75394"
       id="path4770" />
    <path
       style="fill:none;stroke:#000000"
       d="m 34.210641,243.18148 -0.5753,-2.9"
       id="path4772" />
    <path
       style="fill:none;stroke:#000000"
       d="m 33.635341,240.28148 -1.6388,-2.45"
       id="path4774" />
    <path
       style="fill:none;stroke:#000000"
       d="m 31.996541,237.83148 -2.4524,-1.64"
       id="path4776" />
    <path
       style="fill:none;stroke:#000000"
       d="m 29.544141,236.19148 -2.8927,-0.57"
       id="path4778" />
    <path
       style="fill:none;stroke:#000000"
       d="M 80.037341,85.383478 V 128.84448"
       id="path4780" />
    <path
       style="fill:none;stroke:#000000"
       d="m 34.210641,243.18148 -0.5753,-2.9"
       id="path4782" />
    <path
       style="fill:none;stroke:#000000"
       d="m 33.635341,240.28148 -1.6388,-2.45"
       id="path4784" />
    <path
       style="fill:none;stroke:#000000"
       d="m 31.996541,237.83148 -2.4524,-1.64"
       id="path4786" />
    <path
       style="fill:none;stroke:#000000"
       d="m 29.544141,236.19148 -2.8927,-0.57"
       id="path4788" />
    <path
       style="fill:none;stroke:#000000"
       d="M 36.572841,85.383478 V 128.84448"
       id="path4790" />
    <path
       style="fill:none;stroke:#000000"
       d="m 200.50994,258.29148 v -22.68"
       id="path4792" />
    <path
       style="fill:none;stroke:#000000"
       d="m 36.572841,128.84448 h 43.4645"
       id="path4794" />
    <path
       style="fill:none;stroke:#000000"
       d="m 177.83294,258.29148 v -15.12"
       id="path4796" />
    <path
       style="fill:none;stroke:#000000"
       d="M 127.75394,37.664478 H 84.289341"
       id="path4798" />
    <path
       style="fill:none;stroke:#000000"
       d="m 127.75394,81.134478 v -43.47"
       id="path4800" />
    <path
       style="fill:none;stroke:#000000"
       d="M 84.289341,176.56148 H 127.75394"
       id="path4802" />
    <path
       style="fill:none;stroke:#000000"
       d="m 192.95094,23.964478 -0.507,-1.89"
       id="path4804" />
    <path
       style="fill:none;stroke:#000000"
       d="m 192.44394,22.074478 -1.383,-1.383"
       id="path4806" />
    <path
       style="fill:none;stroke:#000000"
       d="m 191.06094,20.691478 -1.89,-0.507"
       id="path4808" />
    <path
       style="fill:none;stroke:#000000"
       d="m 189.17094,20.184478 -1.889,0.507"
       id="path4810" />
    <path
       style="fill:none;stroke:#000000"
       d="m 187.28194,20.691478 -1.384,1.383"
       id="path4812" />
    <path
       style="fill:none;stroke:#000000"
       d="m 185.89794,22.074478 -0.506,1.89"
       id="path4814" />
    <path
       style="fill:none;stroke:#000000"
       d="m 185.39194,23.964478 0.506,1.89"
       id="path4816" />
    <path
       style="fill:none;stroke:#000000"
       d="m 185.89794,25.854478 1.384,1.383"
       id="path4818" />
    <path
       style="fill:none;stroke:#000000"
       d="m 187.28194,27.237478 1.889,0.506"
       id="path4820" />
    <path
       style="fill:none;stroke:#000000"
       d="m 189.17094,27.743478 1.89,-0.506"
       id="path4822" />
    <path
       style="fill:none;stroke:#000000"
       d="m 191.06094,27.237478 1.383,-1.383"
       id="path4824" />
    <path
       style="fill:none;stroke:#000000"
       d="m 192.44394,25.854478 0.507,-1.89"
       id="path4826" />
    <path
       style="fill:none;stroke:#000000"
       d="m 192.95094,23.964478 v 0"
       id="path4828" />
    <path
       style="fill:none;stroke:#000000"
       d="m 34.210641,12.624478 v 15.12"
       id="path4830" />
    <path
       style="fill:none;stroke:#000000"
       d="m 84.289341,81.134478 v -43.47"
       id="path4832" />
    <path
       style="fill:none;stroke:#000000"
       d="m 200.50994,12.624478 v 22.68"
       id="path4834" />
    <path
       style="fill:none;stroke:#000000"
       d="M 84.289341,37.664478 H 127.75394"
       id="path4836" />
    <path
       style="fill:none;stroke:#000000"
       d="m 11.533641,35.304478 h 15.118"
       id="path4838" />
    <path
       style="fill:none;stroke:#000000"
       d="m 26.651741,246.96148 -0.5065,-1.89"
       id="path4840" />
    <path
       style="fill:none;stroke:#000000"
       d="m 26.145241,245.07148 -1.3833,-1.39"
       id="path4842" />
    <path
       style="fill:none;stroke:#000000"
       d="m 24.761941,243.68148 -1.8898,-0.5"
       id="path4844" />
    <path
       style="fill:none;stroke:#000000"
       d="m 22.872141,243.18148 -1.8897,0.5"
       id="path4846" />
    <path
       style="fill:none;stroke:#000000"
       d="m 20.982441,243.68148 -1.3834,1.39"
       id="path4848" />
    <path
       style="fill:none;stroke:#000000"
       d="m 19.599041,245.07148 -0.5064,1.89"
       id="path4850" />
    <path
       style="fill:none;stroke:#000000"
       d="m 19.092641,246.96148 0.5064,1.89"
       id="path4852" />
    <path
       style="fill:none;stroke:#000000"
       d="m 19.599041,248.85148 1.3834,1.38"
       id="path4854" />
    <path
       style="fill:none;stroke:#000000"
       d="m 20.982441,250.23148 1.8897,0.51"
       id="path4856" />
    <path
       style="fill:none;stroke:#000000"
       d="m 22.872141,250.74148 1.8898,-0.51"
       id="path4858" />
    <path
       style="fill:none;stroke:#000000"
       d="m 24.761941,250.23148 1.3833,-1.38"
       id="path4860" />
    <path
       style="fill:none;stroke:#000000"
       d="m 26.145241,248.85148 0.5065,-1.89"
       id="path4862" />
    <path
       style="fill:none;stroke:#000000"
       d="m 26.651741,246.96148 v 0"
       id="path4864" />
    <path
       style="fill:none;stroke:#000000"
       d="M 84.289341,81.134478 H 127.75394"
       id="path4866" />
    <path
       style="fill:none;stroke:#000000"
       d="m 200.50994,35.304478 h -15.118"
       id="path4868" />
    <path
       style="fill:none;stroke:#000000"
       d="m 11.533641,12.624478 h 22.677"
       id="path4870" />
    <path
       style="fill:none;stroke:#000000"
       d="m 177.83294,27.743478 0.575,2.893"
       id="path4872" />
    <path
       style="fill:none;stroke:#000000"
       d="m 178.40794,30.636478 1.639,2.452"
       id="path4874" />
    <path
       style="fill:none;stroke:#000000"
       d="m 180.04694,33.088478 2.452,1.639"
       id="path4876" />
    <path
       style="fill:none;stroke:#000000"
       d="m 182.49894,34.727478 2.893,0.575"
       id="path4878" />
    <path
       style="fill:none;stroke:#000000"
       d="m 200.50994,12.624478 h -22.677"
       id="path4880" />
    <path
       style="fill:none;stroke:#000000"
       d="m 26.651741,35.302478 2.8927,-0.575"
       id="path4882" />
    <path
       style="fill:none;stroke:#000000"
       d="m 29.544441,34.727478 2.4521,-1.639"
       id="path4884" />
    <path
       style="fill:none;stroke:#000000"
       d="m 31.996541,33.088478 1.6388,-2.452"
       id="path4886" />
    <path
       style="fill:none;stroke:#000000"
       d="m 33.635341,30.636478 0.5753,-2.893"
       id="path4888" />
    <path
       style="fill:none;stroke:#000000"
       d="m 11.533641,12.624478 v 22.68"
       id="path4890" />
    <path
       style="fill:none;stroke:#000000"
       d="m 177.83294,12.624478 v 15.12"
       id="path4892" />
    <path
       style="fill:none;stroke:#000000"
       d="m 200.50994,12.624478 h -22.677"
       id="path4894" />
    <path
       style="fill:none;stroke:#000000"
       d="m 132.00594,85.383478 h 43.465"
       id="path4896" />
    <path
       style="fill:none;stroke:#000000"
       d="m 185.39194,235.62148 -2.893,0.57"
       id="path4898" />
    <path
       style="fill:none;stroke:#000000"
       d="m 182.49894,236.19148 -2.452,1.64"
       id="path4900" />
    <path
       style="fill:none;stroke:#000000"
       d="m 180.04694,237.83148 -1.639,2.45"
       id="path4902" />
    <path
       style="fill:none;stroke:#000000"
       d="m 178.40794,240.28148 -0.575,2.9"
       id="path4904" />
    <path
       style="fill:none;stroke:#000000"
       d="m 132.00594,128.84448 h 43.465"
       id="path4906" />
    <path
       style="fill:none;stroke:#000000"
       d="m 185.39194,235.62148 -2.893,0.57"
       id="path4908" />
    <path
       style="fill:none;stroke:#000000"
       d="m 182.49894,236.19148 -2.452,1.64"
       id="path4910" />
    <path
       style="fill:none;stroke:#000000"
       d="m 180.04694,237.83148 -1.639,2.45"
       id="path4912" />
    <path
       style="fill:none;stroke:#000000"
       d="m 178.40794,240.28148 -0.575,2.9"
       id="path4914" />
    <path
       style="fill:none;stroke:#000000"
       d="M 132.00594,85.383478 V 128.84448"
       id="path4916" />
    <path
       style="fill:none;stroke:#000000"
       d="m 200.50994,258.29148 h -22.677"
       id="path4918" />
    <path
       style="fill:none;stroke:#000000"
       d="M 175.47094,85.383478 V 128.84448"
       id="path4920" />
    <path
       style="fill:none;stroke:#000000"
       d="m 200.50994,258.29148 v -22.68"
       id="path4922" />
    <path
       style="fill:none;stroke:#000000"
       d="M 84.289341,85.383478 H 127.75394"
       id="path4924" />
    <path
       style="fill:none;stroke:#000000"
       d="m 177.83294,258.29148 v -15.12"
       id="path4926" />
    <path
       style="fill:none;stroke:#000000"
       d="M 84.289341,128.84448 H 127.75394"
       id="path4928" />
    <path
       style="fill:none;stroke:#000000"
       d="m 200.50994,235.61148 h -15.118"
       id="path4930" />
    <path
       style="fill:none;stroke:#000000"
       d="M 84.289341,85.383478 V 128.84448"
       id="path4932" />
    <path
       style="fill:none;stroke:#000000"
       d="m 200.50994,258.29148 h -22.677"
       id="path4934" />
    <path
       style="fill:none;stroke:#000000"
       d="m 26.651741,23.964478 -0.5065,-1.89"
       id="path4936" />
    <path
       style="fill:none;stroke:#000000"
       d="m 26.145241,22.074478 -1.3833,-1.383"
       id="path4938" />
    <path
       style="fill:none;stroke:#000000"
       d="m 24.761941,20.691478 -1.8898,-0.507"
       id="path4940" />
    <path
       style="fill:none;stroke:#000000"
       d="m 22.872141,20.184478 -1.8897,0.507"
       id="path4942" />
    <path
       style="fill:none;stroke:#000000"
       d="m 20.982441,20.691478 -1.3834,1.383"
       id="path4944" />
    <path
       style="fill:none;stroke:#000000"
       d="m 19.599041,22.074478 -0.5064,1.89"
       id="path4946" />
    <path
       style="fill:none;stroke:#000000"
       d="m 19.092641,23.964478 0.5064,1.89"
       id="path4948" />
    <path
       style="fill:none;stroke:#000000"
       d="m 19.599041,25.854478 1.3834,1.383"
       id="path4950" />
    <path
       style="fill:none;stroke:#000000"
       d="m 20.982441,27.237478 1.8897,0.506"
       id="path4952" />
    <path
       style="fill:none;stroke:#000000"
       d="m 22.872141,27.743478 1.8898,-0.506"
       id="path4954" />
    <path
       style="fill:none;stroke:#000000"
       d="m 24.761941,27.237478 1.3833,-1.383"
       id="path4956" />
    <path
       style="fill:none;stroke:#000000"
       d="m 26.145241,25.854478 0.5065,-1.89"
       id="path4958" />
    <path
       style="fill:none;stroke:#000000"
       d="m 26.651741,23.964478 v 0"
       id="path4960" />
    <path
       style="fill:none;stroke:#000000"
       d="M 127.75394,85.383478 V 128.84448"
       id="path4962" />
    <path
       style="fill:none;stroke:#000000"
       d="m 36.572841,85.383478 h 43.4645"
       id="path4964" />
    <path
       style="fill:none;stroke:#000000"
       d="m 200.50994,235.61148 h -15.118"
       id="path4966" />
    <path
       style="fill:none;stroke:#000000"
       d="m 192.95094,246.96148 -0.507,-1.89"
       id="path4968" />
    <path
       style="fill:none;stroke:#000000"
       d="m 192.44394,245.07148 -1.383,-1.39"
       id="path4970" />
    <path
       style="fill:none;stroke:#000000"
       d="m 191.06094,243.68148 -1.89,-0.5"
       id="path4972" />
    <path
       style="fill:none;stroke:#000000"
       d="m 189.17094,243.18148 -1.889,0.5"
       id="path4974" />
    <path
       style="fill:none;stroke:#000000"
       d="m 187.28194,243.68148 -1.384,1.39"
       id="path4976" />
    <path
       style="fill:none;stroke:#000000"
       d="m 185.89794,245.07148 -0.506,1.89"
       id="path4978" />
    <path
       style="fill:none;stroke:#000000"
       d="m 185.39194,246.96148 0.506,1.89"
       id="path4980" />
    <path
       style="fill:none;stroke:#000000"
       d="m 185.89794,248.85148 1.384,1.38"
       id="path4982" />
    <path
       style="fill:none;stroke:#000000"
       d="m 187.28194,250.23148 1.889,0.51"
       id="path4984" />
    <path
       style="fill:none;stroke:#000000"
       d="m 189.17094,250.74148 1.89,-0.51"
       id="path4986" />
    <path
       style="fill:none;stroke:#000000"
       d="m 191.06094,250.23148 1.383,-1.38"
       id="path4988" />
    <path
       style="fill:none;stroke:#000000"
       d="m 192.44394,248.85148 0.507,-1.89"
       id="path4990" />
    <path
       style="fill:none;stroke:#000000"
       d="m 192.95094,246.96148 v 0"
       id="path4992" />
  </g>
</svg>
