<?xml version="1.0" encoding="UTF-8" standalone="no"?>
<!-- Created with Inkscape (http://www.inkscape.org/) -->

<svg
   width="50.264587mm"
   height="58.263893mm"
   viewBox="0 0 50.264587 58.263893"
   version="1.1"
   id="svg1201"
   xml:space="preserve"
   inkscape:version="1.2 (dc2aedaf03, 2022-05-15)"
   sodipodi:docname="monitor_osd_control_button-silk.svg"
   xmlns:inkscape="http://www.inkscape.org/namespaces/inkscape"
   xmlns:sodipodi="http://sodipodi.sourceforge.net/DTD/sodipodi-0.dtd"
   xmlns="http://www.w3.org/2000/svg"
   xmlns:svg="http://www.w3.org/2000/svg"><sodipodi:namedview
     id="namedview1203"
     pagecolor="#ffffff"
     bordercolor="#666666"
     borderopacity="1.0"
     inkscape:showpageshadow="2"
     inkscape:pageopacity="0.0"
     inkscape:pagecheckerboard="0"
     inkscape:deskcolor="#d1d1d1"
     inkscape:document-units="mm"
     showgrid="false"
     inkscape:zoom="1.2938725"
     inkscape:cx="-150.71037"
     inkscape:cy="253.11613"
     inkscape:window-width="3440"
     inkscape:window-height="1351"
     inkscape:window-x="-9"
     inkscape:window-y="-9"
     inkscape:window-maximized="1"
     inkscape:current-layer="layer1" /><defs
     id="defs1198"><marker
       id="DistanceX"
       orient="auto"
       refX="0"
       refY="0"
       style="overflow:visible"><path
         d="M 3,-3 -3,3 M 0,-5 V 5"
         style="stroke:#000000;stroke-width:0.5"
         id="path1324" /></marker><pattern
       id="Hatch"
       patternUnits="userSpaceOnUse"
       width="8"
       height="8"
       x="0"
       y="0"><path
         d="M8 4 l-4,4"
         stroke="#000000"
         stroke-width="0.25"
         linecap="square"
         id="path1327" /><path
         d="M6 2 l-4,4"
         stroke="#000000"
         stroke-width="0.25"
         linecap="square"
         id="path1329" /><path
         d="M4 0 l-4,4"
         stroke="#000000"
         stroke-width="0.25"
         linecap="square"
         id="path1331" /></pattern><symbol
       id="*Model_Space" /><symbol
       id="*Paper_Space" /><symbol
       id="*Paper_Space0" /></defs><g
     inkscape:label="Layer 1"
     inkscape:groupmode="layer"
     id="layer1"
     transform="translate(-2.6301259,-3.5467292)"><g
       id="g3266"><path
         style="fill:none;stroke:#000000;stroke-width:0.264583"
         d="M 52.762423,45.678978 V 39.678229"
         id="path1401" /><path
         d="m 48.76242,39.678916 a 1.9999999,1.9999999 0 0 0 -2,2.000012"
         style="fill:none;stroke:#000000;stroke-width:0.264583"
         id="path1405" /><path
         d="m 48.76242,39.678916 a 1.9999999,1.9999999 0 0 0 -2,2.000012"
         style="fill:none;stroke:#000000;stroke-width:0.264583"
         id="path1409" /><path
         style="fill:none;stroke:#000000;stroke-width:0.264583"
         d="M 2.7624174,39.678229 H 6.7624146"
         id="path1413" /><path
         style="fill:none;stroke:#000000;stroke-width:0.264583"
         d="M 8.7624265,45.678978 V 41.678479"
         id="path1417" /><path
         style="fill:none;stroke:#000000;stroke-width:0.264583"
         d="M 2.7624174,3.6790207 V 9.6797706"
         id="path1421" /><path
         style="fill:none;stroke:#000000;stroke-width:0.264583"
         d="M 2.7624174,45.678978 V 39.678229"
         id="path1425" /><path
         style="fill:none;stroke:#000000;stroke-width:0.264583"
         d="M 2.7624174,9.6797706 H 6.7624146"
         id="path1427" /><path
         d="m 50.76242,58.67891 a 1.0000001,1.0000001 0 0 0 -2,0 1.0000001,1.0000001 0 0 0 2,0 z"
         style="fill:none;stroke:#000000;stroke-width:0.264583"
         id="path1429" /><path
         style="fill:none;stroke:#000000;stroke-width:0.264583"
         d="M 33.512424,6.3036873 H 22.012416"
         id="path1431" /><path
         d="m 50.76242,6.6789194 a 1.0000001,1.0000001 0 0 0 -2,0 1.0000001,1.0000001 0 0 0 2,0 z"
         style="fill:none;stroke:#000000;stroke-width:0.264583"
         id="path1433" /><path
         style="fill:none;stroke:#000000;stroke-width:0.264583"
         d="M 33.512424,17.805125 V 6.3036873"
         id="path1435" /><path
         style="fill:none;stroke:#000000;stroke-width:0.264583"
         d="M 52.762423,39.678229 H 48.762425"
         id="path1437" /><path
         style="fill:none;stroke:#000000;stroke-width:0.264583"
         d="M 8.7624265,3.6790207 V 7.6795206"
         id="path1439" /><path
         style="fill:none;stroke:#000000;stroke-width:0.264583"
         d="M 22.012416,17.805125 V 6.3036873"
         id="path1441" /><path
         style="fill:none;stroke:#000000;stroke-width:0.264583"
         d="M 46.762414,45.678978 V 41.678479"
         id="path1443" /><path
         style="fill:none;stroke:#000000;stroke-width:0.264583"
         d="M 52.762423,3.6790207 V 9.6797706"
         id="path1445" /><path
         style="fill:none;stroke:#000000;stroke-width:0.264583"
         d="M 22.012416,6.3036873 H 33.512424"
         id="path1447" /><path
         style="fill:none;stroke:#000000;stroke-width:0.264583"
         d="M 46.762414,45.678978 V 41.678479"
         id="path1449" /><path
         style="fill:none;stroke:#000000;stroke-width:0.264583"
         d="M 2.7624174,9.6797706 H 6.7624146"
         id="path1451" /><path
         style="fill:none;stroke:#000000;stroke-width:0.264583"
         d="M 22.012416,17.805125 H 33.512424"
         id="path1453" /><path
         style="fill:none;stroke:#000000;stroke-width:0.264583"
         d="M 52.762423,39.678229 H 48.762425"
         id="path1455" /><path
         style="fill:none;stroke:#000000;stroke-width:0.264583"
         d="M 52.762423,9.6797706 H 48.762425"
         id="path1457" /><path
         style="fill:none;stroke:#000000;stroke-width:0.264583"
         d="M 2.7624174,3.6790207 H 8.7624265"
         id="path1459" /><path
         style="fill:none;stroke:#000000;stroke-width:0.264583"
         d="M 52.762423,3.6790207 H 46.762414"
         id="path1461" /><path
         style="fill:none;stroke:#000000;stroke-width:0.264583"
         d="M 46.762414,3.6790207 V 7.6795206"
         id="path1463" /><path
         style="fill:none;stroke:#000000;stroke-width:0.264583"
         d="M 2.7624174,3.6790207 V 9.6797706"
         id="path1465" /><path
         d="M 6.7624202,9.6789239 A 1.9999999,1.9999999 0 0 0 8.7624201,7.6789121"
         style="fill:none;stroke:#000000;stroke-width:0.264583"
         id="path1467" /><path
         d="m 46.76242,7.6789121 a 1.9999999,1.9999999 0 0 0 2,2.0000118"
         style="fill:none;stroke:#000000;stroke-width:0.264583"
         id="path1469" /><path
         style="fill:none;stroke:#000000;stroke-width:0.264583"
         d="M 52.762423,3.6790207 H 46.762414"
         id="path1471" /><path
         style="fill:none;stroke:#000000;stroke-width:0.264583"
         d="M 52.762423,9.6797706 H 48.762425"
         id="path1473" /><path
         style="fill:none;stroke:#000000;stroke-width:0.264583"
         d="M 52.762423,3.6790207 V 9.6797706"
         id="path1475" /><path
         style="fill:none;stroke:#000000;stroke-width:0.264583"
         d="M 52.762423,45.678978 H 46.762414"
         id="path1477" /><path
         style="fill:none;stroke:#000000;stroke-width:0.264583"
         d="M 34.637433,30.428395 H 46.137415"
         id="path1479" /><path
         d="M 6.7624202,9.6789239 A 1.9999999,1.9999999 0 0 0 8.7624201,7.6789121"
         style="fill:none;stroke:#000000;stroke-width:0.264583"
         id="path1481" /><path
         style="fill:none;stroke:#000000;stroke-width:0.264583"
         d="M 9.7624192,50.679603 H 34.762422"
         id="path1483" /><path
         style="fill:none;stroke:#000000;stroke-width:0.264583"
         d="M 34.637433,18.929604 V 30.428395"
         id="path1485" /><path
         style="fill:none;stroke:#000000;stroke-width:0.264583"
         d="M 9.7624192,58.677957 H 34.762422"
         id="path1487" /><path
         style="fill:none;stroke:#000000;stroke-width:0.264583"
         d="M 46.137415,18.929604 V 30.428395"
         id="path1489" /><path
         style="fill:none;stroke:#000000;stroke-width:0.264583"
         d="m 9.7624192,50.679603 v 7.998354"
         id="path1491" /><path
         style="fill:none;stroke:#000000;stroke-width:0.264583"
         d="M 22.012416,18.929604 H 33.512424"
         id="path1493" /><path
         style="fill:none;stroke:#000000;stroke-width:0.264583"
         d="M 52.762423,45.678978 V 39.678229"
         id="path1495" /><path
         style="fill:none;stroke:#000000;stroke-width:0.264583"
         d="M 34.637433,18.929604 H 46.137415"
         id="path1497" /><path
         style="fill:none;stroke:#000000;stroke-width:0.264583"
         d="M 46.762414,61.678332 V 57.677833"
         id="path1499" /><path
         d="m 48.76242,55.678905 a 1.9999999,1.9999999 0 0 0 -2,2.000012"
         style="fill:none;stroke:#000000;stroke-width:0.264583"
         id="path1501" /><path
         style="fill:none;stroke:#000000;stroke-width:0.264583"
         d="M 52.762423,45.678978 H 46.762414"
         id="path1503" /><path
         style="fill:none;stroke:#000000;stroke-width:0.264583"
         d="M 8.7624265,3.6790207 V 7.6795206"
         id="path1505" /><path
         d="m 46.76242,7.6789121 a 1.9999999,1.9999999 0 0 0 2,2.0000118"
         style="fill:none;stroke:#000000;stroke-width:0.264583"
         id="path1507" /><path
         d="m 6.7624202,42.678921 a 1.0000001,1.0000001 0 0 0 -1.9999999,0 1.0000001,1.0000001 0 0 0 1.9999999,0 z"
         style="fill:none;stroke:#000000;stroke-width:0.264583"
         id="path1509" /><path
         style="fill:none;stroke:#000000;stroke-width:0.264583"
         d="M 46.762414,3.6790207 V 7.6795206"
         id="path1511" /><path
         d="m 48.76242,55.678905 a 1.9999999,1.9999999 0 0 0 -2,2.000012"
         style="fill:none;stroke:#000000;stroke-width:0.264583"
         id="path1513" /><path
         style="fill:none;stroke:#000000;stroke-width:0.264583"
         d="M 52.762423,61.678332 H 46.762414"
         id="path1515" /><path
         style="fill:none;stroke:#000000;stroke-width:0.264583"
         d="M 52.762423,61.678332 V 55.680228"
         id="path1517" /><path
         style="fill:none;stroke:#000000;stroke-width:0.264583"
         d="M 22.012416,30.428395 H 33.512424"
         id="path1519" /><path
         style="fill:none;stroke:#000000;stroke-width:0.264583"
         d="M 52.762423,55.680228 H 48.762425"
         id="path1521" /><path
         style="fill:none;stroke:#000000;stroke-width:0.264583"
         d="M 22.012416,18.929604 V 30.428395"
         id="path1523" /><path
         style="fill:none;stroke:#000000;stroke-width:0.264583"
         d="M 52.762423,61.678332 H 46.762414"
         id="path1527" /><path
         d="m 6.7624202,6.6789194 a 1.0000001,1.0000001 0 0 0 -1.9999999,0 1.0000001,1.0000001 0 0 0 1.9999999,0 z"
         style="fill:none;stroke:#000000;stroke-width:0.264583"
         id="path1529" /><path
         style="fill:none;stroke:#000000;stroke-width:0.264583"
         d="M 33.512424,18.929604 V 30.428395"
         id="path1531" /><path
         style="fill:none;stroke:#000000;stroke-width:0.264583"
         d="M 52.762423,55.680228 H 48.762425"
         id="path1535" /><path
         style="fill:none;stroke:#000000;stroke-width:0.264583"
         d="M 9.3874252,18.929604 H 20.887407"
         id="path1537" /><path
         style="fill:none;stroke:#000000;stroke-width:0.264583"
         d="m 34.762422,50.679603 v 7.998354"
         id="path1539" /><path
         style="fill:none;stroke:#000000;stroke-width:0.264583"
         d="M 46.762414,61.678332 V 57.677833"
         id="path1541" /><path
         style="fill:none;stroke:#000000;stroke-width:0.264583"
         d="M 9.3874252,30.428395 H 20.887407"
         id="path1543" /><path
         style="fill:none;stroke:#000000;stroke-width:0.264583"
         d="M 52.762423,61.678332 V 55.680228"
         id="path1549" /><path
         style="fill:none;stroke:#000000;stroke-width:0.264583"
         d="M 9.3874252,18.929604 V 30.428395"
         id="path1551" /><path
         d="m 50.76242,42.678921 a 1.0000001,1.0000001 0 0 0 -2,0 1.0000001,1.0000001 0 0 0 2,0 z"
         style="fill:none;stroke:#000000;stroke-width:0.264583"
         id="path1553" /><path
         d="M 8.7624201,41.678928 A 1.9999999,1.9999999 0 0 0 6.7624202,39.678916"
         style="fill:none;stroke:#000000;stroke-width:0.264583"
         id="path1555" /><path
         style="fill:none;stroke:#000000;stroke-width:0.264583"
         d="m 39.762412,51.679728 h 6.000009"
         id="path1557" /><path
         style="fill:none;stroke:#000000;stroke-width:0.264583"
         d="M 20.887407,18.929604 V 30.428395"
         id="path1559" /><path
         d="M 8.7624201,41.678928 A 1.9999999,1.9999999 0 0 0 6.7624202,39.678916"
         style="fill:none;stroke:#000000;stroke-width:0.264583"
         id="path1561" /><path
         style="fill:none;stroke:#000000;stroke-width:0.264583"
         d="m 39.762412,57.677833 h 6.000009"
         id="path1563" /><path
         style="fill:none;stroke:#000000;stroke-width:0.264583"
         d="M 22.012416,31.552875 H 33.512424"
         id="path1565" /><path
         style="fill:none;stroke:#000000;stroke-width:0.264583"
         d="M 2.7624174,39.678229 H 6.7624146"
         id="path1567" /><path
         style="fill:none;stroke:#000000;stroke-width:0.264583"
         d="m 39.762412,51.679728 v 5.998105"
         id="path1569" /><path
         style="fill:none;stroke:#000000;stroke-width:0.264583"
         d="M 22.012416,43.054312 H 33.512424"
         id="path1571" /><path
         style="fill:none;stroke:#000000;stroke-width:0.264583"
         d="M 2.7624174,45.678978 V 39.678229"
         id="path1573" /><path
         style="fill:none;stroke:#000000;stroke-width:0.264583"
         d="m 45.762421,51.679728 v 5.998105"
         id="path1575" /><path
         style="fill:none;stroke:#000000;stroke-width:0.264583"
         d="M 22.012416,31.552875 V 43.054312"
         id="path1577" /><path
         style="fill:none;stroke:#000000;stroke-width:0.264583"
         d="M 2.7624174,45.678978 H 8.7624265"
         id="path1579" /><path
         style="fill:none;stroke:#000000;stroke-width:0.264583"
         d="M 33.512424,31.552875 V 43.054312"
         id="path1581" /><path
         style="fill:none;stroke:#000000;stroke-width:0.264583"
         d="M 8.7624265,45.678978 V 41.678479"
         id="path1583" /><path
         style="fill:none;stroke:#000000;stroke-width:0.264583"
         d="M 2.7624174,3.6790207 H 8.7624265"
         id="path1585" /><path
         style="fill:none;stroke:#000000;stroke-width:0.264583"
         d="M 2.7624174,45.678978 H 8.7624265"
         id="path1587" /></g></g></svg>
