<?xml version="1.0" encoding="UTF-8" standalone="no"?>
<!-- Created with Inkscape (http://www.inkscape.org/) -->

<svg
   width="50.264587mm"
   height="58.263893mm"
   viewBox="0 0 50.264587 58.263893"
   version="1.1"
   id="svg5"
   xml:space="preserve"
   inkscape:version="1.2 (dc2aedaf03, 2022-05-15)"
   sodipodi:docname="monitor_osd_control_button-cut_layer.svg"
   xmlns:inkscape="http://www.inkscape.org/namespaces/inkscape"
   xmlns:sodipodi="http://sodipodi.sourceforge.net/DTD/sodipodi-0.dtd"
   xmlns="http://www.w3.org/2000/svg"
   xmlns:svg="http://www.w3.org/2000/svg"><sodipodi:namedview
     id="namedview7"
     pagecolor="#ffffff"
     bordercolor="#666666"
     borderopacity="1.0"
     inkscape:showpageshadow="2"
     inkscape:pageopacity="0.0"
     inkscape:pagecheckerboard="0"
     inkscape:deskcolor="#d1d1d1"
     inkscape:document-units="mm"
     showgrid="false"
     inkscape:zoom="3.659624"
     inkscape:cx="69.952542"
     inkscape:cy="110.80373"
     inkscape:window-width="3440"
     inkscape:window-height="1351"
     inkscape:window-x="-9"
     inkscape:window-y="-9"
     inkscape:window-maximized="1"
     inkscape:current-layer="layer1" /><defs
     id="defs2"><marker
       id="DistanceX"
       orient="auto"
       refX="0"
       refY="0"
       style="overflow:visible"><path
         d="M 3,-3 -3,3 M 0,-5 V 5"
         style="stroke:#000000;stroke-width:0.5"
         id="path134" /></marker><pattern
       id="Hatch"
       patternUnits="userSpaceOnUse"
       width="8"
       height="8"
       x="0"
       y="0"><path
         d="M8 4 l-4,4"
         stroke="#000000"
         stroke-width="0.25"
         linecap="square"
         id="path137" /><path
         d="M6 2 l-4,4"
         stroke="#000000"
         stroke-width="0.25"
         linecap="square"
         id="path139" /><path
         d="M4 0 l-4,4"
         stroke="#000000"
         stroke-width="0.25"
         linecap="square"
         id="path141" /></pattern><symbol
       id="*Model_Space" /><symbol
       id="*Paper_Space" /><symbol
       id="*Paper_Space0" /><marker
       id="DistanceX-7"
       orient="auto"
       refX="0"
       refY="0"
       style="overflow:visible"><path
         d="M 3,-3 -3,3 M 0,-5 V 5"
         style="stroke:#000000;stroke-width:0.5"
         id="path686" /></marker><pattern
       id="Hatch-8"
       patternUnits="userSpaceOnUse"
       width="8"
       height="8"
       x="0"
       y="0"><path
         d="M8 4 l-4,4"
         stroke="#000000"
         stroke-width="0.25"
         linecap="square"
         id="path689" /><path
         d="M6 2 l-4,4"
         stroke="#000000"
         stroke-width="0.25"
         linecap="square"
         id="path691" /><path
         d="M4 0 l-4,4"
         stroke="#000000"
         stroke-width="0.25"
         linecap="square"
         id="path693" /></pattern><symbol
       id="*Model_Space-7" /><symbol
       id="*Paper_Space-5" /><symbol
       id="*Paper_Space0-6" /></defs><g
     inkscape:label="Layer 1"
     inkscape:groupmode="layer"
     id="layer1"
     transform="translate(-2.5578229,-2.0284692)"><g
       inkscape:label="0"
       id="g149"
       transform="matrix(0.26458333,0,0,0.26458333,91.24002,-267.19997)" /><g
       inkscape:label="SECTION_CUTTING_LINE"
       id="g151"
       transform="matrix(0.26458333,0,0,0.26458333,91.24002,-267.19997)" /><g
       inkscape:label="DETAIL_VIEW_BORDER"
       id="g153"
       transform="matrix(0.26458333,0,0,0.26458333,91.24002,-267.19997)" /><g
       inkscape:label="DETAIL_VIEW_PARENT_BORDER"
       id="g155"
       transform="matrix(0.26458333,0,0,0.26458333,91.24002,-267.19997)" /><g
       inkscape:label="TEXT"
       id="g157"
       transform="matrix(0.26458333,0,0,0.26458333,91.24002,-267.19997)" /><g
       inkscape:label="SKETCHED_GEOMETRY"
       id="g159"
       transform="matrix(0.26458333,0,0,0.26458333,91.24002,-267.19997)" /><g
       inkscape:label="VIRTUAL_SHARPS"
       id="g161"
       transform="matrix(0.26458333,0,0,0.26458333,91.24002,-267.19997)" /><g
       inkscape:label="CENTERLINES"
       id="g163"
       transform="matrix(0.26458333,0,0,0.26458333,91.24002,-267.19997)" /><g
       inkscape:label="CENTERMARKS"
       id="g165"
       transform="matrix(0.26458333,0,0,0.26458333,91.24002,-267.19997)" /><g
       inkscape:label="TABLES"
       id="g167"
       transform="matrix(0.26458333,0,0,0.26458333,91.24002,-267.19997)" /><g
       inkscape:label="IMAGES"
       id="g169"
       transform="matrix(0.26458333,0,0,0.26458333,91.24002,-267.19997)" /><g
       inkscape:label="ANNOTATION_LINES"
       id="g171"
       transform="matrix(0.26458333,0,0,0.26458333,91.24002,-267.19997)" /><g
       inkscape:label="ANNOTATION_TEXT"
       id="g173"
       transform="matrix(0.26458333,0,0,0.26458333,91.24002,-267.19997)" /><g
       inkscape:label="SIDE_THREAD_SYMBOLS"
       id="g175"
       transform="matrix(0.26458333,0,0,0.26458333,91.24002,-267.19997)" /><g
       inkscape:label="SIDE_THREAD_SYMBOLS_HIDDEN"
       id="g177"
       transform="matrix(0.26458333,0,0,0.26458333,91.24002,-267.19997)" /><g
       inkscape:label="SURFACE_THREAD_SYMBOLS"
       id="g179"
       transform="matrix(0.26458333,0,0,0.26458333,91.24002,-267.19997)" /><g
       inkscape:label="SURFACE_THREAD_SYMBOLS_ON_AXIS"
       id="g181"
       transform="matrix(0.26458333,0,0,0.26458333,91.24002,-267.19997)" /><g
       inkscape:label="SURFACE_THREAD_SYMBOLS_HIDDEN"
       id="g183"
       transform="matrix(0.26458333,0,0,0.26458333,91.24002,-267.19997)" /><g
       inkscape:label="BLIND_THREAD_SYMBOLS"
       id="g185"
       transform="matrix(0.26458333,0,0,0.26458333,91.24002,-267.19997)" /><g
       inkscape:label="BLIND_THREAD_SYMBOLS_HIDDEN"
       id="g187"
       transform="matrix(0.26458333,0,0,0.26458333,91.24002,-267.19997)" /><g
       inkscape:label="EXPLODE_LINES"
       id="g189"
       transform="matrix(0.26458333,0,0,0.26458333,91.24002,-267.19997)" /><g
       inkscape:label="HIDDEN_EXPLODE_LINES"
       id="g191"
       transform="matrix(0.26458333,0,0,0.26458333,91.24002,-267.19997)" /><g
       inkscape:label="BREAK_LINES"
       id="g193"
       transform="matrix(0.26458333,0,0,0.26458333,91.24002,-267.19997)" /><g
       inkscape:label="SHEETMETAL_BEND_LINES_UP"
       id="g195"
       transform="matrix(0.26458333,0,0,0.26458333,91.24002,-267.19997)" /><g
       inkscape:label="SHEETMETAL_BEND_LINES_DOWN"
       id="g197"
       transform="matrix(0.26458333,0,0,0.26458333,91.24002,-267.19997)" /><g
       inkscape:label="SHEETMETAL_BEND_TANGENT_LINES"
       id="g199"
       transform="matrix(0.26458333,0,0,0.26458333,91.24002,-267.19997)" /><g
       inkscape:label="SHEETMETAL_CUT_LINES"
       id="g201"
       transform="matrix(0.26458333,0,0,0.26458333,91.24002,-267.19997)" /><g
       inkscape:label="REGION_ASSOC_POINTS"
       id="g203"
       transform="matrix(0.26458333,0,0,0.26458333,91.24002,-267.19997)" /><g
       inkscape:label="Hidden"
       id="g205"
       transform="matrix(0.26458333,0,0,0.26458333,91.24002,-267.19997)" /><g
       inkscape:label="Visible"
       id="g207"
       transform="matrix(0.26458333,0,0,0.26458333,91.24002,-267.19997)" /><g
       inkscape:label="ModelSketch_Point"
       id="g291"
       transform="matrix(0.26458333,0,0,0.26458333,91.24002,-267.19997)" /><g
       inkscape:label="ModelSketch_Construction"
       id="g293"
       transform="matrix(0.26458333,0,0,0.26458333,91.24002,-267.19997)" /><g
       inkscape:label="HIDDEN_BASE_VIEW"
       id="g295"
       transform="matrix(0.26458333,0,0,0.26458333,91.24002,-267.19997)" /><g
       inkscape:label="TANGENT_LINES"
       id="g297"
       transform="matrix(0.26458333,0,0,0.26458333,91.24002,-267.19997)" /><g
       inkscape:label="TANGENT_HIDDEN"
       id="g299"
       transform="matrix(0.26458333,0,0,0.26458333,91.24002,-267.19997)" /><g
       inkscape:label="INVISIBLE_LINES"
       id="g301"
       transform="matrix(0.26458333,0,0,0.26458333,91.24002,-267.19997)" /><g
       inkscape:label="VIEW_HATCHES"
       id="g303"
       transform="matrix(0.26458333,0,0,0.26458333,91.24002,-267.19997)" /><g
       inkscape:label="SECTION_JOG_LINES"
       id="g305"
       transform="matrix(0.26458333,0,0,0.26458333,91.24002,-267.19997)" /><g
       inkscape:label="0"
       id="g701"
       transform="matrix(0.26458333,0,0,0.26458333,27.690117,-273.83934)" /><g
       inkscape:label="SECTION_CUTTING_LINE"
       id="g703"
       transform="matrix(0.26458333,0,0,0.26458333,27.690117,-273.83934)" /><g
       inkscape:label="DETAIL_VIEW_BORDER"
       id="g705"
       transform="matrix(0.26458333,0,0,0.26458333,27.690117,-273.83934)" /><g
       inkscape:label="DETAIL_VIEW_PARENT_BORDER"
       id="g707"
       transform="matrix(0.26458333,0,0,0.26458333,27.690117,-273.83934)" /><g
       inkscape:label="TEXT"
       id="g709"
       transform="matrix(0.26458333,0,0,0.26458333,27.690117,-273.83934)" /><g
       inkscape:label="SKETCHED_GEOMETRY"
       id="g711"
       transform="matrix(0.26458333,0,0,0.26458333,27.690117,-273.83934)" /><g
       inkscape:label="VIRTUAL_SHARPS"
       id="g713"
       transform="matrix(0.26458333,0,0,0.26458333,27.690117,-273.83934)" /><g
       inkscape:label="CENTERLINES"
       id="g715"
       transform="matrix(0.26458333,0,0,0.26458333,27.690117,-273.83934)" /><g
       inkscape:label="CENTERMARKS"
       id="g717"
       transform="matrix(0.26458333,0,0,0.26458333,27.690117,-273.83934)" /><g
       inkscape:label="TABLES"
       id="g719"
       transform="matrix(0.26458333,0,0,0.26458333,27.690117,-273.83934)" /><g
       inkscape:label="IMAGES"
       id="g721"
       transform="matrix(0.26458333,0,0,0.26458333,27.690117,-273.83934)" /><g
       inkscape:label="ANNOTATION_LINES"
       id="g723"
       transform="matrix(0.26458333,0,0,0.26458333,27.690117,-273.83934)" /><g
       inkscape:label="ANNOTATION_TEXT"
       id="g725"
       transform="matrix(0.26458333,0,0,0.26458333,27.690117,-273.83934)" /><g
       inkscape:label="SIDE_THREAD_SYMBOLS"
       id="g727"
       transform="matrix(0.26458333,0,0,0.26458333,27.690117,-273.83934)" /><g
       inkscape:label="SIDE_THREAD_SYMBOLS_HIDDEN"
       id="g729"
       transform="matrix(0.26458333,0,0,0.26458333,27.690117,-273.83934)" /><g
       inkscape:label="SURFACE_THREAD_SYMBOLS"
       id="g731"
       transform="matrix(0.26458333,0,0,0.26458333,27.690117,-273.83934)" /><g
       inkscape:label="SURFACE_THREAD_SYMBOLS_ON_AXIS"
       id="g733"
       transform="matrix(0.26458333,0,0,0.26458333,27.690117,-273.83934)" /><g
       inkscape:label="SURFACE_THREAD_SYMBOLS_HIDDEN"
       id="g735"
       transform="matrix(0.26458333,0,0,0.26458333,27.690117,-273.83934)" /><g
       inkscape:label="BLIND_THREAD_SYMBOLS"
       id="g737"
       transform="matrix(0.26458333,0,0,0.26458333,27.690117,-273.83934)" /><g
       inkscape:label="BLIND_THREAD_SYMBOLS_HIDDEN"
       id="g739"
       transform="matrix(0.26458333,0,0,0.26458333,27.690117,-273.83934)" /><g
       inkscape:label="EXPLODE_LINES"
       id="g741"
       transform="matrix(0.26458333,0,0,0.26458333,27.690117,-273.83934)" /><g
       inkscape:label="HIDDEN_EXPLODE_LINES"
       id="g743"
       transform="matrix(0.26458333,0,0,0.26458333,27.690117,-273.83934)" /><g
       inkscape:label="BREAK_LINES"
       id="g745"
       transform="matrix(0.26458333,0,0,0.26458333,27.690117,-273.83934)" /><g
       inkscape:label="SHEETMETAL_BEND_LINES_UP"
       id="g747"
       transform="matrix(0.26458333,0,0,0.26458333,27.690117,-273.83934)" /><g
       inkscape:label="SHEETMETAL_BEND_LINES_DOWN"
       id="g749"
       transform="matrix(0.26458333,0,0,0.26458333,27.690117,-273.83934)" /><g
       inkscape:label="SHEETMETAL_BEND_TANGENT_LINES"
       id="g751"
       transform="matrix(0.26458333,0,0,0.26458333,27.690117,-273.83934)" /><g
       inkscape:label="SHEETMETAL_CUT_LINES"
       id="g753"
       transform="matrix(0.26458333,0,0,0.26458333,27.690117,-273.83934)" /><g
       inkscape:label="REGION_ASSOC_POINTS"
       id="g755"
       transform="matrix(0.26458333,0,0,0.26458333,27.690117,-273.83934)" /><g
       inkscape:label="Hidden"
       id="g757"
       transform="matrix(0.26458333,0,0,0.26458333,27.690117,-273.83934)" /><g
       inkscape:label="Visible"
       id="g759"
       transform="matrix(0.26458333,0,0,0.26458333,27.690117,-273.83934)" /><path
       d="m 50.690117,41.160661 a 1.0000001,1.0000001 0 0 0 -2,0 1.0000001,1.0000001 0 0 0 2,0 z"
       style="fill:none;stroke:#000000;stroke-width:0.264583"
       id="path769" /><path
       d="m 6.6901172,41.160661 a 1.0000001,1.0000001 0 0 0 -1.9999999,0 1.0000001,1.0000001 0 0 0 1.9999999,0 z"
       style="fill:none;stroke:#000000;stroke-width:0.264583"
       id="path771" /><path
       style="fill:none;stroke:#000000;stroke-width:0.264583"
       d="M 2.6901144,60.160072 V 2.1607607"
       id="path783" /><path
       style="fill:none;stroke:#000000;stroke-width:0.264583"
       d="M 2.6901144,60.160072 H 52.69012"
       id="path795" /><path
       d="m 43.190117,53.160653 a 0.50000005,0.50000005 0 0 0 -1,0 0.50000005,0.50000005 0 0 0 1,0 z"
       style="fill:none;stroke:#000000;stroke-width:0.264583"
       id="path797" /><path
       d="m 50.690117,57.16065 a 1.0000001,1.0000001 0 0 0 -2,0 1.0000001,1.0000001 0 0 0 2,0 z"
       style="fill:none;stroke:#000000;stroke-width:0.264583"
       id="path801" /><path
       d="m 50.690117,5.1606594 a 1.0000001,1.0000001 0 0 0 -2,0 1.0000001,1.0000001 0 0 0 2,0 z"
       style="fill:none;stroke:#000000;stroke-width:0.264583"
       id="path803" /><path
       d="m 6.6901172,5.1606594 a 1.0000001,1.0000001 0 0 0 -1.9999999,0 1.0000001,1.0000001 0 0 0 1.9999999,0 z"
       style="fill:none;stroke:#000000;stroke-width:0.264583"
       id="path805" /><path
       style="fill:none;stroke:#000000;stroke-width:0.264583"
       d="M 2.6901144,2.1607607 H 52.69012"
       id="path821" /><path
       style="fill:none;stroke:#000000;stroke-width:0.264583"
       d="M 52.69012,2.1607607 V 60.160072"
       id="path837" /><g
       inkscape:label="ModelSketch_Point"
       id="g843"
       transform="matrix(0.26458333,0,0,0.26458333,27.690117,-273.83934)" /><g
       inkscape:label="ModelSketch_Construction"
       id="g845"
       transform="matrix(0.26458333,0,0,0.26458333,27.690117,-273.83934)" /><g
       inkscape:label="HIDDEN_BASE_VIEW"
       id="g847"
       transform="matrix(0.26458333,0,0,0.26458333,27.690117,-273.83934)" /><g
       inkscape:label="TANGENT_LINES"
       id="g849"
       transform="matrix(0.26458333,0,0,0.26458333,27.690117,-273.83934)" /><g
       inkscape:label="TANGENT_HIDDEN"
       id="g851"
       transform="matrix(0.26458333,0,0,0.26458333,27.690117,-273.83934)" /><g
       inkscape:label="INVISIBLE_LINES"
       id="g853"
       transform="matrix(0.26458333,0,0,0.26458333,27.690117,-273.83934)" /><g
       inkscape:label="VIEW_HATCHES"
       id="g855"
       transform="matrix(0.26458333,0,0,0.26458333,27.690117,-273.83934)" /><g
       inkscape:label="SECTION_JOG_LINES"
       id="g857"
       transform="matrix(0.26458333,0,0,0.26458333,27.690117,-273.83934)" /></g></svg>
