<?xml version="1.0" encoding="UTF-8" standalone="no"?>
<svg
   viewBox="0 0 216.59234 272.70561"
   width="216.59235"
   height="272.7056"
   version="1.1"
   id="svg5387"
   sodipodi:docname="monitor_control_button_layout_0.svg"
   xml:space="preserve"
   inkscape:version="1.2 (dc2aedaf03, 2022-05-15)"
   xmlns:inkscape="http://www.inkscape.org/namespaces/inkscape"
   xmlns:sodipodi="http://sodipodi.sourceforge.net/DTD/sodipodi-0.dtd"
   xmlns="http://www.w3.org/2000/svg"
   xmlns:svg="http://www.w3.org/2000/svg"><sodipodi:namedview
     id="namedview5389"
     pagecolor="#ffffff"
     bordercolor="#666666"
     borderopacity="1.0"
     inkscape:showpageshadow="2"
     inkscape:pageopacity="0.0"
     inkscape:pagecheckerboard="0"
     inkscape:deskcolor="#d1d1d1"
     showgrid="false"
     inkscape:zoom="1.8298121"
     inkscape:cx="423.81402"
     inkscape:cy="71.592052"
     inkscape:window-width="3440"
     inkscape:window-height="1351"
     inkscape:window-x="-9"
     inkscape:window-y="-9"
     inkscape:window-maximized="1"
     inkscape:current-layer="g5369" /><desc
     id="desc5154">monitor_control_button_layout_0.dxf - scale = 1.000000, origin = (0.000000, 0.000000), method = manual</desc><defs
     id="defs5169"><marker
       id="DistanceX"
       orient="auto"
       refX="0"
       refY="0"
       style="overflow:visible"><path
         d="M 3,-3 -3,3 M 0,-5 V 5"
         style="stroke:#000000;stroke-width:0.5"
         id="path5156" /></marker><pattern
       id="Hatch"
       patternUnits="userSpaceOnUse"
       width="8"
       height="8"
       x="0"
       y="0"><path
         d="M8 4 l-4,4"
         stroke="#000000"
         stroke-width="0.25"
         linecap="square"
         id="path5159" /><path
         d="M6 2 l-4,4"
         stroke="#000000"
         stroke-width="0.25"
         linecap="square"
         id="path5161" /><path
         d="M4 0 l-4,4"
         stroke="#000000"
         stroke-width="0.25"
         linecap="square"
         id="path5163" /></pattern><symbol
       id="*Model_Space" /><symbol
       id="*Paper_Space" /><symbol
       id="*Paper_Space0" /><marker
       id="DistanceX-7"
       orient="auto"
       refX="0"
       refY="0"
       style="overflow:visible"><path
         d="M 3,-3 -3,3 M 0,-5 V 5"
         style="stroke:#000000;stroke-width:0.5"
         id="path5393" /></marker><pattern
       id="Hatch-5"
       patternUnits="userSpaceOnUse"
       width="8"
       height="8"
       x="0"
       y="0"><path
         d="M8 4 l-4,4"
         stroke="#000000"
         stroke-width="0.25"
         linecap="square"
         id="path5396" /><path
         d="M6 2 l-4,4"
         stroke="#000000"
         stroke-width="0.25"
         linecap="square"
         id="path5398" /><path
         d="M4 0 l-4,4"
         stroke="#000000"
         stroke-width="0.25"
         linecap="square"
         id="path5400" /></pattern><symbol
       id="*Model_Space-5" /><symbol
       id="*Paper_Space-9" /><symbol
       id="*Paper_Space0-2" /></defs><g
     inkscape:groupmode="layer"
     inkscape:label="0"
     id="g5171" /><g
     inkscape:groupmode="layer"
     inkscape:label="SECTION_CUTTING_LINE"
     id="g5173" /><g
     inkscape:groupmode="layer"
     inkscape:label="DETAIL_VIEW_BORDER"
     id="g5175" /><g
     inkscape:groupmode="layer"
     inkscape:label="DETAIL_VIEW_PARENT_BORDER"
     id="g5177" /><g
     inkscape:groupmode="layer"
     inkscape:label="TEXT"
     id="g5179" /><g
     inkscape:groupmode="layer"
     inkscape:label="SKETCHED_GEOMETRY"
     id="g5181" /><g
     inkscape:groupmode="layer"
     inkscape:label="VIRTUAL_SHARPS"
     id="g5183" /><g
     inkscape:groupmode="layer"
     inkscape:label="CENTERLINES"
     id="g5185" /><g
     inkscape:groupmode="layer"
     inkscape:label="CENTERMARKS"
     id="g5187" /><g
     inkscape:groupmode="layer"
     inkscape:label="TABLES"
     id="g5189" /><g
     inkscape:groupmode="layer"
     inkscape:label="IMAGES"
     id="g5191" /><g
     inkscape:groupmode="layer"
     inkscape:label="ANNOTATION_LINES"
     id="g5193" /><g
     inkscape:groupmode="layer"
     inkscape:label="ANNOTATION_TEXT"
     id="g5195" /><g
     inkscape:groupmode="layer"
     inkscape:label="SIDE_THREAD_SYMBOLS"
     id="g5197" /><g
     inkscape:groupmode="layer"
     inkscape:label="SIDE_THREAD_SYMBOLS_HIDDEN"
     id="g5199" /><g
     inkscape:groupmode="layer"
     inkscape:label="SURFACE_THREAD_SYMBOLS"
     id="g5201" /><g
     inkscape:groupmode="layer"
     inkscape:label="SURFACE_THREAD_SYMBOLS_ON_AXIS"
     id="g5203" /><g
     inkscape:groupmode="layer"
     inkscape:label="SURFACE_THREAD_SYMBOLS_HIDDEN"
     id="g5205" /><g
     inkscape:groupmode="layer"
     inkscape:label="BLIND_THREAD_SYMBOLS"
     id="g5207" /><g
     inkscape:groupmode="layer"
     inkscape:label="BLIND_THREAD_SYMBOLS_HIDDEN"
     id="g5209" /><g
     inkscape:groupmode="layer"
     inkscape:label="EXPLODE_LINES"
     id="g5211" /><g
     inkscape:groupmode="layer"
     inkscape:label="HIDDEN_EXPLODE_LINES"
     id="g5213" /><g
     inkscape:groupmode="layer"
     inkscape:label="BREAK_LINES"
     id="g5215" /><g
     inkscape:groupmode="layer"
     inkscape:label="SHEETMETAL_BEND_LINES_UP"
     id="g5217" /><g
     inkscape:groupmode="layer"
     inkscape:label="SHEETMETAL_BEND_LINES_DOWN"
     id="g5219" /><g
     inkscape:groupmode="layer"
     inkscape:label="SHEETMETAL_BEND_TANGENT_LINES"
     id="g5221" /><g
     inkscape:groupmode="layer"
     inkscape:label="SHEETMETAL_CUT_LINES"
     id="g5223" /><g
     inkscape:groupmode="layer"
     inkscape:label="REGION_ASSOC_POINTS"
     id="g5225" /><g
     inkscape:groupmode="layer"
     inkscape:label="Hidden"
     id="g5227" /><g
     inkscape:groupmode="layer"
     inkscape:label="Visible"
     id="g5229" /><g
     inkscape:groupmode="layer"
     inkscape:label="ModelSketch_Visible"
     id="g5369"><path
       style="fill:none;stroke:#000000"
       d="m 203.24254,36.398185 h -15.1181"
       id="path5231" /><path
       style="fill:none;stroke:#000000"
       d="m 176.78584,210.25818 v 22.67"
       id="path5233" /><path
       style="fill:none;stroke:#000000"
       d="m 203.24254,13.718185 v 22.68"
       id="path5235" /><path
       style="fill:none;stroke:#000000"
       d="m 154.10864,210.25818 v 22.67"
       id="path5237" /><path
       style="fill:none;stroke:#000000"
       d="m 180.56534,13.718185 v 15.12"
       id="path5239" /><path
       style="fill:none;stroke:#000000"
       d="m 154.10864,232.92818 h 22.6772"
       id="path5241" /><path
       d="m 180.56536,28.837785 a 7.559055,7.559055 0 0 0 7.55906,7.55906"
       style="fill:none;stroke:#000000"
       id="path5243" /><path
       style="fill:none;stroke:#000000"
       d="m 154.10864,210.25818 h 22.6772"
       id="path5245" /><path
       d="m 29.384257,36.396845 a 7.559055,7.559055 0 0 0 7.55906,-7.55906"
       style="fill:none;stroke:#000000"
       id="path5247" /><path
       style="fill:none;stroke:#000000"
       d="m 36.943337,259.38818 v -15.12"
       id="path5249" /><path
       style="fill:none;stroke:#000000"
       d="m 36.943337,13.718185 v 15.12"
       id="path5251" /><path
       style="fill:none;stroke:#000000"
       d="M 14.266138,259.38818 H 36.943337"
       id="path5253" /><path
       style="fill:none;stroke:#000000"
       d="m 14.266138,13.718185 v 22.68"
       id="path5255" /><path
       style="fill:none;stroke:#000000"
       d="m 14.266138,259.38818 v -22.68"
       id="path5257" /><path
       style="fill:none;stroke:#000000"
       d="M 14.266138,36.398185 H 29.384237"
       id="path5259" /><path
       style="fill:none;stroke:#000000"
       d="M 14.266138,236.70818 H 29.384237"
       id="path5261" /><path
       style="fill:none;stroke:#000000"
       d="M 14.266138,13.718185 H 36.943337"
       id="path5263" /><path
       style="fill:none;stroke:#000000"
       d="M 14.266138,236.70818 H 29.384237"
       id="path5265" /><path
       style="fill:none;stroke:#000000"
       d="m 130.48664,134.18818 v 43.47"
       id="path5267" /><path
       style="fill:none;stroke:#000000"
       d="M 14.266138,259.38818 H 36.943337"
       id="path5269" /><path
       style="fill:none;stroke:#000000"
       d="m 87.022038,134.18818 v 43.47"
       id="path5271" /><path
       style="fill:none;stroke:#000000"
       d="m 14.266138,259.38818 v -22.68"
       id="path5273" /><path
       style="fill:none;stroke:#000000"
       d="m 36.943337,259.38818 v -15.12"
       id="path5275" /><path
       style="fill:none;stroke:#000000"
       d="M 87.022038,134.18818 H 130.48664"
       id="path5277" /><path
       d="m 36.943317,244.27085 a 7.559055,7.559055 0 0 0 -7.55906,-7.55905"
       style="fill:none;stroke:#000000"
       id="path5279" /><path
       style="fill:none;stroke:#000000"
       d="M 82.770038,86.478181 V 129.93818"
       id="path5281" /><path
       d="m 36.943317,244.27085 a 7.559055,7.559055 0 0 0 -7.55906,-7.55905"
       style="fill:none;stroke:#000000"
       id="path5283" /><path
       style="fill:none;stroke:#000000"
       d="M 39.305537,86.478181 V 129.93818"
       id="path5285" /><path
       style="fill:none;stroke:#000000"
       d="m 203.24254,259.38818 v -22.68"
       id="path5287" /><path
       style="fill:none;stroke:#000000"
       d="M 39.305537,129.93818 H 82.770038"
       id="path5289" /><path
       style="fill:none;stroke:#000000"
       d="m 180.56534,259.38818 v -15.12"
       id="path5291" /><path
       style="fill:none;stroke:#000000"
       d="M 130.48664,38.758185 H 87.022038"
       id="path5293" /><path
       style="fill:none;stroke:#000000"
       d="M 130.48664,82.228181 V 38.758185"
       id="path5295" /><path
       style="fill:none;stroke:#000000"
       d="M 87.022038,177.65818 H 130.48664"
       id="path5297" /><path
       d="m 195.68347,25.058255 a 3.779528,3.779528 0 0 0 -7.55905,0 3.779528,3.779528 0 0 0 7.55905,0 z"
       style="fill:none;stroke:#000000"
       id="path5299" /><path
       style="fill:none;stroke:#000000"
       d="m 36.943337,13.718185 v 15.12"
       id="path5301" /><path
       style="fill:none;stroke:#000000"
       d="M 87.022038,82.228181 V 38.758185"
       id="path5303" /><path
       style="fill:none;stroke:#000000"
       d="m 203.24254,13.718185 v 22.68"
       id="path5305" /><path
       style="fill:none;stroke:#000000"
       d="M 87.022038,38.758185 H 130.48664"
       id="path5307" /><path
       style="fill:none;stroke:#000000"
       d="M 14.266138,36.398185 H 29.384237"
       id="path5309" /><path
       d="m 29.384257,248.05038 a 3.779528,3.779528 0 0 0 -7.559053,0 3.779528,3.779528 0 0 0 7.559053,0 z"
       style="fill:none;stroke:#000000"
       id="path5311" /><path
       style="fill:none;stroke:#000000"
       d="M 87.022038,82.228181 H 130.48664"
       id="path5313" /><path
       style="fill:none;stroke:#000000"
       d="m 203.24254,36.398185 h -15.1181"
       id="path5315" /><path
       style="fill:none;stroke:#000000"
       d="M 14.266138,13.718185 H 36.943337"
       id="path5317" /><path
       d="m 180.56536,28.837785 a 7.559055,7.559055 0 0 0 7.55906,7.55906"
       style="fill:none;stroke:#000000"
       id="path5319" /><path
       style="fill:none;stroke:#000000"
       d="m 203.24254,13.718185 h -22.6772"
       id="path5321" /><path
       d="m 29.384257,36.396845 a 7.559055,7.559055 0 0 0 7.55906,-7.55906"
       style="fill:none;stroke:#000000"
       id="path5323" /><path
       style="fill:none;stroke:#000000"
       d="m 14.266138,13.718185 v 22.68"
       id="path5325" /><path
       style="fill:none;stroke:#000000"
       d="m 180.56534,13.718185 v 15.12"
       id="path5327" /><path
       style="fill:none;stroke:#000000"
       d="m 203.24254,13.718185 h -22.6772"
       id="path5329" /><path
       style="fill:none;stroke:#000000"
       d="m 134.73864,86.478181 h 43.4645"
       id="path5331" /><path
       d="m 188.12442,236.7118 a 7.559055,7.559055 0 0 0 -7.55906,7.55905"
       style="fill:none;stroke:#000000"
       id="path5333" /><path
       style="fill:none;stroke:#000000"
       d="m 134.73864,129.93818 h 43.4645"
       id="path5335" /><path
       d="m 188.12442,236.7118 a 7.559055,7.559055 0 0 0 -7.55906,7.55905"
       style="fill:none;stroke:#000000"
       id="path5337" /><path
       style="fill:none;stroke:#000000"
       d="M 134.73864,86.478181 V 129.93818"
       id="path5339" /><path
       style="fill:none;stroke:#000000"
       d="m 203.24254,259.38818 h -22.6772"
       id="path5341" /><path
       style="fill:none;stroke:#000000"
       d="M 178.20314,86.478181 V 129.93818"
       id="path5343" /><path
       style="fill:none;stroke:#000000"
       d="m 203.24254,259.38818 v -22.68"
       id="path5345" /><path
       style="fill:none;stroke:#000000"
       d="M 87.022038,86.478181 H 130.48664"
       id="path5347" /><path
       style="fill:none;stroke:#000000"
       d="m 180.56534,259.38818 v -15.12"
       id="path5349" /><path
       style="fill:none;stroke:#000000"
       d="M 87.022038,129.93818 H 130.48664"
       id="path5351" /><path
       style="fill:none;stroke:#000000"
       d="m 203.24254,236.70818 h -15.1181"
       id="path5353" /><path
       style="fill:none;stroke:#000000"
       d="M 87.022038,86.478181 V 129.93818"
       id="path5355" /><path
       style="fill:none;stroke:#000000"
       d="m 203.24254,259.38818 h -22.6772"
       id="path5357" /><path
       d="m 29.384257,25.058255 a 3.779528,3.779528 0 0 0 -7.559053,0 3.779528,3.779528 0 0 0 7.559053,0 z"
       style="fill:none;stroke:#000000"
       id="path5359" /><path
       style="fill:none;stroke:#000000"
       d="M 130.48664,86.478181 V 129.93818"
       id="path5361" /><path
       style="fill:none;stroke:#000000"
       d="M 39.305537,86.478181 H 82.770038"
       id="path5363" /><path
       style="fill:none;stroke:#000000"
       d="m 203.24254,236.70818 h -15.1181"
       id="path5365" /><path
       d="m 195.68347,248.05038 a 3.779528,3.779528 0 0 0 -7.55905,0 3.779528,3.779528 0 0 0 7.55905,0 z"
       style="fill:none;stroke:#000000"
       id="path5367" /><g
       id="g5646"
       transform="translate(108.75438,-1014.2991)"><g
         inkscape:label="0"
         id="g5408" /><g
         inkscape:label="SECTION_CUTTING_LINE"
         id="g5410" /><g
         inkscape:label="DETAIL_VIEW_BORDER"
         id="g5412" /><g
         inkscape:label="DETAIL_VIEW_PARENT_BORDER"
         id="g5414" /><g
         inkscape:label="TEXT"
         id="g5416" /><g
         inkscape:label="SKETCHED_GEOMETRY"
         id="g5418" /><g
         inkscape:label="VIRTUAL_SHARPS"
         id="g5420" /><g
         inkscape:label="CENTERLINES"
         id="g5422" /><g
         inkscape:label="CENTERMARKS"
         id="g5424" /><g
         inkscape:label="TABLES"
         id="g5426" /><g
         inkscape:label="IMAGES"
         id="g5428" /><g
         inkscape:label="ANNOTATION_LINES"
         id="g5430" /><g
         inkscape:label="ANNOTATION_TEXT"
         id="g5432" /><g
         inkscape:label="SIDE_THREAD_SYMBOLS"
         id="g5434" /><g
         inkscape:label="SIDE_THREAD_SYMBOLS_HIDDEN"
         id="g5436" /><g
         inkscape:label="SURFACE_THREAD_SYMBOLS"
         id="g5438" /><g
         inkscape:label="SURFACE_THREAD_SYMBOLS_ON_AXIS"
         id="g5440" /><g
         inkscape:label="SURFACE_THREAD_SYMBOLS_HIDDEN"
         id="g5442" /><g
         inkscape:label="BLIND_THREAD_SYMBOLS"
         id="g5444" /><g
         inkscape:label="BLIND_THREAD_SYMBOLS_HIDDEN"
         id="g5446" /><g
         inkscape:label="EXPLODE_LINES"
         id="g5448" /><g
         inkscape:label="HIDDEN_EXPLODE_LINES"
         id="g5450" /><g
         inkscape:label="BREAK_LINES"
         id="g5452" /><g
         inkscape:label="SHEETMETAL_BEND_LINES_UP"
         id="g5454" /><g
         inkscape:label="SHEETMETAL_BEND_LINES_DOWN"
         id="g5456" /><g
         inkscape:label="SHEETMETAL_BEND_TANGENT_LINES"
         id="g5458" /><g
         inkscape:label="SHEETMETAL_CUT_LINES"
         id="g5460" /><g
         inkscape:label="REGION_ASSOC_POINTS"
         id="g5462" /><g
         inkscape:label="Hidden"
         id="g5464" /><g
         inkscape:label="Visible"
         id="g5466" /><g
         inkscape:label="ModelSketch_Visible"
         id="g5540"><path
           d="m 40.006299,1098.5197 a 1.889764,1.889764 0 0 0 -3.779527,0 1.889764,1.889764 0 0 0 3.779527,0 z"
           style="fill:none;stroke:#000000"
           id="path5468" /><path
           d="m 59.206299,1146.5197 a 1.889764,1.889764 0 0 0 -3.779527,0 1.889764,1.889764 0 0 0 3.779527,0 z"
           style="fill:none;stroke:#000000"
           id="path5470" /><path
           d="m 59.206299,1098.5197 a 1.889764,1.889764 0 0 0 -3.779527,0 1.889764,1.889764 0 0 0 3.779527,0 z"
           style="fill:none;stroke:#000000"
           id="path5472" /><path
           d="m 40.006299,1146.5197 a 1.889764,1.889764 0 0 0 -3.779527,0 1.889764,1.889764 0 0 0 3.779527,0 z"
           style="fill:none;stroke:#000000"
           id="path5474" /><path
           d="m 25.889764,1160.6362 a 1.889764,1.889764 0 0 0 -3.779528,0 1.889764,1.889764 0 0 0 3.779528,0 z"
           style="fill:none;stroke:#000000"
           id="path5476" /><path
           d="m -22.110236,1179.8362 a 1.889764,1.889764 0 0 0 -3.779528,0 1.889764,1.889764 0 0 0 3.779528,0 z"
           style="fill:none;stroke:#000000"
           id="path5478" /><path
           d="m 25.889764,1179.8362 a 1.889764,1.889764 0 0 0 -3.779528,0 1.889764,1.889764 0 0 0 3.779528,0 z"
           style="fill:none;stroke:#000000"
           id="path5480" /><path
           d="m -22.110236,1160.6362 a 1.889764,1.889764 0 0 0 -3.779528,0 1.889764,1.889764 0 0 0 3.779528,0 z"
           style="fill:none;stroke:#000000"
           id="path5482" /><path
           d="m -36.226772,1146.5197 a 1.889764,1.889764 0 0 0 -3.779527,0 1.889764,1.889764 0 0 0 3.779527,0 z"
           style="fill:none;stroke:#000000"
           id="path5484" /><path
           d="m -55.426772,1098.5197 a 1.889764,1.889764 0 0 0 -3.779527,0 1.889764,1.889764 0 0 0 3.779527,0 z"
           style="fill:none;stroke:#000000"
           id="path5486" /><path
           d="m -55.426772,1146.5197 a 1.889764,1.889764 0 0 0 -3.779527,0 1.889764,1.889764 0 0 0 3.779527,0 z"
           style="fill:none;stroke:#000000"
           id="path5488" /><path
           d="m -36.226772,1098.5197 a 1.889764,1.889764 0 0 0 -3.779527,0 1.889764,1.889764 0 0 0 3.779527,0 z"
           style="fill:none;stroke:#000000"
           id="path5490" /><path
           d="m -22.110236,1084.4032 a 1.889764,1.889764 0 0 0 -3.779528,0 1.889764,1.889764 0 0 0 3.779528,0 z"
           style="fill:none;stroke:#000000"
           id="path5492" /><path
           d="m -22.110236,1065.2032 a 1.889764,1.889764 0 0 0 -3.779528,0 1.889764,1.889764 0 0 0 3.779528,0 z"
           style="fill:none;stroke:#000000"
           id="path5494" /><path
           d="m 25.889764,1065.2032 a 1.889764,1.889764 0 0 0 -3.779528,0 1.889764,1.889764 0 0 0 3.779528,0 z"
           style="fill:none;stroke:#000000"
           id="path5496" /><path
           d="m 25.889764,1084.4032 a 1.889764,1.889764 0 0 0 -3.779528,0 1.889764,1.889764 0 0 0 3.779528,0 z"
           style="fill:none;stroke:#000000"
           id="path5498" /><path
           d="m 25.889764,1132.1197 a 1.889764,1.889764 0 0 0 -3.779528,0 1.889764,1.889764 0 0 0 3.779528,0 z"
           style="fill:none;stroke:#000000"
           id="path5500" /><path
           d="m 48.982677,1250.3055 a 1.889764,1.889764 0 0 0 -3.779527,0 1.889764,1.889764 0 0 0 3.779527,0 z"
           style="fill:none;stroke:#000000"
           id="path5502" /><path
           d="m 68.182677,1250.3055 a 1.889764,1.889764 0 0 0 -3.779527,0 1.889764,1.889764 0 0 0 3.779527,0 z"
           style="fill:none;stroke:#000000"
           id="path5504" /><path
           d="m 68.182677,1221.5055 a 1.889764,1.889764 0 0 0 -3.779527,0 1.889764,1.889764 0 0 0 3.779527,0 z"
           style="fill:none;stroke:#000000"
           id="path5506" /><path
           d="m 58.582677,1235.9055 a 1.889764,1.889764 0 0 0 -3.779527,0 1.889764,1.889764 0 0 0 3.779527,0 z"
           style="fill:none;stroke:#000000"
           id="path5508" /><path
           d="m -22.110236,1132.1197 a 1.889764,1.889764 0 0 0 -3.779528,0 1.889764,1.889764 0 0 0 3.779528,0 z"
           style="fill:none;stroke:#000000"
           id="path5510" /><path
           style="fill:none;stroke:#000000"
           d="M -94.4882,1028.03 H 94.4882"
           id="path5512" /><path
           d="m 48.982677,1221.5055 a 1.889764,1.889764 0 0 0 -3.779527,0 1.889764,1.889764 0 0 0 3.779527,0 z"
           style="fill:none;stroke:#000000"
           id="path5514" /><path
           d="m 1.889764,1122.5197 a 1.889764,1.889764 0 0 0 -3.779528,0 1.889764,1.889764 0 0 0 3.779528,0 z"
           style="fill:none;stroke:#000000"
           id="path5516" /><path
           d="m -22.110236,1112.9197 a 1.889764,1.889764 0 0 0 -3.779528,0 1.889764,1.889764 0 0 0 3.779528,0 z"
           style="fill:none;stroke:#000000"
           id="path5518" /><path
           d="m -79.370079,1262.3622 a 3.779528,3.779528 0 0 0 -7.559055,0 3.779528,3.779528 0 0 0 7.559055,0 z"
           style="fill:none;stroke:#000000"
           id="path5520" /><path
           style="fill:none;stroke:#000000"
           d="M -94.4882,1028.03 V 1273.7"
           id="path5522" /><path
           d="m 86.929134,1262.3622 a 3.779528,3.779528 0 0 0 -7.559055,0 3.779528,3.779528 0 0 0 7.559055,0 z"
           style="fill:none;stroke:#000000"
           id="path5524" /><path
           d="m -79.370079,1205.6693 a 3.779528,3.779528 0 0 0 -7.559055,0 3.779528,3.779528 0 0 0 7.559055,0 z"
           style="fill:none;stroke:#000000"
           id="path5526" /><path
           d="m 86.929134,1205.6693 a 3.779528,3.779528 0 0 0 -7.559055,0 3.779528,3.779528 0 0 0 7.559055,0 z"
           style="fill:none;stroke:#000000"
           id="path5528" /><path
           style="fill:none;stroke:#000000"
           d="M 94.4882,1028.03 V 1273.7"
           id="path5530" /><path
           d="m 86.929134,1039.3701 a 3.779528,3.779528 0 0 0 -7.559055,0 3.779528,3.779528 0 0 0 7.559055,0 z"
           style="fill:none;stroke:#000000"
           id="path5532" /><path
           style="fill:none;stroke:#000000"
           d="M 94.4882,1273.7 H -94.4882"
           id="path5534" /><path
           d="m -79.370079,1039.3701 a 3.779528,3.779528 0 0 0 -7.559055,0 3.779528,3.779528 0 0 0 7.559055,0 z"
           style="fill:none;stroke:#000000"
           id="path5536" /><path
           d="m 25.889764,1112.9197 a 1.889764,1.889764 0 0 0 -3.779528,0 1.889764,1.889764 0 0 0 3.779528,0 z"
           style="fill:none;stroke:#000000"
           id="path5538" /></g><g
         inkscape:label="ModelSketch_Point"
         id="g5542" /><g
         inkscape:label="ModelSketch_Construction"
         id="g5544" /><g
         inkscape:label="HIDDEN_BASE_VIEW"
         id="g5546" /><g
         inkscape:label="TANGENT_LINES"
         id="g5548" /><g
         inkscape:label="TANGENT_HIDDEN"
         id="g5550" /><g
         inkscape:label="INVISIBLE_LINES"
         id="g5552" /><g
         inkscape:label="VIEW_HATCHES"
         id="g5554" /><g
         inkscape:label="SECTION_JOG_LINES"
         id="g5556" /></g></g><g
     inkscape:groupmode="layer"
     inkscape:label="ModelSketch_Point"
     id="g5371" /><g
     inkscape:groupmode="layer"
     inkscape:label="ModelSketch_Construction"
     id="g5373" /><g
     inkscape:groupmode="layer"
     inkscape:label="HIDDEN_BASE_VIEW"
     id="g5375" /><g
     inkscape:groupmode="layer"
     inkscape:label="TANGENT_LINES"
     id="g5377" /><g
     inkscape:groupmode="layer"
     inkscape:label="TANGENT_HIDDEN"
     id="g5379" /><g
     inkscape:groupmode="layer"
     inkscape:label="INVISIBLE_LINES"
     id="g5381" /><g
     inkscape:groupmode="layer"
     inkscape:label="VIEW_HATCHES"
     id="g5383" /><g
     inkscape:groupmode="layer"
     inkscape:label="SECTION_JOG_LINES"
     id="g5385" /></svg>
