<?xml version="1.0" encoding="UTF-8" standalone="no"?>
<!-- Created with Inkscape (http://www.inkscape.org/) -->

<svg
   width="50.264587mm"
   height="58.263897mm"
   viewBox="0 0 50.264587 58.263897"
   version="1.1"
   id="svg5"
   xml:space="preserve"
   inkscape:version="1.2 (dc2aedaf03, 2022-05-15)"
   sodipodi:docname="그리기-1.svg"
   xmlns:inkscape="http://www.inkscape.org/namespaces/inkscape"
   xmlns:sodipodi="http://sodipodi.sourceforge.net/DTD/sodipodi-0.dtd"
   xmlns="http://www.w3.org/2000/svg"
   xmlns:svg="http://www.w3.org/2000/svg"><sodipodi:namedview
     id="namedview7"
     pagecolor="#ffffff"
     bordercolor="#666666"
     borderopacity="1.0"
     inkscape:showpageshadow="2"
     inkscape:pageopacity="0.0"
     inkscape:pagecheckerboard="0"
     inkscape:deskcolor="#d1d1d1"
     inkscape:document-units="mm"
     showgrid="false"
     inkscape:zoom="3.659624"
     inkscape:cx="122.1437"
     inkscape:cy="137.58244"
     inkscape:window-width="3440"
     inkscape:window-height="1351"
     inkscape:window-x="-9"
     inkscape:window-y="-9"
     inkscape:window-maximized="1"
     inkscape:current-layer="layer1" /><defs
     id="defs2"><marker
       id="DistanceX"
       orient="auto"
       refX="0"
       refY="0"
       style="overflow:visible"><path
         d="M 3,-3 -3,3 M 0,-5 V 5"
         style="stroke:#000000;stroke-width:0.5"
         id="path134" /></marker><pattern
       id="Hatch"
       patternUnits="userSpaceOnUse"
       width="8"
       height="8"
       x="0"
       y="0"><path
         d="M8 4 l-4,4"
         stroke="#000000"
         stroke-width="0.25"
         linecap="square"
         id="path137" /><path
         d="M6 2 l-4,4"
         stroke="#000000"
         stroke-width="0.25"
         linecap="square"
         id="path139" /><path
         d="M4 0 l-4,4"
         stroke="#000000"
         stroke-width="0.25"
         linecap="square"
         id="path141" /></pattern><symbol
       id="*Model_Space" /><symbol
       id="*Paper_Space" /><symbol
       id="*Paper_Space0" /></defs><g
     inkscape:label="Layer 1"
     inkscape:groupmode="layer"
     id="layer1"
     transform="translate(-302.81123,-92.906999)"><g
       id="g1079"><path
         style="fill:none;stroke:#000000;stroke-width:0.264583"
         d="M 352.94352,135.03925 V 129.0385"
         id="path211" /><path
         d="m 348.94352,129.03919 a 1.9999999,1.9999999 0 0 0 -2,2.00001"
         style="fill:none;stroke:#000000;stroke-width:0.264583"
         id="path215" /><path
         d="m 348.94352,129.03919 a 1.9999999,1.9999999 0 0 0 -2,2.00001"
         style="fill:none;stroke:#000000;stroke-width:0.264583"
         id="path219" /><path
         style="fill:none;stroke:#000000;stroke-width:0.264583"
         d="m 302.94352,129.0385 h 3.99999"
         id="path223" /><path
         style="fill:none;stroke:#000000;stroke-width:0.264583"
         d="m 308.94353,135.03925 v -4.0005"
         id="path227" /><path
         style="fill:none;stroke:#000000;stroke-width:0.264583"
         d="M 302.94352,135.03925 V 129.0385"
         id="path233" /><path
         d="m 350.94352,148.03918 a 1.0000001,1.0000001 0 0 0 -2,0 1.0000001,1.0000001 0 0 0 2,0 z"
         style="fill:none;stroke:#000000;stroke-width:0.264583"
         id="path235" /><path
         style="fill:none;stroke:#000000;stroke-width:0.264583"
         d="m 302.94352,135.03925 h 6.00001"
         id="path237" /><path
         d="m 350.94352,96.039189 a 1.0000001,1.0000001 0 0 0 -2,0 1.0000001,1.0000001 0 0 0 2,0 z"
         style="fill:none;stroke:#000000;stroke-width:0.264583"
         id="path239" /><path
         style="fill:none;stroke:#000000;stroke-width:0.264583"
         d="m 308.94353,135.03925 v -4.0005"
         id="path241" /><path
         style="fill:none;stroke:#000000;stroke-width:0.264583"
         d="m 302.94352,135.03925 h 6.00001"
         id="path243" /><path
         style="fill:none;stroke:#000000;stroke-width:0.264583"
         d="m 345.94352,141.04 v 5.9981"
         id="path245" /><path
         style="fill:none;stroke:#000000;stroke-width:0.264583"
         d="m 308.94353,93.039291 v 4.0005"
         id="path247" /><path
         style="fill:none;stroke:#000000;stroke-width:0.264583"
         d="m 302.94352,93.039291 h 6.00001"
         id="path249" /><path
         style="fill:none;stroke:#000000;stroke-width:0.264583"
         d="m 333.69352,120.91314 v 11.50144"
         id="path251" /><path
         style="fill:none;stroke:#000000;stroke-width:0.264583"
         d="m 322.19352,120.91314 v 11.50144"
         id="path253" /><path
         style="fill:none;stroke:#000000;stroke-width:0.264583"
         d="m 302.94352,99.040041 h 3.99999"
         id="path255" /><path
         style="fill:none;stroke:#000000;stroke-width:0.264583"
         d="m 302.94352,93.039291 v 6.00075"
         id="path257" /><path
         style="fill:none;stroke:#000000;stroke-width:0.264583"
         d="m 352.94352,135.03925 h -6.00001"
         id="path259" /><path
         style="fill:none;stroke:#000000;stroke-width:0.264583"
         d="m 309.56853,108.28987 v 11.4988"
         id="path261" /><path
         style="fill:none;stroke:#000000;stroke-width:0.264583"
         d="m 334.94352,140.03987 v 7.99836"
         id="path263" /><path
         style="fill:none;stroke:#000000;stroke-width:0.264583"
         d="m 322.19352,119.78867 h 11.5"
         id="path265" /><path
         d="m 306.94352,96.039189 a 1.0000001,1.0000001 0 0 0 -2,0 1.0000001,1.0000001 0 0 0 2,0 z"
         style="fill:none;stroke:#000000;stroke-width:0.264583"
         id="path267" /><path
         style="fill:none;stroke:#000000;stroke-width:0.264583"
         d="m 321.06851,108.28987 v 11.4988"
         id="path269" /><path
         style="fill:none;stroke:#000000;stroke-width:0.264583"
         d="m 318.69353,140.78864 h 7.49999"
         id="path271" /><path
         style="fill:none;stroke:#000000;stroke-width:0.264583"
         d="m 322.19352,108.28987 v 11.4988"
         id="path273" /><path
         style="fill:none;stroke:#000000;stroke-width:0.264583"
         d="m 322.19352,120.91314 h 11.5"
         id="path275" /><path
         style="fill:none;stroke:#000000;stroke-width:0.264583"
         d="m 318.69353,147.28946 h 7.49999"
         id="path277" /><path
         style="fill:none;stroke:#000000;stroke-width:0.264583"
         d="m 333.69352,108.28987 v 11.4988"
         id="path279" /><path
         style="fill:none;stroke:#000000;stroke-width:0.264583"
         d="m 322.19352,132.41458 h 11.5"
         id="path281" /><path
         style="fill:none;stroke:#000000;stroke-width:0.264583"
         d="m 318.69353,140.78864 v 6.50082"
         id="path283" /><path
         style="fill:none;stroke:#000000;stroke-width:0.264583"
         d="m 309.56853,108.28987 h 11.49998"
         id="path285" /><path
         style="fill:none;stroke:#000000;stroke-width:0.264583"
         d="m 309.94352,140.03987 h 25"
         id="path287" /><path
         style="fill:none;stroke:#000000;stroke-width:0.264583"
         d="m 334.81853,108.28987 v 11.4988"
         id="path289" /><path
         style="fill:none;stroke:#000000;stroke-width:0.264583"
         d="m 309.56853,119.78867 h 11.49998"
         id="path291" /><path
         style="fill:none;stroke:#000000;stroke-width:0.264583"
         d="m 309.94352,140.03987 v 7.99836"
         id="path293" /><path
         style="fill:none;stroke:#000000;stroke-width:0.264583"
         d="m 322.19352,108.28987 h 11.5"
         id="path295" /><path
         style="fill:none;stroke:#000000;stroke-width:0.264583"
         d="m 309.94352,148.03823 h 25"
         id="path297" /><path
         style="fill:none;stroke:#000000;stroke-width:0.264583"
         d="m 346.31851,108.28987 v 11.4988"
         id="path299" /><path
         d="m 350.94352,132.03919 a 1.0000001,1.0000001 0 0 0 -2,0 1.0000001,1.0000001 0 0 0 2,0 z"
         style="fill:none;stroke:#000000;stroke-width:0.264583"
         id="path301" /><path
         style="fill:none;stroke:#000000;stroke-width:0.264583"
         d="m 352.94352,93.039291 h -6.00001"
         id="path303" /><path
         style="fill:none;stroke:#000000;stroke-width:0.264583"
         d="m 346.94351,151.0386 v -4.0005"
         id="path305" /><path
         style="fill:none;stroke:#000000;stroke-width:0.264583"
         d="M 352.94352,135.03925 V 129.0385"
         id="path307" /><path
         style="fill:none;stroke:#000000;stroke-width:0.264583"
         d="m 334.81853,108.28987 h 11.49998"
         id="path309" /><path
         style="fill:none;stroke:#000000;stroke-width:0.264583"
         d="m 352.94352,135.03925 h -6.00001"
         id="path311" /><path
         style="fill:none;stroke:#000000;stroke-width:0.264583"
         d="m 334.81853,119.78867 h 11.49998"
         id="path313" /><path
         style="fill:none;stroke:#000000;stroke-width:0.264583"
         d="m 352.94352,129.0385 h -3.99999"
         id="path315" /><path
         style="fill:none;stroke:#000000;stroke-width:0.264583"
         d="M 333.69352,107.16539 V 95.663957"
         id="path317" /><path
         style="fill:none;stroke:#000000;stroke-width:0.264583"
         d="m 346.94351,135.03925 v -4.0005"
         id="path319" /><path
         style="fill:none;stroke:#000000;stroke-width:0.264583"
         d="M 322.19352,107.16539 V 95.663957"
         id="path321" /><path
         style="fill:none;stroke:#000000;stroke-width:0.264583"
         d="m 346.94351,135.03925 v -4.0005"
         id="path323" /><path
         style="fill:none;stroke:#000000;stroke-width:0.264583"
         d="m 322.19352,95.663957 h 11.5"
         id="path325" /><path
         style="fill:none;stroke:#000000;stroke-width:0.264583"
         d="m 352.94352,129.0385 h -3.99999"
         id="path327" /><path
         style="fill:none;stroke:#000000;stroke-width:0.264583"
         d="m 322.19352,107.16539 h 11.5"
         id="path329" /><path
         d="m 306.94352,99.039194 a 1.9999999,1.9999999 0 0 0 2,-2.000012"
         style="fill:none;stroke:#000000;stroke-width:0.264583"
         id="path331" /><path
         d="m 346.94352,97.039182 a 1.9999999,1.9999999 0 0 0 2,2.000012"
         style="fill:none;stroke:#000000;stroke-width:0.264583"
         id="path333" /><path
         style="fill:none;stroke:#000000;stroke-width:0.264583"
         d="m 346.94351,93.039291 v 4.0005"
         id="path335" /><path
         style="fill:none;stroke:#000000;stroke-width:0.264583"
         d="m 352.94352,93.039291 v 6.00075"
         id="path337" /><path
         style="fill:none;stroke:#000000;stroke-width:0.264583"
         d="m 352.94352,99.040041 h -3.99999"
         id="path339" /><path
         style="fill:none;stroke:#000000;stroke-width:0.264583"
         d="m 352.94352,93.039291 h -6.00001"
         id="path341" /><path
         d="m 306.94352,132.03919 a 1.0000001,1.0000001 0 0 0 -2,0 1.0000001,1.0000001 0 0 0 2,0 z"
         style="fill:none;stroke:#000000;stroke-width:0.264583"
         id="path343" /><path
         d="m 346.94352,97.039182 a 1.9999999,1.9999999 0 0 0 2,2.000012"
         style="fill:none;stroke:#000000;stroke-width:0.264583"
         id="path345" /><path
         d="m 322.94352,144.03918 a 0.50000005,0.50000005 0 0 0 -1,0 0.50000005,0.50000005 0 0 0 1,0 z"
         style="fill:none;stroke:#000000;stroke-width:0.264583"
         id="path347" /><path
         d="m 306.94352,99.039194 a 1.9999999,1.9999999 0 0 0 2,-2.000012"
         style="fill:none;stroke:#000000;stroke-width:0.264583"
         id="path349" /><path
         style="fill:none;stroke:#000000;stroke-width:0.264583"
         d="m 302.94352,93.039291 v 6.00075"
         id="path351" /><path
         style="fill:none;stroke:#000000;stroke-width:0.264583"
         d="m 346.94351,93.039291 v 4.0005"
         id="path353" /><path
         style="fill:none;stroke:#000000;stroke-width:0.264583"
         d="m 302.94352,93.039291 h 6.00001"
         id="path355" /><path
         style="fill:none;stroke:#000000;stroke-width:0.264583"
         d="m 352.94352,99.040041 h -3.99999"
         id="path357" /><path
         style="fill:none;stroke:#000000;stroke-width:0.264583"
         d="m 302.94352,99.040041 h 3.99999"
         id="path359" /><path
         style="fill:none;stroke:#000000;stroke-width:0.264583"
         d="m 352.94352,93.039291 v 6.00075"
         id="path361" /><path
         style="fill:none;stroke:#000000;stroke-width:0.264583"
         d="m 308.94353,93.039291 v 4.0005"
         id="path363" /><path
         style="fill:none;stroke:#000000;stroke-width:0.264583"
         d="M 302.94352,135.03925 V 129.0385"
         id="path365" /><path
         style="fill:none;stroke:#000000;stroke-width:0.264583"
         d="m 333.69352,95.663957 h -11.5"
         id="path369" /><path
         d="m 348.94352,145.03918 a 1.9999999,1.9999999 0 0 0 -2,2.00001"
         style="fill:none;stroke:#000000;stroke-width:0.264583"
         id="path371" /><path
         d="m 348.94352,145.03918 a 1.9999999,1.9999999 0 0 0 -2,2.00001"
         style="fill:none;stroke:#000000;stroke-width:0.264583"
         id="path373" /><path
         style="fill:none;stroke:#000000;stroke-width:0.264583"
         d="m 352.94352,151.0386 h -6.00001"
         id="path375" /><path
         style="fill:none;stroke:#000000;stroke-width:0.264583"
         d="m 352.94352,151.0386 v -5.9981"
         id="path377" /><path
         style="fill:none;stroke:#000000;stroke-width:0.264583"
         d="m 346.94351,151.0386 v -4.0005"
         id="path379" /><path
         style="fill:none;stroke:#000000;stroke-width:0.264583"
         d="m 352.94352,145.0405 h -3.99999"
         id="path381" /><path
         style="fill:none;stroke:#000000;stroke-width:0.264583"
         d="m 352.94352,151.0386 h -6.00001"
         id="path385" /><path
         style="fill:none;stroke:#000000;stroke-width:0.264583"
         d="m 352.94352,145.0405 h -3.99999"
         id="path389" /><path
         style="fill:none;stroke:#000000;stroke-width:0.264583"
         d="m 352.94352,151.0386 v -5.9981"
         id="path393" /><path
         d="m 308.94352,131.0392 a 1.9999999,1.9999999 0 0 0 -2,-2.00001"
         style="fill:none;stroke:#000000;stroke-width:0.264583"
         id="path395" /><path
         style="fill:none;stroke:#000000;stroke-width:0.264583"
         d="m 339.94351,141.04 h 6.00001"
         id="path397" /><path
         d="m 308.94352,131.0392 a 1.9999999,1.9999999 0 0 0 -2,-2.00001"
         style="fill:none;stroke:#000000;stroke-width:0.264583"
         id="path399" /><path
         style="fill:none;stroke:#000000;stroke-width:0.264583"
         d="m 339.94351,147.0381 h 6.00001"
         id="path401" /><path
         style="fill:none;stroke:#000000;stroke-width:0.264583"
         d="m 302.94352,129.0385 h 3.99999"
         id="path403" /><path
         style="fill:none;stroke:#000000;stroke-width:0.264583"
         d="m 326.19352,140.78864 v 6.50082"
         id="path405" /><path
         style="fill:none;stroke:#000000;stroke-width:0.264583"
         d="m 339.94351,141.04 v 5.9981"
         id="path407" /></g></g></svg>
