<?xml version="1.0" encoding="UTF-8" standalone="no"?>
<!-- Created with Inkscape (http://www.inkscape.org/) -->

<svg
   width="63.668938mm"
   height="79.527748mm"
   viewBox="0 0 63.668938 79.527748"
   version="1.1"
   id="svg5"
   xml:space="preserve"
   inkscape:version="1.2 (dc2aedaf03, 2022-05-15)"
   sodipodi:docname="monitor_control_button_layout_1.svg"
   xmlns:inkscape="http://www.inkscape.org/namespaces/inkscape"
   xmlns:sodipodi="http://sodipodi.sourceforge.net/DTD/sodipodi-0.dtd"
   xmlns="http://www.w3.org/2000/svg"
   xmlns:svg="http://www.w3.org/2000/svg"><sodipodi:namedview
     id="namedview7"
     pagecolor="#ffffff"
     bordercolor="#666666"
     borderopacity="1.0"
     inkscape:showpageshadow="2"
     inkscape:pageopacity="0.0"
     inkscape:pagecheckerboard="0"
     inkscape:deskcolor="#d1d1d1"
     inkscape:document-units="mm"
     showgrid="false"
     inkscape:zoom="3.659624"
     inkscape:cx="61.891604"
     inkscape:cy="158.07635"
     inkscape:window-width="3440"
     inkscape:window-height="1351"
     inkscape:window-x="-9"
     inkscape:window-y="-9"
     inkscape:window-maximized="1"
     inkscape:current-layer="layer1" /><defs
     id="defs2"><marker
       id="DistanceX"
       orient="auto"
       refX="0"
       refY="0"
       style="overflow:visible"><path
         d="M 3,-3 -3,3 M 0,-5 V 5"
         style="stroke:#000000;stroke-width:0.5"
         id="path11" /></marker><pattern
       id="Hatch"
       patternUnits="userSpaceOnUse"
       width="8"
       height="8"
       x="0"
       y="0"><path
         d="M8 4 l-4,4"
         stroke="#000000"
         stroke-width="0.25"
         linecap="square"
         id="path14" /><path
         d="M6 2 l-4,4"
         stroke="#000000"
         stroke-width="0.25"
         linecap="square"
         id="path16" /><path
         d="M4 0 l-4,4"
         stroke="#000000"
         stroke-width="0.25"
         linecap="square"
         id="path18" /></pattern><symbol
       id="*Model_Space" /><symbol
       id="*Paper_Space" /><symbol
       id="*Paper_Space0" /></defs><g
     inkscape:label="Layer 1"
     inkscape:groupmode="layer"
     id="layer1"><g
       inkscape:label="0"
       id="g26"
       transform="matrix(0.26458333,0,0,0.26458333,31.811105,-265.74799)" /><g
       inkscape:label="SECTION_CUTTING_LINE"
       id="g28"
       transform="matrix(0.26458333,0,0,0.26458333,31.811105,-265.74799)" /><g
       inkscape:label="DETAIL_VIEW_BORDER"
       id="g30"
       transform="matrix(0.26458333,0,0,0.26458333,31.811105,-265.74799)" /><g
       inkscape:label="DETAIL_VIEW_PARENT_BORDER"
       id="g32"
       transform="matrix(0.26458333,0,0,0.26458333,31.811105,-265.74799)" /><g
       inkscape:label="TEXT"
       id="g34"
       transform="matrix(0.26458333,0,0,0.26458333,31.811105,-265.74799)" /><g
       inkscape:label="SKETCHED_GEOMETRY"
       id="g36"
       transform="matrix(0.26458333,0,0,0.26458333,31.811105,-265.74799)" /><g
       inkscape:label="VIRTUAL_SHARPS"
       id="g38"
       transform="matrix(0.26458333,0,0,0.26458333,31.811105,-265.74799)" /><g
       inkscape:label="CENTERLINES"
       id="g40"
       transform="matrix(0.26458333,0,0,0.26458333,31.811105,-265.74799)" /><g
       inkscape:label="CENTERMARKS"
       id="g42"
       transform="matrix(0.26458333,0,0,0.26458333,31.811105,-265.74799)" /><g
       inkscape:label="TABLES"
       id="g44"
       transform="matrix(0.26458333,0,0,0.26458333,31.811105,-265.74799)" /><g
       inkscape:label="IMAGES"
       id="g46"
       transform="matrix(0.26458333,0,0,0.26458333,31.811105,-265.74799)" /><g
       inkscape:label="ANNOTATION_LINES"
       id="g48"
       transform="matrix(0.26458333,0,0,0.26458333,31.811105,-265.74799)" /><g
       inkscape:label="ANNOTATION_TEXT"
       id="g50"
       transform="matrix(0.26458333,0,0,0.26458333,31.811105,-265.74799)" /><g
       inkscape:label="SIDE_THREAD_SYMBOLS"
       id="g52"
       transform="matrix(0.26458333,0,0,0.26458333,31.811105,-265.74799)" /><g
       inkscape:label="SIDE_THREAD_SYMBOLS_HIDDEN"
       id="g54"
       transform="matrix(0.26458333,0,0,0.26458333,31.811105,-265.74799)" /><g
       inkscape:label="SURFACE_THREAD_SYMBOLS"
       id="g56"
       transform="matrix(0.26458333,0,0,0.26458333,31.811105,-265.74799)" /><g
       inkscape:label="SURFACE_THREAD_SYMBOLS_ON_AXIS"
       id="g58"
       transform="matrix(0.26458333,0,0,0.26458333,31.811105,-265.74799)" /><g
       inkscape:label="SURFACE_THREAD_SYMBOLS_HIDDEN"
       id="g60"
       transform="matrix(0.26458333,0,0,0.26458333,31.811105,-265.74799)" /><g
       inkscape:label="BLIND_THREAD_SYMBOLS"
       id="g62"
       transform="matrix(0.26458333,0,0,0.26458333,31.811105,-265.74799)" /><g
       inkscape:label="BLIND_THREAD_SYMBOLS_HIDDEN"
       id="g64"
       transform="matrix(0.26458333,0,0,0.26458333,31.811105,-265.74799)" /><g
       inkscape:label="EXPLODE_LINES"
       id="g66"
       transform="matrix(0.26458333,0,0,0.26458333,31.811105,-265.74799)" /><g
       inkscape:label="HIDDEN_EXPLODE_LINES"
       id="g68"
       transform="matrix(0.26458333,0,0,0.26458333,31.811105,-265.74799)" /><g
       inkscape:label="BREAK_LINES"
       id="g70"
       transform="matrix(0.26458333,0,0,0.26458333,31.811105,-265.74799)" /><g
       inkscape:label="SHEETMETAL_BEND_LINES_UP"
       id="g72"
       transform="matrix(0.26458333,0,0,0.26458333,31.811105,-265.74799)" /><g
       inkscape:label="SHEETMETAL_BEND_LINES_DOWN"
       id="g74"
       transform="matrix(0.26458333,0,0,0.26458333,31.811105,-265.74799)" /><g
       inkscape:label="SHEETMETAL_BEND_TANGENT_LINES"
       id="g76"
       transform="matrix(0.26458333,0,0,0.26458333,31.811105,-265.74799)" /><g
       inkscape:label="SHEETMETAL_CUT_LINES"
       id="g78"
       transform="matrix(0.26458333,0,0,0.26458333,31.811105,-265.74799)" /><g
       inkscape:label="REGION_ASSOC_POINTS"
       id="g80"
       transform="matrix(0.26458333,0,0,0.26458333,31.811105,-265.74799)" /><g
       inkscape:label="Hidden"
       id="g82"
       transform="matrix(0.26458333,0,0,0.26458333,31.811105,-265.74799)" /><g
       inkscape:label="Visible"
       id="g84"
       transform="matrix(0.26458333,0,0,0.26458333,31.811105,-265.74799)" /><path
       d="m 47.311105,61.252003 a 0.50000005,0.50000005 0 0 0 -1,0 0.50000005,0.50000005 0 0 0 1,0 z"
       style="fill:none;stroke:#000000;stroke-width:0.264583"
       id="path126" /><path
       style="fill:none;stroke:#000000;stroke-width:0.264583"
       d="M 6.8111024,6.2516107 H 56.811108"
       id="path130" /><path
       d="m 32.311105,31.25201 a 0.50000005,0.50000005 0 0 0 -1,0 0.50000005,0.50000005 0 0 0 1,0 z"
       style="fill:none;stroke:#000000;stroke-width:0.264583"
       id="path134" /><path
       d="m 10.811105,68.252005 a 1.0000001,1.0000001 0 0 0 -1.9999997,0 1.0000001,1.0000001 0 0 0 1.9999997,0 z"
       style="fill:none;stroke:#000000;stroke-width:0.264583"
       id="path138" /><path
       style="fill:none;stroke:#000000;stroke-width:0.264583"
       d="M 6.8111024,6.2516107 V 71.251797"
       id="path140" /><path
       d="m 54.811105,68.252005 a 1.0000001,1.0000001 0 0 0 -2,0 1.0000001,1.0000001 0 0 0 2,0 z"
       style="fill:none;stroke:#000000;stroke-width:0.264583"
       id="path142" /><path
       d="m 10.811105,53.252008 a 1.0000001,1.0000001 0 0 0 -1.9999997,0 1.0000001,1.0000001 0 0 0 1.9999997,0 z"
       style="fill:none;stroke:#000000;stroke-width:0.264583"
       id="path144" /><path
       d="m 54.811105,53.252008 a 1.0000001,1.0000001 0 0 0 -2,0 1.0000001,1.0000001 0 0 0 2,0 z"
       style="fill:none;stroke:#000000;stroke-width:0.264583"
       id="path146" /><path
       style="fill:none;stroke:#000000;stroke-width:0.264583"
       d="M 56.811108,6.2516107 V 71.251797"
       id="path148" /><path
       d="m 54.811105,9.2520122 a 1.0000001,1.0000001 0 0 0 -2,0 1.0000001,1.0000001 0 0 0 2,0 z"
       style="fill:none;stroke:#000000;stroke-width:0.264583"
       id="path150" /><path
       style="fill:none;stroke:#000000;stroke-width:0.264583"
       d="M 56.811108,71.251797 H 6.8111024"
       id="path152" /><path
       d="m 10.811105,9.2520122 a 1.0000001,1.0000001 0 0 0 -1.9999997,0 1.0000001,1.0000001 0 0 0 1.9999997,0 z"
       style="fill:none;stroke:#000000;stroke-width:0.264583"
       id="path154" /><g
       inkscape:label="ModelSketch_Point"
       id="g160"
       transform="matrix(0.26458333,0,0,0.26458333,31.811105,-265.74799)" /><g
       inkscape:label="ModelSketch_Construction"
       id="g162"
       transform="matrix(0.26458333,0,0,0.26458333,31.811105,-265.74799)" /><g
       inkscape:label="HIDDEN_BASE_VIEW"
       id="g164"
       transform="matrix(0.26458333,0,0,0.26458333,31.811105,-265.74799)" /><g
       inkscape:label="TANGENT_LINES"
       id="g166"
       transform="matrix(0.26458333,0,0,0.26458333,31.811105,-265.74799)" /><g
       inkscape:label="TANGENT_HIDDEN"
       id="g168"
       transform="matrix(0.26458333,0,0,0.26458333,31.811105,-265.74799)" /><g
       inkscape:label="INVISIBLE_LINES"
       id="g170"
       transform="matrix(0.26458333,0,0,0.26458333,31.811105,-265.74799)" /><g
       inkscape:label="VIEW_HATCHES"
       id="g172"
       transform="matrix(0.26458333,0,0,0.26458333,31.811105,-265.74799)" /><g
       inkscape:label="SECTION_JOG_LINES"
       id="g174"
       transform="matrix(0.26458333,0,0,0.26458333,31.811105,-265.74799)" /></g></svg>
