%TF.GenerationSoftware,KiCad,Pcbnew,(6.0.9)*%
%TF.CreationDate,2023-01-09T21:19:57+09:00*%
%TF.ProjectId,rasp_power_module,72617370-5f70-46f7-9765-725f6d6f6475,rev?*%
%TF.SameCoordinates,PX74079d0PY6f2f610*%
%TF.FileFunction,Legend,Bot*%
%TF.FilePolarity,Positive*%
%FSLAX46Y46*%
G04 Gerber Fmt 4.6, Leading zero omitted, Abs format (unit mm)*
G04 Created by KiCad (PCBNEW (6.0.9)) date 2023-01-09 21:19:57*
%MOMM*%
%LPD*%
G01*
G04 APERTURE LIST*
G04 Aperture macros list*
%AMRoundRect*
0 Rectangle with rounded corners*
0 $1 Rounding radius*
0 $2 $3 $4 $5 $6 $7 $8 $9 X,Y pos of 4 corners*
0 Add a 4 corners polygon primitive as box body*
4,1,4,$2,$3,$4,$5,$6,$7,$8,$9,$2,$3,0*
0 Add four circle primitives for the rounded corners*
1,1,$1+$1,$2,$3*
1,1,$1+$1,$4,$5*
1,1,$1+$1,$6,$7*
1,1,$1+$1,$8,$9*
0 Add four rect primitives between the rounded corners*
20,1,$1+$1,$2,$3,$4,$5,0*
20,1,$1+$1,$4,$5,$6,$7,0*
20,1,$1+$1,$6,$7,$8,$9,0*
20,1,$1+$1,$8,$9,$2,$3,0*%
G04 Aperture macros list end*
%ADD10C,0.150000*%
%ADD11C,1.524000*%
%ADD12R,3.000000X3.000000*%
%ADD13R,1.700000X1.700000*%
%ADD14O,1.700000X1.700000*%
%ADD15RoundRect,0.250002X-1.699998X-1.699998X1.699998X-1.699998X1.699998X1.699998X-1.699998X1.699998X0*%
%ADD16C,3.900000*%
%ADD17R,3.300000X4.500000*%
%ADD18R,2.000000X2.000000*%
%ADD19C,2.000000*%
%ADD20RoundRect,0.250000X-0.600000X-0.750000X0.600000X-0.750000X0.600000X0.750000X-0.600000X0.750000X0*%
%ADD21O,1.700000X2.000000*%
%ADD22RoundRect,0.250002X1.699998X1.699998X-1.699998X1.699998X-1.699998X-1.699998X1.699998X-1.699998X0*%
%ADD23C,3.000000*%
%ADD24RoundRect,0.250000X-0.725000X0.600000X-0.725000X-0.600000X0.725000X-0.600000X0.725000X0.600000X0*%
%ADD25O,1.950000X1.700000*%
G04 APERTURE END LIST*
D10*
X27122095Y7151620D02*
X26931619Y7151620D01*
X26836380Y7104000D01*
X26741142Y7008762D01*
X26693523Y6818286D01*
X26693523Y6484953D01*
X26741142Y6294477D01*
X26836380Y6199239D01*
X26931619Y6151620D01*
X27122095Y6151620D01*
X27217333Y6199239D01*
X27312571Y6294477D01*
X27360190Y6484953D01*
X27360190Y6818286D01*
X27312571Y7008762D01*
X27217333Y7104000D01*
X27122095Y7151620D01*
X25836380Y6818286D02*
X25836380Y6151620D01*
X26264952Y6818286D02*
X26264952Y6294477D01*
X26217333Y6199239D01*
X26122095Y6151620D01*
X25979238Y6151620D01*
X25884000Y6199239D01*
X25836380Y6246858D01*
X25503047Y6818286D02*
X25122095Y6818286D01*
X25360190Y7151620D02*
X25360190Y6294477D01*
X25312571Y6199239D01*
X25217333Y6151620D01*
X25122095Y6151620D01*
X25026857Y6056381D02*
X24264952Y6056381D01*
X23503047Y7104000D02*
X23598285Y7151620D01*
X23741142Y7151620D01*
X23884000Y7104000D01*
X23979238Y7008762D01*
X24026857Y6913524D01*
X24074476Y6723048D01*
X24074476Y6580191D01*
X24026857Y6389715D01*
X23979238Y6294477D01*
X23884000Y6199239D01*
X23741142Y6151620D01*
X23645904Y6151620D01*
X23503047Y6199239D01*
X23455428Y6246858D01*
X23455428Y6580191D01*
X23645904Y6580191D01*
X23026857Y6151620D02*
X23026857Y7151620D01*
X22455428Y6151620D01*
X22455428Y7151620D01*
X21979238Y6151620D02*
X21979238Y7151620D01*
X21741142Y7151620D01*
X21598285Y7104000D01*
X21503047Y7008762D01*
X21455428Y6913524D01*
X21407809Y6723048D01*
X21407809Y6580191D01*
X21455428Y6389715D01*
X21503047Y6294477D01*
X21598285Y6199239D01*
X21741142Y6151620D01*
X21979238Y6151620D01*
X44552857Y6897620D02*
X44362380Y6897620D01*
X44267142Y6850000D01*
X44171904Y6754762D01*
X44124285Y6564286D01*
X44124285Y6230953D01*
X44171904Y6040477D01*
X44267142Y5945239D01*
X44362380Y5897620D01*
X44552857Y5897620D01*
X44648095Y5945239D01*
X44743333Y6040477D01*
X44790952Y6230953D01*
X44790952Y6564286D01*
X44743333Y6754762D01*
X44648095Y6850000D01*
X44552857Y6897620D01*
X43267142Y6564286D02*
X43267142Y5897620D01*
X43695714Y6564286D02*
X43695714Y6040477D01*
X43648095Y5945239D01*
X43552857Y5897620D01*
X43410000Y5897620D01*
X43314761Y5945239D01*
X43267142Y5992858D01*
X42933809Y6564286D02*
X42552857Y6564286D01*
X42790952Y6897620D02*
X42790952Y6040477D01*
X42743333Y5945239D01*
X42648095Y5897620D01*
X42552857Y5897620D01*
X42457619Y5802381D02*
X41695714Y5802381D01*
X41600476Y6897620D02*
X41267142Y5897620D01*
X40933809Y6897620D01*
X40029047Y5992858D02*
X40076666Y5945239D01*
X40219523Y5897620D01*
X40314761Y5897620D01*
X40457619Y5945239D01*
X40552857Y6040477D01*
X40600476Y6135715D01*
X40648095Y6326191D01*
X40648095Y6469048D01*
X40600476Y6659524D01*
X40552857Y6754762D01*
X40457619Y6850000D01*
X40314761Y6897620D01*
X40219523Y6897620D01*
X40076666Y6850000D01*
X40029047Y6802381D01*
X39029047Y5992858D02*
X39076666Y5945239D01*
X39219523Y5897620D01*
X39314761Y5897620D01*
X39457619Y5945239D01*
X39552857Y6040477D01*
X39600476Y6135715D01*
X39648095Y6326191D01*
X39648095Y6469048D01*
X39600476Y6659524D01*
X39552857Y6754762D01*
X39457619Y6850000D01*
X39314761Y6897620D01*
X39219523Y6897620D01*
X39076666Y6850000D01*
X39029047Y6802381D01*
X22383142Y29932286D02*
X23145047Y29646572D01*
X22383142Y29360858D01*
X21906952Y29646572D02*
X21145047Y29646572D01*
X20668857Y29265620D02*
X20668857Y30265620D01*
X20335523Y29551334D01*
X20002190Y30265620D01*
X20002190Y29265620D01*
X19526000Y29265620D02*
X19526000Y30265620D01*
X19145047Y30265620D01*
X19049809Y30218000D01*
X19002190Y30170381D01*
X18954571Y30075143D01*
X18954571Y29932286D01*
X19002190Y29837048D01*
X19049809Y29789429D01*
X19145047Y29741810D01*
X19526000Y29741810D01*
X18002190Y29265620D02*
X18573619Y29265620D01*
X18287904Y29265620D02*
X18287904Y30265620D01*
X18383142Y30122762D01*
X18478380Y30027524D01*
X18573619Y29979905D01*
X17097428Y30265620D02*
X17573619Y30265620D01*
X17621238Y29789429D01*
X17573619Y29837048D01*
X17478380Y29884667D01*
X17240285Y29884667D01*
X17145047Y29837048D01*
X17097428Y29789429D01*
X17049809Y29694191D01*
X17049809Y29456096D01*
X17097428Y29360858D01*
X17145047Y29313239D01*
X17240285Y29265620D01*
X17478380Y29265620D01*
X17573619Y29313239D01*
X17621238Y29360858D01*
X16478380Y29837048D02*
X16573619Y29884667D01*
X16621238Y29932286D01*
X16668857Y30027524D01*
X16668857Y30075143D01*
X16621238Y30170381D01*
X16573619Y30218000D01*
X16478380Y30265620D01*
X16287904Y30265620D01*
X16192666Y30218000D01*
X16145047Y30170381D01*
X16097428Y30075143D01*
X16097428Y30027524D01*
X16145047Y29932286D01*
X16192666Y29884667D01*
X16287904Y29837048D01*
X16478380Y29837048D01*
X16573619Y29789429D01*
X16621238Y29741810D01*
X16668857Y29646572D01*
X16668857Y29456096D01*
X16621238Y29360858D01*
X16573619Y29313239D01*
X16478380Y29265620D01*
X16287904Y29265620D01*
X16192666Y29313239D01*
X16145047Y29360858D01*
X16097428Y29456096D01*
X16097428Y29646572D01*
X16145047Y29741810D01*
X16192666Y29789429D01*
X16287904Y29837048D01*
X15240285Y29932286D02*
X15240285Y29265620D01*
X15478380Y30313239D02*
X15716476Y29598953D01*
X15097428Y29598953D01*
X13764095Y30265620D02*
X13573619Y30265620D01*
X13478380Y30218000D01*
X13383142Y30122762D01*
X13335523Y29932286D01*
X13335523Y29598953D01*
X13383142Y29408477D01*
X13478380Y29313239D01*
X13573619Y29265620D01*
X13764095Y29265620D01*
X13859333Y29313239D01*
X13954571Y29408477D01*
X14002190Y29598953D01*
X14002190Y29932286D01*
X13954571Y30122762D01*
X13859333Y30218000D01*
X13764095Y30265620D01*
X12478380Y29932286D02*
X12478380Y29265620D01*
X12906952Y29932286D02*
X12906952Y29408477D01*
X12859333Y29313239D01*
X12764095Y29265620D01*
X12621238Y29265620D01*
X12526000Y29313239D01*
X12478380Y29360858D01*
X12145047Y29932286D02*
X11764095Y29932286D01*
X12002190Y30265620D02*
X12002190Y29408477D01*
X11954571Y29313239D01*
X11859333Y29265620D01*
X11764095Y29265620D01*
X22804380Y20200667D02*
X22804380Y20676858D01*
X21804380Y20676858D01*
X22804380Y19867334D02*
X21804380Y19867334D01*
X22518666Y19534000D01*
X21804380Y19200667D01*
X22804380Y19200667D01*
X21899619Y18772096D02*
X21852000Y18724477D01*
X21804380Y18629239D01*
X21804380Y18391143D01*
X21852000Y18295905D01*
X21899619Y18248286D01*
X21994857Y18200667D01*
X22090095Y18200667D01*
X22232952Y18248286D01*
X22804380Y18819715D01*
X22804380Y18200667D01*
X21804380Y17295905D02*
X21804380Y17772096D01*
X22280571Y17819715D01*
X22232952Y17772096D01*
X22185333Y17676858D01*
X22185333Y17438762D01*
X22232952Y17343524D01*
X22280571Y17295905D01*
X22375809Y17248286D01*
X22613904Y17248286D01*
X22709142Y17295905D01*
X22756761Y17343524D01*
X22804380Y17438762D01*
X22804380Y17676858D01*
X22756761Y17772096D01*
X22709142Y17819715D01*
X22804380Y16772096D02*
X22804380Y16581620D01*
X22756761Y16486381D01*
X22709142Y16438762D01*
X22566285Y16343524D01*
X22375809Y16295905D01*
X21994857Y16295905D01*
X21899619Y16343524D01*
X21852000Y16391143D01*
X21804380Y16486381D01*
X21804380Y16676858D01*
X21852000Y16772096D01*
X21899619Y16819715D01*
X21994857Y16867334D01*
X22232952Y16867334D01*
X22328190Y16819715D01*
X22375809Y16772096D01*
X22423428Y16676858D01*
X22423428Y16486381D01*
X22375809Y16391143D01*
X22328190Y16343524D01*
X22232952Y16295905D01*
X21804380Y15438762D02*
X21804380Y15629239D01*
X21852000Y15724477D01*
X21899619Y15772096D01*
X22042476Y15867334D01*
X22232952Y15914953D01*
X22613904Y15914953D01*
X22709142Y15867334D01*
X22756761Y15819715D01*
X22804380Y15724477D01*
X22804380Y15534000D01*
X22756761Y15438762D01*
X22709142Y15391143D01*
X22613904Y15343524D01*
X22375809Y15343524D01*
X22280571Y15391143D01*
X22232952Y15438762D01*
X22185333Y15534000D01*
X22185333Y15724477D01*
X22232952Y15819715D01*
X22280571Y15867334D01*
X22375809Y15914953D01*
X41885904Y50855620D02*
X41885904Y51855620D01*
X41409714Y51522286D02*
X41409714Y50855620D01*
X41409714Y51427048D02*
X41362095Y51474667D01*
X41266857Y51522286D01*
X41124000Y51522286D01*
X41028761Y51474667D01*
X40981142Y51379429D01*
X40981142Y50855620D01*
X40743047Y50760381D02*
X39981142Y50760381D01*
X39885904Y51855620D02*
X39552571Y50855620D01*
X39219238Y51855620D01*
X38314476Y50950858D02*
X38362095Y50903239D01*
X38504952Y50855620D01*
X38600190Y50855620D01*
X38743047Y50903239D01*
X38838285Y50998477D01*
X38885904Y51093715D01*
X38933523Y51284191D01*
X38933523Y51427048D01*
X38885904Y51617524D01*
X38838285Y51712762D01*
X38743047Y51808000D01*
X38600190Y51855620D01*
X38504952Y51855620D01*
X38362095Y51808000D01*
X38314476Y51760381D01*
X37314476Y50950858D02*
X37362095Y50903239D01*
X37504952Y50855620D01*
X37600190Y50855620D01*
X37743047Y50903239D01*
X37838285Y50998477D01*
X37885904Y51093715D01*
X37933523Y51284191D01*
X37933523Y51427048D01*
X37885904Y51617524D01*
X37838285Y51712762D01*
X37743047Y51808000D01*
X37600190Y51855620D01*
X37504952Y51855620D01*
X37362095Y51808000D01*
X37314476Y51760381D01*
X29281142Y50855620D02*
X29281142Y51855620D01*
X28804952Y51522286D02*
X28804952Y50855620D01*
X28804952Y51427048D02*
X28757333Y51474667D01*
X28662095Y51522286D01*
X28519238Y51522286D01*
X28424000Y51474667D01*
X28376380Y51379429D01*
X28376380Y50855620D01*
X28138285Y50760381D02*
X27376380Y50760381D01*
X26614476Y51808000D02*
X26709714Y51855620D01*
X26852571Y51855620D01*
X26995428Y51808000D01*
X27090666Y51712762D01*
X27138285Y51617524D01*
X27185904Y51427048D01*
X27185904Y51284191D01*
X27138285Y51093715D01*
X27090666Y50998477D01*
X26995428Y50903239D01*
X26852571Y50855620D01*
X26757333Y50855620D01*
X26614476Y50903239D01*
X26566857Y50950858D01*
X26566857Y51284191D01*
X26757333Y51284191D01*
X26138285Y50855620D02*
X26138285Y51855620D01*
X25566857Y50855620D01*
X25566857Y51855620D01*
X25090666Y50855620D02*
X25090666Y51855620D01*
X24852571Y51855620D01*
X24709714Y51808000D01*
X24614476Y51712762D01*
X24566857Y51617524D01*
X24519238Y51427048D01*
X24519238Y51284191D01*
X24566857Y51093715D01*
X24614476Y50998477D01*
X24709714Y50903239D01*
X24852571Y50855620D01*
X25090666Y50855620D01*
X39687333Y32551620D02*
X39354000Y31551620D01*
X39020666Y32551620D01*
X38115904Y31646858D02*
X38163523Y31599239D01*
X38306380Y31551620D01*
X38401619Y31551620D01*
X38544476Y31599239D01*
X38639714Y31694477D01*
X38687333Y31789715D01*
X38734952Y31980191D01*
X38734952Y32123048D01*
X38687333Y32313524D01*
X38639714Y32408762D01*
X38544476Y32504000D01*
X38401619Y32551620D01*
X38306380Y32551620D01*
X38163523Y32504000D01*
X38115904Y32456381D01*
X37115904Y31646858D02*
X37163523Y31599239D01*
X37306380Y31551620D01*
X37401619Y31551620D01*
X37544476Y31599239D01*
X37639714Y31694477D01*
X37687333Y31789715D01*
X37734952Y31980191D01*
X37734952Y32123048D01*
X37687333Y32313524D01*
X37639714Y32408762D01*
X37544476Y32504000D01*
X37401619Y32551620D01*
X37306380Y32551620D01*
X37163523Y32504000D01*
X37115904Y32456381D01*
X22804380Y42616096D02*
X21804380Y42616096D01*
X22518666Y42282762D01*
X21804380Y41949429D01*
X22804380Y41949429D01*
X22804380Y41473239D02*
X21804380Y41473239D01*
X21804380Y41092286D01*
X21852000Y40997048D01*
X21899619Y40949429D01*
X21994857Y40901810D01*
X22137714Y40901810D01*
X22232952Y40949429D01*
X22280571Y40997048D01*
X22328190Y41092286D01*
X22328190Y41473239D01*
X22804380Y39949429D02*
X22804380Y40520858D01*
X22804380Y40235143D02*
X21804380Y40235143D01*
X21947238Y40330381D01*
X22042476Y40425620D01*
X22090095Y40520858D01*
X21804380Y39044667D02*
X21804380Y39520858D01*
X22280571Y39568477D01*
X22232952Y39520858D01*
X22185333Y39425620D01*
X22185333Y39187524D01*
X22232952Y39092286D01*
X22280571Y39044667D01*
X22375809Y38997048D01*
X22613904Y38997048D01*
X22709142Y39044667D01*
X22756761Y39092286D01*
X22804380Y39187524D01*
X22804380Y39425620D01*
X22756761Y39520858D01*
X22709142Y39568477D01*
X22232952Y38425620D02*
X22185333Y38520858D01*
X22137714Y38568477D01*
X22042476Y38616096D01*
X21994857Y38616096D01*
X21899619Y38568477D01*
X21852000Y38520858D01*
X21804380Y38425620D01*
X21804380Y38235143D01*
X21852000Y38139905D01*
X21899619Y38092286D01*
X21994857Y38044667D01*
X22042476Y38044667D01*
X22137714Y38092286D01*
X22185333Y38139905D01*
X22232952Y38235143D01*
X22232952Y38425620D01*
X22280571Y38520858D01*
X22328190Y38568477D01*
X22423428Y38616096D01*
X22613904Y38616096D01*
X22709142Y38568477D01*
X22756761Y38520858D01*
X22804380Y38425620D01*
X22804380Y38235143D01*
X22756761Y38139905D01*
X22709142Y38092286D01*
X22613904Y38044667D01*
X22423428Y38044667D01*
X22328190Y38092286D01*
X22280571Y38139905D01*
X22232952Y38235143D01*
X22137714Y37187524D02*
X22804380Y37187524D01*
X21756761Y37425620D02*
X22471047Y37663715D01*
X22471047Y37044667D01*
X29209904Y32504000D02*
X29305142Y32551620D01*
X29448000Y32551620D01*
X29590857Y32504000D01*
X29686095Y32408762D01*
X29733714Y32313524D01*
X29781333Y32123048D01*
X29781333Y31980191D01*
X29733714Y31789715D01*
X29686095Y31694477D01*
X29590857Y31599239D01*
X29448000Y31551620D01*
X29352761Y31551620D01*
X29209904Y31599239D01*
X29162285Y31646858D01*
X29162285Y31980191D01*
X29352761Y31980191D01*
X28733714Y31551620D02*
X28733714Y32551620D01*
X28162285Y31551620D01*
X28162285Y32551620D01*
X27686095Y31551620D02*
X27686095Y32551620D01*
X27448000Y32551620D01*
X27305142Y32504000D01*
X27209904Y32408762D01*
X27162285Y32313524D01*
X27114666Y32123048D01*
X27114666Y31980191D01*
X27162285Y31789715D01*
X27209904Y31694477D01*
X27305142Y31599239D01*
X27448000Y31551620D01*
X27686095Y31551620D01*
%LPC*%
D11*
%TO.C,DCDC1*%
X40386000Y48768000D03*
X37846000Y48768000D03*
X28956000Y48768000D03*
X26399000Y48820000D03*
X40386000Y29718000D03*
X38100000Y29718000D03*
X28702000Y29770000D03*
X26374000Y29745000D03*
%TD*%
D12*
%TO.C,DCDC2*%
X42201728Y48886917D03*
X24348890Y48878188D03*
X42196444Y9038827D03*
X24358217Y9029265D03*
%TD*%
D13*
%TO.C,JP1*%
X10414000Y20320000D03*
D14*
X12954000Y20320000D03*
%TD*%
D15*
%TO.C,J5*%
X3556000Y8890000D03*
D16*
X11356000Y8890000D03*
%TD*%
D17*
%TO.C,D2*%
X19304000Y44151000D03*
X19304000Y35351000D03*
%TD*%
D13*
%TO.C,J3*%
X19558000Y23368000D03*
D14*
X19558000Y25908000D03*
%TD*%
D18*
%TO.C,K1*%
X10668000Y36576000D03*
D19*
X10668000Y39116000D03*
X10668000Y46736000D03*
X5588000Y46736000D03*
X5588000Y39116000D03*
X5588000Y36576000D03*
%TD*%
D20*
%TO.C,J7*%
X17399000Y4064000D03*
D21*
X19899000Y4064000D03*
%TD*%
D22*
%TO.C,J1*%
X28194000Y55118000D03*
D16*
X20394000Y55118000D03*
%TD*%
D20*
%TO.C,J9*%
X35179000Y4064000D03*
D21*
X37679000Y4064000D03*
%TD*%
D20*
%TO.C,J8*%
X26309000Y4064000D03*
D21*
X28809000Y4064000D03*
%TD*%
D13*
%TO.C,JP2*%
X10414000Y17780000D03*
D14*
X12954000Y17780000D03*
%TD*%
D23*
%TO.C,K2*%
X8128000Y50546000D03*
X14128000Y36346000D03*
X2128000Y36346000D03*
X2128000Y48546000D03*
X14128000Y48546000D03*
%TD*%
D24*
%TO.C,J2*%
X5588000Y26416000D03*
D25*
X5588000Y23916000D03*
X5588000Y21416000D03*
X5588000Y18916000D03*
X5588000Y16416000D03*
%TD*%
M02*
