%TF.GenerationSoftware,KiCad,Pcbnew,(6.0.10)*%
%TF.CreationDate,2023-01-30T20:49:18+09:00*%
%TF.ProjectId,rasp_power_module,72617370-5f70-46f7-9765-725f6d6f6475,2*%
%TF.SameCoordinates,PX74269e8PY6f4e628*%
%TF.FileFunction,Soldermask,Top*%
%TF.FilePolarity,Negative*%
%FSLAX46Y46*%
G04 Gerber Fmt 4.6, Leading zero omitted, Abs format (unit mm)*
G04 Created by KiCad (PCBNEW (6.0.10)) date 2023-01-30 20:49:18*
%MOMM*%
%LPD*%
G01*
G04 APERTURE LIST*
G04 Aperture macros list*
%AMRoundRect*
0 Rectangle with rounded corners*
0 $1 Rounding radius*
0 $2 $3 $4 $5 $6 $7 $8 $9 X,Y pos of 4 corners*
0 Add a 4 corners polygon primitive as box body*
4,1,4,$2,$3,$4,$5,$6,$7,$8,$9,$2,$3,0*
0 Add four circle primitives for the rounded corners*
1,1,$1+$1,$2,$3*
1,1,$1+$1,$4,$5*
1,1,$1+$1,$6,$7*
1,1,$1+$1,$8,$9*
0 Add four rect primitives between the rounded corners*
20,1,$1+$1,$2,$3,$4,$5,0*
20,1,$1+$1,$4,$5,$6,$7,0*
20,1,$1+$1,$6,$7,$8,$9,0*
20,1,$1+$1,$8,$9,$2,$3,0*%
G04 Aperture macros list end*
%ADD10C,3.000000*%
%ADD11C,2.500000*%
%ADD12C,1.524000*%
%ADD13RoundRect,0.250000X0.450000X-0.262500X0.450000X0.262500X-0.450000X0.262500X-0.450000X-0.262500X0*%
%ADD14R,3.000000X3.000000*%
%ADD15R,1.700000X1.700000*%
%ADD16O,1.700000X1.700000*%
%ADD17RoundRect,0.250000X-0.450000X0.262500X-0.450000X-0.262500X0.450000X-0.262500X0.450000X0.262500X0*%
%ADD18RoundRect,0.249999X-1.300001X-1.300001X1.300001X-1.300001X1.300001X1.300001X-1.300001X1.300001X0*%
%ADD19C,3.100000*%
%ADD20R,3.300000X4.500000*%
%ADD21R,2.000000X2.000000*%
%ADD22C,2.000000*%
%ADD23RoundRect,0.250000X-0.600000X-0.750000X0.600000X-0.750000X0.600000X0.750000X-0.600000X0.750000X0*%
%ADD24O,1.700000X2.000000*%
%ADD25RoundRect,0.250000X0.262500X0.450000X-0.262500X0.450000X-0.262500X-0.450000X0.262500X-0.450000X0*%
%ADD26RoundRect,0.243750X-0.243750X-0.456250X0.243750X-0.456250X0.243750X0.456250X-0.243750X0.456250X0*%
%ADD27RoundRect,0.250002X1.699998X1.699998X-1.699998X1.699998X-1.699998X-1.699998X1.699998X-1.699998X0*%
%ADD28C,3.900000*%
%ADD29RoundRect,0.150000X-0.150000X0.587500X-0.150000X-0.587500X0.150000X-0.587500X0.150000X0.587500X0*%
%ADD30R,1.300000X1.700000*%
%ADD31RoundRect,0.250000X-0.725000X0.600000X-0.725000X-0.600000X0.725000X-0.600000X0.725000X0.600000X0*%
%ADD32O,1.950000X1.700000*%
G04 APERTURE END LIST*
D10*
%TO.C,K2*%
X7950200Y51689000D03*
D11*
X1900200Y49739000D03*
D10*
X1900200Y37539000D03*
X13950200Y37489000D03*
D11*
X13900200Y49739000D03*
%TD*%
D12*
%TO.C,DCDC1*%
X28696000Y44728000D03*
X26156000Y44728000D03*
X37616000Y44728000D03*
X40156000Y44728000D03*
X26156000Y25728000D03*
X28696000Y25728000D03*
X37616000Y25728000D03*
X40156000Y25728000D03*
%TD*%
D13*
%TO.C,R1*%
X17043400Y27357700D03*
X17043400Y29182700D03*
%TD*%
D14*
%TO.C,DCDC2*%
X42074728Y49064717D03*
X24221890Y49055988D03*
X42069444Y9216627D03*
X24231217Y9207065D03*
%TD*%
D15*
%TO.C,JP1*%
X10287000Y18669000D03*
D16*
X12827000Y18669000D03*
%TD*%
D17*
%TO.C,R4*%
X17043400Y25535900D03*
X17043400Y23710900D03*
%TD*%
D18*
%TO.C,J5*%
X5207000Y8559800D03*
D19*
X11207000Y8559800D03*
%TD*%
D20*
%TO.C,D2*%
X19227800Y43096730D03*
X19227800Y34296730D03*
%TD*%
D13*
%TO.C,R2*%
X14909800Y27357700D03*
X14909800Y29182700D03*
%TD*%
D15*
%TO.C,J3*%
X19227800Y16129000D03*
D16*
X19227800Y18669000D03*
%TD*%
D21*
%TO.C,K1*%
X10541000Y37465000D03*
D22*
X10541000Y40005000D03*
X10541000Y47625000D03*
X5461000Y47625000D03*
X5461000Y40005000D03*
X5461000Y37465000D03*
%TD*%
D23*
%TO.C,J7*%
X17272000Y4191000D03*
D24*
X19772000Y4191000D03*
%TD*%
D25*
%TO.C,R5*%
X20191100Y49809400D03*
X18366100Y49809400D03*
%TD*%
D26*
%TO.C,D3*%
X18341100Y47675800D03*
X20216100Y47675800D03*
%TD*%
D27*
%TO.C,J1*%
X27305000Y55118000D03*
D28*
X19505000Y55118000D03*
%TD*%
D23*
%TO.C,J9*%
X35052000Y4191000D03*
D24*
X37552000Y4191000D03*
%TD*%
D23*
%TO.C,J8*%
X26182000Y4191000D03*
D24*
X28682000Y4191000D03*
%TD*%
D29*
%TO.C,Q1*%
X12049800Y28191700D03*
X10149800Y28191700D03*
X11099800Y26316700D03*
%TD*%
D15*
%TO.C,JP2*%
X10287000Y16129000D03*
D16*
X12827000Y16129000D03*
%TD*%
D30*
%TO.C,D1*%
X12494200Y31115000D03*
X8994200Y31115000D03*
%TD*%
D31*
%TO.C,J2*%
X5461000Y26187400D03*
D32*
X5461000Y23687400D03*
X5461000Y21187400D03*
X5461000Y18687400D03*
X5461000Y16187400D03*
%TD*%
D17*
%TO.C,R3*%
X14909800Y25535900D03*
X14909800Y23710900D03*
%TD*%
M02*
