%TF.GenerationSoftware,KiCad,Pcbnew,(6.0.10)*%
%TF.CreationDate,2023-01-30T20:49:18+09:00*%
%TF.ProjectId,rasp_power_module,72617370-5f70-46f7-9765-725f6d6f6475,2*%
%TF.SameCoordinates,PX74269e8PY6f4e628*%
%TF.FileFunction,Copper,L2,Bot*%
%TF.FilePolarity,Positive*%
%FSLAX46Y46*%
G04 Gerber Fmt 4.6, Leading zero omitted, Abs format (unit mm)*
G04 Created by KiCad (PCBNEW (6.0.10)) date 2023-01-30 20:49:18*
%MOMM*%
%LPD*%
G01*
G04 APERTURE LIST*
G04 Aperture macros list*
%AMRoundRect*
0 Rectangle with rounded corners*
0 $1 Rounding radius*
0 $2 $3 $4 $5 $6 $7 $8 $9 X,Y pos of 4 corners*
0 Add a 4 corners polygon primitive as box body*
4,1,4,$2,$3,$4,$5,$6,$7,$8,$9,$2,$3,0*
0 Add four circle primitives for the rounded corners*
1,1,$1+$1,$2,$3*
1,1,$1+$1,$4,$5*
1,1,$1+$1,$6,$7*
1,1,$1+$1,$8,$9*
0 Add four rect primitives between the rounded corners*
20,1,$1+$1,$2,$3,$4,$5,0*
20,1,$1+$1,$4,$5,$6,$7,0*
20,1,$1+$1,$6,$7,$8,$9,0*
20,1,$1+$1,$8,$9,$2,$3,0*%
G04 Aperture macros list end*
%TA.AperFunction,ComponentPad*%
%ADD10C,3.000000*%
%TD*%
%TA.AperFunction,ComponentPad*%
%ADD11C,2.500000*%
%TD*%
%TA.AperFunction,ComponentPad*%
%ADD12C,1.524000*%
%TD*%
%TA.AperFunction,ComponentPad*%
%ADD13R,3.000000X3.000000*%
%TD*%
%TA.AperFunction,ComponentPad*%
%ADD14R,1.700000X1.700000*%
%TD*%
%TA.AperFunction,ComponentPad*%
%ADD15O,1.700000X1.700000*%
%TD*%
%TA.AperFunction,ComponentPad*%
%ADD16RoundRect,0.249999X-1.300001X-1.300001X1.300001X-1.300001X1.300001X1.300001X-1.300001X1.300001X0*%
%TD*%
%TA.AperFunction,ComponentPad*%
%ADD17C,3.100000*%
%TD*%
%TA.AperFunction,ComponentPad*%
%ADD18R,3.300000X4.500000*%
%TD*%
%TA.AperFunction,ComponentPad*%
%ADD19R,2.000000X2.000000*%
%TD*%
%TA.AperFunction,ComponentPad*%
%ADD20C,2.000000*%
%TD*%
%TA.AperFunction,ComponentPad*%
%ADD21RoundRect,0.250000X-0.600000X-0.750000X0.600000X-0.750000X0.600000X0.750000X-0.600000X0.750000X0*%
%TD*%
%TA.AperFunction,ComponentPad*%
%ADD22O,1.700000X2.000000*%
%TD*%
%TA.AperFunction,ComponentPad*%
%ADD23RoundRect,0.250002X1.699998X1.699998X-1.699998X1.699998X-1.699998X-1.699998X1.699998X-1.699998X0*%
%TD*%
%TA.AperFunction,ComponentPad*%
%ADD24C,3.900000*%
%TD*%
%TA.AperFunction,ComponentPad*%
%ADD25RoundRect,0.250000X-0.725000X0.600000X-0.725000X-0.600000X0.725000X-0.600000X0.725000X0.600000X0*%
%TD*%
%TA.AperFunction,ComponentPad*%
%ADD26O,1.950000X1.700000*%
%TD*%
%TA.AperFunction,Conductor*%
%ADD27C,0.250000*%
%TD*%
%TA.AperFunction,Conductor*%
%ADD28C,1.000000*%
%TD*%
G04 APERTURE END LIST*
D10*
%TO.P,K2,1*%
%TO.N,Relay_In*%
X7950200Y51689000D03*
D11*
%TO.P,K2,2*%
%TO.N,Relay_Coil_2*%
X1900200Y49739000D03*
D10*
%TO.P,K2,3*%
%TO.N,12V_ON*%
X1900200Y37539000D03*
%TO.P,K2,4*%
%TO.N,unconnected-(K2-Pad4)*%
X13950200Y37489000D03*
D11*
%TO.P,K2,5*%
%TO.N,5V_ON*%
X13900200Y49739000D03*
%TD*%
D12*
%TO.P,DCDC1,1,InVCC*%
%TO.N,12V_ON*%
X28696000Y44728000D03*
X26156000Y44728000D03*
%TO.P,DCDC1,2,InGND*%
%TO.N,InGND*%
X37616000Y44728000D03*
X40156000Y44728000D03*
%TO.P,DCDC1,3,OutVCC*%
%TO.N,5V_ON*%
X26156000Y25728000D03*
X28696000Y25728000D03*
%TO.P,DCDC1,4,OutGND*%
%TO.N,InGND*%
X37616000Y25728000D03*
X40156000Y25728000D03*
%TD*%
D13*
%TO.P,DCDC2,1,InVCC*%
%TO.N,12V_ON*%
X42074728Y49064717D03*
%TO.P,DCDC2,2,InGND*%
%TO.N,InGND*%
X24221890Y49055988D03*
%TO.P,DCDC2,3,OutVCC*%
%TO.N,5V_ON*%
X42069444Y9216627D03*
%TO.P,DCDC2,4,OutGND*%
%TO.N,InGND*%
X24231217Y9207065D03*
%TD*%
D14*
%TO.P,JP1,1,A*%
%TO.N,/ON_LED*%
X10287000Y18669000D03*
D15*
%TO.P,JP1,2,B*%
%TO.N,12V_ON*%
X12827000Y18669000D03*
%TD*%
D16*
%TO.P,J5,1,Pin_1*%
%TO.N,12V_ON*%
X5207000Y8559800D03*
D17*
%TO.P,J5,2,Pin_2*%
%TO.N,InGND*%
X11207000Y8559800D03*
%TD*%
D18*
%TO.P,D2,1,K*%
%TO.N,12V_ON*%
X19227800Y43096730D03*
%TO.P,D2,2,A*%
%TO.N,/SWITCH*%
X19227800Y34296730D03*
%TD*%
D14*
%TO.P,J3,1,Pin_1*%
%TO.N,/SHUTDOWN*%
X19227800Y16129000D03*
D15*
%TO.P,J3,2,Pin_2*%
%TO.N,/POWER_SIG*%
X19227800Y18669000D03*
%TD*%
D19*
%TO.P,K1,1*%
%TO.N,unconnected-(K1-Pad1)*%
X10541000Y37465000D03*
D20*
%TO.P,K1,2*%
%TO.N,5V_ON*%
X10541000Y40005000D03*
%TO.P,K1,5*%
%TO.N,Relay_In*%
X10541000Y47625000D03*
%TO.P,K1,6*%
X5461000Y47625000D03*
%TO.P,K1,9*%
%TO.N,Relay_Coil_2*%
X5461000Y40005000D03*
%TO.P,K1,10*%
%TO.N,12V_ON*%
X5461000Y37465000D03*
%TD*%
D21*
%TO.P,J7,1,Pin_1*%
%TO.N,5V_ON*%
X17272000Y4191000D03*
D22*
%TO.P,J7,2,Pin_2*%
%TO.N,InGND*%
X19772000Y4191000D03*
%TD*%
D23*
%TO.P,J1,1,Pin_1*%
%TO.N,Relay_In*%
X27305000Y55118000D03*
D24*
%TO.P,J1,2,Pin_2*%
%TO.N,InGND*%
X19505000Y55118000D03*
%TD*%
D21*
%TO.P,J9,1,Pin_1*%
%TO.N,5V_ON*%
X35052000Y4191000D03*
D22*
%TO.P,J9,2,Pin_2*%
%TO.N,InGND*%
X37552000Y4191000D03*
%TD*%
D21*
%TO.P,J8,1,Pin_1*%
%TO.N,5V_ON*%
X26182000Y4191000D03*
D22*
%TO.P,J8,2,Pin_2*%
%TO.N,InGND*%
X28682000Y4191000D03*
%TD*%
D14*
%TO.P,JP2,1,A*%
%TO.N,/ON_LED*%
X10287000Y16129000D03*
D15*
%TO.P,JP2,2,B*%
%TO.N,5V_ON*%
X12827000Y16129000D03*
%TD*%
D25*
%TO.P,J2,1,Pin_1*%
%TO.N,Relay_In*%
X5461000Y26187400D03*
D26*
%TO.P,J2,2,Pin_2*%
%TO.N,InGND*%
X5461000Y23687400D03*
%TO.P,J2,3,Pin_3*%
%TO.N,/SWITCH*%
X5461000Y21187400D03*
%TO.P,J2,4,Pin_4*%
%TO.N,/ON_LED*%
X5461000Y18687400D03*
%TO.P,J2,5,Pin_5*%
%TO.N,5V_ON*%
X5461000Y16187400D03*
%TD*%
D27*
%TO.N,5V_ON*%
X13900200Y43364200D02*
X13900200Y49739000D01*
X10541000Y40005000D02*
X13900200Y43364200D01*
D28*
%TO.N,12V_ON*%
X1900200Y37539000D02*
X1974200Y37465000D01*
X1974200Y37465000D02*
X5461000Y37465000D01*
D27*
X13081000Y12827000D02*
X9474200Y12827000D01*
X14859000Y17145000D02*
X14859000Y14605000D01*
X9474200Y12827000D02*
X5207000Y8559800D01*
X13335000Y18669000D02*
X14859000Y17145000D01*
X14859000Y14605000D02*
X13081000Y12827000D01*
X12827000Y18669000D02*
X13335000Y18669000D01*
D28*
%TO.N,Relay_In*%
X8001000Y28727400D02*
X5461000Y26187400D01*
X8001000Y50673000D02*
X8001000Y28727400D01*
%TO.N,12V_ON*%
X2001800Y11765000D02*
X2001800Y36473800D01*
X5207000Y8559800D02*
X2001800Y11765000D01*
%TO.N,InGND*%
X23583952Y8559800D02*
X11207000Y8559800D01*
X24231217Y9207065D02*
X23583952Y8559800D01*
%TO.N,/SWITCH*%
X5736600Y21463000D02*
X5461000Y21187400D01*
X19029720Y33696730D02*
X6795990Y21463000D01*
X19227800Y33696730D02*
X19029720Y33696730D01*
X6795990Y21463000D02*
X5736600Y21463000D01*
%TO.N,12V_ON*%
X19177000Y43747530D02*
X19227800Y43696730D01*
X19177000Y49453800D02*
X19177000Y43747530D01*
X21666200Y51943000D02*
X19177000Y49453800D01*
X40360600Y51943000D02*
X21666200Y51943000D01*
X19227800Y43696730D02*
X19227800Y43735000D01*
X41955811Y48895000D02*
X41955811Y50347789D01*
X41955811Y50347789D02*
X40360600Y51943000D01*
%TO.N,InGND*%
X24231217Y8650217D02*
X24231217Y9207065D01*
X37552000Y4191000D02*
X37552000Y3566800D01*
X30714000Y2159000D02*
X28682000Y4191000D01*
X44577000Y7188200D02*
X43307000Y5918200D01*
X27216100Y2159000D02*
X21804000Y2159000D01*
X43309200Y25728000D02*
X44577000Y24460200D01*
X44577000Y24460200D02*
X44577000Y7188200D01*
X37552000Y3566800D02*
X36144200Y2159000D01*
X28682000Y3624900D02*
X27216100Y2159000D01*
X36144200Y2159000D02*
X30714000Y2159000D01*
X43307000Y5918200D02*
X39279200Y5918200D01*
X28682000Y4191000D02*
X28682000Y3624900D01*
X39279200Y5918200D02*
X37552000Y4191000D01*
X21804000Y2159000D02*
X19772000Y4191000D01*
X37616000Y25728000D02*
X43309200Y25728000D01*
X19772000Y4191000D02*
X24231217Y8650217D01*
%TD*%
M02*
