%TF.GenerationSoftware,KiCad,Pcbnew,(6.0.10)*%
%TF.CreationDate,2023-01-26T23:09:25+09:00*%
%TF.ProjectId,rasp_power_module,72617370-5f70-46f7-9765-725f6d6f6475,2*%
%TF.SameCoordinates,PX74269e8PY6f4e628*%
%TF.FileFunction,Legend,Top*%
%TF.FilePolarity,Positive*%
%FSLAX46Y46*%
G04 Gerber Fmt 4.6, Leading zero omitted, Abs format (unit mm)*
G04 Created by KiCad (PCBNEW (6.0.10)) date 2023-01-26 23:09:25*
%MOMM*%
%LPD*%
G01*
G04 APERTURE LIST*
G04 Aperture macros list*
%AMRoundRect*
0 Rectangle with rounded corners*
0 $1 Rounding radius*
0 $2 $3 $4 $5 $6 $7 $8 $9 X,Y pos of 4 corners*
0 Add a 4 corners polygon primitive as box body*
4,1,4,$2,$3,$4,$5,$6,$7,$8,$9,$2,$3,0*
0 Add four circle primitives for the rounded corners*
1,1,$1+$1,$2,$3*
1,1,$1+$1,$4,$5*
1,1,$1+$1,$6,$7*
1,1,$1+$1,$8,$9*
0 Add four rect primitives between the rounded corners*
20,1,$1+$1,$2,$3,$4,$5,0*
20,1,$1+$1,$4,$5,$6,$7,0*
20,1,$1+$1,$6,$7,$8,$9,0*
20,1,$1+$1,$8,$9,$2,$3,0*%
G04 Aperture macros list end*
%ADD10C,0.150000*%
%ADD11C,0.120000*%
%ADD12RoundRect,0.250002X1.699998X1.699998X-1.699998X1.699998X-1.699998X-1.699998X1.699998X-1.699998X0*%
%ADD13C,3.900000*%
%ADD14C,1.524000*%
%ADD15RoundRect,0.200000X0.275000X-0.200000X0.275000X0.200000X-0.275000X0.200000X-0.275000X-0.200000X0*%
%ADD16R,3.000000X3.000000*%
%ADD17R,1.700000X1.700000*%
%ADD18O,1.700000X1.700000*%
%ADD19RoundRect,0.200000X-0.275000X0.200000X-0.275000X-0.200000X0.275000X-0.200000X0.275000X0.200000X0*%
%ADD20RoundRect,0.249999X-1.300001X-1.300001X1.300001X-1.300001X1.300001X1.300001X-1.300001X1.300001X0*%
%ADD21C,3.100000*%
%ADD22R,3.300000X4.500000*%
%ADD23R,2.000000X2.000000*%
%ADD24C,2.000000*%
%ADD25RoundRect,0.250000X-0.600000X-0.750000X0.600000X-0.750000X0.600000X0.750000X-0.600000X0.750000X0*%
%ADD26O,1.700000X2.000000*%
%ADD27RoundRect,0.200000X0.200000X0.275000X-0.200000X0.275000X-0.200000X-0.275000X0.200000X-0.275000X0*%
%ADD28RoundRect,0.218750X-0.218750X-0.256250X0.218750X-0.256250X0.218750X0.256250X-0.218750X0.256250X0*%
%ADD29RoundRect,0.150000X-0.150000X0.587500X-0.150000X-0.587500X0.150000X-0.587500X0.150000X0.587500X0*%
%ADD30C,3.000000*%
%ADD31R,1.300000X1.700000*%
%ADD32RoundRect,0.250000X-0.725000X0.600000X-0.725000X-0.600000X0.725000X-0.600000X0.725000X0.600000X0*%
%ADD33O,1.950000X1.700000*%
G04 APERTURE END LIST*
D10*
X20761000Y18648200D02*
X21209000Y19126200D01*
X19205790Y38337047D02*
X19205790Y37321047D01*
X18443790Y38337047D02*
X19967790Y38337047D01*
X21209000Y19126200D02*
X21209000Y20396200D01*
X19205790Y39353047D02*
X18443790Y38337047D01*
X21209000Y15621000D02*
X21209000Y14351000D01*
X20761000Y16078200D02*
X21209000Y15621000D01*
X19205790Y40369047D02*
X19205790Y39353047D01*
X19967790Y38337047D02*
X19205790Y39353047D01*
X18443790Y39353047D02*
X19967790Y39353047D01*
X1835095Y46113239D02*
X1263666Y46113239D01*
X1149380Y46151334D01*
X1073190Y46227524D01*
X1035095Y46341810D01*
X1035095Y46418000D01*
X1035095Y45351334D02*
X1035095Y45732286D01*
X1835095Y45732286D01*
X1111285Y44627524D02*
X1073190Y44665620D01*
X1035095Y44779905D01*
X1035095Y44856096D01*
X1073190Y44970381D01*
X1149380Y45046572D01*
X1225571Y45084667D01*
X1377952Y45122762D01*
X1492238Y45122762D01*
X1644619Y45084667D01*
X1720809Y45046572D01*
X1797000Y44970381D01*
X1835095Y44856096D01*
X1835095Y44779905D01*
X1797000Y44665620D01*
X1758904Y44627524D01*
X1835095Y44056096D02*
X1263666Y44056096D01*
X1149380Y44094191D01*
X1073190Y44170381D01*
X1035095Y44284667D01*
X1035095Y44360858D01*
X1035095Y43294191D02*
X1035095Y43675143D01*
X1835095Y43675143D01*
X1111285Y42570381D02*
X1073190Y42608477D01*
X1035095Y42722762D01*
X1035095Y42798953D01*
X1073190Y42913239D01*
X1149380Y42989429D01*
X1225571Y43027524D01*
X1377952Y43065620D01*
X1492238Y43065620D01*
X1644619Y43027524D01*
X1720809Y42989429D01*
X1797000Y42913239D01*
X1835095Y42798953D01*
X1835095Y42722762D01*
X1797000Y42608477D01*
X1758904Y42570381D01*
X1835095Y41998953D02*
X1263666Y41998953D01*
X1149380Y42037048D01*
X1073190Y42113239D01*
X1035095Y42227524D01*
X1035095Y42303715D01*
X1035095Y41237048D02*
X1035095Y41618000D01*
X1835095Y41618000D01*
X1111285Y40513239D02*
X1073190Y40551334D01*
X1035095Y40665620D01*
X1035095Y40741810D01*
X1073190Y40856096D01*
X1149380Y40932286D01*
X1225571Y40970381D01*
X1377952Y41008477D01*
X1492238Y41008477D01*
X1644619Y40970381D01*
X1720809Y40932286D01*
X1797000Y40856096D01*
X1835095Y40741810D01*
X1835095Y40665620D01*
X1797000Y40551334D01*
X1758904Y40513239D01*
X1835095Y39941810D02*
X1263666Y39941810D01*
X1149380Y39979905D01*
X1073190Y40056096D01*
X1035095Y40170381D01*
X1035095Y40246572D01*
X1035095Y39179905D02*
X1035095Y39560858D01*
X1835095Y39560858D01*
X1111285Y38456096D02*
X1073190Y38494191D01*
X1035095Y38608477D01*
X1035095Y38684667D01*
X1073190Y38798953D01*
X1149380Y38875143D01*
X1225571Y38913239D01*
X1377952Y38951334D01*
X1492238Y38951334D01*
X1644619Y38913239D01*
X1720809Y38875143D01*
X1797000Y38798953D01*
X1835095Y38684667D01*
X1835095Y38608477D01*
X1797000Y38494191D01*
X1758904Y38456096D01*
X15176523Y18200620D02*
X14700333Y18200620D01*
X14652714Y17724429D01*
X14700333Y17772048D01*
X14795571Y17819667D01*
X15033666Y17819667D01*
X15128904Y17772048D01*
X15176523Y17724429D01*
X15224142Y17629191D01*
X15224142Y17391096D01*
X15176523Y17295858D01*
X15128904Y17248239D01*
X15033666Y17200620D01*
X14795571Y17200620D01*
X14700333Y17248239D01*
X14652714Y17295858D01*
X15509857Y18200620D02*
X15843190Y17200620D01*
X16176523Y18200620D01*
X21613761Y9057000D02*
X21661380Y9199858D01*
X21661380Y9437953D01*
X21613761Y9533191D01*
X21566142Y9580810D01*
X21470904Y9628429D01*
X21375666Y9628429D01*
X21280428Y9580810D01*
X21232809Y9533191D01*
X21185190Y9437953D01*
X21137571Y9247477D01*
X21089952Y9152239D01*
X21042333Y9104620D01*
X20947095Y9057000D01*
X20851857Y9057000D01*
X20756619Y9104620D01*
X20709000Y9152239D01*
X20661380Y9247477D01*
X20661380Y9485572D01*
X20709000Y9628429D01*
X20613761Y10771286D02*
X21899476Y9914143D01*
X21661380Y11104620D02*
X20661380Y11104620D01*
X20661380Y11342715D01*
X20709000Y11485572D01*
X20804238Y11580810D01*
X20899476Y11628429D01*
X21089952Y11676048D01*
X21232809Y11676048D01*
X21423285Y11628429D01*
X21518523Y11580810D01*
X21613761Y11485572D01*
X21661380Y11342715D01*
X21661380Y11104620D01*
X22042333Y12390334D02*
X21994714Y12342715D01*
X21851857Y12247477D01*
X21756619Y12199858D01*
X21613761Y12152239D01*
X21375666Y12104620D01*
X21185190Y12104620D01*
X20947095Y12152239D01*
X20804238Y12199858D01*
X20709000Y12247477D01*
X20566142Y12342715D01*
X20518523Y12390334D01*
X20661380Y12961762D02*
X20661380Y13152239D01*
X20709000Y13247477D01*
X20804238Y13342715D01*
X20994714Y13390334D01*
X21328047Y13390334D01*
X21518523Y13342715D01*
X21613761Y13247477D01*
X21661380Y13152239D01*
X21661380Y12961762D01*
X21613761Y12866524D01*
X21518523Y12771286D01*
X21328047Y12723667D01*
X20994714Y12723667D01*
X20804238Y12771286D01*
X20709000Y12866524D01*
X20661380Y12961762D01*
X22042333Y13723667D02*
X21994714Y13771286D01*
X21851857Y13866524D01*
X21756619Y13914143D01*
X21613761Y13961762D01*
X21375666Y14009381D01*
X21185190Y14009381D01*
X20947095Y13961762D01*
X20804238Y13914143D01*
X20709000Y13866524D01*
X20566142Y13771286D01*
X20518523Y13723667D01*
X1327095Y16535381D02*
X1327095Y16916334D01*
X946142Y16954429D01*
X984238Y16916334D01*
X1022333Y16840143D01*
X1022333Y16649667D01*
X984238Y16573477D01*
X946142Y16535381D01*
X869952Y16497286D01*
X679476Y16497286D01*
X603285Y16535381D01*
X565190Y16573477D01*
X527095Y16649667D01*
X527095Y16840143D01*
X565190Y16916334D01*
X603285Y16954429D01*
X1327095Y16268715D02*
X527095Y16002048D01*
X1327095Y15735381D01*
X565190Y22148715D02*
X527095Y22034429D01*
X527095Y21843953D01*
X565190Y21767762D01*
X603285Y21729667D01*
X679476Y21691572D01*
X755666Y21691572D01*
X831857Y21729667D01*
X869952Y21767762D01*
X908047Y21843953D01*
X946142Y21996334D01*
X984238Y22072524D01*
X1022333Y22110620D01*
X1098523Y22148715D01*
X1174714Y22148715D01*
X1250904Y22110620D01*
X1289000Y22072524D01*
X1327095Y21996334D01*
X1327095Y21805858D01*
X1289000Y21691572D01*
X1327095Y21424905D02*
X527095Y21234429D01*
X1098523Y21082048D01*
X527095Y20929667D01*
X1327095Y20739191D01*
X38932952Y54522715D02*
X39694857Y54808429D01*
X38932952Y55094143D01*
X37932952Y55189381D02*
X38504380Y55189381D01*
X38218666Y55189381D02*
X38218666Y54189381D01*
X38313904Y54332239D01*
X38409142Y54427477D01*
X38504380Y54475096D01*
X37552000Y54284620D02*
X37504380Y54237000D01*
X37409142Y54189381D01*
X37171047Y54189381D01*
X37075809Y54237000D01*
X37028190Y54284620D01*
X36980571Y54379858D01*
X36980571Y54475096D01*
X37028190Y54617953D01*
X37599619Y55189381D01*
X36980571Y55189381D01*
X36694857Y54189381D02*
X36361523Y55189381D01*
X36028190Y54189381D01*
X34932952Y55189381D02*
X34932952Y54189381D01*
X34456761Y54522715D02*
X34456761Y55189381D01*
X34456761Y54617953D02*
X34409142Y54570334D01*
X34313904Y54522715D01*
X34171047Y54522715D01*
X34075809Y54570334D01*
X34028190Y54665572D01*
X34028190Y55189381D01*
X33552000Y54522715D02*
X33552000Y55522715D01*
X33552000Y54570334D02*
X33456761Y54522715D01*
X33266285Y54522715D01*
X33171047Y54570334D01*
X33123428Y54617953D01*
X33075809Y54713191D01*
X33075809Y54998905D01*
X33123428Y55094143D01*
X33171047Y55141762D01*
X33266285Y55189381D01*
X33456761Y55189381D01*
X33552000Y55141762D01*
X32218666Y54522715D02*
X32218666Y55189381D01*
X32647238Y54522715D02*
X32647238Y55046524D01*
X32599619Y55141762D01*
X32504380Y55189381D01*
X32361523Y55189381D01*
X32266285Y55141762D01*
X32218666Y55094143D01*
X31885333Y54522715D02*
X31504380Y54522715D01*
X31742476Y54189381D02*
X31742476Y55046524D01*
X31694857Y55141762D01*
X31599619Y55189381D01*
X31504380Y55189381D01*
X31171047Y54522715D02*
X30409142Y54808429D01*
X31171047Y55094143D01*
X10414095Y12057000D02*
X10318857Y12104620D01*
X10176000Y12104620D01*
X10033142Y12057000D01*
X9937904Y11961762D01*
X9890285Y11866524D01*
X9842666Y11676048D01*
X9842666Y11533191D01*
X9890285Y11342715D01*
X9937904Y11247477D01*
X10033142Y11152239D01*
X10176000Y11104620D01*
X10271238Y11104620D01*
X10414095Y11152239D01*
X10461714Y11199858D01*
X10461714Y11533191D01*
X10271238Y11533191D01*
X10890285Y11104620D02*
X10890285Y12104620D01*
X11461714Y11104620D01*
X11461714Y12104620D01*
X11937904Y11104620D02*
X11937904Y12104620D01*
X12176000Y12104620D01*
X12318857Y12057000D01*
X12414095Y11961762D01*
X12461714Y11866524D01*
X12509333Y11676048D01*
X12509333Y11533191D01*
X12461714Y11342715D01*
X12414095Y11247477D01*
X12318857Y11152239D01*
X12176000Y11104620D01*
X11937904Y11104620D01*
X1327095Y19418239D02*
X1327095Y19265858D01*
X1289000Y19189667D01*
X1212809Y19113477D01*
X1060428Y19075381D01*
X793761Y19075381D01*
X641380Y19113477D01*
X565190Y19189667D01*
X527095Y19265858D01*
X527095Y19418239D01*
X565190Y19494429D01*
X641380Y19570620D01*
X793761Y19608715D01*
X1060428Y19608715D01*
X1212809Y19570620D01*
X1289000Y19494429D01*
X1327095Y19418239D01*
X527095Y18732524D02*
X1327095Y18732524D01*
X527095Y18275381D01*
X1327095Y18275381D01*
X12934904Y27260620D02*
X12934904Y26803477D01*
X12934904Y27032048D02*
X12134904Y27032048D01*
X12249190Y26955858D01*
X12325380Y26879667D01*
X12363476Y26803477D01*
X12134904Y27755858D02*
X12134904Y27832048D01*
X12173000Y27908239D01*
X12211095Y27946334D01*
X12287285Y27984429D01*
X12439666Y28022524D01*
X12630142Y28022524D01*
X12782523Y27984429D01*
X12858714Y27946334D01*
X12896809Y27908239D01*
X12934904Y27832048D01*
X12934904Y27755858D01*
X12896809Y27679667D01*
X12858714Y27641572D01*
X12782523Y27603477D01*
X12630142Y27565381D01*
X12439666Y27565381D01*
X12287285Y27603477D01*
X12211095Y27641572D01*
X12173000Y27679667D01*
X12134904Y27755858D01*
X12934904Y28365381D02*
X12134904Y28365381D01*
X12934904Y28822524D02*
X12477761Y28479667D01*
X12134904Y28822524D02*
X12592047Y28365381D01*
X12934904Y23323667D02*
X12934904Y22866524D01*
X12934904Y23095096D02*
X12134904Y23095096D01*
X12249190Y23018905D01*
X12325380Y22942715D01*
X12363476Y22866524D01*
X12134904Y23818905D02*
X12134904Y23895096D01*
X12173000Y23971286D01*
X12211095Y24009381D01*
X12287285Y24047477D01*
X12439666Y24085572D01*
X12630142Y24085572D01*
X12782523Y24047477D01*
X12858714Y24009381D01*
X12896809Y23971286D01*
X12934904Y23895096D01*
X12934904Y23818905D01*
X12896809Y23742715D01*
X12858714Y23704620D01*
X12782523Y23666524D01*
X12630142Y23628429D01*
X12439666Y23628429D01*
X12287285Y23666524D01*
X12211095Y23704620D01*
X12173000Y23742715D01*
X12134904Y23818905D01*
X12134904Y24580810D02*
X12134904Y24657000D01*
X12173000Y24733191D01*
X12211095Y24771286D01*
X12287285Y24809381D01*
X12439666Y24847477D01*
X12630142Y24847477D01*
X12782523Y24809381D01*
X12858714Y24771286D01*
X12896809Y24733191D01*
X12934904Y24657000D01*
X12934904Y24580810D01*
X12896809Y24504620D01*
X12858714Y24466524D01*
X12782523Y24428429D01*
X12630142Y24390334D01*
X12439666Y24390334D01*
X12287285Y24428429D01*
X12211095Y24466524D01*
X12173000Y24504620D01*
X12134904Y24580810D01*
X12934904Y25190334D02*
X12134904Y25190334D01*
X12934904Y25647477D02*
X12477761Y25304620D01*
X12134904Y25647477D02*
X12592047Y25190334D01*
X7635952Y5897620D02*
X7064523Y5897620D01*
X7350238Y5897620D02*
X7350238Y6897620D01*
X7255000Y6754762D01*
X7159761Y6659524D01*
X7064523Y6611905D01*
X8016904Y6802381D02*
X8064523Y6850000D01*
X8159761Y6897620D01*
X8397857Y6897620D01*
X8493095Y6850000D01*
X8540714Y6802381D01*
X8588333Y6707143D01*
X8588333Y6611905D01*
X8540714Y6469048D01*
X7969285Y5897620D01*
X8588333Y5897620D01*
X8874047Y6897620D02*
X9207380Y5897620D01*
X9540714Y6897620D01*
X18929428Y51352429D02*
X18929428Y50819096D01*
X18738952Y51657191D02*
X18548476Y51085762D01*
X19043714Y51085762D01*
X19348476Y50819096D02*
X19348476Y51619096D01*
X19805619Y50819096D02*
X19462761Y51276239D01*
X19805619Y51619096D02*
X19348476Y51161953D01*
X20072285Y51619096D02*
X20605619Y51619096D01*
X20262761Y50819096D01*
X1289000Y23793477D02*
X1327095Y23869667D01*
X1327095Y23983953D01*
X1289000Y24098239D01*
X1212809Y24174429D01*
X1136619Y24212524D01*
X984238Y24250620D01*
X869952Y24250620D01*
X717571Y24212524D01*
X641380Y24174429D01*
X565190Y24098239D01*
X527095Y23983953D01*
X527095Y23907762D01*
X565190Y23793477D01*
X603285Y23755381D01*
X869952Y23755381D01*
X869952Y23907762D01*
X20661380Y20955191D02*
X20661380Y21145667D01*
X20709000Y21240905D01*
X20804238Y21336143D01*
X20994714Y21383762D01*
X21328047Y21383762D01*
X21518523Y21336143D01*
X21613761Y21240905D01*
X21661380Y21145667D01*
X21661380Y20955191D01*
X21613761Y20859953D01*
X21518523Y20764715D01*
X21328047Y20717096D01*
X20994714Y20717096D01*
X20804238Y20764715D01*
X20709000Y20859953D01*
X20661380Y20955191D01*
X21661380Y21812334D02*
X20661380Y21812334D01*
X21661380Y22383762D01*
X20661380Y22383762D01*
X22042333Y23145667D02*
X21994714Y23098048D01*
X21851857Y23002810D01*
X21756619Y22955191D01*
X21613761Y22907572D01*
X21375666Y22859953D01*
X21185190Y22859953D01*
X20947095Y22907572D01*
X20804238Y22955191D01*
X20709000Y23002810D01*
X20566142Y23098048D01*
X20518523Y23145667D01*
X21661380Y23526620D02*
X20661380Y23526620D01*
X22042333Y23907572D02*
X21994714Y23955191D01*
X21851857Y24050429D01*
X21756619Y24098048D01*
X21613761Y24145667D01*
X21375666Y24193286D01*
X21185190Y24193286D01*
X20947095Y24145667D01*
X20804238Y24098048D01*
X20709000Y24050429D01*
X20566142Y23955191D01*
X20518523Y23907572D01*
X15255952Y20248620D02*
X14684523Y20248620D01*
X14970238Y20248620D02*
X14970238Y21248620D01*
X14875000Y21105762D01*
X14779761Y21010524D01*
X14684523Y20962905D01*
X15636904Y21153381D02*
X15684523Y21201000D01*
X15779761Y21248620D01*
X16017857Y21248620D01*
X16113095Y21201000D01*
X16160714Y21153381D01*
X16208333Y21058143D01*
X16208333Y20962905D01*
X16160714Y20820048D01*
X15589285Y20248620D01*
X16208333Y20248620D01*
X16494047Y21248620D02*
X16827380Y20248620D01*
X17160714Y21248620D01*
X28638333Y57491381D02*
X28305000Y58491381D01*
X27971666Y57491381D01*
X27066904Y58396143D02*
X27114523Y58443762D01*
X27257380Y58491381D01*
X27352619Y58491381D01*
X27495476Y58443762D01*
X27590714Y58348524D01*
X27638333Y58253286D01*
X27685952Y58062810D01*
X27685952Y57919953D01*
X27638333Y57729477D01*
X27590714Y57634239D01*
X27495476Y57539000D01*
X27352619Y57491381D01*
X27257380Y57491381D01*
X27114523Y57539000D01*
X27066904Y57586620D01*
X26066904Y58396143D02*
X26114523Y58443762D01*
X26257380Y58491381D01*
X26352619Y58491381D01*
X26495476Y58443762D01*
X26590714Y58348524D01*
X26638333Y58253286D01*
X26685952Y58062810D01*
X26685952Y57919953D01*
X26638333Y57729477D01*
X26590714Y57634239D01*
X26495476Y57539000D01*
X26352619Y57491381D01*
X26257380Y57491381D01*
X26114523Y57539000D01*
X26066904Y57586620D01*
X25876447Y2698696D02*
X26143114Y1898696D01*
X26409780Y2698696D01*
X28924066Y2660600D02*
X28847876Y2698696D01*
X28733590Y2698696D01*
X28619304Y2660600D01*
X28543114Y2584410D01*
X28505019Y2508220D01*
X28466923Y2355839D01*
X28466923Y2241553D01*
X28505019Y2089172D01*
X28543114Y2012981D01*
X28619304Y1936791D01*
X28733590Y1898696D01*
X28809780Y1898696D01*
X28924066Y1936791D01*
X28962161Y1974886D01*
X28962161Y2241553D01*
X28809780Y2241553D01*
X42843400Y45491324D02*
X42881495Y45567515D01*
X42881495Y45681800D01*
X42843400Y45796086D01*
X42767209Y45872277D01*
X42691019Y45910372D01*
X42538638Y45948467D01*
X42424352Y45948467D01*
X42271971Y45910372D01*
X42195780Y45872277D01*
X42119590Y45796086D01*
X42081495Y45681800D01*
X42081495Y45605610D01*
X42119590Y45491324D01*
X42157685Y45453229D01*
X42424352Y45453229D01*
X42424352Y45605610D01*
X42081495Y45110372D02*
X42881495Y45110372D01*
X42081495Y44653229D01*
X42881495Y44653229D01*
X42081495Y44272277D02*
X42881495Y44272277D01*
X42881495Y44081800D01*
X42843400Y43967515D01*
X42767209Y43891324D01*
X42691019Y43853229D01*
X42538638Y43815134D01*
X42424352Y43815134D01*
X42271971Y43853229D01*
X42195780Y43891324D01*
X42119590Y43967515D01*
X42081495Y44081800D01*
X42081495Y44272277D01*
X34715647Y2749496D02*
X34982314Y1949496D01*
X35248980Y2749496D01*
X37763266Y2711400D02*
X37687076Y2749496D01*
X37572790Y2749496D01*
X37458504Y2711400D01*
X37382314Y2635210D01*
X37344219Y2559020D01*
X37306123Y2406639D01*
X37306123Y2292353D01*
X37344219Y2139972D01*
X37382314Y2063781D01*
X37458504Y1987591D01*
X37572790Y1949496D01*
X37648980Y1949496D01*
X37763266Y1987591D01*
X37801361Y2025686D01*
X37801361Y2292353D01*
X37648980Y2292353D01*
X6770904Y34917000D02*
X6675666Y34964620D01*
X6532809Y34964620D01*
X6389952Y34917000D01*
X6294714Y34821762D01*
X6247095Y34726524D01*
X6199476Y34536048D01*
X6199476Y34393191D01*
X6247095Y34202715D01*
X6294714Y34107477D01*
X6389952Y34012239D01*
X6532809Y33964620D01*
X6628047Y33964620D01*
X6770904Y34012239D01*
X6818523Y34059858D01*
X6818523Y34393191D01*
X6628047Y34393191D01*
X7723285Y34964620D02*
X7247095Y34964620D01*
X7199476Y34488429D01*
X7247095Y34536048D01*
X7342333Y34583667D01*
X7580428Y34583667D01*
X7675666Y34536048D01*
X7723285Y34488429D01*
X7770904Y34393191D01*
X7770904Y34155096D01*
X7723285Y34059858D01*
X7675666Y34012239D01*
X7580428Y33964620D01*
X7342333Y33964620D01*
X7247095Y34012239D01*
X7199476Y34059858D01*
X8056619Y34964620D02*
X8389952Y33964620D01*
X8723285Y34964620D01*
X9056619Y34345572D02*
X9818523Y34345572D01*
X10818523Y33964620D02*
X10247095Y33964620D01*
X10532809Y33964620D02*
X10532809Y34964620D01*
X10437571Y34821762D01*
X10342333Y34726524D01*
X10247095Y34678905D01*
X42843400Y26085724D02*
X42881495Y26161915D01*
X42881495Y26276200D01*
X42843400Y26390486D01*
X42767209Y26466677D01*
X42691019Y26504772D01*
X42538638Y26542867D01*
X42424352Y26542867D01*
X42271971Y26504772D01*
X42195780Y26466677D01*
X42119590Y26390486D01*
X42081495Y26276200D01*
X42081495Y26200010D01*
X42119590Y26085724D01*
X42157685Y26047629D01*
X42424352Y26047629D01*
X42424352Y26200010D01*
X42081495Y25704772D02*
X42881495Y25704772D01*
X42081495Y25247629D01*
X42881495Y25247629D01*
X42081495Y24866677D02*
X42881495Y24866677D01*
X42881495Y24676200D01*
X42843400Y24561915D01*
X42767209Y24485724D01*
X42691019Y24447629D01*
X42538638Y24409534D01*
X42424352Y24409534D01*
X42271971Y24447629D01*
X42195780Y24485724D01*
X42119590Y24561915D01*
X42081495Y24676200D01*
X42081495Y24866677D01*
X16935647Y2749496D02*
X17202314Y1949496D01*
X17468980Y2749496D01*
X19983266Y2711400D02*
X19907076Y2749496D01*
X19792790Y2749496D01*
X19678504Y2711400D01*
X19602314Y2635210D01*
X19564219Y2559020D01*
X19526123Y2406639D01*
X19526123Y2292353D01*
X19564219Y2139972D01*
X19602314Y2063781D01*
X19678504Y1987591D01*
X19792790Y1949496D01*
X19868980Y1949496D01*
X19983266Y1987591D01*
X20021361Y2025686D01*
X20021361Y2292353D01*
X19868980Y2292353D01*
X3746666Y12104620D02*
X4080000Y11104620D01*
X4413333Y12104620D01*
X5318095Y11199858D02*
X5270476Y11152239D01*
X5127619Y11104620D01*
X5032380Y11104620D01*
X4889523Y11152239D01*
X4794285Y11247477D01*
X4746666Y11342715D01*
X4699047Y11533191D01*
X4699047Y11676048D01*
X4746666Y11866524D01*
X4794285Y11961762D01*
X4889523Y12057000D01*
X5032380Y12104620D01*
X5127619Y12104620D01*
X5270476Y12057000D01*
X5318095Y12009381D01*
X6318095Y11199858D02*
X6270476Y11152239D01*
X6127619Y11104620D01*
X6032380Y11104620D01*
X5889523Y11152239D01*
X5794285Y11247477D01*
X5746666Y11342715D01*
X5699047Y11533191D01*
X5699047Y11676048D01*
X5746666Y11866524D01*
X5794285Y11961762D01*
X5889523Y12057000D01*
X6032380Y12104620D01*
X6127619Y12104620D01*
X6270476Y12057000D01*
X6318095Y12009381D01*
X16452904Y23209381D02*
X16452904Y23704620D01*
X16757666Y23437953D01*
X16757666Y23552239D01*
X16795761Y23628429D01*
X16833857Y23666524D01*
X16910047Y23704620D01*
X17100523Y23704620D01*
X17176714Y23666524D01*
X17214809Y23628429D01*
X17252904Y23552239D01*
X17252904Y23323667D01*
X17214809Y23247477D01*
X17176714Y23209381D01*
X16452904Y24199858D02*
X16452904Y24276048D01*
X16491000Y24352239D01*
X16529095Y24390334D01*
X16605285Y24428429D01*
X16757666Y24466524D01*
X16948142Y24466524D01*
X17100523Y24428429D01*
X17176714Y24390334D01*
X17214809Y24352239D01*
X17252904Y24276048D01*
X17252904Y24199858D01*
X17214809Y24123667D01*
X17176714Y24085572D01*
X17100523Y24047477D01*
X16948142Y24009381D01*
X16757666Y24009381D01*
X16605285Y24047477D01*
X16529095Y24085572D01*
X16491000Y24123667D01*
X16452904Y24199858D01*
X17252904Y24809381D02*
X16452904Y24809381D01*
X17252904Y25266524D02*
X16795761Y24923667D01*
X16452904Y25266524D02*
X16910047Y24809381D01*
X12890523Y2198620D02*
X12414333Y2198620D01*
X12366714Y1722429D01*
X12414333Y1770048D01*
X12509571Y1817667D01*
X12747666Y1817667D01*
X12842904Y1770048D01*
X12890523Y1722429D01*
X12938142Y1627191D01*
X12938142Y1389096D01*
X12890523Y1293858D01*
X12842904Y1246239D01*
X12747666Y1198620D01*
X12509571Y1198620D01*
X12414333Y1246239D01*
X12366714Y1293858D01*
X13223857Y2198620D02*
X13557190Y1198620D01*
X13890523Y2198620D01*
X7596523Y4151286D02*
X6834619Y3865572D01*
X7596523Y3579858D01*
X8263190Y4484620D02*
X8453666Y4484620D01*
X8548904Y4437000D01*
X8644142Y4341762D01*
X8691761Y4151286D01*
X8691761Y3817953D01*
X8644142Y3627477D01*
X8548904Y3532239D01*
X8453666Y3484620D01*
X8263190Y3484620D01*
X8167952Y3532239D01*
X8072714Y3627477D01*
X8025095Y3817953D01*
X8025095Y4151286D01*
X8072714Y4341762D01*
X8167952Y4437000D01*
X8263190Y4484620D01*
X9548904Y4151286D02*
X9548904Y3484620D01*
X9120333Y4151286D02*
X9120333Y3627477D01*
X9167952Y3532239D01*
X9263190Y3484620D01*
X9406047Y3484620D01*
X9501285Y3532239D01*
X9548904Y3579858D01*
X9882238Y4151286D02*
X10263190Y4151286D01*
X10025095Y4484620D02*
X10025095Y3627477D01*
X10072714Y3532239D01*
X10167952Y3484620D01*
X10263190Y3484620D01*
X10596523Y4151286D02*
X10596523Y3151286D01*
X10596523Y4103667D02*
X10691761Y4151286D01*
X10882238Y4151286D01*
X10977476Y4103667D01*
X11025095Y4056048D01*
X11072714Y3960810D01*
X11072714Y3675096D01*
X11025095Y3579858D01*
X10977476Y3532239D01*
X10882238Y3484620D01*
X10691761Y3484620D01*
X10596523Y3532239D01*
X11929857Y4151286D02*
X11929857Y3484620D01*
X11501285Y4151286D02*
X11501285Y3627477D01*
X11548904Y3532239D01*
X11644142Y3484620D01*
X11787000Y3484620D01*
X11882238Y3532239D01*
X11929857Y3579858D01*
X12263190Y4151286D02*
X12644142Y4151286D01*
X12406047Y4484620D02*
X12406047Y3627477D01*
X12453666Y3532239D01*
X12548904Y3484620D01*
X12644142Y3484620D01*
X12977476Y4151286D02*
X13739380Y3865572D01*
X12977476Y3579858D01*
X20319904Y57539000D02*
X20415142Y57491381D01*
X20558000Y57491381D01*
X20700857Y57539000D01*
X20796095Y57634239D01*
X20843714Y57729477D01*
X20891333Y57919953D01*
X20891333Y58062810D01*
X20843714Y58253286D01*
X20796095Y58348524D01*
X20700857Y58443762D01*
X20558000Y58491381D01*
X20462761Y58491381D01*
X20319904Y58443762D01*
X20272285Y58396143D01*
X20272285Y58062810D01*
X20462761Y58062810D01*
X19843714Y58491381D02*
X19843714Y57491381D01*
X19272285Y58491381D01*
X19272285Y57491381D01*
X18796095Y58491381D02*
X18796095Y57491381D01*
X18558000Y57491381D01*
X18415142Y57539000D01*
X18319904Y57634239D01*
X18272285Y57729477D01*
X18224666Y57919953D01*
X18224666Y58062810D01*
X18272285Y58253286D01*
X18319904Y58348524D01*
X18415142Y58443762D01*
X18558000Y58491381D01*
X18796095Y58491381D01*
X23514104Y24409534D02*
X24314104Y24676200D01*
X23514104Y24942867D01*
X24237914Y25666677D02*
X24276009Y25628581D01*
X24314104Y25514296D01*
X24314104Y25438105D01*
X24276009Y25323820D01*
X24199819Y25247629D01*
X24123628Y25209534D01*
X23971247Y25171439D01*
X23856961Y25171439D01*
X23704580Y25209534D01*
X23628390Y25247629D01*
X23552200Y25323820D01*
X23514104Y25438105D01*
X23514104Y25514296D01*
X23552200Y25628581D01*
X23590295Y25666677D01*
X24237914Y26466677D02*
X24276009Y26428581D01*
X24314104Y26314296D01*
X24314104Y26238105D01*
X24276009Y26123820D01*
X24199819Y26047629D01*
X24123628Y26009534D01*
X23971247Y25971439D01*
X23856961Y25971439D01*
X23704580Y26009534D01*
X23628390Y26047629D01*
X23552200Y26123820D01*
X23514104Y26238105D01*
X23514104Y26314296D01*
X23552200Y26428581D01*
X23590295Y26466677D01*
X4771142Y56856334D02*
X5247333Y56856334D01*
X4675904Y56570620D02*
X5009238Y57570620D01*
X5342571Y56570620D01*
X5675904Y56570620D02*
X5675904Y57237286D01*
X5675904Y57142048D02*
X5723523Y57189667D01*
X5818761Y57237286D01*
X5961619Y57237286D01*
X6056857Y57189667D01*
X6104476Y57094429D01*
X6104476Y56570620D01*
X6104476Y57094429D02*
X6152095Y57189667D01*
X6247333Y57237286D01*
X6390190Y57237286D01*
X6485428Y57189667D01*
X6533047Y57094429D01*
X6533047Y56570620D01*
X7152095Y56570620D02*
X7056857Y56618239D01*
X7009238Y56665858D01*
X6961619Y56761096D01*
X6961619Y57046810D01*
X7009238Y57142048D01*
X7056857Y57189667D01*
X7152095Y57237286D01*
X7294952Y57237286D01*
X7390190Y57189667D01*
X7437809Y57142048D01*
X7485428Y57046810D01*
X7485428Y56761096D01*
X7437809Y56665858D01*
X7390190Y56618239D01*
X7294952Y56570620D01*
X7152095Y56570620D01*
X7866380Y56618239D02*
X7961619Y56570620D01*
X8152095Y56570620D01*
X8247333Y56618239D01*
X8294952Y56713477D01*
X8294952Y56761096D01*
X8247333Y56856334D01*
X8152095Y56903953D01*
X8009238Y56903953D01*
X7914000Y56951572D01*
X7866380Y57046810D01*
X7866380Y57094429D01*
X7914000Y57189667D01*
X8009238Y57237286D01*
X8152095Y57237286D01*
X8247333Y57189667D01*
X10056857Y56570620D02*
X9723523Y57046810D01*
X9485428Y56570620D02*
X9485428Y57570620D01*
X9866380Y57570620D01*
X9961619Y57523000D01*
X10009238Y57475381D01*
X10056857Y57380143D01*
X10056857Y57237286D01*
X10009238Y57142048D01*
X9961619Y57094429D01*
X9866380Y57046810D01*
X9485428Y57046810D01*
X10914000Y56570620D02*
X10914000Y57094429D01*
X10866380Y57189667D01*
X10771142Y57237286D01*
X10580666Y57237286D01*
X10485428Y57189667D01*
X10914000Y56618239D02*
X10818761Y56570620D01*
X10580666Y56570620D01*
X10485428Y56618239D01*
X10437809Y56713477D01*
X10437809Y56808715D01*
X10485428Y56903953D01*
X10580666Y56951572D01*
X10818761Y56951572D01*
X10914000Y56999191D01*
X11342571Y56618239D02*
X11437809Y56570620D01*
X11628285Y56570620D01*
X11723523Y56618239D01*
X11771142Y56713477D01*
X11771142Y56761096D01*
X11723523Y56856334D01*
X11628285Y56903953D01*
X11485428Y56903953D01*
X11390190Y56951572D01*
X11342571Y57046810D01*
X11342571Y57094429D01*
X11390190Y57189667D01*
X11485428Y57237286D01*
X11628285Y57237286D01*
X11723523Y57189667D01*
X12199714Y57237286D02*
X12199714Y56237286D01*
X12199714Y57189667D02*
X12294952Y57237286D01*
X12485428Y57237286D01*
X12580666Y57189667D01*
X12628285Y57142048D01*
X12675904Y57046810D01*
X12675904Y56761096D01*
X12628285Y56665858D01*
X12580666Y56618239D01*
X12485428Y56570620D01*
X12294952Y56570620D01*
X12199714Y56618239D01*
X13104476Y56951572D02*
X13866380Y56951572D01*
X14342571Y56570620D02*
X14342571Y57570620D01*
X14723523Y57570620D01*
X14818761Y57523000D01*
X14866380Y57475381D01*
X14914000Y57380143D01*
X14914000Y57237286D01*
X14866380Y57142048D01*
X14818761Y57094429D01*
X14723523Y57046810D01*
X14342571Y57046810D01*
X15342571Y56570620D02*
X15342571Y57570620D01*
X15675904Y56856334D01*
X16009238Y57570620D01*
X16009238Y56570620D01*
X23564904Y43764334D02*
X24364904Y44031000D01*
X23564904Y44297667D01*
X24288714Y45021477D02*
X24326809Y44983381D01*
X24364904Y44869096D01*
X24364904Y44792905D01*
X24326809Y44678620D01*
X24250619Y44602429D01*
X24174428Y44564334D01*
X24022047Y44526239D01*
X23907761Y44526239D01*
X23755380Y44564334D01*
X23679190Y44602429D01*
X23603000Y44678620D01*
X23564904Y44792905D01*
X23564904Y44869096D01*
X23603000Y44983381D01*
X23641095Y45021477D01*
X24288714Y45821477D02*
X24326809Y45783381D01*
X24364904Y45669096D01*
X24364904Y45592905D01*
X24326809Y45478620D01*
X24250619Y45402429D01*
X24174428Y45364334D01*
X24022047Y45326239D01*
X23907761Y45326239D01*
X23755380Y45364334D01*
X23679190Y45402429D01*
X23603000Y45478620D01*
X23564904Y45592905D01*
X23564904Y45669096D01*
X23603000Y45783381D01*
X23641095Y45821477D01*
X13009714Y54792620D02*
X12676380Y55268810D01*
X12438285Y54792620D02*
X12438285Y55792620D01*
X12819238Y55792620D01*
X12914476Y55745000D01*
X12962095Y55697381D01*
X13009714Y55602143D01*
X13009714Y55459286D01*
X12962095Y55364048D01*
X12914476Y55316429D01*
X12819238Y55268810D01*
X12438285Y55268810D01*
X13819238Y54840239D02*
X13724000Y54792620D01*
X13533523Y54792620D01*
X13438285Y54840239D01*
X13390666Y54935477D01*
X13390666Y55316429D01*
X13438285Y55411667D01*
X13533523Y55459286D01*
X13724000Y55459286D01*
X13819238Y55411667D01*
X13866857Y55316429D01*
X13866857Y55221191D01*
X13390666Y55125953D01*
X14200190Y55459286D02*
X14438285Y54792620D01*
X14676380Y55459286D01*
X15057333Y54887858D02*
X15104952Y54840239D01*
X15057333Y54792620D01*
X15009714Y54840239D01*
X15057333Y54887858D01*
X15057333Y54792620D01*
X15485904Y55697381D02*
X15533523Y55745000D01*
X15628761Y55792620D01*
X15866857Y55792620D01*
X15962095Y55745000D01*
X16009714Y55697381D01*
X16057333Y55602143D01*
X16057333Y55506905D01*
X16009714Y55364048D01*
X15438285Y54792620D01*
X16057333Y54792620D01*
X1327095Y26809667D02*
X527095Y26543000D01*
X1327095Y26276334D01*
X17252904Y27641572D02*
X17252904Y27184429D01*
X17252904Y27413000D02*
X16452904Y27413000D01*
X16567190Y27336810D01*
X16643380Y27260620D01*
X16681476Y27184429D01*
X17252904Y27984429D02*
X16452904Y27984429D01*
X17252904Y28441572D02*
X16795761Y28098715D01*
X16452904Y28441572D02*
X16910047Y27984429D01*
%TO.C,J1*%
X23071666Y52515620D02*
X23071666Y51801334D01*
X23024047Y51658477D01*
X22928809Y51563239D01*
X22785952Y51515620D01*
X22690714Y51515620D01*
X24071666Y51515620D02*
X23500238Y51515620D01*
X23785952Y51515620D02*
X23785952Y52515620D01*
X23690714Y52372762D01*
X23595476Y52277524D01*
X23500238Y52229905D01*
%TO.C,D2*%
X21356580Y38022305D02*
X20356580Y38022305D01*
X20356580Y38260400D01*
X20404200Y38403258D01*
X20499438Y38498496D01*
X20594676Y38546115D01*
X20785152Y38593734D01*
X20928009Y38593734D01*
X21118485Y38546115D01*
X21213723Y38498496D01*
X21308961Y38403258D01*
X21356580Y38260400D01*
X21356580Y38022305D01*
X20451819Y38974686D02*
X20404200Y39022305D01*
X20356580Y39117543D01*
X20356580Y39355639D01*
X20404200Y39450877D01*
X20451819Y39498496D01*
X20547057Y39546115D01*
X20642295Y39546115D01*
X20785152Y39498496D01*
X21356580Y38927067D01*
X21356580Y39546115D01*
%TO.C,D3*%
X17710104Y47466324D02*
X16910104Y47466324D01*
X16910104Y47656800D01*
X16948200Y47771086D01*
X17024390Y47847277D01*
X17100580Y47885372D01*
X17252961Y47923467D01*
X17367247Y47923467D01*
X17519628Y47885372D01*
X17595819Y47847277D01*
X17672009Y47771086D01*
X17710104Y47656800D01*
X17710104Y47466324D01*
X16910104Y48190134D02*
X16910104Y48685372D01*
X17214866Y48418705D01*
X17214866Y48532991D01*
X17252961Y48609181D01*
X17291057Y48647277D01*
X17367247Y48685372D01*
X17557723Y48685372D01*
X17633914Y48647277D01*
X17672009Y48609181D01*
X17710104Y48532991D01*
X17710104Y48304420D01*
X17672009Y48228229D01*
X17633914Y48190134D01*
%TO.C,Q1*%
X10210809Y24631705D02*
X10134619Y24669800D01*
X10058428Y24745991D01*
X9944142Y24860277D01*
X9867952Y24898372D01*
X9791761Y24898372D01*
X9829857Y24707896D02*
X9753666Y24745991D01*
X9677476Y24822181D01*
X9639380Y24974562D01*
X9639380Y25241229D01*
X9677476Y25393610D01*
X9753666Y25469800D01*
X9829857Y25507896D01*
X9982238Y25507896D01*
X10058428Y25469800D01*
X10134619Y25393610D01*
X10172714Y25241229D01*
X10172714Y24974562D01*
X10134619Y24822181D01*
X10058428Y24745991D01*
X9982238Y24707896D01*
X9829857Y24707896D01*
X10934619Y24707896D02*
X10477476Y24707896D01*
X10706047Y24707896D02*
X10706047Y25507896D01*
X10629857Y25393610D01*
X10553666Y25317420D01*
X10477476Y25279324D01*
%TO.C,D1*%
X3452904Y30916620D02*
X3452904Y31916620D01*
X3691000Y31916620D01*
X3833857Y31869000D01*
X3929095Y31773762D01*
X3976714Y31678524D01*
X4024333Y31488048D01*
X4024333Y31345191D01*
X3976714Y31154715D01*
X3929095Y31059477D01*
X3833857Y30964239D01*
X3691000Y30916620D01*
X3452904Y30916620D01*
X4976714Y30916620D02*
X4405285Y30916620D01*
X4691000Y30916620D02*
X4691000Y31916620D01*
X4595761Y31773762D01*
X4500523Y31678524D01*
X4405285Y31630905D01*
D11*
%TO.C,DCDC1*%
X41697800Y46229800D02*
X24697800Y46229800D01*
X24697800Y46229800D02*
X24697800Y24229800D01*
X24697800Y24229800D02*
X41697800Y24229800D01*
X41697800Y24229800D02*
X41697800Y46229800D01*
%TO.C,R1*%
X16143500Y27575742D02*
X16143500Y28050258D01*
X15098500Y27575742D02*
X15098500Y28050258D01*
%TO.C,DCDC2*%
X43647000Y50633800D02*
X22647000Y50633800D01*
X22647000Y50633800D02*
X22647000Y7633800D01*
X22647000Y7633800D02*
X43647000Y7633800D01*
X43647000Y7633800D02*
X43647000Y50633800D01*
%TO.C,JP1*%
X8957000Y19177000D02*
X11557000Y19177000D01*
X11557000Y19177000D02*
X11557000Y21777000D01*
X8957000Y20447000D02*
X8957000Y21777000D01*
X8957000Y21777000D02*
X10287000Y21777000D01*
X8957000Y19177000D02*
X8957000Y19117000D01*
X8957000Y19117000D02*
X14157000Y19117000D01*
X14157000Y21777000D02*
X14157000Y19117000D01*
X11557000Y21777000D02*
X14157000Y21777000D01*
%TO.C,R4*%
X15098500Y24494258D02*
X15098500Y24019742D01*
X16143500Y24494258D02*
X16143500Y24019742D01*
%TO.C,D2*%
X22477800Y45535000D02*
X22477800Y34335000D01*
X15977800Y45535000D02*
X22477800Y45535000D01*
X15977800Y45535000D02*
X15977800Y34335000D01*
%TO.C,R2*%
X13320500Y27575742D02*
X13320500Y28050258D01*
X14365500Y27575742D02*
X14365500Y28050258D01*
%TO.C,J3*%
X20557800Y16078200D02*
X20557800Y14748200D01*
X20557800Y17348200D02*
X20557800Y19948200D01*
X20557800Y17348200D02*
X17897800Y17348200D01*
X20557800Y14748200D02*
X19227800Y14748200D01*
X17897800Y17348200D02*
X17897800Y19948200D01*
X20557800Y19948200D02*
X17897800Y19948200D01*
%TO.C,K1*%
X9779000Y40386000D02*
X9779000Y41021000D01*
X11941000Y48103000D02*
X11941000Y35403000D01*
X7214000Y40513000D02*
X9119000Y40513000D01*
X4141000Y48103000D02*
X11941000Y48103000D01*
X6579000Y40386000D02*
X6579000Y41021000D01*
X6579000Y41021000D02*
X7214000Y41021000D01*
X9119000Y40513000D02*
X9119000Y41529000D01*
X9119000Y41529000D02*
X7214000Y41529000D01*
X7595000Y40513000D02*
X8230000Y41529000D01*
X4141000Y35403000D02*
X4141000Y48103000D01*
X12141000Y35203000D02*
X9941000Y35203000D01*
X12141000Y37303000D02*
X12141000Y35203000D01*
X11941000Y35403000D02*
X4141000Y35403000D01*
X7214000Y40513000D02*
X7214000Y41529000D01*
X9779000Y41021000D02*
X9119000Y41021000D01*
%TO.C,J7*%
X22332000Y6651000D02*
X14712000Y6651000D01*
X18022000Y5891000D02*
X19022000Y5891000D01*
X15472000Y1441000D02*
X18522000Y1441000D01*
X15672000Y6941000D02*
X14422000Y6941000D01*
X14712000Y6651000D02*
X14712000Y681000D01*
X21572000Y1441000D02*
X18522000Y1441000D01*
X22322000Y6641000D02*
X20522000Y6641000D01*
X19022000Y5891000D02*
X19022000Y6641000D01*
X18022000Y6641000D02*
X18022000Y5891000D01*
X14722000Y5891000D02*
X16522000Y5891000D01*
X22332000Y681000D02*
X22332000Y6651000D01*
X20522000Y6641000D02*
X20522000Y5891000D01*
X22322000Y5891000D02*
X22322000Y6641000D01*
X19022000Y6641000D02*
X18022000Y6641000D01*
X21572000Y4391000D02*
X21572000Y1441000D01*
X20522000Y5891000D02*
X22322000Y5891000D01*
X14722000Y4391000D02*
X15472000Y4391000D01*
X14422000Y6941000D02*
X14422000Y5691000D01*
X22322000Y4391000D02*
X21572000Y4391000D01*
X15472000Y4391000D02*
X15472000Y1441000D01*
X14722000Y6641000D02*
X14722000Y5891000D01*
X14712000Y681000D02*
X22332000Y681000D01*
X16522000Y6641000D02*
X14722000Y6641000D01*
X16522000Y5891000D02*
X16522000Y6641000D01*
%TO.C,R5*%
X19769858Y50433500D02*
X19295342Y50433500D01*
X19769858Y49388500D02*
X19295342Y49388500D01*
%TO.C,D3*%
X18047600Y48741000D02*
X18047600Y47271000D01*
X20332600Y48741000D02*
X18047600Y48741000D01*
X18047600Y47271000D02*
X20332600Y47271000D01*
%TO.C,J9*%
X32492000Y6651000D02*
X32492000Y681000D01*
X40112000Y681000D02*
X40112000Y6651000D01*
X32502000Y6641000D02*
X32502000Y5891000D01*
X40102000Y6641000D02*
X38302000Y6641000D01*
X39352000Y4391000D02*
X39352000Y1441000D01*
X32502000Y4391000D02*
X33252000Y4391000D01*
X38302000Y5891000D02*
X40102000Y5891000D01*
X35802000Y6641000D02*
X35802000Y5891000D01*
X36802000Y5891000D02*
X36802000Y6641000D01*
X34302000Y5891000D02*
X34302000Y6641000D01*
X36802000Y6641000D02*
X35802000Y6641000D01*
X33452000Y6941000D02*
X32202000Y6941000D01*
X40112000Y6651000D02*
X32492000Y6651000D01*
X32202000Y6941000D02*
X32202000Y5691000D01*
X32502000Y5891000D02*
X34302000Y5891000D01*
X40102000Y5891000D02*
X40102000Y6641000D01*
X35802000Y5891000D02*
X36802000Y5891000D01*
X38302000Y6641000D02*
X38302000Y5891000D01*
X32492000Y681000D02*
X40112000Y681000D01*
X34302000Y6641000D02*
X32502000Y6641000D01*
X40102000Y4391000D02*
X39352000Y4391000D01*
X39352000Y1441000D02*
X36302000Y1441000D01*
X33252000Y4391000D02*
X33252000Y1441000D01*
X33252000Y1441000D02*
X36302000Y1441000D01*
%TO.C,J8*%
X23332000Y6941000D02*
X23332000Y5691000D01*
X26932000Y6641000D02*
X26932000Y5891000D01*
X31242000Y6651000D02*
X23622000Y6651000D01*
X23632000Y4391000D02*
X24382000Y4391000D01*
X24382000Y1441000D02*
X27432000Y1441000D01*
X25432000Y5891000D02*
X25432000Y6641000D01*
X24582000Y6941000D02*
X23332000Y6941000D01*
X31232000Y4391000D02*
X30482000Y4391000D01*
X26932000Y5891000D02*
X27932000Y5891000D01*
X24382000Y4391000D02*
X24382000Y1441000D01*
X27932000Y5891000D02*
X27932000Y6641000D01*
X27932000Y6641000D02*
X26932000Y6641000D01*
X31232000Y5891000D02*
X31232000Y6641000D01*
X30482000Y4391000D02*
X30482000Y1441000D01*
X31232000Y6641000D02*
X29432000Y6641000D01*
X23632000Y6641000D02*
X23632000Y5891000D01*
X23632000Y5891000D02*
X25432000Y5891000D01*
X30482000Y1441000D02*
X27432000Y1441000D01*
X23622000Y681000D02*
X31242000Y681000D01*
X29432000Y5891000D02*
X31232000Y5891000D01*
X25432000Y6641000D02*
X23632000Y6641000D01*
X29432000Y6641000D02*
X29432000Y5891000D01*
X31242000Y681000D02*
X31242000Y6651000D01*
X23622000Y6651000D02*
X23622000Y681000D01*
%TO.C,Q1*%
X11847000Y27559000D02*
X11847000Y26909000D01*
X11847000Y27559000D02*
X11847000Y29234000D01*
X8727000Y27559000D02*
X8727000Y28209000D01*
X8727000Y27559000D02*
X8727000Y26909000D01*
%TO.C,JP2*%
X11557000Y19237000D02*
X14157000Y19237000D01*
X8957000Y16637000D02*
X11557000Y16637000D01*
X8957000Y19237000D02*
X10287000Y19237000D01*
X8957000Y16637000D02*
X8957000Y16577000D01*
X8957000Y16577000D02*
X14157000Y16577000D01*
X8957000Y17907000D02*
X8957000Y19237000D01*
X14157000Y19237000D02*
X14157000Y16577000D01*
X11557000Y16637000D02*
X11557000Y19237000D01*
%TO.C,K2*%
X8001000Y41173000D02*
X4301000Y41173000D01*
X15701000Y52173000D02*
X15701000Y32973000D01*
X6501000Y47173000D02*
X9501000Y47173000D01*
X2001000Y46973000D02*
X2001000Y44673000D01*
X14001000Y44673000D02*
X14001000Y46973000D01*
X14001000Y44673000D02*
X9501000Y44673000D01*
X6501000Y44673000D02*
X2001000Y44673000D01*
X15701000Y52173000D02*
X9201000Y52173000D01*
X301000Y32973000D02*
X301000Y52173000D01*
X6801000Y52173000D02*
X301000Y52173000D01*
X12301000Y36473000D02*
X10001000Y36473000D01*
X15701000Y32973000D02*
X301000Y32973000D01*
X6501000Y42173000D02*
X9501000Y47173000D01*
X8001000Y41173000D02*
X8001000Y39673000D01*
X8001000Y48073000D02*
X8001000Y48973000D01*
X8001000Y39673000D02*
X10701000Y35173000D01*
X9501000Y47173000D02*
X9501000Y42173000D01*
X6501000Y42173000D02*
X6501000Y47173000D01*
X8001000Y48073000D02*
X4301000Y48073000D01*
X9501000Y42173000D02*
X6501000Y42173000D01*
X3701000Y36473000D02*
X6001000Y36473000D01*
X4301000Y41173000D02*
X4301000Y48073000D01*
%TO.C,D1*%
X6251000Y30369000D02*
X10551000Y30369000D01*
X10551000Y30369000D02*
X10551000Y32369000D01*
X10551000Y32369000D02*
X6251000Y32369000D01*
%TO.C,J2*%
X7911000Y29093000D02*
X7161000Y29093000D01*
X2711000Y14743000D02*
X2711000Y21543000D01*
X5661000Y14743000D02*
X2711000Y14743000D01*
X7161000Y17293000D02*
X7911000Y17293000D01*
X7911000Y13993000D02*
X7911000Y15793000D01*
X2711000Y28343000D02*
X2711000Y21543000D01*
X5661000Y29093000D02*
X5661000Y28343000D01*
X7921000Y13983000D02*
X7921000Y29103000D01*
X7921000Y29103000D02*
X1951000Y29103000D01*
X7161000Y13993000D02*
X7911000Y13993000D01*
X7911000Y17293000D02*
X7911000Y25793000D01*
X7911000Y27293000D02*
X7911000Y29093000D01*
X5661000Y13993000D02*
X5661000Y14743000D01*
X1951000Y29103000D02*
X1951000Y13983000D01*
X8211000Y28143000D02*
X8211000Y29393000D01*
X5661000Y28343000D02*
X2711000Y28343000D01*
X7161000Y25793000D02*
X7161000Y17293000D01*
X7161000Y29093000D02*
X7161000Y27293000D01*
X7911000Y15793000D02*
X7161000Y15793000D01*
X7161000Y27293000D02*
X7911000Y27293000D01*
X8211000Y29393000D02*
X6961000Y29393000D01*
X7161000Y15793000D02*
X7161000Y13993000D01*
X1951000Y13983000D02*
X7921000Y13983000D01*
X7911000Y25793000D02*
X7161000Y25793000D01*
%TO.C,R3*%
X14365500Y24494258D02*
X14365500Y24019742D01*
X13320500Y24494258D02*
X13320500Y24019742D01*
%TD*%
%LPC*%
D12*
%TO.C,J1*%
X27305000Y55118000D03*
D13*
X19505000Y55118000D03*
%TD*%
D14*
%TO.C,DCDC1*%
X28879800Y44627800D03*
X26322800Y44679800D03*
X37769800Y44627800D03*
X40309800Y44627800D03*
X26297800Y25604800D03*
X28625800Y25629800D03*
X40309800Y25577800D03*
X38023800Y25577800D03*
%TD*%
D15*
%TO.C,R1*%
X15621000Y26988000D03*
X15621000Y28638000D03*
%TD*%
D16*
%TO.C,DCDC2*%
X42074728Y49064717D03*
X24221890Y49055988D03*
X42069444Y9216627D03*
X24231217Y9207065D03*
%TD*%
D17*
%TO.C,JP1*%
X10287000Y20447000D03*
D18*
X12827000Y20447000D03*
%TD*%
D19*
%TO.C,R4*%
X15621000Y25082000D03*
X15621000Y23432000D03*
%TD*%
D20*
%TO.C,J5*%
X5207000Y9017000D03*
D21*
X11207000Y9017000D03*
%TD*%
D22*
%TO.C,D2*%
X19227800Y43135000D03*
X19227800Y34335000D03*
%TD*%
D15*
%TO.C,R2*%
X13843000Y26988000D03*
X13843000Y28638000D03*
%TD*%
D17*
%TO.C,J3*%
X19227800Y16078200D03*
D18*
X19227800Y18618200D03*
%TD*%
D23*
%TO.C,K1*%
X10541000Y36703000D03*
D24*
X10541000Y39243000D03*
X10541000Y46863000D03*
X5461000Y46863000D03*
X5461000Y39243000D03*
X5461000Y36703000D03*
%TD*%
D25*
%TO.C,J7*%
X17272000Y4191000D03*
D26*
X19772000Y4191000D03*
%TD*%
D27*
%TO.C,R5*%
X20357600Y49911000D03*
X18707600Y49911000D03*
%TD*%
D28*
%TO.C,D3*%
X18745100Y48006000D03*
X20320100Y48006000D03*
%TD*%
D25*
%TO.C,J9*%
X35052000Y4191000D03*
D26*
X37552000Y4191000D03*
%TD*%
D25*
%TO.C,J8*%
X26182000Y4191000D03*
D26*
X28682000Y4191000D03*
%TD*%
D29*
%TO.C,Q1*%
X11237000Y28496500D03*
X9337000Y28496500D03*
X10287000Y26621500D03*
%TD*%
D17*
%TO.C,JP2*%
X10287000Y17907000D03*
D18*
X12827000Y17907000D03*
%TD*%
D30*
%TO.C,K2*%
X8001000Y50673000D03*
X14001000Y36473000D03*
X2001000Y36473000D03*
X2001000Y48673000D03*
X14001000Y48673000D03*
%TD*%
D31*
%TO.C,D1*%
X9751000Y31369000D03*
X6251000Y31369000D03*
%TD*%
D32*
%TO.C,J2*%
X5461000Y26543000D03*
D33*
X5461000Y24043000D03*
X5461000Y21543000D03*
X5461000Y19043000D03*
X5461000Y16543000D03*
%TD*%
D19*
%TO.C,R3*%
X13843000Y25082000D03*
X13843000Y23432000D03*
%TD*%
M02*
