M48
; DRILL file {KiCad (6.0.10)} date Mon Jan 30 20:49:20 2023
; FORMAT={-:-/ absolute / inch / decimal}
; #@! TF.CreationDate,2023-01-30T20:49:20+09:00
; #@! TF.GenerationSoftware,Kicad,Pcbnew,(6.0.10)
; #@! TF.FileFunction,Plated,1,2,PTH
FMAT,2
INCH
; #@! TA.AperFunction,Plated,PTH,ComponentDrill
T1C0.0300
; #@! TA.AperFunction,Plated,PTH,ComponentDrill
T2C0.0374
; #@! TA.AperFunction,Plated,PTH,ComponentDrill
T3C0.0394
; #@! TA.AperFunction,Plated,PTH,ComponentDrill
T4C0.0472
; #@! TA.AperFunction,Plated,PTH,ComponentDrill
T5C0.0512
; #@! TA.AperFunction,Plated,PTH,ComponentDrill
T6C0.0827
%
G90
G05
T1
X1.0298Y1.7609
X1.0298Y1.0129
X1.1298Y1.7609
X1.1298Y1.0129
X1.4809Y1.7609
X1.4809Y1.0129
X1.5809Y1.7609
X1.5809Y1.0129
T2
X0.215Y1.031
X0.215Y0.9326
X0.215Y0.8341
X0.215Y0.7357
X0.215Y0.6373
T3
X0.0748Y1.9582
X0.215Y1.875
X0.215Y1.575
X0.215Y1.475
X0.405Y0.735
X0.405Y0.635
X0.415Y1.875
X0.415Y1.575
X0.415Y1.475
X0.505Y0.735
X0.505Y0.635
X0.5473Y1.9582
X0.68Y0.165
X0.757Y0.735
X0.757Y0.635
X0.7784Y0.165
X0.9536Y1.9313
X0.954Y0.3625
X1.0308Y0.165
X1.1292Y0.165
X1.38Y0.165
X1.4784Y0.165
X1.6563Y0.3629
X1.6565Y1.9317
T4
X0.757Y1.7203
X0.757Y1.3266
T5
X0.0748Y1.4779
X0.313Y2.035
X0.5492Y1.4759
T6
X0.205Y0.337
X0.4412Y0.337
X0.7679Y2.17
X1.075Y2.17
T0
M30
