M48
; DRILL file {KiCad (6.0.9)} date Mon Jan  9 19:57:04 2023
; FORMAT={-:-/ absolute / inch / decimal}
; #@! TF.CreationDate,2023-01-09T19:57:04+09:00
; #@! TF.GenerationSoftware,Kicad,Pcbnew,(6.0.9)
; #@! TF.FileFunction,Plated,1,2,PTH
FMAT,2
INCH
; #@! TA.AperFunction,Plated,PTH,ComponentDrill
T1C0.0300
; #@! TA.AperFunction,Plated,PTH,ComponentDrill
T2C0.0374
; #@! TA.AperFunction,Plated,PTH,ComponentDrill
T3C0.0394
; #@! TA.AperFunction,Plated,PTH,ComponentDrill
T4C0.0472
; #@! TA.AperFunction,Plated,PTH,ComponentDrill
T5C0.0512
; #@! TA.AperFunction,Plated,PTH,ComponentDrill
T6C0.0827
; #@! TA.AperFunction,Plated,PTH,ComponentDrill
T7C0.0984
%
G90
G05
T1
X1.0383Y1.1711
X1.0393Y1.922
X1.13Y1.172
X1.14Y1.92
X1.49Y1.92
X1.5Y1.17
X1.59Y1.92
X1.59Y1.17
T2
X0.22Y1.04
X0.22Y0.9416
X0.22Y0.8431
X0.22Y0.7447
X0.22Y0.6463
T3
X0.22Y1.84
X0.22Y1.54
X0.22Y1.44
X0.41Y0.8
X0.41Y0.7
X0.42Y1.84
X0.42Y1.54
X0.42Y1.44
X0.51Y0.8
X0.51Y0.7
X0.685Y0.16
X0.77Y1.02
X0.77Y0.92
X0.7834Y0.16
X0.9586Y1.9243
X0.959Y0.3555
X1.0358Y0.16
X1.1342Y0.16
X1.385Y0.16
X1.4834Y0.16
X1.6613Y0.3559
X1.6615Y1.9247
T4
X0.76Y1.7619
X0.76Y1.3681
T5
X0.0838Y1.9113
X0.0838Y1.4309
X0.32Y1.99
X0.5562Y1.9113
X0.5562Y1.4309
T6
X0.14Y0.35
X0.4471Y0.35
T7
X0.8029Y2.17
X1.11Y2.17
T0
M30
