%TF.GenerationSoftware,KiCad,Pcbnew,(6.0.9)*%
%TF.CreationDate,2023-01-08T21:07:14+09:00*%
%TF.ProjectId,rasp_power_module,72617370-5f70-46f7-9765-725f6d6f6475,rev?*%
%TF.SameCoordinates,Original*%
%TF.FileFunction,Soldermask,Top*%
%TF.FilePolarity,Negative*%
%FSLAX46Y46*%
G04 Gerber Fmt 4.6, Leading zero omitted, Abs format (unit mm)*
G04 Created by KiCad (PCBNEW (6.0.9)) date 2023-01-08 21:07:14*
%MOMM*%
%LPD*%
G01*
G04 APERTURE LIST*
G04 Aperture macros list*
%AMRoundRect*
0 Rectangle with rounded corners*
0 $1 Rounding radius*
0 $2 $3 $4 $5 $6 $7 $8 $9 X,Y pos of 4 corners*
0 Add a 4 corners polygon primitive as box body*
4,1,4,$2,$3,$4,$5,$6,$7,$8,$9,$2,$3,0*
0 Add four circle primitives for the rounded corners*
1,1,$1+$1,$2,$3*
1,1,$1+$1,$4,$5*
1,1,$1+$1,$6,$7*
1,1,$1+$1,$8,$9*
0 Add four rect primitives between the rounded corners*
20,1,$1+$1,$2,$3,$4,$5,0*
20,1,$1+$1,$4,$5,$6,$7,0*
20,1,$1+$1,$6,$7,$8,$9,0*
20,1,$1+$1,$8,$9,$2,$3,0*%
G04 Aperture macros list end*
%ADD10C,0.150000*%
%ADD11C,0.200000*%
%ADD12C,1.524000*%
%ADD13RoundRect,0.200000X0.275000X-0.200000X0.275000X0.200000X-0.275000X0.200000X-0.275000X-0.200000X0*%
%ADD14R,3.000000X3.000000*%
%ADD15R,1.700000X1.700000*%
%ADD16O,1.700000X1.700000*%
%ADD17RoundRect,0.200000X-0.275000X0.200000X-0.275000X-0.200000X0.275000X-0.200000X0.275000X0.200000X0*%
%ADD18RoundRect,0.250002X-1.699998X-1.699998X1.699998X-1.699998X1.699998X1.699998X-1.699998X1.699998X0*%
%ADD19C,3.900000*%
%ADD20R,3.300000X4.500000*%
%ADD21R,2.000000X2.000000*%
%ADD22C,2.000000*%
%ADD23RoundRect,0.250000X-0.600000X-0.750000X0.600000X-0.750000X0.600000X0.750000X-0.600000X0.750000X0*%
%ADD24O,1.700000X2.000000*%
%ADD25RoundRect,0.218750X0.256250X-0.218750X0.256250X0.218750X-0.256250X0.218750X-0.256250X-0.218750X0*%
%ADD26R,0.450000X0.700000*%
%ADD27C,3.000000*%
%ADD28R,1.300000X1.700000*%
%ADD29RoundRect,0.250000X-0.725000X0.600000X-0.725000X-0.600000X0.725000X-0.600000X0.725000X0.600000X0*%
%ADD30O,1.950000X1.700000*%
G04 APERTURE END LIST*
D10*
G36*
X163068000Y-85852000D02*
G01*
X163068000Y-87884000D01*
X158496000Y-87884000D01*
X158496000Y-83566000D01*
X160782000Y-83566000D01*
X163068000Y-85852000D01*
G37*
X163068000Y-85852000D02*
X163068000Y-87884000D01*
X158496000Y-87884000D01*
X158496000Y-83566000D01*
X160782000Y-83566000D01*
X163068000Y-85852000D01*
D11*
G36*
X151638000Y-87884000D02*
G01*
X146812000Y-87884000D01*
X146812000Y-85852000D01*
X149352000Y-83566000D01*
X151638000Y-83566000D01*
X151638000Y-87884000D01*
G37*
X151638000Y-87884000D02*
X146812000Y-87884000D01*
X146812000Y-85852000D01*
X149352000Y-83566000D01*
X151638000Y-83566000D01*
X151638000Y-87884000D01*
X158242000Y-66294000D02*
X165354000Y-66294000D01*
X165354000Y-66294000D02*
X165354000Y-69088000D01*
X165354000Y-69088000D02*
X158242000Y-69088000D01*
X158242000Y-69088000D02*
X158242000Y-66294000D01*
G36*
X158242000Y-66294000D02*
G01*
X165354000Y-66294000D01*
X165354000Y-69088000D01*
X158242000Y-69088000D01*
X158242000Y-66294000D01*
G37*
D10*
X144526000Y-66294000D02*
X151892000Y-66294000D01*
X151892000Y-66294000D02*
X151892000Y-69088000D01*
X151892000Y-69088000D02*
X144526000Y-69088000D01*
X144526000Y-69088000D02*
X144526000Y-66294000D01*
G36*
X144526000Y-66294000D02*
G01*
X151892000Y-66294000D01*
X151892000Y-69088000D01*
X144526000Y-69088000D01*
X144526000Y-66294000D01*
G37*
D12*
%TO.C,DCDC1*%
X148040000Y-86841000D03*
X150368000Y-86816000D03*
X159766000Y-86868000D03*
X162052000Y-86868000D03*
X148065000Y-67766000D03*
X150622000Y-67818000D03*
X159512000Y-67818000D03*
X162052000Y-67818000D03*
%TD*%
D13*
%TO.C,R1*%
X135890000Y-90995000D03*
X135890000Y-89345000D03*
%TD*%
D14*
%TO.C,DCDC2*%
X163867728Y-67699083D03*
X146014890Y-67707812D03*
X163862444Y-107547173D03*
X146024217Y-107556735D03*
%TD*%
D15*
%TO.C,JP1*%
X132080000Y-97790000D03*
D16*
X134620000Y-97790000D03*
%TD*%
D17*
%TO.C,R4*%
X135890000Y-94551000D03*
X135890000Y-92901000D03*
%TD*%
D18*
%TO.C,J5*%
X125222000Y-107442000D03*
D19*
X133022000Y-107442000D03*
%TD*%
D20*
%TO.C,D2*%
X141224000Y-72435000D03*
X141224000Y-81235000D03*
%TD*%
D13*
%TO.C,R2*%
X134112000Y-89345000D03*
X134112000Y-90995000D03*
%TD*%
D16*
%TO.C,J3*%
X141224000Y-90678000D03*
D15*
X141224000Y-93218000D03*
%TD*%
D21*
%TO.C,K1*%
X132890436Y-80014564D03*
D22*
X132890436Y-77474564D03*
X132890436Y-69854564D03*
X127810436Y-69854564D03*
X127810436Y-77474564D03*
X127810436Y-80014564D03*
%TD*%
D23*
%TO.C,J7*%
X139065000Y-113030000D03*
D24*
X141565000Y-113030000D03*
%TD*%
D17*
%TO.C,R5*%
X141478000Y-103315000D03*
X141478000Y-104965000D03*
%TD*%
D25*
%TO.C,D3*%
X139827000Y-104927500D03*
X139827000Y-103352500D03*
%TD*%
D18*
%TO.C,J1*%
X141388000Y-63246000D03*
D19*
X149188000Y-63246000D03*
%TD*%
D23*
%TO.C,J9*%
X156845000Y-113030000D03*
D24*
X159345000Y-113030000D03*
%TD*%
D23*
%TO.C,J8*%
X147975000Y-113030000D03*
D24*
X150475000Y-113030000D03*
%TD*%
D26*
%TO.C,Q1*%
X131176000Y-90154000D03*
X132476000Y-90154000D03*
X131826000Y-88154000D03*
%TD*%
D15*
%TO.C,JP2*%
X132080000Y-100330000D03*
D16*
X134620000Y-100330000D03*
%TD*%
D27*
%TO.C,K2*%
X130175000Y-66040000D03*
X136175000Y-80240000D03*
X124175000Y-80240000D03*
X124175000Y-68040000D03*
X136175000Y-68040000D03*
%TD*%
D28*
%TO.C,D1*%
X128298000Y-85344000D03*
X131798000Y-85344000D03*
%TD*%
D29*
%TO.C,J2*%
X127254000Y-90170000D03*
D30*
X127254000Y-92670000D03*
X127254000Y-95170000D03*
X127254000Y-97670000D03*
X127254000Y-100170000D03*
%TD*%
D17*
%TO.C,R3*%
X134112000Y-92901000D03*
X134112000Y-94551000D03*
%TD*%
M02*
