%TF.GenerationSoftware,KiCad,Pcbnew,(6.0.10)*%
%TF.CreationDate,2023-02-04T20:42:58+09:00*%
%TF.ProjectId,rasp_power_module,72617370-5f70-46f7-9765-725f6d6f6475,2*%
%TF.SameCoordinates,PX74269e8PY6f4e628*%
%TF.FileFunction,Legend,Top*%
%TF.FilePolarity,Positive*%
%FSLAX46Y46*%
G04 Gerber Fmt 4.6, Leading zero omitted, Abs format (unit mm)*
G04 Created by KiCad (PCBNEW (6.0.10)) date 2023-02-04 20:42:58*
%MOMM*%
%LPD*%
G01*
G04 APERTURE LIST*
G04 Aperture macros list*
%AMRoundRect*
0 Rectangle with rounded corners*
0 $1 Rounding radius*
0 $2 $3 $4 $5 $6 $7 $8 $9 X,Y pos of 4 corners*
0 Add a 4 corners polygon primitive as box body*
4,1,4,$2,$3,$4,$5,$6,$7,$8,$9,$2,$3,0*
0 Add four circle primitives for the rounded corners*
1,1,$1+$1,$2,$3*
1,1,$1+$1,$4,$5*
1,1,$1+$1,$6,$7*
1,1,$1+$1,$8,$9*
0 Add four rect primitives between the rounded corners*
20,1,$1+$1,$2,$3,$4,$5,0*
20,1,$1+$1,$4,$5,$6,$7,0*
20,1,$1+$1,$6,$7,$8,$9,0*
20,1,$1+$1,$8,$9,$2,$3,0*%
G04 Aperture macros list end*
%ADD10C,0.150000*%
%ADD11C,0.120000*%
%ADD12R,3.200000X3.200000*%
%ADD13O,3.200000X3.200000*%
%ADD14C,1.524000*%
%ADD15RoundRect,0.250000X0.450000X-0.262500X0.450000X0.262500X-0.450000X0.262500X-0.450000X-0.262500X0*%
%ADD16R,3.000000X3.000000*%
%ADD17R,1.700000X1.700000*%
%ADD18O,1.700000X1.700000*%
%ADD19RoundRect,0.250000X-0.450000X0.262500X-0.450000X-0.262500X0.450000X-0.262500X0.450000X0.262500X0*%
%ADD20C,3.100000*%
%ADD21RoundRect,0.249999X-1.300001X-1.300001X1.300001X-1.300001X1.300001X1.300001X-1.300001X1.300001X0*%
%ADD22R,2.000000X2.000000*%
%ADD23C,2.000000*%
%ADD24RoundRect,0.250000X-0.600000X-0.750000X0.600000X-0.750000X0.600000X0.750000X-0.600000X0.750000X0*%
%ADD25O,1.700000X2.000000*%
%ADD26RoundRect,0.250000X-0.262500X-0.450000X0.262500X-0.450000X0.262500X0.450000X-0.262500X0.450000X0*%
%ADD27RoundRect,0.243750X-0.243750X-0.456250X0.243750X-0.456250X0.243750X0.456250X-0.243750X0.456250X0*%
%ADD28RoundRect,0.250002X-1.699998X-1.699998X1.699998X-1.699998X1.699998X1.699998X-1.699998X1.699998X0*%
%ADD29C,3.900000*%
%ADD30RoundRect,0.150000X-0.150000X0.587500X-0.150000X-0.587500X0.150000X-0.587500X0.150000X0.587500X0*%
%ADD31C,3.000000*%
%ADD32C,2.500000*%
%ADD33R,1.300000X1.700000*%
%ADD34RoundRect,0.250000X-0.725000X0.600000X-0.725000X-0.600000X0.725000X-0.600000X0.725000X0.600000X0*%
%ADD35O,1.950000X1.700000*%
G04 APERTURE END LIST*
D10*
X10337876Y24999896D02*
X10337876Y24428467D01*
X10299780Y24314181D01*
X10223590Y24237991D01*
X10109304Y24199896D01*
X10033114Y24199896D01*
X10642638Y24999896D02*
X11137876Y24999896D01*
X10871209Y24695134D01*
X10985495Y24695134D01*
X11061685Y24657039D01*
X11099780Y24618943D01*
X11137876Y24542753D01*
X11137876Y24352277D01*
X11099780Y24276086D01*
X11061685Y24237991D01*
X10985495Y24199896D01*
X10756923Y24199896D01*
X10680733Y24237991D01*
X10642638Y24276086D01*
X11633114Y24580848D02*
X11633114Y24199896D01*
X11366447Y24999896D02*
X11633114Y24580848D01*
X11899780Y24999896D01*
X20761000Y18648200D02*
X21209000Y19126200D01*
X21209000Y19126200D02*
X21209000Y20396200D01*
X21209000Y15621000D02*
X21209000Y14351000D01*
X20761000Y16078200D02*
X21209000Y15621000D01*
X15246295Y16281381D02*
X15246295Y16662334D01*
X14865342Y16700429D01*
X14903438Y16662334D01*
X14941533Y16586143D01*
X14941533Y16395667D01*
X14903438Y16319477D01*
X14865342Y16281381D01*
X14789152Y16243286D01*
X14598676Y16243286D01*
X14522485Y16281381D01*
X14484390Y16319477D01*
X14446295Y16395667D01*
X14446295Y16586143D01*
X14484390Y16662334D01*
X14522485Y16700429D01*
X15246295Y16014715D02*
X14446295Y15748048D01*
X15246295Y15481381D01*
X21613761Y9057000D02*
X21661380Y9199858D01*
X21661380Y9437953D01*
X21613761Y9533191D01*
X21566142Y9580810D01*
X21470904Y9628429D01*
X21375666Y9628429D01*
X21280428Y9580810D01*
X21232809Y9533191D01*
X21185190Y9437953D01*
X21137571Y9247477D01*
X21089952Y9152239D01*
X21042333Y9104620D01*
X20947095Y9057000D01*
X20851857Y9057000D01*
X20756619Y9104620D01*
X20709000Y9152239D01*
X20661380Y9247477D01*
X20661380Y9485572D01*
X20709000Y9628429D01*
X20613761Y10771286D02*
X21899476Y9914143D01*
X21661380Y11104620D02*
X20661380Y11104620D01*
X20661380Y11342715D01*
X20709000Y11485572D01*
X20804238Y11580810D01*
X20899476Y11628429D01*
X21089952Y11676048D01*
X21232809Y11676048D01*
X21423285Y11628429D01*
X21518523Y11580810D01*
X21613761Y11485572D01*
X21661380Y11342715D01*
X21661380Y11104620D01*
X22042333Y12390334D02*
X21994714Y12342715D01*
X21851857Y12247477D01*
X21756619Y12199858D01*
X21613761Y12152239D01*
X21375666Y12104620D01*
X21185190Y12104620D01*
X20947095Y12152239D01*
X20804238Y12199858D01*
X20709000Y12247477D01*
X20566142Y12342715D01*
X20518523Y12390334D01*
X20661380Y12961762D02*
X20661380Y13152239D01*
X20709000Y13247477D01*
X20804238Y13342715D01*
X20994714Y13390334D01*
X21328047Y13390334D01*
X21518523Y13342715D01*
X21613761Y13247477D01*
X21661380Y13152239D01*
X21661380Y12961762D01*
X21613761Y12866524D01*
X21518523Y12771286D01*
X21328047Y12723667D01*
X20994714Y12723667D01*
X20804238Y12771286D01*
X20709000Y12866524D01*
X20661380Y12961762D01*
X22042333Y13723667D02*
X21994714Y13771286D01*
X21851857Y13866524D01*
X21756619Y13914143D01*
X21613761Y13961762D01*
X21375666Y14009381D01*
X21185190Y14009381D01*
X20947095Y13961762D01*
X20804238Y13914143D01*
X20709000Y13866524D01*
X20566142Y13771286D01*
X20518523Y13723667D01*
X1377895Y16255839D02*
X1377895Y16636791D01*
X996942Y16674886D01*
X1035038Y16636791D01*
X1073133Y16560600D01*
X1073133Y16370124D01*
X1035038Y16293934D01*
X996942Y16255839D01*
X920752Y16217743D01*
X730276Y16217743D01*
X654085Y16255839D01*
X615990Y16293934D01*
X577895Y16370124D01*
X577895Y16560600D01*
X615990Y16636791D01*
X654085Y16674886D01*
X1377895Y15989172D02*
X577895Y15722505D01*
X1377895Y15455839D01*
X501704Y15379648D02*
X501704Y14770124D01*
X1377895Y14427267D02*
X1377895Y14274886D01*
X1339800Y14198696D01*
X1263609Y14122505D01*
X1111228Y14084410D01*
X844561Y14084410D01*
X692180Y14122505D01*
X615990Y14198696D01*
X577895Y14274886D01*
X577895Y14427267D01*
X615990Y14503458D01*
X692180Y14579648D01*
X844561Y14617743D01*
X1111228Y14617743D01*
X1263609Y14579648D01*
X1339800Y14503458D01*
X1377895Y14427267D01*
X577895Y13741553D02*
X1377895Y13741553D01*
X577895Y13284410D01*
X1377895Y13284410D01*
X565190Y21894715D02*
X527095Y21780429D01*
X527095Y21589953D01*
X565190Y21513762D01*
X603285Y21475667D01*
X679476Y21437572D01*
X755666Y21437572D01*
X831857Y21475667D01*
X869952Y21513762D01*
X908047Y21589953D01*
X946142Y21742334D01*
X984238Y21818524D01*
X1022333Y21856620D01*
X1098523Y21894715D01*
X1174714Y21894715D01*
X1250904Y21856620D01*
X1289000Y21818524D01*
X1327095Y21742334D01*
X1327095Y21551858D01*
X1289000Y21437572D01*
X1327095Y21170905D02*
X527095Y20980429D01*
X1098523Y20828048D01*
X527095Y20675667D01*
X1327095Y20485191D01*
X18729914Y58558086D02*
X17968009Y58272372D01*
X18729914Y57986658D01*
X19206104Y57891420D02*
X19206104Y58891420D01*
X19587057Y58891420D01*
X19682295Y58843800D01*
X19729914Y58796181D01*
X19777533Y58700943D01*
X19777533Y58558086D01*
X19729914Y58462848D01*
X19682295Y58415229D01*
X19587057Y58367610D01*
X19206104Y58367610D01*
X20348961Y57891420D02*
X20253723Y57939039D01*
X20206104Y57986658D01*
X20158485Y58081896D01*
X20158485Y58367610D01*
X20206104Y58462848D01*
X20253723Y58510467D01*
X20348961Y58558086D01*
X20491819Y58558086D01*
X20587057Y58510467D01*
X20634676Y58462848D01*
X20682295Y58367610D01*
X20682295Y58081896D01*
X20634676Y57986658D01*
X20587057Y57939039D01*
X20491819Y57891420D01*
X20348961Y57891420D01*
X21015628Y58558086D02*
X21206104Y57891420D01*
X21396580Y58367610D01*
X21587057Y57891420D01*
X21777533Y58558086D01*
X22539438Y57939039D02*
X22444200Y57891420D01*
X22253723Y57891420D01*
X22158485Y57939039D01*
X22110866Y58034277D01*
X22110866Y58415229D01*
X22158485Y58510467D01*
X22253723Y58558086D01*
X22444200Y58558086D01*
X22539438Y58510467D01*
X22587057Y58415229D01*
X22587057Y58319991D01*
X22110866Y58224753D01*
X23015628Y57891420D02*
X23015628Y58558086D01*
X23015628Y58367610D02*
X23063247Y58462848D01*
X23110866Y58510467D01*
X23206104Y58558086D01*
X23301342Y58558086D01*
X24396580Y57891420D02*
X24396580Y58891420D01*
X24872771Y58558086D02*
X24872771Y57891420D01*
X24872771Y58462848D02*
X24920390Y58510467D01*
X25015628Y58558086D01*
X25158485Y58558086D01*
X25253723Y58510467D01*
X25301342Y58415229D01*
X25301342Y57891420D01*
X25777533Y58558086D02*
X25777533Y57558086D01*
X25777533Y58510467D02*
X25872771Y58558086D01*
X26063247Y58558086D01*
X26158485Y58510467D01*
X26206104Y58462848D01*
X26253723Y58367610D01*
X26253723Y58081896D01*
X26206104Y57986658D01*
X26158485Y57939039D01*
X26063247Y57891420D01*
X25872771Y57891420D01*
X25777533Y57939039D01*
X27110866Y58558086D02*
X27110866Y57891420D01*
X26682295Y58558086D02*
X26682295Y58034277D01*
X26729914Y57939039D01*
X26825152Y57891420D01*
X26968009Y57891420D01*
X27063247Y57939039D01*
X27110866Y57986658D01*
X27444200Y58558086D02*
X27825152Y58558086D01*
X27587057Y58891420D02*
X27587057Y58034277D01*
X27634676Y57939039D01*
X27729914Y57891420D01*
X27825152Y57891420D01*
X28158485Y58558086D02*
X28920390Y58272372D01*
X28158485Y57986658D01*
X10388695Y11549000D02*
X10293457Y11596620D01*
X10150600Y11596620D01*
X10007742Y11549000D01*
X9912504Y11453762D01*
X9864885Y11358524D01*
X9817266Y11168048D01*
X9817266Y11025191D01*
X9864885Y10834715D01*
X9912504Y10739477D01*
X10007742Y10644239D01*
X10150600Y10596620D01*
X10245838Y10596620D01*
X10388695Y10644239D01*
X10436314Y10691858D01*
X10436314Y11025191D01*
X10245838Y11025191D01*
X10864885Y10596620D02*
X10864885Y11596620D01*
X11436314Y10596620D01*
X11436314Y11596620D01*
X11912504Y10596620D02*
X11912504Y11596620D01*
X12150600Y11596620D01*
X12293457Y11549000D01*
X12388695Y11453762D01*
X12436314Y11358524D01*
X12483933Y11168048D01*
X12483933Y11025191D01*
X12436314Y10834715D01*
X12388695Y10739477D01*
X12293457Y10644239D01*
X12150600Y10596620D01*
X11912504Y10596620D01*
X527095Y19183286D02*
X527095Y19564239D01*
X1327095Y19564239D01*
X946142Y18916620D02*
X946142Y18649953D01*
X527095Y18535667D02*
X527095Y18916620D01*
X1327095Y18916620D01*
X1327095Y18535667D01*
X527095Y18192810D02*
X1327095Y18192810D01*
X1327095Y18002334D01*
X1289000Y17888048D01*
X1212809Y17811858D01*
X1136619Y17773762D01*
X984238Y17735667D01*
X869952Y17735667D01*
X717571Y17773762D01*
X641380Y17811858D01*
X565190Y17888048D01*
X527095Y18002334D01*
X527095Y18192810D01*
X9199857Y21502620D02*
X9390333Y21502620D01*
X9485571Y21455000D01*
X9580809Y21359762D01*
X9628428Y21169286D01*
X9628428Y20835953D01*
X9580809Y20645477D01*
X9485571Y20550239D01*
X9390333Y20502620D01*
X9199857Y20502620D01*
X9104619Y20550239D01*
X9009380Y20645477D01*
X8961761Y20835953D01*
X8961761Y21169286D01*
X9009380Y21359762D01*
X9104619Y21455000D01*
X9199857Y21502620D01*
X10057000Y20502620D02*
X10057000Y21502620D01*
X10628428Y20502620D01*
X10628428Y21502620D01*
X10866523Y20407381D02*
X11628428Y20407381D01*
X12342714Y20502620D02*
X11866523Y20502620D01*
X11866523Y21502620D01*
X12676047Y21026429D02*
X13009380Y21026429D01*
X13152238Y20502620D02*
X12676047Y20502620D01*
X12676047Y21502620D01*
X13152238Y21502620D01*
X13580809Y20502620D02*
X13580809Y21502620D01*
X13818904Y21502620D01*
X13961761Y21455000D01*
X14057000Y21359762D01*
X14104619Y21264524D01*
X14152238Y21074048D01*
X14152238Y20931191D01*
X14104619Y20740715D01*
X14057000Y20645477D01*
X13961761Y20550239D01*
X13818904Y20502620D01*
X13580809Y20502620D01*
X1289000Y23488677D02*
X1327095Y23564867D01*
X1327095Y23679153D01*
X1289000Y23793439D01*
X1212809Y23869629D01*
X1136619Y23907724D01*
X984238Y23945820D01*
X869952Y23945820D01*
X717571Y23907724D01*
X641380Y23869629D01*
X565190Y23793439D01*
X527095Y23679153D01*
X527095Y23602962D01*
X565190Y23488677D01*
X603285Y23450581D01*
X869952Y23450581D01*
X869952Y23602962D01*
X20661380Y20955191D02*
X20661380Y21145667D01*
X20709000Y21240905D01*
X20804238Y21336143D01*
X20994714Y21383762D01*
X21328047Y21383762D01*
X21518523Y21336143D01*
X21613761Y21240905D01*
X21661380Y21145667D01*
X21661380Y20955191D01*
X21613761Y20859953D01*
X21518523Y20764715D01*
X21328047Y20717096D01*
X20994714Y20717096D01*
X20804238Y20764715D01*
X20709000Y20859953D01*
X20661380Y20955191D01*
X21661380Y21812334D02*
X20661380Y21812334D01*
X21661380Y22383762D01*
X20661380Y22383762D01*
X22042333Y23145667D02*
X21994714Y23098048D01*
X21851857Y23002810D01*
X21756619Y22955191D01*
X21613761Y22907572D01*
X21375666Y22859953D01*
X21185190Y22859953D01*
X20947095Y22907572D01*
X20804238Y22955191D01*
X20709000Y23002810D01*
X20566142Y23098048D01*
X20518523Y23145667D01*
X21661380Y23526620D02*
X20661380Y23526620D01*
X22042333Y23907572D02*
X21994714Y23955191D01*
X21851857Y24050429D01*
X21756619Y24098048D01*
X21613761Y24145667D01*
X21375666Y24193286D01*
X21185190Y24193286D01*
X20947095Y24145667D01*
X20804238Y24098048D01*
X20709000Y24050429D01*
X20566142Y23955191D01*
X20518523Y23907572D01*
X14446295Y19164239D02*
X14446295Y19621381D01*
X14446295Y19392810D02*
X15246295Y19392810D01*
X15132009Y19469000D01*
X15055819Y19545191D01*
X15017723Y19621381D01*
X15170104Y18859477D02*
X15208200Y18821381D01*
X15246295Y18745191D01*
X15246295Y18554715D01*
X15208200Y18478524D01*
X15170104Y18440429D01*
X15093914Y18402334D01*
X15017723Y18402334D01*
X14903438Y18440429D01*
X14446295Y18897572D01*
X14446295Y18402334D01*
X15246295Y18173762D02*
X14446295Y17907096D01*
X15246295Y17640429D01*
X18975952Y51617620D02*
X18404523Y51617620D01*
X18690238Y51617620D02*
X18690238Y52617620D01*
X18595000Y52474762D01*
X18499761Y52379524D01*
X18404523Y52331905D01*
X19356904Y52522381D02*
X19404523Y52570000D01*
X19499761Y52617620D01*
X19737857Y52617620D01*
X19833095Y52570000D01*
X19880714Y52522381D01*
X19928333Y52427143D01*
X19928333Y52331905D01*
X19880714Y52189048D01*
X19309285Y51617620D01*
X19928333Y51617620D01*
X20214047Y52617620D02*
X20547380Y51617620D01*
X20880714Y52617620D01*
X26041495Y2749496D02*
X25660542Y2749496D01*
X25622447Y2368543D01*
X25660542Y2406639D01*
X25736733Y2444734D01*
X25927209Y2444734D01*
X26003400Y2406639D01*
X26041495Y2368543D01*
X26079590Y2292353D01*
X26079590Y2101877D01*
X26041495Y2025686D01*
X26003400Y1987591D01*
X25927209Y1949496D01*
X25736733Y1949496D01*
X25660542Y1987591D01*
X25622447Y2025686D01*
X26308161Y2749496D02*
X26574828Y1949496D01*
X26841495Y2749496D01*
X28746257Y2711400D02*
X28670066Y2749496D01*
X28555780Y2749496D01*
X28441495Y2711400D01*
X28365304Y2635210D01*
X28327209Y2559020D01*
X28289114Y2406639D01*
X28289114Y2292353D01*
X28327209Y2139972D01*
X28365304Y2063781D01*
X28441495Y1987591D01*
X28555780Y1949496D01*
X28631971Y1949496D01*
X28746257Y1987591D01*
X28784352Y2025686D01*
X28784352Y2292353D01*
X28631971Y2292353D01*
X42741800Y45491324D02*
X42779895Y45567515D01*
X42779895Y45681800D01*
X42741800Y45796086D01*
X42665609Y45872277D01*
X42589419Y45910372D01*
X42437038Y45948467D01*
X42322752Y45948467D01*
X42170371Y45910372D01*
X42094180Y45872277D01*
X42017990Y45796086D01*
X41979895Y45681800D01*
X41979895Y45605610D01*
X42017990Y45491324D01*
X42056085Y45453229D01*
X42322752Y45453229D01*
X42322752Y45605610D01*
X41979895Y45110372D02*
X42779895Y45110372D01*
X41979895Y44653229D01*
X42779895Y44653229D01*
X41979895Y44272277D02*
X42779895Y44272277D01*
X42779895Y44081800D01*
X42741800Y43967515D01*
X42665609Y43891324D01*
X42589419Y43853229D01*
X42437038Y43815134D01*
X42322752Y43815134D01*
X42170371Y43853229D01*
X42094180Y43891324D01*
X42017990Y43967515D01*
X41979895Y44081800D01*
X41979895Y44272277D01*
X34880695Y2749496D02*
X34499742Y2749496D01*
X34461647Y2368543D01*
X34499742Y2406639D01*
X34575933Y2444734D01*
X34766409Y2444734D01*
X34842600Y2406639D01*
X34880695Y2368543D01*
X34918790Y2292353D01*
X34918790Y2101877D01*
X34880695Y2025686D01*
X34842600Y1987591D01*
X34766409Y1949496D01*
X34575933Y1949496D01*
X34499742Y1987591D01*
X34461647Y2025686D01*
X35147361Y2749496D02*
X35414028Y1949496D01*
X35680695Y2749496D01*
X37585457Y2711400D02*
X37509266Y2749496D01*
X37394980Y2749496D01*
X37280695Y2711400D01*
X37204504Y2635210D01*
X37166409Y2559020D01*
X37128314Y2406639D01*
X37128314Y2292353D01*
X37166409Y2139972D01*
X37204504Y2063781D01*
X37280695Y1987591D01*
X37394980Y1949496D01*
X37471171Y1949496D01*
X37585457Y1987591D01*
X37623552Y2025686D01*
X37623552Y2292353D01*
X37471171Y2292353D01*
X6770904Y35679000D02*
X6675666Y35726620D01*
X6532809Y35726620D01*
X6389952Y35679000D01*
X6294714Y35583762D01*
X6247095Y35488524D01*
X6199476Y35298048D01*
X6199476Y35155191D01*
X6247095Y34964715D01*
X6294714Y34869477D01*
X6389952Y34774239D01*
X6532809Y34726620D01*
X6628047Y34726620D01*
X6770904Y34774239D01*
X6818523Y34821858D01*
X6818523Y35155191D01*
X6628047Y35155191D01*
X7723285Y35726620D02*
X7247095Y35726620D01*
X7199476Y35250429D01*
X7247095Y35298048D01*
X7342333Y35345667D01*
X7580428Y35345667D01*
X7675666Y35298048D01*
X7723285Y35250429D01*
X7770904Y35155191D01*
X7770904Y34917096D01*
X7723285Y34821858D01*
X7675666Y34774239D01*
X7580428Y34726620D01*
X7342333Y34726620D01*
X7247095Y34774239D01*
X7199476Y34821858D01*
X8056619Y35726620D02*
X8389952Y34726620D01*
X8723285Y35726620D01*
X9056619Y35107572D02*
X9818523Y35107572D01*
X10818523Y34726620D02*
X10247095Y34726620D01*
X10532809Y34726620D02*
X10532809Y35726620D01*
X10437571Y35583762D01*
X10342333Y35488524D01*
X10247095Y35440905D01*
X42691000Y26136524D02*
X42729095Y26212715D01*
X42729095Y26327000D01*
X42691000Y26441286D01*
X42614809Y26517477D01*
X42538619Y26555572D01*
X42386238Y26593667D01*
X42271952Y26593667D01*
X42119571Y26555572D01*
X42043380Y26517477D01*
X41967190Y26441286D01*
X41929095Y26327000D01*
X41929095Y26250810D01*
X41967190Y26136524D01*
X42005285Y26098429D01*
X42271952Y26098429D01*
X42271952Y26250810D01*
X41929095Y25755572D02*
X42729095Y25755572D01*
X41929095Y25298429D01*
X42729095Y25298429D01*
X41929095Y24917477D02*
X42729095Y24917477D01*
X42729095Y24727000D01*
X42691000Y24612715D01*
X42614809Y24536524D01*
X42538619Y24498429D01*
X42386238Y24460334D01*
X42271952Y24460334D01*
X42119571Y24498429D01*
X42043380Y24536524D01*
X41967190Y24612715D01*
X41929095Y24727000D01*
X41929095Y24917477D01*
X10375933Y31197534D02*
X10375933Y30816581D01*
X10414028Y31197534D02*
X10414028Y30816581D01*
X10452123Y31159439D02*
X10452123Y30854677D01*
X10490219Y31159439D02*
X10490219Y30854677D01*
X10528314Y31159439D02*
X10528314Y30854677D01*
X10566409Y31121343D02*
X10566409Y30892772D01*
X10604504Y31121343D02*
X10604504Y30892772D01*
X10642600Y31121343D02*
X10642600Y30892772D01*
X10680695Y31083248D02*
X10680695Y30930867D01*
X10718790Y31083248D02*
X10718790Y30930867D01*
X10756885Y31045153D02*
X10756885Y30968962D01*
X10794980Y31045153D02*
X10794980Y30968962D01*
X10833076Y31045153D02*
X10833076Y30968962D01*
X10871171Y31007058D02*
X10833076Y31007058D01*
X10337838Y31197534D02*
X10909266Y31007058D01*
X10337838Y30816581D01*
X10947361Y31007058D02*
X10337838Y30778486D01*
X10337838Y31235629D01*
X10947361Y31007058D01*
X17100695Y2749496D02*
X16719742Y2749496D01*
X16681647Y2368543D01*
X16719742Y2406639D01*
X16795933Y2444734D01*
X16986409Y2444734D01*
X17062600Y2406639D01*
X17100695Y2368543D01*
X17138790Y2292353D01*
X17138790Y2101877D01*
X17100695Y2025686D01*
X17062600Y1987591D01*
X16986409Y1949496D01*
X16795933Y1949496D01*
X16719742Y1987591D01*
X16681647Y2025686D01*
X17367361Y2749496D02*
X17634028Y1949496D01*
X17900695Y2749496D01*
X19805457Y2711400D02*
X19729266Y2749496D01*
X19614980Y2749496D01*
X19500695Y2711400D01*
X19424504Y2635210D01*
X19386409Y2559020D01*
X19348314Y2406639D01*
X19348314Y2292353D01*
X19386409Y2139972D01*
X19424504Y2063781D01*
X19500695Y1987591D01*
X19614980Y1949496D01*
X19691171Y1949496D01*
X19805457Y1987591D01*
X19843552Y2025686D01*
X19843552Y2292353D01*
X19691171Y2292353D01*
X4587952Y10647420D02*
X4016523Y10647420D01*
X4302238Y10647420D02*
X4302238Y11647420D01*
X4207000Y11504562D01*
X4111761Y11409324D01*
X4016523Y11361705D01*
X4968904Y11552181D02*
X5016523Y11599800D01*
X5111761Y11647420D01*
X5349857Y11647420D01*
X5445095Y11599800D01*
X5492714Y11552181D01*
X5540333Y11456943D01*
X5540333Y11361705D01*
X5492714Y11218848D01*
X4921285Y10647420D01*
X5540333Y10647420D01*
X5826047Y11647420D02*
X6159380Y10647420D01*
X6492714Y11647420D01*
X7850523Y5116486D02*
X7088619Y4830772D01*
X7850523Y4545058D01*
X8517190Y5449820D02*
X8707666Y5449820D01*
X8802904Y5402200D01*
X8898142Y5306962D01*
X8945761Y5116486D01*
X8945761Y4783153D01*
X8898142Y4592677D01*
X8802904Y4497439D01*
X8707666Y4449820D01*
X8517190Y4449820D01*
X8421952Y4497439D01*
X8326714Y4592677D01*
X8279095Y4783153D01*
X8279095Y5116486D01*
X8326714Y5306962D01*
X8421952Y5402200D01*
X8517190Y5449820D01*
X9802904Y5116486D02*
X9802904Y4449820D01*
X9374333Y5116486D02*
X9374333Y4592677D01*
X9421952Y4497439D01*
X9517190Y4449820D01*
X9660047Y4449820D01*
X9755285Y4497439D01*
X9802904Y4545058D01*
X10136238Y5116486D02*
X10517190Y5116486D01*
X10279095Y5449820D02*
X10279095Y4592677D01*
X10326714Y4497439D01*
X10421952Y4449820D01*
X10517190Y4449820D01*
X10850523Y5116486D02*
X10850523Y4116486D01*
X10850523Y5068867D02*
X10945761Y5116486D01*
X11136238Y5116486D01*
X11231476Y5068867D01*
X11279095Y5021248D01*
X11326714Y4926010D01*
X11326714Y4640296D01*
X11279095Y4545058D01*
X11231476Y4497439D01*
X11136238Y4449820D01*
X10945761Y4449820D01*
X10850523Y4497439D01*
X12183857Y5116486D02*
X12183857Y4449820D01*
X11755285Y5116486D02*
X11755285Y4592677D01*
X11802904Y4497439D01*
X11898142Y4449820D01*
X12041000Y4449820D01*
X12136238Y4497439D01*
X12183857Y4545058D01*
X12517190Y5116486D02*
X12898142Y5116486D01*
X12660047Y5449820D02*
X12660047Y4592677D01*
X12707666Y4497439D01*
X12802904Y4449820D01*
X12898142Y4449820D01*
X13231476Y5116486D02*
X13993380Y4830772D01*
X13231476Y4545058D01*
X26670095Y52570000D02*
X26574857Y52617620D01*
X26432000Y52617620D01*
X26289142Y52570000D01*
X26193904Y52474762D01*
X26146285Y52379524D01*
X26098666Y52189048D01*
X26098666Y52046191D01*
X26146285Y51855715D01*
X26193904Y51760477D01*
X26289142Y51665239D01*
X26432000Y51617620D01*
X26527238Y51617620D01*
X26670095Y51665239D01*
X26717714Y51712858D01*
X26717714Y52046191D01*
X26527238Y52046191D01*
X27146285Y51617620D02*
X27146285Y52617620D01*
X27717714Y51617620D01*
X27717714Y52617620D01*
X28193904Y51617620D02*
X28193904Y52617620D01*
X28432000Y52617620D01*
X28574857Y52570000D01*
X28670095Y52474762D01*
X28717714Y52379524D01*
X28765333Y52189048D01*
X28765333Y52046191D01*
X28717714Y51855715D01*
X28670095Y51760477D01*
X28574857Y51665239D01*
X28432000Y51617620D01*
X28193904Y51617620D01*
X23564904Y25425420D02*
X23564904Y25044467D01*
X23945857Y25006372D01*
X23907761Y25044467D01*
X23869666Y25120658D01*
X23869666Y25311134D01*
X23907761Y25387324D01*
X23945857Y25425420D01*
X24022047Y25463515D01*
X24212523Y25463515D01*
X24288714Y25425420D01*
X24326809Y25387324D01*
X24364904Y25311134D01*
X24364904Y25120658D01*
X24326809Y25044467D01*
X24288714Y25006372D01*
X23564904Y25692086D02*
X24364904Y25958753D01*
X23564904Y26225420D01*
X4771142Y56856334D02*
X5247333Y56856334D01*
X4675904Y56570620D02*
X5009238Y57570620D01*
X5342571Y56570620D01*
X5675904Y56570620D02*
X5675904Y57237286D01*
X5675904Y57142048D02*
X5723523Y57189667D01*
X5818761Y57237286D01*
X5961619Y57237286D01*
X6056857Y57189667D01*
X6104476Y57094429D01*
X6104476Y56570620D01*
X6104476Y57094429D02*
X6152095Y57189667D01*
X6247333Y57237286D01*
X6390190Y57237286D01*
X6485428Y57189667D01*
X6533047Y57094429D01*
X6533047Y56570620D01*
X7152095Y56570620D02*
X7056857Y56618239D01*
X7009238Y56665858D01*
X6961619Y56761096D01*
X6961619Y57046810D01*
X7009238Y57142048D01*
X7056857Y57189667D01*
X7152095Y57237286D01*
X7294952Y57237286D01*
X7390190Y57189667D01*
X7437809Y57142048D01*
X7485428Y57046810D01*
X7485428Y56761096D01*
X7437809Y56665858D01*
X7390190Y56618239D01*
X7294952Y56570620D01*
X7152095Y56570620D01*
X7866380Y56618239D02*
X7961619Y56570620D01*
X8152095Y56570620D01*
X8247333Y56618239D01*
X8294952Y56713477D01*
X8294952Y56761096D01*
X8247333Y56856334D01*
X8152095Y56903953D01*
X8009238Y56903953D01*
X7914000Y56951572D01*
X7866380Y57046810D01*
X7866380Y57094429D01*
X7914000Y57189667D01*
X8009238Y57237286D01*
X8152095Y57237286D01*
X8247333Y57189667D01*
X10056857Y56570620D02*
X9723523Y57046810D01*
X9485428Y56570620D02*
X9485428Y57570620D01*
X9866380Y57570620D01*
X9961619Y57523000D01*
X10009238Y57475381D01*
X10056857Y57380143D01*
X10056857Y57237286D01*
X10009238Y57142048D01*
X9961619Y57094429D01*
X9866380Y57046810D01*
X9485428Y57046810D01*
X10914000Y56570620D02*
X10914000Y57094429D01*
X10866380Y57189667D01*
X10771142Y57237286D01*
X10580666Y57237286D01*
X10485428Y57189667D01*
X10914000Y56618239D02*
X10818761Y56570620D01*
X10580666Y56570620D01*
X10485428Y56618239D01*
X10437809Y56713477D01*
X10437809Y56808715D01*
X10485428Y56903953D01*
X10580666Y56951572D01*
X10818761Y56951572D01*
X10914000Y56999191D01*
X11342571Y56618239D02*
X11437809Y56570620D01*
X11628285Y56570620D01*
X11723523Y56618239D01*
X11771142Y56713477D01*
X11771142Y56761096D01*
X11723523Y56856334D01*
X11628285Y56903953D01*
X11485428Y56903953D01*
X11390190Y56951572D01*
X11342571Y57046810D01*
X11342571Y57094429D01*
X11390190Y57189667D01*
X11485428Y57237286D01*
X11628285Y57237286D01*
X11723523Y57189667D01*
X12199714Y57237286D02*
X12199714Y56237286D01*
X12199714Y57189667D02*
X12294952Y57237286D01*
X12485428Y57237286D01*
X12580666Y57189667D01*
X12628285Y57142048D01*
X12675904Y57046810D01*
X12675904Y56761096D01*
X12628285Y56665858D01*
X12580666Y56618239D01*
X12485428Y56570620D01*
X12294952Y56570620D01*
X12199714Y56618239D01*
X13104476Y56951572D02*
X13866380Y56951572D01*
X14342571Y56570620D02*
X14342571Y57570620D01*
X14723523Y57570620D01*
X14818761Y57523000D01*
X14866380Y57475381D01*
X14914000Y57380143D01*
X14914000Y57237286D01*
X14866380Y57142048D01*
X14818761Y57094429D01*
X14723523Y57046810D01*
X14342571Y57046810D01*
X15342571Y56570620D02*
X15342571Y57570620D01*
X15675904Y56856334D01*
X16009238Y57570620D01*
X16009238Y56570620D01*
X24415704Y44437362D02*
X24415704Y43980220D01*
X24415704Y44208791D02*
X23615704Y44208791D01*
X23729990Y44132600D01*
X23806180Y44056410D01*
X23844276Y43980220D01*
X23691895Y44742124D02*
X23653800Y44780220D01*
X23615704Y44856410D01*
X23615704Y45046886D01*
X23653800Y45123077D01*
X23691895Y45161172D01*
X23768085Y45199267D01*
X23844276Y45199267D01*
X23958561Y45161172D01*
X24415704Y44704029D01*
X24415704Y45199267D01*
X23615704Y45427839D02*
X24415704Y45694505D01*
X23615704Y45961172D01*
X13009714Y54792620D02*
X12676380Y55268810D01*
X12438285Y54792620D02*
X12438285Y55792620D01*
X12819238Y55792620D01*
X12914476Y55745000D01*
X12962095Y55697381D01*
X13009714Y55602143D01*
X13009714Y55459286D01*
X12962095Y55364048D01*
X12914476Y55316429D01*
X12819238Y55268810D01*
X12438285Y55268810D01*
X13819238Y54840239D02*
X13724000Y54792620D01*
X13533523Y54792620D01*
X13438285Y54840239D01*
X13390666Y54935477D01*
X13390666Y55316429D01*
X13438285Y55411667D01*
X13533523Y55459286D01*
X13724000Y55459286D01*
X13819238Y55411667D01*
X13866857Y55316429D01*
X13866857Y55221191D01*
X13390666Y55125953D01*
X14200190Y55459286D02*
X14438285Y54792620D01*
X14676380Y55459286D01*
X15057333Y54887858D02*
X15104952Y54840239D01*
X15057333Y54792620D01*
X15009714Y54840239D01*
X15057333Y54887858D01*
X15057333Y54792620D01*
X15485904Y55697381D02*
X15533523Y55745000D01*
X15628761Y55792620D01*
X15866857Y55792620D01*
X15962095Y55745000D01*
X16009714Y55697381D01*
X16057333Y55602143D01*
X16057333Y55506905D01*
X16009714Y55364048D01*
X15438285Y54792620D01*
X16057333Y54792620D01*
X527095Y26682639D02*
X527095Y27139781D01*
X527095Y26911210D02*
X1327095Y26911210D01*
X1212809Y26987400D01*
X1136619Y27063591D01*
X1098523Y27139781D01*
X1250904Y26377877D02*
X1289000Y26339781D01*
X1327095Y26263591D01*
X1327095Y26073115D01*
X1289000Y25996924D01*
X1250904Y25958829D01*
X1174714Y25920734D01*
X1098523Y25920734D01*
X984238Y25958829D01*
X527095Y26415972D01*
X527095Y25920734D01*
X1327095Y25692162D02*
X527095Y25425496D01*
X1327095Y25158829D01*
%TO.C,D2*%
X21367704Y39973324D02*
X20567704Y39973324D01*
X20567704Y40163800D01*
X20605800Y40278086D01*
X20681990Y40354277D01*
X20758180Y40392372D01*
X20910561Y40430467D01*
X21024847Y40430467D01*
X21177228Y40392372D01*
X21253419Y40354277D01*
X21329609Y40278086D01*
X21367704Y40163800D01*
X21367704Y39973324D01*
X20643895Y40735229D02*
X20605800Y40773324D01*
X20567704Y40849515D01*
X20567704Y41039991D01*
X20605800Y41116181D01*
X20643895Y41154277D01*
X20720085Y41192372D01*
X20796276Y41192372D01*
X20910561Y41154277D01*
X21367704Y40697134D01*
X21367704Y41192372D01*
X19589704Y38849515D02*
X19589704Y38392372D01*
X19589704Y38620943D02*
X18789704Y38620943D01*
X18903990Y38544753D01*
X18980180Y38468562D01*
X19018276Y38392372D01*
X19589704Y39192372D02*
X18789704Y39192372D01*
X19589704Y39649515D01*
X18789704Y39649515D01*
X18789704Y40411420D02*
X18789704Y40030467D01*
X19170657Y39992372D01*
X19132561Y40030467D01*
X19094466Y40106658D01*
X19094466Y40297134D01*
X19132561Y40373324D01*
X19170657Y40411420D01*
X19246847Y40449515D01*
X19437323Y40449515D01*
X19513514Y40411420D01*
X19551609Y40373324D01*
X19589704Y40297134D01*
X19589704Y40106658D01*
X19551609Y40030467D01*
X19513514Y39992372D01*
X19056371Y41135229D02*
X19589704Y41135229D01*
X18751609Y40944753D02*
X19323038Y40754277D01*
X19323038Y41249515D01*
X18789704Y41706658D02*
X18789704Y41782848D01*
X18827800Y41859039D01*
X18865895Y41897134D01*
X18942085Y41935229D01*
X19094466Y41973324D01*
X19284942Y41973324D01*
X19437323Y41935229D01*
X19513514Y41897134D01*
X19551609Y41859039D01*
X19589704Y41782848D01*
X19589704Y41706658D01*
X19551609Y41630467D01*
X19513514Y41592372D01*
X19437323Y41554277D01*
X19284942Y41516181D01*
X19094466Y41516181D01*
X18942085Y41554277D01*
X18865895Y41592372D01*
X18827800Y41630467D01*
X18789704Y41706658D01*
X18789704Y42468562D02*
X18789704Y42544753D01*
X18827800Y42620943D01*
X18865895Y42659039D01*
X18942085Y42697134D01*
X19094466Y42735229D01*
X19284942Y42735229D01*
X19437323Y42697134D01*
X19513514Y42659039D01*
X19551609Y42620943D01*
X19589704Y42544753D01*
X19589704Y42468562D01*
X19551609Y42392372D01*
X19513514Y42354277D01*
X19437323Y42316181D01*
X19284942Y42278086D01*
X19094466Y42278086D01*
X18942085Y42316181D01*
X18865895Y42354277D01*
X18827800Y42392372D01*
X18789704Y42468562D01*
X22078904Y48685477D02*
X21278904Y48685477D01*
X22078904Y49142620D02*
X21621761Y48799762D01*
X21278904Y49142620D02*
X21736047Y48685477D01*
%TO.C,R1*%
X18726104Y28098772D02*
X18726104Y27641629D01*
X18726104Y27870200D02*
X17926104Y27870200D01*
X18040390Y27794010D01*
X18116580Y27717820D01*
X18154676Y27641629D01*
X18726104Y28441629D02*
X17926104Y28441629D01*
X18726104Y28898772D02*
X18268961Y28555915D01*
X17926104Y28898772D02*
X18383247Y28441629D01*
%TO.C,R4*%
X17926104Y23564981D02*
X17926104Y24060220D01*
X18230866Y23793553D01*
X18230866Y23907839D01*
X18268961Y23984029D01*
X18307057Y24022124D01*
X18383247Y24060220D01*
X18573723Y24060220D01*
X18649914Y24022124D01*
X18688009Y23984029D01*
X18726104Y23907839D01*
X18726104Y23679267D01*
X18688009Y23603077D01*
X18649914Y23564981D01*
X17926104Y24555458D02*
X17926104Y24631648D01*
X17964200Y24707839D01*
X18002295Y24745934D01*
X18078485Y24784029D01*
X18230866Y24822124D01*
X18421342Y24822124D01*
X18573723Y24784029D01*
X18649914Y24745934D01*
X18688009Y24707839D01*
X18726104Y24631648D01*
X18726104Y24555458D01*
X18688009Y24479267D01*
X18649914Y24441172D01*
X18573723Y24403077D01*
X18421342Y24364981D01*
X18230866Y24364981D01*
X18078485Y24403077D01*
X18002295Y24441172D01*
X17964200Y24479267D01*
X17926104Y24555458D01*
X18726104Y25164981D02*
X17926104Y25164981D01*
X18726104Y25622124D02*
X18268961Y25279267D01*
X17926104Y25622124D02*
X18383247Y25164981D01*
%TO.C,R2*%
X14001704Y27717820D02*
X14001704Y27260677D01*
X14001704Y27489248D02*
X13201704Y27489248D01*
X13315990Y27413058D01*
X13392180Y27336867D01*
X13430276Y27260677D01*
X13201704Y28213058D02*
X13201704Y28289248D01*
X13239800Y28365439D01*
X13277895Y28403534D01*
X13354085Y28441629D01*
X13506466Y28479724D01*
X13696942Y28479724D01*
X13849323Y28441629D01*
X13925514Y28403534D01*
X13963609Y28365439D01*
X14001704Y28289248D01*
X14001704Y28213058D01*
X13963609Y28136867D01*
X13925514Y28098772D01*
X13849323Y28060677D01*
X13696942Y28022581D01*
X13506466Y28022581D01*
X13354085Y28060677D01*
X13277895Y28098772D01*
X13239800Y28136867D01*
X13201704Y28213058D01*
X14001704Y28822581D02*
X13201704Y28822581D01*
X14001704Y29279724D02*
X13544561Y28936867D01*
X13201704Y29279724D02*
X13658847Y28822581D01*
%TO.C,R5*%
X32315228Y51708029D02*
X32315228Y51174696D01*
X32124752Y52012791D02*
X31934276Y51441362D01*
X32429514Y51441362D01*
X32734276Y51174696D02*
X32734276Y51974696D01*
X33191419Y51174696D02*
X32848561Y51631839D01*
X33191419Y51974696D02*
X32734276Y51517553D01*
X33458085Y51974696D02*
X33991419Y51974696D01*
X33648561Y51174696D01*
%TO.C,D3*%
X35960123Y51022296D02*
X35960123Y51822296D01*
X36150600Y51822296D01*
X36264885Y51784200D01*
X36341076Y51708010D01*
X36379171Y51631820D01*
X36417266Y51479439D01*
X36417266Y51365153D01*
X36379171Y51212772D01*
X36341076Y51136581D01*
X36264885Y51060391D01*
X36150600Y51022296D01*
X35960123Y51022296D01*
X36683933Y51822296D02*
X37179171Y51822296D01*
X36912504Y51517534D01*
X37026790Y51517534D01*
X37102980Y51479439D01*
X37141076Y51441343D01*
X37179171Y51365153D01*
X37179171Y51174677D01*
X37141076Y51098486D01*
X37102980Y51060391D01*
X37026790Y51022296D01*
X36798219Y51022296D01*
X36722028Y51060391D01*
X36683933Y51098486D01*
X38779514Y52597096D02*
X38398561Y52597096D01*
X38398561Y53397096D01*
X39046180Y53016143D02*
X39312847Y53016143D01*
X39427133Y52597096D02*
X39046180Y52597096D01*
X39046180Y53397096D01*
X39427133Y53397096D01*
X39769990Y52597096D02*
X39769990Y53397096D01*
X39960466Y53397096D01*
X40074752Y53359000D01*
X40150942Y53282810D01*
X40189038Y53206620D01*
X40227133Y53054239D01*
X40227133Y52939953D01*
X40189038Y52787572D01*
X40150942Y52711381D01*
X40074752Y52635191D01*
X39960466Y52597096D01*
X39769990Y52597096D01*
%TO.C,Q1*%
X9251895Y26924010D02*
X9213800Y26847820D01*
X9137609Y26771629D01*
X9023323Y26657343D01*
X8985228Y26581153D01*
X8985228Y26504962D01*
X9175704Y26543058D02*
X9137609Y26466867D01*
X9061419Y26390677D01*
X8909038Y26352581D01*
X8642371Y26352581D01*
X8489990Y26390677D01*
X8413800Y26466867D01*
X8375704Y26543058D01*
X8375704Y26695439D01*
X8413800Y26771629D01*
X8489990Y26847820D01*
X8642371Y26885915D01*
X8909038Y26885915D01*
X9061419Y26847820D01*
X9137609Y26771629D01*
X9175704Y26695439D01*
X9175704Y26543058D01*
X9175704Y27647820D02*
X9175704Y27190677D01*
X9175704Y27419248D02*
X8375704Y27419248D01*
X8489990Y27343058D01*
X8566180Y27266867D01*
X8604276Y27190677D01*
%TO.C,D1*%
X7804104Y30422924D02*
X7004104Y30422924D01*
X7004104Y30613400D01*
X7042200Y30727686D01*
X7118390Y30803877D01*
X7194580Y30841972D01*
X7346961Y30880067D01*
X7461247Y30880067D01*
X7613628Y30841972D01*
X7689819Y30803877D01*
X7766009Y30727686D01*
X7804104Y30613400D01*
X7804104Y30422924D01*
X7804104Y31641972D02*
X7804104Y31184829D01*
X7804104Y31413400D02*
X7004104Y31413400D01*
X7118390Y31337210D01*
X7194580Y31261020D01*
X7232676Y31184829D01*
X9042600Y32226296D02*
X8661647Y32226296D01*
X8661647Y33026296D01*
X9690219Y32226296D02*
X9309266Y32226296D01*
X9309266Y33026296D01*
X10299742Y32759629D02*
X10299742Y32226296D01*
X10109266Y33064391D02*
X9918790Y32492962D01*
X10414028Y32492962D01*
X11137838Y32226296D02*
X10680695Y32226296D01*
X10909266Y32226296D02*
X10909266Y33026296D01*
X10833076Y32912010D01*
X10756885Y32835820D01*
X10680695Y32797724D01*
X11823552Y32759629D02*
X11823552Y32226296D01*
X11633076Y33064391D02*
X11442600Y32492962D01*
X11937838Y32492962D01*
X12356885Y32683439D02*
X12280695Y32721534D01*
X12242600Y32759629D01*
X12204504Y32835820D01*
X12204504Y32873915D01*
X12242600Y32950105D01*
X12280695Y32988200D01*
X12356885Y33026296D01*
X12509266Y33026296D01*
X12585457Y32988200D01*
X12623552Y32950105D01*
X12661647Y32873915D01*
X12661647Y32835820D01*
X12623552Y32759629D01*
X12585457Y32721534D01*
X12509266Y32683439D01*
X12356885Y32683439D01*
X12280695Y32645343D01*
X12242600Y32607248D01*
X12204504Y32531058D01*
X12204504Y32378677D01*
X12242600Y32302486D01*
X12280695Y32264391D01*
X12356885Y32226296D01*
X12509266Y32226296D01*
X12585457Y32264391D01*
X12623552Y32302486D01*
X12661647Y32378677D01*
X12661647Y32531058D01*
X12623552Y32607248D01*
X12585457Y32645343D01*
X12509266Y32683439D01*
%TO.C,R3*%
X14001704Y23679267D02*
X14001704Y23222124D01*
X14001704Y23450696D02*
X13201704Y23450696D01*
X13315990Y23374505D01*
X13392180Y23298315D01*
X13430276Y23222124D01*
X13201704Y24174505D02*
X13201704Y24250696D01*
X13239800Y24326886D01*
X13277895Y24364981D01*
X13354085Y24403077D01*
X13506466Y24441172D01*
X13696942Y24441172D01*
X13849323Y24403077D01*
X13925514Y24364981D01*
X13963609Y24326886D01*
X14001704Y24250696D01*
X14001704Y24174505D01*
X13963609Y24098315D01*
X13925514Y24060220D01*
X13849323Y24022124D01*
X13696942Y23984029D01*
X13506466Y23984029D01*
X13354085Y24022124D01*
X13277895Y24060220D01*
X13239800Y24098315D01*
X13201704Y24174505D01*
X13201704Y24936410D02*
X13201704Y25012600D01*
X13239800Y25088791D01*
X13277895Y25126886D01*
X13354085Y25164981D01*
X13506466Y25203077D01*
X13696942Y25203077D01*
X13849323Y25164981D01*
X13925514Y25126886D01*
X13963609Y25088791D01*
X14001704Y25012600D01*
X14001704Y24936410D01*
X13963609Y24860220D01*
X13925514Y24822124D01*
X13849323Y24784029D01*
X13696942Y24745934D01*
X13506466Y24745934D01*
X13354085Y24784029D01*
X13277895Y24822124D01*
X13239800Y24860220D01*
X13201704Y24936410D01*
X14001704Y25545934D02*
X13201704Y25545934D01*
X14001704Y26003077D02*
X13544561Y25660220D01*
X13201704Y26003077D02*
X13658847Y25545934D01*
D11*
%TO.C,D2*%
X22049400Y44600000D02*
X16609400Y44600000D01*
X16609400Y36405000D02*
X22049400Y36405000D01*
X22049400Y46145000D02*
X16609400Y46145000D01*
X22049400Y44480000D02*
X16609400Y44480000D01*
X22049400Y36405000D02*
X22049400Y46145000D01*
X19329400Y35495000D02*
X19329400Y36405000D01*
X22049400Y44720000D02*
X16609400Y44720000D01*
X19329400Y47055000D02*
X19329400Y46145000D01*
X16609400Y46145000D02*
X16609400Y36405000D01*
%TO.C,DCDC1*%
X41656000Y46228000D02*
X24656000Y46228000D01*
X24656000Y46228000D02*
X24656000Y24228000D01*
X24656000Y24228000D02*
X41656000Y24228000D01*
X41656000Y24228000D02*
X41656000Y46228000D01*
%TO.C,R1*%
X17778400Y28043136D02*
X17778400Y28497264D01*
X16308400Y28043136D02*
X16308400Y28497264D01*
%TO.C,DCDC2*%
X43647000Y50633800D02*
X22647000Y50633800D01*
X22647000Y50633800D02*
X22647000Y7633800D01*
X22647000Y7633800D02*
X43647000Y7633800D01*
X43647000Y7633800D02*
X43647000Y50633800D01*
%TO.C,JP1*%
X8957000Y17399000D02*
X11557000Y17399000D01*
X11557000Y17399000D02*
X11557000Y19999000D01*
X8957000Y18669000D02*
X8957000Y19999000D01*
X8957000Y19999000D02*
X10287000Y19999000D01*
X8957000Y17399000D02*
X8957000Y17339000D01*
X8957000Y17339000D02*
X14157000Y17339000D01*
X14157000Y19999000D02*
X14157000Y17339000D01*
X11557000Y19999000D02*
X14157000Y19999000D01*
%TO.C,R4*%
X17778400Y24850464D02*
X17778400Y24396336D01*
X16308400Y24850464D02*
X16308400Y24396336D01*
%TO.C,R2*%
X14174800Y28043136D02*
X14174800Y28497264D01*
X15644800Y28043136D02*
X15644800Y28497264D01*
%TO.C,J3*%
X20557800Y16129000D02*
X20557800Y14799000D01*
X20557800Y17399000D02*
X20557800Y19999000D01*
X20557800Y17399000D02*
X17897800Y17399000D01*
X20557800Y14799000D02*
X19227800Y14799000D01*
X17897800Y17399000D02*
X17897800Y19999000D01*
X20557800Y19999000D02*
X17897800Y19999000D01*
%TO.C,K1*%
X9779000Y41198800D02*
X9779000Y41833800D01*
X11941000Y48915800D02*
X11941000Y36215800D01*
X7214000Y41325800D02*
X9119000Y41325800D01*
X4141000Y48915800D02*
X11941000Y48915800D01*
X6579000Y41198800D02*
X6579000Y41833800D01*
X6579000Y41833800D02*
X7214000Y41833800D01*
X9119000Y41325800D02*
X9119000Y42341800D01*
X9119000Y42341800D02*
X7214000Y42341800D01*
X7595000Y41325800D02*
X8230000Y42341800D01*
X4141000Y36215800D02*
X4141000Y48915800D01*
X12141000Y36015800D02*
X9941000Y36015800D01*
X12141000Y38115800D02*
X12141000Y36015800D01*
X11941000Y36215800D02*
X4141000Y36215800D01*
X7214000Y41325800D02*
X7214000Y42341800D01*
X9779000Y41833800D02*
X9119000Y41833800D01*
%TO.C,J7*%
X22332000Y6651000D02*
X14712000Y6651000D01*
X18022000Y5891000D02*
X19022000Y5891000D01*
X15472000Y1441000D02*
X18522000Y1441000D01*
X15672000Y6941000D02*
X14422000Y6941000D01*
X14712000Y6651000D02*
X14712000Y681000D01*
X21572000Y1441000D02*
X18522000Y1441000D01*
X22322000Y6641000D02*
X20522000Y6641000D01*
X19022000Y5891000D02*
X19022000Y6641000D01*
X18022000Y6641000D02*
X18022000Y5891000D01*
X14722000Y5891000D02*
X16522000Y5891000D01*
X22332000Y681000D02*
X22332000Y6651000D01*
X20522000Y6641000D02*
X20522000Y5891000D01*
X22322000Y5891000D02*
X22322000Y6641000D01*
X19022000Y6641000D02*
X18022000Y6641000D01*
X21572000Y4391000D02*
X21572000Y1441000D01*
X20522000Y5891000D02*
X22322000Y5891000D01*
X14722000Y4391000D02*
X15472000Y4391000D01*
X14422000Y6941000D02*
X14422000Y5691000D01*
X22322000Y4391000D02*
X21572000Y4391000D01*
X15472000Y4391000D02*
X15472000Y1441000D01*
X14722000Y6641000D02*
X14722000Y5891000D01*
X14712000Y681000D02*
X22332000Y681000D01*
X16522000Y6641000D02*
X14722000Y6641000D01*
X16522000Y5891000D02*
X16522000Y6641000D01*
%TO.C,R5*%
X32716736Y53694000D02*
X33170864Y53694000D01*
X32716736Y52224000D02*
X33170864Y52224000D01*
%TO.C,D3*%
X34865600Y51999000D02*
X37550600Y51999000D01*
X37550600Y53919000D02*
X34865600Y53919000D01*
X34865600Y53919000D02*
X34865600Y51999000D01*
%TO.C,J9*%
X32492000Y6651000D02*
X32492000Y681000D01*
X40112000Y681000D02*
X40112000Y6651000D01*
X32502000Y6641000D02*
X32502000Y5891000D01*
X40102000Y6641000D02*
X38302000Y6641000D01*
X39352000Y4391000D02*
X39352000Y1441000D01*
X32502000Y4391000D02*
X33252000Y4391000D01*
X38302000Y5891000D02*
X40102000Y5891000D01*
X35802000Y6641000D02*
X35802000Y5891000D01*
X36802000Y5891000D02*
X36802000Y6641000D01*
X34302000Y5891000D02*
X34302000Y6641000D01*
X36802000Y6641000D02*
X35802000Y6641000D01*
X33452000Y6941000D02*
X32202000Y6941000D01*
X40112000Y6651000D02*
X32492000Y6651000D01*
X32202000Y6941000D02*
X32202000Y5691000D01*
X32502000Y5891000D02*
X34302000Y5891000D01*
X40102000Y5891000D02*
X40102000Y6641000D01*
X35802000Y5891000D02*
X36802000Y5891000D01*
X38302000Y6641000D02*
X38302000Y5891000D01*
X32492000Y681000D02*
X40112000Y681000D01*
X34302000Y6641000D02*
X32502000Y6641000D01*
X40102000Y4391000D02*
X39352000Y4391000D01*
X39352000Y1441000D02*
X36302000Y1441000D01*
X33252000Y4391000D02*
X33252000Y1441000D01*
X33252000Y1441000D02*
X36302000Y1441000D01*
%TO.C,J8*%
X23332000Y6941000D02*
X23332000Y5691000D01*
X26932000Y6641000D02*
X26932000Y5891000D01*
X31242000Y6651000D02*
X23622000Y6651000D01*
X23632000Y4391000D02*
X24382000Y4391000D01*
X24382000Y1441000D02*
X27432000Y1441000D01*
X25432000Y5891000D02*
X25432000Y6641000D01*
X24582000Y6941000D02*
X23332000Y6941000D01*
X31232000Y4391000D02*
X30482000Y4391000D01*
X26932000Y5891000D02*
X27932000Y5891000D01*
X24382000Y4391000D02*
X24382000Y1441000D01*
X27932000Y5891000D02*
X27932000Y6641000D01*
X27932000Y6641000D02*
X26932000Y6641000D01*
X31232000Y5891000D02*
X31232000Y6641000D01*
X30482000Y4391000D02*
X30482000Y1441000D01*
X31232000Y6641000D02*
X29432000Y6641000D01*
X23632000Y6641000D02*
X23632000Y5891000D01*
X23632000Y5891000D02*
X25432000Y5891000D01*
X30482000Y1441000D02*
X27432000Y1441000D01*
X23622000Y681000D02*
X31242000Y681000D01*
X29432000Y5891000D02*
X31232000Y5891000D01*
X25432000Y6641000D02*
X23632000Y6641000D01*
X29432000Y6641000D02*
X29432000Y5891000D01*
X31242000Y681000D02*
X31242000Y6651000D01*
X23622000Y6651000D02*
X23622000Y681000D01*
%TO.C,Q1*%
X12482000Y27051000D02*
X12482000Y26401000D01*
X12482000Y27051000D02*
X12482000Y28726000D01*
X9362000Y27051000D02*
X9362000Y27701000D01*
X9362000Y27051000D02*
X9362000Y26401000D01*
%TO.C,JP2*%
X11557000Y17459000D02*
X14157000Y17459000D01*
X8957000Y14859000D02*
X11557000Y14859000D01*
X8957000Y17459000D02*
X10287000Y17459000D01*
X8957000Y14859000D02*
X8957000Y14799000D01*
X8957000Y14799000D02*
X14157000Y14799000D01*
X8957000Y16129000D02*
X8957000Y17459000D01*
X14157000Y17459000D02*
X14157000Y14799000D01*
X11557000Y14859000D02*
X11557000Y17459000D01*
%TO.C,K2*%
X14001800Y45639000D02*
X14001800Y48139000D01*
X8001800Y42239000D02*
X8001800Y40739000D01*
X14001800Y45639000D02*
X9801800Y45639000D01*
X9801800Y47639000D02*
X9801800Y43639000D01*
X6201800Y45639000D02*
X2001800Y45639000D01*
X6851800Y53089000D02*
X251800Y53089000D01*
X8001800Y40739000D02*
X10501800Y36139000D01*
X4401800Y42239000D02*
X4401800Y49039000D01*
X15851800Y53089000D02*
X9251800Y53089000D01*
X8001800Y49039000D02*
X8001800Y49839000D01*
X6201800Y43639000D02*
X9801800Y47639000D01*
X6201800Y43639000D02*
X6201800Y47639000D01*
X2001800Y48139000D02*
X2001800Y45639000D01*
X12251800Y37539000D02*
X9751800Y37539000D01*
X251800Y33289000D02*
X251800Y53089000D01*
X8001800Y49039000D02*
X4401800Y49039000D01*
X15851800Y33289000D02*
X251800Y33289000D01*
X9801800Y43639000D02*
X6201800Y43639000D01*
X8001800Y42239000D02*
X4401800Y42239000D01*
X3851800Y37539000D02*
X6301800Y37539000D01*
X15851800Y53089000D02*
X15851800Y33289000D01*
X6201800Y47639000D02*
X9801800Y47639000D01*
%TO.C,D1*%
X13141800Y32013400D02*
X8841800Y32013400D01*
X13141800Y30013400D02*
X13141800Y32013400D01*
X8841800Y30013400D02*
X13141800Y30013400D01*
%TO.C,J2*%
X7911000Y28737400D02*
X7161000Y28737400D01*
X2711000Y14387400D02*
X2711000Y21187400D01*
X5661000Y14387400D02*
X2711000Y14387400D01*
X7161000Y16937400D02*
X7911000Y16937400D01*
X7911000Y13637400D02*
X7911000Y15437400D01*
X2711000Y27987400D02*
X2711000Y21187400D01*
X5661000Y28737400D02*
X5661000Y27987400D01*
X7921000Y13627400D02*
X7921000Y28747400D01*
X7921000Y28747400D02*
X1951000Y28747400D01*
X7161000Y13637400D02*
X7911000Y13637400D01*
X7911000Y16937400D02*
X7911000Y25437400D01*
X7911000Y26937400D02*
X7911000Y28737400D01*
X5661000Y13637400D02*
X5661000Y14387400D01*
X1951000Y28747400D02*
X1951000Y13627400D01*
X8211000Y27787400D02*
X8211000Y29037400D01*
X5661000Y27987400D02*
X2711000Y27987400D01*
X7161000Y25437400D02*
X7161000Y16937400D01*
X7161000Y28737400D02*
X7161000Y26937400D01*
X7911000Y15437400D02*
X7161000Y15437400D01*
X7161000Y26937400D02*
X7911000Y26937400D01*
X8211000Y29037400D02*
X6961000Y29037400D01*
X7161000Y15437400D02*
X7161000Y13637400D01*
X1951000Y13627400D02*
X7921000Y13627400D01*
X7911000Y25437400D02*
X7161000Y25437400D01*
%TO.C,R3*%
X14174800Y24850464D02*
X14174800Y24396336D01*
X15644800Y24850464D02*
X15644800Y24396336D01*
%TD*%
%LPC*%
D12*
%TO.C,D2*%
X19329400Y48895000D03*
D13*
X19329400Y33655000D03*
%TD*%
D14*
%TO.C,DCDC1*%
X40156000Y25728000D03*
X37616000Y25728000D03*
X28696000Y25728000D03*
X26156000Y25728000D03*
X40156000Y44728000D03*
X37616000Y44728000D03*
X26156000Y44728000D03*
X28696000Y44728000D03*
%TD*%
D15*
%TO.C,R1*%
X17043400Y27357700D03*
X17043400Y29182700D03*
%TD*%
D16*
%TO.C,DCDC2*%
X42074728Y49064717D03*
X24221890Y49055988D03*
X42069444Y9216627D03*
X24231217Y9207065D03*
%TD*%
D17*
%TO.C,JP1*%
X10287000Y18669000D03*
D18*
X12827000Y18669000D03*
%TD*%
D19*
%TO.C,R4*%
X17043400Y25535900D03*
X17043400Y23710900D03*
%TD*%
D20*
%TO.C,J5*%
X11207000Y8559800D03*
D21*
X5207000Y8559800D03*
%TD*%
D15*
%TO.C,R2*%
X14909800Y27357700D03*
X14909800Y29182700D03*
%TD*%
D17*
%TO.C,J3*%
X19227800Y16129000D03*
D18*
X19227800Y18669000D03*
%TD*%
D22*
%TO.C,K1*%
X10541000Y37515800D03*
D23*
X10541000Y40055800D03*
X10541000Y47675800D03*
X5461000Y47675800D03*
X5461000Y40055800D03*
X5461000Y37515800D03*
%TD*%
D24*
%TO.C,J7*%
X17272000Y4191000D03*
D25*
X19772000Y4191000D03*
%TD*%
D26*
%TO.C,R5*%
X32031300Y52959000D03*
X33856300Y52959000D03*
%TD*%
D27*
%TO.C,D3*%
X35613100Y52959000D03*
X37488100Y52959000D03*
%TD*%
D28*
%TO.C,J1*%
X19595000Y55245000D03*
D29*
X27395000Y55245000D03*
%TD*%
D24*
%TO.C,J9*%
X35052000Y4191000D03*
D25*
X37552000Y4191000D03*
%TD*%
D24*
%TO.C,J8*%
X26182000Y4191000D03*
D25*
X28682000Y4191000D03*
%TD*%
D30*
%TO.C,Q1*%
X11872000Y27988500D03*
X9972000Y27988500D03*
X10922000Y26113500D03*
%TD*%
D17*
%TO.C,JP2*%
X10287000Y16129000D03*
D18*
X12827000Y16129000D03*
%TD*%
D31*
%TO.C,K2*%
X8051800Y51689000D03*
D32*
X2001800Y49739000D03*
D31*
X2001800Y37539000D03*
X14051800Y37489000D03*
D32*
X14001800Y49739000D03*
%TD*%
D33*
%TO.C,D1*%
X8841800Y31013400D03*
X12341800Y31013400D03*
%TD*%
D34*
%TO.C,J2*%
X5461000Y26187400D03*
D35*
X5461000Y23687400D03*
X5461000Y21187400D03*
X5461000Y18687400D03*
X5461000Y16187400D03*
%TD*%
D19*
%TO.C,R3*%
X14909800Y25535900D03*
X14909800Y23710900D03*
%TD*%
M02*
