%TF.GenerationSoftware,KiCad,Pcbnew,(6.0.10)*%
%TF.CreationDate,2023-01-26T23:09:25+09:00*%
%TF.ProjectId,rasp_power_module,72617370-5f70-46f7-9765-725f6d6f6475,2*%
%TF.SameCoordinates,PX74269e8PY6f4e628*%
%TF.FileFunction,Legend,Bot*%
%TF.FilePolarity,Positive*%
%FSLAX46Y46*%
G04 Gerber Fmt 4.6, Leading zero omitted, Abs format (unit mm)*
G04 Created by KiCad (PCBNEW (6.0.10)) date 2023-01-26 23:09:25*
%MOMM*%
%LPD*%
G01*
G04 APERTURE LIST*
G04 Aperture macros list*
%AMRoundRect*
0 Rectangle with rounded corners*
0 $1 Rounding radius*
0 $2 $3 $4 $5 $6 $7 $8 $9 X,Y pos of 4 corners*
0 Add a 4 corners polygon primitive as box body*
4,1,4,$2,$3,$4,$5,$6,$7,$8,$9,$2,$3,0*
0 Add four circle primitives for the rounded corners*
1,1,$1+$1,$2,$3*
1,1,$1+$1,$4,$5*
1,1,$1+$1,$6,$7*
1,1,$1+$1,$8,$9*
0 Add four rect primitives between the rounded corners*
20,1,$1+$1,$2,$3,$4,$5,0*
20,1,$1+$1,$4,$5,$6,$7,0*
20,1,$1+$1,$6,$7,$8,$9,0*
20,1,$1+$1,$8,$9,$2,$3,0*%
G04 Aperture macros list end*
%ADD10C,0.150000*%
%ADD11RoundRect,0.250002X1.699998X1.699998X-1.699998X1.699998X-1.699998X-1.699998X1.699998X-1.699998X0*%
%ADD12C,3.900000*%
%ADD13C,1.524000*%
%ADD14R,3.000000X3.000000*%
%ADD15R,1.700000X1.700000*%
%ADD16O,1.700000X1.700000*%
%ADD17RoundRect,0.249999X-1.300001X-1.300001X1.300001X-1.300001X1.300001X1.300001X-1.300001X1.300001X0*%
%ADD18C,3.100000*%
%ADD19R,3.300000X4.500000*%
%ADD20R,2.000000X2.000000*%
%ADD21C,2.000000*%
%ADD22RoundRect,0.250000X-0.600000X-0.750000X0.600000X-0.750000X0.600000X0.750000X-0.600000X0.750000X0*%
%ADD23O,1.700000X2.000000*%
%ADD24C,3.000000*%
%ADD25RoundRect,0.250000X-0.725000X0.600000X-0.725000X-0.600000X0.725000X-0.600000X0.725000X0.600000X0*%
%ADD26O,1.950000X1.700000*%
G04 APERTURE END LIST*
D10*
X25183933Y45175420D02*
X24850600Y44175420D01*
X24517266Y45175420D01*
X23612504Y44270658D02*
X23660123Y44223039D01*
X23802980Y44175420D01*
X23898219Y44175420D01*
X24041076Y44223039D01*
X24136314Y44318277D01*
X24183933Y44413515D01*
X24231552Y44603991D01*
X24231552Y44746848D01*
X24183933Y44937324D01*
X24136314Y45032562D01*
X24041076Y45127800D01*
X23898219Y45175420D01*
X23802980Y45175420D01*
X23660123Y45127800D01*
X23612504Y45080181D01*
X22612504Y44270658D02*
X22660123Y44223039D01*
X22802980Y44175420D01*
X22898219Y44175420D01*
X23041076Y44223039D01*
X23136314Y44318277D01*
X23183933Y44413515D01*
X23231552Y44603991D01*
X23231552Y44746848D01*
X23183933Y44937324D01*
X23136314Y45032562D01*
X23041076Y45127800D01*
X22898219Y45175420D01*
X22802980Y45175420D01*
X22660123Y45127800D01*
X22612504Y45080181D01*
X26995095Y7278620D02*
X26804619Y7278620D01*
X26709380Y7231000D01*
X26614142Y7135762D01*
X26566523Y6945286D01*
X26566523Y6611953D01*
X26614142Y6421477D01*
X26709380Y6326239D01*
X26804619Y6278620D01*
X26995095Y6278620D01*
X27090333Y6326239D01*
X27185571Y6421477D01*
X27233190Y6611953D01*
X27233190Y6945286D01*
X27185571Y7135762D01*
X27090333Y7231000D01*
X26995095Y7278620D01*
X25709380Y6945286D02*
X25709380Y6278620D01*
X26137952Y6945286D02*
X26137952Y6421477D01*
X26090333Y6326239D01*
X25995095Y6278620D01*
X25852238Y6278620D01*
X25757000Y6326239D01*
X25709380Y6373858D01*
X25376047Y6945286D02*
X24995095Y6945286D01*
X25233190Y7278620D02*
X25233190Y6421477D01*
X25185571Y6326239D01*
X25090333Y6278620D01*
X24995095Y6278620D01*
X24899857Y6183381D02*
X24137952Y6183381D01*
X23376047Y7231000D02*
X23471285Y7278620D01*
X23614142Y7278620D01*
X23757000Y7231000D01*
X23852238Y7135762D01*
X23899857Y7040524D01*
X23947476Y6850048D01*
X23947476Y6707191D01*
X23899857Y6516715D01*
X23852238Y6421477D01*
X23757000Y6326239D01*
X23614142Y6278620D01*
X23518904Y6278620D01*
X23376047Y6326239D01*
X23328428Y6373858D01*
X23328428Y6707191D01*
X23518904Y6707191D01*
X22899857Y6278620D02*
X22899857Y7278620D01*
X22328428Y6278620D01*
X22328428Y7278620D01*
X21852238Y6278620D02*
X21852238Y7278620D01*
X21614142Y7278620D01*
X21471285Y7231000D01*
X21376047Y7135762D01*
X21328428Y7040524D01*
X21280809Y6850048D01*
X21280809Y6707191D01*
X21328428Y6516715D01*
X21376047Y6421477D01*
X21471285Y6326239D01*
X21614142Y6278620D01*
X21852238Y6278620D01*
X44425857Y7024620D02*
X44235380Y7024620D01*
X44140142Y6977000D01*
X44044904Y6881762D01*
X43997285Y6691286D01*
X43997285Y6357953D01*
X44044904Y6167477D01*
X44140142Y6072239D01*
X44235380Y6024620D01*
X44425857Y6024620D01*
X44521095Y6072239D01*
X44616333Y6167477D01*
X44663952Y6357953D01*
X44663952Y6691286D01*
X44616333Y6881762D01*
X44521095Y6977000D01*
X44425857Y7024620D01*
X43140142Y6691286D02*
X43140142Y6024620D01*
X43568714Y6691286D02*
X43568714Y6167477D01*
X43521095Y6072239D01*
X43425857Y6024620D01*
X43283000Y6024620D01*
X43187761Y6072239D01*
X43140142Y6119858D01*
X42806809Y6691286D02*
X42425857Y6691286D01*
X42663952Y7024620D02*
X42663952Y6167477D01*
X42616333Y6072239D01*
X42521095Y6024620D01*
X42425857Y6024620D01*
X42330619Y5929381D02*
X41568714Y5929381D01*
X41473476Y7024620D02*
X41140142Y6024620D01*
X40806809Y7024620D01*
X39902047Y6119858D02*
X39949666Y6072239D01*
X40092523Y6024620D01*
X40187761Y6024620D01*
X40330619Y6072239D01*
X40425857Y6167477D01*
X40473476Y6262715D01*
X40521095Y6453191D01*
X40521095Y6596048D01*
X40473476Y6786524D01*
X40425857Y6881762D01*
X40330619Y6977000D01*
X40187761Y7024620D01*
X40092523Y7024620D01*
X39949666Y6977000D01*
X39902047Y6929381D01*
X38902047Y6119858D02*
X38949666Y6072239D01*
X39092523Y6024620D01*
X39187761Y6024620D01*
X39330619Y6072239D01*
X39425857Y6167477D01*
X39473476Y6262715D01*
X39521095Y6453191D01*
X39521095Y6596048D01*
X39473476Y6786524D01*
X39425857Y6881762D01*
X39330619Y6977000D01*
X39187761Y7024620D01*
X39092523Y7024620D01*
X38949666Y6977000D01*
X38902047Y6929381D01*
X37344219Y2711400D02*
X37420409Y2749496D01*
X37534695Y2749496D01*
X37648980Y2711400D01*
X37725171Y2635210D01*
X37763266Y2559020D01*
X37801361Y2406639D01*
X37801361Y2292353D01*
X37763266Y2139972D01*
X37725171Y2063781D01*
X37648980Y1987591D01*
X37534695Y1949496D01*
X37458504Y1949496D01*
X37344219Y1987591D01*
X37306123Y2025686D01*
X37306123Y2292353D01*
X37458504Y2292353D01*
X35248980Y2749496D02*
X34982314Y1949496D01*
X34715647Y2749496D01*
X21087742Y25842886D02*
X21849647Y25557172D01*
X21087742Y25271458D01*
X20611552Y25557172D02*
X19849647Y25557172D01*
X19373457Y25176220D02*
X19373457Y26176220D01*
X19040123Y25461934D01*
X18706790Y26176220D01*
X18706790Y25176220D01*
X18230600Y25176220D02*
X18230600Y26176220D01*
X17849647Y26176220D01*
X17754409Y26128600D01*
X17706790Y26080981D01*
X17659171Y25985743D01*
X17659171Y25842886D01*
X17706790Y25747648D01*
X17754409Y25700029D01*
X17849647Y25652410D01*
X18230600Y25652410D01*
X16706790Y25176220D02*
X17278219Y25176220D01*
X16992504Y25176220D02*
X16992504Y26176220D01*
X17087742Y26033362D01*
X17182980Y25938124D01*
X17278219Y25890505D01*
X15802028Y26176220D02*
X16278219Y26176220D01*
X16325838Y25700029D01*
X16278219Y25747648D01*
X16182980Y25795267D01*
X15944885Y25795267D01*
X15849647Y25747648D01*
X15802028Y25700029D01*
X15754409Y25604791D01*
X15754409Y25366696D01*
X15802028Y25271458D01*
X15849647Y25223839D01*
X15944885Y25176220D01*
X16182980Y25176220D01*
X16278219Y25223839D01*
X16325838Y25271458D01*
X15182980Y25747648D02*
X15278219Y25795267D01*
X15325838Y25842886D01*
X15373457Y25938124D01*
X15373457Y25985743D01*
X15325838Y26080981D01*
X15278219Y26128600D01*
X15182980Y26176220D01*
X14992504Y26176220D01*
X14897266Y26128600D01*
X14849647Y26080981D01*
X14802028Y25985743D01*
X14802028Y25938124D01*
X14849647Y25842886D01*
X14897266Y25795267D01*
X14992504Y25747648D01*
X15182980Y25747648D01*
X15278219Y25700029D01*
X15325838Y25652410D01*
X15373457Y25557172D01*
X15373457Y25366696D01*
X15325838Y25271458D01*
X15278219Y25223839D01*
X15182980Y25176220D01*
X14992504Y25176220D01*
X14897266Y25223839D01*
X14849647Y25271458D01*
X14802028Y25366696D01*
X14802028Y25557172D01*
X14849647Y25652410D01*
X14897266Y25700029D01*
X14992504Y25747648D01*
X13944885Y25842886D02*
X13944885Y25176220D01*
X14182980Y26223839D02*
X14421076Y25509553D01*
X13802028Y25509553D01*
X12468695Y26176220D02*
X12278219Y26176220D01*
X12182980Y26128600D01*
X12087742Y26033362D01*
X12040123Y25842886D01*
X12040123Y25509553D01*
X12087742Y25319077D01*
X12182980Y25223839D01*
X12278219Y25176220D01*
X12468695Y25176220D01*
X12563933Y25223839D01*
X12659171Y25319077D01*
X12706790Y25509553D01*
X12706790Y25842886D01*
X12659171Y26033362D01*
X12563933Y26128600D01*
X12468695Y26176220D01*
X11182980Y25842886D02*
X11182980Y25176220D01*
X11611552Y25842886D02*
X11611552Y25319077D01*
X11563933Y25223839D01*
X11468695Y25176220D01*
X11325838Y25176220D01*
X11230600Y25223839D01*
X11182980Y25271458D01*
X10849647Y25842886D02*
X10468695Y25842886D01*
X10706790Y26176220D02*
X10706790Y25319077D01*
X10659171Y25223839D01*
X10563933Y25176220D01*
X10468695Y25176220D01*
X22524980Y20327667D02*
X22524980Y20803858D01*
X21524980Y20803858D01*
X22524980Y19994334D02*
X21524980Y19994334D01*
X22239266Y19661000D01*
X21524980Y19327667D01*
X22524980Y19327667D01*
X21620219Y18899096D02*
X21572600Y18851477D01*
X21524980Y18756239D01*
X21524980Y18518143D01*
X21572600Y18422905D01*
X21620219Y18375286D01*
X21715457Y18327667D01*
X21810695Y18327667D01*
X21953552Y18375286D01*
X22524980Y18946715D01*
X22524980Y18327667D01*
X21524980Y17422905D02*
X21524980Y17899096D01*
X22001171Y17946715D01*
X21953552Y17899096D01*
X21905933Y17803858D01*
X21905933Y17565762D01*
X21953552Y17470524D01*
X22001171Y17422905D01*
X22096409Y17375286D01*
X22334504Y17375286D01*
X22429742Y17422905D01*
X22477361Y17470524D01*
X22524980Y17565762D01*
X22524980Y17803858D01*
X22477361Y17899096D01*
X22429742Y17946715D01*
X22524980Y16899096D02*
X22524980Y16708620D01*
X22477361Y16613381D01*
X22429742Y16565762D01*
X22286885Y16470524D01*
X22096409Y16422905D01*
X21715457Y16422905D01*
X21620219Y16470524D01*
X21572600Y16518143D01*
X21524980Y16613381D01*
X21524980Y16803858D01*
X21572600Y16899096D01*
X21620219Y16946715D01*
X21715457Y16994334D01*
X21953552Y16994334D01*
X22048790Y16946715D01*
X22096409Y16899096D01*
X22144028Y16803858D01*
X22144028Y16613381D01*
X22096409Y16518143D01*
X22048790Y16470524D01*
X21953552Y16422905D01*
X21524980Y15565762D02*
X21524980Y15756239D01*
X21572600Y15851477D01*
X21620219Y15899096D01*
X21763076Y15994334D01*
X21953552Y16041953D01*
X22334504Y16041953D01*
X22429742Y15994334D01*
X22477361Y15946715D01*
X22524980Y15851477D01*
X22524980Y15661000D01*
X22477361Y15565762D01*
X22429742Y15518143D01*
X22334504Y15470524D01*
X22096409Y15470524D01*
X22001171Y15518143D01*
X21953552Y15565762D01*
X21905933Y15661000D01*
X21905933Y15851477D01*
X21953552Y15946715D01*
X22001171Y15994334D01*
X22096409Y16041953D01*
X44298904Y51033420D02*
X44298904Y52033420D01*
X43822714Y51700086D02*
X43822714Y51033420D01*
X43822714Y51604848D02*
X43775095Y51652467D01*
X43679857Y51700086D01*
X43537000Y51700086D01*
X43441761Y51652467D01*
X43394142Y51557229D01*
X43394142Y51033420D01*
X43156047Y50938181D02*
X42394142Y50938181D01*
X42298904Y52033420D02*
X41965571Y51033420D01*
X41632238Y52033420D01*
X40727476Y51128658D02*
X40775095Y51081039D01*
X40917952Y51033420D01*
X41013190Y51033420D01*
X41156047Y51081039D01*
X41251285Y51176277D01*
X41298904Y51271515D01*
X41346523Y51461991D01*
X41346523Y51604848D01*
X41298904Y51795324D01*
X41251285Y51890562D01*
X41156047Y51985800D01*
X41013190Y52033420D01*
X40917952Y52033420D01*
X40775095Y51985800D01*
X40727476Y51938181D01*
X39727476Y51128658D02*
X39775095Y51081039D01*
X39917952Y51033420D01*
X40013190Y51033420D01*
X40156047Y51081039D01*
X40251285Y51176277D01*
X40298904Y51271515D01*
X40346523Y51461991D01*
X40346523Y51604848D01*
X40298904Y51795324D01*
X40251285Y51890562D01*
X40156047Y51985800D01*
X40013190Y52033420D01*
X39917952Y52033420D01*
X39775095Y51985800D01*
X39727476Y51938181D01*
X26563342Y50982620D02*
X26563342Y51982620D01*
X26087152Y51649286D02*
X26087152Y50982620D01*
X26087152Y51554048D02*
X26039533Y51601667D01*
X25944295Y51649286D01*
X25801438Y51649286D01*
X25706200Y51601667D01*
X25658580Y51506429D01*
X25658580Y50982620D01*
X25420485Y50887381D02*
X24658580Y50887381D01*
X23896676Y51935000D02*
X23991914Y51982620D01*
X24134771Y51982620D01*
X24277628Y51935000D01*
X24372866Y51839762D01*
X24420485Y51744524D01*
X24468104Y51554048D01*
X24468104Y51411191D01*
X24420485Y51220715D01*
X24372866Y51125477D01*
X24277628Y51030239D01*
X24134771Y50982620D01*
X24039533Y50982620D01*
X23896676Y51030239D01*
X23849057Y51077858D01*
X23849057Y51411191D01*
X24039533Y51411191D01*
X23420485Y50982620D02*
X23420485Y51982620D01*
X22849057Y50982620D01*
X22849057Y51982620D01*
X22372866Y50982620D02*
X22372866Y51982620D01*
X22134771Y51982620D01*
X21991914Y51935000D01*
X21896676Y51839762D01*
X21849057Y51744524D01*
X21801438Y51554048D01*
X21801438Y51411191D01*
X21849057Y51220715D01*
X21896676Y51125477D01*
X21991914Y51030239D01*
X22134771Y50982620D01*
X22372866Y50982620D01*
X11937904Y12057000D02*
X12033142Y12104620D01*
X12176000Y12104620D01*
X12318857Y12057000D01*
X12414095Y11961762D01*
X12461714Y11866524D01*
X12509333Y11676048D01*
X12509333Y11533191D01*
X12461714Y11342715D01*
X12414095Y11247477D01*
X12318857Y11152239D01*
X12176000Y11104620D01*
X12080761Y11104620D01*
X11937904Y11152239D01*
X11890285Y11199858D01*
X11890285Y11533191D01*
X12080761Y11533191D01*
X11461714Y11104620D02*
X11461714Y12104620D01*
X10890285Y11104620D01*
X10890285Y12104620D01*
X10414095Y11104620D02*
X10414095Y12104620D01*
X10176000Y12104620D01*
X10033142Y12057000D01*
X9937904Y11961762D01*
X9890285Y11866524D01*
X9842666Y11676048D01*
X9842666Y11533191D01*
X9890285Y11342715D01*
X9937904Y11247477D01*
X10033142Y11152239D01*
X10176000Y11104620D01*
X10414095Y11104620D01*
X28505019Y2660600D02*
X28581209Y2698696D01*
X28695495Y2698696D01*
X28809780Y2660600D01*
X28885971Y2584410D01*
X28924066Y2508220D01*
X28962161Y2355839D01*
X28962161Y2241553D01*
X28924066Y2089172D01*
X28885971Y2012981D01*
X28809780Y1936791D01*
X28695495Y1898696D01*
X28619304Y1898696D01*
X28505019Y1936791D01*
X28466923Y1974886D01*
X28466923Y2241553D01*
X28619304Y2241553D01*
X26409780Y2698696D02*
X26143114Y1898696D01*
X25876447Y2698696D01*
X18796095Y57539000D02*
X18700857Y57491381D01*
X18558000Y57491381D01*
X18415142Y57539000D01*
X18319904Y57634239D01*
X18272285Y57729477D01*
X18224666Y57919953D01*
X18224666Y58062810D01*
X18272285Y58253286D01*
X18319904Y58348524D01*
X18415142Y58443762D01*
X18558000Y58491381D01*
X18653238Y58491381D01*
X18796095Y58443762D01*
X18843714Y58396143D01*
X18843714Y58062810D01*
X18653238Y58062810D01*
X19272285Y58491381D02*
X19272285Y57491381D01*
X19843714Y58491381D01*
X19843714Y57491381D01*
X20319904Y58491381D02*
X20319904Y57491381D01*
X20558000Y57491381D01*
X20700857Y57539000D01*
X20796095Y57634239D01*
X20843714Y57729477D01*
X20891333Y57919953D01*
X20891333Y58062810D01*
X20843714Y58253286D01*
X20796095Y58348524D01*
X20700857Y58443762D01*
X20558000Y58491381D01*
X20319904Y58491381D01*
X19564219Y2711400D02*
X19640409Y2749496D01*
X19754695Y2749496D01*
X19868980Y2711400D01*
X19945171Y2635210D01*
X19983266Y2559020D01*
X20021361Y2406639D01*
X20021361Y2292353D01*
X19983266Y2139972D01*
X19945171Y2063781D01*
X19868980Y1987591D01*
X19754695Y1949496D01*
X19678504Y1949496D01*
X19564219Y1987591D01*
X19526123Y2025686D01*
X19526123Y2292353D01*
X19678504Y2292353D01*
X17468980Y2749496D02*
X17202314Y1949496D01*
X16935647Y2749496D01*
X14287476Y4738620D02*
X14763666Y4738620D01*
X14811285Y4262429D01*
X14763666Y4310048D01*
X14668428Y4357667D01*
X14430333Y4357667D01*
X14335095Y4310048D01*
X14287476Y4262429D01*
X14239857Y4167191D01*
X14239857Y3929096D01*
X14287476Y3833858D01*
X14335095Y3786239D01*
X14430333Y3738620D01*
X14668428Y3738620D01*
X14763666Y3786239D01*
X14811285Y3833858D01*
X13954142Y4738620D02*
X13620809Y3738620D01*
X13287476Y4738620D01*
X6413333Y12104620D02*
X6080000Y11104620D01*
X5746666Y12104620D01*
X4841904Y11199858D02*
X4889523Y11152239D01*
X5032380Y11104620D01*
X5127619Y11104620D01*
X5270476Y11152239D01*
X5365714Y11247477D01*
X5413333Y11342715D01*
X5460952Y11533191D01*
X5460952Y11676048D01*
X5413333Y11866524D01*
X5365714Y11961762D01*
X5270476Y12057000D01*
X5127619Y12104620D01*
X5032380Y12104620D01*
X4889523Y12057000D01*
X4841904Y12009381D01*
X3841904Y11199858D02*
X3889523Y11152239D01*
X4032380Y11104620D01*
X4127619Y11104620D01*
X4270476Y11152239D01*
X4365714Y11247477D01*
X4413333Y11342715D01*
X4460952Y11533191D01*
X4460952Y11676048D01*
X4413333Y11866524D01*
X4365714Y11961762D01*
X4270476Y12057000D01*
X4127619Y12104620D01*
X4032380Y12104620D01*
X3889523Y12057000D01*
X3841904Y12009381D01*
X8874047Y5897620D02*
X9445476Y5897620D01*
X9159761Y5897620D02*
X9159761Y6897620D01*
X9255000Y6754762D01*
X9350238Y6659524D01*
X9445476Y6611905D01*
X8493095Y6802381D02*
X8445476Y6850000D01*
X8350238Y6897620D01*
X8112142Y6897620D01*
X8016904Y6850000D01*
X7969285Y6802381D01*
X7921666Y6707143D01*
X7921666Y6611905D01*
X7969285Y6469048D01*
X8540714Y5897620D01*
X7921666Y5897620D01*
X7635952Y6897620D02*
X7302619Y5897620D01*
X6969285Y6897620D01*
X43662504Y45127800D02*
X43757742Y45175420D01*
X43900600Y45175420D01*
X44043457Y45127800D01*
X44138695Y45032562D01*
X44186314Y44937324D01*
X44233933Y44746848D01*
X44233933Y44603991D01*
X44186314Y44413515D01*
X44138695Y44318277D01*
X44043457Y44223039D01*
X43900600Y44175420D01*
X43805361Y44175420D01*
X43662504Y44223039D01*
X43614885Y44270658D01*
X43614885Y44603991D01*
X43805361Y44603991D01*
X43186314Y44175420D02*
X43186314Y45175420D01*
X42614885Y44175420D01*
X42614885Y45175420D01*
X42138695Y44175420D02*
X42138695Y45175420D01*
X41900600Y45175420D01*
X41757742Y45127800D01*
X41662504Y45032562D01*
X41614885Y44937324D01*
X41567266Y44746848D01*
X41567266Y44603991D01*
X41614885Y44413515D01*
X41662504Y44318277D01*
X41757742Y44223039D01*
X41900600Y44175420D01*
X42138695Y44175420D01*
X25971666Y57491381D02*
X26305000Y58491381D01*
X26638333Y57491381D01*
X27543095Y58396143D02*
X27495476Y58443762D01*
X27352619Y58491381D01*
X27257380Y58491381D01*
X27114523Y58443762D01*
X27019285Y58348524D01*
X26971666Y58253286D01*
X26924047Y58062810D01*
X26924047Y57919953D01*
X26971666Y57729477D01*
X27019285Y57634239D01*
X27114523Y57539000D01*
X27257380Y57491381D01*
X27352619Y57491381D01*
X27495476Y57539000D01*
X27543095Y57586620D01*
X28543095Y58396143D02*
X28495476Y58443762D01*
X28352619Y58491381D01*
X28257380Y58491381D01*
X28114523Y58443762D01*
X28019285Y58348524D01*
X27971666Y58253286D01*
X27924047Y58062810D01*
X27924047Y57919953D01*
X27971666Y57729477D01*
X28019285Y57634239D01*
X28114523Y57539000D01*
X28257380Y57491381D01*
X28352619Y57491381D01*
X28495476Y57539000D01*
X28543095Y57586620D01*
X25082333Y26125420D02*
X24749000Y25125420D01*
X24415666Y26125420D01*
X23510904Y25220658D02*
X23558523Y25173039D01*
X23701380Y25125420D01*
X23796619Y25125420D01*
X23939476Y25173039D01*
X24034714Y25268277D01*
X24082333Y25363515D01*
X24129952Y25553991D01*
X24129952Y25696848D01*
X24082333Y25887324D01*
X24034714Y25982562D01*
X23939476Y26077800D01*
X23796619Y26125420D01*
X23701380Y26125420D01*
X23558523Y26077800D01*
X23510904Y26030181D01*
X22510904Y25220658D02*
X22558523Y25173039D01*
X22701380Y25125420D01*
X22796619Y25125420D01*
X22939476Y25173039D01*
X23034714Y25268277D01*
X23082333Y25363515D01*
X23129952Y25553991D01*
X23129952Y25696848D01*
X23082333Y25887324D01*
X23034714Y25982562D01*
X22939476Y26077800D01*
X22796619Y26125420D01*
X22701380Y26125420D01*
X22558523Y26077800D01*
X22510904Y26030181D01*
X22524980Y38018696D02*
X21524980Y38018696D01*
X22239266Y37685362D01*
X21524980Y37352029D01*
X22524980Y37352029D01*
X22524980Y36875839D02*
X21524980Y36875839D01*
X21524980Y36494886D01*
X21572600Y36399648D01*
X21620219Y36352029D01*
X21715457Y36304410D01*
X21858314Y36304410D01*
X21953552Y36352029D01*
X22001171Y36399648D01*
X22048790Y36494886D01*
X22048790Y36875839D01*
X22524980Y35352029D02*
X22524980Y35923458D01*
X22524980Y35637743D02*
X21524980Y35637743D01*
X21667838Y35732981D01*
X21763076Y35828220D01*
X21810695Y35923458D01*
X21524980Y34447267D02*
X21524980Y34923458D01*
X22001171Y34971077D01*
X21953552Y34923458D01*
X21905933Y34828220D01*
X21905933Y34590124D01*
X21953552Y34494886D01*
X22001171Y34447267D01*
X22096409Y34399648D01*
X22334504Y34399648D01*
X22429742Y34447267D01*
X22477361Y34494886D01*
X22524980Y34590124D01*
X22524980Y34828220D01*
X22477361Y34923458D01*
X22429742Y34971077D01*
X21953552Y33828220D02*
X21905933Y33923458D01*
X21858314Y33971077D01*
X21763076Y34018696D01*
X21715457Y34018696D01*
X21620219Y33971077D01*
X21572600Y33923458D01*
X21524980Y33828220D01*
X21524980Y33637743D01*
X21572600Y33542505D01*
X21620219Y33494886D01*
X21715457Y33447267D01*
X21763076Y33447267D01*
X21858314Y33494886D01*
X21905933Y33542505D01*
X21953552Y33637743D01*
X21953552Y33828220D01*
X22001171Y33923458D01*
X22048790Y33971077D01*
X22144028Y34018696D01*
X22334504Y34018696D01*
X22429742Y33971077D01*
X22477361Y33923458D01*
X22524980Y33828220D01*
X22524980Y33637743D01*
X22477361Y33542505D01*
X22429742Y33494886D01*
X22334504Y33447267D01*
X22144028Y33447267D01*
X22048790Y33494886D01*
X22001171Y33542505D01*
X21953552Y33637743D01*
X21858314Y32590124D02*
X22524980Y32590124D01*
X21477361Y32828220D02*
X22191647Y33066315D01*
X22191647Y32447267D01*
X43611704Y26077800D02*
X43706942Y26125420D01*
X43849800Y26125420D01*
X43992657Y26077800D01*
X44087895Y25982562D01*
X44135514Y25887324D01*
X44183133Y25696848D01*
X44183133Y25553991D01*
X44135514Y25363515D01*
X44087895Y25268277D01*
X43992657Y25173039D01*
X43849800Y25125420D01*
X43754561Y25125420D01*
X43611704Y25173039D01*
X43564085Y25220658D01*
X43564085Y25553991D01*
X43754561Y25553991D01*
X43135514Y25125420D02*
X43135514Y26125420D01*
X42564085Y25125420D01*
X42564085Y26125420D01*
X42087895Y25125420D02*
X42087895Y26125420D01*
X41849800Y26125420D01*
X41706942Y26077800D01*
X41611704Y25982562D01*
X41564085Y25887324D01*
X41516466Y25696848D01*
X41516466Y25553991D01*
X41564085Y25363515D01*
X41611704Y25268277D01*
X41706942Y25173039D01*
X41849800Y25125420D01*
X42087895Y25125420D01*
%LPC*%
D11*
%TO.C,J1*%
X27305000Y55118000D03*
D12*
X19505000Y55118000D03*
%TD*%
D13*
%TO.C,DCDC1*%
X28879800Y44627800D03*
X26322800Y44679800D03*
X37769800Y44627800D03*
X40309800Y44627800D03*
X26297800Y25604800D03*
X28625800Y25629800D03*
X40309800Y25577800D03*
X38023800Y25577800D03*
%TD*%
D14*
%TO.C,DCDC2*%
X42074728Y49064717D03*
X24221890Y49055988D03*
X42069444Y9216627D03*
X24231217Y9207065D03*
%TD*%
D15*
%TO.C,JP1*%
X10287000Y20447000D03*
D16*
X12827000Y20447000D03*
%TD*%
D17*
%TO.C,J5*%
X5207000Y9017000D03*
D18*
X11207000Y9017000D03*
%TD*%
D19*
%TO.C,D2*%
X19227800Y43135000D03*
X19227800Y34335000D03*
%TD*%
D15*
%TO.C,J3*%
X19227800Y16078200D03*
D16*
X19227800Y18618200D03*
%TD*%
D20*
%TO.C,K1*%
X10541000Y36703000D03*
D21*
X10541000Y39243000D03*
X10541000Y46863000D03*
X5461000Y46863000D03*
X5461000Y39243000D03*
X5461000Y36703000D03*
%TD*%
D22*
%TO.C,J7*%
X17272000Y4191000D03*
D23*
X19772000Y4191000D03*
%TD*%
D22*
%TO.C,J9*%
X35052000Y4191000D03*
D23*
X37552000Y4191000D03*
%TD*%
D22*
%TO.C,J8*%
X26182000Y4191000D03*
D23*
X28682000Y4191000D03*
%TD*%
D15*
%TO.C,JP2*%
X10287000Y17907000D03*
D16*
X12827000Y17907000D03*
%TD*%
D24*
%TO.C,K2*%
X8001000Y50673000D03*
X14001000Y36473000D03*
X2001000Y36473000D03*
X2001000Y48673000D03*
X14001000Y48673000D03*
%TD*%
D25*
%TO.C,J2*%
X5461000Y26543000D03*
D26*
X5461000Y24043000D03*
X5461000Y21543000D03*
X5461000Y19043000D03*
X5461000Y16543000D03*
%TD*%
M02*
