%TF.GenerationSoftware,KiCad,Pcbnew,(6.0.10)*%
%TF.CreationDate,2023-01-27T02:26:12+09:00*%
%TF.ProjectId,rasp_power_module,72617370-5f70-46f7-9765-725f6d6f6475,2*%
%TF.SameCoordinates,PX74269e8PY6f4e628*%
%TF.FileFunction,Copper,L2,Bot*%
%TF.FilePolarity,Positive*%
%FSLAX46Y46*%
G04 Gerber Fmt 4.6, Leading zero omitted, Abs format (unit mm)*
G04 Created by KiCad (PCBNEW (6.0.10)) date 2023-01-27 02:26:12*
%MOMM*%
%LPD*%
G01*
G04 APERTURE LIST*
G04 Aperture macros list*
%AMRoundRect*
0 Rectangle with rounded corners*
0 $1 Rounding radius*
0 $2 $3 $4 $5 $6 $7 $8 $9 X,Y pos of 4 corners*
0 Add a 4 corners polygon primitive as box body*
4,1,4,$2,$3,$4,$5,$6,$7,$8,$9,$2,$3,0*
0 Add four circle primitives for the rounded corners*
1,1,$1+$1,$2,$3*
1,1,$1+$1,$4,$5*
1,1,$1+$1,$6,$7*
1,1,$1+$1,$8,$9*
0 Add four rect primitives between the rounded corners*
20,1,$1+$1,$2,$3,$4,$5,0*
20,1,$1+$1,$4,$5,$6,$7,0*
20,1,$1+$1,$6,$7,$8,$9,0*
20,1,$1+$1,$8,$9,$2,$3,0*%
G04 Aperture macros list end*
%TA.AperFunction,ComponentPad*%
%ADD10C,1.524000*%
%TD*%
%TA.AperFunction,ComponentPad*%
%ADD11R,3.000000X3.000000*%
%TD*%
%TA.AperFunction,ComponentPad*%
%ADD12R,1.700000X1.700000*%
%TD*%
%TA.AperFunction,ComponentPad*%
%ADD13O,1.700000X1.700000*%
%TD*%
%TA.AperFunction,ComponentPad*%
%ADD14RoundRect,0.249999X-1.300001X-1.300001X1.300001X-1.300001X1.300001X1.300001X-1.300001X1.300001X0*%
%TD*%
%TA.AperFunction,ComponentPad*%
%ADD15C,3.100000*%
%TD*%
%TA.AperFunction,ComponentPad*%
%ADD16R,3.300000X4.500000*%
%TD*%
%TA.AperFunction,ComponentPad*%
%ADD17R,2.000000X2.000000*%
%TD*%
%TA.AperFunction,ComponentPad*%
%ADD18C,2.000000*%
%TD*%
%TA.AperFunction,ComponentPad*%
%ADD19RoundRect,0.250000X-0.600000X-0.750000X0.600000X-0.750000X0.600000X0.750000X-0.600000X0.750000X0*%
%TD*%
%TA.AperFunction,ComponentPad*%
%ADD20O,1.700000X2.000000*%
%TD*%
%TA.AperFunction,ComponentPad*%
%ADD21RoundRect,0.250002X1.699998X1.699998X-1.699998X1.699998X-1.699998X-1.699998X1.699998X-1.699998X0*%
%TD*%
%TA.AperFunction,ComponentPad*%
%ADD22C,3.900000*%
%TD*%
%TA.AperFunction,ComponentPad*%
%ADD23C,3.000000*%
%TD*%
%TA.AperFunction,ComponentPad*%
%ADD24RoundRect,0.250000X-0.725000X0.600000X-0.725000X-0.600000X0.725000X-0.600000X0.725000X0.600000X0*%
%TD*%
%TA.AperFunction,ComponentPad*%
%ADD25O,1.950000X1.700000*%
%TD*%
%TA.AperFunction,Conductor*%
%ADD26C,0.250000*%
%TD*%
%TA.AperFunction,Conductor*%
%ADD27C,1.000000*%
%TD*%
G04 APERTURE END LIST*
D10*
%TO.P,DCDC1,1,InVCC*%
%TO.N,12V_ON*%
X28696000Y44728000D03*
X26156000Y44728000D03*
%TO.P,DCDC1,2,InGND*%
%TO.N,InGND*%
X37616000Y44728000D03*
X40156000Y44728000D03*
%TO.P,DCDC1,3,OutVCC*%
%TO.N,5V_ON*%
X26156000Y25728000D03*
X28696000Y25728000D03*
%TO.P,DCDC1,4,OutGND*%
%TO.N,InGND*%
X37616000Y25728000D03*
X40156000Y25728000D03*
%TD*%
D11*
%TO.P,DCDC2,1,InVCC*%
%TO.N,12V_ON*%
X42074728Y49064717D03*
%TO.P,DCDC2,2,InGND*%
%TO.N,InGND*%
X24221890Y49055988D03*
%TO.P,DCDC2,3,OutVCC*%
%TO.N,5V_ON*%
X42069444Y9216627D03*
%TO.P,DCDC2,4,OutGND*%
%TO.N,InGND*%
X24231217Y9207065D03*
%TD*%
D12*
%TO.P,JP1,1,A*%
%TO.N,/ON_LED*%
X10287000Y20447000D03*
D13*
%TO.P,JP1,2,B*%
%TO.N,12V_ON*%
X12827000Y20447000D03*
%TD*%
D14*
%TO.P,J5,1,Pin_1*%
%TO.N,12V_ON*%
X5207000Y9017000D03*
D15*
%TO.P,J5,2,Pin_2*%
%TO.N,InGND*%
X11207000Y9017000D03*
%TD*%
D16*
%TO.P,D2,1,K*%
%TO.N,12V_ON*%
X19227800Y43135000D03*
%TO.P,D2,2,A*%
%TO.N,/SWITCH*%
X19227800Y34335000D03*
%TD*%
D12*
%TO.P,J3,1,Pin_1*%
%TO.N,/SHUTDOWN*%
X19227800Y16078200D03*
D13*
%TO.P,J3,2,Pin_2*%
%TO.N,/POWER_SIG*%
X19227800Y18618200D03*
%TD*%
D17*
%TO.P,K1,1*%
%TO.N,unconnected-(K1-Pad1)*%
X10541000Y36703000D03*
D18*
%TO.P,K1,2*%
%TO.N,5V_ON*%
X10541000Y39243000D03*
%TO.P,K1,5*%
%TO.N,Relay_In*%
X10541000Y46863000D03*
%TO.P,K1,6*%
X5461000Y46863000D03*
%TO.P,K1,9*%
%TO.N,Relay_Coil_2*%
X5461000Y39243000D03*
%TO.P,K1,10*%
%TO.N,12V_ON*%
X5461000Y36703000D03*
%TD*%
D19*
%TO.P,J7,1,Pin_1*%
%TO.N,5V_ON*%
X17272000Y4191000D03*
D20*
%TO.P,J7,2,Pin_2*%
%TO.N,InGND*%
X19772000Y4191000D03*
%TD*%
D21*
%TO.P,J1,1,Pin_1*%
%TO.N,Relay_In*%
X27305000Y55118000D03*
D22*
%TO.P,J1,2,Pin_2*%
%TO.N,InGND*%
X19505000Y55118000D03*
%TD*%
D19*
%TO.P,J9,1,Pin_1*%
%TO.N,5V_ON*%
X35052000Y4191000D03*
D20*
%TO.P,J9,2,Pin_2*%
%TO.N,InGND*%
X37552000Y4191000D03*
%TD*%
D19*
%TO.P,J8,1,Pin_1*%
%TO.N,5V_ON*%
X26182000Y4191000D03*
D20*
%TO.P,J8,2,Pin_2*%
%TO.N,InGND*%
X28682000Y4191000D03*
%TD*%
D12*
%TO.P,JP2,1,A*%
%TO.N,/ON_LED*%
X10287000Y17907000D03*
D13*
%TO.P,JP2,2,B*%
%TO.N,5V_ON*%
X12827000Y17907000D03*
%TD*%
D23*
%TO.P,K2,11*%
%TO.N,Relay_In*%
X8001000Y50673000D03*
%TO.P,K2,12*%
%TO.N,unconnected-(K2-Pad12)*%
X14001000Y36473000D03*
%TO.P,K2,14*%
%TO.N,12V_ON*%
X2001000Y36473000D03*
%TO.P,K2,A1*%
%TO.N,Relay_Coil_2*%
X2001000Y48673000D03*
%TO.P,K2,A2*%
%TO.N,5V_ON*%
X14001000Y48673000D03*
%TD*%
D24*
%TO.P,J2,1,Pin_1*%
%TO.N,Relay_In*%
X5461000Y26543000D03*
D25*
%TO.P,J2,2,Pin_2*%
%TO.N,InGND*%
X5461000Y24043000D03*
%TO.P,J2,3,Pin_3*%
%TO.N,/SWITCH*%
X5461000Y21543000D03*
%TO.P,J2,4,Pin_4*%
%TO.N,/ON_LED*%
X5461000Y19043000D03*
%TO.P,J2,5,Pin_5*%
%TO.N,5V_ON*%
X5461000Y16543000D03*
%TD*%
D26*
%TO.N,12V_ON*%
X5461000Y9017000D02*
X5207000Y9017000D01*
X11811000Y15367000D02*
X5461000Y9017000D01*
X14478000Y16256000D02*
X13589000Y15367000D01*
X14478000Y18796000D02*
X14478000Y16256000D01*
X12827000Y20447000D02*
X14478000Y18796000D01*
X13589000Y15367000D02*
X11811000Y15367000D01*
D27*
%TO.N,InGND*%
X43307000Y5918200D02*
X39279200Y5918200D01*
X44577000Y24460200D02*
X44577000Y7188200D01*
X39279200Y5918200D02*
X37552000Y4191000D01*
X43309200Y25728000D02*
X44577000Y24460200D01*
X37616000Y25728000D02*
X43309200Y25728000D01*
X44577000Y7188200D02*
X43307000Y5918200D01*
X36144200Y2159000D02*
X30714000Y2159000D01*
X30714000Y2159000D02*
X28682000Y4191000D01*
X37552000Y4191000D02*
X37552000Y3566800D01*
X37552000Y3566800D02*
X36144200Y2159000D01*
X21804000Y2159000D02*
X19772000Y4191000D01*
X27216100Y2159000D02*
X21804000Y2159000D01*
X28682000Y3624900D02*
X27216100Y2159000D01*
X28682000Y4191000D02*
X28682000Y3624900D01*
X24231217Y8650217D02*
X24231217Y9207065D01*
X24231217Y9207065D02*
X24041152Y9017000D01*
X19772000Y4191000D02*
X24231217Y8650217D01*
X24041152Y9017000D02*
X11207000Y9017000D01*
D26*
%TO.N,5V_ON*%
X10541000Y39243000D02*
X14001000Y42703000D01*
X14001000Y42703000D02*
X14001000Y48673000D01*
D27*
%TO.N,12V_ON*%
X40360600Y51943000D02*
X21666200Y51943000D01*
X2226436Y36698436D02*
X2001000Y36473000D01*
X21666200Y51943000D02*
X19177000Y49453800D01*
X1905000Y11811000D02*
X1905000Y36377000D01*
X19177000Y43785800D02*
X19227800Y43735000D01*
X5456436Y36698436D02*
X2226436Y36698436D01*
X41955811Y50347789D02*
X40360600Y51943000D01*
X19177000Y49453800D02*
X19177000Y43785800D01*
X4699000Y9017000D02*
X1905000Y11811000D01*
X1905000Y36377000D02*
X2001000Y36473000D01*
X5461000Y36703000D02*
X5456436Y36698436D01*
X5207000Y9017000D02*
X4699000Y9017000D01*
X41955811Y48895000D02*
X41955811Y50347789D01*
%TO.N,/SWITCH*%
X6477000Y21463000D02*
X5541000Y21463000D01*
X19227800Y33735000D02*
X18749000Y33735000D01*
X5541000Y21463000D02*
X5461000Y21543000D01*
X18749000Y33735000D02*
X6477000Y21463000D01*
%TO.N,Relay_In*%
X8001000Y50673000D02*
X8001000Y29083000D01*
X8001000Y29083000D02*
X5461000Y26543000D01*
%TD*%
M02*
