%TF.GenerationSoftware,KiCad,Pcbnew,(6.0.9)*%
%TF.CreationDate,2023-01-08T21:07:14+09:00*%
%TF.ProjectId,rasp_power_module,72617370-5f70-46f7-9765-725f6d6f6475,rev?*%
%TF.SameCoordinates,Original*%
%TF.FileFunction,Soldermask,Bot*%
%TF.FilePolarity,Negative*%
%FSLAX46Y46*%
G04 Gerber Fmt 4.6, Leading zero omitted, Abs format (unit mm)*
G04 Created by KiCad (PCBNEW (6.0.9)) date 2023-01-08 21:07:14*
%MOMM*%
%LPD*%
G01*
G04 APERTURE LIST*
G04 Aperture macros list*
%AMRoundRect*
0 Rectangle with rounded corners*
0 $1 Rounding radius*
0 $2 $3 $4 $5 $6 $7 $8 $9 X,Y pos of 4 corners*
0 Add a 4 corners polygon primitive as box body*
4,1,4,$2,$3,$4,$5,$6,$7,$8,$9,$2,$3,0*
0 Add four circle primitives for the rounded corners*
1,1,$1+$1,$2,$3*
1,1,$1+$1,$4,$5*
1,1,$1+$1,$6,$7*
1,1,$1+$1,$8,$9*
0 Add four rect primitives between the rounded corners*
20,1,$1+$1,$2,$3,$4,$5,0*
20,1,$1+$1,$4,$5,$6,$7,0*
20,1,$1+$1,$6,$7,$8,$9,0*
20,1,$1+$1,$8,$9,$2,$3,0*%
G04 Aperture macros list end*
%ADD10C,1.524000*%
%ADD11R,3.000000X3.000000*%
%ADD12R,1.700000X1.700000*%
%ADD13O,1.700000X1.700000*%
%ADD14RoundRect,0.250002X-1.699998X-1.699998X1.699998X-1.699998X1.699998X1.699998X-1.699998X1.699998X0*%
%ADD15C,3.900000*%
%ADD16R,3.300000X4.500000*%
%ADD17R,2.000000X2.000000*%
%ADD18C,2.000000*%
%ADD19RoundRect,0.250000X-0.600000X-0.750000X0.600000X-0.750000X0.600000X0.750000X-0.600000X0.750000X0*%
%ADD20O,1.700000X2.000000*%
%ADD21C,3.000000*%
%ADD22RoundRect,0.250000X-0.725000X0.600000X-0.725000X-0.600000X0.725000X-0.600000X0.725000X0.600000X0*%
%ADD23O,1.950000X1.700000*%
G04 APERTURE END LIST*
D10*
%TO.C,DCDC1*%
X148040000Y-86841000D03*
X150368000Y-86816000D03*
X159766000Y-86868000D03*
X162052000Y-86868000D03*
X148065000Y-67766000D03*
X150622000Y-67818000D03*
X159512000Y-67818000D03*
X162052000Y-67818000D03*
%TD*%
D11*
%TO.C,DCDC2*%
X163867728Y-67699083D03*
X146014890Y-67707812D03*
X163862444Y-107547173D03*
X146024217Y-107556735D03*
%TD*%
D12*
%TO.C,JP1*%
X132080000Y-97790000D03*
D13*
X134620000Y-97790000D03*
%TD*%
D14*
%TO.C,J5*%
X125222000Y-107442000D03*
D15*
X133022000Y-107442000D03*
%TD*%
D16*
%TO.C,D2*%
X141224000Y-72435000D03*
X141224000Y-81235000D03*
%TD*%
D13*
%TO.C,J3*%
X141224000Y-90678000D03*
D12*
X141224000Y-93218000D03*
%TD*%
D17*
%TO.C,K1*%
X132890436Y-80014564D03*
D18*
X132890436Y-77474564D03*
X132890436Y-69854564D03*
X127810436Y-69854564D03*
X127810436Y-77474564D03*
X127810436Y-80014564D03*
%TD*%
D19*
%TO.C,J7*%
X139065000Y-113030000D03*
D20*
X141565000Y-113030000D03*
%TD*%
D14*
%TO.C,J1*%
X141388000Y-63246000D03*
D15*
X149188000Y-63246000D03*
%TD*%
D19*
%TO.C,J9*%
X156845000Y-113030000D03*
D20*
X159345000Y-113030000D03*
%TD*%
D19*
%TO.C,J8*%
X147975000Y-113030000D03*
D20*
X150475000Y-113030000D03*
%TD*%
D12*
%TO.C,JP2*%
X132080000Y-100330000D03*
D13*
X134620000Y-100330000D03*
%TD*%
D21*
%TO.C,K2*%
X130175000Y-66040000D03*
X136175000Y-80240000D03*
X124175000Y-80240000D03*
X124175000Y-68040000D03*
X136175000Y-68040000D03*
%TD*%
D22*
%TO.C,J2*%
X127254000Y-90170000D03*
D23*
X127254000Y-92670000D03*
X127254000Y-95170000D03*
X127254000Y-97670000D03*
X127254000Y-100170000D03*
%TD*%
M02*
