%TF.GenerationSoftware,KiCad,Pcbnew,(6.0.2)*%
%TF.CreationDate,2022-04-10T16:39:51+09:00*%
%TF.ProjectId,battery_array,62617474-6572-4795-9f61-727261792e6b,rev?*%
%TF.SameCoordinates,Original*%
%TF.FileFunction,Legend,Bot*%
%TF.FilePolarity,Positive*%
%FSLAX46Y46*%
G04 Gerber Fmt 4.6, Leading zero omitted, Abs format (unit mm)*
G04 Created by KiCad (PCBNEW (6.0.2)) date 2022-04-10 16:39:51*
%MOMM*%
%LPD*%
G01*
G04 APERTURE LIST*
%ADD10C,0.150000*%
G04 APERTURE END LIST*
D10*
X115328238Y-106114904D02*
X115328238Y-106686333D01*
X115366333Y-106800619D01*
X115442523Y-106876809D01*
X115556809Y-106914904D01*
X115633000Y-106914904D01*
X114566333Y-106914904D02*
X114947285Y-106914904D01*
X114947285Y-106114904D01*
X113842523Y-106838714D02*
X113880619Y-106876809D01*
X113994904Y-106914904D01*
X114071095Y-106914904D01*
X114185380Y-106876809D01*
X114261571Y-106800619D01*
X114299666Y-106724428D01*
X114337761Y-106572047D01*
X114337761Y-106457761D01*
X114299666Y-106305380D01*
X114261571Y-106229190D01*
X114185380Y-106153000D01*
X114071095Y-106114904D01*
X113994904Y-106114904D01*
X113880619Y-106153000D01*
X113842523Y-106191095D01*
X113271095Y-106114904D02*
X113271095Y-106686333D01*
X113309190Y-106800619D01*
X113385380Y-106876809D01*
X113499666Y-106914904D01*
X113575857Y-106914904D01*
X112509190Y-106914904D02*
X112890142Y-106914904D01*
X112890142Y-106114904D01*
X111785380Y-106838714D02*
X111823476Y-106876809D01*
X111937761Y-106914904D01*
X112013952Y-106914904D01*
X112128238Y-106876809D01*
X112204428Y-106800619D01*
X112242523Y-106724428D01*
X112280619Y-106572047D01*
X112280619Y-106457761D01*
X112242523Y-106305380D01*
X112204428Y-106229190D01*
X112128238Y-106153000D01*
X112013952Y-106114904D01*
X111937761Y-106114904D01*
X111823476Y-106153000D01*
X111785380Y-106191095D01*
X111213952Y-106114904D02*
X111213952Y-106686333D01*
X111252047Y-106800619D01*
X111328238Y-106876809D01*
X111442523Y-106914904D01*
X111518714Y-106914904D01*
X110452047Y-106914904D02*
X110833000Y-106914904D01*
X110833000Y-106114904D01*
X109728238Y-106838714D02*
X109766333Y-106876809D01*
X109880619Y-106914904D01*
X109956809Y-106914904D01*
X110071095Y-106876809D01*
X110147285Y-106800619D01*
X110185380Y-106724428D01*
X110223476Y-106572047D01*
X110223476Y-106457761D01*
X110185380Y-106305380D01*
X110147285Y-106229190D01*
X110071095Y-106153000D01*
X109956809Y-106114904D01*
X109880619Y-106114904D01*
X109766333Y-106153000D01*
X109728238Y-106191095D01*
X109156809Y-106114904D02*
X109156809Y-106686333D01*
X109194904Y-106800619D01*
X109271095Y-106876809D01*
X109385380Y-106914904D01*
X109461571Y-106914904D01*
X108394904Y-106914904D02*
X108775857Y-106914904D01*
X108775857Y-106114904D01*
X107671095Y-106838714D02*
X107709190Y-106876809D01*
X107823476Y-106914904D01*
X107899666Y-106914904D01*
X108013952Y-106876809D01*
X108090142Y-106800619D01*
X108128238Y-106724428D01*
X108166333Y-106572047D01*
X108166333Y-106457761D01*
X108128238Y-106305380D01*
X108090142Y-106229190D01*
X108013952Y-106153000D01*
X107899666Y-106114904D01*
X107823476Y-106114904D01*
X107709190Y-106153000D01*
X107671095Y-106191095D01*
M02*
