%TF.GenerationSoftware,KiCad,Pcbnew,(6.0.2)*%
%TF.CreationDate,2022-04-10T16:39:51+09:00*%
%TF.ProjectId,battery_array,62617474-6572-4795-9f61-727261792e6b,rev?*%
%TF.SameCoordinates,Original*%
%TF.FileFunction,Legend,Top*%
%TF.FilePolarity,Positive*%
%FSLAX46Y46*%
G04 Gerber Fmt 4.6, Leading zero omitted, Abs format (unit mm)*
G04 Created by KiCad (PCBNEW (6.0.2)) date 2022-04-10 16:39:51*
%MOMM*%
%LPD*%
G01*
G04 APERTURE LIST*
%ADD10C,0.150000*%
%ADD11C,0.120000*%
G04 APERTURE END LIST*
D10*
X188126000Y-106742666D02*
X187892666Y-106409333D01*
X187726000Y-106742666D02*
X187726000Y-106042666D01*
X187992666Y-106042666D01*
X188059333Y-106076000D01*
X188092666Y-106109333D01*
X188126000Y-106176000D01*
X188126000Y-106276000D01*
X188092666Y-106342666D01*
X188059333Y-106376000D01*
X187992666Y-106409333D01*
X187726000Y-106409333D01*
X188692666Y-106709333D02*
X188626000Y-106742666D01*
X188492666Y-106742666D01*
X188426000Y-106709333D01*
X188392666Y-106642666D01*
X188392666Y-106376000D01*
X188426000Y-106309333D01*
X188492666Y-106276000D01*
X188626000Y-106276000D01*
X188692666Y-106309333D01*
X188726000Y-106376000D01*
X188726000Y-106442666D01*
X188392666Y-106509333D01*
X188959333Y-106276000D02*
X189126000Y-106742666D01*
X189292666Y-106276000D01*
X189559333Y-106676000D02*
X189592666Y-106709333D01*
X189559333Y-106742666D01*
X189526000Y-106709333D01*
X189559333Y-106676000D01*
X189559333Y-106742666D01*
X190259333Y-106742666D02*
X189859333Y-106742666D01*
X190059333Y-106742666D02*
X190059333Y-106042666D01*
X189992666Y-106142666D01*
X189926000Y-106209333D01*
X189859333Y-106242666D01*
X167077666Y-106338666D02*
X167553857Y-106338666D01*
X166982428Y-106624380D02*
X167315761Y-105624380D01*
X167649095Y-106624380D01*
X167982428Y-106624380D02*
X167982428Y-105957714D01*
X167982428Y-106052952D02*
X168030047Y-106005333D01*
X168125285Y-105957714D01*
X168268142Y-105957714D01*
X168363380Y-106005333D01*
X168411000Y-106100571D01*
X168411000Y-106624380D01*
X168411000Y-106100571D02*
X168458619Y-106005333D01*
X168553857Y-105957714D01*
X168696714Y-105957714D01*
X168791952Y-106005333D01*
X168839571Y-106100571D01*
X168839571Y-106624380D01*
X169458619Y-106624380D02*
X169363380Y-106576761D01*
X169315761Y-106529142D01*
X169268142Y-106433904D01*
X169268142Y-106148190D01*
X169315761Y-106052952D01*
X169363380Y-106005333D01*
X169458619Y-105957714D01*
X169601476Y-105957714D01*
X169696714Y-106005333D01*
X169744333Y-106052952D01*
X169791952Y-106148190D01*
X169791952Y-106433904D01*
X169744333Y-106529142D01*
X169696714Y-106576761D01*
X169601476Y-106624380D01*
X169458619Y-106624380D01*
X170172904Y-106576761D02*
X170268142Y-106624380D01*
X170458619Y-106624380D01*
X170553857Y-106576761D01*
X170601476Y-106481523D01*
X170601476Y-106433904D01*
X170553857Y-106338666D01*
X170458619Y-106291047D01*
X170315761Y-106291047D01*
X170220523Y-106243428D01*
X170172904Y-106148190D01*
X170172904Y-106100571D01*
X170220523Y-106005333D01*
X170315761Y-105957714D01*
X170458619Y-105957714D01*
X170553857Y-106005333D01*
X171696714Y-105624380D02*
X172315761Y-105624380D01*
X171982428Y-106005333D01*
X172125285Y-106005333D01*
X172220523Y-106052952D01*
X172268142Y-106100571D01*
X172315761Y-106195809D01*
X172315761Y-106433904D01*
X172268142Y-106529142D01*
X172220523Y-106576761D01*
X172125285Y-106624380D01*
X171839571Y-106624380D01*
X171744333Y-106576761D01*
X171696714Y-106529142D01*
X172696714Y-106576761D02*
X172839571Y-106624380D01*
X173077666Y-106624380D01*
X173172904Y-106576761D01*
X173220523Y-106529142D01*
X173268142Y-106433904D01*
X173268142Y-106338666D01*
X173220523Y-106243428D01*
X173172904Y-106195809D01*
X173077666Y-106148190D01*
X172887190Y-106100571D01*
X172791952Y-106052952D01*
X172744333Y-106005333D01*
X172696714Y-105910095D01*
X172696714Y-105814857D01*
X172744333Y-105719619D01*
X172791952Y-105672000D01*
X172887190Y-105624380D01*
X173125285Y-105624380D01*
X173268142Y-105672000D01*
X173649095Y-105719619D02*
X173696714Y-105672000D01*
X173791952Y-105624380D01*
X174030047Y-105624380D01*
X174125285Y-105672000D01*
X174172904Y-105719619D01*
X174220523Y-105814857D01*
X174220523Y-105910095D01*
X174172904Y-106052952D01*
X173601476Y-106624380D01*
X174220523Y-106624380D01*
X174839571Y-105624380D02*
X174934809Y-105624380D01*
X175030047Y-105672000D01*
X175077666Y-105719619D01*
X175125285Y-105814857D01*
X175172904Y-106005333D01*
X175172904Y-106243428D01*
X175125285Y-106433904D01*
X175077666Y-106529142D01*
X175030047Y-106576761D01*
X174934809Y-106624380D01*
X174839571Y-106624380D01*
X174744333Y-106576761D01*
X174696714Y-106529142D01*
X174649095Y-106433904D01*
X174601476Y-106243428D01*
X174601476Y-106005333D01*
X174649095Y-105814857D01*
X174696714Y-105719619D01*
X174744333Y-105672000D01*
X174839571Y-105624380D01*
X175601476Y-106624380D02*
X175601476Y-105624380D01*
X175982428Y-105624380D01*
X176077666Y-105672000D01*
X176125285Y-105719619D01*
X176172904Y-105814857D01*
X176172904Y-105957714D01*
X176125285Y-106052952D01*
X176077666Y-106100571D01*
X175982428Y-106148190D01*
X175601476Y-106148190D01*
X177696714Y-106100571D02*
X177839571Y-106148190D01*
X177887190Y-106195809D01*
X177934809Y-106291047D01*
X177934809Y-106433904D01*
X177887190Y-106529142D01*
X177839571Y-106576761D01*
X177744333Y-106624380D01*
X177363380Y-106624380D01*
X177363380Y-105624380D01*
X177696714Y-105624380D01*
X177791952Y-105672000D01*
X177839571Y-105719619D01*
X177887190Y-105814857D01*
X177887190Y-105910095D01*
X177839571Y-106005333D01*
X177791952Y-106052952D01*
X177696714Y-106100571D01*
X177363380Y-106100571D01*
X178791952Y-106624380D02*
X178791952Y-106100571D01*
X178744333Y-106005333D01*
X178649095Y-105957714D01*
X178458619Y-105957714D01*
X178363380Y-106005333D01*
X178791952Y-106576761D02*
X178696714Y-106624380D01*
X178458619Y-106624380D01*
X178363380Y-106576761D01*
X178315761Y-106481523D01*
X178315761Y-106386285D01*
X178363380Y-106291047D01*
X178458619Y-106243428D01*
X178696714Y-106243428D01*
X178791952Y-106195809D01*
X179125285Y-105957714D02*
X179506238Y-105957714D01*
X179268142Y-105624380D02*
X179268142Y-106481523D01*
X179315761Y-106576761D01*
X179411000Y-106624380D01*
X179506238Y-106624380D01*
X179696714Y-105957714D02*
X180077666Y-105957714D01*
X179839571Y-105624380D02*
X179839571Y-106481523D01*
X179887190Y-106576761D01*
X179982428Y-106624380D01*
X180077666Y-106624380D01*
X180791952Y-106576761D02*
X180696714Y-106624380D01*
X180506238Y-106624380D01*
X180411000Y-106576761D01*
X180363380Y-106481523D01*
X180363380Y-106100571D01*
X180411000Y-106005333D01*
X180506238Y-105957714D01*
X180696714Y-105957714D01*
X180791952Y-106005333D01*
X180839571Y-106100571D01*
X180839571Y-106195809D01*
X180363380Y-106291047D01*
X181268142Y-106624380D02*
X181268142Y-105957714D01*
X181268142Y-106148190D02*
X181315761Y-106052952D01*
X181363380Y-106005333D01*
X181458619Y-105957714D01*
X181553857Y-105957714D01*
X181791952Y-105957714D02*
X182030047Y-106624380D01*
X182268142Y-105957714D02*
X182030047Y-106624380D01*
X181934809Y-106862476D01*
X181887190Y-106910095D01*
X181791952Y-106957714D01*
X183363380Y-106338666D02*
X183839571Y-106338666D01*
X183268142Y-106624380D02*
X183601476Y-105624380D01*
X183934809Y-106624380D01*
X184268142Y-106624380D02*
X184268142Y-105957714D01*
X184268142Y-106148190D02*
X184315761Y-106052952D01*
X184363380Y-106005333D01*
X184458619Y-105957714D01*
X184553857Y-105957714D01*
X184887190Y-106624380D02*
X184887190Y-105957714D01*
X184887190Y-106148190D02*
X184934809Y-106052952D01*
X184982428Y-106005333D01*
X185077666Y-105957714D01*
X185172904Y-105957714D01*
X185934809Y-106624380D02*
X185934809Y-106100571D01*
X185887190Y-106005333D01*
X185791952Y-105957714D01*
X185601476Y-105957714D01*
X185506238Y-106005333D01*
X185934809Y-106576761D02*
X185839571Y-106624380D01*
X185601476Y-106624380D01*
X185506238Y-106576761D01*
X185458619Y-106481523D01*
X185458619Y-106386285D01*
X185506238Y-106291047D01*
X185601476Y-106243428D01*
X185839571Y-106243428D01*
X185934809Y-106195809D01*
X186315761Y-105957714D02*
X186553857Y-106624380D01*
X186791952Y-105957714D02*
X186553857Y-106624380D01*
X186458619Y-106862476D01*
X186411000Y-106910095D01*
X186315761Y-106957714D01*
X197794571Y-89320619D02*
X197842190Y-89177761D01*
X197889809Y-89130142D01*
X197985047Y-89082523D01*
X198127904Y-89082523D01*
X198223142Y-89130142D01*
X198270761Y-89177761D01*
X198318380Y-89273000D01*
X198318380Y-89653952D01*
X197318380Y-89653952D01*
X197318380Y-89320619D01*
X197366000Y-89225380D01*
X197413619Y-89177761D01*
X197508857Y-89130142D01*
X197604095Y-89130142D01*
X197699333Y-89177761D01*
X197746952Y-89225380D01*
X197794571Y-89320619D01*
X197794571Y-89653952D01*
X197937428Y-88653952D02*
X197937428Y-87892047D01*
X106176771Y-105703619D02*
X106224390Y-105560761D01*
X106272009Y-105513142D01*
X106367247Y-105465523D01*
X106510104Y-105465523D01*
X106605342Y-105513142D01*
X106652961Y-105560761D01*
X106700580Y-105656000D01*
X106700580Y-106036952D01*
X105700580Y-106036952D01*
X105700580Y-105703619D01*
X105748200Y-105608380D01*
X105795819Y-105560761D01*
X105891057Y-105513142D01*
X105986295Y-105513142D01*
X106081533Y-105560761D01*
X106129152Y-105608380D01*
X106176771Y-105703619D01*
X106176771Y-106036952D01*
X106319628Y-105036952D02*
X106319628Y-104275047D01*
X106700580Y-104656000D02*
X105938676Y-104656000D01*
X197811265Y-105703619D02*
X197858884Y-105560761D01*
X197906503Y-105513142D01*
X198001741Y-105465523D01*
X198144598Y-105465523D01*
X198239836Y-105513142D01*
X198287455Y-105560761D01*
X198335074Y-105656000D01*
X198335074Y-106036952D01*
X197335074Y-106036952D01*
X197335074Y-105703619D01*
X197382694Y-105608380D01*
X197430313Y-105560761D01*
X197525551Y-105513142D01*
X197620789Y-105513142D01*
X197716027Y-105560761D01*
X197763646Y-105608380D01*
X197811265Y-105703619D01*
X197811265Y-106036952D01*
X197954122Y-105036952D02*
X197954122Y-104275047D01*
X198335074Y-104656000D02*
X197573170Y-104656000D01*
X106227571Y-89447619D02*
X106275190Y-89304761D01*
X106322809Y-89257142D01*
X106418047Y-89209523D01*
X106560904Y-89209523D01*
X106656142Y-89257142D01*
X106703761Y-89304761D01*
X106751380Y-89400000D01*
X106751380Y-89780952D01*
X105751380Y-89780952D01*
X105751380Y-89447619D01*
X105799000Y-89352380D01*
X105846619Y-89304761D01*
X105941857Y-89257142D01*
X106037095Y-89257142D01*
X106132333Y-89304761D01*
X106179952Y-89352380D01*
X106227571Y-89447619D01*
X106227571Y-89780952D01*
X106370428Y-88780952D02*
X106370428Y-88019047D01*
X197811265Y-100099761D02*
X197858884Y-99956904D01*
X197906503Y-99909285D01*
X198001741Y-99861666D01*
X198144598Y-99861666D01*
X198239836Y-99909285D01*
X198287455Y-99956904D01*
X198335074Y-100052142D01*
X198335074Y-100433095D01*
X197335074Y-100433095D01*
X197335074Y-100099761D01*
X197382694Y-100004523D01*
X197430313Y-99956904D01*
X197525551Y-99909285D01*
X197620789Y-99909285D01*
X197716027Y-99956904D01*
X197763646Y-100004523D01*
X197811265Y-100099761D01*
X197811265Y-100433095D01*
X197430313Y-99480714D02*
X197382694Y-99433095D01*
X197335074Y-99337857D01*
X197335074Y-99099761D01*
X197382694Y-99004523D01*
X197430313Y-98956904D01*
X197525551Y-98909285D01*
X197620789Y-98909285D01*
X197763646Y-98956904D01*
X198335074Y-99528333D01*
X198335074Y-98909285D01*
X106227571Y-94638761D02*
X106275190Y-94495904D01*
X106322809Y-94448285D01*
X106418047Y-94400666D01*
X106560904Y-94400666D01*
X106656142Y-94448285D01*
X106703761Y-94495904D01*
X106751380Y-94591142D01*
X106751380Y-94972095D01*
X105751380Y-94972095D01*
X105751380Y-94638761D01*
X105799000Y-94543523D01*
X105846619Y-94495904D01*
X105941857Y-94448285D01*
X106037095Y-94448285D01*
X106132333Y-94495904D01*
X106179952Y-94543523D01*
X106227571Y-94638761D01*
X106227571Y-94972095D01*
X106751380Y-93448285D02*
X106751380Y-94019714D01*
X106751380Y-93734000D02*
X105751380Y-93734000D01*
X105894238Y-93829238D01*
X105989476Y-93924476D01*
X106037095Y-94019714D01*
X197760465Y-94638761D02*
X197808084Y-94495904D01*
X197855703Y-94448285D01*
X197950941Y-94400666D01*
X198093798Y-94400666D01*
X198189036Y-94448285D01*
X198236655Y-94495904D01*
X198284274Y-94591142D01*
X198284274Y-94972095D01*
X197284274Y-94972095D01*
X197284274Y-94638761D01*
X197331894Y-94543523D01*
X197379513Y-94495904D01*
X197474751Y-94448285D01*
X197569989Y-94448285D01*
X197665227Y-94495904D01*
X197712846Y-94543523D01*
X197760465Y-94638761D01*
X197760465Y-94972095D01*
X198284274Y-93448285D02*
X198284274Y-94019714D01*
X198284274Y-93734000D02*
X197284274Y-93734000D01*
X197427132Y-93829238D01*
X197522370Y-93924476D01*
X197569989Y-94019714D01*
X106227571Y-100099761D02*
X106275190Y-99956904D01*
X106322809Y-99909285D01*
X106418047Y-99861666D01*
X106560904Y-99861666D01*
X106656142Y-99909285D01*
X106703761Y-99956904D01*
X106751380Y-100052142D01*
X106751380Y-100433095D01*
X105751380Y-100433095D01*
X105751380Y-100099761D01*
X105799000Y-100004523D01*
X105846619Y-99956904D01*
X105941857Y-99909285D01*
X106037095Y-99909285D01*
X106132333Y-99956904D01*
X106179952Y-100004523D01*
X106227571Y-100099761D01*
X106227571Y-100433095D01*
X105846619Y-99480714D02*
X105799000Y-99433095D01*
X105751380Y-99337857D01*
X105751380Y-99099761D01*
X105799000Y-99004523D01*
X105846619Y-98956904D01*
X105941857Y-98909285D01*
X106037095Y-98909285D01*
X106179952Y-98956904D01*
X106751380Y-99528333D01*
X106751380Y-98909285D01*
D11*
%TO.C,J8*%
X119068000Y-95103000D02*
X118268000Y-95103000D01*
X119818000Y-97028000D02*
X119818000Y-98753000D01*
X119818000Y-95303000D02*
X119068000Y-95303000D01*
X119818000Y-98753000D02*
X119068000Y-98753000D01*
X119068000Y-98753000D02*
X119068000Y-98953000D01*
X118268000Y-95303000D02*
X117418000Y-95303000D01*
X120618000Y-99553000D02*
X120618000Y-98553000D01*
X118268000Y-98753000D02*
X117418000Y-98753000D01*
X117418000Y-98753000D02*
X117418000Y-97028000D01*
X117418000Y-95303000D02*
X117418000Y-97028000D01*
X120328000Y-94793000D02*
X116908000Y-94793000D01*
X116908000Y-99263000D02*
X120328000Y-99263000D01*
X120328000Y-99263000D02*
X120328000Y-94793000D01*
X119818000Y-97028000D02*
X119818000Y-95303000D01*
X116908000Y-94793000D02*
X116908000Y-99263000D01*
X119068000Y-98953000D02*
X118268000Y-98953000D01*
X120618000Y-99553000D02*
X119618000Y-99553000D01*
X119068000Y-95303000D02*
X119068000Y-95103000D01*
X118268000Y-98953000D02*
X118268000Y-98753000D01*
X118268000Y-95103000D02*
X118268000Y-95303000D01*
%TO.C,J5*%
X113823000Y-98753000D02*
X112973000Y-98753000D01*
X114623000Y-98953000D02*
X113823000Y-98953000D01*
X115883000Y-94793000D02*
X112463000Y-94793000D01*
X115373000Y-95303000D02*
X114623000Y-95303000D01*
X115373000Y-97028000D02*
X115373000Y-98753000D01*
X112973000Y-98753000D02*
X112973000Y-97028000D01*
X116173000Y-99553000D02*
X116173000Y-98553000D01*
X113823000Y-95103000D02*
X113823000Y-95303000D01*
X112463000Y-99263000D02*
X115883000Y-99263000D01*
X113823000Y-98953000D02*
X113823000Y-98753000D01*
X116173000Y-99553000D02*
X115173000Y-99553000D01*
X113823000Y-95303000D02*
X112973000Y-95303000D01*
X115883000Y-99263000D02*
X115883000Y-94793000D01*
X112973000Y-95303000D02*
X112973000Y-97028000D01*
X114623000Y-95103000D02*
X113823000Y-95103000D01*
X114623000Y-95303000D02*
X114623000Y-95103000D01*
X115373000Y-98753000D02*
X114623000Y-98753000D01*
X112463000Y-94793000D02*
X112463000Y-99263000D01*
X115373000Y-97028000D02*
X115373000Y-95303000D01*
X114623000Y-98753000D02*
X114623000Y-98953000D01*
%TO.C,J59*%
X196183000Y-99553000D02*
X195183000Y-99553000D01*
X194633000Y-95303000D02*
X194633000Y-95103000D01*
X195383000Y-97028000D02*
X195383000Y-98753000D01*
X195383000Y-95303000D02*
X194633000Y-95303000D01*
X194633000Y-98953000D02*
X193833000Y-98953000D01*
X192983000Y-98753000D02*
X192983000Y-97028000D01*
X195383000Y-98753000D02*
X194633000Y-98753000D01*
X194633000Y-95103000D02*
X193833000Y-95103000D01*
X193833000Y-95303000D02*
X192983000Y-95303000D01*
X195893000Y-99263000D02*
X195893000Y-94793000D01*
X192983000Y-95303000D02*
X192983000Y-97028000D01*
X192473000Y-94793000D02*
X192473000Y-99263000D01*
X193833000Y-95103000D02*
X193833000Y-95303000D01*
X195893000Y-94793000D02*
X192473000Y-94793000D01*
X194633000Y-98753000D02*
X194633000Y-98953000D01*
X193833000Y-98753000D02*
X192983000Y-98753000D01*
X193833000Y-98953000D02*
X193833000Y-98753000D01*
X192473000Y-99263000D02*
X195893000Y-99263000D01*
X196183000Y-99553000D02*
X196183000Y-98553000D01*
X195383000Y-97028000D02*
X195383000Y-95303000D01*
%TO.C,J25*%
X144938000Y-100691000D02*
X144938000Y-100891000D01*
X144088000Y-104341000D02*
X144088000Y-102616000D01*
X143578000Y-100381000D02*
X143578000Y-104851000D01*
X146488000Y-104341000D02*
X145738000Y-104341000D01*
X145738000Y-100691000D02*
X144938000Y-100691000D01*
X147288000Y-105141000D02*
X146288000Y-105141000D01*
X145738000Y-104541000D02*
X144938000Y-104541000D01*
X145738000Y-100891000D02*
X145738000Y-100691000D01*
X146488000Y-100891000D02*
X145738000Y-100891000D01*
X147288000Y-105141000D02*
X147288000Y-104141000D01*
X143578000Y-104851000D02*
X146998000Y-104851000D01*
X146488000Y-102616000D02*
X146488000Y-100891000D01*
X144938000Y-104541000D02*
X144938000Y-104341000D01*
X146998000Y-100381000D02*
X143578000Y-100381000D01*
X144938000Y-100891000D02*
X144088000Y-100891000D01*
X146488000Y-102616000D02*
X146488000Y-104341000D01*
X144938000Y-104341000D02*
X144088000Y-104341000D01*
X144088000Y-100891000D02*
X144088000Y-102616000D01*
X146998000Y-104851000D02*
X146998000Y-100381000D01*
X145738000Y-104341000D02*
X145738000Y-104541000D01*
%TO.C,J19*%
X138398000Y-105141000D02*
X138398000Y-104141000D01*
X134688000Y-100381000D02*
X134688000Y-104851000D01*
X135198000Y-104341000D02*
X135198000Y-102616000D01*
X136048000Y-104341000D02*
X135198000Y-104341000D01*
X136048000Y-104541000D02*
X136048000Y-104341000D01*
X138108000Y-100381000D02*
X134688000Y-100381000D01*
X136848000Y-100691000D02*
X136048000Y-100691000D01*
X137598000Y-102616000D02*
X137598000Y-104341000D01*
X137598000Y-104341000D02*
X136848000Y-104341000D01*
X136848000Y-104541000D02*
X136048000Y-104541000D01*
X136048000Y-100891000D02*
X135198000Y-100891000D01*
X138398000Y-105141000D02*
X137398000Y-105141000D01*
X135198000Y-100891000D02*
X135198000Y-102616000D01*
X137598000Y-100891000D02*
X136848000Y-100891000D01*
X136048000Y-100691000D02*
X136048000Y-100891000D01*
X134688000Y-104851000D02*
X138108000Y-104851000D01*
X136848000Y-100891000D02*
X136848000Y-100691000D01*
X137598000Y-102616000D02*
X137598000Y-100891000D01*
X138108000Y-104851000D02*
X138108000Y-100381000D01*
X136848000Y-104341000D02*
X136848000Y-104541000D01*
%TO.C,J20*%
X138398000Y-99553000D02*
X138398000Y-98553000D01*
X135198000Y-95303000D02*
X135198000Y-97028000D01*
X138108000Y-99263000D02*
X138108000Y-94793000D01*
X136848000Y-98953000D02*
X136048000Y-98953000D01*
X136048000Y-98953000D02*
X136048000Y-98753000D01*
X134688000Y-94793000D02*
X134688000Y-99263000D01*
X137598000Y-98753000D02*
X136848000Y-98753000D01*
X136848000Y-95303000D02*
X136848000Y-95103000D01*
X136848000Y-95103000D02*
X136048000Y-95103000D01*
X136848000Y-98753000D02*
X136848000Y-98953000D01*
X137598000Y-97028000D02*
X137598000Y-98753000D01*
X136048000Y-98753000D02*
X135198000Y-98753000D01*
X135198000Y-98753000D02*
X135198000Y-97028000D01*
X134688000Y-99263000D02*
X138108000Y-99263000D01*
X138398000Y-99553000D02*
X137398000Y-99553000D01*
X138108000Y-94793000D02*
X134688000Y-94793000D01*
X137598000Y-95303000D02*
X136848000Y-95303000D01*
X136048000Y-95303000D02*
X135198000Y-95303000D01*
X136048000Y-95103000D02*
X136048000Y-95303000D01*
X137598000Y-97028000D02*
X137598000Y-95303000D01*
%TO.C,J32*%
X155378000Y-95303000D02*
X154628000Y-95303000D01*
X155378000Y-98753000D02*
X154628000Y-98753000D01*
X153828000Y-98953000D02*
X153828000Y-98753000D01*
X155888000Y-99263000D02*
X155888000Y-94793000D01*
X152978000Y-95303000D02*
X152978000Y-97028000D01*
X156178000Y-99553000D02*
X155178000Y-99553000D01*
X155378000Y-97028000D02*
X155378000Y-98753000D01*
X152978000Y-98753000D02*
X152978000Y-97028000D01*
X154628000Y-95103000D02*
X153828000Y-95103000D01*
X154628000Y-98753000D02*
X154628000Y-98953000D01*
X153828000Y-95103000D02*
X153828000Y-95303000D01*
X155378000Y-97028000D02*
X155378000Y-95303000D01*
X153828000Y-98753000D02*
X152978000Y-98753000D01*
X156178000Y-99553000D02*
X156178000Y-98553000D01*
X152468000Y-99263000D02*
X155888000Y-99263000D01*
X152468000Y-94793000D02*
X152468000Y-99263000D01*
X154628000Y-98953000D02*
X153828000Y-98953000D01*
X155888000Y-94793000D02*
X152468000Y-94793000D01*
X153828000Y-95303000D02*
X152978000Y-95303000D01*
X154628000Y-95303000D02*
X154628000Y-95103000D01*
%TO.C,J14*%
X129218000Y-94793000D02*
X125798000Y-94793000D01*
X127158000Y-95303000D02*
X126308000Y-95303000D01*
X127958000Y-98753000D02*
X127958000Y-98953000D01*
X129218000Y-99263000D02*
X129218000Y-94793000D01*
X128708000Y-98753000D02*
X127958000Y-98753000D01*
X127158000Y-98953000D02*
X127158000Y-98753000D01*
X126308000Y-98753000D02*
X126308000Y-97028000D01*
X127158000Y-98753000D02*
X126308000Y-98753000D01*
X127958000Y-98953000D02*
X127158000Y-98953000D01*
X129508000Y-99553000D02*
X129508000Y-98553000D01*
X129508000Y-99553000D02*
X128508000Y-99553000D01*
X125798000Y-94793000D02*
X125798000Y-99263000D01*
X128708000Y-97028000D02*
X128708000Y-95303000D01*
X126308000Y-95303000D02*
X126308000Y-97028000D01*
X128708000Y-97028000D02*
X128708000Y-98753000D01*
X128708000Y-95303000D02*
X127958000Y-95303000D01*
X127958000Y-95103000D02*
X127158000Y-95103000D01*
X127958000Y-95303000D02*
X127958000Y-95103000D01*
X127158000Y-95103000D02*
X127158000Y-95303000D01*
X125798000Y-99263000D02*
X129218000Y-99263000D01*
%TO.C,J55*%
X188538000Y-104341000D02*
X188538000Y-102616000D01*
X190938000Y-102616000D02*
X190938000Y-104341000D01*
X191448000Y-104851000D02*
X191448000Y-100381000D01*
X191738000Y-105141000D02*
X190738000Y-105141000D01*
X191448000Y-100381000D02*
X188028000Y-100381000D01*
X188028000Y-100381000D02*
X188028000Y-104851000D01*
X191738000Y-105141000D02*
X191738000Y-104141000D01*
X189388000Y-100691000D02*
X189388000Y-100891000D01*
X189388000Y-104341000D02*
X188538000Y-104341000D01*
X189388000Y-100891000D02*
X188538000Y-100891000D01*
X188028000Y-104851000D02*
X191448000Y-104851000D01*
X188538000Y-100891000D02*
X188538000Y-102616000D01*
X190188000Y-100691000D02*
X189388000Y-100691000D01*
X190938000Y-102616000D02*
X190938000Y-100891000D01*
X190938000Y-104341000D02*
X190188000Y-104341000D01*
X190188000Y-104541000D02*
X189388000Y-104541000D01*
X189388000Y-104541000D02*
X189388000Y-104341000D01*
X190938000Y-100891000D02*
X190188000Y-100891000D01*
X190188000Y-104341000D02*
X190188000Y-104541000D01*
X190188000Y-100891000D02*
X190188000Y-100691000D01*
%TO.C,J42*%
X169513000Y-93965000D02*
X169513000Y-92965000D01*
X168713000Y-93165000D02*
X167963000Y-93165000D01*
X167963000Y-93365000D02*
X167163000Y-93365000D01*
X168713000Y-91440000D02*
X168713000Y-93165000D01*
X167963000Y-89515000D02*
X167163000Y-89515000D01*
X166313000Y-93165000D02*
X166313000Y-91440000D01*
X169223000Y-89205000D02*
X165803000Y-89205000D01*
X165803000Y-89205000D02*
X165803000Y-93675000D01*
X167163000Y-89515000D02*
X167163000Y-89715000D01*
X167963000Y-89715000D02*
X167963000Y-89515000D01*
X167163000Y-93165000D02*
X166313000Y-93165000D01*
X165803000Y-93675000D02*
X169223000Y-93675000D01*
X168713000Y-91440000D02*
X168713000Y-89715000D01*
X168713000Y-89715000D02*
X167963000Y-89715000D01*
X169513000Y-93965000D02*
X168513000Y-93965000D01*
X166313000Y-89715000D02*
X166313000Y-91440000D01*
X169223000Y-93675000D02*
X169223000Y-89205000D01*
X167163000Y-89715000D02*
X166313000Y-89715000D01*
X167963000Y-93165000D02*
X167963000Y-93365000D01*
X167163000Y-93365000D02*
X167163000Y-93165000D01*
%TO.C,J10*%
X124773000Y-100381000D02*
X121353000Y-100381000D01*
X122713000Y-104541000D02*
X122713000Y-104341000D01*
X125063000Y-105141000D02*
X124063000Y-105141000D01*
X123513000Y-100891000D02*
X123513000Y-100691000D01*
X121863000Y-104341000D02*
X121863000Y-102616000D01*
X124263000Y-102616000D02*
X124263000Y-100891000D01*
X121863000Y-100891000D02*
X121863000Y-102616000D01*
X123513000Y-104541000D02*
X122713000Y-104541000D01*
X123513000Y-104341000D02*
X123513000Y-104541000D01*
X124263000Y-104341000D02*
X123513000Y-104341000D01*
X122713000Y-100891000D02*
X121863000Y-100891000D01*
X122713000Y-100691000D02*
X122713000Y-100891000D01*
X122713000Y-104341000D02*
X121863000Y-104341000D01*
X123513000Y-100691000D02*
X122713000Y-100691000D01*
X124263000Y-100891000D02*
X123513000Y-100891000D01*
X121353000Y-100381000D02*
X121353000Y-104851000D01*
X124263000Y-102616000D02*
X124263000Y-104341000D01*
X125063000Y-105141000D02*
X125063000Y-104141000D01*
X121353000Y-104851000D02*
X124773000Y-104851000D01*
X124773000Y-104851000D02*
X124773000Y-100381000D01*
%TO.C,J16*%
X130243000Y-100381000D02*
X130243000Y-104851000D01*
X130753000Y-104341000D02*
X130753000Y-102616000D01*
X132403000Y-100691000D02*
X131603000Y-100691000D01*
X131603000Y-100691000D02*
X131603000Y-100891000D01*
X132403000Y-104541000D02*
X131603000Y-104541000D01*
X133663000Y-100381000D02*
X130243000Y-100381000D01*
X133953000Y-105141000D02*
X133953000Y-104141000D01*
X131603000Y-100891000D02*
X130753000Y-100891000D01*
X133663000Y-104851000D02*
X133663000Y-100381000D01*
X133953000Y-105141000D02*
X132953000Y-105141000D01*
X131603000Y-104341000D02*
X130753000Y-104341000D01*
X133153000Y-100891000D02*
X132403000Y-100891000D01*
X133153000Y-102616000D02*
X133153000Y-104341000D01*
X133153000Y-104341000D02*
X132403000Y-104341000D01*
X133153000Y-102616000D02*
X133153000Y-100891000D01*
X131603000Y-104541000D02*
X131603000Y-104341000D01*
X132403000Y-100891000D02*
X132403000Y-100691000D01*
X130243000Y-104851000D02*
X133663000Y-104851000D01*
X132403000Y-104341000D02*
X132403000Y-104541000D01*
X130753000Y-100891000D02*
X130753000Y-102616000D01*
%TO.C,J53*%
X184943000Y-95303000D02*
X184093000Y-95303000D01*
X184943000Y-98753000D02*
X184093000Y-98753000D01*
X183583000Y-94793000D02*
X183583000Y-99263000D01*
X186493000Y-98753000D02*
X185743000Y-98753000D01*
X185743000Y-95103000D02*
X184943000Y-95103000D01*
X186493000Y-97028000D02*
X186493000Y-98753000D01*
X185743000Y-98753000D02*
X185743000Y-98953000D01*
X184093000Y-98753000D02*
X184093000Y-97028000D01*
X183583000Y-99263000D02*
X187003000Y-99263000D01*
X184943000Y-95103000D02*
X184943000Y-95303000D01*
X185743000Y-98953000D02*
X184943000Y-98953000D01*
X187003000Y-94793000D02*
X183583000Y-94793000D01*
X187003000Y-99263000D02*
X187003000Y-94793000D01*
X186493000Y-97028000D02*
X186493000Y-95303000D01*
X184943000Y-98953000D02*
X184943000Y-98753000D01*
X186493000Y-95303000D02*
X185743000Y-95303000D01*
X187293000Y-99553000D02*
X187293000Y-98553000D01*
X184093000Y-95303000D02*
X184093000Y-97028000D01*
X185743000Y-95303000D02*
X185743000Y-95103000D01*
X187293000Y-99553000D02*
X186293000Y-99553000D01*
%TO.C,H3*%
X198570294Y-95934000D02*
X198570294Y-92534000D01*
X198570294Y-92534000D02*
X201970294Y-92534000D01*
X201970294Y-92534000D02*
X201970294Y-95934000D01*
X201970294Y-95934000D02*
X198570294Y-95934000D01*
%TO.C,H5*%
X105459000Y-103456000D02*
X105459000Y-106856000D01*
X105459000Y-106856000D02*
X102059000Y-106856000D01*
X102059000Y-103456000D02*
X105459000Y-103456000D01*
X102059000Y-106856000D02*
X102059000Y-103456000D01*
%TO.C,J27*%
X145738000Y-89515000D02*
X144938000Y-89515000D01*
X146488000Y-89715000D02*
X145738000Y-89715000D01*
X146488000Y-91440000D02*
X146488000Y-93165000D01*
X144088000Y-93165000D02*
X144088000Y-91440000D01*
X146998000Y-89205000D02*
X143578000Y-89205000D01*
X147288000Y-93965000D02*
X146288000Y-93965000D01*
X144938000Y-93165000D02*
X144088000Y-93165000D01*
X146998000Y-93675000D02*
X146998000Y-89205000D01*
X145738000Y-93165000D02*
X145738000Y-93365000D01*
X145738000Y-89715000D02*
X145738000Y-89515000D01*
X144938000Y-89715000D02*
X144088000Y-89715000D01*
X145738000Y-93365000D02*
X144938000Y-93365000D01*
X144938000Y-89515000D02*
X144938000Y-89715000D01*
X144938000Y-93365000D02*
X144938000Y-93165000D01*
X143578000Y-89205000D02*
X143578000Y-93675000D01*
X143578000Y-93675000D02*
X146998000Y-93675000D01*
X146488000Y-93165000D02*
X145738000Y-93165000D01*
X147288000Y-93965000D02*
X147288000Y-92965000D01*
X146488000Y-91440000D02*
X146488000Y-89715000D01*
X144088000Y-89715000D02*
X144088000Y-91440000D01*
%TO.C,J18*%
X133153000Y-91440000D02*
X133153000Y-93165000D01*
X133153000Y-91440000D02*
X133153000Y-89715000D01*
X130753000Y-89715000D02*
X130753000Y-91440000D01*
X131603000Y-93365000D02*
X131603000Y-93165000D01*
X133953000Y-93965000D02*
X133953000Y-92965000D01*
X133663000Y-89205000D02*
X130243000Y-89205000D01*
X130243000Y-93675000D02*
X133663000Y-93675000D01*
X133953000Y-93965000D02*
X132953000Y-93965000D01*
X133153000Y-93165000D02*
X132403000Y-93165000D01*
X131603000Y-89515000D02*
X131603000Y-89715000D01*
X131603000Y-93165000D02*
X130753000Y-93165000D01*
X133663000Y-93675000D02*
X133663000Y-89205000D01*
X132403000Y-93165000D02*
X132403000Y-93365000D01*
X133153000Y-89715000D02*
X132403000Y-89715000D01*
X132403000Y-89515000D02*
X131603000Y-89515000D01*
X130753000Y-93165000D02*
X130753000Y-91440000D01*
X132403000Y-93365000D02*
X131603000Y-93365000D01*
X130243000Y-89205000D02*
X130243000Y-93675000D01*
X132403000Y-89715000D02*
X132403000Y-89515000D01*
X131603000Y-89715000D02*
X130753000Y-89715000D01*
%TO.C,J52*%
X184093000Y-104341000D02*
X184093000Y-102616000D01*
X185743000Y-100891000D02*
X185743000Y-100691000D01*
X184943000Y-100691000D02*
X184943000Y-100891000D01*
X187293000Y-105141000D02*
X187293000Y-104141000D01*
X186493000Y-100891000D02*
X185743000Y-100891000D01*
X187293000Y-105141000D02*
X186293000Y-105141000D01*
X184943000Y-100891000D02*
X184093000Y-100891000D01*
X184093000Y-100891000D02*
X184093000Y-102616000D01*
X183583000Y-100381000D02*
X183583000Y-104851000D01*
X184943000Y-104541000D02*
X184943000Y-104341000D01*
X186493000Y-102616000D02*
X186493000Y-104341000D01*
X186493000Y-102616000D02*
X186493000Y-100891000D01*
X187003000Y-104851000D02*
X187003000Y-100381000D01*
X187003000Y-100381000D02*
X183583000Y-100381000D01*
X185743000Y-100691000D02*
X184943000Y-100691000D01*
X185743000Y-104541000D02*
X184943000Y-104541000D01*
X185743000Y-104341000D02*
X185743000Y-104541000D01*
X186493000Y-104341000D02*
X185743000Y-104341000D01*
X183583000Y-104851000D02*
X187003000Y-104851000D01*
X184943000Y-104341000D02*
X184093000Y-104341000D01*
%TO.C,J31*%
X154628000Y-100691000D02*
X153828000Y-100691000D01*
X155888000Y-100381000D02*
X152468000Y-100381000D01*
X153828000Y-100691000D02*
X153828000Y-100891000D01*
X154628000Y-104541000D02*
X153828000Y-104541000D01*
X154628000Y-104341000D02*
X154628000Y-104541000D01*
X155378000Y-104341000D02*
X154628000Y-104341000D01*
X156178000Y-105141000D02*
X155178000Y-105141000D01*
X153828000Y-100891000D02*
X152978000Y-100891000D01*
X155378000Y-100891000D02*
X154628000Y-100891000D01*
X156178000Y-105141000D02*
X156178000Y-104141000D01*
X153828000Y-104541000D02*
X153828000Y-104341000D01*
X152468000Y-100381000D02*
X152468000Y-104851000D01*
X155888000Y-104851000D02*
X155888000Y-100381000D01*
X152978000Y-104341000D02*
X152978000Y-102616000D01*
X155378000Y-102616000D02*
X155378000Y-104341000D01*
X155378000Y-102616000D02*
X155378000Y-100891000D01*
X154628000Y-100891000D02*
X154628000Y-100691000D01*
X152468000Y-104851000D02*
X155888000Y-104851000D01*
X152978000Y-100891000D02*
X152978000Y-102616000D01*
X153828000Y-104341000D02*
X152978000Y-104341000D01*
%TO.C,J44*%
X171608000Y-95303000D02*
X170758000Y-95303000D01*
X173958000Y-99553000D02*
X173958000Y-98553000D01*
X173158000Y-97028000D02*
X173158000Y-95303000D01*
X170248000Y-94793000D02*
X170248000Y-99263000D01*
X171608000Y-98953000D02*
X171608000Y-98753000D01*
X173158000Y-95303000D02*
X172408000Y-95303000D01*
X170248000Y-99263000D02*
X173668000Y-99263000D01*
X171608000Y-98753000D02*
X170758000Y-98753000D01*
X173668000Y-94793000D02*
X170248000Y-94793000D01*
X172408000Y-98753000D02*
X172408000Y-98953000D01*
X172408000Y-95303000D02*
X172408000Y-95103000D01*
X173668000Y-99263000D02*
X173668000Y-94793000D01*
X173158000Y-97028000D02*
X173158000Y-98753000D01*
X172408000Y-95103000D02*
X171608000Y-95103000D01*
X170758000Y-95303000D02*
X170758000Y-97028000D01*
X170758000Y-98753000D02*
X170758000Y-97028000D01*
X173958000Y-99553000D02*
X172958000Y-99553000D01*
X173158000Y-98753000D02*
X172408000Y-98753000D01*
X172408000Y-98953000D02*
X171608000Y-98953000D01*
X171608000Y-95103000D02*
X171608000Y-95303000D01*
%TO.C,J21*%
X138108000Y-89205000D02*
X134688000Y-89205000D01*
X138398000Y-93965000D02*
X137398000Y-93965000D01*
X134688000Y-93675000D02*
X138108000Y-93675000D01*
X137598000Y-91440000D02*
X137598000Y-89715000D01*
X138398000Y-93965000D02*
X138398000Y-92965000D01*
X135198000Y-93165000D02*
X135198000Y-91440000D01*
X136048000Y-89715000D02*
X135198000Y-89715000D01*
X137598000Y-91440000D02*
X137598000Y-93165000D01*
X136048000Y-89515000D02*
X136048000Y-89715000D01*
X136848000Y-93365000D02*
X136048000Y-93365000D01*
X136848000Y-93165000D02*
X136848000Y-93365000D01*
X136048000Y-93165000D02*
X135198000Y-93165000D01*
X136848000Y-89515000D02*
X136048000Y-89515000D01*
X137598000Y-93165000D02*
X136848000Y-93165000D01*
X136048000Y-93365000D02*
X136048000Y-93165000D01*
X136848000Y-89715000D02*
X136848000Y-89515000D01*
X134688000Y-89205000D02*
X134688000Y-93675000D01*
X137598000Y-89715000D02*
X136848000Y-89715000D01*
X138108000Y-93675000D02*
X138108000Y-89205000D01*
X135198000Y-89715000D02*
X135198000Y-91440000D01*
%TO.C,J58*%
X192473000Y-100381000D02*
X192473000Y-104851000D01*
X194633000Y-100691000D02*
X193833000Y-100691000D01*
X192983000Y-104341000D02*
X192983000Y-102616000D01*
X195383000Y-102616000D02*
X195383000Y-104341000D01*
X195383000Y-100891000D02*
X194633000Y-100891000D01*
X195893000Y-104851000D02*
X195893000Y-100381000D01*
X192983000Y-100891000D02*
X192983000Y-102616000D01*
X196183000Y-105141000D02*
X195183000Y-105141000D01*
X193833000Y-100891000D02*
X192983000Y-100891000D01*
X193833000Y-100691000D02*
X193833000Y-100891000D01*
X193833000Y-104541000D02*
X193833000Y-104341000D01*
X194633000Y-104541000D02*
X193833000Y-104541000D01*
X193833000Y-104341000D02*
X192983000Y-104341000D01*
X195383000Y-104341000D02*
X194633000Y-104341000D01*
X194633000Y-104341000D02*
X194633000Y-104541000D01*
X192473000Y-104851000D02*
X195893000Y-104851000D01*
X195893000Y-100381000D02*
X192473000Y-100381000D01*
X194633000Y-100891000D02*
X194633000Y-100691000D01*
X195383000Y-102616000D02*
X195383000Y-100891000D01*
X196183000Y-105141000D02*
X196183000Y-104141000D01*
%TO.C,J13*%
X128708000Y-100891000D02*
X127958000Y-100891000D01*
X129218000Y-100381000D02*
X125798000Y-100381000D01*
X127158000Y-104341000D02*
X126308000Y-104341000D01*
X128708000Y-102616000D02*
X128708000Y-100891000D01*
X125798000Y-104851000D02*
X129218000Y-104851000D01*
X127958000Y-104341000D02*
X127958000Y-104541000D01*
X127158000Y-104541000D02*
X127158000Y-104341000D01*
X127958000Y-100691000D02*
X127158000Y-100691000D01*
X126308000Y-100891000D02*
X126308000Y-102616000D01*
X127158000Y-100691000D02*
X127158000Y-100891000D01*
X129508000Y-105141000D02*
X128508000Y-105141000D01*
X129508000Y-105141000D02*
X129508000Y-104141000D01*
X127158000Y-100891000D02*
X126308000Y-100891000D01*
X126308000Y-104341000D02*
X126308000Y-102616000D01*
X128708000Y-104341000D02*
X127958000Y-104341000D01*
X127958000Y-100891000D02*
X127958000Y-100691000D01*
X125798000Y-100381000D02*
X125798000Y-104851000D01*
X128708000Y-102616000D02*
X128708000Y-104341000D01*
X129218000Y-104851000D02*
X129218000Y-100381000D01*
X127958000Y-104541000D02*
X127158000Y-104541000D01*
%TO.C,J23*%
X139643000Y-95303000D02*
X139643000Y-97028000D01*
X140493000Y-98753000D02*
X139643000Y-98753000D01*
X139133000Y-94793000D02*
X139133000Y-99263000D01*
X141293000Y-98753000D02*
X141293000Y-98953000D01*
X141293000Y-95303000D02*
X141293000Y-95103000D01*
X139643000Y-98753000D02*
X139643000Y-97028000D01*
X142043000Y-97028000D02*
X142043000Y-98753000D01*
X140493000Y-95303000D02*
X139643000Y-95303000D01*
X141293000Y-98953000D02*
X140493000Y-98953000D01*
X142043000Y-97028000D02*
X142043000Y-95303000D01*
X141293000Y-95103000D02*
X140493000Y-95103000D01*
X142553000Y-99263000D02*
X142553000Y-94793000D01*
X139133000Y-99263000D02*
X142553000Y-99263000D01*
X142843000Y-99553000D02*
X141843000Y-99553000D01*
X142043000Y-95303000D02*
X141293000Y-95303000D01*
X142553000Y-94793000D02*
X139133000Y-94793000D01*
X140493000Y-98953000D02*
X140493000Y-98753000D01*
X142843000Y-99553000D02*
X142843000Y-98553000D01*
X142043000Y-98753000D02*
X141293000Y-98753000D01*
X140493000Y-95103000D02*
X140493000Y-95303000D01*
%TO.C,J41*%
X165803000Y-99263000D02*
X169223000Y-99263000D01*
X169513000Y-99553000D02*
X168513000Y-99553000D01*
X169223000Y-99263000D02*
X169223000Y-94793000D01*
X167163000Y-95103000D02*
X167163000Y-95303000D01*
X169513000Y-99553000D02*
X169513000Y-98553000D01*
X167963000Y-98753000D02*
X167963000Y-98953000D01*
X165803000Y-94793000D02*
X165803000Y-99263000D01*
X167163000Y-95303000D02*
X166313000Y-95303000D01*
X167963000Y-95103000D02*
X167163000Y-95103000D01*
X167963000Y-95303000D02*
X167963000Y-95103000D01*
X169223000Y-94793000D02*
X165803000Y-94793000D01*
X168713000Y-97028000D02*
X168713000Y-95303000D01*
X168713000Y-95303000D02*
X167963000Y-95303000D01*
X167963000Y-98953000D02*
X167163000Y-98953000D01*
X166313000Y-98753000D02*
X166313000Y-97028000D01*
X167163000Y-98953000D02*
X167163000Y-98753000D01*
X168713000Y-97028000D02*
X168713000Y-98753000D01*
X166313000Y-95303000D02*
X166313000Y-97028000D01*
X168713000Y-98753000D02*
X167963000Y-98753000D01*
X167163000Y-98753000D02*
X166313000Y-98753000D01*
%TO.C,J51*%
X182848000Y-93965000D02*
X182848000Y-92965000D01*
X181298000Y-93365000D02*
X180498000Y-93365000D01*
X180498000Y-89715000D02*
X179648000Y-89715000D01*
X182048000Y-89715000D02*
X181298000Y-89715000D01*
X182048000Y-91440000D02*
X182048000Y-93165000D01*
X181298000Y-93165000D02*
X181298000Y-93365000D01*
X181298000Y-89515000D02*
X180498000Y-89515000D01*
X179648000Y-89715000D02*
X179648000Y-91440000D01*
X179138000Y-93675000D02*
X182558000Y-93675000D01*
X182558000Y-93675000D02*
X182558000Y-89205000D01*
X182048000Y-93165000D02*
X181298000Y-93165000D01*
X180498000Y-89515000D02*
X180498000Y-89715000D01*
X182848000Y-93965000D02*
X181848000Y-93965000D01*
X180498000Y-93165000D02*
X179648000Y-93165000D01*
X179138000Y-89205000D02*
X179138000Y-93675000D01*
X182048000Y-91440000D02*
X182048000Y-89715000D01*
X179648000Y-93165000D02*
X179648000Y-91440000D01*
X180498000Y-93365000D02*
X180498000Y-93165000D01*
X182558000Y-89205000D02*
X179138000Y-89205000D01*
X181298000Y-89715000D02*
X181298000Y-89515000D01*
%TO.C,J11*%
X124773000Y-94793000D02*
X121353000Y-94793000D01*
X123513000Y-98953000D02*
X122713000Y-98953000D01*
X123513000Y-95103000D02*
X122713000Y-95103000D01*
X121863000Y-95303000D02*
X121863000Y-97028000D01*
X122713000Y-98753000D02*
X121863000Y-98753000D01*
X121353000Y-94793000D02*
X121353000Y-99263000D01*
X121353000Y-99263000D02*
X124773000Y-99263000D01*
X121863000Y-98753000D02*
X121863000Y-97028000D01*
X124263000Y-97028000D02*
X124263000Y-98753000D01*
X123513000Y-98753000D02*
X123513000Y-98953000D01*
X124263000Y-95303000D02*
X123513000Y-95303000D01*
X124263000Y-98753000D02*
X123513000Y-98753000D01*
X124773000Y-99263000D02*
X124773000Y-94793000D01*
X124263000Y-97028000D02*
X124263000Y-95303000D01*
X122713000Y-95303000D02*
X121863000Y-95303000D01*
X122713000Y-95103000D02*
X122713000Y-95303000D01*
X125063000Y-99553000D02*
X124063000Y-99553000D01*
X123513000Y-95303000D02*
X123513000Y-95103000D01*
X122713000Y-98953000D02*
X122713000Y-98753000D01*
X125063000Y-99553000D02*
X125063000Y-98553000D01*
%TO.C,J54*%
X186493000Y-93165000D02*
X185743000Y-93165000D01*
X186493000Y-91440000D02*
X186493000Y-89715000D01*
X183583000Y-89205000D02*
X183583000Y-93675000D01*
X185743000Y-93165000D02*
X185743000Y-93365000D01*
X184093000Y-93165000D02*
X184093000Y-91440000D01*
X184943000Y-89515000D02*
X184943000Y-89715000D01*
X187003000Y-93675000D02*
X187003000Y-89205000D01*
X185743000Y-93365000D02*
X184943000Y-93365000D01*
X185743000Y-89515000D02*
X184943000Y-89515000D01*
X184093000Y-89715000D02*
X184093000Y-91440000D01*
X187293000Y-93965000D02*
X187293000Y-92965000D01*
X184943000Y-89715000D02*
X184093000Y-89715000D01*
X184943000Y-93165000D02*
X184093000Y-93165000D01*
X186493000Y-91440000D02*
X186493000Y-93165000D01*
X184943000Y-93365000D02*
X184943000Y-93165000D01*
X187003000Y-89205000D02*
X183583000Y-89205000D01*
X183583000Y-93675000D02*
X187003000Y-93675000D01*
X185743000Y-89715000D02*
X185743000Y-89515000D01*
X186493000Y-89715000D02*
X185743000Y-89715000D01*
X187293000Y-93965000D02*
X186293000Y-93965000D01*
%TO.C,J2*%
X110928000Y-97028000D02*
X110928000Y-95303000D01*
X111438000Y-94793000D02*
X108018000Y-94793000D01*
X111728000Y-99553000D02*
X111728000Y-98553000D01*
X110178000Y-95303000D02*
X110178000Y-95103000D01*
X111728000Y-99553000D02*
X110728000Y-99553000D01*
X110178000Y-98753000D02*
X110178000Y-98953000D01*
X108018000Y-99263000D02*
X111438000Y-99263000D01*
X110928000Y-97028000D02*
X110928000Y-98753000D01*
X108528000Y-95303000D02*
X108528000Y-97028000D01*
X110928000Y-95303000D02*
X110178000Y-95303000D01*
X109378000Y-95103000D02*
X109378000Y-95303000D01*
X110178000Y-98953000D02*
X109378000Y-98953000D01*
X108018000Y-94793000D02*
X108018000Y-99263000D01*
X110928000Y-98753000D02*
X110178000Y-98753000D01*
X109378000Y-98753000D02*
X108528000Y-98753000D01*
X109378000Y-95303000D02*
X108528000Y-95303000D01*
X108528000Y-98753000D02*
X108528000Y-97028000D01*
X110178000Y-95103000D02*
X109378000Y-95103000D01*
X109378000Y-98953000D02*
X109378000Y-98753000D01*
X111438000Y-99263000D02*
X111438000Y-94793000D01*
%TO.C,H1*%
X198570294Y-103456000D02*
X201970294Y-103456000D01*
X201970294Y-106856000D02*
X198570294Y-106856000D01*
X201970294Y-103456000D02*
X201970294Y-106856000D01*
X198570294Y-106856000D02*
X198570294Y-103456000D01*
%TO.C,J17*%
X131603000Y-98753000D02*
X130753000Y-98753000D01*
X132403000Y-98953000D02*
X131603000Y-98953000D01*
X131603000Y-95103000D02*
X131603000Y-95303000D01*
X130753000Y-95303000D02*
X130753000Y-97028000D01*
X133153000Y-95303000D02*
X132403000Y-95303000D01*
X131603000Y-95303000D02*
X130753000Y-95303000D01*
X130243000Y-94793000D02*
X130243000Y-99263000D01*
X133153000Y-97028000D02*
X133153000Y-95303000D01*
X133153000Y-97028000D02*
X133153000Y-98753000D01*
X132403000Y-95103000D02*
X131603000Y-95103000D01*
X130243000Y-99263000D02*
X133663000Y-99263000D01*
X133663000Y-99263000D02*
X133663000Y-94793000D01*
X133663000Y-94793000D02*
X130243000Y-94793000D01*
X132403000Y-98753000D02*
X132403000Y-98953000D01*
X133953000Y-99553000D02*
X133953000Y-98553000D01*
X133153000Y-98753000D02*
X132403000Y-98753000D01*
X130753000Y-98753000D02*
X130753000Y-97028000D01*
X132403000Y-95303000D02*
X132403000Y-95103000D01*
X133953000Y-99553000D02*
X132953000Y-99553000D01*
X131603000Y-98953000D02*
X131603000Y-98753000D01*
%TO.C,J35*%
X160333000Y-99263000D02*
X160333000Y-94793000D01*
X159073000Y-98753000D02*
X159073000Y-98953000D01*
X160333000Y-94793000D02*
X156913000Y-94793000D01*
X158273000Y-95303000D02*
X157423000Y-95303000D01*
X157423000Y-95303000D02*
X157423000Y-97028000D01*
X158273000Y-98753000D02*
X157423000Y-98753000D01*
X160623000Y-99553000D02*
X159623000Y-99553000D01*
X158273000Y-95103000D02*
X158273000Y-95303000D01*
X156913000Y-99263000D02*
X160333000Y-99263000D01*
X159823000Y-95303000D02*
X159073000Y-95303000D01*
X158273000Y-98953000D02*
X158273000Y-98753000D01*
X159073000Y-95103000D02*
X158273000Y-95103000D01*
X160623000Y-99553000D02*
X160623000Y-98553000D01*
X159073000Y-98953000D02*
X158273000Y-98953000D01*
X159823000Y-97028000D02*
X159823000Y-98753000D01*
X159073000Y-95303000D02*
X159073000Y-95103000D01*
X159823000Y-97028000D02*
X159823000Y-95303000D01*
X156913000Y-94793000D02*
X156913000Y-99263000D01*
X157423000Y-98753000D02*
X157423000Y-97028000D01*
X159823000Y-98753000D02*
X159073000Y-98753000D01*
%TO.C,H6*%
X102059000Y-97995000D02*
X105459000Y-97995000D01*
X105459000Y-97995000D02*
X105459000Y-101395000D01*
X105459000Y-101395000D02*
X102059000Y-101395000D01*
X102059000Y-101395000D02*
X102059000Y-97995000D01*
%TO.C,J43*%
X173668000Y-100381000D02*
X170248000Y-100381000D01*
X170248000Y-104851000D02*
X173668000Y-104851000D01*
X173958000Y-105141000D02*
X173958000Y-104141000D01*
X173958000Y-105141000D02*
X172958000Y-105141000D01*
X173158000Y-100891000D02*
X172408000Y-100891000D01*
X171608000Y-100691000D02*
X171608000Y-100891000D01*
X171608000Y-104541000D02*
X171608000Y-104341000D01*
X172408000Y-100691000D02*
X171608000Y-100691000D01*
X173158000Y-102616000D02*
X173158000Y-100891000D01*
X171608000Y-100891000D02*
X170758000Y-100891000D01*
X172408000Y-104341000D02*
X172408000Y-104541000D01*
X170758000Y-100891000D02*
X170758000Y-102616000D01*
X171608000Y-104341000D02*
X170758000Y-104341000D01*
X172408000Y-100891000D02*
X172408000Y-100691000D01*
X173158000Y-104341000D02*
X172408000Y-104341000D01*
X172408000Y-104541000D02*
X171608000Y-104541000D01*
X173158000Y-102616000D02*
X173158000Y-104341000D01*
X173668000Y-104851000D02*
X173668000Y-100381000D01*
X170248000Y-100381000D02*
X170248000Y-104851000D01*
X170758000Y-104341000D02*
X170758000Y-102616000D01*
%TO.C,H8*%
X102059000Y-90473000D02*
X102059000Y-87073000D01*
X105459000Y-87073000D02*
X105459000Y-90473000D01*
X105459000Y-90473000D02*
X102059000Y-90473000D01*
X102059000Y-87073000D02*
X105459000Y-87073000D01*
%TO.C,J24*%
X140493000Y-89515000D02*
X140493000Y-89715000D01*
X142553000Y-93675000D02*
X142553000Y-89205000D01*
X139133000Y-93675000D02*
X142553000Y-93675000D01*
X142553000Y-89205000D02*
X139133000Y-89205000D01*
X141293000Y-93365000D02*
X140493000Y-93365000D01*
X140493000Y-89715000D02*
X139643000Y-89715000D01*
X142043000Y-93165000D02*
X141293000Y-93165000D01*
X142843000Y-93965000D02*
X142843000Y-92965000D01*
X142043000Y-89715000D02*
X141293000Y-89715000D01*
X141293000Y-89515000D02*
X140493000Y-89515000D01*
X142843000Y-93965000D02*
X141843000Y-93965000D01*
X140493000Y-93365000D02*
X140493000Y-93165000D01*
X141293000Y-89715000D02*
X141293000Y-89515000D01*
X142043000Y-91440000D02*
X142043000Y-89715000D01*
X139643000Y-93165000D02*
X139643000Y-91440000D01*
X139643000Y-89715000D02*
X139643000Y-91440000D01*
X140493000Y-93165000D02*
X139643000Y-93165000D01*
X139133000Y-89205000D02*
X139133000Y-93675000D01*
X142043000Y-91440000D02*
X142043000Y-93165000D01*
X141293000Y-93165000D02*
X141293000Y-93365000D01*
%TO.C,J56*%
X188538000Y-95303000D02*
X188538000Y-97028000D01*
X189388000Y-98753000D02*
X188538000Y-98753000D01*
X190188000Y-95103000D02*
X189388000Y-95103000D01*
X188538000Y-98753000D02*
X188538000Y-97028000D01*
X191738000Y-99553000D02*
X190738000Y-99553000D01*
X190938000Y-97028000D02*
X190938000Y-98753000D01*
X188028000Y-94793000D02*
X188028000Y-99263000D01*
X189388000Y-98953000D02*
X189388000Y-98753000D01*
X191448000Y-94793000D02*
X188028000Y-94793000D01*
X190188000Y-98753000D02*
X190188000Y-98953000D01*
X190188000Y-98953000D02*
X189388000Y-98953000D01*
X189388000Y-95103000D02*
X189388000Y-95303000D01*
X191448000Y-99263000D02*
X191448000Y-94793000D01*
X191738000Y-99553000D02*
X191738000Y-98553000D01*
X190938000Y-95303000D02*
X190188000Y-95303000D01*
X190188000Y-95303000D02*
X190188000Y-95103000D01*
X189388000Y-95303000D02*
X188538000Y-95303000D01*
X190938000Y-98753000D02*
X190188000Y-98753000D01*
X190938000Y-97028000D02*
X190938000Y-95303000D01*
X188028000Y-99263000D02*
X191448000Y-99263000D01*
%TO.C,J39*%
X164268000Y-93165000D02*
X163518000Y-93165000D01*
X162718000Y-89715000D02*
X161868000Y-89715000D01*
X161868000Y-89715000D02*
X161868000Y-91440000D01*
X165068000Y-93965000D02*
X164068000Y-93965000D01*
X161358000Y-89205000D02*
X161358000Y-93675000D01*
X164778000Y-89205000D02*
X161358000Y-89205000D01*
X162718000Y-93365000D02*
X162718000Y-93165000D01*
X163518000Y-93165000D02*
X163518000Y-93365000D01*
X161868000Y-93165000D02*
X161868000Y-91440000D01*
X164778000Y-93675000D02*
X164778000Y-89205000D01*
X163518000Y-93365000D02*
X162718000Y-93365000D01*
X164268000Y-89715000D02*
X163518000Y-89715000D01*
X164268000Y-91440000D02*
X164268000Y-93165000D01*
X161358000Y-93675000D02*
X164778000Y-93675000D01*
X165068000Y-93965000D02*
X165068000Y-92965000D01*
X164268000Y-91440000D02*
X164268000Y-89715000D01*
X163518000Y-89715000D02*
X163518000Y-89515000D01*
X162718000Y-93165000D02*
X161868000Y-93165000D01*
X163518000Y-89515000D02*
X162718000Y-89515000D01*
X162718000Y-89515000D02*
X162718000Y-89715000D01*
%TO.C,J47*%
X175203000Y-95303000D02*
X175203000Y-97028000D01*
X176053000Y-98953000D02*
X176053000Y-98753000D01*
X177603000Y-97028000D02*
X177603000Y-95303000D01*
X177603000Y-95303000D02*
X176853000Y-95303000D01*
X176053000Y-98753000D02*
X175203000Y-98753000D01*
X176053000Y-95303000D02*
X175203000Y-95303000D01*
X178113000Y-94793000D02*
X174693000Y-94793000D01*
X176853000Y-98753000D02*
X176853000Y-98953000D01*
X178403000Y-99553000D02*
X178403000Y-98553000D01*
X176853000Y-98953000D02*
X176053000Y-98953000D01*
X178403000Y-99553000D02*
X177403000Y-99553000D01*
X176853000Y-95303000D02*
X176853000Y-95103000D01*
X177603000Y-97028000D02*
X177603000Y-98753000D01*
X178113000Y-99263000D02*
X178113000Y-94793000D01*
X176853000Y-95103000D02*
X176053000Y-95103000D01*
X174693000Y-94793000D02*
X174693000Y-99263000D01*
X177603000Y-98753000D02*
X176853000Y-98753000D01*
X174693000Y-99263000D02*
X178113000Y-99263000D01*
X176053000Y-95103000D02*
X176053000Y-95303000D01*
X175203000Y-98753000D02*
X175203000Y-97028000D01*
%TO.C,J28*%
X151443000Y-100381000D02*
X148023000Y-100381000D01*
X150933000Y-102616000D02*
X150933000Y-104341000D01*
X150183000Y-100691000D02*
X149383000Y-100691000D01*
X150933000Y-100891000D02*
X150183000Y-100891000D01*
X151733000Y-105141000D02*
X151733000Y-104141000D01*
X149383000Y-104541000D02*
X149383000Y-104341000D01*
X150183000Y-100891000D02*
X150183000Y-100691000D01*
X149383000Y-100691000D02*
X149383000Y-100891000D01*
X150933000Y-104341000D02*
X150183000Y-104341000D01*
X150933000Y-102616000D02*
X150933000Y-100891000D01*
X148023000Y-104851000D02*
X151443000Y-104851000D01*
X149383000Y-104341000D02*
X148533000Y-104341000D01*
X149383000Y-100891000D02*
X148533000Y-100891000D01*
X151443000Y-104851000D02*
X151443000Y-100381000D01*
X150183000Y-104541000D02*
X149383000Y-104541000D01*
X151733000Y-105141000D02*
X150733000Y-105141000D01*
X148533000Y-100891000D02*
X148533000Y-102616000D01*
X150183000Y-104341000D02*
X150183000Y-104541000D01*
X148533000Y-104341000D02*
X148533000Y-102616000D01*
X148023000Y-100381000D02*
X148023000Y-104851000D01*
%TO.C,J36*%
X160623000Y-93965000D02*
X159623000Y-93965000D01*
X159073000Y-93165000D02*
X159073000Y-93365000D01*
X158273000Y-89515000D02*
X158273000Y-89715000D01*
X158273000Y-89715000D02*
X157423000Y-89715000D01*
X157423000Y-93165000D02*
X157423000Y-91440000D01*
X159073000Y-89715000D02*
X159073000Y-89515000D01*
X156913000Y-93675000D02*
X160333000Y-93675000D01*
X159073000Y-93365000D02*
X158273000Y-93365000D01*
X160623000Y-93965000D02*
X160623000Y-92965000D01*
X158273000Y-93365000D02*
X158273000Y-93165000D01*
X159823000Y-89715000D02*
X159073000Y-89715000D01*
X157423000Y-89715000D02*
X157423000Y-91440000D01*
X158273000Y-93165000D02*
X157423000Y-93165000D01*
X159073000Y-89515000D02*
X158273000Y-89515000D01*
X159823000Y-91440000D02*
X159823000Y-89715000D01*
X159823000Y-93165000D02*
X159073000Y-93165000D01*
X160333000Y-93675000D02*
X160333000Y-89205000D01*
X156913000Y-89205000D02*
X156913000Y-93675000D01*
X159823000Y-91440000D02*
X159823000Y-93165000D01*
X160333000Y-89205000D02*
X156913000Y-89205000D01*
%TO.C,H2*%
X198570294Y-97995000D02*
X201970294Y-97995000D01*
X198570294Y-101395000D02*
X198570294Y-97995000D01*
X201970294Y-101395000D02*
X198570294Y-101395000D01*
X201970294Y-97995000D02*
X201970294Y-101395000D01*
%TO.C,J30*%
X151443000Y-89205000D02*
X148023000Y-89205000D01*
X149383000Y-93365000D02*
X149383000Y-93165000D01*
X150933000Y-91440000D02*
X150933000Y-93165000D01*
X149383000Y-89515000D02*
X149383000Y-89715000D01*
X148023000Y-93675000D02*
X151443000Y-93675000D01*
X150183000Y-89715000D02*
X150183000Y-89515000D01*
X148023000Y-89205000D02*
X148023000Y-93675000D01*
X149383000Y-93165000D02*
X148533000Y-93165000D01*
X151733000Y-93965000D02*
X151733000Y-92965000D01*
X151443000Y-93675000D02*
X151443000Y-89205000D01*
X150183000Y-93365000D02*
X149383000Y-93365000D01*
X150183000Y-89515000D02*
X149383000Y-89515000D01*
X150933000Y-89715000D02*
X150183000Y-89715000D01*
X150933000Y-91440000D02*
X150933000Y-89715000D01*
X150183000Y-93165000D02*
X150183000Y-93365000D01*
X151733000Y-93965000D02*
X150733000Y-93965000D01*
X148533000Y-89715000D02*
X148533000Y-91440000D01*
X149383000Y-89715000D02*
X148533000Y-89715000D01*
X148533000Y-93165000D02*
X148533000Y-91440000D01*
X150933000Y-93165000D02*
X150183000Y-93165000D01*
%TO.C,J9*%
X118268000Y-93365000D02*
X118268000Y-93165000D01*
X119818000Y-93165000D02*
X119068000Y-93165000D01*
X116908000Y-93675000D02*
X120328000Y-93675000D01*
X120328000Y-89205000D02*
X116908000Y-89205000D01*
X118268000Y-89515000D02*
X118268000Y-89715000D01*
X119068000Y-89715000D02*
X119068000Y-89515000D01*
X119068000Y-93365000D02*
X118268000Y-93365000D01*
X119068000Y-89515000D02*
X118268000Y-89515000D01*
X119068000Y-93165000D02*
X119068000Y-93365000D01*
X120618000Y-93965000D02*
X120618000Y-92965000D01*
X120328000Y-93675000D02*
X120328000Y-89205000D01*
X120618000Y-93965000D02*
X119618000Y-93965000D01*
X118268000Y-89715000D02*
X117418000Y-89715000D01*
X116908000Y-89205000D02*
X116908000Y-93675000D01*
X119818000Y-91440000D02*
X119818000Y-89715000D01*
X118268000Y-93165000D02*
X117418000Y-93165000D01*
X119818000Y-89715000D02*
X119068000Y-89715000D01*
X119818000Y-91440000D02*
X119818000Y-93165000D01*
X117418000Y-93165000D02*
X117418000Y-91440000D01*
X117418000Y-89715000D02*
X117418000Y-91440000D01*
%TO.C,J15*%
X129218000Y-93675000D02*
X129218000Y-89205000D01*
X127958000Y-89515000D02*
X127158000Y-89515000D01*
X127958000Y-93165000D02*
X127958000Y-93365000D01*
X127158000Y-93365000D02*
X127158000Y-93165000D01*
X127958000Y-89715000D02*
X127958000Y-89515000D01*
X125798000Y-93675000D02*
X129218000Y-93675000D01*
X127158000Y-89515000D02*
X127158000Y-89715000D01*
X129508000Y-93965000D02*
X128508000Y-93965000D01*
X126308000Y-89715000D02*
X126308000Y-91440000D01*
X127158000Y-93165000D02*
X126308000Y-93165000D01*
X128708000Y-91440000D02*
X128708000Y-89715000D01*
X127958000Y-93365000D02*
X127158000Y-93365000D01*
X129508000Y-93965000D02*
X129508000Y-92965000D01*
X125798000Y-89205000D02*
X125798000Y-93675000D01*
X128708000Y-89715000D02*
X127958000Y-89715000D01*
X126308000Y-93165000D02*
X126308000Y-91440000D01*
X128708000Y-93165000D02*
X127958000Y-93165000D01*
X128708000Y-91440000D02*
X128708000Y-93165000D01*
X127158000Y-89715000D02*
X126308000Y-89715000D01*
X129218000Y-89205000D02*
X125798000Y-89205000D01*
%TO.C,J46*%
X176053000Y-104541000D02*
X176053000Y-104341000D01*
X178113000Y-100381000D02*
X174693000Y-100381000D01*
X176853000Y-100691000D02*
X176053000Y-100691000D01*
X177603000Y-102616000D02*
X177603000Y-100891000D01*
X176053000Y-104341000D02*
X175203000Y-104341000D01*
X176053000Y-100891000D02*
X175203000Y-100891000D01*
X174693000Y-100381000D02*
X174693000Y-104851000D01*
X174693000Y-104851000D02*
X178113000Y-104851000D01*
X176853000Y-104341000D02*
X176853000Y-104541000D01*
X177603000Y-104341000D02*
X176853000Y-104341000D01*
X176053000Y-100691000D02*
X176053000Y-100891000D01*
X177603000Y-100891000D02*
X176853000Y-100891000D01*
X178403000Y-105141000D02*
X178403000Y-104141000D01*
X176853000Y-100891000D02*
X176853000Y-100691000D01*
X175203000Y-100891000D02*
X175203000Y-102616000D01*
X178403000Y-105141000D02*
X177403000Y-105141000D01*
X177603000Y-102616000D02*
X177603000Y-104341000D01*
X178113000Y-104851000D02*
X178113000Y-100381000D01*
X175203000Y-104341000D02*
X175203000Y-102616000D01*
X176853000Y-104541000D02*
X176053000Y-104541000D01*
%TO.C,J26*%
X146488000Y-98753000D02*
X145738000Y-98753000D01*
X147288000Y-99553000D02*
X146288000Y-99553000D01*
X143578000Y-99263000D02*
X146998000Y-99263000D01*
X144938000Y-98753000D02*
X144088000Y-98753000D01*
X145738000Y-95103000D02*
X144938000Y-95103000D01*
X146998000Y-99263000D02*
X146998000Y-94793000D01*
X145738000Y-98953000D02*
X144938000Y-98953000D01*
X144088000Y-98753000D02*
X144088000Y-97028000D01*
X146488000Y-95303000D02*
X145738000Y-95303000D01*
X145738000Y-98753000D02*
X145738000Y-98953000D01*
X143578000Y-94793000D02*
X143578000Y-99263000D01*
X144938000Y-95303000D02*
X144088000Y-95303000D01*
X146998000Y-94793000D02*
X143578000Y-94793000D01*
X146488000Y-97028000D02*
X146488000Y-98753000D01*
X144938000Y-98953000D02*
X144938000Y-98753000D01*
X146488000Y-97028000D02*
X146488000Y-95303000D01*
X145738000Y-95303000D02*
X145738000Y-95103000D01*
X144938000Y-95103000D02*
X144938000Y-95303000D01*
X147288000Y-99553000D02*
X147288000Y-98553000D01*
X144088000Y-95303000D02*
X144088000Y-97028000D01*
%TO.C,H7*%
X105459000Y-92534000D02*
X105459000Y-95934000D01*
X102059000Y-92534000D02*
X105459000Y-92534000D01*
X102059000Y-95934000D02*
X102059000Y-92534000D01*
X105459000Y-95934000D02*
X102059000Y-95934000D01*
%TO.C,J60*%
X195383000Y-91440000D02*
X195383000Y-93165000D01*
X195383000Y-89715000D02*
X194633000Y-89715000D01*
X194633000Y-89715000D02*
X194633000Y-89515000D01*
X194633000Y-93365000D02*
X193833000Y-93365000D01*
X193833000Y-93365000D02*
X193833000Y-93165000D01*
X195893000Y-93675000D02*
X195893000Y-89205000D01*
X192473000Y-89205000D02*
X192473000Y-93675000D01*
X196183000Y-93965000D02*
X195183000Y-93965000D01*
X192983000Y-89715000D02*
X192983000Y-91440000D01*
X195383000Y-93165000D02*
X194633000Y-93165000D01*
X193833000Y-89715000D02*
X192983000Y-89715000D01*
X194633000Y-93165000D02*
X194633000Y-93365000D01*
X195893000Y-89205000D02*
X192473000Y-89205000D01*
X195383000Y-91440000D02*
X195383000Y-89715000D01*
X193833000Y-93165000D02*
X192983000Y-93165000D01*
X196183000Y-93965000D02*
X196183000Y-92965000D01*
X192983000Y-93165000D02*
X192983000Y-91440000D01*
X192473000Y-93675000D02*
X195893000Y-93675000D01*
X194633000Y-89515000D02*
X193833000Y-89515000D01*
X193833000Y-89515000D02*
X193833000Y-89715000D01*
%TO.C,J7*%
X118268000Y-100891000D02*
X117418000Y-100891000D01*
X119068000Y-104541000D02*
X118268000Y-104541000D01*
X117418000Y-100891000D02*
X117418000Y-102616000D01*
X119818000Y-100891000D02*
X119068000Y-100891000D01*
X118268000Y-104341000D02*
X117418000Y-104341000D01*
X116908000Y-104851000D02*
X120328000Y-104851000D01*
X116908000Y-100381000D02*
X116908000Y-104851000D01*
X118268000Y-104541000D02*
X118268000Y-104341000D01*
X120328000Y-100381000D02*
X116908000Y-100381000D01*
X120328000Y-104851000D02*
X120328000Y-100381000D01*
X119068000Y-100691000D02*
X118268000Y-100691000D01*
X119068000Y-100891000D02*
X119068000Y-100691000D01*
X119818000Y-102616000D02*
X119818000Y-100891000D01*
X118268000Y-100691000D02*
X118268000Y-100891000D01*
X119818000Y-102616000D02*
X119818000Y-104341000D01*
X120618000Y-105141000D02*
X119618000Y-105141000D01*
X119068000Y-104341000D02*
X119068000Y-104541000D01*
X119818000Y-104341000D02*
X119068000Y-104341000D01*
X117418000Y-104341000D02*
X117418000Y-102616000D01*
X120618000Y-105141000D02*
X120618000Y-104141000D01*
%TO.C,J3*%
X109378000Y-93165000D02*
X108528000Y-93165000D01*
X111438000Y-93675000D02*
X111438000Y-89205000D01*
X110178000Y-93165000D02*
X110178000Y-93365000D01*
X110178000Y-93365000D02*
X109378000Y-93365000D01*
X108528000Y-93165000D02*
X108528000Y-91440000D01*
X109378000Y-89515000D02*
X109378000Y-89715000D01*
X109378000Y-89715000D02*
X108528000Y-89715000D01*
X108018000Y-93675000D02*
X111438000Y-93675000D01*
X110928000Y-93165000D02*
X110178000Y-93165000D01*
X110928000Y-89715000D02*
X110178000Y-89715000D01*
X109378000Y-93365000D02*
X109378000Y-93165000D01*
X108528000Y-89715000D02*
X108528000Y-91440000D01*
X111728000Y-93965000D02*
X110728000Y-93965000D01*
X110178000Y-89715000D02*
X110178000Y-89515000D01*
X110178000Y-89515000D02*
X109378000Y-89515000D01*
X110928000Y-91440000D02*
X110928000Y-89715000D01*
X111438000Y-89205000D02*
X108018000Y-89205000D01*
X108018000Y-89205000D02*
X108018000Y-93675000D01*
X111728000Y-93965000D02*
X111728000Y-92965000D01*
X110928000Y-91440000D02*
X110928000Y-93165000D01*
%TO.C,J22*%
X142043000Y-102616000D02*
X142043000Y-100891000D01*
X139133000Y-100381000D02*
X139133000Y-104851000D01*
X142843000Y-105141000D02*
X141843000Y-105141000D01*
X141293000Y-104541000D02*
X140493000Y-104541000D01*
X142043000Y-104341000D02*
X141293000Y-104341000D01*
X139643000Y-104341000D02*
X139643000Y-102616000D01*
X141293000Y-100691000D02*
X140493000Y-100691000D01*
X142843000Y-105141000D02*
X142843000Y-104141000D01*
X141293000Y-104341000D02*
X141293000Y-104541000D01*
X142553000Y-100381000D02*
X139133000Y-100381000D01*
X140493000Y-100891000D02*
X139643000Y-100891000D01*
X140493000Y-100691000D02*
X140493000Y-100891000D01*
X139133000Y-104851000D02*
X142553000Y-104851000D01*
X142553000Y-104851000D02*
X142553000Y-100381000D01*
X141293000Y-100891000D02*
X141293000Y-100691000D01*
X142043000Y-100891000D02*
X141293000Y-100891000D01*
X140493000Y-104341000D02*
X139643000Y-104341000D01*
X140493000Y-104541000D02*
X140493000Y-104341000D01*
X142043000Y-102616000D02*
X142043000Y-104341000D01*
X139643000Y-100891000D02*
X139643000Y-102616000D01*
%TO.C,J40*%
X168713000Y-102616000D02*
X168713000Y-100891000D01*
X167963000Y-104541000D02*
X167163000Y-104541000D01*
X165803000Y-100381000D02*
X165803000Y-104851000D01*
X165803000Y-104851000D02*
X169223000Y-104851000D01*
X168713000Y-102616000D02*
X168713000Y-104341000D01*
X167163000Y-100691000D02*
X167163000Y-100891000D01*
X167963000Y-100691000D02*
X167163000Y-100691000D01*
X167163000Y-104341000D02*
X166313000Y-104341000D01*
X169223000Y-100381000D02*
X165803000Y-100381000D01*
X167163000Y-104541000D02*
X167163000Y-104341000D01*
X169513000Y-105141000D02*
X169513000Y-104141000D01*
X166313000Y-100891000D02*
X166313000Y-102616000D01*
X168713000Y-100891000D02*
X167963000Y-100891000D01*
X169223000Y-104851000D02*
X169223000Y-100381000D01*
X168713000Y-104341000D02*
X167963000Y-104341000D01*
X167963000Y-100891000D02*
X167963000Y-100691000D01*
X169513000Y-105141000D02*
X168513000Y-105141000D01*
X166313000Y-104341000D02*
X166313000Y-102616000D01*
X167163000Y-100891000D02*
X166313000Y-100891000D01*
X167963000Y-104341000D02*
X167963000Y-104541000D01*
%TO.C,J34*%
X156913000Y-100381000D02*
X156913000Y-104851000D01*
X157423000Y-104341000D02*
X157423000Y-102616000D01*
X159073000Y-104541000D02*
X158273000Y-104541000D01*
X160623000Y-105141000D02*
X160623000Y-104141000D01*
X159823000Y-100891000D02*
X159073000Y-100891000D01*
X160333000Y-104851000D02*
X160333000Y-100381000D01*
X159073000Y-100891000D02*
X159073000Y-100691000D01*
X159823000Y-102616000D02*
X159823000Y-104341000D01*
X158273000Y-104541000D02*
X158273000Y-104341000D01*
X158273000Y-100891000D02*
X157423000Y-100891000D01*
X158273000Y-104341000D02*
X157423000Y-104341000D01*
X157423000Y-100891000D02*
X157423000Y-102616000D01*
X160333000Y-100381000D02*
X156913000Y-100381000D01*
X158273000Y-100691000D02*
X158273000Y-100891000D01*
X159823000Y-104341000D02*
X159073000Y-104341000D01*
X159073000Y-100691000D02*
X158273000Y-100691000D01*
X160623000Y-105141000D02*
X159623000Y-105141000D01*
X159823000Y-102616000D02*
X159823000Y-100891000D01*
X159073000Y-104341000D02*
X159073000Y-104541000D01*
X156913000Y-104851000D02*
X160333000Y-104851000D01*
%TO.C,J29*%
X150183000Y-95103000D02*
X149383000Y-95103000D01*
X150183000Y-98753000D02*
X150183000Y-98953000D01*
X150183000Y-95303000D02*
X150183000Y-95103000D01*
X150933000Y-97028000D02*
X150933000Y-98753000D01*
X150933000Y-97028000D02*
X150933000Y-95303000D01*
X149383000Y-98753000D02*
X148533000Y-98753000D01*
X149383000Y-95103000D02*
X149383000Y-95303000D01*
X151443000Y-99263000D02*
X151443000Y-94793000D01*
X148533000Y-95303000D02*
X148533000Y-97028000D01*
X149383000Y-95303000D02*
X148533000Y-95303000D01*
X150933000Y-98753000D02*
X150183000Y-98753000D01*
X148023000Y-94793000D02*
X148023000Y-99263000D01*
X151443000Y-94793000D02*
X148023000Y-94793000D01*
X149383000Y-98953000D02*
X149383000Y-98753000D01*
X150933000Y-95303000D02*
X150183000Y-95303000D01*
X150183000Y-98953000D02*
X149383000Y-98953000D01*
X151733000Y-99553000D02*
X151733000Y-98553000D01*
X148533000Y-98753000D02*
X148533000Y-97028000D01*
X151733000Y-99553000D02*
X150733000Y-99553000D01*
X148023000Y-99263000D02*
X151443000Y-99263000D01*
%TO.C,J38*%
X162718000Y-98953000D02*
X162718000Y-98753000D01*
X161868000Y-98753000D02*
X161868000Y-97028000D01*
X161358000Y-94793000D02*
X161358000Y-99263000D01*
X164268000Y-97028000D02*
X164268000Y-95303000D01*
X163518000Y-98953000D02*
X162718000Y-98953000D01*
X164268000Y-98753000D02*
X163518000Y-98753000D01*
X164268000Y-97028000D02*
X164268000Y-98753000D01*
X164778000Y-94793000D02*
X161358000Y-94793000D01*
X161358000Y-99263000D02*
X164778000Y-99263000D01*
X162718000Y-95103000D02*
X162718000Y-95303000D01*
X163518000Y-95303000D02*
X163518000Y-95103000D01*
X161868000Y-95303000D02*
X161868000Y-97028000D01*
X162718000Y-95303000D02*
X161868000Y-95303000D01*
X163518000Y-95103000D02*
X162718000Y-95103000D01*
X163518000Y-98753000D02*
X163518000Y-98953000D01*
X164268000Y-95303000D02*
X163518000Y-95303000D01*
X162718000Y-98753000D02*
X161868000Y-98753000D01*
X165068000Y-99553000D02*
X165068000Y-98553000D01*
X165068000Y-99553000D02*
X164068000Y-99553000D01*
X164778000Y-99263000D02*
X164778000Y-94793000D01*
%TO.C,J6*%
X114623000Y-89715000D02*
X114623000Y-89515000D01*
X115373000Y-93165000D02*
X114623000Y-93165000D01*
X113823000Y-93165000D02*
X112973000Y-93165000D01*
X112973000Y-89715000D02*
X112973000Y-91440000D01*
X114623000Y-93365000D02*
X113823000Y-93365000D01*
X116173000Y-93965000D02*
X115173000Y-93965000D01*
X113823000Y-89715000D02*
X112973000Y-89715000D01*
X115373000Y-91440000D02*
X115373000Y-93165000D01*
X116173000Y-93965000D02*
X116173000Y-92965000D01*
X113823000Y-89515000D02*
X113823000Y-89715000D01*
X114623000Y-93165000D02*
X114623000Y-93365000D01*
X115373000Y-91440000D02*
X115373000Y-89715000D01*
X112463000Y-93675000D02*
X115883000Y-93675000D01*
X112463000Y-89205000D02*
X112463000Y-93675000D01*
X115883000Y-93675000D02*
X115883000Y-89205000D01*
X115373000Y-89715000D02*
X114623000Y-89715000D01*
X114623000Y-89515000D02*
X113823000Y-89515000D01*
X112973000Y-93165000D02*
X112973000Y-91440000D01*
X113823000Y-93365000D02*
X113823000Y-93165000D01*
X115883000Y-89205000D02*
X112463000Y-89205000D01*
%TO.C,J1*%
X110178000Y-104541000D02*
X109378000Y-104541000D01*
X110928000Y-104341000D02*
X110178000Y-104341000D01*
X108018000Y-104851000D02*
X111438000Y-104851000D01*
X109378000Y-104341000D02*
X108528000Y-104341000D01*
X109378000Y-104541000D02*
X109378000Y-104341000D01*
X109378000Y-100891000D02*
X108528000Y-100891000D01*
X111728000Y-105141000D02*
X111728000Y-104141000D01*
X111438000Y-100381000D02*
X108018000Y-100381000D01*
X108018000Y-100381000D02*
X108018000Y-104851000D01*
X110928000Y-102616000D02*
X110928000Y-104341000D01*
X110928000Y-100891000D02*
X110178000Y-100891000D01*
X108528000Y-100891000D02*
X108528000Y-102616000D01*
X110178000Y-100691000D02*
X109378000Y-100691000D01*
X110178000Y-100891000D02*
X110178000Y-100691000D01*
X111728000Y-105141000D02*
X110728000Y-105141000D01*
X111438000Y-104851000D02*
X111438000Y-100381000D01*
X110928000Y-102616000D02*
X110928000Y-100891000D01*
X108528000Y-104341000D02*
X108528000Y-102616000D01*
X110178000Y-104341000D02*
X110178000Y-104541000D01*
X109378000Y-100691000D02*
X109378000Y-100891000D01*
%TO.C,J49*%
X180498000Y-104341000D02*
X179648000Y-104341000D01*
X182558000Y-100381000D02*
X179138000Y-100381000D01*
X181298000Y-104341000D02*
X181298000Y-104541000D01*
X181298000Y-104541000D02*
X180498000Y-104541000D01*
X181298000Y-100691000D02*
X180498000Y-100691000D01*
X179648000Y-104341000D02*
X179648000Y-102616000D01*
X180498000Y-100891000D02*
X179648000Y-100891000D01*
X182848000Y-105141000D02*
X181848000Y-105141000D01*
X181298000Y-100891000D02*
X181298000Y-100691000D01*
X179648000Y-100891000D02*
X179648000Y-102616000D01*
X182048000Y-100891000D02*
X181298000Y-100891000D01*
X179138000Y-104851000D02*
X182558000Y-104851000D01*
X182048000Y-102616000D02*
X182048000Y-100891000D01*
X180498000Y-100691000D02*
X180498000Y-100891000D01*
X179138000Y-100381000D02*
X179138000Y-104851000D01*
X182558000Y-104851000D02*
X182558000Y-100381000D01*
X182048000Y-104341000D02*
X181298000Y-104341000D01*
X180498000Y-104541000D02*
X180498000Y-104341000D01*
X182848000Y-105141000D02*
X182848000Y-104141000D01*
X182048000Y-102616000D02*
X182048000Y-104341000D01*
%TO.C,J33*%
X152468000Y-89205000D02*
X152468000Y-93675000D01*
X153828000Y-93365000D02*
X153828000Y-93165000D01*
X154628000Y-93365000D02*
X153828000Y-93365000D01*
X155378000Y-91440000D02*
X155378000Y-93165000D01*
X152978000Y-93165000D02*
X152978000Y-91440000D01*
X153828000Y-93165000D02*
X152978000Y-93165000D01*
X152468000Y-93675000D02*
X155888000Y-93675000D01*
X153828000Y-89515000D02*
X153828000Y-89715000D01*
X156178000Y-93965000D02*
X156178000Y-92965000D01*
X154628000Y-89515000D02*
X153828000Y-89515000D01*
X156178000Y-93965000D02*
X155178000Y-93965000D01*
X155378000Y-89715000D02*
X154628000Y-89715000D01*
X155378000Y-91440000D02*
X155378000Y-89715000D01*
X154628000Y-89715000D02*
X154628000Y-89515000D01*
X152978000Y-89715000D02*
X152978000Y-91440000D01*
X155888000Y-93675000D02*
X155888000Y-89205000D01*
X153828000Y-89715000D02*
X152978000Y-89715000D01*
X155378000Y-93165000D02*
X154628000Y-93165000D01*
X155888000Y-89205000D02*
X152468000Y-89205000D01*
X154628000Y-93165000D02*
X154628000Y-93365000D01*
%TO.C,H4*%
X198570294Y-90473000D02*
X198570294Y-87073000D01*
X201970294Y-90473000D02*
X198570294Y-90473000D01*
X198570294Y-87073000D02*
X201970294Y-87073000D01*
X201970294Y-87073000D02*
X201970294Y-90473000D01*
%TO.C,J50*%
X180498000Y-98953000D02*
X180498000Y-98753000D01*
X182048000Y-97028000D02*
X182048000Y-98753000D01*
X181298000Y-98753000D02*
X181298000Y-98953000D01*
X182048000Y-97028000D02*
X182048000Y-95303000D01*
X181298000Y-95303000D02*
X181298000Y-95103000D01*
X179648000Y-95303000D02*
X179648000Y-97028000D01*
X182558000Y-94793000D02*
X179138000Y-94793000D01*
X180498000Y-95303000D02*
X179648000Y-95303000D01*
X181298000Y-98953000D02*
X180498000Y-98953000D01*
X182848000Y-99553000D02*
X181848000Y-99553000D01*
X182048000Y-98753000D02*
X181298000Y-98753000D01*
X179138000Y-94793000D02*
X179138000Y-99263000D01*
X182558000Y-99263000D02*
X182558000Y-94793000D01*
X182048000Y-95303000D02*
X181298000Y-95303000D01*
X182848000Y-99553000D02*
X182848000Y-98553000D01*
X180498000Y-95103000D02*
X180498000Y-95303000D01*
X180498000Y-98753000D02*
X179648000Y-98753000D01*
X179138000Y-99263000D02*
X182558000Y-99263000D01*
X179648000Y-98753000D02*
X179648000Y-97028000D01*
X181298000Y-95103000D02*
X180498000Y-95103000D01*
%TO.C,J12*%
X122713000Y-89515000D02*
X122713000Y-89715000D01*
X125063000Y-93965000D02*
X125063000Y-92965000D01*
X125063000Y-93965000D02*
X124063000Y-93965000D01*
X121863000Y-89715000D02*
X121863000Y-91440000D01*
X122713000Y-89715000D02*
X121863000Y-89715000D01*
X124773000Y-89205000D02*
X121353000Y-89205000D01*
X123513000Y-89715000D02*
X123513000Y-89515000D01*
X121353000Y-93675000D02*
X124773000Y-93675000D01*
X124263000Y-93165000D02*
X123513000Y-93165000D01*
X121353000Y-89205000D02*
X121353000Y-93675000D01*
X122713000Y-93365000D02*
X122713000Y-93165000D01*
X123513000Y-89515000D02*
X122713000Y-89515000D01*
X124263000Y-89715000D02*
X123513000Y-89715000D01*
X121863000Y-93165000D02*
X121863000Y-91440000D01*
X124773000Y-93675000D02*
X124773000Y-89205000D01*
X124263000Y-91440000D02*
X124263000Y-89715000D01*
X124263000Y-91440000D02*
X124263000Y-93165000D01*
X122713000Y-93165000D02*
X121863000Y-93165000D01*
X123513000Y-93165000D02*
X123513000Y-93365000D01*
X123513000Y-93365000D02*
X122713000Y-93365000D01*
%TO.C,J37*%
X162718000Y-104541000D02*
X162718000Y-104341000D01*
X163518000Y-104341000D02*
X163518000Y-104541000D01*
X162718000Y-100891000D02*
X161868000Y-100891000D01*
X161358000Y-100381000D02*
X161358000Y-104851000D01*
X164268000Y-104341000D02*
X163518000Y-104341000D01*
X164268000Y-102616000D02*
X164268000Y-104341000D01*
X162718000Y-100691000D02*
X162718000Y-100891000D01*
X164268000Y-102616000D02*
X164268000Y-100891000D01*
X162718000Y-104341000D02*
X161868000Y-104341000D01*
X161868000Y-104341000D02*
X161868000Y-102616000D01*
X163518000Y-100691000D02*
X162718000Y-100691000D01*
X163518000Y-104541000D02*
X162718000Y-104541000D01*
X161358000Y-104851000D02*
X164778000Y-104851000D01*
X163518000Y-100891000D02*
X163518000Y-100691000D01*
X164778000Y-104851000D02*
X164778000Y-100381000D01*
X164778000Y-100381000D02*
X161358000Y-100381000D01*
X165068000Y-105141000D02*
X165068000Y-104141000D01*
X165068000Y-105141000D02*
X164068000Y-105141000D01*
X161868000Y-100891000D02*
X161868000Y-102616000D01*
X164268000Y-100891000D02*
X163518000Y-100891000D01*
%TO.C,J45*%
X173158000Y-89715000D02*
X172408000Y-89715000D01*
X170248000Y-93675000D02*
X173668000Y-93675000D01*
X173158000Y-91440000D02*
X173158000Y-89715000D01*
X173958000Y-93965000D02*
X172958000Y-93965000D01*
X172408000Y-93365000D02*
X171608000Y-93365000D01*
X170758000Y-93165000D02*
X170758000Y-91440000D01*
X170248000Y-89205000D02*
X170248000Y-93675000D01*
X171608000Y-89515000D02*
X171608000Y-89715000D01*
X172408000Y-89515000D02*
X171608000Y-89515000D01*
X172408000Y-89715000D02*
X172408000Y-89515000D01*
X173668000Y-89205000D02*
X170248000Y-89205000D01*
X171608000Y-89715000D02*
X170758000Y-89715000D01*
X170758000Y-89715000D02*
X170758000Y-91440000D01*
X172408000Y-93165000D02*
X172408000Y-93365000D01*
X173158000Y-93165000D02*
X172408000Y-93165000D01*
X173958000Y-93965000D02*
X173958000Y-92965000D01*
X171608000Y-93165000D02*
X170758000Y-93165000D01*
X173668000Y-93675000D02*
X173668000Y-89205000D01*
X173158000Y-91440000D02*
X173158000Y-93165000D01*
X171608000Y-93365000D02*
X171608000Y-93165000D01*
%TO.C,J4*%
X113823000Y-100891000D02*
X112973000Y-100891000D01*
X114623000Y-100691000D02*
X113823000Y-100691000D01*
X112463000Y-104851000D02*
X115883000Y-104851000D01*
X115373000Y-102616000D02*
X115373000Y-100891000D01*
X116173000Y-105141000D02*
X115173000Y-105141000D01*
X113823000Y-104341000D02*
X112973000Y-104341000D01*
X116173000Y-105141000D02*
X116173000Y-104141000D01*
X112973000Y-100891000D02*
X112973000Y-102616000D01*
X112463000Y-100381000D02*
X112463000Y-104851000D01*
X114623000Y-104341000D02*
X114623000Y-104541000D01*
X114623000Y-104541000D02*
X113823000Y-104541000D01*
X112973000Y-104341000D02*
X112973000Y-102616000D01*
X115373000Y-104341000D02*
X114623000Y-104341000D01*
X115373000Y-102616000D02*
X115373000Y-104341000D01*
X115883000Y-100381000D02*
X112463000Y-100381000D01*
X114623000Y-100891000D02*
X114623000Y-100691000D01*
X115883000Y-104851000D02*
X115883000Y-100381000D01*
X113823000Y-100691000D02*
X113823000Y-100891000D01*
X113823000Y-104541000D02*
X113823000Y-104341000D01*
X115373000Y-100891000D02*
X114623000Y-100891000D01*
%TO.C,J48*%
X176853000Y-93165000D02*
X176853000Y-93365000D01*
X176053000Y-93365000D02*
X176053000Y-93165000D01*
X175203000Y-93165000D02*
X175203000Y-91440000D01*
X177603000Y-93165000D02*
X176853000Y-93165000D01*
X176053000Y-89515000D02*
X176053000Y-89715000D01*
X177603000Y-89715000D02*
X176853000Y-89715000D01*
X177603000Y-91440000D02*
X177603000Y-89715000D01*
X176053000Y-89715000D02*
X175203000Y-89715000D01*
X176853000Y-89715000D02*
X176853000Y-89515000D01*
X177603000Y-91440000D02*
X177603000Y-93165000D01*
X175203000Y-89715000D02*
X175203000Y-91440000D01*
X178403000Y-93965000D02*
X177403000Y-93965000D01*
X178113000Y-93675000D02*
X178113000Y-89205000D01*
X176053000Y-93165000D02*
X175203000Y-93165000D01*
X176853000Y-93365000D02*
X176053000Y-93365000D01*
X174693000Y-89205000D02*
X174693000Y-93675000D01*
X178403000Y-93965000D02*
X178403000Y-92965000D01*
X176853000Y-89515000D02*
X176053000Y-89515000D01*
X174693000Y-93675000D02*
X178113000Y-93675000D01*
X178113000Y-89205000D02*
X174693000Y-89205000D01*
%TO.C,J57*%
X191738000Y-93965000D02*
X191738000Y-92965000D01*
X190938000Y-89715000D02*
X190188000Y-89715000D01*
X188538000Y-89715000D02*
X188538000Y-91440000D01*
X190938000Y-91440000D02*
X190938000Y-93165000D01*
X188028000Y-89205000D02*
X188028000Y-93675000D01*
X188028000Y-93675000D02*
X191448000Y-93675000D01*
X189388000Y-89515000D02*
X189388000Y-89715000D01*
X190188000Y-93365000D02*
X189388000Y-93365000D01*
X189388000Y-89715000D02*
X188538000Y-89715000D01*
X190188000Y-89715000D02*
X190188000Y-89515000D01*
X191448000Y-93675000D02*
X191448000Y-89205000D01*
X190188000Y-89515000D02*
X189388000Y-89515000D01*
X191738000Y-93965000D02*
X190738000Y-93965000D01*
X188538000Y-93165000D02*
X188538000Y-91440000D01*
X190188000Y-93165000D02*
X190188000Y-93365000D01*
X190938000Y-93165000D02*
X190188000Y-93165000D01*
X189388000Y-93365000D02*
X189388000Y-93165000D01*
X190938000Y-91440000D02*
X190938000Y-89715000D01*
X189388000Y-93165000D02*
X188538000Y-93165000D01*
X191448000Y-89205000D02*
X188028000Y-89205000D01*
%TD*%
M02*
