M48
; DRILL file {KiCad (6.0.10)} date Tue Feb 14 01:53:14 2023
; FORMAT={-:-/ absolute / inch / decimal}
; #@! TF.CreationDate,2023-02-14T01:53:14+09:00
; #@! TF.GenerationSoftware,Kicad,Pcbnew,(6.0.10)
; #@! TF.FileFunction,Plated,1,2,PTH
FMAT,2
INCH
; #@! TA.AperFunction,Plated,PTH,ComponentDrill
T1C0.0256
; #@! TA.AperFunction,Plated,PTH,ComponentDrill
T2C0.0315
%
G90
G05
T1
X5.66Y-1.704
X5.66Y-1.754
X5.66Y-1.804
X5.66Y-1.854
X5.66Y-1.904
X5.66Y-1.954
X5.66Y-2.004
X5.66Y-2.054
X5.66Y-2.104
X5.66Y-2.154
X5.66Y-2.204
X5.66Y-2.254
X5.66Y-2.304
X5.66Y-2.354
X5.66Y-2.404
X5.66Y-2.454
X5.66Y-2.504
X5.66Y-2.554
X5.66Y-2.604
X5.66Y-2.654
X5.66Y-2.704
X5.66Y-2.754
T2
X5.502Y-1.68
X5.502Y-1.7587
X5.502Y-1.8375
X5.502Y-1.9162
X5.502Y-1.995
X5.502Y-2.0737
X5.502Y-2.1524
X5.502Y-2.2312
X5.502Y-2.3099
X5.502Y-2.3887
X5.502Y-2.4674
X5.502Y-2.5461
X5.502Y-2.6249
X5.502Y-2.7036
X5.502Y-2.7824
X5.5807Y-1.68
X5.5807Y-1.7587
X5.5807Y-1.8375
X5.5807Y-1.9162
X5.5807Y-1.995
X5.5807Y-2.0737
X5.5807Y-2.1524
X5.5807Y-2.2312
X5.5807Y-2.3099
X5.5807Y-2.3887
X5.5807Y-2.4674
X5.5807Y-2.5461
X5.5807Y-2.6249
X5.5807Y-2.7036
X5.5807Y-2.7824
T0
M30
