%TF.GenerationSoftware,KiCad,Pcbnew,(6.0.10)*%
%TF.CreationDate,2023-02-14T01:53:20+09:00*%
%TF.ProjectId,lvds-connect,6c766473-2d63-46f6-9e6e-6563742e6b69,rev?*%
%TF.SameCoordinates,Original*%
%TF.FileFunction,Soldermask,Top*%
%TF.FilePolarity,Negative*%
%FSLAX46Y46*%
G04 Gerber Fmt 4.6, Leading zero omitted, Abs format (unit mm)*
G04 Created by KiCad (PCBNEW (6.0.10)) date 2023-02-14 01:53:20*
%MOMM*%
%LPD*%
G01*
G04 APERTURE LIST*
%ADD10R,1.000000X1.000000*%
%ADD11O,1.000000X1.000000*%
%ADD12R,1.350000X1.350000*%
%ADD13O,1.350000X1.350000*%
G04 APERTURE END LIST*
D10*
%TO.C,J2*%
X143764000Y-43281600D03*
D11*
X143764000Y-44551600D03*
X143764000Y-45821600D03*
X143764000Y-47091600D03*
X143764000Y-48361600D03*
X143764000Y-49631600D03*
X143764000Y-50901600D03*
X143764000Y-52171600D03*
X143764000Y-53441600D03*
X143764000Y-54711600D03*
X143764000Y-55981600D03*
X143764000Y-57251600D03*
X143764000Y-58521600D03*
X143764000Y-59791600D03*
X143764000Y-61061600D03*
X143764000Y-62331600D03*
X143764000Y-63601600D03*
X143764000Y-64871600D03*
X143764000Y-66141600D03*
X143764000Y-67411600D03*
X143764000Y-68681600D03*
X143764000Y-69951600D03*
%TD*%
D12*
%TO.C,J1*%
X139750800Y-42672000D03*
D13*
X141750800Y-42672000D03*
X139750800Y-44672000D03*
X141750800Y-44672000D03*
X139750800Y-46672000D03*
X141750800Y-46672000D03*
X139750800Y-48672000D03*
X141750800Y-48672000D03*
X139750800Y-50672000D03*
X141750800Y-50672000D03*
X139750800Y-52672000D03*
X141750800Y-52672000D03*
X139750800Y-54672000D03*
X141750800Y-54672000D03*
X139750800Y-56672000D03*
X141750800Y-56672000D03*
X139750800Y-58672000D03*
X141750800Y-58672000D03*
X139750800Y-60672000D03*
X141750800Y-60672000D03*
X139750800Y-62672000D03*
X141750800Y-62672000D03*
X139750800Y-64672000D03*
X141750800Y-64672000D03*
X139750800Y-66672000D03*
X141750800Y-66672000D03*
X139750800Y-68672000D03*
X141750800Y-68672000D03*
X139750800Y-70672000D03*
X141750800Y-70672000D03*
%TD*%
M02*
