%TF.GenerationSoftware,KiCad,Pcbnew,(6.0.10)*%
%TF.CreationDate,2023-02-14T01:53:20+09:00*%
%TF.ProjectId,lvds-connect,6c766473-2d63-46f6-9e6e-6563742e6b69,rev?*%
%TF.SameCoordinates,Original*%
%TF.FileFunction,Legend,Top*%
%TF.FilePolarity,Positive*%
%FSLAX46Y46*%
G04 Gerber Fmt 4.6, Leading zero omitted, Abs format (unit mm)*
G04 Created by KiCad (PCBNEW (6.0.10)) date 2023-02-14 01:53:20*
%MOMM*%
%LPD*%
G01*
G04 APERTURE LIST*
%ADD10C,0.125000*%
%ADD11R,1.000000X1.000000*%
%ADD12O,1.000000X1.000000*%
%ADD13R,1.350000X1.350000*%
%ADD14O,1.350000X1.350000*%
G04 APERTURE END LIST*
D10*
X144538800Y-42854430D02*
X144738800Y-43644430D01*
X144938800Y-42854430D01*
X145481657Y-43569192D02*
X145453085Y-43606811D01*
X145367371Y-43644430D01*
X145310228Y-43644430D01*
X145224514Y-43606811D01*
X145167371Y-43531573D01*
X145138800Y-43456335D01*
X145110228Y-43305859D01*
X145110228Y-43193002D01*
X145138800Y-43042526D01*
X145167371Y-42967288D01*
X145224514Y-42892050D01*
X145310228Y-42854430D01*
X145367371Y-42854430D01*
X145453085Y-42892050D01*
X145481657Y-42929669D01*
X146081657Y-43569192D02*
X146053085Y-43606811D01*
X145967371Y-43644430D01*
X145910228Y-43644430D01*
X145824514Y-43606811D01*
X145767371Y-43531573D01*
X145738800Y-43456335D01*
X145710228Y-43305859D01*
X145710228Y-43193002D01*
X145738800Y-43042526D01*
X145767371Y-42967288D01*
X145824514Y-42892050D01*
X145910228Y-42854430D01*
X145967371Y-42854430D01*
X146053085Y-42892050D01*
X146081657Y-42929669D01*
X144881657Y-44163950D02*
X144824514Y-44126330D01*
X144738800Y-44126330D01*
X144653085Y-44163950D01*
X144595942Y-44239188D01*
X144567371Y-44314426D01*
X144538800Y-44464902D01*
X144538800Y-44577759D01*
X144567371Y-44728235D01*
X144595942Y-44803473D01*
X144653085Y-44878711D01*
X144738800Y-44916330D01*
X144795942Y-44916330D01*
X144881657Y-44878711D01*
X144910228Y-44841092D01*
X144910228Y-44577759D01*
X144795942Y-44577759D01*
X145167371Y-44916330D02*
X145167371Y-44126330D01*
X145510228Y-44916330D01*
X145510228Y-44126330D01*
X145795942Y-44916330D02*
X145795942Y-44126330D01*
X145938800Y-44126330D01*
X146024514Y-44163950D01*
X146081657Y-44239188D01*
X146110228Y-44314426D01*
X146138800Y-44464902D01*
X146138800Y-44577759D01*
X146110228Y-44728235D01*
X146081657Y-44803473D01*
X146024514Y-44878711D01*
X145938800Y-44916330D01*
X145795942Y-44916330D01*
X144538800Y-45962516D02*
X144824514Y-45962516D01*
X144481657Y-46188230D02*
X144681657Y-45398230D01*
X144881657Y-46188230D01*
X145195942Y-45398230D02*
X145253085Y-45398230D01*
X145310228Y-45435850D01*
X145338800Y-45473469D01*
X145367371Y-45548707D01*
X145395942Y-45699183D01*
X145395942Y-45887278D01*
X145367371Y-46037754D01*
X145338800Y-46112992D01*
X145310228Y-46150611D01*
X145253085Y-46188230D01*
X145195942Y-46188230D01*
X145138800Y-46150611D01*
X145110228Y-46112992D01*
X145081657Y-46037754D01*
X145053085Y-45887278D01*
X145053085Y-45699183D01*
X145081657Y-45548707D01*
X145110228Y-45473469D01*
X145138800Y-45435850D01*
X145195942Y-45398230D01*
X145653085Y-45887278D02*
X146110228Y-45887278D01*
X144538800Y-47234416D02*
X144824514Y-47234416D01*
X144481657Y-47460130D02*
X144681657Y-46670130D01*
X144881657Y-47460130D01*
X145195942Y-46670130D02*
X145253085Y-46670130D01*
X145310228Y-46707750D01*
X145338800Y-46745369D01*
X145367371Y-46820607D01*
X145395942Y-46971083D01*
X145395942Y-47159178D01*
X145367371Y-47309654D01*
X145338800Y-47384892D01*
X145310228Y-47422511D01*
X145253085Y-47460130D01*
X145195942Y-47460130D01*
X145138800Y-47422511D01*
X145110228Y-47384892D01*
X145081657Y-47309654D01*
X145053085Y-47159178D01*
X145053085Y-46971083D01*
X145081657Y-46820607D01*
X145110228Y-46745369D01*
X145138800Y-46707750D01*
X145195942Y-46670130D01*
X145653085Y-47159178D02*
X146110228Y-47159178D01*
X145881657Y-47460130D02*
X145881657Y-46858226D01*
X144538800Y-48506316D02*
X144824514Y-48506316D01*
X144481657Y-48732030D02*
X144681657Y-47942030D01*
X144881657Y-48732030D01*
X145395942Y-48732030D02*
X145053085Y-48732030D01*
X145224514Y-48732030D02*
X145224514Y-47942030D01*
X145167371Y-48054888D01*
X145110228Y-48130126D01*
X145053085Y-48167745D01*
X145653085Y-48431078D02*
X146110228Y-48431078D01*
X144538800Y-49778216D02*
X144824514Y-49778216D01*
X144481657Y-50003930D02*
X144681657Y-49213930D01*
X144881657Y-50003930D01*
X145395942Y-50003930D02*
X145053085Y-50003930D01*
X145224514Y-50003930D02*
X145224514Y-49213930D01*
X145167371Y-49326788D01*
X145110228Y-49402026D01*
X145053085Y-49439645D01*
X145653085Y-49702978D02*
X146110228Y-49702978D01*
X145881657Y-50003930D02*
X145881657Y-49402026D01*
X144538800Y-51050116D02*
X144824514Y-51050116D01*
X144481657Y-51275830D02*
X144681657Y-50485830D01*
X144881657Y-51275830D01*
X145053085Y-50561069D02*
X145081657Y-50523450D01*
X145138800Y-50485830D01*
X145281657Y-50485830D01*
X145338800Y-50523450D01*
X145367371Y-50561069D01*
X145395942Y-50636307D01*
X145395942Y-50711545D01*
X145367371Y-50824402D01*
X145024514Y-51275830D01*
X145395942Y-51275830D01*
X145653085Y-50974878D02*
X146110228Y-50974878D01*
X144538800Y-52322016D02*
X144824514Y-52322016D01*
X144481657Y-52547730D02*
X144681657Y-51757730D01*
X144881657Y-52547730D01*
X145053085Y-51832969D02*
X145081657Y-51795350D01*
X145138800Y-51757730D01*
X145281657Y-51757730D01*
X145338800Y-51795350D01*
X145367371Y-51832969D01*
X145395942Y-51908207D01*
X145395942Y-51983445D01*
X145367371Y-52096302D01*
X145024514Y-52547730D01*
X145395942Y-52547730D01*
X145653085Y-52246778D02*
X146110228Y-52246778D01*
X145881657Y-52547730D02*
X145881657Y-51945826D01*
X144524514Y-53593916D02*
X144810228Y-53593916D01*
X144467371Y-53819630D02*
X144667371Y-53029630D01*
X144867371Y-53819630D01*
X145410228Y-53744392D02*
X145381657Y-53782011D01*
X145295942Y-53819630D01*
X145238800Y-53819630D01*
X145153085Y-53782011D01*
X145095942Y-53706773D01*
X145067371Y-53631535D01*
X145038800Y-53481059D01*
X145038800Y-53368202D01*
X145067371Y-53217726D01*
X145095942Y-53142488D01*
X145153085Y-53067250D01*
X145238800Y-53029630D01*
X145295942Y-53029630D01*
X145381657Y-53067250D01*
X145410228Y-53104869D01*
X145667371Y-53518678D02*
X146124514Y-53518678D01*
X144524514Y-54865816D02*
X144810228Y-54865816D01*
X144467371Y-55091530D02*
X144667371Y-54301530D01*
X144867371Y-55091530D01*
X145410228Y-55016292D02*
X145381657Y-55053911D01*
X145295942Y-55091530D01*
X145238800Y-55091530D01*
X145153085Y-55053911D01*
X145095942Y-54978673D01*
X145067371Y-54903435D01*
X145038800Y-54752959D01*
X145038800Y-54640102D01*
X145067371Y-54489626D01*
X145095942Y-54414388D01*
X145153085Y-54339150D01*
X145238800Y-54301530D01*
X145295942Y-54301530D01*
X145381657Y-54339150D01*
X145410228Y-54376769D01*
X145667371Y-54790578D02*
X146124514Y-54790578D01*
X145895942Y-55091530D02*
X145895942Y-54489626D01*
X144538800Y-56137716D02*
X144824514Y-56137716D01*
X144481657Y-56363430D02*
X144681657Y-55573430D01*
X144881657Y-56363430D01*
X145024514Y-55573430D02*
X145395942Y-55573430D01*
X145195942Y-55874383D01*
X145281657Y-55874383D01*
X145338800Y-55912002D01*
X145367371Y-55949621D01*
X145395942Y-56024859D01*
X145395942Y-56212954D01*
X145367371Y-56288192D01*
X145338800Y-56325811D01*
X145281657Y-56363430D01*
X145110228Y-56363430D01*
X145053085Y-56325811D01*
X145024514Y-56288192D01*
X145653085Y-56062478D02*
X146110228Y-56062478D01*
X144538800Y-57409616D02*
X144824514Y-57409616D01*
X144481657Y-57635330D02*
X144681657Y-56845330D01*
X144881657Y-57635330D01*
X145024514Y-56845330D02*
X145395942Y-56845330D01*
X145195942Y-57146283D01*
X145281657Y-57146283D01*
X145338800Y-57183902D01*
X145367371Y-57221521D01*
X145395942Y-57296759D01*
X145395942Y-57484854D01*
X145367371Y-57560092D01*
X145338800Y-57597711D01*
X145281657Y-57635330D01*
X145110228Y-57635330D01*
X145053085Y-57597711D01*
X145024514Y-57560092D01*
X145653085Y-57334378D02*
X146110228Y-57334378D01*
X145881657Y-57635330D02*
X145881657Y-57033426D01*
X144724514Y-58493421D02*
X144810228Y-58531040D01*
X144838800Y-58568659D01*
X144867371Y-58643897D01*
X144867371Y-58756754D01*
X144838800Y-58831992D01*
X144810228Y-58869611D01*
X144753085Y-58907230D01*
X144524514Y-58907230D01*
X144524514Y-58117230D01*
X144724514Y-58117230D01*
X144781657Y-58154850D01*
X144810228Y-58192469D01*
X144838800Y-58267707D01*
X144838800Y-58342945D01*
X144810228Y-58418183D01*
X144781657Y-58455802D01*
X144724514Y-58493421D01*
X144524514Y-58493421D01*
X145238800Y-58117230D02*
X145295942Y-58117230D01*
X145353085Y-58154850D01*
X145381657Y-58192469D01*
X145410228Y-58267707D01*
X145438800Y-58418183D01*
X145438800Y-58606278D01*
X145410228Y-58756754D01*
X145381657Y-58831992D01*
X145353085Y-58869611D01*
X145295942Y-58907230D01*
X145238800Y-58907230D01*
X145181657Y-58869611D01*
X145153085Y-58831992D01*
X145124514Y-58756754D01*
X145095942Y-58606278D01*
X145095942Y-58418183D01*
X145124514Y-58267707D01*
X145153085Y-58192469D01*
X145181657Y-58154850D01*
X145238800Y-58117230D01*
X145695942Y-58606278D02*
X146153085Y-58606278D01*
X144724514Y-59765321D02*
X144810228Y-59802940D01*
X144838800Y-59840559D01*
X144867371Y-59915797D01*
X144867371Y-60028654D01*
X144838800Y-60103892D01*
X144810228Y-60141511D01*
X144753085Y-60179130D01*
X144524514Y-60179130D01*
X144524514Y-59389130D01*
X144724514Y-59389130D01*
X144781657Y-59426750D01*
X144810228Y-59464369D01*
X144838800Y-59539607D01*
X144838800Y-59614845D01*
X144810228Y-59690083D01*
X144781657Y-59727702D01*
X144724514Y-59765321D01*
X144524514Y-59765321D01*
X145238800Y-59389130D02*
X145295942Y-59389130D01*
X145353085Y-59426750D01*
X145381657Y-59464369D01*
X145410228Y-59539607D01*
X145438800Y-59690083D01*
X145438800Y-59878178D01*
X145410228Y-60028654D01*
X145381657Y-60103892D01*
X145353085Y-60141511D01*
X145295942Y-60179130D01*
X145238800Y-60179130D01*
X145181657Y-60141511D01*
X145153085Y-60103892D01*
X145124514Y-60028654D01*
X145095942Y-59878178D01*
X145095942Y-59690083D01*
X145124514Y-59539607D01*
X145153085Y-59464369D01*
X145181657Y-59426750D01*
X145238800Y-59389130D01*
X145695942Y-59878178D02*
X146153085Y-59878178D01*
X145924514Y-60179130D02*
X145924514Y-59577226D01*
X144724514Y-61037221D02*
X144810228Y-61074840D01*
X144838800Y-61112459D01*
X144867371Y-61187697D01*
X144867371Y-61300554D01*
X144838800Y-61375792D01*
X144810228Y-61413411D01*
X144753085Y-61451030D01*
X144524514Y-61451030D01*
X144524514Y-60661030D01*
X144724514Y-60661030D01*
X144781657Y-60698650D01*
X144810228Y-60736269D01*
X144838800Y-60811507D01*
X144838800Y-60886745D01*
X144810228Y-60961983D01*
X144781657Y-60999602D01*
X144724514Y-61037221D01*
X144524514Y-61037221D01*
X145438800Y-61451030D02*
X145095942Y-61451030D01*
X145267371Y-61451030D02*
X145267371Y-60661030D01*
X145210228Y-60773888D01*
X145153085Y-60849126D01*
X145095942Y-60886745D01*
X145695942Y-61150078D02*
X146153085Y-61150078D01*
X144724514Y-62309121D02*
X144810228Y-62346740D01*
X144838800Y-62384359D01*
X144867371Y-62459597D01*
X144867371Y-62572454D01*
X144838800Y-62647692D01*
X144810228Y-62685311D01*
X144753085Y-62722930D01*
X144524514Y-62722930D01*
X144524514Y-61932930D01*
X144724514Y-61932930D01*
X144781657Y-61970550D01*
X144810228Y-62008169D01*
X144838800Y-62083407D01*
X144838800Y-62158645D01*
X144810228Y-62233883D01*
X144781657Y-62271502D01*
X144724514Y-62309121D01*
X144524514Y-62309121D01*
X145438800Y-62722930D02*
X145095942Y-62722930D01*
X145267371Y-62722930D02*
X145267371Y-61932930D01*
X145210228Y-62045788D01*
X145153085Y-62121026D01*
X145095942Y-62158645D01*
X145695942Y-62421978D02*
X146153085Y-62421978D01*
X145924514Y-62722930D02*
X145924514Y-62121026D01*
X144724514Y-63581021D02*
X144810228Y-63618640D01*
X144838800Y-63656259D01*
X144867371Y-63731497D01*
X144867371Y-63844354D01*
X144838800Y-63919592D01*
X144810228Y-63957211D01*
X144753085Y-63994830D01*
X144524514Y-63994830D01*
X144524514Y-63204830D01*
X144724514Y-63204830D01*
X144781657Y-63242450D01*
X144810228Y-63280069D01*
X144838800Y-63355307D01*
X144838800Y-63430545D01*
X144810228Y-63505783D01*
X144781657Y-63543402D01*
X144724514Y-63581021D01*
X144524514Y-63581021D01*
X145095942Y-63280069D02*
X145124514Y-63242450D01*
X145181657Y-63204830D01*
X145324514Y-63204830D01*
X145381657Y-63242450D01*
X145410228Y-63280069D01*
X145438800Y-63355307D01*
X145438800Y-63430545D01*
X145410228Y-63543402D01*
X145067371Y-63994830D01*
X145438800Y-63994830D01*
X145695942Y-63693878D02*
X146153085Y-63693878D01*
X144724514Y-64852921D02*
X144810228Y-64890540D01*
X144838800Y-64928159D01*
X144867371Y-65003397D01*
X144867371Y-65116254D01*
X144838800Y-65191492D01*
X144810228Y-65229111D01*
X144753085Y-65266730D01*
X144524514Y-65266730D01*
X144524514Y-64476730D01*
X144724514Y-64476730D01*
X144781657Y-64514350D01*
X144810228Y-64551969D01*
X144838800Y-64627207D01*
X144838800Y-64702445D01*
X144810228Y-64777683D01*
X144781657Y-64815302D01*
X144724514Y-64852921D01*
X144524514Y-64852921D01*
X145095942Y-64551969D02*
X145124514Y-64514350D01*
X145181657Y-64476730D01*
X145324514Y-64476730D01*
X145381657Y-64514350D01*
X145410228Y-64551969D01*
X145438800Y-64627207D01*
X145438800Y-64702445D01*
X145410228Y-64815302D01*
X145067371Y-65266730D01*
X145438800Y-65266730D01*
X145695942Y-64965778D02*
X146153085Y-64965778D01*
X145924514Y-65266730D02*
X145924514Y-64664826D01*
X144710228Y-66124821D02*
X144795942Y-66162440D01*
X144824514Y-66200059D01*
X144853085Y-66275297D01*
X144853085Y-66388154D01*
X144824514Y-66463392D01*
X144795942Y-66501011D01*
X144738800Y-66538630D01*
X144510228Y-66538630D01*
X144510228Y-65748630D01*
X144710228Y-65748630D01*
X144767371Y-65786250D01*
X144795942Y-65823869D01*
X144824514Y-65899107D01*
X144824514Y-65974345D01*
X144795942Y-66049583D01*
X144767371Y-66087202D01*
X144710228Y-66124821D01*
X144510228Y-66124821D01*
X145453085Y-66463392D02*
X145424514Y-66501011D01*
X145338800Y-66538630D01*
X145281657Y-66538630D01*
X145195942Y-66501011D01*
X145138800Y-66425773D01*
X145110228Y-66350535D01*
X145081657Y-66200059D01*
X145081657Y-66087202D01*
X145110228Y-65936726D01*
X145138800Y-65861488D01*
X145195942Y-65786250D01*
X145281657Y-65748630D01*
X145338800Y-65748630D01*
X145424514Y-65786250D01*
X145453085Y-65823869D01*
X145710228Y-66237678D02*
X146167371Y-66237678D01*
X144710228Y-67396721D02*
X144795942Y-67434340D01*
X144824514Y-67471959D01*
X144853085Y-67547197D01*
X144853085Y-67660054D01*
X144824514Y-67735292D01*
X144795942Y-67772911D01*
X144738800Y-67810530D01*
X144510228Y-67810530D01*
X144510228Y-67020530D01*
X144710228Y-67020530D01*
X144767371Y-67058150D01*
X144795942Y-67095769D01*
X144824514Y-67171007D01*
X144824514Y-67246245D01*
X144795942Y-67321483D01*
X144767371Y-67359102D01*
X144710228Y-67396721D01*
X144510228Y-67396721D01*
X145453085Y-67735292D02*
X145424514Y-67772911D01*
X145338800Y-67810530D01*
X145281657Y-67810530D01*
X145195942Y-67772911D01*
X145138800Y-67697673D01*
X145110228Y-67622435D01*
X145081657Y-67471959D01*
X145081657Y-67359102D01*
X145110228Y-67208626D01*
X145138800Y-67133388D01*
X145195942Y-67058150D01*
X145281657Y-67020530D01*
X145338800Y-67020530D01*
X145424514Y-67058150D01*
X145453085Y-67095769D01*
X145710228Y-67509578D02*
X146167371Y-67509578D01*
X145938800Y-67810530D02*
X145938800Y-67208626D01*
X144724514Y-68668621D02*
X144810228Y-68706240D01*
X144838800Y-68743859D01*
X144867371Y-68819097D01*
X144867371Y-68931954D01*
X144838800Y-69007192D01*
X144810228Y-69044811D01*
X144753085Y-69082430D01*
X144524514Y-69082430D01*
X144524514Y-68292430D01*
X144724514Y-68292430D01*
X144781657Y-68330050D01*
X144810228Y-68367669D01*
X144838800Y-68442907D01*
X144838800Y-68518145D01*
X144810228Y-68593383D01*
X144781657Y-68631002D01*
X144724514Y-68668621D01*
X144524514Y-68668621D01*
X145067371Y-68292430D02*
X145438800Y-68292430D01*
X145238800Y-68593383D01*
X145324514Y-68593383D01*
X145381657Y-68631002D01*
X145410228Y-68668621D01*
X145438800Y-68743859D01*
X145438800Y-68931954D01*
X145410228Y-69007192D01*
X145381657Y-69044811D01*
X145324514Y-69082430D01*
X145153085Y-69082430D01*
X145095942Y-69044811D01*
X145067371Y-69007192D01*
X145695942Y-68781478D02*
X146153085Y-68781478D01*
X144724514Y-69940521D02*
X144810228Y-69978140D01*
X144838800Y-70015759D01*
X144867371Y-70090997D01*
X144867371Y-70203854D01*
X144838800Y-70279092D01*
X144810228Y-70316711D01*
X144753085Y-70354330D01*
X144524514Y-70354330D01*
X144524514Y-69564330D01*
X144724514Y-69564330D01*
X144781657Y-69601950D01*
X144810228Y-69639569D01*
X144838800Y-69714807D01*
X144838800Y-69790045D01*
X144810228Y-69865283D01*
X144781657Y-69902902D01*
X144724514Y-69940521D01*
X144524514Y-69940521D01*
X145067371Y-69564330D02*
X145438800Y-69564330D01*
X145238800Y-69865283D01*
X145324514Y-69865283D01*
X145381657Y-69902902D01*
X145410228Y-69940521D01*
X145438800Y-70015759D01*
X145438800Y-70203854D01*
X145410228Y-70279092D01*
X145381657Y-70316711D01*
X145324514Y-70354330D01*
X145153085Y-70354330D01*
X145095942Y-70316711D01*
X145067371Y-70279092D01*
X145695942Y-70053378D02*
X146153085Y-70053378D01*
X145924514Y-70354330D02*
X145924514Y-69752426D01*
%LPC*%
D11*
%TO.C,J2*%
X143764000Y-43281600D03*
D12*
X143764000Y-44551600D03*
X143764000Y-45821600D03*
X143764000Y-47091600D03*
X143764000Y-48361600D03*
X143764000Y-49631600D03*
X143764000Y-50901600D03*
X143764000Y-52171600D03*
X143764000Y-53441600D03*
X143764000Y-54711600D03*
X143764000Y-55981600D03*
X143764000Y-57251600D03*
X143764000Y-58521600D03*
X143764000Y-59791600D03*
X143764000Y-61061600D03*
X143764000Y-62331600D03*
X143764000Y-63601600D03*
X143764000Y-64871600D03*
X143764000Y-66141600D03*
X143764000Y-67411600D03*
X143764000Y-68681600D03*
X143764000Y-69951600D03*
%TD*%
D13*
%TO.C,J1*%
X139750800Y-42672000D03*
D14*
X141750800Y-42672000D03*
X139750800Y-44672000D03*
X141750800Y-44672000D03*
X139750800Y-46672000D03*
X141750800Y-46672000D03*
X139750800Y-48672000D03*
X141750800Y-48672000D03*
X139750800Y-50672000D03*
X141750800Y-50672000D03*
X139750800Y-52672000D03*
X141750800Y-52672000D03*
X139750800Y-54672000D03*
X141750800Y-54672000D03*
X139750800Y-56672000D03*
X141750800Y-56672000D03*
X139750800Y-58672000D03*
X141750800Y-58672000D03*
X139750800Y-60672000D03*
X141750800Y-60672000D03*
X139750800Y-62672000D03*
X141750800Y-62672000D03*
X139750800Y-64672000D03*
X141750800Y-64672000D03*
X139750800Y-66672000D03*
X141750800Y-66672000D03*
X139750800Y-68672000D03*
X141750800Y-68672000D03*
X139750800Y-70672000D03*
X141750800Y-70672000D03*
%TD*%
M02*
