M48
; DRILL file {KiCad (6.0.2)} date Sun Apr 17 17:53:06 2022
; FORMAT={-:-/ absolute / inch / decimal}
; #@! TF.CreationDate,2022-04-17T17:53:06+09:00
; #@! TF.GenerationSoftware,Kicad,Pcbnew,(6.0.2)
; #@! TF.FileFunction,Plated,1,2,PTH
FMAT,2
INCH
; #@! TA.AperFunction,Plated,PTH,ViaDrill
T1C0.0157
; #@! TA.AperFunction,Plated,PTH,ComponentDrill
T2C0.0315
; #@! TA.AperFunction,Plated,PTH,ComponentDrill
T3C0.0394
%
G90
G05
T1
X6.0Y-3.925
X6.03Y-3.96
X6.17Y-3.83
X6.4Y-3.875
X6.61Y-3.85
X6.665Y-3.85
X6.715Y-3.85
X6.885Y-3.485
X6.93Y-4.05
X6.93Y-4.1
X6.94Y-3.655
X6.97Y-3.485
T2
X6.08Y-3.575
X6.12Y-3.685
X6.12Y-3.985
X6.18Y-3.575
X6.22Y-3.685
X6.22Y-3.985
X6.28Y-3.575
X6.32Y-3.685
X6.32Y-3.985
X6.38Y-3.575
X6.42Y-3.685
X6.42Y-3.985
X6.48Y-3.575
X6.52Y-3.685
X6.52Y-3.985
X6.58Y-3.575
X6.62Y-3.685
X6.62Y-3.985
X6.6231Y-4.075
X6.68Y-3.575
X6.72Y-3.685
X6.72Y-3.985
X6.78Y-3.575
X6.82Y-3.685
X6.82Y-3.985
X6.82Y-4.075
X6.88Y-3.575
T3
X5.905Y-3.5498
X5.905Y-3.6498
X5.905Y-3.7498
X5.905Y-3.8498
X5.905Y-3.9498
X6.03Y-3.4
X6.13Y-3.4
X6.23Y-3.4
X6.33Y-3.4
X6.43Y-3.4
X6.53Y-3.4
X6.63Y-3.4
X6.73Y-3.4
X6.83Y-3.4
X6.93Y-3.4
X7.055Y-3.5498
X7.055Y-3.6498
X7.055Y-3.7498
X7.055Y-3.8498
X7.055Y-3.9498
T0
M30
