%TF.GenerationSoftware,KiCad,Pcbnew,(6.0.2)*%
%TF.CreationDate,2022-04-17T17:53:04+09:00*%
%TF.ProjectId,input-74hc165,696e7075-742d-4373-9468-633136352e6b,rev?*%
%TF.SameCoordinates,Original*%
%TF.FileFunction,Legend,Bot*%
%TF.FilePolarity,Positive*%
%FSLAX46Y46*%
G04 Gerber Fmt 4.6, Leading zero omitted, Abs format (unit mm)*
G04 Created by KiCad (PCBNEW (6.0.2)) date 2022-04-17 17:53:04*
%MOMM*%
%LPD*%
G01*
G04 APERTURE LIST*
%ADD10C,0.150000*%
%ADD11C,0.100000*%
G04 APERTURE END LIST*
D10*
X165956428Y-103671666D02*
X165480238Y-103671666D01*
X166051666Y-103957380D02*
X165718333Y-102957380D01*
X165385000Y-103957380D01*
X165051666Y-103957380D02*
X165051666Y-103290714D01*
X165051666Y-103385952D02*
X165004047Y-103338333D01*
X164908809Y-103290714D01*
X164765952Y-103290714D01*
X164670714Y-103338333D01*
X164623095Y-103433571D01*
X164623095Y-103957380D01*
X164623095Y-103433571D02*
X164575476Y-103338333D01*
X164480238Y-103290714D01*
X164337380Y-103290714D01*
X164242142Y-103338333D01*
X164194523Y-103433571D01*
X164194523Y-103957380D01*
X163575476Y-103957380D02*
X163670714Y-103909761D01*
X163718333Y-103862142D01*
X163765952Y-103766904D01*
X163765952Y-103481190D01*
X163718333Y-103385952D01*
X163670714Y-103338333D01*
X163575476Y-103290714D01*
X163432619Y-103290714D01*
X163337380Y-103338333D01*
X163289761Y-103385952D01*
X163242142Y-103481190D01*
X163242142Y-103766904D01*
X163289761Y-103862142D01*
X163337380Y-103909761D01*
X163432619Y-103957380D01*
X163575476Y-103957380D01*
X162861190Y-103909761D02*
X162765952Y-103957380D01*
X162575476Y-103957380D01*
X162480238Y-103909761D01*
X162432619Y-103814523D01*
X162432619Y-103766904D01*
X162480238Y-103671666D01*
X162575476Y-103624047D01*
X162718333Y-103624047D01*
X162813571Y-103576428D01*
X162861190Y-103481190D01*
X162861190Y-103433571D01*
X162813571Y-103338333D01*
X162718333Y-103290714D01*
X162575476Y-103290714D01*
X162480238Y-103338333D01*
X161242142Y-103957380D02*
X161242142Y-102957380D01*
X160765952Y-103290714D02*
X160765952Y-103957380D01*
X160765952Y-103385952D02*
X160718333Y-103338333D01*
X160623095Y-103290714D01*
X160480238Y-103290714D01*
X160385000Y-103338333D01*
X160337380Y-103433571D01*
X160337380Y-103957380D01*
X159861190Y-103290714D02*
X159861190Y-104290714D01*
X159861190Y-103338333D02*
X159765952Y-103290714D01*
X159575476Y-103290714D01*
X159480238Y-103338333D01*
X159432619Y-103385952D01*
X159385000Y-103481190D01*
X159385000Y-103766904D01*
X159432619Y-103862142D01*
X159480238Y-103909761D01*
X159575476Y-103957380D01*
X159765952Y-103957380D01*
X159861190Y-103909761D01*
X158527857Y-103290714D02*
X158527857Y-103957380D01*
X158956428Y-103290714D02*
X158956428Y-103814523D01*
X158908809Y-103909761D01*
X158813571Y-103957380D01*
X158670714Y-103957380D01*
X158575476Y-103909761D01*
X158527857Y-103862142D01*
X158194523Y-103290714D02*
X157813571Y-103290714D01*
X158051666Y-102957380D02*
X158051666Y-103814523D01*
X158004047Y-103909761D01*
X157908809Y-103957380D01*
X157813571Y-103957380D01*
X156385000Y-103433571D02*
X156242142Y-103481190D01*
X156194523Y-103528809D01*
X156146904Y-103624047D01*
X156146904Y-103766904D01*
X156194523Y-103862142D01*
X156242142Y-103909761D01*
X156337380Y-103957380D01*
X156718333Y-103957380D01*
X156718333Y-102957380D01*
X156385000Y-102957380D01*
X156289761Y-103005000D01*
X156242142Y-103052619D01*
X156194523Y-103147857D01*
X156194523Y-103243095D01*
X156242142Y-103338333D01*
X156289761Y-103385952D01*
X156385000Y-103433571D01*
X156718333Y-103433571D01*
X155575476Y-103957380D02*
X155670714Y-103909761D01*
X155718333Y-103862142D01*
X155765952Y-103766904D01*
X155765952Y-103481190D01*
X155718333Y-103385952D01*
X155670714Y-103338333D01*
X155575476Y-103290714D01*
X155432619Y-103290714D01*
X155337380Y-103338333D01*
X155289761Y-103385952D01*
X155242142Y-103481190D01*
X155242142Y-103766904D01*
X155289761Y-103862142D01*
X155337380Y-103909761D01*
X155432619Y-103957380D01*
X155575476Y-103957380D01*
X154385000Y-103957380D02*
X154385000Y-103433571D01*
X154432619Y-103338333D01*
X154527857Y-103290714D01*
X154718333Y-103290714D01*
X154813571Y-103338333D01*
X154385000Y-103909761D02*
X154480238Y-103957380D01*
X154718333Y-103957380D01*
X154813571Y-103909761D01*
X154861190Y-103814523D01*
X154861190Y-103719285D01*
X154813571Y-103624047D01*
X154718333Y-103576428D01*
X154480238Y-103576428D01*
X154385000Y-103528809D01*
X153908809Y-103957380D02*
X153908809Y-103290714D01*
X153908809Y-103481190D02*
X153861190Y-103385952D01*
X153813571Y-103338333D01*
X153718333Y-103290714D01*
X153623095Y-103290714D01*
X152861190Y-103957380D02*
X152861190Y-102957380D01*
X152861190Y-103909761D02*
X152956428Y-103957380D01*
X153146904Y-103957380D01*
X153242142Y-103909761D01*
X153289761Y-103862142D01*
X153337380Y-103766904D01*
X153337380Y-103481190D01*
X153289761Y-103385952D01*
X153242142Y-103338333D01*
X153146904Y-103290714D01*
X152956428Y-103290714D01*
X152861190Y-103338333D01*
D11*
X154054333Y-105091666D02*
X154287666Y-104758333D01*
X154454333Y-105091666D02*
X154454333Y-104391666D01*
X154187666Y-104391666D01*
X154121000Y-104425000D01*
X154087666Y-104458333D01*
X154054333Y-104525000D01*
X154054333Y-104625000D01*
X154087666Y-104691666D01*
X154121000Y-104725000D01*
X154187666Y-104758333D01*
X154454333Y-104758333D01*
X153487666Y-105058333D02*
X153554333Y-105091666D01*
X153687666Y-105091666D01*
X153754333Y-105058333D01*
X153787666Y-104991666D01*
X153787666Y-104725000D01*
X153754333Y-104658333D01*
X153687666Y-104625000D01*
X153554333Y-104625000D01*
X153487666Y-104658333D01*
X153454333Y-104725000D01*
X153454333Y-104791666D01*
X153787666Y-104858333D01*
X153221000Y-104625000D02*
X153054333Y-105091666D01*
X152887666Y-104625000D01*
X152621000Y-105025000D02*
X152587666Y-105058333D01*
X152621000Y-105091666D01*
X152654333Y-105058333D01*
X152621000Y-105025000D01*
X152621000Y-105091666D01*
X151921000Y-105091666D02*
X152321000Y-105091666D01*
X152121000Y-105091666D02*
X152121000Y-104391666D01*
X152187666Y-104491666D01*
X152254333Y-104558333D01*
X152321000Y-104591666D01*
M02*
