%TF.GenerationSoftware,KiCad,Pcbnew,(6.0.2)*%
%TF.CreationDate,2022-04-13T03:50:02+09:00*%
%TF.ProjectId,input-74hc165,696e7075-742d-4373-9468-633136352e6b,rev?*%
%TF.SameCoordinates,Original*%
%TF.FileFunction,Copper,L1,Top*%
%TF.FilePolarity,Positive*%
%FSLAX46Y46*%
G04 Gerber Fmt 4.6, Leading zero omitted, Abs format (unit mm)*
G04 Created by KiCad (PCBNEW (6.0.2)) date 2022-04-13 03:50:02*
%MOMM*%
%LPD*%
G01*
G04 APERTURE LIST*
%TA.AperFunction,ComponentPad*%
%ADD10O,1.700000X1.700000*%
%TD*%
%TA.AperFunction,ComponentPad*%
%ADD11R,1.700000X1.700000*%
%TD*%
%TA.AperFunction,ComponentPad*%
%ADD12R,1.600000X1.600000*%
%TD*%
%TA.AperFunction,ComponentPad*%
%ADD13O,1.600000X1.600000*%
%TD*%
%TA.AperFunction,ComponentPad*%
%ADD14C,1.600000*%
%TD*%
%TA.AperFunction,ViaPad*%
%ADD15C,0.800000*%
%TD*%
%TA.AperFunction,Conductor*%
%ADD16C,0.250000*%
%TD*%
%TA.AperFunction,Conductor*%
%ADD17C,0.500000*%
%TD*%
G04 APERTURE END LIST*
D10*
%TO.P,J1,10,Pin_10*%
%TO.N,GND*%
X153162000Y-86360000D03*
%TO.P,J1,9,Pin_9*%
%TO.N,/C_8*%
X155702000Y-86360000D03*
%TO.P,J1,8,Pin_8*%
%TO.N,/C_7*%
X158242000Y-86360000D03*
%TO.P,J1,7,Pin_7*%
%TO.N,/C_6*%
X160782000Y-86360000D03*
%TO.P,J1,6,Pin_6*%
%TO.N,/C_5*%
X163322000Y-86360000D03*
%TO.P,J1,5,Pin_5*%
%TO.N,/C_4*%
X165862000Y-86360000D03*
%TO.P,J1,4,Pin_4*%
%TO.N,/C_3*%
X168402000Y-86360000D03*
%TO.P,J1,3,Pin_3*%
%TO.N,/C_2*%
X170942000Y-86360000D03*
%TO.P,J1,2,Pin_2*%
%TO.N,/C_1*%
X173482000Y-86360000D03*
D11*
%TO.P,J1,1,Pin_1*%
%TO.N,GND*%
X176022000Y-86360000D03*
%TD*%
D10*
%TO.P,IN1,5,Pin_5*%
%TO.N,/D_IN*%
X150876000Y-90165000D03*
%TO.P,IN1,4,Pin_4*%
%TO.N,/CLK*%
X150876000Y-92705000D03*
%TO.P,IN1,3,Pin_3*%
%TO.N,/LOAD*%
X150876000Y-95245000D03*
%TO.P,IN1,2,Pin_2*%
%TO.N,GND*%
X150876000Y-97785000D03*
D11*
%TO.P,IN1,1,Pin_1*%
%TO.N,VCC*%
X150876000Y-100325000D03*
%TD*%
D12*
%TO.P,74HC165_1,1,~{PL}*%
%TO.N,/LOAD*%
X173228000Y-93599000D03*
D13*
%TO.P,74HC165_1,2,CP*%
%TO.N,/CLK*%
X170688000Y-93599000D03*
%TO.P,74HC165_1,3,D4*%
%TO.N,/C_4*%
X168148000Y-93599000D03*
%TO.P,74HC165_1,4,D5*%
%TO.N,/C_3*%
X165608000Y-93599000D03*
%TO.P,74HC165_1,5,D6*%
%TO.N,/C_2*%
X163068000Y-93599000D03*
%TO.P,74HC165_1,6,D7*%
%TO.N,/C_1*%
X160528000Y-93599000D03*
%TO.P,74HC165_1,7,~{Q7}*%
%TO.N,unconnected-(74HC165_1-Pad7)*%
X157988000Y-93599000D03*
%TO.P,74HC165_1,8,GND*%
%TO.N,GND*%
X155448000Y-93599000D03*
%TO.P,74HC165_1,9,Q7*%
%TO.N,/D_OUT*%
X155448000Y-101219000D03*
%TO.P,74HC165_1,10,DS*%
%TO.N,/D_IN*%
X157988000Y-101219000D03*
%TO.P,74HC165_1,11,D0*%
%TO.N,/C_8*%
X160528000Y-101219000D03*
%TO.P,74HC165_1,12,D1*%
%TO.N,/C_7*%
X163068000Y-101219000D03*
%TO.P,74HC165_1,13,D2*%
%TO.N,/C_6*%
X165608000Y-101219000D03*
%TO.P,74HC165_1,14,D3*%
%TO.N,/C_5*%
X168148000Y-101219000D03*
%TO.P,74HC165_1,15,~{CE}*%
%TO.N,GND*%
X170688000Y-101219000D03*
%TO.P,74HC165_1,16,VCC*%
%TO.N,VCC*%
X173228000Y-101219000D03*
%TD*%
D12*
%TO.P,RN1,1,common*%
%TO.N,VCC*%
X174752000Y-90805000D03*
D13*
%TO.P,RN1,2,R1*%
%TO.N,/C_1*%
X172212000Y-90805000D03*
%TO.P,RN1,3,R2*%
%TO.N,/C_2*%
X169672000Y-90805000D03*
%TO.P,RN1,4,R3*%
%TO.N,/C_3*%
X167132000Y-90805000D03*
%TO.P,RN1,5,R4*%
%TO.N,/C_4*%
X164592000Y-90805000D03*
%TO.P,RN1,6,R5*%
%TO.N,/C_5*%
X162052000Y-90805000D03*
%TO.P,RN1,7,R6*%
%TO.N,/C_6*%
X159512000Y-90805000D03*
%TO.P,RN1,8,R7*%
%TO.N,/C_7*%
X156972000Y-90805000D03*
%TO.P,RN1,9,R8*%
%TO.N,/C_8*%
X154432000Y-90805000D03*
%TD*%
D11*
%TO.P,OUT1,1,Pin_1*%
%TO.N,VCC*%
X178308000Y-100325000D03*
D10*
%TO.P,OUT1,2,Pin_2*%
%TO.N,GND*%
X178308000Y-97785000D03*
%TO.P,OUT1,3,Pin_3*%
%TO.N,/LOAD*%
X178308000Y-95245000D03*
%TO.P,OUT1,4,Pin_4*%
%TO.N,/CLK*%
X178308000Y-92705000D03*
%TO.P,OUT1,5,Pin_5*%
%TO.N,/D_OUT*%
X178308000Y-90165000D03*
%TD*%
D14*
%TO.P,C1,2*%
%TO.N,GND*%
X168228000Y-103505000D03*
%TO.P,C1,1*%
%TO.N,VCC*%
X173228000Y-103505000D03*
%TD*%
D15*
%TO.N,/LOAD*%
X175641000Y-93709503D03*
%TO.N,/CLK*%
X175641000Y-92710000D03*
%TD*%
D16*
%TO.N,/C_5*%
X162052000Y-87630000D02*
X162052000Y-90805000D01*
X163322000Y-86360000D02*
X162052000Y-87630000D01*
%TO.N,/C_4*%
X164592000Y-87630000D02*
X164592000Y-90805000D01*
X165862000Y-86360000D02*
X164592000Y-87630000D01*
%TO.N,/C_3*%
X168402000Y-86360000D02*
X167132000Y-87630000D01*
X167132000Y-87630000D02*
X167132000Y-90805000D01*
%TO.N,/C_2*%
X169672000Y-87630000D02*
X170942000Y-86360000D01*
X169672000Y-90805000D02*
X169672000Y-87630000D01*
%TO.N,/C_1*%
X172212000Y-87630000D02*
X173482000Y-86360000D01*
X172212000Y-90805000D02*
X172212000Y-87630000D01*
%TO.N,/C_6*%
X159512000Y-87630000D02*
X159512000Y-90805000D01*
X160782000Y-86360000D02*
X159512000Y-87630000D01*
%TO.N,/C_7*%
X158242000Y-86360000D02*
X156972000Y-87630000D01*
X156972000Y-87630000D02*
X156972000Y-90805000D01*
%TO.N,/C_8*%
X154432000Y-87630000D02*
X155702000Y-86360000D01*
X154432000Y-90805000D02*
X154432000Y-87630000D01*
%TO.N,/LOAD*%
X175530497Y-93599000D02*
X173228000Y-93599000D01*
X175641000Y-93709503D02*
X175530497Y-93599000D01*
%TO.N,/CLK*%
X172085000Y-92202000D02*
X170688000Y-93599000D01*
X175133000Y-92202000D02*
X172085000Y-92202000D01*
X175641000Y-92710000D02*
X175133000Y-92202000D01*
D17*
%TO.N,VCC*%
X176530000Y-91059000D02*
X176276000Y-90805000D01*
X176530000Y-98547000D02*
X176530000Y-91059000D01*
X178308000Y-100325000D02*
X176530000Y-98547000D01*
X176276000Y-90805000D02*
X174752000Y-90805000D01*
D16*
%TO.N,/CLK*%
X154691000Y-96520000D02*
X150876000Y-92705000D01*
X167767000Y-96520000D02*
X154691000Y-96520000D01*
X170688000Y-93599000D02*
X167767000Y-96520000D01*
%TO.N,/LOAD*%
X152786000Y-97155000D02*
X150876000Y-95245000D01*
X169672000Y-97155000D02*
X152786000Y-97155000D01*
X173228000Y-93599000D02*
X169672000Y-97155000D01*
D17*
%TO.N,VCC*%
X173228000Y-103505000D02*
X173228000Y-101219000D01*
X173228000Y-100076000D02*
X173736000Y-99568000D01*
X173228000Y-101219000D02*
X173228000Y-100076000D01*
X151633000Y-99568000D02*
X173736000Y-99568000D01*
X173736000Y-99568000D02*
X177551000Y-99568000D01*
X177551000Y-99568000D02*
X178308000Y-100325000D01*
X150876000Y-100325000D02*
X151633000Y-99568000D01*
%TD*%
%TA.AperFunction,Conductor*%
%TO.N,GND*%
G36*
X153358121Y-86126002D02*
G01*
X153404614Y-86179658D01*
X153416000Y-86232000D01*
X153416000Y-87678517D01*
X153420064Y-87692359D01*
X153433478Y-87694393D01*
X153440184Y-87693534D01*
X153450262Y-87691392D01*
X153636292Y-87635580D01*
X153707288Y-87635164D01*
X153767238Y-87673196D01*
X153797110Y-87737602D01*
X153798500Y-87756266D01*
X153798500Y-89585606D01*
X153778498Y-89653727D01*
X153744771Y-89688819D01*
X153592211Y-89795643D01*
X153592208Y-89795645D01*
X153587700Y-89798802D01*
X153425802Y-89960700D01*
X153294477Y-90148251D01*
X153292154Y-90153233D01*
X153292151Y-90153238D01*
X153219358Y-90309345D01*
X153197716Y-90355757D01*
X153196294Y-90361065D01*
X153196293Y-90361067D01*
X153139881Y-90571598D01*
X153138457Y-90576913D01*
X153118502Y-90805000D01*
X153138457Y-91033087D01*
X153139881Y-91038400D01*
X153139881Y-91038402D01*
X153193393Y-91238108D01*
X153197716Y-91254243D01*
X153200039Y-91259224D01*
X153200039Y-91259225D01*
X153292151Y-91456762D01*
X153292154Y-91456767D01*
X153294477Y-91461749D01*
X153425802Y-91649300D01*
X153587700Y-91811198D01*
X153592208Y-91814355D01*
X153592211Y-91814357D01*
X153639027Y-91847138D01*
X153775251Y-91942523D01*
X153780233Y-91944846D01*
X153780238Y-91944849D01*
X153977775Y-92036961D01*
X153982757Y-92039284D01*
X153988065Y-92040706D01*
X153988067Y-92040707D01*
X154198598Y-92097119D01*
X154198600Y-92097119D01*
X154203913Y-92098543D01*
X154432000Y-92118498D01*
X154660087Y-92098543D01*
X154665400Y-92097119D01*
X154665402Y-92097119D01*
X154875933Y-92040707D01*
X154875935Y-92040706D01*
X154881243Y-92039284D01*
X154886225Y-92036961D01*
X155083762Y-91944849D01*
X155083767Y-91944846D01*
X155088749Y-91942523D01*
X155224973Y-91847138D01*
X155271789Y-91814357D01*
X155271792Y-91814355D01*
X155276300Y-91811198D01*
X155438198Y-91649300D01*
X155569523Y-91461749D01*
X155571846Y-91456767D01*
X155571849Y-91456762D01*
X155587805Y-91422543D01*
X155634722Y-91369258D01*
X155702999Y-91349797D01*
X155770959Y-91370339D01*
X155816195Y-91422543D01*
X155832151Y-91456762D01*
X155832154Y-91456767D01*
X155834477Y-91461749D01*
X155965802Y-91649300D01*
X156127700Y-91811198D01*
X156132208Y-91814355D01*
X156132211Y-91814357D01*
X156179027Y-91847138D01*
X156315251Y-91942523D01*
X156320233Y-91944846D01*
X156320238Y-91944849D01*
X156517775Y-92036961D01*
X156522757Y-92039284D01*
X156528065Y-92040706D01*
X156528067Y-92040707D01*
X156738598Y-92097119D01*
X156738600Y-92097119D01*
X156743913Y-92098543D01*
X156972000Y-92118498D01*
X157200087Y-92098543D01*
X157205400Y-92097119D01*
X157205402Y-92097119D01*
X157415933Y-92040707D01*
X157415935Y-92040706D01*
X157421243Y-92039284D01*
X157426225Y-92036961D01*
X157623762Y-91944849D01*
X157623767Y-91944846D01*
X157628749Y-91942523D01*
X157764973Y-91847138D01*
X157811789Y-91814357D01*
X157811792Y-91814355D01*
X157816300Y-91811198D01*
X157978198Y-91649300D01*
X158109523Y-91461749D01*
X158111846Y-91456767D01*
X158111849Y-91456762D01*
X158127805Y-91422543D01*
X158174722Y-91369258D01*
X158242999Y-91349797D01*
X158310959Y-91370339D01*
X158356195Y-91422543D01*
X158372151Y-91456762D01*
X158372154Y-91456767D01*
X158374477Y-91461749D01*
X158505802Y-91649300D01*
X158667700Y-91811198D01*
X158672208Y-91814355D01*
X158672211Y-91814357D01*
X158719027Y-91847138D01*
X158855251Y-91942523D01*
X158860233Y-91944846D01*
X158860238Y-91944849D01*
X159057775Y-92036961D01*
X159062757Y-92039284D01*
X159068065Y-92040706D01*
X159068067Y-92040707D01*
X159278598Y-92097119D01*
X159278600Y-92097119D01*
X159283913Y-92098543D01*
X159512000Y-92118498D01*
X159740087Y-92098543D01*
X159745400Y-92097119D01*
X159745402Y-92097119D01*
X159955933Y-92040707D01*
X159955935Y-92040706D01*
X159961243Y-92039284D01*
X159966225Y-92036961D01*
X160163762Y-91944849D01*
X160163767Y-91944846D01*
X160168749Y-91942523D01*
X160304973Y-91847138D01*
X160351789Y-91814357D01*
X160351792Y-91814355D01*
X160356300Y-91811198D01*
X160518198Y-91649300D01*
X160649523Y-91461749D01*
X160651846Y-91456767D01*
X160651849Y-91456762D01*
X160667805Y-91422543D01*
X160714722Y-91369258D01*
X160782999Y-91349797D01*
X160850959Y-91370339D01*
X160896195Y-91422543D01*
X160912151Y-91456762D01*
X160912154Y-91456767D01*
X160914477Y-91461749D01*
X161045802Y-91649300D01*
X161207700Y-91811198D01*
X161212208Y-91814355D01*
X161212211Y-91814357D01*
X161259027Y-91847138D01*
X161395251Y-91942523D01*
X161400233Y-91944846D01*
X161400238Y-91944849D01*
X161597775Y-92036961D01*
X161602757Y-92039284D01*
X161608065Y-92040706D01*
X161608067Y-92040707D01*
X161818598Y-92097119D01*
X161818600Y-92097119D01*
X161823913Y-92098543D01*
X162052000Y-92118498D01*
X162280087Y-92098543D01*
X162285400Y-92097119D01*
X162285402Y-92097119D01*
X162495933Y-92040707D01*
X162495935Y-92040706D01*
X162501243Y-92039284D01*
X162506225Y-92036961D01*
X162703762Y-91944849D01*
X162703767Y-91944846D01*
X162708749Y-91942523D01*
X162844973Y-91847138D01*
X162891789Y-91814357D01*
X162891792Y-91814355D01*
X162896300Y-91811198D01*
X163058198Y-91649300D01*
X163189523Y-91461749D01*
X163191846Y-91456767D01*
X163191849Y-91456762D01*
X163207805Y-91422543D01*
X163254722Y-91369258D01*
X163322999Y-91349797D01*
X163390959Y-91370339D01*
X163436195Y-91422543D01*
X163452151Y-91456762D01*
X163452154Y-91456767D01*
X163454477Y-91461749D01*
X163585802Y-91649300D01*
X163747700Y-91811198D01*
X163752208Y-91814355D01*
X163752211Y-91814357D01*
X163799027Y-91847138D01*
X163935251Y-91942523D01*
X163940233Y-91944846D01*
X163940238Y-91944849D01*
X164137775Y-92036961D01*
X164142757Y-92039284D01*
X164148065Y-92040706D01*
X164148067Y-92040707D01*
X164358598Y-92097119D01*
X164358600Y-92097119D01*
X164363913Y-92098543D01*
X164592000Y-92118498D01*
X164820087Y-92098543D01*
X164825400Y-92097119D01*
X164825402Y-92097119D01*
X165035933Y-92040707D01*
X165035935Y-92040706D01*
X165041243Y-92039284D01*
X165046225Y-92036961D01*
X165243762Y-91944849D01*
X165243767Y-91944846D01*
X165248749Y-91942523D01*
X165384973Y-91847138D01*
X165431789Y-91814357D01*
X165431792Y-91814355D01*
X165436300Y-91811198D01*
X165598198Y-91649300D01*
X165729523Y-91461749D01*
X165731846Y-91456767D01*
X165731849Y-91456762D01*
X165747805Y-91422543D01*
X165794722Y-91369258D01*
X165862999Y-91349797D01*
X165930959Y-91370339D01*
X165976195Y-91422543D01*
X165992151Y-91456762D01*
X165992154Y-91456767D01*
X165994477Y-91461749D01*
X166125802Y-91649300D01*
X166287700Y-91811198D01*
X166292208Y-91814355D01*
X166292211Y-91814357D01*
X166339027Y-91847138D01*
X166475251Y-91942523D01*
X166480233Y-91944846D01*
X166480238Y-91944849D01*
X166677775Y-92036961D01*
X166682757Y-92039284D01*
X166688065Y-92040706D01*
X166688067Y-92040707D01*
X166898598Y-92097119D01*
X166898600Y-92097119D01*
X166903913Y-92098543D01*
X167132000Y-92118498D01*
X167360087Y-92098543D01*
X167365400Y-92097119D01*
X167365402Y-92097119D01*
X167575933Y-92040707D01*
X167575935Y-92040706D01*
X167581243Y-92039284D01*
X167586225Y-92036961D01*
X167783762Y-91944849D01*
X167783767Y-91944846D01*
X167788749Y-91942523D01*
X167924973Y-91847138D01*
X167971789Y-91814357D01*
X167971792Y-91814355D01*
X167976300Y-91811198D01*
X168138198Y-91649300D01*
X168269523Y-91461749D01*
X168271846Y-91456767D01*
X168271849Y-91456762D01*
X168287805Y-91422543D01*
X168334722Y-91369258D01*
X168402999Y-91349797D01*
X168470959Y-91370339D01*
X168516195Y-91422543D01*
X168532151Y-91456762D01*
X168532154Y-91456767D01*
X168534477Y-91461749D01*
X168665802Y-91649300D01*
X168827700Y-91811198D01*
X168832208Y-91814355D01*
X168832211Y-91814357D01*
X168879027Y-91847138D01*
X169015251Y-91942523D01*
X169020233Y-91944846D01*
X169020238Y-91944849D01*
X169217775Y-92036961D01*
X169222757Y-92039284D01*
X169228065Y-92040706D01*
X169228067Y-92040707D01*
X169438598Y-92097119D01*
X169438600Y-92097119D01*
X169443913Y-92098543D01*
X169672000Y-92118498D01*
X169900087Y-92098543D01*
X169905400Y-92097119D01*
X169905402Y-92097119D01*
X170115933Y-92040707D01*
X170115935Y-92040706D01*
X170121243Y-92039284D01*
X170126225Y-92036961D01*
X170323762Y-91944849D01*
X170323767Y-91944846D01*
X170328749Y-91942523D01*
X170464973Y-91847138D01*
X170511789Y-91814357D01*
X170511792Y-91814355D01*
X170516300Y-91811198D01*
X170678198Y-91649300D01*
X170809523Y-91461749D01*
X170811846Y-91456767D01*
X170811849Y-91456762D01*
X170827805Y-91422543D01*
X170874722Y-91369258D01*
X170942999Y-91349797D01*
X171010959Y-91370339D01*
X171056195Y-91422543D01*
X171072151Y-91456762D01*
X171072154Y-91456767D01*
X171074477Y-91461749D01*
X171205802Y-91649300D01*
X171367700Y-91811198D01*
X171372211Y-91814357D01*
X171376424Y-91817892D01*
X171375100Y-91819470D01*
X171413823Y-91867896D01*
X171421144Y-91938515D01*
X171386327Y-92004768D01*
X171101247Y-92289848D01*
X171038935Y-92323874D01*
X170979542Y-92322460D01*
X170916087Y-92305457D01*
X170688000Y-92285502D01*
X170459913Y-92305457D01*
X170454600Y-92306881D01*
X170454598Y-92306881D01*
X170244067Y-92363293D01*
X170244065Y-92363294D01*
X170238757Y-92364716D01*
X170233776Y-92367039D01*
X170233775Y-92367039D01*
X170036238Y-92459151D01*
X170036233Y-92459154D01*
X170031251Y-92461477D01*
X170001426Y-92482361D01*
X169848211Y-92589643D01*
X169848208Y-92589645D01*
X169843700Y-92592802D01*
X169681802Y-92754700D01*
X169550477Y-92942251D01*
X169548154Y-92947233D01*
X169548151Y-92947238D01*
X169532195Y-92981457D01*
X169485278Y-93034742D01*
X169417001Y-93054203D01*
X169349041Y-93033661D01*
X169303805Y-92981457D01*
X169287849Y-92947238D01*
X169287846Y-92947233D01*
X169285523Y-92942251D01*
X169154198Y-92754700D01*
X168992300Y-92592802D01*
X168987792Y-92589645D01*
X168987789Y-92589643D01*
X168834574Y-92482361D01*
X168804749Y-92461477D01*
X168799767Y-92459154D01*
X168799762Y-92459151D01*
X168602225Y-92367039D01*
X168602224Y-92367039D01*
X168597243Y-92364716D01*
X168591935Y-92363294D01*
X168591933Y-92363293D01*
X168381402Y-92306881D01*
X168381400Y-92306881D01*
X168376087Y-92305457D01*
X168148000Y-92285502D01*
X167919913Y-92305457D01*
X167914600Y-92306881D01*
X167914598Y-92306881D01*
X167704067Y-92363293D01*
X167704065Y-92363294D01*
X167698757Y-92364716D01*
X167693776Y-92367039D01*
X167693775Y-92367039D01*
X167496238Y-92459151D01*
X167496233Y-92459154D01*
X167491251Y-92461477D01*
X167461426Y-92482361D01*
X167308211Y-92589643D01*
X167308208Y-92589645D01*
X167303700Y-92592802D01*
X167141802Y-92754700D01*
X167010477Y-92942251D01*
X167008154Y-92947233D01*
X167008151Y-92947238D01*
X166992195Y-92981457D01*
X166945278Y-93034742D01*
X166877001Y-93054203D01*
X166809041Y-93033661D01*
X166763805Y-92981457D01*
X166747849Y-92947238D01*
X166747846Y-92947233D01*
X166745523Y-92942251D01*
X166614198Y-92754700D01*
X166452300Y-92592802D01*
X166447792Y-92589645D01*
X166447789Y-92589643D01*
X166294574Y-92482361D01*
X166264749Y-92461477D01*
X166259767Y-92459154D01*
X166259762Y-92459151D01*
X166062225Y-92367039D01*
X166062224Y-92367039D01*
X166057243Y-92364716D01*
X166051935Y-92363294D01*
X166051933Y-92363293D01*
X165841402Y-92306881D01*
X165841400Y-92306881D01*
X165836087Y-92305457D01*
X165608000Y-92285502D01*
X165379913Y-92305457D01*
X165374600Y-92306881D01*
X165374598Y-92306881D01*
X165164067Y-92363293D01*
X165164065Y-92363294D01*
X165158757Y-92364716D01*
X165153776Y-92367039D01*
X165153775Y-92367039D01*
X164956238Y-92459151D01*
X164956233Y-92459154D01*
X164951251Y-92461477D01*
X164921426Y-92482361D01*
X164768211Y-92589643D01*
X164768208Y-92589645D01*
X164763700Y-92592802D01*
X164601802Y-92754700D01*
X164470477Y-92942251D01*
X164468154Y-92947233D01*
X164468151Y-92947238D01*
X164452195Y-92981457D01*
X164405278Y-93034742D01*
X164337001Y-93054203D01*
X164269041Y-93033661D01*
X164223805Y-92981457D01*
X164207849Y-92947238D01*
X164207846Y-92947233D01*
X164205523Y-92942251D01*
X164074198Y-92754700D01*
X163912300Y-92592802D01*
X163907792Y-92589645D01*
X163907789Y-92589643D01*
X163754574Y-92482361D01*
X163724749Y-92461477D01*
X163719767Y-92459154D01*
X163719762Y-92459151D01*
X163522225Y-92367039D01*
X163522224Y-92367039D01*
X163517243Y-92364716D01*
X163511935Y-92363294D01*
X163511933Y-92363293D01*
X163301402Y-92306881D01*
X163301400Y-92306881D01*
X163296087Y-92305457D01*
X163068000Y-92285502D01*
X162839913Y-92305457D01*
X162834600Y-92306881D01*
X162834598Y-92306881D01*
X162624067Y-92363293D01*
X162624065Y-92363294D01*
X162618757Y-92364716D01*
X162613776Y-92367039D01*
X162613775Y-92367039D01*
X162416238Y-92459151D01*
X162416233Y-92459154D01*
X162411251Y-92461477D01*
X162381426Y-92482361D01*
X162228211Y-92589643D01*
X162228208Y-92589645D01*
X162223700Y-92592802D01*
X162061802Y-92754700D01*
X161930477Y-92942251D01*
X161928154Y-92947233D01*
X161928151Y-92947238D01*
X161912195Y-92981457D01*
X161865278Y-93034742D01*
X161797001Y-93054203D01*
X161729041Y-93033661D01*
X161683805Y-92981457D01*
X161667849Y-92947238D01*
X161667846Y-92947233D01*
X161665523Y-92942251D01*
X161534198Y-92754700D01*
X161372300Y-92592802D01*
X161367792Y-92589645D01*
X161367789Y-92589643D01*
X161214574Y-92482361D01*
X161184749Y-92461477D01*
X161179767Y-92459154D01*
X161179762Y-92459151D01*
X160982225Y-92367039D01*
X160982224Y-92367039D01*
X160977243Y-92364716D01*
X160971935Y-92363294D01*
X160971933Y-92363293D01*
X160761402Y-92306881D01*
X160761400Y-92306881D01*
X160756087Y-92305457D01*
X160528000Y-92285502D01*
X160299913Y-92305457D01*
X160294600Y-92306881D01*
X160294598Y-92306881D01*
X160084067Y-92363293D01*
X160084065Y-92363294D01*
X160078757Y-92364716D01*
X160073776Y-92367039D01*
X160073775Y-92367039D01*
X159876238Y-92459151D01*
X159876233Y-92459154D01*
X159871251Y-92461477D01*
X159841426Y-92482361D01*
X159688211Y-92589643D01*
X159688208Y-92589645D01*
X159683700Y-92592802D01*
X159521802Y-92754700D01*
X159390477Y-92942251D01*
X159388154Y-92947233D01*
X159388151Y-92947238D01*
X159372195Y-92981457D01*
X159325278Y-93034742D01*
X159257001Y-93054203D01*
X159189041Y-93033661D01*
X159143805Y-92981457D01*
X159127849Y-92947238D01*
X159127846Y-92947233D01*
X159125523Y-92942251D01*
X158994198Y-92754700D01*
X158832300Y-92592802D01*
X158827792Y-92589645D01*
X158827789Y-92589643D01*
X158674574Y-92482361D01*
X158644749Y-92461477D01*
X158639767Y-92459154D01*
X158639762Y-92459151D01*
X158442225Y-92367039D01*
X158442224Y-92367039D01*
X158437243Y-92364716D01*
X158431935Y-92363294D01*
X158431933Y-92363293D01*
X158221402Y-92306881D01*
X158221400Y-92306881D01*
X158216087Y-92305457D01*
X157988000Y-92285502D01*
X157759913Y-92305457D01*
X157754600Y-92306881D01*
X157754598Y-92306881D01*
X157544067Y-92363293D01*
X157544065Y-92363294D01*
X157538757Y-92364716D01*
X157533776Y-92367039D01*
X157533775Y-92367039D01*
X157336238Y-92459151D01*
X157336233Y-92459154D01*
X157331251Y-92461477D01*
X157301426Y-92482361D01*
X157148211Y-92589643D01*
X157148208Y-92589645D01*
X157143700Y-92592802D01*
X156981802Y-92754700D01*
X156850477Y-92942251D01*
X156848154Y-92947233D01*
X156848151Y-92947238D01*
X156831919Y-92982049D01*
X156785002Y-93035334D01*
X156716725Y-93054795D01*
X156648765Y-93034253D01*
X156603529Y-92982049D01*
X156587414Y-92947489D01*
X156581931Y-92937993D01*
X156456972Y-92759533D01*
X156449916Y-92751125D01*
X156295875Y-92597084D01*
X156287467Y-92590028D01*
X156109007Y-92465069D01*
X156099511Y-92459586D01*
X155902053Y-92367510D01*
X155891761Y-92363764D01*
X155719497Y-92317606D01*
X155705401Y-92317942D01*
X155702000Y-92325884D01*
X155702000Y-94866967D01*
X155705973Y-94880498D01*
X155714522Y-94881727D01*
X155891761Y-94834236D01*
X155902053Y-94830490D01*
X156099511Y-94738414D01*
X156109007Y-94732931D01*
X156287467Y-94607972D01*
X156295875Y-94600916D01*
X156449916Y-94446875D01*
X156456972Y-94438467D01*
X156581931Y-94260007D01*
X156587414Y-94250511D01*
X156603529Y-94215951D01*
X156650446Y-94162666D01*
X156718723Y-94143205D01*
X156786683Y-94163747D01*
X156831919Y-94215951D01*
X156848151Y-94250762D01*
X156848154Y-94250767D01*
X156850477Y-94255749D01*
X156913262Y-94345415D01*
X156963819Y-94417617D01*
X156981802Y-94443300D01*
X157143700Y-94605198D01*
X157148208Y-94608355D01*
X157148211Y-94608357D01*
X157151359Y-94610561D01*
X157331251Y-94736523D01*
X157336233Y-94738846D01*
X157336238Y-94738849D01*
X157532765Y-94830490D01*
X157538757Y-94833284D01*
X157544065Y-94834706D01*
X157544067Y-94834707D01*
X157754598Y-94891119D01*
X157754600Y-94891119D01*
X157759913Y-94892543D01*
X157988000Y-94912498D01*
X158216087Y-94892543D01*
X158221400Y-94891119D01*
X158221402Y-94891119D01*
X158431933Y-94834707D01*
X158431935Y-94834706D01*
X158437243Y-94833284D01*
X158443235Y-94830490D01*
X158639762Y-94738849D01*
X158639767Y-94738846D01*
X158644749Y-94736523D01*
X158824641Y-94610561D01*
X158827789Y-94608357D01*
X158827792Y-94608355D01*
X158832300Y-94605198D01*
X158994198Y-94443300D01*
X159012182Y-94417617D01*
X159062738Y-94345415D01*
X159125523Y-94255749D01*
X159127846Y-94250767D01*
X159127849Y-94250762D01*
X159143805Y-94216543D01*
X159190722Y-94163258D01*
X159258999Y-94143797D01*
X159326959Y-94164339D01*
X159372195Y-94216543D01*
X159388151Y-94250762D01*
X159388154Y-94250767D01*
X159390477Y-94255749D01*
X159453262Y-94345415D01*
X159503819Y-94417617D01*
X159521802Y-94443300D01*
X159683700Y-94605198D01*
X159688208Y-94608355D01*
X159688211Y-94608357D01*
X159691359Y-94610561D01*
X159871251Y-94736523D01*
X159876233Y-94738846D01*
X159876238Y-94738849D01*
X160072765Y-94830490D01*
X160078757Y-94833284D01*
X160084065Y-94834706D01*
X160084067Y-94834707D01*
X160294598Y-94891119D01*
X160294600Y-94891119D01*
X160299913Y-94892543D01*
X160528000Y-94912498D01*
X160756087Y-94892543D01*
X160761400Y-94891119D01*
X160761402Y-94891119D01*
X160971933Y-94834707D01*
X160971935Y-94834706D01*
X160977243Y-94833284D01*
X160983235Y-94830490D01*
X161179762Y-94738849D01*
X161179767Y-94738846D01*
X161184749Y-94736523D01*
X161364641Y-94610561D01*
X161367789Y-94608357D01*
X161367792Y-94608355D01*
X161372300Y-94605198D01*
X161534198Y-94443300D01*
X161552182Y-94417617D01*
X161602738Y-94345415D01*
X161665523Y-94255749D01*
X161667846Y-94250767D01*
X161667849Y-94250762D01*
X161683805Y-94216543D01*
X161730722Y-94163258D01*
X161798999Y-94143797D01*
X161866959Y-94164339D01*
X161912195Y-94216543D01*
X161928151Y-94250762D01*
X161928154Y-94250767D01*
X161930477Y-94255749D01*
X161993262Y-94345415D01*
X162043819Y-94417617D01*
X162061802Y-94443300D01*
X162223700Y-94605198D01*
X162228208Y-94608355D01*
X162228211Y-94608357D01*
X162231359Y-94610561D01*
X162411251Y-94736523D01*
X162416233Y-94738846D01*
X162416238Y-94738849D01*
X162612765Y-94830490D01*
X162618757Y-94833284D01*
X162624065Y-94834706D01*
X162624067Y-94834707D01*
X162834598Y-94891119D01*
X162834600Y-94891119D01*
X162839913Y-94892543D01*
X163068000Y-94912498D01*
X163296087Y-94892543D01*
X163301400Y-94891119D01*
X163301402Y-94891119D01*
X163511933Y-94834707D01*
X163511935Y-94834706D01*
X163517243Y-94833284D01*
X163523235Y-94830490D01*
X163719762Y-94738849D01*
X163719767Y-94738846D01*
X163724749Y-94736523D01*
X163904641Y-94610561D01*
X163907789Y-94608357D01*
X163907792Y-94608355D01*
X163912300Y-94605198D01*
X164074198Y-94443300D01*
X164092182Y-94417617D01*
X164142738Y-94345415D01*
X164205523Y-94255749D01*
X164207846Y-94250767D01*
X164207849Y-94250762D01*
X164223805Y-94216543D01*
X164270722Y-94163258D01*
X164338999Y-94143797D01*
X164406959Y-94164339D01*
X164452195Y-94216543D01*
X164468151Y-94250762D01*
X164468154Y-94250767D01*
X164470477Y-94255749D01*
X164533262Y-94345415D01*
X164583819Y-94417617D01*
X164601802Y-94443300D01*
X164763700Y-94605198D01*
X164768208Y-94608355D01*
X164768211Y-94608357D01*
X164771359Y-94610561D01*
X164951251Y-94736523D01*
X164956233Y-94738846D01*
X164956238Y-94738849D01*
X165152765Y-94830490D01*
X165158757Y-94833284D01*
X165164065Y-94834706D01*
X165164067Y-94834707D01*
X165374598Y-94891119D01*
X165374600Y-94891119D01*
X165379913Y-94892543D01*
X165608000Y-94912498D01*
X165836087Y-94892543D01*
X165841400Y-94891119D01*
X165841402Y-94891119D01*
X166051933Y-94834707D01*
X166051935Y-94834706D01*
X166057243Y-94833284D01*
X166063235Y-94830490D01*
X166259762Y-94738849D01*
X166259767Y-94738846D01*
X166264749Y-94736523D01*
X166444641Y-94610561D01*
X166447789Y-94608357D01*
X166447792Y-94608355D01*
X166452300Y-94605198D01*
X166614198Y-94443300D01*
X166632182Y-94417617D01*
X166682738Y-94345415D01*
X166745523Y-94255749D01*
X166747846Y-94250767D01*
X166747849Y-94250762D01*
X166763805Y-94216543D01*
X166810722Y-94163258D01*
X166878999Y-94143797D01*
X166946959Y-94164339D01*
X166992195Y-94216543D01*
X167008151Y-94250762D01*
X167008154Y-94250767D01*
X167010477Y-94255749D01*
X167073262Y-94345415D01*
X167123819Y-94417617D01*
X167141802Y-94443300D01*
X167303700Y-94605198D01*
X167308208Y-94608355D01*
X167308211Y-94608357D01*
X167311359Y-94610561D01*
X167491251Y-94736523D01*
X167496233Y-94738846D01*
X167496238Y-94738849D01*
X167692765Y-94830490D01*
X167698757Y-94833284D01*
X167704065Y-94834706D01*
X167704067Y-94834707D01*
X167914598Y-94891119D01*
X167914600Y-94891119D01*
X167919913Y-94892543D01*
X168148000Y-94912498D01*
X168153475Y-94912019D01*
X168153485Y-94912019D01*
X168165428Y-94910974D01*
X168235033Y-94924962D01*
X168286026Y-94974361D01*
X168302217Y-95043486D01*
X168278465Y-95110392D01*
X168265506Y-95125589D01*
X167541500Y-95849595D01*
X167479188Y-95883621D01*
X167452405Y-95886500D01*
X155005594Y-95886500D01*
X154937473Y-95866498D01*
X154916499Y-95849595D01*
X152932427Y-93865522D01*
X154165273Y-93865522D01*
X154212764Y-94042761D01*
X154216510Y-94053053D01*
X154308586Y-94250511D01*
X154314069Y-94260007D01*
X154439028Y-94438467D01*
X154446084Y-94446875D01*
X154600125Y-94600916D01*
X154608533Y-94607972D01*
X154786993Y-94732931D01*
X154796489Y-94738414D01*
X154993947Y-94830490D01*
X155004239Y-94834236D01*
X155176503Y-94880394D01*
X155190599Y-94880058D01*
X155194000Y-94872116D01*
X155194000Y-93871115D01*
X155189525Y-93855876D01*
X155188135Y-93854671D01*
X155180452Y-93853000D01*
X154180033Y-93853000D01*
X154166502Y-93856973D01*
X154165273Y-93865522D01*
X152932427Y-93865522D01*
X152394408Y-93327503D01*
X154166606Y-93327503D01*
X154166942Y-93341599D01*
X154174884Y-93345000D01*
X155175885Y-93345000D01*
X155191124Y-93340525D01*
X155192329Y-93339135D01*
X155194000Y-93331452D01*
X155194000Y-92331033D01*
X155190027Y-92317502D01*
X155181478Y-92316273D01*
X155004239Y-92363764D01*
X154993947Y-92367510D01*
X154796489Y-92459586D01*
X154786993Y-92465069D01*
X154608533Y-92590028D01*
X154600125Y-92597084D01*
X154446084Y-92751125D01*
X154439028Y-92759533D01*
X154314069Y-92937993D01*
X154308586Y-92947489D01*
X154216510Y-93144947D01*
X154212764Y-93155239D01*
X154166606Y-93327503D01*
X152394408Y-93327503D01*
X152227218Y-93160313D01*
X152193192Y-93098001D01*
X152195755Y-93034589D01*
X152206865Y-92998022D01*
X152208370Y-92993069D01*
X152237529Y-92771590D01*
X152237824Y-92759533D01*
X152239074Y-92708365D01*
X152239074Y-92708361D01*
X152239156Y-92705000D01*
X152220852Y-92482361D01*
X152166431Y-92265702D01*
X152077354Y-92060840D01*
X151998769Y-91939366D01*
X151958822Y-91877617D01*
X151958820Y-91877614D01*
X151956014Y-91873277D01*
X151805670Y-91708051D01*
X151801619Y-91704852D01*
X151801615Y-91704848D01*
X151634414Y-91572800D01*
X151634410Y-91572798D01*
X151630359Y-91569598D01*
X151589053Y-91546796D01*
X151539084Y-91496364D01*
X151524312Y-91426921D01*
X151549428Y-91360516D01*
X151576780Y-91333909D01*
X151645907Y-91284601D01*
X151755860Y-91206173D01*
X151914096Y-91048489D01*
X151925164Y-91033087D01*
X152041435Y-90871277D01*
X152044453Y-90867077D01*
X152072428Y-90810475D01*
X152141136Y-90671453D01*
X152141137Y-90671451D01*
X152143430Y-90666811D01*
X152208370Y-90453069D01*
X152237529Y-90231590D01*
X152237641Y-90227004D01*
X152239074Y-90168365D01*
X152239074Y-90168361D01*
X152239156Y-90165000D01*
X152220852Y-89942361D01*
X152166431Y-89725702D01*
X152077354Y-89520840D01*
X151956014Y-89333277D01*
X151805670Y-89168051D01*
X151801619Y-89164852D01*
X151801615Y-89164848D01*
X151634414Y-89032800D01*
X151634410Y-89032798D01*
X151630359Y-89029598D01*
X151434789Y-88921638D01*
X151429920Y-88919914D01*
X151429916Y-88919912D01*
X151229087Y-88848795D01*
X151229083Y-88848794D01*
X151224212Y-88847069D01*
X151219119Y-88846162D01*
X151219116Y-88846161D01*
X151009373Y-88808800D01*
X151009367Y-88808799D01*
X151004284Y-88807894D01*
X150930452Y-88806992D01*
X150786081Y-88805228D01*
X150786079Y-88805228D01*
X150780911Y-88805165D01*
X150560091Y-88838955D01*
X150347756Y-88908357D01*
X150149607Y-89011507D01*
X150145474Y-89014610D01*
X150145471Y-89014612D01*
X150121247Y-89032800D01*
X149970965Y-89145635D01*
X149816629Y-89307138D01*
X149690743Y-89491680D01*
X149659136Y-89559771D01*
X149599235Y-89688819D01*
X149596688Y-89694305D01*
X149536989Y-89909570D01*
X149513251Y-90131695D01*
X149513548Y-90136848D01*
X149513548Y-90136851D01*
X149522043Y-90284182D01*
X149526110Y-90354715D01*
X149527247Y-90359761D01*
X149527248Y-90359767D01*
X149543482Y-90431801D01*
X149575222Y-90572639D01*
X149659266Y-90779616D01*
X149775987Y-90970088D01*
X149922250Y-91138938D01*
X150094126Y-91281632D01*
X150099207Y-91284601D01*
X150167445Y-91324476D01*
X150216169Y-91376114D01*
X150229240Y-91445897D01*
X150202509Y-91511669D01*
X150162055Y-91545027D01*
X150149607Y-91551507D01*
X150145474Y-91554610D01*
X150145471Y-91554612D01*
X150014168Y-91653197D01*
X149970965Y-91685635D01*
X149816629Y-91847138D01*
X149813715Y-91851410D01*
X149813714Y-91851411D01*
X149754296Y-91938515D01*
X149690743Y-92031680D01*
X149596688Y-92234305D01*
X149536989Y-92449570D01*
X149513251Y-92671695D01*
X149513548Y-92676848D01*
X149513548Y-92676851D01*
X149519011Y-92771590D01*
X149526110Y-92894715D01*
X149527247Y-92899761D01*
X149527248Y-92899767D01*
X149538003Y-92947489D01*
X149575222Y-93112639D01*
X149659266Y-93319616D01*
X149775987Y-93510088D01*
X149922250Y-93678938D01*
X150094126Y-93821632D01*
X150147806Y-93853000D01*
X150167445Y-93864476D01*
X150216169Y-93916114D01*
X150229240Y-93985897D01*
X150202509Y-94051669D01*
X150162055Y-94085027D01*
X150149607Y-94091507D01*
X150145474Y-94094610D01*
X150145471Y-94094612D01*
X149983074Y-94216543D01*
X149970965Y-94225635D01*
X149816629Y-94387138D01*
X149813715Y-94391410D01*
X149813714Y-94391411D01*
X149773385Y-94450531D01*
X149690743Y-94571680D01*
X149675185Y-94605198D01*
X149602279Y-94762261D01*
X149596688Y-94774305D01*
X149536989Y-94989570D01*
X149513251Y-95211695D01*
X149513548Y-95216848D01*
X149513548Y-95216851D01*
X149519011Y-95311590D01*
X149526110Y-95434715D01*
X149527247Y-95439761D01*
X149527248Y-95439767D01*
X149547119Y-95527939D01*
X149575222Y-95652639D01*
X149659266Y-95859616D01*
X149775987Y-96050088D01*
X149922250Y-96218938D01*
X150094126Y-96361632D01*
X150167955Y-96404774D01*
X150216679Y-96456412D01*
X150229750Y-96526195D01*
X150203019Y-96591967D01*
X150162562Y-96625327D01*
X150154457Y-96629546D01*
X150145738Y-96635036D01*
X149975433Y-96762905D01*
X149967726Y-96769748D01*
X149820590Y-96923717D01*
X149814104Y-96931727D01*
X149694098Y-97107649D01*
X149689000Y-97116623D01*
X149599338Y-97309783D01*
X149595775Y-97319470D01*
X149540389Y-97519183D01*
X149541912Y-97527607D01*
X149554292Y-97531000D01*
X152211082Y-97531000D01*
X152279203Y-97551002D01*
X152297334Y-97565149D01*
X152343650Y-97608642D01*
X152346493Y-97611398D01*
X152366230Y-97631135D01*
X152369427Y-97633615D01*
X152378447Y-97641318D01*
X152410679Y-97671586D01*
X152417625Y-97675405D01*
X152417628Y-97675407D01*
X152428434Y-97681348D01*
X152444953Y-97692199D01*
X152460959Y-97704614D01*
X152468228Y-97707759D01*
X152468232Y-97707762D01*
X152501537Y-97722174D01*
X152512187Y-97727391D01*
X152550940Y-97748695D01*
X152558615Y-97750666D01*
X152558616Y-97750666D01*
X152570562Y-97753733D01*
X152589267Y-97760137D01*
X152607855Y-97768181D01*
X152615678Y-97769420D01*
X152615688Y-97769423D01*
X152651524Y-97775099D01*
X152663144Y-97777505D01*
X152694959Y-97785673D01*
X152705970Y-97788500D01*
X152726224Y-97788500D01*
X152745934Y-97790051D01*
X152765943Y-97793220D01*
X152773835Y-97792474D01*
X152792580Y-97790702D01*
X152809962Y-97789059D01*
X152821819Y-97788500D01*
X169593233Y-97788500D01*
X169604416Y-97789027D01*
X169611909Y-97790702D01*
X169619835Y-97790453D01*
X169619836Y-97790453D01*
X169679986Y-97788562D01*
X169683945Y-97788500D01*
X169711856Y-97788500D01*
X169715791Y-97788003D01*
X169715856Y-97787995D01*
X169727693Y-97787062D01*
X169759951Y-97786048D01*
X169763970Y-97785922D01*
X169771889Y-97785673D01*
X169791343Y-97780021D01*
X169810700Y-97776013D01*
X169822930Y-97774468D01*
X169822931Y-97774468D01*
X169830797Y-97773474D01*
X169838168Y-97770555D01*
X169838170Y-97770555D01*
X169871912Y-97757196D01*
X169883142Y-97753351D01*
X169917983Y-97743229D01*
X169917984Y-97743229D01*
X169925593Y-97741018D01*
X169932412Y-97736985D01*
X169932417Y-97736983D01*
X169943028Y-97730707D01*
X169960776Y-97722012D01*
X169979617Y-97714552D01*
X170015387Y-97688564D01*
X170025307Y-97682048D01*
X170056535Y-97663580D01*
X170056538Y-97663578D01*
X170063362Y-97659542D01*
X170077683Y-97645221D01*
X170092717Y-97632380D01*
X170102694Y-97625131D01*
X170109107Y-97620472D01*
X170137298Y-97586395D01*
X170145288Y-97577616D01*
X172778499Y-94944405D01*
X172840811Y-94910379D01*
X172867594Y-94907500D01*
X174076134Y-94907500D01*
X174138316Y-94900745D01*
X174274705Y-94849615D01*
X174391261Y-94762261D01*
X174478615Y-94645705D01*
X174529745Y-94509316D01*
X174536500Y-94447134D01*
X174536500Y-94358500D01*
X174556502Y-94290379D01*
X174610158Y-94243886D01*
X174662500Y-94232500D01*
X174833304Y-94232500D01*
X174901425Y-94252502D01*
X174926939Y-94274190D01*
X175029747Y-94388369D01*
X175184248Y-94500621D01*
X175190276Y-94503305D01*
X175190278Y-94503306D01*
X175334239Y-94567401D01*
X175358712Y-94578297D01*
X175444312Y-94596492D01*
X175539056Y-94616631D01*
X175539061Y-94616631D01*
X175545513Y-94618003D01*
X175645500Y-94618003D01*
X175713621Y-94638005D01*
X175760114Y-94691661D01*
X175771500Y-94744003D01*
X175771500Y-98479930D01*
X175770067Y-98498880D01*
X175766801Y-98520349D01*
X175767394Y-98527641D01*
X175767394Y-98527644D01*
X175771085Y-98573018D01*
X175771500Y-98583233D01*
X175771500Y-98591293D01*
X175771925Y-98594937D01*
X175774789Y-98619507D01*
X175775222Y-98623878D01*
X175779241Y-98673285D01*
X175764828Y-98742802D01*
X175715119Y-98793492D01*
X175653656Y-98809500D01*
X173803063Y-98809500D01*
X173784114Y-98808067D01*
X173783907Y-98808036D01*
X173762651Y-98804802D01*
X173755359Y-98805395D01*
X173755356Y-98805395D01*
X173709991Y-98809085D01*
X173699777Y-98809500D01*
X152057848Y-98809500D01*
X151989727Y-98789498D01*
X151943234Y-98735842D01*
X151933130Y-98665568D01*
X151955526Y-98609974D01*
X152041003Y-98491020D01*
X152046313Y-98482183D01*
X152140670Y-98291267D01*
X152144469Y-98281672D01*
X152206377Y-98077910D01*
X152208555Y-98067837D01*
X152209986Y-98056962D01*
X152207775Y-98042778D01*
X152194617Y-98039000D01*
X149559225Y-98039000D01*
X149545694Y-98042973D01*
X149544257Y-98052966D01*
X149574565Y-98187446D01*
X149577645Y-98197275D01*
X149657770Y-98394603D01*
X149662413Y-98403794D01*
X149773694Y-98585388D01*
X149779777Y-98593699D01*
X149919213Y-98754667D01*
X149926577Y-98761879D01*
X149931522Y-98765985D01*
X149971156Y-98824889D01*
X149972653Y-98895870D01*
X149935537Y-98956392D01*
X149895264Y-98980910D01*
X149787705Y-99021232D01*
X149787704Y-99021233D01*
X149779295Y-99024385D01*
X149662739Y-99111739D01*
X149575385Y-99228295D01*
X149524255Y-99364684D01*
X149517500Y-99426866D01*
X149517500Y-101223134D01*
X149524255Y-101285316D01*
X149575385Y-101421705D01*
X149662739Y-101538261D01*
X149779295Y-101625615D01*
X149915684Y-101676745D01*
X149977866Y-101683500D01*
X151774134Y-101683500D01*
X151836316Y-101676745D01*
X151972705Y-101625615D01*
X152089261Y-101538261D01*
X152176615Y-101421705D01*
X152227745Y-101285316D01*
X152234500Y-101223134D01*
X152234500Y-100452500D01*
X152254502Y-100384379D01*
X152308158Y-100337886D01*
X152360500Y-100326500D01*
X154233508Y-100326500D01*
X154301629Y-100346502D01*
X154348122Y-100400158D01*
X154358226Y-100470432D01*
X154336721Y-100524771D01*
X154310477Y-100562251D01*
X154308154Y-100567233D01*
X154308151Y-100567238D01*
X154308034Y-100567489D01*
X154213716Y-100769757D01*
X154212294Y-100775065D01*
X154212293Y-100775067D01*
X154156041Y-100985002D01*
X154154457Y-100990913D01*
X154134502Y-101219000D01*
X154154457Y-101447087D01*
X154155881Y-101452400D01*
X154155881Y-101452402D01*
X154200851Y-101620229D01*
X154213716Y-101668243D01*
X154216039Y-101673224D01*
X154216039Y-101673225D01*
X154308151Y-101870762D01*
X154308154Y-101870767D01*
X154310477Y-101875749D01*
X154313634Y-101880257D01*
X154436548Y-102055796D01*
X154441802Y-102063300D01*
X154603700Y-102225198D01*
X154608208Y-102228355D01*
X154608211Y-102228357D01*
X154635769Y-102247653D01*
X154791251Y-102356523D01*
X154796233Y-102358846D01*
X154796238Y-102358849D01*
X154972958Y-102441254D01*
X154998757Y-102453284D01*
X155004065Y-102454706D01*
X155004067Y-102454707D01*
X155214598Y-102511119D01*
X155214600Y-102511119D01*
X155219913Y-102512543D01*
X155448000Y-102532498D01*
X155676087Y-102512543D01*
X155681400Y-102511119D01*
X155681402Y-102511119D01*
X155891933Y-102454707D01*
X155891935Y-102454706D01*
X155897243Y-102453284D01*
X155923042Y-102441254D01*
X156099762Y-102358849D01*
X156099767Y-102358846D01*
X156104749Y-102356523D01*
X156260231Y-102247653D01*
X156287789Y-102228357D01*
X156287792Y-102228355D01*
X156292300Y-102225198D01*
X156454198Y-102063300D01*
X156459453Y-102055796D01*
X156582366Y-101880257D01*
X156585523Y-101875749D01*
X156587846Y-101870767D01*
X156587849Y-101870762D01*
X156603805Y-101836543D01*
X156650722Y-101783258D01*
X156718999Y-101763797D01*
X156786959Y-101784339D01*
X156832195Y-101836543D01*
X156848151Y-101870762D01*
X156848154Y-101870767D01*
X156850477Y-101875749D01*
X156853634Y-101880257D01*
X156976548Y-102055796D01*
X156981802Y-102063300D01*
X157143700Y-102225198D01*
X157148208Y-102228355D01*
X157148211Y-102228357D01*
X157175769Y-102247653D01*
X157331251Y-102356523D01*
X157336233Y-102358846D01*
X157336238Y-102358849D01*
X157512958Y-102441254D01*
X157538757Y-102453284D01*
X157544065Y-102454706D01*
X157544067Y-102454707D01*
X157754598Y-102511119D01*
X157754600Y-102511119D01*
X157759913Y-102512543D01*
X157988000Y-102532498D01*
X158216087Y-102512543D01*
X158221400Y-102511119D01*
X158221402Y-102511119D01*
X158431933Y-102454707D01*
X158431935Y-102454706D01*
X158437243Y-102453284D01*
X158463042Y-102441254D01*
X158639762Y-102358849D01*
X158639767Y-102358846D01*
X158644749Y-102356523D01*
X158800231Y-102247653D01*
X158827789Y-102228357D01*
X158827792Y-102228355D01*
X158832300Y-102225198D01*
X158994198Y-102063300D01*
X158999453Y-102055796D01*
X159122366Y-101880257D01*
X159125523Y-101875749D01*
X159127846Y-101870767D01*
X159127849Y-101870762D01*
X159143805Y-101836543D01*
X159190722Y-101783258D01*
X159258999Y-101763797D01*
X159326959Y-101784339D01*
X159372195Y-101836543D01*
X159388151Y-101870762D01*
X159388154Y-101870767D01*
X159390477Y-101875749D01*
X159393634Y-101880257D01*
X159516548Y-102055796D01*
X159521802Y-102063300D01*
X159683700Y-102225198D01*
X159688208Y-102228355D01*
X159688211Y-102228357D01*
X159715769Y-102247653D01*
X159871251Y-102356523D01*
X159876233Y-102358846D01*
X159876238Y-102358849D01*
X160052958Y-102441254D01*
X160078757Y-102453284D01*
X160084065Y-102454706D01*
X160084067Y-102454707D01*
X160294598Y-102511119D01*
X160294600Y-102511119D01*
X160299913Y-102512543D01*
X160528000Y-102532498D01*
X160756087Y-102512543D01*
X160761400Y-102511119D01*
X160761402Y-102511119D01*
X160971933Y-102454707D01*
X160971935Y-102454706D01*
X160977243Y-102453284D01*
X161003042Y-102441254D01*
X161179762Y-102358849D01*
X161179767Y-102358846D01*
X161184749Y-102356523D01*
X161340231Y-102247653D01*
X161367789Y-102228357D01*
X161367792Y-102228355D01*
X161372300Y-102225198D01*
X161534198Y-102063300D01*
X161539453Y-102055796D01*
X161662366Y-101880257D01*
X161665523Y-101875749D01*
X161667846Y-101870767D01*
X161667849Y-101870762D01*
X161683805Y-101836543D01*
X161730722Y-101783258D01*
X161798999Y-101763797D01*
X161866959Y-101784339D01*
X161912195Y-101836543D01*
X161928151Y-101870762D01*
X161928154Y-101870767D01*
X161930477Y-101875749D01*
X161933634Y-101880257D01*
X162056548Y-102055796D01*
X162061802Y-102063300D01*
X162223700Y-102225198D01*
X162228208Y-102228355D01*
X162228211Y-102228357D01*
X162255769Y-102247653D01*
X162411251Y-102356523D01*
X162416233Y-102358846D01*
X162416238Y-102358849D01*
X162592958Y-102441254D01*
X162618757Y-102453284D01*
X162624065Y-102454706D01*
X162624067Y-102454707D01*
X162834598Y-102511119D01*
X162834600Y-102511119D01*
X162839913Y-102512543D01*
X163068000Y-102532498D01*
X163296087Y-102512543D01*
X163301400Y-102511119D01*
X163301402Y-102511119D01*
X163511933Y-102454707D01*
X163511935Y-102454706D01*
X163517243Y-102453284D01*
X163543042Y-102441254D01*
X163719762Y-102358849D01*
X163719767Y-102358846D01*
X163724749Y-102356523D01*
X163880231Y-102247653D01*
X163907789Y-102228357D01*
X163907792Y-102228355D01*
X163912300Y-102225198D01*
X164074198Y-102063300D01*
X164079453Y-102055796D01*
X164202366Y-101880257D01*
X164205523Y-101875749D01*
X164207846Y-101870767D01*
X164207849Y-101870762D01*
X164223805Y-101836543D01*
X164270722Y-101783258D01*
X164338999Y-101763797D01*
X164406959Y-101784339D01*
X164452195Y-101836543D01*
X164468151Y-101870762D01*
X164468154Y-101870767D01*
X164470477Y-101875749D01*
X164473634Y-101880257D01*
X164596548Y-102055796D01*
X164601802Y-102063300D01*
X164763700Y-102225198D01*
X164768208Y-102228355D01*
X164768211Y-102228357D01*
X164795769Y-102247653D01*
X164951251Y-102356523D01*
X164956233Y-102358846D01*
X164956238Y-102358849D01*
X165132958Y-102441254D01*
X165158757Y-102453284D01*
X165164065Y-102454706D01*
X165164067Y-102454707D01*
X165374598Y-102511119D01*
X165374600Y-102511119D01*
X165379913Y-102512543D01*
X165608000Y-102532498D01*
X165836087Y-102512543D01*
X165841400Y-102511119D01*
X165841402Y-102511119D01*
X166051933Y-102454707D01*
X166051935Y-102454706D01*
X166057243Y-102453284D01*
X166083042Y-102441254D01*
X166259762Y-102358849D01*
X166259767Y-102358846D01*
X166264749Y-102356523D01*
X166420231Y-102247653D01*
X166447789Y-102228357D01*
X166447792Y-102228355D01*
X166452300Y-102225198D01*
X166614198Y-102063300D01*
X166619453Y-102055796D01*
X166742366Y-101880257D01*
X166745523Y-101875749D01*
X166747846Y-101870767D01*
X166747849Y-101870762D01*
X166763805Y-101836543D01*
X166810722Y-101783258D01*
X166878999Y-101763797D01*
X166946959Y-101784339D01*
X166992195Y-101836543D01*
X167008151Y-101870762D01*
X167008154Y-101870767D01*
X167010477Y-101875749D01*
X167013634Y-101880257D01*
X167136548Y-102055796D01*
X167141802Y-102063300D01*
X167303700Y-102225198D01*
X167308208Y-102228355D01*
X167308211Y-102228357D01*
X167335769Y-102247653D01*
X167449535Y-102327313D01*
X167493862Y-102382769D01*
X167496045Y-102397952D01*
X167513644Y-102431434D01*
X168215188Y-103132978D01*
X168229132Y-103140592D01*
X168230965Y-103140461D01*
X168237580Y-103136210D01*
X168943077Y-102430713D01*
X168949507Y-102418938D01*
X168948182Y-102417225D01*
X168922319Y-102351107D01*
X168936309Y-102281502D01*
X168975569Y-102236913D01*
X168992300Y-102225198D01*
X169154198Y-102063300D01*
X169159453Y-102055796D01*
X169282366Y-101880257D01*
X169285523Y-101875749D01*
X169287846Y-101870767D01*
X169287849Y-101870762D01*
X169304081Y-101835951D01*
X169350998Y-101782666D01*
X169419275Y-101763205D01*
X169487235Y-101783747D01*
X169532471Y-101835951D01*
X169548586Y-101870511D01*
X169554069Y-101880007D01*
X169679028Y-102058467D01*
X169686084Y-102066875D01*
X169840125Y-102220916D01*
X169848533Y-102227972D01*
X170026993Y-102352931D01*
X170036489Y-102358414D01*
X170233947Y-102450490D01*
X170244239Y-102454236D01*
X170416503Y-102500394D01*
X170430599Y-102500058D01*
X170434000Y-102492116D01*
X170434000Y-101091000D01*
X170454002Y-101022879D01*
X170507658Y-100976386D01*
X170560000Y-100965000D01*
X170816000Y-100965000D01*
X170884121Y-100985002D01*
X170930614Y-101038658D01*
X170942000Y-101091000D01*
X170942000Y-102486967D01*
X170945973Y-102500498D01*
X170954522Y-102501727D01*
X171131761Y-102454236D01*
X171142053Y-102450490D01*
X171339511Y-102358414D01*
X171349007Y-102352931D01*
X171527467Y-102227972D01*
X171535875Y-102220916D01*
X171689916Y-102066875D01*
X171696972Y-102058467D01*
X171821931Y-101880007D01*
X171827414Y-101870511D01*
X171843529Y-101835951D01*
X171890446Y-101782666D01*
X171958723Y-101763205D01*
X172026683Y-101783747D01*
X172071919Y-101835951D01*
X172088151Y-101870762D01*
X172088154Y-101870767D01*
X172090477Y-101875749D01*
X172093634Y-101880257D01*
X172216548Y-102055796D01*
X172221802Y-102063300D01*
X172383700Y-102225198D01*
X172415771Y-102247655D01*
X172460099Y-102303110D01*
X172469500Y-102350867D01*
X172469500Y-102373133D01*
X172449498Y-102441254D01*
X172415772Y-102476345D01*
X172383700Y-102498802D01*
X172221802Y-102660700D01*
X172218645Y-102665208D01*
X172218643Y-102665211D01*
X172163902Y-102743389D01*
X172090477Y-102848251D01*
X172088154Y-102853233D01*
X172088151Y-102853238D01*
X172001448Y-103039176D01*
X171993716Y-103055757D01*
X171992294Y-103061065D01*
X171992293Y-103061067D01*
X171940273Y-103255208D01*
X171934457Y-103276913D01*
X171914502Y-103505000D01*
X171934457Y-103733087D01*
X171935881Y-103738400D01*
X171935881Y-103738402D01*
X171989341Y-103937914D01*
X171993716Y-103954243D01*
X171996039Y-103959224D01*
X171996039Y-103959225D01*
X172088151Y-104156762D01*
X172088154Y-104156767D01*
X172090477Y-104161749D01*
X172221802Y-104349300D01*
X172383700Y-104511198D01*
X172388208Y-104514355D01*
X172388211Y-104514357D01*
X172389308Y-104515125D01*
X172571251Y-104642523D01*
X172576233Y-104644846D01*
X172576238Y-104644849D01*
X172772765Y-104736490D01*
X172778757Y-104739284D01*
X172784065Y-104740706D01*
X172784067Y-104740707D01*
X172994598Y-104797119D01*
X172994600Y-104797119D01*
X172999913Y-104798543D01*
X173228000Y-104818498D01*
X173456087Y-104798543D01*
X173461400Y-104797119D01*
X173461402Y-104797119D01*
X173671933Y-104740707D01*
X173671935Y-104740706D01*
X173677243Y-104739284D01*
X173683235Y-104736490D01*
X173879762Y-104644849D01*
X173879767Y-104644846D01*
X173884749Y-104642523D01*
X174066692Y-104515125D01*
X174067789Y-104514357D01*
X174067792Y-104514355D01*
X174072300Y-104511198D01*
X174234198Y-104349300D01*
X174365523Y-104161749D01*
X174367846Y-104156767D01*
X174367849Y-104156762D01*
X174459961Y-103959225D01*
X174459961Y-103959224D01*
X174462284Y-103954243D01*
X174466660Y-103937914D01*
X174520119Y-103738402D01*
X174520119Y-103738400D01*
X174521543Y-103733087D01*
X174541498Y-103505000D01*
X174521543Y-103276913D01*
X174515727Y-103255208D01*
X174463707Y-103061067D01*
X174463706Y-103061065D01*
X174462284Y-103055757D01*
X174454552Y-103039176D01*
X174367849Y-102853238D01*
X174367846Y-102853233D01*
X174365523Y-102848251D01*
X174292098Y-102743389D01*
X174237357Y-102665211D01*
X174237355Y-102665208D01*
X174234198Y-102660700D01*
X174072300Y-102498802D01*
X174040229Y-102476345D01*
X173995901Y-102420890D01*
X173986500Y-102373133D01*
X173986500Y-102350867D01*
X174006502Y-102282746D01*
X174040228Y-102247655D01*
X174072300Y-102225198D01*
X174234198Y-102063300D01*
X174239453Y-102055796D01*
X174362366Y-101880257D01*
X174365523Y-101875749D01*
X174367846Y-101870767D01*
X174367849Y-101870762D01*
X174459961Y-101673225D01*
X174459961Y-101673224D01*
X174462284Y-101668243D01*
X174475150Y-101620229D01*
X174520119Y-101452402D01*
X174520119Y-101452400D01*
X174521543Y-101447087D01*
X174541498Y-101219000D01*
X174521543Y-100990913D01*
X174519959Y-100985002D01*
X174463707Y-100775067D01*
X174463706Y-100775065D01*
X174462284Y-100769757D01*
X174367966Y-100567489D01*
X174367849Y-100567238D01*
X174367846Y-100567233D01*
X174365523Y-100562251D01*
X174339279Y-100524771D01*
X174316591Y-100457497D01*
X174333876Y-100388637D01*
X174385645Y-100340052D01*
X174442492Y-100326500D01*
X176823500Y-100326500D01*
X176891621Y-100346502D01*
X176938114Y-100400158D01*
X176949500Y-100452500D01*
X176949500Y-101223134D01*
X176956255Y-101285316D01*
X177007385Y-101421705D01*
X177094739Y-101538261D01*
X177211295Y-101625615D01*
X177347684Y-101676745D01*
X177409866Y-101683500D01*
X179206134Y-101683500D01*
X179268316Y-101676745D01*
X179404705Y-101625615D01*
X179521261Y-101538261D01*
X179605175Y-101426296D01*
X179662033Y-101383781D01*
X179732852Y-101378755D01*
X179795145Y-101412815D01*
X179829135Y-101475146D01*
X179832000Y-101501861D01*
X179832000Y-102278634D01*
X179811998Y-102346755D01*
X179758342Y-102393248D01*
X179688068Y-102403352D01*
X179657782Y-102395043D01*
X179459338Y-102312845D01*
X179459336Y-102312844D01*
X179454765Y-102310951D01*
X179365461Y-102289511D01*
X179206885Y-102251439D01*
X179206879Y-102251438D01*
X179202072Y-102250284D01*
X178943000Y-102229895D01*
X178683928Y-102250284D01*
X178679121Y-102251438D01*
X178679115Y-102251439D01*
X178520539Y-102289511D01*
X178431235Y-102310951D01*
X178426664Y-102312844D01*
X178426662Y-102312845D01*
X178195718Y-102408505D01*
X178195714Y-102408507D01*
X178191144Y-102410400D01*
X177969566Y-102546183D01*
X177965806Y-102549395D01*
X177965801Y-102549398D01*
X177837982Y-102658566D01*
X177771957Y-102714957D01*
X177768744Y-102718719D01*
X177606398Y-102908801D01*
X177606395Y-102908806D01*
X177603183Y-102912566D01*
X177467400Y-103134144D01*
X177465507Y-103138714D01*
X177465505Y-103138718D01*
X177385474Y-103331930D01*
X177367951Y-103374235D01*
X177307284Y-103626928D01*
X177287418Y-103879350D01*
X177286895Y-103886000D01*
X177307284Y-104145072D01*
X177308438Y-104149879D01*
X177308439Y-104149885D01*
X177312370Y-104166257D01*
X177367951Y-104397765D01*
X177369844Y-104402336D01*
X177369845Y-104402338D01*
X177452224Y-104601217D01*
X177467400Y-104637856D01*
X177603183Y-104859434D01*
X177678972Y-104948172D01*
X177708002Y-105012959D01*
X177697397Y-105083159D01*
X177650522Y-105136481D01*
X177583160Y-105156000D01*
X151086321Y-105156000D01*
X151018200Y-105135998D01*
X150971707Y-105082342D01*
X150961603Y-105012068D01*
X150991097Y-104947488D01*
X151004485Y-104934193D01*
X151158043Y-104803043D01*
X151212498Y-104739284D01*
X151323602Y-104609199D01*
X151323605Y-104609194D01*
X151326817Y-104605434D01*
X151335624Y-104591062D01*
X167506493Y-104591062D01*
X167515789Y-104603077D01*
X167566994Y-104638931D01*
X167576489Y-104644414D01*
X167773947Y-104736490D01*
X167784239Y-104740236D01*
X167994688Y-104796625D01*
X168005481Y-104798528D01*
X168222525Y-104817517D01*
X168233475Y-104817517D01*
X168450519Y-104798528D01*
X168461312Y-104796625D01*
X168671761Y-104740236D01*
X168682053Y-104736490D01*
X168879511Y-104644414D01*
X168889006Y-104638931D01*
X168941048Y-104602491D01*
X168949424Y-104592012D01*
X168942356Y-104578566D01*
X168240812Y-103877022D01*
X168226868Y-103869408D01*
X168225035Y-103869539D01*
X168218420Y-103873790D01*
X167512923Y-104579287D01*
X167506493Y-104591062D01*
X151335624Y-104591062D01*
X151462600Y-104383856D01*
X151475300Y-104353197D01*
X151560155Y-104148338D01*
X151560156Y-104148336D01*
X151562049Y-104143765D01*
X151615703Y-103920284D01*
X151621561Y-103895885D01*
X151621562Y-103895879D01*
X151622716Y-103891072D01*
X151643105Y-103632000D01*
X151633541Y-103510475D01*
X166915483Y-103510475D01*
X166934472Y-103727519D01*
X166936375Y-103738312D01*
X166992764Y-103948761D01*
X166996510Y-103959053D01*
X167088586Y-104156511D01*
X167094069Y-104166006D01*
X167130509Y-104218048D01*
X167140988Y-104226424D01*
X167154434Y-104219356D01*
X167855978Y-103517812D01*
X167862356Y-103506132D01*
X168592408Y-103506132D01*
X168592539Y-103507965D01*
X168596790Y-103514580D01*
X169302287Y-104220077D01*
X169314062Y-104226507D01*
X169326077Y-104217211D01*
X169361931Y-104166006D01*
X169367414Y-104156511D01*
X169459490Y-103959053D01*
X169463236Y-103948761D01*
X169519625Y-103738312D01*
X169521528Y-103727519D01*
X169540517Y-103510475D01*
X169540517Y-103499525D01*
X169521528Y-103282481D01*
X169519625Y-103271688D01*
X169463236Y-103061239D01*
X169459490Y-103050947D01*
X169367414Y-102853489D01*
X169361931Y-102843994D01*
X169325491Y-102791952D01*
X169315012Y-102783576D01*
X169301566Y-102790644D01*
X168600022Y-103492188D01*
X168592408Y-103506132D01*
X167862356Y-103506132D01*
X167863592Y-103503868D01*
X167863461Y-103502035D01*
X167859210Y-103495420D01*
X167153713Y-102789923D01*
X167141938Y-102783493D01*
X167129923Y-102792789D01*
X167094069Y-102843994D01*
X167088586Y-102853489D01*
X166996510Y-103050947D01*
X166992764Y-103061239D01*
X166936375Y-103271688D01*
X166934472Y-103282481D01*
X166915483Y-103499525D01*
X166915483Y-103510475D01*
X151633541Y-103510475D01*
X151622716Y-103372928D01*
X151621562Y-103368121D01*
X151621561Y-103368115D01*
X151563204Y-103125047D01*
X151562049Y-103120235D01*
X151537541Y-103061067D01*
X151464495Y-102884718D01*
X151464493Y-102884714D01*
X151462600Y-102880144D01*
X151326817Y-102658566D01*
X151323605Y-102654806D01*
X151323602Y-102654801D01*
X151161256Y-102464719D01*
X151158043Y-102460957D01*
X151134974Y-102441254D01*
X150964199Y-102295398D01*
X150964194Y-102295395D01*
X150960434Y-102292183D01*
X150738856Y-102156400D01*
X150734286Y-102154507D01*
X150734282Y-102154505D01*
X150503338Y-102058845D01*
X150503336Y-102058844D01*
X150498765Y-102056951D01*
X150364157Y-102024634D01*
X150250885Y-101997439D01*
X150250879Y-101997438D01*
X150246072Y-101996284D01*
X149987000Y-101975895D01*
X149727928Y-101996284D01*
X149723121Y-101997438D01*
X149723115Y-101997439D01*
X149609843Y-102024634D01*
X149475235Y-102056951D01*
X149470664Y-102058844D01*
X149470662Y-102058845D01*
X149272218Y-102141043D01*
X149201628Y-102148632D01*
X149138141Y-102116853D01*
X149101914Y-102055794D01*
X149098000Y-102024634D01*
X149098000Y-87263722D01*
X149118002Y-87195601D01*
X149171658Y-87149108D01*
X149241932Y-87139004D01*
X149289835Y-87156289D01*
X149362144Y-87200600D01*
X149366714Y-87202493D01*
X149366718Y-87202495D01*
X149556529Y-87281117D01*
X149602235Y-87300049D01*
X149634416Y-87307775D01*
X149850115Y-87359561D01*
X149850121Y-87359562D01*
X149854928Y-87360716D01*
X150114000Y-87381105D01*
X150373072Y-87360716D01*
X150377879Y-87359562D01*
X150377885Y-87359561D01*
X150593584Y-87307775D01*
X150625765Y-87300049D01*
X150671471Y-87281117D01*
X150861282Y-87202495D01*
X150861286Y-87202493D01*
X150865856Y-87200600D01*
X151087434Y-87064817D01*
X151091194Y-87061605D01*
X151091199Y-87061602D01*
X151281281Y-86899256D01*
X151285043Y-86896043D01*
X151399146Y-86762446D01*
X151450602Y-86702199D01*
X151450605Y-86702194D01*
X151453817Y-86698434D01*
X151579665Y-86493069D01*
X151632313Y-86445438D01*
X151702354Y-86433831D01*
X151767552Y-86461934D01*
X151807206Y-86520825D01*
X151811872Y-86541367D01*
X151813745Y-86554697D01*
X151860565Y-86762446D01*
X151863645Y-86772275D01*
X151943770Y-86969603D01*
X151948413Y-86978794D01*
X152059694Y-87160388D01*
X152065777Y-87168699D01*
X152205213Y-87329667D01*
X152212580Y-87336883D01*
X152376434Y-87472916D01*
X152384881Y-87478831D01*
X152568756Y-87586279D01*
X152578042Y-87590729D01*
X152777001Y-87666703D01*
X152786899Y-87669579D01*
X152890250Y-87690606D01*
X152904299Y-87689410D01*
X152908000Y-87679065D01*
X152908000Y-86232000D01*
X152928002Y-86163879D01*
X152981658Y-86117386D01*
X153034000Y-86106000D01*
X153290000Y-86106000D01*
X153358121Y-86126002D01*
G37*
%TD.AperFunction*%
%TA.AperFunction,Conductor*%
G36*
X177573338Y-86094870D02*
G01*
X177600632Y-86147968D01*
X177621951Y-86236765D01*
X177623844Y-86241336D01*
X177623845Y-86241338D01*
X177672997Y-86360000D01*
X177721400Y-86476856D01*
X177857183Y-86698434D01*
X177860395Y-86702194D01*
X177860398Y-86702199D01*
X177911854Y-86762446D01*
X178025957Y-86896043D01*
X178029719Y-86899256D01*
X178219801Y-87061602D01*
X178219806Y-87061605D01*
X178223566Y-87064817D01*
X178445144Y-87200600D01*
X178449714Y-87202493D01*
X178449718Y-87202495D01*
X178639529Y-87281117D01*
X178685235Y-87300049D01*
X178717416Y-87307775D01*
X178933115Y-87359561D01*
X178933121Y-87359562D01*
X178937928Y-87360716D01*
X179197000Y-87381105D01*
X179456072Y-87360716D01*
X179460879Y-87359562D01*
X179460885Y-87359561D01*
X179676586Y-87307775D01*
X179747494Y-87311322D01*
X179805228Y-87352642D01*
X179831458Y-87418615D01*
X179832000Y-87430294D01*
X179832000Y-89657106D01*
X179811998Y-89725227D01*
X179758342Y-89771720D01*
X179688068Y-89781824D01*
X179623488Y-89752330D01*
X179590451Y-89707349D01*
X179537515Y-89585606D01*
X179509354Y-89520840D01*
X179388014Y-89333277D01*
X179237670Y-89168051D01*
X179233619Y-89164852D01*
X179233615Y-89164848D01*
X179066414Y-89032800D01*
X179066410Y-89032798D01*
X179062359Y-89029598D01*
X178866789Y-88921638D01*
X178861920Y-88919914D01*
X178861916Y-88919912D01*
X178661087Y-88848795D01*
X178661083Y-88848794D01*
X178656212Y-88847069D01*
X178651119Y-88846162D01*
X178651116Y-88846161D01*
X178441373Y-88808800D01*
X178441367Y-88808799D01*
X178436284Y-88807894D01*
X178362452Y-88806992D01*
X178218081Y-88805228D01*
X178218079Y-88805228D01*
X178212911Y-88805165D01*
X177992091Y-88838955D01*
X177779756Y-88908357D01*
X177581607Y-89011507D01*
X177577474Y-89014610D01*
X177577471Y-89014612D01*
X177553247Y-89032800D01*
X177402965Y-89145635D01*
X177248629Y-89307138D01*
X177122743Y-89491680D01*
X177091136Y-89559771D01*
X177031235Y-89688819D01*
X177028688Y-89694305D01*
X176968989Y-89909570D01*
X176968440Y-89914707D01*
X176946408Y-90120866D01*
X176919280Y-90186476D01*
X176860988Y-90227004D01*
X176790038Y-90229583D01*
X176739541Y-90203502D01*
X176705292Y-90174405D01*
X176699715Y-90169667D01*
X176693200Y-90166340D01*
X176688150Y-90162972D01*
X176683021Y-90159805D01*
X176677284Y-90155266D01*
X176611125Y-90124345D01*
X176607225Y-90122439D01*
X176542192Y-90089231D01*
X176535084Y-90087492D01*
X176529441Y-90085393D01*
X176523678Y-90083476D01*
X176517050Y-90080378D01*
X176445583Y-90065513D01*
X176441299Y-90064543D01*
X176370390Y-90047192D01*
X176364788Y-90046844D01*
X176364785Y-90046844D01*
X176359236Y-90046500D01*
X176359238Y-90046464D01*
X176355245Y-90046225D01*
X176351053Y-90045851D01*
X176343885Y-90044360D01*
X176277675Y-90046151D01*
X176266479Y-90046454D01*
X176263072Y-90046500D01*
X176183291Y-90046500D01*
X176115170Y-90026498D01*
X176068677Y-89972842D01*
X176058028Y-89934108D01*
X176055362Y-89909570D01*
X176053745Y-89894684D01*
X176002615Y-89758295D01*
X175915261Y-89641739D01*
X175798705Y-89554385D01*
X175662316Y-89503255D01*
X175600134Y-89496500D01*
X173903866Y-89496500D01*
X173841684Y-89503255D01*
X173705295Y-89554385D01*
X173588739Y-89641739D01*
X173501385Y-89758295D01*
X173450255Y-89894684D01*
X173449083Y-89905474D01*
X173448197Y-89907606D01*
X173447575Y-89910222D01*
X173447152Y-89910121D01*
X173421845Y-89971035D01*
X173363483Y-90011463D01*
X173292529Y-90013922D01*
X173231510Y-89977629D01*
X173224511Y-89968969D01*
X173221354Y-89965207D01*
X173218198Y-89960700D01*
X173056300Y-89798802D01*
X173051792Y-89795645D01*
X173051789Y-89795643D01*
X172899229Y-89688819D01*
X172854901Y-89633362D01*
X172845500Y-89585606D01*
X172845500Y-87944594D01*
X172865502Y-87876473D01*
X172882405Y-87855499D01*
X173026549Y-87711355D01*
X173088861Y-87677329D01*
X173140762Y-87676979D01*
X173320597Y-87713567D01*
X173325772Y-87713757D01*
X173325774Y-87713757D01*
X173538673Y-87721564D01*
X173538677Y-87721564D01*
X173543837Y-87721753D01*
X173548957Y-87721097D01*
X173548959Y-87721097D01*
X173760288Y-87694025D01*
X173760289Y-87694025D01*
X173765416Y-87693368D01*
X173770366Y-87691883D01*
X173974429Y-87630661D01*
X173974434Y-87630659D01*
X173979384Y-87629174D01*
X174179994Y-87530896D01*
X174361860Y-87401173D01*
X174470479Y-87292933D01*
X174532851Y-87259017D01*
X174603658Y-87264205D01*
X174660419Y-87306851D01*
X174677401Y-87337954D01*
X174718676Y-87448054D01*
X174727214Y-87463649D01*
X174803715Y-87565724D01*
X174816276Y-87578285D01*
X174918351Y-87654786D01*
X174933946Y-87663324D01*
X175054394Y-87708478D01*
X175069649Y-87712105D01*
X175120514Y-87717631D01*
X175127328Y-87718000D01*
X175749885Y-87718000D01*
X175765124Y-87713525D01*
X175766329Y-87712135D01*
X175768000Y-87704452D01*
X175768000Y-87699884D01*
X176276000Y-87699884D01*
X176280475Y-87715123D01*
X176281865Y-87716328D01*
X176289548Y-87717999D01*
X176916669Y-87717999D01*
X176923490Y-87717629D01*
X176974352Y-87712105D01*
X176989604Y-87708479D01*
X177110054Y-87663324D01*
X177125649Y-87654786D01*
X177227724Y-87578285D01*
X177240285Y-87565724D01*
X177316786Y-87463649D01*
X177325324Y-87448054D01*
X177370478Y-87327606D01*
X177374105Y-87312351D01*
X177379631Y-87261486D01*
X177380000Y-87254672D01*
X177380000Y-86632115D01*
X177375525Y-86616876D01*
X177374135Y-86615671D01*
X177366452Y-86614000D01*
X176294115Y-86614000D01*
X176278876Y-86618475D01*
X176277671Y-86619865D01*
X176276000Y-86627548D01*
X176276000Y-87699884D01*
X175768000Y-87699884D01*
X175768000Y-86232000D01*
X175788002Y-86163879D01*
X175841658Y-86117386D01*
X175894000Y-86106000D01*
X177361884Y-86106000D01*
X177377123Y-86101525D01*
X177382889Y-86094871D01*
X177442616Y-86056487D01*
X177513612Y-86056487D01*
X177573338Y-86094870D01*
G37*
%TD.AperFunction*%
%TD*%
M02*
