%TF.GenerationSoftware,KiCad,Pcbnew,(6.0.2)*%
%TF.CreationDate,2022-04-09T01:06:01+09:00*%
%TF.ProjectId,joystick-input,6a6f7973-7469-4636-9b2d-696e7075742e,rev?*%
%TF.SameCoordinates,Original*%
%TF.FileFunction,Copper,L1,Top*%
%TF.FilePolarity,Positive*%
%FSLAX46Y46*%
G04 Gerber Fmt 4.6, Leading zero omitted, Abs format (unit mm)*
G04 Created by KiCad (PCBNEW (6.0.2)) date 2022-04-09 01:06:01*
%MOMM*%
%LPD*%
G01*
G04 APERTURE LIST*
G04 Aperture macros list*
%AMRoundRect*
0 Rectangle with rounded corners*
0 $1 Rounding radius*
0 $2 $3 $4 $5 $6 $7 $8 $9 X,Y pos of 4 corners*
0 Add a 4 corners polygon primitive as box body*
4,1,4,$2,$3,$4,$5,$6,$7,$8,$9,$2,$3,0*
0 Add four circle primitives for the rounded corners*
1,1,$1+$1,$2,$3*
1,1,$1+$1,$4,$5*
1,1,$1+$1,$6,$7*
1,1,$1+$1,$8,$9*
0 Add four rect primitives between the rounded corners*
20,1,$1+$1,$2,$3,$4,$5,0*
20,1,$1+$1,$4,$5,$6,$7,0*
20,1,$1+$1,$6,$7,$8,$9,0*
20,1,$1+$1,$8,$9,$2,$3,0*%
G04 Aperture macros list end*
%TA.AperFunction,SMDPad,CuDef*%
%ADD10RoundRect,0.250000X0.337500X0.475000X-0.337500X0.475000X-0.337500X-0.475000X0.337500X-0.475000X0*%
%TD*%
%TA.AperFunction,SMDPad,CuDef*%
%ADD11R,1.000000X1.500000*%
%TD*%
%TA.AperFunction,ComponentPad*%
%ADD12R,1.700000X1.700000*%
%TD*%
%TA.AperFunction,ComponentPad*%
%ADD13O,1.700000X1.700000*%
%TD*%
%TA.AperFunction,ComponentPad*%
%ADD14R,1.600000X1.600000*%
%TD*%
%TA.AperFunction,ComponentPad*%
%ADD15O,1.600000X1.600000*%
%TD*%
%TA.AperFunction,ViaPad*%
%ADD16C,0.800000*%
%TD*%
%TA.AperFunction,Conductor*%
%ADD17C,0.250000*%
%TD*%
%TA.AperFunction,Conductor*%
%ADD18C,0.500000*%
%TD*%
G04 APERTURE END LIST*
%TO.C,PULL1*%
G36*
X162317000Y-74976000D02*
G01*
X161817000Y-74976000D01*
X161817000Y-74376000D01*
X162317000Y-74376000D01*
X162317000Y-74976000D01*
G37*
%TO.C,SHORT1*%
G36*
X116343000Y-74849000D02*
G01*
X115843000Y-74849000D01*
X115843000Y-74249000D01*
X116343000Y-74249000D01*
X116343000Y-74849000D01*
G37*
%TD*%
D10*
%TO.P,C1,1*%
%TO.N,VCC*%
X162327500Y-87249000D03*
%TO.P,C1,2*%
%TO.N,GND*%
X160252500Y-87249000D03*
%TD*%
D11*
%TO.P,PULL1,1,A*%
%TO.N,VCC*%
X162717000Y-74676000D03*
%TO.P,PULL1,2,C*%
%TO.N,/PULL*%
X161417000Y-74676000D03*
%TO.P,PULL1,3,B*%
%TO.N,GND*%
X160117000Y-74676000D03*
%TD*%
%TO.P,SHORT1,3,B*%
%TO.N,VCC*%
X114143000Y-74549000D03*
%TO.P,SHORT1,2,C*%
%TO.N,/C_SHORT*%
X115443000Y-74549000D03*
%TO.P,SHORT1,1,A*%
%TO.N,GND*%
X116743000Y-74549000D03*
%TD*%
D12*
%TO.P,J2,1,Pin_1*%
%TO.N,/C_SHORT*%
X154813000Y-71501000D03*
D13*
%TO.P,J2,2,Pin_2*%
X154813000Y-74041000D03*
%TO.P,J2,3,Pin_3*%
%TO.N,/C_P1_UP*%
X152273000Y-71501000D03*
%TO.P,J2,4,Pin_4*%
%TO.N,/C_P2_UP*%
X152273000Y-74041000D03*
%TO.P,J2,5,Pin_5*%
%TO.N,/C_P1_DOWN*%
X149733000Y-71501000D03*
%TO.P,J2,6,Pin_6*%
%TO.N,/C_P2_DOWN*%
X149733000Y-74041000D03*
%TO.P,J2,7,Pin_7*%
%TO.N,/C_P1_LEFT*%
X147193000Y-71501000D03*
%TO.P,J2,8,Pin_8*%
%TO.N,/C_P2_LEFT*%
X147193000Y-74041000D03*
%TO.P,J2,9,Pin_9*%
%TO.N,/C_P1_RIGHT*%
X144653000Y-71501000D03*
%TO.P,J2,10,Pin_10*%
%TO.N,/C_P2_RIGHT*%
X144653000Y-74041000D03*
%TO.P,J2,11,Pin_11*%
%TO.N,/C_P1_START*%
X142113000Y-71501000D03*
%TO.P,J2,12,Pin_12*%
%TO.N,/C_P2_START*%
X142113000Y-74041000D03*
%TO.P,J2,13,Pin_13*%
%TO.N,/C_P1_SELECT*%
X139573000Y-71501000D03*
%TO.P,J2,14,Pin_14*%
%TO.N,/C_P2_SELECT*%
X139573000Y-74041000D03*
%TO.P,J2,15,Pin_15*%
%TO.N,/C_P1_A*%
X137033000Y-71501000D03*
%TO.P,J2,16,Pin_16*%
%TO.N,/C_P2_A*%
X137033000Y-74041000D03*
%TO.P,J2,17,Pin_17*%
%TO.N,/C_P1_B*%
X134493000Y-71501000D03*
%TO.P,J2,18,Pin_18*%
%TO.N,/C_P2_B*%
X134493000Y-74041000D03*
%TO.P,J2,19,Pin_19*%
%TO.N,/C_P1_X*%
X131953000Y-71501000D03*
%TO.P,J2,20,Pin_20*%
%TO.N,/C_P2_X*%
X131953000Y-74041000D03*
%TO.P,J2,21,Pin_21*%
%TO.N,/C_P1_Y*%
X129413000Y-71501000D03*
%TO.P,J2,22,Pin_22*%
%TO.N,/C_P2_Y*%
X129413000Y-74041000D03*
%TO.P,J2,23,Pin_23*%
%TO.N,/C_P1_L*%
X126873000Y-71501000D03*
%TO.P,J2,24,Pin_24*%
%TO.N,/C_P2_L*%
X126873000Y-74041000D03*
%TO.P,J2,25,Pin_25*%
%TO.N,/C_P1_R*%
X124333000Y-71501000D03*
%TO.P,J2,26,Pin_26*%
%TO.N,/C_P2_R*%
X124333000Y-74041000D03*
%TO.P,J2,27,Pin_27*%
%TO.N,/C_SHORT*%
X121793000Y-71501000D03*
%TO.P,J2,28,Pin_28*%
X121793000Y-74041000D03*
%TD*%
D12*
%TO.P,IN1,1,Pin_1*%
%TO.N,VCC*%
X114554000Y-90551000D03*
D13*
%TO.P,IN1,2,Pin_2*%
%TO.N,GND*%
X114554000Y-93091000D03*
%TO.P,IN1,3,Pin_3*%
%TO.N,/LOAD*%
X114554000Y-95631000D03*
%TO.P,IN1,4,Pin_4*%
%TO.N,/CLK*%
X114554000Y-98171000D03*
%TO.P,IN1,5,Pin_5*%
%TO.N,/D_IN*%
X114554000Y-100711000D03*
%TD*%
D12*
%TO.P,J1,1,Pin_1*%
%TO.N,/C_SHORT*%
X159893000Y-77978000D03*
D13*
%TO.P,J1,2,Pin_2*%
%TO.N,/C_P1_UP*%
X157353000Y-77978000D03*
%TO.P,J1,3,Pin_3*%
%TO.N,/C_P1_DOWN*%
X154813000Y-77978000D03*
%TO.P,J1,4,Pin_4*%
%TO.N,/C_P1_LEFT*%
X152273000Y-77978000D03*
%TO.P,J1,5,Pin_5*%
%TO.N,/C_P1_RIGHT*%
X149733000Y-77978000D03*
%TO.P,J1,6,Pin_6*%
%TO.N,/C_P1_START*%
X147193000Y-77978000D03*
%TO.P,J1,7,Pin_7*%
%TO.N,/C_P1_SELECT*%
X144653000Y-77978000D03*
%TO.P,J1,8,Pin_8*%
%TO.N,/C_P1_A*%
X142113000Y-77978000D03*
%TO.P,J1,9,Pin_9*%
%TO.N,/C_P1_B*%
X139573000Y-77978000D03*
%TO.P,J1,10,Pin_10*%
%TO.N,/C_P1_X*%
X137033000Y-77978000D03*
%TO.P,J1,11,Pin_11*%
%TO.N,/C_P1_Y*%
X134493000Y-77978000D03*
%TO.P,J1,12,Pin_12*%
%TO.N,/C_P1_L*%
X131953000Y-77978000D03*
%TO.P,J1,13,Pin_13*%
%TO.N,/C_P1_R*%
X129413000Y-77978000D03*
%TO.P,J1,14,Pin_14*%
%TO.N,/C_P2_UP*%
X126873000Y-77978000D03*
%TO.P,J1,15,Pin_15*%
%TO.N,/C_P2_DOWN*%
X124333000Y-77978000D03*
%TO.P,J1,16,Pin_16*%
%TO.N,/C_P2_LEFT*%
X121793000Y-77978000D03*
%TO.P,J1,17,Pin_17*%
%TO.N,/C_P2_RIGHT*%
X119253000Y-77978000D03*
%TO.P,J1,18,Pin_18*%
%TO.N,/C_SHORT*%
X116713000Y-77978000D03*
%TD*%
D14*
%TO.P,74HC165_1,1,~{PL}*%
%TO.N,/LOAD*%
X147828000Y-86868000D03*
D15*
%TO.P,74HC165_1,2,CP*%
%TO.N,/CLK*%
X147828000Y-89408000D03*
%TO.P,74HC165_1,3,D4*%
%TO.N,/C_P1_RIGHT*%
X147828000Y-91948000D03*
%TO.P,74HC165_1,4,D5*%
%TO.N,/C_P1_LEFT*%
X147828000Y-94488000D03*
%TO.P,74HC165_1,5,D6*%
%TO.N,/C_P1_DOWN*%
X147828000Y-97028000D03*
%TO.P,74HC165_1,6,D7*%
%TO.N,/C_P1_UP*%
X147828000Y-99568000D03*
%TO.P,74HC165_1,7,~{Q7}*%
%TO.N,unconnected-(74HC165_1-Pad7)*%
X147828000Y-102108000D03*
%TO.P,74HC165_1,8,GND*%
%TO.N,GND*%
X147828000Y-104648000D03*
%TO.P,74HC165_1,9,Q7*%
%TO.N,/D_OUT*%
X155448000Y-104648000D03*
%TO.P,74HC165_1,10,DS*%
%TO.N,/D_OUT_2*%
X155448000Y-102108000D03*
%TO.P,74HC165_1,11,D0*%
%TO.N,/C_P1_B*%
X155448000Y-99568000D03*
%TO.P,74HC165_1,12,D1*%
%TO.N,/C_P1_A*%
X155448000Y-97028000D03*
%TO.P,74HC165_1,13,D2*%
%TO.N,/C_P1_SELECT*%
X155448000Y-94488000D03*
%TO.P,74HC165_1,14,D3*%
%TO.N,/C_P1_START*%
X155448000Y-91948000D03*
%TO.P,74HC165_1,15,~{CE}*%
%TO.N,GND*%
X155448000Y-89408000D03*
%TO.P,74HC165_1,16,VCC*%
%TO.N,VCC*%
X155448000Y-86868000D03*
%TD*%
%TO.P,74HC165_2,16,VCC*%
%TO.N,VCC*%
X142240000Y-86868000D03*
%TO.P,74HC165_2,15,~{CE}*%
%TO.N,GND*%
X142240000Y-89408000D03*
%TO.P,74HC165_2,14,D3*%
%TO.N,/C_P2_UP*%
X142240000Y-91948000D03*
%TO.P,74HC165_2,13,D2*%
%TO.N,/C_P2_DOWN*%
X142240000Y-94488000D03*
%TO.P,74HC165_2,12,D1*%
%TO.N,/C_P2_LEFT*%
X142240000Y-97028000D03*
%TO.P,74HC165_2,11,D0*%
%TO.N,/C_P2_RIGHT*%
X142240000Y-99568000D03*
%TO.P,74HC165_2,10,DS*%
%TO.N,/D_OUT_3*%
X142240000Y-102108000D03*
%TO.P,74HC165_2,9,Q7*%
%TO.N,/D_OUT_2*%
X142240000Y-104648000D03*
%TO.P,74HC165_2,8,GND*%
%TO.N,GND*%
X134620000Y-104648000D03*
%TO.P,74HC165_2,7,~{Q7}*%
%TO.N,unconnected-(74HC165_2-Pad7)*%
X134620000Y-102108000D03*
%TO.P,74HC165_2,6,D7*%
%TO.N,/C_P1_X*%
X134620000Y-99568000D03*
%TO.P,74HC165_2,5,D6*%
%TO.N,/C_P1_Y*%
X134620000Y-97028000D03*
%TO.P,74HC165_2,4,D5*%
%TO.N,/C_P1_L*%
X134620000Y-94488000D03*
%TO.P,74HC165_2,3,D4*%
%TO.N,/C_P1_R*%
X134620000Y-91948000D03*
%TO.P,74HC165_2,2,CP*%
%TO.N,/CLK*%
X134620000Y-89408000D03*
D14*
%TO.P,74HC165_2,1,~{PL}*%
%TO.N,/LOAD*%
X134620000Y-86868000D03*
%TD*%
D10*
%TO.P,C3,1*%
%TO.N,VCC*%
X142261500Y-84328000D03*
%TO.P,C3,2*%
%TO.N,GND*%
X140186500Y-84328000D03*
%TD*%
%TO.P,C4,1*%
%TO.N,VCC*%
X129053500Y-84328000D03*
%TO.P,C4,2*%
%TO.N,GND*%
X126978500Y-84328000D03*
%TD*%
D14*
%TO.P,RN1,1,common*%
%TO.N,/PULL*%
X158242000Y-102108000D03*
D15*
%TO.P,RN1,2,R1*%
%TO.N,/C_P1_B*%
X158242000Y-99568000D03*
%TO.P,RN1,3,R2*%
%TO.N,/C_P1_A*%
X158242000Y-97028000D03*
%TO.P,RN1,4,R3*%
%TO.N,/C_P1_SELECT*%
X158242000Y-94488000D03*
%TO.P,RN1,5,R4*%
%TO.N,/C_P1_START*%
X158242000Y-91948000D03*
%TD*%
D14*
%TO.P,RN4,1,common*%
%TO.N,/PULL*%
X118618000Y-102108000D03*
D15*
%TO.P,RN4,2,R1*%
%TO.N,/C_P2_START*%
X118618000Y-99568000D03*
%TO.P,RN4,3,R2*%
%TO.N,/C_P2_SELECT*%
X118618000Y-97028000D03*
%TO.P,RN4,4,R3*%
%TO.N,/C_P2_A*%
X118618000Y-94488000D03*
%TO.P,RN4,5,R4*%
%TO.N,/C_P2_B*%
X118618000Y-91948000D03*
%TD*%
D14*
%TO.P,RN2,1,common*%
%TO.N,/PULL*%
X145034000Y-104663000D03*
D15*
%TO.P,RN2,2,R1*%
%TO.N,/C_P1_UP*%
X145034000Y-102123000D03*
%TO.P,RN2,3,R2*%
%TO.N,/C_P2_RIGHT*%
X145034000Y-99583000D03*
%TO.P,RN2,4,R3*%
%TO.N,/C_P1_DOWN*%
X145034000Y-97043000D03*
%TO.P,RN2,5,R4*%
%TO.N,/C_P2_LEFT*%
X145034000Y-94503000D03*
%TO.P,RN2,6,R5*%
%TO.N,/C_P1_LEFT*%
X145034000Y-91963000D03*
%TO.P,RN2,7,R6*%
%TO.N,/C_P2_DOWN*%
X145034000Y-89423000D03*
%TO.P,RN2,8,R7*%
%TO.N,/C_P1_RIGHT*%
X145034000Y-86883000D03*
%TO.P,RN2,9,R8*%
%TO.N,/C_P2_UP*%
X145034000Y-84343000D03*
%TD*%
D14*
%TO.P,74HC165_3,1,~{PL}*%
%TO.N,/LOAD*%
X121412000Y-86868000D03*
D15*
%TO.P,74HC165_3,2,CP*%
%TO.N,/CLK*%
X121412000Y-89408000D03*
%TO.P,74HC165_3,3,D4*%
%TO.N,/C_P2_B*%
X121412000Y-91948000D03*
%TO.P,74HC165_3,4,D5*%
%TO.N,/C_P2_A*%
X121412000Y-94488000D03*
%TO.P,74HC165_3,5,D6*%
%TO.N,/C_P2_SELECT*%
X121412000Y-97028000D03*
%TO.P,74HC165_3,6,D7*%
%TO.N,/C_P2_START*%
X121412000Y-99568000D03*
%TO.P,74HC165_3,7,~{Q7}*%
%TO.N,unconnected-(74HC165_3-Pad7)*%
X121412000Y-102108000D03*
%TO.P,74HC165_3,8,GND*%
%TO.N,GND*%
X121412000Y-104648000D03*
%TO.P,74HC165_3,9,Q7*%
%TO.N,/D_OUT_3*%
X129032000Y-104648000D03*
%TO.P,74HC165_3,10,DS*%
%TO.N,/D_IN*%
X129032000Y-102108000D03*
%TO.P,74HC165_3,11,D0*%
%TO.N,/C_P2_R*%
X129032000Y-99568000D03*
%TO.P,74HC165_3,12,D1*%
%TO.N,/C_P2_L*%
X129032000Y-97028000D03*
%TO.P,74HC165_3,13,D2*%
%TO.N,/C_P2_Y*%
X129032000Y-94488000D03*
%TO.P,74HC165_3,14,D3*%
%TO.N,/C_P2_X*%
X129032000Y-91948000D03*
%TO.P,74HC165_3,15,~{CE}*%
%TO.N,GND*%
X129032000Y-89408000D03*
%TO.P,74HC165_3,16,VCC*%
%TO.N,VCC*%
X129032000Y-86868000D03*
%TD*%
D14*
%TO.P,RN3,1,common*%
%TO.N,/PULL*%
X131826000Y-104648000D03*
D15*
%TO.P,RN3,2,R1*%
%TO.N,/C_P1_X*%
X131826000Y-102108000D03*
%TO.P,RN3,3,R2*%
%TO.N,/C_P2_R*%
X131826000Y-99568000D03*
%TO.P,RN3,4,R3*%
%TO.N,/C_P1_Y*%
X131826000Y-97028000D03*
%TO.P,RN3,5,R4*%
%TO.N,/C_P2_L*%
X131826000Y-94488000D03*
%TO.P,RN3,6,R5*%
%TO.N,/C_P1_L*%
X131826000Y-91948000D03*
%TO.P,RN3,7,R6*%
%TO.N,/C_P2_Y*%
X131826000Y-89408000D03*
%TO.P,RN3,8,R7*%
%TO.N,/C_P1_R*%
X131826000Y-86868000D03*
%TO.P,RN3,9,R8*%
%TO.N,/C_P2_X*%
X131826000Y-84328000D03*
%TD*%
D10*
%TO.P,C2,1*%
%TO.N,VCC*%
X155469500Y-84328000D03*
%TO.P,C2,2*%
%TO.N,GND*%
X153394500Y-84328000D03*
%TD*%
D12*
%TO.P,OUT1,1,Pin_1*%
%TO.N,VCC*%
X162306000Y-90678000D03*
D13*
%TO.P,OUT1,2,Pin_2*%
%TO.N,GND*%
X162306000Y-93218000D03*
%TO.P,OUT1,3,Pin_3*%
%TO.N,/LOAD*%
X162306000Y-95758000D03*
%TO.P,OUT1,4,Pin_4*%
%TO.N,/CLK*%
X162306000Y-98298000D03*
%TO.P,OUT1,5,Pin_5*%
%TO.N,/D_OUT*%
X162306000Y-100838000D03*
%TD*%
D16*
%TO.N,/PULL*%
X160020000Y-81407000D03*
%TO.N,GND*%
X126746000Y-89408000D03*
X138303000Y-99314000D03*
X138430000Y-89535000D03*
X138430000Y-86233000D03*
X120904000Y-84328000D03*
X147701000Y-84455000D03*
X126619000Y-86487000D03*
X156337000Y-81026000D03*
X123952000Y-96393000D03*
X144145000Y-81153000D03*
X151511000Y-99314000D03*
%TO.N,/C_P1_UP*%
X151600553Y-81533498D03*
%TO.N,/C_P1_DOWN*%
X150459696Y-81533498D03*
%TO.N,/C_P1_LEFT*%
X149454311Y-81533498D03*
%TO.N,/C_P1_RIGHT*%
X148454808Y-81533498D03*
%TO.N,/C_P1_X*%
X135509000Y-81534000D03*
%TO.N,/C_P1_Y*%
X134366000Y-81533980D03*
%TO.N,/C_P1_L*%
X133264569Y-81502767D03*
%TO.N,/C_P1_R*%
X132224066Y-81487583D03*
%TO.N,/C_P2_X*%
X123444000Y-91821000D03*
X122809000Y-81534000D03*
%TO.N,/C_P2_Y*%
X124370500Y-92964000D03*
X123813383Y-81532848D03*
%TO.N,/C_P2_L*%
X125132500Y-94107000D03*
X124812885Y-81534006D03*
%TO.N,/C_P2_R*%
X125812387Y-81534000D03*
%TO.N,/C_SHORT*%
X119126000Y-75565000D03*
%TD*%
D17*
%TO.N,/PULL*%
X161417000Y-80010000D02*
X161417000Y-74676000D01*
X160020000Y-81407000D02*
X161417000Y-80010000D01*
%TO.N,/C_SHORT*%
X119126000Y-75565000D02*
X116713000Y-77978000D01*
D18*
%TO.N,VCC*%
X142261500Y-84328000D02*
X142261500Y-82952500D01*
X155508480Y-82870520D02*
X161102520Y-82870520D01*
X129286000Y-82931000D02*
X129346480Y-82870520D01*
X114554000Y-81915000D02*
X114143000Y-81504000D01*
X114143000Y-81123000D02*
X114143000Y-74676000D01*
X142240000Y-82931000D02*
X142300480Y-82870520D01*
X129391500Y-84328000D02*
X129391500Y-83036500D01*
X162306000Y-84074000D02*
X161163000Y-82931000D01*
X155387520Y-82870520D02*
X155448000Y-82931000D01*
X114143000Y-81504000D02*
X114143000Y-81123000D01*
X155469500Y-84328000D02*
X155469500Y-82952500D01*
X117033520Y-82870520D02*
X129346480Y-82870520D01*
X155469500Y-82952500D02*
X155448000Y-82931000D01*
X114554000Y-81915000D02*
X116078000Y-81915000D01*
X155448000Y-82931000D02*
X155508480Y-82870520D01*
X161102520Y-82870520D02*
X161163000Y-82931000D01*
X162687000Y-74706000D02*
X162687000Y-81407000D01*
X114554000Y-90551000D02*
X114554000Y-81915000D01*
X155448000Y-84349500D02*
X155469500Y-84328000D01*
X129391500Y-83036500D02*
X129286000Y-82931000D01*
X162717000Y-74676000D02*
X162687000Y-74706000D01*
X162687000Y-81407000D02*
X161163000Y-82931000D01*
X129346480Y-82870520D02*
X142300480Y-82870520D01*
X116078000Y-81915000D02*
X117033520Y-82870520D01*
X129032000Y-86868000D02*
X129032000Y-84349500D01*
X142240000Y-84349500D02*
X142261500Y-84328000D01*
X142261500Y-82952500D02*
X142240000Y-82931000D01*
X155448000Y-86868000D02*
X155448000Y-84349500D01*
X142300480Y-82870520D02*
X155387520Y-82870520D01*
X129032000Y-84349500D02*
X129053500Y-84328000D01*
X162306000Y-90678000D02*
X162306000Y-84074000D01*
X142240000Y-86868000D02*
X142240000Y-84349500D01*
D17*
%TO.N,/D_IN*%
X114554000Y-100711000D02*
X114681000Y-100838000D01*
X114681000Y-100838000D02*
X127762000Y-100838000D01*
X127762000Y-100838000D02*
X129032000Y-102108000D01*
%TO.N,/D_OUT*%
X162306000Y-101219000D02*
X162306000Y-100838000D01*
X155448000Y-104648000D02*
X158877000Y-104648000D01*
X158877000Y-104648000D02*
X162306000Y-101219000D01*
%TO.N,/LOAD*%
X159766000Y-93218000D02*
X154178000Y-93218000D01*
X121412000Y-86868000D02*
X119253000Y-86868000D01*
X133350000Y-88138000D02*
X134620000Y-86868000D01*
X162306000Y-95758000D02*
X159766000Y-93218000D01*
X146558000Y-88138000D02*
X147828000Y-86868000D01*
X121412000Y-86868000D02*
X122682000Y-88138000D01*
X117221000Y-92964000D02*
X114554000Y-95631000D01*
X134620000Y-86868000D02*
X135890000Y-88138000D01*
X154178000Y-93218000D02*
X147828000Y-86868000D01*
X122682000Y-88138000D02*
X133350000Y-88138000D01*
X135890000Y-88138000D02*
X146558000Y-88138000D01*
X117221000Y-88900000D02*
X117221000Y-92964000D01*
X119253000Y-86868000D02*
X117221000Y-88900000D01*
%TO.N,/CLK*%
X119888000Y-95353278D02*
X119888000Y-90932000D01*
X124079000Y-90678000D02*
X133731000Y-90678000D01*
X122809000Y-89408000D02*
X124079000Y-90678000D01*
X154178000Y-95758000D02*
X147828000Y-89408000D01*
X135890000Y-90678000D02*
X134620000Y-89408000D01*
X116967000Y-95758000D02*
X119483278Y-95758000D01*
X159766000Y-95758000D02*
X154178000Y-95758000D01*
X121412000Y-89408000D02*
X122809000Y-89408000D01*
X133731000Y-90678000D02*
X134620000Y-89789000D01*
X114554000Y-98171000D02*
X116967000Y-95758000D01*
X147828000Y-89408000D02*
X146558000Y-90678000D01*
X119888000Y-90932000D02*
X121412000Y-89408000D01*
X134620000Y-89789000D02*
X134620000Y-89408000D01*
X146558000Y-90678000D02*
X135890000Y-90678000D01*
X162306000Y-98298000D02*
X159766000Y-95758000D01*
X119483278Y-95758000D02*
X119888000Y-95353278D01*
%TO.N,/C_P1_START*%
X143383000Y-73025000D02*
X142113000Y-71755000D01*
X147320000Y-77978000D02*
X146596998Y-77978000D01*
X143383000Y-74764002D02*
X143383000Y-73025000D01*
X146596998Y-77978000D02*
X143383000Y-74764002D01*
%TO.N,/C_P1_SELECT*%
X144056998Y-77978000D02*
X140843000Y-74764002D01*
X140843000Y-73025000D02*
X139573000Y-71755000D01*
X140843000Y-74764002D02*
X140843000Y-73025000D01*
X144780000Y-77978000D02*
X144056998Y-77978000D01*
%TO.N,/C_P1_A*%
X142240000Y-77978000D02*
X141516998Y-77978000D01*
X141516998Y-77978000D02*
X138303000Y-74764002D01*
X138303000Y-74764002D02*
X138303000Y-73025000D01*
X138303000Y-73025000D02*
X137033000Y-71755000D01*
%TO.N,/C_P1_B*%
X139573000Y-77978000D02*
X139020999Y-77978000D01*
X135763000Y-74720001D02*
X135763000Y-72771000D01*
X135763000Y-72771000D02*
X134493000Y-71501000D01*
X139020999Y-77978000D02*
X135763000Y-74720001D01*
%TO.N,/C_P1_UP*%
X156845000Y-77978000D02*
X153543000Y-74676000D01*
X153543000Y-72771000D02*
X152273000Y-71501000D01*
X153797502Y-81533498D02*
X157353000Y-77978000D01*
X157353000Y-77978000D02*
X156845000Y-77978000D01*
X151600553Y-81533498D02*
X153797502Y-81533498D01*
X153543000Y-74676000D02*
X153543000Y-72771000D01*
%TO.N,/C_P1_DOWN*%
X151003000Y-74549000D02*
X151003000Y-72771000D01*
X154432000Y-77978000D02*
X151003000Y-74549000D01*
X154611119Y-77978000D02*
X154347555Y-77978000D01*
X154813000Y-77978000D02*
X154432000Y-77978000D01*
X150459696Y-81533498D02*
X150551894Y-81533498D01*
X150551894Y-81533498D02*
X154107392Y-77978000D01*
X151003000Y-72771000D02*
X149733000Y-71501000D01*
X154107392Y-77978000D02*
X154347555Y-77978000D01*
X154347555Y-77978000D02*
X154813000Y-77978000D01*
X154611119Y-77978000D02*
X154813000Y-77978000D01*
%TO.N,/C_P1_LEFT*%
X151892000Y-77978000D02*
X148463000Y-74549000D01*
X149454311Y-81533498D02*
X149454311Y-80796689D01*
X148463000Y-72771000D02*
X147193000Y-71501000D01*
X148463000Y-74549000D02*
X148463000Y-72771000D01*
X152273000Y-77978000D02*
X151892000Y-77978000D01*
X149454311Y-80796689D02*
X152273000Y-77978000D01*
%TO.N,/C_P1_RIGHT*%
X149307999Y-77978000D02*
X149733000Y-77978000D01*
X145923000Y-72771000D02*
X145923000Y-74593001D01*
X148454808Y-79256192D02*
X149733000Y-77978000D01*
X148454808Y-81533498D02*
X148454808Y-79256192D01*
X145923000Y-74593001D02*
X149307999Y-77978000D01*
X144653000Y-71501000D02*
X145923000Y-72771000D01*
%TO.N,/C_P1_X*%
X136525000Y-77978000D02*
X133223000Y-74676000D01*
X135509000Y-81534000D02*
X135509000Y-79756000D01*
X135509000Y-79756000D02*
X137033000Y-78232000D01*
X133223000Y-72771000D02*
X131953000Y-71501000D01*
X137033000Y-78232000D02*
X137033000Y-77978000D01*
X137033000Y-77978000D02*
X136525000Y-77978000D01*
X133223000Y-74676000D02*
X133223000Y-72771000D01*
%TO.N,/C_P1_Y*%
X133985000Y-77978000D02*
X130683000Y-74676000D01*
X130683000Y-74676000D02*
X130683000Y-72771000D01*
X134493000Y-81406980D02*
X134366000Y-81533980D01*
X130683000Y-72771000D02*
X129413000Y-71501000D01*
X134493000Y-77978000D02*
X134493000Y-81406980D01*
X134493000Y-77978000D02*
X133985000Y-77978000D01*
%TO.N,/C_P1_L*%
X133264569Y-80686569D02*
X133264569Y-81502767D01*
X131953000Y-79375000D02*
X133264569Y-80686569D01*
X128143000Y-73025000D02*
X126873000Y-71755000D01*
X131215188Y-77978000D02*
X128143000Y-74905812D01*
X131953000Y-77978000D02*
X131215188Y-77978000D01*
X128143000Y-74905812D02*
X128143000Y-73025000D01*
X131953000Y-77978000D02*
X131953000Y-79375000D01*
%TO.N,/C_P1_R*%
X127000000Y-75565000D02*
X126403998Y-75565000D01*
X132160583Y-81487583D02*
X132224066Y-81487583D01*
X129413000Y-77978000D02*
X129413000Y-78740000D01*
X129413000Y-77978000D02*
X127000000Y-75565000D01*
X126403998Y-75565000D02*
X125603000Y-74764002D01*
X129413000Y-78740000D02*
X132160583Y-81487583D01*
X125603000Y-74764002D02*
X125603000Y-73025000D01*
X125603000Y-73025000D02*
X124333000Y-71755000D01*
%TO.N,/C_P2_X*%
X123444000Y-91821000D02*
X123571000Y-91948000D01*
X120523000Y-79344978D02*
X120523000Y-75438000D01*
X122712022Y-81534000D02*
X120523000Y-79344978D01*
X131953000Y-73240002D02*
X131953000Y-74041000D01*
X130683000Y-71970002D02*
X131953000Y-73240002D01*
X123571000Y-91948000D02*
X129032000Y-91948000D01*
X129171978Y-69330978D02*
X130683000Y-70842000D01*
X120523000Y-75438000D02*
X119914501Y-74829501D01*
X122809000Y-81534000D02*
X122712022Y-81534000D01*
X119914501Y-74829501D02*
X119914501Y-70711088D01*
X119914501Y-70711088D02*
X121294611Y-69330978D01*
X130683000Y-70842000D02*
X130683000Y-71970002D01*
X121294611Y-69330978D02*
X129171978Y-69330978D01*
%TO.N,/C_P2_Y*%
X123813383Y-81014383D02*
X123063000Y-80264000D01*
X121608011Y-69780989D02*
X125281400Y-69780989D01*
X123063000Y-77216000D02*
X120396000Y-74549000D01*
X124497500Y-93091000D02*
X127635000Y-93091000D01*
X128143000Y-70842000D02*
X128143000Y-72388590D01*
X120396000Y-70993000D02*
X121608011Y-69780989D01*
X125281400Y-69780989D02*
X125292422Y-69792011D01*
X124370500Y-92964000D02*
X124497500Y-93091000D01*
X127635000Y-93091000D02*
X129032000Y-94488000D01*
X128143000Y-72388590D02*
X129413000Y-73658590D01*
X125292422Y-69792011D02*
X127093011Y-69792011D01*
X120396000Y-74549000D02*
X120396000Y-70993000D01*
X123813383Y-81532848D02*
X123813383Y-81014383D01*
X127093011Y-69792011D02*
X128143000Y-70842000D01*
X123063000Y-80264000D02*
X123063000Y-77216000D01*
X129413000Y-73658590D02*
X129413000Y-74041000D01*
%TO.N,/C_P2_L*%
X127926500Y-96901000D02*
X128905000Y-96901000D01*
X125095000Y-70231000D02*
X125603000Y-70739000D01*
X123063000Y-74706246D02*
X123063000Y-70739000D01*
X124812885Y-81534006D02*
X124812885Y-80927115D01*
X125132500Y-94107000D02*
X127926500Y-96901000D01*
X125603000Y-80137000D02*
X125603000Y-77246246D01*
X125603000Y-72388590D02*
X126873000Y-73658590D01*
X124812885Y-80927115D02*
X125603000Y-80137000D01*
X123063000Y-70739000D02*
X123571000Y-70231000D01*
X125603000Y-70739000D02*
X125603000Y-72388590D01*
X125603000Y-77246246D02*
X123063000Y-74706246D01*
X126873000Y-73658590D02*
X126873000Y-74041000D01*
X123571000Y-70231000D02*
X125095000Y-70231000D01*
X128905000Y-96901000D02*
X129032000Y-97028000D01*
%TO.N,/C_P2_R*%
X125812387Y-81534000D02*
X125984000Y-81534000D01*
X125104929Y-76015010D02*
X124333000Y-75243081D01*
X125984000Y-81534000D02*
X128048001Y-79469999D01*
X128048001Y-79469999D02*
X128048001Y-77413999D01*
X124333000Y-75243081D02*
X124333000Y-74041000D01*
X126649012Y-76015010D02*
X125104929Y-76015010D01*
X128048001Y-77413999D02*
X126649012Y-76015010D01*
%TO.N,/C_SHORT*%
X156718000Y-82296000D02*
X121031000Y-82296000D01*
X154813000Y-71501000D02*
X154813000Y-74041000D01*
X115443000Y-74676000D02*
X115443000Y-76708000D01*
X121793000Y-71755000D02*
X121793000Y-74295000D01*
X160020000Y-77978000D02*
X160020000Y-78994000D01*
X121031000Y-82296000D02*
X116713000Y-77978000D01*
X155956000Y-74041000D02*
X159893000Y-77978000D01*
X154813000Y-74041000D02*
X155956000Y-74041000D01*
X160020000Y-78994000D02*
X156718000Y-82296000D01*
X115443000Y-76708000D02*
X116713000Y-77978000D01*
%TO.N,/D_OUT_2*%
X143510000Y-103378000D02*
X154178000Y-103378000D01*
X154178000Y-103378000D02*
X155448000Y-102108000D01*
X142240000Y-104648000D02*
X143510000Y-103378000D01*
%TO.N,/D_OUT_3*%
X130302000Y-103378000D02*
X140970000Y-103378000D01*
X129032000Y-104648000D02*
X130302000Y-103378000D01*
X140970000Y-103378000D02*
X142240000Y-102108000D01*
%TD*%
%TA.AperFunction,Conductor*%
%TO.N,GND*%
G36*
X162317847Y-68282502D02*
G01*
X162364340Y-68336158D01*
X162374444Y-68406432D01*
X162357159Y-68454335D01*
X162277407Y-68584479D01*
X162275514Y-68589049D01*
X162275512Y-68589053D01*
X162197159Y-68778216D01*
X162185608Y-68806102D01*
X162175376Y-68848723D01*
X162130763Y-69034544D01*
X162130762Y-69034550D01*
X162129608Y-69039357D01*
X162111275Y-69272294D01*
X162110787Y-69278500D01*
X162129608Y-69517643D01*
X162130762Y-69522450D01*
X162130763Y-69522456D01*
X162136643Y-69546947D01*
X162185608Y-69750898D01*
X162187501Y-69755469D01*
X162187502Y-69755471D01*
X162205696Y-69799394D01*
X162277407Y-69972521D01*
X162402745Y-70177055D01*
X162558537Y-70359463D01*
X162562293Y-70362671D01*
X162565720Y-70365598D01*
X162740945Y-70515255D01*
X162945479Y-70640593D01*
X162950049Y-70642486D01*
X162950053Y-70642488D01*
X163162529Y-70730498D01*
X163167102Y-70732392D01*
X163202803Y-70740963D01*
X163395544Y-70787237D01*
X163395550Y-70787238D01*
X163400357Y-70788392D01*
X163639500Y-70807213D01*
X163878643Y-70788392D01*
X163883450Y-70787238D01*
X163883456Y-70787237D01*
X164076197Y-70740963D01*
X164111898Y-70732392D01*
X164116471Y-70730498D01*
X164328947Y-70642488D01*
X164328951Y-70642486D01*
X164333521Y-70640593D01*
X164463665Y-70560841D01*
X164532199Y-70542303D01*
X164599876Y-70563760D01*
X164645209Y-70618399D01*
X164655500Y-70668274D01*
X164655500Y-104682053D01*
X164635498Y-104750174D01*
X164581842Y-104796667D01*
X164511568Y-104806771D01*
X164463665Y-104789486D01*
X164351981Y-104721046D01*
X164347761Y-104718460D01*
X164343191Y-104716567D01*
X164343187Y-104716565D01*
X164126164Y-104626672D01*
X164126162Y-104626671D01*
X164121591Y-104624778D01*
X164010970Y-104598220D01*
X163888363Y-104568784D01*
X163888357Y-104568783D01*
X163883550Y-104567629D01*
X163639500Y-104548422D01*
X163395450Y-104567629D01*
X163390643Y-104568783D01*
X163390637Y-104568784D01*
X163268030Y-104598220D01*
X163157409Y-104624778D01*
X163152838Y-104626671D01*
X163152836Y-104626672D01*
X162935813Y-104716565D01*
X162935809Y-104716567D01*
X162931239Y-104718460D01*
X162722509Y-104846370D01*
X162718749Y-104849582D01*
X162718744Y-104849585D01*
X162575353Y-104972053D01*
X162536358Y-105005358D01*
X162533145Y-105009120D01*
X162380585Y-105187744D01*
X162380582Y-105187749D01*
X162377370Y-105191509D01*
X162249460Y-105400239D01*
X162247567Y-105404809D01*
X162247565Y-105404813D01*
X162164563Y-105605200D01*
X162155778Y-105626409D01*
X162137799Y-105701297D01*
X162099784Y-105859637D01*
X162099783Y-105859643D01*
X162098629Y-105864450D01*
X162079422Y-106108500D01*
X162098629Y-106352550D01*
X162099783Y-106357357D01*
X162099784Y-106357363D01*
X162104486Y-106376947D01*
X162155778Y-106590591D01*
X162157671Y-106595162D01*
X162157672Y-106595164D01*
X162245310Y-106806741D01*
X162249460Y-106816761D01*
X162252046Y-106820981D01*
X162320486Y-106932665D01*
X162339024Y-107001199D01*
X162317568Y-107068875D01*
X162262928Y-107114208D01*
X162213053Y-107124500D01*
X114737274Y-107124500D01*
X114669153Y-107104498D01*
X114622660Y-107050842D01*
X114612556Y-106980568D01*
X114629841Y-106932665D01*
X114707007Y-106806741D01*
X114709593Y-106802521D01*
X114781305Y-106629394D01*
X114799498Y-106585471D01*
X114799499Y-106585469D01*
X114801392Y-106580898D01*
X114850357Y-106376947D01*
X114856237Y-106352456D01*
X114856238Y-106352450D01*
X114857392Y-106347643D01*
X114876213Y-106108500D01*
X114857392Y-105869357D01*
X114856238Y-105864550D01*
X114856237Y-105864544D01*
X114802547Y-105640914D01*
X114801392Y-105636102D01*
X114788592Y-105605200D01*
X114711488Y-105419053D01*
X114711486Y-105419049D01*
X114709593Y-105414479D01*
X114584255Y-105209945D01*
X114428463Y-105027537D01*
X114296140Y-104914522D01*
X120129273Y-104914522D01*
X120176764Y-105091761D01*
X120180510Y-105102053D01*
X120272586Y-105299511D01*
X120278069Y-105309007D01*
X120403028Y-105487467D01*
X120410084Y-105495875D01*
X120564125Y-105649916D01*
X120572533Y-105656972D01*
X120750993Y-105781931D01*
X120760489Y-105787414D01*
X120957947Y-105879490D01*
X120968239Y-105883236D01*
X121140503Y-105929394D01*
X121154599Y-105929058D01*
X121158000Y-105921116D01*
X121158000Y-105915967D01*
X121666000Y-105915967D01*
X121669973Y-105929498D01*
X121678522Y-105930727D01*
X121855761Y-105883236D01*
X121866053Y-105879490D01*
X122063511Y-105787414D01*
X122073007Y-105781931D01*
X122251467Y-105656972D01*
X122259875Y-105649916D01*
X122413916Y-105495875D01*
X122420972Y-105487467D01*
X122545931Y-105309007D01*
X122551414Y-105299511D01*
X122643490Y-105102053D01*
X122647236Y-105091761D01*
X122693394Y-104919497D01*
X122693058Y-104905401D01*
X122685116Y-104902000D01*
X121684115Y-104902000D01*
X121668876Y-104906475D01*
X121667671Y-104907865D01*
X121666000Y-104915548D01*
X121666000Y-105915967D01*
X121158000Y-105915967D01*
X121158000Y-104920115D01*
X121153525Y-104904876D01*
X121152135Y-104903671D01*
X121144452Y-104902000D01*
X120144033Y-104902000D01*
X120130502Y-104905973D01*
X120129273Y-104914522D01*
X114296140Y-104914522D01*
X114246055Y-104871745D01*
X114041521Y-104746407D01*
X114036951Y-104744514D01*
X114036947Y-104744512D01*
X113824471Y-104656502D01*
X113824469Y-104656501D01*
X113819898Y-104654608D01*
X113737875Y-104634916D01*
X113591456Y-104599763D01*
X113591450Y-104599762D01*
X113586643Y-104598608D01*
X113347500Y-104579787D01*
X113108357Y-104598608D01*
X113103550Y-104599762D01*
X113103544Y-104599763D01*
X112957125Y-104634916D01*
X112875102Y-104654608D01*
X112870531Y-104656501D01*
X112870529Y-104656502D01*
X112658053Y-104744512D01*
X112658049Y-104744514D01*
X112653479Y-104746407D01*
X112649259Y-104748993D01*
X112523335Y-104826159D01*
X112454801Y-104844697D01*
X112387124Y-104823240D01*
X112341791Y-104768601D01*
X112331500Y-104718726D01*
X112331500Y-75347134D01*
X113134500Y-75347134D01*
X113141255Y-75409316D01*
X113192385Y-75545705D01*
X113279739Y-75662261D01*
X113302940Y-75679649D01*
X113334065Y-75702976D01*
X113376580Y-75759835D01*
X113384500Y-75803802D01*
X113384500Y-81436930D01*
X113383067Y-81455880D01*
X113381289Y-81467570D01*
X113379801Y-81477349D01*
X113380394Y-81484641D01*
X113380394Y-81484644D01*
X113384085Y-81530018D01*
X113384500Y-81540233D01*
X113384500Y-81548293D01*
X113384925Y-81551937D01*
X113387789Y-81576507D01*
X113388222Y-81580882D01*
X113392817Y-81637368D01*
X113394140Y-81653637D01*
X113396396Y-81660601D01*
X113397587Y-81666560D01*
X113398971Y-81672415D01*
X113399818Y-81679681D01*
X113424735Y-81748327D01*
X113426152Y-81752455D01*
X113432572Y-81772271D01*
X113448649Y-81821899D01*
X113452445Y-81828154D01*
X113454951Y-81833628D01*
X113457670Y-81839058D01*
X113460167Y-81845937D01*
X113464180Y-81852057D01*
X113464180Y-81852058D01*
X113500186Y-81906976D01*
X113502523Y-81910680D01*
X113540405Y-81973107D01*
X113544121Y-81977315D01*
X113544122Y-81977316D01*
X113547803Y-81981484D01*
X113547776Y-81981508D01*
X113550429Y-81984500D01*
X113553132Y-81987733D01*
X113557144Y-81993852D01*
X113562456Y-81998884D01*
X113613383Y-82047128D01*
X113615825Y-82049506D01*
X113758595Y-82192276D01*
X113792621Y-82254588D01*
X113795500Y-82281371D01*
X113795500Y-89066500D01*
X113775498Y-89134621D01*
X113721842Y-89181114D01*
X113669500Y-89192500D01*
X113655866Y-89192500D01*
X113593684Y-89199255D01*
X113457295Y-89250385D01*
X113340739Y-89337739D01*
X113253385Y-89454295D01*
X113202255Y-89590684D01*
X113195500Y-89652866D01*
X113195500Y-91449134D01*
X113202255Y-91511316D01*
X113253385Y-91647705D01*
X113340739Y-91764261D01*
X113457295Y-91851615D01*
X113465704Y-91854767D01*
X113465705Y-91854768D01*
X113574960Y-91895726D01*
X113631725Y-91938367D01*
X113656425Y-92004929D01*
X113641218Y-92074278D01*
X113621825Y-92100759D01*
X113498590Y-92229717D01*
X113492104Y-92237727D01*
X113372098Y-92413649D01*
X113367000Y-92422623D01*
X113277338Y-92615783D01*
X113273775Y-92625470D01*
X113218389Y-92825183D01*
X113219912Y-92833607D01*
X113232292Y-92837000D01*
X115872344Y-92837000D01*
X115885875Y-92833027D01*
X115887180Y-92823947D01*
X115845214Y-92656875D01*
X115841894Y-92647124D01*
X115756972Y-92451814D01*
X115752105Y-92442739D01*
X115636426Y-92263926D01*
X115630136Y-92255757D01*
X115486293Y-92097677D01*
X115455241Y-92033831D01*
X115463635Y-91963333D01*
X115508812Y-91908564D01*
X115535256Y-91894895D01*
X115642297Y-91854767D01*
X115650705Y-91851615D01*
X115767261Y-91764261D01*
X115854615Y-91647705D01*
X115905745Y-91511316D01*
X115912500Y-91449134D01*
X115912500Y-89652866D01*
X115905745Y-89590684D01*
X115854615Y-89454295D01*
X115767261Y-89337739D01*
X115650705Y-89250385D01*
X115514316Y-89199255D01*
X115452134Y-89192500D01*
X115438500Y-89192500D01*
X115370379Y-89172498D01*
X115323886Y-89118842D01*
X115312500Y-89066500D01*
X115312500Y-84850095D01*
X125883001Y-84850095D01*
X125883338Y-84856614D01*
X125893257Y-84952206D01*
X125896149Y-84965600D01*
X125947588Y-85119784D01*
X125953761Y-85132962D01*
X126039063Y-85270807D01*
X126048099Y-85282208D01*
X126162829Y-85396739D01*
X126174240Y-85405751D01*
X126312243Y-85490816D01*
X126325424Y-85496963D01*
X126479710Y-85548138D01*
X126493086Y-85551005D01*
X126587438Y-85560672D01*
X126593854Y-85561000D01*
X126706385Y-85561000D01*
X126721624Y-85556525D01*
X126722829Y-85555135D01*
X126724500Y-85547452D01*
X126724500Y-84600115D01*
X126720025Y-84584876D01*
X126718635Y-84583671D01*
X126710952Y-84582000D01*
X125901116Y-84582000D01*
X125885877Y-84586475D01*
X125884672Y-84587865D01*
X125883001Y-84595548D01*
X125883001Y-84850095D01*
X115312500Y-84850095D01*
X115312500Y-82799500D01*
X115332502Y-82731379D01*
X115386158Y-82684886D01*
X115438500Y-82673500D01*
X115711629Y-82673500D01*
X115779750Y-82693502D01*
X115800724Y-82710405D01*
X116449750Y-83359431D01*
X116462136Y-83373843D01*
X116470669Y-83385438D01*
X116470674Y-83385443D01*
X116475012Y-83391338D01*
X116480590Y-83396077D01*
X116480593Y-83396080D01*
X116515288Y-83425555D01*
X116522804Y-83432485D01*
X116528499Y-83438180D01*
X116531381Y-83440460D01*
X116550771Y-83455801D01*
X116554175Y-83458592D01*
X116604223Y-83501111D01*
X116609805Y-83505853D01*
X116616321Y-83509181D01*
X116621370Y-83512548D01*
X116626499Y-83515715D01*
X116632236Y-83520254D01*
X116698395Y-83551175D01*
X116702289Y-83553078D01*
X116767328Y-83586289D01*
X116774436Y-83588028D01*
X116780079Y-83590127D01*
X116785842Y-83592044D01*
X116792470Y-83595142D01*
X116862413Y-83609690D01*
X116863932Y-83610006D01*
X116868216Y-83610976D01*
X116939130Y-83628328D01*
X116944732Y-83628676D01*
X116944735Y-83628676D01*
X116950284Y-83629020D01*
X116950282Y-83629056D01*
X116954275Y-83629295D01*
X116958467Y-83629669D01*
X116965635Y-83631160D01*
X117043040Y-83629066D01*
X117046448Y-83629020D01*
X125761219Y-83629020D01*
X125829340Y-83649022D01*
X125875833Y-83702678D01*
X125886563Y-83767863D01*
X125883328Y-83799440D01*
X125883000Y-83805855D01*
X125883000Y-84055885D01*
X125887475Y-84071124D01*
X125888865Y-84072329D01*
X125896548Y-84074000D01*
X127106500Y-84074000D01*
X127174621Y-84094002D01*
X127221114Y-84147658D01*
X127232500Y-84200000D01*
X127232500Y-85542884D01*
X127236975Y-85558123D01*
X127238365Y-85559328D01*
X127246048Y-85560999D01*
X127363095Y-85560999D01*
X127369614Y-85560662D01*
X127465206Y-85550743D01*
X127478600Y-85547851D01*
X127632784Y-85496412D01*
X127645962Y-85490239D01*
X127783807Y-85404937D01*
X127795208Y-85395901D01*
X127909738Y-85281172D01*
X127916794Y-85272238D01*
X127974712Y-85231177D01*
X128045635Y-85227947D01*
X128107046Y-85263574D01*
X128113846Y-85271407D01*
X128117522Y-85277348D01*
X128122704Y-85282521D01*
X128236518Y-85396137D01*
X128270597Y-85458420D01*
X128273500Y-85485310D01*
X128273500Y-85736133D01*
X128253498Y-85804254D01*
X128219772Y-85839345D01*
X128187700Y-85861802D01*
X128025802Y-86023700D01*
X128022645Y-86028208D01*
X128022643Y-86028211D01*
X128015299Y-86038700D01*
X127894477Y-86211251D01*
X127892154Y-86216233D01*
X127892151Y-86216238D01*
X127810836Y-86390620D01*
X127797716Y-86418757D01*
X127796294Y-86424064D01*
X127796293Y-86424067D01*
X127744373Y-86617834D01*
X127738457Y-86639913D01*
X127718502Y-86868000D01*
X127738457Y-87096087D01*
X127739881Y-87101400D01*
X127739881Y-87101402D01*
X127758717Y-87171696D01*
X127797716Y-87317243D01*
X127800039Y-87322225D01*
X127800041Y-87322230D01*
X127801448Y-87325247D01*
X127801669Y-87326704D01*
X127801922Y-87327398D01*
X127801782Y-87327449D01*
X127812111Y-87395438D01*
X127783133Y-87460252D01*
X127723715Y-87499110D01*
X127687255Y-87504500D01*
X122996595Y-87504500D01*
X122928474Y-87484498D01*
X122907500Y-87467595D01*
X122757405Y-87317500D01*
X122723379Y-87255188D01*
X122720500Y-87228405D01*
X122720500Y-86019866D01*
X122713745Y-85957684D01*
X122662615Y-85821295D01*
X122575261Y-85704739D01*
X122458705Y-85617385D01*
X122322316Y-85566255D01*
X122260134Y-85559500D01*
X120563866Y-85559500D01*
X120501684Y-85566255D01*
X120365295Y-85617385D01*
X120248739Y-85704739D01*
X120161385Y-85821295D01*
X120110255Y-85957684D01*
X120103500Y-86019866D01*
X120103500Y-86108500D01*
X120083498Y-86176621D01*
X120029842Y-86223114D01*
X119977500Y-86234500D01*
X119331767Y-86234500D01*
X119320584Y-86233973D01*
X119313091Y-86232298D01*
X119305165Y-86232547D01*
X119305164Y-86232547D01*
X119245001Y-86234438D01*
X119241043Y-86234500D01*
X119213144Y-86234500D01*
X119209154Y-86235004D01*
X119197320Y-86235936D01*
X119153111Y-86237326D01*
X119145497Y-86239538D01*
X119145492Y-86239539D01*
X119133659Y-86242977D01*
X119114296Y-86246988D01*
X119094203Y-86249526D01*
X119086836Y-86252443D01*
X119086831Y-86252444D01*
X119053092Y-86265802D01*
X119041865Y-86269646D01*
X118999407Y-86281982D01*
X118992581Y-86286019D01*
X118981972Y-86292293D01*
X118964224Y-86300988D01*
X118945383Y-86308448D01*
X118938967Y-86313110D01*
X118938966Y-86313110D01*
X118909613Y-86334436D01*
X118899693Y-86340952D01*
X118868465Y-86359420D01*
X118868462Y-86359422D01*
X118861638Y-86363458D01*
X118847317Y-86377779D01*
X118832284Y-86390619D01*
X118815893Y-86402528D01*
X118794180Y-86428775D01*
X118787702Y-86436605D01*
X118779712Y-86445384D01*
X116828747Y-88396348D01*
X116820461Y-88403888D01*
X116813982Y-88408000D01*
X116808557Y-88413777D01*
X116767357Y-88457651D01*
X116764602Y-88460493D01*
X116744865Y-88480230D01*
X116742385Y-88483427D01*
X116734682Y-88492447D01*
X116704414Y-88524679D01*
X116700595Y-88531625D01*
X116700593Y-88531628D01*
X116694652Y-88542434D01*
X116683801Y-88558953D01*
X116671386Y-88574959D01*
X116668241Y-88582228D01*
X116668238Y-88582232D01*
X116653826Y-88615537D01*
X116648609Y-88626187D01*
X116627305Y-88664940D01*
X116625334Y-88672615D01*
X116625334Y-88672616D01*
X116622267Y-88684562D01*
X116615863Y-88703266D01*
X116607819Y-88721855D01*
X116606580Y-88729678D01*
X116606577Y-88729688D01*
X116600901Y-88765524D01*
X116598495Y-88777144D01*
X116587500Y-88819970D01*
X116587500Y-88840224D01*
X116585949Y-88859934D01*
X116582780Y-88879943D01*
X116583526Y-88887835D01*
X116586941Y-88923961D01*
X116587500Y-88935819D01*
X116587500Y-92649406D01*
X116567498Y-92717527D01*
X116550595Y-92738501D01*
X115980654Y-93308442D01*
X115918342Y-93342468D01*
X115890351Y-93341551D01*
X115890351Y-93345000D01*
X113237225Y-93345000D01*
X113223694Y-93348973D01*
X113222257Y-93358966D01*
X113252565Y-93493446D01*
X113255645Y-93503275D01*
X113335770Y-93700603D01*
X113340413Y-93709794D01*
X113451694Y-93891388D01*
X113457777Y-93899699D01*
X113597213Y-94060667D01*
X113604580Y-94067883D01*
X113768434Y-94203916D01*
X113776881Y-94209831D01*
X113845969Y-94250203D01*
X113894693Y-94301842D01*
X113907764Y-94371625D01*
X113881033Y-94437396D01*
X113840584Y-94470752D01*
X113827607Y-94477507D01*
X113823474Y-94480610D01*
X113823471Y-94480612D01*
X113653100Y-94608530D01*
X113648965Y-94611635D01*
X113645393Y-94615373D01*
X113506180Y-94761051D01*
X113494629Y-94773138D01*
X113491715Y-94777410D01*
X113491714Y-94777411D01*
X113419428Y-94883379D01*
X113368743Y-94957680D01*
X113366564Y-94962375D01*
X113282979Y-95142444D01*
X113274688Y-95160305D01*
X113214989Y-95375570D01*
X113191251Y-95597695D01*
X113191548Y-95602848D01*
X113191548Y-95602851D01*
X113202770Y-95797482D01*
X113204110Y-95820715D01*
X113205247Y-95825761D01*
X113205248Y-95825767D01*
X113219832Y-95890477D01*
X113253222Y-96038639D01*
X113301079Y-96156498D01*
X113333110Y-96235380D01*
X113337266Y-96245616D01*
X113372283Y-96302758D01*
X113438921Y-96411502D01*
X113453987Y-96436088D01*
X113600250Y-96604938D01*
X113772126Y-96747632D01*
X113810091Y-96769817D01*
X113845445Y-96790476D01*
X113894169Y-96842114D01*
X113907240Y-96911897D01*
X113880509Y-96977669D01*
X113840055Y-97011027D01*
X113827607Y-97017507D01*
X113823474Y-97020610D01*
X113823471Y-97020612D01*
X113653100Y-97148530D01*
X113648965Y-97151635D01*
X113645393Y-97155373D01*
X113506180Y-97301051D01*
X113494629Y-97313138D01*
X113491715Y-97317410D01*
X113491714Y-97317411D01*
X113427080Y-97412161D01*
X113368743Y-97497680D01*
X113362545Y-97511033D01*
X113284224Y-97679762D01*
X113274688Y-97700305D01*
X113214989Y-97915570D01*
X113191251Y-98137695D01*
X113191548Y-98142848D01*
X113191548Y-98142851D01*
X113200688Y-98301365D01*
X113204110Y-98360715D01*
X113205247Y-98365761D01*
X113205248Y-98365767D01*
X113219832Y-98430477D01*
X113253222Y-98578639D01*
X113291461Y-98672811D01*
X113318216Y-98738700D01*
X113337266Y-98785616D01*
X113453987Y-98976088D01*
X113600250Y-99144938D01*
X113772126Y-99287632D01*
X113810091Y-99309817D01*
X113845445Y-99330476D01*
X113894169Y-99382114D01*
X113907240Y-99451897D01*
X113880509Y-99517669D01*
X113840055Y-99551027D01*
X113827607Y-99557507D01*
X113823474Y-99560610D01*
X113823471Y-99560612D01*
X113654323Y-99687612D01*
X113648965Y-99691635D01*
X113645393Y-99695373D01*
X113506180Y-99841051D01*
X113494629Y-99853138D01*
X113491715Y-99857410D01*
X113491714Y-99857411D01*
X113479404Y-99875457D01*
X113368743Y-100037680D01*
X113341933Y-100095438D01*
X113284224Y-100219762D01*
X113274688Y-100240305D01*
X113214989Y-100455570D01*
X113191251Y-100677695D01*
X113191548Y-100682848D01*
X113191548Y-100682851D01*
X113200688Y-100841365D01*
X113204110Y-100900715D01*
X113205247Y-100905761D01*
X113205248Y-100905767D01*
X113219832Y-100970477D01*
X113253222Y-101118639D01*
X113285319Y-101197684D01*
X113318216Y-101278700D01*
X113337266Y-101325616D01*
X113339965Y-101330020D01*
X113438921Y-101491502D01*
X113453987Y-101516088D01*
X113600250Y-101684938D01*
X113772126Y-101827632D01*
X113965000Y-101940338D01*
X114173692Y-102020030D01*
X114178760Y-102021061D01*
X114178763Y-102021062D01*
X114286017Y-102042883D01*
X114392597Y-102064567D01*
X114397772Y-102064757D01*
X114397774Y-102064757D01*
X114610673Y-102072564D01*
X114610677Y-102072564D01*
X114615837Y-102072753D01*
X114620957Y-102072097D01*
X114620959Y-102072097D01*
X114832288Y-102045025D01*
X114832289Y-102045025D01*
X114837416Y-102044368D01*
X114842366Y-102042883D01*
X115046429Y-101981661D01*
X115046434Y-101981659D01*
X115051384Y-101980174D01*
X115251994Y-101881896D01*
X115433860Y-101752173D01*
X115464652Y-101721489D01*
X115537097Y-101649296D01*
X115592096Y-101594489D01*
X115642766Y-101523974D01*
X115698761Y-101480326D01*
X115745089Y-101471500D01*
X117183500Y-101471500D01*
X117251621Y-101491502D01*
X117298114Y-101545158D01*
X117309500Y-101597500D01*
X117309500Y-102956134D01*
X117316255Y-103018316D01*
X117367385Y-103154705D01*
X117454739Y-103271261D01*
X117571295Y-103358615D01*
X117707684Y-103409745D01*
X117769866Y-103416500D01*
X119466134Y-103416500D01*
X119528316Y-103409745D01*
X119664705Y-103358615D01*
X119781261Y-103271261D01*
X119868615Y-103154705D01*
X119919745Y-103018316D01*
X119926500Y-102956134D01*
X119926500Y-102576758D01*
X119946502Y-102508637D01*
X120000158Y-102462144D01*
X120070432Y-102452040D01*
X120135012Y-102481534D01*
X120174207Y-102544147D01*
X120177716Y-102557243D01*
X120180039Y-102562224D01*
X120180039Y-102562225D01*
X120272151Y-102759762D01*
X120272154Y-102759767D01*
X120274477Y-102764749D01*
X120405802Y-102952300D01*
X120567700Y-103114198D01*
X120572208Y-103117355D01*
X120572211Y-103117357D01*
X120583912Y-103125550D01*
X120755251Y-103245523D01*
X120760233Y-103247846D01*
X120760238Y-103247849D01*
X120795049Y-103264081D01*
X120848334Y-103310998D01*
X120867795Y-103379275D01*
X120847253Y-103447235D01*
X120795049Y-103492471D01*
X120760489Y-103508586D01*
X120750993Y-103514069D01*
X120572533Y-103639028D01*
X120564125Y-103646084D01*
X120410084Y-103800125D01*
X120403028Y-103808533D01*
X120278069Y-103986993D01*
X120272586Y-103996489D01*
X120180510Y-104193947D01*
X120176764Y-104204239D01*
X120130606Y-104376503D01*
X120130942Y-104390599D01*
X120138884Y-104394000D01*
X122679967Y-104394000D01*
X122693498Y-104390027D01*
X122694727Y-104381478D01*
X122647236Y-104204239D01*
X122643490Y-104193947D01*
X122551414Y-103996489D01*
X122545931Y-103986993D01*
X122420972Y-103808533D01*
X122413916Y-103800125D01*
X122259875Y-103646084D01*
X122251467Y-103639028D01*
X122073007Y-103514069D01*
X122063511Y-103508586D01*
X122028951Y-103492471D01*
X121975666Y-103445554D01*
X121956205Y-103377277D01*
X121976747Y-103309317D01*
X122028951Y-103264081D01*
X122063762Y-103247849D01*
X122063767Y-103247846D01*
X122068749Y-103245523D01*
X122240088Y-103125550D01*
X122251789Y-103117357D01*
X122251792Y-103117355D01*
X122256300Y-103114198D01*
X122418198Y-102952300D01*
X122549523Y-102764749D01*
X122551846Y-102759767D01*
X122551849Y-102759762D01*
X122643961Y-102562225D01*
X122643961Y-102562224D01*
X122646284Y-102557243D01*
X122685284Y-102411696D01*
X122704119Y-102341402D01*
X122704120Y-102341398D01*
X122705543Y-102336087D01*
X122725498Y-102108000D01*
X122705543Y-101879913D01*
X122703537Y-101872427D01*
X122647707Y-101664067D01*
X122647706Y-101664064D01*
X122646284Y-101658757D01*
X122642552Y-101650753D01*
X122642331Y-101649296D01*
X122642078Y-101648602D01*
X122642218Y-101648551D01*
X122631889Y-101580562D01*
X122660867Y-101515748D01*
X122720285Y-101476890D01*
X122756745Y-101471500D01*
X127447406Y-101471500D01*
X127515527Y-101491502D01*
X127536501Y-101508405D01*
X127722848Y-101694752D01*
X127756874Y-101757064D01*
X127755459Y-101816459D01*
X127739882Y-101874591D01*
X127739881Y-101874598D01*
X127738457Y-101879913D01*
X127718502Y-102108000D01*
X127738457Y-102336087D01*
X127739880Y-102341398D01*
X127739881Y-102341402D01*
X127758717Y-102411696D01*
X127797716Y-102557243D01*
X127800039Y-102562224D01*
X127800039Y-102562225D01*
X127892151Y-102759762D01*
X127892154Y-102759767D01*
X127894477Y-102764749D01*
X128025802Y-102952300D01*
X128187700Y-103114198D01*
X128192208Y-103117355D01*
X128192211Y-103117357D01*
X128203912Y-103125550D01*
X128375251Y-103245523D01*
X128380233Y-103247846D01*
X128380238Y-103247849D01*
X128414457Y-103263805D01*
X128467742Y-103310722D01*
X128487203Y-103378999D01*
X128466661Y-103446959D01*
X128414457Y-103492195D01*
X128380238Y-103508151D01*
X128380233Y-103508154D01*
X128375251Y-103510477D01*
X128303908Y-103560432D01*
X128192211Y-103638643D01*
X128192208Y-103638645D01*
X128187700Y-103641802D01*
X128025802Y-103803700D01*
X127894477Y-103991251D01*
X127892154Y-103996233D01*
X127892151Y-103996238D01*
X127812315Y-104167449D01*
X127797716Y-104198757D01*
X127796294Y-104204065D01*
X127796293Y-104204067D01*
X127739881Y-104414598D01*
X127738457Y-104419913D01*
X127718502Y-104648000D01*
X127738457Y-104876087D01*
X127739881Y-104881400D01*
X127739881Y-104881402D01*
X127796247Y-105091759D01*
X127797716Y-105097243D01*
X127800039Y-105102224D01*
X127800039Y-105102225D01*
X127892151Y-105299762D01*
X127892154Y-105299767D01*
X127894477Y-105304749D01*
X128025802Y-105492300D01*
X128187700Y-105654198D01*
X128192208Y-105657355D01*
X128192211Y-105657357D01*
X128233542Y-105686297D01*
X128375251Y-105785523D01*
X128380233Y-105787846D01*
X128380238Y-105787849D01*
X128565616Y-105874291D01*
X128582757Y-105882284D01*
X128588065Y-105883706D01*
X128588067Y-105883707D01*
X128798598Y-105940119D01*
X128798600Y-105940119D01*
X128803913Y-105941543D01*
X129032000Y-105961498D01*
X129260087Y-105941543D01*
X129265400Y-105940119D01*
X129265402Y-105940119D01*
X129475933Y-105883707D01*
X129475935Y-105883706D01*
X129481243Y-105882284D01*
X129498384Y-105874291D01*
X129683762Y-105787849D01*
X129683767Y-105787846D01*
X129688749Y-105785523D01*
X129830458Y-105686297D01*
X129871789Y-105657357D01*
X129871792Y-105657355D01*
X129876300Y-105654198D01*
X130038198Y-105492300D01*
X130169523Y-105304749D01*
X130171846Y-105299767D01*
X130171849Y-105299762D01*
X130263961Y-105102225D01*
X130263961Y-105102224D01*
X130266284Y-105097243D01*
X130267754Y-105091759D01*
X130269793Y-105084147D01*
X130306744Y-105023525D01*
X130370605Y-104992503D01*
X130441099Y-105000931D01*
X130495846Y-105046134D01*
X130517500Y-105116758D01*
X130517500Y-105496134D01*
X130524255Y-105558316D01*
X130575385Y-105694705D01*
X130662739Y-105811261D01*
X130779295Y-105898615D01*
X130915684Y-105949745D01*
X130977866Y-105956500D01*
X132674134Y-105956500D01*
X132736316Y-105949745D01*
X132872705Y-105898615D01*
X132989261Y-105811261D01*
X133076615Y-105694705D01*
X133127745Y-105558316D01*
X133134500Y-105496134D01*
X133134500Y-105114828D01*
X133154502Y-105046707D01*
X133208158Y-105000214D01*
X133278432Y-104990110D01*
X133343012Y-105019604D01*
X133382207Y-105082218D01*
X133384763Y-105091759D01*
X133388510Y-105102053D01*
X133480586Y-105299511D01*
X133486069Y-105309007D01*
X133611028Y-105487467D01*
X133618084Y-105495875D01*
X133772125Y-105649916D01*
X133780533Y-105656972D01*
X133958993Y-105781931D01*
X133968489Y-105787414D01*
X134165947Y-105879490D01*
X134176239Y-105883236D01*
X134348503Y-105929394D01*
X134362599Y-105929058D01*
X134366000Y-105921116D01*
X134366000Y-105915967D01*
X134874000Y-105915967D01*
X134877973Y-105929498D01*
X134886522Y-105930727D01*
X135063761Y-105883236D01*
X135074053Y-105879490D01*
X135271511Y-105787414D01*
X135281007Y-105781931D01*
X135459467Y-105656972D01*
X135467875Y-105649916D01*
X135621916Y-105495875D01*
X135628972Y-105487467D01*
X135753931Y-105309007D01*
X135759414Y-105299511D01*
X135851490Y-105102053D01*
X135855236Y-105091761D01*
X135901394Y-104919497D01*
X135901058Y-104905401D01*
X135893116Y-104902000D01*
X134892115Y-104902000D01*
X134876876Y-104906475D01*
X134875671Y-104907865D01*
X134874000Y-104915548D01*
X134874000Y-105915967D01*
X134366000Y-105915967D01*
X134366000Y-104520000D01*
X134386002Y-104451879D01*
X134439658Y-104405386D01*
X134492000Y-104394000D01*
X135887967Y-104394000D01*
X135901498Y-104390027D01*
X135902727Y-104381478D01*
X135855236Y-104204239D01*
X135851488Y-104193942D01*
X135850000Y-104190751D01*
X135849766Y-104189211D01*
X135849607Y-104188774D01*
X135849695Y-104188742D01*
X135839338Y-104120559D01*
X135868317Y-104055746D01*
X135927737Y-104016890D01*
X135964194Y-104011500D01*
X140891233Y-104011500D01*
X140902418Y-104012027D01*
X140909909Y-104013702D01*
X140910126Y-104013695D01*
X140972876Y-104038745D01*
X141014115Y-104096536D01*
X141017562Y-104167449D01*
X141009280Y-104191114D01*
X141005716Y-104198757D01*
X141004294Y-104204065D01*
X141004293Y-104204067D01*
X140947881Y-104414598D01*
X140946457Y-104419913D01*
X140926502Y-104648000D01*
X140946457Y-104876087D01*
X140947881Y-104881400D01*
X140947881Y-104881402D01*
X141004247Y-105091759D01*
X141005716Y-105097243D01*
X141008039Y-105102224D01*
X141008039Y-105102225D01*
X141100151Y-105299762D01*
X141100154Y-105299767D01*
X141102477Y-105304749D01*
X141233802Y-105492300D01*
X141395700Y-105654198D01*
X141400208Y-105657355D01*
X141400211Y-105657357D01*
X141441542Y-105686297D01*
X141583251Y-105785523D01*
X141588233Y-105787846D01*
X141588238Y-105787849D01*
X141773616Y-105874291D01*
X141790757Y-105882284D01*
X141796065Y-105883706D01*
X141796067Y-105883707D01*
X142006598Y-105940119D01*
X142006600Y-105940119D01*
X142011913Y-105941543D01*
X142240000Y-105961498D01*
X142468087Y-105941543D01*
X142473400Y-105940119D01*
X142473402Y-105940119D01*
X142683933Y-105883707D01*
X142683935Y-105883706D01*
X142689243Y-105882284D01*
X142706384Y-105874291D01*
X142891762Y-105787849D01*
X142891767Y-105787846D01*
X142896749Y-105785523D01*
X143038458Y-105686297D01*
X143079789Y-105657357D01*
X143079792Y-105657355D01*
X143084300Y-105654198D01*
X143246198Y-105492300D01*
X143377523Y-105304749D01*
X143379846Y-105299767D01*
X143379849Y-105299762D01*
X143471961Y-105102225D01*
X143471961Y-105102224D01*
X143474284Y-105097243D01*
X143475754Y-105091759D01*
X143477793Y-105084147D01*
X143514744Y-105023525D01*
X143578605Y-104992503D01*
X143649099Y-105000931D01*
X143703846Y-105046134D01*
X143725500Y-105116758D01*
X143725500Y-105511134D01*
X143732255Y-105573316D01*
X143783385Y-105709705D01*
X143870739Y-105826261D01*
X143987295Y-105913615D01*
X144123684Y-105964745D01*
X144185866Y-105971500D01*
X145882134Y-105971500D01*
X145944316Y-105964745D01*
X146080705Y-105913615D01*
X146197261Y-105826261D01*
X146284615Y-105709705D01*
X146335745Y-105573316D01*
X146342500Y-105511134D01*
X146342500Y-105114828D01*
X146362502Y-105046707D01*
X146416158Y-105000214D01*
X146486432Y-104990110D01*
X146551012Y-105019604D01*
X146590207Y-105082218D01*
X146592763Y-105091759D01*
X146596510Y-105102053D01*
X146688586Y-105299511D01*
X146694069Y-105309007D01*
X146819028Y-105487467D01*
X146826084Y-105495875D01*
X146980125Y-105649916D01*
X146988533Y-105656972D01*
X147166993Y-105781931D01*
X147176489Y-105787414D01*
X147373947Y-105879490D01*
X147384239Y-105883236D01*
X147556503Y-105929394D01*
X147570599Y-105929058D01*
X147574000Y-105921116D01*
X147574000Y-105915967D01*
X148082000Y-105915967D01*
X148085973Y-105929498D01*
X148094522Y-105930727D01*
X148271761Y-105883236D01*
X148282053Y-105879490D01*
X148479511Y-105787414D01*
X148489007Y-105781931D01*
X148667467Y-105656972D01*
X148675875Y-105649916D01*
X148829916Y-105495875D01*
X148836972Y-105487467D01*
X148961931Y-105309007D01*
X148967414Y-105299511D01*
X149059490Y-105102053D01*
X149063236Y-105091761D01*
X149109394Y-104919497D01*
X149109058Y-104905401D01*
X149101116Y-104902000D01*
X148100115Y-104902000D01*
X148084876Y-104906475D01*
X148083671Y-104907865D01*
X148082000Y-104915548D01*
X148082000Y-105915967D01*
X147574000Y-105915967D01*
X147574000Y-104520000D01*
X147594002Y-104451879D01*
X147647658Y-104405386D01*
X147700000Y-104394000D01*
X149095967Y-104394000D01*
X149109498Y-104390027D01*
X149110727Y-104381478D01*
X149063236Y-104204239D01*
X149059488Y-104193942D01*
X149058000Y-104190751D01*
X149057766Y-104189211D01*
X149057607Y-104188774D01*
X149057695Y-104188742D01*
X149047338Y-104120559D01*
X149076317Y-104055746D01*
X149135737Y-104016890D01*
X149172194Y-104011500D01*
X154099233Y-104011500D01*
X154110418Y-104012027D01*
X154117909Y-104013702D01*
X154118126Y-104013695D01*
X154180876Y-104038745D01*
X154222115Y-104096536D01*
X154225562Y-104167449D01*
X154217280Y-104191114D01*
X154213716Y-104198757D01*
X154212294Y-104204065D01*
X154212293Y-104204067D01*
X154155881Y-104414598D01*
X154154457Y-104419913D01*
X154134502Y-104648000D01*
X154154457Y-104876087D01*
X154155881Y-104881400D01*
X154155881Y-104881402D01*
X154212247Y-105091759D01*
X154213716Y-105097243D01*
X154216039Y-105102224D01*
X154216039Y-105102225D01*
X154308151Y-105299762D01*
X154308154Y-105299767D01*
X154310477Y-105304749D01*
X154441802Y-105492300D01*
X154603700Y-105654198D01*
X154608208Y-105657355D01*
X154608211Y-105657357D01*
X154649542Y-105686297D01*
X154791251Y-105785523D01*
X154796233Y-105787846D01*
X154796238Y-105787849D01*
X154981616Y-105874291D01*
X154998757Y-105882284D01*
X155004065Y-105883706D01*
X155004067Y-105883707D01*
X155214598Y-105940119D01*
X155214600Y-105940119D01*
X155219913Y-105941543D01*
X155448000Y-105961498D01*
X155676087Y-105941543D01*
X155681400Y-105940119D01*
X155681402Y-105940119D01*
X155891933Y-105883707D01*
X155891935Y-105883706D01*
X155897243Y-105882284D01*
X155914384Y-105874291D01*
X156099762Y-105787849D01*
X156099767Y-105787846D01*
X156104749Y-105785523D01*
X156246458Y-105686297D01*
X156287789Y-105657357D01*
X156287792Y-105657355D01*
X156292300Y-105654198D01*
X156454198Y-105492300D01*
X156457582Y-105487467D01*
X156564181Y-105335229D01*
X156619638Y-105290901D01*
X156667394Y-105281500D01*
X158798233Y-105281500D01*
X158809416Y-105282027D01*
X158816909Y-105283702D01*
X158824835Y-105283453D01*
X158824836Y-105283453D01*
X158884986Y-105281562D01*
X158888945Y-105281500D01*
X158916856Y-105281500D01*
X158920791Y-105281003D01*
X158920856Y-105280995D01*
X158932693Y-105280062D01*
X158964951Y-105279048D01*
X158968970Y-105278922D01*
X158976889Y-105278673D01*
X158996343Y-105273021D01*
X159015700Y-105269013D01*
X159027930Y-105267468D01*
X159027931Y-105267468D01*
X159035797Y-105266474D01*
X159043168Y-105263555D01*
X159043170Y-105263555D01*
X159076912Y-105250196D01*
X159088142Y-105246351D01*
X159122983Y-105236229D01*
X159122984Y-105236229D01*
X159130593Y-105234018D01*
X159137412Y-105229985D01*
X159137417Y-105229983D01*
X159148028Y-105223707D01*
X159165776Y-105215012D01*
X159184617Y-105207552D01*
X159220387Y-105181564D01*
X159230307Y-105175048D01*
X159261535Y-105156580D01*
X159261538Y-105156578D01*
X159268362Y-105152542D01*
X159282683Y-105138221D01*
X159297717Y-105125380D01*
X159307694Y-105118131D01*
X159314107Y-105113472D01*
X159342298Y-105079395D01*
X159350288Y-105070616D01*
X162187507Y-102233397D01*
X162249819Y-102199371D01*
X162281219Y-102196577D01*
X162362672Y-102199564D01*
X162362677Y-102199564D01*
X162367837Y-102199753D01*
X162372958Y-102199097D01*
X162584288Y-102172025D01*
X162584289Y-102172025D01*
X162589416Y-102171368D01*
X162594366Y-102169883D01*
X162798429Y-102108661D01*
X162798434Y-102108659D01*
X162803384Y-102107174D01*
X163003994Y-102008896D01*
X163185860Y-101879173D01*
X163237582Y-101827632D01*
X163311616Y-101753856D01*
X163344096Y-101721489D01*
X163363309Y-101694752D01*
X163471435Y-101544277D01*
X163474453Y-101540077D01*
X163479741Y-101529379D01*
X163571136Y-101344453D01*
X163571137Y-101344451D01*
X163573430Y-101339811D01*
X163638370Y-101126069D01*
X163667529Y-100904590D01*
X163667917Y-100888716D01*
X163669074Y-100841365D01*
X163669074Y-100841361D01*
X163669156Y-100838000D01*
X163650852Y-100615361D01*
X163596431Y-100398702D01*
X163507354Y-100193840D01*
X163466599Y-100130842D01*
X163388822Y-100010617D01*
X163388820Y-100010614D01*
X163386014Y-100006277D01*
X163235670Y-99841051D01*
X163231619Y-99837852D01*
X163231615Y-99837848D01*
X163064414Y-99705800D01*
X163064410Y-99705798D01*
X163060359Y-99702598D01*
X163019053Y-99679796D01*
X162969084Y-99629364D01*
X162954312Y-99559921D01*
X162979428Y-99493516D01*
X163006780Y-99466909D01*
X163054429Y-99432921D01*
X163185860Y-99339173D01*
X163194588Y-99330476D01*
X163310296Y-99215171D01*
X163344096Y-99181489D01*
X163370361Y-99144938D01*
X163471435Y-99004277D01*
X163474453Y-99000077D01*
X163518354Y-98911251D01*
X163571136Y-98804453D01*
X163571137Y-98804451D01*
X163573430Y-98799811D01*
X163638370Y-98586069D01*
X163667529Y-98364590D01*
X163667917Y-98348716D01*
X163669074Y-98301365D01*
X163669074Y-98301361D01*
X163669156Y-98298000D01*
X163650852Y-98075361D01*
X163596431Y-97858702D01*
X163507354Y-97653840D01*
X163420411Y-97519446D01*
X163388822Y-97470617D01*
X163388820Y-97470614D01*
X163386014Y-97466277D01*
X163235670Y-97301051D01*
X163231619Y-97297852D01*
X163231615Y-97297848D01*
X163064414Y-97165800D01*
X163064410Y-97165798D01*
X163060359Y-97162598D01*
X163019053Y-97139796D01*
X162969084Y-97089364D01*
X162954312Y-97019921D01*
X162979428Y-96953516D01*
X163006780Y-96926909D01*
X163100109Y-96860338D01*
X163185860Y-96799173D01*
X163194588Y-96790476D01*
X163340435Y-96645137D01*
X163344096Y-96641489D01*
X163370361Y-96604938D01*
X163471435Y-96464277D01*
X163474453Y-96460077D01*
X163482002Y-96444804D01*
X163571136Y-96264453D01*
X163571137Y-96264451D01*
X163573430Y-96259811D01*
X163625333Y-96088980D01*
X163636865Y-96051023D01*
X163636865Y-96051021D01*
X163638370Y-96046069D01*
X163667529Y-95824590D01*
X163667917Y-95808716D01*
X163669074Y-95761365D01*
X163669074Y-95761361D01*
X163669156Y-95758000D01*
X163650852Y-95535361D01*
X163596431Y-95318702D01*
X163507354Y-95113840D01*
X163442847Y-95014128D01*
X163388822Y-94930617D01*
X163388820Y-94930614D01*
X163386014Y-94926277D01*
X163235670Y-94761051D01*
X163231619Y-94757852D01*
X163231615Y-94757848D01*
X163064414Y-94625800D01*
X163064410Y-94625798D01*
X163060359Y-94622598D01*
X163040500Y-94611635D01*
X163034875Y-94608530D01*
X163018569Y-94599529D01*
X162968598Y-94549097D01*
X162953826Y-94479654D01*
X162978942Y-94413248D01*
X163006294Y-94386641D01*
X163181328Y-94261792D01*
X163189200Y-94255139D01*
X163340052Y-94104812D01*
X163346730Y-94096965D01*
X163471003Y-93924020D01*
X163476313Y-93915183D01*
X163570670Y-93724267D01*
X163574469Y-93714672D01*
X163636377Y-93510910D01*
X163638555Y-93500837D01*
X163639986Y-93489962D01*
X163637775Y-93475778D01*
X163624617Y-93472000D01*
X160971110Y-93472000D01*
X160971110Y-93467580D01*
X160933260Y-93467574D01*
X160879684Y-93435779D01*
X160269652Y-92825747D01*
X160262112Y-92817461D01*
X160258000Y-92810982D01*
X160242256Y-92796197D01*
X160208349Y-92764357D01*
X160205507Y-92761602D01*
X160185770Y-92741865D01*
X160182573Y-92739385D01*
X160173551Y-92731680D01*
X160171230Y-92729500D01*
X160141321Y-92701414D01*
X160134375Y-92697595D01*
X160134372Y-92697593D01*
X160123566Y-92691652D01*
X160107047Y-92680801D01*
X160106583Y-92680441D01*
X160091041Y-92668386D01*
X160083772Y-92665241D01*
X160083768Y-92665238D01*
X160050463Y-92650826D01*
X160039813Y-92645609D01*
X160001060Y-92624305D01*
X159981437Y-92619267D01*
X159962734Y-92612863D01*
X159951420Y-92607967D01*
X159951419Y-92607967D01*
X159944145Y-92604819D01*
X159936322Y-92603580D01*
X159936312Y-92603577D01*
X159900476Y-92597901D01*
X159888856Y-92595495D01*
X159853711Y-92586472D01*
X159853710Y-92586472D01*
X159846030Y-92584500D01*
X159825776Y-92584500D01*
X159806065Y-92582949D01*
X159793886Y-92581020D01*
X159786057Y-92579780D01*
X159778165Y-92580526D01*
X159742039Y-92583941D01*
X159730181Y-92584500D01*
X159586745Y-92584500D01*
X159518624Y-92564498D01*
X159472131Y-92510842D01*
X159462027Y-92440568D01*
X159472552Y-92405247D01*
X159473959Y-92402230D01*
X159473961Y-92402225D01*
X159476284Y-92397243D01*
X159512007Y-92263926D01*
X159534119Y-92181402D01*
X159534119Y-92181400D01*
X159535543Y-92176087D01*
X159555498Y-91948000D01*
X159535543Y-91719913D01*
X159533537Y-91712427D01*
X159477707Y-91504067D01*
X159477706Y-91504064D01*
X159476284Y-91498757D01*
X159472551Y-91490751D01*
X159381849Y-91296238D01*
X159381846Y-91296233D01*
X159379523Y-91291251D01*
X159248198Y-91103700D01*
X159086300Y-90941802D01*
X159081792Y-90938645D01*
X159081789Y-90938643D01*
X158982934Y-90869424D01*
X158898749Y-90810477D01*
X158893767Y-90808154D01*
X158893762Y-90808151D01*
X158696225Y-90716039D01*
X158696224Y-90716039D01*
X158691243Y-90713716D01*
X158685935Y-90712294D01*
X158685933Y-90712293D01*
X158475402Y-90655881D01*
X158475400Y-90655881D01*
X158470087Y-90654457D01*
X158242000Y-90634502D01*
X158013913Y-90654457D01*
X158008600Y-90655881D01*
X158008598Y-90655881D01*
X157798067Y-90712293D01*
X157798065Y-90712294D01*
X157792757Y-90713716D01*
X157787776Y-90716039D01*
X157787775Y-90716039D01*
X157590238Y-90808151D01*
X157590233Y-90808154D01*
X157585251Y-90810477D01*
X157501066Y-90869424D01*
X157402211Y-90938643D01*
X157402208Y-90938645D01*
X157397700Y-90941802D01*
X157235802Y-91103700D01*
X157104477Y-91291251D01*
X157102154Y-91296233D01*
X157102151Y-91296238D01*
X157011449Y-91490751D01*
X157007716Y-91498757D01*
X157006294Y-91504064D01*
X157006293Y-91504067D01*
X156982289Y-91593652D01*
X156968339Y-91645715D01*
X156966707Y-91651804D01*
X156929755Y-91712427D01*
X156865894Y-91743448D01*
X156795400Y-91735020D01*
X156740653Y-91689817D01*
X156723293Y-91651804D01*
X156721662Y-91645715D01*
X156707711Y-91593652D01*
X156683707Y-91504067D01*
X156683706Y-91504064D01*
X156682284Y-91498757D01*
X156678551Y-91490751D01*
X156587849Y-91296238D01*
X156587846Y-91296233D01*
X156585523Y-91291251D01*
X156454198Y-91103700D01*
X156292300Y-90941802D01*
X156287792Y-90938645D01*
X156287789Y-90938643D01*
X156188934Y-90869424D01*
X156104749Y-90810477D01*
X156099767Y-90808154D01*
X156099762Y-90808151D01*
X156064951Y-90791919D01*
X156011666Y-90745002D01*
X155992205Y-90676725D01*
X156012747Y-90608765D01*
X156064951Y-90563529D01*
X156099511Y-90547414D01*
X156109007Y-90541931D01*
X156287467Y-90416972D01*
X156295875Y-90409916D01*
X156449916Y-90255875D01*
X156456972Y-90247467D01*
X156581931Y-90069007D01*
X156587414Y-90059511D01*
X156679490Y-89862053D01*
X156683236Y-89851761D01*
X156729394Y-89679497D01*
X156729058Y-89665401D01*
X156721116Y-89662000D01*
X154180033Y-89662000D01*
X154166502Y-89665973D01*
X154165273Y-89674522D01*
X154212764Y-89851761D01*
X154216510Y-89862053D01*
X154308586Y-90059511D01*
X154314069Y-90069007D01*
X154439028Y-90247467D01*
X154446084Y-90255875D01*
X154600125Y-90409916D01*
X154608533Y-90416972D01*
X154786993Y-90541931D01*
X154796489Y-90547414D01*
X154831049Y-90563529D01*
X154884334Y-90610446D01*
X154903795Y-90678723D01*
X154883253Y-90746683D01*
X154831049Y-90791919D01*
X154796238Y-90808151D01*
X154796233Y-90808154D01*
X154791251Y-90810477D01*
X154707066Y-90869424D01*
X154608211Y-90938643D01*
X154608208Y-90938645D01*
X154603700Y-90941802D01*
X154441802Y-91103700D01*
X154310477Y-91291251D01*
X154308154Y-91296233D01*
X154308151Y-91296238D01*
X154217449Y-91490751D01*
X154213716Y-91498757D01*
X154212294Y-91504064D01*
X154212293Y-91504067D01*
X154156463Y-91712427D01*
X154154457Y-91719913D01*
X154134502Y-91948000D01*
X154134981Y-91953475D01*
X154134981Y-91953486D01*
X154136026Y-91965430D01*
X154122038Y-92035035D01*
X154072639Y-92086027D01*
X154003513Y-92102218D01*
X153936607Y-92078466D01*
X153921411Y-92065507D01*
X151639188Y-89783283D01*
X149173405Y-87317500D01*
X149139379Y-87255188D01*
X149136500Y-87228405D01*
X149136500Y-86019866D01*
X149129745Y-85957684D01*
X149078615Y-85821295D01*
X148991261Y-85704739D01*
X148874705Y-85617385D01*
X148738316Y-85566255D01*
X148676134Y-85559500D01*
X146979866Y-85559500D01*
X146917684Y-85566255D01*
X146781295Y-85617385D01*
X146664739Y-85704739D01*
X146577385Y-85821295D01*
X146526255Y-85957684D01*
X146519500Y-86019866D01*
X146519500Y-86414242D01*
X146499498Y-86482363D01*
X146445842Y-86528856D01*
X146375568Y-86538960D01*
X146310988Y-86509466D01*
X146271793Y-86446853D01*
X146269707Y-86439067D01*
X146269706Y-86439065D01*
X146268284Y-86433757D01*
X146263764Y-86424064D01*
X146173849Y-86231238D01*
X146173846Y-86231233D01*
X146171523Y-86226251D01*
X146089073Y-86108500D01*
X146043357Y-86043211D01*
X146043355Y-86043208D01*
X146040198Y-86038700D01*
X145878300Y-85876802D01*
X145873792Y-85873645D01*
X145873789Y-85873643D01*
X145745608Y-85783890D01*
X145690749Y-85745477D01*
X145685767Y-85743154D01*
X145685762Y-85743151D01*
X145651543Y-85727195D01*
X145598258Y-85680278D01*
X145578797Y-85612001D01*
X145599339Y-85544041D01*
X145651543Y-85498805D01*
X145685762Y-85482849D01*
X145685767Y-85482846D01*
X145690749Y-85480523D01*
X145811601Y-85395901D01*
X145873789Y-85352357D01*
X145873792Y-85352355D01*
X145878300Y-85349198D01*
X146040198Y-85187300D01*
X146047973Y-85176197D01*
X146168366Y-85004257D01*
X146171523Y-84999749D01*
X146173846Y-84994767D01*
X146173849Y-84994762D01*
X146241308Y-84850095D01*
X152299001Y-84850095D01*
X152299338Y-84856614D01*
X152309257Y-84952206D01*
X152312149Y-84965600D01*
X152363588Y-85119784D01*
X152369761Y-85132962D01*
X152455063Y-85270807D01*
X152464099Y-85282208D01*
X152578829Y-85396739D01*
X152590240Y-85405751D01*
X152728243Y-85490816D01*
X152741424Y-85496963D01*
X152895710Y-85548138D01*
X152909086Y-85551005D01*
X153003438Y-85560672D01*
X153009854Y-85561000D01*
X153122385Y-85561000D01*
X153137624Y-85556525D01*
X153138829Y-85555135D01*
X153140500Y-85547452D01*
X153140500Y-84600115D01*
X153136025Y-84584876D01*
X153134635Y-84583671D01*
X153126952Y-84582000D01*
X152317116Y-84582000D01*
X152301877Y-84586475D01*
X152300672Y-84587865D01*
X152299001Y-84595548D01*
X152299001Y-84850095D01*
X146241308Y-84850095D01*
X146265961Y-84797225D01*
X146265961Y-84797224D01*
X146268284Y-84792243D01*
X146270969Y-84782225D01*
X146326119Y-84576402D01*
X146326119Y-84576400D01*
X146327543Y-84571087D01*
X146347498Y-84343000D01*
X146327543Y-84114913D01*
X146324992Y-84105393D01*
X146269707Y-83899067D01*
X146269706Y-83899065D01*
X146268284Y-83893757D01*
X146261290Y-83878757D01*
X146228421Y-83808270D01*
X146217760Y-83738078D01*
X146246740Y-83673265D01*
X146306160Y-83634409D01*
X146342616Y-83629020D01*
X152177219Y-83629020D01*
X152245340Y-83649022D01*
X152291833Y-83702678D01*
X152302563Y-83767863D01*
X152299328Y-83799440D01*
X152299000Y-83805855D01*
X152299000Y-84055885D01*
X152303475Y-84071124D01*
X152304865Y-84072329D01*
X152312548Y-84074000D01*
X153522500Y-84074000D01*
X153590621Y-84094002D01*
X153637114Y-84147658D01*
X153648500Y-84200000D01*
X153648500Y-85542884D01*
X153652975Y-85558123D01*
X153654365Y-85559328D01*
X153662048Y-85560999D01*
X153779095Y-85560999D01*
X153785614Y-85560662D01*
X153881206Y-85550743D01*
X153894600Y-85547851D01*
X154048784Y-85496412D01*
X154061962Y-85490239D01*
X154199807Y-85404937D01*
X154211208Y-85395901D01*
X154325738Y-85281172D01*
X154332794Y-85272238D01*
X154390712Y-85231177D01*
X154461635Y-85227947D01*
X154523046Y-85263574D01*
X154529846Y-85271407D01*
X154533522Y-85277348D01*
X154538704Y-85282521D01*
X154652518Y-85396137D01*
X154686597Y-85458420D01*
X154689500Y-85485310D01*
X154689500Y-85736133D01*
X154669498Y-85804254D01*
X154635772Y-85839345D01*
X154603700Y-85861802D01*
X154441802Y-86023700D01*
X154438645Y-86028208D01*
X154438643Y-86028211D01*
X154431299Y-86038700D01*
X154310477Y-86211251D01*
X154308154Y-86216233D01*
X154308151Y-86216238D01*
X154226836Y-86390620D01*
X154213716Y-86418757D01*
X154212294Y-86424064D01*
X154212293Y-86424067D01*
X154160373Y-86617834D01*
X154154457Y-86639913D01*
X154134502Y-86868000D01*
X154154457Y-87096087D01*
X154155881Y-87101400D01*
X154155881Y-87101402D01*
X154174717Y-87171696D01*
X154213716Y-87317243D01*
X154216039Y-87322224D01*
X154216039Y-87322225D01*
X154308151Y-87519762D01*
X154308154Y-87519767D01*
X154310477Y-87524749D01*
X154441802Y-87712300D01*
X154603700Y-87874198D01*
X154608208Y-87877355D01*
X154608211Y-87877357D01*
X154649542Y-87906297D01*
X154791251Y-88005523D01*
X154796233Y-88007846D01*
X154796238Y-88007849D01*
X154831049Y-88024081D01*
X154884334Y-88070998D01*
X154903795Y-88139275D01*
X154883253Y-88207235D01*
X154831049Y-88252471D01*
X154796489Y-88268586D01*
X154786993Y-88274069D01*
X154608533Y-88399028D01*
X154600125Y-88406084D01*
X154446084Y-88560125D01*
X154439028Y-88568533D01*
X154314069Y-88746993D01*
X154308586Y-88756489D01*
X154216510Y-88953947D01*
X154212764Y-88964239D01*
X154166606Y-89136503D01*
X154166942Y-89150599D01*
X154174884Y-89154000D01*
X156715967Y-89154000D01*
X156729498Y-89150027D01*
X156730727Y-89141478D01*
X156683236Y-88964239D01*
X156679490Y-88953947D01*
X156587414Y-88756489D01*
X156581931Y-88746993D01*
X156456972Y-88568533D01*
X156449916Y-88560125D01*
X156295875Y-88406084D01*
X156287467Y-88399028D01*
X156109007Y-88274069D01*
X156099511Y-88268586D01*
X156064951Y-88252471D01*
X156011666Y-88205554D01*
X155992205Y-88137277D01*
X156012747Y-88069317D01*
X156064951Y-88024081D01*
X156099762Y-88007849D01*
X156099767Y-88007846D01*
X156104749Y-88005523D01*
X156246458Y-87906297D01*
X156287789Y-87877357D01*
X156287792Y-87877355D01*
X156292300Y-87874198D01*
X156395403Y-87771095D01*
X159157001Y-87771095D01*
X159157338Y-87777614D01*
X159167257Y-87873206D01*
X159170149Y-87886600D01*
X159221588Y-88040784D01*
X159227761Y-88053962D01*
X159313063Y-88191807D01*
X159322099Y-88203208D01*
X159436829Y-88317739D01*
X159448240Y-88326751D01*
X159586243Y-88411816D01*
X159599424Y-88417963D01*
X159753710Y-88469138D01*
X159767086Y-88472005D01*
X159861438Y-88481672D01*
X159867854Y-88482000D01*
X159980385Y-88482000D01*
X159995624Y-88477525D01*
X159996829Y-88476135D01*
X159998500Y-88468452D01*
X159998500Y-87521115D01*
X159994025Y-87505876D01*
X159992635Y-87504671D01*
X159984952Y-87503000D01*
X159175116Y-87503000D01*
X159159877Y-87507475D01*
X159158672Y-87508865D01*
X159157001Y-87516548D01*
X159157001Y-87771095D01*
X156395403Y-87771095D01*
X156454198Y-87712300D01*
X156585523Y-87524749D01*
X156587846Y-87519767D01*
X156587849Y-87519762D01*
X156679961Y-87322225D01*
X156679961Y-87322224D01*
X156682284Y-87317243D01*
X156721284Y-87171696D01*
X156740119Y-87101402D01*
X156740119Y-87101400D01*
X156741543Y-87096087D01*
X156751972Y-86976885D01*
X159157000Y-86976885D01*
X159161475Y-86992124D01*
X159162865Y-86993329D01*
X159170548Y-86995000D01*
X159980385Y-86995000D01*
X159995624Y-86990525D01*
X159996829Y-86989135D01*
X159998500Y-86981452D01*
X159998500Y-86034116D01*
X159994025Y-86018877D01*
X159992635Y-86017672D01*
X159984952Y-86016001D01*
X159867905Y-86016001D01*
X159861386Y-86016338D01*
X159765794Y-86026257D01*
X159752400Y-86029149D01*
X159598216Y-86080588D01*
X159585038Y-86086761D01*
X159447193Y-86172063D01*
X159435792Y-86181099D01*
X159321261Y-86295829D01*
X159312249Y-86307240D01*
X159227184Y-86445243D01*
X159221037Y-86458424D01*
X159169862Y-86612710D01*
X159166995Y-86626086D01*
X159157328Y-86720438D01*
X159157000Y-86726855D01*
X159157000Y-86976885D01*
X156751972Y-86976885D01*
X156761498Y-86868000D01*
X156741543Y-86639913D01*
X156735627Y-86617834D01*
X156683707Y-86424067D01*
X156683706Y-86424064D01*
X156682284Y-86418757D01*
X156669164Y-86390620D01*
X156587849Y-86216238D01*
X156587846Y-86216233D01*
X156585523Y-86211251D01*
X156464701Y-86038700D01*
X156457357Y-86028211D01*
X156457355Y-86028208D01*
X156454198Y-86023700D01*
X156292300Y-85861802D01*
X156260229Y-85839345D01*
X156215901Y-85783890D01*
X156206500Y-85736133D01*
X156206500Y-85517998D01*
X156226502Y-85449877D01*
X156266199Y-85410853D01*
X156275122Y-85405332D01*
X156275129Y-85405327D01*
X156281348Y-85401478D01*
X156406305Y-85276303D01*
X156436112Y-85227947D01*
X156495275Y-85131968D01*
X156495276Y-85131966D01*
X156499115Y-85125738D01*
X156539408Y-85004257D01*
X156552632Y-84964389D01*
X156552632Y-84964387D01*
X156554797Y-84957861D01*
X156565500Y-84853400D01*
X156565500Y-83802600D01*
X156561912Y-83768023D01*
X156574776Y-83698204D01*
X156623346Y-83646421D01*
X156687239Y-83629020D01*
X160736149Y-83629020D01*
X160804270Y-83649022D01*
X160825244Y-83665925D01*
X161510595Y-84351276D01*
X161544621Y-84413588D01*
X161547500Y-84440371D01*
X161547500Y-86091492D01*
X161527498Y-86159613D01*
X161510674Y-86180508D01*
X161390695Y-86300697D01*
X161387898Y-86305235D01*
X161330647Y-86345824D01*
X161259724Y-86349054D01*
X161198313Y-86313428D01*
X161190938Y-86304932D01*
X161182902Y-86294793D01*
X161068171Y-86180261D01*
X161056760Y-86171249D01*
X160918757Y-86086184D01*
X160905576Y-86080037D01*
X160751290Y-86028862D01*
X160737914Y-86025995D01*
X160643562Y-86016328D01*
X160637145Y-86016000D01*
X160524615Y-86016000D01*
X160509376Y-86020475D01*
X160508171Y-86021865D01*
X160506500Y-86029548D01*
X160506500Y-88463884D01*
X160510975Y-88479123D01*
X160512365Y-88480328D01*
X160520048Y-88481999D01*
X160637095Y-88481999D01*
X160643614Y-88481662D01*
X160739206Y-88471743D01*
X160752600Y-88468851D01*
X160906784Y-88417412D01*
X160919962Y-88411239D01*
X161057807Y-88325937D01*
X161069208Y-88316901D01*
X161183738Y-88202172D01*
X161190794Y-88193238D01*
X161248712Y-88152177D01*
X161319635Y-88148947D01*
X161381046Y-88184574D01*
X161387846Y-88192407D01*
X161391522Y-88198348D01*
X161396704Y-88203521D01*
X161510518Y-88317137D01*
X161544597Y-88379420D01*
X161547500Y-88406310D01*
X161547500Y-89193500D01*
X161527498Y-89261621D01*
X161473842Y-89308114D01*
X161421500Y-89319500D01*
X161407866Y-89319500D01*
X161345684Y-89326255D01*
X161209295Y-89377385D01*
X161092739Y-89464739D01*
X161005385Y-89581295D01*
X160954255Y-89717684D01*
X160947500Y-89779866D01*
X160947500Y-91576134D01*
X160954255Y-91638316D01*
X161005385Y-91774705D01*
X161092739Y-91891261D01*
X161209295Y-91978615D01*
X161217704Y-91981767D01*
X161217705Y-91981768D01*
X161326960Y-92022726D01*
X161383725Y-92065367D01*
X161408425Y-92131929D01*
X161393218Y-92201278D01*
X161373825Y-92227759D01*
X161250590Y-92356717D01*
X161244104Y-92364727D01*
X161124098Y-92540649D01*
X161119000Y-92549623D01*
X161029338Y-92742783D01*
X161025775Y-92752470D01*
X160970389Y-92952183D01*
X160971912Y-92960607D01*
X160984292Y-92964000D01*
X163624344Y-92964000D01*
X163637875Y-92960027D01*
X163639180Y-92950947D01*
X163597214Y-92783875D01*
X163593894Y-92774124D01*
X163508972Y-92578814D01*
X163504105Y-92569739D01*
X163388426Y-92390926D01*
X163382136Y-92382757D01*
X163238293Y-92224677D01*
X163207241Y-92160831D01*
X163215635Y-92090333D01*
X163260812Y-92035564D01*
X163287256Y-92021895D01*
X163394297Y-91981767D01*
X163402705Y-91978615D01*
X163519261Y-91891261D01*
X163606615Y-91774705D01*
X163657745Y-91638316D01*
X163664500Y-91576134D01*
X163664500Y-89779866D01*
X163657745Y-89717684D01*
X163606615Y-89581295D01*
X163519261Y-89464739D01*
X163402705Y-89377385D01*
X163266316Y-89326255D01*
X163204134Y-89319500D01*
X163190500Y-89319500D01*
X163122379Y-89299498D01*
X163075886Y-89245842D01*
X163064500Y-89193500D01*
X163064500Y-88438998D01*
X163084502Y-88370877D01*
X163124199Y-88331853D01*
X163133122Y-88326332D01*
X163133129Y-88326327D01*
X163139348Y-88322478D01*
X163264305Y-88197303D01*
X163272151Y-88184574D01*
X163353275Y-88052968D01*
X163353276Y-88052966D01*
X163357115Y-88046738D01*
X163412797Y-87878861D01*
X163423500Y-87774400D01*
X163423500Y-86723600D01*
X163417163Y-86662520D01*
X163413238Y-86624692D01*
X163413237Y-86624688D01*
X163412526Y-86617834D01*
X163409852Y-86609817D01*
X163358868Y-86457002D01*
X163356550Y-86450054D01*
X163263478Y-86299652D01*
X163138303Y-86174695D01*
X163132069Y-86170852D01*
X163124383Y-86166114D01*
X163076890Y-86113342D01*
X163064500Y-86058855D01*
X163064500Y-84141070D01*
X163065933Y-84122120D01*
X163068099Y-84107885D01*
X163068099Y-84107881D01*
X163069199Y-84100651D01*
X163066896Y-84072329D01*
X163064915Y-84047982D01*
X163064500Y-84037767D01*
X163064500Y-84029707D01*
X163061211Y-84001493D01*
X163060778Y-83997118D01*
X163055454Y-83931661D01*
X163055453Y-83931658D01*
X163054860Y-83924363D01*
X163052604Y-83917399D01*
X163051413Y-83911440D01*
X163050029Y-83905585D01*
X163049182Y-83898319D01*
X163024265Y-83829673D01*
X163022848Y-83825545D01*
X163002607Y-83763064D01*
X163002606Y-83763062D01*
X163000351Y-83756101D01*
X162996555Y-83749846D01*
X162994049Y-83744372D01*
X162991330Y-83738942D01*
X162988833Y-83732063D01*
X162948814Y-83671024D01*
X162946467Y-83667305D01*
X162945630Y-83665925D01*
X162908595Y-83604893D01*
X162901197Y-83596516D01*
X162901224Y-83596492D01*
X162898571Y-83593500D01*
X162895868Y-83590267D01*
X162891856Y-83584148D01*
X162835617Y-83530872D01*
X162833175Y-83528494D01*
X162324776Y-83020095D01*
X162290750Y-82957783D01*
X162295815Y-82886968D01*
X162324776Y-82841905D01*
X163175911Y-81990770D01*
X163190323Y-81978384D01*
X163201918Y-81969851D01*
X163201923Y-81969846D01*
X163207818Y-81965508D01*
X163212557Y-81959930D01*
X163212560Y-81959927D01*
X163242035Y-81925232D01*
X163248965Y-81917716D01*
X163254660Y-81912021D01*
X163272281Y-81889749D01*
X163275072Y-81886345D01*
X163317591Y-81836297D01*
X163317592Y-81836295D01*
X163322333Y-81830715D01*
X163325661Y-81824199D01*
X163329020Y-81819162D01*
X163332194Y-81814023D01*
X163336734Y-81808284D01*
X163347953Y-81784279D01*
X163367636Y-81742163D01*
X163369569Y-81738209D01*
X163395946Y-81686553D01*
X163402769Y-81673192D01*
X163404510Y-81666076D01*
X163406604Y-81660446D01*
X163408523Y-81654679D01*
X163411621Y-81648050D01*
X163426483Y-81576600D01*
X163427453Y-81572315D01*
X163435303Y-81540233D01*
X163444808Y-81501390D01*
X163445500Y-81490236D01*
X163445536Y-81490238D01*
X163445775Y-81486248D01*
X163446150Y-81482050D01*
X163447640Y-81474885D01*
X163445546Y-81397479D01*
X163445500Y-81394072D01*
X163445500Y-75953286D01*
X163465502Y-75885165D01*
X163495935Y-75852460D01*
X163573080Y-75794643D01*
X163573081Y-75794642D01*
X163580261Y-75789261D01*
X163667615Y-75672705D01*
X163718745Y-75536316D01*
X163725500Y-75474134D01*
X163725500Y-73877866D01*
X163718745Y-73815684D01*
X163667615Y-73679295D01*
X163580261Y-73562739D01*
X163463705Y-73475385D01*
X163327316Y-73424255D01*
X163265134Y-73417500D01*
X162168866Y-73417500D01*
X162106684Y-73424255D01*
X162099285Y-73427029D01*
X162096146Y-73427775D01*
X162037854Y-73427775D01*
X162034715Y-73427029D01*
X162027316Y-73424255D01*
X161965134Y-73417500D01*
X160868866Y-73417500D01*
X160806684Y-73424255D01*
X160799284Y-73427029D01*
X160795058Y-73428034D01*
X160736761Y-73428034D01*
X160719354Y-73423895D01*
X160668486Y-73418369D01*
X160661672Y-73418000D01*
X160389115Y-73418000D01*
X160373876Y-73422475D01*
X160372671Y-73423865D01*
X160371000Y-73431548D01*
X160371000Y-75915884D01*
X160375475Y-75931123D01*
X160376865Y-75932328D01*
X160384548Y-75933999D01*
X160657500Y-75933999D01*
X160725621Y-75954001D01*
X160772114Y-76007657D01*
X160783500Y-76059999D01*
X160783500Y-76493500D01*
X160763498Y-76561621D01*
X160709842Y-76608114D01*
X160657500Y-76619500D01*
X159482594Y-76619500D01*
X159414473Y-76599498D01*
X159393499Y-76582595D01*
X158281574Y-75470669D01*
X159109001Y-75470669D01*
X159109371Y-75477490D01*
X159114895Y-75528352D01*
X159118521Y-75543604D01*
X159163676Y-75664054D01*
X159172214Y-75679649D01*
X159248715Y-75781724D01*
X159261276Y-75794285D01*
X159363351Y-75870786D01*
X159378946Y-75879324D01*
X159499394Y-75924478D01*
X159514649Y-75928105D01*
X159565514Y-75933631D01*
X159572328Y-75934000D01*
X159844885Y-75934000D01*
X159860124Y-75929525D01*
X159861329Y-75928135D01*
X159863000Y-75920452D01*
X159863000Y-74948115D01*
X159858525Y-74932876D01*
X159857135Y-74931671D01*
X159849452Y-74930000D01*
X159127116Y-74930000D01*
X159111877Y-74934475D01*
X159110672Y-74935865D01*
X159109001Y-74943548D01*
X159109001Y-75470669D01*
X158281574Y-75470669D01*
X157938653Y-75127748D01*
X157214790Y-74403885D01*
X159109000Y-74403885D01*
X159113475Y-74419124D01*
X159114865Y-74420329D01*
X159122548Y-74422000D01*
X159844885Y-74422000D01*
X159860124Y-74417525D01*
X159861329Y-74416135D01*
X159863000Y-74408452D01*
X159863000Y-73436116D01*
X159858525Y-73420877D01*
X159857135Y-73419672D01*
X159849452Y-73418001D01*
X159572331Y-73418001D01*
X159565510Y-73418371D01*
X159514648Y-73423895D01*
X159499396Y-73427521D01*
X159378946Y-73472676D01*
X159363351Y-73481214D01*
X159261276Y-73557715D01*
X159248715Y-73570276D01*
X159172214Y-73672351D01*
X159163676Y-73687946D01*
X159118522Y-73808394D01*
X159114895Y-73823649D01*
X159109369Y-73874514D01*
X159109000Y-73881328D01*
X159109000Y-74403885D01*
X157214790Y-74403885D01*
X156459652Y-73648747D01*
X156452112Y-73640461D01*
X156448000Y-73633982D01*
X156398348Y-73587356D01*
X156395507Y-73584602D01*
X156375770Y-73564865D01*
X156372573Y-73562385D01*
X156363551Y-73554680D01*
X156337100Y-73529841D01*
X156331321Y-73524414D01*
X156324375Y-73520595D01*
X156324372Y-73520593D01*
X156313566Y-73514652D01*
X156297047Y-73503801D01*
X156296583Y-73503441D01*
X156281041Y-73491386D01*
X156273772Y-73488241D01*
X156273768Y-73488238D01*
X156240463Y-73473826D01*
X156229813Y-73468609D01*
X156191060Y-73447305D01*
X156171437Y-73442267D01*
X156152734Y-73435863D01*
X156141420Y-73430967D01*
X156141419Y-73430967D01*
X156134145Y-73427819D01*
X156126322Y-73426580D01*
X156126312Y-73426577D01*
X156090476Y-73420901D01*
X156078861Y-73418496D01*
X156066017Y-73415199D01*
X156005009Y-73378888D01*
X155991557Y-73361601D01*
X155893014Y-73209277D01*
X155889532Y-73205450D01*
X155745798Y-73047488D01*
X155714746Y-72983642D01*
X155723141Y-72913143D01*
X155768317Y-72858375D01*
X155794761Y-72844706D01*
X155901297Y-72804767D01*
X155909705Y-72801615D01*
X156026261Y-72714261D01*
X156113615Y-72597705D01*
X156164745Y-72461316D01*
X156171500Y-72399134D01*
X156171500Y-70602866D01*
X156164745Y-70540684D01*
X156113615Y-70404295D01*
X156026261Y-70287739D01*
X155909705Y-70200385D01*
X155773316Y-70149255D01*
X155711134Y-70142500D01*
X153914866Y-70142500D01*
X153852684Y-70149255D01*
X153716295Y-70200385D01*
X153599739Y-70287739D01*
X153512385Y-70404295D01*
X153509233Y-70412703D01*
X153467919Y-70522907D01*
X153425277Y-70579671D01*
X153358716Y-70604371D01*
X153289367Y-70589163D01*
X153256743Y-70563476D01*
X153206151Y-70507875D01*
X153206142Y-70507866D01*
X153202670Y-70504051D01*
X153198619Y-70500852D01*
X153198615Y-70500848D01*
X153031414Y-70368800D01*
X153031410Y-70368798D01*
X153027359Y-70365598D01*
X153016246Y-70359463D01*
X152907093Y-70299208D01*
X152831789Y-70257638D01*
X152826920Y-70255914D01*
X152826916Y-70255912D01*
X152626087Y-70184795D01*
X152626083Y-70184794D01*
X152621212Y-70183069D01*
X152616119Y-70182162D01*
X152616116Y-70182161D01*
X152406373Y-70144800D01*
X152406367Y-70144799D01*
X152401284Y-70143894D01*
X152327452Y-70142992D01*
X152183081Y-70141228D01*
X152183079Y-70141228D01*
X152177911Y-70141165D01*
X151957091Y-70174955D01*
X151744756Y-70244357D01*
X151714443Y-70260137D01*
X151580261Y-70329988D01*
X151546607Y-70347507D01*
X151542474Y-70350610D01*
X151542471Y-70350612D01*
X151372100Y-70478530D01*
X151367965Y-70481635D01*
X151309989Y-70542303D01*
X151274280Y-70579671D01*
X151213629Y-70643138D01*
X151106201Y-70800621D01*
X151051293Y-70845621D01*
X150980768Y-70853792D01*
X150917021Y-70822538D01*
X150896324Y-70798054D01*
X150815822Y-70673617D01*
X150815820Y-70673614D01*
X150813014Y-70669277D01*
X150662670Y-70504051D01*
X150658619Y-70500852D01*
X150658615Y-70500848D01*
X150491414Y-70368800D01*
X150491410Y-70368798D01*
X150487359Y-70365598D01*
X150476246Y-70359463D01*
X150367093Y-70299208D01*
X150291789Y-70257638D01*
X150286920Y-70255914D01*
X150286916Y-70255912D01*
X150086087Y-70184795D01*
X150086083Y-70184794D01*
X150081212Y-70183069D01*
X150076119Y-70182162D01*
X150076116Y-70182161D01*
X149866373Y-70144800D01*
X149866367Y-70144799D01*
X149861284Y-70143894D01*
X149787452Y-70142992D01*
X149643081Y-70141228D01*
X149643079Y-70141228D01*
X149637911Y-70141165D01*
X149417091Y-70174955D01*
X149204756Y-70244357D01*
X149174443Y-70260137D01*
X149040261Y-70329988D01*
X149006607Y-70347507D01*
X149002474Y-70350610D01*
X149002471Y-70350612D01*
X148832100Y-70478530D01*
X148827965Y-70481635D01*
X148769989Y-70542303D01*
X148734280Y-70579671D01*
X148673629Y-70643138D01*
X148566201Y-70800621D01*
X148511293Y-70845621D01*
X148440768Y-70853792D01*
X148377021Y-70822538D01*
X148356324Y-70798054D01*
X148275822Y-70673617D01*
X148275820Y-70673614D01*
X148273014Y-70669277D01*
X148122670Y-70504051D01*
X148118619Y-70500852D01*
X148118615Y-70500848D01*
X147951414Y-70368800D01*
X147951410Y-70368798D01*
X147947359Y-70365598D01*
X147936246Y-70359463D01*
X147827093Y-70299208D01*
X147751789Y-70257638D01*
X147746920Y-70255914D01*
X147746916Y-70255912D01*
X147546087Y-70184795D01*
X147546083Y-70184794D01*
X147541212Y-70183069D01*
X147536119Y-70182162D01*
X147536116Y-70182161D01*
X147326373Y-70144800D01*
X147326367Y-70144799D01*
X147321284Y-70143894D01*
X147247452Y-70142992D01*
X147103081Y-70141228D01*
X147103079Y-70141228D01*
X147097911Y-70141165D01*
X146877091Y-70174955D01*
X146664756Y-70244357D01*
X146634443Y-70260137D01*
X146500261Y-70329988D01*
X146466607Y-70347507D01*
X146462474Y-70350610D01*
X146462471Y-70350612D01*
X146292100Y-70478530D01*
X146287965Y-70481635D01*
X146229989Y-70542303D01*
X146194280Y-70579671D01*
X146133629Y-70643138D01*
X146026201Y-70800621D01*
X145971293Y-70845621D01*
X145900768Y-70853792D01*
X145837021Y-70822538D01*
X145816324Y-70798054D01*
X145735822Y-70673617D01*
X145735820Y-70673614D01*
X145733014Y-70669277D01*
X145582670Y-70504051D01*
X145578619Y-70500852D01*
X145578615Y-70500848D01*
X145411414Y-70368800D01*
X145411410Y-70368798D01*
X145407359Y-70365598D01*
X145396246Y-70359463D01*
X145287093Y-70299208D01*
X145211789Y-70257638D01*
X145206920Y-70255914D01*
X145206916Y-70255912D01*
X145006087Y-70184795D01*
X145006083Y-70184794D01*
X145001212Y-70183069D01*
X144996119Y-70182162D01*
X144996116Y-70182161D01*
X144786373Y-70144800D01*
X144786367Y-70144799D01*
X144781284Y-70143894D01*
X144707452Y-70142992D01*
X144563081Y-70141228D01*
X144563079Y-70141228D01*
X144557911Y-70141165D01*
X144337091Y-70174955D01*
X144124756Y-70244357D01*
X144094443Y-70260137D01*
X143960261Y-70329988D01*
X143926607Y-70347507D01*
X143922474Y-70350610D01*
X143922471Y-70350612D01*
X143752100Y-70478530D01*
X143747965Y-70481635D01*
X143689989Y-70542303D01*
X143654280Y-70579671D01*
X143593629Y-70643138D01*
X143486201Y-70800621D01*
X143431293Y-70845621D01*
X143360768Y-70853792D01*
X143297021Y-70822538D01*
X143276324Y-70798054D01*
X143195822Y-70673617D01*
X143195820Y-70673614D01*
X143193014Y-70669277D01*
X143042670Y-70504051D01*
X143038619Y-70500852D01*
X143038615Y-70500848D01*
X142871414Y-70368800D01*
X142871410Y-70368798D01*
X142867359Y-70365598D01*
X142856246Y-70359463D01*
X142747093Y-70299208D01*
X142671789Y-70257638D01*
X142666920Y-70255914D01*
X142666916Y-70255912D01*
X142466087Y-70184795D01*
X142466083Y-70184794D01*
X142461212Y-70183069D01*
X142456119Y-70182162D01*
X142456116Y-70182161D01*
X142246373Y-70144800D01*
X142246367Y-70144799D01*
X142241284Y-70143894D01*
X142167452Y-70142992D01*
X142023081Y-70141228D01*
X142023079Y-70141228D01*
X142017911Y-70141165D01*
X141797091Y-70174955D01*
X141584756Y-70244357D01*
X141554443Y-70260137D01*
X141420261Y-70329988D01*
X141386607Y-70347507D01*
X141382474Y-70350610D01*
X141382471Y-70350612D01*
X141212100Y-70478530D01*
X141207965Y-70481635D01*
X141149989Y-70542303D01*
X141114280Y-70579671D01*
X141053629Y-70643138D01*
X140946201Y-70800621D01*
X140891293Y-70845621D01*
X140820768Y-70853792D01*
X140757021Y-70822538D01*
X140736324Y-70798054D01*
X140655822Y-70673617D01*
X140655820Y-70673614D01*
X140653014Y-70669277D01*
X140502670Y-70504051D01*
X140498619Y-70500852D01*
X140498615Y-70500848D01*
X140331414Y-70368800D01*
X140331410Y-70368798D01*
X140327359Y-70365598D01*
X140316246Y-70359463D01*
X140207093Y-70299208D01*
X140131789Y-70257638D01*
X140126920Y-70255914D01*
X140126916Y-70255912D01*
X139926087Y-70184795D01*
X139926083Y-70184794D01*
X139921212Y-70183069D01*
X139916119Y-70182162D01*
X139916116Y-70182161D01*
X139706373Y-70144800D01*
X139706367Y-70144799D01*
X139701284Y-70143894D01*
X139627452Y-70142992D01*
X139483081Y-70141228D01*
X139483079Y-70141228D01*
X139477911Y-70141165D01*
X139257091Y-70174955D01*
X139044756Y-70244357D01*
X139014443Y-70260137D01*
X138880261Y-70329988D01*
X138846607Y-70347507D01*
X138842474Y-70350610D01*
X138842471Y-70350612D01*
X138672100Y-70478530D01*
X138667965Y-70481635D01*
X138609989Y-70542303D01*
X138574280Y-70579671D01*
X138513629Y-70643138D01*
X138406201Y-70800621D01*
X138351293Y-70845621D01*
X138280768Y-70853792D01*
X138217021Y-70822538D01*
X138196324Y-70798054D01*
X138115822Y-70673617D01*
X138115820Y-70673614D01*
X138113014Y-70669277D01*
X137962670Y-70504051D01*
X137958619Y-70500852D01*
X137958615Y-70500848D01*
X137791414Y-70368800D01*
X137791410Y-70368798D01*
X137787359Y-70365598D01*
X137776246Y-70359463D01*
X137667093Y-70299208D01*
X137591789Y-70257638D01*
X137586920Y-70255914D01*
X137586916Y-70255912D01*
X137386087Y-70184795D01*
X137386083Y-70184794D01*
X137381212Y-70183069D01*
X137376119Y-70182162D01*
X137376116Y-70182161D01*
X137166373Y-70144800D01*
X137166367Y-70144799D01*
X137161284Y-70143894D01*
X137087452Y-70142992D01*
X136943081Y-70141228D01*
X136943079Y-70141228D01*
X136937911Y-70141165D01*
X136717091Y-70174955D01*
X136504756Y-70244357D01*
X136474443Y-70260137D01*
X136340261Y-70329988D01*
X136306607Y-70347507D01*
X136302474Y-70350610D01*
X136302471Y-70350612D01*
X136132100Y-70478530D01*
X136127965Y-70481635D01*
X136069989Y-70542303D01*
X136034280Y-70579671D01*
X135973629Y-70643138D01*
X135866201Y-70800621D01*
X135811293Y-70845621D01*
X135740768Y-70853792D01*
X135677021Y-70822538D01*
X135656324Y-70798054D01*
X135575822Y-70673617D01*
X135575820Y-70673614D01*
X135573014Y-70669277D01*
X135422670Y-70504051D01*
X135418619Y-70500852D01*
X135418615Y-70500848D01*
X135251414Y-70368800D01*
X135251410Y-70368798D01*
X135247359Y-70365598D01*
X135236246Y-70359463D01*
X135127093Y-70299208D01*
X135051789Y-70257638D01*
X135046920Y-70255914D01*
X135046916Y-70255912D01*
X134846087Y-70184795D01*
X134846083Y-70184794D01*
X134841212Y-70183069D01*
X134836119Y-70182162D01*
X134836116Y-70182161D01*
X134626373Y-70144800D01*
X134626367Y-70144799D01*
X134621284Y-70143894D01*
X134547452Y-70142992D01*
X134403081Y-70141228D01*
X134403079Y-70141228D01*
X134397911Y-70141165D01*
X134177091Y-70174955D01*
X133964756Y-70244357D01*
X133934443Y-70260137D01*
X133800261Y-70329988D01*
X133766607Y-70347507D01*
X133762474Y-70350610D01*
X133762471Y-70350612D01*
X133592100Y-70478530D01*
X133587965Y-70481635D01*
X133529989Y-70542303D01*
X133494280Y-70579671D01*
X133433629Y-70643138D01*
X133326201Y-70800621D01*
X133271293Y-70845621D01*
X133200768Y-70853792D01*
X133137021Y-70822538D01*
X133116324Y-70798054D01*
X133035822Y-70673617D01*
X133035820Y-70673614D01*
X133033014Y-70669277D01*
X132882670Y-70504051D01*
X132878619Y-70500852D01*
X132878615Y-70500848D01*
X132711414Y-70368800D01*
X132711410Y-70368798D01*
X132707359Y-70365598D01*
X132696246Y-70359463D01*
X132587093Y-70299208D01*
X132511789Y-70257638D01*
X132506920Y-70255914D01*
X132506916Y-70255912D01*
X132306087Y-70184795D01*
X132306083Y-70184794D01*
X132301212Y-70183069D01*
X132296119Y-70182162D01*
X132296116Y-70182161D01*
X132086373Y-70144800D01*
X132086367Y-70144799D01*
X132081284Y-70143894D01*
X132007452Y-70142992D01*
X131863081Y-70141228D01*
X131863079Y-70141228D01*
X131857911Y-70141165D01*
X131637091Y-70174955D01*
X131424756Y-70244357D01*
X131226607Y-70347507D01*
X131224175Y-70349333D01*
X131156469Y-70368535D01*
X131088536Y-70347903D01*
X131068539Y-70331635D01*
X129675630Y-68938725D01*
X129668090Y-68930439D01*
X129663978Y-68923960D01*
X129614326Y-68877334D01*
X129611485Y-68874580D01*
X129591748Y-68854843D01*
X129588551Y-68852363D01*
X129579529Y-68844658D01*
X129566094Y-68832042D01*
X129547299Y-68814392D01*
X129540353Y-68810573D01*
X129540350Y-68810571D01*
X129529544Y-68804630D01*
X129513025Y-68793779D01*
X129510520Y-68791836D01*
X129497019Y-68781364D01*
X129489750Y-68778219D01*
X129489746Y-68778216D01*
X129456441Y-68763804D01*
X129445791Y-68758587D01*
X129407038Y-68737283D01*
X129387415Y-68732245D01*
X129368712Y-68725841D01*
X129357398Y-68720945D01*
X129357397Y-68720945D01*
X129350123Y-68717797D01*
X129342300Y-68716558D01*
X129342290Y-68716555D01*
X129306454Y-68710879D01*
X129294834Y-68708473D01*
X129259689Y-68699450D01*
X129259688Y-68699450D01*
X129252008Y-68697478D01*
X129231754Y-68697478D01*
X129212043Y-68695927D01*
X129199864Y-68693998D01*
X129192035Y-68692758D01*
X129162764Y-68695525D01*
X129148017Y-68696919D01*
X129136159Y-68697478D01*
X121373378Y-68697478D01*
X121362195Y-68696951D01*
X121354702Y-68695276D01*
X121346776Y-68695525D01*
X121346775Y-68695525D01*
X121286625Y-68697416D01*
X121282666Y-68697478D01*
X121254755Y-68697478D01*
X121250821Y-68697975D01*
X121250820Y-68697975D01*
X121250755Y-68697983D01*
X121238918Y-68698916D01*
X121207101Y-68699916D01*
X121202640Y-68700056D01*
X121194721Y-68700305D01*
X121177065Y-68705434D01*
X121175269Y-68705956D01*
X121155917Y-68709964D01*
X121148846Y-68710858D01*
X121135814Y-68712504D01*
X121128445Y-68715421D01*
X121128443Y-68715422D01*
X121094708Y-68728778D01*
X121083480Y-68732623D01*
X121041018Y-68744960D01*
X121034196Y-68748994D01*
X121034190Y-68748997D01*
X121023579Y-68755272D01*
X121005829Y-68763968D01*
X120994367Y-68768506D01*
X120994362Y-68768509D01*
X120986994Y-68771426D01*
X120969581Y-68784077D01*
X120951236Y-68797405D01*
X120941318Y-68803921D01*
X120930074Y-68810571D01*
X120903248Y-68826436D01*
X120888924Y-68840760D01*
X120873892Y-68853599D01*
X120857504Y-68865506D01*
X120835885Y-68891639D01*
X120829323Y-68899571D01*
X120821333Y-68908351D01*
X119522248Y-70207436D01*
X119513962Y-70214976D01*
X119507483Y-70219088D01*
X119502058Y-70224865D01*
X119460858Y-70268739D01*
X119458103Y-70271581D01*
X119438366Y-70291318D01*
X119435886Y-70294515D01*
X119428183Y-70303535D01*
X119397915Y-70335767D01*
X119394096Y-70342713D01*
X119394094Y-70342716D01*
X119388153Y-70353522D01*
X119377302Y-70370041D01*
X119364887Y-70386047D01*
X119361742Y-70393316D01*
X119361739Y-70393320D01*
X119347327Y-70426625D01*
X119342110Y-70437275D01*
X119320806Y-70476028D01*
X119318835Y-70483703D01*
X119318835Y-70483704D01*
X119315768Y-70495650D01*
X119309364Y-70514354D01*
X119301320Y-70532943D01*
X119300081Y-70540766D01*
X119300078Y-70540776D01*
X119294402Y-70576612D01*
X119291996Y-70588232D01*
X119281001Y-70631058D01*
X119281001Y-70651312D01*
X119279450Y-70671022D01*
X119276281Y-70691031D01*
X119277027Y-70698923D01*
X119280442Y-70735049D01*
X119281001Y-70746907D01*
X119281001Y-74530500D01*
X119260999Y-74598621D01*
X119207343Y-74645114D01*
X119155001Y-74656500D01*
X119030513Y-74656500D01*
X119024061Y-74657872D01*
X119024056Y-74657872D01*
X118937113Y-74676353D01*
X118843712Y-74696206D01*
X118837682Y-74698891D01*
X118837681Y-74698891D01*
X118675278Y-74771197D01*
X118675276Y-74771198D01*
X118669248Y-74773882D01*
X118514747Y-74886134D01*
X118510326Y-74891044D01*
X118510325Y-74891045D01*
X118441696Y-74967266D01*
X118386960Y-75028056D01*
X118353985Y-75085171D01*
X118296016Y-75185576D01*
X118291473Y-75193444D01*
X118232458Y-75375072D01*
X118231768Y-75381633D01*
X118231768Y-75381635D01*
X118226263Y-75434011D01*
X118216337Y-75528460D01*
X118215093Y-75540292D01*
X118188080Y-75605949D01*
X118178878Y-75616217D01*
X117170345Y-76624750D01*
X117108033Y-76658776D01*
X117059154Y-76659702D01*
X116846373Y-76621800D01*
X116846367Y-76621799D01*
X116841284Y-76620894D01*
X116767452Y-76619992D01*
X116623081Y-76618228D01*
X116623079Y-76618228D01*
X116617911Y-76618165D01*
X116397091Y-76651955D01*
X116384532Y-76656060D01*
X116313568Y-76658210D01*
X116256294Y-76625389D01*
X116113405Y-76482500D01*
X116079379Y-76420188D01*
X116076500Y-76393405D01*
X116076500Y-75933000D01*
X116096502Y-75864879D01*
X116150158Y-75818386D01*
X116202500Y-75807000D01*
X116470885Y-75807000D01*
X116486124Y-75802525D01*
X116487329Y-75801135D01*
X116489000Y-75793452D01*
X116489000Y-75788884D01*
X116997000Y-75788884D01*
X117001475Y-75804123D01*
X117002865Y-75805328D01*
X117010548Y-75806999D01*
X117287669Y-75806999D01*
X117294490Y-75806629D01*
X117345352Y-75801105D01*
X117360604Y-75797479D01*
X117481054Y-75752324D01*
X117496649Y-75743786D01*
X117598724Y-75667285D01*
X117611285Y-75654724D01*
X117687786Y-75552649D01*
X117696324Y-75537054D01*
X117741478Y-75416606D01*
X117745105Y-75401351D01*
X117750631Y-75350486D01*
X117751000Y-75343672D01*
X117751000Y-74821115D01*
X117746525Y-74805876D01*
X117745135Y-74804671D01*
X117737452Y-74803000D01*
X117015115Y-74803000D01*
X116999876Y-74807475D01*
X116998671Y-74808865D01*
X116997000Y-74816548D01*
X116997000Y-75788884D01*
X116489000Y-75788884D01*
X116489000Y-74276885D01*
X116997000Y-74276885D01*
X117001475Y-74292124D01*
X117002865Y-74293329D01*
X117010548Y-74295000D01*
X117732884Y-74295000D01*
X117748123Y-74290525D01*
X117749328Y-74289135D01*
X117750999Y-74281452D01*
X117750999Y-73754331D01*
X117750629Y-73747510D01*
X117745105Y-73696648D01*
X117741479Y-73681396D01*
X117696324Y-73560946D01*
X117687786Y-73545351D01*
X117611285Y-73443276D01*
X117598724Y-73430715D01*
X117496649Y-73354214D01*
X117481054Y-73345676D01*
X117360606Y-73300522D01*
X117345351Y-73296895D01*
X117294486Y-73291369D01*
X117287672Y-73291000D01*
X117015115Y-73291000D01*
X116999876Y-73295475D01*
X116998671Y-73296865D01*
X116997000Y-73304548D01*
X116997000Y-74276885D01*
X116489000Y-74276885D01*
X116489000Y-73309116D01*
X116484525Y-73293877D01*
X116483135Y-73292672D01*
X116475452Y-73291001D01*
X116198331Y-73291001D01*
X116191510Y-73291371D01*
X116140651Y-73296895D01*
X116123236Y-73301035D01*
X116064942Y-73301034D01*
X116060716Y-73300029D01*
X116053316Y-73297255D01*
X115991134Y-73290500D01*
X114894866Y-73290500D01*
X114832684Y-73297255D01*
X114825285Y-73300029D01*
X114822146Y-73300775D01*
X114763854Y-73300775D01*
X114760715Y-73300029D01*
X114753316Y-73297255D01*
X114691134Y-73290500D01*
X113594866Y-73290500D01*
X113532684Y-73297255D01*
X113396295Y-73348385D01*
X113279739Y-73435739D01*
X113192385Y-73552295D01*
X113141255Y-73688684D01*
X113134500Y-73750866D01*
X113134500Y-75347134D01*
X112331500Y-75347134D01*
X112331500Y-70704947D01*
X112351502Y-70636826D01*
X112405158Y-70590333D01*
X112475432Y-70580229D01*
X112523335Y-70597514D01*
X112593634Y-70640593D01*
X112639239Y-70668540D01*
X112643809Y-70670433D01*
X112643813Y-70670435D01*
X112828435Y-70746907D01*
X112865409Y-70762222D01*
X112949037Y-70782299D01*
X113098637Y-70818216D01*
X113098643Y-70818217D01*
X113103450Y-70819371D01*
X113347500Y-70838578D01*
X113591550Y-70819371D01*
X113596357Y-70818217D01*
X113596363Y-70818216D01*
X113745963Y-70782299D01*
X113829591Y-70762222D01*
X113866565Y-70746907D01*
X114051187Y-70670435D01*
X114051191Y-70670433D01*
X114055761Y-70668540D01*
X114264491Y-70540630D01*
X114268251Y-70537418D01*
X114268256Y-70537415D01*
X114446880Y-70384855D01*
X114450642Y-70381642D01*
X114479796Y-70347507D01*
X114606415Y-70199256D01*
X114606418Y-70199251D01*
X114609630Y-70195491D01*
X114737540Y-69986761D01*
X114741691Y-69976741D01*
X114829328Y-69765164D01*
X114829329Y-69765162D01*
X114831222Y-69760591D01*
X114882514Y-69546947D01*
X114887216Y-69527363D01*
X114887217Y-69527357D01*
X114888371Y-69522550D01*
X114907578Y-69278500D01*
X114888371Y-69034450D01*
X114887217Y-69029643D01*
X114887216Y-69029637D01*
X114847811Y-68865506D01*
X114831222Y-68796409D01*
X114823686Y-68778216D01*
X114739435Y-68574813D01*
X114739433Y-68574809D01*
X114737540Y-68570239D01*
X114666514Y-68454335D01*
X114647976Y-68385801D01*
X114669432Y-68318125D01*
X114724072Y-68272792D01*
X114773947Y-68262500D01*
X162249726Y-68262500D01*
X162317847Y-68282502D01*
G37*
%TD.AperFunction*%
%TA.AperFunction,Conductor*%
G36*
X149339393Y-91817534D02*
G01*
X149354589Y-91830493D01*
X151519527Y-93995432D01*
X153674348Y-96150253D01*
X153681888Y-96158539D01*
X153686000Y-96165018D01*
X153691777Y-96170443D01*
X153735651Y-96211643D01*
X153738493Y-96214398D01*
X153758230Y-96234135D01*
X153761427Y-96236615D01*
X153770447Y-96244318D01*
X153802679Y-96274586D01*
X153809625Y-96278405D01*
X153809628Y-96278407D01*
X153820434Y-96284348D01*
X153836953Y-96295199D01*
X153852959Y-96307614D01*
X153860228Y-96310759D01*
X153860232Y-96310762D01*
X153893537Y-96325174D01*
X153904187Y-96330391D01*
X153942940Y-96351695D01*
X153950615Y-96353666D01*
X153950616Y-96353666D01*
X153962562Y-96356733D01*
X153981267Y-96363137D01*
X153999855Y-96371181D01*
X154007678Y-96372420D01*
X154007688Y-96372423D01*
X154043524Y-96378099D01*
X154055144Y-96380505D01*
X154090289Y-96389528D01*
X154097970Y-96391500D01*
X154105899Y-96391500D01*
X154113760Y-96392493D01*
X154113505Y-96394510D01*
X154171376Y-96411502D01*
X154217869Y-96465158D01*
X154227973Y-96535432D01*
X154217448Y-96570753D01*
X154213716Y-96578757D01*
X154212294Y-96584064D01*
X154212293Y-96584067D01*
X154156463Y-96792427D01*
X154154457Y-96799913D01*
X154134502Y-97028000D01*
X154154457Y-97256087D01*
X154155881Y-97261400D01*
X154155881Y-97261402D01*
X154211941Y-97470617D01*
X154213716Y-97477243D01*
X154216039Y-97482224D01*
X154216039Y-97482225D01*
X154308151Y-97679762D01*
X154308153Y-97679765D01*
X154310477Y-97684749D01*
X154367246Y-97765823D01*
X154432281Y-97858702D01*
X154441802Y-97872300D01*
X154603700Y-98034198D01*
X154608208Y-98037355D01*
X154608211Y-98037357D01*
X154655319Y-98070342D01*
X154791251Y-98165523D01*
X154796233Y-98167846D01*
X154796238Y-98167849D01*
X154830457Y-98183805D01*
X154883742Y-98230722D01*
X154903203Y-98298999D01*
X154882661Y-98366959D01*
X154830457Y-98412195D01*
X154796238Y-98428151D01*
X154796233Y-98428154D01*
X154791251Y-98430477D01*
X154716888Y-98482547D01*
X154608211Y-98558643D01*
X154608208Y-98558645D01*
X154603700Y-98561802D01*
X154441802Y-98723700D01*
X154438645Y-98728208D01*
X154438643Y-98728211D01*
X154431299Y-98738700D01*
X154310477Y-98911251D01*
X154308154Y-98916233D01*
X154308151Y-98916238D01*
X154219203Y-99106990D01*
X154213716Y-99118757D01*
X154212294Y-99124064D01*
X154212293Y-99124067D01*
X154156463Y-99332427D01*
X154154457Y-99339913D01*
X154134502Y-99568000D01*
X154154457Y-99796087D01*
X154155881Y-99801400D01*
X154155881Y-99801402D01*
X154211941Y-100010617D01*
X154213716Y-100017243D01*
X154216039Y-100022224D01*
X154216039Y-100022225D01*
X154308151Y-100219762D01*
X154308154Y-100219767D01*
X154310477Y-100224749D01*
X154324137Y-100244257D01*
X154432281Y-100398702D01*
X154441802Y-100412300D01*
X154603700Y-100574198D01*
X154608208Y-100577355D01*
X154608211Y-100577357D01*
X154655319Y-100610342D01*
X154791251Y-100705523D01*
X154796233Y-100707846D01*
X154796238Y-100707849D01*
X154830457Y-100723805D01*
X154883742Y-100770722D01*
X154903203Y-100838999D01*
X154882661Y-100906959D01*
X154830457Y-100952195D01*
X154796238Y-100968151D01*
X154796233Y-100968154D01*
X154791251Y-100970477D01*
X154716888Y-101022547D01*
X154608211Y-101098643D01*
X154608208Y-101098645D01*
X154603700Y-101101802D01*
X154441802Y-101263700D01*
X154438645Y-101268208D01*
X154438643Y-101268211D01*
X154431299Y-101278700D01*
X154310477Y-101451251D01*
X154308154Y-101456233D01*
X154308151Y-101456238D01*
X154222816Y-101639242D01*
X154213716Y-101658757D01*
X154212294Y-101664064D01*
X154212293Y-101664067D01*
X154156463Y-101872427D01*
X154154457Y-101879913D01*
X154134502Y-102108000D01*
X154154457Y-102336087D01*
X154171460Y-102399541D01*
X154169770Y-102470518D01*
X154138848Y-102521247D01*
X153952500Y-102707595D01*
X153890188Y-102741621D01*
X153863405Y-102744500D01*
X149172745Y-102744500D01*
X149104624Y-102724498D01*
X149058131Y-102670842D01*
X149048027Y-102600568D01*
X149058552Y-102565247D01*
X149059959Y-102562230D01*
X149059961Y-102562225D01*
X149062284Y-102557243D01*
X149101284Y-102411696D01*
X149120119Y-102341402D01*
X149120120Y-102341398D01*
X149121543Y-102336087D01*
X149141498Y-102108000D01*
X149121543Y-101879913D01*
X149119537Y-101872427D01*
X149063707Y-101664067D01*
X149063706Y-101664064D01*
X149062284Y-101658757D01*
X149053184Y-101639242D01*
X148967849Y-101456238D01*
X148967846Y-101456233D01*
X148965523Y-101451251D01*
X148844701Y-101278700D01*
X148837357Y-101268211D01*
X148837355Y-101268208D01*
X148834198Y-101263700D01*
X148672300Y-101101802D01*
X148667792Y-101098645D01*
X148667789Y-101098643D01*
X148559112Y-101022547D01*
X148484749Y-100970477D01*
X148479767Y-100968154D01*
X148479762Y-100968151D01*
X148445543Y-100952195D01*
X148392258Y-100905278D01*
X148372797Y-100837001D01*
X148393339Y-100769041D01*
X148445543Y-100723805D01*
X148479762Y-100707849D01*
X148479767Y-100707846D01*
X148484749Y-100705523D01*
X148620681Y-100610342D01*
X148667789Y-100577357D01*
X148667792Y-100577355D01*
X148672300Y-100574198D01*
X148834198Y-100412300D01*
X148843720Y-100398702D01*
X148951863Y-100244257D01*
X148965523Y-100224749D01*
X148967846Y-100219767D01*
X148967849Y-100219762D01*
X149059961Y-100022225D01*
X149059961Y-100022224D01*
X149062284Y-100017243D01*
X149064060Y-100010617D01*
X149120119Y-99801402D01*
X149120119Y-99801400D01*
X149121543Y-99796087D01*
X149141498Y-99568000D01*
X149121543Y-99339913D01*
X149119537Y-99332427D01*
X149063707Y-99124067D01*
X149063706Y-99124064D01*
X149062284Y-99118757D01*
X149056797Y-99106990D01*
X148967849Y-98916238D01*
X148967846Y-98916233D01*
X148965523Y-98911251D01*
X148844701Y-98738700D01*
X148837357Y-98728211D01*
X148837355Y-98728208D01*
X148834198Y-98723700D01*
X148672300Y-98561802D01*
X148667792Y-98558645D01*
X148667789Y-98558643D01*
X148559112Y-98482547D01*
X148484749Y-98430477D01*
X148479767Y-98428154D01*
X148479762Y-98428151D01*
X148445543Y-98412195D01*
X148392258Y-98365278D01*
X148372797Y-98297001D01*
X148393339Y-98229041D01*
X148445543Y-98183805D01*
X148479762Y-98167849D01*
X148479767Y-98167846D01*
X148484749Y-98165523D01*
X148620681Y-98070342D01*
X148667789Y-98037357D01*
X148667792Y-98037355D01*
X148672300Y-98034198D01*
X148834198Y-97872300D01*
X148843720Y-97858702D01*
X148908754Y-97765823D01*
X148965523Y-97684749D01*
X148967847Y-97679765D01*
X148967849Y-97679762D01*
X149059961Y-97482225D01*
X149059961Y-97482224D01*
X149062284Y-97477243D01*
X149064060Y-97470617D01*
X149120119Y-97261402D01*
X149120119Y-97261400D01*
X149121543Y-97256087D01*
X149141498Y-97028000D01*
X149121543Y-96799913D01*
X149119537Y-96792427D01*
X149063707Y-96584067D01*
X149063706Y-96584064D01*
X149062284Y-96578757D01*
X149057525Y-96568551D01*
X148967849Y-96376238D01*
X148967846Y-96376233D01*
X148965523Y-96371251D01*
X148871245Y-96236608D01*
X148837357Y-96188211D01*
X148837355Y-96188208D01*
X148834198Y-96183700D01*
X148672300Y-96021802D01*
X148667792Y-96018645D01*
X148667789Y-96018643D01*
X148525582Y-95919069D01*
X148484749Y-95890477D01*
X148479767Y-95888154D01*
X148479762Y-95888151D01*
X148445543Y-95872195D01*
X148392258Y-95825278D01*
X148372797Y-95757001D01*
X148393339Y-95689041D01*
X148445543Y-95643805D01*
X148479762Y-95627849D01*
X148479767Y-95627846D01*
X148484749Y-95625523D01*
X148614046Y-95534988D01*
X148667789Y-95497357D01*
X148667792Y-95497355D01*
X148672300Y-95494198D01*
X148834198Y-95332300D01*
X148843720Y-95318702D01*
X148912271Y-95220801D01*
X148965523Y-95144749D01*
X148967846Y-95139767D01*
X148967849Y-95139762D01*
X149059961Y-94942225D01*
X149059961Y-94942224D01*
X149062284Y-94937243D01*
X149064060Y-94930617D01*
X149120119Y-94721402D01*
X149120119Y-94721400D01*
X149121543Y-94716087D01*
X149141498Y-94488000D01*
X149121543Y-94259913D01*
X149118941Y-94250203D01*
X149063707Y-94044067D01*
X149063706Y-94044064D01*
X149062284Y-94038757D01*
X149057525Y-94028551D01*
X148967849Y-93836238D01*
X148967846Y-93836233D01*
X148965523Y-93831251D01*
X148871245Y-93696608D01*
X148837357Y-93648211D01*
X148837355Y-93648208D01*
X148834198Y-93643700D01*
X148672300Y-93481802D01*
X148667792Y-93478645D01*
X148667789Y-93478643D01*
X148552630Y-93398008D01*
X148484749Y-93350477D01*
X148479767Y-93348154D01*
X148479762Y-93348151D01*
X148445543Y-93332195D01*
X148392258Y-93285278D01*
X148372797Y-93217001D01*
X148393339Y-93149041D01*
X148445543Y-93103805D01*
X148479762Y-93087849D01*
X148479767Y-93087846D01*
X148484749Y-93085523D01*
X148591060Y-93011083D01*
X148667789Y-92957357D01*
X148667792Y-92957355D01*
X148672300Y-92954198D01*
X148834198Y-92792300D01*
X148840098Y-92783875D01*
X148912271Y-92680801D01*
X148965523Y-92604749D01*
X148967846Y-92599767D01*
X148967849Y-92599762D01*
X149059961Y-92402225D01*
X149059961Y-92402224D01*
X149062284Y-92397243D01*
X149098007Y-92263926D01*
X149120119Y-92181402D01*
X149120119Y-92181400D01*
X149121543Y-92176087D01*
X149141498Y-91948000D01*
X149141019Y-91942525D01*
X149141019Y-91942514D01*
X149139974Y-91930570D01*
X149153962Y-91860965D01*
X149203361Y-91809973D01*
X149272487Y-91793782D01*
X149339393Y-91817534D01*
G37*
%TD.AperFunction*%
%TA.AperFunction,Conductor*%
G36*
X140963376Y-91331502D02*
G01*
X141009869Y-91385158D01*
X141019973Y-91455432D01*
X141009449Y-91490751D01*
X141005716Y-91498757D01*
X141004294Y-91504064D01*
X141004293Y-91504067D01*
X140948463Y-91712427D01*
X140946457Y-91719913D01*
X140926502Y-91948000D01*
X140946457Y-92176087D01*
X140947881Y-92181400D01*
X140947881Y-92181402D01*
X140969994Y-92263926D01*
X141005716Y-92397243D01*
X141008039Y-92402224D01*
X141008039Y-92402225D01*
X141100151Y-92599762D01*
X141100154Y-92599767D01*
X141102477Y-92604749D01*
X141155729Y-92680801D01*
X141227903Y-92783875D01*
X141233802Y-92792300D01*
X141395700Y-92954198D01*
X141400208Y-92957355D01*
X141400211Y-92957357D01*
X141476940Y-93011083D01*
X141583251Y-93085523D01*
X141588233Y-93087846D01*
X141588238Y-93087849D01*
X141622457Y-93103805D01*
X141675742Y-93150722D01*
X141695203Y-93218999D01*
X141674661Y-93286959D01*
X141622457Y-93332195D01*
X141588238Y-93348151D01*
X141588233Y-93348154D01*
X141583251Y-93350477D01*
X141515370Y-93398008D01*
X141400211Y-93478643D01*
X141400208Y-93478645D01*
X141395700Y-93481802D01*
X141233802Y-93643700D01*
X141230645Y-93648208D01*
X141230643Y-93648211D01*
X141196755Y-93696608D01*
X141102477Y-93831251D01*
X141100154Y-93836233D01*
X141100151Y-93836238D01*
X141010475Y-94028551D01*
X141005716Y-94038757D01*
X141004294Y-94044064D01*
X141004293Y-94044067D01*
X140949059Y-94250203D01*
X140946457Y-94259913D01*
X140926502Y-94488000D01*
X140946457Y-94716087D01*
X140947881Y-94721400D01*
X140947881Y-94721402D01*
X141003941Y-94930617D01*
X141005716Y-94937243D01*
X141008039Y-94942224D01*
X141008039Y-94942225D01*
X141100151Y-95139762D01*
X141100154Y-95139767D01*
X141102477Y-95144749D01*
X141155729Y-95220801D01*
X141224281Y-95318702D01*
X141233802Y-95332300D01*
X141395700Y-95494198D01*
X141400208Y-95497355D01*
X141400211Y-95497357D01*
X141453954Y-95534988D01*
X141583251Y-95625523D01*
X141588233Y-95627846D01*
X141588238Y-95627849D01*
X141622457Y-95643805D01*
X141675742Y-95690722D01*
X141695203Y-95758999D01*
X141674661Y-95826959D01*
X141622457Y-95872195D01*
X141588238Y-95888151D01*
X141588233Y-95888154D01*
X141583251Y-95890477D01*
X141542418Y-95919069D01*
X141400211Y-96018643D01*
X141400208Y-96018645D01*
X141395700Y-96021802D01*
X141233802Y-96183700D01*
X141230645Y-96188208D01*
X141230643Y-96188211D01*
X141196755Y-96236608D01*
X141102477Y-96371251D01*
X141100154Y-96376233D01*
X141100151Y-96376238D01*
X141010475Y-96568551D01*
X141005716Y-96578757D01*
X141004294Y-96584064D01*
X141004293Y-96584067D01*
X140948463Y-96792427D01*
X140946457Y-96799913D01*
X140926502Y-97028000D01*
X140946457Y-97256087D01*
X140947881Y-97261400D01*
X140947881Y-97261402D01*
X141003941Y-97470617D01*
X141005716Y-97477243D01*
X141008039Y-97482224D01*
X141008039Y-97482225D01*
X141100151Y-97679762D01*
X141100153Y-97679765D01*
X141102477Y-97684749D01*
X141159246Y-97765823D01*
X141224281Y-97858702D01*
X141233802Y-97872300D01*
X141395700Y-98034198D01*
X141400208Y-98037355D01*
X141400211Y-98037357D01*
X141447319Y-98070342D01*
X141583251Y-98165523D01*
X141588233Y-98167846D01*
X141588238Y-98167849D01*
X141622457Y-98183805D01*
X141675742Y-98230722D01*
X141695203Y-98298999D01*
X141674661Y-98366959D01*
X141622457Y-98412195D01*
X141588238Y-98428151D01*
X141588233Y-98428154D01*
X141583251Y-98430477D01*
X141508888Y-98482547D01*
X141400211Y-98558643D01*
X141400208Y-98558645D01*
X141395700Y-98561802D01*
X141233802Y-98723700D01*
X141230645Y-98728208D01*
X141230643Y-98728211D01*
X141223299Y-98738700D01*
X141102477Y-98911251D01*
X141100154Y-98916233D01*
X141100151Y-98916238D01*
X141011203Y-99106990D01*
X141005716Y-99118757D01*
X141004294Y-99124064D01*
X141004293Y-99124067D01*
X140948463Y-99332427D01*
X140946457Y-99339913D01*
X140926502Y-99568000D01*
X140946457Y-99796087D01*
X140947881Y-99801400D01*
X140947881Y-99801402D01*
X141003941Y-100010617D01*
X141005716Y-100017243D01*
X141008039Y-100022224D01*
X141008039Y-100022225D01*
X141100151Y-100219762D01*
X141100154Y-100219767D01*
X141102477Y-100224749D01*
X141116137Y-100244257D01*
X141224281Y-100398702D01*
X141233802Y-100412300D01*
X141395700Y-100574198D01*
X141400208Y-100577355D01*
X141400211Y-100577357D01*
X141447319Y-100610342D01*
X141583251Y-100705523D01*
X141588233Y-100707846D01*
X141588238Y-100707849D01*
X141622457Y-100723805D01*
X141675742Y-100770722D01*
X141695203Y-100838999D01*
X141674661Y-100906959D01*
X141622457Y-100952195D01*
X141588238Y-100968151D01*
X141588233Y-100968154D01*
X141583251Y-100970477D01*
X141508888Y-101022547D01*
X141400211Y-101098643D01*
X141400208Y-101098645D01*
X141395700Y-101101802D01*
X141233802Y-101263700D01*
X141230645Y-101268208D01*
X141230643Y-101268211D01*
X141223299Y-101278700D01*
X141102477Y-101451251D01*
X141100154Y-101456233D01*
X141100151Y-101456238D01*
X141014816Y-101639242D01*
X141005716Y-101658757D01*
X141004294Y-101664064D01*
X141004293Y-101664067D01*
X140948463Y-101872427D01*
X140946457Y-101879913D01*
X140926502Y-102108000D01*
X140946457Y-102336087D01*
X140963460Y-102399541D01*
X140961770Y-102470518D01*
X140930848Y-102521247D01*
X140744500Y-102707595D01*
X140682188Y-102741621D01*
X140655405Y-102744500D01*
X135964745Y-102744500D01*
X135896624Y-102724498D01*
X135850131Y-102670842D01*
X135840027Y-102600568D01*
X135850552Y-102565247D01*
X135851959Y-102562230D01*
X135851961Y-102562225D01*
X135854284Y-102557243D01*
X135893284Y-102411696D01*
X135912119Y-102341402D01*
X135912120Y-102341398D01*
X135913543Y-102336087D01*
X135933498Y-102108000D01*
X135913543Y-101879913D01*
X135911537Y-101872427D01*
X135855707Y-101664067D01*
X135855706Y-101664064D01*
X135854284Y-101658757D01*
X135845184Y-101639242D01*
X135759849Y-101456238D01*
X135759846Y-101456233D01*
X135757523Y-101451251D01*
X135636701Y-101278700D01*
X135629357Y-101268211D01*
X135629355Y-101268208D01*
X135626198Y-101263700D01*
X135464300Y-101101802D01*
X135459792Y-101098645D01*
X135459789Y-101098643D01*
X135351112Y-101022547D01*
X135276749Y-100970477D01*
X135271767Y-100968154D01*
X135271762Y-100968151D01*
X135237543Y-100952195D01*
X135184258Y-100905278D01*
X135164797Y-100837001D01*
X135185339Y-100769041D01*
X135237543Y-100723805D01*
X135271762Y-100707849D01*
X135271767Y-100707846D01*
X135276749Y-100705523D01*
X135412681Y-100610342D01*
X135459789Y-100577357D01*
X135459792Y-100577355D01*
X135464300Y-100574198D01*
X135626198Y-100412300D01*
X135635720Y-100398702D01*
X135743863Y-100244257D01*
X135757523Y-100224749D01*
X135759846Y-100219767D01*
X135759849Y-100219762D01*
X135851961Y-100022225D01*
X135851961Y-100022224D01*
X135854284Y-100017243D01*
X135856060Y-100010617D01*
X135912119Y-99801402D01*
X135912119Y-99801400D01*
X135913543Y-99796087D01*
X135933498Y-99568000D01*
X135913543Y-99339913D01*
X135911537Y-99332427D01*
X135855707Y-99124067D01*
X135855706Y-99124064D01*
X135854284Y-99118757D01*
X135848797Y-99106990D01*
X135759849Y-98916238D01*
X135759846Y-98916233D01*
X135757523Y-98911251D01*
X135636701Y-98738700D01*
X135629357Y-98728211D01*
X135629355Y-98728208D01*
X135626198Y-98723700D01*
X135464300Y-98561802D01*
X135459792Y-98558645D01*
X135459789Y-98558643D01*
X135351112Y-98482547D01*
X135276749Y-98430477D01*
X135271767Y-98428154D01*
X135271762Y-98428151D01*
X135237543Y-98412195D01*
X135184258Y-98365278D01*
X135164797Y-98297001D01*
X135185339Y-98229041D01*
X135237543Y-98183805D01*
X135271762Y-98167849D01*
X135271767Y-98167846D01*
X135276749Y-98165523D01*
X135412681Y-98070342D01*
X135459789Y-98037357D01*
X135459792Y-98037355D01*
X135464300Y-98034198D01*
X135626198Y-97872300D01*
X135635720Y-97858702D01*
X135700754Y-97765823D01*
X135757523Y-97684749D01*
X135759847Y-97679765D01*
X135759849Y-97679762D01*
X135851961Y-97482225D01*
X135851961Y-97482224D01*
X135854284Y-97477243D01*
X135856060Y-97470617D01*
X135912119Y-97261402D01*
X135912119Y-97261400D01*
X135913543Y-97256087D01*
X135933498Y-97028000D01*
X135913543Y-96799913D01*
X135911537Y-96792427D01*
X135855707Y-96584067D01*
X135855706Y-96584064D01*
X135854284Y-96578757D01*
X135849525Y-96568551D01*
X135759849Y-96376238D01*
X135759846Y-96376233D01*
X135757523Y-96371251D01*
X135663245Y-96236608D01*
X135629357Y-96188211D01*
X135629355Y-96188208D01*
X135626198Y-96183700D01*
X135464300Y-96021802D01*
X135459792Y-96018645D01*
X135459789Y-96018643D01*
X135317582Y-95919069D01*
X135276749Y-95890477D01*
X135271767Y-95888154D01*
X135271762Y-95888151D01*
X135237543Y-95872195D01*
X135184258Y-95825278D01*
X135164797Y-95757001D01*
X135185339Y-95689041D01*
X135237543Y-95643805D01*
X135271762Y-95627849D01*
X135271767Y-95627846D01*
X135276749Y-95625523D01*
X135406046Y-95534988D01*
X135459789Y-95497357D01*
X135459792Y-95497355D01*
X135464300Y-95494198D01*
X135626198Y-95332300D01*
X135635720Y-95318702D01*
X135704271Y-95220801D01*
X135757523Y-95144749D01*
X135759846Y-95139767D01*
X135759849Y-95139762D01*
X135851961Y-94942225D01*
X135851961Y-94942224D01*
X135854284Y-94937243D01*
X135856060Y-94930617D01*
X135912119Y-94721402D01*
X135912119Y-94721400D01*
X135913543Y-94716087D01*
X135933498Y-94488000D01*
X135913543Y-94259913D01*
X135910941Y-94250203D01*
X135855707Y-94044067D01*
X135855706Y-94044064D01*
X135854284Y-94038757D01*
X135849525Y-94028551D01*
X135759849Y-93836238D01*
X135759846Y-93836233D01*
X135757523Y-93831251D01*
X135663245Y-93696608D01*
X135629357Y-93648211D01*
X135629355Y-93648208D01*
X135626198Y-93643700D01*
X135464300Y-93481802D01*
X135459792Y-93478645D01*
X135459789Y-93478643D01*
X135344630Y-93398008D01*
X135276749Y-93350477D01*
X135271767Y-93348154D01*
X135271762Y-93348151D01*
X135237543Y-93332195D01*
X135184258Y-93285278D01*
X135164797Y-93217001D01*
X135185339Y-93149041D01*
X135237543Y-93103805D01*
X135271762Y-93087849D01*
X135271767Y-93087846D01*
X135276749Y-93085523D01*
X135383060Y-93011083D01*
X135459789Y-92957357D01*
X135459792Y-92957355D01*
X135464300Y-92954198D01*
X135626198Y-92792300D01*
X135632098Y-92783875D01*
X135704271Y-92680801D01*
X135757523Y-92604749D01*
X135759846Y-92599767D01*
X135759849Y-92599762D01*
X135851961Y-92402225D01*
X135851961Y-92402224D01*
X135854284Y-92397243D01*
X135890007Y-92263926D01*
X135912119Y-92181402D01*
X135912119Y-92181400D01*
X135913543Y-92176087D01*
X135933498Y-91948000D01*
X135913543Y-91719913D01*
X135907489Y-91697317D01*
X135855708Y-91504072D01*
X135854284Y-91498757D01*
X135850549Y-91490747D01*
X135850328Y-91489290D01*
X135850078Y-91488604D01*
X135850216Y-91488554D01*
X135839890Y-91420556D01*
X135868871Y-91355744D01*
X135928291Y-91316889D01*
X135964745Y-91311500D01*
X140895255Y-91311500D01*
X140963376Y-91331502D01*
G37*
%TD.AperFunction*%
%TA.AperFunction,Conductor*%
G36*
X122781079Y-92448746D02*
G01*
X122805755Y-92469889D01*
X122828324Y-92494954D01*
X122832747Y-92499866D01*
X122921705Y-92564498D01*
X122981535Y-92607967D01*
X122987248Y-92612118D01*
X122993276Y-92614802D01*
X122993278Y-92614803D01*
X123155681Y-92687109D01*
X123161712Y-92689794D01*
X123348513Y-92729500D01*
X123354990Y-92729500D01*
X123420604Y-92756492D01*
X123461236Y-92814712D01*
X123467090Y-92867962D01*
X123456996Y-92964000D01*
X123457686Y-92970565D01*
X123475720Y-93142145D01*
X123476958Y-93153928D01*
X123535973Y-93335556D01*
X123539276Y-93341278D01*
X123539277Y-93341279D01*
X123542417Y-93346717D01*
X123631460Y-93500944D01*
X123635878Y-93505851D01*
X123635879Y-93505852D01*
X123748061Y-93630443D01*
X123759247Y-93642866D01*
X123913748Y-93755118D01*
X123919776Y-93757802D01*
X123919778Y-93757803D01*
X124082181Y-93830109D01*
X124088212Y-93832794D01*
X124094667Y-93834166D01*
X124094676Y-93834169D01*
X124133357Y-93842391D01*
X124195830Y-93876119D01*
X124230151Y-93938269D01*
X124232469Y-93978807D01*
X124224592Y-94053757D01*
X124218996Y-94107000D01*
X124219686Y-94113565D01*
X124237444Y-94282520D01*
X124238958Y-94296928D01*
X124297973Y-94478556D01*
X124301276Y-94484278D01*
X124301277Y-94484279D01*
X124306593Y-94493486D01*
X124393460Y-94643944D01*
X124397878Y-94648851D01*
X124397879Y-94648852D01*
X124498903Y-94761051D01*
X124521247Y-94785866D01*
X124620343Y-94857864D01*
X124655462Y-94883379D01*
X124675748Y-94898118D01*
X124681776Y-94900802D01*
X124681778Y-94900803D01*
X124797315Y-94952243D01*
X124850212Y-94975794D01*
X124943613Y-94995647D01*
X125030556Y-95014128D01*
X125030561Y-95014128D01*
X125037013Y-95015500D01*
X125092906Y-95015500D01*
X125161027Y-95035502D01*
X125182001Y-95052405D01*
X127422843Y-97293247D01*
X127430387Y-97301537D01*
X127434500Y-97308018D01*
X127440277Y-97313443D01*
X127484167Y-97354658D01*
X127487009Y-97357413D01*
X127506731Y-97377135D01*
X127509873Y-97379572D01*
X127509933Y-97379619D01*
X127518945Y-97387317D01*
X127544536Y-97411347D01*
X127551179Y-97417586D01*
X127558122Y-97421403D01*
X127568931Y-97427345D01*
X127585453Y-97438198D01*
X127601459Y-97450614D01*
X127608737Y-97453764D01*
X127608738Y-97453764D01*
X127642037Y-97468174D01*
X127652687Y-97473391D01*
X127691440Y-97494695D01*
X127699115Y-97496666D01*
X127699116Y-97496666D01*
X127711062Y-97499733D01*
X127729767Y-97506137D01*
X127748355Y-97514181D01*
X127756181Y-97515421D01*
X127763799Y-97517634D01*
X127763272Y-97519446D01*
X127818233Y-97545500D01*
X127848564Y-97586286D01*
X127894477Y-97684749D01*
X127908137Y-97704257D01*
X128016281Y-97858702D01*
X128025802Y-97872300D01*
X128187700Y-98034198D01*
X128192208Y-98037355D01*
X128192211Y-98037357D01*
X128239319Y-98070342D01*
X128375251Y-98165523D01*
X128380233Y-98167846D01*
X128380238Y-98167849D01*
X128414457Y-98183805D01*
X128467742Y-98230722D01*
X128487203Y-98298999D01*
X128466661Y-98366959D01*
X128414457Y-98412195D01*
X128380238Y-98428151D01*
X128380233Y-98428154D01*
X128375251Y-98430477D01*
X128300888Y-98482547D01*
X128192211Y-98558643D01*
X128192208Y-98558645D01*
X128187700Y-98561802D01*
X128025802Y-98723700D01*
X128022645Y-98728208D01*
X128022643Y-98728211D01*
X128015299Y-98738700D01*
X127894477Y-98911251D01*
X127892154Y-98916233D01*
X127892151Y-98916238D01*
X127803203Y-99106990D01*
X127797716Y-99118757D01*
X127796294Y-99124064D01*
X127796293Y-99124067D01*
X127740463Y-99332427D01*
X127738457Y-99339913D01*
X127718502Y-99568000D01*
X127738457Y-99796087D01*
X127739881Y-99801400D01*
X127739881Y-99801402D01*
X127759724Y-99875457D01*
X127797716Y-100017243D01*
X127801451Y-100025252D01*
X127801672Y-100026710D01*
X127801922Y-100027396D01*
X127801784Y-100027446D01*
X127812110Y-100095444D01*
X127783129Y-100160256D01*
X127723709Y-100199111D01*
X127687255Y-100204500D01*
X122756745Y-100204500D01*
X122688624Y-100184498D01*
X122642131Y-100130842D01*
X122632027Y-100060568D01*
X122642552Y-100025247D01*
X122643959Y-100022230D01*
X122643961Y-100022225D01*
X122646284Y-100017243D01*
X122648060Y-100010617D01*
X122704119Y-99801402D01*
X122704119Y-99801400D01*
X122705543Y-99796087D01*
X122725498Y-99568000D01*
X122705543Y-99339913D01*
X122703537Y-99332427D01*
X122647707Y-99124067D01*
X122647706Y-99124064D01*
X122646284Y-99118757D01*
X122640797Y-99106990D01*
X122551849Y-98916238D01*
X122551846Y-98916233D01*
X122549523Y-98911251D01*
X122428701Y-98738700D01*
X122421357Y-98728211D01*
X122421355Y-98728208D01*
X122418198Y-98723700D01*
X122256300Y-98561802D01*
X122251792Y-98558645D01*
X122251789Y-98558643D01*
X122143112Y-98482547D01*
X122068749Y-98430477D01*
X122063767Y-98428154D01*
X122063762Y-98428151D01*
X122029543Y-98412195D01*
X121976258Y-98365278D01*
X121956797Y-98297001D01*
X121977339Y-98229041D01*
X122029543Y-98183805D01*
X122063762Y-98167849D01*
X122063767Y-98167846D01*
X122068749Y-98165523D01*
X122204681Y-98070342D01*
X122251789Y-98037357D01*
X122251792Y-98037355D01*
X122256300Y-98034198D01*
X122418198Y-97872300D01*
X122427720Y-97858702D01*
X122492754Y-97765823D01*
X122549523Y-97684749D01*
X122551847Y-97679765D01*
X122551849Y-97679762D01*
X122643961Y-97482225D01*
X122643961Y-97482224D01*
X122646284Y-97477243D01*
X122648060Y-97470617D01*
X122704119Y-97261402D01*
X122704119Y-97261400D01*
X122705543Y-97256087D01*
X122725498Y-97028000D01*
X122705543Y-96799913D01*
X122703537Y-96792427D01*
X122647707Y-96584067D01*
X122647706Y-96584064D01*
X122646284Y-96578757D01*
X122641525Y-96568551D01*
X122551849Y-96376238D01*
X122551846Y-96376233D01*
X122549523Y-96371251D01*
X122455245Y-96236608D01*
X122421357Y-96188211D01*
X122421355Y-96188208D01*
X122418198Y-96183700D01*
X122256300Y-96021802D01*
X122251792Y-96018645D01*
X122251789Y-96018643D01*
X122109582Y-95919069D01*
X122068749Y-95890477D01*
X122063767Y-95888154D01*
X122063762Y-95888151D01*
X122029543Y-95872195D01*
X121976258Y-95825278D01*
X121956797Y-95757001D01*
X121977339Y-95689041D01*
X122029543Y-95643805D01*
X122063762Y-95627849D01*
X122063767Y-95627846D01*
X122068749Y-95625523D01*
X122198046Y-95534988D01*
X122251789Y-95497357D01*
X122251792Y-95497355D01*
X122256300Y-95494198D01*
X122418198Y-95332300D01*
X122427720Y-95318702D01*
X122496271Y-95220801D01*
X122549523Y-95144749D01*
X122551846Y-95139767D01*
X122551849Y-95139762D01*
X122643961Y-94942225D01*
X122643961Y-94942224D01*
X122646284Y-94937243D01*
X122648060Y-94930617D01*
X122704119Y-94721402D01*
X122704119Y-94721400D01*
X122705543Y-94716087D01*
X122725498Y-94488000D01*
X122705543Y-94259913D01*
X122702941Y-94250203D01*
X122647707Y-94044067D01*
X122647706Y-94044064D01*
X122646284Y-94038757D01*
X122641525Y-94028551D01*
X122551849Y-93836238D01*
X122551846Y-93836233D01*
X122549523Y-93831251D01*
X122455245Y-93696608D01*
X122421357Y-93648211D01*
X122421355Y-93648208D01*
X122418198Y-93643700D01*
X122256300Y-93481802D01*
X122251792Y-93478645D01*
X122251789Y-93478643D01*
X122136630Y-93398008D01*
X122068749Y-93350477D01*
X122063767Y-93348154D01*
X122063762Y-93348151D01*
X122029543Y-93332195D01*
X121976258Y-93285278D01*
X121956797Y-93217001D01*
X121977339Y-93149041D01*
X122029543Y-93103805D01*
X122063762Y-93087849D01*
X122063767Y-93087846D01*
X122068749Y-93085523D01*
X122175060Y-93011083D01*
X122251789Y-92957357D01*
X122251792Y-92957355D01*
X122256300Y-92954198D01*
X122418198Y-92792300D01*
X122424098Y-92783875D01*
X122496271Y-92680801D01*
X122549523Y-92604749D01*
X122551846Y-92599767D01*
X122551849Y-92599762D01*
X122597925Y-92500950D01*
X122644842Y-92447665D01*
X122713119Y-92428204D01*
X122781079Y-92448746D01*
G37*
%TD.AperFunction*%
%TA.AperFunction,Conductor*%
G36*
X127755927Y-88791502D02*
G01*
X127802420Y-88845158D01*
X127812524Y-88915432D01*
X127802000Y-88950751D01*
X127800512Y-88953942D01*
X127796764Y-88964239D01*
X127750606Y-89136503D01*
X127750942Y-89150599D01*
X127758884Y-89154000D01*
X129160000Y-89154000D01*
X129228121Y-89174002D01*
X129274614Y-89227658D01*
X129286000Y-89280000D01*
X129286000Y-89536000D01*
X129265998Y-89604121D01*
X129212342Y-89650614D01*
X129160000Y-89662000D01*
X127764033Y-89662000D01*
X127750502Y-89665973D01*
X127749273Y-89674522D01*
X127796764Y-89851761D01*
X127800512Y-89862058D01*
X127802000Y-89865249D01*
X127802234Y-89866789D01*
X127802393Y-89867226D01*
X127802305Y-89867258D01*
X127812662Y-89935441D01*
X127783683Y-90000254D01*
X127724263Y-90039110D01*
X127687806Y-90044500D01*
X124393595Y-90044500D01*
X124325474Y-90024498D01*
X124304500Y-90007595D01*
X123312652Y-89015747D01*
X123305112Y-89007461D01*
X123301000Y-89000982D01*
X123288614Y-88989351D01*
X123252648Y-88928138D01*
X123255485Y-88857198D01*
X123296225Y-88799054D01*
X123361933Y-88772165D01*
X123374866Y-88771500D01*
X127687806Y-88771500D01*
X127755927Y-88791502D01*
G37*
%TD.AperFunction*%
%TA.AperFunction,Conductor*%
G36*
X140963927Y-88791502D02*
G01*
X141010420Y-88845158D01*
X141020524Y-88915432D01*
X141010000Y-88950751D01*
X141008512Y-88953942D01*
X141004764Y-88964239D01*
X140958606Y-89136503D01*
X140958942Y-89150599D01*
X140966884Y-89154000D01*
X142368000Y-89154000D01*
X142436121Y-89174002D01*
X142482614Y-89227658D01*
X142494000Y-89280000D01*
X142494000Y-89536000D01*
X142473998Y-89604121D01*
X142420342Y-89650614D01*
X142368000Y-89662000D01*
X140972033Y-89662000D01*
X140958502Y-89665973D01*
X140957273Y-89674522D01*
X141004764Y-89851761D01*
X141008512Y-89862058D01*
X141010000Y-89865249D01*
X141010234Y-89866789D01*
X141010393Y-89867226D01*
X141010305Y-89867258D01*
X141020662Y-89935441D01*
X140991683Y-90000254D01*
X140932263Y-90039110D01*
X140895806Y-90044500D01*
X136204595Y-90044500D01*
X136136474Y-90024498D01*
X136115500Y-90007595D01*
X135929152Y-89821247D01*
X135895126Y-89758935D01*
X135896540Y-89699541D01*
X135903244Y-89674522D01*
X135913543Y-89636087D01*
X135933498Y-89408000D01*
X135913543Y-89179913D01*
X135908852Y-89162404D01*
X135883154Y-89066500D01*
X135854284Y-88958757D01*
X135850549Y-88950747D01*
X135850328Y-88949290D01*
X135850078Y-88948604D01*
X135850216Y-88948554D01*
X135839890Y-88880556D01*
X135868871Y-88815744D01*
X135928291Y-88776889D01*
X135964745Y-88771500D01*
X140895806Y-88771500D01*
X140963927Y-88791502D01*
G37*
%TD.AperFunction*%
%TA.AperFunction,Conductor*%
G36*
X139037340Y-83649022D02*
G01*
X139083833Y-83702678D01*
X139094563Y-83767863D01*
X139091328Y-83799440D01*
X139091000Y-83805855D01*
X139091000Y-84055885D01*
X139095475Y-84071124D01*
X139096865Y-84072329D01*
X139104548Y-84074000D01*
X140314500Y-84074000D01*
X140382621Y-84094002D01*
X140429114Y-84147658D01*
X140440500Y-84200000D01*
X140440500Y-85542884D01*
X140444975Y-85558123D01*
X140446365Y-85559328D01*
X140454048Y-85560999D01*
X140571095Y-85560999D01*
X140577614Y-85560662D01*
X140673206Y-85550743D01*
X140686600Y-85547851D01*
X140840784Y-85496412D01*
X140853962Y-85490239D01*
X140991807Y-85404937D01*
X141003208Y-85395901D01*
X141117738Y-85281172D01*
X141124794Y-85272238D01*
X141182712Y-85231177D01*
X141253635Y-85227947D01*
X141315046Y-85263574D01*
X141321846Y-85271407D01*
X141325522Y-85277348D01*
X141330704Y-85282521D01*
X141444518Y-85396137D01*
X141478597Y-85458420D01*
X141481500Y-85485310D01*
X141481500Y-85736133D01*
X141461498Y-85804254D01*
X141427772Y-85839345D01*
X141395700Y-85861802D01*
X141233802Y-86023700D01*
X141230645Y-86028208D01*
X141230643Y-86028211D01*
X141223299Y-86038700D01*
X141102477Y-86211251D01*
X141100154Y-86216233D01*
X141100151Y-86216238D01*
X141018836Y-86390620D01*
X141005716Y-86418757D01*
X141004294Y-86424064D01*
X141004293Y-86424067D01*
X140952373Y-86617834D01*
X140946457Y-86639913D01*
X140926502Y-86868000D01*
X140946457Y-87096087D01*
X140947881Y-87101400D01*
X140947881Y-87101402D01*
X140966717Y-87171696D01*
X141005716Y-87317243D01*
X141008039Y-87322225D01*
X141008041Y-87322230D01*
X141009448Y-87325247D01*
X141009669Y-87326704D01*
X141009922Y-87327398D01*
X141009782Y-87327449D01*
X141020111Y-87395438D01*
X140991133Y-87460252D01*
X140931715Y-87499110D01*
X140895255Y-87504500D01*
X136204595Y-87504500D01*
X136136474Y-87484498D01*
X136115500Y-87467595D01*
X135965405Y-87317500D01*
X135931379Y-87255188D01*
X135928500Y-87228405D01*
X135928500Y-86019866D01*
X135921745Y-85957684D01*
X135870615Y-85821295D01*
X135783261Y-85704739D01*
X135666705Y-85617385D01*
X135530316Y-85566255D01*
X135468134Y-85559500D01*
X133771866Y-85559500D01*
X133709684Y-85566255D01*
X133573295Y-85617385D01*
X133456739Y-85704739D01*
X133369385Y-85821295D01*
X133318255Y-85957684D01*
X133311500Y-86019866D01*
X133311500Y-86399242D01*
X133291498Y-86467363D01*
X133237842Y-86513856D01*
X133167568Y-86523960D01*
X133102988Y-86494466D01*
X133063793Y-86431853D01*
X133061707Y-86424067D01*
X133061706Y-86424064D01*
X133060284Y-86418757D01*
X133047164Y-86390620D01*
X132965849Y-86216238D01*
X132965846Y-86216233D01*
X132963523Y-86211251D01*
X132842701Y-86038700D01*
X132835357Y-86028211D01*
X132835355Y-86028208D01*
X132832198Y-86023700D01*
X132670300Y-85861802D01*
X132665792Y-85858645D01*
X132665789Y-85858643D01*
X132559030Y-85783890D01*
X132482749Y-85730477D01*
X132477767Y-85728154D01*
X132477762Y-85728151D01*
X132443543Y-85712195D01*
X132390258Y-85665278D01*
X132370797Y-85597001D01*
X132391339Y-85529041D01*
X132443543Y-85483805D01*
X132477762Y-85467849D01*
X132477767Y-85467846D01*
X132482749Y-85465523D01*
X132587611Y-85392098D01*
X132665789Y-85337357D01*
X132665792Y-85337355D01*
X132670300Y-85334198D01*
X132832198Y-85172300D01*
X132963523Y-84984749D01*
X132965846Y-84979767D01*
X132965849Y-84979762D01*
X133026313Y-84850095D01*
X139091001Y-84850095D01*
X139091338Y-84856614D01*
X139101257Y-84952206D01*
X139104149Y-84965600D01*
X139155588Y-85119784D01*
X139161761Y-85132962D01*
X139247063Y-85270807D01*
X139256099Y-85282208D01*
X139370829Y-85396739D01*
X139382240Y-85405751D01*
X139520243Y-85490816D01*
X139533424Y-85496963D01*
X139687710Y-85548138D01*
X139701086Y-85551005D01*
X139795438Y-85560672D01*
X139801854Y-85561000D01*
X139914385Y-85561000D01*
X139929624Y-85556525D01*
X139930829Y-85555135D01*
X139932500Y-85547452D01*
X139932500Y-84600115D01*
X139928025Y-84584876D01*
X139926635Y-84583671D01*
X139918952Y-84582000D01*
X139109116Y-84582000D01*
X139093877Y-84586475D01*
X139092672Y-84587865D01*
X139091001Y-84595548D01*
X139091001Y-84850095D01*
X133026313Y-84850095D01*
X133057961Y-84782225D01*
X133057961Y-84782224D01*
X133060284Y-84777243D01*
X133108970Y-84595548D01*
X133118119Y-84561402D01*
X133118119Y-84561400D01*
X133119543Y-84556087D01*
X133139498Y-84328000D01*
X133119543Y-84099913D01*
X133069091Y-83911624D01*
X133061707Y-83884067D01*
X133061706Y-83884065D01*
X133060284Y-83878757D01*
X133057959Y-83873770D01*
X133027416Y-83808269D01*
X133016755Y-83738077D01*
X133045736Y-83673265D01*
X133105156Y-83634409D01*
X133141611Y-83629020D01*
X138969219Y-83629020D01*
X139037340Y-83649022D01*
G37*
%TD.AperFunction*%
%TA.AperFunction,Conductor*%
G36*
X146005026Y-78653144D02*
G01*
X146032875Y-78684994D01*
X146092987Y-78783088D01*
X146239250Y-78951938D01*
X146411126Y-79094632D01*
X146604000Y-79207338D01*
X146608825Y-79209180D01*
X146608826Y-79209181D01*
X146679412Y-79236135D01*
X146812692Y-79287030D01*
X146817760Y-79288061D01*
X146817763Y-79288062D01*
X146896436Y-79304068D01*
X147031597Y-79331567D01*
X147036772Y-79331757D01*
X147036774Y-79331757D01*
X147249673Y-79339564D01*
X147249677Y-79339564D01*
X147254837Y-79339753D01*
X147259957Y-79339097D01*
X147259959Y-79339097D01*
X147471288Y-79312025D01*
X147471289Y-79312025D01*
X147476416Y-79311368D01*
X147515434Y-79299662D01*
X147659100Y-79256560D01*
X147730096Y-79256144D01*
X147790046Y-79294176D01*
X147819918Y-79358582D01*
X147821308Y-79377246D01*
X147821308Y-80830974D01*
X147801306Y-80899095D01*
X147788950Y-80915277D01*
X147715768Y-80996554D01*
X147620281Y-81161942D01*
X147561266Y-81343570D01*
X147560576Y-81350131D01*
X147560576Y-81350133D01*
X147550452Y-81446460D01*
X147541304Y-81533498D01*
X147541718Y-81537439D01*
X147521992Y-81604621D01*
X147468336Y-81651114D01*
X147415994Y-81662500D01*
X136547814Y-81662500D01*
X136479693Y-81642498D01*
X136433200Y-81588842D01*
X136422102Y-81537824D01*
X136422504Y-81534000D01*
X136419077Y-81501390D01*
X136403232Y-81350635D01*
X136403232Y-81350633D01*
X136402542Y-81344072D01*
X136343527Y-81162444D01*
X136340075Y-81156464D01*
X136251341Y-81002774D01*
X136248040Y-80997056D01*
X136174863Y-80915785D01*
X136144147Y-80851779D01*
X136142500Y-80831476D01*
X136142500Y-80070594D01*
X136162502Y-80002473D01*
X136179405Y-79981499D01*
X136791999Y-79368905D01*
X136854311Y-79334879D01*
X136885711Y-79332085D01*
X137089673Y-79339564D01*
X137089677Y-79339564D01*
X137094837Y-79339753D01*
X137099957Y-79339097D01*
X137099959Y-79339097D01*
X137311288Y-79312025D01*
X137311289Y-79312025D01*
X137316416Y-79311368D01*
X137327332Y-79308093D01*
X137525429Y-79248661D01*
X137525434Y-79248659D01*
X137530384Y-79247174D01*
X137730994Y-79148896D01*
X137912860Y-79019173D01*
X138071096Y-78861489D01*
X138130594Y-78778689D01*
X138201453Y-78680077D01*
X138202776Y-78681028D01*
X138249645Y-78637857D01*
X138319580Y-78625625D01*
X138385026Y-78653144D01*
X138412875Y-78684994D01*
X138472987Y-78783088D01*
X138619250Y-78951938D01*
X138791126Y-79094632D01*
X138984000Y-79207338D01*
X138988825Y-79209180D01*
X138988826Y-79209181D01*
X139059412Y-79236135D01*
X139192692Y-79287030D01*
X139197760Y-79288061D01*
X139197763Y-79288062D01*
X139276436Y-79304068D01*
X139411597Y-79331567D01*
X139416772Y-79331757D01*
X139416774Y-79331757D01*
X139629673Y-79339564D01*
X139629677Y-79339564D01*
X139634837Y-79339753D01*
X139639957Y-79339097D01*
X139639959Y-79339097D01*
X139851288Y-79312025D01*
X139851289Y-79312025D01*
X139856416Y-79311368D01*
X139867332Y-79308093D01*
X140065429Y-79248661D01*
X140065434Y-79248659D01*
X140070384Y-79247174D01*
X140270994Y-79148896D01*
X140452860Y-79019173D01*
X140611096Y-78861489D01*
X140670594Y-78778689D01*
X140741453Y-78680077D01*
X140742776Y-78681028D01*
X140789645Y-78637857D01*
X140859580Y-78625625D01*
X140925026Y-78653144D01*
X140952875Y-78684994D01*
X141012987Y-78783088D01*
X141159250Y-78951938D01*
X141331126Y-79094632D01*
X141524000Y-79207338D01*
X141528825Y-79209180D01*
X141528826Y-79209181D01*
X141599412Y-79236135D01*
X141732692Y-79287030D01*
X141737760Y-79288061D01*
X141737763Y-79288062D01*
X141816436Y-79304068D01*
X141951597Y-79331567D01*
X141956772Y-79331757D01*
X141956774Y-79331757D01*
X142169673Y-79339564D01*
X142169677Y-79339564D01*
X142174837Y-79339753D01*
X142179957Y-79339097D01*
X142179959Y-79339097D01*
X142391288Y-79312025D01*
X142391289Y-79312025D01*
X142396416Y-79311368D01*
X142407332Y-79308093D01*
X142605429Y-79248661D01*
X142605434Y-79248659D01*
X142610384Y-79247174D01*
X142810994Y-79148896D01*
X142992860Y-79019173D01*
X143151096Y-78861489D01*
X143210594Y-78778689D01*
X143281453Y-78680077D01*
X143282776Y-78681028D01*
X143329645Y-78637857D01*
X143399580Y-78625625D01*
X143465026Y-78653144D01*
X143492875Y-78684994D01*
X143552987Y-78783088D01*
X143699250Y-78951938D01*
X143871126Y-79094632D01*
X144064000Y-79207338D01*
X144068825Y-79209180D01*
X144068826Y-79209181D01*
X144139412Y-79236135D01*
X144272692Y-79287030D01*
X144277760Y-79288061D01*
X144277763Y-79288062D01*
X144356436Y-79304068D01*
X144491597Y-79331567D01*
X144496772Y-79331757D01*
X144496774Y-79331757D01*
X144709673Y-79339564D01*
X144709677Y-79339564D01*
X144714837Y-79339753D01*
X144719957Y-79339097D01*
X144719959Y-79339097D01*
X144931288Y-79312025D01*
X144931289Y-79312025D01*
X144936416Y-79311368D01*
X144947332Y-79308093D01*
X145145429Y-79248661D01*
X145145434Y-79248659D01*
X145150384Y-79247174D01*
X145350994Y-79148896D01*
X145532860Y-79019173D01*
X145691096Y-78861489D01*
X145750594Y-78778689D01*
X145821453Y-78680077D01*
X145822776Y-78681028D01*
X145869645Y-78637857D01*
X145939580Y-78625625D01*
X146005026Y-78653144D01*
G37*
%TD.AperFunction*%
%TA.AperFunction,Conductor*%
G36*
X158474268Y-78882592D02*
G01*
X158531030Y-78925238D01*
X158548012Y-78956341D01*
X158592385Y-79074705D01*
X158679739Y-79191261D01*
X158704688Y-79209959D01*
X158747201Y-79266818D01*
X158752226Y-79337636D01*
X158718216Y-79399879D01*
X156492500Y-81625595D01*
X156430188Y-81659621D01*
X156403405Y-81662500D01*
X154868594Y-81662500D01*
X154800473Y-81642498D01*
X154753980Y-81588842D01*
X154743876Y-81518568D01*
X154773370Y-81453988D01*
X154779499Y-81447405D01*
X156897549Y-79329355D01*
X156959861Y-79295329D01*
X157011762Y-79294979D01*
X157191597Y-79331567D01*
X157196772Y-79331757D01*
X157196774Y-79331757D01*
X157409673Y-79339564D01*
X157409677Y-79339564D01*
X157414837Y-79339753D01*
X157419957Y-79339097D01*
X157419959Y-79339097D01*
X157631288Y-79312025D01*
X157631289Y-79312025D01*
X157636416Y-79311368D01*
X157647332Y-79308093D01*
X157845429Y-79248661D01*
X157845434Y-79248659D01*
X157850384Y-79247174D01*
X158050994Y-79148896D01*
X158232860Y-79019173D01*
X158341091Y-78911319D01*
X158403462Y-78877404D01*
X158474268Y-78882592D01*
G37*
%TD.AperFunction*%
%TD*%
M02*
