%TF.GenerationSoftware,KiCad,Pcbnew,(6.0.2)*%
%TF.CreationDate,2022-04-30T14:05:32+09:00*%
%TF.ProjectId,joystick-input,6a6f7973-7469-4636-9b2d-696e7075742e,rev?*%
%TF.SameCoordinates,Original*%
%TF.FileFunction,Soldermask,Bot*%
%TF.FilePolarity,Negative*%
%FSLAX46Y46*%
G04 Gerber Fmt 4.6, Leading zero omitted, Abs format (unit mm)*
G04 Created by KiCad (PCBNEW (6.0.2)) date 2022-04-30 14:05:32*
%MOMM*%
%LPD*%
G01*
G04 APERTURE LIST*
%ADD10R,1.700000X1.700000*%
%ADD11O,1.700000X1.700000*%
%ADD12R,1.600000X1.600000*%
%ADD13O,1.600000X1.600000*%
G04 APERTURE END LIST*
D10*
%TO.C,J2*%
X154813000Y-71501000D03*
D11*
X154813000Y-74041000D03*
X152273000Y-71501000D03*
X152273000Y-74041000D03*
X149733000Y-71501000D03*
X149733000Y-74041000D03*
X147193000Y-71501000D03*
X147193000Y-74041000D03*
X144653000Y-71501000D03*
X144653000Y-74041000D03*
X142113000Y-71501000D03*
X142113000Y-74041000D03*
X139573000Y-71501000D03*
X139573000Y-74041000D03*
X137033000Y-71501000D03*
X137033000Y-74041000D03*
X134493000Y-71501000D03*
X134493000Y-74041000D03*
X131953000Y-71501000D03*
X131953000Y-74041000D03*
X129413000Y-71501000D03*
X129413000Y-74041000D03*
X126873000Y-71501000D03*
X126873000Y-74041000D03*
X124333000Y-71501000D03*
X124333000Y-74041000D03*
X121793000Y-71501000D03*
X121793000Y-74041000D03*
%TD*%
D10*
%TO.C,IN1*%
X114554000Y-90551000D03*
D11*
X114554000Y-93091000D03*
X114554000Y-95631000D03*
X114554000Y-98171000D03*
X114554000Y-100711000D03*
%TD*%
D10*
%TO.C,J1*%
X159893000Y-77978000D03*
D11*
X157353000Y-77978000D03*
X154813000Y-77978000D03*
X152273000Y-77978000D03*
X149733000Y-77978000D03*
X147193000Y-77978000D03*
X144653000Y-77978000D03*
X142113000Y-77978000D03*
X139573000Y-77978000D03*
X137033000Y-77978000D03*
X134493000Y-77978000D03*
X131953000Y-77978000D03*
X129413000Y-77978000D03*
X126873000Y-77978000D03*
X124333000Y-77978000D03*
X121793000Y-77978000D03*
X119253000Y-77978000D03*
X116713000Y-77978000D03*
%TD*%
D12*
%TO.C,74HC165_1*%
X147828000Y-86868000D03*
D13*
X147828000Y-89408000D03*
X147828000Y-91948000D03*
X147828000Y-94488000D03*
X147828000Y-97028000D03*
X147828000Y-99568000D03*
X147828000Y-102108000D03*
X147828000Y-104648000D03*
X155448000Y-104648000D03*
X155448000Y-102108000D03*
X155448000Y-99568000D03*
X155448000Y-97028000D03*
X155448000Y-94488000D03*
X155448000Y-91948000D03*
X155448000Y-89408000D03*
X155448000Y-86868000D03*
%TD*%
D12*
%TO.C,74HC165_2*%
X134620000Y-86868000D03*
D13*
X134620000Y-89408000D03*
X134620000Y-91948000D03*
X134620000Y-94488000D03*
X134620000Y-97028000D03*
X134620000Y-99568000D03*
X134620000Y-102108000D03*
X134620000Y-104648000D03*
X142240000Y-104648000D03*
X142240000Y-102108000D03*
X142240000Y-99568000D03*
X142240000Y-97028000D03*
X142240000Y-94488000D03*
X142240000Y-91948000D03*
X142240000Y-89408000D03*
X142240000Y-86868000D03*
%TD*%
D12*
%TO.C,RN1*%
X158242000Y-102108000D03*
D13*
X158242000Y-99568000D03*
X158242000Y-97028000D03*
X158242000Y-94488000D03*
X158242000Y-91948000D03*
%TD*%
D12*
%TO.C,RN4*%
X118618000Y-102108000D03*
D13*
X118618000Y-99568000D03*
X118618000Y-97028000D03*
X118618000Y-94488000D03*
X118618000Y-91948000D03*
%TD*%
D12*
%TO.C,RN2*%
X145034000Y-104663000D03*
D13*
X145034000Y-102123000D03*
X145034000Y-99583000D03*
X145034000Y-97043000D03*
X145034000Y-94503000D03*
X145034000Y-91963000D03*
X145034000Y-89423000D03*
X145034000Y-86883000D03*
X145034000Y-84343000D03*
%TD*%
D12*
%TO.C,74HC165_3*%
X121412000Y-86868000D03*
D13*
X121412000Y-89408000D03*
X121412000Y-91948000D03*
X121412000Y-94488000D03*
X121412000Y-97028000D03*
X121412000Y-99568000D03*
X121412000Y-102108000D03*
X121412000Y-104648000D03*
X129032000Y-104648000D03*
X129032000Y-102108000D03*
X129032000Y-99568000D03*
X129032000Y-97028000D03*
X129032000Y-94488000D03*
X129032000Y-91948000D03*
X129032000Y-89408000D03*
X129032000Y-86868000D03*
%TD*%
D12*
%TO.C,RN3*%
X131826000Y-104648000D03*
D13*
X131826000Y-102108000D03*
X131826000Y-99568000D03*
X131826000Y-97028000D03*
X131826000Y-94488000D03*
X131826000Y-91948000D03*
X131826000Y-89408000D03*
X131826000Y-86868000D03*
X131826000Y-84328000D03*
%TD*%
D10*
%TO.C,OUT1*%
X162306000Y-90678000D03*
D11*
X162306000Y-93218000D03*
X162306000Y-95758000D03*
X162306000Y-98298000D03*
X162306000Y-100838000D03*
%TD*%
M02*
