M48
; DRILL file {KiCad (6.0.2)} date Sat Apr 30 14:25:32 2022
; FORMAT={-:-/ absolute / inch / decimal}
; #@! TF.CreationDate,2022-04-30T14:25:32+09:00
; #@! TF.GenerationSoftware,Kicad,Pcbnew,(6.0.2)
; #@! TF.FileFunction,Plated,1,2,PTH
FMAT,2
INCH
; #@! TA.AperFunction,Plated,PTH,ViaDrill
T1C0.0157
; #@! TA.AperFunction,Plated,PTH,ComponentDrill
T2C0.0315
; #@! TA.AperFunction,Plated,PTH,ComponentDrill
T3C0.0394
%
G90
G05
T1
X4.726Y-3.224
X4.808Y-3.34
X4.835Y-3.21
X4.86Y-3.615
X4.8745Y-3.21
X4.888Y-3.882
X4.892Y-3.662
X4.9139Y-3.21
X4.922Y-3.708
X4.9532Y-3.21
X4.984Y-3.52
X4.985Y-3.405
X5.006Y-3.862
X5.2057Y-3.2082
X5.2466Y-3.2088
X5.29Y-3.21
X5.335Y-3.21
X5.45Y-3.395
X5.45Y-3.525
X5.45Y-3.914
X5.815Y-3.325
X5.8447Y-3.21
X5.884Y-3.21
X5.9236Y-3.21
X5.9685Y-3.21
X5.972Y-3.916
X6.314Y-2.91
X6.316Y-2.868
X6.358Y-2.87
X6.358Y-2.91
T2
X4.67Y-3.62
X4.67Y-3.72
X4.67Y-3.82
X4.67Y-3.92
X4.67Y-4.02
X4.78Y-3.42
X4.78Y-3.52
X4.78Y-3.62
X4.78Y-3.72
X4.78Y-3.82
X4.78Y-3.92
X4.78Y-4.02
X4.78Y-4.12
X5.08Y-3.42
X5.08Y-3.52
X5.08Y-3.62
X5.08Y-3.72
X5.08Y-3.82
X5.08Y-3.92
X5.08Y-4.02
X5.08Y-4.12
X5.19Y-3.32
X5.19Y-3.42
X5.19Y-3.52
X5.19Y-3.62
X5.19Y-3.72
X5.19Y-3.82
X5.19Y-3.92
X5.19Y-4.02
X5.19Y-4.12
X5.3Y-3.42
X5.3Y-3.52
X5.3Y-3.62
X5.3Y-3.72
X5.3Y-3.82
X5.3Y-3.92
X5.3Y-4.02
X5.3Y-4.12
X5.6Y-3.42
X5.6Y-3.52
X5.6Y-3.62
X5.6Y-3.72
X5.6Y-3.82
X5.6Y-3.92
X5.6Y-4.02
X5.6Y-4.12
X5.71Y-3.3206
X5.71Y-3.4206
X5.71Y-3.5206
X5.71Y-3.6206
X5.71Y-3.7206
X5.71Y-3.8206
X5.71Y-3.9206
X5.71Y-4.0206
X5.71Y-4.1206
X5.82Y-3.42
X5.82Y-3.52
X5.82Y-3.62
X5.82Y-3.72
X5.82Y-3.82
X5.82Y-3.92
X5.82Y-4.02
X5.82Y-4.12
X6.12Y-3.42
X6.12Y-3.52
X6.12Y-3.62
X6.12Y-3.72
X6.12Y-3.82
X6.12Y-3.92
X6.12Y-4.02
X6.12Y-4.12
X6.23Y-3.62
X6.23Y-3.72
X6.23Y-3.82
X6.23Y-3.92
X6.23Y-4.02
T3
X4.51Y-3.565
X4.51Y-3.665
X4.51Y-3.765
X4.51Y-3.865
X4.51Y-3.965
X4.595Y-3.07
X4.695Y-3.07
X4.795Y-2.815
X4.795Y-2.915
X4.795Y-3.07
X4.895Y-2.815
X4.895Y-2.915
X4.895Y-3.07
X4.995Y-2.815
X4.995Y-2.915
X4.995Y-3.07
X5.095Y-2.815
X5.095Y-2.915
X5.095Y-3.07
X5.195Y-2.815
X5.195Y-2.915
X5.195Y-3.07
X5.295Y-2.815
X5.295Y-2.915
X5.295Y-3.07
X5.395Y-2.815
X5.395Y-2.915
X5.395Y-3.07
X5.495Y-2.815
X5.495Y-2.915
X5.495Y-3.07
X5.595Y-2.815
X5.595Y-2.915
X5.595Y-3.07
X5.695Y-2.815
X5.695Y-2.915
X5.695Y-3.07
X5.795Y-2.815
X5.795Y-2.915
X5.795Y-3.07
X5.895Y-2.815
X5.895Y-2.915
X5.895Y-3.07
X5.995Y-2.815
X5.995Y-2.915
X5.995Y-3.07
X6.095Y-2.815
X6.095Y-2.915
X6.095Y-3.07
X6.195Y-3.07
X6.295Y-3.07
X6.39Y-3.57
X6.39Y-3.67
X6.39Y-3.77
X6.39Y-3.87
X6.39Y-3.97
T0
M30
