%TF.GenerationSoftware,KiCad,Pcbnew,(5.1.9)-1*%
%TF.CreationDate,2022-02-08T22:46:11+09:00*%
%TF.ProjectId,odroid-extend,6f64726f-6964-42d6-9578-74656e642e6b,rev?*%
%TF.SameCoordinates,Original*%
%TF.FileFunction,Soldermask,Bot*%
%TF.FilePolarity,Negative*%
%FSLAX46Y46*%
G04 Gerber Fmt 4.6, Leading zero omitted, Abs format (unit mm)*
G04 Created by KiCad (PCBNEW (5.1.9)-1) date 2022-02-08 22:46:11*
%MOMM*%
%LPD*%
G01*
G04 APERTURE LIST*
%ADD10O,1.700000X1.700000*%
%ADD11R,1.700000X1.700000*%
%ADD12C,1.700000*%
G04 APERTURE END LIST*
D10*
%TO.C,J7*%
X186944000Y-127000000D03*
D11*
X184404000Y-127000000D03*
%TD*%
%TO.C,J6*%
X138684000Y-127000000D03*
D10*
X141224000Y-127000000D03*
%TD*%
D12*
%TO.C,J1*%
X138684000Y-69088000D03*
X141224000Y-69088000D03*
X143764000Y-69088000D03*
X146304000Y-69088000D03*
X148844000Y-69088000D03*
X151384000Y-69088000D03*
X153924000Y-69088000D03*
X156464000Y-69088000D03*
X159004000Y-69088000D03*
X161544000Y-69088000D03*
X164084000Y-69088000D03*
X166624000Y-69088000D03*
X169164000Y-69088000D03*
X171704000Y-69088000D03*
X174244000Y-69088000D03*
X176784000Y-69088000D03*
X179324000Y-69088000D03*
X181864000Y-69088000D03*
X184404000Y-69088000D03*
X186944000Y-69088000D03*
X138684000Y-66548000D03*
X141224000Y-66548000D03*
X143764000Y-66548000D03*
X146304000Y-66548000D03*
X148844000Y-66548000D03*
X151384000Y-66548000D03*
X153924000Y-66548000D03*
X156464000Y-66548000D03*
X159004000Y-66548000D03*
X161544000Y-66548000D03*
X164084000Y-66548000D03*
X166624000Y-66548000D03*
X169164000Y-66548000D03*
X171704000Y-66548000D03*
X174244000Y-66548000D03*
X176784000Y-66548000D03*
X179324000Y-66548000D03*
X181864000Y-66548000D03*
X184404000Y-66548000D03*
G36*
G01*
X186344000Y-65698000D02*
X187544000Y-65698000D01*
G75*
G02*
X187794000Y-65948000I0J-250000D01*
G01*
X187794000Y-67148000D01*
G75*
G02*
X187544000Y-67398000I-250000J0D01*
G01*
X186344000Y-67398000D01*
G75*
G02*
X186094000Y-67148000I0J250000D01*
G01*
X186094000Y-65948000D01*
G75*
G02*
X186344000Y-65698000I250000J0D01*
G01*
G37*
%TD*%
D11*
%TO.C,J2*%
X148818600Y-78765400D03*
D10*
X148818600Y-81305400D03*
X148818600Y-83845400D03*
X148818600Y-86385400D03*
X148818600Y-88925400D03*
X148818600Y-91465400D03*
X148818600Y-94005400D03*
X148818600Y-96545400D03*
X148818600Y-99085400D03*
X148818600Y-101625400D03*
X148818600Y-104165400D03*
X148818600Y-106705400D03*
X148818600Y-109245400D03*
X148818600Y-111785400D03*
X148818600Y-114325400D03*
X148818600Y-116865400D03*
X148818600Y-119405400D03*
X148818600Y-121945400D03*
X148818600Y-124485400D03*
X148818600Y-127025400D03*
%TD*%
%TO.C,J3*%
X176758600Y-127025400D03*
X176758600Y-124485400D03*
X176758600Y-121945400D03*
X176758600Y-119405400D03*
X176758600Y-116865400D03*
X176758600Y-114325400D03*
X176758600Y-111785400D03*
X176758600Y-109245400D03*
X176758600Y-106705400D03*
X176758600Y-104165400D03*
X176758600Y-101625400D03*
X176758600Y-99085400D03*
X176758600Y-96545400D03*
X176758600Y-94005400D03*
X176758600Y-91465400D03*
X176758600Y-88925400D03*
X176758600Y-86385400D03*
X176758600Y-83845400D03*
X176758600Y-81305400D03*
D11*
X176758600Y-78765400D03*
%TD*%
%TO.C,J4*%
X138684000Y-121920000D03*
D10*
X141224000Y-121920000D03*
%TD*%
D11*
%TO.C,J5*%
X184404000Y-121920000D03*
D10*
X186944000Y-121920000D03*
%TD*%
M02*
