%TF.GenerationSoftware,KiCad,Pcbnew,(5.1.9)-1*%
%TF.CreationDate,2022-02-08T22:46:11+09:00*%
%TF.ProjectId,odroid-extend,6f64726f-6964-42d6-9578-74656e642e6b,rev?*%
%TF.SameCoordinates,Original*%
%TF.FileFunction,Legend,Top*%
%TF.FilePolarity,Positive*%
%FSLAX46Y46*%
G04 Gerber Fmt 4.6, Leading zero omitted, Abs format (unit mm)*
G04 Created by KiCad (PCBNEW (5.1.9)-1) date 2022-02-08 22:46:11*
%MOMM*%
%LPD*%
G01*
G04 APERTURE LIST*
%ADD10C,0.120000*%
%ADD11C,0.150000*%
%ADD12C,0.200000*%
%ADD13C,0.250000*%
%ADD14C,0.300000*%
G04 APERTURE END LIST*
D10*
X179882800Y-82086450D02*
X177800000Y-82086450D01*
X177800000Y-80371950D02*
X177800000Y-82086450D01*
X177800000Y-80371950D02*
X179882800Y-80371950D01*
X179882800Y-82086450D02*
X179882800Y-80371950D01*
X179882800Y-79552800D02*
X177800000Y-79552800D01*
X177800000Y-77825600D02*
X177800000Y-79546450D01*
X177800000Y-77825600D02*
X179882800Y-77825600D01*
X179882800Y-79552800D02*
X179882800Y-77825600D01*
X180949600Y-84626450D02*
X177850800Y-84626450D01*
X177850800Y-82911950D02*
X177850800Y-84626450D01*
X177850800Y-82911950D02*
X180949600Y-82911950D01*
X180949600Y-84626450D02*
X180949600Y-82911950D01*
X181000400Y-94786450D02*
X177850800Y-94786450D01*
X177850800Y-93071950D02*
X177850800Y-94786450D01*
X177850800Y-93071950D02*
X181000400Y-93071950D01*
X181000400Y-94786450D02*
X181000400Y-93071950D01*
X181000400Y-102406450D02*
X177850800Y-102406450D01*
X177850800Y-100691950D02*
X177850800Y-102406450D01*
X177850800Y-100691950D02*
X181000400Y-100691950D01*
X181000400Y-102406450D02*
X181000400Y-100691950D01*
X181000400Y-115106450D02*
X177850800Y-115106450D01*
X177850800Y-113391950D02*
X177850800Y-115106450D01*
X177850800Y-113391950D02*
X181000400Y-113391950D01*
X181000400Y-115106450D02*
X181000400Y-113391950D01*
X147726400Y-127806450D02*
X144627600Y-127806450D01*
X144627600Y-126091950D02*
X144627600Y-127806450D01*
X144627600Y-126091950D02*
X147726400Y-126091950D01*
X147726400Y-127806450D02*
X147726400Y-126091950D01*
X177800000Y-123596400D02*
X180695600Y-123596400D01*
X177800000Y-125323600D02*
X177800000Y-123596400D01*
X180695600Y-123596400D02*
X180695600Y-125323600D01*
X180695600Y-125323600D02*
X177800000Y-125323600D01*
X144881600Y-98145600D02*
X147777200Y-98145600D01*
X144881600Y-99872800D02*
X144881600Y-98145600D01*
X147777200Y-98145600D02*
X147777200Y-99872800D01*
X147777200Y-99872800D02*
X144881600Y-99872800D01*
X144881600Y-79552800D02*
X144881600Y-77825600D01*
X147777200Y-79552800D02*
X144881600Y-79552800D01*
X147777200Y-77825600D02*
X147777200Y-79552800D01*
X144881600Y-77825600D02*
X147777200Y-77825600D01*
X144627600Y-87991950D02*
X144627600Y-89706450D01*
X147726400Y-89706450D02*
X147726400Y-87991950D01*
X147726400Y-89706450D02*
X144627600Y-89706450D01*
X144627600Y-87991950D02*
X147726400Y-87991950D01*
D11*
X189134761Y-66333714D02*
X188372857Y-66619428D01*
X189134761Y-66905142D01*
X190134761Y-67000380D02*
X189563333Y-67000380D01*
X189849047Y-67000380D02*
X189849047Y-66000380D01*
X189753809Y-66143238D01*
X189658571Y-66238476D01*
X189563333Y-66286095D01*
D12*
X145412285Y-126500000D02*
X145317047Y-126452380D01*
X145174190Y-126452380D01*
X145031333Y-126500000D01*
X144936095Y-126595238D01*
X144888476Y-126690476D01*
X144840857Y-126880952D01*
X144840857Y-127023809D01*
X144888476Y-127214285D01*
X144936095Y-127309523D01*
X145031333Y-127404761D01*
X145174190Y-127452380D01*
X145269428Y-127452380D01*
X145412285Y-127404761D01*
X145459904Y-127357142D01*
X145459904Y-127023809D01*
X145269428Y-127023809D01*
X145888476Y-127452380D02*
X145888476Y-126452380D01*
X146459904Y-127452380D01*
X146459904Y-126452380D01*
X146936095Y-127452380D02*
X146936095Y-126452380D01*
X147174190Y-126452380D01*
X147317047Y-126500000D01*
X147412285Y-126595238D01*
X147459904Y-126690476D01*
X147507523Y-126880952D01*
X147507523Y-127023809D01*
X147459904Y-127214285D01*
X147412285Y-127309523D01*
X147317047Y-127404761D01*
X147174190Y-127452380D01*
X146936095Y-127452380D01*
D11*
X144111452Y-124626666D02*
X144587642Y-124626666D01*
X144016214Y-124912380D02*
X144349547Y-123912380D01*
X144682880Y-124912380D01*
X145016214Y-124912380D02*
X145016214Y-123912380D01*
X145254309Y-123912380D01*
X145397166Y-123960000D01*
X145492404Y-124055238D01*
X145540023Y-124150476D01*
X145587642Y-124340952D01*
X145587642Y-124483809D01*
X145540023Y-124674285D01*
X145492404Y-124769523D01*
X145397166Y-124864761D01*
X145254309Y-124912380D01*
X145016214Y-124912380D01*
X146587642Y-124817142D02*
X146540023Y-124864761D01*
X146397166Y-124912380D01*
X146301928Y-124912380D01*
X146159071Y-124864761D01*
X146063833Y-124769523D01*
X146016214Y-124674285D01*
X145968595Y-124483809D01*
X145968595Y-124340952D01*
X146016214Y-124150476D01*
X146063833Y-124055238D01*
X146159071Y-123960000D01*
X146301928Y-123912380D01*
X146397166Y-123912380D01*
X146540023Y-123960000D01*
X146587642Y-124007619D01*
X146920976Y-123912380D02*
X147540023Y-123912380D01*
X147206690Y-124293333D01*
X147349547Y-124293333D01*
X147444785Y-124340952D01*
X147492404Y-124388571D01*
X147540023Y-124483809D01*
X147540023Y-124721904D01*
X147492404Y-124817142D01*
X147444785Y-124864761D01*
X147349547Y-124912380D01*
X147063833Y-124912380D01*
X146968595Y-124864761D01*
X146920976Y-124817142D01*
X145587642Y-121420000D02*
X145492404Y-121372380D01*
X145349547Y-121372380D01*
X145206690Y-121420000D01*
X145111452Y-121515238D01*
X145063833Y-121610476D01*
X145016214Y-121800952D01*
X145016214Y-121943809D01*
X145063833Y-122134285D01*
X145111452Y-122229523D01*
X145206690Y-122324761D01*
X145349547Y-122372380D01*
X145444785Y-122372380D01*
X145587642Y-122324761D01*
X145635261Y-122277142D01*
X145635261Y-121943809D01*
X145444785Y-121943809D01*
X145968595Y-121372380D02*
X146635261Y-122372380D01*
X146635261Y-121372380D02*
X145968595Y-122372380D01*
X147444785Y-121372380D02*
X147254309Y-121372380D01*
X147159071Y-121420000D01*
X147111452Y-121467619D01*
X147016214Y-121610476D01*
X146968595Y-121800952D01*
X146968595Y-122181904D01*
X147016214Y-122277142D01*
X147063833Y-122324761D01*
X147159071Y-122372380D01*
X147349547Y-122372380D01*
X147444785Y-122324761D01*
X147492404Y-122277142D01*
X147540023Y-122181904D01*
X147540023Y-121943809D01*
X147492404Y-121848571D01*
X147444785Y-121800952D01*
X147349547Y-121753333D01*
X147159071Y-121753333D01*
X147063833Y-121800952D01*
X147016214Y-121848571D01*
X146968595Y-121943809D01*
X145587642Y-118880000D02*
X145492404Y-118832380D01*
X145349547Y-118832380D01*
X145206690Y-118880000D01*
X145111452Y-118975238D01*
X145063833Y-119070476D01*
X145016214Y-119260952D01*
X145016214Y-119403809D01*
X145063833Y-119594285D01*
X145111452Y-119689523D01*
X145206690Y-119784761D01*
X145349547Y-119832380D01*
X145444785Y-119832380D01*
X145587642Y-119784761D01*
X145635261Y-119737142D01*
X145635261Y-119403809D01*
X145444785Y-119403809D01*
X145968595Y-118832380D02*
X146635261Y-119832380D01*
X146635261Y-118832380D02*
X145968595Y-119832380D01*
X147492404Y-118832380D02*
X147016214Y-118832380D01*
X146968595Y-119308571D01*
X147016214Y-119260952D01*
X147111452Y-119213333D01*
X147349547Y-119213333D01*
X147444785Y-119260952D01*
X147492404Y-119308571D01*
X147540023Y-119403809D01*
X147540023Y-119641904D01*
X147492404Y-119737142D01*
X147444785Y-119784761D01*
X147349547Y-119832380D01*
X147111452Y-119832380D01*
X147016214Y-119784761D01*
X146968595Y-119737142D01*
X144635261Y-116340000D02*
X144540023Y-116292380D01*
X144397166Y-116292380D01*
X144254309Y-116340000D01*
X144159071Y-116435238D01*
X144111452Y-116530476D01*
X144063833Y-116720952D01*
X144063833Y-116863809D01*
X144111452Y-117054285D01*
X144159071Y-117149523D01*
X144254309Y-117244761D01*
X144397166Y-117292380D01*
X144492404Y-117292380D01*
X144635261Y-117244761D01*
X144682880Y-117197142D01*
X144682880Y-116863809D01*
X144492404Y-116863809D01*
X145016214Y-116292380D02*
X145682880Y-117292380D01*
X145682880Y-116292380D02*
X145016214Y-117292380D01*
X146587642Y-117292380D02*
X146016214Y-117292380D01*
X146301928Y-117292380D02*
X146301928Y-116292380D01*
X146206690Y-116435238D01*
X146111452Y-116530476D01*
X146016214Y-116578095D01*
X147492404Y-116292380D02*
X147016214Y-116292380D01*
X146968595Y-116768571D01*
X147016214Y-116720952D01*
X147111452Y-116673333D01*
X147349547Y-116673333D01*
X147444785Y-116720952D01*
X147492404Y-116768571D01*
X147540023Y-116863809D01*
X147540023Y-117101904D01*
X147492404Y-117197142D01*
X147444785Y-117244761D01*
X147349547Y-117292380D01*
X147111452Y-117292380D01*
X147016214Y-117244761D01*
X146968595Y-117197142D01*
X144635261Y-113800000D02*
X144540023Y-113752380D01*
X144397166Y-113752380D01*
X144254309Y-113800000D01*
X144159071Y-113895238D01*
X144111452Y-113990476D01*
X144063833Y-114180952D01*
X144063833Y-114323809D01*
X144111452Y-114514285D01*
X144159071Y-114609523D01*
X144254309Y-114704761D01*
X144397166Y-114752380D01*
X144492404Y-114752380D01*
X144635261Y-114704761D01*
X144682880Y-114657142D01*
X144682880Y-114323809D01*
X144492404Y-114323809D01*
X145016214Y-113752380D02*
X145682880Y-114752380D01*
X145682880Y-113752380D02*
X145016214Y-114752380D01*
X146587642Y-114752380D02*
X146016214Y-114752380D01*
X146301928Y-114752380D02*
X146301928Y-113752380D01*
X146206690Y-113895238D01*
X146111452Y-113990476D01*
X146016214Y-114038095D01*
X147444785Y-114085714D02*
X147444785Y-114752380D01*
X147206690Y-113704761D02*
X146968595Y-114419047D01*
X147587642Y-114419047D01*
X141254309Y-111260000D02*
X141178119Y-111212380D01*
X141063833Y-111212380D01*
X140949547Y-111260000D01*
X140873357Y-111355238D01*
X140835261Y-111450476D01*
X140797166Y-111640952D01*
X140797166Y-111783809D01*
X140835261Y-111974285D01*
X140873357Y-112069523D01*
X140949547Y-112164761D01*
X141063833Y-112212380D01*
X141140023Y-112212380D01*
X141254309Y-112164761D01*
X141292404Y-112117142D01*
X141292404Y-111783809D01*
X141140023Y-111783809D01*
X141597166Y-111926666D02*
X141978119Y-111926666D01*
X141520976Y-112212380D02*
X141787642Y-111212380D01*
X142054309Y-112212380D01*
X142740023Y-112212380D02*
X142282880Y-112212380D01*
X142511452Y-112212380D02*
X142511452Y-111212380D01*
X142435261Y-111355238D01*
X142359071Y-111450476D01*
X142282880Y-111498095D01*
X143425738Y-111545714D02*
X143425738Y-112212380D01*
X143235261Y-111164761D02*
X143044785Y-111879047D01*
X143540023Y-111879047D01*
X144073357Y-112593333D02*
X144035261Y-112545714D01*
X143959071Y-112402857D01*
X143920976Y-112307619D01*
X143882880Y-112164761D01*
X143844785Y-111926666D01*
X143844785Y-111736190D01*
X143882880Y-111498095D01*
X143920976Y-111355238D01*
X143959071Y-111260000D01*
X144035261Y-111117142D01*
X144073357Y-111069523D01*
X144340023Y-112164761D02*
X144454309Y-112212380D01*
X144644785Y-112212380D01*
X144720976Y-112164761D01*
X144759071Y-112117142D01*
X144797166Y-112021904D01*
X144797166Y-111926666D01*
X144759071Y-111831428D01*
X144720976Y-111783809D01*
X144644785Y-111736190D01*
X144492404Y-111688571D01*
X144416214Y-111640952D01*
X144378119Y-111593333D01*
X144340023Y-111498095D01*
X144340023Y-111402857D01*
X144378119Y-111307619D01*
X144416214Y-111260000D01*
X144492404Y-111212380D01*
X144682880Y-111212380D01*
X144797166Y-111260000D01*
X145140023Y-112212380D02*
X145140023Y-111212380D01*
X145330500Y-111212380D01*
X145444785Y-111260000D01*
X145520976Y-111355238D01*
X145559071Y-111450476D01*
X145597166Y-111640952D01*
X145597166Y-111783809D01*
X145559071Y-111974285D01*
X145520976Y-112069523D01*
X145444785Y-112164761D01*
X145330500Y-112212380D01*
X145140023Y-112212380D01*
X145901928Y-111926666D02*
X146282880Y-111926666D01*
X145825738Y-112212380D02*
X146092404Y-111212380D01*
X146359071Y-112212380D01*
X147044785Y-112212380D02*
X146587642Y-112212380D01*
X146816214Y-112212380D02*
X146816214Y-111212380D01*
X146740023Y-111355238D01*
X146663833Y-111450476D01*
X146587642Y-111498095D01*
X147311452Y-112593333D02*
X147349547Y-112545714D01*
X147425738Y-112402857D01*
X147463833Y-112307619D01*
X147501928Y-112164761D01*
X147540023Y-111926666D01*
X147540023Y-111736190D01*
X147501928Y-111498095D01*
X147463833Y-111355238D01*
X147425738Y-111260000D01*
X147349547Y-111117142D01*
X147311452Y-111069523D01*
D12*
X145078952Y-78192380D02*
X145698000Y-78192380D01*
X145364666Y-78573333D01*
X145507523Y-78573333D01*
X145602761Y-78620952D01*
X145650380Y-78668571D01*
X145698000Y-78763809D01*
X145698000Y-79001904D01*
X145650380Y-79097142D01*
X145602761Y-79144761D01*
X145507523Y-79192380D01*
X145221809Y-79192380D01*
X145126571Y-79144761D01*
X145078952Y-79097142D01*
X145983714Y-78192380D02*
X146317047Y-79192380D01*
X146650380Y-78192380D01*
X146888476Y-78192380D02*
X147507523Y-78192380D01*
X147174190Y-78573333D01*
X147317047Y-78573333D01*
X147412285Y-78620952D01*
X147459904Y-78668571D01*
X147507523Y-78763809D01*
X147507523Y-79001904D01*
X147459904Y-79097142D01*
X147412285Y-79144761D01*
X147317047Y-79192380D01*
X147031333Y-79192380D01*
X146936095Y-79144761D01*
X146888476Y-79097142D01*
D11*
X141178119Y-80780000D02*
X141101928Y-80732380D01*
X140987642Y-80732380D01*
X140873357Y-80780000D01*
X140797166Y-80875238D01*
X140759071Y-80970476D01*
X140720976Y-81160952D01*
X140720976Y-81303809D01*
X140759071Y-81494285D01*
X140797166Y-81589523D01*
X140873357Y-81684761D01*
X140987642Y-81732380D01*
X141063833Y-81732380D01*
X141178119Y-81684761D01*
X141216214Y-81637142D01*
X141216214Y-81303809D01*
X141063833Y-81303809D01*
X141482880Y-80732380D02*
X142016214Y-81732380D01*
X142016214Y-80732380D02*
X141482880Y-81732380D01*
X142740023Y-81732380D02*
X142282880Y-81732380D01*
X142511452Y-81732380D02*
X142511452Y-80732380D01*
X142435261Y-80875238D01*
X142359071Y-80970476D01*
X142282880Y-81018095D01*
X143006690Y-80732380D02*
X143540023Y-80732380D01*
X143197166Y-81732380D01*
X144073357Y-82113333D02*
X144035261Y-82065714D01*
X143959071Y-81922857D01*
X143920976Y-81827619D01*
X143882880Y-81684761D01*
X143844785Y-81446666D01*
X143844785Y-81256190D01*
X143882880Y-81018095D01*
X143920976Y-80875238D01*
X143959071Y-80780000D01*
X144035261Y-80637142D01*
X144073357Y-80589523D01*
X144340023Y-81684761D02*
X144454309Y-81732380D01*
X144644785Y-81732380D01*
X144720976Y-81684761D01*
X144759071Y-81637142D01*
X144797166Y-81541904D01*
X144797166Y-81446666D01*
X144759071Y-81351428D01*
X144720976Y-81303809D01*
X144644785Y-81256190D01*
X144492404Y-81208571D01*
X144416214Y-81160952D01*
X144378119Y-81113333D01*
X144340023Y-81018095D01*
X144340023Y-80922857D01*
X144378119Y-80827619D01*
X144416214Y-80780000D01*
X144492404Y-80732380D01*
X144682880Y-80732380D01*
X144797166Y-80780000D01*
X145140023Y-81732380D02*
X145140023Y-80732380D01*
X145330500Y-80732380D01*
X145444785Y-80780000D01*
X145520976Y-80875238D01*
X145559071Y-80970476D01*
X145597166Y-81160952D01*
X145597166Y-81303809D01*
X145559071Y-81494285D01*
X145520976Y-81589523D01*
X145444785Y-81684761D01*
X145330500Y-81732380D01*
X145140023Y-81732380D01*
X145901928Y-81446666D02*
X146282880Y-81446666D01*
X145825738Y-81732380D02*
X146092404Y-80732380D01*
X146359071Y-81732380D01*
X146778119Y-80732380D02*
X146854309Y-80732380D01*
X146930500Y-80780000D01*
X146968595Y-80827619D01*
X147006690Y-80922857D01*
X147044785Y-81113333D01*
X147044785Y-81351428D01*
X147006690Y-81541904D01*
X146968595Y-81637142D01*
X146930500Y-81684761D01*
X146854309Y-81732380D01*
X146778119Y-81732380D01*
X146701928Y-81684761D01*
X146663833Y-81637142D01*
X146625738Y-81541904D01*
X146587642Y-81351428D01*
X146587642Y-81113333D01*
X146625738Y-80922857D01*
X146663833Y-80827619D01*
X146701928Y-80780000D01*
X146778119Y-80732380D01*
X147311452Y-82113333D02*
X147349547Y-82065714D01*
X147425738Y-81922857D01*
X147463833Y-81827619D01*
X147501928Y-81684761D01*
X147540023Y-81446666D01*
X147540023Y-81256190D01*
X147501928Y-81018095D01*
X147463833Y-80875238D01*
X147425738Y-80780000D01*
X147349547Y-80637142D01*
X147311452Y-80589523D01*
X141216214Y-83320000D02*
X141140023Y-83272380D01*
X141025738Y-83272380D01*
X140911452Y-83320000D01*
X140835261Y-83415238D01*
X140797166Y-83510476D01*
X140759071Y-83700952D01*
X140759071Y-83843809D01*
X140797166Y-84034285D01*
X140835261Y-84129523D01*
X140911452Y-84224761D01*
X141025738Y-84272380D01*
X141101928Y-84272380D01*
X141216214Y-84224761D01*
X141254309Y-84177142D01*
X141254309Y-83843809D01*
X141101928Y-83843809D01*
X141520976Y-83272380D02*
X142054309Y-84272380D01*
X142054309Y-83272380D02*
X141520976Y-84272380D01*
X142778119Y-84272380D02*
X142320976Y-84272380D01*
X142549547Y-84272380D02*
X142549547Y-83272380D01*
X142473357Y-83415238D01*
X142397166Y-83510476D01*
X142320976Y-83558095D01*
X143235261Y-83700952D02*
X143159071Y-83653333D01*
X143120976Y-83605714D01*
X143082880Y-83510476D01*
X143082880Y-83462857D01*
X143120976Y-83367619D01*
X143159071Y-83320000D01*
X143235261Y-83272380D01*
X143387642Y-83272380D01*
X143463833Y-83320000D01*
X143501928Y-83367619D01*
X143540023Y-83462857D01*
X143540023Y-83510476D01*
X143501928Y-83605714D01*
X143463833Y-83653333D01*
X143387642Y-83700952D01*
X143235261Y-83700952D01*
X143159071Y-83748571D01*
X143120976Y-83796190D01*
X143082880Y-83891428D01*
X143082880Y-84081904D01*
X143120976Y-84177142D01*
X143159071Y-84224761D01*
X143235261Y-84272380D01*
X143387642Y-84272380D01*
X143463833Y-84224761D01*
X143501928Y-84177142D01*
X143540023Y-84081904D01*
X143540023Y-83891428D01*
X143501928Y-83796190D01*
X143463833Y-83748571D01*
X143387642Y-83700952D01*
X144111452Y-84653333D02*
X144073357Y-84605714D01*
X143997166Y-84462857D01*
X143959071Y-84367619D01*
X143920976Y-84224761D01*
X143882880Y-83986666D01*
X143882880Y-83796190D01*
X143920976Y-83558095D01*
X143959071Y-83415238D01*
X143997166Y-83320000D01*
X144073357Y-83177142D01*
X144111452Y-83129523D01*
X144378119Y-84224761D02*
X144492404Y-84272380D01*
X144682880Y-84272380D01*
X144759071Y-84224761D01*
X144797166Y-84177142D01*
X144835261Y-84081904D01*
X144835261Y-83986666D01*
X144797166Y-83891428D01*
X144759071Y-83843809D01*
X144682880Y-83796190D01*
X144530500Y-83748571D01*
X144454309Y-83700952D01*
X144416214Y-83653333D01*
X144378119Y-83558095D01*
X144378119Y-83462857D01*
X144416214Y-83367619D01*
X144454309Y-83320000D01*
X144530500Y-83272380D01*
X144720976Y-83272380D01*
X144835261Y-83320000D01*
X145635261Y-84177142D02*
X145597166Y-84224761D01*
X145482880Y-84272380D01*
X145406690Y-84272380D01*
X145292404Y-84224761D01*
X145216214Y-84129523D01*
X145178119Y-84034285D01*
X145140023Y-83843809D01*
X145140023Y-83700952D01*
X145178119Y-83510476D01*
X145216214Y-83415238D01*
X145292404Y-83320000D01*
X145406690Y-83272380D01*
X145482880Y-83272380D01*
X145597166Y-83320000D01*
X145635261Y-83367619D01*
X146359071Y-84272380D02*
X145978119Y-84272380D01*
X145978119Y-83272380D01*
X146778119Y-83272380D02*
X146854309Y-83272380D01*
X146930500Y-83320000D01*
X146968595Y-83367619D01*
X147006690Y-83462857D01*
X147044785Y-83653333D01*
X147044785Y-83891428D01*
X147006690Y-84081904D01*
X146968595Y-84177142D01*
X146930500Y-84224761D01*
X146854309Y-84272380D01*
X146778119Y-84272380D01*
X146701928Y-84224761D01*
X146663833Y-84177142D01*
X146625738Y-84081904D01*
X146587642Y-83891428D01*
X146587642Y-83653333D01*
X146625738Y-83462857D01*
X146663833Y-83367619D01*
X146701928Y-83320000D01*
X146778119Y-83272380D01*
X147311452Y-84653333D02*
X147349547Y-84605714D01*
X147425738Y-84462857D01*
X147463833Y-84367619D01*
X147501928Y-84224761D01*
X147540023Y-83986666D01*
X147540023Y-83796190D01*
X147501928Y-83558095D01*
X147463833Y-83415238D01*
X147425738Y-83320000D01*
X147349547Y-83177142D01*
X147311452Y-83129523D01*
X144730500Y-85860000D02*
X144635261Y-85812380D01*
X144492404Y-85812380D01*
X144349547Y-85860000D01*
X144254309Y-85955238D01*
X144206690Y-86050476D01*
X144159071Y-86240952D01*
X144159071Y-86383809D01*
X144206690Y-86574285D01*
X144254309Y-86669523D01*
X144349547Y-86764761D01*
X144492404Y-86812380D01*
X144587642Y-86812380D01*
X144730500Y-86764761D01*
X144778119Y-86717142D01*
X144778119Y-86383809D01*
X144587642Y-86383809D01*
X145159071Y-86526666D02*
X145635261Y-86526666D01*
X145063833Y-86812380D02*
X145397166Y-85812380D01*
X145730500Y-86812380D01*
X146587642Y-86812380D02*
X146016214Y-86812380D01*
X146301928Y-86812380D02*
X146301928Y-85812380D01*
X146206690Y-85955238D01*
X146111452Y-86050476D01*
X146016214Y-86098095D01*
X146920976Y-85812380D02*
X147540023Y-85812380D01*
X147206690Y-86193333D01*
X147349547Y-86193333D01*
X147444785Y-86240952D01*
X147492404Y-86288571D01*
X147540023Y-86383809D01*
X147540023Y-86621904D01*
X147492404Y-86717142D01*
X147444785Y-86764761D01*
X147349547Y-86812380D01*
X147063833Y-86812380D01*
X146968595Y-86764761D01*
X146920976Y-86717142D01*
D12*
X145412285Y-88400000D02*
X145317047Y-88352380D01*
X145174190Y-88352380D01*
X145031333Y-88400000D01*
X144936095Y-88495238D01*
X144888476Y-88590476D01*
X144840857Y-88780952D01*
X144840857Y-88923809D01*
X144888476Y-89114285D01*
X144936095Y-89209523D01*
X145031333Y-89304761D01*
X145174190Y-89352380D01*
X145269428Y-89352380D01*
X145412285Y-89304761D01*
X145459904Y-89257142D01*
X145459904Y-88923809D01*
X145269428Y-88923809D01*
X145888476Y-89352380D02*
X145888476Y-88352380D01*
X146459904Y-89352380D01*
X146459904Y-88352380D01*
X146936095Y-89352380D02*
X146936095Y-88352380D01*
X147174190Y-88352380D01*
X147317047Y-88400000D01*
X147412285Y-88495238D01*
X147459904Y-88590476D01*
X147507523Y-88780952D01*
X147507523Y-88923809D01*
X147459904Y-89114285D01*
X147412285Y-89209523D01*
X147317047Y-89304761D01*
X147174190Y-89352380D01*
X146936095Y-89352380D01*
D11*
X145587642Y-90940000D02*
X145492404Y-90892380D01*
X145349547Y-90892380D01*
X145206690Y-90940000D01*
X145111452Y-91035238D01*
X145063833Y-91130476D01*
X145016214Y-91320952D01*
X145016214Y-91463809D01*
X145063833Y-91654285D01*
X145111452Y-91749523D01*
X145206690Y-91844761D01*
X145349547Y-91892380D01*
X145444785Y-91892380D01*
X145587642Y-91844761D01*
X145635261Y-91797142D01*
X145635261Y-91463809D01*
X145444785Y-91463809D01*
X145968595Y-90892380D02*
X146635261Y-91892380D01*
X146635261Y-90892380D02*
X145968595Y-91892380D01*
X146920976Y-90892380D02*
X147540023Y-90892380D01*
X147206690Y-91273333D01*
X147349547Y-91273333D01*
X147444785Y-91320952D01*
X147492404Y-91368571D01*
X147540023Y-91463809D01*
X147540023Y-91701904D01*
X147492404Y-91797142D01*
X147444785Y-91844761D01*
X147349547Y-91892380D01*
X147063833Y-91892380D01*
X146968595Y-91844761D01*
X146920976Y-91797142D01*
X145587642Y-93480000D02*
X145492404Y-93432380D01*
X145349547Y-93432380D01*
X145206690Y-93480000D01*
X145111452Y-93575238D01*
X145063833Y-93670476D01*
X145016214Y-93860952D01*
X145016214Y-94003809D01*
X145063833Y-94194285D01*
X145111452Y-94289523D01*
X145206690Y-94384761D01*
X145349547Y-94432380D01*
X145444785Y-94432380D01*
X145587642Y-94384761D01*
X145635261Y-94337142D01*
X145635261Y-94003809D01*
X145444785Y-94003809D01*
X145968595Y-93432380D02*
X146635261Y-94432380D01*
X146635261Y-93432380D02*
X145968595Y-94432380D01*
X147444785Y-93765714D02*
X147444785Y-94432380D01*
X147206690Y-93384761D02*
X146968595Y-94099047D01*
X147587642Y-94099047D01*
X145587642Y-96020000D02*
X145492404Y-95972380D01*
X145349547Y-95972380D01*
X145206690Y-96020000D01*
X145111452Y-96115238D01*
X145063833Y-96210476D01*
X145016214Y-96400952D01*
X145016214Y-96543809D01*
X145063833Y-96734285D01*
X145111452Y-96829523D01*
X145206690Y-96924761D01*
X145349547Y-96972380D01*
X145444785Y-96972380D01*
X145587642Y-96924761D01*
X145635261Y-96877142D01*
X145635261Y-96543809D01*
X145444785Y-96543809D01*
X145968595Y-95972380D02*
X146635261Y-96972380D01*
X146635261Y-95972380D02*
X145968595Y-96972380D01*
X146920976Y-95972380D02*
X147587642Y-95972380D01*
X147159071Y-96972380D01*
D12*
X145078952Y-98512380D02*
X145698000Y-98512380D01*
X145364666Y-98893333D01*
X145507523Y-98893333D01*
X145602761Y-98940952D01*
X145650380Y-98988571D01*
X145698000Y-99083809D01*
X145698000Y-99321904D01*
X145650380Y-99417142D01*
X145602761Y-99464761D01*
X145507523Y-99512380D01*
X145221809Y-99512380D01*
X145126571Y-99464761D01*
X145078952Y-99417142D01*
X145983714Y-98512380D02*
X146317047Y-99512380D01*
X146650380Y-98512380D01*
X146888476Y-98512380D02*
X147507523Y-98512380D01*
X147174190Y-98893333D01*
X147317047Y-98893333D01*
X147412285Y-98940952D01*
X147459904Y-98988571D01*
X147507523Y-99083809D01*
X147507523Y-99321904D01*
X147459904Y-99417142D01*
X147412285Y-99464761D01*
X147317047Y-99512380D01*
X147031333Y-99512380D01*
X146936095Y-99464761D01*
X146888476Y-99417142D01*
D11*
X142054309Y-101100000D02*
X141978119Y-101052380D01*
X141863833Y-101052380D01*
X141749547Y-101100000D01*
X141673357Y-101195238D01*
X141635261Y-101290476D01*
X141597166Y-101480952D01*
X141597166Y-101623809D01*
X141635261Y-101814285D01*
X141673357Y-101909523D01*
X141749547Y-102004761D01*
X141863833Y-102052380D01*
X141940023Y-102052380D01*
X142054309Y-102004761D01*
X142092404Y-101957142D01*
X142092404Y-101623809D01*
X141940023Y-101623809D01*
X142359071Y-101052380D02*
X142892404Y-102052380D01*
X142892404Y-101052380D02*
X142359071Y-102052380D01*
X143311452Y-101480952D02*
X143235261Y-101433333D01*
X143197166Y-101385714D01*
X143159071Y-101290476D01*
X143159071Y-101242857D01*
X143197166Y-101147619D01*
X143235261Y-101100000D01*
X143311452Y-101052380D01*
X143463833Y-101052380D01*
X143540023Y-101100000D01*
X143578119Y-101147619D01*
X143616214Y-101242857D01*
X143616214Y-101290476D01*
X143578119Y-101385714D01*
X143540023Y-101433333D01*
X143463833Y-101480952D01*
X143311452Y-101480952D01*
X143235261Y-101528571D01*
X143197166Y-101576190D01*
X143159071Y-101671428D01*
X143159071Y-101861904D01*
X143197166Y-101957142D01*
X143235261Y-102004761D01*
X143311452Y-102052380D01*
X143463833Y-102052380D01*
X143540023Y-102004761D01*
X143578119Y-101957142D01*
X143616214Y-101861904D01*
X143616214Y-101671428D01*
X143578119Y-101576190D01*
X143540023Y-101528571D01*
X143463833Y-101480952D01*
X144187642Y-102433333D02*
X144149547Y-102385714D01*
X144073357Y-102242857D01*
X144035261Y-102147619D01*
X143997166Y-102004761D01*
X143959071Y-101766666D01*
X143959071Y-101576190D01*
X143997166Y-101338095D01*
X144035261Y-101195238D01*
X144073357Y-101100000D01*
X144149547Y-100957142D01*
X144187642Y-100909523D01*
X144492404Y-102052380D02*
X144492404Y-101052380D01*
X144759071Y-101766666D01*
X145025738Y-101052380D01*
X145025738Y-102052380D01*
X145559071Y-101052380D02*
X145711452Y-101052380D01*
X145787642Y-101100000D01*
X145863833Y-101195238D01*
X145901928Y-101385714D01*
X145901928Y-101719047D01*
X145863833Y-101909523D01*
X145787642Y-102004761D01*
X145711452Y-102052380D01*
X145559071Y-102052380D01*
X145482880Y-102004761D01*
X145406690Y-101909523D01*
X145368595Y-101719047D01*
X145368595Y-101385714D01*
X145406690Y-101195238D01*
X145482880Y-101100000D01*
X145559071Y-101052380D01*
X146206690Y-102004761D02*
X146320976Y-102052380D01*
X146511452Y-102052380D01*
X146587642Y-102004761D01*
X146625738Y-101957142D01*
X146663833Y-101861904D01*
X146663833Y-101766666D01*
X146625738Y-101671428D01*
X146587642Y-101623809D01*
X146511452Y-101576190D01*
X146359071Y-101528571D01*
X146282880Y-101480952D01*
X146244785Y-101433333D01*
X146206690Y-101338095D01*
X146206690Y-101242857D01*
X146244785Y-101147619D01*
X146282880Y-101100000D01*
X146359071Y-101052380D01*
X146549547Y-101052380D01*
X146663833Y-101100000D01*
X147006690Y-102052380D02*
X147006690Y-101052380D01*
X147311452Y-102433333D02*
X147349547Y-102385714D01*
X147425738Y-102242857D01*
X147463833Y-102147619D01*
X147501928Y-102004761D01*
X147540023Y-101766666D01*
X147540023Y-101576190D01*
X147501928Y-101338095D01*
X147463833Y-101195238D01*
X147425738Y-101100000D01*
X147349547Y-100957142D01*
X147311452Y-100909523D01*
X142054309Y-103640000D02*
X141978119Y-103592380D01*
X141863833Y-103592380D01*
X141749547Y-103640000D01*
X141673357Y-103735238D01*
X141635261Y-103830476D01*
X141597166Y-104020952D01*
X141597166Y-104163809D01*
X141635261Y-104354285D01*
X141673357Y-104449523D01*
X141749547Y-104544761D01*
X141863833Y-104592380D01*
X141940023Y-104592380D01*
X142054309Y-104544761D01*
X142092404Y-104497142D01*
X142092404Y-104163809D01*
X141940023Y-104163809D01*
X142359071Y-103592380D02*
X142892404Y-104592380D01*
X142892404Y-103592380D02*
X142359071Y-104592380D01*
X143235261Y-104592380D02*
X143387642Y-104592380D01*
X143463833Y-104544761D01*
X143501928Y-104497142D01*
X143578119Y-104354285D01*
X143616214Y-104163809D01*
X143616214Y-103782857D01*
X143578119Y-103687619D01*
X143540023Y-103640000D01*
X143463833Y-103592380D01*
X143311452Y-103592380D01*
X143235261Y-103640000D01*
X143197166Y-103687619D01*
X143159071Y-103782857D01*
X143159071Y-104020952D01*
X143197166Y-104116190D01*
X143235261Y-104163809D01*
X143311452Y-104211428D01*
X143463833Y-104211428D01*
X143540023Y-104163809D01*
X143578119Y-104116190D01*
X143616214Y-104020952D01*
X144187642Y-104973333D02*
X144149547Y-104925714D01*
X144073357Y-104782857D01*
X144035261Y-104687619D01*
X143997166Y-104544761D01*
X143959071Y-104306666D01*
X143959071Y-104116190D01*
X143997166Y-103878095D01*
X144035261Y-103735238D01*
X144073357Y-103640000D01*
X144149547Y-103497142D01*
X144187642Y-103449523D01*
X144492404Y-104592380D02*
X144492404Y-103592380D01*
X144759071Y-104306666D01*
X145025738Y-103592380D01*
X145025738Y-104592380D01*
X145406690Y-104592380D02*
X145406690Y-103592380D01*
X145749547Y-104544761D02*
X145863833Y-104592380D01*
X146054309Y-104592380D01*
X146130500Y-104544761D01*
X146168595Y-104497142D01*
X146206690Y-104401904D01*
X146206690Y-104306666D01*
X146168595Y-104211428D01*
X146130500Y-104163809D01*
X146054309Y-104116190D01*
X145901928Y-104068571D01*
X145825738Y-104020952D01*
X145787642Y-103973333D01*
X145749547Y-103878095D01*
X145749547Y-103782857D01*
X145787642Y-103687619D01*
X145825738Y-103640000D01*
X145901928Y-103592380D01*
X146092404Y-103592380D01*
X146206690Y-103640000D01*
X146701928Y-103592380D02*
X146854309Y-103592380D01*
X146930500Y-103640000D01*
X147006690Y-103735238D01*
X147044785Y-103925714D01*
X147044785Y-104259047D01*
X147006690Y-104449523D01*
X146930500Y-104544761D01*
X146854309Y-104592380D01*
X146701928Y-104592380D01*
X146625738Y-104544761D01*
X146549547Y-104449523D01*
X146511452Y-104259047D01*
X146511452Y-103925714D01*
X146549547Y-103735238D01*
X146625738Y-103640000D01*
X146701928Y-103592380D01*
X147311452Y-104973333D02*
X147349547Y-104925714D01*
X147425738Y-104782857D01*
X147463833Y-104687619D01*
X147501928Y-104544761D01*
X147540023Y-104306666D01*
X147540023Y-104116190D01*
X147501928Y-103878095D01*
X147463833Y-103735238D01*
X147425738Y-103640000D01*
X147349547Y-103497142D01*
X147311452Y-103449523D01*
X141178119Y-106180000D02*
X141101928Y-106132380D01*
X140987642Y-106132380D01*
X140873357Y-106180000D01*
X140797166Y-106275238D01*
X140759071Y-106370476D01*
X140720976Y-106560952D01*
X140720976Y-106703809D01*
X140759071Y-106894285D01*
X140797166Y-106989523D01*
X140873357Y-107084761D01*
X140987642Y-107132380D01*
X141063833Y-107132380D01*
X141178119Y-107084761D01*
X141216214Y-107037142D01*
X141216214Y-106703809D01*
X141063833Y-106703809D01*
X141482880Y-106132380D02*
X142016214Y-107132380D01*
X142016214Y-106132380D02*
X141482880Y-107132380D01*
X142740023Y-107132380D02*
X142282880Y-107132380D01*
X142511452Y-107132380D02*
X142511452Y-106132380D01*
X142435261Y-106275238D01*
X142359071Y-106370476D01*
X142282880Y-106418095D01*
X143501928Y-107132380D02*
X143044785Y-107132380D01*
X143273357Y-107132380D02*
X143273357Y-106132380D01*
X143197166Y-106275238D01*
X143120976Y-106370476D01*
X143044785Y-106418095D01*
X144073357Y-107513333D02*
X144035261Y-107465714D01*
X143959071Y-107322857D01*
X143920976Y-107227619D01*
X143882880Y-107084761D01*
X143844785Y-106846666D01*
X143844785Y-106656190D01*
X143882880Y-106418095D01*
X143920976Y-106275238D01*
X143959071Y-106180000D01*
X144035261Y-106037142D01*
X144073357Y-105989523D01*
X144340023Y-107084761D02*
X144454309Y-107132380D01*
X144644785Y-107132380D01*
X144720976Y-107084761D01*
X144759071Y-107037142D01*
X144797166Y-106941904D01*
X144797166Y-106846666D01*
X144759071Y-106751428D01*
X144720976Y-106703809D01*
X144644785Y-106656190D01*
X144492404Y-106608571D01*
X144416214Y-106560952D01*
X144378119Y-106513333D01*
X144340023Y-106418095D01*
X144340023Y-106322857D01*
X144378119Y-106227619D01*
X144416214Y-106180000D01*
X144492404Y-106132380D01*
X144682880Y-106132380D01*
X144797166Y-106180000D01*
X145597166Y-107037142D02*
X145559071Y-107084761D01*
X145444785Y-107132380D01*
X145368595Y-107132380D01*
X145254309Y-107084761D01*
X145178119Y-106989523D01*
X145140023Y-106894285D01*
X145101928Y-106703809D01*
X145101928Y-106560952D01*
X145140023Y-106370476D01*
X145178119Y-106275238D01*
X145254309Y-106180000D01*
X145368595Y-106132380D01*
X145444785Y-106132380D01*
X145559071Y-106180000D01*
X145597166Y-106227619D01*
X146320976Y-107132380D02*
X145940023Y-107132380D01*
X145940023Y-106132380D01*
X146587642Y-107132380D02*
X146587642Y-106132380D01*
X147044785Y-107132380D02*
X146701928Y-106560952D01*
X147044785Y-106132380D02*
X146587642Y-106703809D01*
X147311452Y-107513333D02*
X147349547Y-107465714D01*
X147425738Y-107322857D01*
X147463833Y-107227619D01*
X147501928Y-107084761D01*
X147540023Y-106846666D01*
X147540023Y-106656190D01*
X147501928Y-106418095D01*
X147463833Y-106275238D01*
X147425738Y-106180000D01*
X147349547Y-106037142D01*
X147311452Y-105989523D01*
D12*
X145412285Y-108720000D02*
X145317047Y-108672380D01*
X145174190Y-108672380D01*
X145031333Y-108720000D01*
X144936095Y-108815238D01*
X144888476Y-108910476D01*
X144840857Y-109100952D01*
X144840857Y-109243809D01*
X144888476Y-109434285D01*
X144936095Y-109529523D01*
X145031333Y-109624761D01*
X145174190Y-109672380D01*
X145269428Y-109672380D01*
X145412285Y-109624761D01*
X145459904Y-109577142D01*
X145459904Y-109243809D01*
X145269428Y-109243809D01*
X145888476Y-109672380D02*
X145888476Y-108672380D01*
X146459904Y-109672380D01*
X146459904Y-108672380D01*
X146936095Y-109672380D02*
X146936095Y-108672380D01*
X147174190Y-108672380D01*
X147317047Y-108720000D01*
X147412285Y-108815238D01*
X147459904Y-108910476D01*
X147507523Y-109100952D01*
X147507523Y-109243809D01*
X147459904Y-109434285D01*
X147412285Y-109529523D01*
X147317047Y-109624761D01*
X147174190Y-109672380D01*
X146936095Y-109672380D01*
D11*
X178087976Y-127166666D02*
X178564166Y-127166666D01*
X177992738Y-127452380D02*
X178326071Y-126452380D01*
X178659404Y-127452380D01*
X178992738Y-127452380D02*
X178992738Y-126452380D01*
X179230833Y-126452380D01*
X179373690Y-126500000D01*
X179468928Y-126595238D01*
X179516547Y-126690476D01*
X179564166Y-126880952D01*
X179564166Y-127023809D01*
X179516547Y-127214285D01*
X179468928Y-127309523D01*
X179373690Y-127404761D01*
X179230833Y-127452380D01*
X178992738Y-127452380D01*
X180564166Y-127357142D02*
X180516547Y-127404761D01*
X180373690Y-127452380D01*
X180278452Y-127452380D01*
X180135595Y-127404761D01*
X180040357Y-127309523D01*
X179992738Y-127214285D01*
X179945119Y-127023809D01*
X179945119Y-126880952D01*
X179992738Y-126690476D01*
X180040357Y-126595238D01*
X180135595Y-126500000D01*
X180278452Y-126452380D01*
X180373690Y-126452380D01*
X180516547Y-126500000D01*
X180564166Y-126547619D01*
X180945119Y-126547619D02*
X180992738Y-126500000D01*
X181087976Y-126452380D01*
X181326071Y-126452380D01*
X181421309Y-126500000D01*
X181468928Y-126547619D01*
X181516547Y-126642857D01*
X181516547Y-126738095D01*
X181468928Y-126880952D01*
X180897500Y-127452380D01*
X181516547Y-127452380D01*
X178659404Y-124912380D02*
X178087976Y-124912380D01*
X178373690Y-124912380D02*
X178373690Y-123912380D01*
X178278452Y-124055238D01*
X178183214Y-124150476D01*
X178087976Y-124198095D01*
X178945119Y-123912380D02*
X179278452Y-124912380D01*
X179611785Y-123912380D01*
X180087976Y-124340952D02*
X179992738Y-124293333D01*
X179945119Y-124245714D01*
X179897500Y-124150476D01*
X179897500Y-124102857D01*
X179945119Y-124007619D01*
X179992738Y-123960000D01*
X180087976Y-123912380D01*
X180278452Y-123912380D01*
X180373690Y-123960000D01*
X180421309Y-124007619D01*
X180468928Y-124102857D01*
X180468928Y-124150476D01*
X180421309Y-124245714D01*
X180373690Y-124293333D01*
X180278452Y-124340952D01*
X180087976Y-124340952D01*
X179992738Y-124388571D01*
X179945119Y-124436190D01*
X179897500Y-124531428D01*
X179897500Y-124721904D01*
X179945119Y-124817142D01*
X179992738Y-124864761D01*
X180087976Y-124912380D01*
X180278452Y-124912380D01*
X180373690Y-124864761D01*
X180421309Y-124817142D01*
X180468928Y-124721904D01*
X180468928Y-124531428D01*
X180421309Y-124436190D01*
X180373690Y-124388571D01*
X180278452Y-124340952D01*
X178659404Y-121420000D02*
X178564166Y-121372380D01*
X178421309Y-121372380D01*
X178278452Y-121420000D01*
X178183214Y-121515238D01*
X178135595Y-121610476D01*
X178087976Y-121800952D01*
X178087976Y-121943809D01*
X178135595Y-122134285D01*
X178183214Y-122229523D01*
X178278452Y-122324761D01*
X178421309Y-122372380D01*
X178516547Y-122372380D01*
X178659404Y-122324761D01*
X178707023Y-122277142D01*
X178707023Y-121943809D01*
X178516547Y-121943809D01*
X179040357Y-121372380D02*
X179707023Y-122372380D01*
X179707023Y-121372380D02*
X179040357Y-122372380D01*
X180611785Y-122372380D02*
X180040357Y-122372380D01*
X180326071Y-122372380D02*
X180326071Y-121372380D01*
X180230833Y-121515238D01*
X180135595Y-121610476D01*
X180040357Y-121658095D01*
X181087976Y-122372380D02*
X181278452Y-122372380D01*
X181373690Y-122324761D01*
X181421309Y-122277142D01*
X181516547Y-122134285D01*
X181564166Y-121943809D01*
X181564166Y-121562857D01*
X181516547Y-121467619D01*
X181468928Y-121420000D01*
X181373690Y-121372380D01*
X181183214Y-121372380D01*
X181087976Y-121420000D01*
X181040357Y-121467619D01*
X180992738Y-121562857D01*
X180992738Y-121800952D01*
X181040357Y-121896190D01*
X181087976Y-121943809D01*
X181183214Y-121991428D01*
X181373690Y-121991428D01*
X181468928Y-121943809D01*
X181516547Y-121896190D01*
X181564166Y-121800952D01*
X178659404Y-118880000D02*
X178564166Y-118832380D01*
X178421309Y-118832380D01*
X178278452Y-118880000D01*
X178183214Y-118975238D01*
X178135595Y-119070476D01*
X178087976Y-119260952D01*
X178087976Y-119403809D01*
X178135595Y-119594285D01*
X178183214Y-119689523D01*
X178278452Y-119784761D01*
X178421309Y-119832380D01*
X178516547Y-119832380D01*
X178659404Y-119784761D01*
X178707023Y-119737142D01*
X178707023Y-119403809D01*
X178516547Y-119403809D01*
X179135595Y-119832380D02*
X179135595Y-118832380D01*
X179707023Y-119832380D01*
X179707023Y-118832380D01*
X180183214Y-119832380D02*
X180183214Y-118832380D01*
X180421309Y-118832380D01*
X180564166Y-118880000D01*
X180659404Y-118975238D01*
X180707023Y-119070476D01*
X180754642Y-119260952D01*
X180754642Y-119403809D01*
X180707023Y-119594285D01*
X180659404Y-119689523D01*
X180564166Y-119784761D01*
X180421309Y-119832380D01*
X180183214Y-119832380D01*
X178659404Y-116340000D02*
X178564166Y-116292380D01*
X178421309Y-116292380D01*
X178278452Y-116340000D01*
X178183214Y-116435238D01*
X178135595Y-116530476D01*
X178087976Y-116720952D01*
X178087976Y-116863809D01*
X178135595Y-117054285D01*
X178183214Y-117149523D01*
X178278452Y-117244761D01*
X178421309Y-117292380D01*
X178516547Y-117292380D01*
X178659404Y-117244761D01*
X178707023Y-117197142D01*
X178707023Y-116863809D01*
X178516547Y-116863809D01*
X179087976Y-117006666D02*
X179564166Y-117006666D01*
X178992738Y-117292380D02*
X179326071Y-116292380D01*
X179659404Y-117292380D01*
X180516547Y-117292380D02*
X179945119Y-117292380D01*
X180230833Y-117292380D02*
X180230833Y-116292380D01*
X180135595Y-116435238D01*
X180040357Y-116530476D01*
X179945119Y-116578095D01*
X180897500Y-116387619D02*
X180945119Y-116340000D01*
X181040357Y-116292380D01*
X181278452Y-116292380D01*
X181373690Y-116340000D01*
X181421309Y-116387619D01*
X181468928Y-116482857D01*
X181468928Y-116578095D01*
X181421309Y-116720952D01*
X180849880Y-117292380D01*
X181468928Y-117292380D01*
D12*
X178691904Y-113800000D02*
X178596666Y-113752380D01*
X178453809Y-113752380D01*
X178310952Y-113800000D01*
X178215714Y-113895238D01*
X178168095Y-113990476D01*
X178120476Y-114180952D01*
X178120476Y-114323809D01*
X178168095Y-114514285D01*
X178215714Y-114609523D01*
X178310952Y-114704761D01*
X178453809Y-114752380D01*
X178549047Y-114752380D01*
X178691904Y-114704761D01*
X178739523Y-114657142D01*
X178739523Y-114323809D01*
X178549047Y-114323809D01*
X179168095Y-114752380D02*
X179168095Y-113752380D01*
X179739523Y-114752380D01*
X179739523Y-113752380D01*
X180215714Y-114752380D02*
X180215714Y-113752380D01*
X180453809Y-113752380D01*
X180596666Y-113800000D01*
X180691904Y-113895238D01*
X180739523Y-113990476D01*
X180787142Y-114180952D01*
X180787142Y-114323809D01*
X180739523Y-114514285D01*
X180691904Y-114609523D01*
X180596666Y-114704761D01*
X180453809Y-114752380D01*
X180215714Y-114752380D01*
D11*
X178507023Y-111260000D02*
X178430833Y-111212380D01*
X178316547Y-111212380D01*
X178202261Y-111260000D01*
X178126071Y-111355238D01*
X178087976Y-111450476D01*
X178049880Y-111640952D01*
X178049880Y-111783809D01*
X178087976Y-111974285D01*
X178126071Y-112069523D01*
X178202261Y-112164761D01*
X178316547Y-112212380D01*
X178392738Y-112212380D01*
X178507023Y-112164761D01*
X178545119Y-112117142D01*
X178545119Y-111783809D01*
X178392738Y-111783809D01*
X178849880Y-111926666D02*
X179230833Y-111926666D01*
X178773690Y-112212380D02*
X179040357Y-111212380D01*
X179307023Y-112212380D01*
X179992738Y-112212380D02*
X179535595Y-112212380D01*
X179764166Y-112212380D02*
X179764166Y-111212380D01*
X179687976Y-111355238D01*
X179611785Y-111450476D01*
X179535595Y-111498095D01*
X180716547Y-111212380D02*
X180335595Y-111212380D01*
X180297500Y-111688571D01*
X180335595Y-111640952D01*
X180411785Y-111593333D01*
X180602261Y-111593333D01*
X180678452Y-111640952D01*
X180716547Y-111688571D01*
X180754642Y-111783809D01*
X180754642Y-112021904D01*
X180716547Y-112117142D01*
X180678452Y-112164761D01*
X180602261Y-112212380D01*
X180411785Y-112212380D01*
X180335595Y-112164761D01*
X180297500Y-112117142D01*
X181326071Y-112593333D02*
X181287976Y-112545714D01*
X181211785Y-112402857D01*
X181173690Y-112307619D01*
X181135595Y-112164761D01*
X181097500Y-111926666D01*
X181097500Y-111736190D01*
X181135595Y-111498095D01*
X181173690Y-111355238D01*
X181211785Y-111260000D01*
X181287976Y-111117142D01*
X181326071Y-111069523D01*
X181592738Y-112164761D02*
X181707023Y-112212380D01*
X181897500Y-112212380D01*
X181973690Y-112164761D01*
X182011785Y-112117142D01*
X182049880Y-112021904D01*
X182049880Y-111926666D01*
X182011785Y-111831428D01*
X181973690Y-111783809D01*
X181897500Y-111736190D01*
X181745119Y-111688571D01*
X181668928Y-111640952D01*
X181630833Y-111593333D01*
X181592738Y-111498095D01*
X181592738Y-111402857D01*
X181630833Y-111307619D01*
X181668928Y-111260000D01*
X181745119Y-111212380D01*
X181935595Y-111212380D01*
X182049880Y-111260000D01*
X182849880Y-112117142D02*
X182811785Y-112164761D01*
X182697500Y-112212380D01*
X182621309Y-112212380D01*
X182507023Y-112164761D01*
X182430833Y-112069523D01*
X182392738Y-111974285D01*
X182354642Y-111783809D01*
X182354642Y-111640952D01*
X182392738Y-111450476D01*
X182430833Y-111355238D01*
X182507023Y-111260000D01*
X182621309Y-111212380D01*
X182697500Y-111212380D01*
X182811785Y-111260000D01*
X182849880Y-111307619D01*
X183573690Y-112212380D02*
X183192738Y-112212380D01*
X183192738Y-111212380D01*
X184259404Y-112212380D02*
X183802261Y-112212380D01*
X184030833Y-112212380D02*
X184030833Y-111212380D01*
X183954642Y-111355238D01*
X183878452Y-111450476D01*
X183802261Y-111498095D01*
X184526071Y-112593333D02*
X184564166Y-112545714D01*
X184640357Y-112402857D01*
X184678452Y-112307619D01*
X184716547Y-112164761D01*
X184754642Y-111926666D01*
X184754642Y-111736190D01*
X184716547Y-111498095D01*
X184678452Y-111355238D01*
X184640357Y-111260000D01*
X184564166Y-111117142D01*
X184526071Y-111069523D01*
X178507023Y-108720000D02*
X178430833Y-108672380D01*
X178316547Y-108672380D01*
X178202261Y-108720000D01*
X178126071Y-108815238D01*
X178087976Y-108910476D01*
X178049880Y-109100952D01*
X178049880Y-109243809D01*
X178087976Y-109434285D01*
X178126071Y-109529523D01*
X178202261Y-109624761D01*
X178316547Y-109672380D01*
X178392738Y-109672380D01*
X178507023Y-109624761D01*
X178545119Y-109577142D01*
X178545119Y-109243809D01*
X178392738Y-109243809D01*
X178849880Y-109386666D02*
X179230833Y-109386666D01*
X178773690Y-109672380D02*
X179040357Y-108672380D01*
X179307023Y-109672380D01*
X179916547Y-109005714D02*
X179916547Y-109672380D01*
X179726071Y-108624761D02*
X179535595Y-109339047D01*
X180030833Y-109339047D01*
X180564166Y-110053333D02*
X180526071Y-110005714D01*
X180449880Y-109862857D01*
X180411785Y-109767619D01*
X180373690Y-109624761D01*
X180335595Y-109386666D01*
X180335595Y-109196190D01*
X180373690Y-108958095D01*
X180411785Y-108815238D01*
X180449880Y-108720000D01*
X180526071Y-108577142D01*
X180564166Y-108529523D01*
X180830833Y-109624761D02*
X180945119Y-109672380D01*
X181135595Y-109672380D01*
X181211785Y-109624761D01*
X181249880Y-109577142D01*
X181287976Y-109481904D01*
X181287976Y-109386666D01*
X181249880Y-109291428D01*
X181211785Y-109243809D01*
X181135595Y-109196190D01*
X180983214Y-109148571D01*
X180907023Y-109100952D01*
X180868928Y-109053333D01*
X180830833Y-108958095D01*
X180830833Y-108862857D01*
X180868928Y-108767619D01*
X180907023Y-108720000D01*
X180983214Y-108672380D01*
X181173690Y-108672380D01*
X181287976Y-108720000D01*
X181592738Y-109624761D02*
X181707023Y-109672380D01*
X181897500Y-109672380D01*
X181973690Y-109624761D01*
X182011785Y-109577142D01*
X182049880Y-109481904D01*
X182049880Y-109386666D01*
X182011785Y-109291428D01*
X181973690Y-109243809D01*
X181897500Y-109196190D01*
X181745119Y-109148571D01*
X181668928Y-109100952D01*
X181630833Y-109053333D01*
X181592738Y-108958095D01*
X181592738Y-108862857D01*
X181630833Y-108767619D01*
X181668928Y-108720000D01*
X181745119Y-108672380D01*
X181935595Y-108672380D01*
X182049880Y-108720000D01*
X182811785Y-109672380D02*
X182354642Y-109672380D01*
X182583214Y-109672380D02*
X182583214Y-108672380D01*
X182507023Y-108815238D01*
X182430833Y-108910476D01*
X182354642Y-108958095D01*
X183078452Y-110053333D02*
X183116547Y-110005714D01*
X183192738Y-109862857D01*
X183230833Y-109767619D01*
X183268928Y-109624761D01*
X183307023Y-109386666D01*
X183307023Y-109196190D01*
X183268928Y-108958095D01*
X183230833Y-108815238D01*
X183192738Y-108720000D01*
X183116547Y-108577142D01*
X183078452Y-108529523D01*
X178507023Y-106180000D02*
X178430833Y-106132380D01*
X178316547Y-106132380D01*
X178202261Y-106180000D01*
X178126071Y-106275238D01*
X178087976Y-106370476D01*
X178049880Y-106560952D01*
X178049880Y-106703809D01*
X178087976Y-106894285D01*
X178126071Y-106989523D01*
X178202261Y-107084761D01*
X178316547Y-107132380D01*
X178392738Y-107132380D01*
X178507023Y-107084761D01*
X178545119Y-107037142D01*
X178545119Y-106703809D01*
X178392738Y-106703809D01*
X178811785Y-106132380D02*
X179345119Y-107132380D01*
X179345119Y-106132380D02*
X178811785Y-107132380D01*
X180068928Y-107132380D02*
X179611785Y-107132380D01*
X179840357Y-107132380D02*
X179840357Y-106132380D01*
X179764166Y-106275238D01*
X179687976Y-106370476D01*
X179611785Y-106418095D01*
X180564166Y-106132380D02*
X180640357Y-106132380D01*
X180716547Y-106180000D01*
X180754642Y-106227619D01*
X180792738Y-106322857D01*
X180830833Y-106513333D01*
X180830833Y-106751428D01*
X180792738Y-106941904D01*
X180754642Y-107037142D01*
X180716547Y-107084761D01*
X180640357Y-107132380D01*
X180564166Y-107132380D01*
X180487976Y-107084761D01*
X180449880Y-107037142D01*
X180411785Y-106941904D01*
X180373690Y-106751428D01*
X180373690Y-106513333D01*
X180411785Y-106322857D01*
X180449880Y-106227619D01*
X180487976Y-106180000D01*
X180564166Y-106132380D01*
X181402261Y-107513333D02*
X181364166Y-107465714D01*
X181287976Y-107322857D01*
X181249880Y-107227619D01*
X181211785Y-107084761D01*
X181173690Y-106846666D01*
X181173690Y-106656190D01*
X181211785Y-106418095D01*
X181249880Y-106275238D01*
X181287976Y-106180000D01*
X181364166Y-106037142D01*
X181402261Y-105989523D01*
X181668928Y-107084761D02*
X181783214Y-107132380D01*
X181973690Y-107132380D01*
X182049880Y-107084761D01*
X182087976Y-107037142D01*
X182126071Y-106941904D01*
X182126071Y-106846666D01*
X182087976Y-106751428D01*
X182049880Y-106703809D01*
X181973690Y-106656190D01*
X181821309Y-106608571D01*
X181745119Y-106560952D01*
X181707023Y-106513333D01*
X181668928Y-106418095D01*
X181668928Y-106322857D01*
X181707023Y-106227619D01*
X181745119Y-106180000D01*
X181821309Y-106132380D01*
X182011785Y-106132380D01*
X182126071Y-106180000D01*
X182430833Y-107084761D02*
X182545119Y-107132380D01*
X182735595Y-107132380D01*
X182811785Y-107084761D01*
X182849880Y-107037142D01*
X182887976Y-106941904D01*
X182887976Y-106846666D01*
X182849880Y-106751428D01*
X182811785Y-106703809D01*
X182735595Y-106656190D01*
X182583214Y-106608571D01*
X182507023Y-106560952D01*
X182468928Y-106513333D01*
X182430833Y-106418095D01*
X182430833Y-106322857D01*
X182468928Y-106227619D01*
X182507023Y-106180000D01*
X182583214Y-106132380D01*
X182773690Y-106132380D01*
X182887976Y-106180000D01*
X183383214Y-106132380D02*
X183459404Y-106132380D01*
X183535595Y-106180000D01*
X183573690Y-106227619D01*
X183611785Y-106322857D01*
X183649880Y-106513333D01*
X183649880Y-106751428D01*
X183611785Y-106941904D01*
X183573690Y-107037142D01*
X183535595Y-107084761D01*
X183459404Y-107132380D01*
X183383214Y-107132380D01*
X183307023Y-107084761D01*
X183268928Y-107037142D01*
X183230833Y-106941904D01*
X183192738Y-106751428D01*
X183192738Y-106513333D01*
X183230833Y-106322857D01*
X183268928Y-106227619D01*
X183307023Y-106180000D01*
X183383214Y-106132380D01*
X183916547Y-107513333D02*
X183954642Y-107465714D01*
X184030833Y-107322857D01*
X184068928Y-107227619D01*
X184107023Y-107084761D01*
X184145119Y-106846666D01*
X184145119Y-106656190D01*
X184107023Y-106418095D01*
X184068928Y-106275238D01*
X184030833Y-106180000D01*
X183954642Y-106037142D01*
X183916547Y-105989523D01*
X178659404Y-103640000D02*
X178564166Y-103592380D01*
X178421309Y-103592380D01*
X178278452Y-103640000D01*
X178183214Y-103735238D01*
X178135595Y-103830476D01*
X178087976Y-104020952D01*
X178087976Y-104163809D01*
X178135595Y-104354285D01*
X178183214Y-104449523D01*
X178278452Y-104544761D01*
X178421309Y-104592380D01*
X178516547Y-104592380D01*
X178659404Y-104544761D01*
X178707023Y-104497142D01*
X178707023Y-104163809D01*
X178516547Y-104163809D01*
X179040357Y-103592380D02*
X179707023Y-104592380D01*
X179707023Y-103592380D02*
X179040357Y-104592380D01*
X180040357Y-103687619D02*
X180087976Y-103640000D01*
X180183214Y-103592380D01*
X180421309Y-103592380D01*
X180516547Y-103640000D01*
X180564166Y-103687619D01*
X180611785Y-103782857D01*
X180611785Y-103878095D01*
X180564166Y-104020952D01*
X179992738Y-104592380D01*
X180611785Y-104592380D01*
D12*
X178691904Y-101100000D02*
X178596666Y-101052380D01*
X178453809Y-101052380D01*
X178310952Y-101100000D01*
X178215714Y-101195238D01*
X178168095Y-101290476D01*
X178120476Y-101480952D01*
X178120476Y-101623809D01*
X178168095Y-101814285D01*
X178215714Y-101909523D01*
X178310952Y-102004761D01*
X178453809Y-102052380D01*
X178549047Y-102052380D01*
X178691904Y-102004761D01*
X178739523Y-101957142D01*
X178739523Y-101623809D01*
X178549047Y-101623809D01*
X179168095Y-102052380D02*
X179168095Y-101052380D01*
X179739523Y-102052380D01*
X179739523Y-101052380D01*
X180215714Y-102052380D02*
X180215714Y-101052380D01*
X180453809Y-101052380D01*
X180596666Y-101100000D01*
X180691904Y-101195238D01*
X180739523Y-101290476D01*
X180787142Y-101480952D01*
X180787142Y-101623809D01*
X180739523Y-101814285D01*
X180691904Y-101909523D01*
X180596666Y-102004761D01*
X180453809Y-102052380D01*
X180215714Y-102052380D01*
D11*
X178659404Y-98560000D02*
X178564166Y-98512380D01*
X178421309Y-98512380D01*
X178278452Y-98560000D01*
X178183214Y-98655238D01*
X178135595Y-98750476D01*
X178087976Y-98940952D01*
X178087976Y-99083809D01*
X178135595Y-99274285D01*
X178183214Y-99369523D01*
X178278452Y-99464761D01*
X178421309Y-99512380D01*
X178516547Y-99512380D01*
X178659404Y-99464761D01*
X178707023Y-99417142D01*
X178707023Y-99083809D01*
X178516547Y-99083809D01*
X179040357Y-98512380D02*
X179707023Y-99512380D01*
X179707023Y-98512380D02*
X179040357Y-99512380D01*
X180611785Y-99512380D02*
X180040357Y-99512380D01*
X180326071Y-99512380D02*
X180326071Y-98512380D01*
X180230833Y-98655238D01*
X180135595Y-98750476D01*
X180040357Y-98798095D01*
X178659404Y-96020000D02*
X178564166Y-95972380D01*
X178421309Y-95972380D01*
X178278452Y-96020000D01*
X178183214Y-96115238D01*
X178135595Y-96210476D01*
X178087976Y-96400952D01*
X178087976Y-96543809D01*
X178135595Y-96734285D01*
X178183214Y-96829523D01*
X178278452Y-96924761D01*
X178421309Y-96972380D01*
X178516547Y-96972380D01*
X178659404Y-96924761D01*
X178707023Y-96877142D01*
X178707023Y-96543809D01*
X178516547Y-96543809D01*
X179040357Y-95972380D02*
X179707023Y-96972380D01*
X179707023Y-95972380D02*
X179040357Y-96972380D01*
X180278452Y-95972380D02*
X180373690Y-95972380D01*
X180468928Y-96020000D01*
X180516547Y-96067619D01*
X180564166Y-96162857D01*
X180611785Y-96353333D01*
X180611785Y-96591428D01*
X180564166Y-96781904D01*
X180516547Y-96877142D01*
X180468928Y-96924761D01*
X180373690Y-96972380D01*
X180278452Y-96972380D01*
X180183214Y-96924761D01*
X180135595Y-96877142D01*
X180087976Y-96781904D01*
X180040357Y-96591428D01*
X180040357Y-96353333D01*
X180087976Y-96162857D01*
X180135595Y-96067619D01*
X180183214Y-96020000D01*
X180278452Y-95972380D01*
D12*
X178691904Y-93480000D02*
X178596666Y-93432380D01*
X178453809Y-93432380D01*
X178310952Y-93480000D01*
X178215714Y-93575238D01*
X178168095Y-93670476D01*
X178120476Y-93860952D01*
X178120476Y-94003809D01*
X178168095Y-94194285D01*
X178215714Y-94289523D01*
X178310952Y-94384761D01*
X178453809Y-94432380D01*
X178549047Y-94432380D01*
X178691904Y-94384761D01*
X178739523Y-94337142D01*
X178739523Y-94003809D01*
X178549047Y-94003809D01*
X179168095Y-94432380D02*
X179168095Y-93432380D01*
X179739523Y-94432380D01*
X179739523Y-93432380D01*
X180215714Y-94432380D02*
X180215714Y-93432380D01*
X180453809Y-93432380D01*
X180596666Y-93480000D01*
X180691904Y-93575238D01*
X180739523Y-93670476D01*
X180787142Y-93860952D01*
X180787142Y-94003809D01*
X180739523Y-94194285D01*
X180691904Y-94289523D01*
X180596666Y-94384761D01*
X180453809Y-94432380D01*
X180215714Y-94432380D01*
D11*
X178659404Y-90940000D02*
X178564166Y-90892380D01*
X178421309Y-90892380D01*
X178278452Y-90940000D01*
X178183214Y-91035238D01*
X178135595Y-91130476D01*
X178087976Y-91320952D01*
X178087976Y-91463809D01*
X178135595Y-91654285D01*
X178183214Y-91749523D01*
X178278452Y-91844761D01*
X178421309Y-91892380D01*
X178516547Y-91892380D01*
X178659404Y-91844761D01*
X178707023Y-91797142D01*
X178707023Y-91463809D01*
X178516547Y-91463809D01*
X179040357Y-90892380D02*
X179707023Y-91892380D01*
X179707023Y-90892380D02*
X179040357Y-91892380D01*
X180611785Y-91892380D02*
X180040357Y-91892380D01*
X180326071Y-91892380D02*
X180326071Y-90892380D01*
X180230833Y-91035238D01*
X180135595Y-91130476D01*
X180040357Y-91178095D01*
X181468928Y-90892380D02*
X181278452Y-90892380D01*
X181183214Y-90940000D01*
X181135595Y-90987619D01*
X181040357Y-91130476D01*
X180992738Y-91320952D01*
X180992738Y-91701904D01*
X181040357Y-91797142D01*
X181087976Y-91844761D01*
X181183214Y-91892380D01*
X181373690Y-91892380D01*
X181468928Y-91844761D01*
X181516547Y-91797142D01*
X181564166Y-91701904D01*
X181564166Y-91463809D01*
X181516547Y-91368571D01*
X181468928Y-91320952D01*
X181373690Y-91273333D01*
X181183214Y-91273333D01*
X181087976Y-91320952D01*
X181040357Y-91368571D01*
X180992738Y-91463809D01*
X178507023Y-88400000D02*
X178430833Y-88352380D01*
X178316547Y-88352380D01*
X178202261Y-88400000D01*
X178126071Y-88495238D01*
X178087976Y-88590476D01*
X178049880Y-88780952D01*
X178049880Y-88923809D01*
X178087976Y-89114285D01*
X178126071Y-89209523D01*
X178202261Y-89304761D01*
X178316547Y-89352380D01*
X178392738Y-89352380D01*
X178507023Y-89304761D01*
X178545119Y-89257142D01*
X178545119Y-88923809D01*
X178392738Y-88923809D01*
X178811785Y-88352380D02*
X179345119Y-89352380D01*
X179345119Y-88352380D02*
X178811785Y-89352380D01*
X180068928Y-89352380D02*
X179611785Y-89352380D01*
X179840357Y-89352380D02*
X179840357Y-88352380D01*
X179764166Y-88495238D01*
X179687976Y-88590476D01*
X179611785Y-88638095D01*
X180335595Y-88352380D02*
X180830833Y-88352380D01*
X180564166Y-88733333D01*
X180678452Y-88733333D01*
X180754642Y-88780952D01*
X180792738Y-88828571D01*
X180830833Y-88923809D01*
X180830833Y-89161904D01*
X180792738Y-89257142D01*
X180754642Y-89304761D01*
X180678452Y-89352380D01*
X180449880Y-89352380D01*
X180373690Y-89304761D01*
X180335595Y-89257142D01*
X181402261Y-89733333D02*
X181364166Y-89685714D01*
X181287976Y-89542857D01*
X181249880Y-89447619D01*
X181211785Y-89304761D01*
X181173690Y-89066666D01*
X181173690Y-88876190D01*
X181211785Y-88638095D01*
X181249880Y-88495238D01*
X181287976Y-88400000D01*
X181364166Y-88257142D01*
X181402261Y-88209523D01*
X182164166Y-89352380D02*
X181897500Y-88876190D01*
X181707023Y-89352380D02*
X181707023Y-88352380D01*
X182011785Y-88352380D01*
X182087976Y-88400000D01*
X182126071Y-88447619D01*
X182164166Y-88542857D01*
X182164166Y-88685714D01*
X182126071Y-88780952D01*
X182087976Y-88828571D01*
X182011785Y-88876190D01*
X181707023Y-88876190D01*
X182430833Y-88352380D02*
X182964166Y-89352380D01*
X182964166Y-88352380D02*
X182430833Y-89352380D01*
X183268928Y-89352380D02*
X183268928Y-88352380D01*
X183459404Y-88352380D01*
X183573690Y-88400000D01*
X183649880Y-88495238D01*
X183687976Y-88590476D01*
X183726071Y-88780952D01*
X183726071Y-88923809D01*
X183687976Y-89114285D01*
X183649880Y-89209523D01*
X183573690Y-89304761D01*
X183459404Y-89352380D01*
X183268928Y-89352380D01*
X183992738Y-89733333D02*
X184030833Y-89685714D01*
X184107023Y-89542857D01*
X184145119Y-89447619D01*
X184183214Y-89304761D01*
X184221309Y-89066666D01*
X184221309Y-88876190D01*
X184183214Y-88638095D01*
X184145119Y-88495238D01*
X184107023Y-88400000D01*
X184030833Y-88257142D01*
X183992738Y-88209523D01*
X178507023Y-85860000D02*
X178430833Y-85812380D01*
X178316547Y-85812380D01*
X178202261Y-85860000D01*
X178126071Y-85955238D01*
X178087976Y-86050476D01*
X178049880Y-86240952D01*
X178049880Y-86383809D01*
X178087976Y-86574285D01*
X178126071Y-86669523D01*
X178202261Y-86764761D01*
X178316547Y-86812380D01*
X178392738Y-86812380D01*
X178507023Y-86764761D01*
X178545119Y-86717142D01*
X178545119Y-86383809D01*
X178392738Y-86383809D01*
X178811785Y-85812380D02*
X179345119Y-86812380D01*
X179345119Y-85812380D02*
X178811785Y-86812380D01*
X180068928Y-86812380D02*
X179611785Y-86812380D01*
X179840357Y-86812380D02*
X179840357Y-85812380D01*
X179764166Y-85955238D01*
X179687976Y-86050476D01*
X179611785Y-86098095D01*
X180373690Y-85907619D02*
X180411785Y-85860000D01*
X180487976Y-85812380D01*
X180678452Y-85812380D01*
X180754642Y-85860000D01*
X180792738Y-85907619D01*
X180830833Y-86002857D01*
X180830833Y-86098095D01*
X180792738Y-86240952D01*
X180335595Y-86812380D01*
X180830833Y-86812380D01*
X181402261Y-87193333D02*
X181364166Y-87145714D01*
X181287976Y-87002857D01*
X181249880Y-86907619D01*
X181211785Y-86764761D01*
X181173690Y-86526666D01*
X181173690Y-86336190D01*
X181211785Y-86098095D01*
X181249880Y-85955238D01*
X181287976Y-85860000D01*
X181364166Y-85717142D01*
X181402261Y-85669523D01*
X181592738Y-85812380D02*
X182049880Y-85812380D01*
X181821309Y-86812380D02*
X181821309Y-85812380D01*
X182240357Y-85812380D02*
X182773690Y-86812380D01*
X182773690Y-85812380D02*
X182240357Y-86812380D01*
X183078452Y-86812380D02*
X183078452Y-85812380D01*
X183268928Y-85812380D01*
X183383214Y-85860000D01*
X183459404Y-85955238D01*
X183497500Y-86050476D01*
X183535595Y-86240952D01*
X183535595Y-86383809D01*
X183497500Y-86574285D01*
X183459404Y-86669523D01*
X183383214Y-86764761D01*
X183268928Y-86812380D01*
X183078452Y-86812380D01*
X183802261Y-87193333D02*
X183840357Y-87145714D01*
X183916547Y-87002857D01*
X183954642Y-86907619D01*
X183992738Y-86764761D01*
X184030833Y-86526666D01*
X184030833Y-86336190D01*
X183992738Y-86098095D01*
X183954642Y-85955238D01*
X183916547Y-85860000D01*
X183840357Y-85717142D01*
X183802261Y-85669523D01*
D12*
X178691904Y-83320000D02*
X178596666Y-83272380D01*
X178453809Y-83272380D01*
X178310952Y-83320000D01*
X178215714Y-83415238D01*
X178168095Y-83510476D01*
X178120476Y-83700952D01*
X178120476Y-83843809D01*
X178168095Y-84034285D01*
X178215714Y-84129523D01*
X178310952Y-84224761D01*
X178453809Y-84272380D01*
X178549047Y-84272380D01*
X178691904Y-84224761D01*
X178739523Y-84177142D01*
X178739523Y-83843809D01*
X178549047Y-83843809D01*
X179168095Y-84272380D02*
X179168095Y-83272380D01*
X179739523Y-84272380D01*
X179739523Y-83272380D01*
X180215714Y-84272380D02*
X180215714Y-83272380D01*
X180453809Y-83272380D01*
X180596666Y-83320000D01*
X180691904Y-83415238D01*
X180739523Y-83510476D01*
X180787142Y-83700952D01*
X180787142Y-83843809D01*
X180739523Y-84034285D01*
X180691904Y-84129523D01*
X180596666Y-84224761D01*
X180453809Y-84272380D01*
X180215714Y-84272380D01*
D11*
X178611785Y-80732380D02*
X178135595Y-80732380D01*
X178087976Y-81208571D01*
X178135595Y-81160952D01*
X178230833Y-81113333D01*
X178468928Y-81113333D01*
X178564166Y-81160952D01*
X178611785Y-81208571D01*
X178659404Y-81303809D01*
X178659404Y-81541904D01*
X178611785Y-81637142D01*
X178564166Y-81684761D01*
X178468928Y-81732380D01*
X178230833Y-81732380D01*
X178135595Y-81684761D01*
X178087976Y-81637142D01*
X178945119Y-80732380D02*
X179278452Y-81732380D01*
X179611785Y-80732380D01*
X178611785Y-78192380D02*
X178135595Y-78192380D01*
X178087976Y-78668571D01*
X178135595Y-78620952D01*
X178230833Y-78573333D01*
X178468928Y-78573333D01*
X178564166Y-78620952D01*
X178611785Y-78668571D01*
X178659404Y-78763809D01*
X178659404Y-79001904D01*
X178611785Y-79097142D01*
X178564166Y-79144761D01*
X178468928Y-79192380D01*
X178230833Y-79192380D01*
X178135595Y-79144761D01*
X178087976Y-79097142D01*
X178945119Y-78192380D02*
X179278452Y-79192380D01*
X179611785Y-78192380D01*
D13*
X178363714Y-75128380D02*
X178030380Y-74652190D01*
X177792285Y-75128380D02*
X177792285Y-74128380D01*
X178173238Y-74128380D01*
X178268476Y-74176000D01*
X178316095Y-74223619D01*
X178363714Y-74318857D01*
X178363714Y-74461714D01*
X178316095Y-74556952D01*
X178268476Y-74604571D01*
X178173238Y-74652190D01*
X177792285Y-74652190D01*
X179173238Y-75080761D02*
X179078000Y-75128380D01*
X178887523Y-75128380D01*
X178792285Y-75080761D01*
X178744666Y-74985523D01*
X178744666Y-74604571D01*
X178792285Y-74509333D01*
X178887523Y-74461714D01*
X179078000Y-74461714D01*
X179173238Y-74509333D01*
X179220857Y-74604571D01*
X179220857Y-74699809D01*
X178744666Y-74795047D01*
X179554190Y-74461714D02*
X179792285Y-75128380D01*
X180030380Y-74461714D01*
X180411333Y-75033142D02*
X180458952Y-75080761D01*
X180411333Y-75128380D01*
X180363714Y-75080761D01*
X180411333Y-75033142D01*
X180411333Y-75128380D01*
X181411333Y-75128380D02*
X180839904Y-75128380D01*
X181125619Y-75128380D02*
X181125619Y-74128380D01*
X181030380Y-74271238D01*
X180935142Y-74366476D01*
X180839904Y-74414095D01*
D14*
X144920857Y-73727571D02*
X145206571Y-73727571D01*
X145349428Y-73799000D01*
X145492285Y-73941857D01*
X145563714Y-74227571D01*
X145563714Y-74727571D01*
X145492285Y-75013285D01*
X145349428Y-75156142D01*
X145206571Y-75227571D01*
X144920857Y-75227571D01*
X144778000Y-75156142D01*
X144635142Y-75013285D01*
X144563714Y-74727571D01*
X144563714Y-74227571D01*
X144635142Y-73941857D01*
X144778000Y-73799000D01*
X144920857Y-73727571D01*
X146849428Y-75227571D02*
X146849428Y-73727571D01*
X146849428Y-75156142D02*
X146706571Y-75227571D01*
X146420857Y-75227571D01*
X146278000Y-75156142D01*
X146206571Y-75084714D01*
X146135142Y-74941857D01*
X146135142Y-74513285D01*
X146206571Y-74370428D01*
X146278000Y-74299000D01*
X146420857Y-74227571D01*
X146706571Y-74227571D01*
X146849428Y-74299000D01*
X147563714Y-75227571D02*
X147563714Y-74227571D01*
X147563714Y-74513285D02*
X147635142Y-74370428D01*
X147706571Y-74299000D01*
X147849428Y-74227571D01*
X147992285Y-74227571D01*
X148706571Y-75227571D02*
X148563714Y-75156142D01*
X148492285Y-75084714D01*
X148420857Y-74941857D01*
X148420857Y-74513285D01*
X148492285Y-74370428D01*
X148563714Y-74299000D01*
X148706571Y-74227571D01*
X148920857Y-74227571D01*
X149063714Y-74299000D01*
X149135142Y-74370428D01*
X149206571Y-74513285D01*
X149206571Y-74941857D01*
X149135142Y-75084714D01*
X149063714Y-75156142D01*
X148920857Y-75227571D01*
X148706571Y-75227571D01*
X149849428Y-75227571D02*
X149849428Y-74227571D01*
X149849428Y-73727571D02*
X149778000Y-73799000D01*
X149849428Y-73870428D01*
X149920857Y-73799000D01*
X149849428Y-73727571D01*
X149849428Y-73870428D01*
X151206571Y-75227571D02*
X151206571Y-73727571D01*
X151206571Y-75156142D02*
X151063714Y-75227571D01*
X150778000Y-75227571D01*
X150635142Y-75156142D01*
X150563714Y-75084714D01*
X150492285Y-74941857D01*
X150492285Y-74513285D01*
X150563714Y-74370428D01*
X150635142Y-74299000D01*
X150778000Y-74227571D01*
X151063714Y-74227571D01*
X151206571Y-74299000D01*
X153063714Y-75227571D02*
X153063714Y-73727571D01*
X153920857Y-75227571D01*
X153920857Y-73727571D01*
X154563714Y-73870428D02*
X154635142Y-73799000D01*
X154778000Y-73727571D01*
X155135142Y-73727571D01*
X155278000Y-73799000D01*
X155349428Y-73870428D01*
X155420857Y-74013285D01*
X155420857Y-74156142D01*
X155349428Y-74370428D01*
X154492285Y-75227571D01*
X155420857Y-75227571D01*
X156492285Y-75799000D02*
X156420857Y-75727571D01*
X156278000Y-75513285D01*
X156206571Y-75370428D01*
X156135142Y-75156142D01*
X156063714Y-74799000D01*
X156063714Y-74513285D01*
X156135142Y-74156142D01*
X156206571Y-73941857D01*
X156278000Y-73799000D01*
X156420857Y-73584714D01*
X156492285Y-73513285D01*
X157063714Y-74656142D02*
X158206571Y-74656142D01*
X157635142Y-75227571D02*
X157635142Y-74084714D01*
X158778000Y-75799000D02*
X158849428Y-75727571D01*
X158992285Y-75513285D01*
X159063714Y-75370428D01*
X159135142Y-75156142D01*
X159206571Y-74799000D01*
X159206571Y-74513285D01*
X159135142Y-74156142D01*
X159063714Y-73941857D01*
X158992285Y-73799000D01*
X158849428Y-73584714D01*
X158778000Y-73513285D01*
X161849428Y-73799000D02*
X161706571Y-73727571D01*
X161492285Y-73727571D01*
X161278000Y-73799000D01*
X161135142Y-73941857D01*
X161063714Y-74084714D01*
X160992285Y-74370428D01*
X160992285Y-74584714D01*
X161063714Y-74870428D01*
X161135142Y-75013285D01*
X161278000Y-75156142D01*
X161492285Y-75227571D01*
X161635142Y-75227571D01*
X161849428Y-75156142D01*
X161920857Y-75084714D01*
X161920857Y-74584714D01*
X161635142Y-74584714D01*
X162563714Y-75227571D02*
X162563714Y-73727571D01*
X163135142Y-73727571D01*
X163278000Y-73799000D01*
X163349428Y-73870428D01*
X163420857Y-74013285D01*
X163420857Y-74227571D01*
X163349428Y-74370428D01*
X163278000Y-74441857D01*
X163135142Y-74513285D01*
X162563714Y-74513285D01*
X164063714Y-75227571D02*
X164063714Y-73727571D01*
X165063714Y-73727571D02*
X165349428Y-73727571D01*
X165492285Y-73799000D01*
X165635142Y-73941857D01*
X165706571Y-74227571D01*
X165706571Y-74727571D01*
X165635142Y-75013285D01*
X165492285Y-75156142D01*
X165349428Y-75227571D01*
X165063714Y-75227571D01*
X164920857Y-75156142D01*
X164778000Y-75013285D01*
X164706571Y-74727571D01*
X164706571Y-74227571D01*
X164778000Y-73941857D01*
X164920857Y-73799000D01*
X165063714Y-73727571D01*
X167492285Y-74441857D02*
X167992285Y-74441857D01*
X168206571Y-75227571D02*
X167492285Y-75227571D01*
X167492285Y-73727571D01*
X168206571Y-73727571D01*
X168706571Y-75227571D02*
X169492285Y-74227571D01*
X168706571Y-74227571D02*
X169492285Y-75227571D01*
X169849428Y-74227571D02*
X170420857Y-74227571D01*
X170063714Y-73727571D02*
X170063714Y-75013285D01*
X170135142Y-75156142D01*
X170278000Y-75227571D01*
X170420857Y-75227571D01*
X171492285Y-75156142D02*
X171349428Y-75227571D01*
X171063714Y-75227571D01*
X170920857Y-75156142D01*
X170849428Y-75013285D01*
X170849428Y-74441857D01*
X170920857Y-74299000D01*
X171063714Y-74227571D01*
X171349428Y-74227571D01*
X171492285Y-74299000D01*
X171563714Y-74441857D01*
X171563714Y-74584714D01*
X170849428Y-74727571D01*
X172206571Y-74227571D02*
X172206571Y-75227571D01*
X172206571Y-74370428D02*
X172278000Y-74299000D01*
X172420857Y-74227571D01*
X172635142Y-74227571D01*
X172778000Y-74299000D01*
X172849428Y-74441857D01*
X172849428Y-75227571D01*
X174206571Y-75227571D02*
X174206571Y-73727571D01*
X174206571Y-75156142D02*
X174063714Y-75227571D01*
X173778000Y-75227571D01*
X173635142Y-75156142D01*
X173563714Y-75084714D01*
X173492285Y-74941857D01*
X173492285Y-74513285D01*
X173563714Y-74370428D01*
X173635142Y-74299000D01*
X173778000Y-74227571D01*
X174063714Y-74227571D01*
X174206571Y-74299000D01*
X175492285Y-75156142D02*
X175349428Y-75227571D01*
X175063714Y-75227571D01*
X174920857Y-75156142D01*
X174849428Y-75013285D01*
X174849428Y-74441857D01*
X174920857Y-74299000D01*
X175063714Y-74227571D01*
X175349428Y-74227571D01*
X175492285Y-74299000D01*
X175563714Y-74441857D01*
X175563714Y-74584714D01*
X174849428Y-74727571D01*
X176206571Y-75227571D02*
X176206571Y-74227571D01*
X176206571Y-74513285D02*
X176278000Y-74370428D01*
X176349428Y-74299000D01*
X176492285Y-74227571D01*
X176635142Y-74227571D01*
D13*
X185388285Y-118304571D02*
X184674000Y-118304571D01*
X184602571Y-119018857D01*
X184674000Y-118947428D01*
X184816857Y-118876000D01*
X185174000Y-118876000D01*
X185316857Y-118947428D01*
X185388285Y-119018857D01*
X185459714Y-119161714D01*
X185459714Y-119518857D01*
X185388285Y-119661714D01*
X185316857Y-119733142D01*
X185174000Y-119804571D01*
X184816857Y-119804571D01*
X184674000Y-119733142D01*
X184602571Y-119661714D01*
X185888285Y-118304571D02*
X186388285Y-119804571D01*
X186888285Y-118304571D01*
X137739714Y-118304571D02*
X138668285Y-118304571D01*
X138168285Y-118876000D01*
X138382571Y-118876000D01*
X138525428Y-118947428D01*
X138596857Y-119018857D01*
X138668285Y-119161714D01*
X138668285Y-119518857D01*
X138596857Y-119661714D01*
X138525428Y-119733142D01*
X138382571Y-119804571D01*
X137954000Y-119804571D01*
X137811142Y-119733142D01*
X137739714Y-119661714D01*
X139311142Y-119661714D02*
X139382571Y-119733142D01*
X139311142Y-119804571D01*
X139239714Y-119733142D01*
X139311142Y-119661714D01*
X139311142Y-119804571D01*
X139882571Y-118304571D02*
X140811142Y-118304571D01*
X140311142Y-118876000D01*
X140525428Y-118876000D01*
X140668285Y-118947428D01*
X140739714Y-119018857D01*
X140811142Y-119161714D01*
X140811142Y-119518857D01*
X140739714Y-119661714D01*
X140668285Y-119733142D01*
X140525428Y-119804571D01*
X140096857Y-119804571D01*
X139954000Y-119733142D01*
X139882571Y-119661714D01*
X141239714Y-118304571D02*
X141739714Y-119804571D01*
X142239714Y-118304571D01*
D10*
%TO.C,J1*%
X186444000Y-61868000D02*
X186944000Y-62868000D01*
X187444000Y-61868000D02*
X186444000Y-61868000D01*
X186944000Y-62868000D02*
X187444000Y-61868000D01*
X160764000Y-64568000D02*
X160764000Y-63258000D01*
X160764000Y-64568000D02*
X160764000Y-64568000D01*
X134774000Y-64568000D02*
X160764000Y-64568000D01*
X134774000Y-71068000D02*
X134774000Y-64568000D01*
X190854000Y-71068000D02*
X134774000Y-71068000D01*
X190854000Y-64568000D02*
X190854000Y-71068000D01*
X164864000Y-64568000D02*
X190854000Y-64568000D01*
X164864000Y-63258000D02*
X164864000Y-64568000D01*
X133474000Y-63258000D02*
X192154000Y-63258000D01*
X133474000Y-72378000D02*
X133474000Y-63258000D01*
X192154000Y-72378000D02*
X133474000Y-72378000D01*
X192154000Y-63258000D02*
X192154000Y-72378000D01*
%TD*%
M02*
