%TF.GenerationSoftware,KiCad,Pcbnew,(5.1.9)-1*%
%TF.CreationDate,2022-02-08T22:46:11+09:00*%
%TF.ProjectId,odroid-extend,6f64726f-6964-42d6-9578-74656e642e6b,rev?*%
%TF.SameCoordinates,Original*%
%TF.FileFunction,Copper,L2,Bot*%
%TF.FilePolarity,Positive*%
%FSLAX46Y46*%
G04 Gerber Fmt 4.6, Leading zero omitted, Abs format (unit mm)*
G04 Created by KiCad (PCBNEW (5.1.9)-1) date 2022-02-08 22:46:11*
%MOMM*%
%LPD*%
G01*
G04 APERTURE LIST*
%TA.AperFunction,ComponentPad*%
%ADD10O,1.700000X1.700000*%
%TD*%
%TA.AperFunction,ComponentPad*%
%ADD11R,1.700000X1.700000*%
%TD*%
%TA.AperFunction,ComponentPad*%
%ADD12C,1.700000*%
%TD*%
%TA.AperFunction,ViaPad*%
%ADD13C,0.800000*%
%TD*%
%TA.AperFunction,Conductor*%
%ADD14C,0.250000*%
%TD*%
%TA.AperFunction,Conductor*%
%ADD15C,0.500000*%
%TD*%
G04 APERTURE END LIST*
D10*
%TO.P,J7,2*%
%TO.N,GND*%
X186944000Y-127000000D03*
D11*
%TO.P,J7,1*%
%TO.N,+5V*%
X184404000Y-127000000D03*
%TD*%
%TO.P,J6,1*%
%TO.N,+3V3*%
X138684000Y-127000000D03*
D10*
%TO.P,J6,2*%
%TO.N,GND*%
X141224000Y-127000000D03*
%TD*%
D12*
%TO.P,J1,40*%
%TO.N,Net-(J1-Pad40)*%
X138684000Y-69088000D03*
%TO.P,J1,38*%
%TO.N,Net-(J1-Pad38)*%
X141224000Y-69088000D03*
%TO.P,J1,36*%
%TO.N,Net-(J1-Pad36)*%
X143764000Y-69088000D03*
%TO.P,J1,34*%
%TO.N,GND*%
X146304000Y-69088000D03*
%TO.P,J1,32*%
%TO.N,Net-(J1-Pad32)*%
X148844000Y-69088000D03*
%TO.P,J1,30*%
%TO.N,GND*%
X151384000Y-69088000D03*
%TO.P,J1,28*%
%TO.N,Net-(J1-Pad28)*%
X153924000Y-69088000D03*
%TO.P,J1,26*%
%TO.N,Net-(J1-Pad26)*%
X156464000Y-69088000D03*
%TO.P,J1,24*%
%TO.N,Net-(J1-Pad24)*%
X159004000Y-69088000D03*
%TO.P,J1,22*%
%TO.N,Net-(J1-Pad22)*%
X161544000Y-69088000D03*
%TO.P,J1,20*%
%TO.N,GND*%
X164084000Y-69088000D03*
%TO.P,J1,18*%
%TO.N,Net-(J1-Pad18)*%
X166624000Y-69088000D03*
%TO.P,J1,16*%
%TO.N,Net-(J1-Pad16)*%
X169164000Y-69088000D03*
%TO.P,J1,14*%
%TO.N,GND*%
X171704000Y-69088000D03*
%TO.P,J1,12*%
%TO.N,Net-(J1-Pad12)*%
X174244000Y-69088000D03*
%TO.P,J1,10*%
%TO.N,Net-(J1-Pad10)*%
X176784000Y-69088000D03*
%TO.P,J1,8*%
%TO.N,Net-(J1-Pad8)*%
X179324000Y-69088000D03*
%TO.P,J1,6*%
%TO.N,GND*%
X181864000Y-69088000D03*
%TO.P,J1,4*%
%TO.N,+5V*%
X184404000Y-69088000D03*
%TO.P,J1,2*%
X186944000Y-69088000D03*
%TO.P,J1,39*%
%TO.N,GND*%
X138684000Y-66548000D03*
%TO.P,J1,37*%
%TO.N,Net-(J1-Pad37)*%
X141224000Y-66548000D03*
%TO.P,J1,35*%
%TO.N,Net-(J1-Pad35)*%
X143764000Y-66548000D03*
%TO.P,J1,33*%
%TO.N,Net-(J1-Pad33)*%
X146304000Y-66548000D03*
%TO.P,J1,31*%
%TO.N,Net-(J1-Pad31)*%
X148844000Y-66548000D03*
%TO.P,J1,29*%
%TO.N,Net-(J1-Pad29)*%
X151384000Y-66548000D03*
%TO.P,J1,27*%
%TO.N,Net-(J1-Pad27)*%
X153924000Y-66548000D03*
%TO.P,J1,25*%
%TO.N,GND*%
X156464000Y-66548000D03*
%TO.P,J1,23*%
%TO.N,Net-(J1-Pad23)*%
X159004000Y-66548000D03*
%TO.P,J1,21*%
%TO.N,Net-(J1-Pad21)*%
X161544000Y-66548000D03*
%TO.P,J1,19*%
%TO.N,Net-(J1-Pad19)*%
X164084000Y-66548000D03*
%TO.P,J1,17*%
%TO.N,+3V3*%
X166624000Y-66548000D03*
%TO.P,J1,15*%
%TO.N,Net-(J1-Pad15)*%
X169164000Y-66548000D03*
%TO.P,J1,13*%
%TO.N,Net-(J1-Pad13)*%
X171704000Y-66548000D03*
%TO.P,J1,11*%
%TO.N,Net-(J1-Pad11)*%
X174244000Y-66548000D03*
%TO.P,J1,9*%
%TO.N,GND*%
X176784000Y-66548000D03*
%TO.P,J1,7*%
%TO.N,Net-(J1-Pad7)*%
X179324000Y-66548000D03*
%TO.P,J1,5*%
%TO.N,Net-(J1-Pad5)*%
X181864000Y-66548000D03*
%TO.P,J1,3*%
%TO.N,Net-(J1-Pad3)*%
X184404000Y-66548000D03*
%TO.P,J1,1*%
%TO.N,+3V3*%
%TA.AperFunction,ComponentPad*%
G36*
G01*
X186344000Y-65698000D02*
X187544000Y-65698000D01*
G75*
G02*
X187794000Y-65948000I0J-250000D01*
G01*
X187794000Y-67148000D01*
G75*
G02*
X187544000Y-67398000I-250000J0D01*
G01*
X186344000Y-67398000D01*
G75*
G02*
X186094000Y-67148000I0J250000D01*
G01*
X186094000Y-65948000D01*
G75*
G02*
X186344000Y-65698000I250000J0D01*
G01*
G37*
%TD.AperFunction*%
%TD*%
D11*
%TO.P,J2,1*%
%TO.N,+3V3*%
X148818600Y-78765400D03*
D10*
%TO.P,J2,2*%
%TO.N,Net-(J1-Pad3)*%
X148818600Y-81305400D03*
%TO.P,J2,3*%
%TO.N,Net-(J1-Pad5)*%
X148818600Y-83845400D03*
%TO.P,J2,4*%
%TO.N,Net-(J1-Pad7)*%
X148818600Y-86385400D03*
%TO.P,J2,5*%
%TO.N,GND*%
X148818600Y-88925400D03*
%TO.P,J2,6*%
%TO.N,Net-(J1-Pad11)*%
X148818600Y-91465400D03*
%TO.P,J2,7*%
%TO.N,Net-(J1-Pad13)*%
X148818600Y-94005400D03*
%TO.P,J2,8*%
%TO.N,Net-(J1-Pad15)*%
X148818600Y-96545400D03*
%TO.P,J2,9*%
%TO.N,+3V3*%
X148818600Y-99085400D03*
%TO.P,J2,10*%
%TO.N,Net-(J1-Pad19)*%
X148818600Y-101625400D03*
%TO.P,J2,11*%
%TO.N,Net-(J1-Pad21)*%
X148818600Y-104165400D03*
%TO.P,J2,12*%
%TO.N,Net-(J1-Pad23)*%
X148818600Y-106705400D03*
%TO.P,J2,13*%
%TO.N,GND*%
X148818600Y-109245400D03*
%TO.P,J2,14*%
%TO.N,Net-(J1-Pad27)*%
X148818600Y-111785400D03*
%TO.P,J2,15*%
%TO.N,Net-(J1-Pad29)*%
X148818600Y-114325400D03*
%TO.P,J2,16*%
%TO.N,Net-(J1-Pad31)*%
X148818600Y-116865400D03*
%TO.P,J2,17*%
%TO.N,Net-(J1-Pad33)*%
X148818600Y-119405400D03*
%TO.P,J2,18*%
%TO.N,Net-(J1-Pad35)*%
X148818600Y-121945400D03*
%TO.P,J2,19*%
%TO.N,Net-(J1-Pad37)*%
X148818600Y-124485400D03*
%TO.P,J2,20*%
%TO.N,GND*%
X148818600Y-127025400D03*
%TD*%
%TO.P,J3,20*%
%TO.N,Net-(J1-Pad40)*%
X176758600Y-127025400D03*
%TO.P,J3,19*%
%TO.N,Net-(J1-Pad38)*%
X176758600Y-124485400D03*
%TO.P,J3,18*%
%TO.N,Net-(J1-Pad36)*%
X176758600Y-121945400D03*
%TO.P,J3,17*%
%TO.N,GND*%
X176758600Y-119405400D03*
%TO.P,J3,16*%
%TO.N,Net-(J1-Pad32)*%
X176758600Y-116865400D03*
%TO.P,J3,15*%
%TO.N,GND*%
X176758600Y-114325400D03*
%TO.P,J3,14*%
%TO.N,Net-(J1-Pad28)*%
X176758600Y-111785400D03*
%TO.P,J3,13*%
%TO.N,Net-(J1-Pad26)*%
X176758600Y-109245400D03*
%TO.P,J3,12*%
%TO.N,Net-(J1-Pad24)*%
X176758600Y-106705400D03*
%TO.P,J3,11*%
%TO.N,Net-(J1-Pad22)*%
X176758600Y-104165400D03*
%TO.P,J3,10*%
%TO.N,GND*%
X176758600Y-101625400D03*
%TO.P,J3,9*%
%TO.N,Net-(J1-Pad18)*%
X176758600Y-99085400D03*
%TO.P,J3,8*%
%TO.N,Net-(J1-Pad16)*%
X176758600Y-96545400D03*
%TO.P,J3,7*%
%TO.N,GND*%
X176758600Y-94005400D03*
%TO.P,J3,6*%
%TO.N,Net-(J1-Pad12)*%
X176758600Y-91465400D03*
%TO.P,J3,5*%
%TO.N,Net-(J1-Pad10)*%
X176758600Y-88925400D03*
%TO.P,J3,4*%
%TO.N,Net-(J1-Pad8)*%
X176758600Y-86385400D03*
%TO.P,J3,3*%
%TO.N,GND*%
X176758600Y-83845400D03*
%TO.P,J3,2*%
%TO.N,+5V*%
X176758600Y-81305400D03*
D11*
%TO.P,J3,1*%
X176758600Y-78765400D03*
%TD*%
%TO.P,J4,1*%
%TO.N,+3V3*%
X138684000Y-121920000D03*
D10*
%TO.P,J4,2*%
%TO.N,GND*%
X141224000Y-121920000D03*
%TD*%
D11*
%TO.P,J5,1*%
%TO.N,+5V*%
X184404000Y-121920000D03*
D10*
%TO.P,J5,2*%
%TO.N,GND*%
X186944000Y-121920000D03*
%TD*%
D13*
%TO.N,Net-(J1-Pad8)*%
X185674000Y-78994000D03*
%TO.N,Net-(J1-Pad10)*%
X185674000Y-80264000D03*
%TO.N,Net-(J1-Pad12)*%
X185645498Y-81534000D03*
%TO.N,Net-(J1-Pad16)*%
X185674000Y-82804000D03*
%TO.N,Net-(J1-Pad18)*%
X185674000Y-84074000D03*
%TO.N,Net-(J1-Pad22)*%
X185673986Y-85344000D03*
%TO.N,Net-(J1-Pad24)*%
X185674000Y-86614000D03*
%TO.N,Net-(J1-Pad26)*%
X185674000Y-87884010D03*
%TO.N,Net-(J1-Pad28)*%
X185674010Y-89154000D03*
%TO.N,Net-(J1-Pad32)*%
X180848000Y-119380000D03*
%TO.N,Net-(J1-Pad36)*%
X180848000Y-121920000D03*
%TO.N,Net-(J1-Pad38)*%
X180848002Y-124460000D03*
%TO.N,GND*%
X140207997Y-94487997D03*
%TD*%
D14*
%TO.N,Net-(J1-Pad8)*%
X179324000Y-69088000D02*
X179324000Y-69596000D01*
X185674000Y-75438000D02*
X185674000Y-78994000D01*
X179324000Y-69088000D02*
X185674000Y-75438000D01*
%TO.N,Net-(J1-Pad10)*%
X176784000Y-69088000D02*
X177292000Y-69088000D01*
X176784000Y-69088000D02*
X176784000Y-69469000D01*
X184023000Y-78613000D02*
X185674000Y-80264000D01*
X184023000Y-74423410D02*
X184023000Y-78613000D01*
X180465590Y-70866000D02*
X184023000Y-74423410D01*
X177800000Y-70866000D02*
X180465590Y-70866000D01*
X176784000Y-69850000D02*
X177800000Y-70866000D01*
X176784000Y-69088000D02*
X176784000Y-69850000D01*
%TO.N,Net-(J1-Pad12)*%
X174244000Y-69088000D02*
X174244000Y-69469000D01*
X183572989Y-74609809D02*
X183572989Y-79461491D01*
X183572989Y-79461491D02*
X185645498Y-81534000D01*
X180337180Y-71374000D02*
X183572989Y-74609809D01*
X175768000Y-71374000D02*
X180337180Y-71374000D01*
X174244000Y-69850000D02*
X175768000Y-71374000D01*
X174244000Y-69088000D02*
X174244000Y-69850000D01*
%TO.N,Net-(J1-Pad16)*%
X169164000Y-69088000D02*
X169164000Y-69469000D01*
X183122978Y-80252978D02*
X185674000Y-82804000D01*
X183122978Y-74796209D02*
X183122978Y-80252978D01*
X180208769Y-71882000D02*
X183122978Y-74796209D01*
X171196000Y-71882000D02*
X180208769Y-71882000D01*
X169164000Y-69850000D02*
X171196000Y-71882000D01*
X169164000Y-69088000D02*
X169164000Y-69850000D01*
%TO.N,Net-(J1-Pad18)*%
X166624000Y-69088000D02*
X166624000Y-69469000D01*
X182672967Y-81072967D02*
X185674000Y-84074000D01*
X180022370Y-72332011D02*
X182672967Y-74982608D01*
X182672967Y-74982608D02*
X182672967Y-81072967D01*
X169106011Y-72332011D02*
X180022370Y-72332011D01*
X166624000Y-69850000D02*
X169106011Y-72332011D01*
X166624000Y-69088000D02*
X166624000Y-69850000D01*
%TO.N,Net-(J1-Pad22)*%
X182222956Y-81892970D02*
X185673986Y-85344000D01*
X182222956Y-75169007D02*
X182222956Y-81892970D01*
X179835971Y-72782022D02*
X182222956Y-75169007D01*
X164476022Y-72782022D02*
X179835971Y-72782022D01*
X161544000Y-69850000D02*
X164476022Y-72782022D01*
X161544000Y-69088000D02*
X161544000Y-69850000D01*
%TO.N,Net-(J1-Pad24)*%
X181772945Y-82712945D02*
X185674000Y-86614000D01*
X181772945Y-75355407D02*
X181772945Y-82712945D01*
X179649571Y-73232033D02*
X181772945Y-75355407D01*
X162386033Y-73232033D02*
X179649571Y-73232033D01*
X159004000Y-69850000D02*
X162386033Y-73232033D01*
X159004000Y-69088000D02*
X159004000Y-69850000D01*
%TO.N,Net-(J1-Pad26)*%
X181322934Y-83532944D02*
X185274001Y-87484011D01*
X181322934Y-75541807D02*
X181322934Y-83532944D01*
X179463171Y-73682044D02*
X181322934Y-75541807D01*
X185274001Y-87484011D02*
X185674000Y-87884010D01*
X160296044Y-73682044D02*
X179463171Y-73682044D01*
X156464000Y-69850000D02*
X160296044Y-73682044D01*
X156464000Y-69088000D02*
X156464000Y-69850000D01*
%TO.N,Net-(J1-Pad28)*%
X185274011Y-88754001D02*
X185674010Y-89154000D01*
X180872923Y-84352913D02*
X185274011Y-88754001D01*
X180872923Y-75728207D02*
X180872923Y-84352913D01*
X179276771Y-74132055D02*
X180872923Y-75728207D01*
X158206055Y-74132055D02*
X179276771Y-74132055D01*
X153924000Y-69850000D02*
X158206055Y-74132055D01*
X153924000Y-69088000D02*
X153924000Y-69850000D01*
%TO.N,Net-(J1-Pad32)*%
X148844000Y-69088000D02*
X148844000Y-69278500D01*
X180321001Y-75812696D02*
X180321001Y-118853001D01*
X179090371Y-74582066D02*
X180321001Y-75812696D01*
X148844000Y-69088000D02*
X154338066Y-74582066D01*
X154338066Y-74582066D02*
X179090371Y-74582066D01*
X180321001Y-118853001D02*
X180848000Y-119380000D01*
%TO.N,Net-(J1-Pad36)*%
X143764000Y-69088000D02*
X149708077Y-75032077D01*
X149708077Y-75032077D02*
X178903971Y-75032077D01*
X179846007Y-75974113D02*
X179846007Y-120918007D01*
X179846007Y-120918007D02*
X180848000Y-121920000D01*
X178903971Y-75032077D02*
X179846007Y-75974113D01*
%TO.N,Net-(J1-Pad38)*%
X147618089Y-75482089D02*
X178717569Y-75482090D01*
X179395996Y-76160518D02*
X179395996Y-123007994D01*
X141224000Y-69088000D02*
X147618089Y-75482089D01*
X178717569Y-75482090D02*
X179395996Y-76160518D01*
X179395996Y-123007994D02*
X180848002Y-124460000D01*
%TO.N,Net-(J1-Pad40)*%
X178531168Y-75932100D02*
X178945985Y-76346918D01*
X138684000Y-69088000D02*
X145528100Y-75932100D01*
X145528100Y-75932100D02*
X178531168Y-75932100D01*
X178906138Y-121947845D02*
X178906138Y-124877862D01*
X178945985Y-76346918D02*
X178945985Y-121907998D01*
X178945985Y-121907998D02*
X178906138Y-121947845D01*
X178906138Y-124877862D02*
X176758600Y-127025400D01*
D15*
%TO.N,+3V3*%
X184912000Y-64516000D02*
X186944000Y-66548000D01*
X166624000Y-66548000D02*
X166624000Y-65532000D01*
X166624000Y-65532000D02*
X167640000Y-64516000D01*
X167640000Y-64516000D02*
X184912000Y-64516000D01*
X138684000Y-121920000D02*
X138684000Y-121412000D01*
X136906000Y-70358000D02*
X145313400Y-78765400D01*
X166624000Y-66548000D02*
X164592000Y-64516000D01*
X164592000Y-64516000D02*
X138176000Y-64516000D01*
X138176000Y-64516000D02*
X136906000Y-65786000D01*
X136906000Y-65786000D02*
X136906000Y-70358000D01*
X145313400Y-78765400D02*
X148818600Y-78765400D01*
X146634200Y-96901000D02*
X148818600Y-99085400D01*
X138684000Y-96901000D02*
X146634200Y-96901000D01*
X138684000Y-85344000D02*
X138684000Y-121920000D01*
X145262600Y-78765400D02*
X138684000Y-85344000D01*
X148818600Y-78765400D02*
X145262600Y-78765400D01*
%TO.N,+5V*%
X184404000Y-127000000D02*
X184404000Y-121920000D01*
D14*
%TO.N,GND*%
X162814000Y-67818000D02*
X164084000Y-69088000D01*
X158007499Y-67818000D02*
X162814000Y-67818000D01*
X156737499Y-66548000D02*
X158007499Y-67818000D01*
X156464000Y-66548000D02*
X156737499Y-66548000D01*
X155194000Y-67818000D02*
X156464000Y-66548000D01*
X152654000Y-67818000D02*
X155194000Y-67818000D01*
X151384000Y-69088000D02*
X152654000Y-67818000D01*
X150114000Y-67818000D02*
X151384000Y-69088000D01*
X147574000Y-67818000D02*
X150114000Y-67818000D01*
X146304000Y-69088000D02*
X147574000Y-67818000D01*
X170434000Y-67818000D02*
X171704000Y-69088000D01*
X165354000Y-67818000D02*
X170434000Y-67818000D01*
X164084000Y-69088000D02*
X165354000Y-67818000D01*
X180594000Y-67818000D02*
X181864000Y-69088000D01*
X178054000Y-67818000D02*
X180594000Y-67818000D01*
X176784000Y-66548000D02*
X178054000Y-67818000D01*
X175514000Y-67818000D02*
X176784000Y-66548000D01*
X172974000Y-67818000D02*
X175514000Y-67818000D01*
X171704000Y-69088000D02*
X172974000Y-67818000D01*
D15*
X148361400Y-127025400D02*
X148818600Y-127025400D01*
X146558000Y-125222000D02*
X148361400Y-127025400D01*
X146558000Y-111379000D02*
X146558000Y-125222000D01*
X148691600Y-109245400D02*
X146558000Y-111379000D01*
X148818600Y-109245400D02*
X148691600Y-109245400D01*
X177012600Y-94005400D02*
X176758600Y-94005400D01*
X178308000Y-92710000D02*
X177012600Y-94005400D01*
X178308000Y-84836000D02*
X178308000Y-92710000D01*
X177317400Y-83845400D02*
X178308000Y-84836000D01*
X176758600Y-83845400D02*
X177317400Y-83845400D01*
X140208003Y-94487997D02*
X140207997Y-94487997D01*
X145770600Y-88925400D02*
X140208003Y-94487997D01*
X148818600Y-88925400D02*
X145770600Y-88925400D01*
X178370974Y-100013026D02*
X176758600Y-101625400D01*
X176758600Y-94005400D02*
X178370974Y-95617774D01*
X178370974Y-95617774D02*
X178370974Y-100013026D01*
X178308000Y-112776000D02*
X176758600Y-114325400D01*
X178308000Y-103174800D02*
X178308000Y-112776000D01*
X176758600Y-101625400D02*
X178308000Y-103174800D01*
X178058601Y-118105399D02*
X176758600Y-119405400D01*
X178058601Y-115625401D02*
X178058601Y-118105399D01*
X176758600Y-114325400D02*
X178058601Y-115625401D01*
%TD*%
M02*
