%TF.GenerationSoftware,KiCad,Pcbnew,8.0.2*%
%TF.CreationDate,2024-05-10T00:02:01+09:00*%
%TF.ProjectId,pitch-convert2,70697463-682d-4636-9f6e-76657274322e,2*%
%TF.SameCoordinates,PX845dd70PY6fb6c78*%
%TF.FileFunction,Copper,L2,Bot*%
%TF.FilePolarity,Positive*%
%FSLAX46Y46*%
G04 Gerber Fmt 4.6, Leading zero omitted, Abs format (unit mm)*
G04 Created by KiCad (PCBNEW 8.0.2) date 2024-05-10 00:02:01*
%MOMM*%
%LPD*%
G01*
G04 APERTURE LIST*
G04 Aperture macros list*
%AMOutline5P*
0 Free polygon, 5 corners , with rotation*
0 The origin of the aperture is its center*
0 number of corners: always 5*
0 $1 to $10 corner X, Y*
0 $11 Rotation angle, in degrees counterclockwise*
0 create outline with 5 corners*
4,1,5,$1,$2,$3,$4,$5,$6,$7,$8,$9,$10,$1,$2,$11*%
%AMOutline6P*
0 Free polygon, 6 corners , with rotation*
0 The origin of the aperture is its center*
0 number of corners: always 6*
0 $1 to $12 corner X, Y*
0 $13 Rotation angle, in degrees counterclockwise*
0 create outline with 6 corners*
4,1,6,$1,$2,$3,$4,$5,$6,$7,$8,$9,$10,$11,$12,$1,$2,$13*%
%AMOutline7P*
0 Free polygon, 7 corners , with rotation*
0 The origin of the aperture is its center*
0 number of corners: always 7*
0 $1 to $14 corner X, Y*
0 $15 Rotation angle, in degrees counterclockwise*
0 create outline with 7 corners*
4,1,7,$1,$2,$3,$4,$5,$6,$7,$8,$9,$10,$11,$12,$13,$14,$1,$2,$15*%
%AMOutline8P*
0 Free polygon, 8 corners , with rotation*
0 The origin of the aperture is its center*
0 number of corners: always 8*
0 $1 to $16 corner X, Y*
0 $17 Rotation angle, in degrees counterclockwise*
0 create outline with 8 corners*
4,1,8,$1,$2,$3,$4,$5,$6,$7,$8,$9,$10,$11,$12,$13,$14,$15,$16,$1,$2,$17*%
G04 Aperture macros list end*
%TA.AperFunction,SMDPad,CuDef*%
%ADD10Outline6P,-2.076000X0.510000X-1.736000X0.850000X2.076000X0.850000X2.076000X-0.850000X-1.736000X-0.850000X-2.076000X-0.510000X0.000000*%
%TD*%
%TA.AperFunction,SMDPad,CuDef*%
%ADD11Outline6P,-2.095500X0.510000X-1.755500X0.850000X2.095500X0.850000X2.095500X-0.850000X-1.755500X-0.850000X-2.095500X-0.510000X0.000000*%
%TD*%
%TA.AperFunction,SMDPad,CuDef*%
%ADD12Outline6P,-1.270000X0.504000X1.068400X0.504000X1.270000X0.302400X1.270000X-0.302400X1.068400X-0.504000X-1.270000X-0.504000X0.000000*%
%TD*%
%TA.AperFunction,SMDPad,CuDef*%
%ADD13Outline6P,-1.270000X0.500000X1.070000X0.500000X1.270000X0.300000X1.270000X-0.300000X1.070000X-0.500000X-1.270000X-0.500000X0.000000*%
%TD*%
%TA.AperFunction,Conductor*%
%ADD14C,0.250000*%
%TD*%
G04 APERTURE END LIST*
D10*
%TO.P,J3,1,Pin_1*%
%TO.N,/B1*%
X7880800Y1447800D03*
D11*
%TO.P,J3,2,Pin_2*%
%TO.N,/B2*%
X7861300Y3987800D03*
D10*
%TO.P,J3,3,Pin_3*%
%TO.N,/B3*%
X7880800Y6547300D03*
%TO.P,J3,4,Pin_4*%
%TO.N,/B4*%
X7880800Y9067800D03*
%TO.P,J3,5,Pin_5*%
%TO.N,/B5*%
X7880800Y11607800D03*
%TO.P,J3,6,Pin_6*%
%TO.N,/B6*%
X7880800Y14147800D03*
%TO.P,J3,7,Pin_7*%
%TO.N,/B7*%
X7880800Y16707300D03*
%TO.P,J3,8,Pin_8*%
%TO.N,/B8*%
X7880800Y19227800D03*
%TO.P,J3,9,Pin_9*%
%TO.N,/B9*%
X7880800Y21787300D03*
%TO.P,J3,10,Pin_10*%
%TO.N,/B10*%
X7880800Y24307800D03*
%TO.P,J3,11,Pin_11*%
%TO.N,/B11*%
X7880800Y26847800D03*
%TO.P,J3,12,Pin_12*%
%TO.N,/B12*%
X7880800Y29387800D03*
%TO.P,J3,13,Pin_13*%
%TO.N,/B13*%
X7880800Y31927800D03*
%TO.P,J3,14,Pin_14*%
%TO.N,/B14*%
X7880800Y34467800D03*
%TO.P,J3,15,Pin_15*%
%TO.N,/B15*%
X7880800Y37007800D03*
%TO.P,J3,16,Pin_16*%
%TO.N,/B16*%
X7880800Y39547800D03*
%TD*%
D12*
%TO.P,J4,1,Pin_1*%
%TO.N,/B1*%
X1574800Y10951400D03*
D13*
%TO.P,J4,2,Pin_2*%
%TO.N,/B2*%
X1574800Y12217400D03*
D12*
%TO.P,J4,3,Pin_3*%
%TO.N,/B3*%
X1574800Y13491400D03*
D13*
%TO.P,J4,4,Pin_4*%
%TO.N,/B4*%
X1574800Y14757400D03*
D12*
%TO.P,J4,5,Pin_5*%
%TO.N,/B5*%
X1574800Y16031400D03*
D13*
%TO.P,J4,6,Pin_6*%
%TO.N,/B6*%
X1574800Y17297400D03*
D12*
%TO.P,J4,7,Pin_7*%
%TO.N,/B7*%
X1574800Y18571400D03*
%TO.P,J4,8,Pin_8*%
%TO.N,/B8*%
X1574800Y19841400D03*
%TO.P,J4,9,Pin_9*%
%TO.N,/B9*%
X1574800Y21111400D03*
%TO.P,J4,10,Pin_10*%
%TO.N,/B10*%
X1574800Y22381400D03*
%TO.P,J4,11,Pin_11*%
%TO.N,/B11*%
X1574800Y23651400D03*
D13*
%TO.P,J4,12,Pin_12*%
%TO.N,/B12*%
X1574800Y24917400D03*
D12*
%TO.P,J4,13,Pin_13*%
%TO.N,/B13*%
X1574800Y26191400D03*
%TO.P,J4,14,Pin_14*%
%TO.N,/B14*%
X1574800Y27461400D03*
%TO.P,J4,15,Pin_15*%
%TO.N,/B15*%
X1574800Y28731400D03*
D13*
%TO.P,J4,16,Pin_16*%
%TO.N,/B16*%
X1574800Y29997400D03*
%TD*%
D14*
%TO.N,/B10*%
X4724400Y22377400D02*
X6654800Y24307800D01*
X2336800Y22377400D02*
X4724400Y22377400D01*
%TO.N,/B6*%
X6641000Y14147800D02*
X6654800Y14147800D01*
X2336800Y17297400D02*
X3491400Y17297400D01*
X3491400Y17297400D02*
X6641000Y14147800D01*
%TO.N,/B8*%
X2336800Y19837400D02*
X6045200Y19837400D01*
X6045200Y19837400D02*
X6654800Y19227800D01*
%TO.N,/B12*%
X3390400Y24917400D02*
X2336800Y24917400D01*
X5085600Y27818600D02*
X5085600Y26612600D01*
X5085600Y26612600D02*
X3390400Y24917400D01*
X6654800Y29387800D02*
X5085600Y27818600D01*
%TO.N,/B15*%
X6654200Y37007800D02*
X6654800Y37007800D01*
X3561600Y28898600D02*
X3561600Y33915200D01*
X2336800Y28727400D02*
X3390400Y28727400D01*
X3561600Y33915200D02*
X6654200Y37007800D01*
X3390400Y28727400D02*
X3561600Y28898600D01*
%TO.N,/B13*%
X2336800Y26187400D02*
X3454400Y26187400D01*
X4577600Y27310600D02*
X4577600Y29850600D01*
X3454400Y26187400D02*
X4577600Y27310600D01*
X4577600Y29850600D02*
X6654800Y31927800D01*
%TO.N,/B11*%
X6654200Y26847800D02*
X6654800Y26847800D01*
X3453800Y23647400D02*
X6654200Y26847800D01*
X2336800Y23647400D02*
X3453800Y23647400D01*
%TO.N,/B2*%
X2336800Y12217400D02*
X2997200Y12217400D01*
X2997200Y12217400D02*
X3556000Y11658600D01*
X3556000Y7072800D02*
X6641000Y3987800D01*
X3556000Y11658600D02*
X3556000Y7072800D01*
X6641000Y3987800D02*
X6654800Y3987800D01*
%TO.N,/B1*%
X2336800Y10947400D02*
X2336800Y5765800D01*
X2336800Y5765800D02*
X6654800Y1447800D01*
%TO.N,/B9*%
X2336800Y21107400D02*
X5994400Y21107400D01*
X5994400Y21107400D02*
X6654800Y21767800D01*
%TO.N,/B5*%
X2970800Y16027400D02*
X5085600Y13912600D01*
X5085600Y13912600D02*
X5085600Y12642600D01*
X5085600Y12642600D02*
X6120400Y11607800D01*
X2336800Y16027400D02*
X2970800Y16027400D01*
X6120400Y11607800D02*
X6654800Y11607800D01*
%TO.N,/B3*%
X2970800Y13487400D02*
X4069600Y12388600D01*
X4069600Y9086600D02*
X6628400Y6527800D01*
X6628400Y6527800D02*
X6654800Y6527800D01*
X2336800Y13487400D02*
X2970800Y13487400D01*
X4069600Y12388600D02*
X4069600Y9086600D01*
%TO.N,/B14*%
X4127600Y31940600D02*
X4127600Y28162600D01*
X6654800Y34467800D02*
X4127600Y31940600D01*
X3422400Y27457400D02*
X2336800Y27457400D01*
X4127600Y28162600D02*
X3422400Y27457400D01*
%TO.N,/B16*%
X2342400Y35236000D02*
X6654200Y39547800D01*
X2336800Y29997400D02*
X2342400Y30003000D01*
X6654200Y39547800D02*
X6654800Y39547800D01*
X2342400Y30003000D02*
X2342400Y35236000D01*
%TO.N,/B7*%
X4775200Y18567400D02*
X6654800Y16687800D01*
X2336800Y18567400D02*
X4775200Y18567400D01*
%TO.N,/B4*%
X4577600Y13150600D02*
X4577600Y11145000D01*
X4577600Y11145000D02*
X6654800Y9067800D01*
X2336800Y14757400D02*
X2970800Y14757400D01*
X2970800Y14757400D02*
X4577600Y13150600D01*
%TD*%
M02*
