%TF.GenerationSoftware,KiCad,Pcbnew,8.0.2*%
%TF.CreationDate,2024-05-06T01:08:36+09:00*%
%TF.ProjectId,pitch-convert2,70697463-682d-4636-9f6e-76657274322e,1*%
%TF.SameCoordinates,PX8438a20PY6fbcfb0*%
%TF.FileFunction,Copper,L1,Top*%
%TF.FilePolarity,Positive*%
%FSLAX46Y46*%
G04 Gerber Fmt 4.6, Leading zero omitted, Abs format (unit mm)*
G04 Created by KiCad (PCBNEW 8.0.2) date 2024-05-06 01:08:36*
%MOMM*%
%LPD*%
G01*
G04 APERTURE LIST*
G04 Aperture macros list*
%AMOutline5P*
0 Free polygon, 5 corners , with rotation*
0 The origin of the aperture is its center*
0 number of corners: always 5*
0 $1 to $10 corner X, Y*
0 $11 Rotation angle, in degrees counterclockwise*
0 create outline with 5 corners*
4,1,5,$1,$2,$3,$4,$5,$6,$7,$8,$9,$10,$1,$2,$11*%
%AMOutline6P*
0 Free polygon, 6 corners , with rotation*
0 The origin of the aperture is its center*
0 number of corners: always 6*
0 $1 to $12 corner X, Y*
0 $13 Rotation angle, in degrees counterclockwise*
0 create outline with 6 corners*
4,1,6,$1,$2,$3,$4,$5,$6,$7,$8,$9,$10,$11,$12,$1,$2,$13*%
%AMOutline7P*
0 Free polygon, 7 corners , with rotation*
0 The origin of the aperture is its center*
0 number of corners: always 7*
0 $1 to $14 corner X, Y*
0 $15 Rotation angle, in degrees counterclockwise*
0 create outline with 7 corners*
4,1,7,$1,$2,$3,$4,$5,$6,$7,$8,$9,$10,$11,$12,$13,$14,$1,$2,$15*%
%AMOutline8P*
0 Free polygon, 8 corners , with rotation*
0 The origin of the aperture is its center*
0 number of corners: always 8*
0 $1 to $16 corner X, Y*
0 $17 Rotation angle, in degrees counterclockwise*
0 create outline with 8 corners*
4,1,8,$1,$2,$3,$4,$5,$6,$7,$8,$9,$10,$11,$12,$13,$14,$15,$16,$1,$2,$17*%
%AMFreePoly0*
4,1,15,-1.270000,0.250000,-1.250970,0.345671,-1.196777,0.426777,-1.115671,0.480970,-1.020000,0.500000,1.070000,0.500000,1.270000,0.300000,1.270000,-0.300000,1.070000,-0.500000,-1.020000,-0.500000,-1.115671,-0.480970,-1.196777,-0.426777,-1.250970,-0.345671,-1.270000,-0.250000,-1.270000,0.250000,-1.270000,0.250000,$1*%
G04 Aperture macros list end*
%TA.AperFunction,SMDPad,CuDef*%
%ADD10Outline6P,-1.270000X0.504000X1.068400X0.504000X1.270000X0.302400X1.270000X-0.302400X1.068400X-0.504000X-1.270000X-0.504000X0.000000*%
%TD*%
%TA.AperFunction,SMDPad,CuDef*%
%ADD11FreePoly0,0.000000*%
%TD*%
%TA.AperFunction,SMDPad,CuDef*%
%ADD12Outline6P,-1.270000X0.500000X1.070000X0.500000X1.270000X0.300000X1.270000X-0.300000X1.070000X-0.500000X-1.270000X-0.500000X0.000000*%
%TD*%
%TA.AperFunction,SMDPad,CuDef*%
%ADD13Outline6P,-2.076000X0.510000X-1.736000X0.850000X2.076000X0.850000X2.076000X-0.850000X-1.736000X-0.850000X-2.076000X-0.510000X0.000000*%
%TD*%
%TA.AperFunction,SMDPad,CuDef*%
%ADD14Outline6P,-2.095500X0.510000X-1.755500X0.850000X2.095500X0.850000X2.095500X-0.850000X-1.755500X-0.850000X-2.095500X-0.510000X0.000000*%
%TD*%
%TA.AperFunction,Conductor*%
%ADD15C,0.250000*%
%TD*%
G04 APERTURE END LIST*
D10*
%TO.P,J2,1,Pin_1*%
%TO.N,/A1*%
X1738000Y29826000D03*
D11*
%TO.P,J2,2,Pin_2*%
%TO.N,/A2*%
X1738000Y28560000D03*
D10*
%TO.P,J2,3,Pin_3*%
%TO.N,/A3*%
X1738000Y27286000D03*
D12*
%TO.P,J2,4,Pin_4*%
%TO.N,/A4*%
X1738000Y26020000D03*
D10*
%TO.P,J2,5,Pin_5*%
%TO.N,/A5*%
X1738000Y24746000D03*
D11*
%TO.P,J2,6,Pin_6*%
%TO.N,/A6*%
X1738000Y23480000D03*
D10*
%TO.P,J2,7,Pin_7*%
%TO.N,/A7*%
X1738000Y22206000D03*
%TO.P,J2,8,Pin_8*%
%TO.N,/A8*%
X1738000Y20936000D03*
%TO.P,J2,9,Pin_9*%
%TO.N,/A9*%
X1738000Y19666000D03*
%TO.P,J2,10,Pin_10*%
%TO.N,/A10*%
X1738000Y18396000D03*
%TO.P,J2,11,Pin_11*%
%TO.N,/A11*%
X1738000Y17126000D03*
D12*
%TO.P,J2,12,Pin_12*%
%TO.N,/A12*%
X1738000Y15860000D03*
D10*
%TO.P,J2,13,Pin_13*%
%TO.N,/A13*%
X1738000Y14586000D03*
%TO.P,J2,14,Pin_14*%
%TO.N,/A14*%
X1738000Y13316000D03*
%TO.P,J2,15,Pin_15*%
%TO.N,/A15*%
X1738000Y12046000D03*
D12*
%TO.P,J2,16,Pin_16*%
%TO.N,/A16*%
X1738000Y10780000D03*
%TD*%
D13*
%TO.P,J1,1,Pin_1*%
%TO.N,/A1*%
X8026000Y39560000D03*
D14*
%TO.P,J1,2,Pin_2*%
%TO.N,/A2*%
X8006500Y37020000D03*
D13*
%TO.P,J1,3,Pin_3*%
%TO.N,/A3*%
X8026000Y34460500D03*
%TO.P,J1,4,Pin_4*%
%TO.N,/A4*%
X8026000Y31940000D03*
%TO.P,J1,5,Pin_5*%
%TO.N,/A5*%
X8026000Y29400000D03*
%TO.P,J1,6,Pin_6*%
%TO.N,/A6*%
X8026000Y26860000D03*
%TO.P,J1,7,Pin_7*%
%TO.N,/A7*%
X8026000Y24300500D03*
%TO.P,J1,8,Pin_8*%
%TO.N,/A8*%
X8026000Y21780000D03*
%TO.P,J1,9,Pin_9*%
%TO.N,/A9*%
X8026000Y19220500D03*
%TO.P,J1,10,Pin_10*%
%TO.N,/A10*%
X8026000Y16700000D03*
%TO.P,J1,11,Pin_11*%
%TO.N,/A11*%
X8026000Y14160000D03*
%TO.P,J1,12,Pin_12*%
%TO.N,/A12*%
X8026000Y11620000D03*
%TO.P,J1,13,Pin_13*%
%TO.N,/A13*%
X8026000Y9080000D03*
%TO.P,J1,14,Pin_14*%
%TO.N,/A14*%
X8026000Y6540000D03*
%TO.P,J1,15,Pin_15*%
%TO.N,/A15*%
X8026000Y4000000D03*
%TO.P,J1,16,Pin_16*%
%TO.N,/A16*%
X8026000Y1460000D03*
%TD*%
D15*
%TO.N,/A2*%
X3700000Y28900000D02*
X3700000Y33920000D01*
X3700000Y33920000D02*
X6800000Y37020000D01*
X2500000Y28560000D02*
X3360000Y28560000D01*
X3360000Y28560000D02*
X3700000Y28900000D01*
%TO.N,/A14*%
X2500000Y13320000D02*
X3380000Y13320000D01*
X4250000Y12450000D02*
X4250000Y9090000D01*
X4250000Y9090000D02*
X6800000Y6540000D01*
X3380000Y13320000D02*
X4250000Y12450000D01*
%TO.N,/A9*%
X6370000Y19670000D02*
X6800000Y19240000D01*
X2500000Y19670000D02*
X6370000Y19670000D01*
%TO.N,/A8*%
X2500000Y20940000D02*
X5960000Y20940000D01*
X5960000Y20940000D02*
X6800000Y21780000D01*
%TO.N,/A15*%
X3700000Y11700000D02*
X3700000Y7100000D01*
X2500000Y12050000D02*
X3350000Y12050000D01*
X3700000Y7100000D02*
X6800000Y4000000D01*
X3350000Y12050000D02*
X3700000Y11700000D01*
%TO.N,/A16*%
X2500000Y5760000D02*
X6800000Y1460000D01*
X2500000Y10780000D02*
X2500000Y5760000D01*
%TO.N,/A13*%
X3410000Y14590000D02*
X4700000Y13300000D01*
X4700000Y11180000D02*
X6800000Y9080000D01*
X4700000Y13300000D02*
X4700000Y11180000D01*
X2500000Y14590000D02*
X3410000Y14590000D01*
%TO.N,/A11*%
X2500000Y17130000D02*
X3830000Y17130000D01*
X3830000Y17130000D02*
X6800000Y14160000D01*
%TO.N,/A7*%
X4690000Y22210000D02*
X6800000Y24320000D01*
X2500000Y22210000D02*
X4690000Y22210000D01*
%TO.N,/A4*%
X4700000Y27300000D02*
X4700000Y29840000D01*
X4700000Y29840000D02*
X6800000Y31940000D01*
X2500000Y26020000D02*
X3420000Y26020000D01*
X3420000Y26020000D02*
X4700000Y27300000D01*
%TO.N,/A6*%
X2500000Y23480000D02*
X3420000Y23480000D01*
X3420000Y23480000D02*
X6800000Y26860000D01*
%TO.N,/A1*%
X2500000Y29830000D02*
X2500000Y35260000D01*
X2500000Y35260000D02*
X6800000Y39560000D01*
%TO.N,/A5*%
X2500000Y24750000D02*
X3350000Y24750000D01*
X3350000Y24750000D02*
X5200000Y26600000D01*
X5200000Y26600000D02*
X5200000Y27800000D01*
X5200000Y27800000D02*
X6800000Y29400000D01*
%TO.N,/A12*%
X3340000Y15860000D02*
X5200000Y14000000D01*
X6180000Y11620000D02*
X6800000Y11620000D01*
X2500000Y15860000D02*
X3340000Y15860000D01*
X5200000Y14000000D02*
X5200000Y12600000D01*
X5200000Y12600000D02*
X6180000Y11620000D01*
%TO.N,/A3*%
X4250000Y31930000D02*
X6800000Y34480000D01*
X3390000Y27290000D02*
X4250000Y28150000D01*
X4250000Y28150000D02*
X4250000Y31930000D01*
X2500000Y27290000D02*
X3390000Y27290000D01*
%TO.N,/A10*%
X5100000Y18400000D02*
X6800000Y16700000D01*
X2500000Y18400000D02*
X5100000Y18400000D01*
%TD*%
M02*
