%TF.GenerationSoftware,KiCad,Pcbnew,(5.1.9)-1*%
%TF.CreationDate,2021-12-22T01:45:53+09:00*%
%TF.ProjectId,pi-extend,70692d65-7874-4656-9e64-2e6b69636164,rev?*%
%TF.SameCoordinates,Original*%
%TF.FileFunction,Legend,Bot*%
%TF.FilePolarity,Positive*%
%FSLAX46Y46*%
G04 Gerber Fmt 4.6, Leading zero omitted, Abs format (unit mm)*
G04 Created by KiCad (PCBNEW (5.1.9)-1) date 2021-12-22 01:45:53*
%MOMM*%
%LPD*%
G01*
G04 APERTURE LIST*
%ADD10C,0.120000*%
G04 APERTURE END LIST*
D10*
%TO.C,J2*%
X150148600Y-128355400D02*
X147488600Y-128355400D01*
X150148600Y-80035400D02*
X150148600Y-128355400D01*
X147488600Y-80035400D02*
X147488600Y-128355400D01*
X150148600Y-80035400D02*
X147488600Y-80035400D01*
X150148600Y-78765400D02*
X150148600Y-77435400D01*
X150148600Y-77435400D02*
X148818600Y-77435400D01*
%TO.C,J3*%
X178088600Y-77435400D02*
X176758600Y-77435400D01*
X178088600Y-78765400D02*
X178088600Y-77435400D01*
X178088600Y-80035400D02*
X175428600Y-80035400D01*
X175428600Y-80035400D02*
X175428600Y-128355400D01*
X178088600Y-80035400D02*
X178088600Y-128355400D01*
X178088600Y-128355400D02*
X175428600Y-128355400D01*
%TO.C,J4*%
X143189000Y-107890000D02*
X143189000Y-110550000D01*
X140589000Y-107890000D02*
X143189000Y-107890000D01*
X140589000Y-110550000D02*
X143189000Y-110550000D01*
X140589000Y-107890000D02*
X140589000Y-110550000D01*
X139319000Y-107890000D02*
X137989000Y-107890000D01*
X137989000Y-107890000D02*
X137989000Y-109220000D01*
%TO.C,J5*%
X187639000Y-107890000D02*
X187639000Y-110550000D01*
X185039000Y-107890000D02*
X187639000Y-107890000D01*
X185039000Y-110550000D02*
X187639000Y-110550000D01*
X185039000Y-107890000D02*
X185039000Y-110550000D01*
X183769000Y-107890000D02*
X182439000Y-107890000D01*
X182439000Y-107890000D02*
X182439000Y-109220000D01*
%TD*%
M02*
