%TF.GenerationSoftware,KiCad,Pcbnew,(5.1.9)-1*%
%TF.CreationDate,2021-12-22T01:18:02+09:00*%
%TF.ProjectId,pi-extend,70692d65-7874-4656-9e64-2e6b69636164,rev?*%
%TF.SameCoordinates,Original*%
%TF.FileFunction,Copper,L2,Bot*%
%TF.FilePolarity,Positive*%
%FSLAX46Y46*%
G04 Gerber Fmt 4.6, Leading zero omitted, Abs format (unit mm)*
G04 Created by KiCad (PCBNEW (5.1.9)-1) date 2021-12-22 01:18:02*
%MOMM*%
%LPD*%
G01*
G04 APERTURE LIST*
%TA.AperFunction,ComponentPad*%
%ADD10R,1.700000X1.700000*%
%TD*%
%TA.AperFunction,ComponentPad*%
%ADD11O,1.700000X1.700000*%
%TD*%
%TA.AperFunction,ViaPad*%
%ADD12C,0.800000*%
%TD*%
%TA.AperFunction,Conductor*%
%ADD13C,0.250000*%
%TD*%
%TA.AperFunction,Conductor*%
%ADD14C,0.500000*%
%TD*%
G04 APERTURE END LIST*
D10*
%TO.P,J1,1*%
%TO.N,+3V3*%
X186944000Y-65024000D03*
D11*
%TO.P,J1,2*%
%TO.N,+5V*%
X186944000Y-67564000D03*
%TO.P,J1,3*%
%TO.N,Net-(J1-Pad3)*%
X184404000Y-65024000D03*
%TO.P,J1,4*%
%TO.N,+5V*%
X184404000Y-67564000D03*
%TO.P,J1,5*%
%TO.N,Net-(J1-Pad5)*%
X181864000Y-65024000D03*
%TO.P,J1,6*%
%TO.N,GND*%
X181864000Y-67564000D03*
%TO.P,J1,7*%
%TO.N,Net-(J1-Pad7)*%
X179324000Y-65024000D03*
%TO.P,J1,8*%
%TO.N,Net-(J1-Pad8)*%
X179324000Y-67564000D03*
%TO.P,J1,9*%
%TO.N,GND*%
X176784000Y-65024000D03*
%TO.P,J1,10*%
%TO.N,Net-(J1-Pad10)*%
X176784000Y-67564000D03*
%TO.P,J1,11*%
%TO.N,Net-(J1-Pad11)*%
X174244000Y-65024000D03*
%TO.P,J1,12*%
%TO.N,Net-(J1-Pad12)*%
X174244000Y-67564000D03*
%TO.P,J1,13*%
%TO.N,Net-(J1-Pad13)*%
X171704000Y-65024000D03*
%TO.P,J1,14*%
%TO.N,GND*%
X171704000Y-67564000D03*
%TO.P,J1,15*%
%TO.N,Net-(J1-Pad15)*%
X169164000Y-65024000D03*
%TO.P,J1,16*%
%TO.N,Net-(J1-Pad16)*%
X169164000Y-67564000D03*
%TO.P,J1,17*%
%TO.N,+3V3*%
X166624000Y-65024000D03*
%TO.P,J1,18*%
%TO.N,Net-(J1-Pad18)*%
X166624000Y-67564000D03*
%TO.P,J1,19*%
%TO.N,Net-(J1-Pad19)*%
X164084000Y-65024000D03*
%TO.P,J1,20*%
%TO.N,GND*%
X164084000Y-67564000D03*
%TO.P,J1,21*%
%TO.N,Net-(J1-Pad21)*%
X161544000Y-65024000D03*
%TO.P,J1,22*%
%TO.N,Net-(J1-Pad22)*%
X161544000Y-67564000D03*
%TO.P,J1,23*%
%TO.N,Net-(J1-Pad23)*%
X159004000Y-65024000D03*
%TO.P,J1,24*%
%TO.N,Net-(J1-Pad24)*%
X159004000Y-67564000D03*
%TO.P,J1,25*%
%TO.N,GND*%
X156464000Y-65024000D03*
%TO.P,J1,26*%
%TO.N,Net-(J1-Pad26)*%
X156464000Y-67564000D03*
%TO.P,J1,27*%
%TO.N,Net-(J1-Pad27)*%
X153924000Y-65024000D03*
%TO.P,J1,28*%
%TO.N,Net-(J1-Pad28)*%
X153924000Y-67564000D03*
%TO.P,J1,29*%
%TO.N,Net-(J1-Pad29)*%
X151384000Y-65024000D03*
%TO.P,J1,30*%
%TO.N,GND*%
X151384000Y-67564000D03*
%TO.P,J1,31*%
%TO.N,Net-(J1-Pad31)*%
X148844000Y-65024000D03*
%TO.P,J1,32*%
%TO.N,Net-(J1-Pad32)*%
X148844000Y-67564000D03*
%TO.P,J1,33*%
%TO.N,Net-(J1-Pad33)*%
X146304000Y-65024000D03*
%TO.P,J1,34*%
%TO.N,GND*%
X146304000Y-67564000D03*
%TO.P,J1,35*%
%TO.N,Net-(J1-Pad35)*%
X143764000Y-65024000D03*
%TO.P,J1,36*%
%TO.N,Net-(J1-Pad36)*%
X143764000Y-67564000D03*
%TO.P,J1,37*%
%TO.N,Net-(J1-Pad37)*%
X141224000Y-65024000D03*
%TO.P,J1,38*%
%TO.N,Net-(J1-Pad38)*%
X141224000Y-67564000D03*
%TO.P,J1,39*%
%TO.N,GND*%
X138684000Y-65024000D03*
%TO.P,J1,40*%
%TO.N,Net-(J1-Pad40)*%
X138684000Y-67564000D03*
%TD*%
D10*
%TO.P,J2,1*%
%TO.N,+3V3*%
X148818600Y-78765400D03*
D11*
%TO.P,J2,2*%
%TO.N,Net-(J1-Pad3)*%
X148818600Y-81305400D03*
%TO.P,J2,3*%
%TO.N,Net-(J1-Pad5)*%
X148818600Y-83845400D03*
%TO.P,J2,4*%
%TO.N,Net-(J1-Pad7)*%
X148818600Y-86385400D03*
%TO.P,J2,5*%
%TO.N,GND*%
X148818600Y-88925400D03*
%TO.P,J2,6*%
%TO.N,Net-(J1-Pad11)*%
X148818600Y-91465400D03*
%TO.P,J2,7*%
%TO.N,Net-(J1-Pad13)*%
X148818600Y-94005400D03*
%TO.P,J2,8*%
%TO.N,Net-(J1-Pad15)*%
X148818600Y-96545400D03*
%TO.P,J2,9*%
%TO.N,+3V3*%
X148818600Y-99085400D03*
%TO.P,J2,10*%
%TO.N,Net-(J1-Pad19)*%
X148818600Y-101625400D03*
%TO.P,J2,11*%
%TO.N,Net-(J1-Pad21)*%
X148818600Y-104165400D03*
%TO.P,J2,12*%
%TO.N,Net-(J1-Pad23)*%
X148818600Y-106705400D03*
%TO.P,J2,13*%
%TO.N,GND*%
X148818600Y-109245400D03*
%TO.P,J2,14*%
%TO.N,Net-(J1-Pad27)*%
X148818600Y-111785400D03*
%TO.P,J2,15*%
%TO.N,Net-(J1-Pad29)*%
X148818600Y-114325400D03*
%TO.P,J2,16*%
%TO.N,Net-(J1-Pad31)*%
X148818600Y-116865400D03*
%TO.P,J2,17*%
%TO.N,Net-(J1-Pad33)*%
X148818600Y-119405400D03*
%TO.P,J2,18*%
%TO.N,Net-(J1-Pad35)*%
X148818600Y-121945400D03*
%TO.P,J2,19*%
%TO.N,Net-(J1-Pad37)*%
X148818600Y-124485400D03*
%TO.P,J2,20*%
%TO.N,GND*%
X148818600Y-127025400D03*
%TD*%
%TO.P,J3,20*%
%TO.N,Net-(J1-Pad40)*%
X176758600Y-127025400D03*
%TO.P,J3,19*%
%TO.N,Net-(J1-Pad38)*%
X176758600Y-124485400D03*
%TO.P,J3,18*%
%TO.N,Net-(J1-Pad36)*%
X176758600Y-121945400D03*
%TO.P,J3,17*%
%TO.N,GND*%
X176758600Y-119405400D03*
%TO.P,J3,16*%
%TO.N,Net-(J1-Pad32)*%
X176758600Y-116865400D03*
%TO.P,J3,15*%
%TO.N,GND*%
X176758600Y-114325400D03*
%TO.P,J3,14*%
%TO.N,Net-(J1-Pad28)*%
X176758600Y-111785400D03*
%TO.P,J3,13*%
%TO.N,Net-(J1-Pad26)*%
X176758600Y-109245400D03*
%TO.P,J3,12*%
%TO.N,Net-(J1-Pad24)*%
X176758600Y-106705400D03*
%TO.P,J3,11*%
%TO.N,Net-(J1-Pad22)*%
X176758600Y-104165400D03*
%TO.P,J3,10*%
%TO.N,GND*%
X176758600Y-101625400D03*
%TO.P,J3,9*%
%TO.N,Net-(J1-Pad18)*%
X176758600Y-99085400D03*
%TO.P,J3,8*%
%TO.N,Net-(J1-Pad16)*%
X176758600Y-96545400D03*
%TO.P,J3,7*%
%TO.N,GND*%
X176758600Y-94005400D03*
%TO.P,J3,6*%
%TO.N,Net-(J1-Pad12)*%
X176758600Y-91465400D03*
%TO.P,J3,5*%
%TO.N,Net-(J1-Pad10)*%
X176758600Y-88925400D03*
%TO.P,J3,4*%
%TO.N,Net-(J1-Pad8)*%
X176758600Y-86385400D03*
%TO.P,J3,3*%
%TO.N,GND*%
X176758600Y-83845400D03*
%TO.P,J3,2*%
%TO.N,+5V*%
X176758600Y-81305400D03*
D10*
%TO.P,J3,1*%
X176758600Y-78765400D03*
%TD*%
%TO.P,J4,1*%
%TO.N,+3V3*%
X139319000Y-109220000D03*
D11*
%TO.P,J4,2*%
%TO.N,GND*%
X141859000Y-109220000D03*
%TD*%
D10*
%TO.P,J5,1*%
%TO.N,+5V*%
X183769000Y-109220000D03*
D11*
%TO.P,J5,2*%
%TO.N,GND*%
X186309000Y-109220000D03*
%TD*%
D12*
%TO.N,Net-(J1-Pad8)*%
X185674000Y-78994000D03*
%TO.N,Net-(J1-Pad10)*%
X185674000Y-80264000D03*
%TO.N,Net-(J1-Pad12)*%
X185645498Y-81534000D03*
%TO.N,Net-(J1-Pad16)*%
X185674000Y-82804000D03*
%TO.N,Net-(J1-Pad18)*%
X185674000Y-84074000D03*
%TO.N,Net-(J1-Pad22)*%
X185673986Y-85344000D03*
%TO.N,Net-(J1-Pad24)*%
X185674000Y-86614000D03*
%TO.N,Net-(J1-Pad26)*%
X185674000Y-87884010D03*
%TO.N,Net-(J1-Pad28)*%
X185674010Y-89154000D03*
%TO.N,Net-(J1-Pad32)*%
X181102000Y-113792004D03*
%TO.N,Net-(J1-Pad36)*%
X181102000Y-115062000D03*
%TO.N,Net-(J1-Pad38)*%
X181102000Y-116332000D03*
%TO.N,Net-(J1-Pad40)*%
X181102000Y-117602000D03*
%TO.N,+3V3*%
X145262594Y-95529394D03*
%TO.N,+5V*%
X186944000Y-71882000D03*
%TD*%
D13*
%TO.N,Net-(J1-Pad8)*%
X185674000Y-73914000D02*
X185674000Y-78994000D01*
X179324000Y-67564000D02*
X185674000Y-73914000D01*
%TO.N,Net-(J1-Pad10)*%
X176784000Y-67564000D02*
X177292000Y-67564000D01*
X177292000Y-67564000D02*
X184766277Y-75038277D01*
X184766277Y-75038277D02*
X184766277Y-79356277D01*
X184766277Y-79356277D02*
X185674000Y-80264000D01*
%TO.N,Net-(J1-Pad12)*%
X184316266Y-80204768D02*
X185645498Y-81534000D01*
X184316266Y-75350266D02*
X184316266Y-80204768D01*
X179439971Y-70473971D02*
X184316266Y-75350266D01*
X177153971Y-70473971D02*
X179439971Y-70473971D01*
X174244000Y-67564000D02*
X177153971Y-70473971D01*
%TO.N,Net-(J1-Pad16)*%
X169164000Y-67564000D02*
X172523982Y-70923982D01*
X183866255Y-75539486D02*
X183866255Y-80996255D01*
X172523982Y-70923982D02*
X179250751Y-70923982D01*
X179250751Y-70923982D02*
X183866255Y-75539486D01*
X183866255Y-80996255D02*
X185674000Y-82804000D01*
%TO.N,Net-(J1-Pad18)*%
X179064352Y-71373993D02*
X183416244Y-75725885D01*
X183416244Y-81816244D02*
X185674000Y-84074000D01*
X183416244Y-75725885D02*
X183416244Y-81816244D01*
X166624000Y-67564000D02*
X170433993Y-71373993D01*
X170433993Y-71373993D02*
X179064352Y-71373993D01*
%TO.N,Net-(J1-Pad22)*%
X182966233Y-75912284D02*
X182966233Y-82636247D01*
X161544000Y-67564000D02*
X165804004Y-71824004D01*
X182966233Y-82636247D02*
X185673986Y-85344000D01*
X165804004Y-71824004D02*
X178877953Y-71824004D01*
X178877953Y-71824004D02*
X182966233Y-75912284D01*
%TO.N,Net-(J1-Pad24)*%
X182516222Y-83456222D02*
X185674000Y-86614000D01*
X182516222Y-76098684D02*
X182516222Y-83456222D01*
X178691553Y-72274015D02*
X182516222Y-76098684D01*
X159004000Y-67564000D02*
X163714015Y-72274015D01*
X163714015Y-72274015D02*
X178691553Y-72274015D01*
%TO.N,Net-(J1-Pad26)*%
X178505153Y-72724026D02*
X182066211Y-76285084D01*
X182066211Y-84841906D02*
X185108315Y-87884010D01*
X185108315Y-87884010D02*
X185674000Y-87884010D01*
X156464000Y-67564000D02*
X161624026Y-72724026D01*
X182066211Y-76285084D02*
X182066211Y-84841906D01*
X161624026Y-72724026D02*
X178505153Y-72724026D01*
%TO.N,Net-(J1-Pad28)*%
X184694996Y-88740671D02*
X185108325Y-89154000D01*
X178318753Y-73174037D02*
X181616200Y-76471484D01*
X184694996Y-88174986D02*
X184694996Y-88740671D01*
X153924000Y-67564000D02*
X159534037Y-73174037D01*
X181616200Y-85096190D02*
X184694996Y-88174986D01*
X185108325Y-89154000D02*
X185674010Y-89154000D01*
X159534037Y-73174037D02*
X178318753Y-73174037D01*
X181616200Y-76471484D02*
X181616200Y-85096190D01*
%TO.N,Net-(J1-Pad32)*%
X148844000Y-67564000D02*
X154904048Y-73624048D01*
X181102000Y-76593699D02*
X181102000Y-113792004D01*
X154904048Y-73624048D02*
X178132353Y-73624048D01*
X178132353Y-73624048D02*
X181102000Y-76593699D01*
%TO.N,Net-(J1-Pad36)*%
X143764000Y-67564000D02*
X150274059Y-74074059D01*
X177945953Y-74074059D02*
X180376999Y-76505109D01*
X180376999Y-114336999D02*
X181102000Y-115062000D01*
X180376999Y-76505109D02*
X180376999Y-114336999D01*
X150274059Y-74074059D02*
X177945953Y-74074059D01*
%TO.N,Net-(J1-Pad38)*%
X148184070Y-74524070D02*
X177759553Y-74524070D01*
X177759553Y-74524070D02*
X179832000Y-76596521D01*
X179832000Y-76596521D02*
X179832000Y-115062000D01*
X179832000Y-115062000D02*
X181102000Y-116332000D01*
X141224000Y-67564000D02*
X148184070Y-74524070D01*
%TO.N,Net-(J1-Pad40)*%
X138684000Y-67564000D02*
X146094081Y-74974081D01*
X146094081Y-74974081D02*
X177573153Y-74974081D01*
X177573153Y-74974081D02*
X179324000Y-76724932D01*
X179324000Y-76724932D02*
X179324000Y-115824000D01*
X179324000Y-115824000D02*
X181102000Y-117602000D01*
D14*
%TO.N,+3V3*%
X186944000Y-64262000D02*
X186944000Y-65024000D01*
X166624000Y-65024000D02*
X166624000Y-64008000D01*
X166624000Y-64008000D02*
X167640000Y-62992000D01*
X167640000Y-62992000D02*
X185674000Y-62992000D01*
X185674000Y-62992000D02*
X186944000Y-64262000D01*
X139319000Y-94615000D02*
X139319000Y-109220000D01*
X139319000Y-84709000D02*
X139319000Y-94615000D01*
X145262600Y-78765400D02*
X139319000Y-84709000D01*
X148818600Y-78765400D02*
X145262600Y-78765400D01*
X145237200Y-95504000D02*
X145262594Y-95529394D01*
X139319000Y-95504000D02*
X145237200Y-95504000D01*
%TO.N,+5V*%
X186944000Y-71882000D02*
X186944000Y-67564000D01*
X186944000Y-84044835D02*
X186944000Y-71882000D01*
X186944000Y-104140000D02*
X186944000Y-84044835D01*
X183769000Y-107315000D02*
X186944000Y-104140000D01*
X183769000Y-109220000D02*
X183769000Y-107315000D01*
X184404000Y-67564000D02*
X186944000Y-67564000D01*
%TO.N,GND*%
X148793200Y-109220000D02*
X148818600Y-109245400D01*
X141859000Y-109220000D02*
X148793200Y-109220000D01*
X147853400Y-127025400D02*
X148818600Y-127025400D01*
X146558000Y-125730000D02*
X147853400Y-127025400D01*
X146558000Y-110490000D02*
X146558000Y-125730000D01*
X147802600Y-109245400D02*
X146558000Y-110490000D01*
X148818600Y-109245400D02*
X147802600Y-109245400D01*
X148056600Y-88925400D02*
X148818600Y-88925400D01*
X146558000Y-90424000D02*
X148056600Y-88925400D01*
X146558000Y-107696000D02*
X146558000Y-90424000D01*
X148107400Y-109245400D02*
X146558000Y-107696000D01*
X148818600Y-109245400D02*
X148107400Y-109245400D01*
X177774600Y-94005400D02*
X176758600Y-94005400D01*
X178308000Y-93472000D02*
X177774600Y-94005400D01*
X178308000Y-84836000D02*
X178308000Y-93472000D01*
X177317400Y-83845400D02*
X178308000Y-84836000D01*
X176758600Y-83845400D02*
X177317400Y-83845400D01*
X178562000Y-100838000D02*
X177774600Y-101625400D01*
X177774600Y-101625400D02*
X176758600Y-101625400D01*
X178562000Y-94996000D02*
X178562000Y-100838000D01*
X177571400Y-94005400D02*
X178562000Y-94996000D01*
X176758600Y-94005400D02*
X177571400Y-94005400D01*
X177774600Y-114325400D02*
X176758600Y-114325400D01*
X178562000Y-113538000D02*
X177774600Y-114325400D01*
X178562000Y-102362000D02*
X178562000Y-113538000D01*
X177825400Y-101625400D02*
X178562000Y-102362000D01*
X176758600Y-101625400D02*
X177825400Y-101625400D01*
X178562000Y-118618000D02*
X177774600Y-119405400D01*
X177774600Y-119405400D02*
X176758600Y-119405400D01*
X178562000Y-115062000D02*
X178562000Y-118618000D01*
X177825400Y-114325400D02*
X178562000Y-115062000D01*
X176758600Y-114325400D02*
X177825400Y-114325400D01*
D13*
X162814000Y-66294000D02*
X164084000Y-67564000D01*
X158007499Y-66294000D02*
X162814000Y-66294000D01*
X156737499Y-65024000D02*
X158007499Y-66294000D01*
X156464000Y-65024000D02*
X156737499Y-65024000D01*
X155194000Y-66294000D02*
X156464000Y-65024000D01*
X152654000Y-66294000D02*
X155194000Y-66294000D01*
X151384000Y-67564000D02*
X152654000Y-66294000D01*
X150114000Y-66294000D02*
X151384000Y-67564000D01*
X147574000Y-66294000D02*
X150114000Y-66294000D01*
X146304000Y-67564000D02*
X147574000Y-66294000D01*
X170434000Y-66294000D02*
X171704000Y-67564000D01*
X165354000Y-66294000D02*
X170434000Y-66294000D01*
X164084000Y-67564000D02*
X165354000Y-66294000D01*
X180594000Y-66294000D02*
X181864000Y-67564000D01*
X178054000Y-66294000D02*
X180594000Y-66294000D01*
X176784000Y-65024000D02*
X178054000Y-66294000D01*
X175514000Y-66294000D02*
X176784000Y-65024000D01*
X172974000Y-66294000D02*
X175514000Y-66294000D01*
X171704000Y-67564000D02*
X172974000Y-66294000D01*
%TD*%
M02*
