%TF.GenerationSoftware,KiCad,Pcbnew,(5.1.9)-1*%
%TF.CreationDate,2021-12-07T00:28:53+09:00*%
%TF.ProjectId,pi-extend,70692d65-7874-4656-9e64-2e6b69636164,rev?*%
%TF.SameCoordinates,Original*%
%TF.FileFunction,Copper,L1,Top*%
%TF.FilePolarity,Positive*%
%FSLAX46Y46*%
G04 Gerber Fmt 4.6, Leading zero omitted, Abs format (unit mm)*
G04 Created by KiCad (PCBNEW (5.1.9)-1) date 2021-12-07 00:28:53*
%MOMM*%
%LPD*%
G01*
G04 APERTURE LIST*
%TA.AperFunction,ComponentPad*%
%ADD10R,1.700000X1.700000*%
%TD*%
%TA.AperFunction,ComponentPad*%
%ADD11O,1.700000X1.700000*%
%TD*%
%TA.AperFunction,ViaPad*%
%ADD12C,0.800000*%
%TD*%
%TA.AperFunction,Conductor*%
%ADD13C,0.500000*%
%TD*%
%TA.AperFunction,Conductor*%
%ADD14C,0.250000*%
%TD*%
G04 APERTURE END LIST*
D10*
%TO.P,J1,1*%
%TO.N,Net-(J1-Pad1)*%
X126720600Y-69342000D03*
D11*
%TO.P,J1,2*%
%TO.N,Net-(J1-Pad2)*%
X126720600Y-66802000D03*
%TO.P,J1,3*%
%TO.N,Net-(J1-Pad3)*%
X129260600Y-69342000D03*
%TO.P,J1,4*%
%TO.N,Net-(J1-Pad4)*%
X129260600Y-66802000D03*
%TO.P,J1,5*%
%TO.N,Net-(J1-Pad5)*%
X131800600Y-69342000D03*
%TO.P,J1,6*%
%TO.N,Net-(J1-Pad6)*%
X131800600Y-66802000D03*
%TO.P,J1,7*%
%TO.N,Net-(J1-Pad7)*%
X134340600Y-69342000D03*
%TO.P,J1,8*%
%TO.N,Net-(J1-Pad8)*%
X134340600Y-66802000D03*
%TO.P,J1,9*%
%TO.N,Net-(J1-Pad9)*%
X136880600Y-69342000D03*
%TO.P,J1,10*%
%TO.N,Net-(J1-Pad10)*%
X136880600Y-66802000D03*
%TO.P,J1,11*%
%TO.N,Net-(J1-Pad11)*%
X139420600Y-69342000D03*
%TO.P,J1,12*%
%TO.N,Net-(J1-Pad12)*%
X139420600Y-66802000D03*
%TO.P,J1,13*%
%TO.N,Net-(J1-Pad13)*%
X141960600Y-69342000D03*
%TO.P,J1,14*%
%TO.N,Net-(J1-Pad14)*%
X141960600Y-66802000D03*
%TO.P,J1,15*%
%TO.N,Net-(J1-Pad15)*%
X144500600Y-69342000D03*
%TO.P,J1,16*%
%TO.N,Net-(J1-Pad16)*%
X144500600Y-66802000D03*
%TO.P,J1,17*%
%TO.N,Net-(J1-Pad17)*%
X147040600Y-69342000D03*
%TO.P,J1,18*%
%TO.N,Net-(J1-Pad18)*%
X147040600Y-66802000D03*
%TO.P,J1,19*%
%TO.N,Net-(J1-Pad19)*%
X149580600Y-69342000D03*
%TO.P,J1,20*%
%TO.N,Net-(J1-Pad20)*%
X149580600Y-66802000D03*
%TO.P,J1,21*%
%TO.N,Net-(J1-Pad21)*%
X152120600Y-69342000D03*
%TO.P,J1,22*%
%TO.N,Net-(J1-Pad22)*%
X152120600Y-66802000D03*
%TO.P,J1,23*%
%TO.N,Net-(J1-Pad23)*%
X154660600Y-69342000D03*
%TO.P,J1,24*%
%TO.N,Net-(J1-Pad24)*%
X154660600Y-66802000D03*
%TO.P,J1,25*%
%TO.N,Net-(J1-Pad25)*%
X157200600Y-69342000D03*
%TO.P,J1,26*%
%TO.N,Net-(J1-Pad26)*%
X157200600Y-66802000D03*
%TO.P,J1,27*%
%TO.N,Net-(J1-Pad27)*%
X159740600Y-69342000D03*
%TO.P,J1,28*%
%TO.N,Net-(J1-Pad28)*%
X159740600Y-66802000D03*
%TO.P,J1,29*%
%TO.N,Net-(J1-Pad29)*%
X162280600Y-69342000D03*
%TO.P,J1,30*%
%TO.N,Net-(J1-Pad30)*%
X162280600Y-66802000D03*
%TO.P,J1,31*%
%TO.N,Net-(J1-Pad31)*%
X164820600Y-69342000D03*
%TO.P,J1,32*%
%TO.N,Net-(J1-Pad32)*%
X164820600Y-66802000D03*
%TO.P,J1,33*%
%TO.N,Net-(J1-Pad33)*%
X167360600Y-69342000D03*
%TO.P,J1,34*%
%TO.N,Net-(J1-Pad34)*%
X167360600Y-66802000D03*
%TO.P,J1,35*%
%TO.N,Net-(J1-Pad35)*%
X169900600Y-69342000D03*
%TO.P,J1,36*%
%TO.N,Net-(J1-Pad36)*%
X169900600Y-66802000D03*
%TO.P,J1,37*%
%TO.N,Net-(J1-Pad37)*%
X172440600Y-69342000D03*
%TO.P,J1,38*%
%TO.N,Net-(J1-Pad38)*%
X172440600Y-66802000D03*
%TO.P,J1,39*%
%TO.N,Net-(J1-Pad39)*%
X174980600Y-69342000D03*
%TO.P,J1,40*%
%TO.N,Net-(J1-Pad40)*%
X174980600Y-66802000D03*
%TD*%
D10*
%TO.P,J2,1*%
%TO.N,Net-(J1-Pad1)*%
X136880600Y-81305400D03*
D11*
%TO.P,J2,2*%
%TO.N,Net-(J1-Pad3)*%
X136880600Y-83845400D03*
%TO.P,J2,3*%
%TO.N,Net-(J1-Pad5)*%
X136880600Y-86385400D03*
%TO.P,J2,4*%
%TO.N,Net-(J1-Pad7)*%
X136880600Y-88925400D03*
%TO.P,J2,5*%
%TO.N,Net-(J1-Pad9)*%
X136880600Y-91465400D03*
%TO.P,J2,6*%
%TO.N,Net-(J1-Pad11)*%
X136880600Y-94005400D03*
%TO.P,J2,7*%
%TO.N,Net-(J1-Pad13)*%
X136880600Y-96545400D03*
%TO.P,J2,8*%
%TO.N,Net-(J1-Pad15)*%
X136880600Y-99085400D03*
%TO.P,J2,9*%
%TO.N,Net-(J1-Pad17)*%
X136880600Y-101625400D03*
%TO.P,J2,10*%
%TO.N,Net-(J1-Pad19)*%
X136880600Y-104165400D03*
%TO.P,J2,11*%
%TO.N,Net-(J1-Pad21)*%
X136880600Y-106705400D03*
%TO.P,J2,12*%
%TO.N,Net-(J1-Pad23)*%
X136880600Y-109245400D03*
%TO.P,J2,13*%
%TO.N,Net-(J1-Pad25)*%
X136880600Y-111785400D03*
%TO.P,J2,14*%
%TO.N,Net-(J1-Pad27)*%
X136880600Y-114325400D03*
%TO.P,J2,15*%
%TO.N,Net-(J1-Pad29)*%
X136880600Y-116865400D03*
%TO.P,J2,16*%
%TO.N,Net-(J1-Pad31)*%
X136880600Y-119405400D03*
%TO.P,J2,17*%
%TO.N,Net-(J1-Pad33)*%
X136880600Y-121945400D03*
%TO.P,J2,18*%
%TO.N,Net-(J1-Pad35)*%
X136880600Y-124485400D03*
%TO.P,J2,19*%
%TO.N,Net-(J1-Pad37)*%
X136880600Y-127025400D03*
%TO.P,J2,20*%
%TO.N,Net-(J1-Pad39)*%
X136880600Y-129565400D03*
%TD*%
%TO.P,J3,20*%
%TO.N,Net-(J1-Pad40)*%
X164820600Y-129565400D03*
%TO.P,J3,19*%
%TO.N,Net-(J1-Pad38)*%
X164820600Y-127025400D03*
%TO.P,J3,18*%
%TO.N,Net-(J1-Pad36)*%
X164820600Y-124485400D03*
%TO.P,J3,17*%
%TO.N,Net-(J1-Pad34)*%
X164820600Y-121945400D03*
%TO.P,J3,16*%
%TO.N,Net-(J1-Pad32)*%
X164820600Y-119405400D03*
%TO.P,J3,15*%
%TO.N,Net-(J1-Pad30)*%
X164820600Y-116865400D03*
%TO.P,J3,14*%
%TO.N,Net-(J1-Pad28)*%
X164820600Y-114325400D03*
%TO.P,J3,13*%
%TO.N,Net-(J1-Pad26)*%
X164820600Y-111785400D03*
%TO.P,J3,12*%
%TO.N,Net-(J1-Pad24)*%
X164820600Y-109245400D03*
%TO.P,J3,11*%
%TO.N,Net-(J1-Pad22)*%
X164820600Y-106705400D03*
%TO.P,J3,10*%
%TO.N,Net-(J1-Pad20)*%
X164820600Y-104165400D03*
%TO.P,J3,9*%
%TO.N,Net-(J1-Pad18)*%
X164820600Y-101625400D03*
%TO.P,J3,8*%
%TO.N,Net-(J1-Pad16)*%
X164820600Y-99085400D03*
%TO.P,J3,7*%
%TO.N,Net-(J1-Pad14)*%
X164820600Y-96545400D03*
%TO.P,J3,6*%
%TO.N,Net-(J1-Pad12)*%
X164820600Y-94005400D03*
%TO.P,J3,5*%
%TO.N,Net-(J1-Pad10)*%
X164820600Y-91465400D03*
%TO.P,J3,4*%
%TO.N,Net-(J1-Pad8)*%
X164820600Y-88925400D03*
%TO.P,J3,3*%
%TO.N,Net-(J1-Pad6)*%
X164820600Y-86385400D03*
%TO.P,J3,2*%
%TO.N,Net-(J1-Pad4)*%
X164820600Y-83845400D03*
D10*
%TO.P,J3,1*%
%TO.N,Net-(J1-Pad2)*%
X164820600Y-81305400D03*
%TD*%
%TO.P,J4,1*%
%TO.N,Net-(J1-Pad1)*%
X126720600Y-129565400D03*
D11*
%TO.P,J4,2*%
%TO.N,Net-(J1-Pad5)*%
X129260600Y-129565400D03*
%TD*%
%TO.P,J5,2*%
%TO.N,Net-(J1-Pad10)*%
X172440600Y-129565400D03*
D10*
%TO.P,J5,1*%
%TO.N,Net-(J1-Pad2)*%
X174980600Y-129565400D03*
%TD*%
D12*
%TO.N,Net-(J1-Pad1)*%
X125450600Y-81305400D03*
%TO.N,Net-(J1-Pad3)*%
X126149990Y-83893296D03*
%TO.N,Net-(J1-Pad5)*%
X126905412Y-86385398D03*
%TO.N,Net-(J1-Pad7)*%
X127355423Y-88925400D03*
%TO.N,Net-(J1-Pad9)*%
X127805434Y-91465400D03*
%TO.N,Net-(J1-Pad11)*%
X128255445Y-94005400D03*
%TO.N,Net-(J1-Pad13)*%
X128705456Y-96545400D03*
%TO.N,Net-(J1-Pad15)*%
X129155467Y-99085407D03*
%TO.N,Net-(J1-Pad17)*%
X129605478Y-101625400D03*
%TO.N,Net-(J1-Pad19)*%
X130055489Y-104165400D03*
%TO.N,Net-(J1-Pad21)*%
X130505500Y-106705400D03*
%TO.N,Net-(J1-Pad23)*%
X130606800Y-109067600D03*
%TO.N,Net-(J1-Pad25)*%
X131064000Y-111785400D03*
%TO.N,Net-(J1-Pad27)*%
X131546602Y-114325400D03*
%TO.N,Net-(J1-Pad29)*%
X132120346Y-116916200D03*
%TO.N,Net-(J1-Pad31)*%
X132562600Y-119583200D03*
%TO.N,Net-(J1-Pad33)*%
X132689600Y-122047000D03*
%TO.N,Net-(J1-Pad35)*%
X133172200Y-124510800D03*
%TO.N,Net-(J1-Pad37)*%
X133807200Y-126949200D03*
%TO.N,Net-(J1-Pad39)*%
X134620000Y-129387600D03*
%TD*%
D13*
%TO.N,Net-(J1-Pad1)*%
X136880600Y-81305400D02*
X125450600Y-81305400D01*
%TO.N,Net-(J1-Pad2)*%
X163576000Y-78232000D02*
X164820600Y-79476600D01*
X132080000Y-78232000D02*
X163576000Y-78232000D01*
X125222000Y-71374000D02*
X132080000Y-78232000D01*
X125222000Y-67564000D02*
X125222000Y-71374000D01*
X125984000Y-66802000D02*
X125222000Y-67564000D01*
X126720600Y-66802000D02*
X125984000Y-66802000D01*
X164820600Y-79476600D02*
X164820600Y-81305400D01*
D14*
%TO.N,Net-(J1-Pad3)*%
X136880600Y-83845400D02*
X126197886Y-83845400D01*
X126197886Y-83845400D02*
X126149990Y-83893296D01*
%TO.N,Net-(J1-Pad4)*%
X166935989Y-81730011D02*
X164820600Y-83845400D01*
X130556000Y-68097400D02*
X130556000Y-71120000D01*
X164630830Y-77656989D02*
X166935989Y-79962148D01*
X166935989Y-79962148D02*
X166935989Y-81730011D01*
X137092989Y-77656989D02*
X164630830Y-77656989D01*
X130556000Y-71120000D02*
X137092989Y-77656989D01*
X129260600Y-66802000D02*
X130556000Y-68097400D01*
D13*
%TO.N,Net-(J1-Pad5)*%
X126905414Y-86385400D02*
X126905412Y-86385398D01*
X136880600Y-86385400D02*
X126905414Y-86385400D01*
D14*
%TO.N,Net-(J1-Pad6)*%
X164820600Y-86385400D02*
X167386000Y-83820000D01*
X167386000Y-83820000D02*
X167386000Y-79775748D01*
X167386000Y-79775748D02*
X164817231Y-77206979D01*
X139182979Y-77206979D02*
X133096000Y-71120000D01*
X133096000Y-71120000D02*
X133096000Y-68097400D01*
X133096000Y-68097400D02*
X131800600Y-66802000D01*
X164817231Y-77206979D02*
X139182979Y-77206979D01*
%TO.N,Net-(J1-Pad7)*%
X136880600Y-88925400D02*
X127355423Y-88925400D01*
%TO.N,Net-(J1-Pad8)*%
X135636000Y-71120000D02*
X141272969Y-76756969D01*
X165003630Y-76756969D02*
X167894000Y-79647339D01*
X135636000Y-68097400D02*
X135636000Y-71120000D01*
X134340600Y-66802000D02*
X135636000Y-68097400D01*
X167894000Y-85852000D02*
X164820600Y-88925400D01*
X167894000Y-79647339D02*
X167894000Y-85852000D01*
X141272969Y-76756969D02*
X165003630Y-76756969D01*
%TO.N,Net-(J1-Pad9)*%
X136880600Y-91465400D02*
X127805434Y-91465400D01*
%TO.N,Net-(J1-Pad10)*%
X168723809Y-79840738D02*
X168723809Y-87562191D01*
X138130601Y-68052001D02*
X138130601Y-71328601D01*
X138130601Y-71328601D02*
X143108959Y-76306959D01*
X168723809Y-87562191D02*
X164820600Y-91465400D01*
X165190030Y-76306959D02*
X168723809Y-79840738D01*
X143108959Y-76306959D02*
X165190030Y-76306959D01*
X136880600Y-66802000D02*
X138130601Y-68052001D01*
%TO.N,Net-(J1-Pad11)*%
X136880600Y-94005400D02*
X128255445Y-94005400D01*
%TO.N,Net-(J1-Pad12)*%
X164820600Y-94005400D02*
X169341800Y-89484200D01*
X140716000Y-71120000D02*
X140716000Y-68097400D01*
X169341800Y-79822315D02*
X165376434Y-75856949D01*
X169341800Y-89484200D02*
X169341800Y-79822315D01*
X165376434Y-75856949D02*
X145452949Y-75856949D01*
X145452949Y-75856949D02*
X140716000Y-71120000D01*
X140716000Y-68097400D02*
X139420600Y-66802000D01*
%TO.N,Net-(J1-Pad13)*%
X136880600Y-96545400D02*
X128705456Y-96545400D01*
%TO.N,Net-(J1-Pad14)*%
X141960600Y-66802000D02*
X143256000Y-68097400D01*
X143256000Y-71120000D02*
X147542939Y-75406939D01*
X143256000Y-68097400D02*
X143256000Y-71120000D01*
X147542939Y-75406939D02*
X165562830Y-75406939D01*
X165670599Y-95695401D02*
X164820600Y-96545400D01*
X169849800Y-91516200D02*
X165670599Y-95695401D01*
X169849800Y-79693909D02*
X169849800Y-91516200D01*
X165562830Y-75406939D02*
X169849800Y-79693909D01*
%TO.N,Net-(J1-Pad15)*%
X136880600Y-99085400D02*
X129155474Y-99085400D01*
X129155474Y-99085400D02*
X129155467Y-99085407D01*
%TO.N,Net-(J1-Pad16)*%
X165670599Y-98235401D02*
X164820600Y-99085400D01*
X145796000Y-68097400D02*
X145796000Y-70211844D01*
X165749231Y-74956929D02*
X170357800Y-79565498D01*
X150541085Y-74956929D02*
X165749231Y-74956929D01*
X170357800Y-79565498D02*
X170357800Y-93548200D01*
X145796000Y-70211844D02*
X150541085Y-74956929D01*
X170357800Y-93548200D02*
X165670599Y-98235401D01*
X144500600Y-66802000D02*
X145796000Y-68097400D01*
%TO.N,Net-(J1-Pad17)*%
X136880600Y-101625400D02*
X129605478Y-101625400D01*
%TO.N,Net-(J1-Pad18)*%
X148336000Y-71120000D02*
X151722919Y-74506919D01*
X165670599Y-100775401D02*
X164820600Y-101625400D01*
X170891200Y-79462487D02*
X170891200Y-95554800D01*
X170891200Y-95554800D02*
X165670599Y-100775401D01*
X148336000Y-68097400D02*
X148336000Y-71120000D01*
X151722919Y-74506919D02*
X165935632Y-74506919D01*
X147040600Y-66802000D02*
X148336000Y-68097400D01*
X165935632Y-74506919D02*
X170891200Y-79462487D01*
%TO.N,Net-(J1-Pad19)*%
X136880600Y-104165400D02*
X130055489Y-104165400D01*
%TO.N,Net-(J1-Pad20)*%
X166122033Y-74056909D02*
X171424600Y-79359476D01*
X171424600Y-79359476D02*
X171424600Y-97561400D01*
X150876000Y-68097400D02*
X150876000Y-70612000D01*
X154320909Y-74056909D02*
X166122033Y-74056909D01*
X165670599Y-103315401D02*
X164820600Y-104165400D01*
X171424600Y-97561400D02*
X165670599Y-103315401D01*
X150876000Y-70612000D02*
X154320909Y-74056909D01*
X149580600Y-66802000D02*
X150876000Y-68097400D01*
%TO.N,Net-(J1-Pad21)*%
X136880600Y-106705400D02*
X130505500Y-106705400D01*
%TO.N,Net-(J1-Pad22)*%
X153416000Y-71120000D02*
X155902899Y-73606899D01*
X172008800Y-99517200D02*
X165670599Y-105855401D01*
X152120600Y-66802000D02*
X153416000Y-68097400D01*
X172008800Y-79307265D02*
X172008800Y-99517200D01*
X165670599Y-105855401D02*
X164820600Y-106705400D01*
X166308434Y-73606899D02*
X172008800Y-79307265D01*
X155902899Y-73606899D02*
X166308434Y-73606899D01*
X153416000Y-68097400D02*
X153416000Y-71120000D01*
%TO.N,Net-(J1-Pad23)*%
X130784600Y-109245400D02*
X130606800Y-109067600D01*
X136880600Y-109245400D02*
X130784600Y-109245400D01*
%TO.N,Net-(J1-Pad24)*%
X166494836Y-73156890D02*
X172571908Y-79233962D01*
X157992890Y-73156890D02*
X166494836Y-73156890D01*
X155956000Y-71120000D02*
X157992890Y-73156890D01*
X154660600Y-66802000D02*
X155956000Y-68097400D01*
X172571908Y-101494092D02*
X165670599Y-108395401D01*
X165670599Y-108395401D02*
X164820600Y-109245400D01*
X155956000Y-68097400D02*
X155956000Y-71120000D01*
X172571908Y-79233962D02*
X172571908Y-101494092D01*
%TO.N,Net-(J1-Pad25)*%
X136880600Y-111785400D02*
X131064000Y-111785400D01*
%TO.N,Net-(J1-Pad26)*%
X173049723Y-79075361D02*
X166681243Y-72706881D01*
X160082881Y-72706881D02*
X158496000Y-71120000D01*
X158496000Y-71120000D02*
X158496000Y-68097400D01*
X164820600Y-111785400D02*
X173049723Y-103556277D01*
X158496000Y-68097400D02*
X157200600Y-66802000D01*
X173049723Y-103556277D02*
X173049723Y-79075361D01*
X166681243Y-72706881D02*
X160082881Y-72706881D01*
%TO.N,Net-(J1-Pad27)*%
X135678519Y-114325400D02*
X131546602Y-114325400D01*
X136880600Y-114325400D02*
X135678519Y-114325400D01*
%TO.N,Net-(J1-Pad28)*%
X160985200Y-68046600D02*
X159740600Y-66802000D01*
X160985200Y-71323200D02*
X160985200Y-68046600D01*
X166746773Y-72136000D02*
X161798000Y-72136000D01*
X173499734Y-78888961D02*
X166746773Y-72136000D01*
X161798000Y-72136000D02*
X160985200Y-71323200D01*
X173499734Y-105646266D02*
X173499734Y-78888961D01*
X164820600Y-114325400D02*
X173499734Y-105646266D01*
%TO.N,Net-(J1-Pad29)*%
X136880600Y-116865400D02*
X132171146Y-116865400D01*
X132171146Y-116865400D02*
X132120346Y-116916200D01*
%TO.N,Net-(J1-Pad30)*%
X163576000Y-68097400D02*
X162280600Y-66802000D01*
X163576000Y-71120000D02*
X163576000Y-68097400D01*
X166875184Y-71628000D02*
X164084000Y-71628000D01*
X173949745Y-78702561D02*
X166875184Y-71628000D01*
X173949745Y-107736255D02*
X173949745Y-78702561D01*
X164084000Y-71628000D02*
X163576000Y-71120000D01*
X164820600Y-116865400D02*
X173949745Y-107736255D01*
%TO.N,Net-(J1-Pad31)*%
X136880600Y-119405400D02*
X132740400Y-119405400D01*
X132740400Y-119405400D02*
X132562600Y-119583200D01*
%TO.N,Net-(J1-Pad32)*%
X174399756Y-109826244D02*
X164820600Y-119405400D01*
X174399756Y-78516161D02*
X174399756Y-109826244D01*
X166116000Y-70232405D02*
X174399756Y-78516161D01*
X164820600Y-66802000D02*
X166116000Y-68097400D01*
X166116000Y-68097400D02*
X166116000Y-70232405D01*
%TO.N,Net-(J1-Pad33)*%
X132791200Y-121945400D02*
X132689600Y-122047000D01*
X136880600Y-121945400D02*
X132791200Y-121945400D01*
%TO.N,Net-(J1-Pad34)*%
X168656000Y-68097400D02*
X167360600Y-66802000D01*
X168656000Y-72136000D02*
X168656000Y-68097400D01*
X174849767Y-78329767D02*
X168656000Y-72136000D01*
X174849767Y-111916233D02*
X174849767Y-78329767D01*
X164820600Y-121945400D02*
X174849767Y-111916233D01*
%TO.N,Net-(J1-Pad35)*%
X133197600Y-124485400D02*
X133172200Y-124510800D01*
X136880600Y-124485400D02*
X133197600Y-124485400D01*
%TO.N,Net-(J1-Pad36)*%
X171196000Y-68097400D02*
X169900600Y-66802000D01*
X171196000Y-73914000D02*
X171196000Y-68097400D01*
X175299778Y-78017778D02*
X171196000Y-73914000D01*
X175299778Y-114006222D02*
X175299778Y-78017778D01*
X164820600Y-124485400D02*
X175299778Y-114006222D01*
%TO.N,Net-(J1-Pad37)*%
X136880600Y-127025400D02*
X133883400Y-127025400D01*
X133883400Y-127025400D02*
X133807200Y-126949200D01*
%TO.N,Net-(J1-Pad38)*%
X173710600Y-75666600D02*
X173710600Y-68072000D01*
X175749789Y-77705789D02*
X173710600Y-75666600D01*
X164820600Y-127025400D02*
X175749789Y-116096211D01*
X173710600Y-68072000D02*
X172440600Y-66802000D01*
X175749789Y-116096211D02*
X175749789Y-77705789D01*
%TO.N,Net-(J1-Pad39)*%
X136880600Y-129565400D02*
X134797800Y-129565400D01*
X134797800Y-129565400D02*
X134620000Y-129387600D01*
%TO.N,Net-(J1-Pad40)*%
X176199800Y-68021200D02*
X174980600Y-66802000D01*
X176199800Y-118186200D02*
X176199800Y-68021200D01*
X164820600Y-129565400D02*
X176199800Y-118186200D01*
%TD*%
M02*
