%TF.GenerationSoftware,KiCad,Pcbnew,(5.1.9)-1*%
%TF.CreationDate,2021-12-07T00:28:53+09:00*%
%TF.ProjectId,pi-extend,70692d65-7874-4656-9e64-2e6b69636164,rev?*%
%TF.SameCoordinates,Original*%
%TF.FileFunction,Legend,Bot*%
%TF.FilePolarity,Positive*%
%FSLAX46Y46*%
G04 Gerber Fmt 4.6, Leading zero omitted, Abs format (unit mm)*
G04 Created by KiCad (PCBNEW (5.1.9)-1) date 2021-12-07 00:28:53*
%MOMM*%
%LPD*%
G01*
G04 APERTURE LIST*
%ADD10C,0.120000*%
G04 APERTURE END LIST*
D10*
%TO.C,J2*%
X138210600Y-130895400D02*
X135550600Y-130895400D01*
X138210600Y-82575400D02*
X138210600Y-130895400D01*
X135550600Y-82575400D02*
X135550600Y-130895400D01*
X138210600Y-82575400D02*
X135550600Y-82575400D01*
X138210600Y-81305400D02*
X138210600Y-79975400D01*
X138210600Y-79975400D02*
X136880600Y-79975400D01*
%TO.C,J3*%
X166150600Y-79975400D02*
X164820600Y-79975400D01*
X166150600Y-81305400D02*
X166150600Y-79975400D01*
X166150600Y-82575400D02*
X163490600Y-82575400D01*
X163490600Y-82575400D02*
X163490600Y-130895400D01*
X166150600Y-82575400D02*
X166150600Y-130895400D01*
X166150600Y-130895400D02*
X163490600Y-130895400D01*
%TO.C,J4*%
X130590600Y-128235400D02*
X130590600Y-130895400D01*
X127990600Y-128235400D02*
X130590600Y-128235400D01*
X127990600Y-130895400D02*
X130590600Y-130895400D01*
X127990600Y-128235400D02*
X127990600Y-130895400D01*
X126720600Y-128235400D02*
X125390600Y-128235400D01*
X125390600Y-128235400D02*
X125390600Y-129565400D01*
%TO.C,J5*%
X176310600Y-130895400D02*
X176310600Y-129565400D01*
X174980600Y-130895400D02*
X176310600Y-130895400D01*
X173710600Y-130895400D02*
X173710600Y-128235400D01*
X173710600Y-128235400D02*
X171110600Y-128235400D01*
X173710600Y-130895400D02*
X171110600Y-130895400D01*
X171110600Y-130895400D02*
X171110600Y-128235400D01*
%TD*%
M02*
