%TF.GenerationSoftware,KiCad,Pcbnew,(5.1.9)-1*%
%TF.CreationDate,2021-12-07T00:28:53+09:00*%
%TF.ProjectId,pi-extend,70692d65-7874-4656-9e64-2e6b69636164,rev?*%
%TF.SameCoordinates,Original*%
%TF.FileFunction,Legend,Top*%
%TF.FilePolarity,Positive*%
%FSLAX46Y46*%
G04 Gerber Fmt 4.6, Leading zero omitted, Abs format (unit mm)*
G04 Created by KiCad (PCBNEW (5.1.9)-1) date 2021-12-07 00:28:53*
%MOMM*%
%LPD*%
G01*
G04 APERTURE LIST*
%ADD10C,0.250000*%
%ADD11C,0.300000*%
%ADD12C,0.200000*%
%ADD13C,0.120000*%
G04 APERTURE END LIST*
D10*
X165409714Y-76144380D02*
X165076380Y-75668190D01*
X164838285Y-76144380D02*
X164838285Y-75144380D01*
X165219238Y-75144380D01*
X165314476Y-75192000D01*
X165362095Y-75239619D01*
X165409714Y-75334857D01*
X165409714Y-75477714D01*
X165362095Y-75572952D01*
X165314476Y-75620571D01*
X165219238Y-75668190D01*
X164838285Y-75668190D01*
X166219238Y-76096761D02*
X166124000Y-76144380D01*
X165933523Y-76144380D01*
X165838285Y-76096761D01*
X165790666Y-76001523D01*
X165790666Y-75620571D01*
X165838285Y-75525333D01*
X165933523Y-75477714D01*
X166124000Y-75477714D01*
X166219238Y-75525333D01*
X166266857Y-75620571D01*
X166266857Y-75715809D01*
X165790666Y-75811047D01*
X166600190Y-75477714D02*
X166838285Y-76144380D01*
X167076380Y-75477714D01*
X167457333Y-76049142D02*
X167504952Y-76096761D01*
X167457333Y-76144380D01*
X167409714Y-76096761D01*
X167457333Y-76049142D01*
X167457333Y-76144380D01*
X168457333Y-76144380D02*
X167885904Y-76144380D01*
X168171619Y-76144380D02*
X168171619Y-75144380D01*
X168076380Y-75287238D01*
X167981142Y-75382476D01*
X167885904Y-75430095D01*
D11*
X134554285Y-76116571D02*
X134054285Y-75402285D01*
X133697142Y-76116571D02*
X133697142Y-74616571D01*
X134268571Y-74616571D01*
X134411428Y-74688000D01*
X134482857Y-74759428D01*
X134554285Y-74902285D01*
X134554285Y-75116571D01*
X134482857Y-75259428D01*
X134411428Y-75330857D01*
X134268571Y-75402285D01*
X133697142Y-75402285D01*
X135840000Y-76116571D02*
X135840000Y-75330857D01*
X135768571Y-75188000D01*
X135625714Y-75116571D01*
X135340000Y-75116571D01*
X135197142Y-75188000D01*
X135840000Y-76045142D02*
X135697142Y-76116571D01*
X135340000Y-76116571D01*
X135197142Y-76045142D01*
X135125714Y-75902285D01*
X135125714Y-75759428D01*
X135197142Y-75616571D01*
X135340000Y-75545142D01*
X135697142Y-75545142D01*
X135840000Y-75473714D01*
X136482857Y-76045142D02*
X136625714Y-76116571D01*
X136911428Y-76116571D01*
X137054285Y-76045142D01*
X137125714Y-75902285D01*
X137125714Y-75830857D01*
X137054285Y-75688000D01*
X136911428Y-75616571D01*
X136697142Y-75616571D01*
X136554285Y-75545142D01*
X136482857Y-75402285D01*
X136482857Y-75330857D01*
X136554285Y-75188000D01*
X136697142Y-75116571D01*
X136911428Y-75116571D01*
X137054285Y-75188000D01*
X137768571Y-75116571D02*
X137768571Y-76616571D01*
X137768571Y-75188000D02*
X137911428Y-75116571D01*
X138197142Y-75116571D01*
X138340000Y-75188000D01*
X138411428Y-75259428D01*
X138482857Y-75402285D01*
X138482857Y-75830857D01*
X138411428Y-75973714D01*
X138340000Y-76045142D01*
X138197142Y-76116571D01*
X137911428Y-76116571D01*
X137768571Y-76045142D01*
X139125714Y-76116571D02*
X139125714Y-74616571D01*
X139125714Y-75188000D02*
X139268571Y-75116571D01*
X139554285Y-75116571D01*
X139697142Y-75188000D01*
X139768571Y-75259428D01*
X139840000Y-75402285D01*
X139840000Y-75830857D01*
X139768571Y-75973714D01*
X139697142Y-76045142D01*
X139554285Y-76116571D01*
X139268571Y-76116571D01*
X139125714Y-76045142D01*
X141054285Y-76045142D02*
X140911428Y-76116571D01*
X140625714Y-76116571D01*
X140482857Y-76045142D01*
X140411428Y-75902285D01*
X140411428Y-75330857D01*
X140482857Y-75188000D01*
X140625714Y-75116571D01*
X140911428Y-75116571D01*
X141054285Y-75188000D01*
X141125714Y-75330857D01*
X141125714Y-75473714D01*
X140411428Y-75616571D01*
X141768571Y-76116571D02*
X141768571Y-75116571D01*
X141768571Y-75402285D02*
X141840000Y-75259428D01*
X141911428Y-75188000D01*
X142054285Y-75116571D01*
X142197142Y-75116571D01*
X142697142Y-76116571D02*
X142697142Y-75116571D01*
X142697142Y-75402285D02*
X142768571Y-75259428D01*
X142840000Y-75188000D01*
X142982857Y-75116571D01*
X143125714Y-75116571D01*
X143482857Y-75116571D02*
X143840000Y-76116571D01*
X144197142Y-75116571D02*
X143840000Y-76116571D01*
X143697142Y-76473714D01*
X143625714Y-76545142D01*
X143482857Y-76616571D01*
X144768571Y-76116571D02*
X144768571Y-74616571D01*
X145340000Y-74616571D01*
X145482857Y-74688000D01*
X145554285Y-74759428D01*
X145625714Y-74902285D01*
X145625714Y-75116571D01*
X145554285Y-75259428D01*
X145482857Y-75330857D01*
X145340000Y-75402285D01*
X144768571Y-75402285D01*
X146268571Y-76116571D02*
X146268571Y-75116571D01*
X146268571Y-74616571D02*
X146197142Y-74688000D01*
X146268571Y-74759428D01*
X146340000Y-74688000D01*
X146268571Y-74616571D01*
X146268571Y-74759428D01*
X148911428Y-74688000D02*
X148768571Y-74616571D01*
X148554285Y-74616571D01*
X148340000Y-74688000D01*
X148197142Y-74830857D01*
X148125714Y-74973714D01*
X148054285Y-75259428D01*
X148054285Y-75473714D01*
X148125714Y-75759428D01*
X148197142Y-75902285D01*
X148340000Y-76045142D01*
X148554285Y-76116571D01*
X148697142Y-76116571D01*
X148911428Y-76045142D01*
X148982857Y-75973714D01*
X148982857Y-75473714D01*
X148697142Y-75473714D01*
X149625714Y-76116571D02*
X149625714Y-74616571D01*
X150197142Y-74616571D01*
X150340000Y-74688000D01*
X150411428Y-74759428D01*
X150482857Y-74902285D01*
X150482857Y-75116571D01*
X150411428Y-75259428D01*
X150340000Y-75330857D01*
X150197142Y-75402285D01*
X149625714Y-75402285D01*
X151125714Y-76116571D02*
X151125714Y-74616571D01*
X152125714Y-74616571D02*
X152411428Y-74616571D01*
X152554285Y-74688000D01*
X152697142Y-74830857D01*
X152768571Y-75116571D01*
X152768571Y-75616571D01*
X152697142Y-75902285D01*
X152554285Y-76045142D01*
X152411428Y-76116571D01*
X152125714Y-76116571D01*
X151982857Y-76045142D01*
X151840000Y-75902285D01*
X151768571Y-75616571D01*
X151768571Y-75116571D01*
X151840000Y-74830857D01*
X151982857Y-74688000D01*
X152125714Y-74616571D01*
X154554285Y-75330857D02*
X155054285Y-75330857D01*
X155268571Y-76116571D02*
X154554285Y-76116571D01*
X154554285Y-74616571D01*
X155268571Y-74616571D01*
X155768571Y-76116571D02*
X156554285Y-75116571D01*
X155768571Y-75116571D02*
X156554285Y-76116571D01*
X156911428Y-75116571D02*
X157482857Y-75116571D01*
X157125714Y-74616571D02*
X157125714Y-75902285D01*
X157197142Y-76045142D01*
X157340000Y-76116571D01*
X157482857Y-76116571D01*
X158554285Y-76045142D02*
X158411428Y-76116571D01*
X158125714Y-76116571D01*
X157982857Y-76045142D01*
X157911428Y-75902285D01*
X157911428Y-75330857D01*
X157982857Y-75188000D01*
X158125714Y-75116571D01*
X158411428Y-75116571D01*
X158554285Y-75188000D01*
X158625714Y-75330857D01*
X158625714Y-75473714D01*
X157911428Y-75616571D01*
X159268571Y-75116571D02*
X159268571Y-76116571D01*
X159268571Y-75259428D02*
X159340000Y-75188000D01*
X159482857Y-75116571D01*
X159697142Y-75116571D01*
X159840000Y-75188000D01*
X159911428Y-75330857D01*
X159911428Y-76116571D01*
X161268571Y-76116571D02*
X161268571Y-74616571D01*
X161268571Y-76045142D02*
X161125714Y-76116571D01*
X160840000Y-76116571D01*
X160697142Y-76045142D01*
X160625714Y-75973714D01*
X160554285Y-75830857D01*
X160554285Y-75402285D01*
X160625714Y-75259428D01*
X160697142Y-75188000D01*
X160840000Y-75116571D01*
X161125714Y-75116571D01*
X161268571Y-75188000D01*
X162554285Y-76045142D02*
X162411428Y-76116571D01*
X162125714Y-76116571D01*
X161982857Y-76045142D01*
X161911428Y-75902285D01*
X161911428Y-75330857D01*
X161982857Y-75188000D01*
X162125714Y-75116571D01*
X162411428Y-75116571D01*
X162554285Y-75188000D01*
X162625714Y-75330857D01*
X162625714Y-75473714D01*
X161911428Y-75616571D01*
X163268571Y-76116571D02*
X163268571Y-75116571D01*
X163268571Y-75402285D02*
X163340000Y-75259428D01*
X163411428Y-75188000D01*
X163554285Y-75116571D01*
X163697142Y-75116571D01*
D12*
X171843904Y-126854000D02*
X171767714Y-126815904D01*
X171653428Y-126815904D01*
X171539142Y-126854000D01*
X171462952Y-126930190D01*
X171424857Y-127006380D01*
X171386761Y-127158761D01*
X171386761Y-127273047D01*
X171424857Y-127425428D01*
X171462952Y-127501619D01*
X171539142Y-127577809D01*
X171653428Y-127615904D01*
X171729619Y-127615904D01*
X171843904Y-127577809D01*
X171882000Y-127539714D01*
X171882000Y-127273047D01*
X171729619Y-127273047D01*
X172224857Y-127615904D02*
X172224857Y-126815904D01*
X172682000Y-127615904D01*
X172682000Y-126815904D01*
X173062952Y-127615904D02*
X173062952Y-126815904D01*
X173253428Y-126815904D01*
X173367714Y-126854000D01*
X173443904Y-126930190D01*
X173482000Y-127006380D01*
X173520095Y-127158761D01*
X173520095Y-127273047D01*
X173482000Y-127425428D01*
X173443904Y-127501619D01*
X173367714Y-127577809D01*
X173253428Y-127615904D01*
X173062952Y-127615904D01*
X174853428Y-126815904D02*
X174472476Y-126815904D01*
X174434380Y-127196857D01*
X174472476Y-127158761D01*
X174548666Y-127120666D01*
X174739142Y-127120666D01*
X174815333Y-127158761D01*
X174853428Y-127196857D01*
X174891523Y-127273047D01*
X174891523Y-127463523D01*
X174853428Y-127539714D01*
X174815333Y-127577809D01*
X174739142Y-127615904D01*
X174548666Y-127615904D01*
X174472476Y-127577809D01*
X174434380Y-127539714D01*
X175120095Y-126815904D02*
X175386761Y-127615904D01*
X175653428Y-126815904D01*
X125501714Y-126815904D02*
X125996952Y-126815904D01*
X125730285Y-127120666D01*
X125844571Y-127120666D01*
X125920761Y-127158761D01*
X125958857Y-127196857D01*
X125996952Y-127273047D01*
X125996952Y-127463523D01*
X125958857Y-127539714D01*
X125920761Y-127577809D01*
X125844571Y-127615904D01*
X125616000Y-127615904D01*
X125539809Y-127577809D01*
X125501714Y-127539714D01*
X126225523Y-126815904D02*
X126492190Y-127615904D01*
X126758857Y-126815904D01*
X126949333Y-126815904D02*
X127444571Y-126815904D01*
X127177904Y-127120666D01*
X127292190Y-127120666D01*
X127368380Y-127158761D01*
X127406476Y-127196857D01*
X127444571Y-127273047D01*
X127444571Y-127463523D01*
X127406476Y-127539714D01*
X127368380Y-127577809D01*
X127292190Y-127615904D01*
X127063619Y-127615904D01*
X126987428Y-127577809D01*
X126949333Y-127539714D01*
X128816000Y-126854000D02*
X128739809Y-126815904D01*
X128625523Y-126815904D01*
X128511238Y-126854000D01*
X128435047Y-126930190D01*
X128396952Y-127006380D01*
X128358857Y-127158761D01*
X128358857Y-127273047D01*
X128396952Y-127425428D01*
X128435047Y-127501619D01*
X128511238Y-127577809D01*
X128625523Y-127615904D01*
X128701714Y-127615904D01*
X128816000Y-127577809D01*
X128854095Y-127539714D01*
X128854095Y-127273047D01*
X128701714Y-127273047D01*
X129196952Y-127615904D02*
X129196952Y-126815904D01*
X129654095Y-127615904D01*
X129654095Y-126815904D01*
X130035047Y-127615904D02*
X130035047Y-126815904D01*
X130225523Y-126815904D01*
X130339809Y-126854000D01*
X130416000Y-126930190D01*
X130454095Y-127006380D01*
X130492190Y-127158761D01*
X130492190Y-127273047D01*
X130454095Y-127425428D01*
X130416000Y-127501619D01*
X130339809Y-127577809D01*
X130225523Y-127615904D01*
X130035047Y-127615904D01*
D10*
X167500785Y-80648642D02*
X167024595Y-80648642D01*
X166976976Y-81377214D01*
X167024595Y-81304357D01*
X167119833Y-81231500D01*
X167357928Y-81231500D01*
X167453166Y-81304357D01*
X167500785Y-81377214D01*
X167548404Y-81522928D01*
X167548404Y-81887214D01*
X167500785Y-82032928D01*
X167453166Y-82105785D01*
X167357928Y-82178642D01*
X167119833Y-82178642D01*
X167024595Y-82105785D01*
X166976976Y-82032928D01*
X167834119Y-80648642D02*
X168167452Y-82178642D01*
X168500785Y-80648642D01*
X167500785Y-83193642D02*
X167024595Y-83193642D01*
X166976976Y-83922214D01*
X167024595Y-83849357D01*
X167119833Y-83776500D01*
X167357928Y-83776500D01*
X167453166Y-83849357D01*
X167500785Y-83922214D01*
X167548404Y-84067928D01*
X167548404Y-84432214D01*
X167500785Y-84577928D01*
X167453166Y-84650785D01*
X167357928Y-84723642D01*
X167119833Y-84723642D01*
X167024595Y-84650785D01*
X166976976Y-84577928D01*
X167834119Y-83193642D02*
X168167452Y-84723642D01*
X168500785Y-83193642D01*
X167548404Y-85811500D02*
X167453166Y-85738642D01*
X167310309Y-85738642D01*
X167167452Y-85811500D01*
X167072214Y-85957214D01*
X167024595Y-86102928D01*
X166976976Y-86394357D01*
X166976976Y-86612928D01*
X167024595Y-86904357D01*
X167072214Y-87050071D01*
X167167452Y-87195785D01*
X167310309Y-87268642D01*
X167405547Y-87268642D01*
X167548404Y-87195785D01*
X167596023Y-87122928D01*
X167596023Y-86612928D01*
X167405547Y-86612928D01*
X168024595Y-87268642D02*
X168024595Y-85738642D01*
X168596023Y-87268642D01*
X168596023Y-85738642D01*
X169072214Y-87268642D02*
X169072214Y-85738642D01*
X169310309Y-85738642D01*
X169453166Y-85811500D01*
X169548404Y-85957214D01*
X169596023Y-86102928D01*
X169643642Y-86394357D01*
X169643642Y-86612928D01*
X169596023Y-86904357D01*
X169548404Y-87050071D01*
X169453166Y-87195785D01*
X169310309Y-87268642D01*
X169072214Y-87268642D01*
X166881738Y-88283642D02*
X167453166Y-88283642D01*
X167167452Y-89813642D02*
X167167452Y-88283642D01*
X167691261Y-88283642D02*
X168357928Y-89813642D01*
X168357928Y-88283642D02*
X167691261Y-89813642D01*
X168738880Y-89813642D02*
X168738880Y-88283642D01*
X168976976Y-88283642D01*
X169119833Y-88356500D01*
X169215071Y-88502214D01*
X169262690Y-88647928D01*
X169310309Y-88939357D01*
X169310309Y-89157928D01*
X169262690Y-89449357D01*
X169215071Y-89595071D01*
X169119833Y-89740785D01*
X168976976Y-89813642D01*
X168738880Y-89813642D01*
X169929357Y-88283642D02*
X170024595Y-88283642D01*
X170119833Y-88356500D01*
X170167452Y-88429357D01*
X170215071Y-88575071D01*
X170262690Y-88866500D01*
X170262690Y-89230785D01*
X170215071Y-89522214D01*
X170167452Y-89667928D01*
X170119833Y-89740785D01*
X170024595Y-89813642D01*
X169929357Y-89813642D01*
X169834119Y-89740785D01*
X169786500Y-89667928D01*
X169738880Y-89522214D01*
X169691261Y-89230785D01*
X169691261Y-88866500D01*
X169738880Y-88575071D01*
X169786500Y-88429357D01*
X169834119Y-88356500D01*
X169929357Y-88283642D01*
X167596023Y-92358642D02*
X167262690Y-91630071D01*
X167024595Y-92358642D02*
X167024595Y-90828642D01*
X167405547Y-90828642D01*
X167500785Y-90901500D01*
X167548404Y-90974357D01*
X167596023Y-91120071D01*
X167596023Y-91338642D01*
X167548404Y-91484357D01*
X167500785Y-91557214D01*
X167405547Y-91630071D01*
X167024595Y-91630071D01*
X167929357Y-90828642D02*
X168596023Y-92358642D01*
X168596023Y-90828642D02*
X167929357Y-92358642D01*
X168976976Y-92358642D02*
X168976976Y-90828642D01*
X169215071Y-90828642D01*
X169357928Y-90901500D01*
X169453166Y-91047214D01*
X169500785Y-91192928D01*
X169548404Y-91484357D01*
X169548404Y-91702928D01*
X169500785Y-91994357D01*
X169453166Y-92140071D01*
X169357928Y-92285785D01*
X169215071Y-92358642D01*
X168976976Y-92358642D01*
X170167452Y-90828642D02*
X170262690Y-90828642D01*
X170357928Y-90901500D01*
X170405547Y-90974357D01*
X170453166Y-91120071D01*
X170500785Y-91411500D01*
X170500785Y-91775785D01*
X170453166Y-92067214D01*
X170405547Y-92212928D01*
X170357928Y-92285785D01*
X170262690Y-92358642D01*
X170167452Y-92358642D01*
X170072214Y-92285785D01*
X170024595Y-92212928D01*
X169976976Y-92067214D01*
X169929357Y-91775785D01*
X169929357Y-91411500D01*
X169976976Y-91120071D01*
X170024595Y-90974357D01*
X170072214Y-90901500D01*
X170167452Y-90828642D01*
X167548404Y-93446500D02*
X167453166Y-93373642D01*
X167310309Y-93373642D01*
X167167452Y-93446500D01*
X167072214Y-93592214D01*
X167024595Y-93737928D01*
X166976976Y-94029357D01*
X166976976Y-94247928D01*
X167024595Y-94539357D01*
X167072214Y-94685071D01*
X167167452Y-94830785D01*
X167310309Y-94903642D01*
X167405547Y-94903642D01*
X167548404Y-94830785D01*
X167596023Y-94757928D01*
X167596023Y-94247928D01*
X167405547Y-94247928D01*
X168024595Y-94903642D02*
X168024595Y-93373642D01*
X168405547Y-93373642D01*
X168500785Y-93446500D01*
X168548404Y-93519357D01*
X168596023Y-93665071D01*
X168596023Y-93883642D01*
X168548404Y-94029357D01*
X168500785Y-94102214D01*
X168405547Y-94175071D01*
X168024595Y-94175071D01*
X169548404Y-94903642D02*
X168976976Y-94903642D01*
X169262690Y-94903642D02*
X169262690Y-93373642D01*
X169167452Y-93592214D01*
X169072214Y-93737928D01*
X168976976Y-93810785D01*
X170119833Y-94029357D02*
X170024595Y-93956500D01*
X169976976Y-93883642D01*
X169929357Y-93737928D01*
X169929357Y-93665071D01*
X169976976Y-93519357D01*
X170024595Y-93446500D01*
X170119833Y-93373642D01*
X170310309Y-93373642D01*
X170405547Y-93446500D01*
X170453166Y-93519357D01*
X170500785Y-93665071D01*
X170500785Y-93737928D01*
X170453166Y-93883642D01*
X170405547Y-93956500D01*
X170310309Y-94029357D01*
X170119833Y-94029357D01*
X170024595Y-94102214D01*
X169976976Y-94175071D01*
X169929357Y-94320785D01*
X169929357Y-94612214D01*
X169976976Y-94757928D01*
X170024595Y-94830785D01*
X170119833Y-94903642D01*
X170310309Y-94903642D01*
X170405547Y-94830785D01*
X170453166Y-94757928D01*
X170500785Y-94612214D01*
X170500785Y-94320785D01*
X170453166Y-94175071D01*
X170405547Y-94102214D01*
X170310309Y-94029357D01*
X167548404Y-95991500D02*
X167453166Y-95918642D01*
X167310309Y-95918642D01*
X167167452Y-95991500D01*
X167072214Y-96137214D01*
X167024595Y-96282928D01*
X166976976Y-96574357D01*
X166976976Y-96792928D01*
X167024595Y-97084357D01*
X167072214Y-97230071D01*
X167167452Y-97375785D01*
X167310309Y-97448642D01*
X167405547Y-97448642D01*
X167548404Y-97375785D01*
X167596023Y-97302928D01*
X167596023Y-96792928D01*
X167405547Y-96792928D01*
X168024595Y-97448642D02*
X168024595Y-95918642D01*
X168596023Y-97448642D01*
X168596023Y-95918642D01*
X169072214Y-97448642D02*
X169072214Y-95918642D01*
X169310309Y-95918642D01*
X169453166Y-95991500D01*
X169548404Y-96137214D01*
X169596023Y-96282928D01*
X169643642Y-96574357D01*
X169643642Y-96792928D01*
X169596023Y-97084357D01*
X169548404Y-97230071D01*
X169453166Y-97375785D01*
X169310309Y-97448642D01*
X169072214Y-97448642D01*
X167548404Y-98536500D02*
X167453166Y-98463642D01*
X167310309Y-98463642D01*
X167167452Y-98536500D01*
X167072214Y-98682214D01*
X167024595Y-98827928D01*
X166976976Y-99119357D01*
X166976976Y-99337928D01*
X167024595Y-99629357D01*
X167072214Y-99775071D01*
X167167452Y-99920785D01*
X167310309Y-99993642D01*
X167405547Y-99993642D01*
X167548404Y-99920785D01*
X167596023Y-99847928D01*
X167596023Y-99337928D01*
X167405547Y-99337928D01*
X168024595Y-99993642D02*
X168024595Y-98463642D01*
X168405547Y-98463642D01*
X168500785Y-98536500D01*
X168548404Y-98609357D01*
X168596023Y-98755071D01*
X168596023Y-98973642D01*
X168548404Y-99119357D01*
X168500785Y-99192214D01*
X168405547Y-99265071D01*
X168024595Y-99265071D01*
X168976976Y-98609357D02*
X169024595Y-98536500D01*
X169119833Y-98463642D01*
X169357928Y-98463642D01*
X169453166Y-98536500D01*
X169500785Y-98609357D01*
X169548404Y-98755071D01*
X169548404Y-98900785D01*
X169500785Y-99119357D01*
X168929357Y-99993642D01*
X169548404Y-99993642D01*
X169881738Y-98463642D02*
X170500785Y-98463642D01*
X170167452Y-99046500D01*
X170310309Y-99046500D01*
X170405547Y-99119357D01*
X170453166Y-99192214D01*
X170500785Y-99337928D01*
X170500785Y-99702214D01*
X170453166Y-99847928D01*
X170405547Y-99920785D01*
X170310309Y-99993642D01*
X170024595Y-99993642D01*
X169929357Y-99920785D01*
X169881738Y-99847928D01*
X167548404Y-101081500D02*
X167453166Y-101008642D01*
X167310309Y-101008642D01*
X167167452Y-101081500D01*
X167072214Y-101227214D01*
X167024595Y-101372928D01*
X166976976Y-101664357D01*
X166976976Y-101882928D01*
X167024595Y-102174357D01*
X167072214Y-102320071D01*
X167167452Y-102465785D01*
X167310309Y-102538642D01*
X167405547Y-102538642D01*
X167548404Y-102465785D01*
X167596023Y-102392928D01*
X167596023Y-101882928D01*
X167405547Y-101882928D01*
X168024595Y-102538642D02*
X168024595Y-101008642D01*
X168405547Y-101008642D01*
X168500785Y-101081500D01*
X168548404Y-101154357D01*
X168596023Y-101300071D01*
X168596023Y-101518642D01*
X168548404Y-101664357D01*
X168500785Y-101737214D01*
X168405547Y-101810071D01*
X168024595Y-101810071D01*
X168976976Y-101154357D02*
X169024595Y-101081500D01*
X169119833Y-101008642D01*
X169357928Y-101008642D01*
X169453166Y-101081500D01*
X169500785Y-101154357D01*
X169548404Y-101300071D01*
X169548404Y-101445785D01*
X169500785Y-101664357D01*
X168929357Y-102538642D01*
X169548404Y-102538642D01*
X170405547Y-101518642D02*
X170405547Y-102538642D01*
X170167452Y-100935785D02*
X169929357Y-102028642D01*
X170548404Y-102028642D01*
X167548404Y-103626500D02*
X167453166Y-103553642D01*
X167310309Y-103553642D01*
X167167452Y-103626500D01*
X167072214Y-103772214D01*
X167024595Y-103917928D01*
X166976976Y-104209357D01*
X166976976Y-104427928D01*
X167024595Y-104719357D01*
X167072214Y-104865071D01*
X167167452Y-105010785D01*
X167310309Y-105083642D01*
X167405547Y-105083642D01*
X167548404Y-105010785D01*
X167596023Y-104937928D01*
X167596023Y-104427928D01*
X167405547Y-104427928D01*
X168024595Y-105083642D02*
X168024595Y-103553642D01*
X168596023Y-105083642D01*
X168596023Y-103553642D01*
X169072214Y-105083642D02*
X169072214Y-103553642D01*
X169310309Y-103553642D01*
X169453166Y-103626500D01*
X169548404Y-103772214D01*
X169596023Y-103917928D01*
X169643642Y-104209357D01*
X169643642Y-104427928D01*
X169596023Y-104719357D01*
X169548404Y-104865071D01*
X169453166Y-105010785D01*
X169310309Y-105083642D01*
X169072214Y-105083642D01*
X167548404Y-106171500D02*
X167453166Y-106098642D01*
X167310309Y-106098642D01*
X167167452Y-106171500D01*
X167072214Y-106317214D01*
X167024595Y-106462928D01*
X166976976Y-106754357D01*
X166976976Y-106972928D01*
X167024595Y-107264357D01*
X167072214Y-107410071D01*
X167167452Y-107555785D01*
X167310309Y-107628642D01*
X167405547Y-107628642D01*
X167548404Y-107555785D01*
X167596023Y-107482928D01*
X167596023Y-106972928D01*
X167405547Y-106972928D01*
X168024595Y-107628642D02*
X168024595Y-106098642D01*
X168405547Y-106098642D01*
X168500785Y-106171500D01*
X168548404Y-106244357D01*
X168596023Y-106390071D01*
X168596023Y-106608642D01*
X168548404Y-106754357D01*
X168500785Y-106827214D01*
X168405547Y-106900071D01*
X168024595Y-106900071D01*
X168976976Y-106244357D02*
X169024595Y-106171500D01*
X169119833Y-106098642D01*
X169357928Y-106098642D01*
X169453166Y-106171500D01*
X169500785Y-106244357D01*
X169548404Y-106390071D01*
X169548404Y-106535785D01*
X169500785Y-106754357D01*
X168929357Y-107628642D01*
X169548404Y-107628642D01*
X170453166Y-106098642D02*
X169976976Y-106098642D01*
X169929357Y-106827214D01*
X169976976Y-106754357D01*
X170072214Y-106681500D01*
X170310309Y-106681500D01*
X170405547Y-106754357D01*
X170453166Y-106827214D01*
X170500785Y-106972928D01*
X170500785Y-107337214D01*
X170453166Y-107482928D01*
X170405547Y-107555785D01*
X170310309Y-107628642D01*
X170072214Y-107628642D01*
X169976976Y-107555785D01*
X169929357Y-107482928D01*
X167596023Y-110027928D02*
X167548404Y-110100785D01*
X167405547Y-110173642D01*
X167310309Y-110173642D01*
X167167452Y-110100785D01*
X167072214Y-109955071D01*
X167024595Y-109809357D01*
X166976976Y-109517928D01*
X166976976Y-109299357D01*
X167024595Y-109007928D01*
X167072214Y-108862214D01*
X167167452Y-108716500D01*
X167310309Y-108643642D01*
X167405547Y-108643642D01*
X167548404Y-108716500D01*
X167596023Y-108789357D01*
X168024595Y-109372214D02*
X168357928Y-109372214D01*
X168500785Y-110173642D02*
X168024595Y-110173642D01*
X168024595Y-108643642D01*
X168500785Y-108643642D01*
X169119833Y-108643642D02*
X169215071Y-108643642D01*
X169310309Y-108716500D01*
X169357928Y-108789357D01*
X169405547Y-108935071D01*
X169453166Y-109226500D01*
X169453166Y-109590785D01*
X169405547Y-109882214D01*
X169357928Y-110027928D01*
X169310309Y-110100785D01*
X169215071Y-110173642D01*
X169119833Y-110173642D01*
X169024595Y-110100785D01*
X168976976Y-110027928D01*
X168929357Y-109882214D01*
X168881738Y-109590785D01*
X168881738Y-109226500D01*
X168929357Y-108935071D01*
X168976976Y-108789357D01*
X169024595Y-108716500D01*
X169119833Y-108643642D01*
X167596023Y-112572928D02*
X167548404Y-112645785D01*
X167405547Y-112718642D01*
X167310309Y-112718642D01*
X167167452Y-112645785D01*
X167072214Y-112500071D01*
X167024595Y-112354357D01*
X166976976Y-112062928D01*
X166976976Y-111844357D01*
X167024595Y-111552928D01*
X167072214Y-111407214D01*
X167167452Y-111261500D01*
X167310309Y-111188642D01*
X167405547Y-111188642D01*
X167548404Y-111261500D01*
X167596023Y-111334357D01*
X168024595Y-111917214D02*
X168357928Y-111917214D01*
X168500785Y-112718642D02*
X168024595Y-112718642D01*
X168024595Y-111188642D01*
X168500785Y-111188642D01*
X169453166Y-112718642D02*
X168881738Y-112718642D01*
X169167452Y-112718642D02*
X169167452Y-111188642D01*
X169072214Y-111407214D01*
X168976976Y-111552928D01*
X168881738Y-111625785D01*
X167024595Y-114462214D02*
X167357928Y-114462214D01*
X167500785Y-115263642D02*
X167024595Y-115263642D01*
X167024595Y-113733642D01*
X167500785Y-113733642D01*
X167929357Y-114462214D02*
X168262690Y-114462214D01*
X168405547Y-115263642D02*
X167929357Y-115263642D01*
X167929357Y-113733642D01*
X168405547Y-113733642D01*
X169405547Y-115117928D02*
X169357928Y-115190785D01*
X169215071Y-115263642D01*
X169119833Y-115263642D01*
X168976976Y-115190785D01*
X168881738Y-115045071D01*
X168834119Y-114899357D01*
X168786500Y-114607928D01*
X168786500Y-114389357D01*
X168834119Y-114097928D01*
X168881738Y-113952214D01*
X168976976Y-113806500D01*
X169119833Y-113733642D01*
X169215071Y-113733642D01*
X169357928Y-113806500D01*
X169405547Y-113879357D01*
X167548404Y-116351500D02*
X167453166Y-116278642D01*
X167310309Y-116278642D01*
X167167452Y-116351500D01*
X167072214Y-116497214D01*
X167024595Y-116642928D01*
X166976976Y-116934357D01*
X166976976Y-117152928D01*
X167024595Y-117444357D01*
X167072214Y-117590071D01*
X167167452Y-117735785D01*
X167310309Y-117808642D01*
X167405547Y-117808642D01*
X167548404Y-117735785D01*
X167596023Y-117662928D01*
X167596023Y-117152928D01*
X167405547Y-117152928D01*
X168024595Y-117808642D02*
X168024595Y-116278642D01*
X168596023Y-117808642D01*
X168596023Y-116278642D01*
X169072214Y-117808642D02*
X169072214Y-116278642D01*
X169310309Y-116278642D01*
X169453166Y-116351500D01*
X169548404Y-116497214D01*
X169596023Y-116642928D01*
X169643642Y-116934357D01*
X169643642Y-117152928D01*
X169596023Y-117444357D01*
X169548404Y-117590071D01*
X169453166Y-117735785D01*
X169310309Y-117808642D01*
X169072214Y-117808642D01*
X167548404Y-118896500D02*
X167453166Y-118823642D01*
X167310309Y-118823642D01*
X167167452Y-118896500D01*
X167072214Y-119042214D01*
X167024595Y-119187928D01*
X166976976Y-119479357D01*
X166976976Y-119697928D01*
X167024595Y-119989357D01*
X167072214Y-120135071D01*
X167167452Y-120280785D01*
X167310309Y-120353642D01*
X167405547Y-120353642D01*
X167548404Y-120280785D01*
X167596023Y-120207928D01*
X167596023Y-119697928D01*
X167405547Y-119697928D01*
X168024595Y-120353642D02*
X168024595Y-118823642D01*
X168405547Y-118823642D01*
X168500785Y-118896500D01*
X168548404Y-118969357D01*
X168596023Y-119115071D01*
X168596023Y-119333642D01*
X168548404Y-119479357D01*
X168500785Y-119552214D01*
X168405547Y-119625071D01*
X168024595Y-119625071D01*
X169548404Y-120353642D02*
X168976976Y-120353642D01*
X169262690Y-120353642D02*
X169262690Y-118823642D01*
X169167452Y-119042214D01*
X169072214Y-119187928D01*
X168976976Y-119260785D01*
X169929357Y-118969357D02*
X169976976Y-118896500D01*
X170072214Y-118823642D01*
X170310309Y-118823642D01*
X170405547Y-118896500D01*
X170453166Y-118969357D01*
X170500785Y-119115071D01*
X170500785Y-119260785D01*
X170453166Y-119479357D01*
X169881738Y-120353642D01*
X170500785Y-120353642D01*
X167548404Y-121441500D02*
X167453166Y-121368642D01*
X167310309Y-121368642D01*
X167167452Y-121441500D01*
X167072214Y-121587214D01*
X167024595Y-121732928D01*
X166976976Y-122024357D01*
X166976976Y-122242928D01*
X167024595Y-122534357D01*
X167072214Y-122680071D01*
X167167452Y-122825785D01*
X167310309Y-122898642D01*
X167405547Y-122898642D01*
X167548404Y-122825785D01*
X167596023Y-122752928D01*
X167596023Y-122242928D01*
X167405547Y-122242928D01*
X168024595Y-122898642D02*
X168024595Y-121368642D01*
X168596023Y-122898642D01*
X168596023Y-121368642D01*
X169072214Y-122898642D02*
X169072214Y-121368642D01*
X169310309Y-121368642D01*
X169453166Y-121441500D01*
X169548404Y-121587214D01*
X169596023Y-121732928D01*
X169643642Y-122024357D01*
X169643642Y-122242928D01*
X169596023Y-122534357D01*
X169548404Y-122680071D01*
X169453166Y-122825785D01*
X169310309Y-122898642D01*
X169072214Y-122898642D01*
X167548404Y-123986500D02*
X167453166Y-123913642D01*
X167310309Y-123913642D01*
X167167452Y-123986500D01*
X167072214Y-124132214D01*
X167024595Y-124277928D01*
X166976976Y-124569357D01*
X166976976Y-124787928D01*
X167024595Y-125079357D01*
X167072214Y-125225071D01*
X167167452Y-125370785D01*
X167310309Y-125443642D01*
X167405547Y-125443642D01*
X167548404Y-125370785D01*
X167596023Y-125297928D01*
X167596023Y-124787928D01*
X167405547Y-124787928D01*
X168024595Y-125443642D02*
X168024595Y-123913642D01*
X168405547Y-123913642D01*
X168500785Y-123986500D01*
X168548404Y-124059357D01*
X168596023Y-124205071D01*
X168596023Y-124423642D01*
X168548404Y-124569357D01*
X168500785Y-124642214D01*
X168405547Y-124715071D01*
X168024595Y-124715071D01*
X169548404Y-125443642D02*
X168976976Y-125443642D01*
X169262690Y-125443642D02*
X169262690Y-123913642D01*
X169167452Y-124132214D01*
X169072214Y-124277928D01*
X168976976Y-124350785D01*
X170405547Y-123913642D02*
X170215071Y-123913642D01*
X170119833Y-123986500D01*
X170072214Y-124059357D01*
X169976976Y-124277928D01*
X169929357Y-124569357D01*
X169929357Y-125152214D01*
X169976976Y-125297928D01*
X170024595Y-125370785D01*
X170119833Y-125443642D01*
X170310309Y-125443642D01*
X170405547Y-125370785D01*
X170453166Y-125297928D01*
X170500785Y-125152214D01*
X170500785Y-124787928D01*
X170453166Y-124642214D01*
X170405547Y-124569357D01*
X170310309Y-124496500D01*
X170119833Y-124496500D01*
X170024595Y-124569357D01*
X169976976Y-124642214D01*
X169929357Y-124787928D01*
X167548404Y-126531500D02*
X167453166Y-126458642D01*
X167310309Y-126458642D01*
X167167452Y-126531500D01*
X167072214Y-126677214D01*
X167024595Y-126822928D01*
X166976976Y-127114357D01*
X166976976Y-127332928D01*
X167024595Y-127624357D01*
X167072214Y-127770071D01*
X167167452Y-127915785D01*
X167310309Y-127988642D01*
X167405547Y-127988642D01*
X167548404Y-127915785D01*
X167596023Y-127842928D01*
X167596023Y-127332928D01*
X167405547Y-127332928D01*
X168024595Y-127988642D02*
X168024595Y-126458642D01*
X168405547Y-126458642D01*
X168500785Y-126531500D01*
X168548404Y-126604357D01*
X168596023Y-126750071D01*
X168596023Y-126968642D01*
X168548404Y-127114357D01*
X168500785Y-127187214D01*
X168405547Y-127260071D01*
X168024595Y-127260071D01*
X168976976Y-126604357D02*
X169024595Y-126531500D01*
X169119833Y-126458642D01*
X169357928Y-126458642D01*
X169453166Y-126531500D01*
X169500785Y-126604357D01*
X169548404Y-126750071D01*
X169548404Y-126895785D01*
X169500785Y-127114357D01*
X168929357Y-127988642D01*
X169548404Y-127988642D01*
X170167452Y-126458642D02*
X170262690Y-126458642D01*
X170357928Y-126531500D01*
X170405547Y-126604357D01*
X170453166Y-126750071D01*
X170500785Y-127041500D01*
X170500785Y-127405785D01*
X170453166Y-127697214D01*
X170405547Y-127842928D01*
X170357928Y-127915785D01*
X170262690Y-127988642D01*
X170167452Y-127988642D01*
X170072214Y-127915785D01*
X170024595Y-127842928D01*
X169976976Y-127697214D01*
X169929357Y-127405785D01*
X169929357Y-127041500D01*
X169976976Y-126750071D01*
X170024595Y-126604357D01*
X170072214Y-126531500D01*
X170167452Y-126458642D01*
X167548404Y-129076500D02*
X167453166Y-129003642D01*
X167310309Y-129003642D01*
X167167452Y-129076500D01*
X167072214Y-129222214D01*
X167024595Y-129367928D01*
X166976976Y-129659357D01*
X166976976Y-129877928D01*
X167024595Y-130169357D01*
X167072214Y-130315071D01*
X167167452Y-130460785D01*
X167310309Y-130533642D01*
X167405547Y-130533642D01*
X167548404Y-130460785D01*
X167596023Y-130387928D01*
X167596023Y-129877928D01*
X167405547Y-129877928D01*
X168024595Y-130533642D02*
X168024595Y-129003642D01*
X168405547Y-129003642D01*
X168500785Y-129076500D01*
X168548404Y-129149357D01*
X168596023Y-129295071D01*
X168596023Y-129513642D01*
X168548404Y-129659357D01*
X168500785Y-129732214D01*
X168405547Y-129805071D01*
X168024595Y-129805071D01*
X168976976Y-129149357D02*
X169024595Y-129076500D01*
X169119833Y-129003642D01*
X169357928Y-129003642D01*
X169453166Y-129076500D01*
X169500785Y-129149357D01*
X169548404Y-129295071D01*
X169548404Y-129440785D01*
X169500785Y-129659357D01*
X168929357Y-130533642D01*
X169548404Y-130533642D01*
X170500785Y-130533642D02*
X169929357Y-130533642D01*
X170215071Y-130533642D02*
X170215071Y-129003642D01*
X170119833Y-129222214D01*
X170024595Y-129367928D01*
X169929357Y-129440785D01*
X132346452Y-80394642D02*
X132965500Y-80394642D01*
X132632166Y-80977500D01*
X132775023Y-80977500D01*
X132870261Y-81050357D01*
X132917880Y-81123214D01*
X132965500Y-81268928D01*
X132965500Y-81633214D01*
X132917880Y-81778928D01*
X132870261Y-81851785D01*
X132775023Y-81924642D01*
X132489309Y-81924642D01*
X132394071Y-81851785D01*
X132346452Y-81778928D01*
X133251214Y-80394642D02*
X133584547Y-81924642D01*
X133917880Y-80394642D01*
X134155976Y-80394642D02*
X134775023Y-80394642D01*
X134441690Y-80977500D01*
X134584547Y-80977500D01*
X134679785Y-81050357D01*
X134727404Y-81123214D01*
X134775023Y-81268928D01*
X134775023Y-81633214D01*
X134727404Y-81778928D01*
X134679785Y-81851785D01*
X134584547Y-81924642D01*
X134298833Y-81924642D01*
X134203595Y-81851785D01*
X134155976Y-81778928D01*
X131394071Y-84396785D02*
X131536928Y-84469642D01*
X131775023Y-84469642D01*
X131870261Y-84396785D01*
X131917880Y-84323928D01*
X131965500Y-84178214D01*
X131965500Y-84032500D01*
X131917880Y-83886785D01*
X131870261Y-83813928D01*
X131775023Y-83741071D01*
X131584547Y-83668214D01*
X131489309Y-83595357D01*
X131441690Y-83522500D01*
X131394071Y-83376785D01*
X131394071Y-83231071D01*
X131441690Y-83085357D01*
X131489309Y-83012500D01*
X131584547Y-82939642D01*
X131822642Y-82939642D01*
X131965500Y-83012500D01*
X132394071Y-84469642D02*
X132394071Y-82939642D01*
X132632166Y-82939642D01*
X132775023Y-83012500D01*
X132870261Y-83158214D01*
X132917880Y-83303928D01*
X132965500Y-83595357D01*
X132965500Y-83813928D01*
X132917880Y-84105357D01*
X132870261Y-84251071D01*
X132775023Y-84396785D01*
X132632166Y-84469642D01*
X132394071Y-84469642D01*
X133346452Y-84032500D02*
X133822642Y-84032500D01*
X133251214Y-84469642D02*
X133584547Y-82939642D01*
X133917880Y-84469642D01*
X134775023Y-84469642D02*
X134203595Y-84469642D01*
X134489309Y-84469642D02*
X134489309Y-82939642D01*
X134394071Y-83158214D01*
X134298833Y-83303928D01*
X134203595Y-83376785D01*
X131441690Y-86941785D02*
X131584547Y-87014642D01*
X131822642Y-87014642D01*
X131917880Y-86941785D01*
X131965500Y-86868928D01*
X132013119Y-86723214D01*
X132013119Y-86577500D01*
X131965500Y-86431785D01*
X131917880Y-86358928D01*
X131822642Y-86286071D01*
X131632166Y-86213214D01*
X131536928Y-86140357D01*
X131489309Y-86067500D01*
X131441690Y-85921785D01*
X131441690Y-85776071D01*
X131489309Y-85630357D01*
X131536928Y-85557500D01*
X131632166Y-85484642D01*
X131870261Y-85484642D01*
X132013119Y-85557500D01*
X133013119Y-86868928D02*
X132965500Y-86941785D01*
X132822642Y-87014642D01*
X132727404Y-87014642D01*
X132584547Y-86941785D01*
X132489309Y-86796071D01*
X132441690Y-86650357D01*
X132394071Y-86358928D01*
X132394071Y-86140357D01*
X132441690Y-85848928D01*
X132489309Y-85703214D01*
X132584547Y-85557500D01*
X132727404Y-85484642D01*
X132822642Y-85484642D01*
X132965500Y-85557500D01*
X133013119Y-85630357D01*
X133917880Y-87014642D02*
X133441690Y-87014642D01*
X133441690Y-85484642D01*
X134775023Y-87014642D02*
X134203595Y-87014642D01*
X134489309Y-87014642D02*
X134489309Y-85484642D01*
X134394071Y-85703214D01*
X134298833Y-85848928D01*
X134203595Y-85921785D01*
X132775023Y-88102500D02*
X132679785Y-88029642D01*
X132536928Y-88029642D01*
X132394071Y-88102500D01*
X132298833Y-88248214D01*
X132251214Y-88393928D01*
X132203595Y-88685357D01*
X132203595Y-88903928D01*
X132251214Y-89195357D01*
X132298833Y-89341071D01*
X132394071Y-89486785D01*
X132536928Y-89559642D01*
X132632166Y-89559642D01*
X132775023Y-89486785D01*
X132822642Y-89413928D01*
X132822642Y-88903928D01*
X132632166Y-88903928D01*
X133251214Y-89559642D02*
X133251214Y-88029642D01*
X133632166Y-88029642D01*
X133727404Y-88102500D01*
X133775023Y-88175357D01*
X133822642Y-88321071D01*
X133822642Y-88539642D01*
X133775023Y-88685357D01*
X133727404Y-88758214D01*
X133632166Y-88831071D01*
X133251214Y-88831071D01*
X134679785Y-88539642D02*
X134679785Y-89559642D01*
X134441690Y-87956785D02*
X134203595Y-89049642D01*
X134822642Y-89049642D01*
X132679785Y-90647500D02*
X132584547Y-90574642D01*
X132441690Y-90574642D01*
X132298833Y-90647500D01*
X132203595Y-90793214D01*
X132155976Y-90938928D01*
X132108357Y-91230357D01*
X132108357Y-91448928D01*
X132155976Y-91740357D01*
X132203595Y-91886071D01*
X132298833Y-92031785D01*
X132441690Y-92104642D01*
X132536928Y-92104642D01*
X132679785Y-92031785D01*
X132727404Y-91958928D01*
X132727404Y-91448928D01*
X132536928Y-91448928D01*
X133155976Y-92104642D02*
X133155976Y-90574642D01*
X133727404Y-92104642D01*
X133727404Y-90574642D01*
X134203595Y-92104642D02*
X134203595Y-90574642D01*
X134441690Y-90574642D01*
X134584547Y-90647500D01*
X134679785Y-90793214D01*
X134727404Y-90938928D01*
X134775023Y-91230357D01*
X134775023Y-91448928D01*
X134727404Y-91740357D01*
X134679785Y-91886071D01*
X134584547Y-92031785D01*
X134441690Y-92104642D01*
X134203595Y-92104642D01*
X131822642Y-93192500D02*
X131727404Y-93119642D01*
X131584547Y-93119642D01*
X131441690Y-93192500D01*
X131346452Y-93338214D01*
X131298833Y-93483928D01*
X131251214Y-93775357D01*
X131251214Y-93993928D01*
X131298833Y-94285357D01*
X131346452Y-94431071D01*
X131441690Y-94576785D01*
X131584547Y-94649642D01*
X131679785Y-94649642D01*
X131822642Y-94576785D01*
X131870261Y-94503928D01*
X131870261Y-93993928D01*
X131679785Y-93993928D01*
X132298833Y-94649642D02*
X132298833Y-93119642D01*
X132679785Y-93119642D01*
X132775023Y-93192500D01*
X132822642Y-93265357D01*
X132870261Y-93411071D01*
X132870261Y-93629642D01*
X132822642Y-93775357D01*
X132775023Y-93848214D01*
X132679785Y-93921071D01*
X132298833Y-93921071D01*
X133822642Y-94649642D02*
X133251214Y-94649642D01*
X133536928Y-94649642D02*
X133536928Y-93119642D01*
X133441690Y-93338214D01*
X133346452Y-93483928D01*
X133251214Y-93556785D01*
X134155976Y-93119642D02*
X134822642Y-93119642D01*
X134394071Y-94649642D01*
X131822642Y-95737500D02*
X131727404Y-95664642D01*
X131584547Y-95664642D01*
X131441690Y-95737500D01*
X131346452Y-95883214D01*
X131298833Y-96028928D01*
X131251214Y-96320357D01*
X131251214Y-96538928D01*
X131298833Y-96830357D01*
X131346452Y-96976071D01*
X131441690Y-97121785D01*
X131584547Y-97194642D01*
X131679785Y-97194642D01*
X131822642Y-97121785D01*
X131870261Y-97048928D01*
X131870261Y-96538928D01*
X131679785Y-96538928D01*
X132298833Y-97194642D02*
X132298833Y-95664642D01*
X132679785Y-95664642D01*
X132775023Y-95737500D01*
X132822642Y-95810357D01*
X132870261Y-95956071D01*
X132870261Y-96174642D01*
X132822642Y-96320357D01*
X132775023Y-96393214D01*
X132679785Y-96466071D01*
X132298833Y-96466071D01*
X133251214Y-95810357D02*
X133298833Y-95737500D01*
X133394071Y-95664642D01*
X133632166Y-95664642D01*
X133727404Y-95737500D01*
X133775023Y-95810357D01*
X133822642Y-95956071D01*
X133822642Y-96101785D01*
X133775023Y-96320357D01*
X133203595Y-97194642D01*
X133822642Y-97194642D01*
X134155976Y-95664642D02*
X134822642Y-95664642D01*
X134394071Y-97194642D01*
X131822642Y-98282500D02*
X131727404Y-98209642D01*
X131584547Y-98209642D01*
X131441690Y-98282500D01*
X131346452Y-98428214D01*
X131298833Y-98573928D01*
X131251214Y-98865357D01*
X131251214Y-99083928D01*
X131298833Y-99375357D01*
X131346452Y-99521071D01*
X131441690Y-99666785D01*
X131584547Y-99739642D01*
X131679785Y-99739642D01*
X131822642Y-99666785D01*
X131870261Y-99593928D01*
X131870261Y-99083928D01*
X131679785Y-99083928D01*
X132298833Y-99739642D02*
X132298833Y-98209642D01*
X132679785Y-98209642D01*
X132775023Y-98282500D01*
X132822642Y-98355357D01*
X132870261Y-98501071D01*
X132870261Y-98719642D01*
X132822642Y-98865357D01*
X132775023Y-98938214D01*
X132679785Y-99011071D01*
X132298833Y-99011071D01*
X133251214Y-98355357D02*
X133298833Y-98282500D01*
X133394071Y-98209642D01*
X133632166Y-98209642D01*
X133727404Y-98282500D01*
X133775023Y-98355357D01*
X133822642Y-98501071D01*
X133822642Y-98646785D01*
X133775023Y-98865357D01*
X133203595Y-99739642D01*
X133822642Y-99739642D01*
X134203595Y-98355357D02*
X134251214Y-98282500D01*
X134346452Y-98209642D01*
X134584547Y-98209642D01*
X134679785Y-98282500D01*
X134727404Y-98355357D01*
X134775023Y-98501071D01*
X134775023Y-98646785D01*
X134727404Y-98865357D01*
X134155976Y-99739642D01*
X134775023Y-99739642D01*
X132346452Y-100754642D02*
X132965500Y-100754642D01*
X132632166Y-101337500D01*
X132775023Y-101337500D01*
X132870261Y-101410357D01*
X132917880Y-101483214D01*
X132965500Y-101628928D01*
X132965500Y-101993214D01*
X132917880Y-102138928D01*
X132870261Y-102211785D01*
X132775023Y-102284642D01*
X132489309Y-102284642D01*
X132394071Y-102211785D01*
X132346452Y-102138928D01*
X133251214Y-100754642D02*
X133584547Y-102284642D01*
X133917880Y-100754642D01*
X134155976Y-100754642D02*
X134775023Y-100754642D01*
X134441690Y-101337500D01*
X134584547Y-101337500D01*
X134679785Y-101410357D01*
X134727404Y-101483214D01*
X134775023Y-101628928D01*
X134775023Y-101993214D01*
X134727404Y-102138928D01*
X134679785Y-102211785D01*
X134584547Y-102284642D01*
X134298833Y-102284642D01*
X134203595Y-102211785D01*
X134155976Y-102138928D01*
X131584547Y-104829642D02*
X131584547Y-103299642D01*
X131917880Y-104392500D01*
X132251214Y-103299642D01*
X132251214Y-104829642D01*
X132917880Y-103299642D02*
X133108357Y-103299642D01*
X133203595Y-103372500D01*
X133298833Y-103518214D01*
X133346452Y-103809642D01*
X133346452Y-104319642D01*
X133298833Y-104611071D01*
X133203595Y-104756785D01*
X133108357Y-104829642D01*
X132917880Y-104829642D01*
X132822642Y-104756785D01*
X132727404Y-104611071D01*
X132679785Y-104319642D01*
X132679785Y-103809642D01*
X132727404Y-103518214D01*
X132822642Y-103372500D01*
X132917880Y-103299642D01*
X133727404Y-104756785D02*
X133870261Y-104829642D01*
X134108357Y-104829642D01*
X134203595Y-104756785D01*
X134251214Y-104683928D01*
X134298833Y-104538214D01*
X134298833Y-104392500D01*
X134251214Y-104246785D01*
X134203595Y-104173928D01*
X134108357Y-104101071D01*
X133917880Y-104028214D01*
X133822642Y-103955357D01*
X133775023Y-103882500D01*
X133727404Y-103736785D01*
X133727404Y-103591071D01*
X133775023Y-103445357D01*
X133822642Y-103372500D01*
X133917880Y-103299642D01*
X134155976Y-103299642D01*
X134298833Y-103372500D01*
X134727404Y-104829642D02*
X134727404Y-103299642D01*
X131584547Y-107374642D02*
X131584547Y-105844642D01*
X131917880Y-106937500D01*
X132251214Y-105844642D01*
X132251214Y-107374642D01*
X132727404Y-107374642D02*
X132727404Y-105844642D01*
X133155976Y-107301785D02*
X133298833Y-107374642D01*
X133536928Y-107374642D01*
X133632166Y-107301785D01*
X133679785Y-107228928D01*
X133727404Y-107083214D01*
X133727404Y-106937500D01*
X133679785Y-106791785D01*
X133632166Y-106718928D01*
X133536928Y-106646071D01*
X133346452Y-106573214D01*
X133251214Y-106500357D01*
X133203595Y-106427500D01*
X133155976Y-106281785D01*
X133155976Y-106136071D01*
X133203595Y-105990357D01*
X133251214Y-105917500D01*
X133346452Y-105844642D01*
X133584547Y-105844642D01*
X133727404Y-105917500D01*
X134346452Y-105844642D02*
X134536928Y-105844642D01*
X134632166Y-105917500D01*
X134727404Y-106063214D01*
X134775023Y-106354642D01*
X134775023Y-106864642D01*
X134727404Y-107156071D01*
X134632166Y-107301785D01*
X134536928Y-107374642D01*
X134346452Y-107374642D01*
X134251214Y-107301785D01*
X134155976Y-107156071D01*
X134108357Y-106864642D01*
X134108357Y-106354642D01*
X134155976Y-106063214D01*
X134251214Y-105917500D01*
X134346452Y-105844642D01*
X131394071Y-109846785D02*
X131536928Y-109919642D01*
X131775023Y-109919642D01*
X131870261Y-109846785D01*
X131917880Y-109773928D01*
X131965500Y-109628214D01*
X131965500Y-109482500D01*
X131917880Y-109336785D01*
X131870261Y-109263928D01*
X131775023Y-109191071D01*
X131584547Y-109118214D01*
X131489309Y-109045357D01*
X131441690Y-108972500D01*
X131394071Y-108826785D01*
X131394071Y-108681071D01*
X131441690Y-108535357D01*
X131489309Y-108462500D01*
X131584547Y-108389642D01*
X131822642Y-108389642D01*
X131965500Y-108462500D01*
X132965500Y-109773928D02*
X132917880Y-109846785D01*
X132775023Y-109919642D01*
X132679785Y-109919642D01*
X132536928Y-109846785D01*
X132441690Y-109701071D01*
X132394071Y-109555357D01*
X132346452Y-109263928D01*
X132346452Y-109045357D01*
X132394071Y-108753928D01*
X132441690Y-108608214D01*
X132536928Y-108462500D01*
X132679785Y-108389642D01*
X132775023Y-108389642D01*
X132917880Y-108462500D01*
X132965500Y-108535357D01*
X133870261Y-109919642D02*
X133394071Y-109919642D01*
X133394071Y-108389642D01*
X134203595Y-109919642D02*
X134203595Y-108389642D01*
X134775023Y-109919642D02*
X134346452Y-109045357D01*
X134775023Y-108389642D02*
X134203595Y-109263928D01*
X132679785Y-111007500D02*
X132584547Y-110934642D01*
X132441690Y-110934642D01*
X132298833Y-111007500D01*
X132203595Y-111153214D01*
X132155976Y-111298928D01*
X132108357Y-111590357D01*
X132108357Y-111808928D01*
X132155976Y-112100357D01*
X132203595Y-112246071D01*
X132298833Y-112391785D01*
X132441690Y-112464642D01*
X132536928Y-112464642D01*
X132679785Y-112391785D01*
X132727404Y-112318928D01*
X132727404Y-111808928D01*
X132536928Y-111808928D01*
X133155976Y-112464642D02*
X133155976Y-110934642D01*
X133727404Y-112464642D01*
X133727404Y-110934642D01*
X134203595Y-112464642D02*
X134203595Y-110934642D01*
X134441690Y-110934642D01*
X134584547Y-111007500D01*
X134679785Y-111153214D01*
X134727404Y-111298928D01*
X134775023Y-111590357D01*
X134775023Y-111808928D01*
X134727404Y-112100357D01*
X134679785Y-112246071D01*
X134584547Y-112391785D01*
X134441690Y-112464642D01*
X134203595Y-112464642D01*
X132394071Y-114208214D02*
X132727404Y-114208214D01*
X132870261Y-115009642D02*
X132394071Y-115009642D01*
X132394071Y-113479642D01*
X132870261Y-113479642D01*
X133298833Y-114208214D02*
X133632166Y-114208214D01*
X133775023Y-115009642D02*
X133298833Y-115009642D01*
X133298833Y-113479642D01*
X133775023Y-113479642D01*
X134203595Y-115009642D02*
X134203595Y-113479642D01*
X134441690Y-113479642D01*
X134584547Y-113552500D01*
X134679785Y-113698214D01*
X134727404Y-113843928D01*
X134775023Y-114135357D01*
X134775023Y-114353928D01*
X134727404Y-114645357D01*
X134679785Y-114791071D01*
X134584547Y-114936785D01*
X134441690Y-115009642D01*
X134203595Y-115009642D01*
X132775023Y-116097500D02*
X132679785Y-116024642D01*
X132536928Y-116024642D01*
X132394071Y-116097500D01*
X132298833Y-116243214D01*
X132251214Y-116388928D01*
X132203595Y-116680357D01*
X132203595Y-116898928D01*
X132251214Y-117190357D01*
X132298833Y-117336071D01*
X132394071Y-117481785D01*
X132536928Y-117554642D01*
X132632166Y-117554642D01*
X132775023Y-117481785D01*
X132822642Y-117408928D01*
X132822642Y-116898928D01*
X132632166Y-116898928D01*
X133251214Y-117554642D02*
X133251214Y-116024642D01*
X133632166Y-116024642D01*
X133727404Y-116097500D01*
X133775023Y-116170357D01*
X133822642Y-116316071D01*
X133822642Y-116534642D01*
X133775023Y-116680357D01*
X133727404Y-116753214D01*
X133632166Y-116826071D01*
X133251214Y-116826071D01*
X134727404Y-116024642D02*
X134251214Y-116024642D01*
X134203595Y-116753214D01*
X134251214Y-116680357D01*
X134346452Y-116607500D01*
X134584547Y-116607500D01*
X134679785Y-116680357D01*
X134727404Y-116753214D01*
X134775023Y-116898928D01*
X134775023Y-117263214D01*
X134727404Y-117408928D01*
X134679785Y-117481785D01*
X134584547Y-117554642D01*
X134346452Y-117554642D01*
X134251214Y-117481785D01*
X134203595Y-117408928D01*
X132775023Y-118642500D02*
X132679785Y-118569642D01*
X132536928Y-118569642D01*
X132394071Y-118642500D01*
X132298833Y-118788214D01*
X132251214Y-118933928D01*
X132203595Y-119225357D01*
X132203595Y-119443928D01*
X132251214Y-119735357D01*
X132298833Y-119881071D01*
X132394071Y-120026785D01*
X132536928Y-120099642D01*
X132632166Y-120099642D01*
X132775023Y-120026785D01*
X132822642Y-119953928D01*
X132822642Y-119443928D01*
X132632166Y-119443928D01*
X133251214Y-120099642D02*
X133251214Y-118569642D01*
X133632166Y-118569642D01*
X133727404Y-118642500D01*
X133775023Y-118715357D01*
X133822642Y-118861071D01*
X133822642Y-119079642D01*
X133775023Y-119225357D01*
X133727404Y-119298214D01*
X133632166Y-119371071D01*
X133251214Y-119371071D01*
X134679785Y-118569642D02*
X134489309Y-118569642D01*
X134394071Y-118642500D01*
X134346452Y-118715357D01*
X134251214Y-118933928D01*
X134203595Y-119225357D01*
X134203595Y-119808214D01*
X134251214Y-119953928D01*
X134298833Y-120026785D01*
X134394071Y-120099642D01*
X134584547Y-120099642D01*
X134679785Y-120026785D01*
X134727404Y-119953928D01*
X134775023Y-119808214D01*
X134775023Y-119443928D01*
X134727404Y-119298214D01*
X134679785Y-119225357D01*
X134584547Y-119152500D01*
X134394071Y-119152500D01*
X134298833Y-119225357D01*
X134251214Y-119298214D01*
X134203595Y-119443928D01*
X131822642Y-121187500D02*
X131727404Y-121114642D01*
X131584547Y-121114642D01*
X131441690Y-121187500D01*
X131346452Y-121333214D01*
X131298833Y-121478928D01*
X131251214Y-121770357D01*
X131251214Y-121988928D01*
X131298833Y-122280357D01*
X131346452Y-122426071D01*
X131441690Y-122571785D01*
X131584547Y-122644642D01*
X131679785Y-122644642D01*
X131822642Y-122571785D01*
X131870261Y-122498928D01*
X131870261Y-121988928D01*
X131679785Y-121988928D01*
X132298833Y-122644642D02*
X132298833Y-121114642D01*
X132679785Y-121114642D01*
X132775023Y-121187500D01*
X132822642Y-121260357D01*
X132870261Y-121406071D01*
X132870261Y-121624642D01*
X132822642Y-121770357D01*
X132775023Y-121843214D01*
X132679785Y-121916071D01*
X132298833Y-121916071D01*
X133822642Y-122644642D02*
X133251214Y-122644642D01*
X133536928Y-122644642D02*
X133536928Y-121114642D01*
X133441690Y-121333214D01*
X133346452Y-121478928D01*
X133251214Y-121551785D01*
X134155976Y-121114642D02*
X134775023Y-121114642D01*
X134441690Y-121697500D01*
X134584547Y-121697500D01*
X134679785Y-121770357D01*
X134727404Y-121843214D01*
X134775023Y-121988928D01*
X134775023Y-122353214D01*
X134727404Y-122498928D01*
X134679785Y-122571785D01*
X134584547Y-122644642D01*
X134298833Y-122644642D01*
X134203595Y-122571785D01*
X134155976Y-122498928D01*
X131822642Y-123732500D02*
X131727404Y-123659642D01*
X131584547Y-123659642D01*
X131441690Y-123732500D01*
X131346452Y-123878214D01*
X131298833Y-124023928D01*
X131251214Y-124315357D01*
X131251214Y-124533928D01*
X131298833Y-124825357D01*
X131346452Y-124971071D01*
X131441690Y-125116785D01*
X131584547Y-125189642D01*
X131679785Y-125189642D01*
X131822642Y-125116785D01*
X131870261Y-125043928D01*
X131870261Y-124533928D01*
X131679785Y-124533928D01*
X132298833Y-125189642D02*
X132298833Y-123659642D01*
X132679785Y-123659642D01*
X132775023Y-123732500D01*
X132822642Y-123805357D01*
X132870261Y-123951071D01*
X132870261Y-124169642D01*
X132822642Y-124315357D01*
X132775023Y-124388214D01*
X132679785Y-124461071D01*
X132298833Y-124461071D01*
X133822642Y-125189642D02*
X133251214Y-125189642D01*
X133536928Y-125189642D02*
X133536928Y-123659642D01*
X133441690Y-123878214D01*
X133346452Y-124023928D01*
X133251214Y-124096785D01*
X134298833Y-125189642D02*
X134489309Y-125189642D01*
X134584547Y-125116785D01*
X134632166Y-125043928D01*
X134727404Y-124825357D01*
X134775023Y-124533928D01*
X134775023Y-123951071D01*
X134727404Y-123805357D01*
X134679785Y-123732500D01*
X134584547Y-123659642D01*
X134394071Y-123659642D01*
X134298833Y-123732500D01*
X134251214Y-123805357D01*
X134203595Y-123951071D01*
X134203595Y-124315357D01*
X134251214Y-124461071D01*
X134298833Y-124533928D01*
X134394071Y-124606785D01*
X134584547Y-124606785D01*
X134679785Y-124533928D01*
X134727404Y-124461071D01*
X134775023Y-124315357D01*
X131822642Y-126277500D02*
X131727404Y-126204642D01*
X131584547Y-126204642D01*
X131441690Y-126277500D01*
X131346452Y-126423214D01*
X131298833Y-126568928D01*
X131251214Y-126860357D01*
X131251214Y-127078928D01*
X131298833Y-127370357D01*
X131346452Y-127516071D01*
X131441690Y-127661785D01*
X131584547Y-127734642D01*
X131679785Y-127734642D01*
X131822642Y-127661785D01*
X131870261Y-127588928D01*
X131870261Y-127078928D01*
X131679785Y-127078928D01*
X132298833Y-127734642D02*
X132298833Y-126204642D01*
X132679785Y-126204642D01*
X132775023Y-126277500D01*
X132822642Y-126350357D01*
X132870261Y-126496071D01*
X132870261Y-126714642D01*
X132822642Y-126860357D01*
X132775023Y-126933214D01*
X132679785Y-127006071D01*
X132298833Y-127006071D01*
X133251214Y-126350357D02*
X133298833Y-126277500D01*
X133394071Y-126204642D01*
X133632166Y-126204642D01*
X133727404Y-126277500D01*
X133775023Y-126350357D01*
X133822642Y-126496071D01*
X133822642Y-126641785D01*
X133775023Y-126860357D01*
X133203595Y-127734642D01*
X133822642Y-127734642D01*
X134679785Y-126204642D02*
X134489309Y-126204642D01*
X134394071Y-126277500D01*
X134346452Y-126350357D01*
X134251214Y-126568928D01*
X134203595Y-126860357D01*
X134203595Y-127443214D01*
X134251214Y-127588928D01*
X134298833Y-127661785D01*
X134394071Y-127734642D01*
X134584547Y-127734642D01*
X134679785Y-127661785D01*
X134727404Y-127588928D01*
X134775023Y-127443214D01*
X134775023Y-127078928D01*
X134727404Y-126933214D01*
X134679785Y-126860357D01*
X134584547Y-126787500D01*
X134394071Y-126787500D01*
X134298833Y-126860357D01*
X134251214Y-126933214D01*
X134203595Y-127078928D01*
X132679785Y-128822500D02*
X132584547Y-128749642D01*
X132441690Y-128749642D01*
X132298833Y-128822500D01*
X132203595Y-128968214D01*
X132155976Y-129113928D01*
X132108357Y-129405357D01*
X132108357Y-129623928D01*
X132155976Y-129915357D01*
X132203595Y-130061071D01*
X132298833Y-130206785D01*
X132441690Y-130279642D01*
X132536928Y-130279642D01*
X132679785Y-130206785D01*
X132727404Y-130133928D01*
X132727404Y-129623928D01*
X132536928Y-129623928D01*
X133155976Y-130279642D02*
X133155976Y-128749642D01*
X133727404Y-130279642D01*
X133727404Y-128749642D01*
X134203595Y-130279642D02*
X134203595Y-128749642D01*
X134441690Y-128749642D01*
X134584547Y-128822500D01*
X134679785Y-128968214D01*
X134727404Y-129113928D01*
X134775023Y-129405357D01*
X134775023Y-129623928D01*
X134727404Y-129915357D01*
X134679785Y-130061071D01*
X134584547Y-130206785D01*
X134441690Y-130279642D01*
X134203595Y-130279642D01*
D13*
%TO.C,J1*%
X176310600Y-70672000D02*
X176310600Y-65472000D01*
X127990600Y-70672000D02*
X176310600Y-70672000D01*
X125390600Y-65472000D02*
X176310600Y-65472000D01*
X127990600Y-70672000D02*
X127990600Y-68072000D01*
X127990600Y-68072000D02*
X125390600Y-68072000D01*
X125390600Y-68072000D02*
X125390600Y-65472000D01*
X126720600Y-70672000D02*
X125390600Y-70672000D01*
X125390600Y-70672000D02*
X125390600Y-69342000D01*
%TD*%
M02*
