%TF.GenerationSoftware,KiCad,Pcbnew,(5.1.9)-1*%
%TF.CreationDate,2021-12-10T02:02:44+09:00*%
%TF.ProjectId,pi-extend,70692d65-7874-4656-9e64-2e6b69636164,rev?*%
%TF.SameCoordinates,Original*%
%TF.FileFunction,Soldermask,Bot*%
%TF.FilePolarity,Negative*%
%FSLAX46Y46*%
G04 Gerber Fmt 4.6, Leading zero omitted, Abs format (unit mm)*
G04 Created by KiCad (PCBNEW (5.1.9)-1) date 2021-12-10 02:02:44*
%MOMM*%
%LPD*%
G01*
G04 APERTURE LIST*
%ADD10R,1.700000X1.700000*%
%ADD11O,1.700000X1.700000*%
G04 APERTURE END LIST*
D10*
%TO.C,J1*%
X138658600Y-67564000D03*
D11*
X138658600Y-65024000D03*
X141198600Y-67564000D03*
X141198600Y-65024000D03*
X143738600Y-67564000D03*
X143738600Y-65024000D03*
X146278600Y-67564000D03*
X146278600Y-65024000D03*
X148818600Y-67564000D03*
X148818600Y-65024000D03*
X151358600Y-67564000D03*
X151358600Y-65024000D03*
X153898600Y-67564000D03*
X153898600Y-65024000D03*
X156438600Y-67564000D03*
X156438600Y-65024000D03*
X158978600Y-67564000D03*
X158978600Y-65024000D03*
X161518600Y-67564000D03*
X161518600Y-65024000D03*
X164058600Y-67564000D03*
X164058600Y-65024000D03*
X166598600Y-67564000D03*
X166598600Y-65024000D03*
X169138600Y-67564000D03*
X169138600Y-65024000D03*
X171678600Y-67564000D03*
X171678600Y-65024000D03*
X174218600Y-67564000D03*
X174218600Y-65024000D03*
X176758600Y-67564000D03*
X176758600Y-65024000D03*
X179298600Y-67564000D03*
X179298600Y-65024000D03*
X181838600Y-67564000D03*
X181838600Y-65024000D03*
X184378600Y-67564000D03*
X184378600Y-65024000D03*
X186918600Y-67564000D03*
X186918600Y-65024000D03*
%TD*%
D10*
%TO.C,J2*%
X148818600Y-78765400D03*
D11*
X148818600Y-81305400D03*
X148818600Y-83845400D03*
X148818600Y-86385400D03*
X148818600Y-88925400D03*
X148818600Y-91465400D03*
X148818600Y-94005400D03*
X148818600Y-96545400D03*
X148818600Y-99085400D03*
X148818600Y-101625400D03*
X148818600Y-104165400D03*
X148818600Y-106705400D03*
X148818600Y-109245400D03*
X148818600Y-111785400D03*
X148818600Y-114325400D03*
X148818600Y-116865400D03*
X148818600Y-119405400D03*
X148818600Y-121945400D03*
X148818600Y-124485400D03*
X148818600Y-127025400D03*
%TD*%
%TO.C,J3*%
X176758600Y-127025400D03*
X176758600Y-124485400D03*
X176758600Y-121945400D03*
X176758600Y-119405400D03*
X176758600Y-116865400D03*
X176758600Y-114325400D03*
X176758600Y-111785400D03*
X176758600Y-109245400D03*
X176758600Y-106705400D03*
X176758600Y-104165400D03*
X176758600Y-101625400D03*
X176758600Y-99085400D03*
X176758600Y-96545400D03*
X176758600Y-94005400D03*
X176758600Y-91465400D03*
X176758600Y-88925400D03*
X176758600Y-86385400D03*
X176758600Y-83845400D03*
X176758600Y-81305400D03*
D10*
X176758600Y-78765400D03*
%TD*%
%TO.C,J4*%
X138658600Y-111785400D03*
D11*
X141198600Y-111785400D03*
%TD*%
%TO.C,J5*%
X184378600Y-111785400D03*
D10*
X186918600Y-111785400D03*
%TD*%
M02*
