%TF.GenerationSoftware,KiCad,Pcbnew,(5.1.9)-1*%
%TF.CreationDate,2021-12-10T02:02:44+09:00*%
%TF.ProjectId,pi-extend,70692d65-7874-4656-9e64-2e6b69636164,rev?*%
%TF.SameCoordinates,Original*%
%TF.FileFunction,Copper,L1,Top*%
%TF.FilePolarity,Positive*%
%FSLAX46Y46*%
G04 Gerber Fmt 4.6, Leading zero omitted, Abs format (unit mm)*
G04 Created by KiCad (PCBNEW (5.1.9)-1) date 2021-12-10 02:02:44*
%MOMM*%
%LPD*%
G01*
G04 APERTURE LIST*
%TA.AperFunction,ComponentPad*%
%ADD10R,1.700000X1.700000*%
%TD*%
%TA.AperFunction,ComponentPad*%
%ADD11O,1.700000X1.700000*%
%TD*%
%TA.AperFunction,ViaPad*%
%ADD12C,0.800000*%
%TD*%
%TA.AperFunction,Conductor*%
%ADD13C,0.500000*%
%TD*%
%TA.AperFunction,Conductor*%
%ADD14C,0.250000*%
%TD*%
%TA.AperFunction,Conductor*%
%ADD15C,0.350000*%
%TD*%
G04 APERTURE END LIST*
D10*
%TO.P,J1,1*%
%TO.N,Net-(J1-Pad1)*%
X138658600Y-67564000D03*
D11*
%TO.P,J1,2*%
%TO.N,Net-(J1-Pad2)*%
X138658600Y-65024000D03*
%TO.P,J1,3*%
%TO.N,Net-(J1-Pad3)*%
X141198600Y-67564000D03*
%TO.P,J1,4*%
%TO.N,Net-(J1-Pad4)*%
X141198600Y-65024000D03*
%TO.P,J1,5*%
%TO.N,Net-(J1-Pad5)*%
X143738600Y-67564000D03*
%TO.P,J1,6*%
%TO.N,Net-(J1-Pad6)*%
X143738600Y-65024000D03*
%TO.P,J1,7*%
%TO.N,Net-(J1-Pad7)*%
X146278600Y-67564000D03*
%TO.P,J1,8*%
%TO.N,Net-(J1-Pad8)*%
X146278600Y-65024000D03*
%TO.P,J1,9*%
%TO.N,Net-(J1-Pad9)*%
X148818600Y-67564000D03*
%TO.P,J1,10*%
%TO.N,Net-(J1-Pad10)*%
X148818600Y-65024000D03*
%TO.P,J1,11*%
%TO.N,Net-(J1-Pad11)*%
X151358600Y-67564000D03*
%TO.P,J1,12*%
%TO.N,Net-(J1-Pad12)*%
X151358600Y-65024000D03*
%TO.P,J1,13*%
%TO.N,Net-(J1-Pad13)*%
X153898600Y-67564000D03*
%TO.P,J1,14*%
%TO.N,Net-(J1-Pad14)*%
X153898600Y-65024000D03*
%TO.P,J1,15*%
%TO.N,Net-(J1-Pad15)*%
X156438600Y-67564000D03*
%TO.P,J1,16*%
%TO.N,Net-(J1-Pad16)*%
X156438600Y-65024000D03*
%TO.P,J1,17*%
%TO.N,Net-(J1-Pad17)*%
X158978600Y-67564000D03*
%TO.P,J1,18*%
%TO.N,Net-(J1-Pad18)*%
X158978600Y-65024000D03*
%TO.P,J1,19*%
%TO.N,Net-(J1-Pad19)*%
X161518600Y-67564000D03*
%TO.P,J1,20*%
%TO.N,Net-(J1-Pad20)*%
X161518600Y-65024000D03*
%TO.P,J1,21*%
%TO.N,Net-(J1-Pad21)*%
X164058600Y-67564000D03*
%TO.P,J1,22*%
%TO.N,Net-(J1-Pad22)*%
X164058600Y-65024000D03*
%TO.P,J1,23*%
%TO.N,Net-(J1-Pad23)*%
X166598600Y-67564000D03*
%TO.P,J1,24*%
%TO.N,Net-(J1-Pad24)*%
X166598600Y-65024000D03*
%TO.P,J1,25*%
%TO.N,Net-(J1-Pad25)*%
X169138600Y-67564000D03*
%TO.P,J1,26*%
%TO.N,Net-(J1-Pad26)*%
X169138600Y-65024000D03*
%TO.P,J1,27*%
%TO.N,Net-(J1-Pad27)*%
X171678600Y-67564000D03*
%TO.P,J1,28*%
%TO.N,Net-(J1-Pad28)*%
X171678600Y-65024000D03*
%TO.P,J1,29*%
%TO.N,Net-(J1-Pad29)*%
X174218600Y-67564000D03*
%TO.P,J1,30*%
%TO.N,Net-(J1-Pad30)*%
X174218600Y-65024000D03*
%TO.P,J1,31*%
%TO.N,Net-(J1-Pad31)*%
X176758600Y-67564000D03*
%TO.P,J1,32*%
%TO.N,Net-(J1-Pad32)*%
X176758600Y-65024000D03*
%TO.P,J1,33*%
%TO.N,Net-(J1-Pad33)*%
X179298600Y-67564000D03*
%TO.P,J1,34*%
%TO.N,Net-(J1-Pad34)*%
X179298600Y-65024000D03*
%TO.P,J1,35*%
%TO.N,Net-(J1-Pad35)*%
X181838600Y-67564000D03*
%TO.P,J1,36*%
%TO.N,Net-(J1-Pad36)*%
X181838600Y-65024000D03*
%TO.P,J1,37*%
%TO.N,Net-(J1-Pad37)*%
X184378600Y-67564000D03*
%TO.P,J1,38*%
%TO.N,Net-(J1-Pad38)*%
X184378600Y-65024000D03*
%TO.P,J1,39*%
%TO.N,Net-(J1-Pad39)*%
X186918600Y-67564000D03*
%TO.P,J1,40*%
%TO.N,Net-(J1-Pad40)*%
X186918600Y-65024000D03*
%TD*%
D10*
%TO.P,J2,1*%
%TO.N,Net-(J1-Pad1)*%
X148818600Y-78765400D03*
D11*
%TO.P,J2,2*%
%TO.N,Net-(J1-Pad3)*%
X148818600Y-81305400D03*
%TO.P,J2,3*%
%TO.N,Net-(J1-Pad5)*%
X148818600Y-83845400D03*
%TO.P,J2,4*%
%TO.N,Net-(J1-Pad7)*%
X148818600Y-86385400D03*
%TO.P,J2,5*%
%TO.N,Net-(J1-Pad9)*%
X148818600Y-88925400D03*
%TO.P,J2,6*%
%TO.N,Net-(J1-Pad11)*%
X148818600Y-91465400D03*
%TO.P,J2,7*%
%TO.N,Net-(J1-Pad13)*%
X148818600Y-94005400D03*
%TO.P,J2,8*%
%TO.N,Net-(J1-Pad15)*%
X148818600Y-96545400D03*
%TO.P,J2,9*%
%TO.N,Net-(J1-Pad17)*%
X148818600Y-99085400D03*
%TO.P,J2,10*%
%TO.N,Net-(J1-Pad19)*%
X148818600Y-101625400D03*
%TO.P,J2,11*%
%TO.N,Net-(J1-Pad21)*%
X148818600Y-104165400D03*
%TO.P,J2,12*%
%TO.N,Net-(J1-Pad23)*%
X148818600Y-106705400D03*
%TO.P,J2,13*%
%TO.N,Net-(J1-Pad25)*%
X148818600Y-109245400D03*
%TO.P,J2,14*%
%TO.N,Net-(J1-Pad27)*%
X148818600Y-111785400D03*
%TO.P,J2,15*%
%TO.N,Net-(J1-Pad29)*%
X148818600Y-114325400D03*
%TO.P,J2,16*%
%TO.N,Net-(J1-Pad31)*%
X148818600Y-116865400D03*
%TO.P,J2,17*%
%TO.N,Net-(J1-Pad33)*%
X148818600Y-119405400D03*
%TO.P,J2,18*%
%TO.N,Net-(J1-Pad35)*%
X148818600Y-121945400D03*
%TO.P,J2,19*%
%TO.N,Net-(J1-Pad37)*%
X148818600Y-124485400D03*
%TO.P,J2,20*%
%TO.N,Net-(J1-Pad39)*%
X148818600Y-127025400D03*
%TD*%
%TO.P,J3,20*%
%TO.N,Net-(J1-Pad40)*%
X176758600Y-127025400D03*
%TO.P,J3,19*%
%TO.N,Net-(J1-Pad38)*%
X176758600Y-124485400D03*
%TO.P,J3,18*%
%TO.N,Net-(J1-Pad36)*%
X176758600Y-121945400D03*
%TO.P,J3,17*%
%TO.N,Net-(J1-Pad34)*%
X176758600Y-119405400D03*
%TO.P,J3,16*%
%TO.N,Net-(J1-Pad32)*%
X176758600Y-116865400D03*
%TO.P,J3,15*%
%TO.N,Net-(J1-Pad30)*%
X176758600Y-114325400D03*
%TO.P,J3,14*%
%TO.N,Net-(J1-Pad28)*%
X176758600Y-111785400D03*
%TO.P,J3,13*%
%TO.N,Net-(J1-Pad26)*%
X176758600Y-109245400D03*
%TO.P,J3,12*%
%TO.N,Net-(J1-Pad24)*%
X176758600Y-106705400D03*
%TO.P,J3,11*%
%TO.N,Net-(J1-Pad22)*%
X176758600Y-104165400D03*
%TO.P,J3,10*%
%TO.N,Net-(J1-Pad20)*%
X176758600Y-101625400D03*
%TO.P,J3,9*%
%TO.N,Net-(J1-Pad18)*%
X176758600Y-99085400D03*
%TO.P,J3,8*%
%TO.N,Net-(J1-Pad16)*%
X176758600Y-96545400D03*
%TO.P,J3,7*%
%TO.N,Net-(J1-Pad14)*%
X176758600Y-94005400D03*
%TO.P,J3,6*%
%TO.N,Net-(J1-Pad12)*%
X176758600Y-91465400D03*
%TO.P,J3,5*%
%TO.N,Net-(J1-Pad10)*%
X176758600Y-88925400D03*
%TO.P,J3,4*%
%TO.N,Net-(J1-Pad8)*%
X176758600Y-86385400D03*
%TO.P,J3,3*%
%TO.N,Net-(J1-Pad6)*%
X176758600Y-83845400D03*
%TO.P,J3,2*%
%TO.N,Net-(J1-Pad4)*%
X176758600Y-81305400D03*
D10*
%TO.P,J3,1*%
%TO.N,Net-(J1-Pad2)*%
X176758600Y-78765400D03*
%TD*%
%TO.P,J4,1*%
%TO.N,Net-(J1-Pad1)*%
X138658600Y-111785400D03*
D11*
%TO.P,J4,2*%
%TO.N,Net-(J1-Pad9)*%
X141198600Y-111785400D03*
%TD*%
%TO.P,J5,2*%
%TO.N,Net-(J1-Pad6)*%
X184378600Y-111785400D03*
D10*
%TO.P,J5,1*%
%TO.N,Net-(J1-Pad2)*%
X186918600Y-111785400D03*
%TD*%
D12*
%TO.N,Net-(J1-Pad1)*%
X137540994Y-71120000D03*
%TO.N,Net-(J1-Pad3)*%
X138607804Y-72415400D03*
%TO.N,Net-(J1-Pad5)*%
X138607796Y-73634600D03*
%TO.N,Net-(J1-Pad7)*%
X138607800Y-74803000D03*
%TO.N,Net-(J1-Pad9)*%
X138622937Y-76007059D03*
%TO.N,Net-(J1-Pad11)*%
X139699988Y-88900000D03*
%TO.N,Net-(J1-Pad13)*%
X139700000Y-90169986D03*
%TO.N,Net-(J1-Pad15)*%
X139700000Y-91440000D03*
%TO.N,Net-(J1-Pad17)*%
X139700000Y-92710000D03*
%TO.N,Net-(J1-Pad19)*%
X139700000Y-93980000D03*
%TO.N,Net-(J1-Pad21)*%
X139700000Y-95250000D03*
%TO.N,Net-(J1-Pad23)*%
X139700000Y-96520000D03*
%TO.N,Net-(J1-Pad25)*%
X139700022Y-97790000D03*
%TO.N,Net-(J1-Pad27)*%
X139700000Y-99060000D03*
%TO.N,Net-(J1-Pad29)*%
X139699992Y-100330000D03*
%TO.N,Net-(J1-Pad31)*%
X144653000Y-113157000D03*
%TO.N,Net-(J1-Pad33)*%
X144646010Y-114420010D03*
%TO.N,Net-(J1-Pad35)*%
X144650668Y-115699332D03*
%TO.N,Net-(J1-Pad37)*%
X144653001Y-116966999D03*
%TO.N,Net-(J1-Pad39)*%
X144652997Y-118237003D03*
%TD*%
D13*
%TO.N,Net-(J1-Pad1)*%
X138614675Y-71120000D02*
X137540994Y-71120000D01*
X148818600Y-78765400D02*
X146260075Y-78765400D01*
X146260075Y-78765400D02*
X138614675Y-71120000D01*
%TO.N,Net-(J1-Pad2)*%
X176758600Y-76809600D02*
X176758600Y-78765400D01*
X137414000Y-69850000D02*
X140462000Y-69850000D01*
X175966154Y-76017154D02*
X176758600Y-76809600D01*
X136652000Y-69088000D02*
X137414000Y-69850000D01*
X136652000Y-66662300D02*
X136652000Y-69088000D01*
X146629154Y-76017154D02*
X175966154Y-76017154D01*
X140462000Y-69850000D02*
X146629154Y-76017154D01*
X138290300Y-65024000D02*
X136652000Y-66662300D01*
X138658600Y-65024000D02*
X138290300Y-65024000D01*
D14*
%TO.N,Net-(J1-Pad3)*%
X138836400Y-72415400D02*
X138607804Y-72415400D01*
X147726400Y-81305400D02*
X138836400Y-72415400D01*
X148818600Y-81305400D02*
X147726400Y-81305400D01*
%TO.N,Net-(J1-Pad4)*%
X178689000Y-77343000D02*
X178689000Y-79375000D01*
X176788143Y-75442143D02*
X178689000Y-77343000D01*
X148594143Y-75442143D02*
X176788143Y-75442143D01*
X142494000Y-69342000D02*
X148594143Y-75442143D01*
X178689000Y-79375000D02*
X176758600Y-81305400D01*
X142494000Y-66319400D02*
X142494000Y-69342000D01*
X141198600Y-65024000D02*
X142494000Y-66319400D01*
%TO.N,Net-(J1-Pad5)*%
X148818600Y-83845400D02*
X138607802Y-73634600D01*
X138607802Y-73634600D02*
X138607796Y-73634600D01*
D15*
%TO.N,Net-(J1-Pad6)*%
X145034000Y-69342000D02*
X145034000Y-66319400D01*
X179324000Y-81280000D02*
X179324000Y-76962000D01*
X176758600Y-83845400D02*
X179324000Y-81280000D01*
X179324000Y-76962000D02*
X177229132Y-74867132D01*
X177229132Y-74867132D02*
X150559132Y-74867132D01*
X150559132Y-74867132D02*
X145034000Y-69342000D01*
X145034000Y-66319400D02*
X143738600Y-65024000D01*
D14*
%TO.N,Net-(J1-Pad7)*%
X148818600Y-86385400D02*
X140335000Y-77901800D01*
X140335000Y-77901800D02*
X140335000Y-76530200D01*
X140335000Y-76530200D02*
X138607800Y-74803000D01*
%TO.N,Net-(J1-Pad8)*%
X180086000Y-83058000D02*
X176758600Y-86385400D01*
X180086000Y-76910812D02*
X180086000Y-83058000D01*
X147574000Y-66319400D02*
X147574000Y-69342000D01*
X146278600Y-65024000D02*
X147574000Y-66319400D01*
X152524121Y-74292121D02*
X177467309Y-74292121D01*
X147574000Y-69342000D02*
X152524121Y-74292121D01*
X177467309Y-74292121D02*
X180086000Y-76910812D01*
D13*
%TO.N,Net-(J1-Pad9)*%
X139496800Y-76880922D02*
X138622937Y-76007059D01*
X139496800Y-80060800D02*
X139496800Y-76880922D01*
X148361400Y-88925400D02*
X139496800Y-80060800D01*
X148818600Y-88925400D02*
X148361400Y-88925400D01*
D14*
%TO.N,Net-(J1-Pad10)*%
X180661809Y-85022191D02*
X176758600Y-88925400D01*
X150068601Y-66274001D02*
X150068601Y-69296601D01*
X154614110Y-73842110D02*
X177653709Y-73842110D01*
X177653709Y-73842110D02*
X180661809Y-76850210D01*
X150068601Y-69296601D02*
X154614110Y-73842110D01*
X180661809Y-76850210D02*
X180661809Y-85022191D01*
X148818600Y-65024000D02*
X150068601Y-66274001D01*
%TO.N,Net-(J1-Pad11)*%
X142265388Y-91465400D02*
X139699988Y-88900000D01*
X148818600Y-91465400D02*
X142265388Y-91465400D01*
%TO.N,Net-(J1-Pad12)*%
X152654000Y-69342000D02*
X152654000Y-66319400D01*
X177840109Y-73392099D02*
X156704099Y-73392099D01*
X181279800Y-76831790D02*
X177840109Y-73392099D01*
X181279800Y-86944200D02*
X181279800Y-76831790D01*
X176758600Y-91465400D02*
X181279800Y-86944200D01*
X156704099Y-73392099D02*
X152654000Y-69342000D01*
X152654000Y-66319400D02*
X151358600Y-65024000D01*
%TO.N,Net-(J1-Pad13)*%
X143535414Y-94005400D02*
X139700000Y-90169986D01*
X148818600Y-94005400D02*
X143535414Y-94005400D01*
%TO.N,Net-(J1-Pad14)*%
X181787800Y-88976200D02*
X176758600Y-94005400D01*
X178026509Y-72942088D02*
X181787800Y-76703379D01*
X158794088Y-72942088D02*
X178026509Y-72942088D01*
X155194000Y-66319400D02*
X155194000Y-69342000D01*
X153898600Y-65024000D02*
X155194000Y-66319400D01*
X181787800Y-76703379D02*
X181787800Y-88976200D01*
X155194000Y-69342000D02*
X158794088Y-72942088D01*
%TO.N,Net-(J1-Pad15)*%
X148818600Y-96545400D02*
X144805400Y-96545400D01*
X144805400Y-96545400D02*
X139700000Y-91440000D01*
%TO.N,Net-(J1-Pad16)*%
X182295800Y-91008200D02*
X176758600Y-96545400D01*
X182295800Y-76574968D02*
X182295800Y-91008200D01*
X178212909Y-72492077D02*
X182295800Y-76574968D01*
X160884077Y-72492077D02*
X178212909Y-72492077D01*
X157734000Y-69342000D02*
X160884077Y-72492077D01*
X157734000Y-66319400D02*
X157734000Y-69342000D01*
X156438600Y-65024000D02*
X157734000Y-66319400D01*
%TO.N,Net-(J1-Pad17)*%
X148818600Y-99085400D02*
X146075400Y-99085400D01*
X146075400Y-99085400D02*
X139700000Y-92710000D01*
%TO.N,Net-(J1-Pad18)*%
X182829200Y-93014800D02*
X176758600Y-99085400D01*
X182829200Y-76471957D02*
X182829200Y-93014800D01*
X178399309Y-72042066D02*
X182829200Y-76471957D01*
X162974066Y-72042066D02*
X178399309Y-72042066D01*
X160274000Y-69342000D02*
X162974066Y-72042066D01*
X160274000Y-65557400D02*
X160274000Y-69342000D01*
X158978600Y-64262000D02*
X160274000Y-65557400D01*
%TO.N,Net-(J1-Pad19)*%
X147345400Y-101625400D02*
X139700000Y-93980000D01*
X148818600Y-101625400D02*
X147345400Y-101625400D01*
%TO.N,Net-(J1-Pad20)*%
X165064055Y-71592055D02*
X162814000Y-69342000D01*
X178585709Y-71592055D02*
X165064055Y-71592055D01*
X183362586Y-76368932D02*
X178585709Y-71592055D01*
X183362586Y-95014362D02*
X183362586Y-76368932D01*
X176758600Y-101618348D02*
X183362586Y-95014362D01*
X176758600Y-101625400D02*
X176758600Y-101618348D01*
X162814000Y-66319400D02*
X161518600Y-65024000D01*
X162814000Y-69342000D02*
X162814000Y-66319400D01*
%TO.N,Net-(J1-Pad21)*%
X139903200Y-95250000D02*
X139700000Y-95250000D01*
X148818600Y-104165400D02*
X139903200Y-95250000D01*
%TO.N,Net-(J1-Pad22)*%
X178562000Y-102362000D02*
X176758600Y-104165400D01*
X178562000Y-100451358D02*
X178562000Y-102362000D01*
X183812597Y-95200762D02*
X178562000Y-100451358D01*
X183812597Y-76182532D02*
X183812597Y-95200762D01*
X178772109Y-71142044D02*
X183812597Y-76182532D01*
X167154044Y-71142044D02*
X178772109Y-71142044D01*
X165354000Y-69342000D02*
X167154044Y-71142044D01*
X165354000Y-66319400D02*
X165354000Y-69342000D01*
X164058600Y-65024000D02*
X165354000Y-66319400D01*
%TO.N,Net-(J1-Pad23)*%
X146500011Y-103320011D02*
X139700000Y-96520000D01*
X146500011Y-104615411D02*
X146500011Y-103320011D01*
X148818600Y-106705400D02*
X148590000Y-106705400D01*
X148590000Y-106705400D02*
X146500011Y-104615411D01*
%TO.N,Net-(J1-Pad24)*%
X179070000Y-104394000D02*
X176758600Y-106705400D01*
X179070000Y-100579769D02*
X179070000Y-104394000D01*
X184262608Y-95387162D02*
X179070000Y-100579769D01*
X178958509Y-70692033D02*
X184262608Y-75996132D01*
X169244033Y-70692033D02*
X178958509Y-70692033D01*
X167894000Y-69342000D02*
X169244033Y-70692033D01*
X167894000Y-66319400D02*
X167894000Y-69342000D01*
X184262608Y-75996132D02*
X184262608Y-95387162D01*
X166598600Y-65024000D02*
X167894000Y-66319400D01*
%TO.N,Net-(J1-Pad25)*%
X140425002Y-98514980D02*
X139700022Y-97790000D01*
X145923000Y-104012978D02*
X140425002Y-98514980D01*
X148361400Y-109245400D02*
X145923000Y-106807000D01*
X145923000Y-106807000D02*
X145923000Y-104012978D01*
X148818600Y-109245400D02*
X148361400Y-109245400D01*
%TO.N,Net-(J1-Pad26)*%
X170434000Y-66319400D02*
X169138600Y-65024000D01*
X170434000Y-69342000D02*
X170434000Y-66319400D01*
X171334022Y-70242022D02*
X170434000Y-69342000D01*
X179144909Y-70242022D02*
X171334022Y-70242022D01*
X184712619Y-75809732D02*
X179144909Y-70242022D01*
X184712619Y-95573562D02*
X184712619Y-75809732D01*
X179520011Y-100766169D02*
X184712619Y-95573562D01*
X176758600Y-109245400D02*
X179520011Y-106483989D01*
X179520011Y-106483989D02*
X179520011Y-100766169D01*
%TO.N,Net-(J1-Pad27)*%
X139757004Y-99060000D02*
X139700000Y-99060000D01*
X145288000Y-104590996D02*
X139757004Y-99060000D01*
X145288000Y-108458000D02*
X145288000Y-104590996D01*
X148615400Y-111785400D02*
X145288000Y-108458000D01*
X148818600Y-111785400D02*
X148615400Y-111785400D01*
%TO.N,Net-(J1-Pad28)*%
X172923200Y-66268600D02*
X171678600Y-65024000D01*
X173373211Y-69792011D02*
X172923200Y-69342000D01*
X172923200Y-69342000D02*
X172923200Y-66268600D01*
X185162630Y-75623332D02*
X179331309Y-69792011D01*
X179970022Y-100952569D02*
X185162630Y-95759962D01*
X179331309Y-69792011D02*
X173373211Y-69792011D01*
X179970022Y-106670389D02*
X179970022Y-100952569D01*
X178562000Y-108078411D02*
X179970022Y-106670389D01*
X178562000Y-109982000D02*
X178562000Y-108078411D01*
X185162630Y-95759962D02*
X185162630Y-75623332D01*
X176758600Y-111785400D02*
X178562000Y-109982000D01*
%TO.N,Net-(J1-Pad29)*%
X144272000Y-104902008D02*
X139699992Y-100330000D01*
X144272000Y-109880400D02*
X144272000Y-104902008D01*
X148717000Y-114325400D02*
X144272000Y-109880400D01*
X148818600Y-114325400D02*
X148717000Y-114325400D01*
%TO.N,Net-(J1-Pad30)*%
X175514000Y-68834000D02*
X175514000Y-66319400D01*
X176022000Y-69342000D02*
X175514000Y-68834000D01*
X175514000Y-66319400D02*
X174218600Y-65024000D01*
X179517709Y-69342000D02*
X176022000Y-69342000D01*
X185612641Y-75436932D02*
X179517709Y-69342000D01*
X180420033Y-101138969D02*
X185612641Y-95946362D01*
X185612641Y-95946362D02*
X185612641Y-75436932D01*
X179070000Y-108323947D02*
X180420033Y-106973914D01*
X179070000Y-112014000D02*
X179070000Y-108323947D01*
X180420033Y-106973914D02*
X180420033Y-101138969D01*
X176758600Y-114325400D02*
X179070000Y-112014000D01*
%TO.N,Net-(J1-Pad31)*%
X148361400Y-116865400D02*
X144653000Y-113157000D01*
X148818600Y-116865400D02*
X148361400Y-116865400D01*
%TO.N,Net-(J1-Pad32)*%
X180870044Y-107160314D02*
X179520011Y-108510347D01*
X180870044Y-101325369D02*
X180870044Y-107160314D01*
X179520011Y-114103989D02*
X176758600Y-116865400D01*
X186062652Y-75047720D02*
X186062652Y-96132762D01*
X179520011Y-108510347D02*
X179520011Y-114103989D01*
X180594000Y-69579068D02*
X186062652Y-75047720D01*
X179825201Y-66319400D02*
X180594000Y-67088199D01*
X186062652Y-96132762D02*
X180870044Y-101325369D01*
X178054000Y-66319400D02*
X179825201Y-66319400D01*
X180594000Y-67088199D02*
X180594000Y-69579068D01*
X176758600Y-65024000D02*
X178054000Y-66319400D01*
%TO.N,Net-(J1-Pad33)*%
X147066000Y-116782994D02*
X144703016Y-114420010D01*
X147066000Y-118110000D02*
X147066000Y-116782994D01*
X148361400Y-119405400D02*
X147066000Y-118110000D01*
X144703016Y-114420010D02*
X144646010Y-114420010D01*
X148818600Y-119405400D02*
X148361400Y-119405400D01*
%TO.N,Net-(J1-Pad34)*%
X180568600Y-66294000D02*
X179298600Y-65024000D01*
X182626000Y-66294000D02*
X180568600Y-66294000D01*
X183134000Y-66802000D02*
X182626000Y-66294000D01*
X186512663Y-74861321D02*
X183134000Y-71482658D01*
X186512663Y-96319162D02*
X186512663Y-74861321D01*
X183134000Y-71482658D02*
X183134000Y-66802000D01*
X181356000Y-101475821D02*
X186512663Y-96319162D01*
X181356000Y-107310769D02*
X181356000Y-101475821D01*
X179970022Y-108696747D02*
X181356000Y-107310769D01*
X179970022Y-116193978D02*
X179970022Y-108696747D01*
X176758600Y-119405400D02*
X179970022Y-116193978D01*
%TO.N,Net-(J1-Pad35)*%
X146558000Y-117606664D02*
X144650668Y-115699332D01*
X146558000Y-119888000D02*
X146558000Y-117606664D01*
X148615400Y-121945400D02*
X146558000Y-119888000D01*
X148818600Y-121945400D02*
X148615400Y-121945400D01*
%TO.N,Net-(J1-Pad36)*%
X182118000Y-65024000D02*
X181838600Y-65024000D01*
X183388000Y-66294000D02*
X182118000Y-65024000D01*
X185674000Y-66834199D02*
X185133801Y-66294000D01*
X186962674Y-96505562D02*
X186962674Y-74674921D01*
X185674000Y-73386247D02*
X185674000Y-66834199D01*
X181864000Y-101604231D02*
X186962674Y-96505562D01*
X180420033Y-108883147D02*
X181864000Y-107439180D01*
X186962674Y-74674921D02*
X185674000Y-73386247D01*
X181864000Y-107439180D02*
X181864000Y-101604231D01*
X180420033Y-118283967D02*
X180420033Y-108883147D01*
X185133801Y-66294000D02*
X183388000Y-66294000D01*
X176758600Y-121945400D02*
X180420033Y-118283967D01*
%TO.N,Net-(J1-Pad37)*%
X144653001Y-116967001D02*
X144653001Y-116966999D01*
X146050000Y-118364000D02*
X144653001Y-116967001D01*
X146050000Y-121716800D02*
X146050000Y-118364000D01*
X148818600Y-124485400D02*
X146050000Y-121716800D01*
%TO.N,Net-(J1-Pad38)*%
X184500211Y-65024000D02*
X184378600Y-65024000D01*
X187452000Y-66294000D02*
X185770211Y-66294000D01*
X185770211Y-66294000D02*
X184500211Y-65024000D01*
X188214000Y-67056000D02*
X187452000Y-66294000D01*
X187412685Y-69889315D02*
X188214000Y-69088000D01*
X188214000Y-69088000D02*
X188214000Y-67056000D01*
X187412685Y-96691962D02*
X187412685Y-69889315D01*
X182372000Y-107567590D02*
X182372000Y-101732641D01*
X182372000Y-101732641D02*
X187412685Y-96691962D01*
X180870044Y-109069546D02*
X182372000Y-107567590D01*
X180870044Y-120373956D02*
X180870044Y-109069546D01*
X176758600Y-124485400D02*
X180870044Y-120373956D01*
%TO.N,Net-(J1-Pad39)*%
X145542000Y-119126006D02*
X144652997Y-118237003D01*
X145542000Y-123748800D02*
X145542000Y-119126006D01*
X148818600Y-127025400D02*
X145542000Y-123748800D01*
%TO.N,Net-(J1-Pad40)*%
X188722000Y-69216410D02*
X188722000Y-66827400D01*
X187960000Y-69978410D02*
X188722000Y-69216410D01*
X187960000Y-96781052D02*
X187960000Y-69978410D01*
X182880000Y-107696000D02*
X182880000Y-101861052D01*
X188722000Y-66827400D02*
X186918600Y-65024000D01*
X181356000Y-109220000D02*
X182880000Y-107696000D01*
X182880000Y-101861052D02*
X187960000Y-96781052D01*
X181356000Y-122428000D02*
X181356000Y-109220000D01*
X176758600Y-127025400D02*
X181356000Y-122428000D01*
%TD*%
M02*
