M48
; DRILL file {KiCad (5.1.9)-1} date 12/07/21 00:28:55
; FORMAT={-:-/ absolute / inch / decimal}
; #@! TF.CreationDate,2021-12-07T00:28:55+09:00
; #@! TF.GenerationSoftware,Kicad,Pcbnew,(5.1.9)-1
; #@! TF.FileFunction,Plated,1,2,PTH
FMAT,2
INCH
T1C0.0157
T2C0.0394
%
G90
G05
T1
X4.939Y-3.201
X4.9665Y-3.3029
X4.9963Y-3.401
X5.014Y-3.501
X5.0317Y-3.601
X5.0494Y-3.701
X5.0671Y-3.801
X5.0849Y-3.901
X5.1026Y-4.001
X5.1203Y-4.101
X5.138Y-4.201
X5.142Y-4.294
X5.16Y-4.401
X5.179Y-4.501
X5.2016Y-4.603
X5.219Y-4.708
X5.224Y-4.805
X5.243Y-4.902
X5.268Y-4.998
X5.3Y-5.094
T2
X4.989Y-2.63
X4.989Y-2.73
X4.989Y-5.101
X5.089Y-2.63
X5.089Y-2.73
X5.089Y-5.101
X5.189Y-2.63
X5.189Y-2.73
X5.289Y-2.63
X5.289Y-2.73
X5.389Y-2.63
X5.389Y-2.73
X5.389Y-3.201
X5.389Y-3.301
X5.389Y-3.401
X5.389Y-3.501
X5.389Y-3.601
X5.389Y-3.701
X5.389Y-3.801
X5.389Y-3.901
X5.389Y-4.001
X5.389Y-4.101
X5.389Y-4.201
X5.389Y-4.301
X5.389Y-4.401
X5.389Y-4.501
X5.389Y-4.601
X5.389Y-4.701
X5.389Y-4.801
X5.389Y-4.901
X5.389Y-5.001
X5.389Y-5.101
X5.489Y-2.63
X5.489Y-2.73
X5.589Y-2.63
X5.589Y-2.73
X5.689Y-2.63
X5.689Y-2.73
X5.789Y-2.63
X5.789Y-2.73
X5.889Y-2.63
X5.889Y-2.73
X5.989Y-2.63
X5.989Y-2.73
X6.089Y-2.63
X6.089Y-2.73
X6.189Y-2.63
X6.189Y-2.73
X6.289Y-2.63
X6.289Y-2.73
X6.389Y-2.63
X6.389Y-2.73
X6.489Y-2.63
X6.489Y-2.73
X6.489Y-3.201
X6.489Y-3.301
X6.489Y-3.401
X6.489Y-3.501
X6.489Y-3.601
X6.489Y-3.701
X6.489Y-3.801
X6.489Y-3.901
X6.489Y-4.001
X6.489Y-4.101
X6.489Y-4.201
X6.489Y-4.301
X6.489Y-4.401
X6.489Y-4.501
X6.489Y-4.601
X6.489Y-4.701
X6.489Y-4.801
X6.489Y-4.901
X6.489Y-5.001
X6.489Y-5.101
X6.589Y-2.63
X6.589Y-2.73
X6.689Y-2.63
X6.689Y-2.73
X6.789Y-2.63
X6.789Y-2.73
X6.789Y-5.101
X6.889Y-2.63
X6.889Y-2.73
X6.889Y-5.101
T0
M30
