%TF.GenerationSoftware,KiCad,Pcbnew,(5.1.9)-1*%
%TF.CreationDate,2022-02-08T17:06:21+09:00*%
%TF.ProjectId,pi-extend,70692d65-7874-4656-9e64-2e6b69636164,rev?*%
%TF.SameCoordinates,Original*%
%TF.FileFunction,Legend,Top*%
%TF.FilePolarity,Positive*%
%FSLAX46Y46*%
G04 Gerber Fmt 4.6, Leading zero omitted, Abs format (unit mm)*
G04 Created by KiCad (PCBNEW (5.1.9)-1) date 2022-02-08 17:06:21*
%MOMM*%
%LPD*%
G01*
G04 APERTURE LIST*
%ADD10C,0.150000*%
%ADD11C,0.250000*%
%ADD12C,0.300000*%
%ADD13C,0.120000*%
G04 APERTURE END LIST*
D10*
X189134761Y-66333714D02*
X188372857Y-66619428D01*
X189134761Y-66905142D01*
X190134761Y-67000380D02*
X189563333Y-67000380D01*
X189849047Y-67000380D02*
X189849047Y-66000380D01*
X189753809Y-66143238D01*
X189658571Y-66238476D01*
X189563333Y-66286095D01*
X145444785Y-126500000D02*
X145349547Y-126452380D01*
X145206690Y-126452380D01*
X145063833Y-126500000D01*
X144968595Y-126595238D01*
X144920976Y-126690476D01*
X144873357Y-126880952D01*
X144873357Y-127023809D01*
X144920976Y-127214285D01*
X144968595Y-127309523D01*
X145063833Y-127404761D01*
X145206690Y-127452380D01*
X145301928Y-127452380D01*
X145444785Y-127404761D01*
X145492404Y-127357142D01*
X145492404Y-127023809D01*
X145301928Y-127023809D01*
X145920976Y-127452380D02*
X145920976Y-126452380D01*
X146492404Y-127452380D01*
X146492404Y-126452380D01*
X146968595Y-127452380D02*
X146968595Y-126452380D01*
X147206690Y-126452380D01*
X147349547Y-126500000D01*
X147444785Y-126595238D01*
X147492404Y-126690476D01*
X147540023Y-126880952D01*
X147540023Y-127023809D01*
X147492404Y-127214285D01*
X147444785Y-127309523D01*
X147349547Y-127404761D01*
X147206690Y-127452380D01*
X146968595Y-127452380D01*
X145587642Y-123960000D02*
X145492404Y-123912380D01*
X145349547Y-123912380D01*
X145206690Y-123960000D01*
X145111452Y-124055238D01*
X145063833Y-124150476D01*
X145016214Y-124340952D01*
X145016214Y-124483809D01*
X145063833Y-124674285D01*
X145111452Y-124769523D01*
X145206690Y-124864761D01*
X145349547Y-124912380D01*
X145444785Y-124912380D01*
X145587642Y-124864761D01*
X145635261Y-124817142D01*
X145635261Y-124483809D01*
X145444785Y-124483809D01*
X146016214Y-124007619D02*
X146063833Y-123960000D01*
X146159071Y-123912380D01*
X146397166Y-123912380D01*
X146492404Y-123960000D01*
X146540023Y-124007619D01*
X146587642Y-124102857D01*
X146587642Y-124198095D01*
X146540023Y-124340952D01*
X145968595Y-124912380D01*
X146587642Y-124912380D01*
X147444785Y-123912380D02*
X147254309Y-123912380D01*
X147159071Y-123960000D01*
X147111452Y-124007619D01*
X147016214Y-124150476D01*
X146968595Y-124340952D01*
X146968595Y-124721904D01*
X147016214Y-124817142D01*
X147063833Y-124864761D01*
X147159071Y-124912380D01*
X147349547Y-124912380D01*
X147444785Y-124864761D01*
X147492404Y-124817142D01*
X147540023Y-124721904D01*
X147540023Y-124483809D01*
X147492404Y-124388571D01*
X147444785Y-124340952D01*
X147349547Y-124293333D01*
X147159071Y-124293333D01*
X147063833Y-124340952D01*
X147016214Y-124388571D01*
X146968595Y-124483809D01*
X145587642Y-121420000D02*
X145492404Y-121372380D01*
X145349547Y-121372380D01*
X145206690Y-121420000D01*
X145111452Y-121515238D01*
X145063833Y-121610476D01*
X145016214Y-121800952D01*
X145016214Y-121943809D01*
X145063833Y-122134285D01*
X145111452Y-122229523D01*
X145206690Y-122324761D01*
X145349547Y-122372380D01*
X145444785Y-122372380D01*
X145587642Y-122324761D01*
X145635261Y-122277142D01*
X145635261Y-121943809D01*
X145444785Y-121943809D01*
X146587642Y-122372380D02*
X146016214Y-122372380D01*
X146301928Y-122372380D02*
X146301928Y-121372380D01*
X146206690Y-121515238D01*
X146111452Y-121610476D01*
X146016214Y-121658095D01*
X147063833Y-122372380D02*
X147254309Y-122372380D01*
X147349547Y-122324761D01*
X147397166Y-122277142D01*
X147492404Y-122134285D01*
X147540023Y-121943809D01*
X147540023Y-121562857D01*
X147492404Y-121467619D01*
X147444785Y-121420000D01*
X147349547Y-121372380D01*
X147159071Y-121372380D01*
X147063833Y-121420000D01*
X147016214Y-121467619D01*
X146968595Y-121562857D01*
X146968595Y-121800952D01*
X147016214Y-121896190D01*
X147063833Y-121943809D01*
X147159071Y-121991428D01*
X147349547Y-121991428D01*
X147444785Y-121943809D01*
X147492404Y-121896190D01*
X147540023Y-121800952D01*
X145587642Y-118880000D02*
X145492404Y-118832380D01*
X145349547Y-118832380D01*
X145206690Y-118880000D01*
X145111452Y-118975238D01*
X145063833Y-119070476D01*
X145016214Y-119260952D01*
X145016214Y-119403809D01*
X145063833Y-119594285D01*
X145111452Y-119689523D01*
X145206690Y-119784761D01*
X145349547Y-119832380D01*
X145444785Y-119832380D01*
X145587642Y-119784761D01*
X145635261Y-119737142D01*
X145635261Y-119403809D01*
X145444785Y-119403809D01*
X146587642Y-119832380D02*
X146016214Y-119832380D01*
X146301928Y-119832380D02*
X146301928Y-118832380D01*
X146206690Y-118975238D01*
X146111452Y-119070476D01*
X146016214Y-119118095D01*
X146920976Y-118832380D02*
X147540023Y-118832380D01*
X147206690Y-119213333D01*
X147349547Y-119213333D01*
X147444785Y-119260952D01*
X147492404Y-119308571D01*
X147540023Y-119403809D01*
X147540023Y-119641904D01*
X147492404Y-119737142D01*
X147444785Y-119784761D01*
X147349547Y-119832380D01*
X147063833Y-119832380D01*
X146968595Y-119784761D01*
X146920976Y-119737142D01*
X146540023Y-116340000D02*
X146444785Y-116292380D01*
X146301928Y-116292380D01*
X146159071Y-116340000D01*
X146063833Y-116435238D01*
X146016214Y-116530476D01*
X145968595Y-116720952D01*
X145968595Y-116863809D01*
X146016214Y-117054285D01*
X146063833Y-117149523D01*
X146159071Y-117244761D01*
X146301928Y-117292380D01*
X146397166Y-117292380D01*
X146540023Y-117244761D01*
X146587642Y-117197142D01*
X146587642Y-116863809D01*
X146397166Y-116863809D01*
X147444785Y-116292380D02*
X147254309Y-116292380D01*
X147159071Y-116340000D01*
X147111452Y-116387619D01*
X147016214Y-116530476D01*
X146968595Y-116720952D01*
X146968595Y-117101904D01*
X147016214Y-117197142D01*
X147063833Y-117244761D01*
X147159071Y-117292380D01*
X147349547Y-117292380D01*
X147444785Y-117244761D01*
X147492404Y-117197142D01*
X147540023Y-117101904D01*
X147540023Y-116863809D01*
X147492404Y-116768571D01*
X147444785Y-116720952D01*
X147349547Y-116673333D01*
X147159071Y-116673333D01*
X147063833Y-116720952D01*
X147016214Y-116768571D01*
X146968595Y-116863809D01*
X146540023Y-113800000D02*
X146444785Y-113752380D01*
X146301928Y-113752380D01*
X146159071Y-113800000D01*
X146063833Y-113895238D01*
X146016214Y-113990476D01*
X145968595Y-114180952D01*
X145968595Y-114323809D01*
X146016214Y-114514285D01*
X146063833Y-114609523D01*
X146159071Y-114704761D01*
X146301928Y-114752380D01*
X146397166Y-114752380D01*
X146540023Y-114704761D01*
X146587642Y-114657142D01*
X146587642Y-114323809D01*
X146397166Y-114323809D01*
X147492404Y-113752380D02*
X147016214Y-113752380D01*
X146968595Y-114228571D01*
X147016214Y-114180952D01*
X147111452Y-114133333D01*
X147349547Y-114133333D01*
X147444785Y-114180952D01*
X147492404Y-114228571D01*
X147540023Y-114323809D01*
X147540023Y-114561904D01*
X147492404Y-114657142D01*
X147444785Y-114704761D01*
X147349547Y-114752380D01*
X147111452Y-114752380D01*
X147016214Y-114704761D01*
X146968595Y-114657142D01*
X144568595Y-112212380D02*
X144568595Y-111212380D01*
X144949547Y-112212380D02*
X144949547Y-111212380D01*
X145140023Y-111212380D01*
X145254309Y-111260000D01*
X145330500Y-111355238D01*
X145368595Y-111450476D01*
X145406690Y-111640952D01*
X145406690Y-111783809D01*
X145368595Y-111974285D01*
X145330500Y-112069523D01*
X145254309Y-112164761D01*
X145140023Y-112212380D01*
X144949547Y-112212380D01*
X145559071Y-112307619D02*
X146168595Y-112307619D01*
X146320976Y-112164761D02*
X146435261Y-112212380D01*
X146625738Y-112212380D01*
X146701928Y-112164761D01*
X146740023Y-112117142D01*
X146778119Y-112021904D01*
X146778119Y-111926666D01*
X146740023Y-111831428D01*
X146701928Y-111783809D01*
X146625738Y-111736190D01*
X146473357Y-111688571D01*
X146397166Y-111640952D01*
X146359071Y-111593333D01*
X146320976Y-111498095D01*
X146320976Y-111402857D01*
X146359071Y-111307619D01*
X146397166Y-111260000D01*
X146473357Y-111212380D01*
X146663833Y-111212380D01*
X146778119Y-111260000D01*
X147120976Y-112212380D02*
X147120976Y-111212380D01*
X147311452Y-111212380D01*
X147425738Y-111260000D01*
X147501928Y-111355238D01*
X147540023Y-111450476D01*
X147578119Y-111640952D01*
X147578119Y-111783809D01*
X147540023Y-111974285D01*
X147501928Y-112069523D01*
X147425738Y-112164761D01*
X147311452Y-112212380D01*
X147120976Y-112212380D01*
X145111452Y-78192380D02*
X145730500Y-78192380D01*
X145397166Y-78573333D01*
X145540023Y-78573333D01*
X145635261Y-78620952D01*
X145682880Y-78668571D01*
X145730500Y-78763809D01*
X145730500Y-79001904D01*
X145682880Y-79097142D01*
X145635261Y-79144761D01*
X145540023Y-79192380D01*
X145254309Y-79192380D01*
X145159071Y-79144761D01*
X145111452Y-79097142D01*
X146016214Y-78192380D02*
X146349547Y-79192380D01*
X146682880Y-78192380D01*
X146920976Y-78192380D02*
X147540023Y-78192380D01*
X147206690Y-78573333D01*
X147349547Y-78573333D01*
X147444785Y-78620952D01*
X147492404Y-78668571D01*
X147540023Y-78763809D01*
X147540023Y-79001904D01*
X147492404Y-79097142D01*
X147444785Y-79144761D01*
X147349547Y-79192380D01*
X147063833Y-79192380D01*
X146968595Y-79144761D01*
X146920976Y-79097142D01*
X142701928Y-80780000D02*
X142625738Y-80732380D01*
X142511452Y-80732380D01*
X142397166Y-80780000D01*
X142320976Y-80875238D01*
X142282880Y-80970476D01*
X142244785Y-81160952D01*
X142244785Y-81303809D01*
X142282880Y-81494285D01*
X142320976Y-81589523D01*
X142397166Y-81684761D01*
X142511452Y-81732380D01*
X142587642Y-81732380D01*
X142701928Y-81684761D01*
X142740023Y-81637142D01*
X142740023Y-81303809D01*
X142587642Y-81303809D01*
X143044785Y-80827619D02*
X143082880Y-80780000D01*
X143159071Y-80732380D01*
X143349547Y-80732380D01*
X143425738Y-80780000D01*
X143463833Y-80827619D01*
X143501928Y-80922857D01*
X143501928Y-81018095D01*
X143463833Y-81160952D01*
X143006690Y-81732380D01*
X143501928Y-81732380D01*
X144073357Y-82113333D02*
X144035261Y-82065714D01*
X143959071Y-81922857D01*
X143920976Y-81827619D01*
X143882880Y-81684761D01*
X143844785Y-81446666D01*
X143844785Y-81256190D01*
X143882880Y-81018095D01*
X143920976Y-80875238D01*
X143959071Y-80780000D01*
X144035261Y-80637142D01*
X144073357Y-80589523D01*
X144340023Y-81684761D02*
X144454309Y-81732380D01*
X144644785Y-81732380D01*
X144720976Y-81684761D01*
X144759071Y-81637142D01*
X144797166Y-81541904D01*
X144797166Y-81446666D01*
X144759071Y-81351428D01*
X144720976Y-81303809D01*
X144644785Y-81256190D01*
X144492404Y-81208571D01*
X144416214Y-81160952D01*
X144378119Y-81113333D01*
X144340023Y-81018095D01*
X144340023Y-80922857D01*
X144378119Y-80827619D01*
X144416214Y-80780000D01*
X144492404Y-80732380D01*
X144682880Y-80732380D01*
X144797166Y-80780000D01*
X145140023Y-81732380D02*
X145140023Y-80732380D01*
X145330500Y-80732380D01*
X145444785Y-80780000D01*
X145520976Y-80875238D01*
X145559071Y-80970476D01*
X145597166Y-81160952D01*
X145597166Y-81303809D01*
X145559071Y-81494285D01*
X145520976Y-81589523D01*
X145444785Y-81684761D01*
X145330500Y-81732380D01*
X145140023Y-81732380D01*
X145901928Y-81446666D02*
X146282880Y-81446666D01*
X145825738Y-81732380D02*
X146092404Y-80732380D01*
X146359071Y-81732380D01*
X147044785Y-81732380D02*
X146587642Y-81732380D01*
X146816214Y-81732380D02*
X146816214Y-80732380D01*
X146740023Y-80875238D01*
X146663833Y-80970476D01*
X146587642Y-81018095D01*
X147311452Y-82113333D02*
X147349547Y-82065714D01*
X147425738Y-81922857D01*
X147463833Y-81827619D01*
X147501928Y-81684761D01*
X147540023Y-81446666D01*
X147540023Y-81256190D01*
X147501928Y-81018095D01*
X147463833Y-80875238D01*
X147425738Y-80780000D01*
X147349547Y-80637142D01*
X147311452Y-80589523D01*
X142740023Y-83320000D02*
X142663833Y-83272380D01*
X142549547Y-83272380D01*
X142435261Y-83320000D01*
X142359071Y-83415238D01*
X142320976Y-83510476D01*
X142282880Y-83700952D01*
X142282880Y-83843809D01*
X142320976Y-84034285D01*
X142359071Y-84129523D01*
X142435261Y-84224761D01*
X142549547Y-84272380D01*
X142625738Y-84272380D01*
X142740023Y-84224761D01*
X142778119Y-84177142D01*
X142778119Y-83843809D01*
X142625738Y-83843809D01*
X143044785Y-83272380D02*
X143540023Y-83272380D01*
X143273357Y-83653333D01*
X143387642Y-83653333D01*
X143463833Y-83700952D01*
X143501928Y-83748571D01*
X143540023Y-83843809D01*
X143540023Y-84081904D01*
X143501928Y-84177142D01*
X143463833Y-84224761D01*
X143387642Y-84272380D01*
X143159071Y-84272380D01*
X143082880Y-84224761D01*
X143044785Y-84177142D01*
X144111452Y-84653333D02*
X144073357Y-84605714D01*
X143997166Y-84462857D01*
X143959071Y-84367619D01*
X143920976Y-84224761D01*
X143882880Y-83986666D01*
X143882880Y-83796190D01*
X143920976Y-83558095D01*
X143959071Y-83415238D01*
X143997166Y-83320000D01*
X144073357Y-83177142D01*
X144111452Y-83129523D01*
X144378119Y-84224761D02*
X144492404Y-84272380D01*
X144682880Y-84272380D01*
X144759071Y-84224761D01*
X144797166Y-84177142D01*
X144835261Y-84081904D01*
X144835261Y-83986666D01*
X144797166Y-83891428D01*
X144759071Y-83843809D01*
X144682880Y-83796190D01*
X144530500Y-83748571D01*
X144454309Y-83700952D01*
X144416214Y-83653333D01*
X144378119Y-83558095D01*
X144378119Y-83462857D01*
X144416214Y-83367619D01*
X144454309Y-83320000D01*
X144530500Y-83272380D01*
X144720976Y-83272380D01*
X144835261Y-83320000D01*
X145635261Y-84177142D02*
X145597166Y-84224761D01*
X145482880Y-84272380D01*
X145406690Y-84272380D01*
X145292404Y-84224761D01*
X145216214Y-84129523D01*
X145178119Y-84034285D01*
X145140023Y-83843809D01*
X145140023Y-83700952D01*
X145178119Y-83510476D01*
X145216214Y-83415238D01*
X145292404Y-83320000D01*
X145406690Y-83272380D01*
X145482880Y-83272380D01*
X145597166Y-83320000D01*
X145635261Y-83367619D01*
X146359071Y-84272380D02*
X145978119Y-84272380D01*
X145978119Y-83272380D01*
X147044785Y-84272380D02*
X146587642Y-84272380D01*
X146816214Y-84272380D02*
X146816214Y-83272380D01*
X146740023Y-83415238D01*
X146663833Y-83510476D01*
X146587642Y-83558095D01*
X147311452Y-84653333D02*
X147349547Y-84605714D01*
X147425738Y-84462857D01*
X147463833Y-84367619D01*
X147501928Y-84224761D01*
X147540023Y-83986666D01*
X147540023Y-83796190D01*
X147501928Y-83558095D01*
X147463833Y-83415238D01*
X147425738Y-83320000D01*
X147349547Y-83177142D01*
X147311452Y-83129523D01*
X146540023Y-85860000D02*
X146444785Y-85812380D01*
X146301928Y-85812380D01*
X146159071Y-85860000D01*
X146063833Y-85955238D01*
X146016214Y-86050476D01*
X145968595Y-86240952D01*
X145968595Y-86383809D01*
X146016214Y-86574285D01*
X146063833Y-86669523D01*
X146159071Y-86764761D01*
X146301928Y-86812380D01*
X146397166Y-86812380D01*
X146540023Y-86764761D01*
X146587642Y-86717142D01*
X146587642Y-86383809D01*
X146397166Y-86383809D01*
X147444785Y-86145714D02*
X147444785Y-86812380D01*
X147206690Y-85764761D02*
X146968595Y-86479047D01*
X147587642Y-86479047D01*
X145444785Y-88400000D02*
X145349547Y-88352380D01*
X145206690Y-88352380D01*
X145063833Y-88400000D01*
X144968595Y-88495238D01*
X144920976Y-88590476D01*
X144873357Y-88780952D01*
X144873357Y-88923809D01*
X144920976Y-89114285D01*
X144968595Y-89209523D01*
X145063833Y-89304761D01*
X145206690Y-89352380D01*
X145301928Y-89352380D01*
X145444785Y-89304761D01*
X145492404Y-89257142D01*
X145492404Y-88923809D01*
X145301928Y-88923809D01*
X145920976Y-89352380D02*
X145920976Y-88352380D01*
X146492404Y-89352380D01*
X146492404Y-88352380D01*
X146968595Y-89352380D02*
X146968595Y-88352380D01*
X147206690Y-88352380D01*
X147349547Y-88400000D01*
X147444785Y-88495238D01*
X147492404Y-88590476D01*
X147540023Y-88780952D01*
X147540023Y-88923809D01*
X147492404Y-89114285D01*
X147444785Y-89209523D01*
X147349547Y-89304761D01*
X147206690Y-89352380D01*
X146968595Y-89352380D01*
X145587642Y-90940000D02*
X145492404Y-90892380D01*
X145349547Y-90892380D01*
X145206690Y-90940000D01*
X145111452Y-91035238D01*
X145063833Y-91130476D01*
X145016214Y-91320952D01*
X145016214Y-91463809D01*
X145063833Y-91654285D01*
X145111452Y-91749523D01*
X145206690Y-91844761D01*
X145349547Y-91892380D01*
X145444785Y-91892380D01*
X145587642Y-91844761D01*
X145635261Y-91797142D01*
X145635261Y-91463809D01*
X145444785Y-91463809D01*
X146587642Y-91892380D02*
X146016214Y-91892380D01*
X146301928Y-91892380D02*
X146301928Y-90892380D01*
X146206690Y-91035238D01*
X146111452Y-91130476D01*
X146016214Y-91178095D01*
X146920976Y-90892380D02*
X147587642Y-90892380D01*
X147159071Y-91892380D01*
X145587642Y-93480000D02*
X145492404Y-93432380D01*
X145349547Y-93432380D01*
X145206690Y-93480000D01*
X145111452Y-93575238D01*
X145063833Y-93670476D01*
X145016214Y-93860952D01*
X145016214Y-94003809D01*
X145063833Y-94194285D01*
X145111452Y-94289523D01*
X145206690Y-94384761D01*
X145349547Y-94432380D01*
X145444785Y-94432380D01*
X145587642Y-94384761D01*
X145635261Y-94337142D01*
X145635261Y-94003809D01*
X145444785Y-94003809D01*
X146016214Y-93527619D02*
X146063833Y-93480000D01*
X146159071Y-93432380D01*
X146397166Y-93432380D01*
X146492404Y-93480000D01*
X146540023Y-93527619D01*
X146587642Y-93622857D01*
X146587642Y-93718095D01*
X146540023Y-93860952D01*
X145968595Y-94432380D01*
X146587642Y-94432380D01*
X146920976Y-93432380D02*
X147587642Y-93432380D01*
X147159071Y-94432380D01*
X145587642Y-96020000D02*
X145492404Y-95972380D01*
X145349547Y-95972380D01*
X145206690Y-96020000D01*
X145111452Y-96115238D01*
X145063833Y-96210476D01*
X145016214Y-96400952D01*
X145016214Y-96543809D01*
X145063833Y-96734285D01*
X145111452Y-96829523D01*
X145206690Y-96924761D01*
X145349547Y-96972380D01*
X145444785Y-96972380D01*
X145587642Y-96924761D01*
X145635261Y-96877142D01*
X145635261Y-96543809D01*
X145444785Y-96543809D01*
X146016214Y-96067619D02*
X146063833Y-96020000D01*
X146159071Y-95972380D01*
X146397166Y-95972380D01*
X146492404Y-96020000D01*
X146540023Y-96067619D01*
X146587642Y-96162857D01*
X146587642Y-96258095D01*
X146540023Y-96400952D01*
X145968595Y-96972380D01*
X146587642Y-96972380D01*
X146968595Y-96067619D02*
X147016214Y-96020000D01*
X147111452Y-95972380D01*
X147349547Y-95972380D01*
X147444785Y-96020000D01*
X147492404Y-96067619D01*
X147540023Y-96162857D01*
X147540023Y-96258095D01*
X147492404Y-96400952D01*
X146920976Y-96972380D01*
X147540023Y-96972380D01*
X145111452Y-98512380D02*
X145730500Y-98512380D01*
X145397166Y-98893333D01*
X145540023Y-98893333D01*
X145635261Y-98940952D01*
X145682880Y-98988571D01*
X145730500Y-99083809D01*
X145730500Y-99321904D01*
X145682880Y-99417142D01*
X145635261Y-99464761D01*
X145540023Y-99512380D01*
X145254309Y-99512380D01*
X145159071Y-99464761D01*
X145111452Y-99417142D01*
X146016214Y-98512380D02*
X146349547Y-99512380D01*
X146682880Y-98512380D01*
X146920976Y-98512380D02*
X147540023Y-98512380D01*
X147206690Y-98893333D01*
X147349547Y-98893333D01*
X147444785Y-98940952D01*
X147492404Y-98988571D01*
X147540023Y-99083809D01*
X147540023Y-99321904D01*
X147492404Y-99417142D01*
X147444785Y-99464761D01*
X147349547Y-99512380D01*
X147063833Y-99512380D01*
X146968595Y-99464761D01*
X146920976Y-99417142D01*
X142054309Y-101100000D02*
X141978119Y-101052380D01*
X141863833Y-101052380D01*
X141749547Y-101100000D01*
X141673357Y-101195238D01*
X141635261Y-101290476D01*
X141597166Y-101480952D01*
X141597166Y-101623809D01*
X141635261Y-101814285D01*
X141673357Y-101909523D01*
X141749547Y-102004761D01*
X141863833Y-102052380D01*
X141940023Y-102052380D01*
X142054309Y-102004761D01*
X142092404Y-101957142D01*
X142092404Y-101623809D01*
X141940023Y-101623809D01*
X142854309Y-102052380D02*
X142397166Y-102052380D01*
X142625738Y-102052380D02*
X142625738Y-101052380D01*
X142549547Y-101195238D01*
X142473357Y-101290476D01*
X142397166Y-101338095D01*
X143349547Y-101052380D02*
X143425738Y-101052380D01*
X143501928Y-101100000D01*
X143540023Y-101147619D01*
X143578119Y-101242857D01*
X143616214Y-101433333D01*
X143616214Y-101671428D01*
X143578119Y-101861904D01*
X143540023Y-101957142D01*
X143501928Y-102004761D01*
X143425738Y-102052380D01*
X143349547Y-102052380D01*
X143273357Y-102004761D01*
X143235261Y-101957142D01*
X143197166Y-101861904D01*
X143159071Y-101671428D01*
X143159071Y-101433333D01*
X143197166Y-101242857D01*
X143235261Y-101147619D01*
X143273357Y-101100000D01*
X143349547Y-101052380D01*
X144187642Y-102433333D02*
X144149547Y-102385714D01*
X144073357Y-102242857D01*
X144035261Y-102147619D01*
X143997166Y-102004761D01*
X143959071Y-101766666D01*
X143959071Y-101576190D01*
X143997166Y-101338095D01*
X144035261Y-101195238D01*
X144073357Y-101100000D01*
X144149547Y-100957142D01*
X144187642Y-100909523D01*
X144492404Y-102052380D02*
X144492404Y-101052380D01*
X144759071Y-101766666D01*
X145025738Y-101052380D01*
X145025738Y-102052380D01*
X145559071Y-101052380D02*
X145711452Y-101052380D01*
X145787642Y-101100000D01*
X145863833Y-101195238D01*
X145901928Y-101385714D01*
X145901928Y-101719047D01*
X145863833Y-101909523D01*
X145787642Y-102004761D01*
X145711452Y-102052380D01*
X145559071Y-102052380D01*
X145482880Y-102004761D01*
X145406690Y-101909523D01*
X145368595Y-101719047D01*
X145368595Y-101385714D01*
X145406690Y-101195238D01*
X145482880Y-101100000D01*
X145559071Y-101052380D01*
X146206690Y-102004761D02*
X146320976Y-102052380D01*
X146511452Y-102052380D01*
X146587642Y-102004761D01*
X146625738Y-101957142D01*
X146663833Y-101861904D01*
X146663833Y-101766666D01*
X146625738Y-101671428D01*
X146587642Y-101623809D01*
X146511452Y-101576190D01*
X146359071Y-101528571D01*
X146282880Y-101480952D01*
X146244785Y-101433333D01*
X146206690Y-101338095D01*
X146206690Y-101242857D01*
X146244785Y-101147619D01*
X146282880Y-101100000D01*
X146359071Y-101052380D01*
X146549547Y-101052380D01*
X146663833Y-101100000D01*
X147006690Y-102052380D02*
X147006690Y-101052380D01*
X147311452Y-102433333D02*
X147349547Y-102385714D01*
X147425738Y-102242857D01*
X147463833Y-102147619D01*
X147501928Y-102004761D01*
X147540023Y-101766666D01*
X147540023Y-101576190D01*
X147501928Y-101338095D01*
X147463833Y-101195238D01*
X147425738Y-101100000D01*
X147349547Y-100957142D01*
X147311452Y-100909523D01*
X142816214Y-103640000D02*
X142740023Y-103592380D01*
X142625738Y-103592380D01*
X142511452Y-103640000D01*
X142435261Y-103735238D01*
X142397166Y-103830476D01*
X142359071Y-104020952D01*
X142359071Y-104163809D01*
X142397166Y-104354285D01*
X142435261Y-104449523D01*
X142511452Y-104544761D01*
X142625738Y-104592380D01*
X142701928Y-104592380D01*
X142816214Y-104544761D01*
X142854309Y-104497142D01*
X142854309Y-104163809D01*
X142701928Y-104163809D01*
X143235261Y-104592380D02*
X143387642Y-104592380D01*
X143463833Y-104544761D01*
X143501928Y-104497142D01*
X143578119Y-104354285D01*
X143616214Y-104163809D01*
X143616214Y-103782857D01*
X143578119Y-103687619D01*
X143540023Y-103640000D01*
X143463833Y-103592380D01*
X143311452Y-103592380D01*
X143235261Y-103640000D01*
X143197166Y-103687619D01*
X143159071Y-103782857D01*
X143159071Y-104020952D01*
X143197166Y-104116190D01*
X143235261Y-104163809D01*
X143311452Y-104211428D01*
X143463833Y-104211428D01*
X143540023Y-104163809D01*
X143578119Y-104116190D01*
X143616214Y-104020952D01*
X144187642Y-104973333D02*
X144149547Y-104925714D01*
X144073357Y-104782857D01*
X144035261Y-104687619D01*
X143997166Y-104544761D01*
X143959071Y-104306666D01*
X143959071Y-104116190D01*
X143997166Y-103878095D01*
X144035261Y-103735238D01*
X144073357Y-103640000D01*
X144149547Y-103497142D01*
X144187642Y-103449523D01*
X144492404Y-104592380D02*
X144492404Y-103592380D01*
X144759071Y-104306666D01*
X145025738Y-103592380D01*
X145025738Y-104592380D01*
X145406690Y-104592380D02*
X145406690Y-103592380D01*
X145749547Y-104544761D02*
X145863833Y-104592380D01*
X146054309Y-104592380D01*
X146130500Y-104544761D01*
X146168595Y-104497142D01*
X146206690Y-104401904D01*
X146206690Y-104306666D01*
X146168595Y-104211428D01*
X146130500Y-104163809D01*
X146054309Y-104116190D01*
X145901928Y-104068571D01*
X145825738Y-104020952D01*
X145787642Y-103973333D01*
X145749547Y-103878095D01*
X145749547Y-103782857D01*
X145787642Y-103687619D01*
X145825738Y-103640000D01*
X145901928Y-103592380D01*
X146092404Y-103592380D01*
X146206690Y-103640000D01*
X146701928Y-103592380D02*
X146854309Y-103592380D01*
X146930500Y-103640000D01*
X147006690Y-103735238D01*
X147044785Y-103925714D01*
X147044785Y-104259047D01*
X147006690Y-104449523D01*
X146930500Y-104544761D01*
X146854309Y-104592380D01*
X146701928Y-104592380D01*
X146625738Y-104544761D01*
X146549547Y-104449523D01*
X146511452Y-104259047D01*
X146511452Y-103925714D01*
X146549547Y-103735238D01*
X146625738Y-103640000D01*
X146701928Y-103592380D01*
X147311452Y-104973333D02*
X147349547Y-104925714D01*
X147425738Y-104782857D01*
X147463833Y-104687619D01*
X147501928Y-104544761D01*
X147540023Y-104306666D01*
X147540023Y-104116190D01*
X147501928Y-103878095D01*
X147463833Y-103735238D01*
X147425738Y-103640000D01*
X147349547Y-103497142D01*
X147311452Y-103449523D01*
X141940023Y-106180000D02*
X141863833Y-106132380D01*
X141749547Y-106132380D01*
X141635261Y-106180000D01*
X141559071Y-106275238D01*
X141520976Y-106370476D01*
X141482880Y-106560952D01*
X141482880Y-106703809D01*
X141520976Y-106894285D01*
X141559071Y-106989523D01*
X141635261Y-107084761D01*
X141749547Y-107132380D01*
X141825738Y-107132380D01*
X141940023Y-107084761D01*
X141978119Y-107037142D01*
X141978119Y-106703809D01*
X141825738Y-106703809D01*
X142740023Y-107132380D02*
X142282880Y-107132380D01*
X142511452Y-107132380D02*
X142511452Y-106132380D01*
X142435261Y-106275238D01*
X142359071Y-106370476D01*
X142282880Y-106418095D01*
X143501928Y-107132380D02*
X143044785Y-107132380D01*
X143273357Y-107132380D02*
X143273357Y-106132380D01*
X143197166Y-106275238D01*
X143120976Y-106370476D01*
X143044785Y-106418095D01*
X144073357Y-107513333D02*
X144035261Y-107465714D01*
X143959071Y-107322857D01*
X143920976Y-107227619D01*
X143882880Y-107084761D01*
X143844785Y-106846666D01*
X143844785Y-106656190D01*
X143882880Y-106418095D01*
X143920976Y-106275238D01*
X143959071Y-106180000D01*
X144035261Y-106037142D01*
X144073357Y-105989523D01*
X144340023Y-107084761D02*
X144454309Y-107132380D01*
X144644785Y-107132380D01*
X144720976Y-107084761D01*
X144759071Y-107037142D01*
X144797166Y-106941904D01*
X144797166Y-106846666D01*
X144759071Y-106751428D01*
X144720976Y-106703809D01*
X144644785Y-106656190D01*
X144492404Y-106608571D01*
X144416214Y-106560952D01*
X144378119Y-106513333D01*
X144340023Y-106418095D01*
X144340023Y-106322857D01*
X144378119Y-106227619D01*
X144416214Y-106180000D01*
X144492404Y-106132380D01*
X144682880Y-106132380D01*
X144797166Y-106180000D01*
X145597166Y-107037142D02*
X145559071Y-107084761D01*
X145444785Y-107132380D01*
X145368595Y-107132380D01*
X145254309Y-107084761D01*
X145178119Y-106989523D01*
X145140023Y-106894285D01*
X145101928Y-106703809D01*
X145101928Y-106560952D01*
X145140023Y-106370476D01*
X145178119Y-106275238D01*
X145254309Y-106180000D01*
X145368595Y-106132380D01*
X145444785Y-106132380D01*
X145559071Y-106180000D01*
X145597166Y-106227619D01*
X146320976Y-107132380D02*
X145940023Y-107132380D01*
X145940023Y-106132380D01*
X146587642Y-107132380D02*
X146587642Y-106132380D01*
X147044785Y-107132380D02*
X146701928Y-106560952D01*
X147044785Y-106132380D02*
X146587642Y-106703809D01*
X147311452Y-107513333D02*
X147349547Y-107465714D01*
X147425738Y-107322857D01*
X147463833Y-107227619D01*
X147501928Y-107084761D01*
X147540023Y-106846666D01*
X147540023Y-106656190D01*
X147501928Y-106418095D01*
X147463833Y-106275238D01*
X147425738Y-106180000D01*
X147349547Y-106037142D01*
X147311452Y-105989523D01*
X145444785Y-108720000D02*
X145349547Y-108672380D01*
X145206690Y-108672380D01*
X145063833Y-108720000D01*
X144968595Y-108815238D01*
X144920976Y-108910476D01*
X144873357Y-109100952D01*
X144873357Y-109243809D01*
X144920976Y-109434285D01*
X144968595Y-109529523D01*
X145063833Y-109624761D01*
X145206690Y-109672380D01*
X145301928Y-109672380D01*
X145444785Y-109624761D01*
X145492404Y-109577142D01*
X145492404Y-109243809D01*
X145301928Y-109243809D01*
X145920976Y-109672380D02*
X145920976Y-108672380D01*
X146492404Y-109672380D01*
X146492404Y-108672380D01*
X146968595Y-109672380D02*
X146968595Y-108672380D01*
X147206690Y-108672380D01*
X147349547Y-108720000D01*
X147444785Y-108815238D01*
X147492404Y-108910476D01*
X147540023Y-109100952D01*
X147540023Y-109243809D01*
X147492404Y-109434285D01*
X147444785Y-109529523D01*
X147349547Y-109624761D01*
X147206690Y-109672380D01*
X146968595Y-109672380D01*
X178659404Y-126500000D02*
X178564166Y-126452380D01*
X178421309Y-126452380D01*
X178278452Y-126500000D01*
X178183214Y-126595238D01*
X178135595Y-126690476D01*
X178087976Y-126880952D01*
X178087976Y-127023809D01*
X178135595Y-127214285D01*
X178183214Y-127309523D01*
X178278452Y-127404761D01*
X178421309Y-127452380D01*
X178516547Y-127452380D01*
X178659404Y-127404761D01*
X178707023Y-127357142D01*
X178707023Y-127023809D01*
X178516547Y-127023809D01*
X179087976Y-126547619D02*
X179135595Y-126500000D01*
X179230833Y-126452380D01*
X179468928Y-126452380D01*
X179564166Y-126500000D01*
X179611785Y-126547619D01*
X179659404Y-126642857D01*
X179659404Y-126738095D01*
X179611785Y-126880952D01*
X179040357Y-127452380D01*
X179659404Y-127452380D01*
X180611785Y-127452380D02*
X180040357Y-127452380D01*
X180326071Y-127452380D02*
X180326071Y-126452380D01*
X180230833Y-126595238D01*
X180135595Y-126690476D01*
X180040357Y-126738095D01*
X178659404Y-123960000D02*
X178564166Y-123912380D01*
X178421309Y-123912380D01*
X178278452Y-123960000D01*
X178183214Y-124055238D01*
X178135595Y-124150476D01*
X178087976Y-124340952D01*
X178087976Y-124483809D01*
X178135595Y-124674285D01*
X178183214Y-124769523D01*
X178278452Y-124864761D01*
X178421309Y-124912380D01*
X178516547Y-124912380D01*
X178659404Y-124864761D01*
X178707023Y-124817142D01*
X178707023Y-124483809D01*
X178516547Y-124483809D01*
X179087976Y-124007619D02*
X179135595Y-123960000D01*
X179230833Y-123912380D01*
X179468928Y-123912380D01*
X179564166Y-123960000D01*
X179611785Y-124007619D01*
X179659404Y-124102857D01*
X179659404Y-124198095D01*
X179611785Y-124340952D01*
X179040357Y-124912380D01*
X179659404Y-124912380D01*
X180278452Y-123912380D02*
X180373690Y-123912380D01*
X180468928Y-123960000D01*
X180516547Y-124007619D01*
X180564166Y-124102857D01*
X180611785Y-124293333D01*
X180611785Y-124531428D01*
X180564166Y-124721904D01*
X180516547Y-124817142D01*
X180468928Y-124864761D01*
X180373690Y-124912380D01*
X180278452Y-124912380D01*
X180183214Y-124864761D01*
X180135595Y-124817142D01*
X180087976Y-124721904D01*
X180040357Y-124531428D01*
X180040357Y-124293333D01*
X180087976Y-124102857D01*
X180135595Y-124007619D01*
X180183214Y-123960000D01*
X180278452Y-123912380D01*
X178659404Y-121420000D02*
X178564166Y-121372380D01*
X178421309Y-121372380D01*
X178278452Y-121420000D01*
X178183214Y-121515238D01*
X178135595Y-121610476D01*
X178087976Y-121800952D01*
X178087976Y-121943809D01*
X178135595Y-122134285D01*
X178183214Y-122229523D01*
X178278452Y-122324761D01*
X178421309Y-122372380D01*
X178516547Y-122372380D01*
X178659404Y-122324761D01*
X178707023Y-122277142D01*
X178707023Y-121943809D01*
X178516547Y-121943809D01*
X179659404Y-122372380D02*
X179087976Y-122372380D01*
X179373690Y-122372380D02*
X179373690Y-121372380D01*
X179278452Y-121515238D01*
X179183214Y-121610476D01*
X179087976Y-121658095D01*
X180516547Y-121372380D02*
X180326071Y-121372380D01*
X180230833Y-121420000D01*
X180183214Y-121467619D01*
X180087976Y-121610476D01*
X180040357Y-121800952D01*
X180040357Y-122181904D01*
X180087976Y-122277142D01*
X180135595Y-122324761D01*
X180230833Y-122372380D01*
X180421309Y-122372380D01*
X180516547Y-122324761D01*
X180564166Y-122277142D01*
X180611785Y-122181904D01*
X180611785Y-121943809D01*
X180564166Y-121848571D01*
X180516547Y-121800952D01*
X180421309Y-121753333D01*
X180230833Y-121753333D01*
X180135595Y-121800952D01*
X180087976Y-121848571D01*
X180040357Y-121943809D01*
X178659404Y-118880000D02*
X178564166Y-118832380D01*
X178421309Y-118832380D01*
X178278452Y-118880000D01*
X178183214Y-118975238D01*
X178135595Y-119070476D01*
X178087976Y-119260952D01*
X178087976Y-119403809D01*
X178135595Y-119594285D01*
X178183214Y-119689523D01*
X178278452Y-119784761D01*
X178421309Y-119832380D01*
X178516547Y-119832380D01*
X178659404Y-119784761D01*
X178707023Y-119737142D01*
X178707023Y-119403809D01*
X178516547Y-119403809D01*
X179135595Y-119832380D02*
X179135595Y-118832380D01*
X179707023Y-119832380D01*
X179707023Y-118832380D01*
X180183214Y-119832380D02*
X180183214Y-118832380D01*
X180421309Y-118832380D01*
X180564166Y-118880000D01*
X180659404Y-118975238D01*
X180707023Y-119070476D01*
X180754642Y-119260952D01*
X180754642Y-119403809D01*
X180707023Y-119594285D01*
X180659404Y-119689523D01*
X180564166Y-119784761D01*
X180421309Y-119832380D01*
X180183214Y-119832380D01*
X178659404Y-116340000D02*
X178564166Y-116292380D01*
X178421309Y-116292380D01*
X178278452Y-116340000D01*
X178183214Y-116435238D01*
X178135595Y-116530476D01*
X178087976Y-116720952D01*
X178087976Y-116863809D01*
X178135595Y-117054285D01*
X178183214Y-117149523D01*
X178278452Y-117244761D01*
X178421309Y-117292380D01*
X178516547Y-117292380D01*
X178659404Y-117244761D01*
X178707023Y-117197142D01*
X178707023Y-116863809D01*
X178516547Y-116863809D01*
X179659404Y-117292380D02*
X179087976Y-117292380D01*
X179373690Y-117292380D02*
X179373690Y-116292380D01*
X179278452Y-116435238D01*
X179183214Y-116530476D01*
X179087976Y-116578095D01*
X180040357Y-116387619D02*
X180087976Y-116340000D01*
X180183214Y-116292380D01*
X180421309Y-116292380D01*
X180516547Y-116340000D01*
X180564166Y-116387619D01*
X180611785Y-116482857D01*
X180611785Y-116578095D01*
X180564166Y-116720952D01*
X179992738Y-117292380D01*
X180611785Y-117292380D01*
X178659404Y-113800000D02*
X178564166Y-113752380D01*
X178421309Y-113752380D01*
X178278452Y-113800000D01*
X178183214Y-113895238D01*
X178135595Y-113990476D01*
X178087976Y-114180952D01*
X178087976Y-114323809D01*
X178135595Y-114514285D01*
X178183214Y-114609523D01*
X178278452Y-114704761D01*
X178421309Y-114752380D01*
X178516547Y-114752380D01*
X178659404Y-114704761D01*
X178707023Y-114657142D01*
X178707023Y-114323809D01*
X178516547Y-114323809D01*
X179135595Y-114752380D02*
X179135595Y-113752380D01*
X179707023Y-114752380D01*
X179707023Y-113752380D01*
X180183214Y-114752380D02*
X180183214Y-113752380D01*
X180421309Y-113752380D01*
X180564166Y-113800000D01*
X180659404Y-113895238D01*
X180707023Y-113990476D01*
X180754642Y-114180952D01*
X180754642Y-114323809D01*
X180707023Y-114514285D01*
X180659404Y-114609523D01*
X180564166Y-114704761D01*
X180421309Y-114752380D01*
X180183214Y-114752380D01*
X178087976Y-112212380D02*
X178087976Y-111212380D01*
X178468928Y-112212380D02*
X178468928Y-111212380D01*
X178659404Y-111212380D01*
X178773690Y-111260000D01*
X178849880Y-111355238D01*
X178887976Y-111450476D01*
X178926071Y-111640952D01*
X178926071Y-111783809D01*
X178887976Y-111974285D01*
X178849880Y-112069523D01*
X178773690Y-112164761D01*
X178659404Y-112212380D01*
X178468928Y-112212380D01*
X179078452Y-112307619D02*
X179687976Y-112307619D01*
X179840357Y-112164761D02*
X179954642Y-112212380D01*
X180145119Y-112212380D01*
X180221309Y-112164761D01*
X180259404Y-112117142D01*
X180297500Y-112021904D01*
X180297500Y-111926666D01*
X180259404Y-111831428D01*
X180221309Y-111783809D01*
X180145119Y-111736190D01*
X179992738Y-111688571D01*
X179916547Y-111640952D01*
X179878452Y-111593333D01*
X179840357Y-111498095D01*
X179840357Y-111402857D01*
X179878452Y-111307619D01*
X179916547Y-111260000D01*
X179992738Y-111212380D01*
X180183214Y-111212380D01*
X180297500Y-111260000D01*
X181097500Y-112117142D02*
X181059404Y-112164761D01*
X180945119Y-112212380D01*
X180868928Y-112212380D01*
X180754642Y-112164761D01*
X180678452Y-112069523D01*
X180640357Y-111974285D01*
X180602261Y-111783809D01*
X180602261Y-111640952D01*
X180640357Y-111450476D01*
X180678452Y-111355238D01*
X180754642Y-111260000D01*
X180868928Y-111212380D01*
X180945119Y-111212380D01*
X181059404Y-111260000D01*
X181097500Y-111307619D01*
X178507023Y-108720000D02*
X178430833Y-108672380D01*
X178316547Y-108672380D01*
X178202261Y-108720000D01*
X178126071Y-108815238D01*
X178087976Y-108910476D01*
X178049880Y-109100952D01*
X178049880Y-109243809D01*
X178087976Y-109434285D01*
X178126071Y-109529523D01*
X178202261Y-109624761D01*
X178316547Y-109672380D01*
X178392738Y-109672380D01*
X178507023Y-109624761D01*
X178545119Y-109577142D01*
X178545119Y-109243809D01*
X178392738Y-109243809D01*
X178811785Y-108672380D02*
X179345119Y-108672380D01*
X179002261Y-109672380D01*
X179878452Y-110053333D02*
X179840357Y-110005714D01*
X179764166Y-109862857D01*
X179726071Y-109767619D01*
X179687976Y-109624761D01*
X179649880Y-109386666D01*
X179649880Y-109196190D01*
X179687976Y-108958095D01*
X179726071Y-108815238D01*
X179764166Y-108720000D01*
X179840357Y-108577142D01*
X179878452Y-108529523D01*
X180640357Y-109577142D02*
X180602261Y-109624761D01*
X180487976Y-109672380D01*
X180411785Y-109672380D01*
X180297500Y-109624761D01*
X180221309Y-109529523D01*
X180183214Y-109434285D01*
X180145119Y-109243809D01*
X180145119Y-109100952D01*
X180183214Y-108910476D01*
X180221309Y-108815238D01*
X180297500Y-108720000D01*
X180411785Y-108672380D01*
X180487976Y-108672380D01*
X180602261Y-108720000D01*
X180640357Y-108767619D01*
X180983214Y-109148571D02*
X181249880Y-109148571D01*
X181364166Y-109672380D02*
X180983214Y-109672380D01*
X180983214Y-108672380D01*
X181364166Y-108672380D01*
X182126071Y-109672380D02*
X181668928Y-109672380D01*
X181897500Y-109672380D02*
X181897500Y-108672380D01*
X181821309Y-108815238D01*
X181745119Y-108910476D01*
X181668928Y-108958095D01*
X182392738Y-110053333D02*
X182430833Y-110005714D01*
X182507023Y-109862857D01*
X182545119Y-109767619D01*
X182583214Y-109624761D01*
X182621309Y-109386666D01*
X182621309Y-109196190D01*
X182583214Y-108958095D01*
X182545119Y-108815238D01*
X182507023Y-108720000D01*
X182430833Y-108577142D01*
X182392738Y-108529523D01*
X178507023Y-106180000D02*
X178430833Y-106132380D01*
X178316547Y-106132380D01*
X178202261Y-106180000D01*
X178126071Y-106275238D01*
X178087976Y-106370476D01*
X178049880Y-106560952D01*
X178049880Y-106703809D01*
X178087976Y-106894285D01*
X178126071Y-106989523D01*
X178202261Y-107084761D01*
X178316547Y-107132380D01*
X178392738Y-107132380D01*
X178507023Y-107084761D01*
X178545119Y-107037142D01*
X178545119Y-106703809D01*
X178392738Y-106703809D01*
X179002261Y-106560952D02*
X178926071Y-106513333D01*
X178887976Y-106465714D01*
X178849880Y-106370476D01*
X178849880Y-106322857D01*
X178887976Y-106227619D01*
X178926071Y-106180000D01*
X179002261Y-106132380D01*
X179154642Y-106132380D01*
X179230833Y-106180000D01*
X179268928Y-106227619D01*
X179307023Y-106322857D01*
X179307023Y-106370476D01*
X179268928Y-106465714D01*
X179230833Y-106513333D01*
X179154642Y-106560952D01*
X179002261Y-106560952D01*
X178926071Y-106608571D01*
X178887976Y-106656190D01*
X178849880Y-106751428D01*
X178849880Y-106941904D01*
X178887976Y-107037142D01*
X178926071Y-107084761D01*
X179002261Y-107132380D01*
X179154642Y-107132380D01*
X179230833Y-107084761D01*
X179268928Y-107037142D01*
X179307023Y-106941904D01*
X179307023Y-106751428D01*
X179268928Y-106656190D01*
X179230833Y-106608571D01*
X179154642Y-106560952D01*
X179878452Y-107513333D02*
X179840357Y-107465714D01*
X179764166Y-107322857D01*
X179726071Y-107227619D01*
X179687976Y-107084761D01*
X179649880Y-106846666D01*
X179649880Y-106656190D01*
X179687976Y-106418095D01*
X179726071Y-106275238D01*
X179764166Y-106180000D01*
X179840357Y-106037142D01*
X179878452Y-105989523D01*
X180640357Y-107037142D02*
X180602261Y-107084761D01*
X180487976Y-107132380D01*
X180411785Y-107132380D01*
X180297500Y-107084761D01*
X180221309Y-106989523D01*
X180183214Y-106894285D01*
X180145119Y-106703809D01*
X180145119Y-106560952D01*
X180183214Y-106370476D01*
X180221309Y-106275238D01*
X180297500Y-106180000D01*
X180411785Y-106132380D01*
X180487976Y-106132380D01*
X180602261Y-106180000D01*
X180640357Y-106227619D01*
X180983214Y-106608571D02*
X181249880Y-106608571D01*
X181364166Y-107132380D02*
X180983214Y-107132380D01*
X180983214Y-106132380D01*
X181364166Y-106132380D01*
X181859404Y-106132380D02*
X181935595Y-106132380D01*
X182011785Y-106180000D01*
X182049880Y-106227619D01*
X182087976Y-106322857D01*
X182126071Y-106513333D01*
X182126071Y-106751428D01*
X182087976Y-106941904D01*
X182049880Y-107037142D01*
X182011785Y-107084761D01*
X181935595Y-107132380D01*
X181859404Y-107132380D01*
X181783214Y-107084761D01*
X181745119Y-107037142D01*
X181707023Y-106941904D01*
X181668928Y-106751428D01*
X181668928Y-106513333D01*
X181707023Y-106322857D01*
X181745119Y-106227619D01*
X181783214Y-106180000D01*
X181859404Y-106132380D01*
X182392738Y-107513333D02*
X182430833Y-107465714D01*
X182507023Y-107322857D01*
X182545119Y-107227619D01*
X182583214Y-107084761D01*
X182621309Y-106846666D01*
X182621309Y-106656190D01*
X182583214Y-106418095D01*
X182545119Y-106275238D01*
X182507023Y-106180000D01*
X182430833Y-106037142D01*
X182392738Y-105989523D01*
X178659404Y-103640000D02*
X178564166Y-103592380D01*
X178421309Y-103592380D01*
X178278452Y-103640000D01*
X178183214Y-103735238D01*
X178135595Y-103830476D01*
X178087976Y-104020952D01*
X178087976Y-104163809D01*
X178135595Y-104354285D01*
X178183214Y-104449523D01*
X178278452Y-104544761D01*
X178421309Y-104592380D01*
X178516547Y-104592380D01*
X178659404Y-104544761D01*
X178707023Y-104497142D01*
X178707023Y-104163809D01*
X178516547Y-104163809D01*
X179087976Y-103687619D02*
X179135595Y-103640000D01*
X179230833Y-103592380D01*
X179468928Y-103592380D01*
X179564166Y-103640000D01*
X179611785Y-103687619D01*
X179659404Y-103782857D01*
X179659404Y-103878095D01*
X179611785Y-104020952D01*
X179040357Y-104592380D01*
X179659404Y-104592380D01*
X180564166Y-103592380D02*
X180087976Y-103592380D01*
X180040357Y-104068571D01*
X180087976Y-104020952D01*
X180183214Y-103973333D01*
X180421309Y-103973333D01*
X180516547Y-104020952D01*
X180564166Y-104068571D01*
X180611785Y-104163809D01*
X180611785Y-104401904D01*
X180564166Y-104497142D01*
X180516547Y-104544761D01*
X180421309Y-104592380D01*
X180183214Y-104592380D01*
X180087976Y-104544761D01*
X180040357Y-104497142D01*
X178659404Y-101100000D02*
X178564166Y-101052380D01*
X178421309Y-101052380D01*
X178278452Y-101100000D01*
X178183214Y-101195238D01*
X178135595Y-101290476D01*
X178087976Y-101480952D01*
X178087976Y-101623809D01*
X178135595Y-101814285D01*
X178183214Y-101909523D01*
X178278452Y-102004761D01*
X178421309Y-102052380D01*
X178516547Y-102052380D01*
X178659404Y-102004761D01*
X178707023Y-101957142D01*
X178707023Y-101623809D01*
X178516547Y-101623809D01*
X179135595Y-102052380D02*
X179135595Y-101052380D01*
X179707023Y-102052380D01*
X179707023Y-101052380D01*
X180183214Y-102052380D02*
X180183214Y-101052380D01*
X180421309Y-101052380D01*
X180564166Y-101100000D01*
X180659404Y-101195238D01*
X180707023Y-101290476D01*
X180754642Y-101480952D01*
X180754642Y-101623809D01*
X180707023Y-101814285D01*
X180659404Y-101909523D01*
X180564166Y-102004761D01*
X180421309Y-102052380D01*
X180183214Y-102052380D01*
X178659404Y-98560000D02*
X178564166Y-98512380D01*
X178421309Y-98512380D01*
X178278452Y-98560000D01*
X178183214Y-98655238D01*
X178135595Y-98750476D01*
X178087976Y-98940952D01*
X178087976Y-99083809D01*
X178135595Y-99274285D01*
X178183214Y-99369523D01*
X178278452Y-99464761D01*
X178421309Y-99512380D01*
X178516547Y-99512380D01*
X178659404Y-99464761D01*
X178707023Y-99417142D01*
X178707023Y-99083809D01*
X178516547Y-99083809D01*
X179087976Y-98607619D02*
X179135595Y-98560000D01*
X179230833Y-98512380D01*
X179468928Y-98512380D01*
X179564166Y-98560000D01*
X179611785Y-98607619D01*
X179659404Y-98702857D01*
X179659404Y-98798095D01*
X179611785Y-98940952D01*
X179040357Y-99512380D01*
X179659404Y-99512380D01*
X180516547Y-98845714D02*
X180516547Y-99512380D01*
X180278452Y-98464761D02*
X180040357Y-99179047D01*
X180659404Y-99179047D01*
X178659404Y-96020000D02*
X178564166Y-95972380D01*
X178421309Y-95972380D01*
X178278452Y-96020000D01*
X178183214Y-96115238D01*
X178135595Y-96210476D01*
X178087976Y-96400952D01*
X178087976Y-96543809D01*
X178135595Y-96734285D01*
X178183214Y-96829523D01*
X178278452Y-96924761D01*
X178421309Y-96972380D01*
X178516547Y-96972380D01*
X178659404Y-96924761D01*
X178707023Y-96877142D01*
X178707023Y-96543809D01*
X178516547Y-96543809D01*
X179087976Y-96067619D02*
X179135595Y-96020000D01*
X179230833Y-95972380D01*
X179468928Y-95972380D01*
X179564166Y-96020000D01*
X179611785Y-96067619D01*
X179659404Y-96162857D01*
X179659404Y-96258095D01*
X179611785Y-96400952D01*
X179040357Y-96972380D01*
X179659404Y-96972380D01*
X179992738Y-95972380D02*
X180611785Y-95972380D01*
X180278452Y-96353333D01*
X180421309Y-96353333D01*
X180516547Y-96400952D01*
X180564166Y-96448571D01*
X180611785Y-96543809D01*
X180611785Y-96781904D01*
X180564166Y-96877142D01*
X180516547Y-96924761D01*
X180421309Y-96972380D01*
X180135595Y-96972380D01*
X180040357Y-96924761D01*
X179992738Y-96877142D01*
X178659404Y-93480000D02*
X178564166Y-93432380D01*
X178421309Y-93432380D01*
X178278452Y-93480000D01*
X178183214Y-93575238D01*
X178135595Y-93670476D01*
X178087976Y-93860952D01*
X178087976Y-94003809D01*
X178135595Y-94194285D01*
X178183214Y-94289523D01*
X178278452Y-94384761D01*
X178421309Y-94432380D01*
X178516547Y-94432380D01*
X178659404Y-94384761D01*
X178707023Y-94337142D01*
X178707023Y-94003809D01*
X178516547Y-94003809D01*
X179135595Y-94432380D02*
X179135595Y-93432380D01*
X179707023Y-94432380D01*
X179707023Y-93432380D01*
X180183214Y-94432380D02*
X180183214Y-93432380D01*
X180421309Y-93432380D01*
X180564166Y-93480000D01*
X180659404Y-93575238D01*
X180707023Y-93670476D01*
X180754642Y-93860952D01*
X180754642Y-94003809D01*
X180707023Y-94194285D01*
X180659404Y-94289523D01*
X180564166Y-94384761D01*
X180421309Y-94432380D01*
X180183214Y-94432380D01*
X178659404Y-90940000D02*
X178564166Y-90892380D01*
X178421309Y-90892380D01*
X178278452Y-90940000D01*
X178183214Y-91035238D01*
X178135595Y-91130476D01*
X178087976Y-91320952D01*
X178087976Y-91463809D01*
X178135595Y-91654285D01*
X178183214Y-91749523D01*
X178278452Y-91844761D01*
X178421309Y-91892380D01*
X178516547Y-91892380D01*
X178659404Y-91844761D01*
X178707023Y-91797142D01*
X178707023Y-91463809D01*
X178516547Y-91463809D01*
X179659404Y-91892380D02*
X179087976Y-91892380D01*
X179373690Y-91892380D02*
X179373690Y-90892380D01*
X179278452Y-91035238D01*
X179183214Y-91130476D01*
X179087976Y-91178095D01*
X180230833Y-91320952D02*
X180135595Y-91273333D01*
X180087976Y-91225714D01*
X180040357Y-91130476D01*
X180040357Y-91082857D01*
X180087976Y-90987619D01*
X180135595Y-90940000D01*
X180230833Y-90892380D01*
X180421309Y-90892380D01*
X180516547Y-90940000D01*
X180564166Y-90987619D01*
X180611785Y-91082857D01*
X180611785Y-91130476D01*
X180564166Y-91225714D01*
X180516547Y-91273333D01*
X180421309Y-91320952D01*
X180230833Y-91320952D01*
X180135595Y-91368571D01*
X180087976Y-91416190D01*
X180040357Y-91511428D01*
X180040357Y-91701904D01*
X180087976Y-91797142D01*
X180135595Y-91844761D01*
X180230833Y-91892380D01*
X180421309Y-91892380D01*
X180516547Y-91844761D01*
X180564166Y-91797142D01*
X180611785Y-91701904D01*
X180611785Y-91511428D01*
X180564166Y-91416190D01*
X180516547Y-91368571D01*
X180421309Y-91320952D01*
X178507023Y-88400000D02*
X178430833Y-88352380D01*
X178316547Y-88352380D01*
X178202261Y-88400000D01*
X178126071Y-88495238D01*
X178087976Y-88590476D01*
X178049880Y-88780952D01*
X178049880Y-88923809D01*
X178087976Y-89114285D01*
X178126071Y-89209523D01*
X178202261Y-89304761D01*
X178316547Y-89352380D01*
X178392738Y-89352380D01*
X178507023Y-89304761D01*
X178545119Y-89257142D01*
X178545119Y-88923809D01*
X178392738Y-88923809D01*
X179307023Y-89352380D02*
X178849880Y-89352380D01*
X179078452Y-89352380D02*
X179078452Y-88352380D01*
X179002261Y-88495238D01*
X178926071Y-88590476D01*
X178849880Y-88638095D01*
X180030833Y-88352380D02*
X179649880Y-88352380D01*
X179611785Y-88828571D01*
X179649880Y-88780952D01*
X179726071Y-88733333D01*
X179916547Y-88733333D01*
X179992738Y-88780952D01*
X180030833Y-88828571D01*
X180068928Y-88923809D01*
X180068928Y-89161904D01*
X180030833Y-89257142D01*
X179992738Y-89304761D01*
X179916547Y-89352380D01*
X179726071Y-89352380D01*
X179649880Y-89304761D01*
X179611785Y-89257142D01*
X180640357Y-89733333D02*
X180602261Y-89685714D01*
X180526071Y-89542857D01*
X180487976Y-89447619D01*
X180449880Y-89304761D01*
X180411785Y-89066666D01*
X180411785Y-88876190D01*
X180449880Y-88638095D01*
X180487976Y-88495238D01*
X180526071Y-88400000D01*
X180602261Y-88257142D01*
X180640357Y-88209523D01*
X181402261Y-89352380D02*
X181135595Y-88876190D01*
X180945119Y-89352380D02*
X180945119Y-88352380D01*
X181249880Y-88352380D01*
X181326071Y-88400000D01*
X181364166Y-88447619D01*
X181402261Y-88542857D01*
X181402261Y-88685714D01*
X181364166Y-88780952D01*
X181326071Y-88828571D01*
X181249880Y-88876190D01*
X180945119Y-88876190D01*
X181668928Y-88352380D02*
X182202261Y-89352380D01*
X182202261Y-88352380D02*
X181668928Y-89352380D01*
X182507023Y-89352380D02*
X182507023Y-88352380D01*
X182697500Y-88352380D01*
X182811785Y-88400000D01*
X182887976Y-88495238D01*
X182926071Y-88590476D01*
X182964166Y-88780952D01*
X182964166Y-88923809D01*
X182926071Y-89114285D01*
X182887976Y-89209523D01*
X182811785Y-89304761D01*
X182697500Y-89352380D01*
X182507023Y-89352380D01*
X183459404Y-88352380D02*
X183535595Y-88352380D01*
X183611785Y-88400000D01*
X183649880Y-88447619D01*
X183687976Y-88542857D01*
X183726071Y-88733333D01*
X183726071Y-88971428D01*
X183687976Y-89161904D01*
X183649880Y-89257142D01*
X183611785Y-89304761D01*
X183535595Y-89352380D01*
X183459404Y-89352380D01*
X183383214Y-89304761D01*
X183345119Y-89257142D01*
X183307023Y-89161904D01*
X183268928Y-88971428D01*
X183268928Y-88733333D01*
X183307023Y-88542857D01*
X183345119Y-88447619D01*
X183383214Y-88400000D01*
X183459404Y-88352380D01*
X183992738Y-89733333D02*
X184030833Y-89685714D01*
X184107023Y-89542857D01*
X184145119Y-89447619D01*
X184183214Y-89304761D01*
X184221309Y-89066666D01*
X184221309Y-88876190D01*
X184183214Y-88638095D01*
X184145119Y-88495238D01*
X184107023Y-88400000D01*
X184030833Y-88257142D01*
X183992738Y-88209523D01*
X178507023Y-85860000D02*
X178430833Y-85812380D01*
X178316547Y-85812380D01*
X178202261Y-85860000D01*
X178126071Y-85955238D01*
X178087976Y-86050476D01*
X178049880Y-86240952D01*
X178049880Y-86383809D01*
X178087976Y-86574285D01*
X178126071Y-86669523D01*
X178202261Y-86764761D01*
X178316547Y-86812380D01*
X178392738Y-86812380D01*
X178507023Y-86764761D01*
X178545119Y-86717142D01*
X178545119Y-86383809D01*
X178392738Y-86383809D01*
X179307023Y-86812380D02*
X178849880Y-86812380D01*
X179078452Y-86812380D02*
X179078452Y-85812380D01*
X179002261Y-85955238D01*
X178926071Y-86050476D01*
X178849880Y-86098095D01*
X179992738Y-86145714D02*
X179992738Y-86812380D01*
X179802261Y-85764761D02*
X179611785Y-86479047D01*
X180107023Y-86479047D01*
X180640357Y-87193333D02*
X180602261Y-87145714D01*
X180526071Y-87002857D01*
X180487976Y-86907619D01*
X180449880Y-86764761D01*
X180411785Y-86526666D01*
X180411785Y-86336190D01*
X180449880Y-86098095D01*
X180487976Y-85955238D01*
X180526071Y-85860000D01*
X180602261Y-85717142D01*
X180640357Y-85669523D01*
X180830833Y-85812380D02*
X181287976Y-85812380D01*
X181059404Y-86812380D02*
X181059404Y-85812380D01*
X181478452Y-85812380D02*
X182011785Y-86812380D01*
X182011785Y-85812380D02*
X181478452Y-86812380D01*
X182316547Y-86812380D02*
X182316547Y-85812380D01*
X182507023Y-85812380D01*
X182621309Y-85860000D01*
X182697500Y-85955238D01*
X182735595Y-86050476D01*
X182773690Y-86240952D01*
X182773690Y-86383809D01*
X182735595Y-86574285D01*
X182697500Y-86669523D01*
X182621309Y-86764761D01*
X182507023Y-86812380D01*
X182316547Y-86812380D01*
X183268928Y-85812380D02*
X183345119Y-85812380D01*
X183421309Y-85860000D01*
X183459404Y-85907619D01*
X183497500Y-86002857D01*
X183535595Y-86193333D01*
X183535595Y-86431428D01*
X183497500Y-86621904D01*
X183459404Y-86717142D01*
X183421309Y-86764761D01*
X183345119Y-86812380D01*
X183268928Y-86812380D01*
X183192738Y-86764761D01*
X183154642Y-86717142D01*
X183116547Y-86621904D01*
X183078452Y-86431428D01*
X183078452Y-86193333D01*
X183116547Y-86002857D01*
X183154642Y-85907619D01*
X183192738Y-85860000D01*
X183268928Y-85812380D01*
X183802261Y-87193333D02*
X183840357Y-87145714D01*
X183916547Y-87002857D01*
X183954642Y-86907619D01*
X183992738Y-86764761D01*
X184030833Y-86526666D01*
X184030833Y-86336190D01*
X183992738Y-86098095D01*
X183954642Y-85955238D01*
X183916547Y-85860000D01*
X183840357Y-85717142D01*
X183802261Y-85669523D01*
X178659404Y-83320000D02*
X178564166Y-83272380D01*
X178421309Y-83272380D01*
X178278452Y-83320000D01*
X178183214Y-83415238D01*
X178135595Y-83510476D01*
X178087976Y-83700952D01*
X178087976Y-83843809D01*
X178135595Y-84034285D01*
X178183214Y-84129523D01*
X178278452Y-84224761D01*
X178421309Y-84272380D01*
X178516547Y-84272380D01*
X178659404Y-84224761D01*
X178707023Y-84177142D01*
X178707023Y-83843809D01*
X178516547Y-83843809D01*
X179135595Y-84272380D02*
X179135595Y-83272380D01*
X179707023Y-84272380D01*
X179707023Y-83272380D01*
X180183214Y-84272380D02*
X180183214Y-83272380D01*
X180421309Y-83272380D01*
X180564166Y-83320000D01*
X180659404Y-83415238D01*
X180707023Y-83510476D01*
X180754642Y-83700952D01*
X180754642Y-83843809D01*
X180707023Y-84034285D01*
X180659404Y-84129523D01*
X180564166Y-84224761D01*
X180421309Y-84272380D01*
X180183214Y-84272380D01*
X178611785Y-80732380D02*
X178135595Y-80732380D01*
X178087976Y-81208571D01*
X178135595Y-81160952D01*
X178230833Y-81113333D01*
X178468928Y-81113333D01*
X178564166Y-81160952D01*
X178611785Y-81208571D01*
X178659404Y-81303809D01*
X178659404Y-81541904D01*
X178611785Y-81637142D01*
X178564166Y-81684761D01*
X178468928Y-81732380D01*
X178230833Y-81732380D01*
X178135595Y-81684761D01*
X178087976Y-81637142D01*
X178945119Y-80732380D02*
X179278452Y-81732380D01*
X179611785Y-80732380D01*
X178611785Y-78192380D02*
X178135595Y-78192380D01*
X178087976Y-78668571D01*
X178135595Y-78620952D01*
X178230833Y-78573333D01*
X178468928Y-78573333D01*
X178564166Y-78620952D01*
X178611785Y-78668571D01*
X178659404Y-78763809D01*
X178659404Y-79001904D01*
X178611785Y-79097142D01*
X178564166Y-79144761D01*
X178468928Y-79192380D01*
X178230833Y-79192380D01*
X178135595Y-79144761D01*
X178087976Y-79097142D01*
X178945119Y-78192380D02*
X179278452Y-79192380D01*
X179611785Y-78192380D01*
D11*
X177347714Y-75255380D02*
X177014380Y-74779190D01*
X176776285Y-75255380D02*
X176776285Y-74255380D01*
X177157238Y-74255380D01*
X177252476Y-74303000D01*
X177300095Y-74350619D01*
X177347714Y-74445857D01*
X177347714Y-74588714D01*
X177300095Y-74683952D01*
X177252476Y-74731571D01*
X177157238Y-74779190D01*
X176776285Y-74779190D01*
X178157238Y-75207761D02*
X178062000Y-75255380D01*
X177871523Y-75255380D01*
X177776285Y-75207761D01*
X177728666Y-75112523D01*
X177728666Y-74731571D01*
X177776285Y-74636333D01*
X177871523Y-74588714D01*
X178062000Y-74588714D01*
X178157238Y-74636333D01*
X178204857Y-74731571D01*
X178204857Y-74826809D01*
X177728666Y-74922047D01*
X178538190Y-74588714D02*
X178776285Y-75255380D01*
X179014380Y-74588714D01*
X179395333Y-75160142D02*
X179442952Y-75207761D01*
X179395333Y-75255380D01*
X179347714Y-75207761D01*
X179395333Y-75160142D01*
X179395333Y-75255380D01*
X180300095Y-74588714D02*
X180300095Y-75255380D01*
X180062000Y-74207761D02*
X179823904Y-74922047D01*
X180442952Y-74922047D01*
D12*
X146492285Y-75227571D02*
X145992285Y-74513285D01*
X145635142Y-75227571D02*
X145635142Y-73727571D01*
X146206571Y-73727571D01*
X146349428Y-73799000D01*
X146420857Y-73870428D01*
X146492285Y-74013285D01*
X146492285Y-74227571D01*
X146420857Y-74370428D01*
X146349428Y-74441857D01*
X146206571Y-74513285D01*
X145635142Y-74513285D01*
X147778000Y-75227571D02*
X147778000Y-74441857D01*
X147706571Y-74299000D01*
X147563714Y-74227571D01*
X147278000Y-74227571D01*
X147135142Y-74299000D01*
X147778000Y-75156142D02*
X147635142Y-75227571D01*
X147278000Y-75227571D01*
X147135142Y-75156142D01*
X147063714Y-75013285D01*
X147063714Y-74870428D01*
X147135142Y-74727571D01*
X147278000Y-74656142D01*
X147635142Y-74656142D01*
X147778000Y-74584714D01*
X148420857Y-75156142D02*
X148563714Y-75227571D01*
X148849428Y-75227571D01*
X148992285Y-75156142D01*
X149063714Y-75013285D01*
X149063714Y-74941857D01*
X148992285Y-74799000D01*
X148849428Y-74727571D01*
X148635142Y-74727571D01*
X148492285Y-74656142D01*
X148420857Y-74513285D01*
X148420857Y-74441857D01*
X148492285Y-74299000D01*
X148635142Y-74227571D01*
X148849428Y-74227571D01*
X148992285Y-74299000D01*
X149706571Y-74227571D02*
X149706571Y-75727571D01*
X149706571Y-74299000D02*
X149849428Y-74227571D01*
X150135142Y-74227571D01*
X150278000Y-74299000D01*
X150349428Y-74370428D01*
X150420857Y-74513285D01*
X150420857Y-74941857D01*
X150349428Y-75084714D01*
X150278000Y-75156142D01*
X150135142Y-75227571D01*
X149849428Y-75227571D01*
X149706571Y-75156142D01*
X151063714Y-75227571D02*
X151063714Y-73727571D01*
X151063714Y-74299000D02*
X151206571Y-74227571D01*
X151492285Y-74227571D01*
X151635142Y-74299000D01*
X151706571Y-74370428D01*
X151778000Y-74513285D01*
X151778000Y-74941857D01*
X151706571Y-75084714D01*
X151635142Y-75156142D01*
X151492285Y-75227571D01*
X151206571Y-75227571D01*
X151063714Y-75156142D01*
X152992285Y-75156142D02*
X152849428Y-75227571D01*
X152563714Y-75227571D01*
X152420857Y-75156142D01*
X152349428Y-75013285D01*
X152349428Y-74441857D01*
X152420857Y-74299000D01*
X152563714Y-74227571D01*
X152849428Y-74227571D01*
X152992285Y-74299000D01*
X153063714Y-74441857D01*
X153063714Y-74584714D01*
X152349428Y-74727571D01*
X153706571Y-75227571D02*
X153706571Y-74227571D01*
X153706571Y-74513285D02*
X153778000Y-74370428D01*
X153849428Y-74299000D01*
X153992285Y-74227571D01*
X154135142Y-74227571D01*
X154635142Y-75227571D02*
X154635142Y-74227571D01*
X154635142Y-74513285D02*
X154706571Y-74370428D01*
X154778000Y-74299000D01*
X154920857Y-74227571D01*
X155063714Y-74227571D01*
X155420857Y-74227571D02*
X155778000Y-75227571D01*
X156135142Y-74227571D02*
X155778000Y-75227571D01*
X155635142Y-75584714D01*
X155563714Y-75656142D01*
X155420857Y-75727571D01*
X156706571Y-75227571D02*
X156706571Y-73727571D01*
X157278000Y-73727571D01*
X157420857Y-73799000D01*
X157492285Y-73870428D01*
X157563714Y-74013285D01*
X157563714Y-74227571D01*
X157492285Y-74370428D01*
X157420857Y-74441857D01*
X157278000Y-74513285D01*
X156706571Y-74513285D01*
X158206571Y-75227571D02*
X158206571Y-74227571D01*
X158206571Y-73727571D02*
X158135142Y-73799000D01*
X158206571Y-73870428D01*
X158278000Y-73799000D01*
X158206571Y-73727571D01*
X158206571Y-73870428D01*
X160849428Y-73799000D02*
X160706571Y-73727571D01*
X160492285Y-73727571D01*
X160278000Y-73799000D01*
X160135142Y-73941857D01*
X160063714Y-74084714D01*
X159992285Y-74370428D01*
X159992285Y-74584714D01*
X160063714Y-74870428D01*
X160135142Y-75013285D01*
X160278000Y-75156142D01*
X160492285Y-75227571D01*
X160635142Y-75227571D01*
X160849428Y-75156142D01*
X160920857Y-75084714D01*
X160920857Y-74584714D01*
X160635142Y-74584714D01*
X161563714Y-75227571D02*
X161563714Y-73727571D01*
X162135142Y-73727571D01*
X162278000Y-73799000D01*
X162349428Y-73870428D01*
X162420857Y-74013285D01*
X162420857Y-74227571D01*
X162349428Y-74370428D01*
X162278000Y-74441857D01*
X162135142Y-74513285D01*
X161563714Y-74513285D01*
X163063714Y-75227571D02*
X163063714Y-73727571D01*
X164063714Y-73727571D02*
X164349428Y-73727571D01*
X164492285Y-73799000D01*
X164635142Y-73941857D01*
X164706571Y-74227571D01*
X164706571Y-74727571D01*
X164635142Y-75013285D01*
X164492285Y-75156142D01*
X164349428Y-75227571D01*
X164063714Y-75227571D01*
X163920857Y-75156142D01*
X163778000Y-75013285D01*
X163706571Y-74727571D01*
X163706571Y-74227571D01*
X163778000Y-73941857D01*
X163920857Y-73799000D01*
X164063714Y-73727571D01*
X166492285Y-74441857D02*
X166992285Y-74441857D01*
X167206571Y-75227571D02*
X166492285Y-75227571D01*
X166492285Y-73727571D01*
X167206571Y-73727571D01*
X167706571Y-75227571D02*
X168492285Y-74227571D01*
X167706571Y-74227571D02*
X168492285Y-75227571D01*
X168849428Y-74227571D02*
X169420857Y-74227571D01*
X169063714Y-73727571D02*
X169063714Y-75013285D01*
X169135142Y-75156142D01*
X169278000Y-75227571D01*
X169420857Y-75227571D01*
X170492285Y-75156142D02*
X170349428Y-75227571D01*
X170063714Y-75227571D01*
X169920857Y-75156142D01*
X169849428Y-75013285D01*
X169849428Y-74441857D01*
X169920857Y-74299000D01*
X170063714Y-74227571D01*
X170349428Y-74227571D01*
X170492285Y-74299000D01*
X170563714Y-74441857D01*
X170563714Y-74584714D01*
X169849428Y-74727571D01*
X171206571Y-74227571D02*
X171206571Y-75227571D01*
X171206571Y-74370428D02*
X171278000Y-74299000D01*
X171420857Y-74227571D01*
X171635142Y-74227571D01*
X171778000Y-74299000D01*
X171849428Y-74441857D01*
X171849428Y-75227571D01*
X173206571Y-75227571D02*
X173206571Y-73727571D01*
X173206571Y-75156142D02*
X173063714Y-75227571D01*
X172778000Y-75227571D01*
X172635142Y-75156142D01*
X172563714Y-75084714D01*
X172492285Y-74941857D01*
X172492285Y-74513285D01*
X172563714Y-74370428D01*
X172635142Y-74299000D01*
X172778000Y-74227571D01*
X173063714Y-74227571D01*
X173206571Y-74299000D01*
X174492285Y-75156142D02*
X174349428Y-75227571D01*
X174063714Y-75227571D01*
X173920857Y-75156142D01*
X173849428Y-75013285D01*
X173849428Y-74441857D01*
X173920857Y-74299000D01*
X174063714Y-74227571D01*
X174349428Y-74227571D01*
X174492285Y-74299000D01*
X174563714Y-74441857D01*
X174563714Y-74584714D01*
X173849428Y-74727571D01*
X175206571Y-75227571D02*
X175206571Y-74227571D01*
X175206571Y-74513285D02*
X175278000Y-74370428D01*
X175349428Y-74299000D01*
X175492285Y-74227571D01*
X175635142Y-74227571D01*
D11*
X185388285Y-95444571D02*
X184674000Y-95444571D01*
X184602571Y-96158857D01*
X184674000Y-96087428D01*
X184816857Y-96016000D01*
X185174000Y-96016000D01*
X185316857Y-96087428D01*
X185388285Y-96158857D01*
X185459714Y-96301714D01*
X185459714Y-96658857D01*
X185388285Y-96801714D01*
X185316857Y-96873142D01*
X185174000Y-96944571D01*
X184816857Y-96944571D01*
X184674000Y-96873142D01*
X184602571Y-96801714D01*
X185888285Y-95444571D02*
X186388285Y-96944571D01*
X186888285Y-95444571D01*
X137739714Y-95444571D02*
X138668285Y-95444571D01*
X138168285Y-96016000D01*
X138382571Y-96016000D01*
X138525428Y-96087428D01*
X138596857Y-96158857D01*
X138668285Y-96301714D01*
X138668285Y-96658857D01*
X138596857Y-96801714D01*
X138525428Y-96873142D01*
X138382571Y-96944571D01*
X137954000Y-96944571D01*
X137811142Y-96873142D01*
X137739714Y-96801714D01*
X139311142Y-96801714D02*
X139382571Y-96873142D01*
X139311142Y-96944571D01*
X139239714Y-96873142D01*
X139311142Y-96801714D01*
X139311142Y-96944571D01*
X139882571Y-95444571D02*
X140811142Y-95444571D01*
X140311142Y-96016000D01*
X140525428Y-96016000D01*
X140668285Y-96087428D01*
X140739714Y-96158857D01*
X140811142Y-96301714D01*
X140811142Y-96658857D01*
X140739714Y-96801714D01*
X140668285Y-96873142D01*
X140525428Y-96944571D01*
X140096857Y-96944571D01*
X139954000Y-96873142D01*
X139882571Y-96801714D01*
X141239714Y-95444571D02*
X141739714Y-96944571D01*
X142239714Y-95444571D01*
D13*
%TO.C,J1*%
X192154000Y-63258000D02*
X192154000Y-72378000D01*
X192154000Y-72378000D02*
X133474000Y-72378000D01*
X133474000Y-72378000D02*
X133474000Y-63258000D01*
X133474000Y-63258000D02*
X192154000Y-63258000D01*
X164864000Y-63258000D02*
X164864000Y-64568000D01*
X164864000Y-64568000D02*
X190854000Y-64568000D01*
X190854000Y-64568000D02*
X190854000Y-71068000D01*
X190854000Y-71068000D02*
X134774000Y-71068000D01*
X134774000Y-71068000D02*
X134774000Y-64568000D01*
X134774000Y-64568000D02*
X160764000Y-64568000D01*
X160764000Y-64568000D02*
X160764000Y-64568000D01*
X160764000Y-64568000D02*
X160764000Y-63258000D01*
X186944000Y-62868000D02*
X187444000Y-61868000D01*
X187444000Y-61868000D02*
X186444000Y-61868000D01*
X186444000Y-61868000D02*
X186944000Y-62868000D01*
%TD*%
M02*
