%TF.GenerationSoftware,KiCad,Pcbnew,(5.1.9)-1*%
%TF.CreationDate,2022-01-20T02:08:41+09:00*%
%TF.ProjectId,pi-extend,70692d65-7874-4656-9e64-2e6b69636164,rev?*%
%TF.SameCoordinates,Original*%
%TF.FileFunction,Legend,Bot*%
%TF.FilePolarity,Positive*%
%FSLAX46Y46*%
G04 Gerber Fmt 4.6, Leading zero omitted, Abs format (unit mm)*
G04 Created by KiCad (PCBNEW (5.1.9)-1) date 2022-01-20 02:08:41*
%MOMM*%
%LPD*%
G01*
G04 APERTURE LIST*
%ADD10C,0.120000*%
G04 APERTURE END LIST*
D10*
%TO.C,J2*%
X150148600Y-128355400D02*
X147488600Y-128355400D01*
X150148600Y-80035400D02*
X150148600Y-128355400D01*
X147488600Y-80035400D02*
X147488600Y-128355400D01*
X150148600Y-80035400D02*
X147488600Y-80035400D01*
X150148600Y-78765400D02*
X150148600Y-77435400D01*
X150148600Y-77435400D02*
X148818600Y-77435400D01*
%TO.C,J3*%
X178088600Y-77435400D02*
X176758600Y-77435400D01*
X178088600Y-78765400D02*
X178088600Y-77435400D01*
X178088600Y-80035400D02*
X175428600Y-80035400D01*
X175428600Y-80035400D02*
X175428600Y-128355400D01*
X178088600Y-80035400D02*
X178088600Y-128355400D01*
X178088600Y-128355400D02*
X175428600Y-128355400D01*
%TO.C,J4*%
X142554000Y-97730000D02*
X142554000Y-100390000D01*
X139954000Y-97730000D02*
X142554000Y-97730000D01*
X139954000Y-100390000D02*
X142554000Y-100390000D01*
X139954000Y-97730000D02*
X139954000Y-100390000D01*
X138684000Y-97730000D02*
X137354000Y-97730000D01*
X137354000Y-97730000D02*
X137354000Y-99060000D01*
%TO.C,J5*%
X188274000Y-97730000D02*
X188274000Y-100390000D01*
X185674000Y-97730000D02*
X188274000Y-97730000D01*
X185674000Y-100390000D02*
X188274000Y-100390000D01*
X185674000Y-97730000D02*
X185674000Y-100390000D01*
X184404000Y-97730000D02*
X183074000Y-97730000D01*
X183074000Y-97730000D02*
X183074000Y-99060000D01*
%TD*%
M02*
