%TF.GenerationSoftware,KiCad,Pcbnew,(5.1.9)-1*%
%TF.CreationDate,2021-12-07T02:51:00+09:00*%
%TF.ProjectId,pi-extend,70692d65-7874-4656-9e64-2e6b69636164,rev?*%
%TF.SameCoordinates,Original*%
%TF.FileFunction,Copper,L1,Top*%
%TF.FilePolarity,Positive*%
%FSLAX46Y46*%
G04 Gerber Fmt 4.6, Leading zero omitted, Abs format (unit mm)*
G04 Created by KiCad (PCBNEW (5.1.9)-1) date 2021-12-07 02:51:00*
%MOMM*%
%LPD*%
G01*
G04 APERTURE LIST*
%TA.AperFunction,ComponentPad*%
%ADD10R,1.700000X1.700000*%
%TD*%
%TA.AperFunction,ComponentPad*%
%ADD11O,1.700000X1.700000*%
%TD*%
%TA.AperFunction,ViaPad*%
%ADD12C,0.800000*%
%TD*%
%TA.AperFunction,Conductor*%
%ADD13C,0.500000*%
%TD*%
%TA.AperFunction,Conductor*%
%ADD14C,0.250000*%
%TD*%
G04 APERTURE END LIST*
D10*
%TO.P,J1,1*%
%TO.N,Net-(J1-Pad1)*%
X138658600Y-67564000D03*
D11*
%TO.P,J1,2*%
%TO.N,Net-(J1-Pad2)*%
X138658600Y-65024000D03*
%TO.P,J1,3*%
%TO.N,Net-(J1-Pad3)*%
X141198600Y-67564000D03*
%TO.P,J1,4*%
%TO.N,Net-(J1-Pad4)*%
X141198600Y-65024000D03*
%TO.P,J1,5*%
%TO.N,Net-(J1-Pad5)*%
X143738600Y-67564000D03*
%TO.P,J1,6*%
%TO.N,Net-(J1-Pad6)*%
X143738600Y-65024000D03*
%TO.P,J1,7*%
%TO.N,Net-(J1-Pad7)*%
X146278600Y-67564000D03*
%TO.P,J1,8*%
%TO.N,Net-(J1-Pad8)*%
X146278600Y-65024000D03*
%TO.P,J1,9*%
%TO.N,Net-(J1-Pad9)*%
X148818600Y-67564000D03*
%TO.P,J1,10*%
%TO.N,Net-(J1-Pad10)*%
X148818600Y-65024000D03*
%TO.P,J1,11*%
%TO.N,Net-(J1-Pad11)*%
X151358600Y-67564000D03*
%TO.P,J1,12*%
%TO.N,Net-(J1-Pad12)*%
X151358600Y-65024000D03*
%TO.P,J1,13*%
%TO.N,Net-(J1-Pad13)*%
X153898600Y-67564000D03*
%TO.P,J1,14*%
%TO.N,Net-(J1-Pad14)*%
X153898600Y-65024000D03*
%TO.P,J1,15*%
%TO.N,Net-(J1-Pad15)*%
X156438600Y-67564000D03*
%TO.P,J1,16*%
%TO.N,Net-(J1-Pad16)*%
X156438600Y-65024000D03*
%TO.P,J1,17*%
%TO.N,Net-(J1-Pad17)*%
X158978600Y-67564000D03*
%TO.P,J1,18*%
%TO.N,Net-(J1-Pad18)*%
X158978600Y-65024000D03*
%TO.P,J1,19*%
%TO.N,Net-(J1-Pad19)*%
X161518600Y-67564000D03*
%TO.P,J1,20*%
%TO.N,Net-(J1-Pad20)*%
X161518600Y-65024000D03*
%TO.P,J1,21*%
%TO.N,Net-(J1-Pad21)*%
X164058600Y-67564000D03*
%TO.P,J1,22*%
%TO.N,Net-(J1-Pad22)*%
X164058600Y-65024000D03*
%TO.P,J1,23*%
%TO.N,Net-(J1-Pad23)*%
X166598600Y-67564000D03*
%TO.P,J1,24*%
%TO.N,Net-(J1-Pad24)*%
X166598600Y-65024000D03*
%TO.P,J1,25*%
%TO.N,Net-(J1-Pad25)*%
X169138600Y-67564000D03*
%TO.P,J1,26*%
%TO.N,Net-(J1-Pad26)*%
X169138600Y-65024000D03*
%TO.P,J1,27*%
%TO.N,Net-(J1-Pad27)*%
X171678600Y-67564000D03*
%TO.P,J1,28*%
%TO.N,Net-(J1-Pad28)*%
X171678600Y-65024000D03*
%TO.P,J1,29*%
%TO.N,Net-(J1-Pad29)*%
X174218600Y-67564000D03*
%TO.P,J1,30*%
%TO.N,Net-(J1-Pad30)*%
X174218600Y-65024000D03*
%TO.P,J1,31*%
%TO.N,Net-(J1-Pad31)*%
X176758600Y-67564000D03*
%TO.P,J1,32*%
%TO.N,Net-(J1-Pad32)*%
X176758600Y-65024000D03*
%TO.P,J1,33*%
%TO.N,Net-(J1-Pad33)*%
X179298600Y-67564000D03*
%TO.P,J1,34*%
%TO.N,Net-(J1-Pad34)*%
X179298600Y-65024000D03*
%TO.P,J1,35*%
%TO.N,Net-(J1-Pad35)*%
X181838600Y-67564000D03*
%TO.P,J1,36*%
%TO.N,Net-(J1-Pad36)*%
X181838600Y-65024000D03*
%TO.P,J1,37*%
%TO.N,Net-(J1-Pad37)*%
X184378600Y-67564000D03*
%TO.P,J1,38*%
%TO.N,Net-(J1-Pad38)*%
X184378600Y-65024000D03*
%TO.P,J1,39*%
%TO.N,Net-(J1-Pad39)*%
X186918600Y-67564000D03*
%TO.P,J1,40*%
%TO.N,Net-(J1-Pad40)*%
X186918600Y-65024000D03*
%TD*%
D10*
%TO.P,J2,1*%
%TO.N,Net-(J1-Pad1)*%
X148818600Y-78765400D03*
D11*
%TO.P,J2,2*%
%TO.N,Net-(J1-Pad3)*%
X148818600Y-81305400D03*
%TO.P,J2,3*%
%TO.N,Net-(J1-Pad5)*%
X148818600Y-83845400D03*
%TO.P,J2,4*%
%TO.N,Net-(J1-Pad7)*%
X148818600Y-86385400D03*
%TO.P,J2,5*%
%TO.N,Net-(J1-Pad9)*%
X148818600Y-88925400D03*
%TO.P,J2,6*%
%TO.N,Net-(J1-Pad11)*%
X148818600Y-91465400D03*
%TO.P,J2,7*%
%TO.N,Net-(J1-Pad13)*%
X148818600Y-94005400D03*
%TO.P,J2,8*%
%TO.N,Net-(J1-Pad15)*%
X148818600Y-96545400D03*
%TO.P,J2,9*%
%TO.N,Net-(J1-Pad17)*%
X148818600Y-99085400D03*
%TO.P,J2,10*%
%TO.N,Net-(J1-Pad19)*%
X148818600Y-101625400D03*
%TO.P,J2,11*%
%TO.N,Net-(J1-Pad21)*%
X148818600Y-104165400D03*
%TO.P,J2,12*%
%TO.N,Net-(J1-Pad23)*%
X148818600Y-106705400D03*
%TO.P,J2,13*%
%TO.N,Net-(J1-Pad25)*%
X148818600Y-109245400D03*
%TO.P,J2,14*%
%TO.N,Net-(J1-Pad27)*%
X148818600Y-111785400D03*
%TO.P,J2,15*%
%TO.N,Net-(J1-Pad29)*%
X148818600Y-114325400D03*
%TO.P,J2,16*%
%TO.N,Net-(J1-Pad31)*%
X148818600Y-116865400D03*
%TO.P,J2,17*%
%TO.N,Net-(J1-Pad33)*%
X148818600Y-119405400D03*
%TO.P,J2,18*%
%TO.N,Net-(J1-Pad35)*%
X148818600Y-121945400D03*
%TO.P,J2,19*%
%TO.N,Net-(J1-Pad37)*%
X148818600Y-124485400D03*
%TO.P,J2,20*%
%TO.N,Net-(J1-Pad39)*%
X148818600Y-127025400D03*
%TD*%
%TO.P,J3,20*%
%TO.N,Net-(J1-Pad40)*%
X176758600Y-127025400D03*
%TO.P,J3,19*%
%TO.N,Net-(J1-Pad38)*%
X176758600Y-124485400D03*
%TO.P,J3,18*%
%TO.N,Net-(J1-Pad36)*%
X176758600Y-121945400D03*
%TO.P,J3,17*%
%TO.N,Net-(J1-Pad34)*%
X176758600Y-119405400D03*
%TO.P,J3,16*%
%TO.N,Net-(J1-Pad32)*%
X176758600Y-116865400D03*
%TO.P,J3,15*%
%TO.N,Net-(J1-Pad30)*%
X176758600Y-114325400D03*
%TO.P,J3,14*%
%TO.N,Net-(J1-Pad28)*%
X176758600Y-111785400D03*
%TO.P,J3,13*%
%TO.N,Net-(J1-Pad26)*%
X176758600Y-109245400D03*
%TO.P,J3,12*%
%TO.N,Net-(J1-Pad24)*%
X176758600Y-106705400D03*
%TO.P,J3,11*%
%TO.N,Net-(J1-Pad22)*%
X176758600Y-104165400D03*
%TO.P,J3,10*%
%TO.N,Net-(J1-Pad20)*%
X176758600Y-101625400D03*
%TO.P,J3,9*%
%TO.N,Net-(J1-Pad18)*%
X176758600Y-99085400D03*
%TO.P,J3,8*%
%TO.N,Net-(J1-Pad16)*%
X176758600Y-96545400D03*
%TO.P,J3,7*%
%TO.N,Net-(J1-Pad14)*%
X176758600Y-94005400D03*
%TO.P,J3,6*%
%TO.N,Net-(J1-Pad12)*%
X176758600Y-91465400D03*
%TO.P,J3,5*%
%TO.N,Net-(J1-Pad10)*%
X176758600Y-88925400D03*
%TO.P,J3,4*%
%TO.N,Net-(J1-Pad8)*%
X176758600Y-86385400D03*
%TO.P,J3,3*%
%TO.N,Net-(J1-Pad6)*%
X176758600Y-83845400D03*
%TO.P,J3,2*%
%TO.N,Net-(J1-Pad4)*%
X176758600Y-81305400D03*
D10*
%TO.P,J3,1*%
%TO.N,Net-(J1-Pad2)*%
X176758600Y-78765400D03*
%TD*%
%TO.P,J4,1*%
%TO.N,Net-(J1-Pad1)*%
X138658600Y-111785400D03*
D11*
%TO.P,J4,2*%
%TO.N,Net-(J1-Pad5)*%
X141198600Y-111785400D03*
%TD*%
%TO.P,J5,2*%
%TO.N,Net-(J1-Pad10)*%
X184378600Y-111785400D03*
D10*
%TO.P,J5,1*%
%TO.N,Net-(J1-Pad2)*%
X186918600Y-111785400D03*
%TD*%
D12*
%TO.N,Net-(J1-Pad1)*%
X137388600Y-78765400D03*
%TO.N,Net-(J1-Pad3)*%
X138087990Y-81353296D03*
%TO.N,Net-(J1-Pad5)*%
X138843412Y-83845398D03*
%TO.N,Net-(J1-Pad7)*%
X139293423Y-86385400D03*
%TO.N,Net-(J1-Pad9)*%
X139743434Y-88925400D03*
%TO.N,Net-(J1-Pad11)*%
X140193445Y-91465400D03*
%TO.N,Net-(J1-Pad13)*%
X140643456Y-94005400D03*
%TO.N,Net-(J1-Pad15)*%
X141093467Y-96545407D03*
%TO.N,Net-(J1-Pad17)*%
X141543478Y-99085400D03*
%TO.N,Net-(J1-Pad19)*%
X141993489Y-101625400D03*
%TO.N,Net-(J1-Pad21)*%
X142443500Y-104165400D03*
%TO.N,Net-(J1-Pad23)*%
X142544800Y-106527600D03*
%TO.N,Net-(J1-Pad25)*%
X143002000Y-109245400D03*
%TO.N,Net-(J1-Pad27)*%
X143484602Y-111785400D03*
%TO.N,Net-(J1-Pad29)*%
X144018000Y-113792000D03*
%TO.N,Net-(J1-Pad31)*%
X144500600Y-117043200D03*
%TO.N,Net-(J1-Pad33)*%
X144627600Y-119507000D03*
%TO.N,Net-(J1-Pad35)*%
X145110200Y-121970800D03*
%TO.N,Net-(J1-Pad37)*%
X145745200Y-124409200D03*
%TO.N,Net-(J1-Pad39)*%
X146558000Y-126847600D03*
%TD*%
D13*
%TO.N,Net-(J1-Pad1)*%
X148818600Y-78765400D02*
X137388600Y-78765400D01*
%TO.N,Net-(J1-Pad2)*%
X176758600Y-77415400D02*
X176758600Y-78765400D01*
X137160000Y-66522600D02*
X137160000Y-69342000D01*
X137160000Y-69342000D02*
X143781165Y-75963165D01*
X138658600Y-65024000D02*
X137160000Y-66522600D01*
X143781165Y-75963165D02*
X175306365Y-75963165D01*
X175306365Y-75963165D02*
X176758600Y-77415400D01*
D14*
%TO.N,Net-(J1-Pad3)*%
X148818600Y-81305400D02*
X138135886Y-81305400D01*
X138135886Y-81305400D02*
X138087990Y-81353296D01*
%TO.N,Net-(J1-Pad4)*%
X178689000Y-77089000D02*
X178689000Y-79375000D01*
X176988154Y-75388154D02*
X178689000Y-77089000D01*
X142494000Y-66319400D02*
X142494000Y-69342000D01*
X178689000Y-79375000D02*
X176758600Y-81305400D01*
X142494000Y-69342000D02*
X148540154Y-75388154D01*
X141198600Y-65024000D02*
X142494000Y-66319400D01*
X148540154Y-75388154D02*
X176988154Y-75388154D01*
D13*
%TO.N,Net-(J1-Pad5)*%
X138843414Y-83845400D02*
X138843412Y-83845398D01*
X148818600Y-83845400D02*
X138843414Y-83845400D01*
D14*
%TO.N,Net-(J1-Pad6)*%
X179324000Y-81280000D02*
X179324000Y-77087589D01*
X176758600Y-83845400D02*
X179324000Y-81280000D01*
X177174554Y-74938143D02*
X150630143Y-74938143D01*
X150630143Y-74938143D02*
X145034000Y-69342000D01*
X145034000Y-69342000D02*
X145034000Y-66319400D01*
X145034000Y-66319400D02*
X143738600Y-65024000D01*
X179324000Y-77087589D02*
X177174554Y-74938143D01*
%TO.N,Net-(J1-Pad7)*%
X148818600Y-86385400D02*
X139293423Y-86385400D01*
%TO.N,Net-(J1-Pad8)*%
X146278600Y-65024000D02*
X147574000Y-66319400D01*
X147574000Y-66319400D02*
X147574000Y-69342000D01*
X152720132Y-74488132D02*
X177360954Y-74488132D01*
X179832000Y-83312000D02*
X176758600Y-86385400D01*
X177360954Y-74488132D02*
X179832000Y-76959178D01*
X147574000Y-69342000D02*
X152720132Y-74488132D01*
X179832000Y-76959178D02*
X179832000Y-83312000D01*
%TO.N,Net-(J1-Pad9)*%
X148818600Y-88925400D02*
X139743434Y-88925400D01*
%TO.N,Net-(J1-Pad10)*%
X154810121Y-74038121D02*
X177547354Y-74038121D01*
X177547354Y-74038121D02*
X180661809Y-77152576D01*
X180661809Y-77152576D02*
X180661809Y-85022191D01*
X180661809Y-85022191D02*
X176758600Y-88925400D01*
X148818600Y-65024000D02*
X150068601Y-66274001D01*
X150068601Y-66274001D02*
X150068601Y-69296601D01*
X150068601Y-69296601D02*
X154810121Y-74038121D01*
%TO.N,Net-(J1-Pad11)*%
X148818600Y-91465400D02*
X140193445Y-91465400D01*
%TO.N,Net-(J1-Pad12)*%
X176758600Y-91465400D02*
X181279800Y-86944200D01*
X181279800Y-86944200D02*
X181279800Y-77134156D01*
X181279800Y-77134156D02*
X177733754Y-73588110D01*
X177733754Y-73588110D02*
X156900110Y-73588110D01*
X156900110Y-73588110D02*
X152654000Y-69342000D01*
X152654000Y-69342000D02*
X152654000Y-66319400D01*
X152654000Y-66319400D02*
X151358600Y-65024000D01*
%TO.N,Net-(J1-Pad13)*%
X148818600Y-94005400D02*
X140643456Y-94005400D01*
%TO.N,Net-(J1-Pad14)*%
X153898600Y-65024000D02*
X155194000Y-66319400D01*
X155194000Y-66319400D02*
X155194000Y-69342000D01*
X155194000Y-69342000D02*
X158990099Y-73138099D01*
X158990099Y-73138099D02*
X177920154Y-73138099D01*
X177920154Y-73138099D02*
X181787800Y-77005745D01*
X181787800Y-88976200D02*
X177608599Y-93155401D01*
X177608599Y-93155401D02*
X176758600Y-94005400D01*
X181787800Y-77005745D02*
X181787800Y-88976200D01*
%TO.N,Net-(J1-Pad15)*%
X148818600Y-96545400D02*
X141093474Y-96545400D01*
X141093474Y-96545400D02*
X141093467Y-96545407D01*
%TO.N,Net-(J1-Pad16)*%
X156438600Y-65024000D02*
X157734000Y-66319400D01*
X157734000Y-66319400D02*
X157734000Y-69342000D01*
X157734000Y-69342000D02*
X161080088Y-72688088D01*
X161080088Y-72688088D02*
X178106554Y-72688088D01*
X178106554Y-72688088D02*
X182295800Y-76877334D01*
X182295800Y-76877334D02*
X182295800Y-91008200D01*
X182295800Y-91008200D02*
X177608599Y-95695401D01*
X177608599Y-95695401D02*
X176758600Y-96545400D01*
%TO.N,Net-(J1-Pad17)*%
X148818600Y-99085400D02*
X141543478Y-99085400D01*
%TO.N,Net-(J1-Pad18)*%
X158978600Y-64262000D02*
X160274000Y-65557400D01*
X160274000Y-65557400D02*
X160274000Y-69342000D01*
X160274000Y-69342000D02*
X163170077Y-72238077D01*
X163170077Y-72238077D02*
X178292954Y-72238077D01*
X178292954Y-72238077D02*
X182829200Y-76774323D01*
X182829200Y-76774323D02*
X182829200Y-93014800D01*
X182829200Y-93014800D02*
X177608599Y-98235401D01*
X177608599Y-98235401D02*
X176758600Y-99085400D01*
%TO.N,Net-(J1-Pad19)*%
X148818600Y-101625400D02*
X141993489Y-101625400D01*
%TO.N,Net-(J1-Pad20)*%
X177608599Y-100775401D02*
X176758600Y-101625400D01*
X183362600Y-95021400D02*
X177608599Y-100775401D01*
X183362600Y-76671312D02*
X183362600Y-95021400D01*
X178479354Y-71788066D02*
X183362600Y-76671312D01*
X165260066Y-71788066D02*
X178479354Y-71788066D01*
X162814000Y-69342000D02*
X165260066Y-71788066D01*
X162814000Y-66319400D02*
X162814000Y-69342000D01*
X161518600Y-65024000D02*
X162814000Y-66319400D01*
%TO.N,Net-(J1-Pad21)*%
X148818600Y-104165400D02*
X142443500Y-104165400D01*
%TO.N,Net-(J1-Pad22)*%
X177608599Y-103315401D02*
X176758600Y-104165400D01*
X183946800Y-96977200D02*
X177608599Y-103315401D01*
X178665754Y-71338055D02*
X183946800Y-76619101D01*
X183946800Y-76619101D02*
X183946800Y-96977200D01*
X167350055Y-71338055D02*
X178665754Y-71338055D01*
X165354000Y-69342000D02*
X167350055Y-71338055D01*
X165354000Y-66319400D02*
X165354000Y-69342000D01*
X164058600Y-65024000D02*
X165354000Y-66319400D01*
%TO.N,Net-(J1-Pad23)*%
X142722600Y-106705400D02*
X142544800Y-106527600D01*
X148818600Y-106705400D02*
X142722600Y-106705400D01*
%TO.N,Net-(J1-Pad24)*%
X166598600Y-65024000D02*
X167894000Y-66319400D01*
X177608599Y-105855401D02*
X176758600Y-106705400D01*
X184509908Y-98954092D02*
X177608599Y-105855401D01*
X178852154Y-70888044D02*
X184509908Y-76545798D01*
X167894000Y-66319400D02*
X167894000Y-69088000D01*
X167894000Y-69088000D02*
X169694044Y-70888044D01*
X169694044Y-70888044D02*
X178852154Y-70888044D01*
X184509908Y-76545798D02*
X184509908Y-98954092D01*
%TO.N,Net-(J1-Pad25)*%
X148818600Y-109245400D02*
X143002000Y-109245400D01*
%TO.N,Net-(J1-Pad26)*%
X184987723Y-100930204D02*
X184987723Y-76387202D01*
X176758600Y-109159327D02*
X184987723Y-100930204D01*
X184987723Y-76387202D02*
X179038554Y-70438033D01*
X176758600Y-109245400D02*
X176758600Y-109159327D01*
X179038554Y-70438033D02*
X171530033Y-70438033D01*
X170434000Y-66319400D02*
X169138600Y-65024000D01*
X171530033Y-70438033D02*
X170434000Y-69342000D01*
X170434000Y-69342000D02*
X170434000Y-66319400D01*
%TO.N,Net-(J1-Pad27)*%
X147616519Y-111785400D02*
X143484602Y-111785400D01*
X148818600Y-111785400D02*
X147616519Y-111785400D01*
%TO.N,Net-(J1-Pad28)*%
X173620022Y-69988022D02*
X172923200Y-69291200D01*
X172923200Y-66268600D02*
X171678600Y-65024000D01*
X172923200Y-69291200D02*
X172923200Y-66268600D01*
X179224954Y-69988022D02*
X173620022Y-69988022D01*
X185437734Y-76200802D02*
X179224954Y-69988022D01*
X185437734Y-101116604D02*
X185437734Y-76200802D01*
X178562000Y-107992338D02*
X185437734Y-101116604D01*
X178562000Y-109982000D02*
X178562000Y-107992338D01*
X176758600Y-111785400D02*
X178562000Y-109982000D01*
%TO.N,Net-(J1-Pad29)*%
X148818600Y-114325400D02*
X144551400Y-114325400D01*
X144551400Y-114325400D02*
X144018000Y-113792000D01*
%TO.N,Net-(J1-Pad30)*%
X175514000Y-66319400D02*
X174218600Y-65024000D01*
X175964011Y-69538011D02*
X175514000Y-69088000D01*
X185887745Y-76014402D02*
X179411354Y-69538011D01*
X185887745Y-101303004D02*
X185887745Y-76014402D01*
X179411354Y-69538011D02*
X175964011Y-69538011D01*
X175514000Y-69088000D02*
X175514000Y-66319400D01*
X176758600Y-114325400D02*
X179070000Y-112014000D01*
X179070000Y-112014000D02*
X179070000Y-108120749D01*
X179070000Y-108120749D02*
X185887745Y-101303004D01*
%TO.N,Net-(J1-Pad31)*%
X148818600Y-116865400D02*
X144678400Y-116865400D01*
X144678400Y-116865400D02*
X144500600Y-117043200D01*
%TO.N,Net-(J1-Pad32)*%
X178054000Y-66319400D02*
X178054000Y-68326000D01*
X186337756Y-101489404D02*
X179520011Y-108307149D01*
X179520011Y-114103989D02*
X176758600Y-116865400D01*
X179520011Y-108307149D02*
X179520011Y-114103989D01*
X179597754Y-69088000D02*
X186337756Y-75828002D01*
X178816000Y-69088000D02*
X179597754Y-69088000D01*
X178054000Y-68326000D02*
X178816000Y-69088000D01*
X176758600Y-65024000D02*
X178054000Y-66319400D01*
X186337756Y-75828002D02*
X186337756Y-101489404D01*
%TO.N,Net-(J1-Pad33)*%
X144729200Y-119405400D02*
X144627600Y-119507000D01*
X148818600Y-119405400D02*
X144729200Y-119405400D01*
%TO.N,Net-(J1-Pad34)*%
X186787767Y-75641602D02*
X180594000Y-69447836D01*
X186787767Y-101675804D02*
X186787767Y-75641602D01*
X179970022Y-116193978D02*
X179970022Y-108493548D01*
X176758600Y-119405400D02*
X179970022Y-116193978D01*
X179970022Y-108493548D02*
X186787767Y-101675804D01*
X180594000Y-66319400D02*
X179298600Y-65024000D01*
X180594000Y-69447836D02*
X180594000Y-66319400D01*
%TO.N,Net-(J1-Pad35)*%
X145135600Y-121945400D02*
X145110200Y-121970800D01*
X148818600Y-121945400D02*
X145135600Y-121945400D01*
%TO.N,Net-(J1-Pad36)*%
X180420033Y-108808356D02*
X187237778Y-101990612D01*
X183134000Y-66319400D02*
X181838600Y-65024000D01*
X183134000Y-71351425D02*
X183134000Y-66319400D01*
X180420033Y-118283967D02*
X180420033Y-108808356D01*
X187237778Y-101990612D02*
X187237778Y-75455202D01*
X187237778Y-75455202D02*
X183134000Y-71351425D01*
X176758600Y-121945400D02*
X180420033Y-118283967D01*
%TO.N,Net-(J1-Pad37)*%
X148818600Y-124485400D02*
X145821400Y-124485400D01*
X145821400Y-124485400D02*
X145745200Y-124409200D01*
%TO.N,Net-(J1-Pad38)*%
X176758600Y-124485400D02*
X180870044Y-120373956D01*
X180870044Y-120373956D02*
X180870044Y-108994756D01*
X180870044Y-108994756D02*
X187687789Y-102177012D01*
X187687789Y-75165789D02*
X185648600Y-73126600D01*
X185648600Y-73126600D02*
X185648600Y-66294000D01*
X187687789Y-102177012D02*
X187687789Y-75165789D01*
X185648600Y-66294000D02*
X184378600Y-65024000D01*
%TO.N,Net-(J1-Pad39)*%
X148818600Y-127025400D02*
X146735800Y-127025400D01*
X146735800Y-127025400D02*
X146558000Y-126847600D01*
%TO.N,Net-(J1-Pad40)*%
X188137800Y-102362000D02*
X188137800Y-66243200D01*
X188137798Y-102363412D02*
X188137798Y-102362002D01*
X181356000Y-109145210D02*
X188137798Y-102363412D01*
X181356000Y-122428000D02*
X181356000Y-109145210D01*
X188137800Y-66243200D02*
X186918600Y-65024000D01*
X188137798Y-102362002D02*
X188137800Y-102362000D01*
X176758600Y-127025400D02*
X181356000Y-122428000D01*
%TD*%
M02*
