%TF.GenerationSoftware,KiCad,Pcbnew,(5.1.9)-1*%
%TF.CreationDate,2021-12-10T02:48:29+09:00*%
%TF.ProjectId,pi-extend,70692d65-7874-4656-9e64-2e6b69636164,rev?*%
%TF.SameCoordinates,Original*%
%TF.FileFunction,Legend,Top*%
%TF.FilePolarity,Positive*%
%FSLAX46Y46*%
G04 Gerber Fmt 4.6, Leading zero omitted, Abs format (unit mm)*
G04 Created by KiCad (PCBNEW (5.1.9)-1) date 2021-12-10 02:48:29*
%MOMM*%
%LPD*%
G01*
G04 APERTURE LIST*
%ADD10C,0.125000*%
%ADD11C,0.250000*%
%ADD12C,0.300000*%
%ADD13C,0.150000*%
%ADD14C,0.120000*%
G04 APERTURE END LIST*
D10*
X145765750Y-126650000D02*
X145699083Y-126616666D01*
X145599083Y-126616666D01*
X145499083Y-126650000D01*
X145432416Y-126716666D01*
X145399083Y-126783333D01*
X145365750Y-126916666D01*
X145365750Y-127016666D01*
X145399083Y-127150000D01*
X145432416Y-127216666D01*
X145499083Y-127283333D01*
X145599083Y-127316666D01*
X145665750Y-127316666D01*
X145765750Y-127283333D01*
X145799083Y-127250000D01*
X145799083Y-127016666D01*
X145665750Y-127016666D01*
X146099083Y-127316666D02*
X146099083Y-126616666D01*
X146499083Y-127316666D01*
X146499083Y-126616666D01*
X146832416Y-127316666D02*
X146832416Y-126616666D01*
X146999083Y-126616666D01*
X147099083Y-126650000D01*
X147165750Y-126716666D01*
X147199083Y-126783333D01*
X147232416Y-126916666D01*
X147232416Y-127016666D01*
X147199083Y-127150000D01*
X147165750Y-127216666D01*
X147099083Y-127283333D01*
X146999083Y-127316666D01*
X146832416Y-127316666D01*
X145865750Y-124110000D02*
X145799083Y-124076666D01*
X145699083Y-124076666D01*
X145599083Y-124110000D01*
X145532416Y-124176666D01*
X145499083Y-124243333D01*
X145465750Y-124376666D01*
X145465750Y-124476666D01*
X145499083Y-124610000D01*
X145532416Y-124676666D01*
X145599083Y-124743333D01*
X145699083Y-124776666D01*
X145765750Y-124776666D01*
X145865750Y-124743333D01*
X145899083Y-124710000D01*
X145899083Y-124476666D01*
X145765750Y-124476666D01*
X146165750Y-124143333D02*
X146199083Y-124110000D01*
X146265750Y-124076666D01*
X146432416Y-124076666D01*
X146499083Y-124110000D01*
X146532416Y-124143333D01*
X146565750Y-124210000D01*
X146565750Y-124276666D01*
X146532416Y-124376666D01*
X146132416Y-124776666D01*
X146565750Y-124776666D01*
X147165750Y-124076666D02*
X147032416Y-124076666D01*
X146965750Y-124110000D01*
X146932416Y-124143333D01*
X146865750Y-124243333D01*
X146832416Y-124376666D01*
X146832416Y-124643333D01*
X146865750Y-124710000D01*
X146899083Y-124743333D01*
X146965750Y-124776666D01*
X147099083Y-124776666D01*
X147165750Y-124743333D01*
X147199083Y-124710000D01*
X147232416Y-124643333D01*
X147232416Y-124476666D01*
X147199083Y-124410000D01*
X147165750Y-124376666D01*
X147099083Y-124343333D01*
X146965750Y-124343333D01*
X146899083Y-124376666D01*
X146865750Y-124410000D01*
X146832416Y-124476666D01*
X145865750Y-121570000D02*
X145799083Y-121536666D01*
X145699083Y-121536666D01*
X145599083Y-121570000D01*
X145532416Y-121636666D01*
X145499083Y-121703333D01*
X145465750Y-121836666D01*
X145465750Y-121936666D01*
X145499083Y-122070000D01*
X145532416Y-122136666D01*
X145599083Y-122203333D01*
X145699083Y-122236666D01*
X145765750Y-122236666D01*
X145865750Y-122203333D01*
X145899083Y-122170000D01*
X145899083Y-121936666D01*
X145765750Y-121936666D01*
X146565750Y-122236666D02*
X146165750Y-122236666D01*
X146365750Y-122236666D02*
X146365750Y-121536666D01*
X146299083Y-121636666D01*
X146232416Y-121703333D01*
X146165750Y-121736666D01*
X146899083Y-122236666D02*
X147032416Y-122236666D01*
X147099083Y-122203333D01*
X147132416Y-122170000D01*
X147199083Y-122070000D01*
X147232416Y-121936666D01*
X147232416Y-121670000D01*
X147199083Y-121603333D01*
X147165750Y-121570000D01*
X147099083Y-121536666D01*
X146965750Y-121536666D01*
X146899083Y-121570000D01*
X146865750Y-121603333D01*
X146832416Y-121670000D01*
X146832416Y-121836666D01*
X146865750Y-121903333D01*
X146899083Y-121936666D01*
X146965750Y-121970000D01*
X147099083Y-121970000D01*
X147165750Y-121936666D01*
X147199083Y-121903333D01*
X147232416Y-121836666D01*
X145865750Y-119030000D02*
X145799083Y-118996666D01*
X145699083Y-118996666D01*
X145599083Y-119030000D01*
X145532416Y-119096666D01*
X145499083Y-119163333D01*
X145465750Y-119296666D01*
X145465750Y-119396666D01*
X145499083Y-119530000D01*
X145532416Y-119596666D01*
X145599083Y-119663333D01*
X145699083Y-119696666D01*
X145765750Y-119696666D01*
X145865750Y-119663333D01*
X145899083Y-119630000D01*
X145899083Y-119396666D01*
X145765750Y-119396666D01*
X146565750Y-119696666D02*
X146165750Y-119696666D01*
X146365750Y-119696666D02*
X146365750Y-118996666D01*
X146299083Y-119096666D01*
X146232416Y-119163333D01*
X146165750Y-119196666D01*
X146799083Y-118996666D02*
X147232416Y-118996666D01*
X146999083Y-119263333D01*
X147099083Y-119263333D01*
X147165750Y-119296666D01*
X147199083Y-119330000D01*
X147232416Y-119396666D01*
X147232416Y-119563333D01*
X147199083Y-119630000D01*
X147165750Y-119663333D01*
X147099083Y-119696666D01*
X146899083Y-119696666D01*
X146832416Y-119663333D01*
X146799083Y-119630000D01*
X146532416Y-116490000D02*
X146465750Y-116456666D01*
X146365750Y-116456666D01*
X146265750Y-116490000D01*
X146199083Y-116556666D01*
X146165750Y-116623333D01*
X146132416Y-116756666D01*
X146132416Y-116856666D01*
X146165750Y-116990000D01*
X146199083Y-117056666D01*
X146265750Y-117123333D01*
X146365750Y-117156666D01*
X146432416Y-117156666D01*
X146532416Y-117123333D01*
X146565750Y-117090000D01*
X146565750Y-116856666D01*
X146432416Y-116856666D01*
X147165750Y-116456666D02*
X147032416Y-116456666D01*
X146965750Y-116490000D01*
X146932416Y-116523333D01*
X146865750Y-116623333D01*
X146832416Y-116756666D01*
X146832416Y-117023333D01*
X146865750Y-117090000D01*
X146899083Y-117123333D01*
X146965750Y-117156666D01*
X147099083Y-117156666D01*
X147165750Y-117123333D01*
X147199083Y-117090000D01*
X147232416Y-117023333D01*
X147232416Y-116856666D01*
X147199083Y-116790000D01*
X147165750Y-116756666D01*
X147099083Y-116723333D01*
X146965750Y-116723333D01*
X146899083Y-116756666D01*
X146865750Y-116790000D01*
X146832416Y-116856666D01*
X146532416Y-113950000D02*
X146465750Y-113916666D01*
X146365750Y-113916666D01*
X146265750Y-113950000D01*
X146199083Y-114016666D01*
X146165750Y-114083333D01*
X146132416Y-114216666D01*
X146132416Y-114316666D01*
X146165750Y-114450000D01*
X146199083Y-114516666D01*
X146265750Y-114583333D01*
X146365750Y-114616666D01*
X146432416Y-114616666D01*
X146532416Y-114583333D01*
X146565750Y-114550000D01*
X146565750Y-114316666D01*
X146432416Y-114316666D01*
X147199083Y-113916666D02*
X146865750Y-113916666D01*
X146832416Y-114250000D01*
X146865750Y-114216666D01*
X146932416Y-114183333D01*
X147099083Y-114183333D01*
X147165750Y-114216666D01*
X147199083Y-114250000D01*
X147232416Y-114316666D01*
X147232416Y-114483333D01*
X147199083Y-114550000D01*
X147165750Y-114583333D01*
X147099083Y-114616666D01*
X146932416Y-114616666D01*
X146865750Y-114583333D01*
X146832416Y-114550000D01*
X144599083Y-112076666D02*
X144599083Y-111376666D01*
X144932416Y-112076666D02*
X144932416Y-111376666D01*
X145099083Y-111376666D01*
X145199083Y-111410000D01*
X145265750Y-111476666D01*
X145299083Y-111543333D01*
X145332416Y-111676666D01*
X145332416Y-111776666D01*
X145299083Y-111910000D01*
X145265750Y-111976666D01*
X145199083Y-112043333D01*
X145099083Y-112076666D01*
X144932416Y-112076666D01*
X145465750Y-112143333D02*
X145999083Y-112143333D01*
X146132416Y-112043333D02*
X146232416Y-112076666D01*
X146399083Y-112076666D01*
X146465750Y-112043333D01*
X146499083Y-112010000D01*
X146532416Y-111943333D01*
X146532416Y-111876666D01*
X146499083Y-111810000D01*
X146465750Y-111776666D01*
X146399083Y-111743333D01*
X146265750Y-111710000D01*
X146199083Y-111676666D01*
X146165750Y-111643333D01*
X146132416Y-111576666D01*
X146132416Y-111510000D01*
X146165750Y-111443333D01*
X146199083Y-111410000D01*
X146265750Y-111376666D01*
X146432416Y-111376666D01*
X146532416Y-111410000D01*
X146832416Y-112076666D02*
X146832416Y-111376666D01*
X146999083Y-111376666D01*
X147099083Y-111410000D01*
X147165750Y-111476666D01*
X147199083Y-111543333D01*
X147232416Y-111676666D01*
X147232416Y-111776666D01*
X147199083Y-111910000D01*
X147165750Y-111976666D01*
X147099083Y-112043333D01*
X146999083Y-112076666D01*
X146832416Y-112076666D01*
X145532416Y-78356666D02*
X145965750Y-78356666D01*
X145732416Y-78623333D01*
X145832416Y-78623333D01*
X145899083Y-78656666D01*
X145932416Y-78690000D01*
X145965750Y-78756666D01*
X145965750Y-78923333D01*
X145932416Y-78990000D01*
X145899083Y-79023333D01*
X145832416Y-79056666D01*
X145632416Y-79056666D01*
X145565750Y-79023333D01*
X145532416Y-78990000D01*
X146165750Y-78356666D02*
X146399083Y-79056666D01*
X146632416Y-78356666D01*
X146799083Y-78356666D02*
X147232416Y-78356666D01*
X146999083Y-78623333D01*
X147099083Y-78623333D01*
X147165750Y-78656666D01*
X147199083Y-78690000D01*
X147232416Y-78756666D01*
X147232416Y-78923333D01*
X147199083Y-78990000D01*
X147165750Y-79023333D01*
X147099083Y-79056666D01*
X146899083Y-79056666D01*
X146832416Y-79023333D01*
X146799083Y-78990000D01*
X142965750Y-80930000D02*
X142899083Y-80896666D01*
X142799083Y-80896666D01*
X142699083Y-80930000D01*
X142632416Y-80996666D01*
X142599083Y-81063333D01*
X142565750Y-81196666D01*
X142565750Y-81296666D01*
X142599083Y-81430000D01*
X142632416Y-81496666D01*
X142699083Y-81563333D01*
X142799083Y-81596666D01*
X142865750Y-81596666D01*
X142965750Y-81563333D01*
X142999083Y-81530000D01*
X142999083Y-81296666D01*
X142865750Y-81296666D01*
X143265750Y-80963333D02*
X143299083Y-80930000D01*
X143365750Y-80896666D01*
X143532416Y-80896666D01*
X143599083Y-80930000D01*
X143632416Y-80963333D01*
X143665750Y-81030000D01*
X143665750Y-81096666D01*
X143632416Y-81196666D01*
X143232416Y-81596666D01*
X143665750Y-81596666D01*
X144165750Y-81863333D02*
X144132416Y-81830000D01*
X144065750Y-81730000D01*
X144032416Y-81663333D01*
X143999083Y-81563333D01*
X143965750Y-81396666D01*
X143965750Y-81263333D01*
X143999083Y-81096666D01*
X144032416Y-80996666D01*
X144065750Y-80930000D01*
X144132416Y-80830000D01*
X144165750Y-80796666D01*
X144399083Y-81563333D02*
X144499083Y-81596666D01*
X144665750Y-81596666D01*
X144732416Y-81563333D01*
X144765750Y-81530000D01*
X144799083Y-81463333D01*
X144799083Y-81396666D01*
X144765750Y-81330000D01*
X144732416Y-81296666D01*
X144665750Y-81263333D01*
X144532416Y-81230000D01*
X144465750Y-81196666D01*
X144432416Y-81163333D01*
X144399083Y-81096666D01*
X144399083Y-81030000D01*
X144432416Y-80963333D01*
X144465750Y-80930000D01*
X144532416Y-80896666D01*
X144699083Y-80896666D01*
X144799083Y-80930000D01*
X145099083Y-81596666D02*
X145099083Y-80896666D01*
X145265750Y-80896666D01*
X145365750Y-80930000D01*
X145432416Y-80996666D01*
X145465750Y-81063333D01*
X145499083Y-81196666D01*
X145499083Y-81296666D01*
X145465750Y-81430000D01*
X145432416Y-81496666D01*
X145365750Y-81563333D01*
X145265750Y-81596666D01*
X145099083Y-81596666D01*
X145765750Y-81396666D02*
X146099083Y-81396666D01*
X145699083Y-81596666D02*
X145932416Y-80896666D01*
X146165750Y-81596666D01*
X146765750Y-81596666D02*
X146365750Y-81596666D01*
X146565750Y-81596666D02*
X146565750Y-80896666D01*
X146499083Y-80996666D01*
X146432416Y-81063333D01*
X146365750Y-81096666D01*
X146999083Y-81863333D02*
X147032416Y-81830000D01*
X147099083Y-81730000D01*
X147132416Y-81663333D01*
X147165750Y-81563333D01*
X147199083Y-81396666D01*
X147199083Y-81263333D01*
X147165750Y-81096666D01*
X147132416Y-80996666D01*
X147099083Y-80930000D01*
X147032416Y-80830000D01*
X146999083Y-80796666D01*
X142999083Y-83470000D02*
X142932416Y-83436666D01*
X142832416Y-83436666D01*
X142732416Y-83470000D01*
X142665750Y-83536666D01*
X142632416Y-83603333D01*
X142599083Y-83736666D01*
X142599083Y-83836666D01*
X142632416Y-83970000D01*
X142665750Y-84036666D01*
X142732416Y-84103333D01*
X142832416Y-84136666D01*
X142899083Y-84136666D01*
X142999083Y-84103333D01*
X143032416Y-84070000D01*
X143032416Y-83836666D01*
X142899083Y-83836666D01*
X143265750Y-83436666D02*
X143699083Y-83436666D01*
X143465750Y-83703333D01*
X143565750Y-83703333D01*
X143632416Y-83736666D01*
X143665750Y-83770000D01*
X143699083Y-83836666D01*
X143699083Y-84003333D01*
X143665750Y-84070000D01*
X143632416Y-84103333D01*
X143565750Y-84136666D01*
X143365750Y-84136666D01*
X143299083Y-84103333D01*
X143265750Y-84070000D01*
X144199083Y-84403333D02*
X144165750Y-84370000D01*
X144099083Y-84270000D01*
X144065750Y-84203333D01*
X144032416Y-84103333D01*
X143999083Y-83936666D01*
X143999083Y-83803333D01*
X144032416Y-83636666D01*
X144065750Y-83536666D01*
X144099083Y-83470000D01*
X144165750Y-83370000D01*
X144199083Y-83336666D01*
X144432416Y-84103333D02*
X144532416Y-84136666D01*
X144699083Y-84136666D01*
X144765750Y-84103333D01*
X144799083Y-84070000D01*
X144832416Y-84003333D01*
X144832416Y-83936666D01*
X144799083Y-83870000D01*
X144765750Y-83836666D01*
X144699083Y-83803333D01*
X144565750Y-83770000D01*
X144499083Y-83736666D01*
X144465750Y-83703333D01*
X144432416Y-83636666D01*
X144432416Y-83570000D01*
X144465750Y-83503333D01*
X144499083Y-83470000D01*
X144565750Y-83436666D01*
X144732416Y-83436666D01*
X144832416Y-83470000D01*
X145532416Y-84070000D02*
X145499083Y-84103333D01*
X145399083Y-84136666D01*
X145332416Y-84136666D01*
X145232416Y-84103333D01*
X145165750Y-84036666D01*
X145132416Y-83970000D01*
X145099083Y-83836666D01*
X145099083Y-83736666D01*
X145132416Y-83603333D01*
X145165750Y-83536666D01*
X145232416Y-83470000D01*
X145332416Y-83436666D01*
X145399083Y-83436666D01*
X145499083Y-83470000D01*
X145532416Y-83503333D01*
X146165750Y-84136666D02*
X145832416Y-84136666D01*
X145832416Y-83436666D01*
X146765750Y-84136666D02*
X146365750Y-84136666D01*
X146565750Y-84136666D02*
X146565750Y-83436666D01*
X146499083Y-83536666D01*
X146432416Y-83603333D01*
X146365750Y-83636666D01*
X146999083Y-84403333D02*
X147032416Y-84370000D01*
X147099083Y-84270000D01*
X147132416Y-84203333D01*
X147165750Y-84103333D01*
X147199083Y-83936666D01*
X147199083Y-83803333D01*
X147165750Y-83636666D01*
X147132416Y-83536666D01*
X147099083Y-83470000D01*
X147032416Y-83370000D01*
X146999083Y-83336666D01*
X146532416Y-86010000D02*
X146465750Y-85976666D01*
X146365750Y-85976666D01*
X146265750Y-86010000D01*
X146199083Y-86076666D01*
X146165750Y-86143333D01*
X146132416Y-86276666D01*
X146132416Y-86376666D01*
X146165750Y-86510000D01*
X146199083Y-86576666D01*
X146265750Y-86643333D01*
X146365750Y-86676666D01*
X146432416Y-86676666D01*
X146532416Y-86643333D01*
X146565750Y-86610000D01*
X146565750Y-86376666D01*
X146432416Y-86376666D01*
X147165750Y-86210000D02*
X147165750Y-86676666D01*
X146999083Y-85943333D02*
X146832416Y-86443333D01*
X147265750Y-86443333D01*
X145765750Y-88550000D02*
X145699083Y-88516666D01*
X145599083Y-88516666D01*
X145499083Y-88550000D01*
X145432416Y-88616666D01*
X145399083Y-88683333D01*
X145365750Y-88816666D01*
X145365750Y-88916666D01*
X145399083Y-89050000D01*
X145432416Y-89116666D01*
X145499083Y-89183333D01*
X145599083Y-89216666D01*
X145665750Y-89216666D01*
X145765750Y-89183333D01*
X145799083Y-89150000D01*
X145799083Y-88916666D01*
X145665750Y-88916666D01*
X146099083Y-89216666D02*
X146099083Y-88516666D01*
X146499083Y-89216666D01*
X146499083Y-88516666D01*
X146832416Y-89216666D02*
X146832416Y-88516666D01*
X146999083Y-88516666D01*
X147099083Y-88550000D01*
X147165750Y-88616666D01*
X147199083Y-88683333D01*
X147232416Y-88816666D01*
X147232416Y-88916666D01*
X147199083Y-89050000D01*
X147165750Y-89116666D01*
X147099083Y-89183333D01*
X146999083Y-89216666D01*
X146832416Y-89216666D01*
X145865750Y-91090000D02*
X145799083Y-91056666D01*
X145699083Y-91056666D01*
X145599083Y-91090000D01*
X145532416Y-91156666D01*
X145499083Y-91223333D01*
X145465750Y-91356666D01*
X145465750Y-91456666D01*
X145499083Y-91590000D01*
X145532416Y-91656666D01*
X145599083Y-91723333D01*
X145699083Y-91756666D01*
X145765750Y-91756666D01*
X145865750Y-91723333D01*
X145899083Y-91690000D01*
X145899083Y-91456666D01*
X145765750Y-91456666D01*
X146565750Y-91756666D02*
X146165750Y-91756666D01*
X146365750Y-91756666D02*
X146365750Y-91056666D01*
X146299083Y-91156666D01*
X146232416Y-91223333D01*
X146165750Y-91256666D01*
X146799083Y-91056666D02*
X147265750Y-91056666D01*
X146965750Y-91756666D01*
X145865750Y-93630000D02*
X145799083Y-93596666D01*
X145699083Y-93596666D01*
X145599083Y-93630000D01*
X145532416Y-93696666D01*
X145499083Y-93763333D01*
X145465750Y-93896666D01*
X145465750Y-93996666D01*
X145499083Y-94130000D01*
X145532416Y-94196666D01*
X145599083Y-94263333D01*
X145699083Y-94296666D01*
X145765750Y-94296666D01*
X145865750Y-94263333D01*
X145899083Y-94230000D01*
X145899083Y-93996666D01*
X145765750Y-93996666D01*
X146165750Y-93663333D02*
X146199083Y-93630000D01*
X146265750Y-93596666D01*
X146432416Y-93596666D01*
X146499083Y-93630000D01*
X146532416Y-93663333D01*
X146565750Y-93730000D01*
X146565750Y-93796666D01*
X146532416Y-93896666D01*
X146132416Y-94296666D01*
X146565750Y-94296666D01*
X146799083Y-93596666D02*
X147265750Y-93596666D01*
X146965750Y-94296666D01*
X145865750Y-96170000D02*
X145799083Y-96136666D01*
X145699083Y-96136666D01*
X145599083Y-96170000D01*
X145532416Y-96236666D01*
X145499083Y-96303333D01*
X145465750Y-96436666D01*
X145465750Y-96536666D01*
X145499083Y-96670000D01*
X145532416Y-96736666D01*
X145599083Y-96803333D01*
X145699083Y-96836666D01*
X145765750Y-96836666D01*
X145865750Y-96803333D01*
X145899083Y-96770000D01*
X145899083Y-96536666D01*
X145765750Y-96536666D01*
X146165750Y-96203333D02*
X146199083Y-96170000D01*
X146265750Y-96136666D01*
X146432416Y-96136666D01*
X146499083Y-96170000D01*
X146532416Y-96203333D01*
X146565750Y-96270000D01*
X146565750Y-96336666D01*
X146532416Y-96436666D01*
X146132416Y-96836666D01*
X146565750Y-96836666D01*
X146832416Y-96203333D02*
X146865750Y-96170000D01*
X146932416Y-96136666D01*
X147099083Y-96136666D01*
X147165750Y-96170000D01*
X147199083Y-96203333D01*
X147232416Y-96270000D01*
X147232416Y-96336666D01*
X147199083Y-96436666D01*
X146799083Y-96836666D01*
X147232416Y-96836666D01*
X145532416Y-98676666D02*
X145965750Y-98676666D01*
X145732416Y-98943333D01*
X145832416Y-98943333D01*
X145899083Y-98976666D01*
X145932416Y-99010000D01*
X145965750Y-99076666D01*
X145965750Y-99243333D01*
X145932416Y-99310000D01*
X145899083Y-99343333D01*
X145832416Y-99376666D01*
X145632416Y-99376666D01*
X145565750Y-99343333D01*
X145532416Y-99310000D01*
X146165750Y-98676666D02*
X146399083Y-99376666D01*
X146632416Y-98676666D01*
X146799083Y-98676666D02*
X147232416Y-98676666D01*
X146999083Y-98943333D01*
X147099083Y-98943333D01*
X147165750Y-98976666D01*
X147199083Y-99010000D01*
X147232416Y-99076666D01*
X147232416Y-99243333D01*
X147199083Y-99310000D01*
X147165750Y-99343333D01*
X147099083Y-99376666D01*
X146899083Y-99376666D01*
X146832416Y-99343333D01*
X146799083Y-99310000D01*
X142399083Y-101250000D02*
X142332416Y-101216666D01*
X142232416Y-101216666D01*
X142132416Y-101250000D01*
X142065750Y-101316666D01*
X142032416Y-101383333D01*
X141999083Y-101516666D01*
X141999083Y-101616666D01*
X142032416Y-101750000D01*
X142065750Y-101816666D01*
X142132416Y-101883333D01*
X142232416Y-101916666D01*
X142299083Y-101916666D01*
X142399083Y-101883333D01*
X142432416Y-101850000D01*
X142432416Y-101616666D01*
X142299083Y-101616666D01*
X143099083Y-101916666D02*
X142699083Y-101916666D01*
X142899083Y-101916666D02*
X142899083Y-101216666D01*
X142832416Y-101316666D01*
X142765750Y-101383333D01*
X142699083Y-101416666D01*
X143532416Y-101216666D02*
X143599083Y-101216666D01*
X143665750Y-101250000D01*
X143699083Y-101283333D01*
X143732416Y-101350000D01*
X143765750Y-101483333D01*
X143765750Y-101650000D01*
X143732416Y-101783333D01*
X143699083Y-101850000D01*
X143665750Y-101883333D01*
X143599083Y-101916666D01*
X143532416Y-101916666D01*
X143465750Y-101883333D01*
X143432416Y-101850000D01*
X143399083Y-101783333D01*
X143365750Y-101650000D01*
X143365750Y-101483333D01*
X143399083Y-101350000D01*
X143432416Y-101283333D01*
X143465750Y-101250000D01*
X143532416Y-101216666D01*
X144265750Y-102183333D02*
X144232416Y-102150000D01*
X144165750Y-102050000D01*
X144132416Y-101983333D01*
X144099083Y-101883333D01*
X144065750Y-101716666D01*
X144065750Y-101583333D01*
X144099083Y-101416666D01*
X144132416Y-101316666D01*
X144165750Y-101250000D01*
X144232416Y-101150000D01*
X144265750Y-101116666D01*
X144532416Y-101916666D02*
X144532416Y-101216666D01*
X144765750Y-101716666D01*
X144999083Y-101216666D01*
X144999083Y-101916666D01*
X145465750Y-101216666D02*
X145599083Y-101216666D01*
X145665750Y-101250000D01*
X145732416Y-101316666D01*
X145765750Y-101450000D01*
X145765750Y-101683333D01*
X145732416Y-101816666D01*
X145665750Y-101883333D01*
X145599083Y-101916666D01*
X145465750Y-101916666D01*
X145399083Y-101883333D01*
X145332416Y-101816666D01*
X145299083Y-101683333D01*
X145299083Y-101450000D01*
X145332416Y-101316666D01*
X145399083Y-101250000D01*
X145465750Y-101216666D01*
X146032416Y-101883333D02*
X146132416Y-101916666D01*
X146299083Y-101916666D01*
X146365750Y-101883333D01*
X146399083Y-101850000D01*
X146432416Y-101783333D01*
X146432416Y-101716666D01*
X146399083Y-101650000D01*
X146365750Y-101616666D01*
X146299083Y-101583333D01*
X146165750Y-101550000D01*
X146099083Y-101516666D01*
X146065750Y-101483333D01*
X146032416Y-101416666D01*
X146032416Y-101350000D01*
X146065750Y-101283333D01*
X146099083Y-101250000D01*
X146165750Y-101216666D01*
X146332416Y-101216666D01*
X146432416Y-101250000D01*
X146732416Y-101916666D02*
X146732416Y-101216666D01*
X146999083Y-102183333D02*
X147032416Y-102150000D01*
X147099083Y-102050000D01*
X147132416Y-101983333D01*
X147165750Y-101883333D01*
X147199083Y-101716666D01*
X147199083Y-101583333D01*
X147165750Y-101416666D01*
X147132416Y-101316666D01*
X147099083Y-101250000D01*
X147032416Y-101150000D01*
X146999083Y-101116666D01*
X143065750Y-103790000D02*
X142999083Y-103756666D01*
X142899083Y-103756666D01*
X142799083Y-103790000D01*
X142732416Y-103856666D01*
X142699083Y-103923333D01*
X142665750Y-104056666D01*
X142665750Y-104156666D01*
X142699083Y-104290000D01*
X142732416Y-104356666D01*
X142799083Y-104423333D01*
X142899083Y-104456666D01*
X142965750Y-104456666D01*
X143065750Y-104423333D01*
X143099083Y-104390000D01*
X143099083Y-104156666D01*
X142965750Y-104156666D01*
X143432416Y-104456666D02*
X143565750Y-104456666D01*
X143632416Y-104423333D01*
X143665750Y-104390000D01*
X143732416Y-104290000D01*
X143765750Y-104156666D01*
X143765750Y-103890000D01*
X143732416Y-103823333D01*
X143699083Y-103790000D01*
X143632416Y-103756666D01*
X143499083Y-103756666D01*
X143432416Y-103790000D01*
X143399083Y-103823333D01*
X143365750Y-103890000D01*
X143365750Y-104056666D01*
X143399083Y-104123333D01*
X143432416Y-104156666D01*
X143499083Y-104190000D01*
X143632416Y-104190000D01*
X143699083Y-104156666D01*
X143732416Y-104123333D01*
X143765750Y-104056666D01*
X144265750Y-104723333D02*
X144232416Y-104690000D01*
X144165750Y-104590000D01*
X144132416Y-104523333D01*
X144099083Y-104423333D01*
X144065750Y-104256666D01*
X144065750Y-104123333D01*
X144099083Y-103956666D01*
X144132416Y-103856666D01*
X144165750Y-103790000D01*
X144232416Y-103690000D01*
X144265750Y-103656666D01*
X144532416Y-104456666D02*
X144532416Y-103756666D01*
X144765750Y-104256666D01*
X144999083Y-103756666D01*
X144999083Y-104456666D01*
X145332416Y-104456666D02*
X145332416Y-103756666D01*
X145632416Y-104423333D02*
X145732416Y-104456666D01*
X145899083Y-104456666D01*
X145965750Y-104423333D01*
X145999083Y-104390000D01*
X146032416Y-104323333D01*
X146032416Y-104256666D01*
X145999083Y-104190000D01*
X145965750Y-104156666D01*
X145899083Y-104123333D01*
X145765750Y-104090000D01*
X145699083Y-104056666D01*
X145665750Y-104023333D01*
X145632416Y-103956666D01*
X145632416Y-103890000D01*
X145665750Y-103823333D01*
X145699083Y-103790000D01*
X145765750Y-103756666D01*
X145932416Y-103756666D01*
X146032416Y-103790000D01*
X146465750Y-103756666D02*
X146599083Y-103756666D01*
X146665750Y-103790000D01*
X146732416Y-103856666D01*
X146765750Y-103990000D01*
X146765750Y-104223333D01*
X146732416Y-104356666D01*
X146665750Y-104423333D01*
X146599083Y-104456666D01*
X146465750Y-104456666D01*
X146399083Y-104423333D01*
X146332416Y-104356666D01*
X146299083Y-104223333D01*
X146299083Y-103990000D01*
X146332416Y-103856666D01*
X146399083Y-103790000D01*
X146465750Y-103756666D01*
X146999083Y-104723333D02*
X147032416Y-104690000D01*
X147099083Y-104590000D01*
X147132416Y-104523333D01*
X147165750Y-104423333D01*
X147199083Y-104256666D01*
X147199083Y-104123333D01*
X147165750Y-103956666D01*
X147132416Y-103856666D01*
X147099083Y-103790000D01*
X147032416Y-103690000D01*
X146999083Y-103656666D01*
X142299083Y-106330000D02*
X142232416Y-106296666D01*
X142132416Y-106296666D01*
X142032416Y-106330000D01*
X141965750Y-106396666D01*
X141932416Y-106463333D01*
X141899083Y-106596666D01*
X141899083Y-106696666D01*
X141932416Y-106830000D01*
X141965750Y-106896666D01*
X142032416Y-106963333D01*
X142132416Y-106996666D01*
X142199083Y-106996666D01*
X142299083Y-106963333D01*
X142332416Y-106930000D01*
X142332416Y-106696666D01*
X142199083Y-106696666D01*
X142999083Y-106996666D02*
X142599083Y-106996666D01*
X142799083Y-106996666D02*
X142799083Y-106296666D01*
X142732416Y-106396666D01*
X142665750Y-106463333D01*
X142599083Y-106496666D01*
X143665750Y-106996666D02*
X143265750Y-106996666D01*
X143465750Y-106996666D02*
X143465750Y-106296666D01*
X143399083Y-106396666D01*
X143332416Y-106463333D01*
X143265750Y-106496666D01*
X144165750Y-107263333D02*
X144132416Y-107230000D01*
X144065750Y-107130000D01*
X144032416Y-107063333D01*
X143999083Y-106963333D01*
X143965750Y-106796666D01*
X143965750Y-106663333D01*
X143999083Y-106496666D01*
X144032416Y-106396666D01*
X144065750Y-106330000D01*
X144132416Y-106230000D01*
X144165750Y-106196666D01*
X144399083Y-106963333D02*
X144499083Y-106996666D01*
X144665750Y-106996666D01*
X144732416Y-106963333D01*
X144765750Y-106930000D01*
X144799083Y-106863333D01*
X144799083Y-106796666D01*
X144765750Y-106730000D01*
X144732416Y-106696666D01*
X144665750Y-106663333D01*
X144532416Y-106630000D01*
X144465750Y-106596666D01*
X144432416Y-106563333D01*
X144399083Y-106496666D01*
X144399083Y-106430000D01*
X144432416Y-106363333D01*
X144465750Y-106330000D01*
X144532416Y-106296666D01*
X144699083Y-106296666D01*
X144799083Y-106330000D01*
X145499083Y-106930000D02*
X145465750Y-106963333D01*
X145365750Y-106996666D01*
X145299083Y-106996666D01*
X145199083Y-106963333D01*
X145132416Y-106896666D01*
X145099083Y-106830000D01*
X145065750Y-106696666D01*
X145065750Y-106596666D01*
X145099083Y-106463333D01*
X145132416Y-106396666D01*
X145199083Y-106330000D01*
X145299083Y-106296666D01*
X145365750Y-106296666D01*
X145465750Y-106330000D01*
X145499083Y-106363333D01*
X146132416Y-106996666D02*
X145799083Y-106996666D01*
X145799083Y-106296666D01*
X146365750Y-106996666D02*
X146365750Y-106296666D01*
X146765750Y-106996666D02*
X146465750Y-106596666D01*
X146765750Y-106296666D02*
X146365750Y-106696666D01*
X146999083Y-107263333D02*
X147032416Y-107230000D01*
X147099083Y-107130000D01*
X147132416Y-107063333D01*
X147165750Y-106963333D01*
X147199083Y-106796666D01*
X147199083Y-106663333D01*
X147165750Y-106496666D01*
X147132416Y-106396666D01*
X147099083Y-106330000D01*
X147032416Y-106230000D01*
X146999083Y-106196666D01*
X145765750Y-108870000D02*
X145699083Y-108836666D01*
X145599083Y-108836666D01*
X145499083Y-108870000D01*
X145432416Y-108936666D01*
X145399083Y-109003333D01*
X145365750Y-109136666D01*
X145365750Y-109236666D01*
X145399083Y-109370000D01*
X145432416Y-109436666D01*
X145499083Y-109503333D01*
X145599083Y-109536666D01*
X145665750Y-109536666D01*
X145765750Y-109503333D01*
X145799083Y-109470000D01*
X145799083Y-109236666D01*
X145665750Y-109236666D01*
X146099083Y-109536666D02*
X146099083Y-108836666D01*
X146499083Y-109536666D01*
X146499083Y-108836666D01*
X146832416Y-109536666D02*
X146832416Y-108836666D01*
X146999083Y-108836666D01*
X147099083Y-108870000D01*
X147165750Y-108936666D01*
X147199083Y-109003333D01*
X147232416Y-109136666D01*
X147232416Y-109236666D01*
X147199083Y-109370000D01*
X147165750Y-109436666D01*
X147099083Y-109503333D01*
X146999083Y-109536666D01*
X146832416Y-109536666D01*
X178668583Y-126650000D02*
X178601916Y-126616666D01*
X178501916Y-126616666D01*
X178401916Y-126650000D01*
X178335250Y-126716666D01*
X178301916Y-126783333D01*
X178268583Y-126916666D01*
X178268583Y-127016666D01*
X178301916Y-127150000D01*
X178335250Y-127216666D01*
X178401916Y-127283333D01*
X178501916Y-127316666D01*
X178568583Y-127316666D01*
X178668583Y-127283333D01*
X178701916Y-127250000D01*
X178701916Y-127016666D01*
X178568583Y-127016666D01*
X178968583Y-126683333D02*
X179001916Y-126650000D01*
X179068583Y-126616666D01*
X179235250Y-126616666D01*
X179301916Y-126650000D01*
X179335250Y-126683333D01*
X179368583Y-126750000D01*
X179368583Y-126816666D01*
X179335250Y-126916666D01*
X178935250Y-127316666D01*
X179368583Y-127316666D01*
X180035250Y-127316666D02*
X179635250Y-127316666D01*
X179835250Y-127316666D02*
X179835250Y-126616666D01*
X179768583Y-126716666D01*
X179701916Y-126783333D01*
X179635250Y-126816666D01*
X178668583Y-124110000D02*
X178601916Y-124076666D01*
X178501916Y-124076666D01*
X178401916Y-124110000D01*
X178335250Y-124176666D01*
X178301916Y-124243333D01*
X178268583Y-124376666D01*
X178268583Y-124476666D01*
X178301916Y-124610000D01*
X178335250Y-124676666D01*
X178401916Y-124743333D01*
X178501916Y-124776666D01*
X178568583Y-124776666D01*
X178668583Y-124743333D01*
X178701916Y-124710000D01*
X178701916Y-124476666D01*
X178568583Y-124476666D01*
X178968583Y-124143333D02*
X179001916Y-124110000D01*
X179068583Y-124076666D01*
X179235250Y-124076666D01*
X179301916Y-124110000D01*
X179335250Y-124143333D01*
X179368583Y-124210000D01*
X179368583Y-124276666D01*
X179335250Y-124376666D01*
X178935250Y-124776666D01*
X179368583Y-124776666D01*
X179801916Y-124076666D02*
X179868583Y-124076666D01*
X179935250Y-124110000D01*
X179968583Y-124143333D01*
X180001916Y-124210000D01*
X180035250Y-124343333D01*
X180035250Y-124510000D01*
X180001916Y-124643333D01*
X179968583Y-124710000D01*
X179935250Y-124743333D01*
X179868583Y-124776666D01*
X179801916Y-124776666D01*
X179735250Y-124743333D01*
X179701916Y-124710000D01*
X179668583Y-124643333D01*
X179635250Y-124510000D01*
X179635250Y-124343333D01*
X179668583Y-124210000D01*
X179701916Y-124143333D01*
X179735250Y-124110000D01*
X179801916Y-124076666D01*
X178668583Y-121570000D02*
X178601916Y-121536666D01*
X178501916Y-121536666D01*
X178401916Y-121570000D01*
X178335250Y-121636666D01*
X178301916Y-121703333D01*
X178268583Y-121836666D01*
X178268583Y-121936666D01*
X178301916Y-122070000D01*
X178335250Y-122136666D01*
X178401916Y-122203333D01*
X178501916Y-122236666D01*
X178568583Y-122236666D01*
X178668583Y-122203333D01*
X178701916Y-122170000D01*
X178701916Y-121936666D01*
X178568583Y-121936666D01*
X179368583Y-122236666D02*
X178968583Y-122236666D01*
X179168583Y-122236666D02*
X179168583Y-121536666D01*
X179101916Y-121636666D01*
X179035250Y-121703333D01*
X178968583Y-121736666D01*
X179968583Y-121536666D02*
X179835250Y-121536666D01*
X179768583Y-121570000D01*
X179735250Y-121603333D01*
X179668583Y-121703333D01*
X179635250Y-121836666D01*
X179635250Y-122103333D01*
X179668583Y-122170000D01*
X179701916Y-122203333D01*
X179768583Y-122236666D01*
X179901916Y-122236666D01*
X179968583Y-122203333D01*
X180001916Y-122170000D01*
X180035250Y-122103333D01*
X180035250Y-121936666D01*
X180001916Y-121870000D01*
X179968583Y-121836666D01*
X179901916Y-121803333D01*
X179768583Y-121803333D01*
X179701916Y-121836666D01*
X179668583Y-121870000D01*
X179635250Y-121936666D01*
X178668583Y-119030000D02*
X178601916Y-118996666D01*
X178501916Y-118996666D01*
X178401916Y-119030000D01*
X178335250Y-119096666D01*
X178301916Y-119163333D01*
X178268583Y-119296666D01*
X178268583Y-119396666D01*
X178301916Y-119530000D01*
X178335250Y-119596666D01*
X178401916Y-119663333D01*
X178501916Y-119696666D01*
X178568583Y-119696666D01*
X178668583Y-119663333D01*
X178701916Y-119630000D01*
X178701916Y-119396666D01*
X178568583Y-119396666D01*
X179001916Y-119696666D02*
X179001916Y-118996666D01*
X179401916Y-119696666D01*
X179401916Y-118996666D01*
X179735250Y-119696666D02*
X179735250Y-118996666D01*
X179901916Y-118996666D01*
X180001916Y-119030000D01*
X180068583Y-119096666D01*
X180101916Y-119163333D01*
X180135250Y-119296666D01*
X180135250Y-119396666D01*
X180101916Y-119530000D01*
X180068583Y-119596666D01*
X180001916Y-119663333D01*
X179901916Y-119696666D01*
X179735250Y-119696666D01*
X178668583Y-116490000D02*
X178601916Y-116456666D01*
X178501916Y-116456666D01*
X178401916Y-116490000D01*
X178335250Y-116556666D01*
X178301916Y-116623333D01*
X178268583Y-116756666D01*
X178268583Y-116856666D01*
X178301916Y-116990000D01*
X178335250Y-117056666D01*
X178401916Y-117123333D01*
X178501916Y-117156666D01*
X178568583Y-117156666D01*
X178668583Y-117123333D01*
X178701916Y-117090000D01*
X178701916Y-116856666D01*
X178568583Y-116856666D01*
X179368583Y-117156666D02*
X178968583Y-117156666D01*
X179168583Y-117156666D02*
X179168583Y-116456666D01*
X179101916Y-116556666D01*
X179035250Y-116623333D01*
X178968583Y-116656666D01*
X179635250Y-116523333D02*
X179668583Y-116490000D01*
X179735250Y-116456666D01*
X179901916Y-116456666D01*
X179968583Y-116490000D01*
X180001916Y-116523333D01*
X180035250Y-116590000D01*
X180035250Y-116656666D01*
X180001916Y-116756666D01*
X179601916Y-117156666D01*
X180035250Y-117156666D01*
X178668583Y-113950000D02*
X178601916Y-113916666D01*
X178501916Y-113916666D01*
X178401916Y-113950000D01*
X178335250Y-114016666D01*
X178301916Y-114083333D01*
X178268583Y-114216666D01*
X178268583Y-114316666D01*
X178301916Y-114450000D01*
X178335250Y-114516666D01*
X178401916Y-114583333D01*
X178501916Y-114616666D01*
X178568583Y-114616666D01*
X178668583Y-114583333D01*
X178701916Y-114550000D01*
X178701916Y-114316666D01*
X178568583Y-114316666D01*
X179001916Y-114616666D02*
X179001916Y-113916666D01*
X179401916Y-114616666D01*
X179401916Y-113916666D01*
X179735250Y-114616666D02*
X179735250Y-113916666D01*
X179901916Y-113916666D01*
X180001916Y-113950000D01*
X180068583Y-114016666D01*
X180101916Y-114083333D01*
X180135250Y-114216666D01*
X180135250Y-114316666D01*
X180101916Y-114450000D01*
X180068583Y-114516666D01*
X180001916Y-114583333D01*
X179901916Y-114616666D01*
X179735250Y-114616666D01*
X178301916Y-112076666D02*
X178301916Y-111376666D01*
X178635250Y-112076666D02*
X178635250Y-111376666D01*
X178801916Y-111376666D01*
X178901916Y-111410000D01*
X178968583Y-111476666D01*
X179001916Y-111543333D01*
X179035250Y-111676666D01*
X179035250Y-111776666D01*
X179001916Y-111910000D01*
X178968583Y-111976666D01*
X178901916Y-112043333D01*
X178801916Y-112076666D01*
X178635250Y-112076666D01*
X179168583Y-112143333D02*
X179701916Y-112143333D01*
X179835250Y-112043333D02*
X179935250Y-112076666D01*
X180101916Y-112076666D01*
X180168583Y-112043333D01*
X180201916Y-112010000D01*
X180235250Y-111943333D01*
X180235250Y-111876666D01*
X180201916Y-111810000D01*
X180168583Y-111776666D01*
X180101916Y-111743333D01*
X179968583Y-111710000D01*
X179901916Y-111676666D01*
X179868583Y-111643333D01*
X179835250Y-111576666D01*
X179835250Y-111510000D01*
X179868583Y-111443333D01*
X179901916Y-111410000D01*
X179968583Y-111376666D01*
X180135250Y-111376666D01*
X180235250Y-111410000D01*
X180935250Y-112010000D02*
X180901916Y-112043333D01*
X180801916Y-112076666D01*
X180735250Y-112076666D01*
X180635250Y-112043333D01*
X180568583Y-111976666D01*
X180535250Y-111910000D01*
X180501916Y-111776666D01*
X180501916Y-111676666D01*
X180535250Y-111543333D01*
X180568583Y-111476666D01*
X180635250Y-111410000D01*
X180735250Y-111376666D01*
X180801916Y-111376666D01*
X180901916Y-111410000D01*
X180935250Y-111443333D01*
X178668583Y-108870000D02*
X178601916Y-108836666D01*
X178501916Y-108836666D01*
X178401916Y-108870000D01*
X178335250Y-108936666D01*
X178301916Y-109003333D01*
X178268583Y-109136666D01*
X178268583Y-109236666D01*
X178301916Y-109370000D01*
X178335250Y-109436666D01*
X178401916Y-109503333D01*
X178501916Y-109536666D01*
X178568583Y-109536666D01*
X178668583Y-109503333D01*
X178701916Y-109470000D01*
X178701916Y-109236666D01*
X178568583Y-109236666D01*
X178935250Y-108836666D02*
X179401916Y-108836666D01*
X179101916Y-109536666D01*
X179868583Y-109803333D02*
X179835250Y-109770000D01*
X179768583Y-109670000D01*
X179735250Y-109603333D01*
X179701916Y-109503333D01*
X179668583Y-109336666D01*
X179668583Y-109203333D01*
X179701916Y-109036666D01*
X179735250Y-108936666D01*
X179768583Y-108870000D01*
X179835250Y-108770000D01*
X179868583Y-108736666D01*
X180535250Y-109470000D02*
X180501916Y-109503333D01*
X180401916Y-109536666D01*
X180335250Y-109536666D01*
X180235250Y-109503333D01*
X180168583Y-109436666D01*
X180135250Y-109370000D01*
X180101916Y-109236666D01*
X180101916Y-109136666D01*
X180135250Y-109003333D01*
X180168583Y-108936666D01*
X180235250Y-108870000D01*
X180335250Y-108836666D01*
X180401916Y-108836666D01*
X180501916Y-108870000D01*
X180535250Y-108903333D01*
X180835250Y-109170000D02*
X181068583Y-109170000D01*
X181168583Y-109536666D02*
X180835250Y-109536666D01*
X180835250Y-108836666D01*
X181168583Y-108836666D01*
X181835250Y-109536666D02*
X181435250Y-109536666D01*
X181635250Y-109536666D02*
X181635250Y-108836666D01*
X181568583Y-108936666D01*
X181501916Y-109003333D01*
X181435250Y-109036666D01*
X182068583Y-109803333D02*
X182101916Y-109770000D01*
X182168583Y-109670000D01*
X182201916Y-109603333D01*
X182235250Y-109503333D01*
X182268583Y-109336666D01*
X182268583Y-109203333D01*
X182235250Y-109036666D01*
X182201916Y-108936666D01*
X182168583Y-108870000D01*
X182101916Y-108770000D01*
X182068583Y-108736666D01*
X178668583Y-106330000D02*
X178601916Y-106296666D01*
X178501916Y-106296666D01*
X178401916Y-106330000D01*
X178335250Y-106396666D01*
X178301916Y-106463333D01*
X178268583Y-106596666D01*
X178268583Y-106696666D01*
X178301916Y-106830000D01*
X178335250Y-106896666D01*
X178401916Y-106963333D01*
X178501916Y-106996666D01*
X178568583Y-106996666D01*
X178668583Y-106963333D01*
X178701916Y-106930000D01*
X178701916Y-106696666D01*
X178568583Y-106696666D01*
X179101916Y-106596666D02*
X179035250Y-106563333D01*
X179001916Y-106530000D01*
X178968583Y-106463333D01*
X178968583Y-106430000D01*
X179001916Y-106363333D01*
X179035250Y-106330000D01*
X179101916Y-106296666D01*
X179235250Y-106296666D01*
X179301916Y-106330000D01*
X179335250Y-106363333D01*
X179368583Y-106430000D01*
X179368583Y-106463333D01*
X179335250Y-106530000D01*
X179301916Y-106563333D01*
X179235250Y-106596666D01*
X179101916Y-106596666D01*
X179035250Y-106630000D01*
X179001916Y-106663333D01*
X178968583Y-106730000D01*
X178968583Y-106863333D01*
X179001916Y-106930000D01*
X179035250Y-106963333D01*
X179101916Y-106996666D01*
X179235250Y-106996666D01*
X179301916Y-106963333D01*
X179335250Y-106930000D01*
X179368583Y-106863333D01*
X179368583Y-106730000D01*
X179335250Y-106663333D01*
X179301916Y-106630000D01*
X179235250Y-106596666D01*
X179868583Y-107263333D02*
X179835250Y-107230000D01*
X179768583Y-107130000D01*
X179735250Y-107063333D01*
X179701916Y-106963333D01*
X179668583Y-106796666D01*
X179668583Y-106663333D01*
X179701916Y-106496666D01*
X179735250Y-106396666D01*
X179768583Y-106330000D01*
X179835250Y-106230000D01*
X179868583Y-106196666D01*
X180535250Y-106930000D02*
X180501916Y-106963333D01*
X180401916Y-106996666D01*
X180335250Y-106996666D01*
X180235250Y-106963333D01*
X180168583Y-106896666D01*
X180135250Y-106830000D01*
X180101916Y-106696666D01*
X180101916Y-106596666D01*
X180135250Y-106463333D01*
X180168583Y-106396666D01*
X180235250Y-106330000D01*
X180335250Y-106296666D01*
X180401916Y-106296666D01*
X180501916Y-106330000D01*
X180535250Y-106363333D01*
X180835250Y-106630000D02*
X181068583Y-106630000D01*
X181168583Y-106996666D02*
X180835250Y-106996666D01*
X180835250Y-106296666D01*
X181168583Y-106296666D01*
X181601916Y-106296666D02*
X181668583Y-106296666D01*
X181735250Y-106330000D01*
X181768583Y-106363333D01*
X181801916Y-106430000D01*
X181835250Y-106563333D01*
X181835250Y-106730000D01*
X181801916Y-106863333D01*
X181768583Y-106930000D01*
X181735250Y-106963333D01*
X181668583Y-106996666D01*
X181601916Y-106996666D01*
X181535250Y-106963333D01*
X181501916Y-106930000D01*
X181468583Y-106863333D01*
X181435250Y-106730000D01*
X181435250Y-106563333D01*
X181468583Y-106430000D01*
X181501916Y-106363333D01*
X181535250Y-106330000D01*
X181601916Y-106296666D01*
X182068583Y-107263333D02*
X182101916Y-107230000D01*
X182168583Y-107130000D01*
X182201916Y-107063333D01*
X182235250Y-106963333D01*
X182268583Y-106796666D01*
X182268583Y-106663333D01*
X182235250Y-106496666D01*
X182201916Y-106396666D01*
X182168583Y-106330000D01*
X182101916Y-106230000D01*
X182068583Y-106196666D01*
X178668583Y-103790000D02*
X178601916Y-103756666D01*
X178501916Y-103756666D01*
X178401916Y-103790000D01*
X178335250Y-103856666D01*
X178301916Y-103923333D01*
X178268583Y-104056666D01*
X178268583Y-104156666D01*
X178301916Y-104290000D01*
X178335250Y-104356666D01*
X178401916Y-104423333D01*
X178501916Y-104456666D01*
X178568583Y-104456666D01*
X178668583Y-104423333D01*
X178701916Y-104390000D01*
X178701916Y-104156666D01*
X178568583Y-104156666D01*
X178968583Y-103823333D02*
X179001916Y-103790000D01*
X179068583Y-103756666D01*
X179235250Y-103756666D01*
X179301916Y-103790000D01*
X179335250Y-103823333D01*
X179368583Y-103890000D01*
X179368583Y-103956666D01*
X179335250Y-104056666D01*
X178935250Y-104456666D01*
X179368583Y-104456666D01*
X180001916Y-103756666D02*
X179668583Y-103756666D01*
X179635250Y-104090000D01*
X179668583Y-104056666D01*
X179735250Y-104023333D01*
X179901916Y-104023333D01*
X179968583Y-104056666D01*
X180001916Y-104090000D01*
X180035250Y-104156666D01*
X180035250Y-104323333D01*
X180001916Y-104390000D01*
X179968583Y-104423333D01*
X179901916Y-104456666D01*
X179735250Y-104456666D01*
X179668583Y-104423333D01*
X179635250Y-104390000D01*
X178668583Y-101250000D02*
X178601916Y-101216666D01*
X178501916Y-101216666D01*
X178401916Y-101250000D01*
X178335250Y-101316666D01*
X178301916Y-101383333D01*
X178268583Y-101516666D01*
X178268583Y-101616666D01*
X178301916Y-101750000D01*
X178335250Y-101816666D01*
X178401916Y-101883333D01*
X178501916Y-101916666D01*
X178568583Y-101916666D01*
X178668583Y-101883333D01*
X178701916Y-101850000D01*
X178701916Y-101616666D01*
X178568583Y-101616666D01*
X179001916Y-101916666D02*
X179001916Y-101216666D01*
X179401916Y-101916666D01*
X179401916Y-101216666D01*
X179735250Y-101916666D02*
X179735250Y-101216666D01*
X179901916Y-101216666D01*
X180001916Y-101250000D01*
X180068583Y-101316666D01*
X180101916Y-101383333D01*
X180135250Y-101516666D01*
X180135250Y-101616666D01*
X180101916Y-101750000D01*
X180068583Y-101816666D01*
X180001916Y-101883333D01*
X179901916Y-101916666D01*
X179735250Y-101916666D01*
X178668583Y-98710000D02*
X178601916Y-98676666D01*
X178501916Y-98676666D01*
X178401916Y-98710000D01*
X178335250Y-98776666D01*
X178301916Y-98843333D01*
X178268583Y-98976666D01*
X178268583Y-99076666D01*
X178301916Y-99210000D01*
X178335250Y-99276666D01*
X178401916Y-99343333D01*
X178501916Y-99376666D01*
X178568583Y-99376666D01*
X178668583Y-99343333D01*
X178701916Y-99310000D01*
X178701916Y-99076666D01*
X178568583Y-99076666D01*
X178968583Y-98743333D02*
X179001916Y-98710000D01*
X179068583Y-98676666D01*
X179235250Y-98676666D01*
X179301916Y-98710000D01*
X179335250Y-98743333D01*
X179368583Y-98810000D01*
X179368583Y-98876666D01*
X179335250Y-98976666D01*
X178935250Y-99376666D01*
X179368583Y-99376666D01*
X179968583Y-98910000D02*
X179968583Y-99376666D01*
X179801916Y-98643333D02*
X179635250Y-99143333D01*
X180068583Y-99143333D01*
X178668583Y-96170000D02*
X178601916Y-96136666D01*
X178501916Y-96136666D01*
X178401916Y-96170000D01*
X178335250Y-96236666D01*
X178301916Y-96303333D01*
X178268583Y-96436666D01*
X178268583Y-96536666D01*
X178301916Y-96670000D01*
X178335250Y-96736666D01*
X178401916Y-96803333D01*
X178501916Y-96836666D01*
X178568583Y-96836666D01*
X178668583Y-96803333D01*
X178701916Y-96770000D01*
X178701916Y-96536666D01*
X178568583Y-96536666D01*
X178968583Y-96203333D02*
X179001916Y-96170000D01*
X179068583Y-96136666D01*
X179235250Y-96136666D01*
X179301916Y-96170000D01*
X179335250Y-96203333D01*
X179368583Y-96270000D01*
X179368583Y-96336666D01*
X179335250Y-96436666D01*
X178935250Y-96836666D01*
X179368583Y-96836666D01*
X179601916Y-96136666D02*
X180035250Y-96136666D01*
X179801916Y-96403333D01*
X179901916Y-96403333D01*
X179968583Y-96436666D01*
X180001916Y-96470000D01*
X180035250Y-96536666D01*
X180035250Y-96703333D01*
X180001916Y-96770000D01*
X179968583Y-96803333D01*
X179901916Y-96836666D01*
X179701916Y-96836666D01*
X179635250Y-96803333D01*
X179601916Y-96770000D01*
X178668583Y-93630000D02*
X178601916Y-93596666D01*
X178501916Y-93596666D01*
X178401916Y-93630000D01*
X178335250Y-93696666D01*
X178301916Y-93763333D01*
X178268583Y-93896666D01*
X178268583Y-93996666D01*
X178301916Y-94130000D01*
X178335250Y-94196666D01*
X178401916Y-94263333D01*
X178501916Y-94296666D01*
X178568583Y-94296666D01*
X178668583Y-94263333D01*
X178701916Y-94230000D01*
X178701916Y-93996666D01*
X178568583Y-93996666D01*
X179001916Y-94296666D02*
X179001916Y-93596666D01*
X179401916Y-94296666D01*
X179401916Y-93596666D01*
X179735250Y-94296666D02*
X179735250Y-93596666D01*
X179901916Y-93596666D01*
X180001916Y-93630000D01*
X180068583Y-93696666D01*
X180101916Y-93763333D01*
X180135250Y-93896666D01*
X180135250Y-93996666D01*
X180101916Y-94130000D01*
X180068583Y-94196666D01*
X180001916Y-94263333D01*
X179901916Y-94296666D01*
X179735250Y-94296666D01*
X178668583Y-91090000D02*
X178601916Y-91056666D01*
X178501916Y-91056666D01*
X178401916Y-91090000D01*
X178335250Y-91156666D01*
X178301916Y-91223333D01*
X178268583Y-91356666D01*
X178268583Y-91456666D01*
X178301916Y-91590000D01*
X178335250Y-91656666D01*
X178401916Y-91723333D01*
X178501916Y-91756666D01*
X178568583Y-91756666D01*
X178668583Y-91723333D01*
X178701916Y-91690000D01*
X178701916Y-91456666D01*
X178568583Y-91456666D01*
X179368583Y-91756666D02*
X178968583Y-91756666D01*
X179168583Y-91756666D02*
X179168583Y-91056666D01*
X179101916Y-91156666D01*
X179035250Y-91223333D01*
X178968583Y-91256666D01*
X179768583Y-91356666D02*
X179701916Y-91323333D01*
X179668583Y-91290000D01*
X179635250Y-91223333D01*
X179635250Y-91190000D01*
X179668583Y-91123333D01*
X179701916Y-91090000D01*
X179768583Y-91056666D01*
X179901916Y-91056666D01*
X179968583Y-91090000D01*
X180001916Y-91123333D01*
X180035250Y-91190000D01*
X180035250Y-91223333D01*
X180001916Y-91290000D01*
X179968583Y-91323333D01*
X179901916Y-91356666D01*
X179768583Y-91356666D01*
X179701916Y-91390000D01*
X179668583Y-91423333D01*
X179635250Y-91490000D01*
X179635250Y-91623333D01*
X179668583Y-91690000D01*
X179701916Y-91723333D01*
X179768583Y-91756666D01*
X179901916Y-91756666D01*
X179968583Y-91723333D01*
X180001916Y-91690000D01*
X180035250Y-91623333D01*
X180035250Y-91490000D01*
X180001916Y-91423333D01*
X179968583Y-91390000D01*
X179901916Y-91356666D01*
X178668583Y-88550000D02*
X178601916Y-88516666D01*
X178501916Y-88516666D01*
X178401916Y-88550000D01*
X178335250Y-88616666D01*
X178301916Y-88683333D01*
X178268583Y-88816666D01*
X178268583Y-88916666D01*
X178301916Y-89050000D01*
X178335250Y-89116666D01*
X178401916Y-89183333D01*
X178501916Y-89216666D01*
X178568583Y-89216666D01*
X178668583Y-89183333D01*
X178701916Y-89150000D01*
X178701916Y-88916666D01*
X178568583Y-88916666D01*
X179368583Y-89216666D02*
X178968583Y-89216666D01*
X179168583Y-89216666D02*
X179168583Y-88516666D01*
X179101916Y-88616666D01*
X179035250Y-88683333D01*
X178968583Y-88716666D01*
X180001916Y-88516666D02*
X179668583Y-88516666D01*
X179635250Y-88850000D01*
X179668583Y-88816666D01*
X179735250Y-88783333D01*
X179901916Y-88783333D01*
X179968583Y-88816666D01*
X180001916Y-88850000D01*
X180035250Y-88916666D01*
X180035250Y-89083333D01*
X180001916Y-89150000D01*
X179968583Y-89183333D01*
X179901916Y-89216666D01*
X179735250Y-89216666D01*
X179668583Y-89183333D01*
X179635250Y-89150000D01*
X180535250Y-89483333D02*
X180501916Y-89450000D01*
X180435250Y-89350000D01*
X180401916Y-89283333D01*
X180368583Y-89183333D01*
X180335250Y-89016666D01*
X180335250Y-88883333D01*
X180368583Y-88716666D01*
X180401916Y-88616666D01*
X180435250Y-88550000D01*
X180501916Y-88450000D01*
X180535250Y-88416666D01*
X181201916Y-89216666D02*
X180968583Y-88883333D01*
X180801916Y-89216666D02*
X180801916Y-88516666D01*
X181068583Y-88516666D01*
X181135250Y-88550000D01*
X181168583Y-88583333D01*
X181201916Y-88650000D01*
X181201916Y-88750000D01*
X181168583Y-88816666D01*
X181135250Y-88850000D01*
X181068583Y-88883333D01*
X180801916Y-88883333D01*
X181435250Y-88516666D02*
X181901916Y-89216666D01*
X181901916Y-88516666D02*
X181435250Y-89216666D01*
X182168583Y-89216666D02*
X182168583Y-88516666D01*
X182335250Y-88516666D01*
X182435250Y-88550000D01*
X182501916Y-88616666D01*
X182535250Y-88683333D01*
X182568583Y-88816666D01*
X182568583Y-88916666D01*
X182535250Y-89050000D01*
X182501916Y-89116666D01*
X182435250Y-89183333D01*
X182335250Y-89216666D01*
X182168583Y-89216666D01*
X183001916Y-88516666D02*
X183068583Y-88516666D01*
X183135250Y-88550000D01*
X183168583Y-88583333D01*
X183201916Y-88650000D01*
X183235250Y-88783333D01*
X183235250Y-88950000D01*
X183201916Y-89083333D01*
X183168583Y-89150000D01*
X183135250Y-89183333D01*
X183068583Y-89216666D01*
X183001916Y-89216666D01*
X182935250Y-89183333D01*
X182901916Y-89150000D01*
X182868583Y-89083333D01*
X182835250Y-88950000D01*
X182835250Y-88783333D01*
X182868583Y-88650000D01*
X182901916Y-88583333D01*
X182935250Y-88550000D01*
X183001916Y-88516666D01*
X183468583Y-89483333D02*
X183501916Y-89450000D01*
X183568583Y-89350000D01*
X183601916Y-89283333D01*
X183635250Y-89183333D01*
X183668583Y-89016666D01*
X183668583Y-88883333D01*
X183635250Y-88716666D01*
X183601916Y-88616666D01*
X183568583Y-88550000D01*
X183501916Y-88450000D01*
X183468583Y-88416666D01*
X178668583Y-86010000D02*
X178601916Y-85976666D01*
X178501916Y-85976666D01*
X178401916Y-86010000D01*
X178335250Y-86076666D01*
X178301916Y-86143333D01*
X178268583Y-86276666D01*
X178268583Y-86376666D01*
X178301916Y-86510000D01*
X178335250Y-86576666D01*
X178401916Y-86643333D01*
X178501916Y-86676666D01*
X178568583Y-86676666D01*
X178668583Y-86643333D01*
X178701916Y-86610000D01*
X178701916Y-86376666D01*
X178568583Y-86376666D01*
X179368583Y-86676666D02*
X178968583Y-86676666D01*
X179168583Y-86676666D02*
X179168583Y-85976666D01*
X179101916Y-86076666D01*
X179035250Y-86143333D01*
X178968583Y-86176666D01*
X179968583Y-86210000D02*
X179968583Y-86676666D01*
X179801916Y-85943333D02*
X179635250Y-86443333D01*
X180068583Y-86443333D01*
X180535250Y-86943333D02*
X180501916Y-86910000D01*
X180435250Y-86810000D01*
X180401916Y-86743333D01*
X180368583Y-86643333D01*
X180335250Y-86476666D01*
X180335250Y-86343333D01*
X180368583Y-86176666D01*
X180401916Y-86076666D01*
X180435250Y-86010000D01*
X180501916Y-85910000D01*
X180535250Y-85876666D01*
X180701916Y-85976666D02*
X181101916Y-85976666D01*
X180901916Y-86676666D02*
X180901916Y-85976666D01*
X181268583Y-85976666D02*
X181735250Y-86676666D01*
X181735250Y-85976666D02*
X181268583Y-86676666D01*
X182001916Y-86676666D02*
X182001916Y-85976666D01*
X182168583Y-85976666D01*
X182268583Y-86010000D01*
X182335250Y-86076666D01*
X182368583Y-86143333D01*
X182401916Y-86276666D01*
X182401916Y-86376666D01*
X182368583Y-86510000D01*
X182335250Y-86576666D01*
X182268583Y-86643333D01*
X182168583Y-86676666D01*
X182001916Y-86676666D01*
X182835250Y-85976666D02*
X182901916Y-85976666D01*
X182968583Y-86010000D01*
X183001916Y-86043333D01*
X183035250Y-86110000D01*
X183068583Y-86243333D01*
X183068583Y-86410000D01*
X183035250Y-86543333D01*
X183001916Y-86610000D01*
X182968583Y-86643333D01*
X182901916Y-86676666D01*
X182835250Y-86676666D01*
X182768583Y-86643333D01*
X182735250Y-86610000D01*
X182701916Y-86543333D01*
X182668583Y-86410000D01*
X182668583Y-86243333D01*
X182701916Y-86110000D01*
X182735250Y-86043333D01*
X182768583Y-86010000D01*
X182835250Y-85976666D01*
X183301916Y-86943333D02*
X183335250Y-86910000D01*
X183401916Y-86810000D01*
X183435250Y-86743333D01*
X183468583Y-86643333D01*
X183501916Y-86476666D01*
X183501916Y-86343333D01*
X183468583Y-86176666D01*
X183435250Y-86076666D01*
X183401916Y-86010000D01*
X183335250Y-85910000D01*
X183301916Y-85876666D01*
X178668583Y-83470000D02*
X178601916Y-83436666D01*
X178501916Y-83436666D01*
X178401916Y-83470000D01*
X178335250Y-83536666D01*
X178301916Y-83603333D01*
X178268583Y-83736666D01*
X178268583Y-83836666D01*
X178301916Y-83970000D01*
X178335250Y-84036666D01*
X178401916Y-84103333D01*
X178501916Y-84136666D01*
X178568583Y-84136666D01*
X178668583Y-84103333D01*
X178701916Y-84070000D01*
X178701916Y-83836666D01*
X178568583Y-83836666D01*
X179001916Y-84136666D02*
X179001916Y-83436666D01*
X179401916Y-84136666D01*
X179401916Y-83436666D01*
X179735250Y-84136666D02*
X179735250Y-83436666D01*
X179901916Y-83436666D01*
X180001916Y-83470000D01*
X180068583Y-83536666D01*
X180101916Y-83603333D01*
X180135250Y-83736666D01*
X180135250Y-83836666D01*
X180101916Y-83970000D01*
X180068583Y-84036666D01*
X180001916Y-84103333D01*
X179901916Y-84136666D01*
X179735250Y-84136666D01*
X178635250Y-80896666D02*
X178301916Y-80896666D01*
X178268583Y-81230000D01*
X178301916Y-81196666D01*
X178368583Y-81163333D01*
X178535250Y-81163333D01*
X178601916Y-81196666D01*
X178635250Y-81230000D01*
X178668583Y-81296666D01*
X178668583Y-81463333D01*
X178635250Y-81530000D01*
X178601916Y-81563333D01*
X178535250Y-81596666D01*
X178368583Y-81596666D01*
X178301916Y-81563333D01*
X178268583Y-81530000D01*
X178868583Y-80896666D02*
X179101916Y-81596666D01*
X179335250Y-80896666D01*
X178635250Y-78356666D02*
X178301916Y-78356666D01*
X178268583Y-78690000D01*
X178301916Y-78656666D01*
X178368583Y-78623333D01*
X178535250Y-78623333D01*
X178601916Y-78656666D01*
X178635250Y-78690000D01*
X178668583Y-78756666D01*
X178668583Y-78923333D01*
X178635250Y-78990000D01*
X178601916Y-79023333D01*
X178535250Y-79056666D01*
X178368583Y-79056666D01*
X178301916Y-79023333D01*
X178268583Y-78990000D01*
X178868583Y-78356666D02*
X179101916Y-79056666D01*
X179335250Y-78356666D01*
D11*
X177347714Y-73604380D02*
X177014380Y-73128190D01*
X176776285Y-73604380D02*
X176776285Y-72604380D01*
X177157238Y-72604380D01*
X177252476Y-72652000D01*
X177300095Y-72699619D01*
X177347714Y-72794857D01*
X177347714Y-72937714D01*
X177300095Y-73032952D01*
X177252476Y-73080571D01*
X177157238Y-73128190D01*
X176776285Y-73128190D01*
X178157238Y-73556761D02*
X178062000Y-73604380D01*
X177871523Y-73604380D01*
X177776285Y-73556761D01*
X177728666Y-73461523D01*
X177728666Y-73080571D01*
X177776285Y-72985333D01*
X177871523Y-72937714D01*
X178062000Y-72937714D01*
X178157238Y-72985333D01*
X178204857Y-73080571D01*
X178204857Y-73175809D01*
X177728666Y-73271047D01*
X178538190Y-72937714D02*
X178776285Y-73604380D01*
X179014380Y-72937714D01*
X179395333Y-73509142D02*
X179442952Y-73556761D01*
X179395333Y-73604380D01*
X179347714Y-73556761D01*
X179395333Y-73509142D01*
X179395333Y-73604380D01*
X180395333Y-73604380D02*
X179823904Y-73604380D01*
X180109619Y-73604380D02*
X180109619Y-72604380D01*
X180014380Y-72747238D01*
X179919142Y-72842476D01*
X179823904Y-72890095D01*
D12*
X146492285Y-73576571D02*
X145992285Y-72862285D01*
X145635142Y-73576571D02*
X145635142Y-72076571D01*
X146206571Y-72076571D01*
X146349428Y-72148000D01*
X146420857Y-72219428D01*
X146492285Y-72362285D01*
X146492285Y-72576571D01*
X146420857Y-72719428D01*
X146349428Y-72790857D01*
X146206571Y-72862285D01*
X145635142Y-72862285D01*
X147778000Y-73576571D02*
X147778000Y-72790857D01*
X147706571Y-72648000D01*
X147563714Y-72576571D01*
X147278000Y-72576571D01*
X147135142Y-72648000D01*
X147778000Y-73505142D02*
X147635142Y-73576571D01*
X147278000Y-73576571D01*
X147135142Y-73505142D01*
X147063714Y-73362285D01*
X147063714Y-73219428D01*
X147135142Y-73076571D01*
X147278000Y-73005142D01*
X147635142Y-73005142D01*
X147778000Y-72933714D01*
X148420857Y-73505142D02*
X148563714Y-73576571D01*
X148849428Y-73576571D01*
X148992285Y-73505142D01*
X149063714Y-73362285D01*
X149063714Y-73290857D01*
X148992285Y-73148000D01*
X148849428Y-73076571D01*
X148635142Y-73076571D01*
X148492285Y-73005142D01*
X148420857Y-72862285D01*
X148420857Y-72790857D01*
X148492285Y-72648000D01*
X148635142Y-72576571D01*
X148849428Y-72576571D01*
X148992285Y-72648000D01*
X149706571Y-72576571D02*
X149706571Y-74076571D01*
X149706571Y-72648000D02*
X149849428Y-72576571D01*
X150135142Y-72576571D01*
X150278000Y-72648000D01*
X150349428Y-72719428D01*
X150420857Y-72862285D01*
X150420857Y-73290857D01*
X150349428Y-73433714D01*
X150278000Y-73505142D01*
X150135142Y-73576571D01*
X149849428Y-73576571D01*
X149706571Y-73505142D01*
X151063714Y-73576571D02*
X151063714Y-72076571D01*
X151063714Y-72648000D02*
X151206571Y-72576571D01*
X151492285Y-72576571D01*
X151635142Y-72648000D01*
X151706571Y-72719428D01*
X151778000Y-72862285D01*
X151778000Y-73290857D01*
X151706571Y-73433714D01*
X151635142Y-73505142D01*
X151492285Y-73576571D01*
X151206571Y-73576571D01*
X151063714Y-73505142D01*
X152992285Y-73505142D02*
X152849428Y-73576571D01*
X152563714Y-73576571D01*
X152420857Y-73505142D01*
X152349428Y-73362285D01*
X152349428Y-72790857D01*
X152420857Y-72648000D01*
X152563714Y-72576571D01*
X152849428Y-72576571D01*
X152992285Y-72648000D01*
X153063714Y-72790857D01*
X153063714Y-72933714D01*
X152349428Y-73076571D01*
X153706571Y-73576571D02*
X153706571Y-72576571D01*
X153706571Y-72862285D02*
X153778000Y-72719428D01*
X153849428Y-72648000D01*
X153992285Y-72576571D01*
X154135142Y-72576571D01*
X154635142Y-73576571D02*
X154635142Y-72576571D01*
X154635142Y-72862285D02*
X154706571Y-72719428D01*
X154778000Y-72648000D01*
X154920857Y-72576571D01*
X155063714Y-72576571D01*
X155420857Y-72576571D02*
X155778000Y-73576571D01*
X156135142Y-72576571D02*
X155778000Y-73576571D01*
X155635142Y-73933714D01*
X155563714Y-74005142D01*
X155420857Y-74076571D01*
X156706571Y-73576571D02*
X156706571Y-72076571D01*
X157278000Y-72076571D01*
X157420857Y-72148000D01*
X157492285Y-72219428D01*
X157563714Y-72362285D01*
X157563714Y-72576571D01*
X157492285Y-72719428D01*
X157420857Y-72790857D01*
X157278000Y-72862285D01*
X156706571Y-72862285D01*
X158206571Y-73576571D02*
X158206571Y-72576571D01*
X158206571Y-72076571D02*
X158135142Y-72148000D01*
X158206571Y-72219428D01*
X158278000Y-72148000D01*
X158206571Y-72076571D01*
X158206571Y-72219428D01*
X160849428Y-72148000D02*
X160706571Y-72076571D01*
X160492285Y-72076571D01*
X160278000Y-72148000D01*
X160135142Y-72290857D01*
X160063714Y-72433714D01*
X159992285Y-72719428D01*
X159992285Y-72933714D01*
X160063714Y-73219428D01*
X160135142Y-73362285D01*
X160278000Y-73505142D01*
X160492285Y-73576571D01*
X160635142Y-73576571D01*
X160849428Y-73505142D01*
X160920857Y-73433714D01*
X160920857Y-72933714D01*
X160635142Y-72933714D01*
X161563714Y-73576571D02*
X161563714Y-72076571D01*
X162135142Y-72076571D01*
X162278000Y-72148000D01*
X162349428Y-72219428D01*
X162420857Y-72362285D01*
X162420857Y-72576571D01*
X162349428Y-72719428D01*
X162278000Y-72790857D01*
X162135142Y-72862285D01*
X161563714Y-72862285D01*
X163063714Y-73576571D02*
X163063714Y-72076571D01*
X164063714Y-72076571D02*
X164349428Y-72076571D01*
X164492285Y-72148000D01*
X164635142Y-72290857D01*
X164706571Y-72576571D01*
X164706571Y-73076571D01*
X164635142Y-73362285D01*
X164492285Y-73505142D01*
X164349428Y-73576571D01*
X164063714Y-73576571D01*
X163920857Y-73505142D01*
X163778000Y-73362285D01*
X163706571Y-73076571D01*
X163706571Y-72576571D01*
X163778000Y-72290857D01*
X163920857Y-72148000D01*
X164063714Y-72076571D01*
X166492285Y-72790857D02*
X166992285Y-72790857D01*
X167206571Y-73576571D02*
X166492285Y-73576571D01*
X166492285Y-72076571D01*
X167206571Y-72076571D01*
X167706571Y-73576571D02*
X168492285Y-72576571D01*
X167706571Y-72576571D02*
X168492285Y-73576571D01*
X168849428Y-72576571D02*
X169420857Y-72576571D01*
X169063714Y-72076571D02*
X169063714Y-73362285D01*
X169135142Y-73505142D01*
X169278000Y-73576571D01*
X169420857Y-73576571D01*
X170492285Y-73505142D02*
X170349428Y-73576571D01*
X170063714Y-73576571D01*
X169920857Y-73505142D01*
X169849428Y-73362285D01*
X169849428Y-72790857D01*
X169920857Y-72648000D01*
X170063714Y-72576571D01*
X170349428Y-72576571D01*
X170492285Y-72648000D01*
X170563714Y-72790857D01*
X170563714Y-72933714D01*
X169849428Y-73076571D01*
X171206571Y-72576571D02*
X171206571Y-73576571D01*
X171206571Y-72719428D02*
X171278000Y-72648000D01*
X171420857Y-72576571D01*
X171635142Y-72576571D01*
X171778000Y-72648000D01*
X171849428Y-72790857D01*
X171849428Y-73576571D01*
X173206571Y-73576571D02*
X173206571Y-72076571D01*
X173206571Y-73505142D02*
X173063714Y-73576571D01*
X172778000Y-73576571D01*
X172635142Y-73505142D01*
X172563714Y-73433714D01*
X172492285Y-73290857D01*
X172492285Y-72862285D01*
X172563714Y-72719428D01*
X172635142Y-72648000D01*
X172778000Y-72576571D01*
X173063714Y-72576571D01*
X173206571Y-72648000D01*
X174492285Y-73505142D02*
X174349428Y-73576571D01*
X174063714Y-73576571D01*
X173920857Y-73505142D01*
X173849428Y-73362285D01*
X173849428Y-72790857D01*
X173920857Y-72648000D01*
X174063714Y-72576571D01*
X174349428Y-72576571D01*
X174492285Y-72648000D01*
X174563714Y-72790857D01*
X174563714Y-72933714D01*
X173849428Y-73076571D01*
X175206571Y-73576571D02*
X175206571Y-72576571D01*
X175206571Y-72862285D02*
X175278000Y-72719428D01*
X175349428Y-72648000D01*
X175492285Y-72576571D01*
X175635142Y-72576571D01*
D13*
X183961266Y-108362000D02*
X183894600Y-108328666D01*
X183794600Y-108328666D01*
X183694600Y-108362000D01*
X183627933Y-108428666D01*
X183594600Y-108495333D01*
X183561266Y-108628666D01*
X183561266Y-108728666D01*
X183594600Y-108862000D01*
X183627933Y-108928666D01*
X183694600Y-108995333D01*
X183794600Y-109028666D01*
X183861266Y-109028666D01*
X183961266Y-108995333D01*
X183994600Y-108962000D01*
X183994600Y-108728666D01*
X183861266Y-108728666D01*
X184294600Y-109028666D02*
X184294600Y-108328666D01*
X184694600Y-109028666D01*
X184694600Y-108328666D01*
X185027933Y-109028666D02*
X185027933Y-108328666D01*
X185194600Y-108328666D01*
X185294600Y-108362000D01*
X185361266Y-108428666D01*
X185394600Y-108495333D01*
X185427933Y-108628666D01*
X185427933Y-108728666D01*
X185394600Y-108862000D01*
X185361266Y-108928666D01*
X185294600Y-108995333D01*
X185194600Y-109028666D01*
X185027933Y-109028666D01*
X186594600Y-108328666D02*
X186261266Y-108328666D01*
X186227933Y-108662000D01*
X186261266Y-108628666D01*
X186327933Y-108595333D01*
X186494600Y-108595333D01*
X186561266Y-108628666D01*
X186594600Y-108662000D01*
X186627933Y-108728666D01*
X186627933Y-108895333D01*
X186594600Y-108962000D01*
X186561266Y-108995333D01*
X186494600Y-109028666D01*
X186327933Y-109028666D01*
X186261266Y-108995333D01*
X186227933Y-108962000D01*
X186827933Y-108328666D02*
X187061266Y-109028666D01*
X187294600Y-108328666D01*
X137754000Y-108328666D02*
X138187333Y-108328666D01*
X137954000Y-108595333D01*
X138054000Y-108595333D01*
X138120666Y-108628666D01*
X138154000Y-108662000D01*
X138187333Y-108728666D01*
X138187333Y-108895333D01*
X138154000Y-108962000D01*
X138120666Y-108995333D01*
X138054000Y-109028666D01*
X137854000Y-109028666D01*
X137787333Y-108995333D01*
X137754000Y-108962000D01*
X138387333Y-108328666D02*
X138620666Y-109028666D01*
X138854000Y-108328666D01*
X139020666Y-108328666D02*
X139454000Y-108328666D01*
X139220666Y-108595333D01*
X139320666Y-108595333D01*
X139387333Y-108628666D01*
X139420666Y-108662000D01*
X139454000Y-108728666D01*
X139454000Y-108895333D01*
X139420666Y-108962000D01*
X139387333Y-108995333D01*
X139320666Y-109028666D01*
X139120666Y-109028666D01*
X139054000Y-108995333D01*
X139020666Y-108962000D01*
X140654000Y-108362000D02*
X140587333Y-108328666D01*
X140487333Y-108328666D01*
X140387333Y-108362000D01*
X140320666Y-108428666D01*
X140287333Y-108495333D01*
X140254000Y-108628666D01*
X140254000Y-108728666D01*
X140287333Y-108862000D01*
X140320666Y-108928666D01*
X140387333Y-108995333D01*
X140487333Y-109028666D01*
X140554000Y-109028666D01*
X140654000Y-108995333D01*
X140687333Y-108962000D01*
X140687333Y-108728666D01*
X140554000Y-108728666D01*
X140987333Y-109028666D02*
X140987333Y-108328666D01*
X141387333Y-109028666D01*
X141387333Y-108328666D01*
X141720666Y-109028666D02*
X141720666Y-108328666D01*
X141887333Y-108328666D01*
X141987333Y-108362000D01*
X142054000Y-108428666D01*
X142087333Y-108495333D01*
X142120666Y-108628666D01*
X142120666Y-108728666D01*
X142087333Y-108862000D01*
X142054000Y-108928666D01*
X141987333Y-108995333D01*
X141887333Y-109028666D01*
X141720666Y-109028666D01*
D14*
%TO.C,J1*%
X137328600Y-68894000D02*
X137328600Y-67564000D01*
X138658600Y-68894000D02*
X137328600Y-68894000D01*
X137328600Y-66294000D02*
X137328600Y-63694000D01*
X139928600Y-66294000D02*
X137328600Y-66294000D01*
X139928600Y-68894000D02*
X139928600Y-66294000D01*
X137328600Y-63694000D02*
X188248600Y-63694000D01*
X139928600Y-68894000D02*
X188248600Y-68894000D01*
X188248600Y-68894000D02*
X188248600Y-63694000D01*
%TD*%
M02*
