M48
; DRILL file {KiCad (5.1.9)-1} date 12/08/21 02:04:24
; FORMAT={-:-/ absolute / inch / decimal}
; #@! TF.CreationDate,2021-12-08T02:04:24+09:00
; #@! TF.GenerationSoftware,Kicad,Pcbnew,(5.1.9)-1
; #@! TF.FileFunction,Plated,1,2,PTH
FMAT,2
INCH
T1C0.0157
T2C0.0394
%
G90
G05
T1
X5.409Y-3.101
X5.4365Y-3.2029
X5.4663Y-3.301
X5.484Y-3.401
X5.5017Y-3.501
X5.5194Y-3.601
X5.5371Y-3.701
X5.5549Y-3.801
X5.5726Y-3.901
X5.5903Y-4.001
X5.608Y-4.101
X5.612Y-4.194
X5.63Y-4.301
X5.649Y-4.401
X5.67Y-4.48
X5.689Y-4.608
X5.694Y-4.705
X5.713Y-4.802
X5.738Y-4.898
X5.77Y-4.994
T2
X5.459Y-2.56
X5.459Y-2.66
X5.459Y-4.401
X5.559Y-2.56
X5.559Y-2.66
X5.559Y-4.401
X5.659Y-2.56
X5.659Y-2.66
X5.759Y-2.56
X5.759Y-2.66
X5.859Y-2.56
X5.859Y-2.66
X5.859Y-3.101
X5.859Y-3.201
X5.859Y-3.301
X5.859Y-3.401
X5.859Y-3.501
X5.859Y-3.601
X5.859Y-3.701
X5.859Y-3.801
X5.859Y-3.901
X5.859Y-4.001
X5.859Y-4.101
X5.859Y-4.201
X5.859Y-4.301
X5.859Y-4.401
X5.859Y-4.501
X5.859Y-4.601
X5.859Y-4.701
X5.859Y-4.801
X5.859Y-4.901
X5.859Y-5.001
X5.959Y-2.56
X5.959Y-2.66
X6.059Y-2.56
X6.059Y-2.66
X6.159Y-2.56
X6.159Y-2.66
X6.259Y-2.56
X6.259Y-2.66
X6.359Y-2.56
X6.359Y-2.66
X6.459Y-2.56
X6.459Y-2.66
X6.559Y-2.56
X6.559Y-2.66
X6.659Y-2.56
X6.659Y-2.66
X6.759Y-2.56
X6.759Y-2.66
X6.859Y-2.56
X6.859Y-2.66
X6.959Y-2.56
X6.959Y-2.66
X6.959Y-3.101
X6.959Y-3.201
X6.959Y-3.301
X6.959Y-3.401
X6.959Y-3.501
X6.959Y-3.601
X6.959Y-3.701
X6.959Y-3.801
X6.959Y-3.901
X6.959Y-4.001
X6.959Y-4.101
X6.959Y-4.201
X6.959Y-4.301
X6.959Y-4.401
X6.959Y-4.501
X6.959Y-4.601
X6.959Y-4.701
X6.959Y-4.801
X6.959Y-4.901
X6.959Y-5.001
X7.059Y-2.56
X7.059Y-2.66
X7.159Y-2.56
X7.159Y-2.66
X7.259Y-2.56
X7.259Y-2.66
X7.259Y-4.401
X7.359Y-2.56
X7.359Y-2.66
X7.359Y-4.401
T0
M30
