M48
; DRILL file {KiCad (5.1.9)-1} date 12/10/21 02:02:49
; FORMAT={-:-/ absolute / inch / decimal}
; #@! TF.CreationDate,2021-12-10T02:02:49+09:00
; #@! TF.GenerationSoftware,Kicad,Pcbnew,(5.1.9)-1
; #@! TF.FileFunction,Plated,1,2,PTH
FMAT,2
INCH
T1C0.0157
T2C0.0394
%
G90
G05
T1
X5.415Y-2.8
X5.457Y-2.899
X5.457Y-2.945
X5.457Y-2.851
X5.4576Y-2.9924
X5.5Y-3.5
X5.5Y-3.95
X5.5Y-3.55
X5.5Y-3.6
X5.5Y-3.65
X5.5Y-3.7
X5.5Y-3.75
X5.5Y-3.8
X5.5Y-3.9
X5.5Y-3.85
X5.6947Y-4.5047
X5.6949Y-4.5551
X5.695Y-4.655
X5.695Y-4.455
X5.695Y-4.605
T2
X5.459Y-2.56
X5.459Y-2.66
X5.459Y-4.401
X5.559Y-2.56
X5.559Y-2.66
X5.559Y-4.401
X5.659Y-2.56
X5.659Y-2.66
X5.759Y-2.56
X5.759Y-2.66
X5.859Y-2.56
X5.859Y-2.66
X5.859Y-3.101
X5.859Y-3.201
X5.859Y-3.301
X5.859Y-3.401
X5.859Y-3.501
X5.859Y-3.601
X5.859Y-3.701
X5.859Y-3.801
X5.859Y-3.901
X5.859Y-4.001
X5.859Y-4.101
X5.859Y-4.201
X5.859Y-4.301
X5.859Y-4.401
X5.859Y-4.501
X5.859Y-4.601
X5.859Y-4.701
X5.859Y-4.801
X5.859Y-4.901
X5.859Y-5.001
X5.959Y-2.56
X5.959Y-2.66
X6.059Y-2.56
X6.059Y-2.66
X6.159Y-2.56
X6.159Y-2.66
X6.259Y-2.56
X6.259Y-2.66
X6.359Y-2.56
X6.359Y-2.66
X6.459Y-2.56
X6.459Y-2.66
X6.559Y-2.56
X6.559Y-2.66
X6.659Y-2.56
X6.659Y-2.66
X6.759Y-2.56
X6.759Y-2.66
X6.859Y-2.56
X6.859Y-2.66
X6.959Y-2.56
X6.959Y-2.66
X6.959Y-3.101
X6.959Y-3.201
X6.959Y-3.301
X6.959Y-3.401
X6.959Y-3.501
X6.959Y-3.601
X6.959Y-3.701
X6.959Y-3.801
X6.959Y-3.901
X6.959Y-4.001
X6.959Y-4.101
X6.959Y-4.201
X6.959Y-4.301
X6.959Y-4.401
X6.959Y-4.501
X6.959Y-4.601
X6.959Y-4.701
X6.959Y-4.801
X6.959Y-4.901
X6.959Y-5.001
X7.059Y-2.56
X7.059Y-2.66
X7.159Y-2.56
X7.159Y-2.66
X7.259Y-2.56
X7.259Y-2.66
X7.259Y-4.401
X7.359Y-2.56
X7.359Y-2.66
X7.359Y-4.401
T0
M30
