%TF.GenerationSoftware,KiCad,Pcbnew,8.0.2*%
%TF.CreationDate,2024-05-06T01:30:38+09:00*%
%TF.ProjectId,pitch-convert,70697463-682d-4636-9f6e-766572742e6b,1*%
%TF.SameCoordinates,PX66ff300PY72eaf20*%
%TF.FileFunction,Copper,L2,Bot*%
%TF.FilePolarity,Positive*%
%FSLAX46Y46*%
G04 Gerber Fmt 4.6, Leading zero omitted, Abs format (unit mm)*
G04 Created by KiCad (PCBNEW 8.0.2) date 2024-05-06 01:30:38*
%MOMM*%
%LPD*%
G01*
G04 APERTURE LIST*
%TA.AperFunction,ComponentPad*%
%ADD10O,2.540000X1.008000*%
%TD*%
%TA.AperFunction,ComponentPad*%
%ADD11O,2.540000X1.000000*%
%TD*%
%TA.AperFunction,ComponentPad*%
%ADD12R,1.350000X1.350000*%
%TD*%
%TA.AperFunction,ComponentPad*%
%ADD13O,1.350000X1.350000*%
%TD*%
%TA.AperFunction,ComponentPad*%
%ADD14R,1.700000X1.700000*%
%TD*%
%TA.AperFunction,ComponentPad*%
%ADD15O,1.700000X1.700000*%
%TD*%
%TA.AperFunction,ComponentPad*%
%ADD16O,2.532000X1.000000*%
%TD*%
%TA.AperFunction,ComponentPad*%
%ADD17O,2.532000X1.008000*%
%TD*%
G04 APERTURE END LIST*
D10*
%TO.P,J5,1,Pin_1*%
%TO.N,/A1*%
X5238000Y38196000D03*
D11*
%TO.P,J5,2,Pin_2*%
%TO.N,/A2*%
X5238000Y36930000D03*
D10*
%TO.P,J5,3,Pin_3*%
%TO.N,/A3*%
X5238000Y35656000D03*
D11*
%TO.P,J5,4,Pin_4*%
%TO.N,/A4*%
X5238000Y34390000D03*
D10*
%TO.P,J5,5,Pin_5*%
%TO.N,/A5*%
X5238000Y33116000D03*
D11*
%TO.P,J5,6,Pin_6*%
%TO.N,/A6*%
X5238000Y31850000D03*
D10*
%TO.P,J5,7,Pin_7*%
%TO.N,/A7*%
X5238000Y30576000D03*
%TO.P,J5,8,Pin_8*%
%TO.N,/A8*%
X5238000Y29306000D03*
%TO.P,J5,9,Pin_9*%
%TO.N,/A9*%
X5238000Y28036000D03*
%TO.P,J5,10,Pin_10*%
%TO.N,/A10*%
X5238000Y26766000D03*
%TO.P,J5,11,Pin_11*%
%TO.N,/A11*%
X5238000Y25496000D03*
D11*
%TO.P,J5,12,Pin_12*%
%TO.N,/A12*%
X5238000Y24230000D03*
D10*
%TO.P,J5,13,Pin_13*%
%TO.N,/A13*%
X5238000Y22956000D03*
%TO.P,J5,14,Pin_14*%
%TO.N,/A14*%
X5238000Y21686000D03*
%TO.P,J5,15,Pin_15*%
%TO.N,/A15*%
X5238000Y20416000D03*
D11*
%TO.P,J5,16,Pin_16*%
%TO.N,/A16*%
X5238000Y19150000D03*
D10*
%TO.P,J5,17,Pin_17*%
%TO.N,/A17*%
X5238000Y17876000D03*
%TO.P,J5,18,Pin_18*%
%TO.N,/A18*%
X5238000Y16606000D03*
%TO.P,J5,19,Pin_19*%
%TO.N,/A19*%
X5238000Y15336000D03*
%TO.P,J5,20,Pin_20*%
%TO.N,/A20*%
X5238000Y14066000D03*
%TD*%
D12*
%TO.P,J4,1,Pin_1*%
%TO.N,/A1*%
X22000000Y45000000D03*
D13*
%TO.P,J4,2,Pin_2*%
%TO.N,/A2*%
X22000000Y43000000D03*
%TO.P,J4,3,Pin_3*%
%TO.N,/A3*%
X22000000Y41000000D03*
%TO.P,J4,4,Pin_4*%
%TO.N,/A4*%
X22000000Y39000000D03*
%TO.P,J4,5,Pin_5*%
%TO.N,/A5*%
X22000000Y37000000D03*
%TO.P,J4,6,Pin_6*%
%TO.N,/A6*%
X22000000Y35000000D03*
%TO.P,J4,7,Pin_7*%
%TO.N,/A7*%
X22000000Y33000000D03*
%TO.P,J4,8,Pin_8*%
%TO.N,/A8*%
X22000000Y31000000D03*
%TO.P,J4,9,Pin_9*%
%TO.N,/A9*%
X22000000Y29000000D03*
%TO.P,J4,10,Pin_10*%
%TO.N,/A10*%
X22000000Y27000000D03*
%TO.P,J4,11,Pin_11*%
%TO.N,/A11*%
X22000000Y25000000D03*
%TO.P,J4,12,Pin_12*%
%TO.N,/A12*%
X22000000Y23000000D03*
%TO.P,J4,13,Pin_13*%
%TO.N,/A13*%
X22000000Y21000000D03*
%TO.P,J4,14,Pin_14*%
%TO.N,/A14*%
X22000000Y19000000D03*
%TO.P,J4,15,Pin_15*%
%TO.N,/A15*%
X22000000Y17000000D03*
%TO.P,J4,16,Pin_16*%
%TO.N,/A16*%
X22000000Y15000000D03*
%TO.P,J4,17,Pin_17*%
%TO.N,/A17*%
X22000000Y13000000D03*
%TO.P,J4,18,Pin_18*%
%TO.N,/A18*%
X22000000Y11000000D03*
%TO.P,J4,19,Pin_19*%
%TO.N,/A19*%
X22000000Y9000000D03*
%TO.P,J4,20,Pin_20*%
%TO.N,/A20*%
X22000000Y7000000D03*
%TD*%
D14*
%TO.P,J2,1,Pin_1*%
%TO.N,/A1*%
X18000000Y50260000D03*
D15*
%TO.P,J2,2,Pin_2*%
%TO.N,/A2*%
X18000000Y47720000D03*
%TO.P,J2,3,Pin_3*%
%TO.N,/A3*%
X18000000Y45180000D03*
%TO.P,J2,4,Pin_4*%
%TO.N,/A4*%
X18000000Y42640000D03*
%TO.P,J2,5,Pin_5*%
%TO.N,/A5*%
X18000000Y40100000D03*
%TO.P,J2,6,Pin_6*%
%TO.N,/A6*%
X18000000Y37560000D03*
%TO.P,J2,7,Pin_7*%
%TO.N,/A7*%
X18000000Y35020000D03*
%TO.P,J2,8,Pin_8*%
%TO.N,/A8*%
X18000000Y32480000D03*
%TO.P,J2,9,Pin_9*%
%TO.N,/A9*%
X18000000Y29940000D03*
%TO.P,J2,10,Pin_10*%
%TO.N,/A10*%
X18000000Y27400000D03*
%TO.P,J2,11,Pin_11*%
%TO.N,/A11*%
X18000000Y24860000D03*
%TO.P,J2,12,Pin_12*%
%TO.N,/A12*%
X18000000Y22320000D03*
%TO.P,J2,13,Pin_13*%
%TO.N,/A13*%
X18000000Y19780000D03*
%TO.P,J2,14,Pin_14*%
%TO.N,/A14*%
X18000000Y17240000D03*
%TO.P,J2,15,Pin_15*%
%TO.N,/A15*%
X18000000Y14700000D03*
%TO.P,J2,16,Pin_16*%
%TO.N,/A16*%
X18000000Y12160000D03*
%TO.P,J2,17,Pin_17*%
%TO.N,/A17*%
X18000000Y9620000D03*
%TO.P,J2,18,Pin_18*%
%TO.N,/A18*%
X18000000Y7080000D03*
%TO.P,J2,19,Pin_19*%
%TO.N,/A19*%
X18000000Y4540000D03*
%TO.P,J2,20,Pin_20*%
%TO.N,/A20*%
X18000000Y2000000D03*
%TD*%
D16*
%TO.P,J6,1,Pin_1*%
%TO.N,/A1*%
X26266000Y38200000D03*
%TO.P,J6,2,Pin_2*%
%TO.N,/A2*%
X26266000Y36930000D03*
D17*
%TO.P,J6,3,Pin_3*%
%TO.N,/A3*%
X26266000Y35656000D03*
D16*
%TO.P,J6,4,Pin_4*%
%TO.N,/A4*%
X26266000Y34390000D03*
D17*
%TO.P,J6,5,Pin_5*%
%TO.N,/A5*%
X26266000Y33116000D03*
D16*
%TO.P,J6,6,Pin_6*%
%TO.N,/A6*%
X26266000Y31850000D03*
D17*
%TO.P,J6,7,Pin_7*%
%TO.N,/A7*%
X26266000Y30576000D03*
%TO.P,J6,8,Pin_8*%
%TO.N,/A8*%
X26266000Y29306000D03*
D16*
%TO.P,J6,9,Pin_9*%
%TO.N,/A9*%
X26266000Y28040000D03*
D17*
%TO.P,J6,10,Pin_10*%
%TO.N,/A10*%
X26266000Y26766000D03*
%TO.P,J6,11,Pin_11*%
%TO.N,/A11*%
X26266000Y25496000D03*
D16*
%TO.P,J6,12,Pin_12*%
%TO.N,/A12*%
X26266000Y24230000D03*
%TO.P,J6,13,Pin_13*%
%TO.N,/A13*%
X26266000Y22960000D03*
%TO.P,J6,14,Pin_14*%
%TO.N,/A14*%
X26266000Y21690000D03*
%TO.P,J6,15,Pin_15*%
%TO.N,/A15*%
X26266000Y20420000D03*
%TO.P,J6,16,Pin_16*%
%TO.N,/A16*%
X26266000Y19150000D03*
%TO.P,J6,17,Pin_17*%
%TO.N,/A17*%
X26266000Y17880000D03*
%TO.P,J6,18,Pin_18*%
%TO.N,/A18*%
X26266000Y16610000D03*
%TO.P,J6,19,Pin_19*%
%TO.N,/A19*%
X26266000Y15340000D03*
%TO.P,J6,20,Pin_20*%
%TO.N,/A20*%
X26266000Y14070000D03*
%TD*%
D12*
%TO.P,J3,1,Pin_1*%
%TO.N,/A1*%
X9500000Y45000000D03*
D13*
%TO.P,J3,2,Pin_2*%
%TO.N,/A2*%
X9500000Y43000000D03*
%TO.P,J3,3,Pin_3*%
%TO.N,/A3*%
X9500000Y41000000D03*
%TO.P,J3,4,Pin_4*%
%TO.N,/A4*%
X9500000Y39000000D03*
%TO.P,J3,5,Pin_5*%
%TO.N,/A5*%
X9500000Y37000000D03*
%TO.P,J3,6,Pin_6*%
%TO.N,/A6*%
X9500000Y35000000D03*
%TO.P,J3,7,Pin_7*%
%TO.N,/A7*%
X9500000Y33000000D03*
%TO.P,J3,8,Pin_8*%
%TO.N,/A8*%
X9500000Y31000000D03*
%TO.P,J3,9,Pin_9*%
%TO.N,/A9*%
X9500000Y29000000D03*
%TO.P,J3,10,Pin_10*%
%TO.N,/A10*%
X9500000Y27000000D03*
%TO.P,J3,11,Pin_11*%
%TO.N,/A11*%
X9500000Y25000000D03*
%TO.P,J3,12,Pin_12*%
%TO.N,/A12*%
X9500000Y23000000D03*
%TO.P,J3,13,Pin_13*%
%TO.N,/A13*%
X9500000Y21000000D03*
%TO.P,J3,14,Pin_14*%
%TO.N,/A14*%
X9500000Y19000000D03*
%TO.P,J3,15,Pin_15*%
%TO.N,/A15*%
X9500000Y17000000D03*
%TO.P,J3,16,Pin_16*%
%TO.N,/A16*%
X9500000Y15000000D03*
%TO.P,J3,17,Pin_17*%
%TO.N,/A17*%
X9500000Y13000000D03*
%TO.P,J3,18,Pin_18*%
%TO.N,/A18*%
X9500000Y11000000D03*
%TO.P,J3,19,Pin_19*%
%TO.N,/A19*%
X9500000Y9000000D03*
%TO.P,J3,20,Pin_20*%
%TO.N,/A20*%
X9500000Y7000000D03*
%TD*%
D14*
%TO.P,J1,1,Pin_1*%
%TO.N,/A1*%
X13500000Y50260000D03*
D15*
%TO.P,J1,2,Pin_2*%
%TO.N,/A2*%
X13500000Y47720000D03*
%TO.P,J1,3,Pin_3*%
%TO.N,/A3*%
X13500000Y45180000D03*
%TO.P,J1,4,Pin_4*%
%TO.N,/A4*%
X13500000Y42640000D03*
%TO.P,J1,5,Pin_5*%
%TO.N,/A5*%
X13500000Y40100000D03*
%TO.P,J1,6,Pin_6*%
%TO.N,/A6*%
X13500000Y37560000D03*
%TO.P,J1,7,Pin_7*%
%TO.N,/A7*%
X13500000Y35020000D03*
%TO.P,J1,8,Pin_8*%
%TO.N,/A8*%
X13500000Y32480000D03*
%TO.P,J1,9,Pin_9*%
%TO.N,/A9*%
X13500000Y29940000D03*
%TO.P,J1,10,Pin_10*%
%TO.N,/A10*%
X13500000Y27400000D03*
%TO.P,J1,11,Pin_11*%
%TO.N,/A11*%
X13500000Y24860000D03*
%TO.P,J1,12,Pin_12*%
%TO.N,/A12*%
X13500000Y22320000D03*
%TO.P,J1,13,Pin_13*%
%TO.N,/A13*%
X13500000Y19780000D03*
%TO.P,J1,14,Pin_14*%
%TO.N,/A14*%
X13500000Y17240000D03*
%TO.P,J1,15,Pin_15*%
%TO.N,/A15*%
X13500000Y14700000D03*
%TO.P,J1,16,Pin_16*%
%TO.N,/A16*%
X13500000Y12160000D03*
%TO.P,J1,17,Pin_17*%
%TO.N,/A17*%
X13500000Y9620000D03*
%TO.P,J1,18,Pin_18*%
%TO.N,/A18*%
X13500000Y7080000D03*
%TO.P,J1,19,Pin_19*%
%TO.N,/A19*%
X13500000Y4540000D03*
%TO.P,J1,20,Pin_20*%
%TO.N,/A20*%
X13500000Y2000000D03*
%TD*%
M02*
