M48
; DRILL file {KiCad 8.0.2} date 2024-05-06T01:30:40+0900
; FORMAT={-:-/ absolute / inch / decimal}
; #@! TF.CreationDate,2024-05-06T01:30:40+09:00
; #@! TF.GenerationSoftware,Kicad,Pcbnew,8.0.2
; #@! TF.FileFunction,Plated,1,2,PTH
FMAT,2
INCH
; #@! TA.AperFunction,Plated,PTH,ComponentDrill
T1C0.0276
; #@! TA.AperFunction,Plated,PTH,ComponentDrill
T2C0.0315
; #@! TA.AperFunction,Plated,PTH,ComponentDrill
T3C0.0394
%
G90
G05
T1
X0.2362Y1.5039
X0.2362Y1.4539
X0.2362Y1.4039
X0.2362Y1.3539
X0.2362Y1.3039
X0.2362Y1.2539
X0.2362Y1.2039
X0.2362Y1.1539
X0.2362Y1.1039
X0.2362Y1.0539
X0.2362Y1.0039
X0.2362Y0.9539
X0.2362Y0.9039
X0.2362Y0.8539
X0.2362Y0.8039
X0.2362Y0.7539
X0.2362Y0.7039
X0.2362Y0.6539
X0.2362Y0.6039
X0.2362Y0.5539
X1.0039Y1.5039
X1.0039Y1.4539
X1.0039Y1.4039
X1.0039Y1.3539
X1.0039Y1.3039
X1.0039Y1.2539
X1.0039Y1.2039
X1.0039Y1.1539
X1.0039Y1.1039
X1.0039Y1.0539
X1.0039Y1.0039
X1.0039Y0.9539
X1.0039Y0.9039
X1.0039Y0.8539
X1.0039Y0.8039
X1.0039Y0.7539
X1.0039Y0.7039
X1.0039Y0.6539
X1.0039Y0.6039
X1.0039Y0.5539
T2
X0.374Y1.7717
X0.374Y1.6929
X0.374Y1.6142
X0.374Y1.5354
X0.374Y1.4567
X0.374Y1.378
X0.374Y1.2992
X0.374Y1.2205
X0.374Y1.1417
X0.374Y1.063
X0.374Y0.9843
X0.374Y0.9055
X0.374Y0.8268
X0.374Y0.748
X0.374Y0.6693
X0.374Y0.5906
X0.374Y0.5118
X0.374Y0.4331
X0.374Y0.3543
X0.374Y0.2756
X0.8661Y1.7717
X0.8661Y1.6929
X0.8661Y1.6142
X0.8661Y1.5354
X0.8661Y1.4567
X0.8661Y1.378
X0.8661Y1.2992
X0.8661Y1.2205
X0.8661Y1.1417
X0.8661Y1.063
X0.8661Y0.9843
X0.8661Y0.9055
X0.8661Y0.8268
X0.8661Y0.748
X0.8661Y0.6693
X0.8661Y0.5906
X0.8661Y0.5118
X0.8661Y0.4331
X0.8661Y0.3543
X0.8661Y0.2756
T3
X0.5315Y1.9787
X0.5315Y1.8787
X0.5315Y1.7787
X0.5315Y1.6787
X0.5315Y1.5787
X0.5315Y1.4787
X0.5315Y1.3787
X0.5315Y1.2787
X0.5315Y1.1787
X0.5315Y1.0787
X0.5315Y0.9787
X0.5315Y0.8787
X0.5315Y0.7787
X0.5315Y0.6787
X0.5315Y0.5787
X0.5315Y0.4787
X0.5315Y0.3787
X0.5315Y0.2787
X0.5315Y0.1787
X0.5315Y0.0787
X0.7087Y1.9787
X0.7087Y1.8787
X0.7087Y1.7787
X0.7087Y1.6787
X0.7087Y1.5787
X0.7087Y1.4787
X0.7087Y1.3787
X0.7087Y1.2787
X0.7087Y1.1787
X0.7087Y1.0787
X0.7087Y0.9787
X0.7087Y0.8787
X0.7087Y0.7787
X0.7087Y0.6787
X0.7087Y0.5787
X0.7087Y0.4787
X0.7087Y0.3787
X0.7087Y0.2787
X0.7087Y0.1787
X0.7087Y0.0787
M30
