%TF.GenerationSoftware,KiCad,Pcbnew,8.0.1*%
%TF.CreationDate,2024-04-29T01:14:48+09:00*%
%TF.ProjectId,pitch-convert,70697463-682d-4636-9f6e-766572742e6b,1*%
%TF.SameCoordinates,PX855f4f8PY6b58780*%
%TF.FileFunction,Legend,Top*%
%TF.FilePolarity,Positive*%
%FSLAX46Y46*%
G04 Gerber Fmt 4.6, Leading zero omitted, Abs format (unit mm)*
G04 Created by KiCad (PCBNEW 8.0.1) date 2024-04-29 01:14:48*
%MOMM*%
%LPD*%
G01*
G04 APERTURE LIST*
%ADD10C,0.100000*%
%ADD11C,0.120000*%
%ADD12O,2.540000X1.008000*%
%ADD13O,2.540000X1.000000*%
%ADD14O,2.413000X1.008000*%
%ADD15R,1.350000X1.350000*%
%ADD16O,1.350000X1.350000*%
%ADD17R,1.700000X1.700000*%
%ADD18O,1.700000X1.700000*%
%ADD19O,2.532000X1.000000*%
%ADD20O,2.532000X1.008000*%
G04 APERTURE END LIST*
%TO.C,J5*%
D10*
X-28137000Y31149000D02*
X-25089000Y31149000D01*
X-25089000Y5241000D01*
X-28137000Y5241000D01*
X-28137000Y31149000D01*
D11*
%TO.C,J4*%
X-10911000Y38120000D02*
X-9851000Y38120000D01*
X-10911000Y37060000D02*
X-10911000Y38120000D01*
X-10911000Y36060000D02*
X-10911000Y-2000000D01*
X-10911000Y36060000D02*
X-8791000Y36060000D01*
X-10911000Y-2000000D02*
X-8791000Y-2000000D01*
X-8791000Y36060000D02*
X-8791000Y-2000000D01*
%TO.C,J2*%
X-15181000Y43650000D02*
X-13851000Y43650000D01*
X-15181000Y42320000D02*
X-15181000Y43650000D01*
X-15181000Y41050000D02*
X-15181000Y-7270000D01*
X-15181000Y41050000D02*
X-12521000Y41050000D01*
X-15181000Y-7270000D02*
X-12521000Y-7270000D01*
X-12521000Y41050000D02*
X-12521000Y-7270000D01*
%TO.C,J6*%
D10*
X-7113000Y31149000D02*
X-4065000Y31149000D01*
X-4065000Y5241000D01*
X-7113000Y5241000D01*
X-7113000Y31149000D01*
D11*
%TO.C,J3*%
X-23411000Y38120000D02*
X-22351000Y38120000D01*
X-23411000Y37060000D02*
X-23411000Y38120000D01*
X-23411000Y36060000D02*
X-23411000Y-2000000D01*
X-23411000Y36060000D02*
X-21291000Y36060000D01*
X-23411000Y-2000000D02*
X-21291000Y-2000000D01*
X-21291000Y36060000D02*
X-21291000Y-2000000D01*
%TO.C,J1*%
X-19681000Y43650000D02*
X-18351000Y43650000D01*
X-19681000Y42320000D02*
X-19681000Y43650000D01*
X-19681000Y41050000D02*
X-19681000Y-7270000D01*
X-19681000Y41050000D02*
X-17021000Y41050000D01*
X-19681000Y-7270000D02*
X-17021000Y-7270000D01*
X-17021000Y41050000D02*
X-17021000Y-7270000D01*
%TD*%
%LPC*%
D12*
%TO.C,J5*%
X-26613000Y30256000D03*
D13*
X-26613000Y28990000D03*
D12*
X-26613000Y27716000D03*
D13*
X-26613000Y26450000D03*
D12*
X-26613000Y25176000D03*
D13*
X-26613000Y23910000D03*
D14*
X-26549500Y22636000D03*
D12*
X-26613000Y21366000D03*
X-26613000Y20096000D03*
X-26613000Y18826000D03*
X-26613000Y17556000D03*
D13*
X-26613000Y16290000D03*
D12*
X-26613000Y15016000D03*
X-26613000Y13746000D03*
X-26613000Y12476000D03*
D13*
X-26613000Y11210000D03*
D12*
X-26613000Y9936000D03*
X-26613000Y8666000D03*
X-26613000Y7396000D03*
X-26613000Y6126000D03*
%TD*%
D15*
%TO.C,J4*%
X-9851000Y37060000D03*
D16*
X-9851000Y35060000D03*
X-9851000Y33060000D03*
X-9851000Y31060000D03*
X-9851000Y29060000D03*
X-9851000Y27060000D03*
X-9851000Y25060000D03*
X-9851000Y23060000D03*
X-9851000Y21060000D03*
X-9851000Y19060000D03*
X-9851000Y17060000D03*
X-9851000Y15060000D03*
X-9851000Y13060000D03*
X-9851000Y11060000D03*
X-9851000Y9060000D03*
X-9851000Y7060000D03*
X-9851000Y5060000D03*
X-9851000Y3060000D03*
X-9851000Y1060000D03*
X-9851000Y-940000D03*
%TD*%
D17*
%TO.C,J2*%
X-13851000Y42320000D03*
D18*
X-13851000Y39780000D03*
X-13851000Y37240000D03*
X-13851000Y34700000D03*
X-13851000Y32160000D03*
X-13851000Y29620000D03*
X-13851000Y27080000D03*
X-13851000Y24540000D03*
X-13851000Y22000000D03*
X-13851000Y19460000D03*
X-13851000Y16920000D03*
X-13851000Y14380000D03*
X-13851000Y11840000D03*
X-13851000Y9300000D03*
X-13851000Y6760000D03*
X-13851000Y4220000D03*
X-13851000Y1680000D03*
X-13851000Y-860000D03*
X-13851000Y-3400000D03*
X-13851000Y-5940000D03*
%TD*%
D19*
%TO.C,J6*%
X-5585000Y30260000D03*
X-5585000Y28990000D03*
D20*
X-5585000Y27716000D03*
D19*
X-5585000Y26450000D03*
D20*
X-5585000Y25176000D03*
D19*
X-5585000Y23910000D03*
D20*
X-5585000Y22636000D03*
X-5585000Y21366000D03*
D19*
X-5585000Y20100000D03*
D20*
X-5585000Y18826000D03*
X-5585000Y17556000D03*
D19*
X-5585000Y16290000D03*
X-5585000Y15020000D03*
X-5585000Y13750000D03*
X-5585000Y12480000D03*
X-5585000Y11210000D03*
X-5585000Y9940000D03*
X-5585000Y8670000D03*
X-5585000Y7400000D03*
X-5585000Y6130000D03*
%TD*%
D15*
%TO.C,J3*%
X-22351000Y37060000D03*
D16*
X-22351000Y35060000D03*
X-22351000Y33060000D03*
X-22351000Y31060000D03*
X-22351000Y29060000D03*
X-22351000Y27060000D03*
X-22351000Y25060000D03*
X-22351000Y23060000D03*
X-22351000Y21060000D03*
X-22351000Y19060000D03*
X-22351000Y17060000D03*
X-22351000Y15060000D03*
X-22351000Y13060000D03*
X-22351000Y11060000D03*
X-22351000Y9060000D03*
X-22351000Y7060000D03*
X-22351000Y5060000D03*
X-22351000Y3060000D03*
X-22351000Y1060000D03*
X-22351000Y-940000D03*
%TD*%
D17*
%TO.C,J1*%
X-18351000Y42320000D03*
D18*
X-18351000Y39780000D03*
X-18351000Y37240000D03*
X-18351000Y34700000D03*
X-18351000Y32160000D03*
X-18351000Y29620000D03*
X-18351000Y27080000D03*
X-18351000Y24540000D03*
X-18351000Y22000000D03*
X-18351000Y19460000D03*
X-18351000Y16920000D03*
X-18351000Y14380000D03*
X-18351000Y11840000D03*
X-18351000Y9300000D03*
X-18351000Y6760000D03*
X-18351000Y4220000D03*
X-18351000Y1680000D03*
X-18351000Y-860000D03*
X-18351000Y-3400000D03*
X-18351000Y-5940000D03*
%TD*%
%LPD*%
M02*
