%TF.GenerationSoftware,KiCad,Pcbnew,8.0.1*%
%TF.CreationDate,2024-04-29T01:14:48+09:00*%
%TF.ProjectId,pitch-convert,70697463-682d-4636-9f6e-766572742e6b,1*%
%TF.SameCoordinates,PX855f4f8PY6b58780*%
%TF.FileFunction,Copper,L1,Top*%
%TF.FilePolarity,Positive*%
%FSLAX46Y46*%
G04 Gerber Fmt 4.6, Leading zero omitted, Abs format (unit mm)*
G04 Created by KiCad (PCBNEW 8.0.1) date 2024-04-29 01:14:48*
%MOMM*%
%LPD*%
G01*
G04 APERTURE LIST*
%TA.AperFunction,ComponentPad*%
%ADD10O,2.540000X1.008000*%
%TD*%
%TA.AperFunction,ComponentPad*%
%ADD11O,2.540000X1.000000*%
%TD*%
%TA.AperFunction,ComponentPad*%
%ADD12O,2.413000X1.008000*%
%TD*%
%TA.AperFunction,ComponentPad*%
%ADD13R,1.350000X1.350000*%
%TD*%
%TA.AperFunction,ComponentPad*%
%ADD14O,1.350000X1.350000*%
%TD*%
%TA.AperFunction,ComponentPad*%
%ADD15R,1.700000X1.700000*%
%TD*%
%TA.AperFunction,ComponentPad*%
%ADD16O,1.700000X1.700000*%
%TD*%
%TA.AperFunction,ComponentPad*%
%ADD17O,2.532000X1.000000*%
%TD*%
%TA.AperFunction,ComponentPad*%
%ADD18O,2.532000X1.008000*%
%TD*%
%TA.AperFunction,Conductor*%
%ADD19C,0.250000*%
%TD*%
G04 APERTURE END LIST*
D10*
%TO.P,J5,1,Pin_1*%
%TO.N,/A1*%
X-26613000Y30256000D03*
D11*
%TO.P,J5,2,Pin_2*%
%TO.N,/A2*%
X-26613000Y28990000D03*
D10*
%TO.P,J5,3,Pin_3*%
%TO.N,/A3*%
X-26613000Y27716000D03*
D11*
%TO.P,J5,4,Pin_4*%
%TO.N,/A4*%
X-26613000Y26450000D03*
D10*
%TO.P,J5,5,Pin_5*%
%TO.N,/A5*%
X-26613000Y25176000D03*
D11*
%TO.P,J5,6,Pin_6*%
%TO.N,/A6*%
X-26613000Y23910000D03*
D12*
%TO.P,J5,7,Pin_7*%
%TO.N,/A7*%
X-26549500Y22636000D03*
D10*
%TO.P,J5,8,Pin_8*%
%TO.N,/A8*%
X-26613000Y21366000D03*
%TO.P,J5,9,Pin_9*%
%TO.N,/A9*%
X-26613000Y20096000D03*
%TO.P,J5,10,Pin_10*%
%TO.N,/A10*%
X-26613000Y18826000D03*
%TO.P,J5,11,Pin_11*%
%TO.N,/A11*%
X-26613000Y17556000D03*
D11*
%TO.P,J5,12,Pin_12*%
%TO.N,/A12*%
X-26613000Y16290000D03*
D10*
%TO.P,J5,13,Pin_13*%
%TO.N,/A13*%
X-26613000Y15016000D03*
%TO.P,J5,14,Pin_14*%
%TO.N,/A14*%
X-26613000Y13746000D03*
%TO.P,J5,15,Pin_15*%
%TO.N,/A15*%
X-26613000Y12476000D03*
D11*
%TO.P,J5,16,Pin_16*%
%TO.N,/A16*%
X-26613000Y11210000D03*
D10*
%TO.P,J5,17,Pin_17*%
%TO.N,/A17*%
X-26613000Y9936000D03*
%TO.P,J5,18,Pin_18*%
%TO.N,/A18*%
X-26613000Y8666000D03*
%TO.P,J5,19,Pin_19*%
%TO.N,/A19*%
X-26613000Y7396000D03*
%TO.P,J5,20,Pin_20*%
%TO.N,/A20*%
X-26613000Y6126000D03*
%TD*%
D13*
%TO.P,J4,1,Pin_1*%
%TO.N,/A1*%
X-9851000Y37060000D03*
D14*
%TO.P,J4,2,Pin_2*%
%TO.N,/A2*%
X-9851000Y35060000D03*
%TO.P,J4,3,Pin_3*%
%TO.N,/A3*%
X-9851000Y33060000D03*
%TO.P,J4,4,Pin_4*%
%TO.N,/A4*%
X-9851000Y31060000D03*
%TO.P,J4,5,Pin_5*%
%TO.N,/A5*%
X-9851000Y29060000D03*
%TO.P,J4,6,Pin_6*%
%TO.N,/A6*%
X-9851000Y27060000D03*
%TO.P,J4,7,Pin_7*%
%TO.N,/A7*%
X-9851000Y25060000D03*
%TO.P,J4,8,Pin_8*%
%TO.N,/A8*%
X-9851000Y23060000D03*
%TO.P,J4,9,Pin_9*%
%TO.N,/A9*%
X-9851000Y21060000D03*
%TO.P,J4,10,Pin_10*%
%TO.N,/A10*%
X-9851000Y19060000D03*
%TO.P,J4,11,Pin_11*%
%TO.N,/A11*%
X-9851000Y17060000D03*
%TO.P,J4,12,Pin_12*%
%TO.N,/A12*%
X-9851000Y15060000D03*
%TO.P,J4,13,Pin_13*%
%TO.N,/A13*%
X-9851000Y13060000D03*
%TO.P,J4,14,Pin_14*%
%TO.N,/A14*%
X-9851000Y11060000D03*
%TO.P,J4,15,Pin_15*%
%TO.N,/A15*%
X-9851000Y9060000D03*
%TO.P,J4,16,Pin_16*%
%TO.N,/A16*%
X-9851000Y7060000D03*
%TO.P,J4,17,Pin_17*%
%TO.N,/A17*%
X-9851000Y5060000D03*
%TO.P,J4,18,Pin_18*%
%TO.N,/A18*%
X-9851000Y3060000D03*
%TO.P,J4,19,Pin_19*%
%TO.N,/A19*%
X-9851000Y1060000D03*
%TO.P,J4,20,Pin_20*%
%TO.N,/A20*%
X-9851000Y-940000D03*
%TD*%
D15*
%TO.P,J2,1,Pin_1*%
%TO.N,/A1*%
X-13851000Y42320000D03*
D16*
%TO.P,J2,2,Pin_2*%
%TO.N,/A2*%
X-13851000Y39780000D03*
%TO.P,J2,3,Pin_3*%
%TO.N,/A3*%
X-13851000Y37240000D03*
%TO.P,J2,4,Pin_4*%
%TO.N,/A4*%
X-13851000Y34700000D03*
%TO.P,J2,5,Pin_5*%
%TO.N,/A5*%
X-13851000Y32160000D03*
%TO.P,J2,6,Pin_6*%
%TO.N,/A6*%
X-13851000Y29620000D03*
%TO.P,J2,7,Pin_7*%
%TO.N,/A7*%
X-13851000Y27080000D03*
%TO.P,J2,8,Pin_8*%
%TO.N,/A8*%
X-13851000Y24540000D03*
%TO.P,J2,9,Pin_9*%
%TO.N,/A9*%
X-13851000Y22000000D03*
%TO.P,J2,10,Pin_10*%
%TO.N,/A10*%
X-13851000Y19460000D03*
%TO.P,J2,11,Pin_11*%
%TO.N,/A11*%
X-13851000Y16920000D03*
%TO.P,J2,12,Pin_12*%
%TO.N,/A12*%
X-13851000Y14380000D03*
%TO.P,J2,13,Pin_13*%
%TO.N,/A13*%
X-13851000Y11840000D03*
%TO.P,J2,14,Pin_14*%
%TO.N,/A14*%
X-13851000Y9300000D03*
%TO.P,J2,15,Pin_15*%
%TO.N,/A15*%
X-13851000Y6760000D03*
%TO.P,J2,16,Pin_16*%
%TO.N,/A16*%
X-13851000Y4220000D03*
%TO.P,J2,17,Pin_17*%
%TO.N,/A17*%
X-13851000Y1680000D03*
%TO.P,J2,18,Pin_18*%
%TO.N,/A18*%
X-13851000Y-860000D03*
%TO.P,J2,19,Pin_19*%
%TO.N,/A19*%
X-13851000Y-3400000D03*
%TO.P,J2,20,Pin_20*%
%TO.N,/A20*%
X-13851000Y-5940000D03*
%TD*%
D17*
%TO.P,J6,1,Pin_1*%
%TO.N,/A1*%
X-5585000Y30260000D03*
%TO.P,J6,2,Pin_2*%
%TO.N,/A2*%
X-5585000Y28990000D03*
D18*
%TO.P,J6,3,Pin_3*%
%TO.N,/A3*%
X-5585000Y27716000D03*
D17*
%TO.P,J6,4,Pin_4*%
%TO.N,/A4*%
X-5585000Y26450000D03*
D18*
%TO.P,J6,5,Pin_5*%
%TO.N,/A5*%
X-5585000Y25176000D03*
D17*
%TO.P,J6,6,Pin_6*%
%TO.N,/A6*%
X-5585000Y23910000D03*
D18*
%TO.P,J6,7,Pin_7*%
%TO.N,/A7*%
X-5585000Y22636000D03*
%TO.P,J6,8,Pin_8*%
%TO.N,/A8*%
X-5585000Y21366000D03*
D17*
%TO.P,J6,9,Pin_9*%
%TO.N,/A9*%
X-5585000Y20100000D03*
D18*
%TO.P,J6,10,Pin_10*%
%TO.N,/A10*%
X-5585000Y18826000D03*
%TO.P,J6,11,Pin_11*%
%TO.N,/A11*%
X-5585000Y17556000D03*
D17*
%TO.P,J6,12,Pin_12*%
%TO.N,/A12*%
X-5585000Y16290000D03*
%TO.P,J6,13,Pin_13*%
%TO.N,/A13*%
X-5585000Y15020000D03*
%TO.P,J6,14,Pin_14*%
%TO.N,/A14*%
X-5585000Y13750000D03*
%TO.P,J6,15,Pin_15*%
%TO.N,/A15*%
X-5585000Y12480000D03*
%TO.P,J6,16,Pin_16*%
%TO.N,/A16*%
X-5585000Y11210000D03*
%TO.P,J6,17,Pin_17*%
%TO.N,/A17*%
X-5585000Y9940000D03*
%TO.P,J6,18,Pin_18*%
%TO.N,/A18*%
X-5585000Y8670000D03*
%TO.P,J6,19,Pin_19*%
%TO.N,/A19*%
X-5585000Y7400000D03*
%TO.P,J6,20,Pin_20*%
%TO.N,/A20*%
X-5585000Y6130000D03*
%TD*%
D13*
%TO.P,J3,1,Pin_1*%
%TO.N,/A1*%
X-22351000Y37060000D03*
D14*
%TO.P,J3,2,Pin_2*%
%TO.N,/A2*%
X-22351000Y35060000D03*
%TO.P,J3,3,Pin_3*%
%TO.N,/A3*%
X-22351000Y33060000D03*
%TO.P,J3,4,Pin_4*%
%TO.N,/A4*%
X-22351000Y31060000D03*
%TO.P,J3,5,Pin_5*%
%TO.N,/A5*%
X-22351000Y29060000D03*
%TO.P,J3,6,Pin_6*%
%TO.N,/A6*%
X-22351000Y27060000D03*
%TO.P,J3,7,Pin_7*%
%TO.N,/A7*%
X-22351000Y25060000D03*
%TO.P,J3,8,Pin_8*%
%TO.N,/A8*%
X-22351000Y23060000D03*
%TO.P,J3,9,Pin_9*%
%TO.N,/A9*%
X-22351000Y21060000D03*
%TO.P,J3,10,Pin_10*%
%TO.N,/A10*%
X-22351000Y19060000D03*
%TO.P,J3,11,Pin_11*%
%TO.N,/A11*%
X-22351000Y17060000D03*
%TO.P,J3,12,Pin_12*%
%TO.N,/A12*%
X-22351000Y15060000D03*
%TO.P,J3,13,Pin_13*%
%TO.N,/A13*%
X-22351000Y13060000D03*
%TO.P,J3,14,Pin_14*%
%TO.N,/A14*%
X-22351000Y11060000D03*
%TO.P,J3,15,Pin_15*%
%TO.N,/A15*%
X-22351000Y9060000D03*
%TO.P,J3,16,Pin_16*%
%TO.N,/A16*%
X-22351000Y7060000D03*
%TO.P,J3,17,Pin_17*%
%TO.N,/A17*%
X-22351000Y5060000D03*
%TO.P,J3,18,Pin_18*%
%TO.N,/A18*%
X-22351000Y3060000D03*
%TO.P,J3,19,Pin_19*%
%TO.N,/A19*%
X-22351000Y1060000D03*
%TO.P,J3,20,Pin_20*%
%TO.N,/A20*%
X-22351000Y-940000D03*
%TD*%
D15*
%TO.P,J1,1,Pin_1*%
%TO.N,/A1*%
X-18351000Y42320000D03*
D16*
%TO.P,J1,2,Pin_2*%
%TO.N,/A2*%
X-18351000Y39780000D03*
%TO.P,J1,3,Pin_3*%
%TO.N,/A3*%
X-18351000Y37240000D03*
%TO.P,J1,4,Pin_4*%
%TO.N,/A4*%
X-18351000Y34700000D03*
%TO.P,J1,5,Pin_5*%
%TO.N,/A5*%
X-18351000Y32160000D03*
%TO.P,J1,6,Pin_6*%
%TO.N,/A6*%
X-18351000Y29620000D03*
%TO.P,J1,7,Pin_7*%
%TO.N,/A7*%
X-18351000Y27080000D03*
%TO.P,J1,8,Pin_8*%
%TO.N,/A8*%
X-18351000Y24540000D03*
%TO.P,J1,9,Pin_9*%
%TO.N,/A9*%
X-18351000Y22000000D03*
%TO.P,J1,10,Pin_10*%
%TO.N,/A10*%
X-18351000Y19460000D03*
%TO.P,J1,11,Pin_11*%
%TO.N,/A11*%
X-18351000Y16920000D03*
%TO.P,J1,12,Pin_12*%
%TO.N,/A12*%
X-18351000Y14380000D03*
%TO.P,J1,13,Pin_13*%
%TO.N,/A13*%
X-18351000Y11840000D03*
%TO.P,J1,14,Pin_14*%
%TO.N,/A14*%
X-18351000Y9300000D03*
%TO.P,J1,15,Pin_15*%
%TO.N,/A15*%
X-18351000Y6760000D03*
%TO.P,J1,16,Pin_16*%
%TO.N,/A16*%
X-18351000Y4220000D03*
%TO.P,J1,17,Pin_17*%
%TO.N,/A17*%
X-18351000Y1680000D03*
%TO.P,J1,18,Pin_18*%
%TO.N,/A18*%
X-18351000Y-860000D03*
%TO.P,J1,19,Pin_19*%
%TO.N,/A19*%
X-18351000Y-3400000D03*
%TO.P,J1,20,Pin_20*%
%TO.N,/A20*%
X-18351000Y-5940000D03*
%TD*%
D19*
%TO.N,/A3*%
X-24251000Y28960000D02*
X-24251000Y31160000D01*
X-25491000Y27720000D02*
X-24251000Y28960000D01*
X-25851000Y27720000D02*
X-25491000Y27720000D01*
X-24251000Y31160000D02*
X-22351000Y33060000D01*
%TO.N,/A2*%
X-24701000Y32710000D02*
X-22351000Y35060000D01*
X-25321000Y28990000D02*
X-24701000Y29610000D01*
X-25851000Y28990000D02*
X-25321000Y28990000D01*
X-24701000Y29610000D02*
X-24701000Y32710000D01*
%TO.N,/A4*%
X-23751000Y28160000D02*
X-23751000Y29660000D01*
X-25461000Y26450000D02*
X-23751000Y28160000D01*
X-25851000Y26450000D02*
X-25461000Y26450000D01*
X-23751000Y29660000D02*
X-22351000Y31060000D01*
%TO.N,/A5*%
X-22351000Y28860000D02*
X-22351000Y29060000D01*
X-24051000Y27160000D02*
X-22351000Y28860000D01*
X-24051000Y26460000D02*
X-24051000Y27160000D01*
X-25851000Y25180000D02*
X-25331000Y25180000D01*
X-25331000Y25180000D02*
X-24051000Y26460000D01*
%TO.N,/A6*%
X-22351000Y26760000D02*
X-22351000Y27060000D01*
X-25201000Y23910000D02*
X-22351000Y26760000D01*
X-25851000Y23910000D02*
X-25201000Y23910000D01*
%TO.N,/A8*%
X-24041000Y21370000D02*
X-22351000Y23060000D01*
X-25851000Y21370000D02*
X-24041000Y21370000D01*
%TO.N,/A10*%
X-25851000Y18830000D02*
X-22581000Y18830000D01*
X-22581000Y18830000D02*
X-22351000Y19060000D01*
%TO.N,/A11*%
X-22851000Y17560000D02*
X-22351000Y17060000D01*
X-25851000Y17560000D02*
X-22851000Y17560000D01*
%TO.N,/A12*%
X-23581000Y16290000D02*
X-22351000Y15060000D01*
X-25851000Y16290000D02*
X-23581000Y16290000D01*
%TO.N,/A13*%
X-24311000Y15020000D02*
X-22351000Y13060000D01*
X-25851000Y15020000D02*
X-24311000Y15020000D01*
%TO.N,/A14*%
X-25041000Y13750000D02*
X-22351000Y11060000D01*
X-25851000Y13750000D02*
X-25041000Y13750000D01*
%TO.N,/A15*%
X-25571000Y12480000D02*
X-22351000Y9260000D01*
X-22351000Y9260000D02*
X-22351000Y9060000D01*
X-25851000Y12480000D02*
X-25571000Y12480000D01*
%TO.N,/A16*%
X-24051000Y8760000D02*
X-22351000Y7060000D01*
X-24051000Y9760000D02*
X-24051000Y8760000D01*
X-25501000Y11210000D02*
X-24051000Y9760000D01*
X-25851000Y11210000D02*
X-25501000Y11210000D01*
%TO.N,/A17*%
X-23551000Y6260000D02*
X-22351000Y5060000D01*
X-25431000Y9940000D02*
X-24701000Y9210000D01*
X-24701000Y9210000D02*
X-24701000Y8773604D01*
X-23551000Y7623604D02*
X-23551000Y6260000D01*
X-25851000Y9940000D02*
X-25431000Y9940000D01*
X-24701000Y8773604D02*
X-23551000Y7623604D01*
%TO.N,/A18*%
X-24051000Y4760000D02*
X-22351000Y3060000D01*
X-24051000Y7260000D02*
X-24051000Y4760000D01*
X-25851000Y8670000D02*
X-25461000Y8670000D01*
X-25461000Y8670000D02*
X-24051000Y7260000D01*
%TO.N,/A19*%
X-24551000Y3260000D02*
X-22351000Y1060000D01*
X-24551000Y6560000D02*
X-24551000Y3260000D01*
X-25391000Y7400000D02*
X-24551000Y6560000D01*
X-25851000Y7400000D02*
X-25391000Y7400000D01*
%TO.N,/A16*%
X-6351000Y11210000D02*
X-8551000Y9010000D01*
X-8551000Y9010000D02*
X-8551000Y8360000D01*
X-8551000Y8360000D02*
X-9851000Y7060000D01*
%TO.N,/A17*%
X-8001000Y8273604D02*
X-8351000Y7923604D01*
X-8351000Y7923604D02*
X-8351000Y6560000D01*
X-8001000Y8648363D02*
X-8001000Y8273604D01*
X-8351000Y6560000D02*
X-9851000Y5060000D01*
X-6709363Y9940000D02*
X-8001000Y8648363D01*
X-6351000Y9940000D02*
X-6709363Y9940000D01*
%TO.N,/A18*%
X-7851000Y5060000D02*
X-9851000Y3060000D01*
X-7851000Y7460000D02*
X-7851000Y5060000D01*
X-6641000Y8670000D02*
X-7851000Y7460000D01*
X-6351000Y8670000D02*
X-6641000Y8670000D01*
%TO.N,/A19*%
X-7351000Y3560000D02*
X-9851000Y1060000D01*
X-7351000Y6660000D02*
X-7351000Y3560000D01*
X-6351000Y7400000D02*
X-6611000Y7400000D01*
X-6611000Y7400000D02*
X-7351000Y6660000D01*
%TO.N,/A2*%
X-7551000Y32760000D02*
X-9851000Y35060000D01*
X-6781000Y28990000D02*
X-7551000Y29760000D01*
X-6351000Y28990000D02*
X-6781000Y28990000D01*
X-7551000Y29760000D02*
X-7551000Y32760000D01*
%TO.N,/A3*%
X-8051000Y31260000D02*
X-9851000Y33060000D01*
X-8051000Y28960000D02*
X-8051000Y31260000D01*
X-6811000Y27720000D02*
X-8051000Y28960000D01*
X-6351000Y27720000D02*
X-6811000Y27720000D01*
%TO.N,/A4*%
X-8551000Y29760000D02*
X-9851000Y31060000D01*
X-8551000Y28360000D02*
X-8551000Y29760000D01*
X-6351000Y26450000D02*
X-6641000Y26450000D01*
X-6641000Y26450000D02*
X-8551000Y28360000D01*
%TO.N,/A7*%
X-7431000Y22640000D02*
X-9851000Y25060000D01*
X-6351000Y22640000D02*
X-7431000Y22640000D01*
%TO.N,/A8*%
X-6351000Y21370000D02*
X-8161000Y21370000D01*
X-8161000Y21370000D02*
X-9851000Y23060000D01*
%TO.N,/A9*%
X-6351000Y20100000D02*
X-8891000Y20100000D01*
X-8891000Y20100000D02*
X-9851000Y21060000D01*
%TO.N,/A10*%
X-6351000Y18830000D02*
X-9621000Y18830000D01*
X-9621000Y18830000D02*
X-9851000Y19060000D01*
%TO.N,/A11*%
X-9351000Y17560000D02*
X-9851000Y17060000D01*
X-6351000Y17560000D02*
X-9351000Y17560000D01*
%TO.N,/A13*%
X-7891000Y15020000D02*
X-9851000Y13060000D01*
X-6351000Y15020000D02*
X-7891000Y15020000D01*
%TO.N,/A19*%
X-18351000Y-2940000D02*
X-18351000Y-3400000D01*
X-22351000Y1060000D02*
X-18351000Y-2940000D01*
X-13851000Y-2940000D02*
X-9851000Y1060000D01*
X-13851000Y-3400000D02*
X-13851000Y-2940000D01*
%TO.N,/A18*%
X-13851000Y-860000D02*
X-9931000Y3060000D01*
X-9931000Y3060000D02*
X-9851000Y3060000D01*
X-22271000Y3060000D02*
X-18351000Y-860000D01*
X-22351000Y3060000D02*
X-22271000Y3060000D01*
%TO.N,/A17*%
X-10471000Y5060000D02*
X-9851000Y5060000D01*
X-13851000Y1680000D02*
X-10471000Y5060000D01*
X-21731000Y5060000D02*
X-18351000Y1680000D01*
X-22351000Y5060000D02*
X-21731000Y5060000D01*
%TO.N,/A16*%
X-21191000Y7060000D02*
X-18351000Y4220000D01*
X-22351000Y7060000D02*
X-21191000Y7060000D01*
%TO.N,/A15*%
X-20651000Y9060000D02*
X-18351000Y6760000D01*
X-22351000Y9060000D02*
X-20651000Y9060000D01*
X-11551000Y9060000D02*
X-9851000Y9060000D01*
X-13851000Y6760000D02*
X-11551000Y9060000D01*
%TO.N,/A14*%
X-12091000Y11060000D02*
X-9851000Y11060000D01*
X-13851000Y9300000D02*
X-12091000Y11060000D01*
X-20111000Y11060000D02*
X-18351000Y9300000D01*
X-22351000Y11060000D02*
X-20111000Y11060000D01*
%TO.N,/A13*%
X-19571000Y13060000D02*
X-18351000Y11840000D01*
X-22351000Y13060000D02*
X-19571000Y13060000D01*
X-12631000Y13060000D02*
X-9851000Y13060000D01*
X-13851000Y11840000D02*
X-12631000Y13060000D01*
%TO.N,/A12*%
X-13171000Y15060000D02*
X-9851000Y15060000D01*
X-13851000Y14380000D02*
X-13171000Y15060000D01*
X-19031000Y15060000D02*
X-18351000Y14380000D01*
X-22351000Y15060000D02*
X-19031000Y15060000D01*
%TO.N,/A11*%
X-18491000Y17060000D02*
X-18351000Y16920000D01*
X-22351000Y17060000D02*
X-18491000Y17060000D01*
X-13711000Y17060000D02*
X-9851000Y17060000D01*
X-13851000Y16920000D02*
X-13711000Y17060000D01*
%TO.N,/A10*%
X-13451000Y19060000D02*
X-9851000Y19060000D01*
X-13851000Y19460000D02*
X-13451000Y19060000D01*
%TO.N,/A9*%
X-12911000Y21060000D02*
X-9851000Y21060000D01*
X-13851000Y22000000D02*
X-12911000Y21060000D01*
%TO.N,/A8*%
X-13331000Y24540000D02*
X-11851000Y23060000D01*
X-13851000Y24540000D02*
X-13331000Y24540000D01*
X-11851000Y23060000D02*
X-9851000Y23060000D01*
X-18871000Y24540000D02*
X-18351000Y24540000D01*
X-20351000Y23060000D02*
X-18871000Y24540000D01*
X-22351000Y23060000D02*
X-20351000Y23060000D01*
%TO.N,/A7*%
X-11831000Y25060000D02*
X-9851000Y25060000D01*
X-13851000Y27080000D02*
X-11831000Y25060000D01*
%TO.N,/A6*%
X-18791000Y29620000D02*
X-18351000Y29620000D01*
X-21351000Y27060000D02*
X-18791000Y29620000D01*
X-22351000Y27060000D02*
X-21351000Y27060000D01*
X-13411000Y29620000D02*
X-10851000Y27060000D01*
X-13851000Y29620000D02*
X-13411000Y29620000D01*
X-10851000Y27060000D02*
X-9851000Y27060000D01*
%TO.N,/A2*%
X-20351000Y37780000D02*
X-18351000Y39780000D01*
X-20351000Y37060000D02*
X-20351000Y37780000D01*
X-22351000Y35060000D02*
X-20351000Y37060000D01*
%TO.N,/A5*%
X-18751000Y32160000D02*
X-18351000Y32160000D01*
X-21851000Y29060000D02*
X-18751000Y32160000D01*
X-22351000Y29060000D02*
X-21851000Y29060000D01*
X-13451000Y32160000D02*
X-10351000Y29060000D01*
X-13851000Y32160000D02*
X-13451000Y32160000D01*
X-10351000Y29060000D02*
X-9851000Y29060000D01*
%TO.N,/A2*%
X-11851000Y37780000D02*
X-11851000Y37060000D01*
X-11851000Y37060000D02*
X-9851000Y35060000D01*
X-13851000Y39780000D02*
X-11851000Y37780000D01*
%TO.N,/A1*%
X-9851000Y38320000D02*
X-13851000Y42320000D01*
X-9851000Y37060000D02*
X-9851000Y38320000D01*
%TO.N,/A3*%
X-13851000Y37240000D02*
X-9851000Y33240000D01*
X-9851000Y33240000D02*
X-9851000Y33060000D01*
%TO.N,/A4*%
X-10211000Y31060000D02*
X-9851000Y31060000D01*
X-13851000Y34700000D02*
X-10211000Y31060000D01*
%TO.N,/A20*%
X-9851000Y-1940000D02*
X-9851000Y-940000D01*
X-13851000Y-5940000D02*
X-9851000Y-1940000D01*
%TO.N,/A16*%
X-11011000Y7060000D02*
X-9851000Y7060000D01*
X-13851000Y4220000D02*
X-11011000Y7060000D01*
%TO.N,/A20*%
X-22351000Y-1940000D02*
X-18351000Y-5940000D01*
X-22351000Y-940000D02*
X-22351000Y-1940000D01*
%TO.N,/A4*%
X-18711000Y34700000D02*
X-18351000Y34700000D01*
X-22351000Y31060000D02*
X-18711000Y34700000D01*
%TO.N,/A7*%
X-20371000Y25060000D02*
X-18351000Y27080000D01*
X-22351000Y25060000D02*
X-20371000Y25060000D01*
%TO.N,/A9*%
X-22351000Y21060000D02*
X-19291000Y21060000D01*
X-19291000Y21060000D02*
X-18351000Y22000000D01*
%TO.N,/A10*%
X-22351000Y19060000D02*
X-18751000Y19060000D01*
X-18751000Y19060000D02*
X-18351000Y19460000D01*
%TO.N,/A3*%
X-18351000Y37060000D02*
X-18351000Y37240000D01*
X-22351000Y33060000D02*
X-18351000Y37060000D01*
%TO.N,/A1*%
X-22351000Y38320000D02*
X-18351000Y42320000D01*
X-22351000Y37060000D02*
X-22351000Y38320000D01*
X-18351000Y42320000D02*
X-13851000Y42320000D01*
%TO.N,/A2*%
X-18351000Y39780000D02*
X-13851000Y39780000D01*
%TO.N,/A3*%
X-18351000Y37240000D02*
X-13851000Y37240000D01*
%TO.N,/A4*%
X-18351000Y34700000D02*
X-13851000Y34700000D01*
%TO.N,/A5*%
X-18351000Y32160000D02*
X-13851000Y32160000D01*
%TO.N,/A6*%
X-18351000Y29620000D02*
X-13851000Y29620000D01*
%TO.N,/A7*%
X-18351000Y27080000D02*
X-13851000Y27080000D01*
%TO.N,/A8*%
X-18351000Y24540000D02*
X-13851000Y24540000D01*
%TO.N,/A9*%
X-18351000Y22000000D02*
X-13851000Y22000000D01*
%TO.N,/A10*%
X-18351000Y19460000D02*
X-13851000Y19460000D01*
%TO.N,/A11*%
X-18351000Y16920000D02*
X-13851000Y16920000D01*
%TO.N,/A12*%
X-18351000Y14380000D02*
X-13851000Y14380000D01*
%TO.N,/A13*%
X-18351000Y11840000D02*
X-13851000Y11840000D01*
%TO.N,/A14*%
X-18351000Y9300000D02*
X-13851000Y9300000D01*
%TO.N,/A15*%
X-18351000Y6760000D02*
X-13851000Y6760000D01*
%TO.N,/A16*%
X-18351000Y4220000D02*
X-13851000Y4220000D01*
%TO.N,/A17*%
X-18351000Y1680000D02*
X-13851000Y1680000D01*
%TO.N,/A18*%
X-18351000Y-860000D02*
X-13851000Y-860000D01*
%TO.N,/A19*%
X-18351000Y-3400000D02*
X-13851000Y-3400000D01*
%TO.N,/A20*%
X-18351000Y-5940000D02*
X-13851000Y-5940000D01*
%TO.N,/A1*%
X-6351000Y33560000D02*
X-9851000Y37060000D01*
X-6351000Y30260000D02*
X-6351000Y33560000D01*
%TO.N,/A5*%
X-9851000Y28680000D02*
X-9851000Y29060000D01*
X-6351000Y25180000D02*
X-9851000Y28680000D01*
%TO.N,/A6*%
X-6351000Y23910000D02*
X-6701000Y23910000D01*
X-6701000Y23910000D02*
X-9851000Y27060000D01*
%TO.N,/A20*%
X-6351000Y2560000D02*
X-9851000Y-940000D01*
X-6351000Y6130000D02*
X-6351000Y2560000D01*
%TO.N,/A15*%
X-6431000Y12480000D02*
X-9851000Y9060000D01*
X-6351000Y12480000D02*
X-6431000Y12480000D01*
%TO.N,/A14*%
X-7161000Y13750000D02*
X-9851000Y11060000D01*
X-6351000Y13750000D02*
X-7161000Y13750000D01*
%TO.N,/A12*%
X-6351000Y16290000D02*
X-8621000Y16290000D01*
X-8621000Y16290000D02*
X-9851000Y15060000D01*
%TO.N,/A1*%
X-22351000Y36474214D02*
X-22351000Y37060000D01*
X-25851000Y32974214D02*
X-22351000Y36474214D01*
X-25851000Y30260000D02*
X-25851000Y32974214D01*
%TO.N,/A7*%
X-24771000Y22640000D02*
X-22351000Y25060000D01*
X-25851000Y22640000D02*
X-24771000Y22640000D01*
%TO.N,/A9*%
X-23311000Y20100000D02*
X-22351000Y21060000D01*
X-25851000Y20100000D02*
X-23311000Y20100000D01*
%TO.N,/A20*%
X-25851000Y2560000D02*
X-22351000Y-940000D01*
X-25851000Y6130000D02*
X-25851000Y2560000D01*
%TD*%
M02*
