%TF.GenerationSoftware,KiCad,Pcbnew,8.0.1*%
%TF.CreationDate,2024-04-29T01:14:48+09:00*%
%TF.ProjectId,pitch-convert,70697463-682d-4636-9f6e-766572742e6b,1*%
%TF.SameCoordinates,PX855f4f8PY6b58780*%
%TF.FileFunction,Profile,NP*%
%FSLAX46Y46*%
G04 Gerber Fmt 4.6, Leading zero omitted, Abs format (unit mm)*
G04 Created by KiCad (PCBNEW 8.0.1) date 2024-04-29 01:14:48*
%MOMM*%
%LPD*%
G01*
G04 APERTURE LIST*
%TA.AperFunction,Profile*%
%ADD10C,0.100000*%
%TD*%
G04 APERTURE END LIST*
D10*
X-30851000Y35560000D02*
X-26851000Y35560000D01*
X-26851000Y32060000D01*
X-30851000Y32060000D01*
X-30851000Y35560000D01*
X-5351000Y35560000D02*
X-1351000Y35560000D01*
X-1351000Y32060000D01*
X-5351000Y32060000D01*
X-5351000Y35560000D01*
X-30851000Y4560000D02*
X-26851000Y4560000D01*
X-26851000Y1060000D01*
X-30851000Y1060000D01*
X-30851000Y4560000D01*
X-5351000Y4560000D02*
X-1351000Y4560000D01*
X-1351000Y1060000D01*
X-5351000Y1060000D01*
X-5351000Y4560000D01*
X-1551000Y42060000D02*
G75*
G02*
X-4151000Y42060000I-1300000J0D01*
G01*
X-4151000Y42060000D02*
G75*
G02*
X-1551000Y42060000I1300000J0D01*
G01*
X-31851000Y44560000D02*
X-351000Y44560000D01*
X-351000Y-7940000D01*
X-31851000Y-7940000D01*
X-31851000Y44560000D01*
X-28051000Y-5440000D02*
G75*
G02*
X-30651000Y-5440000I-1300000J0D01*
G01*
X-30651000Y-5440000D02*
G75*
G02*
X-28051000Y-5440000I1300000J0D01*
G01*
X-1551000Y-5440000D02*
G75*
G02*
X-4151000Y-5440000I-1300000J0D01*
G01*
X-4151000Y-5440000D02*
G75*
G02*
X-1551000Y-5440000I1300000J0D01*
G01*
X-28051000Y42060000D02*
G75*
G02*
X-30651000Y42060000I-1300000J0D01*
G01*
X-30651000Y42060000D02*
G75*
G02*
X-28051000Y42060000I1300000J0D01*
G01*
M02*
