%TF.GenerationSoftware,KiCad,Pcbnew,8.0.2*%
%TF.CreationDate,2024-05-06T01:30:38+09:00*%
%TF.ProjectId,pitch-convert,70697463-682d-4636-9f6e-766572742e6b,1*%
%TF.SameCoordinates,PX66ff300PY72eaf20*%
%TF.FileFunction,Profile,NP*%
%FSLAX46Y46*%
G04 Gerber Fmt 4.6, Leading zero omitted, Abs format (unit mm)*
G04 Created by KiCad (PCBNEW 8.0.2) date 2024-05-06 01:30:38*
%MOMM*%
%LPD*%
G01*
G04 APERTURE LIST*
%TA.AperFunction,Profile*%
%ADD10C,0.100000*%
%TD*%
G04 APERTURE END LIST*
D10*
X1000000Y43500000D02*
X5000000Y43500000D01*
X5000000Y40000000D01*
X1000000Y40000000D01*
X1000000Y43500000D01*
X26500000Y12500000D02*
X30500000Y12500000D01*
X30500000Y9000000D01*
X26500000Y9000000D01*
X26500000Y12500000D01*
X26500000Y43500000D02*
X30500000Y43500000D01*
X30500000Y40000000D01*
X26500000Y40000000D01*
X26500000Y43500000D01*
X1000000Y12500000D02*
X5000000Y12500000D01*
X5000000Y9000000D01*
X1000000Y9000000D01*
X1000000Y12500000D01*
X30300000Y50000000D02*
G75*
G02*
X27700000Y50000000I-1300000J0D01*
G01*
X27700000Y50000000D02*
G75*
G02*
X30300000Y50000000I1300000J0D01*
G01*
X0Y52500000D02*
X31500000Y52500000D01*
X31500000Y0D01*
X0Y0D01*
X0Y52500000D01*
X3800000Y2500000D02*
G75*
G02*
X1200000Y2500000I-1300000J0D01*
G01*
X1200000Y2500000D02*
G75*
G02*
X3800000Y2500000I1300000J0D01*
G01*
X30300000Y2500000D02*
G75*
G02*
X27700000Y2500000I-1300000J0D01*
G01*
X27700000Y2500000D02*
G75*
G02*
X30300000Y2500000I1300000J0D01*
G01*
X3800000Y50000000D02*
G75*
G02*
X1200000Y50000000I-1300000J0D01*
G01*
X1200000Y50000000D02*
G75*
G02*
X3800000Y50000000I1300000J0D01*
G01*
M02*
