M48
; DRILL file {KiCad 8.0.1} date 2024-04-29T01:14:51+0900
; FORMAT={-:-/ absolute / inch / decimal}
; #@! TF.CreationDate,2024-04-29T01:14:51+09:00
; #@! TF.GenerationSoftware,Kicad,Pcbnew,8.0.1
; #@! TF.FileFunction,Plated,1,2,PTH
FMAT,2
INCH
; #@! TA.AperFunction,Plated,PTH,ComponentDrill
T1C0.0276
; #@! TA.AperFunction,Plated,PTH,ComponentDrill
T2C0.0315
; #@! TA.AperFunction,Plated,PTH,ComponentDrill
T3C0.0394
%
G90
G05
T1
X-1.0178Y1.1913
X-1.0178Y1.1413
X-1.0178Y1.0913
X-1.0178Y1.0413
X-1.0178Y0.9913
X-1.0178Y0.9413
X-1.0178Y0.8913
X-1.0178Y0.8413
X-1.0178Y0.7913
X-1.0178Y0.7413
X-1.0178Y0.6913
X-1.0178Y0.6413
X-1.0178Y0.5913
X-1.0178Y0.5413
X-1.0178Y0.4913
X-1.0178Y0.4413
X-1.0178Y0.3913
X-1.0178Y0.3413
X-1.0178Y0.2913
X-1.0178Y0.2413
X-0.25Y1.1913
X-0.25Y1.1413
X-0.25Y1.0913
X-0.25Y1.0413
X-0.25Y0.9913
X-0.25Y0.9413
X-0.25Y0.8913
X-0.25Y0.8413
X-0.25Y0.7913
X-0.25Y0.7413
X-0.25Y0.6913
X-0.25Y0.6413
X-0.25Y0.5913
X-0.25Y0.5413
X-0.25Y0.4913
X-0.25Y0.4413
X-0.25Y0.3913
X-0.25Y0.3413
X-0.25Y0.2913
X-0.25Y0.2413
T2
X-0.88Y1.4591
X-0.88Y1.3803
X-0.88Y1.3016
X-0.88Y1.2228
X-0.88Y1.1441
X-0.88Y1.0654
X-0.88Y0.9866
X-0.88Y0.9079
X-0.88Y0.8291
X-0.88Y0.7504
X-0.88Y0.6717
X-0.88Y0.5929
X-0.88Y0.5142
X-0.88Y0.4354
X-0.88Y0.3567
X-0.88Y0.278
X-0.88Y0.1992
X-0.88Y0.1205
X-0.88Y0.0417
X-0.88Y-0.037
X-0.3878Y1.4591
X-0.3878Y1.3803
X-0.3878Y1.3016
X-0.3878Y1.2228
X-0.3878Y1.1441
X-0.3878Y1.0654
X-0.3878Y0.9866
X-0.3878Y0.9079
X-0.3878Y0.8291
X-0.3878Y0.7504
X-0.3878Y0.6717
X-0.3878Y0.5929
X-0.3878Y0.5142
X-0.3878Y0.4354
X-0.3878Y0.3567
X-0.3878Y0.278
X-0.3878Y0.1992
X-0.3878Y0.1205
X-0.3878Y0.0417
X-0.3878Y-0.037
T3
X-0.7225Y1.6661
X-0.7225Y1.5661
X-0.7225Y1.4661
X-0.7225Y1.3661
X-0.7225Y1.2661
X-0.7225Y1.1661
X-0.7225Y1.0661
X-0.7225Y0.9661
X-0.7225Y0.8661
X-0.7225Y0.7661
X-0.7225Y0.6661
X-0.7225Y0.5661
X-0.7225Y0.4661
X-0.7225Y0.3661
X-0.7225Y0.2661
X-0.7225Y0.1661
X-0.7225Y0.0661
X-0.7225Y-0.0339
X-0.7225Y-0.1339
X-0.7225Y-0.2339
X-0.5453Y1.6661
X-0.5453Y1.5661
X-0.5453Y1.4661
X-0.5453Y1.3661
X-0.5453Y1.2661
X-0.5453Y1.1661
X-0.5453Y1.0661
X-0.5453Y0.9661
X-0.5453Y0.8661
X-0.5453Y0.7661
X-0.5453Y0.6661
X-0.5453Y0.5661
X-0.5453Y0.4661
X-0.5453Y0.3661
X-0.5453Y0.2661
X-0.5453Y0.1661
X-0.5453Y0.0661
X-0.5453Y-0.0339
X-0.5453Y-0.1339
X-0.5453Y-0.2339
M30
