%TF.GenerationSoftware,KiCad,Pcbnew,(5.1.9)-1*%
%TF.CreationDate,2021-11-29T20:51:55+09:00*%
%TF.ProjectId,joystick-input,6a6f7973-7469-4636-9b2d-696e7075742e,rev?*%
%TF.SameCoordinates,Original*%
%TF.FileFunction,Copper,L2,Bot*%
%TF.FilePolarity,Positive*%
%FSLAX46Y46*%
G04 Gerber Fmt 4.6, Leading zero omitted, Abs format (unit mm)*
G04 Created by KiCad (PCBNEW (5.1.9)-1) date 2021-11-29 20:51:55*
%MOMM*%
%LPD*%
G01*
G04 APERTURE LIST*
%TA.AperFunction,ComponentPad*%
%ADD10O,1.700000X1.700000*%
%TD*%
%TA.AperFunction,ComponentPad*%
%ADD11R,1.700000X1.700000*%
%TD*%
%TA.AperFunction,ViaPad*%
%ADD12C,0.800000*%
%TD*%
%TA.AperFunction,Conductor*%
%ADD13C,0.250000*%
%TD*%
%TA.AperFunction,Conductor*%
%ADD14C,0.254000*%
%TD*%
%TA.AperFunction,Conductor*%
%ADD15C,0.100000*%
%TD*%
G04 APERTURE END LIST*
D10*
%TO.P,IN1,5*%
%TO.N,/D_IN*%
X114554000Y-92075000D03*
%TO.P,IN1,4*%
%TO.N,/CLK*%
X114554000Y-89535000D03*
%TO.P,IN1,3*%
%TO.N,/LOAD*%
X114554000Y-86995000D03*
%TO.P,IN1,2*%
%TO.N,GND*%
X114554000Y-84455000D03*
D11*
%TO.P,IN1,1*%
%TO.N,VCC*%
X114554000Y-81915000D03*
%TD*%
D10*
%TO.P,OUT1,5*%
%TO.N,/D_OUT*%
X162306000Y-91948000D03*
%TO.P,OUT1,4*%
%TO.N,/CLK*%
X162306000Y-89408000D03*
%TO.P,OUT1,3*%
%TO.N,/LOAD*%
X162306000Y-86868000D03*
%TO.P,OUT1,2*%
%TO.N,GND*%
X162306000Y-84328000D03*
D11*
%TO.P,OUT1,1*%
%TO.N,VCC*%
X162306000Y-81788000D03*
%TD*%
D10*
%TO.P,J1,18*%
%TO.N,/C_SHORT*%
X116713000Y-77978000D03*
%TO.P,J1,17*%
%TO.N,/C_P2_RIGHT*%
X119253000Y-77978000D03*
%TO.P,J1,16*%
%TO.N,/C_P2_LEFT*%
X121793000Y-77978000D03*
%TO.P,J1,15*%
%TO.N,/C_P2_DOWN*%
X124333000Y-77978000D03*
%TO.P,J1,14*%
%TO.N,/C_P2_UP*%
X126873000Y-77978000D03*
%TO.P,J1,13*%
%TO.N,/C_P1_R*%
X129413000Y-77978000D03*
%TO.P,J1,12*%
%TO.N,/C_P1_L*%
X131953000Y-77978000D03*
%TO.P,J1,11*%
%TO.N,/C_P1_Y*%
X134493000Y-77978000D03*
%TO.P,J1,10*%
%TO.N,/C_P1_X*%
X137033000Y-77978000D03*
%TO.P,J1,9*%
%TO.N,/C_P1_B*%
X139573000Y-77978000D03*
%TO.P,J1,8*%
%TO.N,/C_P1_A*%
X142113000Y-77978000D03*
%TO.P,J1,7*%
%TO.N,/C_P1_SELECT*%
X144653000Y-77978000D03*
%TO.P,J1,6*%
%TO.N,/C_P1_START*%
X147193000Y-77978000D03*
%TO.P,J1,5*%
%TO.N,/C_P1_RIGHT*%
X149733000Y-77978000D03*
%TO.P,J1,4*%
%TO.N,/C_P1_LEFT*%
X152273000Y-77978000D03*
%TO.P,J1,3*%
%TO.N,/C_P1_DOWN*%
X154813000Y-77978000D03*
%TO.P,J1,2*%
%TO.N,/C_P1_UP*%
X157353000Y-77978000D03*
D11*
%TO.P,J1,1*%
%TO.N,/C_SHORT*%
X159893000Y-77978000D03*
%TD*%
D10*
%TO.P,J2,28*%
%TO.N,/C_SHORT*%
X121793000Y-74041000D03*
%TO.P,J2,27*%
X121793000Y-71501000D03*
%TO.P,J2,26*%
%TO.N,/C_P2_R*%
X124333000Y-74041000D03*
%TO.P,J2,25*%
%TO.N,/C_P1_R*%
X124333000Y-71501000D03*
%TO.P,J2,24*%
%TO.N,/C_P2_L*%
X126873000Y-74041000D03*
%TO.P,J2,23*%
%TO.N,/C_P1_L*%
X126873000Y-71501000D03*
%TO.P,J2,22*%
%TO.N,/C_P2_Y*%
X129413000Y-74041000D03*
%TO.P,J2,21*%
%TO.N,/C_P1_Y*%
X129413000Y-71501000D03*
%TO.P,J2,20*%
%TO.N,/C_P2_X*%
X131953000Y-74041000D03*
%TO.P,J2,19*%
%TO.N,/C_P1_X*%
X131953000Y-71501000D03*
%TO.P,J2,18*%
%TO.N,/C_P2_B*%
X134493000Y-74041000D03*
%TO.P,J2,17*%
%TO.N,/C_P1_B*%
X134493000Y-71501000D03*
%TO.P,J2,16*%
%TO.N,/C_P2_A*%
X137033000Y-74041000D03*
%TO.P,J2,15*%
%TO.N,/C_P1_A*%
X137033000Y-71501000D03*
%TO.P,J2,14*%
%TO.N,/C_P2_SELECT*%
X139573000Y-74041000D03*
%TO.P,J2,13*%
%TO.N,/C_P1_SELECT*%
X139573000Y-71501000D03*
%TO.P,J2,12*%
%TO.N,/C_P2_START*%
X142113000Y-74041000D03*
%TO.P,J2,11*%
%TO.N,/C_P1_START*%
X142113000Y-71501000D03*
%TO.P,J2,10*%
%TO.N,/C_P2_RIGHT*%
X144653000Y-74041000D03*
%TO.P,J2,9*%
%TO.N,/C_P1_RIGHT*%
X144653000Y-71501000D03*
%TO.P,J2,8*%
%TO.N,/C_P2_LEFT*%
X147193000Y-74041000D03*
%TO.P,J2,7*%
%TO.N,/C_P1_LEFT*%
X147193000Y-71501000D03*
%TO.P,J2,6*%
%TO.N,/C_P2_DOWN*%
X149733000Y-74041000D03*
%TO.P,J2,5*%
%TO.N,/C_P1_DOWN*%
X149733000Y-71501000D03*
%TO.P,J2,4*%
%TO.N,/C_P2_UP*%
X152273000Y-74041000D03*
%TO.P,J2,3*%
%TO.N,/C_P1_UP*%
X152273000Y-71501000D03*
%TO.P,J2,2*%
%TO.N,/C_SHORT*%
X154813000Y-74041000D03*
D11*
%TO.P,J2,1*%
X154813000Y-71501000D03*
%TD*%
D12*
%TO.N,/PULL*%
X118530000Y-92240986D03*
X161836990Y-76454002D03*
X145414994Y-94615000D03*
X131953000Y-94705001D03*
X158115006Y-93979918D03*
%TO.N,GND*%
X133477000Y-90932000D03*
X120269000Y-92456000D03*
X117094000Y-95123000D03*
X146558000Y-84264500D03*
X147066000Y-91313000D03*
X124523500Y-85026500D03*
X133413500Y-84391500D03*
X144716500Y-81534000D03*
X159575500Y-86804490D03*
X143319500Y-86296500D03*
X151701500Y-91376500D03*
X156527500Y-92392500D03*
X138747500Y-92138500D03*
X158813500Y-81724500D03*
X156019500Y-80200500D03*
X117919500Y-72580500D03*
%TO.N,/C_P1_START*%
X154036800Y-87339010D03*
%TO.N,/C_P1_SELECT*%
X154036798Y-88519002D03*
%TO.N,/C_P1_A*%
X154036814Y-89789000D03*
%TO.N,/C_P1_B*%
X154036818Y-91059000D03*
%TO.N,/C_P1_UP*%
X149086802Y-91059000D03*
X151542479Y-81821487D03*
%TO.N,/C_P1_DOWN*%
X150504076Y-81821479D03*
X149086802Y-89789000D03*
%TO.N,/C_P1_LEFT*%
X149491450Y-81821479D03*
X149086798Y-88519000D03*
%TO.N,/C_P1_RIGHT*%
X148463000Y-81661000D03*
X149086796Y-87249000D03*
%TO.N,/C_P1_X*%
X137439402Y-91160600D03*
X136969500Y-81470500D03*
%TO.N,/C_P1_Y*%
X137477500Y-89852500D03*
X135445500Y-81521849D03*
%TO.N,/C_P1_L*%
X137477500Y-88598889D03*
X134175500Y-81480285D03*
%TO.N,/C_P1_R*%
X137306533Y-87312500D03*
X132905498Y-81470500D03*
%TO.N,/C_P2_START*%
X123952002Y-91186000D03*
%TO.N,/C_P2_SELECT*%
X123825000Y-89916000D03*
%TO.N,/C_P2_A*%
X123824996Y-88646000D03*
%TO.N,/C_P2_B*%
X123761500Y-87566500D03*
%TO.N,/C_P2_UP*%
X141006600Y-87430628D03*
%TO.N,/C_P2_DOWN*%
X141006600Y-88620612D03*
%TO.N,/C_P2_LEFT*%
X141006572Y-89890600D03*
%TO.N,/C_P2_RIGHT*%
X141006591Y-91160591D03*
%TO.N,/C_P2_X*%
X125285496Y-81470500D03*
X126047500Y-87566512D03*
%TO.N,/C_P2_Y*%
X126486921Y-81433510D03*
X126110998Y-88646000D03*
%TO.N,/C_P2_L*%
X127579442Y-81433510D03*
X126111010Y-89916000D03*
%TO.N,/C_P2_R*%
X126074229Y-91097579D03*
X128587500Y-81433510D03*
%TO.N,/C_SHORT*%
X115443000Y-73221349D03*
%TD*%
D13*
%TO.N,/PULL*%
X118530000Y-92806671D02*
X118530000Y-92240986D01*
X121481329Y-95758000D02*
X118530000Y-92806671D01*
X131572000Y-95758000D02*
X121481329Y-95758000D01*
X157715007Y-94379999D02*
X158115006Y-93980000D01*
X156337006Y-95758000D02*
X157715007Y-94379999D01*
X142621000Y-95758000D02*
X143673990Y-95758000D01*
X145034000Y-95758000D02*
X156337006Y-95758000D01*
X142621000Y-95758000D02*
X145034000Y-95758000D01*
X160920021Y-80762389D02*
X161836990Y-79845420D01*
X158115006Y-93980000D02*
X160920021Y-91174985D01*
X160920021Y-91174985D02*
X160920021Y-80762389D01*
X161836990Y-79845420D02*
X161836990Y-76454002D01*
X131953000Y-95758000D02*
X142621000Y-95758000D01*
X131572000Y-95758000D02*
X131953000Y-95758000D01*
X145415000Y-94615006D02*
X145414994Y-94615000D01*
X145415000Y-95758000D02*
X145415000Y-94615006D01*
X145034000Y-95758000D02*
X145415000Y-95758000D01*
X131953000Y-95377000D02*
X131953000Y-94705001D01*
X131953000Y-95758000D02*
X131953000Y-94705001D01*
%TO.N,/C_P1_START*%
X148069247Y-77978000D02*
X147320000Y-77978000D01*
X149837691Y-79746444D02*
X148069247Y-77978000D01*
X153153855Y-79746444D02*
X149837691Y-79746444D01*
X154036800Y-80629388D02*
X153153855Y-79746444D01*
X154036800Y-87339010D02*
X154036800Y-80629388D01*
%TO.N,/C_P1_SELECT*%
X146102478Y-79300478D02*
X144780000Y-77978000D01*
X149651291Y-80196455D02*
X148755315Y-79300478D01*
X152597603Y-80196455D02*
X149651291Y-80196455D01*
X153311797Y-80910649D02*
X152597603Y-80196455D01*
X153311797Y-87794001D02*
X153311797Y-80910649D01*
X148755315Y-79300478D02*
X146102478Y-79300478D01*
X154036798Y-88519002D02*
X153311797Y-87794001D01*
%TO.N,/C_P1_A*%
X144012489Y-79750489D02*
X142240000Y-77978000D01*
X149464892Y-80646466D02*
X148568915Y-79750489D01*
X152248296Y-80646466D02*
X149464892Y-80646466D01*
X148568915Y-79750489D02*
X144012489Y-79750489D01*
X152861786Y-81259956D02*
X152248296Y-80646466D01*
X152861786Y-88613972D02*
X152861786Y-81259956D01*
X154036814Y-89789000D02*
X152861786Y-88613972D01*
%TO.N,/C_P1_B*%
X152056114Y-81096477D02*
X152267489Y-81307852D01*
X140150144Y-77978000D02*
X142372644Y-80200500D01*
X139700000Y-77978000D02*
X140150144Y-77978000D01*
X153636819Y-90659001D02*
X154036818Y-91059000D01*
X152267489Y-89289671D02*
X153636819Y-90659001D01*
X152267489Y-81307852D02*
X152267489Y-89289671D01*
X149278492Y-81096477D02*
X152056114Y-81096477D01*
X142372644Y-80200500D02*
X148382515Y-80200500D01*
X148382515Y-80200500D02*
X149278492Y-81096477D01*
%TO.N,/C_P1_UP*%
X151542479Y-88603323D02*
X151542479Y-81821487D01*
X149086802Y-91059000D02*
X151542479Y-88603323D01*
%TO.N,/C_P1_DOWN*%
X150431500Y-88444302D02*
X149086802Y-89789000D01*
X150431500Y-81894055D02*
X150431500Y-88444302D01*
X150504076Y-81821479D02*
X150431500Y-81894055D01*
%TO.N,/C_P1_LEFT*%
X149491450Y-81821479D02*
X149491450Y-82387164D01*
X149981489Y-87624309D02*
X149086798Y-88519000D01*
X149491450Y-82387164D02*
X149981489Y-82877203D01*
X149981489Y-82877203D02*
X149981489Y-87624309D01*
%TO.N,/C_P1_RIGHT*%
X148463000Y-81661000D02*
X148463000Y-86625204D01*
X148463000Y-86625204D02*
X149086796Y-87249000D01*
%TO.N,/C_P1_X*%
X137439402Y-91160600D02*
X138931565Y-89668437D01*
X138931565Y-89668437D02*
X138931565Y-83432565D01*
X138931565Y-83432565D02*
X136969500Y-81470500D01*
%TO.N,/C_P1_Y*%
X137477500Y-89852500D02*
X138481554Y-88848446D01*
X138481554Y-88848446D02*
X138481554Y-84557903D01*
X138481554Y-84557903D02*
X135445500Y-81521849D01*
%TO.N,/C_P1_L*%
X138031543Y-85336328D02*
X134175500Y-81480285D01*
X137477500Y-88598889D02*
X138031543Y-88044846D01*
X138031543Y-88044846D02*
X138031543Y-85336328D01*
%TO.N,/C_P1_R*%
X137306533Y-87312500D02*
X137306533Y-85871535D01*
X137306533Y-85871535D02*
X132905498Y-81470500D01*
%TO.N,/C_P2_START*%
X142113000Y-74041000D02*
X140779500Y-72707500D01*
X118681500Y-85915498D02*
X123952002Y-91186000D01*
X118681500Y-83248500D02*
X118681500Y-85915498D01*
X140779500Y-72707500D02*
X140779500Y-70778500D01*
X140779500Y-70778500D02*
X139279500Y-69278500D01*
X139279500Y-69278500D02*
X116392678Y-69278500D01*
X116392678Y-69278500D02*
X113817975Y-71853203D01*
X113817975Y-71853203D02*
X113817975Y-78384975D01*
X113817975Y-78384975D02*
X118681500Y-83248500D01*
%TO.N,/C_P2_SELECT*%
X139573000Y-74041000D02*
X138239500Y-72707500D01*
X119131511Y-83062100D02*
X119131511Y-85222511D01*
X138239500Y-70968498D02*
X136999513Y-69728511D01*
X114267986Y-72039603D02*
X114267986Y-78198575D01*
X116579078Y-69728511D02*
X114267986Y-72039603D01*
X138239500Y-72707500D02*
X138239500Y-70968498D01*
X136999513Y-69728511D02*
X116579078Y-69728511D01*
X114267986Y-78198575D02*
X119131511Y-83062100D01*
X119131511Y-85222511D02*
X123825000Y-89916000D01*
%TO.N,/C_P2_A*%
X135699500Y-72707500D02*
X135699500Y-70968498D01*
X119581522Y-84402526D02*
X123036499Y-87857503D01*
X119581522Y-82875700D02*
X119581522Y-84402526D01*
X134909524Y-70178522D02*
X116897566Y-70178522D01*
X135699500Y-70968498D02*
X134909524Y-70178522D01*
X137033000Y-74041000D02*
X135699500Y-72707500D01*
X114717988Y-72358100D02*
X114717988Y-78012166D01*
X123767998Y-88646000D02*
X123824996Y-88646000D01*
X123036499Y-87914501D02*
X123767998Y-88646000D01*
X123036499Y-87857503D02*
X123036499Y-87914501D01*
X116897566Y-70178522D02*
X114717988Y-72358100D01*
X114717988Y-78012166D02*
X119581522Y-82875700D01*
%TO.N,/C_P2_B*%
X134493000Y-74041000D02*
X133286500Y-72834500D01*
X117999533Y-80641674D02*
X123761500Y-86403641D01*
X133286500Y-72834500D02*
X119443500Y-72834500D01*
X119443500Y-72834500D02*
X117999533Y-74278467D01*
X123761500Y-86403641D02*
X123761500Y-87566500D01*
X117999533Y-74278467D02*
X117999533Y-80641674D01*
%TO.N,/C_P2_UP*%
X140779500Y-80454500D02*
X140779500Y-87203528D01*
X139478001Y-79153001D02*
X140779500Y-80454500D01*
X128674244Y-79153001D02*
X139478001Y-79153001D01*
X127499243Y-77978000D02*
X128674244Y-79153001D01*
X128752710Y-76724533D02*
X127499243Y-77978000D01*
X149843467Y-76724533D02*
X128752710Y-76724533D01*
X140779500Y-87203528D02*
X141006600Y-87430628D01*
X152273000Y-74295000D02*
X149843467Y-76724533D01*
%TO.N,/C_P2_DOWN*%
X140281598Y-87895610D02*
X141006600Y-88620612D01*
X140281599Y-80658781D02*
X140281598Y-87895610D01*
X126174500Y-79692500D02*
X139315318Y-79692500D01*
X124460000Y-77978000D02*
X126174500Y-79692500D01*
X126163478Y-76274522D02*
X124460000Y-77978000D01*
X147499478Y-76274522D02*
X126163478Y-76274522D01*
X139315318Y-79692500D02*
X140281599Y-80658781D01*
X149733000Y-74041000D02*
X147499478Y-76274522D01*
%TO.N,/C_P2_LEFT*%
X139831588Y-80845182D02*
X139831587Y-88715615D01*
X139128917Y-80142511D02*
X139831588Y-80845182D01*
X124084511Y-80142511D02*
X139128917Y-80142511D01*
X121920000Y-77978000D02*
X124084511Y-80142511D01*
X124073489Y-75824511D02*
X121920000Y-77978000D01*
X139831587Y-88715615D02*
X141006572Y-89890600D01*
X145663489Y-75824511D02*
X124073489Y-75824511D01*
X147193000Y-74295000D02*
X145663489Y-75824511D01*
%TO.N,/C_P2_RIGHT*%
X143573500Y-75374500D02*
X144653000Y-74295000D01*
X121983500Y-75374500D02*
X143573500Y-75374500D01*
X119380000Y-77978000D02*
X121983500Y-75374500D01*
X122110500Y-80708500D02*
X119380000Y-77978000D01*
X139058494Y-80708500D02*
X122110500Y-80708500D01*
X139381577Y-81031583D02*
X139058494Y-80708500D01*
X139381576Y-89535576D02*
X139381577Y-81031583D01*
X141006591Y-91160591D02*
X139381576Y-89535576D01*
%TO.N,/C_P2_X*%
X126047500Y-82232504D02*
X126047500Y-87566512D01*
X125285496Y-81470500D02*
X126047500Y-82232504D01*
%TO.N,/C_P2_Y*%
X127026501Y-88296182D02*
X126676683Y-88646000D01*
X127026501Y-81973090D02*
X127026501Y-88296182D01*
X126486921Y-81433510D02*
X127026501Y-81973090D01*
X126676683Y-88646000D02*
X126110998Y-88646000D01*
%TO.N,/C_P2_L*%
X127579442Y-81433510D02*
X127579442Y-88447568D01*
X127579442Y-88447568D02*
X126111010Y-89916000D01*
%TO.N,/C_P2_R*%
X126074229Y-91097579D02*
X128587500Y-88584308D01*
X128587500Y-88584308D02*
X128587500Y-81433510D01*
%TO.N,/C_SHORT*%
X121793000Y-71755000D02*
X121158000Y-71120000D01*
X117163349Y-71501000D02*
X115443000Y-73221349D01*
X121793000Y-71501000D02*
X117163349Y-71501000D01*
%TD*%
D14*
%TO.N,GND*%
X162099665Y-68455441D02*
X161968682Y-68771663D01*
X161901907Y-69107362D01*
X161901907Y-69449638D01*
X161968682Y-69785337D01*
X162099665Y-70101559D01*
X162289824Y-70386151D01*
X162531849Y-70628176D01*
X162816441Y-70818335D01*
X163132663Y-70949318D01*
X163468362Y-71016093D01*
X163810638Y-71016093D01*
X164146337Y-70949318D01*
X164462559Y-70818335D01*
X164478500Y-70807683D01*
X164478501Y-94127892D01*
X164477299Y-94127089D01*
X164155414Y-93993760D01*
X163813703Y-93925789D01*
X163465297Y-93925789D01*
X163123586Y-93993760D01*
X162801701Y-94127089D01*
X162512012Y-94320652D01*
X162265652Y-94567012D01*
X162072089Y-94856701D01*
X161938760Y-95178586D01*
X161870789Y-95520297D01*
X161870789Y-95868703D01*
X161938760Y-96210414D01*
X162072089Y-96532299D01*
X162072891Y-96533500D01*
X114876684Y-96533500D01*
X114887335Y-96517559D01*
X115018318Y-96201337D01*
X115085093Y-95865638D01*
X115085093Y-95523362D01*
X115018318Y-95187663D01*
X114887335Y-94871441D01*
X114697176Y-94586849D01*
X114455151Y-94344824D01*
X114170559Y-94154665D01*
X113854337Y-94023682D01*
X113518638Y-93956907D01*
X113176362Y-93956907D01*
X112840663Y-94023682D01*
X112524441Y-94154665D01*
X112508500Y-94165316D01*
X112508500Y-86848740D01*
X113069000Y-86848740D01*
X113069000Y-87141260D01*
X113126068Y-87428158D01*
X113238010Y-87698411D01*
X113400525Y-87941632D01*
X113607368Y-88148475D01*
X113781760Y-88265000D01*
X113607368Y-88381525D01*
X113400525Y-88588368D01*
X113238010Y-88831589D01*
X113126068Y-89101842D01*
X113069000Y-89388740D01*
X113069000Y-89681260D01*
X113126068Y-89968158D01*
X113238010Y-90238411D01*
X113400525Y-90481632D01*
X113607368Y-90688475D01*
X113781760Y-90805000D01*
X113607368Y-90921525D01*
X113400525Y-91128368D01*
X113238010Y-91371589D01*
X113126068Y-91641842D01*
X113069000Y-91928740D01*
X113069000Y-92221260D01*
X113126068Y-92508158D01*
X113238010Y-92778411D01*
X113400525Y-93021632D01*
X113607368Y-93228475D01*
X113850589Y-93390990D01*
X114120842Y-93502932D01*
X114407740Y-93560000D01*
X114700260Y-93560000D01*
X114987158Y-93502932D01*
X115257411Y-93390990D01*
X115500632Y-93228475D01*
X115707475Y-93021632D01*
X115869990Y-92778411D01*
X115981932Y-92508158D01*
X116039000Y-92221260D01*
X116039000Y-91928740D01*
X115981932Y-91641842D01*
X115869990Y-91371589D01*
X115707475Y-91128368D01*
X115500632Y-90921525D01*
X115326240Y-90805000D01*
X115500632Y-90688475D01*
X115707475Y-90481632D01*
X115869990Y-90238411D01*
X115981932Y-89968158D01*
X116039000Y-89681260D01*
X116039000Y-89388740D01*
X115981932Y-89101842D01*
X115869990Y-88831589D01*
X115707475Y-88588368D01*
X115500632Y-88381525D01*
X115326240Y-88265000D01*
X115500632Y-88148475D01*
X115707475Y-87941632D01*
X115869990Y-87698411D01*
X115981932Y-87428158D01*
X116039000Y-87141260D01*
X116039000Y-86848740D01*
X115981932Y-86561842D01*
X115869990Y-86291589D01*
X115707475Y-86048368D01*
X115500632Y-85841525D01*
X115318466Y-85719805D01*
X115435355Y-85650178D01*
X115651588Y-85455269D01*
X115825641Y-85221920D01*
X115950825Y-84959099D01*
X115995476Y-84811890D01*
X115874155Y-84582000D01*
X114681000Y-84582000D01*
X114681000Y-84602000D01*
X114427000Y-84602000D01*
X114427000Y-84582000D01*
X113233845Y-84582000D01*
X113112524Y-84811890D01*
X113157175Y-84959099D01*
X113282359Y-85221920D01*
X113456412Y-85455269D01*
X113672645Y-85650178D01*
X113789534Y-85719805D01*
X113607368Y-85841525D01*
X113400525Y-86048368D01*
X113238010Y-86291589D01*
X113126068Y-86561842D01*
X113069000Y-86848740D01*
X112508500Y-86848740D01*
X112508500Y-70845109D01*
X112509701Y-70845911D01*
X112831586Y-70979240D01*
X113173297Y-71047211D01*
X113521703Y-71047211D01*
X113555985Y-71040392D01*
X113306978Y-71289399D01*
X113277974Y-71313202D01*
X113243885Y-71354740D01*
X113183001Y-71428927D01*
X113153540Y-71484045D01*
X113112429Y-71560957D01*
X113068972Y-71704218D01*
X113057975Y-71815871D01*
X113057975Y-71815881D01*
X113054299Y-71853203D01*
X113057975Y-71890526D01*
X113057976Y-78347643D01*
X113054299Y-78384975D01*
X113068973Y-78533960D01*
X113112429Y-78677221D01*
X113183001Y-78809251D01*
X113225269Y-78860754D01*
X113277975Y-78924976D01*
X113306973Y-78948774D01*
X114785127Y-80426928D01*
X113704000Y-80426928D01*
X113579518Y-80439188D01*
X113459820Y-80475498D01*
X113349506Y-80534463D01*
X113252815Y-80613815D01*
X113173463Y-80710506D01*
X113114498Y-80820820D01*
X113078188Y-80940518D01*
X113065928Y-81065000D01*
X113065928Y-82765000D01*
X113078188Y-82889482D01*
X113114498Y-83009180D01*
X113173463Y-83119494D01*
X113252815Y-83216185D01*
X113349506Y-83295537D01*
X113459820Y-83354502D01*
X113540466Y-83378966D01*
X113456412Y-83454731D01*
X113282359Y-83688080D01*
X113157175Y-83950901D01*
X113112524Y-84098110D01*
X113233845Y-84328000D01*
X114427000Y-84328000D01*
X114427000Y-84308000D01*
X114681000Y-84308000D01*
X114681000Y-84328000D01*
X115874155Y-84328000D01*
X115995476Y-84098110D01*
X115950825Y-83950901D01*
X115825641Y-83688080D01*
X115651588Y-83454731D01*
X115567534Y-83378966D01*
X115648180Y-83354502D01*
X115758494Y-83295537D01*
X115855185Y-83216185D01*
X115934537Y-83119494D01*
X115993502Y-83009180D01*
X116029812Y-82889482D01*
X116042072Y-82765000D01*
X116042072Y-81683874D01*
X117921500Y-83563302D01*
X117921501Y-85878166D01*
X117917824Y-85915498D01*
X117921501Y-85952831D01*
X117932498Y-86064484D01*
X117943273Y-86100004D01*
X117975954Y-86207744D01*
X118046526Y-86339774D01*
X118113848Y-86421805D01*
X118141500Y-86455499D01*
X118170498Y-86479297D01*
X122917002Y-91225803D01*
X122917002Y-91287939D01*
X122956776Y-91487898D01*
X123034797Y-91676256D01*
X123148065Y-91845774D01*
X123292228Y-91989937D01*
X123461746Y-92103205D01*
X123650104Y-92181226D01*
X123850063Y-92221000D01*
X124053941Y-92221000D01*
X124253900Y-92181226D01*
X124442258Y-92103205D01*
X124611776Y-91989937D01*
X124755939Y-91845774D01*
X124869207Y-91676256D01*
X124947228Y-91487898D01*
X124987002Y-91287939D01*
X124987002Y-91084061D01*
X124947228Y-90884102D01*
X124869207Y-90695744D01*
X124755939Y-90526226D01*
X124699653Y-90469940D01*
X124742205Y-90406256D01*
X124820226Y-90217898D01*
X124860000Y-90017939D01*
X124860000Y-89814061D01*
X124820226Y-89614102D01*
X124742205Y-89425744D01*
X124645488Y-89280997D01*
X124742201Y-89136256D01*
X124820222Y-88947898D01*
X124859996Y-88747939D01*
X124859996Y-88544061D01*
X124820222Y-88344102D01*
X124742201Y-88155744D01*
X124677382Y-88058736D01*
X124678705Y-88056756D01*
X124756726Y-87868398D01*
X124796500Y-87668439D01*
X124796500Y-87464561D01*
X124756726Y-87264602D01*
X124678705Y-87076244D01*
X124565437Y-86906726D01*
X124521500Y-86862789D01*
X124521500Y-86440964D01*
X124525176Y-86403641D01*
X124521500Y-86366318D01*
X124521500Y-86366308D01*
X124510503Y-86254655D01*
X124467046Y-86111394D01*
X124453114Y-86085330D01*
X124396474Y-85979364D01*
X124325299Y-85892638D01*
X124301501Y-85863640D01*
X124272504Y-85839843D01*
X118759533Y-80326873D01*
X118759533Y-79380951D01*
X118819842Y-79405932D01*
X119106740Y-79463000D01*
X119399260Y-79463000D01*
X119686158Y-79405932D01*
X119719373Y-79392174D01*
X121546700Y-81219502D01*
X121570499Y-81248501D01*
X121599497Y-81272299D01*
X121686223Y-81343474D01*
X121783498Y-81395469D01*
X121818253Y-81414046D01*
X121961514Y-81457503D01*
X122073167Y-81468500D01*
X122073176Y-81468500D01*
X122110499Y-81472176D01*
X122147822Y-81468500D01*
X124250496Y-81468500D01*
X124250496Y-81572439D01*
X124290270Y-81772398D01*
X124368291Y-81960756D01*
X124481559Y-82130274D01*
X124625722Y-82274437D01*
X124795240Y-82387705D01*
X124983598Y-82465726D01*
X125183557Y-82505500D01*
X125245694Y-82505500D01*
X125287500Y-82547306D01*
X125287501Y-86862800D01*
X125243563Y-86906738D01*
X125130295Y-87076256D01*
X125052274Y-87264614D01*
X125012500Y-87464573D01*
X125012500Y-87668451D01*
X125052274Y-87868410D01*
X125130295Y-88056768D01*
X125195111Y-88153772D01*
X125193793Y-88155744D01*
X125115772Y-88344102D01*
X125075998Y-88544061D01*
X125075998Y-88747939D01*
X125115772Y-88947898D01*
X125193793Y-89136256D01*
X125290514Y-89281009D01*
X125193805Y-89425744D01*
X125115784Y-89614102D01*
X125076010Y-89814061D01*
X125076010Y-90017939D01*
X125115784Y-90217898D01*
X125193805Y-90406256D01*
X125242589Y-90479266D01*
X125157024Y-90607323D01*
X125079003Y-90795681D01*
X125039229Y-90995640D01*
X125039229Y-91199518D01*
X125079003Y-91399477D01*
X125157024Y-91587835D01*
X125270292Y-91757353D01*
X125414455Y-91901516D01*
X125583973Y-92014784D01*
X125772331Y-92092805D01*
X125972290Y-92132579D01*
X126176168Y-92132579D01*
X126376127Y-92092805D01*
X126564485Y-92014784D01*
X126734003Y-91901516D01*
X126878166Y-91757353D01*
X126991434Y-91587835D01*
X127069455Y-91399477D01*
X127109229Y-91199518D01*
X127109229Y-91137380D01*
X129098504Y-89148106D01*
X129127501Y-89124309D01*
X129180394Y-89059859D01*
X129222474Y-89008585D01*
X129293046Y-88876555D01*
X129298895Y-88857274D01*
X129336503Y-88733294D01*
X129347500Y-88621641D01*
X129347500Y-88621631D01*
X129351176Y-88584308D01*
X129347500Y-88546985D01*
X129347500Y-82137221D01*
X129391437Y-82093284D01*
X129504705Y-81923766D01*
X129582726Y-81735408D01*
X129622500Y-81535449D01*
X129622500Y-81468500D01*
X131870498Y-81468500D01*
X131870498Y-81572439D01*
X131910272Y-81772398D01*
X131988293Y-81960756D01*
X132101561Y-82130274D01*
X132245724Y-82274437D01*
X132415242Y-82387705D01*
X132603600Y-82465726D01*
X132803559Y-82505500D01*
X132865697Y-82505500D01*
X136546534Y-86186339D01*
X136546533Y-86608789D01*
X136502596Y-86652726D01*
X136389328Y-86822244D01*
X136311307Y-87010602D01*
X136271533Y-87210561D01*
X136271533Y-87414439D01*
X136311307Y-87614398D01*
X136389328Y-87802756D01*
X136502596Y-87972274D01*
X136591802Y-88061480D01*
X136560295Y-88108633D01*
X136482274Y-88296991D01*
X136442500Y-88496950D01*
X136442500Y-88700828D01*
X136482274Y-88900787D01*
X136560295Y-89089145D01*
X136651534Y-89225695D01*
X136560295Y-89362244D01*
X136482274Y-89550602D01*
X136442500Y-89750561D01*
X136442500Y-89954439D01*
X136482274Y-90154398D01*
X136560295Y-90342756D01*
X136653718Y-90482573D01*
X136635465Y-90500826D01*
X136522197Y-90670344D01*
X136444176Y-90858702D01*
X136404402Y-91058661D01*
X136404402Y-91262539D01*
X136444176Y-91462498D01*
X136522197Y-91650856D01*
X136635465Y-91820374D01*
X136779628Y-91964537D01*
X136949146Y-92077805D01*
X137137504Y-92155826D01*
X137337463Y-92195600D01*
X137541341Y-92195600D01*
X137741300Y-92155826D01*
X137929658Y-92077805D01*
X138099176Y-91964537D01*
X138243339Y-91820374D01*
X138356607Y-91650856D01*
X138434628Y-91462498D01*
X138474402Y-91262539D01*
X138474402Y-91200401D01*
X139223001Y-90451803D01*
X139971591Y-91200393D01*
X139971591Y-91262530D01*
X140011365Y-91462489D01*
X140089386Y-91650847D01*
X140202654Y-91820365D01*
X140346817Y-91964528D01*
X140516335Y-92077796D01*
X140704693Y-92155817D01*
X140904652Y-92195591D01*
X141108530Y-92195591D01*
X141308489Y-92155817D01*
X141496847Y-92077796D01*
X141666365Y-91964528D01*
X141810528Y-91820365D01*
X141923796Y-91650847D01*
X142001817Y-91462489D01*
X142041591Y-91262530D01*
X142041591Y-91058652D01*
X142001817Y-90858693D01*
X141923796Y-90670335D01*
X141827075Y-90525581D01*
X141923777Y-90380856D01*
X142001798Y-90192498D01*
X142041572Y-89992539D01*
X142041572Y-89788661D01*
X142001798Y-89588702D01*
X141923777Y-89400344D01*
X141827080Y-89255627D01*
X141923805Y-89110868D01*
X142001826Y-88922510D01*
X142041600Y-88722551D01*
X142041600Y-88518673D01*
X142001826Y-88318714D01*
X141923805Y-88130356D01*
X141853823Y-88025620D01*
X141923805Y-87920884D01*
X142001826Y-87732526D01*
X142041600Y-87532567D01*
X142041600Y-87328689D01*
X142001826Y-87128730D01*
X141923805Y-86940372D01*
X141810537Y-86770854D01*
X141666374Y-86626691D01*
X141539500Y-86541917D01*
X141539500Y-80491833D01*
X141543177Y-80454500D01*
X141542230Y-80444888D01*
X141808844Y-80711502D01*
X141832643Y-80740501D01*
X141948368Y-80835474D01*
X142080397Y-80906046D01*
X142223658Y-80949503D01*
X142335311Y-80960500D01*
X142335319Y-80960500D01*
X142372644Y-80964176D01*
X142409969Y-80960500D01*
X147699789Y-80960500D01*
X147659063Y-81001226D01*
X147545795Y-81170744D01*
X147467774Y-81359102D01*
X147428000Y-81559061D01*
X147428000Y-81762939D01*
X147467774Y-81962898D01*
X147545795Y-82151256D01*
X147659063Y-82320774D01*
X147703000Y-82364711D01*
X147703001Y-86587872D01*
X147699324Y-86625204D01*
X147703001Y-86662537D01*
X147713670Y-86770854D01*
X147713998Y-86774189D01*
X147757454Y-86917450D01*
X147828026Y-87049480D01*
X147869499Y-87100014D01*
X147923000Y-87165205D01*
X147951998Y-87189003D01*
X148051796Y-87288801D01*
X148051796Y-87350939D01*
X148091570Y-87550898D01*
X148169591Y-87739256D01*
X148266307Y-87884001D01*
X148169593Y-88028744D01*
X148091572Y-88217102D01*
X148051798Y-88417061D01*
X148051798Y-88620939D01*
X148091572Y-88820898D01*
X148169593Y-89009256D01*
X148266310Y-89154003D01*
X148169597Y-89298744D01*
X148091576Y-89487102D01*
X148051802Y-89687061D01*
X148051802Y-89890939D01*
X148091576Y-90090898D01*
X148169597Y-90279256D01*
X148266312Y-90424000D01*
X148169597Y-90568744D01*
X148091576Y-90757102D01*
X148051802Y-90957061D01*
X148051802Y-91160939D01*
X148091576Y-91360898D01*
X148169597Y-91549256D01*
X148282865Y-91718774D01*
X148427028Y-91862937D01*
X148596546Y-91976205D01*
X148784904Y-92054226D01*
X148984863Y-92094000D01*
X149188741Y-92094000D01*
X149388700Y-92054226D01*
X149577058Y-91976205D01*
X149746576Y-91862937D01*
X149890739Y-91718774D01*
X150004007Y-91549256D01*
X150082028Y-91360898D01*
X150121802Y-91160939D01*
X150121802Y-91098801D01*
X151588675Y-89631929D01*
X151632515Y-89713947D01*
X151693832Y-89788661D01*
X151727489Y-89829672D01*
X151756487Y-89853470D01*
X153001818Y-91098802D01*
X153001818Y-91160939D01*
X153041592Y-91360898D01*
X153119613Y-91549256D01*
X153232881Y-91718774D01*
X153377044Y-91862937D01*
X153546562Y-91976205D01*
X153734920Y-92054226D01*
X153934879Y-92094000D01*
X154138757Y-92094000D01*
X154338716Y-92054226D01*
X154527074Y-91976205D01*
X154696592Y-91862937D01*
X154840755Y-91718774D01*
X154954023Y-91549256D01*
X155032044Y-91360898D01*
X155071818Y-91160939D01*
X155071818Y-90957061D01*
X155032044Y-90757102D01*
X154954023Y-90568744D01*
X154857306Y-90423997D01*
X154954019Y-90279256D01*
X155032040Y-90090898D01*
X155071814Y-89890939D01*
X155071814Y-89687061D01*
X155032040Y-89487102D01*
X154954019Y-89298744D01*
X154857297Y-89153989D01*
X154954003Y-89009258D01*
X155032024Y-88820900D01*
X155071798Y-88620941D01*
X155071798Y-88417063D01*
X155032024Y-88217104D01*
X154954003Y-88028746D01*
X154887360Y-87929007D01*
X154954005Y-87829266D01*
X155032026Y-87640908D01*
X155071800Y-87440949D01*
X155071800Y-87237071D01*
X155032026Y-87037112D01*
X154954005Y-86848754D01*
X154840737Y-86679236D01*
X154796800Y-86635299D01*
X154796800Y-80666710D01*
X154800476Y-80629387D01*
X154796800Y-80592064D01*
X154796800Y-80592055D01*
X154785803Y-80480402D01*
X154742346Y-80337141D01*
X154671774Y-80205112D01*
X154643549Y-80170720D01*
X154600599Y-80118384D01*
X154600595Y-80118380D01*
X154576801Y-80089387D01*
X154547807Y-80065593D01*
X153717658Y-79235446D01*
X153693856Y-79206443D01*
X153578131Y-79111470D01*
X153446102Y-79040898D01*
X153341837Y-79009270D01*
X153426475Y-78924632D01*
X153543000Y-78750240D01*
X153659525Y-78924632D01*
X153866368Y-79131475D01*
X154109589Y-79293990D01*
X154379842Y-79405932D01*
X154666740Y-79463000D01*
X154959260Y-79463000D01*
X155246158Y-79405932D01*
X155516411Y-79293990D01*
X155759632Y-79131475D01*
X155966475Y-78924632D01*
X156083000Y-78750240D01*
X156199525Y-78924632D01*
X156406368Y-79131475D01*
X156649589Y-79293990D01*
X156919842Y-79405932D01*
X157206740Y-79463000D01*
X157499260Y-79463000D01*
X157786158Y-79405932D01*
X158056411Y-79293990D01*
X158299632Y-79131475D01*
X158431487Y-78999620D01*
X158453498Y-79072180D01*
X158512463Y-79182494D01*
X158591815Y-79279185D01*
X158688506Y-79358537D01*
X158798820Y-79417502D01*
X158918518Y-79453812D01*
X159043000Y-79466072D01*
X160743000Y-79466072D01*
X160867482Y-79453812D01*
X160987180Y-79417502D01*
X161076990Y-79369497D01*
X161076990Y-79530618D01*
X160409019Y-80198590D01*
X160380021Y-80222388D01*
X160356223Y-80251386D01*
X160356222Y-80251387D01*
X160285047Y-80338113D01*
X160214475Y-80470143D01*
X160197343Y-80526623D01*
X160171019Y-80613403D01*
X160162864Y-80696197D01*
X160156345Y-80762389D01*
X160160022Y-80799721D01*
X160160021Y-90860183D01*
X158075287Y-92944918D01*
X158013067Y-92944918D01*
X157813108Y-92984692D01*
X157624750Y-93062713D01*
X157455232Y-93175981D01*
X157311069Y-93320144D01*
X157197801Y-93489662D01*
X157119780Y-93678020D01*
X157080006Y-93877979D01*
X157080006Y-93940198D01*
X156022205Y-94998000D01*
X146376626Y-94998000D01*
X146410220Y-94916898D01*
X146449994Y-94716939D01*
X146449994Y-94513061D01*
X146410220Y-94313102D01*
X146332199Y-94124744D01*
X146218931Y-93955226D01*
X146074768Y-93811063D01*
X145905250Y-93697795D01*
X145716892Y-93619774D01*
X145516933Y-93580000D01*
X145313055Y-93580000D01*
X145113096Y-93619774D01*
X144924738Y-93697795D01*
X144755220Y-93811063D01*
X144611057Y-93955226D01*
X144497789Y-94124744D01*
X144419768Y-94313102D01*
X144379994Y-94513061D01*
X144379994Y-94716939D01*
X144419768Y-94916898D01*
X144453362Y-94998000D01*
X132949996Y-94998000D01*
X132988000Y-94806940D01*
X132988000Y-94603062D01*
X132948226Y-94403103D01*
X132870205Y-94214745D01*
X132756937Y-94045227D01*
X132612774Y-93901064D01*
X132443256Y-93787796D01*
X132254898Y-93709775D01*
X132054939Y-93670001D01*
X131851061Y-93670001D01*
X131651102Y-93709775D01*
X131462744Y-93787796D01*
X131293226Y-93901064D01*
X131149063Y-94045227D01*
X131035795Y-94214745D01*
X130957774Y-94403103D01*
X130918000Y-94603062D01*
X130918000Y-94806940D01*
X130956004Y-94998000D01*
X121796132Y-94998000D01*
X119471271Y-92673141D01*
X119525226Y-92542884D01*
X119565000Y-92342925D01*
X119565000Y-92139047D01*
X119525226Y-91939088D01*
X119447205Y-91750730D01*
X119333937Y-91581212D01*
X119189774Y-91437049D01*
X119020256Y-91323781D01*
X118831898Y-91245760D01*
X118631939Y-91205986D01*
X118428061Y-91205986D01*
X118228102Y-91245760D01*
X118039744Y-91323781D01*
X117870226Y-91437049D01*
X117726063Y-91581212D01*
X117612795Y-91750730D01*
X117534774Y-91939088D01*
X117495000Y-92139047D01*
X117495000Y-92342925D01*
X117534774Y-92542884D01*
X117612795Y-92731242D01*
X117726063Y-92900760D01*
X117781014Y-92955711D01*
X117813472Y-93062713D01*
X117824454Y-93098917D01*
X117895026Y-93230947D01*
X117922144Y-93263990D01*
X117989999Y-93346672D01*
X118019003Y-93370475D01*
X120917534Y-96269008D01*
X120941328Y-96298001D01*
X120970321Y-96321795D01*
X120970325Y-96321799D01*
X121041014Y-96379811D01*
X121057053Y-96392974D01*
X121189082Y-96463546D01*
X121332343Y-96507003D01*
X121443996Y-96518000D01*
X121444005Y-96518000D01*
X121481328Y-96521676D01*
X121518651Y-96518000D01*
X131915667Y-96518000D01*
X131953000Y-96521677D01*
X131990333Y-96518000D01*
X145377667Y-96518000D01*
X145415000Y-96521677D01*
X145452333Y-96518000D01*
X156299684Y-96518000D01*
X156337006Y-96521676D01*
X156374328Y-96518000D01*
X156374339Y-96518000D01*
X156485992Y-96507003D01*
X156629253Y-96463546D01*
X156761282Y-96392974D01*
X156877007Y-96298001D01*
X156900810Y-96268997D01*
X158154890Y-95014918D01*
X158216945Y-95014918D01*
X158416904Y-94975144D01*
X158605262Y-94897123D01*
X158774780Y-94783855D01*
X158918943Y-94639692D01*
X159032211Y-94470174D01*
X159110232Y-94281816D01*
X159150006Y-94081857D01*
X159150006Y-94019801D01*
X160863232Y-92306575D01*
X160878068Y-92381158D01*
X160990010Y-92651411D01*
X161152525Y-92894632D01*
X161359368Y-93101475D01*
X161602589Y-93263990D01*
X161872842Y-93375932D01*
X162159740Y-93433000D01*
X162452260Y-93433000D01*
X162739158Y-93375932D01*
X163009411Y-93263990D01*
X163252632Y-93101475D01*
X163459475Y-92894632D01*
X163621990Y-92651411D01*
X163733932Y-92381158D01*
X163791000Y-92094260D01*
X163791000Y-91801740D01*
X163733932Y-91514842D01*
X163621990Y-91244589D01*
X163459475Y-91001368D01*
X163252632Y-90794525D01*
X163078240Y-90678000D01*
X163252632Y-90561475D01*
X163459475Y-90354632D01*
X163621990Y-90111411D01*
X163733932Y-89841158D01*
X163791000Y-89554260D01*
X163791000Y-89261740D01*
X163733932Y-88974842D01*
X163621990Y-88704589D01*
X163459475Y-88461368D01*
X163252632Y-88254525D01*
X163078240Y-88138000D01*
X163252632Y-88021475D01*
X163459475Y-87814632D01*
X163621990Y-87571411D01*
X163733932Y-87301158D01*
X163791000Y-87014260D01*
X163791000Y-86721740D01*
X163733932Y-86434842D01*
X163621990Y-86164589D01*
X163459475Y-85921368D01*
X163252632Y-85714525D01*
X163070466Y-85592805D01*
X163187355Y-85523178D01*
X163403588Y-85328269D01*
X163577641Y-85094920D01*
X163702825Y-84832099D01*
X163747476Y-84684890D01*
X163626155Y-84455000D01*
X162433000Y-84455000D01*
X162433000Y-84475000D01*
X162179000Y-84475000D01*
X162179000Y-84455000D01*
X162159000Y-84455000D01*
X162159000Y-84201000D01*
X162179000Y-84201000D01*
X162179000Y-84181000D01*
X162433000Y-84181000D01*
X162433000Y-84201000D01*
X163626155Y-84201000D01*
X163747476Y-83971110D01*
X163702825Y-83823901D01*
X163577641Y-83561080D01*
X163403588Y-83327731D01*
X163319534Y-83251966D01*
X163400180Y-83227502D01*
X163510494Y-83168537D01*
X163607185Y-83089185D01*
X163686537Y-82992494D01*
X163745502Y-82882180D01*
X163781812Y-82762482D01*
X163794072Y-82638000D01*
X163794072Y-80938000D01*
X163781812Y-80813518D01*
X163745502Y-80693820D01*
X163686537Y-80583506D01*
X163607185Y-80486815D01*
X163510494Y-80407463D01*
X163400180Y-80348498D01*
X163280482Y-80312188D01*
X163156000Y-80299928D01*
X162447154Y-80299928D01*
X162471964Y-80269697D01*
X162542536Y-80137667D01*
X162553454Y-80101673D01*
X162585993Y-79994406D01*
X162596990Y-79882753D01*
X162596990Y-79882743D01*
X162600666Y-79845420D01*
X162596990Y-79808098D01*
X162596990Y-77157713D01*
X162640927Y-77113776D01*
X162754195Y-76944258D01*
X162832216Y-76755900D01*
X162871990Y-76555941D01*
X162871990Y-76352063D01*
X162832216Y-76152104D01*
X162754195Y-75963746D01*
X162640927Y-75794228D01*
X162496764Y-75650065D01*
X162327246Y-75536797D01*
X162138888Y-75458776D01*
X161938929Y-75419002D01*
X161735051Y-75419002D01*
X161535092Y-75458776D01*
X161346734Y-75536797D01*
X161177216Y-75650065D01*
X161033053Y-75794228D01*
X160919785Y-75963746D01*
X160841764Y-76152104D01*
X160801990Y-76352063D01*
X160801990Y-76495738D01*
X160743000Y-76489928D01*
X159043000Y-76489928D01*
X158918518Y-76502188D01*
X158798820Y-76538498D01*
X158688506Y-76597463D01*
X158591815Y-76676815D01*
X158512463Y-76773506D01*
X158453498Y-76883820D01*
X158431487Y-76956380D01*
X158299632Y-76824525D01*
X158056411Y-76662010D01*
X157786158Y-76550068D01*
X157499260Y-76493000D01*
X157206740Y-76493000D01*
X156919842Y-76550068D01*
X156649589Y-76662010D01*
X156406368Y-76824525D01*
X156199525Y-77031368D01*
X156083000Y-77205760D01*
X155966475Y-77031368D01*
X155759632Y-76824525D01*
X155516411Y-76662010D01*
X155246158Y-76550068D01*
X154959260Y-76493000D01*
X154666740Y-76493000D01*
X154379842Y-76550068D01*
X154109589Y-76662010D01*
X153866368Y-76824525D01*
X153659525Y-77031368D01*
X153543000Y-77205760D01*
X153426475Y-77031368D01*
X153219632Y-76824525D01*
X152976411Y-76662010D01*
X152706158Y-76550068D01*
X152419260Y-76493000D01*
X152126740Y-76493000D01*
X151839842Y-76550068D01*
X151569589Y-76662010D01*
X151326368Y-76824525D01*
X151119525Y-77031368D01*
X151003000Y-77205760D01*
X150886475Y-77031368D01*
X150748954Y-76893847D01*
X152118451Y-75524351D01*
X152126740Y-75526000D01*
X152419260Y-75526000D01*
X152706158Y-75468932D01*
X152976411Y-75356990D01*
X153219632Y-75194475D01*
X153426475Y-74987632D01*
X153543000Y-74813240D01*
X153659525Y-74987632D01*
X153866368Y-75194475D01*
X154109589Y-75356990D01*
X154379842Y-75468932D01*
X154666740Y-75526000D01*
X154959260Y-75526000D01*
X155246158Y-75468932D01*
X155516411Y-75356990D01*
X155759632Y-75194475D01*
X155966475Y-74987632D01*
X156128990Y-74744411D01*
X156240932Y-74474158D01*
X156298000Y-74187260D01*
X156298000Y-73894740D01*
X156240932Y-73607842D01*
X156128990Y-73337589D01*
X155966475Y-73094368D01*
X155834620Y-72962513D01*
X155907180Y-72940502D01*
X156017494Y-72881537D01*
X156114185Y-72802185D01*
X156193537Y-72705494D01*
X156252502Y-72595180D01*
X156288812Y-72475482D01*
X156301072Y-72351000D01*
X156301072Y-70651000D01*
X156288812Y-70526518D01*
X156252502Y-70406820D01*
X156193537Y-70296506D01*
X156114185Y-70199815D01*
X156017494Y-70120463D01*
X155907180Y-70061498D01*
X155787482Y-70025188D01*
X155663000Y-70012928D01*
X153963000Y-70012928D01*
X153838518Y-70025188D01*
X153718820Y-70061498D01*
X153608506Y-70120463D01*
X153511815Y-70199815D01*
X153432463Y-70296506D01*
X153373498Y-70406820D01*
X153351487Y-70479380D01*
X153219632Y-70347525D01*
X152976411Y-70185010D01*
X152706158Y-70073068D01*
X152419260Y-70016000D01*
X152126740Y-70016000D01*
X151839842Y-70073068D01*
X151569589Y-70185010D01*
X151326368Y-70347525D01*
X151119525Y-70554368D01*
X151003000Y-70728760D01*
X150886475Y-70554368D01*
X150679632Y-70347525D01*
X150436411Y-70185010D01*
X150166158Y-70073068D01*
X149879260Y-70016000D01*
X149586740Y-70016000D01*
X149299842Y-70073068D01*
X149029589Y-70185010D01*
X148786368Y-70347525D01*
X148579525Y-70554368D01*
X148463000Y-70728760D01*
X148346475Y-70554368D01*
X148139632Y-70347525D01*
X147896411Y-70185010D01*
X147626158Y-70073068D01*
X147339260Y-70016000D01*
X147046740Y-70016000D01*
X146759842Y-70073068D01*
X146489589Y-70185010D01*
X146246368Y-70347525D01*
X146039525Y-70554368D01*
X145923000Y-70728760D01*
X145806475Y-70554368D01*
X145599632Y-70347525D01*
X145356411Y-70185010D01*
X145086158Y-70073068D01*
X144799260Y-70016000D01*
X144506740Y-70016000D01*
X144219842Y-70073068D01*
X143949589Y-70185010D01*
X143706368Y-70347525D01*
X143499525Y-70554368D01*
X143383000Y-70728760D01*
X143266475Y-70554368D01*
X143059632Y-70347525D01*
X142816411Y-70185010D01*
X142546158Y-70073068D01*
X142259260Y-70016000D01*
X141966740Y-70016000D01*
X141679842Y-70073068D01*
X141409589Y-70185010D01*
X141323055Y-70242830D01*
X141319501Y-70238499D01*
X141290503Y-70214701D01*
X139843304Y-68767503D01*
X139819501Y-68738499D01*
X139703776Y-68643526D01*
X139571747Y-68572954D01*
X139428486Y-68529497D01*
X139316833Y-68518500D01*
X139316822Y-68518500D01*
X139279500Y-68514824D01*
X139242178Y-68518500D01*
X116430001Y-68518500D01*
X116392678Y-68514824D01*
X116355355Y-68518500D01*
X116355345Y-68518500D01*
X116243692Y-68529497D01*
X116100431Y-68572954D01*
X115968401Y-68643526D01*
X115884761Y-68712168D01*
X115852677Y-68738499D01*
X115828879Y-68767497D01*
X115109392Y-69486984D01*
X115116211Y-69452703D01*
X115116211Y-69104297D01*
X115048240Y-68762586D01*
X114914911Y-68440701D01*
X114914109Y-68439500D01*
X162110316Y-68439500D01*
X162099665Y-68455441D01*
%TA.AperFunction,Conductor*%
D15*
G36*
X162099665Y-68455441D02*
G01*
X161968682Y-68771663D01*
X161901907Y-69107362D01*
X161901907Y-69449638D01*
X161968682Y-69785337D01*
X162099665Y-70101559D01*
X162289824Y-70386151D01*
X162531849Y-70628176D01*
X162816441Y-70818335D01*
X163132663Y-70949318D01*
X163468362Y-71016093D01*
X163810638Y-71016093D01*
X164146337Y-70949318D01*
X164462559Y-70818335D01*
X164478500Y-70807683D01*
X164478501Y-94127892D01*
X164477299Y-94127089D01*
X164155414Y-93993760D01*
X163813703Y-93925789D01*
X163465297Y-93925789D01*
X163123586Y-93993760D01*
X162801701Y-94127089D01*
X162512012Y-94320652D01*
X162265652Y-94567012D01*
X162072089Y-94856701D01*
X161938760Y-95178586D01*
X161870789Y-95520297D01*
X161870789Y-95868703D01*
X161938760Y-96210414D01*
X162072089Y-96532299D01*
X162072891Y-96533500D01*
X114876684Y-96533500D01*
X114887335Y-96517559D01*
X115018318Y-96201337D01*
X115085093Y-95865638D01*
X115085093Y-95523362D01*
X115018318Y-95187663D01*
X114887335Y-94871441D01*
X114697176Y-94586849D01*
X114455151Y-94344824D01*
X114170559Y-94154665D01*
X113854337Y-94023682D01*
X113518638Y-93956907D01*
X113176362Y-93956907D01*
X112840663Y-94023682D01*
X112524441Y-94154665D01*
X112508500Y-94165316D01*
X112508500Y-86848740D01*
X113069000Y-86848740D01*
X113069000Y-87141260D01*
X113126068Y-87428158D01*
X113238010Y-87698411D01*
X113400525Y-87941632D01*
X113607368Y-88148475D01*
X113781760Y-88265000D01*
X113607368Y-88381525D01*
X113400525Y-88588368D01*
X113238010Y-88831589D01*
X113126068Y-89101842D01*
X113069000Y-89388740D01*
X113069000Y-89681260D01*
X113126068Y-89968158D01*
X113238010Y-90238411D01*
X113400525Y-90481632D01*
X113607368Y-90688475D01*
X113781760Y-90805000D01*
X113607368Y-90921525D01*
X113400525Y-91128368D01*
X113238010Y-91371589D01*
X113126068Y-91641842D01*
X113069000Y-91928740D01*
X113069000Y-92221260D01*
X113126068Y-92508158D01*
X113238010Y-92778411D01*
X113400525Y-93021632D01*
X113607368Y-93228475D01*
X113850589Y-93390990D01*
X114120842Y-93502932D01*
X114407740Y-93560000D01*
X114700260Y-93560000D01*
X114987158Y-93502932D01*
X115257411Y-93390990D01*
X115500632Y-93228475D01*
X115707475Y-93021632D01*
X115869990Y-92778411D01*
X115981932Y-92508158D01*
X116039000Y-92221260D01*
X116039000Y-91928740D01*
X115981932Y-91641842D01*
X115869990Y-91371589D01*
X115707475Y-91128368D01*
X115500632Y-90921525D01*
X115326240Y-90805000D01*
X115500632Y-90688475D01*
X115707475Y-90481632D01*
X115869990Y-90238411D01*
X115981932Y-89968158D01*
X116039000Y-89681260D01*
X116039000Y-89388740D01*
X115981932Y-89101842D01*
X115869990Y-88831589D01*
X115707475Y-88588368D01*
X115500632Y-88381525D01*
X115326240Y-88265000D01*
X115500632Y-88148475D01*
X115707475Y-87941632D01*
X115869990Y-87698411D01*
X115981932Y-87428158D01*
X116039000Y-87141260D01*
X116039000Y-86848740D01*
X115981932Y-86561842D01*
X115869990Y-86291589D01*
X115707475Y-86048368D01*
X115500632Y-85841525D01*
X115318466Y-85719805D01*
X115435355Y-85650178D01*
X115651588Y-85455269D01*
X115825641Y-85221920D01*
X115950825Y-84959099D01*
X115995476Y-84811890D01*
X115874155Y-84582000D01*
X114681000Y-84582000D01*
X114681000Y-84602000D01*
X114427000Y-84602000D01*
X114427000Y-84582000D01*
X113233845Y-84582000D01*
X113112524Y-84811890D01*
X113157175Y-84959099D01*
X113282359Y-85221920D01*
X113456412Y-85455269D01*
X113672645Y-85650178D01*
X113789534Y-85719805D01*
X113607368Y-85841525D01*
X113400525Y-86048368D01*
X113238010Y-86291589D01*
X113126068Y-86561842D01*
X113069000Y-86848740D01*
X112508500Y-86848740D01*
X112508500Y-70845109D01*
X112509701Y-70845911D01*
X112831586Y-70979240D01*
X113173297Y-71047211D01*
X113521703Y-71047211D01*
X113555985Y-71040392D01*
X113306978Y-71289399D01*
X113277974Y-71313202D01*
X113243885Y-71354740D01*
X113183001Y-71428927D01*
X113153540Y-71484045D01*
X113112429Y-71560957D01*
X113068972Y-71704218D01*
X113057975Y-71815871D01*
X113057975Y-71815881D01*
X113054299Y-71853203D01*
X113057975Y-71890526D01*
X113057976Y-78347643D01*
X113054299Y-78384975D01*
X113068973Y-78533960D01*
X113112429Y-78677221D01*
X113183001Y-78809251D01*
X113225269Y-78860754D01*
X113277975Y-78924976D01*
X113306973Y-78948774D01*
X114785127Y-80426928D01*
X113704000Y-80426928D01*
X113579518Y-80439188D01*
X113459820Y-80475498D01*
X113349506Y-80534463D01*
X113252815Y-80613815D01*
X113173463Y-80710506D01*
X113114498Y-80820820D01*
X113078188Y-80940518D01*
X113065928Y-81065000D01*
X113065928Y-82765000D01*
X113078188Y-82889482D01*
X113114498Y-83009180D01*
X113173463Y-83119494D01*
X113252815Y-83216185D01*
X113349506Y-83295537D01*
X113459820Y-83354502D01*
X113540466Y-83378966D01*
X113456412Y-83454731D01*
X113282359Y-83688080D01*
X113157175Y-83950901D01*
X113112524Y-84098110D01*
X113233845Y-84328000D01*
X114427000Y-84328000D01*
X114427000Y-84308000D01*
X114681000Y-84308000D01*
X114681000Y-84328000D01*
X115874155Y-84328000D01*
X115995476Y-84098110D01*
X115950825Y-83950901D01*
X115825641Y-83688080D01*
X115651588Y-83454731D01*
X115567534Y-83378966D01*
X115648180Y-83354502D01*
X115758494Y-83295537D01*
X115855185Y-83216185D01*
X115934537Y-83119494D01*
X115993502Y-83009180D01*
X116029812Y-82889482D01*
X116042072Y-82765000D01*
X116042072Y-81683874D01*
X117921500Y-83563302D01*
X117921501Y-85878166D01*
X117917824Y-85915498D01*
X117921501Y-85952831D01*
X117932498Y-86064484D01*
X117943273Y-86100004D01*
X117975954Y-86207744D01*
X118046526Y-86339774D01*
X118113848Y-86421805D01*
X118141500Y-86455499D01*
X118170498Y-86479297D01*
X122917002Y-91225803D01*
X122917002Y-91287939D01*
X122956776Y-91487898D01*
X123034797Y-91676256D01*
X123148065Y-91845774D01*
X123292228Y-91989937D01*
X123461746Y-92103205D01*
X123650104Y-92181226D01*
X123850063Y-92221000D01*
X124053941Y-92221000D01*
X124253900Y-92181226D01*
X124442258Y-92103205D01*
X124611776Y-91989937D01*
X124755939Y-91845774D01*
X124869207Y-91676256D01*
X124947228Y-91487898D01*
X124987002Y-91287939D01*
X124987002Y-91084061D01*
X124947228Y-90884102D01*
X124869207Y-90695744D01*
X124755939Y-90526226D01*
X124699653Y-90469940D01*
X124742205Y-90406256D01*
X124820226Y-90217898D01*
X124860000Y-90017939D01*
X124860000Y-89814061D01*
X124820226Y-89614102D01*
X124742205Y-89425744D01*
X124645488Y-89280997D01*
X124742201Y-89136256D01*
X124820222Y-88947898D01*
X124859996Y-88747939D01*
X124859996Y-88544061D01*
X124820222Y-88344102D01*
X124742201Y-88155744D01*
X124677382Y-88058736D01*
X124678705Y-88056756D01*
X124756726Y-87868398D01*
X124796500Y-87668439D01*
X124796500Y-87464561D01*
X124756726Y-87264602D01*
X124678705Y-87076244D01*
X124565437Y-86906726D01*
X124521500Y-86862789D01*
X124521500Y-86440964D01*
X124525176Y-86403641D01*
X124521500Y-86366318D01*
X124521500Y-86366308D01*
X124510503Y-86254655D01*
X124467046Y-86111394D01*
X124453114Y-86085330D01*
X124396474Y-85979364D01*
X124325299Y-85892638D01*
X124301501Y-85863640D01*
X124272504Y-85839843D01*
X118759533Y-80326873D01*
X118759533Y-79380951D01*
X118819842Y-79405932D01*
X119106740Y-79463000D01*
X119399260Y-79463000D01*
X119686158Y-79405932D01*
X119719373Y-79392174D01*
X121546700Y-81219502D01*
X121570499Y-81248501D01*
X121599497Y-81272299D01*
X121686223Y-81343474D01*
X121783498Y-81395469D01*
X121818253Y-81414046D01*
X121961514Y-81457503D01*
X122073167Y-81468500D01*
X122073176Y-81468500D01*
X122110499Y-81472176D01*
X122147822Y-81468500D01*
X124250496Y-81468500D01*
X124250496Y-81572439D01*
X124290270Y-81772398D01*
X124368291Y-81960756D01*
X124481559Y-82130274D01*
X124625722Y-82274437D01*
X124795240Y-82387705D01*
X124983598Y-82465726D01*
X125183557Y-82505500D01*
X125245694Y-82505500D01*
X125287500Y-82547306D01*
X125287501Y-86862800D01*
X125243563Y-86906738D01*
X125130295Y-87076256D01*
X125052274Y-87264614D01*
X125012500Y-87464573D01*
X125012500Y-87668451D01*
X125052274Y-87868410D01*
X125130295Y-88056768D01*
X125195111Y-88153772D01*
X125193793Y-88155744D01*
X125115772Y-88344102D01*
X125075998Y-88544061D01*
X125075998Y-88747939D01*
X125115772Y-88947898D01*
X125193793Y-89136256D01*
X125290514Y-89281009D01*
X125193805Y-89425744D01*
X125115784Y-89614102D01*
X125076010Y-89814061D01*
X125076010Y-90017939D01*
X125115784Y-90217898D01*
X125193805Y-90406256D01*
X125242589Y-90479266D01*
X125157024Y-90607323D01*
X125079003Y-90795681D01*
X125039229Y-90995640D01*
X125039229Y-91199518D01*
X125079003Y-91399477D01*
X125157024Y-91587835D01*
X125270292Y-91757353D01*
X125414455Y-91901516D01*
X125583973Y-92014784D01*
X125772331Y-92092805D01*
X125972290Y-92132579D01*
X126176168Y-92132579D01*
X126376127Y-92092805D01*
X126564485Y-92014784D01*
X126734003Y-91901516D01*
X126878166Y-91757353D01*
X126991434Y-91587835D01*
X127069455Y-91399477D01*
X127109229Y-91199518D01*
X127109229Y-91137380D01*
X129098504Y-89148106D01*
X129127501Y-89124309D01*
X129180394Y-89059859D01*
X129222474Y-89008585D01*
X129293046Y-88876555D01*
X129298895Y-88857274D01*
X129336503Y-88733294D01*
X129347500Y-88621641D01*
X129347500Y-88621631D01*
X129351176Y-88584308D01*
X129347500Y-88546985D01*
X129347500Y-82137221D01*
X129391437Y-82093284D01*
X129504705Y-81923766D01*
X129582726Y-81735408D01*
X129622500Y-81535449D01*
X129622500Y-81468500D01*
X131870498Y-81468500D01*
X131870498Y-81572439D01*
X131910272Y-81772398D01*
X131988293Y-81960756D01*
X132101561Y-82130274D01*
X132245724Y-82274437D01*
X132415242Y-82387705D01*
X132603600Y-82465726D01*
X132803559Y-82505500D01*
X132865697Y-82505500D01*
X136546534Y-86186339D01*
X136546533Y-86608789D01*
X136502596Y-86652726D01*
X136389328Y-86822244D01*
X136311307Y-87010602D01*
X136271533Y-87210561D01*
X136271533Y-87414439D01*
X136311307Y-87614398D01*
X136389328Y-87802756D01*
X136502596Y-87972274D01*
X136591802Y-88061480D01*
X136560295Y-88108633D01*
X136482274Y-88296991D01*
X136442500Y-88496950D01*
X136442500Y-88700828D01*
X136482274Y-88900787D01*
X136560295Y-89089145D01*
X136651534Y-89225695D01*
X136560295Y-89362244D01*
X136482274Y-89550602D01*
X136442500Y-89750561D01*
X136442500Y-89954439D01*
X136482274Y-90154398D01*
X136560295Y-90342756D01*
X136653718Y-90482573D01*
X136635465Y-90500826D01*
X136522197Y-90670344D01*
X136444176Y-90858702D01*
X136404402Y-91058661D01*
X136404402Y-91262539D01*
X136444176Y-91462498D01*
X136522197Y-91650856D01*
X136635465Y-91820374D01*
X136779628Y-91964537D01*
X136949146Y-92077805D01*
X137137504Y-92155826D01*
X137337463Y-92195600D01*
X137541341Y-92195600D01*
X137741300Y-92155826D01*
X137929658Y-92077805D01*
X138099176Y-91964537D01*
X138243339Y-91820374D01*
X138356607Y-91650856D01*
X138434628Y-91462498D01*
X138474402Y-91262539D01*
X138474402Y-91200401D01*
X139223001Y-90451803D01*
X139971591Y-91200393D01*
X139971591Y-91262530D01*
X140011365Y-91462489D01*
X140089386Y-91650847D01*
X140202654Y-91820365D01*
X140346817Y-91964528D01*
X140516335Y-92077796D01*
X140704693Y-92155817D01*
X140904652Y-92195591D01*
X141108530Y-92195591D01*
X141308489Y-92155817D01*
X141496847Y-92077796D01*
X141666365Y-91964528D01*
X141810528Y-91820365D01*
X141923796Y-91650847D01*
X142001817Y-91462489D01*
X142041591Y-91262530D01*
X142041591Y-91058652D01*
X142001817Y-90858693D01*
X141923796Y-90670335D01*
X141827075Y-90525581D01*
X141923777Y-90380856D01*
X142001798Y-90192498D01*
X142041572Y-89992539D01*
X142041572Y-89788661D01*
X142001798Y-89588702D01*
X141923777Y-89400344D01*
X141827080Y-89255627D01*
X141923805Y-89110868D01*
X142001826Y-88922510D01*
X142041600Y-88722551D01*
X142041600Y-88518673D01*
X142001826Y-88318714D01*
X141923805Y-88130356D01*
X141853823Y-88025620D01*
X141923805Y-87920884D01*
X142001826Y-87732526D01*
X142041600Y-87532567D01*
X142041600Y-87328689D01*
X142001826Y-87128730D01*
X141923805Y-86940372D01*
X141810537Y-86770854D01*
X141666374Y-86626691D01*
X141539500Y-86541917D01*
X141539500Y-80491833D01*
X141543177Y-80454500D01*
X141542230Y-80444888D01*
X141808844Y-80711502D01*
X141832643Y-80740501D01*
X141948368Y-80835474D01*
X142080397Y-80906046D01*
X142223658Y-80949503D01*
X142335311Y-80960500D01*
X142335319Y-80960500D01*
X142372644Y-80964176D01*
X142409969Y-80960500D01*
X147699789Y-80960500D01*
X147659063Y-81001226D01*
X147545795Y-81170744D01*
X147467774Y-81359102D01*
X147428000Y-81559061D01*
X147428000Y-81762939D01*
X147467774Y-81962898D01*
X147545795Y-82151256D01*
X147659063Y-82320774D01*
X147703000Y-82364711D01*
X147703001Y-86587872D01*
X147699324Y-86625204D01*
X147703001Y-86662537D01*
X147713670Y-86770854D01*
X147713998Y-86774189D01*
X147757454Y-86917450D01*
X147828026Y-87049480D01*
X147869499Y-87100014D01*
X147923000Y-87165205D01*
X147951998Y-87189003D01*
X148051796Y-87288801D01*
X148051796Y-87350939D01*
X148091570Y-87550898D01*
X148169591Y-87739256D01*
X148266307Y-87884001D01*
X148169593Y-88028744D01*
X148091572Y-88217102D01*
X148051798Y-88417061D01*
X148051798Y-88620939D01*
X148091572Y-88820898D01*
X148169593Y-89009256D01*
X148266310Y-89154003D01*
X148169597Y-89298744D01*
X148091576Y-89487102D01*
X148051802Y-89687061D01*
X148051802Y-89890939D01*
X148091576Y-90090898D01*
X148169597Y-90279256D01*
X148266312Y-90424000D01*
X148169597Y-90568744D01*
X148091576Y-90757102D01*
X148051802Y-90957061D01*
X148051802Y-91160939D01*
X148091576Y-91360898D01*
X148169597Y-91549256D01*
X148282865Y-91718774D01*
X148427028Y-91862937D01*
X148596546Y-91976205D01*
X148784904Y-92054226D01*
X148984863Y-92094000D01*
X149188741Y-92094000D01*
X149388700Y-92054226D01*
X149577058Y-91976205D01*
X149746576Y-91862937D01*
X149890739Y-91718774D01*
X150004007Y-91549256D01*
X150082028Y-91360898D01*
X150121802Y-91160939D01*
X150121802Y-91098801D01*
X151588675Y-89631929D01*
X151632515Y-89713947D01*
X151693832Y-89788661D01*
X151727489Y-89829672D01*
X151756487Y-89853470D01*
X153001818Y-91098802D01*
X153001818Y-91160939D01*
X153041592Y-91360898D01*
X153119613Y-91549256D01*
X153232881Y-91718774D01*
X153377044Y-91862937D01*
X153546562Y-91976205D01*
X153734920Y-92054226D01*
X153934879Y-92094000D01*
X154138757Y-92094000D01*
X154338716Y-92054226D01*
X154527074Y-91976205D01*
X154696592Y-91862937D01*
X154840755Y-91718774D01*
X154954023Y-91549256D01*
X155032044Y-91360898D01*
X155071818Y-91160939D01*
X155071818Y-90957061D01*
X155032044Y-90757102D01*
X154954023Y-90568744D01*
X154857306Y-90423997D01*
X154954019Y-90279256D01*
X155032040Y-90090898D01*
X155071814Y-89890939D01*
X155071814Y-89687061D01*
X155032040Y-89487102D01*
X154954019Y-89298744D01*
X154857297Y-89153989D01*
X154954003Y-89009258D01*
X155032024Y-88820900D01*
X155071798Y-88620941D01*
X155071798Y-88417063D01*
X155032024Y-88217104D01*
X154954003Y-88028746D01*
X154887360Y-87929007D01*
X154954005Y-87829266D01*
X155032026Y-87640908D01*
X155071800Y-87440949D01*
X155071800Y-87237071D01*
X155032026Y-87037112D01*
X154954005Y-86848754D01*
X154840737Y-86679236D01*
X154796800Y-86635299D01*
X154796800Y-80666710D01*
X154800476Y-80629387D01*
X154796800Y-80592064D01*
X154796800Y-80592055D01*
X154785803Y-80480402D01*
X154742346Y-80337141D01*
X154671774Y-80205112D01*
X154643549Y-80170720D01*
X154600599Y-80118384D01*
X154600595Y-80118380D01*
X154576801Y-80089387D01*
X154547807Y-80065593D01*
X153717658Y-79235446D01*
X153693856Y-79206443D01*
X153578131Y-79111470D01*
X153446102Y-79040898D01*
X153341837Y-79009270D01*
X153426475Y-78924632D01*
X153543000Y-78750240D01*
X153659525Y-78924632D01*
X153866368Y-79131475D01*
X154109589Y-79293990D01*
X154379842Y-79405932D01*
X154666740Y-79463000D01*
X154959260Y-79463000D01*
X155246158Y-79405932D01*
X155516411Y-79293990D01*
X155759632Y-79131475D01*
X155966475Y-78924632D01*
X156083000Y-78750240D01*
X156199525Y-78924632D01*
X156406368Y-79131475D01*
X156649589Y-79293990D01*
X156919842Y-79405932D01*
X157206740Y-79463000D01*
X157499260Y-79463000D01*
X157786158Y-79405932D01*
X158056411Y-79293990D01*
X158299632Y-79131475D01*
X158431487Y-78999620D01*
X158453498Y-79072180D01*
X158512463Y-79182494D01*
X158591815Y-79279185D01*
X158688506Y-79358537D01*
X158798820Y-79417502D01*
X158918518Y-79453812D01*
X159043000Y-79466072D01*
X160743000Y-79466072D01*
X160867482Y-79453812D01*
X160987180Y-79417502D01*
X161076990Y-79369497D01*
X161076990Y-79530618D01*
X160409019Y-80198590D01*
X160380021Y-80222388D01*
X160356223Y-80251386D01*
X160356222Y-80251387D01*
X160285047Y-80338113D01*
X160214475Y-80470143D01*
X160197343Y-80526623D01*
X160171019Y-80613403D01*
X160162864Y-80696197D01*
X160156345Y-80762389D01*
X160160022Y-80799721D01*
X160160021Y-90860183D01*
X158075287Y-92944918D01*
X158013067Y-92944918D01*
X157813108Y-92984692D01*
X157624750Y-93062713D01*
X157455232Y-93175981D01*
X157311069Y-93320144D01*
X157197801Y-93489662D01*
X157119780Y-93678020D01*
X157080006Y-93877979D01*
X157080006Y-93940198D01*
X156022205Y-94998000D01*
X146376626Y-94998000D01*
X146410220Y-94916898D01*
X146449994Y-94716939D01*
X146449994Y-94513061D01*
X146410220Y-94313102D01*
X146332199Y-94124744D01*
X146218931Y-93955226D01*
X146074768Y-93811063D01*
X145905250Y-93697795D01*
X145716892Y-93619774D01*
X145516933Y-93580000D01*
X145313055Y-93580000D01*
X145113096Y-93619774D01*
X144924738Y-93697795D01*
X144755220Y-93811063D01*
X144611057Y-93955226D01*
X144497789Y-94124744D01*
X144419768Y-94313102D01*
X144379994Y-94513061D01*
X144379994Y-94716939D01*
X144419768Y-94916898D01*
X144453362Y-94998000D01*
X132949996Y-94998000D01*
X132988000Y-94806940D01*
X132988000Y-94603062D01*
X132948226Y-94403103D01*
X132870205Y-94214745D01*
X132756937Y-94045227D01*
X132612774Y-93901064D01*
X132443256Y-93787796D01*
X132254898Y-93709775D01*
X132054939Y-93670001D01*
X131851061Y-93670001D01*
X131651102Y-93709775D01*
X131462744Y-93787796D01*
X131293226Y-93901064D01*
X131149063Y-94045227D01*
X131035795Y-94214745D01*
X130957774Y-94403103D01*
X130918000Y-94603062D01*
X130918000Y-94806940D01*
X130956004Y-94998000D01*
X121796132Y-94998000D01*
X119471271Y-92673141D01*
X119525226Y-92542884D01*
X119565000Y-92342925D01*
X119565000Y-92139047D01*
X119525226Y-91939088D01*
X119447205Y-91750730D01*
X119333937Y-91581212D01*
X119189774Y-91437049D01*
X119020256Y-91323781D01*
X118831898Y-91245760D01*
X118631939Y-91205986D01*
X118428061Y-91205986D01*
X118228102Y-91245760D01*
X118039744Y-91323781D01*
X117870226Y-91437049D01*
X117726063Y-91581212D01*
X117612795Y-91750730D01*
X117534774Y-91939088D01*
X117495000Y-92139047D01*
X117495000Y-92342925D01*
X117534774Y-92542884D01*
X117612795Y-92731242D01*
X117726063Y-92900760D01*
X117781014Y-92955711D01*
X117813472Y-93062713D01*
X117824454Y-93098917D01*
X117895026Y-93230947D01*
X117922144Y-93263990D01*
X117989999Y-93346672D01*
X118019003Y-93370475D01*
X120917534Y-96269008D01*
X120941328Y-96298001D01*
X120970321Y-96321795D01*
X120970325Y-96321799D01*
X121041014Y-96379811D01*
X121057053Y-96392974D01*
X121189082Y-96463546D01*
X121332343Y-96507003D01*
X121443996Y-96518000D01*
X121444005Y-96518000D01*
X121481328Y-96521676D01*
X121518651Y-96518000D01*
X131915667Y-96518000D01*
X131953000Y-96521677D01*
X131990333Y-96518000D01*
X145377667Y-96518000D01*
X145415000Y-96521677D01*
X145452333Y-96518000D01*
X156299684Y-96518000D01*
X156337006Y-96521676D01*
X156374328Y-96518000D01*
X156374339Y-96518000D01*
X156485992Y-96507003D01*
X156629253Y-96463546D01*
X156761282Y-96392974D01*
X156877007Y-96298001D01*
X156900810Y-96268997D01*
X158154890Y-95014918D01*
X158216945Y-95014918D01*
X158416904Y-94975144D01*
X158605262Y-94897123D01*
X158774780Y-94783855D01*
X158918943Y-94639692D01*
X159032211Y-94470174D01*
X159110232Y-94281816D01*
X159150006Y-94081857D01*
X159150006Y-94019801D01*
X160863232Y-92306575D01*
X160878068Y-92381158D01*
X160990010Y-92651411D01*
X161152525Y-92894632D01*
X161359368Y-93101475D01*
X161602589Y-93263990D01*
X161872842Y-93375932D01*
X162159740Y-93433000D01*
X162452260Y-93433000D01*
X162739158Y-93375932D01*
X163009411Y-93263990D01*
X163252632Y-93101475D01*
X163459475Y-92894632D01*
X163621990Y-92651411D01*
X163733932Y-92381158D01*
X163791000Y-92094260D01*
X163791000Y-91801740D01*
X163733932Y-91514842D01*
X163621990Y-91244589D01*
X163459475Y-91001368D01*
X163252632Y-90794525D01*
X163078240Y-90678000D01*
X163252632Y-90561475D01*
X163459475Y-90354632D01*
X163621990Y-90111411D01*
X163733932Y-89841158D01*
X163791000Y-89554260D01*
X163791000Y-89261740D01*
X163733932Y-88974842D01*
X163621990Y-88704589D01*
X163459475Y-88461368D01*
X163252632Y-88254525D01*
X163078240Y-88138000D01*
X163252632Y-88021475D01*
X163459475Y-87814632D01*
X163621990Y-87571411D01*
X163733932Y-87301158D01*
X163791000Y-87014260D01*
X163791000Y-86721740D01*
X163733932Y-86434842D01*
X163621990Y-86164589D01*
X163459475Y-85921368D01*
X163252632Y-85714525D01*
X163070466Y-85592805D01*
X163187355Y-85523178D01*
X163403588Y-85328269D01*
X163577641Y-85094920D01*
X163702825Y-84832099D01*
X163747476Y-84684890D01*
X163626155Y-84455000D01*
X162433000Y-84455000D01*
X162433000Y-84475000D01*
X162179000Y-84475000D01*
X162179000Y-84455000D01*
X162159000Y-84455000D01*
X162159000Y-84201000D01*
X162179000Y-84201000D01*
X162179000Y-84181000D01*
X162433000Y-84181000D01*
X162433000Y-84201000D01*
X163626155Y-84201000D01*
X163747476Y-83971110D01*
X163702825Y-83823901D01*
X163577641Y-83561080D01*
X163403588Y-83327731D01*
X163319534Y-83251966D01*
X163400180Y-83227502D01*
X163510494Y-83168537D01*
X163607185Y-83089185D01*
X163686537Y-82992494D01*
X163745502Y-82882180D01*
X163781812Y-82762482D01*
X163794072Y-82638000D01*
X163794072Y-80938000D01*
X163781812Y-80813518D01*
X163745502Y-80693820D01*
X163686537Y-80583506D01*
X163607185Y-80486815D01*
X163510494Y-80407463D01*
X163400180Y-80348498D01*
X163280482Y-80312188D01*
X163156000Y-80299928D01*
X162447154Y-80299928D01*
X162471964Y-80269697D01*
X162542536Y-80137667D01*
X162553454Y-80101673D01*
X162585993Y-79994406D01*
X162596990Y-79882753D01*
X162596990Y-79882743D01*
X162600666Y-79845420D01*
X162596990Y-79808098D01*
X162596990Y-77157713D01*
X162640927Y-77113776D01*
X162754195Y-76944258D01*
X162832216Y-76755900D01*
X162871990Y-76555941D01*
X162871990Y-76352063D01*
X162832216Y-76152104D01*
X162754195Y-75963746D01*
X162640927Y-75794228D01*
X162496764Y-75650065D01*
X162327246Y-75536797D01*
X162138888Y-75458776D01*
X161938929Y-75419002D01*
X161735051Y-75419002D01*
X161535092Y-75458776D01*
X161346734Y-75536797D01*
X161177216Y-75650065D01*
X161033053Y-75794228D01*
X160919785Y-75963746D01*
X160841764Y-76152104D01*
X160801990Y-76352063D01*
X160801990Y-76495738D01*
X160743000Y-76489928D01*
X159043000Y-76489928D01*
X158918518Y-76502188D01*
X158798820Y-76538498D01*
X158688506Y-76597463D01*
X158591815Y-76676815D01*
X158512463Y-76773506D01*
X158453498Y-76883820D01*
X158431487Y-76956380D01*
X158299632Y-76824525D01*
X158056411Y-76662010D01*
X157786158Y-76550068D01*
X157499260Y-76493000D01*
X157206740Y-76493000D01*
X156919842Y-76550068D01*
X156649589Y-76662010D01*
X156406368Y-76824525D01*
X156199525Y-77031368D01*
X156083000Y-77205760D01*
X155966475Y-77031368D01*
X155759632Y-76824525D01*
X155516411Y-76662010D01*
X155246158Y-76550068D01*
X154959260Y-76493000D01*
X154666740Y-76493000D01*
X154379842Y-76550068D01*
X154109589Y-76662010D01*
X153866368Y-76824525D01*
X153659525Y-77031368D01*
X153543000Y-77205760D01*
X153426475Y-77031368D01*
X153219632Y-76824525D01*
X152976411Y-76662010D01*
X152706158Y-76550068D01*
X152419260Y-76493000D01*
X152126740Y-76493000D01*
X151839842Y-76550068D01*
X151569589Y-76662010D01*
X151326368Y-76824525D01*
X151119525Y-77031368D01*
X151003000Y-77205760D01*
X150886475Y-77031368D01*
X150748954Y-76893847D01*
X152118451Y-75524351D01*
X152126740Y-75526000D01*
X152419260Y-75526000D01*
X152706158Y-75468932D01*
X152976411Y-75356990D01*
X153219632Y-75194475D01*
X153426475Y-74987632D01*
X153543000Y-74813240D01*
X153659525Y-74987632D01*
X153866368Y-75194475D01*
X154109589Y-75356990D01*
X154379842Y-75468932D01*
X154666740Y-75526000D01*
X154959260Y-75526000D01*
X155246158Y-75468932D01*
X155516411Y-75356990D01*
X155759632Y-75194475D01*
X155966475Y-74987632D01*
X156128990Y-74744411D01*
X156240932Y-74474158D01*
X156298000Y-74187260D01*
X156298000Y-73894740D01*
X156240932Y-73607842D01*
X156128990Y-73337589D01*
X155966475Y-73094368D01*
X155834620Y-72962513D01*
X155907180Y-72940502D01*
X156017494Y-72881537D01*
X156114185Y-72802185D01*
X156193537Y-72705494D01*
X156252502Y-72595180D01*
X156288812Y-72475482D01*
X156301072Y-72351000D01*
X156301072Y-70651000D01*
X156288812Y-70526518D01*
X156252502Y-70406820D01*
X156193537Y-70296506D01*
X156114185Y-70199815D01*
X156017494Y-70120463D01*
X155907180Y-70061498D01*
X155787482Y-70025188D01*
X155663000Y-70012928D01*
X153963000Y-70012928D01*
X153838518Y-70025188D01*
X153718820Y-70061498D01*
X153608506Y-70120463D01*
X153511815Y-70199815D01*
X153432463Y-70296506D01*
X153373498Y-70406820D01*
X153351487Y-70479380D01*
X153219632Y-70347525D01*
X152976411Y-70185010D01*
X152706158Y-70073068D01*
X152419260Y-70016000D01*
X152126740Y-70016000D01*
X151839842Y-70073068D01*
X151569589Y-70185010D01*
X151326368Y-70347525D01*
X151119525Y-70554368D01*
X151003000Y-70728760D01*
X150886475Y-70554368D01*
X150679632Y-70347525D01*
X150436411Y-70185010D01*
X150166158Y-70073068D01*
X149879260Y-70016000D01*
X149586740Y-70016000D01*
X149299842Y-70073068D01*
X149029589Y-70185010D01*
X148786368Y-70347525D01*
X148579525Y-70554368D01*
X148463000Y-70728760D01*
X148346475Y-70554368D01*
X148139632Y-70347525D01*
X147896411Y-70185010D01*
X147626158Y-70073068D01*
X147339260Y-70016000D01*
X147046740Y-70016000D01*
X146759842Y-70073068D01*
X146489589Y-70185010D01*
X146246368Y-70347525D01*
X146039525Y-70554368D01*
X145923000Y-70728760D01*
X145806475Y-70554368D01*
X145599632Y-70347525D01*
X145356411Y-70185010D01*
X145086158Y-70073068D01*
X144799260Y-70016000D01*
X144506740Y-70016000D01*
X144219842Y-70073068D01*
X143949589Y-70185010D01*
X143706368Y-70347525D01*
X143499525Y-70554368D01*
X143383000Y-70728760D01*
X143266475Y-70554368D01*
X143059632Y-70347525D01*
X142816411Y-70185010D01*
X142546158Y-70073068D01*
X142259260Y-70016000D01*
X141966740Y-70016000D01*
X141679842Y-70073068D01*
X141409589Y-70185010D01*
X141323055Y-70242830D01*
X141319501Y-70238499D01*
X141290503Y-70214701D01*
X139843304Y-68767503D01*
X139819501Y-68738499D01*
X139703776Y-68643526D01*
X139571747Y-68572954D01*
X139428486Y-68529497D01*
X139316833Y-68518500D01*
X139316822Y-68518500D01*
X139279500Y-68514824D01*
X139242178Y-68518500D01*
X116430001Y-68518500D01*
X116392678Y-68514824D01*
X116355355Y-68518500D01*
X116355345Y-68518500D01*
X116243692Y-68529497D01*
X116100431Y-68572954D01*
X115968401Y-68643526D01*
X115884761Y-68712168D01*
X115852677Y-68738499D01*
X115828879Y-68767497D01*
X115109392Y-69486984D01*
X115116211Y-69452703D01*
X115116211Y-69104297D01*
X115048240Y-68762586D01*
X114914911Y-68440701D01*
X114914109Y-68439500D01*
X162110316Y-68439500D01*
X162099665Y-68455441D01*
G37*
%TD.AperFunction*%
D14*
X118903499Y-72294499D02*
X118879701Y-72323497D01*
X117488536Y-73714663D01*
X117459532Y-73738466D01*
X117404404Y-73805641D01*
X117364559Y-73854191D01*
X117344342Y-73892014D01*
X117293987Y-73986221D01*
X117250530Y-74129482D01*
X117239533Y-74241135D01*
X117239533Y-74241145D01*
X117235857Y-74278467D01*
X117239533Y-74315790D01*
X117239533Y-76588745D01*
X117146158Y-76550068D01*
X116859260Y-76493000D01*
X116566740Y-76493000D01*
X116279842Y-76550068D01*
X116009589Y-76662010D01*
X115766368Y-76824525D01*
X115559525Y-77031368D01*
X115477988Y-77153397D01*
X115477988Y-74256349D01*
X115544939Y-74256349D01*
X115744898Y-74216575D01*
X115933256Y-74138554D01*
X116102774Y-74025286D01*
X116246937Y-73881123D01*
X116360205Y-73711605D01*
X116438226Y-73523247D01*
X116478000Y-73323288D01*
X116478000Y-73261150D01*
X117478151Y-72261000D01*
X118944318Y-72261000D01*
X118903499Y-72294499D01*
%TA.AperFunction,Conductor*%
D15*
G36*
X118903499Y-72294499D02*
G01*
X118879701Y-72323497D01*
X117488536Y-73714663D01*
X117459532Y-73738466D01*
X117404404Y-73805641D01*
X117364559Y-73854191D01*
X117344342Y-73892014D01*
X117293987Y-73986221D01*
X117250530Y-74129482D01*
X117239533Y-74241135D01*
X117239533Y-74241145D01*
X117235857Y-74278467D01*
X117239533Y-74315790D01*
X117239533Y-76588745D01*
X117146158Y-76550068D01*
X116859260Y-76493000D01*
X116566740Y-76493000D01*
X116279842Y-76550068D01*
X116009589Y-76662010D01*
X115766368Y-76824525D01*
X115559525Y-77031368D01*
X115477988Y-77153397D01*
X115477988Y-74256349D01*
X115544939Y-74256349D01*
X115744898Y-74216575D01*
X115933256Y-74138554D01*
X116102774Y-74025286D01*
X116246937Y-73881123D01*
X116360205Y-73711605D01*
X116438226Y-73523247D01*
X116478000Y-73323288D01*
X116478000Y-73261150D01*
X117478151Y-72261000D01*
X118944318Y-72261000D01*
X118903499Y-72294499D01*
G37*
%TD.AperFunction*%
%TD*%
M02*
