%TF.GenerationSoftware,KiCad,Pcbnew,(5.1.9)-1*%
%TF.CreationDate,2021-11-30T21:10:33+09:00*%
%TF.ProjectId,joystick-input,6a6f7973-7469-4636-9b2d-696e7075742e,rev?*%
%TF.SameCoordinates,Original*%
%TF.FileFunction,Copper,L2,Bot*%
%TF.FilePolarity,Positive*%
%FSLAX46Y46*%
G04 Gerber Fmt 4.6, Leading zero omitted, Abs format (unit mm)*
G04 Created by KiCad (PCBNEW (5.1.9)-1) date 2021-11-30 21:10:33*
%MOMM*%
%LPD*%
G01*
G04 APERTURE LIST*
%TA.AperFunction,ComponentPad*%
%ADD10O,1.700000X1.700000*%
%TD*%
%TA.AperFunction,ComponentPad*%
%ADD11R,1.700000X1.700000*%
%TD*%
%TA.AperFunction,ViaPad*%
%ADD12C,0.800000*%
%TD*%
%TA.AperFunction,Conductor*%
%ADD13C,0.250000*%
%TD*%
%TA.AperFunction,Conductor*%
%ADD14C,0.254000*%
%TD*%
%TA.AperFunction,Conductor*%
%ADD15C,0.100000*%
%TD*%
G04 APERTURE END LIST*
D10*
%TO.P,OUT1,5*%
%TO.N,/D_OUT*%
X162306000Y-91948000D03*
%TO.P,OUT1,4*%
%TO.N,/CLK*%
X162306000Y-89408000D03*
%TO.P,OUT1,3*%
%TO.N,/LOAD*%
X162306000Y-86868000D03*
%TO.P,OUT1,2*%
%TO.N,GND*%
X162306000Y-84328000D03*
D11*
%TO.P,OUT1,1*%
%TO.N,VCC*%
X162306000Y-81788000D03*
%TD*%
D10*
%TO.P,IN1,5*%
%TO.N,/D_IN*%
X114554000Y-92075000D03*
%TO.P,IN1,4*%
%TO.N,/CLK*%
X114554000Y-89535000D03*
%TO.P,IN1,3*%
%TO.N,/LOAD*%
X114554000Y-86995000D03*
%TO.P,IN1,2*%
%TO.N,GND*%
X114554000Y-84455000D03*
D11*
%TO.P,IN1,1*%
%TO.N,VCC*%
X114554000Y-81915000D03*
%TD*%
D10*
%TO.P,J1,18*%
%TO.N,/C_SHORT*%
X116713000Y-77978000D03*
%TO.P,J1,17*%
%TO.N,/C_P2_RIGHT*%
X119253000Y-77978000D03*
%TO.P,J1,16*%
%TO.N,/C_P2_LEFT*%
X121793000Y-77978000D03*
%TO.P,J1,15*%
%TO.N,/C_P2_DOWN*%
X124333000Y-77978000D03*
%TO.P,J1,14*%
%TO.N,/C_P2_UP*%
X126873000Y-77978000D03*
%TO.P,J1,13*%
%TO.N,/C_P1_R*%
X129413000Y-77978000D03*
%TO.P,J1,12*%
%TO.N,/C_P1_L*%
X131953000Y-77978000D03*
%TO.P,J1,11*%
%TO.N,/C_P1_Y*%
X134493000Y-77978000D03*
%TO.P,J1,10*%
%TO.N,/C_P1_X*%
X137033000Y-77978000D03*
%TO.P,J1,9*%
%TO.N,/C_P1_B*%
X139573000Y-77978000D03*
%TO.P,J1,8*%
%TO.N,/C_P1_A*%
X142113000Y-77978000D03*
%TO.P,J1,7*%
%TO.N,/C_P1_SELECT*%
X144653000Y-77978000D03*
%TO.P,J1,6*%
%TO.N,/C_P1_START*%
X147193000Y-77978000D03*
%TO.P,J1,5*%
%TO.N,/C_P1_RIGHT*%
X149733000Y-77978000D03*
%TO.P,J1,4*%
%TO.N,/C_P1_LEFT*%
X152273000Y-77978000D03*
%TO.P,J1,3*%
%TO.N,/C_P1_DOWN*%
X154813000Y-77978000D03*
%TO.P,J1,2*%
%TO.N,/C_P1_UP*%
X157353000Y-77978000D03*
D11*
%TO.P,J1,1*%
%TO.N,/C_SHORT*%
X159893000Y-77978000D03*
%TD*%
D10*
%TO.P,J2,28*%
%TO.N,/C_SHORT*%
X121793000Y-74041000D03*
%TO.P,J2,27*%
X121793000Y-71501000D03*
%TO.P,J2,26*%
%TO.N,/C_P2_R*%
X124333000Y-74041000D03*
%TO.P,J2,25*%
%TO.N,/C_P1_R*%
X124333000Y-71501000D03*
%TO.P,J2,24*%
%TO.N,/C_P2_L*%
X126873000Y-74041000D03*
%TO.P,J2,23*%
%TO.N,/C_P1_L*%
X126873000Y-71501000D03*
%TO.P,J2,22*%
%TO.N,/C_P2_Y*%
X129413000Y-74041000D03*
%TO.P,J2,21*%
%TO.N,/C_P1_Y*%
X129413000Y-71501000D03*
%TO.P,J2,20*%
%TO.N,/C_P2_X*%
X131953000Y-74041000D03*
%TO.P,J2,19*%
%TO.N,/C_P1_X*%
X131953000Y-71501000D03*
%TO.P,J2,18*%
%TO.N,/C_P2_B*%
X134493000Y-74041000D03*
%TO.P,J2,17*%
%TO.N,/C_P1_B*%
X134493000Y-71501000D03*
%TO.P,J2,16*%
%TO.N,/C_P2_A*%
X137033000Y-74041000D03*
%TO.P,J2,15*%
%TO.N,/C_P1_A*%
X137033000Y-71501000D03*
%TO.P,J2,14*%
%TO.N,/C_P2_SELECT*%
X139573000Y-74041000D03*
%TO.P,J2,13*%
%TO.N,/C_P1_SELECT*%
X139573000Y-71501000D03*
%TO.P,J2,12*%
%TO.N,/C_P2_START*%
X142113000Y-74041000D03*
%TO.P,J2,11*%
%TO.N,/C_P1_START*%
X142113000Y-71501000D03*
%TO.P,J2,10*%
%TO.N,/C_P2_RIGHT*%
X144653000Y-74041000D03*
%TO.P,J2,9*%
%TO.N,/C_P1_RIGHT*%
X144653000Y-71501000D03*
%TO.P,J2,8*%
%TO.N,/C_P2_LEFT*%
X147193000Y-74041000D03*
%TO.P,J2,7*%
%TO.N,/C_P1_LEFT*%
X147193000Y-71501000D03*
%TO.P,J2,6*%
%TO.N,/C_P2_DOWN*%
X149733000Y-74041000D03*
%TO.P,J2,5*%
%TO.N,/C_P1_DOWN*%
X149733000Y-71501000D03*
%TO.P,J2,4*%
%TO.N,/C_P2_UP*%
X152273000Y-74041000D03*
%TO.P,J2,3*%
%TO.N,/C_P1_UP*%
X152273000Y-71501000D03*
%TO.P,J2,2*%
%TO.N,/C_SHORT*%
X154813000Y-74041000D03*
D11*
%TO.P,J2,1*%
X154813000Y-71501000D03*
%TD*%
D12*
%TO.N,/PULL*%
X117919512Y-92392500D03*
X158877003Y-93218003D03*
X160401000Y-80518004D03*
X133858000Y-94270990D03*
X147447000Y-94234000D03*
%TO.N,GND*%
X146939000Y-84201000D03*
X151701500Y-91376500D03*
X138239500Y-90868500D03*
X124777500Y-90868500D03*
X133096000Y-84328000D03*
X118364000Y-72136000D03*
X156972000Y-92964000D03*
X159131000Y-81661000D03*
X156337000Y-81026000D03*
X144145000Y-81153000D03*
X130048000Y-81407000D03*
X158496000Y-86487000D03*
X138176000Y-85725000D03*
X124460000Y-85725000D03*
%TO.N,/C_P1_START*%
X156046794Y-87595185D03*
%TO.N,/C_P1_SELECT*%
X156013480Y-88645980D03*
%TO.N,/C_P1_A*%
X156019504Y-89915996D03*
%TO.N,/C_P1_B*%
X156019500Y-91186000D03*
%TO.N,/C_P1_UP*%
X147446996Y-90424000D03*
X151576711Y-81630979D03*
%TO.N,/C_P1_DOWN*%
X150459696Y-81625696D03*
X147446998Y-89281000D03*
%TO.N,/C_P1_LEFT*%
X149451486Y-81608586D03*
X147447000Y-88138000D03*
%TO.N,/C_P1_RIGHT*%
X148417392Y-81619219D03*
X147438850Y-87104530D03*
%TO.N,/C_P1_X*%
X133858000Y-90170000D03*
X136969500Y-81470500D03*
%TO.N,/C_P1_Y*%
X133862660Y-89149340D03*
X134366000Y-81533980D03*
%TO.N,/C_P1_L*%
X133862660Y-88124020D03*
X133264569Y-81502767D03*
%TO.N,/C_P1_R*%
X133862660Y-87098701D03*
X132224066Y-81487583D03*
%TO.N,/C_P2_START*%
X120751600Y-91160600D03*
%TO.N,/C_P2_SELECT*%
X120713500Y-89852500D03*
%TO.N,/C_P2_A*%
X120713500Y-88582500D03*
%TO.N,/C_P2_B*%
X120675400Y-87350600D03*
%TO.N,/C_P2_UP*%
X142748000Y-89281012D03*
%TO.N,/C_P2_DOWN*%
X142748000Y-90297010D03*
%TO.N,/C_P2_LEFT*%
X142748000Y-91440000D03*
%TO.N,/C_P2_RIGHT*%
X142748004Y-92583000D03*
%TO.N,/C_P2_X*%
X129286000Y-89153988D03*
X122809001Y-81630979D03*
%TO.N,/C_P2_Y*%
X129286000Y-90296990D03*
X124206000Y-81630979D03*
%TO.N,/C_P2_L*%
X129303820Y-91439990D03*
X125603000Y-81630979D03*
%TO.N,/C_P2_R*%
X129285994Y-92583000D03*
X127000000Y-81630979D03*
%TO.N,/C_SHORT*%
X119126000Y-74422000D03*
%TD*%
D13*
%TO.N,/PULL*%
X158115006Y-93980000D02*
X158877003Y-93218003D01*
X156845006Y-95250000D02*
X158115006Y-93980000D01*
X149352000Y-95250000D02*
X156845006Y-95250000D01*
X141224000Y-95250000D02*
X149352000Y-95250000D01*
X120777012Y-95250000D02*
X141224000Y-95250000D01*
X117919512Y-92392500D02*
X120777012Y-95250000D01*
X160401000Y-91694006D02*
X160401000Y-80518004D01*
X158877003Y-93218003D02*
X160401000Y-91694006D01*
X133858000Y-95250000D02*
X133858000Y-94270990D01*
X132334000Y-95250000D02*
X133858000Y-95250000D01*
X147447000Y-95250000D02*
X147447000Y-94234000D01*
X149352000Y-95250000D02*
X147447000Y-95250000D01*
%TO.N,/C_P1_START*%
X147320000Y-77978000D02*
X148763967Y-79421967D01*
X152573967Y-79421967D02*
X155646795Y-82494795D01*
X148763967Y-79421967D02*
X152573967Y-79421967D01*
X155646795Y-87195186D02*
X156046794Y-87595185D01*
X155646795Y-82494795D02*
X155646795Y-87195186D01*
%TO.N,/C_P1_SELECT*%
X146673978Y-79871978D02*
X152260515Y-79871978D01*
X144780000Y-77978000D02*
X146673978Y-79871978D01*
X154743989Y-87376489D02*
X156013480Y-88645980D01*
X154743989Y-82355452D02*
X154743989Y-87376489D01*
X152260515Y-79871978D02*
X154743989Y-82355452D01*
%TO.N,/C_P1_A*%
X144012489Y-79750489D02*
X145916078Y-79750489D01*
X152074115Y-80321989D02*
X154293978Y-82541852D01*
X154293978Y-88190470D02*
X156019504Y-89915996D01*
X145916078Y-79750489D02*
X146487578Y-80321989D01*
X154293978Y-82541852D02*
X154293978Y-88190470D01*
X146487578Y-80321989D02*
X152074115Y-80321989D01*
X142240000Y-77978000D02*
X144012489Y-79750489D01*
%TO.N,/C_P1_B*%
X153843967Y-82728252D02*
X153843967Y-89010467D01*
X151924713Y-80808998D02*
X153843967Y-82728252D01*
X139700000Y-77978000D02*
X141922500Y-80200500D01*
X146338176Y-80808998D02*
X151924713Y-80808998D01*
X145729678Y-80200500D02*
X146338176Y-80808998D01*
X141922500Y-80200500D02*
X145729678Y-80200500D01*
X153843967Y-89010467D02*
X156019500Y-91186000D01*
%TO.N,/C_P1_UP*%
X147446996Y-90424000D02*
X151576711Y-86294285D01*
X151576711Y-86294285D02*
X151576711Y-81630979D01*
%TO.N,/C_P1_DOWN*%
X150459696Y-81625696D02*
X149409989Y-82675403D01*
X149409989Y-82675403D02*
X149409989Y-87318009D01*
X149409989Y-87318009D02*
X147446998Y-89281000D01*
%TO.N,/C_P1_LEFT*%
X148959978Y-82100094D02*
X148959978Y-86625022D01*
X148959978Y-86625022D02*
X147447000Y-88138000D01*
X149451486Y-81608586D02*
X148959978Y-82100094D01*
%TO.N,/C_P1_RIGHT*%
X148417392Y-86125988D02*
X147438850Y-87104530D01*
X148417392Y-81619219D02*
X148417392Y-86125988D01*
%TO.N,/C_P1_X*%
X134423685Y-90170000D02*
X133858000Y-90170000D01*
X136969500Y-87624185D02*
X134423685Y-90170000D01*
X136969500Y-81470500D02*
X136969500Y-87624185D01*
%TO.N,/C_P1_Y*%
X135255000Y-82422980D02*
X134366000Y-81533980D01*
X133862660Y-89149340D02*
X135255000Y-87757000D01*
X135255000Y-87757000D02*
X135255000Y-82422980D01*
%TO.N,/C_P1_L*%
X134620000Y-82858198D02*
X133264569Y-81502767D01*
X133862660Y-88124020D02*
X134620000Y-87366680D01*
X134620000Y-87366680D02*
X134620000Y-82858198D01*
%TO.N,/C_P1_R*%
X133985000Y-86976361D02*
X133985000Y-83248517D01*
X133862660Y-87098701D02*
X133985000Y-86976361D01*
X133985000Y-83248517D02*
X132224066Y-81487583D01*
%TO.N,/C_P2_START*%
X118681500Y-83248500D02*
X118681500Y-89090500D01*
X118681500Y-89090500D02*
X120751600Y-91160600D01*
X114554000Y-79121000D02*
X118681500Y-83248500D01*
X114554000Y-72898000D02*
X114554000Y-79121000D01*
X139279500Y-69278500D02*
X118173500Y-69278500D01*
X140843000Y-70842000D02*
X139279500Y-69278500D01*
X118173500Y-69278500D02*
X114554000Y-72898000D01*
X140843000Y-72771000D02*
X140843000Y-70842000D01*
X142113000Y-74041000D02*
X140843000Y-72771000D01*
%TO.N,/C_P2_SELECT*%
X119131511Y-83062100D02*
X119131511Y-88270511D01*
X138303000Y-70821999D02*
X137209512Y-69728511D01*
X119131511Y-88270511D02*
X120713500Y-89852500D01*
X138303000Y-72771000D02*
X138303000Y-70821999D01*
X118359899Y-69728511D02*
X115004011Y-73084399D01*
X137209512Y-69728511D02*
X118359899Y-69728511D01*
X139573000Y-74041000D02*
X138303000Y-72771000D01*
X115004011Y-73084399D02*
X115004011Y-78934600D01*
X115004011Y-78934600D02*
X119131511Y-83062100D01*
%TO.N,/C_P2_A*%
X135763000Y-70948999D02*
X134992523Y-70178522D01*
X119691989Y-87560989D02*
X120713500Y-88582500D01*
X115454022Y-78748200D02*
X119691989Y-82986167D01*
X115454022Y-73270798D02*
X115454022Y-78748200D01*
X119691989Y-82986167D02*
X119691989Y-87560989D01*
X118546298Y-70178522D02*
X115454022Y-73270798D01*
X134992523Y-70178522D02*
X118546298Y-70178522D01*
X135763000Y-72771000D02*
X135763000Y-70948999D01*
X137033000Y-74041000D02*
X135763000Y-72771000D01*
%TO.N,/C_P2_B*%
X120142000Y-82784141D02*
X120142000Y-86817200D01*
X117999533Y-80641674D02*
X120142000Y-82784141D01*
X120142000Y-86817200D02*
X120675400Y-87350600D01*
X134493000Y-74041000D02*
X133286500Y-72834500D01*
X133286500Y-72834500D02*
X119443500Y-72834500D01*
X119443500Y-72834500D02*
X117999533Y-74278467D01*
X117999533Y-74278467D02*
X117999533Y-80641674D01*
%TO.N,/C_P2_UP*%
X141605000Y-88138012D02*
X142748000Y-89281012D01*
X141605000Y-83884042D02*
X141605000Y-88138012D01*
X140843000Y-83122042D02*
X141605000Y-83884042D01*
X140843000Y-80518000D02*
X140843000Y-83122042D01*
X139478001Y-79153001D02*
X140843000Y-80518000D01*
X152273000Y-74295000D02*
X149843467Y-76724533D01*
X127499243Y-77978000D02*
X128674244Y-79153001D01*
X149843467Y-76724533D02*
X128752710Y-76724533D01*
X128752710Y-76724533D02*
X127499243Y-77978000D01*
X128674244Y-79153001D02*
X139478001Y-79153001D01*
%TO.N,/C_P2_DOWN*%
X141154989Y-85290263D02*
X141154989Y-88760993D01*
X124460000Y-77978000D02*
X126174500Y-79692500D01*
X142691006Y-90297010D02*
X142748000Y-90297010D01*
X140281599Y-80658783D02*
X140281599Y-84416873D01*
X141154989Y-88760993D02*
X142691006Y-90297010D01*
X149733000Y-74041000D02*
X147499478Y-76274522D01*
X139315318Y-79692500D02*
X140281599Y-80658783D01*
X126163478Y-76274522D02*
X124460000Y-77978000D01*
X147499478Y-76274522D02*
X126163478Y-76274522D01*
X126174500Y-79692500D02*
X139315318Y-79692500D01*
X140281599Y-84416873D02*
X141154989Y-85290263D01*
%TO.N,/C_P2_LEFT*%
X142748000Y-91440000D02*
X142657990Y-91349990D01*
X142690996Y-91440000D02*
X142748000Y-91440000D01*
X140593978Y-85635104D02*
X140593978Y-89342982D01*
X147193000Y-74295000D02*
X145663489Y-75824511D01*
X121920000Y-77978000D02*
X124084511Y-80142511D01*
X124084511Y-80142511D02*
X139128917Y-80142511D01*
X145663489Y-75824511D02*
X124073489Y-75824511D01*
X139128917Y-80142511D02*
X139831588Y-80845183D01*
X139831588Y-80845183D02*
X139831588Y-84872714D01*
X139831588Y-84872714D02*
X140593978Y-85635104D01*
X140593978Y-89342982D02*
X142690996Y-91440000D01*
X124073489Y-75824511D02*
X121920000Y-77978000D01*
%TO.N,/C_P2_RIGHT*%
X138994994Y-80645000D02*
X139381577Y-81031583D01*
X139381577Y-85095575D02*
X140107501Y-85821499D01*
X140107501Y-85821499D02*
X140107501Y-89942497D01*
X140107501Y-89942497D02*
X142748004Y-92583000D01*
X121983500Y-75374500D02*
X119380000Y-77978000D01*
X119380000Y-77978000D02*
X122047000Y-80645000D01*
X139381577Y-81031583D02*
X139381577Y-85095575D01*
X122047000Y-80645000D02*
X138994994Y-80645000D01*
X144653000Y-74295000D02*
X143573500Y-75374500D01*
X143573500Y-75374500D02*
X121983500Y-75374500D01*
%TO.N,/C_P2_X*%
X122809001Y-82676989D02*
X122809001Y-81630979D01*
X129286000Y-89153988D02*
X122809001Y-82676989D01*
%TO.N,/C_P2_Y*%
X129286000Y-90296990D02*
X130085387Y-89497603D01*
X130085387Y-87510366D02*
X124605999Y-82030978D01*
X130085387Y-89497603D02*
X130085387Y-87510366D01*
X124605999Y-82030978D02*
X124206000Y-81630979D01*
%TO.N,/C_P2_L*%
X130667762Y-86695741D02*
X126002999Y-82030978D01*
X126002999Y-82030978D02*
X125603000Y-81630979D01*
X130667762Y-90076048D02*
X130667762Y-86695741D01*
X129303820Y-91439990D02*
X130667762Y-90076048D01*
%TO.N,/C_P2_R*%
X131117773Y-85748752D02*
X127000000Y-81630979D01*
X131117773Y-90751221D02*
X131117773Y-85748752D01*
X129285994Y-92583000D02*
X131117773Y-90751221D01*
%TO.N,/C_SHORT*%
X121793000Y-71755000D02*
X121158000Y-71120000D01*
X121412000Y-74422000D02*
X121793000Y-74041000D01*
X119126000Y-74422000D02*
X121412000Y-74422000D01*
%TD*%
D14*
%TO.N,GND*%
X162099665Y-68455441D02*
X161968682Y-68771663D01*
X161901907Y-69107362D01*
X161901907Y-69449638D01*
X161968682Y-69785337D01*
X162099665Y-70101559D01*
X162289824Y-70386151D01*
X162531849Y-70628176D01*
X162816441Y-70818335D01*
X163132663Y-70949318D01*
X163468362Y-71016093D01*
X163810638Y-71016093D01*
X164146337Y-70949318D01*
X164462559Y-70818335D01*
X164478500Y-70807683D01*
X164478501Y-94127892D01*
X164477299Y-94127089D01*
X164155414Y-93993760D01*
X163813703Y-93925789D01*
X163465297Y-93925789D01*
X163123586Y-93993760D01*
X162801701Y-94127089D01*
X162512012Y-94320652D01*
X162265652Y-94567012D01*
X162072089Y-94856701D01*
X161938760Y-95178586D01*
X161870789Y-95520297D01*
X161870789Y-95868703D01*
X161938760Y-96210414D01*
X162072089Y-96532299D01*
X162072891Y-96533500D01*
X114876684Y-96533500D01*
X114887335Y-96517559D01*
X115018318Y-96201337D01*
X115085093Y-95865638D01*
X115085093Y-95523362D01*
X115018318Y-95187663D01*
X114887335Y-94871441D01*
X114697176Y-94586849D01*
X114455151Y-94344824D01*
X114170559Y-94154665D01*
X113854337Y-94023682D01*
X113518638Y-93956907D01*
X113176362Y-93956907D01*
X112840663Y-94023682D01*
X112524441Y-94154665D01*
X112508500Y-94165316D01*
X112508500Y-86848740D01*
X113069000Y-86848740D01*
X113069000Y-87141260D01*
X113126068Y-87428158D01*
X113238010Y-87698411D01*
X113400525Y-87941632D01*
X113607368Y-88148475D01*
X113781760Y-88265000D01*
X113607368Y-88381525D01*
X113400525Y-88588368D01*
X113238010Y-88831589D01*
X113126068Y-89101842D01*
X113069000Y-89388740D01*
X113069000Y-89681260D01*
X113126068Y-89968158D01*
X113238010Y-90238411D01*
X113400525Y-90481632D01*
X113607368Y-90688475D01*
X113781760Y-90805000D01*
X113607368Y-90921525D01*
X113400525Y-91128368D01*
X113238010Y-91371589D01*
X113126068Y-91641842D01*
X113069000Y-91928740D01*
X113069000Y-92221260D01*
X113126068Y-92508158D01*
X113238010Y-92778411D01*
X113400525Y-93021632D01*
X113607368Y-93228475D01*
X113850589Y-93390990D01*
X114120842Y-93502932D01*
X114407740Y-93560000D01*
X114700260Y-93560000D01*
X114987158Y-93502932D01*
X115257411Y-93390990D01*
X115500632Y-93228475D01*
X115707475Y-93021632D01*
X115869990Y-92778411D01*
X115981932Y-92508158D01*
X116025215Y-92290561D01*
X116884512Y-92290561D01*
X116884512Y-92494439D01*
X116924286Y-92694398D01*
X117002307Y-92882756D01*
X117115575Y-93052274D01*
X117259738Y-93196437D01*
X117429256Y-93309705D01*
X117617614Y-93387726D01*
X117817573Y-93427500D01*
X117879711Y-93427500D01*
X120213213Y-95761003D01*
X120237011Y-95790001D01*
X120352736Y-95884974D01*
X120484765Y-95955546D01*
X120628026Y-95999003D01*
X120739679Y-96010000D01*
X120739688Y-96010000D01*
X120777011Y-96013676D01*
X120814334Y-96010000D01*
X133820667Y-96010000D01*
X133858000Y-96013677D01*
X133895333Y-96010000D01*
X147409667Y-96010000D01*
X147447000Y-96013677D01*
X147484333Y-96010000D01*
X156807684Y-96010000D01*
X156845006Y-96013676D01*
X156882328Y-96010000D01*
X156882339Y-96010000D01*
X156993992Y-95999003D01*
X157137253Y-95955546D01*
X157269282Y-95884974D01*
X157385007Y-95790001D01*
X157408810Y-95760997D01*
X158678805Y-94491003D01*
X158678809Y-94490998D01*
X158916805Y-94253003D01*
X158978942Y-94253003D01*
X159178901Y-94213229D01*
X159367259Y-94135208D01*
X159536777Y-94021940D01*
X159680940Y-93877777D01*
X159794208Y-93708259D01*
X159872229Y-93519901D01*
X159912003Y-93319942D01*
X159912003Y-93257804D01*
X160863232Y-92306575D01*
X160878068Y-92381158D01*
X160990010Y-92651411D01*
X161152525Y-92894632D01*
X161359368Y-93101475D01*
X161602589Y-93263990D01*
X161872842Y-93375932D01*
X162159740Y-93433000D01*
X162452260Y-93433000D01*
X162739158Y-93375932D01*
X163009411Y-93263990D01*
X163252632Y-93101475D01*
X163459475Y-92894632D01*
X163621990Y-92651411D01*
X163733932Y-92381158D01*
X163791000Y-92094260D01*
X163791000Y-91801740D01*
X163733932Y-91514842D01*
X163621990Y-91244589D01*
X163459475Y-91001368D01*
X163252632Y-90794525D01*
X163078240Y-90678000D01*
X163252632Y-90561475D01*
X163459475Y-90354632D01*
X163621990Y-90111411D01*
X163733932Y-89841158D01*
X163791000Y-89554260D01*
X163791000Y-89261740D01*
X163733932Y-88974842D01*
X163621990Y-88704589D01*
X163459475Y-88461368D01*
X163252632Y-88254525D01*
X163078240Y-88138000D01*
X163252632Y-88021475D01*
X163459475Y-87814632D01*
X163621990Y-87571411D01*
X163733932Y-87301158D01*
X163791000Y-87014260D01*
X163791000Y-86721740D01*
X163733932Y-86434842D01*
X163621990Y-86164589D01*
X163459475Y-85921368D01*
X163252632Y-85714525D01*
X163070466Y-85592805D01*
X163187355Y-85523178D01*
X163403588Y-85328269D01*
X163577641Y-85094920D01*
X163702825Y-84832099D01*
X163747476Y-84684890D01*
X163626155Y-84455000D01*
X162433000Y-84455000D01*
X162433000Y-84475000D01*
X162179000Y-84475000D01*
X162179000Y-84455000D01*
X162159000Y-84455000D01*
X162159000Y-84201000D01*
X162179000Y-84201000D01*
X162179000Y-84181000D01*
X162433000Y-84181000D01*
X162433000Y-84201000D01*
X163626155Y-84201000D01*
X163747476Y-83971110D01*
X163702825Y-83823901D01*
X163577641Y-83561080D01*
X163403588Y-83327731D01*
X163319534Y-83251966D01*
X163400180Y-83227502D01*
X163510494Y-83168537D01*
X163607185Y-83089185D01*
X163686537Y-82992494D01*
X163745502Y-82882180D01*
X163781812Y-82762482D01*
X163794072Y-82638000D01*
X163794072Y-80938000D01*
X163781812Y-80813518D01*
X163745502Y-80693820D01*
X163686537Y-80583506D01*
X163607185Y-80486815D01*
X163510494Y-80407463D01*
X163400180Y-80348498D01*
X163280482Y-80312188D01*
X163156000Y-80299928D01*
X161456000Y-80299928D01*
X161413727Y-80304091D01*
X161396226Y-80216106D01*
X161318205Y-80027748D01*
X161204937Y-79858230D01*
X161060774Y-79714067D01*
X160891256Y-79600799D01*
X160702898Y-79522778D01*
X160502939Y-79483004D01*
X160299061Y-79483004D01*
X160099102Y-79522778D01*
X159910744Y-79600799D01*
X159741226Y-79714067D01*
X159597063Y-79858230D01*
X159483795Y-80027748D01*
X159405774Y-80216106D01*
X159366000Y-80416065D01*
X159366000Y-80619943D01*
X159405774Y-80819902D01*
X159483795Y-81008260D01*
X159597063Y-81177778D01*
X159641001Y-81221716D01*
X159641000Y-91379204D01*
X158837202Y-92183003D01*
X158775064Y-92183003D01*
X158575105Y-92222777D01*
X158386747Y-92300798D01*
X158217229Y-92414066D01*
X158073066Y-92558229D01*
X157959798Y-92727747D01*
X157881777Y-92916105D01*
X157842003Y-93116064D01*
X157842003Y-93178201D01*
X157604008Y-93416197D01*
X157604003Y-93416201D01*
X156530205Y-94490000D01*
X148451356Y-94490000D01*
X148482000Y-94335939D01*
X148482000Y-94132061D01*
X148442226Y-93932102D01*
X148364205Y-93743744D01*
X148250937Y-93574226D01*
X148106774Y-93430063D01*
X147937256Y-93316795D01*
X147748898Y-93238774D01*
X147548939Y-93199000D01*
X147345061Y-93199000D01*
X147145102Y-93238774D01*
X146956744Y-93316795D01*
X146787226Y-93430063D01*
X146643063Y-93574226D01*
X146529795Y-93743744D01*
X146451774Y-93932102D01*
X146412000Y-94132061D01*
X146412000Y-94335939D01*
X146442644Y-94490000D01*
X134869713Y-94490000D01*
X134893000Y-94372929D01*
X134893000Y-94169051D01*
X134853226Y-93969092D01*
X134775205Y-93780734D01*
X134661937Y-93611216D01*
X134517774Y-93467053D01*
X134348256Y-93353785D01*
X134159898Y-93275764D01*
X133959939Y-93235990D01*
X133756061Y-93235990D01*
X133556102Y-93275764D01*
X133367744Y-93353785D01*
X133198226Y-93467053D01*
X133054063Y-93611216D01*
X132940795Y-93780734D01*
X132862774Y-93969092D01*
X132823000Y-94169051D01*
X132823000Y-94372929D01*
X132846287Y-94490000D01*
X121091814Y-94490000D01*
X118954512Y-92352699D01*
X118954512Y-92290561D01*
X118914738Y-92090602D01*
X118836717Y-91902244D01*
X118723449Y-91732726D01*
X118579286Y-91588563D01*
X118409768Y-91475295D01*
X118221410Y-91397274D01*
X118021451Y-91357500D01*
X117817573Y-91357500D01*
X117617614Y-91397274D01*
X117429256Y-91475295D01*
X117259738Y-91588563D01*
X117115575Y-91732726D01*
X117002307Y-91902244D01*
X116924286Y-92090602D01*
X116884512Y-92290561D01*
X116025215Y-92290561D01*
X116039000Y-92221260D01*
X116039000Y-91928740D01*
X115981932Y-91641842D01*
X115869990Y-91371589D01*
X115707475Y-91128368D01*
X115500632Y-90921525D01*
X115326240Y-90805000D01*
X115500632Y-90688475D01*
X115707475Y-90481632D01*
X115869990Y-90238411D01*
X115981932Y-89968158D01*
X116039000Y-89681260D01*
X116039000Y-89388740D01*
X115981932Y-89101842D01*
X115869990Y-88831589D01*
X115707475Y-88588368D01*
X115500632Y-88381525D01*
X115326240Y-88265000D01*
X115500632Y-88148475D01*
X115707475Y-87941632D01*
X115869990Y-87698411D01*
X115981932Y-87428158D01*
X116039000Y-87141260D01*
X116039000Y-86848740D01*
X115981932Y-86561842D01*
X115869990Y-86291589D01*
X115707475Y-86048368D01*
X115500632Y-85841525D01*
X115318466Y-85719805D01*
X115435355Y-85650178D01*
X115651588Y-85455269D01*
X115825641Y-85221920D01*
X115950825Y-84959099D01*
X115995476Y-84811890D01*
X115874155Y-84582000D01*
X114681000Y-84582000D01*
X114681000Y-84602000D01*
X114427000Y-84602000D01*
X114427000Y-84582000D01*
X113233845Y-84582000D01*
X113112524Y-84811890D01*
X113157175Y-84959099D01*
X113282359Y-85221920D01*
X113456412Y-85455269D01*
X113672645Y-85650178D01*
X113789534Y-85719805D01*
X113607368Y-85841525D01*
X113400525Y-86048368D01*
X113238010Y-86291589D01*
X113126068Y-86561842D01*
X113069000Y-86848740D01*
X112508500Y-86848740D01*
X112508500Y-81065000D01*
X113065928Y-81065000D01*
X113065928Y-82765000D01*
X113078188Y-82889482D01*
X113114498Y-83009180D01*
X113173463Y-83119494D01*
X113252815Y-83216185D01*
X113349506Y-83295537D01*
X113459820Y-83354502D01*
X113540466Y-83378966D01*
X113456412Y-83454731D01*
X113282359Y-83688080D01*
X113157175Y-83950901D01*
X113112524Y-84098110D01*
X113233845Y-84328000D01*
X114427000Y-84328000D01*
X114427000Y-84308000D01*
X114681000Y-84308000D01*
X114681000Y-84328000D01*
X115874155Y-84328000D01*
X115995476Y-84098110D01*
X115950825Y-83950901D01*
X115825641Y-83688080D01*
X115651588Y-83454731D01*
X115567534Y-83378966D01*
X115648180Y-83354502D01*
X115758494Y-83295537D01*
X115855185Y-83216185D01*
X115934537Y-83119494D01*
X115993502Y-83009180D01*
X116029812Y-82889482D01*
X116042072Y-82765000D01*
X116042072Y-81683874D01*
X117921500Y-83563303D01*
X117921501Y-89053168D01*
X117917824Y-89090500D01*
X117921501Y-89127833D01*
X117932498Y-89239486D01*
X117942359Y-89271995D01*
X117975954Y-89382746D01*
X118046526Y-89514776D01*
X118098630Y-89578264D01*
X118141500Y-89630501D01*
X118170498Y-89654299D01*
X119716600Y-91200403D01*
X119716600Y-91262539D01*
X119756374Y-91462498D01*
X119834395Y-91650856D01*
X119947663Y-91820374D01*
X120091826Y-91964537D01*
X120261344Y-92077805D01*
X120449702Y-92155826D01*
X120649661Y-92195600D01*
X120853539Y-92195600D01*
X121053498Y-92155826D01*
X121241856Y-92077805D01*
X121411374Y-91964537D01*
X121555537Y-91820374D01*
X121668805Y-91650856D01*
X121746826Y-91462498D01*
X121786600Y-91262539D01*
X121786600Y-91058661D01*
X121746826Y-90858702D01*
X121668805Y-90670344D01*
X121555537Y-90500826D01*
X121537283Y-90482572D01*
X121630705Y-90342756D01*
X121708726Y-90154398D01*
X121748500Y-89954439D01*
X121748500Y-89750561D01*
X121708726Y-89550602D01*
X121630705Y-89362244D01*
X121533990Y-89217500D01*
X121630705Y-89072756D01*
X121708726Y-88884398D01*
X121748500Y-88684439D01*
X121748500Y-88480561D01*
X121708726Y-88280602D01*
X121630705Y-88092244D01*
X121527669Y-87938040D01*
X121592605Y-87840856D01*
X121670626Y-87652498D01*
X121710400Y-87452539D01*
X121710400Y-87248661D01*
X121670626Y-87048702D01*
X121592605Y-86860344D01*
X121479337Y-86690826D01*
X121335174Y-86546663D01*
X121165656Y-86433395D01*
X120977298Y-86355374D01*
X120902000Y-86340396D01*
X120902000Y-82821464D01*
X120905676Y-82784141D01*
X120902000Y-82746818D01*
X120902000Y-82746808D01*
X120891003Y-82635155D01*
X120847546Y-82491894D01*
X120829142Y-82457463D01*
X120776974Y-82359864D01*
X120705799Y-82273138D01*
X120682001Y-82244140D01*
X120653004Y-82220343D01*
X118759533Y-80326873D01*
X118759533Y-79380951D01*
X118819842Y-79405932D01*
X119106740Y-79463000D01*
X119399260Y-79463000D01*
X119686158Y-79405932D01*
X119719373Y-79392174D01*
X121483200Y-81156002D01*
X121506999Y-81185001D01*
X121535997Y-81208799D01*
X121622724Y-81279974D01*
X121754753Y-81350546D01*
X121806390Y-81366210D01*
X121774001Y-81529040D01*
X121774001Y-81732918D01*
X121813775Y-81932877D01*
X121891796Y-82121235D01*
X122005064Y-82290753D01*
X122049001Y-82334690D01*
X122049001Y-82639666D01*
X122045325Y-82676989D01*
X122049001Y-82714311D01*
X122049001Y-82714321D01*
X122059998Y-82825974D01*
X122088293Y-82919251D01*
X122103455Y-82969235D01*
X122174027Y-83101265D01*
X122201045Y-83134186D01*
X122269000Y-83216990D01*
X122298004Y-83240793D01*
X128251000Y-89193790D01*
X128251000Y-89255927D01*
X128290774Y-89455886D01*
X128368795Y-89644244D01*
X128423081Y-89725489D01*
X128368795Y-89806734D01*
X128290774Y-89995092D01*
X128251000Y-90195051D01*
X128251000Y-90398929D01*
X128290774Y-90598888D01*
X128368795Y-90787246D01*
X128431990Y-90881825D01*
X128386615Y-90949734D01*
X128308594Y-91138092D01*
X128268820Y-91338051D01*
X128268820Y-91541929D01*
X128308594Y-91741888D01*
X128386615Y-91930246D01*
X128431991Y-91998156D01*
X128368789Y-92092744D01*
X128290768Y-92281102D01*
X128250994Y-92481061D01*
X128250994Y-92684939D01*
X128290768Y-92884898D01*
X128368789Y-93073256D01*
X128482057Y-93242774D01*
X128626220Y-93386937D01*
X128795738Y-93500205D01*
X128984096Y-93578226D01*
X129184055Y-93618000D01*
X129387933Y-93618000D01*
X129587892Y-93578226D01*
X129776250Y-93500205D01*
X129945768Y-93386937D01*
X130089931Y-93242774D01*
X130203199Y-93073256D01*
X130281220Y-92884898D01*
X130320994Y-92684939D01*
X130320994Y-92622801D01*
X131628777Y-91315019D01*
X131657774Y-91291222D01*
X131752747Y-91175497D01*
X131823319Y-91043468D01*
X131866776Y-90900207D01*
X131877773Y-90788554D01*
X131877773Y-90788546D01*
X131881449Y-90751221D01*
X131877773Y-90713896D01*
X131877773Y-85786074D01*
X131881449Y-85748751D01*
X131877773Y-85711428D01*
X131877773Y-85711419D01*
X131866776Y-85599766D01*
X131823319Y-85456505D01*
X131752747Y-85324476D01*
X131694031Y-85252930D01*
X131681572Y-85237748D01*
X131681568Y-85237744D01*
X131657774Y-85208751D01*
X131628781Y-85184957D01*
X128035000Y-81591178D01*
X128035000Y-81529040D01*
X128010327Y-81405000D01*
X131189066Y-81405000D01*
X131189066Y-81589522D01*
X131228840Y-81789481D01*
X131306861Y-81977839D01*
X131420129Y-82147357D01*
X131564292Y-82291520D01*
X131733810Y-82404788D01*
X131922168Y-82482809D01*
X132122127Y-82522583D01*
X132184265Y-82522583D01*
X133225001Y-83563320D01*
X133225000Y-86279988D01*
X133202886Y-86294764D01*
X133058723Y-86438927D01*
X132945455Y-86608445D01*
X132867434Y-86796803D01*
X132827660Y-86996762D01*
X132827660Y-87200640D01*
X132867434Y-87400599D01*
X132945455Y-87588957D01*
X132960424Y-87611361D01*
X132945455Y-87633764D01*
X132867434Y-87822122D01*
X132827660Y-88022081D01*
X132827660Y-88225959D01*
X132867434Y-88425918D01*
X132945455Y-88614276D01*
X132960425Y-88636680D01*
X132945455Y-88659084D01*
X132867434Y-88847442D01*
X132827660Y-89047401D01*
X132827660Y-89251279D01*
X132867434Y-89451238D01*
X132945455Y-89639596D01*
X132956538Y-89656183D01*
X132940795Y-89679744D01*
X132862774Y-89868102D01*
X132823000Y-90068061D01*
X132823000Y-90271939D01*
X132862774Y-90471898D01*
X132940795Y-90660256D01*
X133054063Y-90829774D01*
X133198226Y-90973937D01*
X133367744Y-91087205D01*
X133556102Y-91165226D01*
X133756061Y-91205000D01*
X133959939Y-91205000D01*
X134159898Y-91165226D01*
X134348256Y-91087205D01*
X134517774Y-90973937D01*
X134572724Y-90918987D01*
X134715932Y-90875546D01*
X134847961Y-90804974D01*
X134963686Y-90710001D01*
X134987489Y-90680997D01*
X137480503Y-88187984D01*
X137509501Y-88164186D01*
X137546594Y-88118988D01*
X137604474Y-88048462D01*
X137675046Y-87916432D01*
X137680915Y-87897083D01*
X137718503Y-87773171D01*
X137729500Y-87661518D01*
X137729500Y-87661509D01*
X137733176Y-87624186D01*
X137729500Y-87586863D01*
X137729500Y-82174211D01*
X137773437Y-82130274D01*
X137886705Y-81960756D01*
X137964726Y-81772398D01*
X138004500Y-81572439D01*
X138004500Y-81405000D01*
X138621577Y-81405000D01*
X138621578Y-85058243D01*
X138617901Y-85095575D01*
X138621578Y-85132908D01*
X138629253Y-85210827D01*
X138632575Y-85244560D01*
X138676031Y-85387821D01*
X138746603Y-85519851D01*
X138817778Y-85606577D01*
X138841577Y-85635576D01*
X138870575Y-85659374D01*
X139347501Y-86136301D01*
X139347502Y-89905165D01*
X139343825Y-89942497D01*
X139347502Y-89979830D01*
X139358499Y-90091483D01*
X139363103Y-90106659D01*
X139401955Y-90234743D01*
X139472527Y-90366773D01*
X139543702Y-90453499D01*
X139567501Y-90482498D01*
X139596499Y-90506296D01*
X141713004Y-92622802D01*
X141713004Y-92684939D01*
X141752778Y-92884898D01*
X141830799Y-93073256D01*
X141944067Y-93242774D01*
X142088230Y-93386937D01*
X142257748Y-93500205D01*
X142446106Y-93578226D01*
X142646065Y-93618000D01*
X142849943Y-93618000D01*
X143049902Y-93578226D01*
X143238260Y-93500205D01*
X143407778Y-93386937D01*
X143551941Y-93242774D01*
X143665209Y-93073256D01*
X143743230Y-92884898D01*
X143783004Y-92684939D01*
X143783004Y-92481061D01*
X143743230Y-92281102D01*
X143665209Y-92092744D01*
X143610922Y-92011497D01*
X143665205Y-91930256D01*
X143743226Y-91741898D01*
X143783000Y-91541939D01*
X143783000Y-91338061D01*
X143743226Y-91138102D01*
X143665205Y-90949744D01*
X143610923Y-90868505D01*
X143665205Y-90787266D01*
X143743226Y-90598908D01*
X143783000Y-90398949D01*
X143783000Y-90195071D01*
X143743226Y-89995112D01*
X143665205Y-89806754D01*
X143653350Y-89789011D01*
X143665205Y-89771268D01*
X143743226Y-89582910D01*
X143783000Y-89382951D01*
X143783000Y-89179073D01*
X143743226Y-88979114D01*
X143665205Y-88790756D01*
X143551937Y-88621238D01*
X143407774Y-88477075D01*
X143238256Y-88363807D01*
X143049898Y-88285786D01*
X142849939Y-88246012D01*
X142787802Y-88246012D01*
X142365000Y-87823211D01*
X142365000Y-83921367D01*
X142368676Y-83884042D01*
X142365000Y-83846717D01*
X142365000Y-83846709D01*
X142354003Y-83735056D01*
X142310546Y-83591795D01*
X142239974Y-83459766D01*
X142145001Y-83344041D01*
X142116004Y-83320244D01*
X141603000Y-82807241D01*
X141603000Y-80891479D01*
X141630253Y-80906046D01*
X141773514Y-80949503D01*
X141885167Y-80960500D01*
X141885175Y-80960500D01*
X141922500Y-80964176D01*
X141959825Y-80960500D01*
X145414877Y-80960500D01*
X145774376Y-81320000D01*
X145798175Y-81348999D01*
X145827173Y-81372797D01*
X145913899Y-81443972D01*
X145981596Y-81480157D01*
X146045929Y-81514544D01*
X146189190Y-81558001D01*
X146300843Y-81568998D01*
X146300852Y-81568998D01*
X146338175Y-81572674D01*
X146375498Y-81568998D01*
X147382392Y-81568998D01*
X147382392Y-81721158D01*
X147422166Y-81921117D01*
X147500187Y-82109475D01*
X147613455Y-82278993D01*
X147657392Y-82322930D01*
X147657393Y-85811185D01*
X147399048Y-86069530D01*
X147336911Y-86069530D01*
X147136952Y-86109304D01*
X146948594Y-86187325D01*
X146779076Y-86300593D01*
X146634913Y-86444756D01*
X146521645Y-86614274D01*
X146443624Y-86802632D01*
X146403850Y-87002591D01*
X146403850Y-87206469D01*
X146443624Y-87406428D01*
X146521645Y-87594786D01*
X146543413Y-87627364D01*
X146529795Y-87647744D01*
X146451774Y-87836102D01*
X146412000Y-88036061D01*
X146412000Y-88239939D01*
X146451774Y-88439898D01*
X146529795Y-88628256D01*
X146584079Y-88709499D01*
X146529793Y-88790744D01*
X146451772Y-88979102D01*
X146411998Y-89179061D01*
X146411998Y-89382939D01*
X146451772Y-89582898D01*
X146529793Y-89771256D01*
X146584077Y-89852499D01*
X146529791Y-89933744D01*
X146451770Y-90122102D01*
X146411996Y-90322061D01*
X146411996Y-90525939D01*
X146451770Y-90725898D01*
X146529791Y-90914256D01*
X146643059Y-91083774D01*
X146787222Y-91227937D01*
X146956740Y-91341205D01*
X147145098Y-91419226D01*
X147345057Y-91459000D01*
X147548935Y-91459000D01*
X147748894Y-91419226D01*
X147937252Y-91341205D01*
X148106770Y-91227937D01*
X148250933Y-91083774D01*
X148364201Y-90914256D01*
X148442222Y-90725898D01*
X148481996Y-90525939D01*
X148481996Y-90463801D01*
X152087715Y-86858083D01*
X152116712Y-86834286D01*
X152147055Y-86797313D01*
X152211685Y-86718562D01*
X152282257Y-86586532D01*
X152282668Y-86585176D01*
X152325714Y-86443271D01*
X152336711Y-86331618D01*
X152336711Y-86331608D01*
X152340387Y-86294285D01*
X152336711Y-86256962D01*
X152336711Y-82334690D01*
X152356157Y-82315244D01*
X153083967Y-83043054D01*
X153083968Y-88973135D01*
X153080291Y-89010467D01*
X153083968Y-89047800D01*
X153094965Y-89159453D01*
X153100840Y-89178821D01*
X153138421Y-89302713D01*
X153208993Y-89434743D01*
X153280168Y-89521469D01*
X153303967Y-89550468D01*
X153332965Y-89574266D01*
X154984500Y-91225802D01*
X154984500Y-91287939D01*
X155024274Y-91487898D01*
X155102295Y-91676256D01*
X155215563Y-91845774D01*
X155359726Y-91989937D01*
X155529244Y-92103205D01*
X155717602Y-92181226D01*
X155917561Y-92221000D01*
X156121439Y-92221000D01*
X156321398Y-92181226D01*
X156509756Y-92103205D01*
X156679274Y-91989937D01*
X156823437Y-91845774D01*
X156936705Y-91676256D01*
X157014726Y-91487898D01*
X157054500Y-91287939D01*
X157054500Y-91084061D01*
X157014726Y-90884102D01*
X156936705Y-90695744D01*
X156839991Y-90551001D01*
X156936709Y-90406252D01*
X157014730Y-90217894D01*
X157054504Y-90017935D01*
X157054504Y-89814057D01*
X157014730Y-89614098D01*
X156936709Y-89425740D01*
X156836977Y-89276480D01*
X156930685Y-89136236D01*
X157008706Y-88947878D01*
X157048480Y-88747919D01*
X157048480Y-88544041D01*
X157008706Y-88344082D01*
X156930685Y-88155724D01*
X156923861Y-88145512D01*
X156963999Y-88085441D01*
X157042020Y-87897083D01*
X157081794Y-87697124D01*
X157081794Y-87493246D01*
X157042020Y-87293287D01*
X156963999Y-87104929D01*
X156850731Y-86935411D01*
X156706568Y-86791248D01*
X156537050Y-86677980D01*
X156406795Y-86624026D01*
X156406795Y-82532117D01*
X156410471Y-82494794D01*
X156406795Y-82457471D01*
X156406795Y-82457462D01*
X156395798Y-82345809D01*
X156352341Y-82202548D01*
X156323808Y-82149167D01*
X156281769Y-82070518D01*
X156210594Y-81983792D01*
X156186796Y-81954794D01*
X156157799Y-81930997D01*
X153288954Y-79062153D01*
X153426475Y-78924632D01*
X153543000Y-78750240D01*
X153659525Y-78924632D01*
X153866368Y-79131475D01*
X154109589Y-79293990D01*
X154379842Y-79405932D01*
X154666740Y-79463000D01*
X154959260Y-79463000D01*
X155246158Y-79405932D01*
X155516411Y-79293990D01*
X155759632Y-79131475D01*
X155966475Y-78924632D01*
X156083000Y-78750240D01*
X156199525Y-78924632D01*
X156406368Y-79131475D01*
X156649589Y-79293990D01*
X156919842Y-79405932D01*
X157206740Y-79463000D01*
X157499260Y-79463000D01*
X157786158Y-79405932D01*
X158056411Y-79293990D01*
X158299632Y-79131475D01*
X158431487Y-78999620D01*
X158453498Y-79072180D01*
X158512463Y-79182494D01*
X158591815Y-79279185D01*
X158688506Y-79358537D01*
X158798820Y-79417502D01*
X158918518Y-79453812D01*
X159043000Y-79466072D01*
X160743000Y-79466072D01*
X160867482Y-79453812D01*
X160987180Y-79417502D01*
X161097494Y-79358537D01*
X161194185Y-79279185D01*
X161273537Y-79182494D01*
X161332502Y-79072180D01*
X161368812Y-78952482D01*
X161381072Y-78828000D01*
X161381072Y-77128000D01*
X161368812Y-77003518D01*
X161332502Y-76883820D01*
X161273537Y-76773506D01*
X161194185Y-76676815D01*
X161097494Y-76597463D01*
X160987180Y-76538498D01*
X160867482Y-76502188D01*
X160743000Y-76489928D01*
X159043000Y-76489928D01*
X158918518Y-76502188D01*
X158798820Y-76538498D01*
X158688506Y-76597463D01*
X158591815Y-76676815D01*
X158512463Y-76773506D01*
X158453498Y-76883820D01*
X158431487Y-76956380D01*
X158299632Y-76824525D01*
X158056411Y-76662010D01*
X157786158Y-76550068D01*
X157499260Y-76493000D01*
X157206740Y-76493000D01*
X156919842Y-76550068D01*
X156649589Y-76662010D01*
X156406368Y-76824525D01*
X156199525Y-77031368D01*
X156083000Y-77205760D01*
X155966475Y-77031368D01*
X155759632Y-76824525D01*
X155516411Y-76662010D01*
X155246158Y-76550068D01*
X154959260Y-76493000D01*
X154666740Y-76493000D01*
X154379842Y-76550068D01*
X154109589Y-76662010D01*
X153866368Y-76824525D01*
X153659525Y-77031368D01*
X153543000Y-77205760D01*
X153426475Y-77031368D01*
X153219632Y-76824525D01*
X152976411Y-76662010D01*
X152706158Y-76550068D01*
X152419260Y-76493000D01*
X152126740Y-76493000D01*
X151839842Y-76550068D01*
X151569589Y-76662010D01*
X151326368Y-76824525D01*
X151119525Y-77031368D01*
X151003000Y-77205760D01*
X150886475Y-77031368D01*
X150748954Y-76893847D01*
X152118451Y-75524351D01*
X152126740Y-75526000D01*
X152419260Y-75526000D01*
X152706158Y-75468932D01*
X152976411Y-75356990D01*
X153219632Y-75194475D01*
X153426475Y-74987632D01*
X153543000Y-74813240D01*
X153659525Y-74987632D01*
X153866368Y-75194475D01*
X154109589Y-75356990D01*
X154379842Y-75468932D01*
X154666740Y-75526000D01*
X154959260Y-75526000D01*
X155246158Y-75468932D01*
X155516411Y-75356990D01*
X155759632Y-75194475D01*
X155966475Y-74987632D01*
X156128990Y-74744411D01*
X156240932Y-74474158D01*
X156298000Y-74187260D01*
X156298000Y-73894740D01*
X156240932Y-73607842D01*
X156128990Y-73337589D01*
X155966475Y-73094368D01*
X155834620Y-72962513D01*
X155907180Y-72940502D01*
X156017494Y-72881537D01*
X156114185Y-72802185D01*
X156193537Y-72705494D01*
X156252502Y-72595180D01*
X156288812Y-72475482D01*
X156301072Y-72351000D01*
X156301072Y-70651000D01*
X156288812Y-70526518D01*
X156252502Y-70406820D01*
X156193537Y-70296506D01*
X156114185Y-70199815D01*
X156017494Y-70120463D01*
X155907180Y-70061498D01*
X155787482Y-70025188D01*
X155663000Y-70012928D01*
X153963000Y-70012928D01*
X153838518Y-70025188D01*
X153718820Y-70061498D01*
X153608506Y-70120463D01*
X153511815Y-70199815D01*
X153432463Y-70296506D01*
X153373498Y-70406820D01*
X153351487Y-70479380D01*
X153219632Y-70347525D01*
X152976411Y-70185010D01*
X152706158Y-70073068D01*
X152419260Y-70016000D01*
X152126740Y-70016000D01*
X151839842Y-70073068D01*
X151569589Y-70185010D01*
X151326368Y-70347525D01*
X151119525Y-70554368D01*
X151003000Y-70728760D01*
X150886475Y-70554368D01*
X150679632Y-70347525D01*
X150436411Y-70185010D01*
X150166158Y-70073068D01*
X149879260Y-70016000D01*
X149586740Y-70016000D01*
X149299842Y-70073068D01*
X149029589Y-70185010D01*
X148786368Y-70347525D01*
X148579525Y-70554368D01*
X148463000Y-70728760D01*
X148346475Y-70554368D01*
X148139632Y-70347525D01*
X147896411Y-70185010D01*
X147626158Y-70073068D01*
X147339260Y-70016000D01*
X147046740Y-70016000D01*
X146759842Y-70073068D01*
X146489589Y-70185010D01*
X146246368Y-70347525D01*
X146039525Y-70554368D01*
X145923000Y-70728760D01*
X145806475Y-70554368D01*
X145599632Y-70347525D01*
X145356411Y-70185010D01*
X145086158Y-70073068D01*
X144799260Y-70016000D01*
X144506740Y-70016000D01*
X144219842Y-70073068D01*
X143949589Y-70185010D01*
X143706368Y-70347525D01*
X143499525Y-70554368D01*
X143383000Y-70728760D01*
X143266475Y-70554368D01*
X143059632Y-70347525D01*
X142816411Y-70185010D01*
X142546158Y-70073068D01*
X142259260Y-70016000D01*
X141966740Y-70016000D01*
X141679842Y-70073068D01*
X141409589Y-70185010D01*
X141320404Y-70244602D01*
X139843304Y-68767503D01*
X139819501Y-68738499D01*
X139703776Y-68643526D01*
X139571747Y-68572954D01*
X139428486Y-68529497D01*
X139316833Y-68518500D01*
X139316822Y-68518500D01*
X139279500Y-68514824D01*
X139242178Y-68518500D01*
X118210822Y-68518500D01*
X118173500Y-68514824D01*
X118136177Y-68518500D01*
X118136167Y-68518500D01*
X118024514Y-68529497D01*
X117881253Y-68572954D01*
X117749223Y-68643526D01*
X117665583Y-68712168D01*
X117633499Y-68738499D01*
X117609701Y-68767497D01*
X114043003Y-72334196D01*
X114013999Y-72357999D01*
X113958871Y-72425174D01*
X113919026Y-72473724D01*
X113882396Y-72542253D01*
X113848454Y-72605754D01*
X113804997Y-72749015D01*
X113794000Y-72860668D01*
X113794000Y-72860678D01*
X113790324Y-72898000D01*
X113794000Y-72935323D01*
X113794001Y-79083668D01*
X113790324Y-79121000D01*
X113794001Y-79158333D01*
X113804998Y-79269986D01*
X113814705Y-79301986D01*
X113848454Y-79413246D01*
X113919026Y-79545276D01*
X113977432Y-79616443D01*
X114014000Y-79661001D01*
X114042998Y-79684799D01*
X114785127Y-80426928D01*
X113704000Y-80426928D01*
X113579518Y-80439188D01*
X113459820Y-80475498D01*
X113349506Y-80534463D01*
X113252815Y-80613815D01*
X113173463Y-80710506D01*
X113114498Y-80820820D01*
X113078188Y-80940518D01*
X113065928Y-81065000D01*
X112508500Y-81065000D01*
X112508500Y-70845109D01*
X112509701Y-70845911D01*
X112831586Y-70979240D01*
X113173297Y-71047211D01*
X113521703Y-71047211D01*
X113863414Y-70979240D01*
X114185299Y-70845911D01*
X114474988Y-70652348D01*
X114721348Y-70405988D01*
X114914911Y-70116299D01*
X115048240Y-69794414D01*
X115116211Y-69452703D01*
X115116211Y-69104297D01*
X115048240Y-68762586D01*
X114914911Y-68440701D01*
X114914109Y-68439500D01*
X162110316Y-68439500D01*
X162099665Y-68455441D01*
%TA.AperFunction,Conductor*%
D15*
G36*
X162099665Y-68455441D02*
G01*
X161968682Y-68771663D01*
X161901907Y-69107362D01*
X161901907Y-69449638D01*
X161968682Y-69785337D01*
X162099665Y-70101559D01*
X162289824Y-70386151D01*
X162531849Y-70628176D01*
X162816441Y-70818335D01*
X163132663Y-70949318D01*
X163468362Y-71016093D01*
X163810638Y-71016093D01*
X164146337Y-70949318D01*
X164462559Y-70818335D01*
X164478500Y-70807683D01*
X164478501Y-94127892D01*
X164477299Y-94127089D01*
X164155414Y-93993760D01*
X163813703Y-93925789D01*
X163465297Y-93925789D01*
X163123586Y-93993760D01*
X162801701Y-94127089D01*
X162512012Y-94320652D01*
X162265652Y-94567012D01*
X162072089Y-94856701D01*
X161938760Y-95178586D01*
X161870789Y-95520297D01*
X161870789Y-95868703D01*
X161938760Y-96210414D01*
X162072089Y-96532299D01*
X162072891Y-96533500D01*
X114876684Y-96533500D01*
X114887335Y-96517559D01*
X115018318Y-96201337D01*
X115085093Y-95865638D01*
X115085093Y-95523362D01*
X115018318Y-95187663D01*
X114887335Y-94871441D01*
X114697176Y-94586849D01*
X114455151Y-94344824D01*
X114170559Y-94154665D01*
X113854337Y-94023682D01*
X113518638Y-93956907D01*
X113176362Y-93956907D01*
X112840663Y-94023682D01*
X112524441Y-94154665D01*
X112508500Y-94165316D01*
X112508500Y-86848740D01*
X113069000Y-86848740D01*
X113069000Y-87141260D01*
X113126068Y-87428158D01*
X113238010Y-87698411D01*
X113400525Y-87941632D01*
X113607368Y-88148475D01*
X113781760Y-88265000D01*
X113607368Y-88381525D01*
X113400525Y-88588368D01*
X113238010Y-88831589D01*
X113126068Y-89101842D01*
X113069000Y-89388740D01*
X113069000Y-89681260D01*
X113126068Y-89968158D01*
X113238010Y-90238411D01*
X113400525Y-90481632D01*
X113607368Y-90688475D01*
X113781760Y-90805000D01*
X113607368Y-90921525D01*
X113400525Y-91128368D01*
X113238010Y-91371589D01*
X113126068Y-91641842D01*
X113069000Y-91928740D01*
X113069000Y-92221260D01*
X113126068Y-92508158D01*
X113238010Y-92778411D01*
X113400525Y-93021632D01*
X113607368Y-93228475D01*
X113850589Y-93390990D01*
X114120842Y-93502932D01*
X114407740Y-93560000D01*
X114700260Y-93560000D01*
X114987158Y-93502932D01*
X115257411Y-93390990D01*
X115500632Y-93228475D01*
X115707475Y-93021632D01*
X115869990Y-92778411D01*
X115981932Y-92508158D01*
X116025215Y-92290561D01*
X116884512Y-92290561D01*
X116884512Y-92494439D01*
X116924286Y-92694398D01*
X117002307Y-92882756D01*
X117115575Y-93052274D01*
X117259738Y-93196437D01*
X117429256Y-93309705D01*
X117617614Y-93387726D01*
X117817573Y-93427500D01*
X117879711Y-93427500D01*
X120213213Y-95761003D01*
X120237011Y-95790001D01*
X120352736Y-95884974D01*
X120484765Y-95955546D01*
X120628026Y-95999003D01*
X120739679Y-96010000D01*
X120739688Y-96010000D01*
X120777011Y-96013676D01*
X120814334Y-96010000D01*
X133820667Y-96010000D01*
X133858000Y-96013677D01*
X133895333Y-96010000D01*
X147409667Y-96010000D01*
X147447000Y-96013677D01*
X147484333Y-96010000D01*
X156807684Y-96010000D01*
X156845006Y-96013676D01*
X156882328Y-96010000D01*
X156882339Y-96010000D01*
X156993992Y-95999003D01*
X157137253Y-95955546D01*
X157269282Y-95884974D01*
X157385007Y-95790001D01*
X157408810Y-95760997D01*
X158678805Y-94491003D01*
X158678809Y-94490998D01*
X158916805Y-94253003D01*
X158978942Y-94253003D01*
X159178901Y-94213229D01*
X159367259Y-94135208D01*
X159536777Y-94021940D01*
X159680940Y-93877777D01*
X159794208Y-93708259D01*
X159872229Y-93519901D01*
X159912003Y-93319942D01*
X159912003Y-93257804D01*
X160863232Y-92306575D01*
X160878068Y-92381158D01*
X160990010Y-92651411D01*
X161152525Y-92894632D01*
X161359368Y-93101475D01*
X161602589Y-93263990D01*
X161872842Y-93375932D01*
X162159740Y-93433000D01*
X162452260Y-93433000D01*
X162739158Y-93375932D01*
X163009411Y-93263990D01*
X163252632Y-93101475D01*
X163459475Y-92894632D01*
X163621990Y-92651411D01*
X163733932Y-92381158D01*
X163791000Y-92094260D01*
X163791000Y-91801740D01*
X163733932Y-91514842D01*
X163621990Y-91244589D01*
X163459475Y-91001368D01*
X163252632Y-90794525D01*
X163078240Y-90678000D01*
X163252632Y-90561475D01*
X163459475Y-90354632D01*
X163621990Y-90111411D01*
X163733932Y-89841158D01*
X163791000Y-89554260D01*
X163791000Y-89261740D01*
X163733932Y-88974842D01*
X163621990Y-88704589D01*
X163459475Y-88461368D01*
X163252632Y-88254525D01*
X163078240Y-88138000D01*
X163252632Y-88021475D01*
X163459475Y-87814632D01*
X163621990Y-87571411D01*
X163733932Y-87301158D01*
X163791000Y-87014260D01*
X163791000Y-86721740D01*
X163733932Y-86434842D01*
X163621990Y-86164589D01*
X163459475Y-85921368D01*
X163252632Y-85714525D01*
X163070466Y-85592805D01*
X163187355Y-85523178D01*
X163403588Y-85328269D01*
X163577641Y-85094920D01*
X163702825Y-84832099D01*
X163747476Y-84684890D01*
X163626155Y-84455000D01*
X162433000Y-84455000D01*
X162433000Y-84475000D01*
X162179000Y-84475000D01*
X162179000Y-84455000D01*
X162159000Y-84455000D01*
X162159000Y-84201000D01*
X162179000Y-84201000D01*
X162179000Y-84181000D01*
X162433000Y-84181000D01*
X162433000Y-84201000D01*
X163626155Y-84201000D01*
X163747476Y-83971110D01*
X163702825Y-83823901D01*
X163577641Y-83561080D01*
X163403588Y-83327731D01*
X163319534Y-83251966D01*
X163400180Y-83227502D01*
X163510494Y-83168537D01*
X163607185Y-83089185D01*
X163686537Y-82992494D01*
X163745502Y-82882180D01*
X163781812Y-82762482D01*
X163794072Y-82638000D01*
X163794072Y-80938000D01*
X163781812Y-80813518D01*
X163745502Y-80693820D01*
X163686537Y-80583506D01*
X163607185Y-80486815D01*
X163510494Y-80407463D01*
X163400180Y-80348498D01*
X163280482Y-80312188D01*
X163156000Y-80299928D01*
X161456000Y-80299928D01*
X161413727Y-80304091D01*
X161396226Y-80216106D01*
X161318205Y-80027748D01*
X161204937Y-79858230D01*
X161060774Y-79714067D01*
X160891256Y-79600799D01*
X160702898Y-79522778D01*
X160502939Y-79483004D01*
X160299061Y-79483004D01*
X160099102Y-79522778D01*
X159910744Y-79600799D01*
X159741226Y-79714067D01*
X159597063Y-79858230D01*
X159483795Y-80027748D01*
X159405774Y-80216106D01*
X159366000Y-80416065D01*
X159366000Y-80619943D01*
X159405774Y-80819902D01*
X159483795Y-81008260D01*
X159597063Y-81177778D01*
X159641001Y-81221716D01*
X159641000Y-91379204D01*
X158837202Y-92183003D01*
X158775064Y-92183003D01*
X158575105Y-92222777D01*
X158386747Y-92300798D01*
X158217229Y-92414066D01*
X158073066Y-92558229D01*
X157959798Y-92727747D01*
X157881777Y-92916105D01*
X157842003Y-93116064D01*
X157842003Y-93178201D01*
X157604008Y-93416197D01*
X157604003Y-93416201D01*
X156530205Y-94490000D01*
X148451356Y-94490000D01*
X148482000Y-94335939D01*
X148482000Y-94132061D01*
X148442226Y-93932102D01*
X148364205Y-93743744D01*
X148250937Y-93574226D01*
X148106774Y-93430063D01*
X147937256Y-93316795D01*
X147748898Y-93238774D01*
X147548939Y-93199000D01*
X147345061Y-93199000D01*
X147145102Y-93238774D01*
X146956744Y-93316795D01*
X146787226Y-93430063D01*
X146643063Y-93574226D01*
X146529795Y-93743744D01*
X146451774Y-93932102D01*
X146412000Y-94132061D01*
X146412000Y-94335939D01*
X146442644Y-94490000D01*
X134869713Y-94490000D01*
X134893000Y-94372929D01*
X134893000Y-94169051D01*
X134853226Y-93969092D01*
X134775205Y-93780734D01*
X134661937Y-93611216D01*
X134517774Y-93467053D01*
X134348256Y-93353785D01*
X134159898Y-93275764D01*
X133959939Y-93235990D01*
X133756061Y-93235990D01*
X133556102Y-93275764D01*
X133367744Y-93353785D01*
X133198226Y-93467053D01*
X133054063Y-93611216D01*
X132940795Y-93780734D01*
X132862774Y-93969092D01*
X132823000Y-94169051D01*
X132823000Y-94372929D01*
X132846287Y-94490000D01*
X121091814Y-94490000D01*
X118954512Y-92352699D01*
X118954512Y-92290561D01*
X118914738Y-92090602D01*
X118836717Y-91902244D01*
X118723449Y-91732726D01*
X118579286Y-91588563D01*
X118409768Y-91475295D01*
X118221410Y-91397274D01*
X118021451Y-91357500D01*
X117817573Y-91357500D01*
X117617614Y-91397274D01*
X117429256Y-91475295D01*
X117259738Y-91588563D01*
X117115575Y-91732726D01*
X117002307Y-91902244D01*
X116924286Y-92090602D01*
X116884512Y-92290561D01*
X116025215Y-92290561D01*
X116039000Y-92221260D01*
X116039000Y-91928740D01*
X115981932Y-91641842D01*
X115869990Y-91371589D01*
X115707475Y-91128368D01*
X115500632Y-90921525D01*
X115326240Y-90805000D01*
X115500632Y-90688475D01*
X115707475Y-90481632D01*
X115869990Y-90238411D01*
X115981932Y-89968158D01*
X116039000Y-89681260D01*
X116039000Y-89388740D01*
X115981932Y-89101842D01*
X115869990Y-88831589D01*
X115707475Y-88588368D01*
X115500632Y-88381525D01*
X115326240Y-88265000D01*
X115500632Y-88148475D01*
X115707475Y-87941632D01*
X115869990Y-87698411D01*
X115981932Y-87428158D01*
X116039000Y-87141260D01*
X116039000Y-86848740D01*
X115981932Y-86561842D01*
X115869990Y-86291589D01*
X115707475Y-86048368D01*
X115500632Y-85841525D01*
X115318466Y-85719805D01*
X115435355Y-85650178D01*
X115651588Y-85455269D01*
X115825641Y-85221920D01*
X115950825Y-84959099D01*
X115995476Y-84811890D01*
X115874155Y-84582000D01*
X114681000Y-84582000D01*
X114681000Y-84602000D01*
X114427000Y-84602000D01*
X114427000Y-84582000D01*
X113233845Y-84582000D01*
X113112524Y-84811890D01*
X113157175Y-84959099D01*
X113282359Y-85221920D01*
X113456412Y-85455269D01*
X113672645Y-85650178D01*
X113789534Y-85719805D01*
X113607368Y-85841525D01*
X113400525Y-86048368D01*
X113238010Y-86291589D01*
X113126068Y-86561842D01*
X113069000Y-86848740D01*
X112508500Y-86848740D01*
X112508500Y-81065000D01*
X113065928Y-81065000D01*
X113065928Y-82765000D01*
X113078188Y-82889482D01*
X113114498Y-83009180D01*
X113173463Y-83119494D01*
X113252815Y-83216185D01*
X113349506Y-83295537D01*
X113459820Y-83354502D01*
X113540466Y-83378966D01*
X113456412Y-83454731D01*
X113282359Y-83688080D01*
X113157175Y-83950901D01*
X113112524Y-84098110D01*
X113233845Y-84328000D01*
X114427000Y-84328000D01*
X114427000Y-84308000D01*
X114681000Y-84308000D01*
X114681000Y-84328000D01*
X115874155Y-84328000D01*
X115995476Y-84098110D01*
X115950825Y-83950901D01*
X115825641Y-83688080D01*
X115651588Y-83454731D01*
X115567534Y-83378966D01*
X115648180Y-83354502D01*
X115758494Y-83295537D01*
X115855185Y-83216185D01*
X115934537Y-83119494D01*
X115993502Y-83009180D01*
X116029812Y-82889482D01*
X116042072Y-82765000D01*
X116042072Y-81683874D01*
X117921500Y-83563303D01*
X117921501Y-89053168D01*
X117917824Y-89090500D01*
X117921501Y-89127833D01*
X117932498Y-89239486D01*
X117942359Y-89271995D01*
X117975954Y-89382746D01*
X118046526Y-89514776D01*
X118098630Y-89578264D01*
X118141500Y-89630501D01*
X118170498Y-89654299D01*
X119716600Y-91200403D01*
X119716600Y-91262539D01*
X119756374Y-91462498D01*
X119834395Y-91650856D01*
X119947663Y-91820374D01*
X120091826Y-91964537D01*
X120261344Y-92077805D01*
X120449702Y-92155826D01*
X120649661Y-92195600D01*
X120853539Y-92195600D01*
X121053498Y-92155826D01*
X121241856Y-92077805D01*
X121411374Y-91964537D01*
X121555537Y-91820374D01*
X121668805Y-91650856D01*
X121746826Y-91462498D01*
X121786600Y-91262539D01*
X121786600Y-91058661D01*
X121746826Y-90858702D01*
X121668805Y-90670344D01*
X121555537Y-90500826D01*
X121537283Y-90482572D01*
X121630705Y-90342756D01*
X121708726Y-90154398D01*
X121748500Y-89954439D01*
X121748500Y-89750561D01*
X121708726Y-89550602D01*
X121630705Y-89362244D01*
X121533990Y-89217500D01*
X121630705Y-89072756D01*
X121708726Y-88884398D01*
X121748500Y-88684439D01*
X121748500Y-88480561D01*
X121708726Y-88280602D01*
X121630705Y-88092244D01*
X121527669Y-87938040D01*
X121592605Y-87840856D01*
X121670626Y-87652498D01*
X121710400Y-87452539D01*
X121710400Y-87248661D01*
X121670626Y-87048702D01*
X121592605Y-86860344D01*
X121479337Y-86690826D01*
X121335174Y-86546663D01*
X121165656Y-86433395D01*
X120977298Y-86355374D01*
X120902000Y-86340396D01*
X120902000Y-82821464D01*
X120905676Y-82784141D01*
X120902000Y-82746818D01*
X120902000Y-82746808D01*
X120891003Y-82635155D01*
X120847546Y-82491894D01*
X120829142Y-82457463D01*
X120776974Y-82359864D01*
X120705799Y-82273138D01*
X120682001Y-82244140D01*
X120653004Y-82220343D01*
X118759533Y-80326873D01*
X118759533Y-79380951D01*
X118819842Y-79405932D01*
X119106740Y-79463000D01*
X119399260Y-79463000D01*
X119686158Y-79405932D01*
X119719373Y-79392174D01*
X121483200Y-81156002D01*
X121506999Y-81185001D01*
X121535997Y-81208799D01*
X121622724Y-81279974D01*
X121754753Y-81350546D01*
X121806390Y-81366210D01*
X121774001Y-81529040D01*
X121774001Y-81732918D01*
X121813775Y-81932877D01*
X121891796Y-82121235D01*
X122005064Y-82290753D01*
X122049001Y-82334690D01*
X122049001Y-82639666D01*
X122045325Y-82676989D01*
X122049001Y-82714311D01*
X122049001Y-82714321D01*
X122059998Y-82825974D01*
X122088293Y-82919251D01*
X122103455Y-82969235D01*
X122174027Y-83101265D01*
X122201045Y-83134186D01*
X122269000Y-83216990D01*
X122298004Y-83240793D01*
X128251000Y-89193790D01*
X128251000Y-89255927D01*
X128290774Y-89455886D01*
X128368795Y-89644244D01*
X128423081Y-89725489D01*
X128368795Y-89806734D01*
X128290774Y-89995092D01*
X128251000Y-90195051D01*
X128251000Y-90398929D01*
X128290774Y-90598888D01*
X128368795Y-90787246D01*
X128431990Y-90881825D01*
X128386615Y-90949734D01*
X128308594Y-91138092D01*
X128268820Y-91338051D01*
X128268820Y-91541929D01*
X128308594Y-91741888D01*
X128386615Y-91930246D01*
X128431991Y-91998156D01*
X128368789Y-92092744D01*
X128290768Y-92281102D01*
X128250994Y-92481061D01*
X128250994Y-92684939D01*
X128290768Y-92884898D01*
X128368789Y-93073256D01*
X128482057Y-93242774D01*
X128626220Y-93386937D01*
X128795738Y-93500205D01*
X128984096Y-93578226D01*
X129184055Y-93618000D01*
X129387933Y-93618000D01*
X129587892Y-93578226D01*
X129776250Y-93500205D01*
X129945768Y-93386937D01*
X130089931Y-93242774D01*
X130203199Y-93073256D01*
X130281220Y-92884898D01*
X130320994Y-92684939D01*
X130320994Y-92622801D01*
X131628777Y-91315019D01*
X131657774Y-91291222D01*
X131752747Y-91175497D01*
X131823319Y-91043468D01*
X131866776Y-90900207D01*
X131877773Y-90788554D01*
X131877773Y-90788546D01*
X131881449Y-90751221D01*
X131877773Y-90713896D01*
X131877773Y-85786074D01*
X131881449Y-85748751D01*
X131877773Y-85711428D01*
X131877773Y-85711419D01*
X131866776Y-85599766D01*
X131823319Y-85456505D01*
X131752747Y-85324476D01*
X131694031Y-85252930D01*
X131681572Y-85237748D01*
X131681568Y-85237744D01*
X131657774Y-85208751D01*
X131628781Y-85184957D01*
X128035000Y-81591178D01*
X128035000Y-81529040D01*
X128010327Y-81405000D01*
X131189066Y-81405000D01*
X131189066Y-81589522D01*
X131228840Y-81789481D01*
X131306861Y-81977839D01*
X131420129Y-82147357D01*
X131564292Y-82291520D01*
X131733810Y-82404788D01*
X131922168Y-82482809D01*
X132122127Y-82522583D01*
X132184265Y-82522583D01*
X133225001Y-83563320D01*
X133225000Y-86279988D01*
X133202886Y-86294764D01*
X133058723Y-86438927D01*
X132945455Y-86608445D01*
X132867434Y-86796803D01*
X132827660Y-86996762D01*
X132827660Y-87200640D01*
X132867434Y-87400599D01*
X132945455Y-87588957D01*
X132960424Y-87611361D01*
X132945455Y-87633764D01*
X132867434Y-87822122D01*
X132827660Y-88022081D01*
X132827660Y-88225959D01*
X132867434Y-88425918D01*
X132945455Y-88614276D01*
X132960425Y-88636680D01*
X132945455Y-88659084D01*
X132867434Y-88847442D01*
X132827660Y-89047401D01*
X132827660Y-89251279D01*
X132867434Y-89451238D01*
X132945455Y-89639596D01*
X132956538Y-89656183D01*
X132940795Y-89679744D01*
X132862774Y-89868102D01*
X132823000Y-90068061D01*
X132823000Y-90271939D01*
X132862774Y-90471898D01*
X132940795Y-90660256D01*
X133054063Y-90829774D01*
X133198226Y-90973937D01*
X133367744Y-91087205D01*
X133556102Y-91165226D01*
X133756061Y-91205000D01*
X133959939Y-91205000D01*
X134159898Y-91165226D01*
X134348256Y-91087205D01*
X134517774Y-90973937D01*
X134572724Y-90918987D01*
X134715932Y-90875546D01*
X134847961Y-90804974D01*
X134963686Y-90710001D01*
X134987489Y-90680997D01*
X137480503Y-88187984D01*
X137509501Y-88164186D01*
X137546594Y-88118988D01*
X137604474Y-88048462D01*
X137675046Y-87916432D01*
X137680915Y-87897083D01*
X137718503Y-87773171D01*
X137729500Y-87661518D01*
X137729500Y-87661509D01*
X137733176Y-87624186D01*
X137729500Y-87586863D01*
X137729500Y-82174211D01*
X137773437Y-82130274D01*
X137886705Y-81960756D01*
X137964726Y-81772398D01*
X138004500Y-81572439D01*
X138004500Y-81405000D01*
X138621577Y-81405000D01*
X138621578Y-85058243D01*
X138617901Y-85095575D01*
X138621578Y-85132908D01*
X138629253Y-85210827D01*
X138632575Y-85244560D01*
X138676031Y-85387821D01*
X138746603Y-85519851D01*
X138817778Y-85606577D01*
X138841577Y-85635576D01*
X138870575Y-85659374D01*
X139347501Y-86136301D01*
X139347502Y-89905165D01*
X139343825Y-89942497D01*
X139347502Y-89979830D01*
X139358499Y-90091483D01*
X139363103Y-90106659D01*
X139401955Y-90234743D01*
X139472527Y-90366773D01*
X139543702Y-90453499D01*
X139567501Y-90482498D01*
X139596499Y-90506296D01*
X141713004Y-92622802D01*
X141713004Y-92684939D01*
X141752778Y-92884898D01*
X141830799Y-93073256D01*
X141944067Y-93242774D01*
X142088230Y-93386937D01*
X142257748Y-93500205D01*
X142446106Y-93578226D01*
X142646065Y-93618000D01*
X142849943Y-93618000D01*
X143049902Y-93578226D01*
X143238260Y-93500205D01*
X143407778Y-93386937D01*
X143551941Y-93242774D01*
X143665209Y-93073256D01*
X143743230Y-92884898D01*
X143783004Y-92684939D01*
X143783004Y-92481061D01*
X143743230Y-92281102D01*
X143665209Y-92092744D01*
X143610922Y-92011497D01*
X143665205Y-91930256D01*
X143743226Y-91741898D01*
X143783000Y-91541939D01*
X143783000Y-91338061D01*
X143743226Y-91138102D01*
X143665205Y-90949744D01*
X143610923Y-90868505D01*
X143665205Y-90787266D01*
X143743226Y-90598908D01*
X143783000Y-90398949D01*
X143783000Y-90195071D01*
X143743226Y-89995112D01*
X143665205Y-89806754D01*
X143653350Y-89789011D01*
X143665205Y-89771268D01*
X143743226Y-89582910D01*
X143783000Y-89382951D01*
X143783000Y-89179073D01*
X143743226Y-88979114D01*
X143665205Y-88790756D01*
X143551937Y-88621238D01*
X143407774Y-88477075D01*
X143238256Y-88363807D01*
X143049898Y-88285786D01*
X142849939Y-88246012D01*
X142787802Y-88246012D01*
X142365000Y-87823211D01*
X142365000Y-83921367D01*
X142368676Y-83884042D01*
X142365000Y-83846717D01*
X142365000Y-83846709D01*
X142354003Y-83735056D01*
X142310546Y-83591795D01*
X142239974Y-83459766D01*
X142145001Y-83344041D01*
X142116004Y-83320244D01*
X141603000Y-82807241D01*
X141603000Y-80891479D01*
X141630253Y-80906046D01*
X141773514Y-80949503D01*
X141885167Y-80960500D01*
X141885175Y-80960500D01*
X141922500Y-80964176D01*
X141959825Y-80960500D01*
X145414877Y-80960500D01*
X145774376Y-81320000D01*
X145798175Y-81348999D01*
X145827173Y-81372797D01*
X145913899Y-81443972D01*
X145981596Y-81480157D01*
X146045929Y-81514544D01*
X146189190Y-81558001D01*
X146300843Y-81568998D01*
X146300852Y-81568998D01*
X146338175Y-81572674D01*
X146375498Y-81568998D01*
X147382392Y-81568998D01*
X147382392Y-81721158D01*
X147422166Y-81921117D01*
X147500187Y-82109475D01*
X147613455Y-82278993D01*
X147657392Y-82322930D01*
X147657393Y-85811185D01*
X147399048Y-86069530D01*
X147336911Y-86069530D01*
X147136952Y-86109304D01*
X146948594Y-86187325D01*
X146779076Y-86300593D01*
X146634913Y-86444756D01*
X146521645Y-86614274D01*
X146443624Y-86802632D01*
X146403850Y-87002591D01*
X146403850Y-87206469D01*
X146443624Y-87406428D01*
X146521645Y-87594786D01*
X146543413Y-87627364D01*
X146529795Y-87647744D01*
X146451774Y-87836102D01*
X146412000Y-88036061D01*
X146412000Y-88239939D01*
X146451774Y-88439898D01*
X146529795Y-88628256D01*
X146584079Y-88709499D01*
X146529793Y-88790744D01*
X146451772Y-88979102D01*
X146411998Y-89179061D01*
X146411998Y-89382939D01*
X146451772Y-89582898D01*
X146529793Y-89771256D01*
X146584077Y-89852499D01*
X146529791Y-89933744D01*
X146451770Y-90122102D01*
X146411996Y-90322061D01*
X146411996Y-90525939D01*
X146451770Y-90725898D01*
X146529791Y-90914256D01*
X146643059Y-91083774D01*
X146787222Y-91227937D01*
X146956740Y-91341205D01*
X147145098Y-91419226D01*
X147345057Y-91459000D01*
X147548935Y-91459000D01*
X147748894Y-91419226D01*
X147937252Y-91341205D01*
X148106770Y-91227937D01*
X148250933Y-91083774D01*
X148364201Y-90914256D01*
X148442222Y-90725898D01*
X148481996Y-90525939D01*
X148481996Y-90463801D01*
X152087715Y-86858083D01*
X152116712Y-86834286D01*
X152147055Y-86797313D01*
X152211685Y-86718562D01*
X152282257Y-86586532D01*
X152282668Y-86585176D01*
X152325714Y-86443271D01*
X152336711Y-86331618D01*
X152336711Y-86331608D01*
X152340387Y-86294285D01*
X152336711Y-86256962D01*
X152336711Y-82334690D01*
X152356157Y-82315244D01*
X153083967Y-83043054D01*
X153083968Y-88973135D01*
X153080291Y-89010467D01*
X153083968Y-89047800D01*
X153094965Y-89159453D01*
X153100840Y-89178821D01*
X153138421Y-89302713D01*
X153208993Y-89434743D01*
X153280168Y-89521469D01*
X153303967Y-89550468D01*
X153332965Y-89574266D01*
X154984500Y-91225802D01*
X154984500Y-91287939D01*
X155024274Y-91487898D01*
X155102295Y-91676256D01*
X155215563Y-91845774D01*
X155359726Y-91989937D01*
X155529244Y-92103205D01*
X155717602Y-92181226D01*
X155917561Y-92221000D01*
X156121439Y-92221000D01*
X156321398Y-92181226D01*
X156509756Y-92103205D01*
X156679274Y-91989937D01*
X156823437Y-91845774D01*
X156936705Y-91676256D01*
X157014726Y-91487898D01*
X157054500Y-91287939D01*
X157054500Y-91084061D01*
X157014726Y-90884102D01*
X156936705Y-90695744D01*
X156839991Y-90551001D01*
X156936709Y-90406252D01*
X157014730Y-90217894D01*
X157054504Y-90017935D01*
X157054504Y-89814057D01*
X157014730Y-89614098D01*
X156936709Y-89425740D01*
X156836977Y-89276480D01*
X156930685Y-89136236D01*
X157008706Y-88947878D01*
X157048480Y-88747919D01*
X157048480Y-88544041D01*
X157008706Y-88344082D01*
X156930685Y-88155724D01*
X156923861Y-88145512D01*
X156963999Y-88085441D01*
X157042020Y-87897083D01*
X157081794Y-87697124D01*
X157081794Y-87493246D01*
X157042020Y-87293287D01*
X156963999Y-87104929D01*
X156850731Y-86935411D01*
X156706568Y-86791248D01*
X156537050Y-86677980D01*
X156406795Y-86624026D01*
X156406795Y-82532117D01*
X156410471Y-82494794D01*
X156406795Y-82457471D01*
X156406795Y-82457462D01*
X156395798Y-82345809D01*
X156352341Y-82202548D01*
X156323808Y-82149167D01*
X156281769Y-82070518D01*
X156210594Y-81983792D01*
X156186796Y-81954794D01*
X156157799Y-81930997D01*
X153288954Y-79062153D01*
X153426475Y-78924632D01*
X153543000Y-78750240D01*
X153659525Y-78924632D01*
X153866368Y-79131475D01*
X154109589Y-79293990D01*
X154379842Y-79405932D01*
X154666740Y-79463000D01*
X154959260Y-79463000D01*
X155246158Y-79405932D01*
X155516411Y-79293990D01*
X155759632Y-79131475D01*
X155966475Y-78924632D01*
X156083000Y-78750240D01*
X156199525Y-78924632D01*
X156406368Y-79131475D01*
X156649589Y-79293990D01*
X156919842Y-79405932D01*
X157206740Y-79463000D01*
X157499260Y-79463000D01*
X157786158Y-79405932D01*
X158056411Y-79293990D01*
X158299632Y-79131475D01*
X158431487Y-78999620D01*
X158453498Y-79072180D01*
X158512463Y-79182494D01*
X158591815Y-79279185D01*
X158688506Y-79358537D01*
X158798820Y-79417502D01*
X158918518Y-79453812D01*
X159043000Y-79466072D01*
X160743000Y-79466072D01*
X160867482Y-79453812D01*
X160987180Y-79417502D01*
X161097494Y-79358537D01*
X161194185Y-79279185D01*
X161273537Y-79182494D01*
X161332502Y-79072180D01*
X161368812Y-78952482D01*
X161381072Y-78828000D01*
X161381072Y-77128000D01*
X161368812Y-77003518D01*
X161332502Y-76883820D01*
X161273537Y-76773506D01*
X161194185Y-76676815D01*
X161097494Y-76597463D01*
X160987180Y-76538498D01*
X160867482Y-76502188D01*
X160743000Y-76489928D01*
X159043000Y-76489928D01*
X158918518Y-76502188D01*
X158798820Y-76538498D01*
X158688506Y-76597463D01*
X158591815Y-76676815D01*
X158512463Y-76773506D01*
X158453498Y-76883820D01*
X158431487Y-76956380D01*
X158299632Y-76824525D01*
X158056411Y-76662010D01*
X157786158Y-76550068D01*
X157499260Y-76493000D01*
X157206740Y-76493000D01*
X156919842Y-76550068D01*
X156649589Y-76662010D01*
X156406368Y-76824525D01*
X156199525Y-77031368D01*
X156083000Y-77205760D01*
X155966475Y-77031368D01*
X155759632Y-76824525D01*
X155516411Y-76662010D01*
X155246158Y-76550068D01*
X154959260Y-76493000D01*
X154666740Y-76493000D01*
X154379842Y-76550068D01*
X154109589Y-76662010D01*
X153866368Y-76824525D01*
X153659525Y-77031368D01*
X153543000Y-77205760D01*
X153426475Y-77031368D01*
X153219632Y-76824525D01*
X152976411Y-76662010D01*
X152706158Y-76550068D01*
X152419260Y-76493000D01*
X152126740Y-76493000D01*
X151839842Y-76550068D01*
X151569589Y-76662010D01*
X151326368Y-76824525D01*
X151119525Y-77031368D01*
X151003000Y-77205760D01*
X150886475Y-77031368D01*
X150748954Y-76893847D01*
X152118451Y-75524351D01*
X152126740Y-75526000D01*
X152419260Y-75526000D01*
X152706158Y-75468932D01*
X152976411Y-75356990D01*
X153219632Y-75194475D01*
X153426475Y-74987632D01*
X153543000Y-74813240D01*
X153659525Y-74987632D01*
X153866368Y-75194475D01*
X154109589Y-75356990D01*
X154379842Y-75468932D01*
X154666740Y-75526000D01*
X154959260Y-75526000D01*
X155246158Y-75468932D01*
X155516411Y-75356990D01*
X155759632Y-75194475D01*
X155966475Y-74987632D01*
X156128990Y-74744411D01*
X156240932Y-74474158D01*
X156298000Y-74187260D01*
X156298000Y-73894740D01*
X156240932Y-73607842D01*
X156128990Y-73337589D01*
X155966475Y-73094368D01*
X155834620Y-72962513D01*
X155907180Y-72940502D01*
X156017494Y-72881537D01*
X156114185Y-72802185D01*
X156193537Y-72705494D01*
X156252502Y-72595180D01*
X156288812Y-72475482D01*
X156301072Y-72351000D01*
X156301072Y-70651000D01*
X156288812Y-70526518D01*
X156252502Y-70406820D01*
X156193537Y-70296506D01*
X156114185Y-70199815D01*
X156017494Y-70120463D01*
X155907180Y-70061498D01*
X155787482Y-70025188D01*
X155663000Y-70012928D01*
X153963000Y-70012928D01*
X153838518Y-70025188D01*
X153718820Y-70061498D01*
X153608506Y-70120463D01*
X153511815Y-70199815D01*
X153432463Y-70296506D01*
X153373498Y-70406820D01*
X153351487Y-70479380D01*
X153219632Y-70347525D01*
X152976411Y-70185010D01*
X152706158Y-70073068D01*
X152419260Y-70016000D01*
X152126740Y-70016000D01*
X151839842Y-70073068D01*
X151569589Y-70185010D01*
X151326368Y-70347525D01*
X151119525Y-70554368D01*
X151003000Y-70728760D01*
X150886475Y-70554368D01*
X150679632Y-70347525D01*
X150436411Y-70185010D01*
X150166158Y-70073068D01*
X149879260Y-70016000D01*
X149586740Y-70016000D01*
X149299842Y-70073068D01*
X149029589Y-70185010D01*
X148786368Y-70347525D01*
X148579525Y-70554368D01*
X148463000Y-70728760D01*
X148346475Y-70554368D01*
X148139632Y-70347525D01*
X147896411Y-70185010D01*
X147626158Y-70073068D01*
X147339260Y-70016000D01*
X147046740Y-70016000D01*
X146759842Y-70073068D01*
X146489589Y-70185010D01*
X146246368Y-70347525D01*
X146039525Y-70554368D01*
X145923000Y-70728760D01*
X145806475Y-70554368D01*
X145599632Y-70347525D01*
X145356411Y-70185010D01*
X145086158Y-70073068D01*
X144799260Y-70016000D01*
X144506740Y-70016000D01*
X144219842Y-70073068D01*
X143949589Y-70185010D01*
X143706368Y-70347525D01*
X143499525Y-70554368D01*
X143383000Y-70728760D01*
X143266475Y-70554368D01*
X143059632Y-70347525D01*
X142816411Y-70185010D01*
X142546158Y-70073068D01*
X142259260Y-70016000D01*
X141966740Y-70016000D01*
X141679842Y-70073068D01*
X141409589Y-70185010D01*
X141320404Y-70244602D01*
X139843304Y-68767503D01*
X139819501Y-68738499D01*
X139703776Y-68643526D01*
X139571747Y-68572954D01*
X139428486Y-68529497D01*
X139316833Y-68518500D01*
X139316822Y-68518500D01*
X139279500Y-68514824D01*
X139242178Y-68518500D01*
X118210822Y-68518500D01*
X118173500Y-68514824D01*
X118136177Y-68518500D01*
X118136167Y-68518500D01*
X118024514Y-68529497D01*
X117881253Y-68572954D01*
X117749223Y-68643526D01*
X117665583Y-68712168D01*
X117633499Y-68738499D01*
X117609701Y-68767497D01*
X114043003Y-72334196D01*
X114013999Y-72357999D01*
X113958871Y-72425174D01*
X113919026Y-72473724D01*
X113882396Y-72542253D01*
X113848454Y-72605754D01*
X113804997Y-72749015D01*
X113794000Y-72860668D01*
X113794000Y-72860678D01*
X113790324Y-72898000D01*
X113794000Y-72935323D01*
X113794001Y-79083668D01*
X113790324Y-79121000D01*
X113794001Y-79158333D01*
X113804998Y-79269986D01*
X113814705Y-79301986D01*
X113848454Y-79413246D01*
X113919026Y-79545276D01*
X113977432Y-79616443D01*
X114014000Y-79661001D01*
X114042998Y-79684799D01*
X114785127Y-80426928D01*
X113704000Y-80426928D01*
X113579518Y-80439188D01*
X113459820Y-80475498D01*
X113349506Y-80534463D01*
X113252815Y-80613815D01*
X113173463Y-80710506D01*
X113114498Y-80820820D01*
X113078188Y-80940518D01*
X113065928Y-81065000D01*
X112508500Y-81065000D01*
X112508500Y-70845109D01*
X112509701Y-70845911D01*
X112831586Y-70979240D01*
X113173297Y-71047211D01*
X113521703Y-71047211D01*
X113863414Y-70979240D01*
X114185299Y-70845911D01*
X114474988Y-70652348D01*
X114721348Y-70405988D01*
X114914911Y-70116299D01*
X115048240Y-69794414D01*
X115116211Y-69452703D01*
X115116211Y-69104297D01*
X115048240Y-68762586D01*
X114914911Y-68440701D01*
X114914109Y-68439500D01*
X162110316Y-68439500D01*
X162099665Y-68455441D01*
G37*
%TD.AperFunction*%
D14*
X120365068Y-71067842D02*
X120308000Y-71354740D01*
X120308000Y-71647260D01*
X120365068Y-71934158D01*
X120423199Y-72074500D01*
X119480825Y-72074500D01*
X119443500Y-72070824D01*
X119406175Y-72074500D01*
X119406167Y-72074500D01*
X119294514Y-72085497D01*
X119151253Y-72128954D01*
X119019224Y-72199526D01*
X118903499Y-72294499D01*
X118879701Y-72323497D01*
X117488536Y-73714663D01*
X117459532Y-73738466D01*
X117417285Y-73789945D01*
X117364559Y-73854191D01*
X117334195Y-73910998D01*
X117293987Y-73986221D01*
X117250530Y-74129482D01*
X117239533Y-74241135D01*
X117239533Y-74241145D01*
X117235857Y-74278467D01*
X117239533Y-74315790D01*
X117239533Y-76588745D01*
X117146158Y-76550068D01*
X116859260Y-76493000D01*
X116566740Y-76493000D01*
X116279842Y-76550068D01*
X116214022Y-76577331D01*
X116214022Y-73585599D01*
X118861100Y-70938522D01*
X120418634Y-70938522D01*
X120365068Y-71067842D01*
%TA.AperFunction,Conductor*%
D15*
G36*
X120365068Y-71067842D02*
G01*
X120308000Y-71354740D01*
X120308000Y-71647260D01*
X120365068Y-71934158D01*
X120423199Y-72074500D01*
X119480825Y-72074500D01*
X119443500Y-72070824D01*
X119406175Y-72074500D01*
X119406167Y-72074500D01*
X119294514Y-72085497D01*
X119151253Y-72128954D01*
X119019224Y-72199526D01*
X118903499Y-72294499D01*
X118879701Y-72323497D01*
X117488536Y-73714663D01*
X117459532Y-73738466D01*
X117417285Y-73789945D01*
X117364559Y-73854191D01*
X117334195Y-73910998D01*
X117293987Y-73986221D01*
X117250530Y-74129482D01*
X117239533Y-74241135D01*
X117239533Y-74241145D01*
X117235857Y-74278467D01*
X117239533Y-74315790D01*
X117239533Y-76588745D01*
X117146158Y-76550068D01*
X116859260Y-76493000D01*
X116566740Y-76493000D01*
X116279842Y-76550068D01*
X116214022Y-76577331D01*
X116214022Y-73585599D01*
X118861100Y-70938522D01*
X120418634Y-70938522D01*
X120365068Y-71067842D01*
G37*
%TD.AperFunction*%
%TD*%
M02*
