M48
; DRILL file {KiCad (5.1.9)-1} date 11/30/21 00:36:49
; FORMAT={-:-/ absolute / inch / decimal}
; #@! TF.CreationDate,2021-11-30T00:36:49+09:00
; #@! TF.GenerationSoftware,Kicad,Pcbnew,(5.1.9)-1
; #@! TF.FileFunction,Plated,1,2,PTH
FMAT,2
INCH
T1C0.0157
T2C0.0394
%
G90
G05
T1
X4.61Y-3.745
X4.63Y-2.83
X4.6425Y-3.6375
X4.69Y-2.93
X4.751Y-3.439
X4.7525Y-3.4875
X4.7525Y-3.5375
X4.754Y-3.589
X4.91Y-3.4
X4.9125Y-3.5775
X4.9325Y-3.2075
X4.9798Y-3.206
X5.0228Y-3.206
X5.0625Y-3.206
X5.07Y-3.44
X5.07Y-3.49
X5.0724Y-3.5884
X5.0726Y-3.5418
X5.2125Y-3.7275
X5.2325Y-3.2075
X5.24Y-3.32
X5.2739Y-3.4469
X5.2764Y-3.4862
X5.2782Y-3.5284
X5.2825Y-3.2079
X5.2825Y-3.5775
X5.3325Y-3.2095
X5.3925Y-3.2075
X5.4425Y-3.5775
X5.45Y-3.4
X5.6023Y-3.5892
X5.6037Y-3.5391
X5.604Y-3.439
X5.604Y-3.489
X5.6975Y-3.21
X5.7425Y-3.725
X5.77Y-3.3175
X5.81Y-3.44
X5.8125Y-3.4975
X5.8125Y-3.5475
X5.8125Y-3.5975
X5.845Y-3.22
X5.8855Y-3.2213
X5.9254Y-3.2213
X5.9662Y-3.2213
X5.9725Y-3.5975
X5.98Y-3.4
X6.14Y-3.18
X6.1423Y-3.49
X6.1425Y-3.59
X6.1425Y-3.54
X6.1436Y-3.4482
X6.1625Y-3.6375
X6.2525Y-3.2175
X6.255Y-3.67
X6.3715Y-3.01
T2
X4.51Y-3.225
X4.51Y-3.325
X4.51Y-3.425
X4.51Y-3.525
X4.51Y-3.625
X4.595Y-3.07
X4.695Y-3.07
X4.795Y-2.815
X4.795Y-2.915
X4.795Y-3.07
X4.895Y-2.815
X4.895Y-2.915
X4.895Y-3.07
X4.995Y-2.815
X4.995Y-2.915
X4.995Y-3.07
X5.095Y-2.815
X5.095Y-2.915
X5.095Y-3.07
X5.195Y-2.815
X5.195Y-2.915
X5.195Y-3.07
X5.295Y-2.815
X5.295Y-2.915
X5.295Y-3.07
X5.395Y-2.815
X5.395Y-2.915
X5.395Y-3.07
X5.495Y-2.815
X5.495Y-2.915
X5.495Y-3.07
X5.595Y-2.815
X5.595Y-2.915
X5.595Y-3.07
X5.695Y-2.815
X5.695Y-2.915
X5.695Y-3.07
X5.795Y-2.815
X5.795Y-2.915
X5.795Y-3.07
X5.895Y-2.815
X5.895Y-2.915
X5.895Y-3.07
X5.995Y-2.815
X5.995Y-2.915
X5.995Y-3.07
X6.095Y-2.815
X6.095Y-2.915
X6.095Y-3.07
X6.195Y-3.07
X6.295Y-3.07
X6.39Y-3.22
X6.39Y-3.32
X6.39Y-3.42
X6.39Y-3.52
X6.39Y-3.62
T0
M30
