%TF.GenerationSoftware,KiCad,Pcbnew,(5.1.9)-1*%
%TF.CreationDate,2021-11-25T01:08:56+09:00*%
%TF.ProjectId,joystick-input,6a6f7973-7469-4636-9b2d-696e7075742e,rev?*%
%TF.SameCoordinates,Original*%
%TF.FileFunction,Legend,Bot*%
%TF.FilePolarity,Positive*%
%FSLAX46Y46*%
G04 Gerber Fmt 4.6, Leading zero omitted, Abs format (unit mm)*
G04 Created by KiCad (PCBNEW (5.1.9)-1) date 2021-11-25 01:08:56*
%MOMM*%
%LPD*%
G01*
G04 APERTURE LIST*
%ADD10C,0.100000*%
%ADD11C,0.150000*%
G04 APERTURE END LIST*
D10*
X144910333Y-85787666D02*
X145143666Y-85454333D01*
X145310333Y-85787666D02*
X145310333Y-85087666D01*
X145043666Y-85087666D01*
X144977000Y-85121000D01*
X144943666Y-85154333D01*
X144910333Y-85221000D01*
X144910333Y-85321000D01*
X144943666Y-85387666D01*
X144977000Y-85421000D01*
X145043666Y-85454333D01*
X145310333Y-85454333D01*
X144343666Y-85754333D02*
X144410333Y-85787666D01*
X144543666Y-85787666D01*
X144610333Y-85754333D01*
X144643666Y-85687666D01*
X144643666Y-85421000D01*
X144610333Y-85354333D01*
X144543666Y-85321000D01*
X144410333Y-85321000D01*
X144343666Y-85354333D01*
X144310333Y-85421000D01*
X144310333Y-85487666D01*
X144643666Y-85554333D01*
X144077000Y-85321000D02*
X143910333Y-85787666D01*
X143743666Y-85321000D01*
X143477000Y-85721000D02*
X143443666Y-85754333D01*
X143477000Y-85787666D01*
X143510333Y-85754333D01*
X143477000Y-85721000D01*
X143477000Y-85787666D01*
X143177000Y-85154333D02*
X143143666Y-85121000D01*
X143077000Y-85087666D01*
X142910333Y-85087666D01*
X142843666Y-85121000D01*
X142810333Y-85154333D01*
X142777000Y-85221000D01*
X142777000Y-85287666D01*
X142810333Y-85387666D01*
X143210333Y-85787666D01*
X142777000Y-85787666D01*
D11*
X156605952Y-83859666D02*
X156129761Y-83859666D01*
X156701190Y-84145380D02*
X156367857Y-83145380D01*
X156034523Y-84145380D01*
X155701190Y-84145380D02*
X155701190Y-83478714D01*
X155701190Y-83573952D02*
X155653571Y-83526333D01*
X155558333Y-83478714D01*
X155415476Y-83478714D01*
X155320238Y-83526333D01*
X155272619Y-83621571D01*
X155272619Y-84145380D01*
X155272619Y-83621571D02*
X155225000Y-83526333D01*
X155129761Y-83478714D01*
X154986904Y-83478714D01*
X154891666Y-83526333D01*
X154844047Y-83621571D01*
X154844047Y-84145380D01*
X154225000Y-84145380D02*
X154320238Y-84097761D01*
X154367857Y-84050142D01*
X154415476Y-83954904D01*
X154415476Y-83669190D01*
X154367857Y-83573952D01*
X154320238Y-83526333D01*
X154225000Y-83478714D01*
X154082142Y-83478714D01*
X153986904Y-83526333D01*
X153939285Y-83573952D01*
X153891666Y-83669190D01*
X153891666Y-83954904D01*
X153939285Y-84050142D01*
X153986904Y-84097761D01*
X154082142Y-84145380D01*
X154225000Y-84145380D01*
X153510714Y-84097761D02*
X153415476Y-84145380D01*
X153225000Y-84145380D01*
X153129761Y-84097761D01*
X153082142Y-84002523D01*
X153082142Y-83954904D01*
X153129761Y-83859666D01*
X153225000Y-83812047D01*
X153367857Y-83812047D01*
X153463095Y-83764428D01*
X153510714Y-83669190D01*
X153510714Y-83621571D01*
X153463095Y-83526333D01*
X153367857Y-83478714D01*
X153225000Y-83478714D01*
X153129761Y-83526333D01*
X151605952Y-83145380D02*
X151605952Y-83859666D01*
X151653571Y-84002523D01*
X151748809Y-84097761D01*
X151891666Y-84145380D01*
X151986904Y-84145380D01*
X150986904Y-84145380D02*
X151082142Y-84097761D01*
X151129761Y-84050142D01*
X151177380Y-83954904D01*
X151177380Y-83669190D01*
X151129761Y-83573952D01*
X151082142Y-83526333D01*
X150986904Y-83478714D01*
X150844047Y-83478714D01*
X150748809Y-83526333D01*
X150701190Y-83573952D01*
X150653571Y-83669190D01*
X150653571Y-83954904D01*
X150701190Y-84050142D01*
X150748809Y-84097761D01*
X150844047Y-84145380D01*
X150986904Y-84145380D01*
X150320238Y-83478714D02*
X150082142Y-84145380D01*
X149844047Y-83478714D02*
X150082142Y-84145380D01*
X150177380Y-84383476D01*
X150225000Y-84431095D01*
X150320238Y-84478714D01*
X149510714Y-84097761D02*
X149415476Y-84145380D01*
X149225000Y-84145380D01*
X149129761Y-84097761D01*
X149082142Y-84002523D01*
X149082142Y-83954904D01*
X149129761Y-83859666D01*
X149225000Y-83812047D01*
X149367857Y-83812047D01*
X149463095Y-83764428D01*
X149510714Y-83669190D01*
X149510714Y-83621571D01*
X149463095Y-83526333D01*
X149367857Y-83478714D01*
X149225000Y-83478714D01*
X149129761Y-83526333D01*
X148796428Y-83478714D02*
X148415476Y-83478714D01*
X148653571Y-83145380D02*
X148653571Y-84002523D01*
X148605952Y-84097761D01*
X148510714Y-84145380D01*
X148415476Y-84145380D01*
X148082142Y-84145380D02*
X148082142Y-83478714D01*
X148082142Y-83145380D02*
X148129761Y-83193000D01*
X148082142Y-83240619D01*
X148034523Y-83193000D01*
X148082142Y-83145380D01*
X148082142Y-83240619D01*
X147177380Y-84097761D02*
X147272619Y-84145380D01*
X147463095Y-84145380D01*
X147558333Y-84097761D01*
X147605952Y-84050142D01*
X147653571Y-83954904D01*
X147653571Y-83669190D01*
X147605952Y-83573952D01*
X147558333Y-83526333D01*
X147463095Y-83478714D01*
X147272619Y-83478714D01*
X147177380Y-83526333D01*
X146748809Y-84145380D02*
X146748809Y-83145380D01*
X146653571Y-83764428D02*
X146367857Y-84145380D01*
X146367857Y-83478714D02*
X146748809Y-83859666D01*
X145177380Y-84145380D02*
X145177380Y-83145380D01*
X144701190Y-83478714D02*
X144701190Y-84145380D01*
X144701190Y-83573952D02*
X144653571Y-83526333D01*
X144558333Y-83478714D01*
X144415476Y-83478714D01*
X144320238Y-83526333D01*
X144272619Y-83621571D01*
X144272619Y-84145380D01*
X143796428Y-83478714D02*
X143796428Y-84478714D01*
X143796428Y-83526333D02*
X143701190Y-83478714D01*
X143510714Y-83478714D01*
X143415476Y-83526333D01*
X143367857Y-83573952D01*
X143320238Y-83669190D01*
X143320238Y-83954904D01*
X143367857Y-84050142D01*
X143415476Y-84097761D01*
X143510714Y-84145380D01*
X143701190Y-84145380D01*
X143796428Y-84097761D01*
X142463095Y-83478714D02*
X142463095Y-84145380D01*
X142891666Y-83478714D02*
X142891666Y-84002523D01*
X142844047Y-84097761D01*
X142748809Y-84145380D01*
X142605952Y-84145380D01*
X142510714Y-84097761D01*
X142463095Y-84050142D01*
X142129761Y-83478714D02*
X141748809Y-83478714D01*
X141986904Y-83145380D02*
X141986904Y-84002523D01*
X141939285Y-84097761D01*
X141844047Y-84145380D01*
X141748809Y-84145380D01*
M02*
