%TF.GenerationSoftware,KiCad,Pcbnew,(6.0.2)*%
%TF.CreationDate,2022-04-10T16:45:17+09:00*%
%TF.ProjectId,joystick-input,6a6f7973-7469-4636-9b2d-696e7075742e,rev?*%
%TF.SameCoordinates,Original*%
%TF.FileFunction,Legend,Bot*%
%TF.FilePolarity,Positive*%
%FSLAX46Y46*%
G04 Gerber Fmt 4.6, Leading zero omitted, Abs format (unit mm)*
G04 Created by KiCad (PCBNEW (6.0.2)) date 2022-04-10 16:45:17*
%MOMM*%
%LPD*%
G01*
G04 APERTURE LIST*
%ADD10C,0.150000*%
%ADD11C,0.100000*%
G04 APERTURE END LIST*
D10*
X161429238Y-95827904D02*
X161429238Y-96399333D01*
X161467333Y-96513619D01*
X161543523Y-96589809D01*
X161657809Y-96627904D01*
X161734000Y-96627904D01*
X160667333Y-96627904D02*
X161048285Y-96627904D01*
X161048285Y-95827904D01*
X159943523Y-96551714D02*
X159981619Y-96589809D01*
X160095904Y-96627904D01*
X160172095Y-96627904D01*
X160286380Y-96589809D01*
X160362571Y-96513619D01*
X160400666Y-96437428D01*
X160438761Y-96285047D01*
X160438761Y-96170761D01*
X160400666Y-96018380D01*
X160362571Y-95942190D01*
X160286380Y-95866000D01*
X160172095Y-95827904D01*
X160095904Y-95827904D01*
X159981619Y-95866000D01*
X159943523Y-95904095D01*
X159372095Y-95827904D02*
X159372095Y-96399333D01*
X159410190Y-96513619D01*
X159486380Y-96589809D01*
X159600666Y-96627904D01*
X159676857Y-96627904D01*
X158610190Y-96627904D02*
X158991142Y-96627904D01*
X158991142Y-95827904D01*
X157886380Y-96551714D02*
X157924476Y-96589809D01*
X158038761Y-96627904D01*
X158114952Y-96627904D01*
X158229238Y-96589809D01*
X158305428Y-96513619D01*
X158343523Y-96437428D01*
X158381619Y-96285047D01*
X158381619Y-96170761D01*
X158343523Y-96018380D01*
X158305428Y-95942190D01*
X158229238Y-95866000D01*
X158114952Y-95827904D01*
X158038761Y-95827904D01*
X157924476Y-95866000D01*
X157886380Y-95904095D01*
X157314952Y-95827904D02*
X157314952Y-96399333D01*
X157353047Y-96513619D01*
X157429238Y-96589809D01*
X157543523Y-96627904D01*
X157619714Y-96627904D01*
X156553047Y-96627904D02*
X156934000Y-96627904D01*
X156934000Y-95827904D01*
X155829238Y-96551714D02*
X155867333Y-96589809D01*
X155981619Y-96627904D01*
X156057809Y-96627904D01*
X156172095Y-96589809D01*
X156248285Y-96513619D01*
X156286380Y-96437428D01*
X156324476Y-96285047D01*
X156324476Y-96170761D01*
X156286380Y-96018380D01*
X156248285Y-95942190D01*
X156172095Y-95866000D01*
X156057809Y-95827904D01*
X155981619Y-95827904D01*
X155867333Y-95866000D01*
X155829238Y-95904095D01*
X155257809Y-95827904D02*
X155257809Y-96399333D01*
X155295904Y-96513619D01*
X155372095Y-96589809D01*
X155486380Y-96627904D01*
X155562571Y-96627904D01*
X154495904Y-96627904D02*
X154876857Y-96627904D01*
X154876857Y-95827904D01*
X153772095Y-96551714D02*
X153810190Y-96589809D01*
X153924476Y-96627904D01*
X154000666Y-96627904D01*
X154114952Y-96589809D01*
X154191142Y-96513619D01*
X154229238Y-96437428D01*
X154267333Y-96285047D01*
X154267333Y-96170761D01*
X154229238Y-96018380D01*
X154191142Y-95942190D01*
X154114952Y-95866000D01*
X154000666Y-95827904D01*
X153924476Y-95827904D01*
X153810190Y-95866000D01*
X153772095Y-95904095D01*
D11*
X120780333Y-95566666D02*
X121013666Y-95233333D01*
X121180333Y-95566666D02*
X121180333Y-94866666D01*
X120913666Y-94866666D01*
X120847000Y-94900000D01*
X120813666Y-94933333D01*
X120780333Y-95000000D01*
X120780333Y-95100000D01*
X120813666Y-95166666D01*
X120847000Y-95200000D01*
X120913666Y-95233333D01*
X121180333Y-95233333D01*
X120213666Y-95533333D02*
X120280333Y-95566666D01*
X120413666Y-95566666D01*
X120480333Y-95533333D01*
X120513666Y-95466666D01*
X120513666Y-95200000D01*
X120480333Y-95133333D01*
X120413666Y-95100000D01*
X120280333Y-95100000D01*
X120213666Y-95133333D01*
X120180333Y-95200000D01*
X120180333Y-95266666D01*
X120513666Y-95333333D01*
X119947000Y-95100000D02*
X119780333Y-95566666D01*
X119613666Y-95100000D01*
X119347000Y-95500000D02*
X119313666Y-95533333D01*
X119347000Y-95566666D01*
X119380333Y-95533333D01*
X119347000Y-95500000D01*
X119347000Y-95566666D01*
X119047000Y-94933333D02*
X119013666Y-94900000D01*
X118947000Y-94866666D01*
X118780333Y-94866666D01*
X118713666Y-94900000D01*
X118680333Y-94933333D01*
X118647000Y-95000000D01*
X118647000Y-95066666D01*
X118680333Y-95166666D01*
X119080333Y-95566666D01*
X118647000Y-95566666D01*
D10*
X132475952Y-93638666D02*
X131999761Y-93638666D01*
X132571190Y-93924380D02*
X132237857Y-92924380D01*
X131904523Y-93924380D01*
X131571190Y-93924380D02*
X131571190Y-93257714D01*
X131571190Y-93352952D02*
X131523571Y-93305333D01*
X131428333Y-93257714D01*
X131285476Y-93257714D01*
X131190238Y-93305333D01*
X131142619Y-93400571D01*
X131142619Y-93924380D01*
X131142619Y-93400571D02*
X131095000Y-93305333D01*
X130999761Y-93257714D01*
X130856904Y-93257714D01*
X130761666Y-93305333D01*
X130714047Y-93400571D01*
X130714047Y-93924380D01*
X130095000Y-93924380D02*
X130190238Y-93876761D01*
X130237857Y-93829142D01*
X130285476Y-93733904D01*
X130285476Y-93448190D01*
X130237857Y-93352952D01*
X130190238Y-93305333D01*
X130095000Y-93257714D01*
X129952142Y-93257714D01*
X129856904Y-93305333D01*
X129809285Y-93352952D01*
X129761666Y-93448190D01*
X129761666Y-93733904D01*
X129809285Y-93829142D01*
X129856904Y-93876761D01*
X129952142Y-93924380D01*
X130095000Y-93924380D01*
X129380714Y-93876761D02*
X129285476Y-93924380D01*
X129095000Y-93924380D01*
X128999761Y-93876761D01*
X128952142Y-93781523D01*
X128952142Y-93733904D01*
X128999761Y-93638666D01*
X129095000Y-93591047D01*
X129237857Y-93591047D01*
X129333095Y-93543428D01*
X129380714Y-93448190D01*
X129380714Y-93400571D01*
X129333095Y-93305333D01*
X129237857Y-93257714D01*
X129095000Y-93257714D01*
X128999761Y-93305333D01*
X127475952Y-92924380D02*
X127475952Y-93638666D01*
X127523571Y-93781523D01*
X127618809Y-93876761D01*
X127761666Y-93924380D01*
X127856904Y-93924380D01*
X126856904Y-93924380D02*
X126952142Y-93876761D01*
X126999761Y-93829142D01*
X127047380Y-93733904D01*
X127047380Y-93448190D01*
X126999761Y-93352952D01*
X126952142Y-93305333D01*
X126856904Y-93257714D01*
X126714047Y-93257714D01*
X126618809Y-93305333D01*
X126571190Y-93352952D01*
X126523571Y-93448190D01*
X126523571Y-93733904D01*
X126571190Y-93829142D01*
X126618809Y-93876761D01*
X126714047Y-93924380D01*
X126856904Y-93924380D01*
X126190238Y-93257714D02*
X125952142Y-93924380D01*
X125714047Y-93257714D02*
X125952142Y-93924380D01*
X126047380Y-94162476D01*
X126095000Y-94210095D01*
X126190238Y-94257714D01*
X125380714Y-93876761D02*
X125285476Y-93924380D01*
X125095000Y-93924380D01*
X124999761Y-93876761D01*
X124952142Y-93781523D01*
X124952142Y-93733904D01*
X124999761Y-93638666D01*
X125095000Y-93591047D01*
X125237857Y-93591047D01*
X125333095Y-93543428D01*
X125380714Y-93448190D01*
X125380714Y-93400571D01*
X125333095Y-93305333D01*
X125237857Y-93257714D01*
X125095000Y-93257714D01*
X124999761Y-93305333D01*
X124666428Y-93257714D02*
X124285476Y-93257714D01*
X124523571Y-92924380D02*
X124523571Y-93781523D01*
X124475952Y-93876761D01*
X124380714Y-93924380D01*
X124285476Y-93924380D01*
X123952142Y-93924380D02*
X123952142Y-93257714D01*
X123952142Y-92924380D02*
X123999761Y-92972000D01*
X123952142Y-93019619D01*
X123904523Y-92972000D01*
X123952142Y-92924380D01*
X123952142Y-93019619D01*
X123047380Y-93876761D02*
X123142619Y-93924380D01*
X123333095Y-93924380D01*
X123428333Y-93876761D01*
X123475952Y-93829142D01*
X123523571Y-93733904D01*
X123523571Y-93448190D01*
X123475952Y-93352952D01*
X123428333Y-93305333D01*
X123333095Y-93257714D01*
X123142619Y-93257714D01*
X123047380Y-93305333D01*
X122618809Y-93924380D02*
X122618809Y-92924380D01*
X122523571Y-93543428D02*
X122237857Y-93924380D01*
X122237857Y-93257714D02*
X122618809Y-93638666D01*
X121047380Y-93924380D02*
X121047380Y-92924380D01*
X120571190Y-93257714D02*
X120571190Y-93924380D01*
X120571190Y-93352952D02*
X120523571Y-93305333D01*
X120428333Y-93257714D01*
X120285476Y-93257714D01*
X120190238Y-93305333D01*
X120142619Y-93400571D01*
X120142619Y-93924380D01*
X119666428Y-93257714D02*
X119666428Y-94257714D01*
X119666428Y-93305333D02*
X119571190Y-93257714D01*
X119380714Y-93257714D01*
X119285476Y-93305333D01*
X119237857Y-93352952D01*
X119190238Y-93448190D01*
X119190238Y-93733904D01*
X119237857Y-93829142D01*
X119285476Y-93876761D01*
X119380714Y-93924380D01*
X119571190Y-93924380D01*
X119666428Y-93876761D01*
X118333095Y-93257714D02*
X118333095Y-93924380D01*
X118761666Y-93257714D02*
X118761666Y-93781523D01*
X118714047Y-93876761D01*
X118618809Y-93924380D01*
X118475952Y-93924380D01*
X118380714Y-93876761D01*
X118333095Y-93829142D01*
X117999761Y-93257714D02*
X117618809Y-93257714D01*
X117856904Y-92924380D02*
X117856904Y-93781523D01*
X117809285Y-93876761D01*
X117714047Y-93924380D01*
X117618809Y-93924380D01*
M02*
