%TF.GenerationSoftware,KiCad,Pcbnew,(5.1.9)-1*%
%TF.CreationDate,2021-11-25T01:08:56+09:00*%
%TF.ProjectId,joystick-input,6a6f7973-7469-4636-9b2d-696e7075742e,rev?*%
%TF.SameCoordinates,Original*%
%TF.FileFunction,Legend,Top*%
%TF.FilePolarity,Positive*%
%FSLAX46Y46*%
G04 Gerber Fmt 4.6, Leading zero omitted, Abs format (unit mm)*
G04 Created by KiCad (PCBNEW (5.1.9)-1) date 2021-11-25 01:08:56*
%MOMM*%
%LPD*%
G01*
G04 APERTURE LIST*
%ADD10C,0.150000*%
%ADD11C,0.100000*%
%ADD12C,0.120000*%
G04 APERTURE END LIST*
D10*
X162615619Y-68516761D02*
X163615619Y-68516761D01*
X163615619Y-68897714D01*
X163568000Y-68992952D01*
X163520380Y-69040571D01*
X163425142Y-69088190D01*
X163282285Y-69088190D01*
X163187047Y-69040571D01*
X163139428Y-68992952D01*
X163091809Y-68897714D01*
X163091809Y-68516761D01*
X162615619Y-70040571D02*
X162615619Y-69469142D01*
X162615619Y-69754857D02*
X163615619Y-69754857D01*
X163472761Y-69659619D01*
X163377523Y-69564380D01*
X163329904Y-69469142D01*
X162615619Y-71231047D02*
X163615619Y-71231047D01*
X163615619Y-71612000D01*
X163568000Y-71707238D01*
X163520380Y-71754857D01*
X163425142Y-71802476D01*
X163282285Y-71802476D01*
X163187047Y-71754857D01*
X163139428Y-71707238D01*
X163091809Y-71612000D01*
X163091809Y-71231047D01*
X163520380Y-72183428D02*
X163568000Y-72231047D01*
X163615619Y-72326285D01*
X163615619Y-72564380D01*
X163568000Y-72659619D01*
X163520380Y-72707238D01*
X163425142Y-72754857D01*
X163329904Y-72754857D01*
X163187047Y-72707238D01*
X162615619Y-72135809D01*
X162615619Y-72754857D01*
X157789619Y-74866761D02*
X158789619Y-74866761D01*
X158789619Y-75247714D01*
X158742000Y-75342952D01*
X158694380Y-75390571D01*
X158599142Y-75438190D01*
X158456285Y-75438190D01*
X158361047Y-75390571D01*
X158313428Y-75342952D01*
X158265809Y-75247714D01*
X158265809Y-74866761D01*
X157789619Y-76390571D02*
X157789619Y-75819142D01*
X157789619Y-76104857D02*
X158789619Y-76104857D01*
X158646761Y-76009619D01*
X158551523Y-75914380D01*
X158503904Y-75819142D01*
X157789619Y-77581047D02*
X158789619Y-77581047D01*
X158789619Y-77962000D01*
X158742000Y-78057238D01*
X158694380Y-78104857D01*
X158599142Y-78152476D01*
X158456285Y-78152476D01*
X158361047Y-78104857D01*
X158313428Y-78057238D01*
X158265809Y-77962000D01*
X158265809Y-77581047D01*
X158694380Y-78533428D02*
X158742000Y-78581047D01*
X158789619Y-78676285D01*
X158789619Y-78914380D01*
X158742000Y-79009619D01*
X158694380Y-79057238D01*
X158599142Y-79104857D01*
X158503904Y-79104857D01*
X158361047Y-79057238D01*
X157789619Y-78485809D01*
X157789619Y-79104857D01*
D11*
X116969333Y-81484666D02*
X116269333Y-81718000D01*
X116969333Y-81951333D01*
X116936000Y-84151333D02*
X116969333Y-84084666D01*
X116969333Y-83984666D01*
X116936000Y-83884666D01*
X116869333Y-83818000D01*
X116802666Y-83784666D01*
X116669333Y-83751333D01*
X116569333Y-83751333D01*
X116436000Y-83784666D01*
X116369333Y-83818000D01*
X116302666Y-83884666D01*
X116269333Y-83984666D01*
X116269333Y-84051333D01*
X116302666Y-84151333D01*
X116336000Y-84184666D01*
X116569333Y-84184666D01*
X116569333Y-84051333D01*
X116269333Y-86418000D02*
X116269333Y-86084666D01*
X116969333Y-86084666D01*
X116269333Y-86651333D02*
X116969333Y-86651333D01*
X116969333Y-86818000D01*
X116936000Y-86918000D01*
X116869333Y-86984666D01*
X116802666Y-87018000D01*
X116669333Y-87051333D01*
X116569333Y-87051333D01*
X116436000Y-87018000D01*
X116369333Y-86984666D01*
X116302666Y-86918000D01*
X116269333Y-86818000D01*
X116269333Y-86651333D01*
X116336000Y-88818000D02*
X116302666Y-88784666D01*
X116269333Y-88684666D01*
X116269333Y-88618000D01*
X116302666Y-88518000D01*
X116369333Y-88451333D01*
X116436000Y-88418000D01*
X116569333Y-88384666D01*
X116669333Y-88384666D01*
X116802666Y-88418000D01*
X116869333Y-88451333D01*
X116936000Y-88518000D01*
X116969333Y-88618000D01*
X116969333Y-88684666D01*
X116936000Y-88784666D01*
X116902666Y-88818000D01*
X116269333Y-89118000D02*
X116969333Y-89118000D01*
X116269333Y-89518000D02*
X116669333Y-89218000D01*
X116969333Y-89518000D02*
X116569333Y-89118000D01*
X116269333Y-91418000D02*
X116969333Y-91418000D01*
X116269333Y-91751333D02*
X116969333Y-91751333D01*
X116269333Y-92151333D01*
X116969333Y-92151333D01*
X121591285Y-80506857D02*
X121677000Y-80535428D01*
X121819857Y-80535428D01*
X121877000Y-80506857D01*
X121905571Y-80478285D01*
X121934142Y-80421142D01*
X121934142Y-80364000D01*
X121905571Y-80306857D01*
X121877000Y-80278285D01*
X121819857Y-80249714D01*
X121705571Y-80221142D01*
X121648428Y-80192571D01*
X121619857Y-80164000D01*
X121591285Y-80106857D01*
X121591285Y-80049714D01*
X121619857Y-79992571D01*
X121648428Y-79964000D01*
X121705571Y-79935428D01*
X121848428Y-79935428D01*
X121934142Y-79964000D01*
X122191285Y-80535428D02*
X122191285Y-79935428D01*
X122448428Y-80535428D02*
X122448428Y-80221142D01*
X122419857Y-80164000D01*
X122362714Y-80135428D01*
X122277000Y-80135428D01*
X122219857Y-80164000D01*
X122191285Y-80192571D01*
X122819857Y-80535428D02*
X122762714Y-80506857D01*
X122734142Y-80478285D01*
X122705571Y-80421142D01*
X122705571Y-80249714D01*
X122734142Y-80192571D01*
X122762714Y-80164000D01*
X122819857Y-80135428D01*
X122905571Y-80135428D01*
X122962714Y-80164000D01*
X122991285Y-80192571D01*
X123019857Y-80249714D01*
X123019857Y-80421142D01*
X122991285Y-80478285D01*
X122962714Y-80506857D01*
X122905571Y-80535428D01*
X122819857Y-80535428D01*
X123277000Y-80535428D02*
X123277000Y-80135428D01*
X123277000Y-80249714D02*
X123305571Y-80192571D01*
X123334142Y-80164000D01*
X123391285Y-80135428D01*
X123448428Y-80135428D01*
X123562714Y-80135428D02*
X123791285Y-80135428D01*
X123648428Y-79935428D02*
X123648428Y-80449714D01*
X123677000Y-80506857D01*
X123734142Y-80535428D01*
X123791285Y-80535428D01*
X125219857Y-80535428D02*
X124877000Y-80535428D01*
X125048428Y-80535428D02*
X125048428Y-79935428D01*
X124991285Y-80021142D01*
X124934142Y-80078285D01*
X124877000Y-80106857D01*
X125448428Y-79992571D02*
X125477000Y-79964000D01*
X125534142Y-79935428D01*
X125677000Y-79935428D01*
X125734142Y-79964000D01*
X125762714Y-79992571D01*
X125791285Y-80049714D01*
X125791285Y-80106857D01*
X125762714Y-80192571D01*
X125419857Y-80535428D01*
X125791285Y-80535428D01*
X127734142Y-80535428D02*
X127391285Y-80535428D01*
X127562714Y-80535428D02*
X127562714Y-79935428D01*
X127505571Y-80021142D01*
X127448428Y-80078285D01*
X127391285Y-80106857D01*
X128305571Y-80535428D02*
X127962714Y-80535428D01*
X128134142Y-80535428D02*
X128134142Y-79935428D01*
X128077000Y-80021142D01*
X128019857Y-80078285D01*
X127962714Y-80106857D01*
X130248428Y-80535428D02*
X129905571Y-80535428D01*
X130077000Y-80535428D02*
X130077000Y-79935428D01*
X130019857Y-80021142D01*
X129962714Y-80078285D01*
X129905571Y-80106857D01*
X130619857Y-79935428D02*
X130677000Y-79935428D01*
X130734142Y-79964000D01*
X130762714Y-79992571D01*
X130791285Y-80049714D01*
X130819857Y-80164000D01*
X130819857Y-80306857D01*
X130791285Y-80421142D01*
X130762714Y-80478285D01*
X130734142Y-80506857D01*
X130677000Y-80535428D01*
X130619857Y-80535428D01*
X130562714Y-80506857D01*
X130534142Y-80478285D01*
X130505571Y-80421142D01*
X130477000Y-80306857D01*
X130477000Y-80164000D01*
X130505571Y-80049714D01*
X130534142Y-79992571D01*
X130562714Y-79964000D01*
X130619857Y-79935428D01*
X132934142Y-80535428D02*
X133048428Y-80535428D01*
X133105571Y-80506857D01*
X133134142Y-80478285D01*
X133191285Y-80392571D01*
X133219857Y-80278285D01*
X133219857Y-80049714D01*
X133191285Y-79992571D01*
X133162714Y-79964000D01*
X133105571Y-79935428D01*
X132991285Y-79935428D01*
X132934142Y-79964000D01*
X132905571Y-79992571D01*
X132877000Y-80049714D01*
X132877000Y-80192571D01*
X132905571Y-80249714D01*
X132934142Y-80278285D01*
X132991285Y-80306857D01*
X133105571Y-80306857D01*
X133162714Y-80278285D01*
X133191285Y-80249714D01*
X133219857Y-80192571D01*
X135391285Y-80192571D02*
X135334142Y-80164000D01*
X135305571Y-80135428D01*
X135277000Y-80078285D01*
X135277000Y-80049714D01*
X135305571Y-79992571D01*
X135334142Y-79964000D01*
X135391285Y-79935428D01*
X135505571Y-79935428D01*
X135562714Y-79964000D01*
X135591285Y-79992571D01*
X135619857Y-80049714D01*
X135619857Y-80078285D01*
X135591285Y-80135428D01*
X135562714Y-80164000D01*
X135505571Y-80192571D01*
X135391285Y-80192571D01*
X135334142Y-80221142D01*
X135305571Y-80249714D01*
X135277000Y-80306857D01*
X135277000Y-80421142D01*
X135305571Y-80478285D01*
X135334142Y-80506857D01*
X135391285Y-80535428D01*
X135505571Y-80535428D01*
X135562714Y-80506857D01*
X135591285Y-80478285D01*
X135619857Y-80421142D01*
X135619857Y-80306857D01*
X135591285Y-80249714D01*
X135562714Y-80221142D01*
X135505571Y-80192571D01*
X137648428Y-79935428D02*
X138048428Y-79935428D01*
X137791285Y-80535428D01*
X140362714Y-79935428D02*
X140248428Y-79935428D01*
X140191285Y-79964000D01*
X140162714Y-79992571D01*
X140105571Y-80078285D01*
X140077000Y-80192571D01*
X140077000Y-80421142D01*
X140105571Y-80478285D01*
X140134142Y-80506857D01*
X140191285Y-80535428D01*
X140305571Y-80535428D01*
X140362714Y-80506857D01*
X140391285Y-80478285D01*
X140419857Y-80421142D01*
X140419857Y-80278285D01*
X140391285Y-80221142D01*
X140362714Y-80192571D01*
X140305571Y-80164000D01*
X140191285Y-80164000D01*
X140134142Y-80192571D01*
X140105571Y-80221142D01*
X140077000Y-80278285D01*
X143248428Y-79935428D02*
X142962714Y-79935428D01*
X142934142Y-80221142D01*
X142962714Y-80192571D01*
X143019857Y-80164000D01*
X143162714Y-80164000D01*
X143219857Y-80192571D01*
X143248428Y-80221142D01*
X143277000Y-80278285D01*
X143277000Y-80421142D01*
X143248428Y-80478285D01*
X143219857Y-80506857D01*
X143162714Y-80535428D01*
X143019857Y-80535428D01*
X142962714Y-80506857D01*
X142934142Y-80478285D01*
X145619857Y-80135428D02*
X145619857Y-80535428D01*
X145477000Y-79906857D02*
X145334142Y-80335428D01*
X145705571Y-80335428D01*
X148162714Y-79935428D02*
X148534142Y-79935428D01*
X148334142Y-80164000D01*
X148419857Y-80164000D01*
X148477000Y-80192571D01*
X148505571Y-80221142D01*
X148534142Y-80278285D01*
X148534142Y-80421142D01*
X148505571Y-80478285D01*
X148477000Y-80506857D01*
X148419857Y-80535428D01*
X148248428Y-80535428D01*
X148191285Y-80506857D01*
X148162714Y-80478285D01*
X150591285Y-79992571D02*
X150619857Y-79964000D01*
X150677000Y-79935428D01*
X150819857Y-79935428D01*
X150877000Y-79964000D01*
X150905571Y-79992571D01*
X150934142Y-80049714D01*
X150934142Y-80106857D01*
X150905571Y-80192571D01*
X150562714Y-80535428D01*
X150934142Y-80535428D01*
X153334142Y-80535428D02*
X152991285Y-80535428D01*
X153162714Y-80535428D02*
X153162714Y-79935428D01*
X153105571Y-80021142D01*
X153048428Y-80078285D01*
X152991285Y-80106857D01*
X154934142Y-80506857D02*
X155019857Y-80535428D01*
X155162714Y-80535428D01*
X155219857Y-80506857D01*
X155248428Y-80478285D01*
X155277000Y-80421142D01*
X155277000Y-80364000D01*
X155248428Y-80306857D01*
X155219857Y-80278285D01*
X155162714Y-80249714D01*
X155048428Y-80221142D01*
X154991285Y-80192571D01*
X154962714Y-80164000D01*
X154934142Y-80106857D01*
X154934142Y-80049714D01*
X154962714Y-79992571D01*
X154991285Y-79964000D01*
X155048428Y-79935428D01*
X155191285Y-79935428D01*
X155277000Y-79964000D01*
X155534142Y-80535428D02*
X155534142Y-79935428D01*
X155791285Y-80535428D02*
X155791285Y-80221142D01*
X155762714Y-80164000D01*
X155705571Y-80135428D01*
X155619857Y-80135428D01*
X155562714Y-80164000D01*
X155534142Y-80192571D01*
X156162714Y-80535428D02*
X156105571Y-80506857D01*
X156077000Y-80478285D01*
X156048428Y-80421142D01*
X156048428Y-80249714D01*
X156077000Y-80192571D01*
X156105571Y-80164000D01*
X156162714Y-80135428D01*
X156248428Y-80135428D01*
X156305571Y-80164000D01*
X156334142Y-80192571D01*
X156362714Y-80249714D01*
X156362714Y-80421142D01*
X156334142Y-80478285D01*
X156305571Y-80506857D01*
X156248428Y-80535428D01*
X156162714Y-80535428D01*
X156619857Y-80535428D02*
X156619857Y-80135428D01*
X156619857Y-80249714D02*
X156648428Y-80192571D01*
X156677000Y-80164000D01*
X156734142Y-80135428D01*
X156791285Y-80135428D01*
X156905571Y-80135428D02*
X157134142Y-80135428D01*
X156991285Y-79935428D02*
X156991285Y-80449714D01*
X157019857Y-80506857D01*
X157077000Y-80535428D01*
X157134142Y-80535428D01*
X160403333Y-81414000D02*
X159703333Y-81647333D01*
X160403333Y-81880666D01*
X160370000Y-84080666D02*
X160403333Y-84014000D01*
X160403333Y-83914000D01*
X160370000Y-83814000D01*
X160303333Y-83747333D01*
X160236666Y-83714000D01*
X160103333Y-83680666D01*
X160003333Y-83680666D01*
X159870000Y-83714000D01*
X159803333Y-83747333D01*
X159736666Y-83814000D01*
X159703333Y-83914000D01*
X159703333Y-83980666D01*
X159736666Y-84080666D01*
X159770000Y-84114000D01*
X160003333Y-84114000D01*
X160003333Y-83980666D01*
X159703333Y-86347333D02*
X159703333Y-86014000D01*
X160403333Y-86014000D01*
X159703333Y-86580666D02*
X160403333Y-86580666D01*
X160403333Y-86747333D01*
X160370000Y-86847333D01*
X160303333Y-86914000D01*
X160236666Y-86947333D01*
X160103333Y-86980666D01*
X160003333Y-86980666D01*
X159870000Y-86947333D01*
X159803333Y-86914000D01*
X159736666Y-86847333D01*
X159703333Y-86747333D01*
X159703333Y-86580666D01*
X159770000Y-88747333D02*
X159736666Y-88714000D01*
X159703333Y-88614000D01*
X159703333Y-88547333D01*
X159736666Y-88447333D01*
X159803333Y-88380666D01*
X159870000Y-88347333D01*
X160003333Y-88314000D01*
X160103333Y-88314000D01*
X160236666Y-88347333D01*
X160303333Y-88380666D01*
X160370000Y-88447333D01*
X160403333Y-88547333D01*
X160403333Y-88614000D01*
X160370000Y-88714000D01*
X160336666Y-88747333D01*
X159703333Y-89047333D02*
X160403333Y-89047333D01*
X159703333Y-89447333D02*
X160103333Y-89147333D01*
X160403333Y-89447333D02*
X160003333Y-89047333D01*
X159703333Y-91347333D02*
X160403333Y-91347333D01*
X160403333Y-91514000D01*
X160370000Y-91614000D01*
X160303333Y-91680666D01*
X160236666Y-91714000D01*
X160103333Y-91747333D01*
X160003333Y-91747333D01*
X159870000Y-91714000D01*
X159803333Y-91680666D01*
X159736666Y-91614000D01*
X159703333Y-91514000D01*
X159703333Y-91347333D01*
X116384285Y-67679857D02*
X116470000Y-67708428D01*
X116612857Y-67708428D01*
X116670000Y-67679857D01*
X116698571Y-67651285D01*
X116727142Y-67594142D01*
X116727142Y-67537000D01*
X116698571Y-67479857D01*
X116670000Y-67451285D01*
X116612857Y-67422714D01*
X116498571Y-67394142D01*
X116441428Y-67365571D01*
X116412857Y-67337000D01*
X116384285Y-67279857D01*
X116384285Y-67222714D01*
X116412857Y-67165571D01*
X116441428Y-67137000D01*
X116498571Y-67108428D01*
X116641428Y-67108428D01*
X116727142Y-67137000D01*
X116984285Y-67708428D02*
X116984285Y-67108428D01*
X117241428Y-67708428D02*
X117241428Y-67394142D01*
X117212857Y-67337000D01*
X117155714Y-67308428D01*
X117070000Y-67308428D01*
X117012857Y-67337000D01*
X116984285Y-67365571D01*
X117612857Y-67708428D02*
X117555714Y-67679857D01*
X117527142Y-67651285D01*
X117498571Y-67594142D01*
X117498571Y-67422714D01*
X117527142Y-67365571D01*
X117555714Y-67337000D01*
X117612857Y-67308428D01*
X117698571Y-67308428D01*
X117755714Y-67337000D01*
X117784285Y-67365571D01*
X117812857Y-67422714D01*
X117812857Y-67594142D01*
X117784285Y-67651285D01*
X117755714Y-67679857D01*
X117698571Y-67708428D01*
X117612857Y-67708428D01*
X118070000Y-67708428D02*
X118070000Y-67308428D01*
X118070000Y-67422714D02*
X118098571Y-67365571D01*
X118127142Y-67337000D01*
X118184285Y-67308428D01*
X118241428Y-67308428D01*
X118355714Y-67308428D02*
X118584285Y-67308428D01*
X118441428Y-67108428D02*
X118441428Y-67622714D01*
X118470000Y-67679857D01*
X118527142Y-67708428D01*
X118584285Y-67708428D01*
X120012857Y-67708428D02*
X119670000Y-67708428D01*
X119841428Y-67708428D02*
X119841428Y-67108428D01*
X119784285Y-67194142D01*
X119727142Y-67251285D01*
X119670000Y-67279857D01*
X120527142Y-67108428D02*
X120412857Y-67108428D01*
X120355714Y-67137000D01*
X120327142Y-67165571D01*
X120270000Y-67251285D01*
X120241428Y-67365571D01*
X120241428Y-67594142D01*
X120270000Y-67651285D01*
X120298571Y-67679857D01*
X120355714Y-67708428D01*
X120470000Y-67708428D01*
X120527142Y-67679857D01*
X120555714Y-67651285D01*
X120584285Y-67594142D01*
X120584285Y-67451285D01*
X120555714Y-67394142D01*
X120527142Y-67365571D01*
X120470000Y-67337000D01*
X120355714Y-67337000D01*
X120298571Y-67365571D01*
X120270000Y-67394142D01*
X120241428Y-67451285D01*
X122527142Y-67708428D02*
X122184285Y-67708428D01*
X122355714Y-67708428D02*
X122355714Y-67108428D01*
X122298571Y-67194142D01*
X122241428Y-67251285D01*
X122184285Y-67279857D01*
X123070000Y-67108428D02*
X122784285Y-67108428D01*
X122755714Y-67394142D01*
X122784285Y-67365571D01*
X122841428Y-67337000D01*
X122984285Y-67337000D01*
X123041428Y-67365571D01*
X123070000Y-67394142D01*
X123098571Y-67451285D01*
X123098571Y-67594142D01*
X123070000Y-67651285D01*
X123041428Y-67679857D01*
X122984285Y-67708428D01*
X122841428Y-67708428D01*
X122784285Y-67679857D01*
X122755714Y-67651285D01*
X125041428Y-67708428D02*
X124698571Y-67708428D01*
X124870000Y-67708428D02*
X124870000Y-67108428D01*
X124812857Y-67194142D01*
X124755714Y-67251285D01*
X124698571Y-67279857D01*
X125555714Y-67308428D02*
X125555714Y-67708428D01*
X125412857Y-67079857D02*
X125270000Y-67508428D01*
X125641428Y-67508428D01*
X127555714Y-67708428D02*
X127212857Y-67708428D01*
X127384285Y-67708428D02*
X127384285Y-67108428D01*
X127327142Y-67194142D01*
X127270000Y-67251285D01*
X127212857Y-67279857D01*
X127755714Y-67108428D02*
X128127142Y-67108428D01*
X127927142Y-67337000D01*
X128012857Y-67337000D01*
X128070000Y-67365571D01*
X128098571Y-67394142D01*
X128127142Y-67451285D01*
X128127142Y-67594142D01*
X128098571Y-67651285D01*
X128070000Y-67679857D01*
X128012857Y-67708428D01*
X127841428Y-67708428D01*
X127784285Y-67679857D01*
X127755714Y-67651285D01*
X130070000Y-67708428D02*
X129727142Y-67708428D01*
X129898571Y-67708428D02*
X129898571Y-67108428D01*
X129841428Y-67194142D01*
X129784285Y-67251285D01*
X129727142Y-67279857D01*
X130298571Y-67165571D02*
X130327142Y-67137000D01*
X130384285Y-67108428D01*
X130527142Y-67108428D01*
X130584285Y-67137000D01*
X130612857Y-67165571D01*
X130641428Y-67222714D01*
X130641428Y-67279857D01*
X130612857Y-67365571D01*
X130270000Y-67708428D01*
X130641428Y-67708428D01*
X132584285Y-67708428D02*
X132241428Y-67708428D01*
X132412857Y-67708428D02*
X132412857Y-67108428D01*
X132355714Y-67194142D01*
X132298571Y-67251285D01*
X132241428Y-67279857D01*
X133155714Y-67708428D02*
X132812857Y-67708428D01*
X132984285Y-67708428D02*
X132984285Y-67108428D01*
X132927142Y-67194142D01*
X132869999Y-67251285D01*
X132812857Y-67279857D01*
X135098571Y-67708428D02*
X134755714Y-67708428D01*
X134927142Y-67708428D02*
X134927142Y-67108428D01*
X134870000Y-67194142D01*
X134812857Y-67251285D01*
X134755714Y-67279857D01*
X135470000Y-67108428D02*
X135527142Y-67108428D01*
X135584285Y-67137000D01*
X135612857Y-67165571D01*
X135641428Y-67222714D01*
X135670000Y-67337000D01*
X135670000Y-67479857D01*
X135641428Y-67594142D01*
X135612857Y-67651285D01*
X135584285Y-67679857D01*
X135527142Y-67708428D01*
X135470000Y-67708428D01*
X135412857Y-67679857D01*
X135384285Y-67651285D01*
X135355714Y-67594142D01*
X135327142Y-67479857D01*
X135327142Y-67337000D01*
X135355714Y-67222714D01*
X135384285Y-67165571D01*
X135412857Y-67137000D01*
X135470000Y-67108428D01*
X137784285Y-67708428D02*
X137898571Y-67708428D01*
X137955714Y-67679857D01*
X137984285Y-67651285D01*
X138041428Y-67565571D01*
X138070000Y-67451285D01*
X138070000Y-67222714D01*
X138041428Y-67165571D01*
X138012857Y-67137000D01*
X137955714Y-67108428D01*
X137841428Y-67108428D01*
X137784285Y-67137000D01*
X137755714Y-67165571D01*
X137727142Y-67222714D01*
X137727142Y-67365571D01*
X137755714Y-67422714D01*
X137784285Y-67451285D01*
X137841428Y-67479857D01*
X137955714Y-67479857D01*
X138012857Y-67451285D01*
X138041428Y-67422714D01*
X138070000Y-67365571D01*
X140241428Y-67365571D02*
X140184285Y-67337000D01*
X140155714Y-67308428D01*
X140127142Y-67251285D01*
X140127142Y-67222714D01*
X140155714Y-67165571D01*
X140184285Y-67137000D01*
X140241428Y-67108428D01*
X140355714Y-67108428D01*
X140412857Y-67137000D01*
X140441428Y-67165571D01*
X140470000Y-67222714D01*
X140470000Y-67251285D01*
X140441428Y-67308428D01*
X140412857Y-67337000D01*
X140355714Y-67365571D01*
X140241428Y-67365571D01*
X140184285Y-67394142D01*
X140155714Y-67422714D01*
X140127142Y-67479857D01*
X140127142Y-67594142D01*
X140155714Y-67651285D01*
X140184285Y-67679857D01*
X140241428Y-67708428D01*
X140355714Y-67708428D01*
X140412857Y-67679857D01*
X140441428Y-67651285D01*
X140470000Y-67594142D01*
X140470000Y-67479857D01*
X140441428Y-67422714D01*
X140412857Y-67394142D01*
X140355714Y-67365571D01*
X142498571Y-67108428D02*
X142898571Y-67108428D01*
X142641428Y-67708428D01*
X145212857Y-67108428D02*
X145098571Y-67108428D01*
X145041428Y-67137000D01*
X145012857Y-67165571D01*
X144955714Y-67251285D01*
X144927142Y-67365571D01*
X144927142Y-67594142D01*
X144955714Y-67651285D01*
X144984285Y-67679857D01*
X145041428Y-67708428D01*
X145155714Y-67708428D01*
X145212857Y-67679857D01*
X145241428Y-67651285D01*
X145270000Y-67594142D01*
X145270000Y-67451285D01*
X145241428Y-67394142D01*
X145212857Y-67365571D01*
X145155714Y-67337000D01*
X145041428Y-67337000D01*
X144984285Y-67365571D01*
X144955714Y-67394142D01*
X144927142Y-67451285D01*
X148098571Y-67108428D02*
X147812857Y-67108428D01*
X147784285Y-67394142D01*
X147812857Y-67365571D01*
X147870000Y-67337000D01*
X148012857Y-67337000D01*
X148070000Y-67365571D01*
X148098571Y-67394142D01*
X148127142Y-67451285D01*
X148127142Y-67594142D01*
X148098571Y-67651285D01*
X148070000Y-67679857D01*
X148012857Y-67708428D01*
X147870000Y-67708428D01*
X147812857Y-67679857D01*
X147784285Y-67651285D01*
X150470000Y-67308428D02*
X150470000Y-67708428D01*
X150327142Y-67079857D02*
X150184285Y-67508428D01*
X150555714Y-67508428D01*
X153012857Y-67108428D02*
X153384285Y-67108428D01*
X153184285Y-67337000D01*
X153270000Y-67337000D01*
X153327142Y-67365571D01*
X153355714Y-67394142D01*
X153384285Y-67451285D01*
X153384285Y-67594142D01*
X153355714Y-67651285D01*
X153327142Y-67679857D01*
X153270000Y-67708428D01*
X153098571Y-67708428D01*
X153041428Y-67679857D01*
X153012857Y-67651285D01*
X155441428Y-67165571D02*
X155470000Y-67137000D01*
X155527142Y-67108428D01*
X155670000Y-67108428D01*
X155727142Y-67137000D01*
X155755714Y-67165571D01*
X155784285Y-67222714D01*
X155784285Y-67279857D01*
X155755714Y-67365571D01*
X155412857Y-67708428D01*
X155784285Y-67708428D01*
X158184285Y-67708428D02*
X157841428Y-67708428D01*
X158012857Y-67708428D02*
X158012857Y-67108428D01*
X157955714Y-67194142D01*
X157898571Y-67251285D01*
X157841428Y-67279857D01*
X159784285Y-67679857D02*
X159870000Y-67708428D01*
X160012857Y-67708428D01*
X160070000Y-67679857D01*
X160098571Y-67651285D01*
X160127142Y-67594142D01*
X160127142Y-67537000D01*
X160098571Y-67479857D01*
X160070000Y-67451285D01*
X160012857Y-67422714D01*
X159898571Y-67394142D01*
X159841428Y-67365571D01*
X159812857Y-67337000D01*
X159784285Y-67279857D01*
X159784285Y-67222714D01*
X159812857Y-67165571D01*
X159841428Y-67137000D01*
X159898571Y-67108428D01*
X160041428Y-67108428D01*
X160127142Y-67137000D01*
X160384285Y-67708428D02*
X160384285Y-67108428D01*
X160641428Y-67708428D02*
X160641428Y-67394142D01*
X160612857Y-67337000D01*
X160555714Y-67308428D01*
X160470000Y-67308428D01*
X160412857Y-67337000D01*
X160384285Y-67365571D01*
X161012857Y-67708428D02*
X160955714Y-67679857D01*
X160927142Y-67651285D01*
X160898571Y-67594142D01*
X160898571Y-67422714D01*
X160927142Y-67365571D01*
X160955714Y-67337000D01*
X161012857Y-67308428D01*
X161098571Y-67308428D01*
X161155714Y-67337000D01*
X161184285Y-67365571D01*
X161212857Y-67422714D01*
X161212857Y-67594142D01*
X161184285Y-67651285D01*
X161155714Y-67679857D01*
X161098571Y-67708428D01*
X161012857Y-67708428D01*
X161470000Y-67708428D02*
X161470000Y-67308428D01*
X161470000Y-67422714D02*
X161498571Y-67365571D01*
X161527142Y-67337000D01*
X161584285Y-67308428D01*
X161641428Y-67308428D01*
X161755714Y-67308428D02*
X161984285Y-67308428D01*
X161841428Y-67108428D02*
X161841428Y-67622714D01*
X161870000Y-67679857D01*
X161927142Y-67708428D01*
X161984285Y-67708428D01*
D12*
%TO.C,RN1*%
X159962000Y-64712000D02*
X159962000Y-65512000D01*
X156522000Y-64712000D02*
X156522000Y-65512000D01*
%TO.C,RN2*%
X154374000Y-64624000D02*
X154374000Y-65424000D01*
X150934000Y-64624000D02*
X150934000Y-65424000D01*
%TO.C,J2*%
X121352000Y-74362000D02*
X121352000Y-79562000D01*
X154432000Y-74362000D02*
X121352000Y-74362000D01*
X157032000Y-79562000D02*
X121352000Y-79562000D01*
X154432000Y-74362000D02*
X154432000Y-76962000D01*
X154432000Y-76962000D02*
X157032000Y-76962000D01*
X157032000Y-76962000D02*
X157032000Y-79562000D01*
X155702000Y-74362000D02*
X157032000Y-74362000D01*
X157032000Y-74362000D02*
X157032000Y-75692000D01*
%TO.C,J1*%
X116145000Y-68012000D02*
X116145000Y-73212000D01*
X159385000Y-68012000D02*
X116145000Y-68012000D01*
X161985000Y-73212000D02*
X116145000Y-73212000D01*
X159385000Y-68012000D02*
X159385000Y-70612000D01*
X159385000Y-70612000D02*
X161985000Y-70612000D01*
X161985000Y-70612000D02*
X161985000Y-73212000D01*
X160655000Y-68012000D02*
X161985000Y-68012000D01*
X161985000Y-68012000D02*
X161985000Y-69342000D01*
%TO.C,C4*%
X128018000Y-84441420D02*
X128018000Y-84722580D01*
X126998000Y-84441420D02*
X126998000Y-84722580D01*
%TO.C,74HC165_4*%
X122936000Y-93452000D02*
X124886000Y-93452000D01*
X122936000Y-93452000D02*
X120986000Y-93452000D01*
X122936000Y-83332000D02*
X124886000Y-83332000D01*
X122936000Y-83332000D02*
X119486000Y-83332000D01*
%TO.C,C2*%
X146810000Y-84441420D02*
X146810000Y-84722580D01*
X147830000Y-84441420D02*
X147830000Y-84722580D01*
%TO.C,C3*%
X136904000Y-84441420D02*
X136904000Y-84722580D01*
X137924000Y-84441420D02*
X137924000Y-84722580D01*
%TO.C,C1*%
X156716000Y-84441420D02*
X156716000Y-84722580D01*
X157736000Y-84441420D02*
X157736000Y-84722580D01*
%TO.C,SHORT1*%
X114062000Y-74658000D02*
X116062000Y-74658000D01*
X114062000Y-78758000D02*
X114062000Y-74658000D01*
X116062000Y-78758000D02*
X114062000Y-78758000D01*
X116062000Y-74658000D02*
X116062000Y-78758000D01*
%TO.C,PULL1*%
X163052000Y-78504000D02*
X161052000Y-78504000D01*
X163052000Y-74404000D02*
X163052000Y-78504000D01*
X161052000Y-74404000D02*
X163052000Y-74404000D01*
X161052000Y-78504000D02*
X161052000Y-74404000D01*
%TO.C,RN3*%
X148786000Y-64624000D02*
X148786000Y-65424000D01*
X145346000Y-64624000D02*
X145346000Y-65424000D01*
%TO.C,RN4*%
X143198000Y-64624000D02*
X143198000Y-65424000D01*
X139758000Y-64624000D02*
X139758000Y-65424000D01*
%TO.C,RN5*%
X137610000Y-64624000D02*
X137610000Y-65424000D01*
X134170000Y-64624000D02*
X134170000Y-65424000D01*
%TO.C,RN6*%
X132022000Y-64624000D02*
X132022000Y-65424000D01*
X128582000Y-64624000D02*
X128582000Y-65424000D01*
%TO.C,RN7*%
X126434000Y-64624000D02*
X126434000Y-65424000D01*
X122994000Y-64624000D02*
X122994000Y-65424000D01*
%TO.C,RN8*%
X120846000Y-64624000D02*
X120846000Y-65424000D01*
X117406000Y-64624000D02*
X117406000Y-65424000D01*
%TO.C,74HC165_3*%
X132842000Y-83332000D02*
X129392000Y-83332000D01*
X132842000Y-83332000D02*
X134792000Y-83332000D01*
X132842000Y-93452000D02*
X130892000Y-93452000D01*
X132842000Y-93452000D02*
X134792000Y-93452000D01*
%TO.C,74HC165_2*%
X142748000Y-93452000D02*
X144698000Y-93452000D01*
X142748000Y-93452000D02*
X140798000Y-93452000D01*
X142748000Y-83332000D02*
X144698000Y-83332000D01*
X142748000Y-83332000D02*
X139298000Y-83332000D01*
%TO.C,74HC165_1*%
X152654000Y-93452000D02*
X154604000Y-93452000D01*
X152654000Y-93452000D02*
X150704000Y-93452000D01*
X152654000Y-83332000D02*
X154604000Y-83332000D01*
X152654000Y-83332000D02*
X149204000Y-83332000D01*
%TO.C,OUT1*%
X161230000Y-80077000D02*
X162560000Y-80077000D01*
X161230000Y-81407000D02*
X161230000Y-80077000D01*
X161230000Y-82677000D02*
X163890000Y-82677000D01*
X163890000Y-82677000D02*
X163890000Y-92897000D01*
X161230000Y-82677000D02*
X161230000Y-92897000D01*
X161230000Y-92897000D02*
X163890000Y-92897000D01*
%TO.C,IN1*%
X112970000Y-92897000D02*
X115630000Y-92897000D01*
X112970000Y-82677000D02*
X112970000Y-92897000D01*
X115630000Y-82677000D02*
X115630000Y-92897000D01*
X112970000Y-82677000D02*
X115630000Y-82677000D01*
X112970000Y-81407000D02*
X112970000Y-80077000D01*
X112970000Y-80077000D02*
X114300000Y-80077000D01*
%TO.C,RN1*%
D10*
X155958666Y-65595333D02*
X155625333Y-65828666D01*
X155958666Y-65995333D02*
X155258666Y-65995333D01*
X155258666Y-65728666D01*
X155292000Y-65662000D01*
X155325333Y-65628666D01*
X155392000Y-65595333D01*
X155492000Y-65595333D01*
X155558666Y-65628666D01*
X155592000Y-65662000D01*
X155625333Y-65728666D01*
X155625333Y-65995333D01*
X155958666Y-65295333D02*
X155258666Y-65295333D01*
X155958666Y-64895333D01*
X155258666Y-64895333D01*
X155958666Y-64195333D02*
X155958666Y-64595333D01*
X155958666Y-64395333D02*
X155258666Y-64395333D01*
X155358666Y-64462000D01*
X155425333Y-64528666D01*
X155458666Y-64595333D01*
%TO.C,RN2*%
X150370666Y-65507333D02*
X150037333Y-65740666D01*
X150370666Y-65907333D02*
X149670666Y-65907333D01*
X149670666Y-65640666D01*
X149704000Y-65574000D01*
X149737333Y-65540666D01*
X149804000Y-65507333D01*
X149904000Y-65507333D01*
X149970666Y-65540666D01*
X150004000Y-65574000D01*
X150037333Y-65640666D01*
X150037333Y-65907333D01*
X150370666Y-65207333D02*
X149670666Y-65207333D01*
X150370666Y-64807333D01*
X149670666Y-64807333D01*
X149737333Y-64507333D02*
X149704000Y-64474000D01*
X149670666Y-64407333D01*
X149670666Y-64240666D01*
X149704000Y-64174000D01*
X149737333Y-64140666D01*
X149804000Y-64107333D01*
X149870666Y-64107333D01*
X149970666Y-64140666D01*
X150370666Y-64540666D01*
X150370666Y-64107333D01*
%TO.C,C4*%
X127391333Y-86864000D02*
X127358000Y-86897333D01*
X127258000Y-86930666D01*
X127191333Y-86930666D01*
X127091333Y-86897333D01*
X127024666Y-86830666D01*
X126991333Y-86764000D01*
X126958000Y-86630666D01*
X126958000Y-86530666D01*
X126991333Y-86397333D01*
X127024666Y-86330666D01*
X127091333Y-86264000D01*
X127191333Y-86230666D01*
X127258000Y-86230666D01*
X127358000Y-86264000D01*
X127391333Y-86297333D01*
X127991333Y-86464000D02*
X127991333Y-86930666D01*
X127824666Y-86197333D02*
X127658000Y-86697333D01*
X128091333Y-86697333D01*
%TO.C,74HC165_4*%
X120052666Y-94104666D02*
X120519333Y-94104666D01*
X120219333Y-94804666D01*
X121086000Y-94338000D02*
X121086000Y-94804666D01*
X120919333Y-94071333D02*
X120752666Y-94571333D01*
X121186000Y-94571333D01*
X121452666Y-94804666D02*
X121452666Y-94104666D01*
X121452666Y-94438000D02*
X121852666Y-94438000D01*
X121852666Y-94804666D02*
X121852666Y-94104666D01*
X122586000Y-94738000D02*
X122552666Y-94771333D01*
X122452666Y-94804666D01*
X122386000Y-94804666D01*
X122286000Y-94771333D01*
X122219333Y-94704666D01*
X122186000Y-94638000D01*
X122152666Y-94504666D01*
X122152666Y-94404666D01*
X122186000Y-94271333D01*
X122219333Y-94204666D01*
X122286000Y-94138000D01*
X122386000Y-94104666D01*
X122452666Y-94104666D01*
X122552666Y-94138000D01*
X122586000Y-94171333D01*
X123252666Y-94804666D02*
X122852666Y-94804666D01*
X123052666Y-94804666D02*
X123052666Y-94104666D01*
X122986000Y-94204666D01*
X122919333Y-94271333D01*
X122852666Y-94304666D01*
X123852666Y-94104666D02*
X123719333Y-94104666D01*
X123652666Y-94138000D01*
X123619333Y-94171333D01*
X123552666Y-94271333D01*
X123519333Y-94404666D01*
X123519333Y-94671333D01*
X123552666Y-94738000D01*
X123586000Y-94771333D01*
X123652666Y-94804666D01*
X123786000Y-94804666D01*
X123852666Y-94771333D01*
X123886000Y-94738000D01*
X123919333Y-94671333D01*
X123919333Y-94504666D01*
X123886000Y-94438000D01*
X123852666Y-94404666D01*
X123786000Y-94371333D01*
X123652666Y-94371333D01*
X123586000Y-94404666D01*
X123552666Y-94438000D01*
X123519333Y-94504666D01*
X124552666Y-94104666D02*
X124219333Y-94104666D01*
X124186000Y-94438000D01*
X124219333Y-94404666D01*
X124286000Y-94371333D01*
X124452666Y-94371333D01*
X124519333Y-94404666D01*
X124552666Y-94438000D01*
X124586000Y-94504666D01*
X124586000Y-94671333D01*
X124552666Y-94738000D01*
X124519333Y-94771333D01*
X124452666Y-94804666D01*
X124286000Y-94804666D01*
X124219333Y-94771333D01*
X124186000Y-94738000D01*
X124719333Y-94871333D02*
X125252666Y-94871333D01*
X125719333Y-94338000D02*
X125719333Y-94804666D01*
X125552666Y-94071333D02*
X125386000Y-94571333D01*
X125819333Y-94571333D01*
%TO.C,C2*%
X147203333Y-86864000D02*
X147170000Y-86897333D01*
X147070000Y-86930666D01*
X147003333Y-86930666D01*
X146903333Y-86897333D01*
X146836666Y-86830666D01*
X146803333Y-86764000D01*
X146770000Y-86630666D01*
X146770000Y-86530666D01*
X146803333Y-86397333D01*
X146836666Y-86330666D01*
X146903333Y-86264000D01*
X147003333Y-86230666D01*
X147070000Y-86230666D01*
X147170000Y-86264000D01*
X147203333Y-86297333D01*
X147470000Y-86297333D02*
X147503333Y-86264000D01*
X147570000Y-86230666D01*
X147736666Y-86230666D01*
X147803333Y-86264000D01*
X147836666Y-86297333D01*
X147870000Y-86364000D01*
X147870000Y-86430666D01*
X147836666Y-86530666D01*
X147436666Y-86930666D01*
X147870000Y-86930666D01*
%TO.C,C3*%
X137297333Y-86864000D02*
X137264000Y-86897333D01*
X137164000Y-86930666D01*
X137097333Y-86930666D01*
X136997333Y-86897333D01*
X136930666Y-86830666D01*
X136897333Y-86764000D01*
X136864000Y-86630666D01*
X136864000Y-86530666D01*
X136897333Y-86397333D01*
X136930666Y-86330666D01*
X136997333Y-86264000D01*
X137097333Y-86230666D01*
X137164000Y-86230666D01*
X137264000Y-86264000D01*
X137297333Y-86297333D01*
X137530666Y-86230666D02*
X137964000Y-86230666D01*
X137730666Y-86497333D01*
X137830666Y-86497333D01*
X137897333Y-86530666D01*
X137930666Y-86564000D01*
X137964000Y-86630666D01*
X137964000Y-86797333D01*
X137930666Y-86864000D01*
X137897333Y-86897333D01*
X137830666Y-86930666D01*
X137630666Y-86930666D01*
X137564000Y-86897333D01*
X137530666Y-86864000D01*
%TO.C,C1*%
X157109333Y-86864000D02*
X157076000Y-86897333D01*
X156976000Y-86930666D01*
X156909333Y-86930666D01*
X156809333Y-86897333D01*
X156742666Y-86830666D01*
X156709333Y-86764000D01*
X156676000Y-86630666D01*
X156676000Y-86530666D01*
X156709333Y-86397333D01*
X156742666Y-86330666D01*
X156809333Y-86264000D01*
X156909333Y-86230666D01*
X156976000Y-86230666D01*
X157076000Y-86264000D01*
X157109333Y-86297333D01*
X157776000Y-86930666D02*
X157376000Y-86930666D01*
X157576000Y-86930666D02*
X157576000Y-86230666D01*
X157509333Y-86330666D01*
X157442666Y-86397333D01*
X157376000Y-86430666D01*
%TO.C,SHORT1*%
X117145333Y-78591333D02*
X117178666Y-78491333D01*
X117178666Y-78324666D01*
X117145333Y-78258000D01*
X117112000Y-78224666D01*
X117045333Y-78191333D01*
X116978666Y-78191333D01*
X116912000Y-78224666D01*
X116878666Y-78258000D01*
X116845333Y-78324666D01*
X116812000Y-78458000D01*
X116778666Y-78524666D01*
X116745333Y-78558000D01*
X116678666Y-78591333D01*
X116612000Y-78591333D01*
X116545333Y-78558000D01*
X116512000Y-78524666D01*
X116478666Y-78458000D01*
X116478666Y-78291333D01*
X116512000Y-78191333D01*
X117178666Y-77891333D02*
X116478666Y-77891333D01*
X116812000Y-77891333D02*
X116812000Y-77491333D01*
X117178666Y-77491333D02*
X116478666Y-77491333D01*
X116478666Y-77024666D02*
X116478666Y-76891333D01*
X116512000Y-76824666D01*
X116578666Y-76758000D01*
X116712000Y-76724666D01*
X116945333Y-76724666D01*
X117078666Y-76758000D01*
X117145333Y-76824666D01*
X117178666Y-76891333D01*
X117178666Y-77024666D01*
X117145333Y-77091333D01*
X117078666Y-77158000D01*
X116945333Y-77191333D01*
X116712000Y-77191333D01*
X116578666Y-77158000D01*
X116512000Y-77091333D01*
X116478666Y-77024666D01*
X117178666Y-76024666D02*
X116845333Y-76258000D01*
X117178666Y-76424666D02*
X116478666Y-76424666D01*
X116478666Y-76158000D01*
X116512000Y-76091333D01*
X116545333Y-76058000D01*
X116612000Y-76024666D01*
X116712000Y-76024666D01*
X116778666Y-76058000D01*
X116812000Y-76091333D01*
X116845333Y-76158000D01*
X116845333Y-76424666D01*
X116478666Y-75824666D02*
X116478666Y-75424666D01*
X117178666Y-75624666D02*
X116478666Y-75624666D01*
X117178666Y-74824666D02*
X117178666Y-75224666D01*
X117178666Y-75024666D02*
X116478666Y-75024666D01*
X116578666Y-75091333D01*
X116645333Y-75158000D01*
X116678666Y-75224666D01*
D11*
X115288190Y-74500857D02*
X114788190Y-74500857D01*
X114788190Y-74381809D01*
X114812000Y-74310380D01*
X114859619Y-74262761D01*
X114907238Y-74238952D01*
X115002476Y-74215142D01*
X115073904Y-74215142D01*
X115169142Y-74238952D01*
X115216761Y-74262761D01*
X115264380Y-74310380D01*
X115288190Y-74381809D01*
X115288190Y-74500857D01*
X115288190Y-74000857D02*
X114788190Y-74000857D01*
X115288190Y-73715142D01*
X114788190Y-73715142D01*
X114788190Y-79700857D02*
X115192952Y-79700857D01*
X115240571Y-79677047D01*
X115264380Y-79653238D01*
X115288190Y-79605619D01*
X115288190Y-79510380D01*
X115264380Y-79462761D01*
X115240571Y-79438952D01*
X115192952Y-79415142D01*
X114788190Y-79415142D01*
X115288190Y-79177047D02*
X114788190Y-79177047D01*
X114788190Y-78986571D01*
X114812000Y-78938952D01*
X114835809Y-78915142D01*
X114883428Y-78891333D01*
X114954857Y-78891333D01*
X115002476Y-78915142D01*
X115026285Y-78938952D01*
X115050095Y-78986571D01*
X115050095Y-79177047D01*
%TO.C,PULL1*%
D10*
X160463666Y-77904000D02*
X159763666Y-77904000D01*
X159763666Y-77637333D01*
X159797000Y-77570666D01*
X159830333Y-77537333D01*
X159897000Y-77504000D01*
X159997000Y-77504000D01*
X160063666Y-77537333D01*
X160097000Y-77570666D01*
X160130333Y-77637333D01*
X160130333Y-77904000D01*
X159763666Y-77204000D02*
X160330333Y-77204000D01*
X160397000Y-77170666D01*
X160430333Y-77137333D01*
X160463666Y-77070666D01*
X160463666Y-76937333D01*
X160430333Y-76870666D01*
X160397000Y-76837333D01*
X160330333Y-76804000D01*
X159763666Y-76804000D01*
X160463666Y-76137333D02*
X160463666Y-76470666D01*
X159763666Y-76470666D01*
X160463666Y-75570666D02*
X160463666Y-75904000D01*
X159763666Y-75904000D01*
X160463666Y-74970666D02*
X160463666Y-75370666D01*
X160463666Y-75170666D02*
X159763666Y-75170666D01*
X159863666Y-75237333D01*
X159930333Y-75304000D01*
X159963666Y-75370666D01*
D11*
X161778190Y-79446857D02*
X162182952Y-79446857D01*
X162230571Y-79423047D01*
X162254380Y-79399238D01*
X162278190Y-79351619D01*
X162278190Y-79256380D01*
X162254380Y-79208761D01*
X162230571Y-79184952D01*
X162182952Y-79161142D01*
X161778190Y-79161142D01*
X162278190Y-78923047D02*
X161778190Y-78923047D01*
X161778190Y-78732571D01*
X161802000Y-78684952D01*
X161825809Y-78661142D01*
X161873428Y-78637333D01*
X161944857Y-78637333D01*
X161992476Y-78661142D01*
X162016285Y-78684952D01*
X162040095Y-78732571D01*
X162040095Y-78923047D01*
X162278190Y-74246857D02*
X161778190Y-74246857D01*
X161778190Y-74127809D01*
X161802000Y-74056380D01*
X161849619Y-74008761D01*
X161897238Y-73984952D01*
X161992476Y-73961142D01*
X162063904Y-73961142D01*
X162159142Y-73984952D01*
X162206761Y-74008761D01*
X162254380Y-74056380D01*
X162278190Y-74127809D01*
X162278190Y-74246857D01*
X162278190Y-73746857D02*
X161778190Y-73746857D01*
X162278190Y-73461142D01*
X161778190Y-73461142D01*
%TO.C,RN3*%
D10*
X144782666Y-65507333D02*
X144449333Y-65740666D01*
X144782666Y-65907333D02*
X144082666Y-65907333D01*
X144082666Y-65640666D01*
X144116000Y-65574000D01*
X144149333Y-65540666D01*
X144216000Y-65507333D01*
X144316000Y-65507333D01*
X144382666Y-65540666D01*
X144416000Y-65574000D01*
X144449333Y-65640666D01*
X144449333Y-65907333D01*
X144782666Y-65207333D02*
X144082666Y-65207333D01*
X144782666Y-64807333D01*
X144082666Y-64807333D01*
X144082666Y-64540666D02*
X144082666Y-64107333D01*
X144349333Y-64340666D01*
X144349333Y-64240666D01*
X144382666Y-64174000D01*
X144416000Y-64140666D01*
X144482666Y-64107333D01*
X144649333Y-64107333D01*
X144716000Y-64140666D01*
X144749333Y-64174000D01*
X144782666Y-64240666D01*
X144782666Y-64440666D01*
X144749333Y-64507333D01*
X144716000Y-64540666D01*
%TO.C,RN4*%
X139194666Y-65507333D02*
X138861333Y-65740666D01*
X139194666Y-65907333D02*
X138494666Y-65907333D01*
X138494666Y-65640666D01*
X138528000Y-65574000D01*
X138561333Y-65540666D01*
X138628000Y-65507333D01*
X138728000Y-65507333D01*
X138794666Y-65540666D01*
X138828000Y-65574000D01*
X138861333Y-65640666D01*
X138861333Y-65907333D01*
X139194666Y-65207333D02*
X138494666Y-65207333D01*
X139194666Y-64807333D01*
X138494666Y-64807333D01*
X138728000Y-64174000D02*
X139194666Y-64174000D01*
X138461333Y-64340666D02*
X138961333Y-64507333D01*
X138961333Y-64074000D01*
%TO.C,RN5*%
X133606666Y-65507333D02*
X133273333Y-65740666D01*
X133606666Y-65907333D02*
X132906666Y-65907333D01*
X132906666Y-65640666D01*
X132940000Y-65574000D01*
X132973333Y-65540666D01*
X133040000Y-65507333D01*
X133140000Y-65507333D01*
X133206666Y-65540666D01*
X133240000Y-65574000D01*
X133273333Y-65640666D01*
X133273333Y-65907333D01*
X133606666Y-65207333D02*
X132906666Y-65207333D01*
X133606666Y-64807333D01*
X132906666Y-64807333D01*
X132906666Y-64140666D02*
X132906666Y-64474000D01*
X133240000Y-64507333D01*
X133206666Y-64474000D01*
X133173333Y-64407333D01*
X133173333Y-64240666D01*
X133206666Y-64174000D01*
X133240000Y-64140666D01*
X133306666Y-64107333D01*
X133473333Y-64107333D01*
X133540000Y-64140666D01*
X133573333Y-64174000D01*
X133606666Y-64240666D01*
X133606666Y-64407333D01*
X133573333Y-64474000D01*
X133540000Y-64507333D01*
%TO.C,RN6*%
X128018666Y-65507333D02*
X127685333Y-65740666D01*
X128018666Y-65907333D02*
X127318666Y-65907333D01*
X127318666Y-65640666D01*
X127352000Y-65574000D01*
X127385333Y-65540666D01*
X127452000Y-65507333D01*
X127552000Y-65507333D01*
X127618666Y-65540666D01*
X127652000Y-65574000D01*
X127685333Y-65640666D01*
X127685333Y-65907333D01*
X128018666Y-65207333D02*
X127318666Y-65207333D01*
X128018666Y-64807333D01*
X127318666Y-64807333D01*
X127318666Y-64174000D02*
X127318666Y-64307333D01*
X127352000Y-64374000D01*
X127385333Y-64407333D01*
X127485333Y-64474000D01*
X127618666Y-64507333D01*
X127885333Y-64507333D01*
X127952000Y-64474000D01*
X127985333Y-64440666D01*
X128018666Y-64374000D01*
X128018666Y-64240666D01*
X127985333Y-64174000D01*
X127952000Y-64140666D01*
X127885333Y-64107333D01*
X127718666Y-64107333D01*
X127652000Y-64140666D01*
X127618666Y-64174000D01*
X127585333Y-64240666D01*
X127585333Y-64374000D01*
X127618666Y-64440666D01*
X127652000Y-64474000D01*
X127718666Y-64507333D01*
%TO.C,RN7*%
X122430666Y-65507333D02*
X122097333Y-65740666D01*
X122430666Y-65907333D02*
X121730666Y-65907333D01*
X121730666Y-65640666D01*
X121764000Y-65574000D01*
X121797333Y-65540666D01*
X121864000Y-65507333D01*
X121964000Y-65507333D01*
X122030666Y-65540666D01*
X122064000Y-65574000D01*
X122097333Y-65640666D01*
X122097333Y-65907333D01*
X122430666Y-65207333D02*
X121730666Y-65207333D01*
X122430666Y-64807333D01*
X121730666Y-64807333D01*
X121730666Y-64540666D02*
X121730666Y-64074000D01*
X122430666Y-64374000D01*
%TO.C,RN8*%
X116842666Y-65507333D02*
X116509333Y-65740666D01*
X116842666Y-65907333D02*
X116142666Y-65907333D01*
X116142666Y-65640666D01*
X116176000Y-65574000D01*
X116209333Y-65540666D01*
X116276000Y-65507333D01*
X116376000Y-65507333D01*
X116442666Y-65540666D01*
X116476000Y-65574000D01*
X116509333Y-65640666D01*
X116509333Y-65907333D01*
X116842666Y-65207333D02*
X116142666Y-65207333D01*
X116842666Y-64807333D01*
X116142666Y-64807333D01*
X116442666Y-64374000D02*
X116409333Y-64440666D01*
X116376000Y-64474000D01*
X116309333Y-64507333D01*
X116276000Y-64507333D01*
X116209333Y-64474000D01*
X116176000Y-64440666D01*
X116142666Y-64374000D01*
X116142666Y-64240666D01*
X116176000Y-64174000D01*
X116209333Y-64140666D01*
X116276000Y-64107333D01*
X116309333Y-64107333D01*
X116376000Y-64140666D01*
X116409333Y-64174000D01*
X116442666Y-64240666D01*
X116442666Y-64374000D01*
X116476000Y-64440666D01*
X116509333Y-64474000D01*
X116576000Y-64507333D01*
X116709333Y-64507333D01*
X116776000Y-64474000D01*
X116809333Y-64440666D01*
X116842666Y-64374000D01*
X116842666Y-64240666D01*
X116809333Y-64174000D01*
X116776000Y-64140666D01*
X116709333Y-64107333D01*
X116576000Y-64107333D01*
X116509333Y-64140666D01*
X116476000Y-64174000D01*
X116442666Y-64240666D01*
%TO.C,74HC165_3*%
X129958666Y-94104666D02*
X130425333Y-94104666D01*
X130125333Y-94804666D01*
X130992000Y-94338000D02*
X130992000Y-94804666D01*
X130825333Y-94071333D02*
X130658666Y-94571333D01*
X131092000Y-94571333D01*
X131358666Y-94804666D02*
X131358666Y-94104666D01*
X131358666Y-94438000D02*
X131758666Y-94438000D01*
X131758666Y-94804666D02*
X131758666Y-94104666D01*
X132492000Y-94738000D02*
X132458666Y-94771333D01*
X132358666Y-94804666D01*
X132292000Y-94804666D01*
X132192000Y-94771333D01*
X132125333Y-94704666D01*
X132092000Y-94638000D01*
X132058666Y-94504666D01*
X132058666Y-94404666D01*
X132092000Y-94271333D01*
X132125333Y-94204666D01*
X132192000Y-94138000D01*
X132292000Y-94104666D01*
X132358666Y-94104666D01*
X132458666Y-94138000D01*
X132492000Y-94171333D01*
X133158666Y-94804666D02*
X132758666Y-94804666D01*
X132958666Y-94804666D02*
X132958666Y-94104666D01*
X132892000Y-94204666D01*
X132825333Y-94271333D01*
X132758666Y-94304666D01*
X133758666Y-94104666D02*
X133625333Y-94104666D01*
X133558666Y-94138000D01*
X133525333Y-94171333D01*
X133458666Y-94271333D01*
X133425333Y-94404666D01*
X133425333Y-94671333D01*
X133458666Y-94738000D01*
X133492000Y-94771333D01*
X133558666Y-94804666D01*
X133692000Y-94804666D01*
X133758666Y-94771333D01*
X133792000Y-94738000D01*
X133825333Y-94671333D01*
X133825333Y-94504666D01*
X133792000Y-94438000D01*
X133758666Y-94404666D01*
X133692000Y-94371333D01*
X133558666Y-94371333D01*
X133492000Y-94404666D01*
X133458666Y-94438000D01*
X133425333Y-94504666D01*
X134458666Y-94104666D02*
X134125333Y-94104666D01*
X134092000Y-94438000D01*
X134125333Y-94404666D01*
X134192000Y-94371333D01*
X134358666Y-94371333D01*
X134425333Y-94404666D01*
X134458666Y-94438000D01*
X134492000Y-94504666D01*
X134492000Y-94671333D01*
X134458666Y-94738000D01*
X134425333Y-94771333D01*
X134358666Y-94804666D01*
X134192000Y-94804666D01*
X134125333Y-94771333D01*
X134092000Y-94738000D01*
X134625333Y-94871333D02*
X135158666Y-94871333D01*
X135258666Y-94104666D02*
X135692000Y-94104666D01*
X135458666Y-94371333D01*
X135558666Y-94371333D01*
X135625333Y-94404666D01*
X135658666Y-94438000D01*
X135692000Y-94504666D01*
X135692000Y-94671333D01*
X135658666Y-94738000D01*
X135625333Y-94771333D01*
X135558666Y-94804666D01*
X135358666Y-94804666D01*
X135292000Y-94771333D01*
X135258666Y-94738000D01*
%TO.C,74HC165_2*%
X139864666Y-94104666D02*
X140331333Y-94104666D01*
X140031333Y-94804666D01*
X140898000Y-94338000D02*
X140898000Y-94804666D01*
X140731333Y-94071333D02*
X140564666Y-94571333D01*
X140998000Y-94571333D01*
X141264666Y-94804666D02*
X141264666Y-94104666D01*
X141264666Y-94438000D02*
X141664666Y-94438000D01*
X141664666Y-94804666D02*
X141664666Y-94104666D01*
X142398000Y-94738000D02*
X142364666Y-94771333D01*
X142264666Y-94804666D01*
X142198000Y-94804666D01*
X142098000Y-94771333D01*
X142031333Y-94704666D01*
X141998000Y-94638000D01*
X141964666Y-94504666D01*
X141964666Y-94404666D01*
X141998000Y-94271333D01*
X142031333Y-94204666D01*
X142098000Y-94138000D01*
X142198000Y-94104666D01*
X142264666Y-94104666D01*
X142364666Y-94138000D01*
X142398000Y-94171333D01*
X143064666Y-94804666D02*
X142664666Y-94804666D01*
X142864666Y-94804666D02*
X142864666Y-94104666D01*
X142798000Y-94204666D01*
X142731333Y-94271333D01*
X142664666Y-94304666D01*
X143664666Y-94104666D02*
X143531333Y-94104666D01*
X143464666Y-94138000D01*
X143431333Y-94171333D01*
X143364666Y-94271333D01*
X143331333Y-94404666D01*
X143331333Y-94671333D01*
X143364666Y-94738000D01*
X143398000Y-94771333D01*
X143464666Y-94804666D01*
X143598000Y-94804666D01*
X143664666Y-94771333D01*
X143698000Y-94738000D01*
X143731333Y-94671333D01*
X143731333Y-94504666D01*
X143698000Y-94438000D01*
X143664666Y-94404666D01*
X143598000Y-94371333D01*
X143464666Y-94371333D01*
X143398000Y-94404666D01*
X143364666Y-94438000D01*
X143331333Y-94504666D01*
X144364666Y-94104666D02*
X144031333Y-94104666D01*
X143998000Y-94438000D01*
X144031333Y-94404666D01*
X144098000Y-94371333D01*
X144264666Y-94371333D01*
X144331333Y-94404666D01*
X144364666Y-94438000D01*
X144398000Y-94504666D01*
X144398000Y-94671333D01*
X144364666Y-94738000D01*
X144331333Y-94771333D01*
X144264666Y-94804666D01*
X144098000Y-94804666D01*
X144031333Y-94771333D01*
X143998000Y-94738000D01*
X144531333Y-94871333D02*
X145064666Y-94871333D01*
X145198000Y-94171333D02*
X145231333Y-94138000D01*
X145298000Y-94104666D01*
X145464666Y-94104666D01*
X145531333Y-94138000D01*
X145564666Y-94171333D01*
X145598000Y-94238000D01*
X145598000Y-94304666D01*
X145564666Y-94404666D01*
X145164666Y-94804666D01*
X145598000Y-94804666D01*
%TO.C,74HC165_1*%
X149770666Y-94104666D02*
X150237333Y-94104666D01*
X149937333Y-94804666D01*
X150804000Y-94338000D02*
X150804000Y-94804666D01*
X150637333Y-94071333D02*
X150470666Y-94571333D01*
X150904000Y-94571333D01*
X151170666Y-94804666D02*
X151170666Y-94104666D01*
X151170666Y-94438000D02*
X151570666Y-94438000D01*
X151570666Y-94804666D02*
X151570666Y-94104666D01*
X152304000Y-94738000D02*
X152270666Y-94771333D01*
X152170666Y-94804666D01*
X152104000Y-94804666D01*
X152004000Y-94771333D01*
X151937333Y-94704666D01*
X151904000Y-94638000D01*
X151870666Y-94504666D01*
X151870666Y-94404666D01*
X151904000Y-94271333D01*
X151937333Y-94204666D01*
X152004000Y-94138000D01*
X152104000Y-94104666D01*
X152170666Y-94104666D01*
X152270666Y-94138000D01*
X152304000Y-94171333D01*
X152970666Y-94804666D02*
X152570666Y-94804666D01*
X152770666Y-94804666D02*
X152770666Y-94104666D01*
X152704000Y-94204666D01*
X152637333Y-94271333D01*
X152570666Y-94304666D01*
X153570666Y-94104666D02*
X153437333Y-94104666D01*
X153370666Y-94138000D01*
X153337333Y-94171333D01*
X153270666Y-94271333D01*
X153237333Y-94404666D01*
X153237333Y-94671333D01*
X153270666Y-94738000D01*
X153304000Y-94771333D01*
X153370666Y-94804666D01*
X153504000Y-94804666D01*
X153570666Y-94771333D01*
X153604000Y-94738000D01*
X153637333Y-94671333D01*
X153637333Y-94504666D01*
X153604000Y-94438000D01*
X153570666Y-94404666D01*
X153504000Y-94371333D01*
X153370666Y-94371333D01*
X153304000Y-94404666D01*
X153270666Y-94438000D01*
X153237333Y-94504666D01*
X154270666Y-94104666D02*
X153937333Y-94104666D01*
X153904000Y-94438000D01*
X153937333Y-94404666D01*
X154004000Y-94371333D01*
X154170666Y-94371333D01*
X154237333Y-94404666D01*
X154270666Y-94438000D01*
X154304000Y-94504666D01*
X154304000Y-94671333D01*
X154270666Y-94738000D01*
X154237333Y-94771333D01*
X154170666Y-94804666D01*
X154004000Y-94804666D01*
X153937333Y-94771333D01*
X153904000Y-94738000D01*
X154437333Y-94871333D02*
X154970666Y-94871333D01*
X155504000Y-94804666D02*
X155104000Y-94804666D01*
X155304000Y-94804666D02*
X155304000Y-94104666D01*
X155237333Y-94204666D01*
X155170666Y-94271333D01*
X155104000Y-94304666D01*
%TD*%
M02*
