%TF.GenerationSoftware,KiCad,Pcbnew,(5.1.9)-1*%
%TF.CreationDate,2021-11-30T00:36:46+09:00*%
%TF.ProjectId,joystick-input,6a6f7973-7469-4636-9b2d-696e7075742e,rev?*%
%TF.SameCoordinates,Original*%
%TF.FileFunction,Legend,Top*%
%TF.FilePolarity,Positive*%
%FSLAX46Y46*%
G04 Gerber Fmt 4.6, Leading zero omitted, Abs format (unit mm)*
G04 Created by KiCad (PCBNEW (5.1.9)-1) date 2021-11-30 00:36:46*
%MOMM*%
%LPD*%
G01*
G04 APERTURE LIST*
%ADD10C,0.100000*%
%ADD11C,0.150000*%
%ADD12C,0.120000*%
G04 APERTURE END LIST*
D10*
X115622285Y-79998857D02*
X115708000Y-80027428D01*
X115850857Y-80027428D01*
X115908000Y-79998857D01*
X115936571Y-79970285D01*
X115965142Y-79913142D01*
X115965142Y-79856000D01*
X115936571Y-79798857D01*
X115908000Y-79770285D01*
X115850857Y-79741714D01*
X115736571Y-79713142D01*
X115679428Y-79684571D01*
X115650857Y-79656000D01*
X115622285Y-79598857D01*
X115622285Y-79541714D01*
X115650857Y-79484571D01*
X115679428Y-79456000D01*
X115736571Y-79427428D01*
X115879428Y-79427428D01*
X115965142Y-79456000D01*
X116222285Y-80027428D02*
X116222285Y-79427428D01*
X116479428Y-80027428D02*
X116479428Y-79713142D01*
X116450857Y-79656000D01*
X116393714Y-79627428D01*
X116308000Y-79627428D01*
X116250857Y-79656000D01*
X116222285Y-79684571D01*
X116850857Y-80027428D02*
X116793714Y-79998857D01*
X116765142Y-79970285D01*
X116736571Y-79913142D01*
X116736571Y-79741714D01*
X116765142Y-79684571D01*
X116793714Y-79656000D01*
X116850857Y-79627428D01*
X116936571Y-79627428D01*
X116993714Y-79656000D01*
X117022285Y-79684571D01*
X117050857Y-79741714D01*
X117050857Y-79913142D01*
X117022285Y-79970285D01*
X116993714Y-79998857D01*
X116936571Y-80027428D01*
X116850857Y-80027428D01*
X117308000Y-80027428D02*
X117308000Y-79627428D01*
X117308000Y-79741714D02*
X117336571Y-79684571D01*
X117365142Y-79656000D01*
X117422285Y-79627428D01*
X117479428Y-79627428D01*
X117593714Y-79627428D02*
X117822285Y-79627428D01*
X117679428Y-79427428D02*
X117679428Y-79941714D01*
X117708000Y-79998857D01*
X117765142Y-80027428D01*
X117822285Y-80027428D01*
X119250857Y-80027428D02*
X118908000Y-80027428D01*
X119079428Y-80027428D02*
X119079428Y-79427428D01*
X119022285Y-79513142D01*
X118965142Y-79570285D01*
X118908000Y-79598857D01*
X119765142Y-79427428D02*
X119650857Y-79427428D01*
X119593714Y-79456000D01*
X119565142Y-79484571D01*
X119508000Y-79570285D01*
X119479428Y-79684571D01*
X119479428Y-79913142D01*
X119508000Y-79970285D01*
X119536571Y-79998857D01*
X119593714Y-80027428D01*
X119708000Y-80027428D01*
X119765142Y-79998857D01*
X119793714Y-79970285D01*
X119822285Y-79913142D01*
X119822285Y-79770285D01*
X119793714Y-79713142D01*
X119765142Y-79684571D01*
X119708000Y-79656000D01*
X119593714Y-79656000D01*
X119536571Y-79684571D01*
X119508000Y-79713142D01*
X119479428Y-79770285D01*
X121765142Y-80027428D02*
X121422285Y-80027428D01*
X121593714Y-80027428D02*
X121593714Y-79427428D01*
X121536571Y-79513142D01*
X121479428Y-79570285D01*
X121422285Y-79598857D01*
X122308000Y-79427428D02*
X122022285Y-79427428D01*
X121993714Y-79713142D01*
X122022285Y-79684571D01*
X122079428Y-79656000D01*
X122222285Y-79656000D01*
X122279428Y-79684571D01*
X122308000Y-79713142D01*
X122336571Y-79770285D01*
X122336571Y-79913142D01*
X122308000Y-79970285D01*
X122279428Y-79998857D01*
X122222285Y-80027428D01*
X122079428Y-80027428D01*
X122022285Y-79998857D01*
X121993714Y-79970285D01*
X124279428Y-80027428D02*
X123936571Y-80027428D01*
X124108000Y-80027428D02*
X124108000Y-79427428D01*
X124050857Y-79513142D01*
X123993714Y-79570285D01*
X123936571Y-79598857D01*
X124793714Y-79627428D02*
X124793714Y-80027428D01*
X124650857Y-79398857D02*
X124508000Y-79827428D01*
X124879428Y-79827428D01*
X126793714Y-80027428D02*
X126450857Y-80027428D01*
X126622285Y-80027428D02*
X126622285Y-79427428D01*
X126565142Y-79513142D01*
X126508000Y-79570285D01*
X126450857Y-79598857D01*
X126993714Y-79427428D02*
X127365142Y-79427428D01*
X127165142Y-79656000D01*
X127250857Y-79656000D01*
X127308000Y-79684571D01*
X127336571Y-79713142D01*
X127365142Y-79770285D01*
X127365142Y-79913142D01*
X127336571Y-79970285D01*
X127308000Y-79998857D01*
X127250857Y-80027428D01*
X127079428Y-80027428D01*
X127022285Y-79998857D01*
X126993714Y-79970285D01*
X129308000Y-80027428D02*
X128965142Y-80027428D01*
X129136571Y-80027428D02*
X129136571Y-79427428D01*
X129079428Y-79513142D01*
X129022285Y-79570285D01*
X128965142Y-79598857D01*
X129536571Y-79484571D02*
X129565142Y-79456000D01*
X129622285Y-79427428D01*
X129765142Y-79427428D01*
X129822285Y-79456000D01*
X129850857Y-79484571D01*
X129879428Y-79541714D01*
X129879428Y-79598857D01*
X129850857Y-79684571D01*
X129508000Y-80027428D01*
X129879428Y-80027428D01*
X131822285Y-80027428D02*
X131479428Y-80027428D01*
X131650857Y-80027428D02*
X131650857Y-79427428D01*
X131593714Y-79513142D01*
X131536571Y-79570285D01*
X131479428Y-79598857D01*
X132393714Y-80027428D02*
X132050857Y-80027428D01*
X132222285Y-80027428D02*
X132222285Y-79427428D01*
X132165142Y-79513142D01*
X132107999Y-79570285D01*
X132050857Y-79598857D01*
X134336571Y-80027428D02*
X133993714Y-80027428D01*
X134165142Y-80027428D02*
X134165142Y-79427428D01*
X134108000Y-79513142D01*
X134050857Y-79570285D01*
X133993714Y-79598857D01*
X134708000Y-79427428D02*
X134765142Y-79427428D01*
X134822285Y-79456000D01*
X134850857Y-79484571D01*
X134879428Y-79541714D01*
X134908000Y-79656000D01*
X134908000Y-79798857D01*
X134879428Y-79913142D01*
X134850857Y-79970285D01*
X134822285Y-79998857D01*
X134765142Y-80027428D01*
X134708000Y-80027428D01*
X134650857Y-79998857D01*
X134622285Y-79970285D01*
X134593714Y-79913142D01*
X134565142Y-79798857D01*
X134565142Y-79656000D01*
X134593714Y-79541714D01*
X134622285Y-79484571D01*
X134650857Y-79456000D01*
X134708000Y-79427428D01*
X137022285Y-80027428D02*
X137136571Y-80027428D01*
X137193714Y-79998857D01*
X137222285Y-79970285D01*
X137279428Y-79884571D01*
X137308000Y-79770285D01*
X137308000Y-79541714D01*
X137279428Y-79484571D01*
X137250857Y-79456000D01*
X137193714Y-79427428D01*
X137079428Y-79427428D01*
X137022285Y-79456000D01*
X136993714Y-79484571D01*
X136965142Y-79541714D01*
X136965142Y-79684571D01*
X136993714Y-79741714D01*
X137022285Y-79770285D01*
X137079428Y-79798857D01*
X137193714Y-79798857D01*
X137250857Y-79770285D01*
X137279428Y-79741714D01*
X137308000Y-79684571D01*
X139479428Y-79684571D02*
X139422285Y-79656000D01*
X139393714Y-79627428D01*
X139365142Y-79570285D01*
X139365142Y-79541714D01*
X139393714Y-79484571D01*
X139422285Y-79456000D01*
X139479428Y-79427428D01*
X139593714Y-79427428D01*
X139650857Y-79456000D01*
X139679428Y-79484571D01*
X139708000Y-79541714D01*
X139708000Y-79570285D01*
X139679428Y-79627428D01*
X139650857Y-79656000D01*
X139593714Y-79684571D01*
X139479428Y-79684571D01*
X139422285Y-79713142D01*
X139393714Y-79741714D01*
X139365142Y-79798857D01*
X139365142Y-79913142D01*
X139393714Y-79970285D01*
X139422285Y-79998857D01*
X139479428Y-80027428D01*
X139593714Y-80027428D01*
X139650857Y-79998857D01*
X139679428Y-79970285D01*
X139708000Y-79913142D01*
X139708000Y-79798857D01*
X139679428Y-79741714D01*
X139650857Y-79713142D01*
X139593714Y-79684571D01*
X141736571Y-79427428D02*
X142136571Y-79427428D01*
X141879428Y-80027428D01*
X144450857Y-79427428D02*
X144336571Y-79427428D01*
X144279428Y-79456000D01*
X144250857Y-79484571D01*
X144193714Y-79570285D01*
X144165142Y-79684571D01*
X144165142Y-79913142D01*
X144193714Y-79970285D01*
X144222285Y-79998857D01*
X144279428Y-80027428D01*
X144393714Y-80027428D01*
X144450857Y-79998857D01*
X144479428Y-79970285D01*
X144508000Y-79913142D01*
X144508000Y-79770285D01*
X144479428Y-79713142D01*
X144450857Y-79684571D01*
X144393714Y-79656000D01*
X144279428Y-79656000D01*
X144222285Y-79684571D01*
X144193714Y-79713142D01*
X144165142Y-79770285D01*
X147336571Y-79427428D02*
X147050857Y-79427428D01*
X147022285Y-79713142D01*
X147050857Y-79684571D01*
X147108000Y-79656000D01*
X147250857Y-79656000D01*
X147308000Y-79684571D01*
X147336571Y-79713142D01*
X147365142Y-79770285D01*
X147365142Y-79913142D01*
X147336571Y-79970285D01*
X147308000Y-79998857D01*
X147250857Y-80027428D01*
X147108000Y-80027428D01*
X147050857Y-79998857D01*
X147022285Y-79970285D01*
X149708000Y-79627428D02*
X149708000Y-80027428D01*
X149565142Y-79398857D02*
X149422285Y-79827428D01*
X149793714Y-79827428D01*
X152250857Y-79427428D02*
X152622285Y-79427428D01*
X152422285Y-79656000D01*
X152508000Y-79656000D01*
X152565142Y-79684571D01*
X152593714Y-79713142D01*
X152622285Y-79770285D01*
X152622285Y-79913142D01*
X152593714Y-79970285D01*
X152565142Y-79998857D01*
X152508000Y-80027428D01*
X152336571Y-80027428D01*
X152279428Y-79998857D01*
X152250857Y-79970285D01*
X154679428Y-79484571D02*
X154708000Y-79456000D01*
X154765142Y-79427428D01*
X154908000Y-79427428D01*
X154965142Y-79456000D01*
X154993714Y-79484571D01*
X155022285Y-79541714D01*
X155022285Y-79598857D01*
X154993714Y-79684571D01*
X154650857Y-80027428D01*
X155022285Y-80027428D01*
X157422285Y-80027428D02*
X157079428Y-80027428D01*
X157250857Y-80027428D02*
X157250857Y-79427428D01*
X157193714Y-79513142D01*
X157136571Y-79570285D01*
X157079428Y-79598857D01*
X159022285Y-79998857D02*
X159108000Y-80027428D01*
X159250857Y-80027428D01*
X159308000Y-79998857D01*
X159336571Y-79970285D01*
X159365142Y-79913142D01*
X159365142Y-79856000D01*
X159336571Y-79798857D01*
X159308000Y-79770285D01*
X159250857Y-79741714D01*
X159136571Y-79713142D01*
X159079428Y-79684571D01*
X159050857Y-79656000D01*
X159022285Y-79598857D01*
X159022285Y-79541714D01*
X159050857Y-79484571D01*
X159079428Y-79456000D01*
X159136571Y-79427428D01*
X159279428Y-79427428D01*
X159365142Y-79456000D01*
X159622285Y-80027428D02*
X159622285Y-79427428D01*
X159879428Y-80027428D02*
X159879428Y-79713142D01*
X159850857Y-79656000D01*
X159793714Y-79627428D01*
X159708000Y-79627428D01*
X159650857Y-79656000D01*
X159622285Y-79684571D01*
X160250857Y-80027428D02*
X160193714Y-79998857D01*
X160165142Y-79970285D01*
X160136571Y-79913142D01*
X160136571Y-79741714D01*
X160165142Y-79684571D01*
X160193714Y-79656000D01*
X160250857Y-79627428D01*
X160336571Y-79627428D01*
X160393714Y-79656000D01*
X160422285Y-79684571D01*
X160450857Y-79741714D01*
X160450857Y-79913142D01*
X160422285Y-79970285D01*
X160393714Y-79998857D01*
X160336571Y-80027428D01*
X160250857Y-80027428D01*
X160708000Y-80027428D02*
X160708000Y-79627428D01*
X160708000Y-79741714D02*
X160736571Y-79684571D01*
X160765142Y-79656000D01*
X160822285Y-79627428D01*
X160879428Y-79627428D01*
X160993714Y-79627428D02*
X161222285Y-79627428D01*
X161079428Y-79427428D02*
X161079428Y-79941714D01*
X161108000Y-79998857D01*
X161165142Y-80027428D01*
X161222285Y-80027428D01*
D11*
X156773619Y-70675761D02*
X157773619Y-70675761D01*
X157773619Y-71056714D01*
X157726000Y-71151952D01*
X157678380Y-71199571D01*
X157583142Y-71247190D01*
X157440285Y-71247190D01*
X157345047Y-71199571D01*
X157297428Y-71151952D01*
X157249809Y-71056714D01*
X157249809Y-70675761D01*
X156773619Y-72199571D02*
X156773619Y-71628142D01*
X156773619Y-71913857D02*
X157773619Y-71913857D01*
X157630761Y-71818619D01*
X157535523Y-71723380D01*
X157487904Y-71628142D01*
X156773619Y-73390047D02*
X157773619Y-73390047D01*
X157773619Y-73771000D01*
X157726000Y-73866238D01*
X157678380Y-73913857D01*
X157583142Y-73961476D01*
X157440285Y-73961476D01*
X157345047Y-73913857D01*
X157297428Y-73866238D01*
X157249809Y-73771000D01*
X157249809Y-73390047D01*
X157678380Y-74342428D02*
X157726000Y-74390047D01*
X157773619Y-74485285D01*
X157773619Y-74723380D01*
X157726000Y-74818619D01*
X157678380Y-74866238D01*
X157583142Y-74913857D01*
X157487904Y-74913857D01*
X157345047Y-74866238D01*
X156773619Y-74294809D01*
X156773619Y-74913857D01*
D10*
X160844666Y-92222000D02*
X160144666Y-92222000D01*
X160144666Y-92055333D01*
X160178000Y-91955333D01*
X160244666Y-91888666D01*
X160311333Y-91855333D01*
X160444666Y-91822000D01*
X160544666Y-91822000D01*
X160678000Y-91855333D01*
X160744666Y-91888666D01*
X160811333Y-91955333D01*
X160844666Y-92055333D01*
X160844666Y-92222000D01*
X160144666Y-91622000D02*
X160144666Y-91222000D01*
X160844666Y-91422000D02*
X160144666Y-91422000D01*
X160778000Y-89522000D02*
X160811333Y-89555333D01*
X160844666Y-89655333D01*
X160844666Y-89722000D01*
X160811333Y-89822000D01*
X160744666Y-89888666D01*
X160678000Y-89922000D01*
X160544666Y-89955333D01*
X160444666Y-89955333D01*
X160311333Y-89922000D01*
X160244666Y-89888666D01*
X160178000Y-89822000D01*
X160144666Y-89722000D01*
X160144666Y-89655333D01*
X160178000Y-89555333D01*
X160211333Y-89522000D01*
X160844666Y-89222000D02*
X160144666Y-89222000D01*
X160844666Y-88822000D02*
X160444666Y-89122000D01*
X160144666Y-88822000D02*
X160544666Y-89222000D01*
X160844666Y-87122000D02*
X160844666Y-87455333D01*
X160144666Y-87455333D01*
X160844666Y-86888666D02*
X160144666Y-86888666D01*
X160144666Y-86722000D01*
X160178000Y-86622000D01*
X160244666Y-86555333D01*
X160311333Y-86522000D01*
X160444666Y-86488666D01*
X160544666Y-86488666D01*
X160678000Y-86522000D01*
X160744666Y-86555333D01*
X160811333Y-86622000D01*
X160844666Y-86722000D01*
X160844666Y-86888666D01*
X160178000Y-84222000D02*
X160144666Y-84288666D01*
X160144666Y-84388666D01*
X160178000Y-84488666D01*
X160244666Y-84555333D01*
X160311333Y-84588666D01*
X160444666Y-84622000D01*
X160544666Y-84622000D01*
X160678000Y-84588666D01*
X160744666Y-84555333D01*
X160811333Y-84488666D01*
X160844666Y-84388666D01*
X160844666Y-84322000D01*
X160811333Y-84222000D01*
X160778000Y-84188666D01*
X160544666Y-84188666D01*
X160544666Y-84322000D01*
X160144666Y-82388666D02*
X160844666Y-82155333D01*
X160144666Y-81922000D01*
X120575285Y-69584857D02*
X120661000Y-69613428D01*
X120803857Y-69613428D01*
X120861000Y-69584857D01*
X120889571Y-69556285D01*
X120918142Y-69499142D01*
X120918142Y-69442000D01*
X120889571Y-69384857D01*
X120861000Y-69356285D01*
X120803857Y-69327714D01*
X120689571Y-69299142D01*
X120632428Y-69270571D01*
X120603857Y-69242000D01*
X120575285Y-69184857D01*
X120575285Y-69127714D01*
X120603857Y-69070571D01*
X120632428Y-69042000D01*
X120689571Y-69013428D01*
X120832428Y-69013428D01*
X120918142Y-69042000D01*
X121175285Y-69613428D02*
X121175285Y-69013428D01*
X121432428Y-69613428D02*
X121432428Y-69299142D01*
X121403857Y-69242000D01*
X121346714Y-69213428D01*
X121261000Y-69213428D01*
X121203857Y-69242000D01*
X121175285Y-69270571D01*
X121803857Y-69613428D02*
X121746714Y-69584857D01*
X121718142Y-69556285D01*
X121689571Y-69499142D01*
X121689571Y-69327714D01*
X121718142Y-69270571D01*
X121746714Y-69242000D01*
X121803857Y-69213428D01*
X121889571Y-69213428D01*
X121946714Y-69242000D01*
X121975285Y-69270571D01*
X122003857Y-69327714D01*
X122003857Y-69499142D01*
X121975285Y-69556285D01*
X121946714Y-69584857D01*
X121889571Y-69613428D01*
X121803857Y-69613428D01*
X122261000Y-69613428D02*
X122261000Y-69213428D01*
X122261000Y-69327714D02*
X122289571Y-69270571D01*
X122318142Y-69242000D01*
X122375285Y-69213428D01*
X122432428Y-69213428D01*
X122546714Y-69213428D02*
X122775285Y-69213428D01*
X122632428Y-69013428D02*
X122632428Y-69527714D01*
X122661000Y-69584857D01*
X122718142Y-69613428D01*
X122775285Y-69613428D01*
X124203857Y-69613428D02*
X123861000Y-69613428D01*
X124032428Y-69613428D02*
X124032428Y-69013428D01*
X123975285Y-69099142D01*
X123918142Y-69156285D01*
X123861000Y-69184857D01*
X124432428Y-69070571D02*
X124461000Y-69042000D01*
X124518142Y-69013428D01*
X124661000Y-69013428D01*
X124718142Y-69042000D01*
X124746714Y-69070571D01*
X124775285Y-69127714D01*
X124775285Y-69184857D01*
X124746714Y-69270571D01*
X124403857Y-69613428D01*
X124775285Y-69613428D01*
X126718142Y-69613428D02*
X126375285Y-69613428D01*
X126546714Y-69613428D02*
X126546714Y-69013428D01*
X126489571Y-69099142D01*
X126432428Y-69156285D01*
X126375285Y-69184857D01*
X127289571Y-69613428D02*
X126946714Y-69613428D01*
X127118142Y-69613428D02*
X127118142Y-69013428D01*
X127061000Y-69099142D01*
X127003857Y-69156285D01*
X126946714Y-69184857D01*
X129232428Y-69613428D02*
X128889571Y-69613428D01*
X129061000Y-69613428D02*
X129061000Y-69013428D01*
X129003857Y-69099142D01*
X128946714Y-69156285D01*
X128889571Y-69184857D01*
X129603857Y-69013428D02*
X129661000Y-69013428D01*
X129718142Y-69042000D01*
X129746714Y-69070571D01*
X129775285Y-69127714D01*
X129803857Y-69242000D01*
X129803857Y-69384857D01*
X129775285Y-69499142D01*
X129746714Y-69556285D01*
X129718142Y-69584857D01*
X129661000Y-69613428D01*
X129603857Y-69613428D01*
X129546714Y-69584857D01*
X129518142Y-69556285D01*
X129489571Y-69499142D01*
X129461000Y-69384857D01*
X129461000Y-69242000D01*
X129489571Y-69127714D01*
X129518142Y-69070571D01*
X129546714Y-69042000D01*
X129603857Y-69013428D01*
X131918142Y-69613428D02*
X132032428Y-69613428D01*
X132089571Y-69584857D01*
X132118142Y-69556285D01*
X132175285Y-69470571D01*
X132203857Y-69356285D01*
X132203857Y-69127714D01*
X132175285Y-69070571D01*
X132146714Y-69042000D01*
X132089571Y-69013428D01*
X131975285Y-69013428D01*
X131918142Y-69042000D01*
X131889571Y-69070571D01*
X131861000Y-69127714D01*
X131861000Y-69270571D01*
X131889571Y-69327714D01*
X131918142Y-69356285D01*
X131975285Y-69384857D01*
X132089571Y-69384857D01*
X132146714Y-69356285D01*
X132175285Y-69327714D01*
X132203857Y-69270571D01*
X134375285Y-69270571D02*
X134318142Y-69242000D01*
X134289571Y-69213428D01*
X134261000Y-69156285D01*
X134261000Y-69127714D01*
X134289571Y-69070571D01*
X134318142Y-69042000D01*
X134375285Y-69013428D01*
X134489571Y-69013428D01*
X134546714Y-69042000D01*
X134575285Y-69070571D01*
X134603857Y-69127714D01*
X134603857Y-69156285D01*
X134575285Y-69213428D01*
X134546714Y-69242000D01*
X134489571Y-69270571D01*
X134375285Y-69270571D01*
X134318142Y-69299142D01*
X134289571Y-69327714D01*
X134261000Y-69384857D01*
X134261000Y-69499142D01*
X134289571Y-69556285D01*
X134318142Y-69584857D01*
X134375285Y-69613428D01*
X134489571Y-69613428D01*
X134546714Y-69584857D01*
X134575285Y-69556285D01*
X134603857Y-69499142D01*
X134603857Y-69384857D01*
X134575285Y-69327714D01*
X134546714Y-69299142D01*
X134489571Y-69270571D01*
X136632428Y-69013428D02*
X137032428Y-69013428D01*
X136775285Y-69613428D01*
X139346714Y-69013428D02*
X139232428Y-69013428D01*
X139175285Y-69042000D01*
X139146714Y-69070571D01*
X139089571Y-69156285D01*
X139061000Y-69270571D01*
X139061000Y-69499142D01*
X139089571Y-69556285D01*
X139118142Y-69584857D01*
X139175285Y-69613428D01*
X139289571Y-69613428D01*
X139346714Y-69584857D01*
X139375285Y-69556285D01*
X139403857Y-69499142D01*
X139403857Y-69356285D01*
X139375285Y-69299142D01*
X139346714Y-69270571D01*
X139289571Y-69242000D01*
X139175285Y-69242000D01*
X139118142Y-69270571D01*
X139089571Y-69299142D01*
X139061000Y-69356285D01*
X142232428Y-69013428D02*
X141946714Y-69013428D01*
X141918142Y-69299142D01*
X141946714Y-69270571D01*
X142003857Y-69242000D01*
X142146714Y-69242000D01*
X142203857Y-69270571D01*
X142232428Y-69299142D01*
X142261000Y-69356285D01*
X142261000Y-69499142D01*
X142232428Y-69556285D01*
X142203857Y-69584857D01*
X142146714Y-69613428D01*
X142003857Y-69613428D01*
X141946714Y-69584857D01*
X141918142Y-69556285D01*
X144603857Y-69213428D02*
X144603857Y-69613428D01*
X144461000Y-68984857D02*
X144318142Y-69413428D01*
X144689571Y-69413428D01*
X147146714Y-69013428D02*
X147518142Y-69013428D01*
X147318142Y-69242000D01*
X147403857Y-69242000D01*
X147461000Y-69270571D01*
X147489571Y-69299142D01*
X147518142Y-69356285D01*
X147518142Y-69499142D01*
X147489571Y-69556285D01*
X147461000Y-69584857D01*
X147403857Y-69613428D01*
X147232428Y-69613428D01*
X147175285Y-69584857D01*
X147146714Y-69556285D01*
X149575285Y-69070571D02*
X149603857Y-69042000D01*
X149661000Y-69013428D01*
X149803857Y-69013428D01*
X149861000Y-69042000D01*
X149889571Y-69070571D01*
X149918142Y-69127714D01*
X149918142Y-69184857D01*
X149889571Y-69270571D01*
X149546714Y-69613428D01*
X149918142Y-69613428D01*
X152318142Y-69613428D02*
X151975285Y-69613428D01*
X152146714Y-69613428D02*
X152146714Y-69013428D01*
X152089571Y-69099142D01*
X152032428Y-69156285D01*
X151975285Y-69184857D01*
X153918142Y-69584857D02*
X154003857Y-69613428D01*
X154146714Y-69613428D01*
X154203857Y-69584857D01*
X154232428Y-69556285D01*
X154261000Y-69499142D01*
X154261000Y-69442000D01*
X154232428Y-69384857D01*
X154203857Y-69356285D01*
X154146714Y-69327714D01*
X154032428Y-69299142D01*
X153975285Y-69270571D01*
X153946714Y-69242000D01*
X153918142Y-69184857D01*
X153918142Y-69127714D01*
X153946714Y-69070571D01*
X153975285Y-69042000D01*
X154032428Y-69013428D01*
X154175285Y-69013428D01*
X154261000Y-69042000D01*
X154518142Y-69613428D02*
X154518142Y-69013428D01*
X154775285Y-69613428D02*
X154775285Y-69299142D01*
X154746714Y-69242000D01*
X154689571Y-69213428D01*
X154603857Y-69213428D01*
X154546714Y-69242000D01*
X154518142Y-69270571D01*
X155146714Y-69613428D02*
X155089571Y-69584857D01*
X155061000Y-69556285D01*
X155032428Y-69499142D01*
X155032428Y-69327714D01*
X155061000Y-69270571D01*
X155089571Y-69242000D01*
X155146714Y-69213428D01*
X155232428Y-69213428D01*
X155289571Y-69242000D01*
X155318142Y-69270571D01*
X155346714Y-69327714D01*
X155346714Y-69499142D01*
X155318142Y-69556285D01*
X155289571Y-69584857D01*
X155232428Y-69613428D01*
X155146714Y-69613428D01*
X155603857Y-69613428D02*
X155603857Y-69213428D01*
X155603857Y-69327714D02*
X155632428Y-69270571D01*
X155661000Y-69242000D01*
X155718142Y-69213428D01*
X155775285Y-69213428D01*
X155889571Y-69213428D02*
X156118142Y-69213428D01*
X155975285Y-69013428D02*
X155975285Y-69527714D01*
X156003857Y-69584857D01*
X156061000Y-69613428D01*
X156118142Y-69613428D01*
X116588333Y-81865666D02*
X115888333Y-82099000D01*
X116588333Y-82332333D01*
X116555000Y-84532333D02*
X116588333Y-84465666D01*
X116588333Y-84365666D01*
X116555000Y-84265666D01*
X116488333Y-84199000D01*
X116421666Y-84165666D01*
X116288333Y-84132333D01*
X116188333Y-84132333D01*
X116055000Y-84165666D01*
X115988333Y-84199000D01*
X115921666Y-84265666D01*
X115888333Y-84365666D01*
X115888333Y-84432333D01*
X115921666Y-84532333D01*
X115955000Y-84565666D01*
X116188333Y-84565666D01*
X116188333Y-84432333D01*
X115888333Y-86799000D02*
X115888333Y-86465666D01*
X116588333Y-86465666D01*
X115888333Y-87032333D02*
X116588333Y-87032333D01*
X116588333Y-87199000D01*
X116555000Y-87299000D01*
X116488333Y-87365666D01*
X116421666Y-87399000D01*
X116288333Y-87432333D01*
X116188333Y-87432333D01*
X116055000Y-87399000D01*
X115988333Y-87365666D01*
X115921666Y-87299000D01*
X115888333Y-87199000D01*
X115888333Y-87032333D01*
X115955000Y-89732333D02*
X115921666Y-89699000D01*
X115888333Y-89599000D01*
X115888333Y-89532333D01*
X115921666Y-89432333D01*
X115988333Y-89365666D01*
X116055000Y-89332333D01*
X116188333Y-89299000D01*
X116288333Y-89299000D01*
X116421666Y-89332333D01*
X116488333Y-89365666D01*
X116555000Y-89432333D01*
X116588333Y-89532333D01*
X116588333Y-89599000D01*
X116555000Y-89699000D01*
X116521666Y-89732333D01*
X115888333Y-90032333D02*
X116588333Y-90032333D01*
X115888333Y-90432333D02*
X116288333Y-90132333D01*
X116588333Y-90432333D02*
X116188333Y-90032333D01*
X115888333Y-91799000D02*
X116588333Y-91799000D01*
X115888333Y-92132333D02*
X116588333Y-92132333D01*
X115888333Y-92532333D01*
X116588333Y-92532333D01*
D12*
%TO.C,OUT1*%
X160976000Y-80458000D02*
X162306000Y-80458000D01*
X160976000Y-81788000D02*
X160976000Y-80458000D01*
X160976000Y-83058000D02*
X163636000Y-83058000D01*
X163636000Y-83058000D02*
X163636000Y-93278000D01*
X160976000Y-83058000D02*
X160976000Y-93278000D01*
X160976000Y-93278000D02*
X163636000Y-93278000D01*
%TO.C,IN1*%
X113224000Y-80585000D02*
X114554000Y-80585000D01*
X113224000Y-81915000D02*
X113224000Y-80585000D01*
X113224000Y-83185000D02*
X115884000Y-83185000D01*
X115884000Y-83185000D02*
X115884000Y-93405000D01*
X113224000Y-83185000D02*
X113224000Y-93405000D01*
X113224000Y-93405000D02*
X115884000Y-93405000D01*
%TO.C,J1*%
X161223000Y-76648000D02*
X161223000Y-77978000D01*
X159893000Y-76648000D02*
X161223000Y-76648000D01*
X158623000Y-76648000D02*
X158623000Y-79308000D01*
X158623000Y-79308000D02*
X115383000Y-79308000D01*
X158623000Y-76648000D02*
X115383000Y-76648000D01*
X115383000Y-76648000D02*
X115383000Y-79308000D01*
%TO.C,RN1*%
X145497500Y-89540500D02*
X144697500Y-89540500D01*
X145497500Y-86100500D02*
X144697500Y-86100500D01*
%TO.C,RN2*%
X157651500Y-91001000D02*
X158451500Y-91001000D01*
X157651500Y-87561000D02*
X158451500Y-87561000D01*
%TO.C,J2*%
X156143000Y-70171000D02*
X156143000Y-71501000D01*
X154813000Y-70171000D02*
X156143000Y-70171000D01*
X156143000Y-72771000D02*
X156143000Y-75371000D01*
X153543000Y-72771000D02*
X156143000Y-72771000D01*
X153543000Y-70171000D02*
X153543000Y-72771000D01*
X156143000Y-75371000D02*
X120463000Y-75371000D01*
X153543000Y-70171000D02*
X120463000Y-70171000D01*
X120463000Y-70171000D02*
X120463000Y-75371000D01*
%TO.C,C2*%
X143432920Y-83818000D02*
X143714080Y-83818000D01*
X143432920Y-84838000D02*
X143714080Y-84838000D01*
%TO.C,C3*%
X129970920Y-83818000D02*
X130252080Y-83818000D01*
X129970920Y-84838000D02*
X130252080Y-84838000D01*
%TO.C,C1*%
X157148920Y-83818000D02*
X157430080Y-83818000D01*
X157148920Y-84838000D02*
X157430080Y-84838000D01*
%TO.C,SHORT1*%
X117493000Y-75676000D02*
X113393000Y-75676000D01*
X113393000Y-75676000D02*
X113393000Y-73676000D01*
X113393000Y-73676000D02*
X117493000Y-73676000D01*
X117493000Y-73676000D02*
X117493000Y-75676000D01*
%TO.C,PULL1*%
X163467000Y-75676000D02*
X159367000Y-75676000D01*
X159367000Y-75676000D02*
X159367000Y-73676000D01*
X159367000Y-73676000D02*
X163467000Y-73676000D01*
X163467000Y-73676000D02*
X163467000Y-75676000D01*
%TO.C,RN3*%
X132035500Y-86100500D02*
X131235500Y-86100500D01*
X132035500Y-89540500D02*
X131235500Y-89540500D01*
%TO.C,RN4*%
X144697500Y-93350500D02*
X145497500Y-93350500D01*
X144697500Y-89910500D02*
X145497500Y-89910500D01*
%TO.C,RN5*%
X119081500Y-87561000D02*
X118281500Y-87561000D01*
X119081500Y-91001000D02*
X118281500Y-91001000D01*
%TO.C,RN6*%
X131235500Y-93350500D02*
X132035500Y-93350500D01*
X131235500Y-89910500D02*
X132035500Y-89910500D01*
%TO.C,74HC165_3*%
X124777500Y-94404500D02*
X126727500Y-94404500D01*
X124777500Y-94404500D02*
X122827500Y-94404500D01*
X124777500Y-84284500D02*
X126727500Y-84284500D01*
X124777500Y-84284500D02*
X121327500Y-84284500D01*
%TO.C,74HC165_2*%
X138239500Y-84284500D02*
X134789500Y-84284500D01*
X138239500Y-84284500D02*
X140189500Y-84284500D01*
X138239500Y-94404500D02*
X136289500Y-94404500D01*
X138239500Y-94404500D02*
X140189500Y-94404500D01*
%TO.C,74HC165_1*%
X151828500Y-84284500D02*
X148378500Y-84284500D01*
X151828500Y-84284500D02*
X153778500Y-84284500D01*
X151828500Y-94404500D02*
X149878500Y-94404500D01*
X151828500Y-94404500D02*
X153778500Y-94404500D01*
%TO.C,OUT1*%
D11*
X160829809Y-78910380D02*
X161020285Y-78910380D01*
X161115523Y-78958000D01*
X161210761Y-79053238D01*
X161258380Y-79243714D01*
X161258380Y-79577047D01*
X161210761Y-79767523D01*
X161115523Y-79862761D01*
X161020285Y-79910380D01*
X160829809Y-79910380D01*
X160734571Y-79862761D01*
X160639333Y-79767523D01*
X160591714Y-79577047D01*
X160591714Y-79243714D01*
X160639333Y-79053238D01*
X160734571Y-78958000D01*
X160829809Y-78910380D01*
X161686952Y-78910380D02*
X161686952Y-79719904D01*
X161734571Y-79815142D01*
X161782190Y-79862761D01*
X161877428Y-79910380D01*
X162067904Y-79910380D01*
X162163142Y-79862761D01*
X162210761Y-79815142D01*
X162258380Y-79719904D01*
X162258380Y-78910380D01*
X162591714Y-78910380D02*
X163163142Y-78910380D01*
X162877428Y-79910380D02*
X162877428Y-78910380D01*
X164020285Y-79910380D02*
X163448857Y-79910380D01*
X163734571Y-79910380D02*
X163734571Y-78910380D01*
X163639333Y-79053238D01*
X163544095Y-79148476D01*
X163448857Y-79196095D01*
%TO.C,IN1*%
X113554000Y-80037380D02*
X113554000Y-79037380D01*
X114030190Y-80037380D02*
X114030190Y-79037380D01*
X114601619Y-80037380D01*
X114601619Y-79037380D01*
X115601619Y-80037380D02*
X115030190Y-80037380D01*
X115315904Y-80037380D02*
X115315904Y-79037380D01*
X115220666Y-79180238D01*
X115125428Y-79275476D01*
X115030190Y-79323095D01*
%TO.C,RN1*%
D10*
X144879261Y-85786090D02*
X144712595Y-85547995D01*
X144593547Y-85786090D02*
X144593547Y-85286090D01*
X144784023Y-85286090D01*
X144831642Y-85309900D01*
X144855452Y-85333709D01*
X144879261Y-85381328D01*
X144879261Y-85452757D01*
X144855452Y-85500376D01*
X144831642Y-85524185D01*
X144784023Y-85547995D01*
X144593547Y-85547995D01*
X145093547Y-85786090D02*
X145093547Y-85286090D01*
X145379261Y-85786090D01*
X145379261Y-85286090D01*
X145879261Y-85786090D02*
X145593547Y-85786090D01*
X145736404Y-85786090D02*
X145736404Y-85286090D01*
X145688785Y-85357519D01*
X145641166Y-85405138D01*
X145593547Y-85428947D01*
%TO.C,RN2*%
X157706261Y-87221190D02*
X157539595Y-86983095D01*
X157420547Y-87221190D02*
X157420547Y-86721190D01*
X157611023Y-86721190D01*
X157658642Y-86745000D01*
X157682452Y-86768809D01*
X157706261Y-86816428D01*
X157706261Y-86887857D01*
X157682452Y-86935476D01*
X157658642Y-86959285D01*
X157611023Y-86983095D01*
X157420547Y-86983095D01*
X157920547Y-87221190D02*
X157920547Y-86721190D01*
X158206261Y-87221190D01*
X158206261Y-86721190D01*
X158420547Y-86768809D02*
X158444357Y-86745000D01*
X158491976Y-86721190D01*
X158611023Y-86721190D01*
X158658642Y-86745000D01*
X158682452Y-86768809D01*
X158706261Y-86816428D01*
X158706261Y-86864047D01*
X158682452Y-86935476D01*
X158396738Y-87221190D01*
X158706261Y-87221190D01*
%TO.C,C2*%
X143490166Y-83414371D02*
X143466357Y-83438180D01*
X143394928Y-83461990D01*
X143347309Y-83461990D01*
X143275880Y-83438180D01*
X143228261Y-83390561D01*
X143204452Y-83342942D01*
X143180642Y-83247704D01*
X143180642Y-83176276D01*
X143204452Y-83081038D01*
X143228261Y-83033419D01*
X143275880Y-82985800D01*
X143347309Y-82961990D01*
X143394928Y-82961990D01*
X143466357Y-82985800D01*
X143490166Y-83009609D01*
X143680642Y-83009609D02*
X143704452Y-82985800D01*
X143752071Y-82961990D01*
X143871119Y-82961990D01*
X143918738Y-82985800D01*
X143942547Y-83009609D01*
X143966357Y-83057228D01*
X143966357Y-83104847D01*
X143942547Y-83176276D01*
X143656833Y-83461990D01*
X143966357Y-83461990D01*
%TO.C,C3*%
X129977366Y-83439771D02*
X129953557Y-83463580D01*
X129882128Y-83487390D01*
X129834509Y-83487390D01*
X129763080Y-83463580D01*
X129715461Y-83415961D01*
X129691652Y-83368342D01*
X129667842Y-83273104D01*
X129667842Y-83201676D01*
X129691652Y-83106438D01*
X129715461Y-83058819D01*
X129763080Y-83011200D01*
X129834509Y-82987390D01*
X129882128Y-82987390D01*
X129953557Y-83011200D01*
X129977366Y-83035009D01*
X130144033Y-82987390D02*
X130453557Y-82987390D01*
X130286890Y-83177866D01*
X130358319Y-83177866D01*
X130405938Y-83201676D01*
X130429747Y-83225485D01*
X130453557Y-83273104D01*
X130453557Y-83392152D01*
X130429747Y-83439771D01*
X130405938Y-83463580D01*
X130358319Y-83487390D01*
X130215461Y-83487390D01*
X130167842Y-83463580D01*
X130144033Y-83439771D01*
%TO.C,C1*%
X157231566Y-83388971D02*
X157207757Y-83412780D01*
X157136328Y-83436590D01*
X157088709Y-83436590D01*
X157017280Y-83412780D01*
X156969661Y-83365161D01*
X156945852Y-83317542D01*
X156922042Y-83222304D01*
X156922042Y-83150876D01*
X156945852Y-83055638D01*
X156969661Y-83008019D01*
X157017280Y-82960400D01*
X157088709Y-82936590D01*
X157136328Y-82936590D01*
X157207757Y-82960400D01*
X157231566Y-82984209D01*
X157707757Y-83436590D02*
X157422042Y-83436590D01*
X157564900Y-83436590D02*
X157564900Y-82936590D01*
X157517280Y-83008019D01*
X157469661Y-83055638D01*
X157422042Y-83079447D01*
%TO.C,SHORT1*%
D11*
X113559666Y-73181333D02*
X113659666Y-73214666D01*
X113826333Y-73214666D01*
X113893000Y-73181333D01*
X113926333Y-73148000D01*
X113959666Y-73081333D01*
X113959666Y-73014666D01*
X113926333Y-72948000D01*
X113893000Y-72914666D01*
X113826333Y-72881333D01*
X113693000Y-72848000D01*
X113626333Y-72814666D01*
X113593000Y-72781333D01*
X113559666Y-72714666D01*
X113559666Y-72648000D01*
X113593000Y-72581333D01*
X113626333Y-72548000D01*
X113693000Y-72514666D01*
X113859666Y-72514666D01*
X113959666Y-72548000D01*
X114259666Y-73214666D02*
X114259666Y-72514666D01*
X114259666Y-72848000D02*
X114659666Y-72848000D01*
X114659666Y-73214666D02*
X114659666Y-72514666D01*
X115126333Y-72514666D02*
X115259666Y-72514666D01*
X115326333Y-72548000D01*
X115393000Y-72614666D01*
X115426333Y-72748000D01*
X115426333Y-72981333D01*
X115393000Y-73114666D01*
X115326333Y-73181333D01*
X115259666Y-73214666D01*
X115126333Y-73214666D01*
X115059666Y-73181333D01*
X114993000Y-73114666D01*
X114959666Y-72981333D01*
X114959666Y-72748000D01*
X114993000Y-72614666D01*
X115059666Y-72548000D01*
X115126333Y-72514666D01*
X116126333Y-73214666D02*
X115893000Y-72881333D01*
X115726333Y-73214666D02*
X115726333Y-72514666D01*
X115993000Y-72514666D01*
X116059666Y-72548000D01*
X116093000Y-72581333D01*
X116126333Y-72648000D01*
X116126333Y-72748000D01*
X116093000Y-72814666D01*
X116059666Y-72848000D01*
X115993000Y-72881333D01*
X115726333Y-72881333D01*
X116326333Y-72514666D02*
X116726333Y-72514666D01*
X116526333Y-73214666D02*
X116526333Y-72514666D01*
X117326333Y-73214666D02*
X116926333Y-73214666D01*
X117126333Y-73214666D02*
X117126333Y-72514666D01*
X117059666Y-72614666D01*
X116993000Y-72681333D01*
X116926333Y-72714666D01*
D10*
X117650142Y-74902190D02*
X117650142Y-74402190D01*
X117769190Y-74402190D01*
X117840619Y-74426000D01*
X117888238Y-74473619D01*
X117912047Y-74521238D01*
X117935857Y-74616476D01*
X117935857Y-74687904D01*
X117912047Y-74783142D01*
X117888238Y-74830761D01*
X117840619Y-74878380D01*
X117769190Y-74902190D01*
X117650142Y-74902190D01*
X118150142Y-74902190D02*
X118150142Y-74402190D01*
X118435857Y-74902190D01*
X118435857Y-74402190D01*
X112450142Y-74402190D02*
X112450142Y-74806952D01*
X112473952Y-74854571D01*
X112497761Y-74878380D01*
X112545380Y-74902190D01*
X112640619Y-74902190D01*
X112688238Y-74878380D01*
X112712047Y-74854571D01*
X112735857Y-74806952D01*
X112735857Y-74402190D01*
X112973952Y-74902190D02*
X112973952Y-74402190D01*
X113164428Y-74402190D01*
X113212047Y-74426000D01*
X113235857Y-74449809D01*
X113259666Y-74497428D01*
X113259666Y-74568857D01*
X113235857Y-74616476D01*
X113212047Y-74640285D01*
X113164428Y-74664095D01*
X112973952Y-74664095D01*
%TO.C,PULL1*%
D11*
X159967000Y-73341666D02*
X159967000Y-72641666D01*
X160233666Y-72641666D01*
X160300333Y-72675000D01*
X160333666Y-72708333D01*
X160367000Y-72775000D01*
X160367000Y-72875000D01*
X160333666Y-72941666D01*
X160300333Y-72975000D01*
X160233666Y-73008333D01*
X159967000Y-73008333D01*
X160667000Y-72641666D02*
X160667000Y-73208333D01*
X160700333Y-73275000D01*
X160733666Y-73308333D01*
X160800333Y-73341666D01*
X160933666Y-73341666D01*
X161000333Y-73308333D01*
X161033666Y-73275000D01*
X161067000Y-73208333D01*
X161067000Y-72641666D01*
X161733666Y-73341666D02*
X161400333Y-73341666D01*
X161400333Y-72641666D01*
X162300333Y-73341666D02*
X161967000Y-73341666D01*
X161967000Y-72641666D01*
X162900333Y-73341666D02*
X162500333Y-73341666D01*
X162700333Y-73341666D02*
X162700333Y-72641666D01*
X162633666Y-72741666D01*
X162567000Y-72808333D01*
X162500333Y-72841666D01*
D10*
X163624142Y-74402190D02*
X163624142Y-74806952D01*
X163647952Y-74854571D01*
X163671761Y-74878380D01*
X163719380Y-74902190D01*
X163814619Y-74902190D01*
X163862238Y-74878380D01*
X163886047Y-74854571D01*
X163909857Y-74806952D01*
X163909857Y-74402190D01*
X164147952Y-74902190D02*
X164147952Y-74402190D01*
X164338428Y-74402190D01*
X164386047Y-74426000D01*
X164409857Y-74449809D01*
X164433666Y-74497428D01*
X164433666Y-74568857D01*
X164409857Y-74616476D01*
X164386047Y-74640285D01*
X164338428Y-74664095D01*
X164147952Y-74664095D01*
X158424142Y-74902190D02*
X158424142Y-74402190D01*
X158543190Y-74402190D01*
X158614619Y-74426000D01*
X158662238Y-74473619D01*
X158686047Y-74521238D01*
X158709857Y-74616476D01*
X158709857Y-74687904D01*
X158686047Y-74783142D01*
X158662238Y-74830761D01*
X158614619Y-74878380D01*
X158543190Y-74902190D01*
X158424142Y-74902190D01*
X158924142Y-74902190D02*
X158924142Y-74402190D01*
X159209857Y-74902190D01*
X159209857Y-74402190D01*
%TO.C,RN3*%
X131290261Y-85811490D02*
X131123595Y-85573395D01*
X131004547Y-85811490D02*
X131004547Y-85311490D01*
X131195023Y-85311490D01*
X131242642Y-85335300D01*
X131266452Y-85359109D01*
X131290261Y-85406728D01*
X131290261Y-85478157D01*
X131266452Y-85525776D01*
X131242642Y-85549585D01*
X131195023Y-85573395D01*
X131004547Y-85573395D01*
X131504547Y-85811490D02*
X131504547Y-85311490D01*
X131790261Y-85811490D01*
X131790261Y-85311490D01*
X131980738Y-85311490D02*
X132290261Y-85311490D01*
X132123595Y-85501966D01*
X132195023Y-85501966D01*
X132242642Y-85525776D01*
X132266452Y-85549585D01*
X132290261Y-85597204D01*
X132290261Y-85716252D01*
X132266452Y-85763871D01*
X132242642Y-85787680D01*
X132195023Y-85811490D01*
X132052166Y-85811490D01*
X132004547Y-85787680D01*
X131980738Y-85763871D01*
%TO.C,RN4*%
X144752261Y-94193490D02*
X144585595Y-93955395D01*
X144466547Y-94193490D02*
X144466547Y-93693490D01*
X144657023Y-93693490D01*
X144704642Y-93717300D01*
X144728452Y-93741109D01*
X144752261Y-93788728D01*
X144752261Y-93860157D01*
X144728452Y-93907776D01*
X144704642Y-93931585D01*
X144657023Y-93955395D01*
X144466547Y-93955395D01*
X144966547Y-94193490D02*
X144966547Y-93693490D01*
X145252261Y-94193490D01*
X145252261Y-93693490D01*
X145704642Y-93860157D02*
X145704642Y-94193490D01*
X145585595Y-93669680D02*
X145466547Y-94026823D01*
X145776071Y-94026823D01*
%TO.C,RN5*%
X118336261Y-87221190D02*
X118169595Y-86983095D01*
X118050547Y-87221190D02*
X118050547Y-86721190D01*
X118241023Y-86721190D01*
X118288642Y-86745000D01*
X118312452Y-86768809D01*
X118336261Y-86816428D01*
X118336261Y-86887857D01*
X118312452Y-86935476D01*
X118288642Y-86959285D01*
X118241023Y-86983095D01*
X118050547Y-86983095D01*
X118550547Y-87221190D02*
X118550547Y-86721190D01*
X118836261Y-87221190D01*
X118836261Y-86721190D01*
X119312452Y-86721190D02*
X119074357Y-86721190D01*
X119050547Y-86959285D01*
X119074357Y-86935476D01*
X119121976Y-86911666D01*
X119241023Y-86911666D01*
X119288642Y-86935476D01*
X119312452Y-86959285D01*
X119336261Y-87006904D01*
X119336261Y-87125952D01*
X119312452Y-87173571D01*
X119288642Y-87197380D01*
X119241023Y-87221190D01*
X119121976Y-87221190D01*
X119074357Y-87197380D01*
X119050547Y-87173571D01*
%TO.C,RN6*%
X131290261Y-94188410D02*
X131123595Y-93950315D01*
X131004547Y-94188410D02*
X131004547Y-93688410D01*
X131195023Y-93688410D01*
X131242642Y-93712220D01*
X131266452Y-93736029D01*
X131290261Y-93783648D01*
X131290261Y-93855077D01*
X131266452Y-93902696D01*
X131242642Y-93926505D01*
X131195023Y-93950315D01*
X131004547Y-93950315D01*
X131504547Y-94188410D02*
X131504547Y-93688410D01*
X131790261Y-94188410D01*
X131790261Y-93688410D01*
X132242642Y-93688410D02*
X132147404Y-93688410D01*
X132099785Y-93712220D01*
X132075976Y-93736029D01*
X132028357Y-93807458D01*
X132004547Y-93902696D01*
X132004547Y-94093172D01*
X132028357Y-94140791D01*
X132052166Y-94164600D01*
X132099785Y-94188410D01*
X132195023Y-94188410D01*
X132242642Y-94164600D01*
X132266452Y-94140791D01*
X132290261Y-94093172D01*
X132290261Y-93974124D01*
X132266452Y-93926505D01*
X132242642Y-93902696D01*
X132195023Y-93878886D01*
X132099785Y-93878886D01*
X132052166Y-93902696D01*
X132028357Y-93926505D01*
X132004547Y-93974124D01*
%TO.C,74HC165_3*%
D11*
X121894166Y-95057166D02*
X122360833Y-95057166D01*
X122060833Y-95757166D01*
X122927500Y-95290500D02*
X122927500Y-95757166D01*
X122760833Y-95023833D02*
X122594166Y-95523833D01*
X123027500Y-95523833D01*
X123294166Y-95757166D02*
X123294166Y-95057166D01*
X123294166Y-95390500D02*
X123694166Y-95390500D01*
X123694166Y-95757166D02*
X123694166Y-95057166D01*
X124427500Y-95690500D02*
X124394166Y-95723833D01*
X124294166Y-95757166D01*
X124227500Y-95757166D01*
X124127500Y-95723833D01*
X124060833Y-95657166D01*
X124027500Y-95590500D01*
X123994166Y-95457166D01*
X123994166Y-95357166D01*
X124027500Y-95223833D01*
X124060833Y-95157166D01*
X124127500Y-95090500D01*
X124227500Y-95057166D01*
X124294166Y-95057166D01*
X124394166Y-95090500D01*
X124427500Y-95123833D01*
X125094166Y-95757166D02*
X124694166Y-95757166D01*
X124894166Y-95757166D02*
X124894166Y-95057166D01*
X124827500Y-95157166D01*
X124760833Y-95223833D01*
X124694166Y-95257166D01*
X125694166Y-95057166D02*
X125560833Y-95057166D01*
X125494166Y-95090500D01*
X125460833Y-95123833D01*
X125394166Y-95223833D01*
X125360833Y-95357166D01*
X125360833Y-95623833D01*
X125394166Y-95690500D01*
X125427500Y-95723833D01*
X125494166Y-95757166D01*
X125627500Y-95757166D01*
X125694166Y-95723833D01*
X125727500Y-95690500D01*
X125760833Y-95623833D01*
X125760833Y-95457166D01*
X125727500Y-95390500D01*
X125694166Y-95357166D01*
X125627500Y-95323833D01*
X125494166Y-95323833D01*
X125427500Y-95357166D01*
X125394166Y-95390500D01*
X125360833Y-95457166D01*
X126394166Y-95057166D02*
X126060833Y-95057166D01*
X126027500Y-95390500D01*
X126060833Y-95357166D01*
X126127500Y-95323833D01*
X126294166Y-95323833D01*
X126360833Y-95357166D01*
X126394166Y-95390500D01*
X126427500Y-95457166D01*
X126427500Y-95623833D01*
X126394166Y-95690500D01*
X126360833Y-95723833D01*
X126294166Y-95757166D01*
X126127500Y-95757166D01*
X126060833Y-95723833D01*
X126027500Y-95690500D01*
X126560833Y-95823833D02*
X127094166Y-95823833D01*
X127194166Y-95057166D02*
X127627500Y-95057166D01*
X127394166Y-95323833D01*
X127494166Y-95323833D01*
X127560833Y-95357166D01*
X127594166Y-95390500D01*
X127627500Y-95457166D01*
X127627500Y-95623833D01*
X127594166Y-95690500D01*
X127560833Y-95723833D01*
X127494166Y-95757166D01*
X127294166Y-95757166D01*
X127227500Y-95723833D01*
X127194166Y-95690500D01*
%TO.C,74HC165_2*%
X135356166Y-95057166D02*
X135822833Y-95057166D01*
X135522833Y-95757166D01*
X136389500Y-95290500D02*
X136389500Y-95757166D01*
X136222833Y-95023833D02*
X136056166Y-95523833D01*
X136489500Y-95523833D01*
X136756166Y-95757166D02*
X136756166Y-95057166D01*
X136756166Y-95390500D02*
X137156166Y-95390500D01*
X137156166Y-95757166D02*
X137156166Y-95057166D01*
X137889500Y-95690500D02*
X137856166Y-95723833D01*
X137756166Y-95757166D01*
X137689500Y-95757166D01*
X137589500Y-95723833D01*
X137522833Y-95657166D01*
X137489500Y-95590500D01*
X137456166Y-95457166D01*
X137456166Y-95357166D01*
X137489500Y-95223833D01*
X137522833Y-95157166D01*
X137589500Y-95090500D01*
X137689500Y-95057166D01*
X137756166Y-95057166D01*
X137856166Y-95090500D01*
X137889500Y-95123833D01*
X138556166Y-95757166D02*
X138156166Y-95757166D01*
X138356166Y-95757166D02*
X138356166Y-95057166D01*
X138289500Y-95157166D01*
X138222833Y-95223833D01*
X138156166Y-95257166D01*
X139156166Y-95057166D02*
X139022833Y-95057166D01*
X138956166Y-95090500D01*
X138922833Y-95123833D01*
X138856166Y-95223833D01*
X138822833Y-95357166D01*
X138822833Y-95623833D01*
X138856166Y-95690500D01*
X138889500Y-95723833D01*
X138956166Y-95757166D01*
X139089500Y-95757166D01*
X139156166Y-95723833D01*
X139189500Y-95690500D01*
X139222833Y-95623833D01*
X139222833Y-95457166D01*
X139189500Y-95390500D01*
X139156166Y-95357166D01*
X139089500Y-95323833D01*
X138956166Y-95323833D01*
X138889500Y-95357166D01*
X138856166Y-95390500D01*
X138822833Y-95457166D01*
X139856166Y-95057166D02*
X139522833Y-95057166D01*
X139489500Y-95390500D01*
X139522833Y-95357166D01*
X139589500Y-95323833D01*
X139756166Y-95323833D01*
X139822833Y-95357166D01*
X139856166Y-95390500D01*
X139889500Y-95457166D01*
X139889500Y-95623833D01*
X139856166Y-95690500D01*
X139822833Y-95723833D01*
X139756166Y-95757166D01*
X139589500Y-95757166D01*
X139522833Y-95723833D01*
X139489500Y-95690500D01*
X140022833Y-95823833D02*
X140556166Y-95823833D01*
X140689500Y-95123833D02*
X140722833Y-95090500D01*
X140789500Y-95057166D01*
X140956166Y-95057166D01*
X141022833Y-95090500D01*
X141056166Y-95123833D01*
X141089500Y-95190500D01*
X141089500Y-95257166D01*
X141056166Y-95357166D01*
X140656166Y-95757166D01*
X141089500Y-95757166D01*
%TO.C,74HC165_1*%
X148945166Y-95057166D02*
X149411833Y-95057166D01*
X149111833Y-95757166D01*
X149978500Y-95290500D02*
X149978500Y-95757166D01*
X149811833Y-95023833D02*
X149645166Y-95523833D01*
X150078500Y-95523833D01*
X150345166Y-95757166D02*
X150345166Y-95057166D01*
X150345166Y-95390500D02*
X150745166Y-95390500D01*
X150745166Y-95757166D02*
X150745166Y-95057166D01*
X151478500Y-95690500D02*
X151445166Y-95723833D01*
X151345166Y-95757166D01*
X151278500Y-95757166D01*
X151178500Y-95723833D01*
X151111833Y-95657166D01*
X151078500Y-95590500D01*
X151045166Y-95457166D01*
X151045166Y-95357166D01*
X151078500Y-95223833D01*
X151111833Y-95157166D01*
X151178500Y-95090500D01*
X151278500Y-95057166D01*
X151345166Y-95057166D01*
X151445166Y-95090500D01*
X151478500Y-95123833D01*
X152145166Y-95757166D02*
X151745166Y-95757166D01*
X151945166Y-95757166D02*
X151945166Y-95057166D01*
X151878500Y-95157166D01*
X151811833Y-95223833D01*
X151745166Y-95257166D01*
X152745166Y-95057166D02*
X152611833Y-95057166D01*
X152545166Y-95090500D01*
X152511833Y-95123833D01*
X152445166Y-95223833D01*
X152411833Y-95357166D01*
X152411833Y-95623833D01*
X152445166Y-95690500D01*
X152478500Y-95723833D01*
X152545166Y-95757166D01*
X152678500Y-95757166D01*
X152745166Y-95723833D01*
X152778500Y-95690500D01*
X152811833Y-95623833D01*
X152811833Y-95457166D01*
X152778500Y-95390500D01*
X152745166Y-95357166D01*
X152678500Y-95323833D01*
X152545166Y-95323833D01*
X152478500Y-95357166D01*
X152445166Y-95390500D01*
X152411833Y-95457166D01*
X153445166Y-95057166D02*
X153111833Y-95057166D01*
X153078500Y-95390500D01*
X153111833Y-95357166D01*
X153178500Y-95323833D01*
X153345166Y-95323833D01*
X153411833Y-95357166D01*
X153445166Y-95390500D01*
X153478500Y-95457166D01*
X153478500Y-95623833D01*
X153445166Y-95690500D01*
X153411833Y-95723833D01*
X153345166Y-95757166D01*
X153178500Y-95757166D01*
X153111833Y-95723833D01*
X153078500Y-95690500D01*
X153611833Y-95823833D02*
X154145166Y-95823833D01*
X154678500Y-95757166D02*
X154278500Y-95757166D01*
X154478500Y-95757166D02*
X154478500Y-95057166D01*
X154411833Y-95157166D01*
X154345166Y-95223833D01*
X154278500Y-95257166D01*
%TD*%
M02*
