%TF.GenerationSoftware,KiCad,Pcbnew,(5.1.9)-1*%
%TF.CreationDate,2021-11-30T20:48:27+09:00*%
%TF.ProjectId,joystick-input,6a6f7973-7469-4636-9b2d-696e7075742e,rev?*%
%TF.SameCoordinates,Original*%
%TF.FileFunction,Soldermask,Top*%
%TF.FilePolarity,Negative*%
%FSLAX46Y46*%
G04 Gerber Fmt 4.6, Leading zero omitted, Abs format (unit mm)*
G04 Created by KiCad (PCBNEW (5.1.9)-1) date 2021-11-30 20:48:27*
%MOMM*%
%LPD*%
G01*
G04 APERTURE LIST*
%ADD10O,1.700000X1.700000*%
%ADD11R,1.700000X1.700000*%
%ADD12R,0.900000X0.400000*%
%ADD13R,1.000000X1.500000*%
G04 APERTURE END LIST*
%TO.C,C3*%
G36*
G01*
X130879000Y-84803000D02*
X130879000Y-83853000D01*
G75*
G02*
X131129000Y-83603000I250000J0D01*
G01*
X131804000Y-83603000D01*
G75*
G02*
X132054000Y-83853000I0J-250000D01*
G01*
X132054000Y-84803000D01*
G75*
G02*
X131804000Y-85053000I-250000J0D01*
G01*
X131129000Y-85053000D01*
G75*
G02*
X130879000Y-84803000I0J250000D01*
G01*
G37*
G36*
G01*
X128804000Y-84803000D02*
X128804000Y-83853000D01*
G75*
G02*
X129054000Y-83603000I250000J0D01*
G01*
X129729000Y-83603000D01*
G75*
G02*
X129979000Y-83853000I0J-250000D01*
G01*
X129979000Y-84803000D01*
G75*
G02*
X129729000Y-85053000I-250000J0D01*
G01*
X129054000Y-85053000D01*
G75*
G02*
X128804000Y-84803000I0J250000D01*
G01*
G37*
%TD*%
%TO.C,C2*%
G36*
G01*
X144341000Y-84803000D02*
X144341000Y-83853000D01*
G75*
G02*
X144591000Y-83603000I250000J0D01*
G01*
X145266000Y-83603000D01*
G75*
G02*
X145516000Y-83853000I0J-250000D01*
G01*
X145516000Y-84803000D01*
G75*
G02*
X145266000Y-85053000I-250000J0D01*
G01*
X144591000Y-85053000D01*
G75*
G02*
X144341000Y-84803000I0J250000D01*
G01*
G37*
G36*
G01*
X142266000Y-84803000D02*
X142266000Y-83853000D01*
G75*
G02*
X142516000Y-83603000I250000J0D01*
G01*
X143191000Y-83603000D01*
G75*
G02*
X143441000Y-83853000I0J-250000D01*
G01*
X143441000Y-84803000D01*
G75*
G02*
X143191000Y-85053000I-250000J0D01*
G01*
X142516000Y-85053000D01*
G75*
G02*
X142266000Y-84803000I0J250000D01*
G01*
G37*
%TD*%
%TO.C,C1*%
G36*
G01*
X157930000Y-84803000D02*
X157930000Y-83853000D01*
G75*
G02*
X158180000Y-83603000I250000J0D01*
G01*
X158855000Y-83603000D01*
G75*
G02*
X159105000Y-83853000I0J-250000D01*
G01*
X159105000Y-84803000D01*
G75*
G02*
X158855000Y-85053000I-250000J0D01*
G01*
X158180000Y-85053000D01*
G75*
G02*
X157930000Y-84803000I0J250000D01*
G01*
G37*
G36*
G01*
X155855000Y-84803000D02*
X155855000Y-83853000D01*
G75*
G02*
X156105000Y-83603000I250000J0D01*
G01*
X156780000Y-83603000D01*
G75*
G02*
X157030000Y-83853000I0J-250000D01*
G01*
X157030000Y-84803000D01*
G75*
G02*
X156780000Y-85053000I-250000J0D01*
G01*
X156105000Y-85053000D01*
G75*
G02*
X155855000Y-84803000I0J250000D01*
G01*
G37*
%TD*%
D10*
%TO.C,OUT1*%
X162306000Y-91948000D03*
X162306000Y-89408000D03*
X162306000Y-86868000D03*
X162306000Y-84328000D03*
D11*
X162306000Y-81788000D03*
%TD*%
D10*
%TO.C,IN1*%
X114554000Y-92075000D03*
X114554000Y-89535000D03*
X114554000Y-86995000D03*
X114554000Y-84455000D03*
D11*
X114554000Y-81915000D03*
%TD*%
D10*
%TO.C,J1*%
X116713000Y-77978000D03*
X119253000Y-77978000D03*
X121793000Y-77978000D03*
X124333000Y-77978000D03*
X126873000Y-77978000D03*
X129413000Y-77978000D03*
X131953000Y-77978000D03*
X134493000Y-77978000D03*
X137033000Y-77978000D03*
X139573000Y-77978000D03*
X142113000Y-77978000D03*
X144653000Y-77978000D03*
X147193000Y-77978000D03*
X149733000Y-77978000D03*
X152273000Y-77978000D03*
X154813000Y-77978000D03*
X157353000Y-77978000D03*
D11*
X159893000Y-77978000D03*
%TD*%
D12*
%TO.C,RN1*%
X144247500Y-87420500D03*
X144247500Y-88220500D03*
X144247500Y-86620500D03*
X144247500Y-89020500D03*
X145947500Y-86620500D03*
X145947500Y-87420500D03*
X145947500Y-88220500D03*
X145947500Y-89020500D03*
%TD*%
%TO.C,RN2*%
X157201500Y-88081000D03*
X157201500Y-88881000D03*
X157201500Y-89681000D03*
X157201500Y-90481000D03*
X158901500Y-88081000D03*
X158901500Y-90481000D03*
X158901500Y-88881000D03*
X158901500Y-89681000D03*
%TD*%
D10*
%TO.C,J2*%
X121793000Y-74041000D03*
X121793000Y-71501000D03*
X124333000Y-74041000D03*
X124333000Y-71501000D03*
X126873000Y-74041000D03*
X126873000Y-71501000D03*
X129413000Y-74041000D03*
X129413000Y-71501000D03*
X131953000Y-74041000D03*
X131953000Y-71501000D03*
X134493000Y-74041000D03*
X134493000Y-71501000D03*
X137033000Y-74041000D03*
X137033000Y-71501000D03*
X139573000Y-74041000D03*
X139573000Y-71501000D03*
X142113000Y-74041000D03*
X142113000Y-71501000D03*
X144653000Y-74041000D03*
X144653000Y-71501000D03*
X147193000Y-74041000D03*
X147193000Y-71501000D03*
X149733000Y-74041000D03*
X149733000Y-71501000D03*
X152273000Y-74041000D03*
X152273000Y-71501000D03*
X154813000Y-74041000D03*
D11*
X154813000Y-71501000D03*
%TD*%
D13*
%TO.C,SHORT1*%
X115443000Y-74676000D03*
X114143000Y-74676000D03*
X116743000Y-74676000D03*
%TD*%
%TO.C,PULL1*%
X161417000Y-74676000D03*
X160117000Y-74676000D03*
X162717000Y-74676000D03*
%TD*%
D12*
%TO.C,RN3*%
X132485500Y-89020500D03*
X132485500Y-88220500D03*
X132485500Y-87420500D03*
X132485500Y-86620500D03*
X130785500Y-89020500D03*
X130785500Y-86620500D03*
X130785500Y-88220500D03*
X130785500Y-87420500D03*
%TD*%
%TO.C,RN4*%
X144247500Y-90430500D03*
X144247500Y-91230500D03*
X144247500Y-92030500D03*
X144247500Y-92830500D03*
X145947500Y-90430500D03*
X145947500Y-92830500D03*
X145947500Y-91230500D03*
X145947500Y-92030500D03*
%TD*%
%TO.C,RN5*%
X119531500Y-90481000D03*
X119531500Y-89681000D03*
X119531500Y-88881000D03*
X119531500Y-88081000D03*
X117831500Y-90481000D03*
X117831500Y-88081000D03*
X117831500Y-89681000D03*
X117831500Y-88881000D03*
%TD*%
%TO.C,RN6*%
X130785500Y-90430500D03*
X130785500Y-91230500D03*
X130785500Y-92030500D03*
X130785500Y-92830500D03*
X132485500Y-90430500D03*
X132485500Y-92830500D03*
X132485500Y-91230500D03*
X132485500Y-92030500D03*
%TD*%
%TO.C,74HC165_3*%
G36*
G01*
X126277500Y-85049500D02*
X126277500Y-84749500D01*
G75*
G02*
X126427500Y-84599500I150000J0D01*
G01*
X128077500Y-84599500D01*
G75*
G02*
X128227500Y-84749500I0J-150000D01*
G01*
X128227500Y-85049500D01*
G75*
G02*
X128077500Y-85199500I-150000J0D01*
G01*
X126427500Y-85199500D01*
G75*
G02*
X126277500Y-85049500I0J150000D01*
G01*
G37*
G36*
G01*
X126277500Y-86319500D02*
X126277500Y-86019500D01*
G75*
G02*
X126427500Y-85869500I150000J0D01*
G01*
X128077500Y-85869500D01*
G75*
G02*
X128227500Y-86019500I0J-150000D01*
G01*
X128227500Y-86319500D01*
G75*
G02*
X128077500Y-86469500I-150000J0D01*
G01*
X126427500Y-86469500D01*
G75*
G02*
X126277500Y-86319500I0J150000D01*
G01*
G37*
G36*
G01*
X126277500Y-87589500D02*
X126277500Y-87289500D01*
G75*
G02*
X126427500Y-87139500I150000J0D01*
G01*
X128077500Y-87139500D01*
G75*
G02*
X128227500Y-87289500I0J-150000D01*
G01*
X128227500Y-87589500D01*
G75*
G02*
X128077500Y-87739500I-150000J0D01*
G01*
X126427500Y-87739500D01*
G75*
G02*
X126277500Y-87589500I0J150000D01*
G01*
G37*
G36*
G01*
X126277500Y-88859500D02*
X126277500Y-88559500D01*
G75*
G02*
X126427500Y-88409500I150000J0D01*
G01*
X128077500Y-88409500D01*
G75*
G02*
X128227500Y-88559500I0J-150000D01*
G01*
X128227500Y-88859500D01*
G75*
G02*
X128077500Y-89009500I-150000J0D01*
G01*
X126427500Y-89009500D01*
G75*
G02*
X126277500Y-88859500I0J150000D01*
G01*
G37*
G36*
G01*
X126277500Y-90129500D02*
X126277500Y-89829500D01*
G75*
G02*
X126427500Y-89679500I150000J0D01*
G01*
X128077500Y-89679500D01*
G75*
G02*
X128227500Y-89829500I0J-150000D01*
G01*
X128227500Y-90129500D01*
G75*
G02*
X128077500Y-90279500I-150000J0D01*
G01*
X126427500Y-90279500D01*
G75*
G02*
X126277500Y-90129500I0J150000D01*
G01*
G37*
G36*
G01*
X126277500Y-91399500D02*
X126277500Y-91099500D01*
G75*
G02*
X126427500Y-90949500I150000J0D01*
G01*
X128077500Y-90949500D01*
G75*
G02*
X128227500Y-91099500I0J-150000D01*
G01*
X128227500Y-91399500D01*
G75*
G02*
X128077500Y-91549500I-150000J0D01*
G01*
X126427500Y-91549500D01*
G75*
G02*
X126277500Y-91399500I0J150000D01*
G01*
G37*
G36*
G01*
X126277500Y-92669500D02*
X126277500Y-92369500D01*
G75*
G02*
X126427500Y-92219500I150000J0D01*
G01*
X128077500Y-92219500D01*
G75*
G02*
X128227500Y-92369500I0J-150000D01*
G01*
X128227500Y-92669500D01*
G75*
G02*
X128077500Y-92819500I-150000J0D01*
G01*
X126427500Y-92819500D01*
G75*
G02*
X126277500Y-92669500I0J150000D01*
G01*
G37*
G36*
G01*
X126277500Y-93939500D02*
X126277500Y-93639500D01*
G75*
G02*
X126427500Y-93489500I150000J0D01*
G01*
X128077500Y-93489500D01*
G75*
G02*
X128227500Y-93639500I0J-150000D01*
G01*
X128227500Y-93939500D01*
G75*
G02*
X128077500Y-94089500I-150000J0D01*
G01*
X126427500Y-94089500D01*
G75*
G02*
X126277500Y-93939500I0J150000D01*
G01*
G37*
G36*
G01*
X121327500Y-93939500D02*
X121327500Y-93639500D01*
G75*
G02*
X121477500Y-93489500I150000J0D01*
G01*
X123127500Y-93489500D01*
G75*
G02*
X123277500Y-93639500I0J-150000D01*
G01*
X123277500Y-93939500D01*
G75*
G02*
X123127500Y-94089500I-150000J0D01*
G01*
X121477500Y-94089500D01*
G75*
G02*
X121327500Y-93939500I0J150000D01*
G01*
G37*
G36*
G01*
X121327500Y-92669500D02*
X121327500Y-92369500D01*
G75*
G02*
X121477500Y-92219500I150000J0D01*
G01*
X123127500Y-92219500D01*
G75*
G02*
X123277500Y-92369500I0J-150000D01*
G01*
X123277500Y-92669500D01*
G75*
G02*
X123127500Y-92819500I-150000J0D01*
G01*
X121477500Y-92819500D01*
G75*
G02*
X121327500Y-92669500I0J150000D01*
G01*
G37*
G36*
G01*
X121327500Y-91399500D02*
X121327500Y-91099500D01*
G75*
G02*
X121477500Y-90949500I150000J0D01*
G01*
X123127500Y-90949500D01*
G75*
G02*
X123277500Y-91099500I0J-150000D01*
G01*
X123277500Y-91399500D01*
G75*
G02*
X123127500Y-91549500I-150000J0D01*
G01*
X121477500Y-91549500D01*
G75*
G02*
X121327500Y-91399500I0J150000D01*
G01*
G37*
G36*
G01*
X121327500Y-90129500D02*
X121327500Y-89829500D01*
G75*
G02*
X121477500Y-89679500I150000J0D01*
G01*
X123127500Y-89679500D01*
G75*
G02*
X123277500Y-89829500I0J-150000D01*
G01*
X123277500Y-90129500D01*
G75*
G02*
X123127500Y-90279500I-150000J0D01*
G01*
X121477500Y-90279500D01*
G75*
G02*
X121327500Y-90129500I0J150000D01*
G01*
G37*
G36*
G01*
X121327500Y-88859500D02*
X121327500Y-88559500D01*
G75*
G02*
X121477500Y-88409500I150000J0D01*
G01*
X123127500Y-88409500D01*
G75*
G02*
X123277500Y-88559500I0J-150000D01*
G01*
X123277500Y-88859500D01*
G75*
G02*
X123127500Y-89009500I-150000J0D01*
G01*
X121477500Y-89009500D01*
G75*
G02*
X121327500Y-88859500I0J150000D01*
G01*
G37*
G36*
G01*
X121327500Y-87589500D02*
X121327500Y-87289500D01*
G75*
G02*
X121477500Y-87139500I150000J0D01*
G01*
X123127500Y-87139500D01*
G75*
G02*
X123277500Y-87289500I0J-150000D01*
G01*
X123277500Y-87589500D01*
G75*
G02*
X123127500Y-87739500I-150000J0D01*
G01*
X121477500Y-87739500D01*
G75*
G02*
X121327500Y-87589500I0J150000D01*
G01*
G37*
G36*
G01*
X121327500Y-86319500D02*
X121327500Y-86019500D01*
G75*
G02*
X121477500Y-85869500I150000J0D01*
G01*
X123127500Y-85869500D01*
G75*
G02*
X123277500Y-86019500I0J-150000D01*
G01*
X123277500Y-86319500D01*
G75*
G02*
X123127500Y-86469500I-150000J0D01*
G01*
X121477500Y-86469500D01*
G75*
G02*
X121327500Y-86319500I0J150000D01*
G01*
G37*
G36*
G01*
X121327500Y-85049500D02*
X121327500Y-84749500D01*
G75*
G02*
X121477500Y-84599500I150000J0D01*
G01*
X123127500Y-84599500D01*
G75*
G02*
X123277500Y-84749500I0J-150000D01*
G01*
X123277500Y-85049500D01*
G75*
G02*
X123127500Y-85199500I-150000J0D01*
G01*
X121477500Y-85199500D01*
G75*
G02*
X121327500Y-85049500I0J150000D01*
G01*
G37*
%TD*%
%TO.C,74HC165_2*%
G36*
G01*
X139739500Y-85049500D02*
X139739500Y-84749500D01*
G75*
G02*
X139889500Y-84599500I150000J0D01*
G01*
X141539500Y-84599500D01*
G75*
G02*
X141689500Y-84749500I0J-150000D01*
G01*
X141689500Y-85049500D01*
G75*
G02*
X141539500Y-85199500I-150000J0D01*
G01*
X139889500Y-85199500D01*
G75*
G02*
X139739500Y-85049500I0J150000D01*
G01*
G37*
G36*
G01*
X139739500Y-86319500D02*
X139739500Y-86019500D01*
G75*
G02*
X139889500Y-85869500I150000J0D01*
G01*
X141539500Y-85869500D01*
G75*
G02*
X141689500Y-86019500I0J-150000D01*
G01*
X141689500Y-86319500D01*
G75*
G02*
X141539500Y-86469500I-150000J0D01*
G01*
X139889500Y-86469500D01*
G75*
G02*
X139739500Y-86319500I0J150000D01*
G01*
G37*
G36*
G01*
X139739500Y-87589500D02*
X139739500Y-87289500D01*
G75*
G02*
X139889500Y-87139500I150000J0D01*
G01*
X141539500Y-87139500D01*
G75*
G02*
X141689500Y-87289500I0J-150000D01*
G01*
X141689500Y-87589500D01*
G75*
G02*
X141539500Y-87739500I-150000J0D01*
G01*
X139889500Y-87739500D01*
G75*
G02*
X139739500Y-87589500I0J150000D01*
G01*
G37*
G36*
G01*
X139739500Y-88859500D02*
X139739500Y-88559500D01*
G75*
G02*
X139889500Y-88409500I150000J0D01*
G01*
X141539500Y-88409500D01*
G75*
G02*
X141689500Y-88559500I0J-150000D01*
G01*
X141689500Y-88859500D01*
G75*
G02*
X141539500Y-89009500I-150000J0D01*
G01*
X139889500Y-89009500D01*
G75*
G02*
X139739500Y-88859500I0J150000D01*
G01*
G37*
G36*
G01*
X139739500Y-90129500D02*
X139739500Y-89829500D01*
G75*
G02*
X139889500Y-89679500I150000J0D01*
G01*
X141539500Y-89679500D01*
G75*
G02*
X141689500Y-89829500I0J-150000D01*
G01*
X141689500Y-90129500D01*
G75*
G02*
X141539500Y-90279500I-150000J0D01*
G01*
X139889500Y-90279500D01*
G75*
G02*
X139739500Y-90129500I0J150000D01*
G01*
G37*
G36*
G01*
X139739500Y-91399500D02*
X139739500Y-91099500D01*
G75*
G02*
X139889500Y-90949500I150000J0D01*
G01*
X141539500Y-90949500D01*
G75*
G02*
X141689500Y-91099500I0J-150000D01*
G01*
X141689500Y-91399500D01*
G75*
G02*
X141539500Y-91549500I-150000J0D01*
G01*
X139889500Y-91549500D01*
G75*
G02*
X139739500Y-91399500I0J150000D01*
G01*
G37*
G36*
G01*
X139739500Y-92669500D02*
X139739500Y-92369500D01*
G75*
G02*
X139889500Y-92219500I150000J0D01*
G01*
X141539500Y-92219500D01*
G75*
G02*
X141689500Y-92369500I0J-150000D01*
G01*
X141689500Y-92669500D01*
G75*
G02*
X141539500Y-92819500I-150000J0D01*
G01*
X139889500Y-92819500D01*
G75*
G02*
X139739500Y-92669500I0J150000D01*
G01*
G37*
G36*
G01*
X139739500Y-93939500D02*
X139739500Y-93639500D01*
G75*
G02*
X139889500Y-93489500I150000J0D01*
G01*
X141539500Y-93489500D01*
G75*
G02*
X141689500Y-93639500I0J-150000D01*
G01*
X141689500Y-93939500D01*
G75*
G02*
X141539500Y-94089500I-150000J0D01*
G01*
X139889500Y-94089500D01*
G75*
G02*
X139739500Y-93939500I0J150000D01*
G01*
G37*
G36*
G01*
X134789500Y-93939500D02*
X134789500Y-93639500D01*
G75*
G02*
X134939500Y-93489500I150000J0D01*
G01*
X136589500Y-93489500D01*
G75*
G02*
X136739500Y-93639500I0J-150000D01*
G01*
X136739500Y-93939500D01*
G75*
G02*
X136589500Y-94089500I-150000J0D01*
G01*
X134939500Y-94089500D01*
G75*
G02*
X134789500Y-93939500I0J150000D01*
G01*
G37*
G36*
G01*
X134789500Y-92669500D02*
X134789500Y-92369500D01*
G75*
G02*
X134939500Y-92219500I150000J0D01*
G01*
X136589500Y-92219500D01*
G75*
G02*
X136739500Y-92369500I0J-150000D01*
G01*
X136739500Y-92669500D01*
G75*
G02*
X136589500Y-92819500I-150000J0D01*
G01*
X134939500Y-92819500D01*
G75*
G02*
X134789500Y-92669500I0J150000D01*
G01*
G37*
G36*
G01*
X134789500Y-91399500D02*
X134789500Y-91099500D01*
G75*
G02*
X134939500Y-90949500I150000J0D01*
G01*
X136589500Y-90949500D01*
G75*
G02*
X136739500Y-91099500I0J-150000D01*
G01*
X136739500Y-91399500D01*
G75*
G02*
X136589500Y-91549500I-150000J0D01*
G01*
X134939500Y-91549500D01*
G75*
G02*
X134789500Y-91399500I0J150000D01*
G01*
G37*
G36*
G01*
X134789500Y-90129500D02*
X134789500Y-89829500D01*
G75*
G02*
X134939500Y-89679500I150000J0D01*
G01*
X136589500Y-89679500D01*
G75*
G02*
X136739500Y-89829500I0J-150000D01*
G01*
X136739500Y-90129500D01*
G75*
G02*
X136589500Y-90279500I-150000J0D01*
G01*
X134939500Y-90279500D01*
G75*
G02*
X134789500Y-90129500I0J150000D01*
G01*
G37*
G36*
G01*
X134789500Y-88859500D02*
X134789500Y-88559500D01*
G75*
G02*
X134939500Y-88409500I150000J0D01*
G01*
X136589500Y-88409500D01*
G75*
G02*
X136739500Y-88559500I0J-150000D01*
G01*
X136739500Y-88859500D01*
G75*
G02*
X136589500Y-89009500I-150000J0D01*
G01*
X134939500Y-89009500D01*
G75*
G02*
X134789500Y-88859500I0J150000D01*
G01*
G37*
G36*
G01*
X134789500Y-87589500D02*
X134789500Y-87289500D01*
G75*
G02*
X134939500Y-87139500I150000J0D01*
G01*
X136589500Y-87139500D01*
G75*
G02*
X136739500Y-87289500I0J-150000D01*
G01*
X136739500Y-87589500D01*
G75*
G02*
X136589500Y-87739500I-150000J0D01*
G01*
X134939500Y-87739500D01*
G75*
G02*
X134789500Y-87589500I0J150000D01*
G01*
G37*
G36*
G01*
X134789500Y-86319500D02*
X134789500Y-86019500D01*
G75*
G02*
X134939500Y-85869500I150000J0D01*
G01*
X136589500Y-85869500D01*
G75*
G02*
X136739500Y-86019500I0J-150000D01*
G01*
X136739500Y-86319500D01*
G75*
G02*
X136589500Y-86469500I-150000J0D01*
G01*
X134939500Y-86469500D01*
G75*
G02*
X134789500Y-86319500I0J150000D01*
G01*
G37*
G36*
G01*
X134789500Y-85049500D02*
X134789500Y-84749500D01*
G75*
G02*
X134939500Y-84599500I150000J0D01*
G01*
X136589500Y-84599500D01*
G75*
G02*
X136739500Y-84749500I0J-150000D01*
G01*
X136739500Y-85049500D01*
G75*
G02*
X136589500Y-85199500I-150000J0D01*
G01*
X134939500Y-85199500D01*
G75*
G02*
X134789500Y-85049500I0J150000D01*
G01*
G37*
%TD*%
%TO.C,74HC165_1*%
G36*
G01*
X153328500Y-85049500D02*
X153328500Y-84749500D01*
G75*
G02*
X153478500Y-84599500I150000J0D01*
G01*
X155128500Y-84599500D01*
G75*
G02*
X155278500Y-84749500I0J-150000D01*
G01*
X155278500Y-85049500D01*
G75*
G02*
X155128500Y-85199500I-150000J0D01*
G01*
X153478500Y-85199500D01*
G75*
G02*
X153328500Y-85049500I0J150000D01*
G01*
G37*
G36*
G01*
X153328500Y-86319500D02*
X153328500Y-86019500D01*
G75*
G02*
X153478500Y-85869500I150000J0D01*
G01*
X155128500Y-85869500D01*
G75*
G02*
X155278500Y-86019500I0J-150000D01*
G01*
X155278500Y-86319500D01*
G75*
G02*
X155128500Y-86469500I-150000J0D01*
G01*
X153478500Y-86469500D01*
G75*
G02*
X153328500Y-86319500I0J150000D01*
G01*
G37*
G36*
G01*
X153328500Y-87589500D02*
X153328500Y-87289500D01*
G75*
G02*
X153478500Y-87139500I150000J0D01*
G01*
X155128500Y-87139500D01*
G75*
G02*
X155278500Y-87289500I0J-150000D01*
G01*
X155278500Y-87589500D01*
G75*
G02*
X155128500Y-87739500I-150000J0D01*
G01*
X153478500Y-87739500D01*
G75*
G02*
X153328500Y-87589500I0J150000D01*
G01*
G37*
G36*
G01*
X153328500Y-88859500D02*
X153328500Y-88559500D01*
G75*
G02*
X153478500Y-88409500I150000J0D01*
G01*
X155128500Y-88409500D01*
G75*
G02*
X155278500Y-88559500I0J-150000D01*
G01*
X155278500Y-88859500D01*
G75*
G02*
X155128500Y-89009500I-150000J0D01*
G01*
X153478500Y-89009500D01*
G75*
G02*
X153328500Y-88859500I0J150000D01*
G01*
G37*
G36*
G01*
X153328500Y-90129500D02*
X153328500Y-89829500D01*
G75*
G02*
X153478500Y-89679500I150000J0D01*
G01*
X155128500Y-89679500D01*
G75*
G02*
X155278500Y-89829500I0J-150000D01*
G01*
X155278500Y-90129500D01*
G75*
G02*
X155128500Y-90279500I-150000J0D01*
G01*
X153478500Y-90279500D01*
G75*
G02*
X153328500Y-90129500I0J150000D01*
G01*
G37*
G36*
G01*
X153328500Y-91399500D02*
X153328500Y-91099500D01*
G75*
G02*
X153478500Y-90949500I150000J0D01*
G01*
X155128500Y-90949500D01*
G75*
G02*
X155278500Y-91099500I0J-150000D01*
G01*
X155278500Y-91399500D01*
G75*
G02*
X155128500Y-91549500I-150000J0D01*
G01*
X153478500Y-91549500D01*
G75*
G02*
X153328500Y-91399500I0J150000D01*
G01*
G37*
G36*
G01*
X153328500Y-92669500D02*
X153328500Y-92369500D01*
G75*
G02*
X153478500Y-92219500I150000J0D01*
G01*
X155128500Y-92219500D01*
G75*
G02*
X155278500Y-92369500I0J-150000D01*
G01*
X155278500Y-92669500D01*
G75*
G02*
X155128500Y-92819500I-150000J0D01*
G01*
X153478500Y-92819500D01*
G75*
G02*
X153328500Y-92669500I0J150000D01*
G01*
G37*
G36*
G01*
X153328500Y-93939500D02*
X153328500Y-93639500D01*
G75*
G02*
X153478500Y-93489500I150000J0D01*
G01*
X155128500Y-93489500D01*
G75*
G02*
X155278500Y-93639500I0J-150000D01*
G01*
X155278500Y-93939500D01*
G75*
G02*
X155128500Y-94089500I-150000J0D01*
G01*
X153478500Y-94089500D01*
G75*
G02*
X153328500Y-93939500I0J150000D01*
G01*
G37*
G36*
G01*
X148378500Y-93939500D02*
X148378500Y-93639500D01*
G75*
G02*
X148528500Y-93489500I150000J0D01*
G01*
X150178500Y-93489500D01*
G75*
G02*
X150328500Y-93639500I0J-150000D01*
G01*
X150328500Y-93939500D01*
G75*
G02*
X150178500Y-94089500I-150000J0D01*
G01*
X148528500Y-94089500D01*
G75*
G02*
X148378500Y-93939500I0J150000D01*
G01*
G37*
G36*
G01*
X148378500Y-92669500D02*
X148378500Y-92369500D01*
G75*
G02*
X148528500Y-92219500I150000J0D01*
G01*
X150178500Y-92219500D01*
G75*
G02*
X150328500Y-92369500I0J-150000D01*
G01*
X150328500Y-92669500D01*
G75*
G02*
X150178500Y-92819500I-150000J0D01*
G01*
X148528500Y-92819500D01*
G75*
G02*
X148378500Y-92669500I0J150000D01*
G01*
G37*
G36*
G01*
X148378500Y-91399500D02*
X148378500Y-91099500D01*
G75*
G02*
X148528500Y-90949500I150000J0D01*
G01*
X150178500Y-90949500D01*
G75*
G02*
X150328500Y-91099500I0J-150000D01*
G01*
X150328500Y-91399500D01*
G75*
G02*
X150178500Y-91549500I-150000J0D01*
G01*
X148528500Y-91549500D01*
G75*
G02*
X148378500Y-91399500I0J150000D01*
G01*
G37*
G36*
G01*
X148378500Y-90129500D02*
X148378500Y-89829500D01*
G75*
G02*
X148528500Y-89679500I150000J0D01*
G01*
X150178500Y-89679500D01*
G75*
G02*
X150328500Y-89829500I0J-150000D01*
G01*
X150328500Y-90129500D01*
G75*
G02*
X150178500Y-90279500I-150000J0D01*
G01*
X148528500Y-90279500D01*
G75*
G02*
X148378500Y-90129500I0J150000D01*
G01*
G37*
G36*
G01*
X148378500Y-88859500D02*
X148378500Y-88559500D01*
G75*
G02*
X148528500Y-88409500I150000J0D01*
G01*
X150178500Y-88409500D01*
G75*
G02*
X150328500Y-88559500I0J-150000D01*
G01*
X150328500Y-88859500D01*
G75*
G02*
X150178500Y-89009500I-150000J0D01*
G01*
X148528500Y-89009500D01*
G75*
G02*
X148378500Y-88859500I0J150000D01*
G01*
G37*
G36*
G01*
X148378500Y-87589500D02*
X148378500Y-87289500D01*
G75*
G02*
X148528500Y-87139500I150000J0D01*
G01*
X150178500Y-87139500D01*
G75*
G02*
X150328500Y-87289500I0J-150000D01*
G01*
X150328500Y-87589500D01*
G75*
G02*
X150178500Y-87739500I-150000J0D01*
G01*
X148528500Y-87739500D01*
G75*
G02*
X148378500Y-87589500I0J150000D01*
G01*
G37*
G36*
G01*
X148378500Y-86319500D02*
X148378500Y-86019500D01*
G75*
G02*
X148528500Y-85869500I150000J0D01*
G01*
X150178500Y-85869500D01*
G75*
G02*
X150328500Y-86019500I0J-150000D01*
G01*
X150328500Y-86319500D01*
G75*
G02*
X150178500Y-86469500I-150000J0D01*
G01*
X148528500Y-86469500D01*
G75*
G02*
X148378500Y-86319500I0J150000D01*
G01*
G37*
G36*
G01*
X148378500Y-85049500D02*
X148378500Y-84749500D01*
G75*
G02*
X148528500Y-84599500I150000J0D01*
G01*
X150178500Y-84599500D01*
G75*
G02*
X150328500Y-84749500I0J-150000D01*
G01*
X150328500Y-85049500D01*
G75*
G02*
X150178500Y-85199500I-150000J0D01*
G01*
X148528500Y-85199500D01*
G75*
G02*
X148378500Y-85049500I0J150000D01*
G01*
G37*
%TD*%
M02*
