%TF.GenerationSoftware,KiCad,Pcbnew,(5.1.9)-1*%
%TF.CreationDate,2021-11-30T00:36:46+09:00*%
%TF.ProjectId,joystick-input,6a6f7973-7469-4636-9b2d-696e7075742e,rev?*%
%TF.SameCoordinates,Original*%
%TF.FileFunction,Copper,L1,Top*%
%TF.FilePolarity,Positive*%
%FSLAX46Y46*%
G04 Gerber Fmt 4.6, Leading zero omitted, Abs format (unit mm)*
G04 Created by KiCad (PCBNEW (5.1.9)-1) date 2021-11-30 00:36:46*
%MOMM*%
%LPD*%
G01*
G04 APERTURE LIST*
%TA.AperFunction,EtchedComponent*%
%ADD10C,0.100000*%
%TD*%
%TA.AperFunction,ComponentPad*%
%ADD11O,1.700000X1.700000*%
%TD*%
%TA.AperFunction,ComponentPad*%
%ADD12R,1.700000X1.700000*%
%TD*%
%TA.AperFunction,SMDPad,CuDef*%
%ADD13R,0.900000X0.400000*%
%TD*%
%TA.AperFunction,SMDPad,CuDef*%
%ADD14R,1.000000X1.500000*%
%TD*%
%TA.AperFunction,ViaPad*%
%ADD15C,0.800000*%
%TD*%
%TA.AperFunction,Conductor*%
%ADD16C,0.250000*%
%TD*%
%TA.AperFunction,Conductor*%
%ADD17C,0.500000*%
%TD*%
%TA.AperFunction,Conductor*%
%ADD18C,0.254000*%
%TD*%
%TA.AperFunction,Conductor*%
%ADD19C,0.100000*%
%TD*%
G04 APERTURE END LIST*
D10*
%TO.C,SHORT1*%
G36*
X116343000Y-74976000D02*
G01*
X115843000Y-74976000D01*
X115843000Y-74376000D01*
X116343000Y-74376000D01*
X116343000Y-74976000D01*
G37*
%TO.C,PULL1*%
G36*
X162317000Y-74976000D02*
G01*
X161817000Y-74976000D01*
X161817000Y-74376000D01*
X162317000Y-74376000D01*
X162317000Y-74976000D01*
G37*
%TD*%
D11*
%TO.P,OUT1,5*%
%TO.N,/D_OUT*%
X162306000Y-91948000D03*
%TO.P,OUT1,4*%
%TO.N,/CLK*%
X162306000Y-89408000D03*
%TO.P,OUT1,3*%
%TO.N,/LOAD*%
X162306000Y-86868000D03*
%TO.P,OUT1,2*%
%TO.N,GND*%
X162306000Y-84328000D03*
D12*
%TO.P,OUT1,1*%
%TO.N,VCC*%
X162306000Y-81788000D03*
%TD*%
D11*
%TO.P,IN1,5*%
%TO.N,/D_IN*%
X114554000Y-92075000D03*
%TO.P,IN1,4*%
%TO.N,/CLK*%
X114554000Y-89535000D03*
%TO.P,IN1,3*%
%TO.N,/LOAD*%
X114554000Y-86995000D03*
%TO.P,IN1,2*%
%TO.N,GND*%
X114554000Y-84455000D03*
D12*
%TO.P,IN1,1*%
%TO.N,VCC*%
X114554000Y-81915000D03*
%TD*%
D11*
%TO.P,J1,18*%
%TO.N,/C_SHORT*%
X116713000Y-77978000D03*
%TO.P,J1,17*%
%TO.N,/C_P2_RIGHT*%
X119253000Y-77978000D03*
%TO.P,J1,16*%
%TO.N,/C_P2_LEFT*%
X121793000Y-77978000D03*
%TO.P,J1,15*%
%TO.N,/C_P2_DOWN*%
X124333000Y-77978000D03*
%TO.P,J1,14*%
%TO.N,/C_P2_UP*%
X126873000Y-77978000D03*
%TO.P,J1,13*%
%TO.N,/C_P1_R*%
X129413000Y-77978000D03*
%TO.P,J1,12*%
%TO.N,/C_P1_L*%
X131953000Y-77978000D03*
%TO.P,J1,11*%
%TO.N,/C_P1_Y*%
X134493000Y-77978000D03*
%TO.P,J1,10*%
%TO.N,/C_P1_X*%
X137033000Y-77978000D03*
%TO.P,J1,9*%
%TO.N,/C_P1_B*%
X139573000Y-77978000D03*
%TO.P,J1,8*%
%TO.N,/C_P1_A*%
X142113000Y-77978000D03*
%TO.P,J1,7*%
%TO.N,/C_P1_SELECT*%
X144653000Y-77978000D03*
%TO.P,J1,6*%
%TO.N,/C_P1_START*%
X147193000Y-77978000D03*
%TO.P,J1,5*%
%TO.N,/C_P1_RIGHT*%
X149733000Y-77978000D03*
%TO.P,J1,4*%
%TO.N,/C_P1_LEFT*%
X152273000Y-77978000D03*
%TO.P,J1,3*%
%TO.N,/C_P1_DOWN*%
X154813000Y-77978000D03*
%TO.P,J1,2*%
%TO.N,/C_P1_UP*%
X157353000Y-77978000D03*
D12*
%TO.P,J1,1*%
%TO.N,/C_SHORT*%
X159893000Y-77978000D03*
%TD*%
D13*
%TO.P,RN1,2*%
%TO.N,/PULL*%
X144247500Y-87420500D03*
%TO.P,RN1,3*%
X144247500Y-88220500D03*
%TO.P,RN1,1*%
X144247500Y-86620500D03*
%TO.P,RN1,4*%
X144247500Y-89020500D03*
%TO.P,RN1,8*%
%TO.N,/C_P1_RIGHT*%
X145947500Y-86620500D03*
%TO.P,RN1,7*%
%TO.N,/C_P1_LEFT*%
X145947500Y-87420500D03*
%TO.P,RN1,6*%
%TO.N,/C_P1_DOWN*%
X145947500Y-88220500D03*
%TO.P,RN1,5*%
%TO.N,/C_P1_UP*%
X145947500Y-89020500D03*
%TD*%
%TO.P,RN2,5*%
%TO.N,/C_P1_START*%
X157201500Y-88081000D03*
%TO.P,RN2,6*%
%TO.N,/C_P1_SELECT*%
X157201500Y-88881000D03*
%TO.P,RN2,7*%
%TO.N,/C_P1_A*%
X157201500Y-89681000D03*
%TO.P,RN2,8*%
%TO.N,/C_P1_B*%
X157201500Y-90481000D03*
%TO.P,RN2,4*%
%TO.N,/PULL*%
X158901500Y-88081000D03*
%TO.P,RN2,1*%
X158901500Y-90481000D03*
%TO.P,RN2,3*%
X158901500Y-88881000D03*
%TO.P,RN2,2*%
X158901500Y-89681000D03*
%TD*%
D11*
%TO.P,J2,28*%
%TO.N,/C_SHORT*%
X121793000Y-74041000D03*
%TO.P,J2,27*%
X121793000Y-71501000D03*
%TO.P,J2,26*%
%TO.N,/C_P2_R*%
X124333000Y-74041000D03*
%TO.P,J2,25*%
%TO.N,/C_P1_R*%
X124333000Y-71501000D03*
%TO.P,J2,24*%
%TO.N,/C_P2_L*%
X126873000Y-74041000D03*
%TO.P,J2,23*%
%TO.N,/C_P1_L*%
X126873000Y-71501000D03*
%TO.P,J2,22*%
%TO.N,/C_P2_Y*%
X129413000Y-74041000D03*
%TO.P,J2,21*%
%TO.N,/C_P1_Y*%
X129413000Y-71501000D03*
%TO.P,J2,20*%
%TO.N,/C_P2_X*%
X131953000Y-74041000D03*
%TO.P,J2,19*%
%TO.N,/C_P1_X*%
X131953000Y-71501000D03*
%TO.P,J2,18*%
%TO.N,/C_P2_B*%
X134493000Y-74041000D03*
%TO.P,J2,17*%
%TO.N,/C_P1_B*%
X134493000Y-71501000D03*
%TO.P,J2,16*%
%TO.N,/C_P2_A*%
X137033000Y-74041000D03*
%TO.P,J2,15*%
%TO.N,/C_P1_A*%
X137033000Y-71501000D03*
%TO.P,J2,14*%
%TO.N,/C_P2_SELECT*%
X139573000Y-74041000D03*
%TO.P,J2,13*%
%TO.N,/C_P1_SELECT*%
X139573000Y-71501000D03*
%TO.P,J2,12*%
%TO.N,/C_P2_START*%
X142113000Y-74041000D03*
%TO.P,J2,11*%
%TO.N,/C_P1_START*%
X142113000Y-71501000D03*
%TO.P,J2,10*%
%TO.N,/C_P2_RIGHT*%
X144653000Y-74041000D03*
%TO.P,J2,9*%
%TO.N,/C_P1_RIGHT*%
X144653000Y-71501000D03*
%TO.P,J2,8*%
%TO.N,/C_P2_LEFT*%
X147193000Y-74041000D03*
%TO.P,J2,7*%
%TO.N,/C_P1_LEFT*%
X147193000Y-71501000D03*
%TO.P,J2,6*%
%TO.N,/C_P2_DOWN*%
X149733000Y-74041000D03*
%TO.P,J2,5*%
%TO.N,/C_P1_DOWN*%
X149733000Y-71501000D03*
%TO.P,J2,4*%
%TO.N,/C_P2_UP*%
X152273000Y-74041000D03*
%TO.P,J2,3*%
%TO.N,/C_P1_UP*%
X152273000Y-71501000D03*
%TO.P,J2,2*%
%TO.N,/C_SHORT*%
X154813000Y-74041000D03*
D12*
%TO.P,J2,1*%
X154813000Y-71501000D03*
%TD*%
%TO.P,C2,2*%
%TO.N,GND*%
%TA.AperFunction,SMDPad,CuDef*%
G36*
G01*
X143898500Y-84578000D02*
X143898500Y-84078000D01*
G75*
G02*
X144123500Y-83853000I225000J0D01*
G01*
X144573500Y-83853000D01*
G75*
G02*
X144798500Y-84078000I0J-225000D01*
G01*
X144798500Y-84578000D01*
G75*
G02*
X144573500Y-84803000I-225000J0D01*
G01*
X144123500Y-84803000D01*
G75*
G02*
X143898500Y-84578000I0J225000D01*
G01*
G37*
%TD.AperFunction*%
%TO.P,C2,1*%
%TO.N,VCC*%
%TA.AperFunction,SMDPad,CuDef*%
G36*
G01*
X142348500Y-84578000D02*
X142348500Y-84078000D01*
G75*
G02*
X142573500Y-83853000I225000J0D01*
G01*
X143023500Y-83853000D01*
G75*
G02*
X143248500Y-84078000I0J-225000D01*
G01*
X143248500Y-84578000D01*
G75*
G02*
X143023500Y-84803000I-225000J0D01*
G01*
X142573500Y-84803000D01*
G75*
G02*
X142348500Y-84578000I0J225000D01*
G01*
G37*
%TD.AperFunction*%
%TD*%
%TO.P,C3,2*%
%TO.N,GND*%
%TA.AperFunction,SMDPad,CuDef*%
G36*
G01*
X130436500Y-84578000D02*
X130436500Y-84078000D01*
G75*
G02*
X130661500Y-83853000I225000J0D01*
G01*
X131111500Y-83853000D01*
G75*
G02*
X131336500Y-84078000I0J-225000D01*
G01*
X131336500Y-84578000D01*
G75*
G02*
X131111500Y-84803000I-225000J0D01*
G01*
X130661500Y-84803000D01*
G75*
G02*
X130436500Y-84578000I0J225000D01*
G01*
G37*
%TD.AperFunction*%
%TO.P,C3,1*%
%TO.N,VCC*%
%TA.AperFunction,SMDPad,CuDef*%
G36*
G01*
X128886500Y-84578000D02*
X128886500Y-84078000D01*
G75*
G02*
X129111500Y-83853000I225000J0D01*
G01*
X129561500Y-83853000D01*
G75*
G02*
X129786500Y-84078000I0J-225000D01*
G01*
X129786500Y-84578000D01*
G75*
G02*
X129561500Y-84803000I-225000J0D01*
G01*
X129111500Y-84803000D01*
G75*
G02*
X128886500Y-84578000I0J225000D01*
G01*
G37*
%TD.AperFunction*%
%TD*%
%TO.P,C1,2*%
%TO.N,GND*%
%TA.AperFunction,SMDPad,CuDef*%
G36*
G01*
X157614500Y-84578000D02*
X157614500Y-84078000D01*
G75*
G02*
X157839500Y-83853000I225000J0D01*
G01*
X158289500Y-83853000D01*
G75*
G02*
X158514500Y-84078000I0J-225000D01*
G01*
X158514500Y-84578000D01*
G75*
G02*
X158289500Y-84803000I-225000J0D01*
G01*
X157839500Y-84803000D01*
G75*
G02*
X157614500Y-84578000I0J225000D01*
G01*
G37*
%TD.AperFunction*%
%TO.P,C1,1*%
%TO.N,VCC*%
%TA.AperFunction,SMDPad,CuDef*%
G36*
G01*
X156064500Y-84578000D02*
X156064500Y-84078000D01*
G75*
G02*
X156289500Y-83853000I225000J0D01*
G01*
X156739500Y-83853000D01*
G75*
G02*
X156964500Y-84078000I0J-225000D01*
G01*
X156964500Y-84578000D01*
G75*
G02*
X156739500Y-84803000I-225000J0D01*
G01*
X156289500Y-84803000D01*
G75*
G02*
X156064500Y-84578000I0J225000D01*
G01*
G37*
%TD.AperFunction*%
%TD*%
D14*
%TO.P,SHORT1,2*%
%TO.N,/C_SHORT*%
X115443000Y-74676000D03*
%TO.P,SHORT1,3*%
%TO.N,VCC*%
X114143000Y-74676000D03*
%TO.P,SHORT1,1*%
%TO.N,GND*%
X116743000Y-74676000D03*
%TD*%
%TO.P,PULL1,2*%
%TO.N,/PULL*%
X161417000Y-74676000D03*
%TO.P,PULL1,3*%
%TO.N,GND*%
X160117000Y-74676000D03*
%TO.P,PULL1,1*%
%TO.N,VCC*%
X162717000Y-74676000D03*
%TD*%
D13*
%TO.P,RN3,5*%
%TO.N,/C_P1_X*%
X132485500Y-89020500D03*
%TO.P,RN3,6*%
%TO.N,/C_P1_Y*%
X132485500Y-88220500D03*
%TO.P,RN3,7*%
%TO.N,/C_P1_L*%
X132485500Y-87420500D03*
%TO.P,RN3,8*%
%TO.N,/C_P1_R*%
X132485500Y-86620500D03*
%TO.P,RN3,4*%
%TO.N,/PULL*%
X130785500Y-89020500D03*
%TO.P,RN3,1*%
X130785500Y-86620500D03*
%TO.P,RN3,3*%
X130785500Y-88220500D03*
%TO.P,RN3,2*%
X130785500Y-87420500D03*
%TD*%
%TO.P,RN4,5*%
%TO.N,/C_P2_UP*%
X144247500Y-90430500D03*
%TO.P,RN4,6*%
%TO.N,/C_P2_DOWN*%
X144247500Y-91230500D03*
%TO.P,RN4,7*%
%TO.N,/C_P2_LEFT*%
X144247500Y-92030500D03*
%TO.P,RN4,8*%
%TO.N,/C_P2_RIGHT*%
X144247500Y-92830500D03*
%TO.P,RN4,4*%
%TO.N,/PULL*%
X145947500Y-90430500D03*
%TO.P,RN4,1*%
X145947500Y-92830500D03*
%TO.P,RN4,3*%
X145947500Y-91230500D03*
%TO.P,RN4,2*%
X145947500Y-92030500D03*
%TD*%
%TO.P,RN5,5*%
%TO.N,/C_P2_START*%
X119531500Y-90481000D03*
%TO.P,RN5,6*%
%TO.N,/C_P2_SELECT*%
X119531500Y-89681000D03*
%TO.P,RN5,7*%
%TO.N,/C_P2_A*%
X119531500Y-88881000D03*
%TO.P,RN5,8*%
%TO.N,/C_P2_B*%
X119531500Y-88081000D03*
%TO.P,RN5,4*%
%TO.N,/PULL*%
X117831500Y-90481000D03*
%TO.P,RN5,1*%
X117831500Y-88081000D03*
%TO.P,RN5,3*%
X117831500Y-89681000D03*
%TO.P,RN5,2*%
X117831500Y-88881000D03*
%TD*%
%TO.P,RN6,5*%
%TO.N,/C_P2_X*%
X130785500Y-90430500D03*
%TO.P,RN6,6*%
%TO.N,/C_P2_Y*%
X130785500Y-91230500D03*
%TO.P,RN6,7*%
%TO.N,/C_P2_L*%
X130785500Y-92030500D03*
%TO.P,RN6,8*%
%TO.N,/C_P2_R*%
X130785500Y-92830500D03*
%TO.P,RN6,4*%
%TO.N,/PULL*%
X132485500Y-90430500D03*
%TO.P,RN6,1*%
X132485500Y-92830500D03*
%TO.P,RN6,3*%
X132485500Y-91230500D03*
%TO.P,RN6,2*%
X132485500Y-92030500D03*
%TD*%
%TO.P,74HC165_3,16*%
%TO.N,VCC*%
%TA.AperFunction,SMDPad,CuDef*%
G36*
G01*
X126277500Y-85049500D02*
X126277500Y-84749500D01*
G75*
G02*
X126427500Y-84599500I150000J0D01*
G01*
X128077500Y-84599500D01*
G75*
G02*
X128227500Y-84749500I0J-150000D01*
G01*
X128227500Y-85049500D01*
G75*
G02*
X128077500Y-85199500I-150000J0D01*
G01*
X126427500Y-85199500D01*
G75*
G02*
X126277500Y-85049500I0J150000D01*
G01*
G37*
%TD.AperFunction*%
%TO.P,74HC165_3,15*%
%TO.N,GND*%
%TA.AperFunction,SMDPad,CuDef*%
G36*
G01*
X126277500Y-86319500D02*
X126277500Y-86019500D01*
G75*
G02*
X126427500Y-85869500I150000J0D01*
G01*
X128077500Y-85869500D01*
G75*
G02*
X128227500Y-86019500I0J-150000D01*
G01*
X128227500Y-86319500D01*
G75*
G02*
X128077500Y-86469500I-150000J0D01*
G01*
X126427500Y-86469500D01*
G75*
G02*
X126277500Y-86319500I0J150000D01*
G01*
G37*
%TD.AperFunction*%
%TO.P,74HC165_3,14*%
%TO.N,/C_P2_X*%
%TA.AperFunction,SMDPad,CuDef*%
G36*
G01*
X126277500Y-87589500D02*
X126277500Y-87289500D01*
G75*
G02*
X126427500Y-87139500I150000J0D01*
G01*
X128077500Y-87139500D01*
G75*
G02*
X128227500Y-87289500I0J-150000D01*
G01*
X128227500Y-87589500D01*
G75*
G02*
X128077500Y-87739500I-150000J0D01*
G01*
X126427500Y-87739500D01*
G75*
G02*
X126277500Y-87589500I0J150000D01*
G01*
G37*
%TD.AperFunction*%
%TO.P,74HC165_3,13*%
%TO.N,/C_P2_Y*%
%TA.AperFunction,SMDPad,CuDef*%
G36*
G01*
X126277500Y-88859500D02*
X126277500Y-88559500D01*
G75*
G02*
X126427500Y-88409500I150000J0D01*
G01*
X128077500Y-88409500D01*
G75*
G02*
X128227500Y-88559500I0J-150000D01*
G01*
X128227500Y-88859500D01*
G75*
G02*
X128077500Y-89009500I-150000J0D01*
G01*
X126427500Y-89009500D01*
G75*
G02*
X126277500Y-88859500I0J150000D01*
G01*
G37*
%TD.AperFunction*%
%TO.P,74HC165_3,12*%
%TO.N,/C_P2_L*%
%TA.AperFunction,SMDPad,CuDef*%
G36*
G01*
X126277500Y-90129500D02*
X126277500Y-89829500D01*
G75*
G02*
X126427500Y-89679500I150000J0D01*
G01*
X128077500Y-89679500D01*
G75*
G02*
X128227500Y-89829500I0J-150000D01*
G01*
X128227500Y-90129500D01*
G75*
G02*
X128077500Y-90279500I-150000J0D01*
G01*
X126427500Y-90279500D01*
G75*
G02*
X126277500Y-90129500I0J150000D01*
G01*
G37*
%TD.AperFunction*%
%TO.P,74HC165_3,11*%
%TO.N,/C_P2_R*%
%TA.AperFunction,SMDPad,CuDef*%
G36*
G01*
X126277500Y-91399500D02*
X126277500Y-91099500D01*
G75*
G02*
X126427500Y-90949500I150000J0D01*
G01*
X128077500Y-90949500D01*
G75*
G02*
X128227500Y-91099500I0J-150000D01*
G01*
X128227500Y-91399500D01*
G75*
G02*
X128077500Y-91549500I-150000J0D01*
G01*
X126427500Y-91549500D01*
G75*
G02*
X126277500Y-91399500I0J150000D01*
G01*
G37*
%TD.AperFunction*%
%TO.P,74HC165_3,10*%
%TO.N,/D_IN*%
%TA.AperFunction,SMDPad,CuDef*%
G36*
G01*
X126277500Y-92669500D02*
X126277500Y-92369500D01*
G75*
G02*
X126427500Y-92219500I150000J0D01*
G01*
X128077500Y-92219500D01*
G75*
G02*
X128227500Y-92369500I0J-150000D01*
G01*
X128227500Y-92669500D01*
G75*
G02*
X128077500Y-92819500I-150000J0D01*
G01*
X126427500Y-92819500D01*
G75*
G02*
X126277500Y-92669500I0J150000D01*
G01*
G37*
%TD.AperFunction*%
%TO.P,74HC165_3,9*%
%TO.N,/Q7_2*%
%TA.AperFunction,SMDPad,CuDef*%
G36*
G01*
X126277500Y-93939500D02*
X126277500Y-93639500D01*
G75*
G02*
X126427500Y-93489500I150000J0D01*
G01*
X128077500Y-93489500D01*
G75*
G02*
X128227500Y-93639500I0J-150000D01*
G01*
X128227500Y-93939500D01*
G75*
G02*
X128077500Y-94089500I-150000J0D01*
G01*
X126427500Y-94089500D01*
G75*
G02*
X126277500Y-93939500I0J150000D01*
G01*
G37*
%TD.AperFunction*%
%TO.P,74HC165_3,8*%
%TO.N,GND*%
%TA.AperFunction,SMDPad,CuDef*%
G36*
G01*
X121327500Y-93939500D02*
X121327500Y-93639500D01*
G75*
G02*
X121477500Y-93489500I150000J0D01*
G01*
X123127500Y-93489500D01*
G75*
G02*
X123277500Y-93639500I0J-150000D01*
G01*
X123277500Y-93939500D01*
G75*
G02*
X123127500Y-94089500I-150000J0D01*
G01*
X121477500Y-94089500D01*
G75*
G02*
X121327500Y-93939500I0J150000D01*
G01*
G37*
%TD.AperFunction*%
%TO.P,74HC165_3,7*%
%TO.N,N/C*%
%TA.AperFunction,SMDPad,CuDef*%
G36*
G01*
X121327500Y-92669500D02*
X121327500Y-92369500D01*
G75*
G02*
X121477500Y-92219500I150000J0D01*
G01*
X123127500Y-92219500D01*
G75*
G02*
X123277500Y-92369500I0J-150000D01*
G01*
X123277500Y-92669500D01*
G75*
G02*
X123127500Y-92819500I-150000J0D01*
G01*
X121477500Y-92819500D01*
G75*
G02*
X121327500Y-92669500I0J150000D01*
G01*
G37*
%TD.AperFunction*%
%TO.P,74HC165_3,6*%
%TO.N,/C_P2_START*%
%TA.AperFunction,SMDPad,CuDef*%
G36*
G01*
X121327500Y-91399500D02*
X121327500Y-91099500D01*
G75*
G02*
X121477500Y-90949500I150000J0D01*
G01*
X123127500Y-90949500D01*
G75*
G02*
X123277500Y-91099500I0J-150000D01*
G01*
X123277500Y-91399500D01*
G75*
G02*
X123127500Y-91549500I-150000J0D01*
G01*
X121477500Y-91549500D01*
G75*
G02*
X121327500Y-91399500I0J150000D01*
G01*
G37*
%TD.AperFunction*%
%TO.P,74HC165_3,5*%
%TO.N,/C_P2_SELECT*%
%TA.AperFunction,SMDPad,CuDef*%
G36*
G01*
X121327500Y-90129500D02*
X121327500Y-89829500D01*
G75*
G02*
X121477500Y-89679500I150000J0D01*
G01*
X123127500Y-89679500D01*
G75*
G02*
X123277500Y-89829500I0J-150000D01*
G01*
X123277500Y-90129500D01*
G75*
G02*
X123127500Y-90279500I-150000J0D01*
G01*
X121477500Y-90279500D01*
G75*
G02*
X121327500Y-90129500I0J150000D01*
G01*
G37*
%TD.AperFunction*%
%TO.P,74HC165_3,4*%
%TO.N,/C_P2_A*%
%TA.AperFunction,SMDPad,CuDef*%
G36*
G01*
X121327500Y-88859500D02*
X121327500Y-88559500D01*
G75*
G02*
X121477500Y-88409500I150000J0D01*
G01*
X123127500Y-88409500D01*
G75*
G02*
X123277500Y-88559500I0J-150000D01*
G01*
X123277500Y-88859500D01*
G75*
G02*
X123127500Y-89009500I-150000J0D01*
G01*
X121477500Y-89009500D01*
G75*
G02*
X121327500Y-88859500I0J150000D01*
G01*
G37*
%TD.AperFunction*%
%TO.P,74HC165_3,3*%
%TO.N,/C_P2_B*%
%TA.AperFunction,SMDPad,CuDef*%
G36*
G01*
X121327500Y-87589500D02*
X121327500Y-87289500D01*
G75*
G02*
X121477500Y-87139500I150000J0D01*
G01*
X123127500Y-87139500D01*
G75*
G02*
X123277500Y-87289500I0J-150000D01*
G01*
X123277500Y-87589500D01*
G75*
G02*
X123127500Y-87739500I-150000J0D01*
G01*
X121477500Y-87739500D01*
G75*
G02*
X121327500Y-87589500I0J150000D01*
G01*
G37*
%TD.AperFunction*%
%TO.P,74HC165_3,2*%
%TO.N,/CLK*%
%TA.AperFunction,SMDPad,CuDef*%
G36*
G01*
X121327500Y-86319500D02*
X121327500Y-86019500D01*
G75*
G02*
X121477500Y-85869500I150000J0D01*
G01*
X123127500Y-85869500D01*
G75*
G02*
X123277500Y-86019500I0J-150000D01*
G01*
X123277500Y-86319500D01*
G75*
G02*
X123127500Y-86469500I-150000J0D01*
G01*
X121477500Y-86469500D01*
G75*
G02*
X121327500Y-86319500I0J150000D01*
G01*
G37*
%TD.AperFunction*%
%TO.P,74HC165_3,1*%
%TO.N,/LOAD*%
%TA.AperFunction,SMDPad,CuDef*%
G36*
G01*
X121327500Y-85049500D02*
X121327500Y-84749500D01*
G75*
G02*
X121477500Y-84599500I150000J0D01*
G01*
X123127500Y-84599500D01*
G75*
G02*
X123277500Y-84749500I0J-150000D01*
G01*
X123277500Y-85049500D01*
G75*
G02*
X123127500Y-85199500I-150000J0D01*
G01*
X121477500Y-85199500D01*
G75*
G02*
X121327500Y-85049500I0J150000D01*
G01*
G37*
%TD.AperFunction*%
%TD*%
%TO.P,74HC165_2,16*%
%TO.N,VCC*%
%TA.AperFunction,SMDPad,CuDef*%
G36*
G01*
X139739500Y-85049500D02*
X139739500Y-84749500D01*
G75*
G02*
X139889500Y-84599500I150000J0D01*
G01*
X141539500Y-84599500D01*
G75*
G02*
X141689500Y-84749500I0J-150000D01*
G01*
X141689500Y-85049500D01*
G75*
G02*
X141539500Y-85199500I-150000J0D01*
G01*
X139889500Y-85199500D01*
G75*
G02*
X139739500Y-85049500I0J150000D01*
G01*
G37*
%TD.AperFunction*%
%TO.P,74HC165_2,15*%
%TO.N,GND*%
%TA.AperFunction,SMDPad,CuDef*%
G36*
G01*
X139739500Y-86319500D02*
X139739500Y-86019500D01*
G75*
G02*
X139889500Y-85869500I150000J0D01*
G01*
X141539500Y-85869500D01*
G75*
G02*
X141689500Y-86019500I0J-150000D01*
G01*
X141689500Y-86319500D01*
G75*
G02*
X141539500Y-86469500I-150000J0D01*
G01*
X139889500Y-86469500D01*
G75*
G02*
X139739500Y-86319500I0J150000D01*
G01*
G37*
%TD.AperFunction*%
%TO.P,74HC165_2,14*%
%TO.N,/C_P2_UP*%
%TA.AperFunction,SMDPad,CuDef*%
G36*
G01*
X139739500Y-87589500D02*
X139739500Y-87289500D01*
G75*
G02*
X139889500Y-87139500I150000J0D01*
G01*
X141539500Y-87139500D01*
G75*
G02*
X141689500Y-87289500I0J-150000D01*
G01*
X141689500Y-87589500D01*
G75*
G02*
X141539500Y-87739500I-150000J0D01*
G01*
X139889500Y-87739500D01*
G75*
G02*
X139739500Y-87589500I0J150000D01*
G01*
G37*
%TD.AperFunction*%
%TO.P,74HC165_2,13*%
%TO.N,/C_P2_DOWN*%
%TA.AperFunction,SMDPad,CuDef*%
G36*
G01*
X139739500Y-88859500D02*
X139739500Y-88559500D01*
G75*
G02*
X139889500Y-88409500I150000J0D01*
G01*
X141539500Y-88409500D01*
G75*
G02*
X141689500Y-88559500I0J-150000D01*
G01*
X141689500Y-88859500D01*
G75*
G02*
X141539500Y-89009500I-150000J0D01*
G01*
X139889500Y-89009500D01*
G75*
G02*
X139739500Y-88859500I0J150000D01*
G01*
G37*
%TD.AperFunction*%
%TO.P,74HC165_2,12*%
%TO.N,/C_P2_LEFT*%
%TA.AperFunction,SMDPad,CuDef*%
G36*
G01*
X139739500Y-90129500D02*
X139739500Y-89829500D01*
G75*
G02*
X139889500Y-89679500I150000J0D01*
G01*
X141539500Y-89679500D01*
G75*
G02*
X141689500Y-89829500I0J-150000D01*
G01*
X141689500Y-90129500D01*
G75*
G02*
X141539500Y-90279500I-150000J0D01*
G01*
X139889500Y-90279500D01*
G75*
G02*
X139739500Y-90129500I0J150000D01*
G01*
G37*
%TD.AperFunction*%
%TO.P,74HC165_2,11*%
%TO.N,/C_P2_RIGHT*%
%TA.AperFunction,SMDPad,CuDef*%
G36*
G01*
X139739500Y-91399500D02*
X139739500Y-91099500D01*
G75*
G02*
X139889500Y-90949500I150000J0D01*
G01*
X141539500Y-90949500D01*
G75*
G02*
X141689500Y-91099500I0J-150000D01*
G01*
X141689500Y-91399500D01*
G75*
G02*
X141539500Y-91549500I-150000J0D01*
G01*
X139889500Y-91549500D01*
G75*
G02*
X139739500Y-91399500I0J150000D01*
G01*
G37*
%TD.AperFunction*%
%TO.P,74HC165_2,10*%
%TO.N,/Q7_2*%
%TA.AperFunction,SMDPad,CuDef*%
G36*
G01*
X139739500Y-92669500D02*
X139739500Y-92369500D01*
G75*
G02*
X139889500Y-92219500I150000J0D01*
G01*
X141539500Y-92219500D01*
G75*
G02*
X141689500Y-92369500I0J-150000D01*
G01*
X141689500Y-92669500D01*
G75*
G02*
X141539500Y-92819500I-150000J0D01*
G01*
X139889500Y-92819500D01*
G75*
G02*
X139739500Y-92669500I0J150000D01*
G01*
G37*
%TD.AperFunction*%
%TO.P,74HC165_2,9*%
%TO.N,/Q7*%
%TA.AperFunction,SMDPad,CuDef*%
G36*
G01*
X139739500Y-93939500D02*
X139739500Y-93639500D01*
G75*
G02*
X139889500Y-93489500I150000J0D01*
G01*
X141539500Y-93489500D01*
G75*
G02*
X141689500Y-93639500I0J-150000D01*
G01*
X141689500Y-93939500D01*
G75*
G02*
X141539500Y-94089500I-150000J0D01*
G01*
X139889500Y-94089500D01*
G75*
G02*
X139739500Y-93939500I0J150000D01*
G01*
G37*
%TD.AperFunction*%
%TO.P,74HC165_2,8*%
%TO.N,GND*%
%TA.AperFunction,SMDPad,CuDef*%
G36*
G01*
X134789500Y-93939500D02*
X134789500Y-93639500D01*
G75*
G02*
X134939500Y-93489500I150000J0D01*
G01*
X136589500Y-93489500D01*
G75*
G02*
X136739500Y-93639500I0J-150000D01*
G01*
X136739500Y-93939500D01*
G75*
G02*
X136589500Y-94089500I-150000J0D01*
G01*
X134939500Y-94089500D01*
G75*
G02*
X134789500Y-93939500I0J150000D01*
G01*
G37*
%TD.AperFunction*%
%TO.P,74HC165_2,7*%
%TO.N,N/C*%
%TA.AperFunction,SMDPad,CuDef*%
G36*
G01*
X134789500Y-92669500D02*
X134789500Y-92369500D01*
G75*
G02*
X134939500Y-92219500I150000J0D01*
G01*
X136589500Y-92219500D01*
G75*
G02*
X136739500Y-92369500I0J-150000D01*
G01*
X136739500Y-92669500D01*
G75*
G02*
X136589500Y-92819500I-150000J0D01*
G01*
X134939500Y-92819500D01*
G75*
G02*
X134789500Y-92669500I0J150000D01*
G01*
G37*
%TD.AperFunction*%
%TO.P,74HC165_2,6*%
%TO.N,/C_P1_X*%
%TA.AperFunction,SMDPad,CuDef*%
G36*
G01*
X134789500Y-91399500D02*
X134789500Y-91099500D01*
G75*
G02*
X134939500Y-90949500I150000J0D01*
G01*
X136589500Y-90949500D01*
G75*
G02*
X136739500Y-91099500I0J-150000D01*
G01*
X136739500Y-91399500D01*
G75*
G02*
X136589500Y-91549500I-150000J0D01*
G01*
X134939500Y-91549500D01*
G75*
G02*
X134789500Y-91399500I0J150000D01*
G01*
G37*
%TD.AperFunction*%
%TO.P,74HC165_2,5*%
%TO.N,/C_P1_Y*%
%TA.AperFunction,SMDPad,CuDef*%
G36*
G01*
X134789500Y-90129500D02*
X134789500Y-89829500D01*
G75*
G02*
X134939500Y-89679500I150000J0D01*
G01*
X136589500Y-89679500D01*
G75*
G02*
X136739500Y-89829500I0J-150000D01*
G01*
X136739500Y-90129500D01*
G75*
G02*
X136589500Y-90279500I-150000J0D01*
G01*
X134939500Y-90279500D01*
G75*
G02*
X134789500Y-90129500I0J150000D01*
G01*
G37*
%TD.AperFunction*%
%TO.P,74HC165_2,4*%
%TO.N,/C_P1_L*%
%TA.AperFunction,SMDPad,CuDef*%
G36*
G01*
X134789500Y-88859500D02*
X134789500Y-88559500D01*
G75*
G02*
X134939500Y-88409500I150000J0D01*
G01*
X136589500Y-88409500D01*
G75*
G02*
X136739500Y-88559500I0J-150000D01*
G01*
X136739500Y-88859500D01*
G75*
G02*
X136589500Y-89009500I-150000J0D01*
G01*
X134939500Y-89009500D01*
G75*
G02*
X134789500Y-88859500I0J150000D01*
G01*
G37*
%TD.AperFunction*%
%TO.P,74HC165_2,3*%
%TO.N,/C_P1_R*%
%TA.AperFunction,SMDPad,CuDef*%
G36*
G01*
X134789500Y-87589500D02*
X134789500Y-87289500D01*
G75*
G02*
X134939500Y-87139500I150000J0D01*
G01*
X136589500Y-87139500D01*
G75*
G02*
X136739500Y-87289500I0J-150000D01*
G01*
X136739500Y-87589500D01*
G75*
G02*
X136589500Y-87739500I-150000J0D01*
G01*
X134939500Y-87739500D01*
G75*
G02*
X134789500Y-87589500I0J150000D01*
G01*
G37*
%TD.AperFunction*%
%TO.P,74HC165_2,2*%
%TO.N,/CLK*%
%TA.AperFunction,SMDPad,CuDef*%
G36*
G01*
X134789500Y-86319500D02*
X134789500Y-86019500D01*
G75*
G02*
X134939500Y-85869500I150000J0D01*
G01*
X136589500Y-85869500D01*
G75*
G02*
X136739500Y-86019500I0J-150000D01*
G01*
X136739500Y-86319500D01*
G75*
G02*
X136589500Y-86469500I-150000J0D01*
G01*
X134939500Y-86469500D01*
G75*
G02*
X134789500Y-86319500I0J150000D01*
G01*
G37*
%TD.AperFunction*%
%TO.P,74HC165_2,1*%
%TO.N,/LOAD*%
%TA.AperFunction,SMDPad,CuDef*%
G36*
G01*
X134789500Y-85049500D02*
X134789500Y-84749500D01*
G75*
G02*
X134939500Y-84599500I150000J0D01*
G01*
X136589500Y-84599500D01*
G75*
G02*
X136739500Y-84749500I0J-150000D01*
G01*
X136739500Y-85049500D01*
G75*
G02*
X136589500Y-85199500I-150000J0D01*
G01*
X134939500Y-85199500D01*
G75*
G02*
X134789500Y-85049500I0J150000D01*
G01*
G37*
%TD.AperFunction*%
%TD*%
%TO.P,74HC165_1,16*%
%TO.N,VCC*%
%TA.AperFunction,SMDPad,CuDef*%
G36*
G01*
X153328500Y-85049500D02*
X153328500Y-84749500D01*
G75*
G02*
X153478500Y-84599500I150000J0D01*
G01*
X155128500Y-84599500D01*
G75*
G02*
X155278500Y-84749500I0J-150000D01*
G01*
X155278500Y-85049500D01*
G75*
G02*
X155128500Y-85199500I-150000J0D01*
G01*
X153478500Y-85199500D01*
G75*
G02*
X153328500Y-85049500I0J150000D01*
G01*
G37*
%TD.AperFunction*%
%TO.P,74HC165_1,15*%
%TO.N,GND*%
%TA.AperFunction,SMDPad,CuDef*%
G36*
G01*
X153328500Y-86319500D02*
X153328500Y-86019500D01*
G75*
G02*
X153478500Y-85869500I150000J0D01*
G01*
X155128500Y-85869500D01*
G75*
G02*
X155278500Y-86019500I0J-150000D01*
G01*
X155278500Y-86319500D01*
G75*
G02*
X155128500Y-86469500I-150000J0D01*
G01*
X153478500Y-86469500D01*
G75*
G02*
X153328500Y-86319500I0J150000D01*
G01*
G37*
%TD.AperFunction*%
%TO.P,74HC165_1,14*%
%TO.N,/C_P1_START*%
%TA.AperFunction,SMDPad,CuDef*%
G36*
G01*
X153328500Y-87589500D02*
X153328500Y-87289500D01*
G75*
G02*
X153478500Y-87139500I150000J0D01*
G01*
X155128500Y-87139500D01*
G75*
G02*
X155278500Y-87289500I0J-150000D01*
G01*
X155278500Y-87589500D01*
G75*
G02*
X155128500Y-87739500I-150000J0D01*
G01*
X153478500Y-87739500D01*
G75*
G02*
X153328500Y-87589500I0J150000D01*
G01*
G37*
%TD.AperFunction*%
%TO.P,74HC165_1,13*%
%TO.N,/C_P1_SELECT*%
%TA.AperFunction,SMDPad,CuDef*%
G36*
G01*
X153328500Y-88859500D02*
X153328500Y-88559500D01*
G75*
G02*
X153478500Y-88409500I150000J0D01*
G01*
X155128500Y-88409500D01*
G75*
G02*
X155278500Y-88559500I0J-150000D01*
G01*
X155278500Y-88859500D01*
G75*
G02*
X155128500Y-89009500I-150000J0D01*
G01*
X153478500Y-89009500D01*
G75*
G02*
X153328500Y-88859500I0J150000D01*
G01*
G37*
%TD.AperFunction*%
%TO.P,74HC165_1,12*%
%TO.N,/C_P1_A*%
%TA.AperFunction,SMDPad,CuDef*%
G36*
G01*
X153328500Y-90129500D02*
X153328500Y-89829500D01*
G75*
G02*
X153478500Y-89679500I150000J0D01*
G01*
X155128500Y-89679500D01*
G75*
G02*
X155278500Y-89829500I0J-150000D01*
G01*
X155278500Y-90129500D01*
G75*
G02*
X155128500Y-90279500I-150000J0D01*
G01*
X153478500Y-90279500D01*
G75*
G02*
X153328500Y-90129500I0J150000D01*
G01*
G37*
%TD.AperFunction*%
%TO.P,74HC165_1,11*%
%TO.N,/C_P1_B*%
%TA.AperFunction,SMDPad,CuDef*%
G36*
G01*
X153328500Y-91399500D02*
X153328500Y-91099500D01*
G75*
G02*
X153478500Y-90949500I150000J0D01*
G01*
X155128500Y-90949500D01*
G75*
G02*
X155278500Y-91099500I0J-150000D01*
G01*
X155278500Y-91399500D01*
G75*
G02*
X155128500Y-91549500I-150000J0D01*
G01*
X153478500Y-91549500D01*
G75*
G02*
X153328500Y-91399500I0J150000D01*
G01*
G37*
%TD.AperFunction*%
%TO.P,74HC165_1,10*%
%TO.N,/Q7*%
%TA.AperFunction,SMDPad,CuDef*%
G36*
G01*
X153328500Y-92669500D02*
X153328500Y-92369500D01*
G75*
G02*
X153478500Y-92219500I150000J0D01*
G01*
X155128500Y-92219500D01*
G75*
G02*
X155278500Y-92369500I0J-150000D01*
G01*
X155278500Y-92669500D01*
G75*
G02*
X155128500Y-92819500I-150000J0D01*
G01*
X153478500Y-92819500D01*
G75*
G02*
X153328500Y-92669500I0J150000D01*
G01*
G37*
%TD.AperFunction*%
%TO.P,74HC165_1,9*%
%TO.N,/D_OUT*%
%TA.AperFunction,SMDPad,CuDef*%
G36*
G01*
X153328500Y-93939500D02*
X153328500Y-93639500D01*
G75*
G02*
X153478500Y-93489500I150000J0D01*
G01*
X155128500Y-93489500D01*
G75*
G02*
X155278500Y-93639500I0J-150000D01*
G01*
X155278500Y-93939500D01*
G75*
G02*
X155128500Y-94089500I-150000J0D01*
G01*
X153478500Y-94089500D01*
G75*
G02*
X153328500Y-93939500I0J150000D01*
G01*
G37*
%TD.AperFunction*%
%TO.P,74HC165_1,8*%
%TO.N,GND*%
%TA.AperFunction,SMDPad,CuDef*%
G36*
G01*
X148378500Y-93939500D02*
X148378500Y-93639500D01*
G75*
G02*
X148528500Y-93489500I150000J0D01*
G01*
X150178500Y-93489500D01*
G75*
G02*
X150328500Y-93639500I0J-150000D01*
G01*
X150328500Y-93939500D01*
G75*
G02*
X150178500Y-94089500I-150000J0D01*
G01*
X148528500Y-94089500D01*
G75*
G02*
X148378500Y-93939500I0J150000D01*
G01*
G37*
%TD.AperFunction*%
%TO.P,74HC165_1,7*%
%TO.N,N/C*%
%TA.AperFunction,SMDPad,CuDef*%
G36*
G01*
X148378500Y-92669500D02*
X148378500Y-92369500D01*
G75*
G02*
X148528500Y-92219500I150000J0D01*
G01*
X150178500Y-92219500D01*
G75*
G02*
X150328500Y-92369500I0J-150000D01*
G01*
X150328500Y-92669500D01*
G75*
G02*
X150178500Y-92819500I-150000J0D01*
G01*
X148528500Y-92819500D01*
G75*
G02*
X148378500Y-92669500I0J150000D01*
G01*
G37*
%TD.AperFunction*%
%TO.P,74HC165_1,6*%
%TO.N,/C_P1_UP*%
%TA.AperFunction,SMDPad,CuDef*%
G36*
G01*
X148378500Y-91399500D02*
X148378500Y-91099500D01*
G75*
G02*
X148528500Y-90949500I150000J0D01*
G01*
X150178500Y-90949500D01*
G75*
G02*
X150328500Y-91099500I0J-150000D01*
G01*
X150328500Y-91399500D01*
G75*
G02*
X150178500Y-91549500I-150000J0D01*
G01*
X148528500Y-91549500D01*
G75*
G02*
X148378500Y-91399500I0J150000D01*
G01*
G37*
%TD.AperFunction*%
%TO.P,74HC165_1,5*%
%TO.N,/C_P1_DOWN*%
%TA.AperFunction,SMDPad,CuDef*%
G36*
G01*
X148378500Y-90129500D02*
X148378500Y-89829500D01*
G75*
G02*
X148528500Y-89679500I150000J0D01*
G01*
X150178500Y-89679500D01*
G75*
G02*
X150328500Y-89829500I0J-150000D01*
G01*
X150328500Y-90129500D01*
G75*
G02*
X150178500Y-90279500I-150000J0D01*
G01*
X148528500Y-90279500D01*
G75*
G02*
X148378500Y-90129500I0J150000D01*
G01*
G37*
%TD.AperFunction*%
%TO.P,74HC165_1,4*%
%TO.N,/C_P1_LEFT*%
%TA.AperFunction,SMDPad,CuDef*%
G36*
G01*
X148378500Y-88859500D02*
X148378500Y-88559500D01*
G75*
G02*
X148528500Y-88409500I150000J0D01*
G01*
X150178500Y-88409500D01*
G75*
G02*
X150328500Y-88559500I0J-150000D01*
G01*
X150328500Y-88859500D01*
G75*
G02*
X150178500Y-89009500I-150000J0D01*
G01*
X148528500Y-89009500D01*
G75*
G02*
X148378500Y-88859500I0J150000D01*
G01*
G37*
%TD.AperFunction*%
%TO.P,74HC165_1,3*%
%TO.N,/C_P1_RIGHT*%
%TA.AperFunction,SMDPad,CuDef*%
G36*
G01*
X148378500Y-87589500D02*
X148378500Y-87289500D01*
G75*
G02*
X148528500Y-87139500I150000J0D01*
G01*
X150178500Y-87139500D01*
G75*
G02*
X150328500Y-87289500I0J-150000D01*
G01*
X150328500Y-87589500D01*
G75*
G02*
X150178500Y-87739500I-150000J0D01*
G01*
X148528500Y-87739500D01*
G75*
G02*
X148378500Y-87589500I0J150000D01*
G01*
G37*
%TD.AperFunction*%
%TO.P,74HC165_1,2*%
%TO.N,/CLK*%
%TA.AperFunction,SMDPad,CuDef*%
G36*
G01*
X148378500Y-86319500D02*
X148378500Y-86019500D01*
G75*
G02*
X148528500Y-85869500I150000J0D01*
G01*
X150178500Y-85869500D01*
G75*
G02*
X150328500Y-86019500I0J-150000D01*
G01*
X150328500Y-86319500D01*
G75*
G02*
X150178500Y-86469500I-150000J0D01*
G01*
X148528500Y-86469500D01*
G75*
G02*
X148378500Y-86319500I0J150000D01*
G01*
G37*
%TD.AperFunction*%
%TO.P,74HC165_1,1*%
%TO.N,/LOAD*%
%TA.AperFunction,SMDPad,CuDef*%
G36*
G01*
X148378500Y-85049500D02*
X148378500Y-84749500D01*
G75*
G02*
X148528500Y-84599500I150000J0D01*
G01*
X150178500Y-84599500D01*
G75*
G02*
X150328500Y-84749500I0J-150000D01*
G01*
X150328500Y-85049500D01*
G75*
G02*
X150178500Y-85199500I-150000J0D01*
G01*
X148528500Y-85199500D01*
G75*
G02*
X148378500Y-85049500I0J150000D01*
G01*
G37*
%TD.AperFunction*%
%TD*%
D15*
%TO.N,/PULL*%
X161836990Y-76454002D03*
X117919512Y-92392500D03*
X158877003Y-93218003D03*
X145859500Y-94615000D03*
X132397500Y-94678500D03*
%TO.N,GND*%
X117094000Y-95123000D03*
X146558000Y-84264500D03*
X144716500Y-81534000D03*
X151701500Y-91376500D03*
X156527500Y-92392500D03*
X138239500Y-90868500D03*
X158813500Y-81724500D03*
X155956000Y-80772000D03*
X124777500Y-90868500D03*
X133096000Y-84328000D03*
X117602000Y-71882000D03*
X124714000Y-86360000D03*
X138430000Y-86360000D03*
X151892000Y-86360000D03*
%TO.N,/C_P1_START*%
X156046794Y-87584475D03*
%TO.N,/C_P1_SELECT*%
X156013480Y-88645980D03*
%TO.N,/C_P1_A*%
X156019504Y-89915996D03*
%TO.N,/C_P1_B*%
X156019500Y-91186000D03*
%TO.N,/C_P1_UP*%
X151542479Y-81821487D03*
X147637500Y-91376460D03*
%TO.N,/C_P1_DOWN*%
X150504076Y-81821479D03*
X147637500Y-90106482D03*
%TO.N,/C_P1_LEFT*%
X149491450Y-81821479D03*
X147637500Y-88836500D03*
%TO.N,/C_P1_RIGHT*%
X148463000Y-81788000D03*
X147574002Y-87375998D03*
%TO.N,/C_P1_X*%
X136969500Y-81470500D03*
X134175500Y-90868500D03*
%TO.N,/C_P1_Y*%
X135445500Y-81521849D03*
X134067544Y-89620332D03*
%TO.N,/C_P1_L*%
X134175500Y-81480285D03*
X134021334Y-88548802D03*
%TO.N,/C_P1_R*%
X132905498Y-81470500D03*
X133955813Y-87550939D03*
%TO.N,/C_P2_START*%
X120751600Y-91160600D03*
%TO.N,/C_P2_SELECT*%
X120713500Y-89852500D03*
%TO.N,/C_P2_A*%
X120713500Y-88582500D03*
%TO.N,/C_P2_B*%
X120675400Y-87350600D03*
%TO.N,/C_P2_UP*%
X142341594Y-87350600D03*
%TO.N,/C_P2_DOWN*%
X142341594Y-88620600D03*
%TO.N,/C_P2_LEFT*%
X142333697Y-89893190D03*
%TO.N,/C_P2_RIGHT*%
X142297478Y-91165357D03*
%TO.N,/C_P2_X*%
X125285496Y-81470500D03*
X128778000Y-87376000D03*
%TO.N,/C_P2_Y*%
X126486921Y-81433510D03*
X128778000Y-88646000D03*
%TO.N,/C_P2_L*%
X127579442Y-81433510D03*
X128844282Y-89960513D03*
%TO.N,/C_P2_R*%
X128587500Y-81433510D03*
X128838830Y-91146543D03*
%TO.N,/C_SHORT*%
X119126000Y-74422000D03*
%TD*%
D16*
%TO.N,/PULL*%
X161417000Y-76034012D02*
X161836990Y-76454002D01*
X161417000Y-74676000D02*
X161417000Y-76034012D01*
X117831500Y-92304488D02*
X117919512Y-92392500D01*
X117831500Y-88081000D02*
X117831500Y-92304488D01*
X158901500Y-93193506D02*
X158877003Y-93218003D01*
X158901500Y-88081000D02*
X158901500Y-93193506D01*
X145657500Y-90430500D02*
X144247500Y-89020500D01*
X145947500Y-90430500D02*
X145657500Y-90430500D01*
X145947500Y-90430500D02*
X145947500Y-94527000D01*
X145947500Y-94527000D02*
X145859500Y-94615000D01*
X144247500Y-89020500D02*
X144247500Y-86620500D01*
X130873500Y-88932500D02*
X130785500Y-89020500D01*
X130873500Y-86708500D02*
X130873500Y-88932500D01*
X130785500Y-86620500D02*
X130873500Y-86708500D01*
X132195500Y-90430500D02*
X132485500Y-90430500D01*
X130785500Y-89020500D02*
X132195500Y-90430500D01*
X132485500Y-94590500D02*
X132397500Y-94678500D01*
X132485500Y-90430500D02*
X132485500Y-94590500D01*
D17*
%TO.N,VCC*%
X129222200Y-84810600D02*
X129704800Y-84328000D01*
X127443000Y-84810600D02*
X129222200Y-84810600D01*
X114143000Y-81504000D02*
X114143000Y-74676000D01*
X114554000Y-81915000D02*
X114143000Y-81504000D01*
X162687000Y-74706000D02*
X162717000Y-74676000D01*
X162687000Y-81407000D02*
X162687000Y-74706000D01*
X162306000Y-81788000D02*
X162687000Y-81407000D01*
X143476513Y-83121500D02*
X155451474Y-83121500D01*
X160972500Y-83121500D02*
X154876500Y-83121500D01*
X162306000Y-81788000D02*
X160972500Y-83121500D01*
X142989000Y-83172000D02*
X142938500Y-83121500D01*
X142989000Y-84455000D02*
X142989000Y-83172000D01*
X142938500Y-83121500D02*
X144018000Y-83121500D01*
X129704800Y-83274200D02*
X129857500Y-83121500D01*
X129704800Y-84328000D02*
X129704800Y-83274200D01*
X129857500Y-83121500D02*
X142938500Y-83121500D01*
X118554500Y-83121500D02*
X129857500Y-83121500D01*
X117348000Y-81915000D02*
X118554500Y-83121500D01*
X114554000Y-81915000D02*
X117348000Y-81915000D01*
X141362200Y-84455000D02*
X142989000Y-84455000D01*
X141006600Y-84810600D02*
X141362200Y-84455000D01*
X156070000Y-84899500D02*
X156514500Y-84455000D01*
X154227300Y-84899500D02*
X156070000Y-84899500D01*
X156527500Y-83248500D02*
X156654500Y-83121500D01*
X156527500Y-84442000D02*
X156527500Y-83248500D01*
X156514500Y-84455000D02*
X156527500Y-84442000D01*
%TO.N,GND*%
X116743000Y-74676000D02*
X116743000Y-72741000D01*
X116743000Y-72741000D02*
X117602000Y-71882000D01*
D16*
X138620500Y-86169500D02*
X140714500Y-86169500D01*
X138430000Y-86360000D02*
X138620500Y-86169500D01*
X124968000Y-86106000D02*
X124714000Y-86360000D01*
X127189000Y-86106000D02*
X124968000Y-86106000D01*
X127252500Y-86169500D02*
X127189000Y-86106000D01*
X151892000Y-86360000D02*
X152082500Y-86169500D01*
X152082500Y-86169500D02*
X154303500Y-86169500D01*
%TO.N,/D_IN*%
X126873000Y-92456000D02*
X128332000Y-92456000D01*
X126746000Y-92456000D02*
X127443000Y-92456000D01*
X123825000Y-95377000D02*
X126746000Y-92456000D01*
X119058081Y-95377000D02*
X123825000Y-95377000D01*
X115756081Y-92075000D02*
X119058081Y-95377000D01*
X114554000Y-92075000D02*
X115756081Y-92075000D01*
%TO.N,/D_OUT*%
X161456001Y-92797999D02*
X162306000Y-91948000D01*
X159004000Y-95250000D02*
X161456001Y-92797999D01*
X155687800Y-95250000D02*
X159004000Y-95250000D01*
X154036800Y-93599000D02*
X155687800Y-95250000D01*
%TO.N,/LOAD*%
X161671000Y-86233000D02*
X160899010Y-85461010D01*
X162306000Y-86868000D02*
X161671000Y-86233000D01*
X116205000Y-86995000D02*
X114554000Y-86995000D01*
X118364000Y-84836000D02*
X116205000Y-86995000D01*
X122467600Y-84836000D02*
X118364000Y-84836000D01*
X122493000Y-84810600D02*
X122467600Y-84836000D01*
X160972500Y-85534500D02*
X161671000Y-86233000D01*
X149988500Y-85534500D02*
X160972500Y-85534500D01*
X149353500Y-84899500D02*
X149988500Y-85534500D01*
X148708510Y-85544490D02*
X149353500Y-84899500D01*
X135764500Y-84899500D02*
X136409490Y-85544490D01*
X136409490Y-85544490D02*
X148708510Y-85544490D01*
X135139490Y-85524510D02*
X135764500Y-84899500D01*
X122927510Y-85524510D02*
X135139490Y-85524510D01*
X122302500Y-84899500D02*
X122927510Y-85524510D01*
%TO.N,/CLK*%
X119253000Y-86106000D02*
X120461000Y-86106000D01*
X117983000Y-86106000D02*
X114554000Y-89535000D01*
X119253000Y-86106000D02*
X117983000Y-86106000D01*
X122239000Y-86106000D02*
X122302500Y-86169500D01*
X119253000Y-86106000D02*
X122239000Y-86106000D01*
X136409490Y-86814490D02*
X135675600Y-86080600D01*
X137106490Y-86814490D02*
X136409490Y-86814490D01*
X137668000Y-87376000D02*
X137106490Y-86814490D01*
X139131232Y-87376000D02*
X137668000Y-87376000D01*
X139692742Y-86814490D02*
X139131232Y-87376000D01*
X142548495Y-85994501D02*
X141728506Y-86814490D01*
X149178501Y-85994501D02*
X142548495Y-85994501D01*
X141728506Y-86814490D02*
X139692742Y-86814490D01*
X149353500Y-86169500D02*
X149178501Y-85994501D01*
X122947490Y-86814490D02*
X122302500Y-86169500D01*
X123898490Y-86814490D02*
X122947490Y-86814490D01*
X124206000Y-87122000D02*
X123898490Y-86814490D01*
X125476000Y-87122000D02*
X124206000Y-87122000D01*
X125783510Y-86814490D02*
X125476000Y-87122000D01*
X129026268Y-86042500D02*
X128254278Y-86814490D01*
X135637500Y-86042500D02*
X129026268Y-86042500D01*
X128254278Y-86814490D02*
X125783510Y-86814490D01*
X135764500Y-86169500D02*
X135637500Y-86042500D01*
X159712490Y-86814490D02*
X160274000Y-87376000D01*
X160274000Y-87376000D02*
X162306000Y-89408000D01*
X153228232Y-86868000D02*
X153281742Y-86814490D01*
X152908000Y-86868000D02*
X153228232Y-86868000D01*
X153281742Y-86814490D02*
X159712490Y-86814490D01*
X152400000Y-87376000D02*
X152908000Y-86868000D01*
X151130000Y-87376000D02*
X152400000Y-87376000D01*
X150568490Y-86814490D02*
X151130000Y-87376000D01*
X149998490Y-86814490D02*
X150568490Y-86814490D01*
X149353500Y-86169500D02*
X149998490Y-86814490D01*
%TO.N,/Q7*%
X142773001Y-95340001D02*
X141159000Y-93726000D01*
X151039999Y-95340001D02*
X142773001Y-95340001D01*
X154036800Y-92343200D02*
X151039999Y-95340001D01*
X154036800Y-92329000D02*
X154036800Y-92343200D01*
%TO.N,/Q7_2*%
X140778000Y-92456000D02*
X140714500Y-92519500D01*
X141159000Y-92456000D02*
X140778000Y-92456000D01*
X128893011Y-95430011D02*
X127252500Y-93789500D01*
X136979989Y-95430011D02*
X128893011Y-95430011D01*
X139890500Y-92519500D02*
X136979989Y-95430011D01*
X140714500Y-92519500D02*
X139890500Y-92519500D01*
%TO.N,/C_P1_START*%
X143288001Y-72930001D02*
X142113000Y-71755000D01*
X143288001Y-74669003D02*
X143288001Y-72930001D01*
X146596998Y-77978000D02*
X143288001Y-74669003D01*
X147320000Y-77978000D02*
X146596998Y-77978000D01*
X155901819Y-87439500D02*
X156046794Y-87584475D01*
X154303500Y-87439500D02*
X155901819Y-87439500D01*
X156704975Y-87584475D02*
X157201500Y-88081000D01*
X156046794Y-87584475D02*
X156704975Y-87584475D01*
%TO.N,/C_P1_SELECT*%
X140748001Y-72930001D02*
X139573000Y-71755000D01*
X140748001Y-74669003D02*
X140748001Y-72930001D01*
X144056998Y-77978000D02*
X140748001Y-74669003D01*
X144780000Y-77978000D02*
X144056998Y-77978000D01*
X156248500Y-88881000D02*
X156013480Y-88645980D01*
X157201500Y-88881000D02*
X156248500Y-88881000D01*
X154036800Y-88646000D02*
X156013460Y-88646000D01*
X156013460Y-88646000D02*
X156013480Y-88645980D01*
%TO.N,/C_P1_A*%
X138208001Y-74669003D02*
X138208001Y-72930001D01*
X142240000Y-77978000D02*
X141516998Y-77978000D01*
X141516998Y-77978000D02*
X138208001Y-74669003D01*
X138208001Y-72930001D02*
X137033000Y-71755000D01*
X157139132Y-89618632D02*
X157201500Y-89681000D01*
X155956000Y-89979500D02*
X156019504Y-89915996D01*
X154303500Y-89979500D02*
X155956000Y-89979500D01*
X156966504Y-89915996D02*
X157201500Y-89681000D01*
X156019504Y-89915996D02*
X156966504Y-89915996D01*
%TO.N,/C_P1_B*%
X135699500Y-72707500D02*
X134493000Y-71501000D01*
X135699500Y-74446502D02*
X135699500Y-72707500D01*
X139230998Y-77978000D02*
X135699500Y-74446502D01*
X139573000Y-77978000D02*
X139230998Y-77978000D01*
X154303500Y-91249500D02*
X155956000Y-91249500D01*
X155956000Y-91249500D02*
X156019500Y-91186000D01*
X157201500Y-90481000D02*
X156496500Y-91186000D01*
X156496500Y-91186000D02*
X156019500Y-91186000D01*
%TO.N,/C_P1_UP*%
X145947500Y-89020500D02*
X146912498Y-89985498D01*
X147071815Y-91376460D02*
X147637500Y-91376460D01*
X146912498Y-91217143D02*
X147071815Y-91376460D01*
X146912498Y-89985498D02*
X146912498Y-91217143D01*
X149226540Y-91376460D02*
X149353500Y-91249500D01*
X147637500Y-91376460D02*
X149226540Y-91376460D01*
X155284001Y-80046999D02*
X157353000Y-77978000D01*
X153316967Y-80046999D02*
X155284001Y-80046999D01*
X151542479Y-81821487D02*
X153316967Y-80046999D01*
X153448001Y-72676001D02*
X152273000Y-71501000D01*
X153448001Y-74415003D02*
X153448001Y-72676001D01*
X157010998Y-77978000D02*
X153448001Y-74415003D01*
X157353000Y-77978000D02*
X157010998Y-77978000D01*
%TO.N,/C_P1_DOWN*%
X154611119Y-77978000D02*
X154813000Y-77978000D01*
X154611119Y-77978000D02*
X154347555Y-77978000D01*
X146347131Y-88220500D02*
X146622130Y-88495499D01*
X145947500Y-88220500D02*
X146347131Y-88220500D01*
X147637500Y-89909502D02*
X147637500Y-90106482D01*
X146912499Y-89184501D02*
X147637500Y-89909502D01*
X146912499Y-88750497D02*
X146912499Y-89184501D01*
X146201500Y-88284000D02*
X146446002Y-88284000D01*
X146446002Y-88284000D02*
X146912499Y-88750497D01*
X149226518Y-90106482D02*
X149353500Y-89979500D01*
X147637500Y-90106482D02*
X149226518Y-90106482D01*
X154347555Y-77978000D02*
X154813000Y-77978000D01*
X150504076Y-81821479D02*
X154347555Y-77978000D01*
X150908001Y-72676001D02*
X149733000Y-71501000D01*
X150908001Y-74415003D02*
X150908001Y-72676001D01*
X154470998Y-77978000D02*
X150908001Y-74415003D01*
X154813000Y-77978000D02*
X154470998Y-77978000D01*
%TO.N,/C_P1_LEFT*%
X145947500Y-87420500D02*
X146418496Y-87420500D01*
X147637500Y-88639504D02*
X147637500Y-88836500D01*
X146418496Y-87420500D02*
X147637500Y-88639504D01*
X149226500Y-88836500D02*
X149353500Y-88709500D01*
X147637500Y-88836500D02*
X149226500Y-88836500D01*
X152273000Y-78487410D02*
X152273000Y-77978000D01*
X149491450Y-81268960D02*
X152273000Y-78487410D01*
X149491450Y-81821479D02*
X149491450Y-81268960D01*
X148368001Y-72676001D02*
X147193000Y-71501000D01*
X148368001Y-74415003D02*
X148368001Y-72676001D01*
X151930998Y-77978000D02*
X148368001Y-74415003D01*
X152273000Y-77978000D02*
X151930998Y-77978000D01*
%TO.N,/C_P1_RIGHT*%
X147637504Y-87439500D02*
X147574002Y-87375998D01*
X149353500Y-87439500D02*
X147637504Y-87439500D01*
X145947500Y-86620500D02*
X146818504Y-86620500D01*
X146818504Y-86620500D02*
X147574002Y-87375998D01*
X145828001Y-74415003D02*
X149390998Y-77978000D01*
X149390998Y-77978000D02*
X149733000Y-77978000D01*
X145828001Y-72676001D02*
X145828001Y-74415003D01*
X144653000Y-71501000D02*
X145828001Y-72676001D01*
X149733000Y-80391000D02*
X149733000Y-77978000D01*
X148463000Y-81661000D02*
X149733000Y-80391000D01*
X148463000Y-81788000D02*
X148463000Y-81661000D01*
%TO.N,/C_P1_X*%
X133159500Y-72707500D02*
X131953000Y-71501000D01*
X133159500Y-74446502D02*
X133159500Y-72707500D01*
X136690998Y-77978000D02*
X133159500Y-74446502D01*
X137033000Y-77978000D02*
X136690998Y-77978000D01*
X137033000Y-77978000D02*
X137033000Y-81407000D01*
X137033000Y-81407000D02*
X136969500Y-81470500D01*
X132739500Y-89020500D02*
X132739500Y-89432500D01*
X133775501Y-90468501D02*
X134175500Y-90868500D01*
X132739500Y-89432500D02*
X133775501Y-90468501D01*
X135764500Y-91249500D02*
X134556500Y-91249500D01*
X134556500Y-91249500D02*
X134175500Y-90868500D01*
%TO.N,/C_P1_Y*%
X130588001Y-72676001D02*
X129413000Y-71501000D01*
X130588001Y-74415003D02*
X130588001Y-72676001D01*
X134150998Y-77978000D02*
X130588001Y-74415003D01*
X134493000Y-77978000D02*
X134150998Y-77978000D01*
X134493000Y-77978000D02*
X135445500Y-78930500D01*
X135445500Y-78930500D02*
X135445500Y-81521849D01*
X133260501Y-88813289D02*
X134067544Y-89620332D01*
X134337812Y-89890600D02*
X134067544Y-89620332D01*
X136056600Y-89890600D02*
X134337812Y-89890600D01*
X132920502Y-88220500D02*
X133260501Y-88560499D01*
X132739500Y-88220500D02*
X132920502Y-88220500D01*
X133260501Y-88560499D02*
X133260501Y-88813289D01*
%TO.N,/C_P1_L*%
X128143000Y-73025000D02*
X126873000Y-71755000D01*
X128143000Y-74905812D02*
X128143000Y-73025000D01*
X131215188Y-77978000D02*
X128143000Y-74905812D01*
X131953000Y-77978000D02*
X131215188Y-77978000D01*
X131953000Y-77978000D02*
X134175500Y-80200500D01*
X134175500Y-80200500D02*
X134175500Y-81480285D01*
X132739500Y-87420500D02*
X132920502Y-87420500D01*
X136056600Y-88620600D02*
X134093132Y-88620600D01*
X133260501Y-87760499D02*
X133260501Y-87924089D01*
X133260501Y-87924089D02*
X133885214Y-88548802D01*
X133885214Y-88548802D02*
X134021334Y-88548802D01*
X134093132Y-88620600D02*
X134021334Y-88548802D01*
X132920502Y-87420500D02*
X133260501Y-87760499D01*
%TO.N,/C_P1_R*%
X125603000Y-73025000D02*
X124333000Y-71755000D01*
X129413000Y-77978000D02*
X128816998Y-77978000D01*
X128816998Y-77978000D02*
X125603000Y-74764002D01*
X125603000Y-74764002D02*
X125603000Y-73025000D01*
X129413000Y-77978000D02*
X130262999Y-78828001D01*
X130262999Y-78828001D02*
X132905498Y-81470500D01*
X132739500Y-86620500D02*
X133025374Y-86620500D01*
X134156152Y-87350600D02*
X133955813Y-87550939D01*
X136056600Y-87350600D02*
X134156152Y-87350600D01*
X133025374Y-86620500D02*
X133955813Y-87550939D01*
%TO.N,/C_P2_START*%
X120211100Y-91160600D02*
X122493000Y-91160600D01*
X119531500Y-90481000D02*
X120211100Y-91160600D01*
X120777000Y-91186000D02*
X120751600Y-91160600D01*
X122493000Y-91186000D02*
X120777000Y-91186000D01*
%TO.N,/C_P2_SELECT*%
X122283400Y-89681000D02*
X122493000Y-89890600D01*
X119531500Y-89681000D02*
X122283400Y-89681000D01*
X120777000Y-89916000D02*
X120713500Y-89852500D01*
X122493000Y-89916000D02*
X120777000Y-89916000D01*
%TO.N,/C_P2_A*%
X122232600Y-88881000D02*
X122493000Y-88620600D01*
X119531500Y-88881000D02*
X122232600Y-88881000D01*
X122493000Y-88646000D02*
X120777000Y-88646000D01*
X120777000Y-88646000D02*
X120713500Y-88582500D01*
%TO.N,/C_P2_B*%
X120261900Y-87350600D02*
X122493000Y-87350600D01*
X119531500Y-88081000D02*
X120261900Y-87350600D01*
X122493000Y-87376000D02*
X120700800Y-87376000D01*
X120700800Y-87376000D02*
X120675400Y-87350600D01*
%TO.N,/C_P2_UP*%
X143472499Y-88481505D02*
X142341594Y-87350600D01*
X143472499Y-89464999D02*
X143472499Y-88481505D01*
X141006600Y-87350600D02*
X142341594Y-87350600D01*
X144501500Y-90494000D02*
X143472499Y-89464999D01*
%TO.N,/C_P2_DOWN*%
X141006600Y-88620600D02*
X142341594Y-88620600D01*
X143022488Y-89666901D02*
X143022488Y-89301494D01*
X143472499Y-90890501D02*
X143472499Y-90116912D01*
X143875998Y-91294000D02*
X143472499Y-90890501D01*
X144501500Y-91294000D02*
X143875998Y-91294000D01*
X143022488Y-89301494D02*
X142341594Y-88620600D01*
X143472499Y-90116912D02*
X143022488Y-89666901D01*
%TO.N,/C_P2_LEFT*%
X141006600Y-89890600D02*
X142331107Y-89890600D01*
X142331107Y-89890600D02*
X142333697Y-89893190D01*
X143022488Y-90581981D02*
X142333697Y-89893190D01*
X143022488Y-91314988D02*
X143022488Y-90581981D01*
X143801500Y-92094000D02*
X143022488Y-91314988D01*
X144501500Y-92094000D02*
X143801500Y-92094000D01*
%TO.N,/C_P2_RIGHT*%
X142297478Y-91731042D02*
X142297478Y-91165357D01*
X142292721Y-91160600D02*
X142297478Y-91165357D01*
X143460436Y-92894000D02*
X142297478Y-91731042D01*
X144501500Y-92894000D02*
X143460436Y-92894000D01*
X141006600Y-91160600D02*
X142292721Y-91160600D01*
%TO.N,/C_P2_X*%
X131953000Y-73240002D02*
X130683000Y-71970002D01*
X119914501Y-70711088D02*
X119914501Y-74986498D01*
X121006498Y-81470500D02*
X125285496Y-81470500D01*
X118077999Y-78542001D02*
X121006498Y-81470500D01*
X118077999Y-76823000D02*
X118077999Y-78542001D01*
X121283589Y-69342000D02*
X119914501Y-70711088D01*
X130683000Y-70842000D02*
X129183000Y-69342000D01*
X131953000Y-74041000D02*
X131953000Y-73240002D01*
X130683000Y-71970002D02*
X130683000Y-70842000D01*
X119914501Y-74986498D02*
X118077999Y-76823000D01*
X129183000Y-69342000D02*
X121283589Y-69342000D01*
X127443000Y-87376000D02*
X128778000Y-87376000D01*
X129603500Y-89058000D02*
X129603500Y-88201500D01*
X131039500Y-90494000D02*
X129603500Y-89058000D01*
X129603500Y-88201500D02*
X128778000Y-87376000D01*
%TO.N,/C_P2_Y*%
X121782403Y-69792011D02*
X120428001Y-71146413D01*
X129413000Y-73658590D02*
X128143000Y-72388590D01*
X122337999Y-80554999D02*
X125608410Y-80554999D01*
X127093011Y-69792011D02*
X121782403Y-69792011D01*
X120376501Y-78593501D02*
X122337999Y-80554999D01*
X120428001Y-71146413D02*
X120428001Y-78542001D01*
X128143000Y-70842000D02*
X127093011Y-69792011D01*
X128143000Y-72388590D02*
X128143000Y-70842000D01*
X120428001Y-78542001D02*
X120376501Y-78593501D01*
X129413000Y-74041000D02*
X129413000Y-73658590D01*
X125608410Y-80554999D02*
X126486921Y-81433510D01*
X127443000Y-88646000D02*
X128778000Y-88646000D01*
X131039500Y-91294000D02*
X130413998Y-91294000D01*
X130413998Y-91294000D02*
X130010499Y-90890501D01*
X128778000Y-88868911D02*
X128778000Y-88646000D01*
X130010499Y-90101410D02*
X128778000Y-88868911D01*
X130010499Y-90890501D02*
X130010499Y-90101410D01*
%TO.N,/C_P2_L*%
X123063000Y-70694999D02*
X123063000Y-78676500D01*
X125003022Y-70242022D02*
X123515977Y-70242022D01*
X125603000Y-72388590D02*
X125603000Y-70842000D01*
X125603000Y-70842000D02*
X125003022Y-70242022D01*
X123515977Y-70242022D02*
X123063000Y-70694999D01*
X123063000Y-78676500D02*
X124491488Y-80104988D01*
X124491488Y-80104988D02*
X126250920Y-80104988D01*
X126873000Y-73658590D02*
X125603000Y-72388590D01*
X126873000Y-74041000D02*
X126873000Y-73658590D01*
X126250920Y-80104988D02*
X127579442Y-81433510D01*
X129560488Y-91076901D02*
X129560488Y-90676719D01*
X129560488Y-90676719D02*
X128844282Y-89960513D01*
X129814487Y-91568988D02*
X129814488Y-91330901D01*
X131039500Y-92094000D02*
X130339500Y-92094000D01*
X130339500Y-92094000D02*
X129814487Y-91568988D01*
X129814488Y-91330901D02*
X129560488Y-91076901D01*
X127443000Y-89916000D02*
X128799769Y-89916000D01*
X128799769Y-89916000D02*
X128844282Y-89960513D01*
%TO.N,/C_P2_R*%
X124333000Y-75243081D02*
X125539500Y-76449581D01*
X128587500Y-81356492D02*
X128587500Y-81433510D01*
X125539500Y-78308492D02*
X128587500Y-81356492D01*
X125539500Y-76449581D02*
X125539500Y-78308492D01*
X124333000Y-74041000D02*
X124333000Y-75243081D01*
X131039500Y-92894000D02*
X130020602Y-92894000D01*
X127443000Y-91186000D02*
X128799373Y-91186000D01*
X128799373Y-91186000D02*
X128838830Y-91146543D01*
X128838830Y-91712228D02*
X128838830Y-91146543D01*
X130020602Y-92894000D02*
X128838830Y-91712228D01*
%TO.N,/C_SHORT*%
X121793000Y-71755000D02*
X121793000Y-74295000D01*
X154813000Y-71501000D02*
X154813000Y-74041000D01*
X155956000Y-74041000D02*
X159893000Y-77978000D01*
X154813000Y-74041000D02*
X155956000Y-74041000D01*
X116838589Y-77978000D02*
X116713000Y-77978000D01*
X156467511Y-82546489D02*
X121407078Y-82546489D01*
X160020000Y-78994000D02*
X156467511Y-82546489D01*
X121407078Y-82546489D02*
X116838589Y-77978000D01*
X160020000Y-77978000D02*
X160020000Y-78994000D01*
X115443000Y-76708000D02*
X116713000Y-77978000D01*
X115443000Y-74676000D02*
X115443000Y-76708000D01*
X116713000Y-76835000D02*
X119126000Y-74422000D01*
X116713000Y-77978000D02*
X116713000Y-76835000D01*
%TD*%
D18*
%TO.N,GND*%
X162099665Y-68455441D02*
X161968682Y-68771663D01*
X161901907Y-69107362D01*
X161901907Y-69449638D01*
X161968682Y-69785337D01*
X162099665Y-70101559D01*
X162289824Y-70386151D01*
X162531849Y-70628176D01*
X162816441Y-70818335D01*
X163132663Y-70949318D01*
X163468362Y-71016093D01*
X163810638Y-71016093D01*
X164146337Y-70949318D01*
X164462559Y-70818335D01*
X164478500Y-70807683D01*
X164478501Y-94127892D01*
X164477299Y-94127089D01*
X164155414Y-93993760D01*
X163813703Y-93925789D01*
X163465297Y-93925789D01*
X163123586Y-93993760D01*
X162801701Y-94127089D01*
X162512012Y-94320652D01*
X162265652Y-94567012D01*
X162072089Y-94856701D01*
X161938760Y-95178586D01*
X161870789Y-95520297D01*
X161870789Y-95868703D01*
X161938760Y-96210414D01*
X162072089Y-96532299D01*
X162072891Y-96533500D01*
X114876684Y-96533500D01*
X114887335Y-96517559D01*
X115018318Y-96201337D01*
X115085093Y-95865638D01*
X115085093Y-95523362D01*
X115018318Y-95187663D01*
X114887335Y-94871441D01*
X114697176Y-94586849D01*
X114455151Y-94344824D01*
X114170559Y-94154665D01*
X113854337Y-94023682D01*
X113518638Y-93956907D01*
X113176362Y-93956907D01*
X112840663Y-94023682D01*
X112524441Y-94154665D01*
X112508500Y-94165316D01*
X112508500Y-73926000D01*
X113004928Y-73926000D01*
X113004928Y-75426000D01*
X113017188Y-75550482D01*
X113053498Y-75670180D01*
X113112463Y-75780494D01*
X113191815Y-75877185D01*
X113258001Y-75931502D01*
X113258000Y-80609560D01*
X113252815Y-80613815D01*
X113173463Y-80710506D01*
X113114498Y-80820820D01*
X113078188Y-80940518D01*
X113065928Y-81065000D01*
X113065928Y-82765000D01*
X113078188Y-82889482D01*
X113114498Y-83009180D01*
X113173463Y-83119494D01*
X113252815Y-83216185D01*
X113349506Y-83295537D01*
X113459820Y-83354502D01*
X113540466Y-83378966D01*
X113456412Y-83454731D01*
X113282359Y-83688080D01*
X113157175Y-83950901D01*
X113112524Y-84098110D01*
X113233845Y-84328000D01*
X114427000Y-84328000D01*
X114427000Y-84308000D01*
X114681000Y-84308000D01*
X114681000Y-84328000D01*
X115874155Y-84328000D01*
X115995476Y-84098110D01*
X115950825Y-83950901D01*
X115825641Y-83688080D01*
X115651588Y-83454731D01*
X115567534Y-83378966D01*
X115648180Y-83354502D01*
X115758494Y-83295537D01*
X115855185Y-83216185D01*
X115934537Y-83119494D01*
X115993502Y-83009180D01*
X116029812Y-82889482D01*
X116038625Y-82800000D01*
X116981422Y-82800000D01*
X117897970Y-83716549D01*
X117925683Y-83750317D01*
X117959451Y-83778030D01*
X117959453Y-83778032D01*
X118060441Y-83860911D01*
X118214186Y-83943089D01*
X118361940Y-83987910D01*
X118381010Y-83993695D01*
X118511023Y-84006500D01*
X118511031Y-84006500D01*
X118554500Y-84010781D01*
X118597969Y-84006500D01*
X121225090Y-84006500D01*
X121175918Y-84021416D01*
X121073799Y-84076000D01*
X118401322Y-84076000D01*
X118363999Y-84072324D01*
X118326676Y-84076000D01*
X118326667Y-84076000D01*
X118215014Y-84086997D01*
X118103925Y-84120695D01*
X118071753Y-84130454D01*
X117939723Y-84201026D01*
X117883947Y-84246801D01*
X117823999Y-84295999D01*
X117800201Y-84324997D01*
X115890199Y-86235000D01*
X115832178Y-86235000D01*
X115707475Y-86048368D01*
X115500632Y-85841525D01*
X115318466Y-85719805D01*
X115435355Y-85650178D01*
X115651588Y-85455269D01*
X115825641Y-85221920D01*
X115950825Y-84959099D01*
X115995476Y-84811890D01*
X115874155Y-84582000D01*
X114681000Y-84582000D01*
X114681000Y-84602000D01*
X114427000Y-84602000D01*
X114427000Y-84582000D01*
X113233845Y-84582000D01*
X113112524Y-84811890D01*
X113157175Y-84959099D01*
X113282359Y-85221920D01*
X113456412Y-85455269D01*
X113672645Y-85650178D01*
X113789534Y-85719805D01*
X113607368Y-85841525D01*
X113400525Y-86048368D01*
X113238010Y-86291589D01*
X113126068Y-86561842D01*
X113069000Y-86848740D01*
X113069000Y-87141260D01*
X113126068Y-87428158D01*
X113238010Y-87698411D01*
X113400525Y-87941632D01*
X113607368Y-88148475D01*
X113781760Y-88265000D01*
X113607368Y-88381525D01*
X113400525Y-88588368D01*
X113238010Y-88831589D01*
X113126068Y-89101842D01*
X113069000Y-89388740D01*
X113069000Y-89681260D01*
X113126068Y-89968158D01*
X113238010Y-90238411D01*
X113400525Y-90481632D01*
X113607368Y-90688475D01*
X113781760Y-90805000D01*
X113607368Y-90921525D01*
X113400525Y-91128368D01*
X113238010Y-91371589D01*
X113126068Y-91641842D01*
X113069000Y-91928740D01*
X113069000Y-92221260D01*
X113126068Y-92508158D01*
X113238010Y-92778411D01*
X113400525Y-93021632D01*
X113607368Y-93228475D01*
X113850589Y-93390990D01*
X114120842Y-93502932D01*
X114407740Y-93560000D01*
X114700260Y-93560000D01*
X114987158Y-93502932D01*
X115257411Y-93390990D01*
X115500632Y-93228475D01*
X115667693Y-93061414D01*
X118494282Y-95888003D01*
X118518080Y-95917001D01*
X118633805Y-96011974D01*
X118765834Y-96082546D01*
X118909095Y-96126003D01*
X119020748Y-96137000D01*
X119020757Y-96137000D01*
X119058080Y-96140676D01*
X119095403Y-96137000D01*
X123787678Y-96137000D01*
X123825000Y-96140676D01*
X123862322Y-96137000D01*
X123862333Y-96137000D01*
X123973986Y-96126003D01*
X124117247Y-96082546D01*
X124249276Y-96011974D01*
X124365001Y-95917001D01*
X124388804Y-95887997D01*
X125829592Y-94447210D01*
X125870249Y-94496751D01*
X125989671Y-94594758D01*
X126125918Y-94667584D01*
X126273755Y-94712429D01*
X126427500Y-94727572D01*
X127115771Y-94727572D01*
X128329212Y-95941014D01*
X128353010Y-95970012D01*
X128382008Y-95993810D01*
X128468734Y-96064985D01*
X128582888Y-96126002D01*
X128600764Y-96135557D01*
X128744025Y-96179014D01*
X128855678Y-96190011D01*
X128855688Y-96190011D01*
X128893011Y-96193687D01*
X128930334Y-96190011D01*
X136942667Y-96190011D01*
X136979989Y-96193687D01*
X137017311Y-96190011D01*
X137017322Y-96190011D01*
X137128975Y-96179014D01*
X137272236Y-96135557D01*
X137404265Y-96064985D01*
X137519990Y-95970012D01*
X137543793Y-95941008D01*
X139190085Y-94294717D01*
X139234242Y-94377329D01*
X139332249Y-94496751D01*
X139451671Y-94594758D01*
X139587918Y-94667584D01*
X139735755Y-94712429D01*
X139889500Y-94727572D01*
X141085771Y-94727572D01*
X142209202Y-95851004D01*
X142233000Y-95880002D01*
X142261998Y-95903800D01*
X142348724Y-95974975D01*
X142393722Y-95999027D01*
X142480754Y-96045547D01*
X142624015Y-96089004D01*
X142735668Y-96100001D01*
X142735677Y-96100001D01*
X142773000Y-96103677D01*
X142810323Y-96100001D01*
X151002677Y-96100001D01*
X151039999Y-96103677D01*
X151077321Y-96100001D01*
X151077332Y-96100001D01*
X151188985Y-96089004D01*
X151332246Y-96045547D01*
X151464275Y-95974975D01*
X151580000Y-95880002D01*
X151603803Y-95850998D01*
X152941462Y-94513339D01*
X153040671Y-94594758D01*
X153176918Y-94667584D01*
X153324755Y-94712429D01*
X153478500Y-94727572D01*
X154090571Y-94727572D01*
X155124001Y-95761003D01*
X155147799Y-95790001D01*
X155176797Y-95813799D01*
X155263524Y-95884974D01*
X155395553Y-95955546D01*
X155538814Y-95999003D01*
X155687800Y-96013677D01*
X155725133Y-96010000D01*
X158966678Y-96010000D01*
X159004000Y-96013676D01*
X159041322Y-96010000D01*
X159041333Y-96010000D01*
X159152986Y-95999003D01*
X159296247Y-95955546D01*
X159428276Y-95884974D01*
X159544001Y-95790001D01*
X159567804Y-95760997D01*
X161939592Y-93389210D01*
X162159740Y-93433000D01*
X162452260Y-93433000D01*
X162739158Y-93375932D01*
X163009411Y-93263990D01*
X163252632Y-93101475D01*
X163459475Y-92894632D01*
X163621990Y-92651411D01*
X163733932Y-92381158D01*
X163791000Y-92094260D01*
X163791000Y-91801740D01*
X163733932Y-91514842D01*
X163621990Y-91244589D01*
X163459475Y-91001368D01*
X163252632Y-90794525D01*
X163078240Y-90678000D01*
X163252632Y-90561475D01*
X163459475Y-90354632D01*
X163621990Y-90111411D01*
X163733932Y-89841158D01*
X163791000Y-89554260D01*
X163791000Y-89261740D01*
X163733932Y-88974842D01*
X163621990Y-88704589D01*
X163459475Y-88461368D01*
X163252632Y-88254525D01*
X163078240Y-88138000D01*
X163252632Y-88021475D01*
X163459475Y-87814632D01*
X163621990Y-87571411D01*
X163733932Y-87301158D01*
X163791000Y-87014260D01*
X163791000Y-86721740D01*
X163733932Y-86434842D01*
X163621990Y-86164589D01*
X163459475Y-85921368D01*
X163252632Y-85714525D01*
X163070466Y-85592805D01*
X163187355Y-85523178D01*
X163403588Y-85328269D01*
X163577641Y-85094920D01*
X163702825Y-84832099D01*
X163747476Y-84684890D01*
X163626155Y-84455000D01*
X162433000Y-84455000D01*
X162433000Y-84475000D01*
X162179000Y-84475000D01*
X162179000Y-84455000D01*
X160985845Y-84455000D01*
X160864524Y-84684890D01*
X160869189Y-84700271D01*
X160750025Y-84712008D01*
X160606764Y-84755464D01*
X160571150Y-84774500D01*
X159152109Y-84774500D01*
X159149500Y-84613750D01*
X158990750Y-84455000D01*
X158191500Y-84455000D01*
X158191500Y-84475000D01*
X157937500Y-84475000D01*
X157937500Y-84455000D01*
X157917500Y-84455000D01*
X157917500Y-84201000D01*
X157937500Y-84201000D01*
X157937500Y-84181000D01*
X158191500Y-84181000D01*
X158191500Y-84201000D01*
X158990750Y-84201000D01*
X159149500Y-84042250D01*
X159150080Y-84006500D01*
X160883201Y-84006500D01*
X160985845Y-84201000D01*
X162179000Y-84201000D01*
X162179000Y-84181000D01*
X162433000Y-84181000D01*
X162433000Y-84201000D01*
X163626155Y-84201000D01*
X163747476Y-83971110D01*
X163702825Y-83823901D01*
X163577641Y-83561080D01*
X163403588Y-83327731D01*
X163319534Y-83251966D01*
X163400180Y-83227502D01*
X163510494Y-83168537D01*
X163607185Y-83089185D01*
X163686537Y-82992494D01*
X163745502Y-82882180D01*
X163781812Y-82762482D01*
X163794072Y-82638000D01*
X163794072Y-80938000D01*
X163781812Y-80813518D01*
X163745502Y-80693820D01*
X163686537Y-80583506D01*
X163607185Y-80486815D01*
X163572000Y-80457940D01*
X163572000Y-75956122D01*
X163668185Y-75877185D01*
X163747537Y-75780494D01*
X163806502Y-75670180D01*
X163842812Y-75550482D01*
X163855072Y-75426000D01*
X163855072Y-73926000D01*
X163842812Y-73801518D01*
X163806502Y-73681820D01*
X163747537Y-73571506D01*
X163668185Y-73474815D01*
X163571494Y-73395463D01*
X163461180Y-73336498D01*
X163341482Y-73300188D01*
X163217000Y-73287928D01*
X162217000Y-73287928D01*
X162092518Y-73300188D01*
X162067000Y-73307929D01*
X162041482Y-73300188D01*
X161917000Y-73287928D01*
X160917000Y-73287928D01*
X160792518Y-73300188D01*
X160767000Y-73307929D01*
X160741482Y-73300188D01*
X160617000Y-73287928D01*
X160402750Y-73291000D01*
X160244000Y-73449750D01*
X160244000Y-74549000D01*
X160264000Y-74549000D01*
X160264000Y-74803000D01*
X160244000Y-74803000D01*
X160244000Y-75902250D01*
X160402750Y-76061000D01*
X160617000Y-76064072D01*
X160655907Y-76060240D01*
X160667998Y-76182997D01*
X160711454Y-76326258D01*
X160782026Y-76458288D01*
X160801990Y-76482614D01*
X160801990Y-76495738D01*
X160743000Y-76489928D01*
X159479730Y-76489928D01*
X158415802Y-75426000D01*
X158978928Y-75426000D01*
X158991188Y-75550482D01*
X159027498Y-75670180D01*
X159086463Y-75780494D01*
X159165815Y-75877185D01*
X159262506Y-75956537D01*
X159372820Y-76015502D01*
X159492518Y-76051812D01*
X159617000Y-76064072D01*
X159831250Y-76061000D01*
X159990000Y-75902250D01*
X159990000Y-74803000D01*
X159140750Y-74803000D01*
X158982000Y-74961750D01*
X158978928Y-75426000D01*
X158415802Y-75426000D01*
X156915802Y-73926000D01*
X158978928Y-73926000D01*
X158982000Y-74390250D01*
X159140750Y-74549000D01*
X159990000Y-74549000D01*
X159990000Y-73449750D01*
X159831250Y-73291000D01*
X159617000Y-73287928D01*
X159492518Y-73300188D01*
X159372820Y-73336498D01*
X159262506Y-73395463D01*
X159165815Y-73474815D01*
X159086463Y-73571506D01*
X159027498Y-73681820D01*
X158991188Y-73801518D01*
X158978928Y-73926000D01*
X156915802Y-73926000D01*
X156519804Y-73530003D01*
X156496001Y-73500999D01*
X156380276Y-73406026D01*
X156248247Y-73335454D01*
X156104986Y-73291997D01*
X156098071Y-73291316D01*
X155966475Y-73094368D01*
X155834620Y-72962513D01*
X155907180Y-72940502D01*
X156017494Y-72881537D01*
X156114185Y-72802185D01*
X156193537Y-72705494D01*
X156252502Y-72595180D01*
X156288812Y-72475482D01*
X156301072Y-72351000D01*
X156301072Y-70651000D01*
X156288812Y-70526518D01*
X156252502Y-70406820D01*
X156193537Y-70296506D01*
X156114185Y-70199815D01*
X156017494Y-70120463D01*
X155907180Y-70061498D01*
X155787482Y-70025188D01*
X155663000Y-70012928D01*
X153963000Y-70012928D01*
X153838518Y-70025188D01*
X153718820Y-70061498D01*
X153608506Y-70120463D01*
X153511815Y-70199815D01*
X153432463Y-70296506D01*
X153373498Y-70406820D01*
X153351487Y-70479380D01*
X153219632Y-70347525D01*
X152976411Y-70185010D01*
X152706158Y-70073068D01*
X152419260Y-70016000D01*
X152126740Y-70016000D01*
X151839842Y-70073068D01*
X151569589Y-70185010D01*
X151326368Y-70347525D01*
X151119525Y-70554368D01*
X151003000Y-70728760D01*
X150886475Y-70554368D01*
X150679632Y-70347525D01*
X150436411Y-70185010D01*
X150166158Y-70073068D01*
X149879260Y-70016000D01*
X149586740Y-70016000D01*
X149299842Y-70073068D01*
X149029589Y-70185010D01*
X148786368Y-70347525D01*
X148579525Y-70554368D01*
X148463000Y-70728760D01*
X148346475Y-70554368D01*
X148139632Y-70347525D01*
X147896411Y-70185010D01*
X147626158Y-70073068D01*
X147339260Y-70016000D01*
X147046740Y-70016000D01*
X146759842Y-70073068D01*
X146489589Y-70185010D01*
X146246368Y-70347525D01*
X146039525Y-70554368D01*
X145923000Y-70728760D01*
X145806475Y-70554368D01*
X145599632Y-70347525D01*
X145356411Y-70185010D01*
X145086158Y-70073068D01*
X144799260Y-70016000D01*
X144506740Y-70016000D01*
X144219842Y-70073068D01*
X143949589Y-70185010D01*
X143706368Y-70347525D01*
X143499525Y-70554368D01*
X143383000Y-70728760D01*
X143266475Y-70554368D01*
X143059632Y-70347525D01*
X142816411Y-70185010D01*
X142546158Y-70073068D01*
X142259260Y-70016000D01*
X141966740Y-70016000D01*
X141679842Y-70073068D01*
X141409589Y-70185010D01*
X141166368Y-70347525D01*
X140959525Y-70554368D01*
X140843000Y-70728760D01*
X140726475Y-70554368D01*
X140519632Y-70347525D01*
X140276411Y-70185010D01*
X140006158Y-70073068D01*
X139719260Y-70016000D01*
X139426740Y-70016000D01*
X139139842Y-70073068D01*
X138869589Y-70185010D01*
X138626368Y-70347525D01*
X138419525Y-70554368D01*
X138303000Y-70728760D01*
X138186475Y-70554368D01*
X137979632Y-70347525D01*
X137736411Y-70185010D01*
X137466158Y-70073068D01*
X137179260Y-70016000D01*
X136886740Y-70016000D01*
X136599842Y-70073068D01*
X136329589Y-70185010D01*
X136086368Y-70347525D01*
X135879525Y-70554368D01*
X135763000Y-70728760D01*
X135646475Y-70554368D01*
X135439632Y-70347525D01*
X135196411Y-70185010D01*
X134926158Y-70073068D01*
X134639260Y-70016000D01*
X134346740Y-70016000D01*
X134059842Y-70073068D01*
X133789589Y-70185010D01*
X133546368Y-70347525D01*
X133339525Y-70554368D01*
X133223000Y-70728760D01*
X133106475Y-70554368D01*
X132899632Y-70347525D01*
X132656411Y-70185010D01*
X132386158Y-70073068D01*
X132099260Y-70016000D01*
X131806740Y-70016000D01*
X131519842Y-70073068D01*
X131249589Y-70185010D01*
X131160404Y-70244602D01*
X129746804Y-68831003D01*
X129723001Y-68801999D01*
X129607276Y-68707026D01*
X129475247Y-68636454D01*
X129331986Y-68592997D01*
X129220333Y-68582000D01*
X129220322Y-68582000D01*
X129183000Y-68578324D01*
X129145678Y-68582000D01*
X121320912Y-68582000D01*
X121283589Y-68578324D01*
X121246266Y-68582000D01*
X121246256Y-68582000D01*
X121134603Y-68592997D01*
X120991342Y-68636454D01*
X120859313Y-68707026D01*
X120743588Y-68801999D01*
X120719790Y-68830997D01*
X119403504Y-70147284D01*
X119374500Y-70171087D01*
X119345006Y-70207026D01*
X119279527Y-70286812D01*
X119255367Y-70332012D01*
X119208955Y-70418842D01*
X119165498Y-70562103D01*
X119154501Y-70673756D01*
X119154501Y-70673766D01*
X119150825Y-70711088D01*
X119154501Y-70748411D01*
X119154502Y-73387000D01*
X119024061Y-73387000D01*
X118824102Y-73426774D01*
X118635744Y-73504795D01*
X118466226Y-73618063D01*
X118322063Y-73762226D01*
X118208795Y-73931744D01*
X118130774Y-74120102D01*
X118091000Y-74320061D01*
X118091000Y-74382198D01*
X117878000Y-74595198D01*
X117878000Y-74548998D01*
X117719252Y-74548998D01*
X117878000Y-74390250D01*
X117881072Y-73926000D01*
X117868812Y-73801518D01*
X117832502Y-73681820D01*
X117773537Y-73571506D01*
X117694185Y-73474815D01*
X117597494Y-73395463D01*
X117487180Y-73336498D01*
X117367482Y-73300188D01*
X117243000Y-73287928D01*
X117028750Y-73291000D01*
X116870000Y-73449750D01*
X116870000Y-74022260D01*
X116834117Y-73978263D01*
X116796690Y-73931714D01*
X116794985Y-73930283D01*
X116793577Y-73928557D01*
X116747527Y-73890461D01*
X116701754Y-73852053D01*
X116699802Y-73850980D01*
X116698087Y-73849561D01*
X116645539Y-73821149D01*
X116616000Y-73804909D01*
X116616000Y-73449750D01*
X116457250Y-73291000D01*
X116243000Y-73287928D01*
X116118518Y-73300188D01*
X116093000Y-73307929D01*
X116067482Y-73300188D01*
X115943000Y-73287928D01*
X114943000Y-73287928D01*
X114818518Y-73300188D01*
X114793000Y-73307929D01*
X114767482Y-73300188D01*
X114643000Y-73287928D01*
X113643000Y-73287928D01*
X113518518Y-73300188D01*
X113398820Y-73336498D01*
X113288506Y-73395463D01*
X113191815Y-73474815D01*
X113112463Y-73571506D01*
X113053498Y-73681820D01*
X113017188Y-73801518D01*
X113004928Y-73926000D01*
X112508500Y-73926000D01*
X112508500Y-70845109D01*
X112509701Y-70845911D01*
X112831586Y-70979240D01*
X113173297Y-71047211D01*
X113521703Y-71047211D01*
X113863414Y-70979240D01*
X114185299Y-70845911D01*
X114474988Y-70652348D01*
X114721348Y-70405988D01*
X114914911Y-70116299D01*
X115048240Y-69794414D01*
X115116211Y-69452703D01*
X115116211Y-69104297D01*
X115048240Y-68762586D01*
X114914911Y-68440701D01*
X114914109Y-68439500D01*
X162110316Y-68439500D01*
X162099665Y-68455441D01*
%TA.AperFunction,Conductor*%
D19*
G36*
X162099665Y-68455441D02*
G01*
X161968682Y-68771663D01*
X161901907Y-69107362D01*
X161901907Y-69449638D01*
X161968682Y-69785337D01*
X162099665Y-70101559D01*
X162289824Y-70386151D01*
X162531849Y-70628176D01*
X162816441Y-70818335D01*
X163132663Y-70949318D01*
X163468362Y-71016093D01*
X163810638Y-71016093D01*
X164146337Y-70949318D01*
X164462559Y-70818335D01*
X164478500Y-70807683D01*
X164478501Y-94127892D01*
X164477299Y-94127089D01*
X164155414Y-93993760D01*
X163813703Y-93925789D01*
X163465297Y-93925789D01*
X163123586Y-93993760D01*
X162801701Y-94127089D01*
X162512012Y-94320652D01*
X162265652Y-94567012D01*
X162072089Y-94856701D01*
X161938760Y-95178586D01*
X161870789Y-95520297D01*
X161870789Y-95868703D01*
X161938760Y-96210414D01*
X162072089Y-96532299D01*
X162072891Y-96533500D01*
X114876684Y-96533500D01*
X114887335Y-96517559D01*
X115018318Y-96201337D01*
X115085093Y-95865638D01*
X115085093Y-95523362D01*
X115018318Y-95187663D01*
X114887335Y-94871441D01*
X114697176Y-94586849D01*
X114455151Y-94344824D01*
X114170559Y-94154665D01*
X113854337Y-94023682D01*
X113518638Y-93956907D01*
X113176362Y-93956907D01*
X112840663Y-94023682D01*
X112524441Y-94154665D01*
X112508500Y-94165316D01*
X112508500Y-73926000D01*
X113004928Y-73926000D01*
X113004928Y-75426000D01*
X113017188Y-75550482D01*
X113053498Y-75670180D01*
X113112463Y-75780494D01*
X113191815Y-75877185D01*
X113258001Y-75931502D01*
X113258000Y-80609560D01*
X113252815Y-80613815D01*
X113173463Y-80710506D01*
X113114498Y-80820820D01*
X113078188Y-80940518D01*
X113065928Y-81065000D01*
X113065928Y-82765000D01*
X113078188Y-82889482D01*
X113114498Y-83009180D01*
X113173463Y-83119494D01*
X113252815Y-83216185D01*
X113349506Y-83295537D01*
X113459820Y-83354502D01*
X113540466Y-83378966D01*
X113456412Y-83454731D01*
X113282359Y-83688080D01*
X113157175Y-83950901D01*
X113112524Y-84098110D01*
X113233845Y-84328000D01*
X114427000Y-84328000D01*
X114427000Y-84308000D01*
X114681000Y-84308000D01*
X114681000Y-84328000D01*
X115874155Y-84328000D01*
X115995476Y-84098110D01*
X115950825Y-83950901D01*
X115825641Y-83688080D01*
X115651588Y-83454731D01*
X115567534Y-83378966D01*
X115648180Y-83354502D01*
X115758494Y-83295537D01*
X115855185Y-83216185D01*
X115934537Y-83119494D01*
X115993502Y-83009180D01*
X116029812Y-82889482D01*
X116038625Y-82800000D01*
X116981422Y-82800000D01*
X117897970Y-83716549D01*
X117925683Y-83750317D01*
X117959451Y-83778030D01*
X117959453Y-83778032D01*
X118060441Y-83860911D01*
X118214186Y-83943089D01*
X118361940Y-83987910D01*
X118381010Y-83993695D01*
X118511023Y-84006500D01*
X118511031Y-84006500D01*
X118554500Y-84010781D01*
X118597969Y-84006500D01*
X121225090Y-84006500D01*
X121175918Y-84021416D01*
X121073799Y-84076000D01*
X118401322Y-84076000D01*
X118363999Y-84072324D01*
X118326676Y-84076000D01*
X118326667Y-84076000D01*
X118215014Y-84086997D01*
X118103925Y-84120695D01*
X118071753Y-84130454D01*
X117939723Y-84201026D01*
X117883947Y-84246801D01*
X117823999Y-84295999D01*
X117800201Y-84324997D01*
X115890199Y-86235000D01*
X115832178Y-86235000D01*
X115707475Y-86048368D01*
X115500632Y-85841525D01*
X115318466Y-85719805D01*
X115435355Y-85650178D01*
X115651588Y-85455269D01*
X115825641Y-85221920D01*
X115950825Y-84959099D01*
X115995476Y-84811890D01*
X115874155Y-84582000D01*
X114681000Y-84582000D01*
X114681000Y-84602000D01*
X114427000Y-84602000D01*
X114427000Y-84582000D01*
X113233845Y-84582000D01*
X113112524Y-84811890D01*
X113157175Y-84959099D01*
X113282359Y-85221920D01*
X113456412Y-85455269D01*
X113672645Y-85650178D01*
X113789534Y-85719805D01*
X113607368Y-85841525D01*
X113400525Y-86048368D01*
X113238010Y-86291589D01*
X113126068Y-86561842D01*
X113069000Y-86848740D01*
X113069000Y-87141260D01*
X113126068Y-87428158D01*
X113238010Y-87698411D01*
X113400525Y-87941632D01*
X113607368Y-88148475D01*
X113781760Y-88265000D01*
X113607368Y-88381525D01*
X113400525Y-88588368D01*
X113238010Y-88831589D01*
X113126068Y-89101842D01*
X113069000Y-89388740D01*
X113069000Y-89681260D01*
X113126068Y-89968158D01*
X113238010Y-90238411D01*
X113400525Y-90481632D01*
X113607368Y-90688475D01*
X113781760Y-90805000D01*
X113607368Y-90921525D01*
X113400525Y-91128368D01*
X113238010Y-91371589D01*
X113126068Y-91641842D01*
X113069000Y-91928740D01*
X113069000Y-92221260D01*
X113126068Y-92508158D01*
X113238010Y-92778411D01*
X113400525Y-93021632D01*
X113607368Y-93228475D01*
X113850589Y-93390990D01*
X114120842Y-93502932D01*
X114407740Y-93560000D01*
X114700260Y-93560000D01*
X114987158Y-93502932D01*
X115257411Y-93390990D01*
X115500632Y-93228475D01*
X115667693Y-93061414D01*
X118494282Y-95888003D01*
X118518080Y-95917001D01*
X118633805Y-96011974D01*
X118765834Y-96082546D01*
X118909095Y-96126003D01*
X119020748Y-96137000D01*
X119020757Y-96137000D01*
X119058080Y-96140676D01*
X119095403Y-96137000D01*
X123787678Y-96137000D01*
X123825000Y-96140676D01*
X123862322Y-96137000D01*
X123862333Y-96137000D01*
X123973986Y-96126003D01*
X124117247Y-96082546D01*
X124249276Y-96011974D01*
X124365001Y-95917001D01*
X124388804Y-95887997D01*
X125829592Y-94447210D01*
X125870249Y-94496751D01*
X125989671Y-94594758D01*
X126125918Y-94667584D01*
X126273755Y-94712429D01*
X126427500Y-94727572D01*
X127115771Y-94727572D01*
X128329212Y-95941014D01*
X128353010Y-95970012D01*
X128382008Y-95993810D01*
X128468734Y-96064985D01*
X128582888Y-96126002D01*
X128600764Y-96135557D01*
X128744025Y-96179014D01*
X128855678Y-96190011D01*
X128855688Y-96190011D01*
X128893011Y-96193687D01*
X128930334Y-96190011D01*
X136942667Y-96190011D01*
X136979989Y-96193687D01*
X137017311Y-96190011D01*
X137017322Y-96190011D01*
X137128975Y-96179014D01*
X137272236Y-96135557D01*
X137404265Y-96064985D01*
X137519990Y-95970012D01*
X137543793Y-95941008D01*
X139190085Y-94294717D01*
X139234242Y-94377329D01*
X139332249Y-94496751D01*
X139451671Y-94594758D01*
X139587918Y-94667584D01*
X139735755Y-94712429D01*
X139889500Y-94727572D01*
X141085771Y-94727572D01*
X142209202Y-95851004D01*
X142233000Y-95880002D01*
X142261998Y-95903800D01*
X142348724Y-95974975D01*
X142393722Y-95999027D01*
X142480754Y-96045547D01*
X142624015Y-96089004D01*
X142735668Y-96100001D01*
X142735677Y-96100001D01*
X142773000Y-96103677D01*
X142810323Y-96100001D01*
X151002677Y-96100001D01*
X151039999Y-96103677D01*
X151077321Y-96100001D01*
X151077332Y-96100001D01*
X151188985Y-96089004D01*
X151332246Y-96045547D01*
X151464275Y-95974975D01*
X151580000Y-95880002D01*
X151603803Y-95850998D01*
X152941462Y-94513339D01*
X153040671Y-94594758D01*
X153176918Y-94667584D01*
X153324755Y-94712429D01*
X153478500Y-94727572D01*
X154090571Y-94727572D01*
X155124001Y-95761003D01*
X155147799Y-95790001D01*
X155176797Y-95813799D01*
X155263524Y-95884974D01*
X155395553Y-95955546D01*
X155538814Y-95999003D01*
X155687800Y-96013677D01*
X155725133Y-96010000D01*
X158966678Y-96010000D01*
X159004000Y-96013676D01*
X159041322Y-96010000D01*
X159041333Y-96010000D01*
X159152986Y-95999003D01*
X159296247Y-95955546D01*
X159428276Y-95884974D01*
X159544001Y-95790001D01*
X159567804Y-95760997D01*
X161939592Y-93389210D01*
X162159740Y-93433000D01*
X162452260Y-93433000D01*
X162739158Y-93375932D01*
X163009411Y-93263990D01*
X163252632Y-93101475D01*
X163459475Y-92894632D01*
X163621990Y-92651411D01*
X163733932Y-92381158D01*
X163791000Y-92094260D01*
X163791000Y-91801740D01*
X163733932Y-91514842D01*
X163621990Y-91244589D01*
X163459475Y-91001368D01*
X163252632Y-90794525D01*
X163078240Y-90678000D01*
X163252632Y-90561475D01*
X163459475Y-90354632D01*
X163621990Y-90111411D01*
X163733932Y-89841158D01*
X163791000Y-89554260D01*
X163791000Y-89261740D01*
X163733932Y-88974842D01*
X163621990Y-88704589D01*
X163459475Y-88461368D01*
X163252632Y-88254525D01*
X163078240Y-88138000D01*
X163252632Y-88021475D01*
X163459475Y-87814632D01*
X163621990Y-87571411D01*
X163733932Y-87301158D01*
X163791000Y-87014260D01*
X163791000Y-86721740D01*
X163733932Y-86434842D01*
X163621990Y-86164589D01*
X163459475Y-85921368D01*
X163252632Y-85714525D01*
X163070466Y-85592805D01*
X163187355Y-85523178D01*
X163403588Y-85328269D01*
X163577641Y-85094920D01*
X163702825Y-84832099D01*
X163747476Y-84684890D01*
X163626155Y-84455000D01*
X162433000Y-84455000D01*
X162433000Y-84475000D01*
X162179000Y-84475000D01*
X162179000Y-84455000D01*
X160985845Y-84455000D01*
X160864524Y-84684890D01*
X160869189Y-84700271D01*
X160750025Y-84712008D01*
X160606764Y-84755464D01*
X160571150Y-84774500D01*
X159152109Y-84774500D01*
X159149500Y-84613750D01*
X158990750Y-84455000D01*
X158191500Y-84455000D01*
X158191500Y-84475000D01*
X157937500Y-84475000D01*
X157937500Y-84455000D01*
X157917500Y-84455000D01*
X157917500Y-84201000D01*
X157937500Y-84201000D01*
X157937500Y-84181000D01*
X158191500Y-84181000D01*
X158191500Y-84201000D01*
X158990750Y-84201000D01*
X159149500Y-84042250D01*
X159150080Y-84006500D01*
X160883201Y-84006500D01*
X160985845Y-84201000D01*
X162179000Y-84201000D01*
X162179000Y-84181000D01*
X162433000Y-84181000D01*
X162433000Y-84201000D01*
X163626155Y-84201000D01*
X163747476Y-83971110D01*
X163702825Y-83823901D01*
X163577641Y-83561080D01*
X163403588Y-83327731D01*
X163319534Y-83251966D01*
X163400180Y-83227502D01*
X163510494Y-83168537D01*
X163607185Y-83089185D01*
X163686537Y-82992494D01*
X163745502Y-82882180D01*
X163781812Y-82762482D01*
X163794072Y-82638000D01*
X163794072Y-80938000D01*
X163781812Y-80813518D01*
X163745502Y-80693820D01*
X163686537Y-80583506D01*
X163607185Y-80486815D01*
X163572000Y-80457940D01*
X163572000Y-75956122D01*
X163668185Y-75877185D01*
X163747537Y-75780494D01*
X163806502Y-75670180D01*
X163842812Y-75550482D01*
X163855072Y-75426000D01*
X163855072Y-73926000D01*
X163842812Y-73801518D01*
X163806502Y-73681820D01*
X163747537Y-73571506D01*
X163668185Y-73474815D01*
X163571494Y-73395463D01*
X163461180Y-73336498D01*
X163341482Y-73300188D01*
X163217000Y-73287928D01*
X162217000Y-73287928D01*
X162092518Y-73300188D01*
X162067000Y-73307929D01*
X162041482Y-73300188D01*
X161917000Y-73287928D01*
X160917000Y-73287928D01*
X160792518Y-73300188D01*
X160767000Y-73307929D01*
X160741482Y-73300188D01*
X160617000Y-73287928D01*
X160402750Y-73291000D01*
X160244000Y-73449750D01*
X160244000Y-74549000D01*
X160264000Y-74549000D01*
X160264000Y-74803000D01*
X160244000Y-74803000D01*
X160244000Y-75902250D01*
X160402750Y-76061000D01*
X160617000Y-76064072D01*
X160655907Y-76060240D01*
X160667998Y-76182997D01*
X160711454Y-76326258D01*
X160782026Y-76458288D01*
X160801990Y-76482614D01*
X160801990Y-76495738D01*
X160743000Y-76489928D01*
X159479730Y-76489928D01*
X158415802Y-75426000D01*
X158978928Y-75426000D01*
X158991188Y-75550482D01*
X159027498Y-75670180D01*
X159086463Y-75780494D01*
X159165815Y-75877185D01*
X159262506Y-75956537D01*
X159372820Y-76015502D01*
X159492518Y-76051812D01*
X159617000Y-76064072D01*
X159831250Y-76061000D01*
X159990000Y-75902250D01*
X159990000Y-74803000D01*
X159140750Y-74803000D01*
X158982000Y-74961750D01*
X158978928Y-75426000D01*
X158415802Y-75426000D01*
X156915802Y-73926000D01*
X158978928Y-73926000D01*
X158982000Y-74390250D01*
X159140750Y-74549000D01*
X159990000Y-74549000D01*
X159990000Y-73449750D01*
X159831250Y-73291000D01*
X159617000Y-73287928D01*
X159492518Y-73300188D01*
X159372820Y-73336498D01*
X159262506Y-73395463D01*
X159165815Y-73474815D01*
X159086463Y-73571506D01*
X159027498Y-73681820D01*
X158991188Y-73801518D01*
X158978928Y-73926000D01*
X156915802Y-73926000D01*
X156519804Y-73530003D01*
X156496001Y-73500999D01*
X156380276Y-73406026D01*
X156248247Y-73335454D01*
X156104986Y-73291997D01*
X156098071Y-73291316D01*
X155966475Y-73094368D01*
X155834620Y-72962513D01*
X155907180Y-72940502D01*
X156017494Y-72881537D01*
X156114185Y-72802185D01*
X156193537Y-72705494D01*
X156252502Y-72595180D01*
X156288812Y-72475482D01*
X156301072Y-72351000D01*
X156301072Y-70651000D01*
X156288812Y-70526518D01*
X156252502Y-70406820D01*
X156193537Y-70296506D01*
X156114185Y-70199815D01*
X156017494Y-70120463D01*
X155907180Y-70061498D01*
X155787482Y-70025188D01*
X155663000Y-70012928D01*
X153963000Y-70012928D01*
X153838518Y-70025188D01*
X153718820Y-70061498D01*
X153608506Y-70120463D01*
X153511815Y-70199815D01*
X153432463Y-70296506D01*
X153373498Y-70406820D01*
X153351487Y-70479380D01*
X153219632Y-70347525D01*
X152976411Y-70185010D01*
X152706158Y-70073068D01*
X152419260Y-70016000D01*
X152126740Y-70016000D01*
X151839842Y-70073068D01*
X151569589Y-70185010D01*
X151326368Y-70347525D01*
X151119525Y-70554368D01*
X151003000Y-70728760D01*
X150886475Y-70554368D01*
X150679632Y-70347525D01*
X150436411Y-70185010D01*
X150166158Y-70073068D01*
X149879260Y-70016000D01*
X149586740Y-70016000D01*
X149299842Y-70073068D01*
X149029589Y-70185010D01*
X148786368Y-70347525D01*
X148579525Y-70554368D01*
X148463000Y-70728760D01*
X148346475Y-70554368D01*
X148139632Y-70347525D01*
X147896411Y-70185010D01*
X147626158Y-70073068D01*
X147339260Y-70016000D01*
X147046740Y-70016000D01*
X146759842Y-70073068D01*
X146489589Y-70185010D01*
X146246368Y-70347525D01*
X146039525Y-70554368D01*
X145923000Y-70728760D01*
X145806475Y-70554368D01*
X145599632Y-70347525D01*
X145356411Y-70185010D01*
X145086158Y-70073068D01*
X144799260Y-70016000D01*
X144506740Y-70016000D01*
X144219842Y-70073068D01*
X143949589Y-70185010D01*
X143706368Y-70347525D01*
X143499525Y-70554368D01*
X143383000Y-70728760D01*
X143266475Y-70554368D01*
X143059632Y-70347525D01*
X142816411Y-70185010D01*
X142546158Y-70073068D01*
X142259260Y-70016000D01*
X141966740Y-70016000D01*
X141679842Y-70073068D01*
X141409589Y-70185010D01*
X141166368Y-70347525D01*
X140959525Y-70554368D01*
X140843000Y-70728760D01*
X140726475Y-70554368D01*
X140519632Y-70347525D01*
X140276411Y-70185010D01*
X140006158Y-70073068D01*
X139719260Y-70016000D01*
X139426740Y-70016000D01*
X139139842Y-70073068D01*
X138869589Y-70185010D01*
X138626368Y-70347525D01*
X138419525Y-70554368D01*
X138303000Y-70728760D01*
X138186475Y-70554368D01*
X137979632Y-70347525D01*
X137736411Y-70185010D01*
X137466158Y-70073068D01*
X137179260Y-70016000D01*
X136886740Y-70016000D01*
X136599842Y-70073068D01*
X136329589Y-70185010D01*
X136086368Y-70347525D01*
X135879525Y-70554368D01*
X135763000Y-70728760D01*
X135646475Y-70554368D01*
X135439632Y-70347525D01*
X135196411Y-70185010D01*
X134926158Y-70073068D01*
X134639260Y-70016000D01*
X134346740Y-70016000D01*
X134059842Y-70073068D01*
X133789589Y-70185010D01*
X133546368Y-70347525D01*
X133339525Y-70554368D01*
X133223000Y-70728760D01*
X133106475Y-70554368D01*
X132899632Y-70347525D01*
X132656411Y-70185010D01*
X132386158Y-70073068D01*
X132099260Y-70016000D01*
X131806740Y-70016000D01*
X131519842Y-70073068D01*
X131249589Y-70185010D01*
X131160404Y-70244602D01*
X129746804Y-68831003D01*
X129723001Y-68801999D01*
X129607276Y-68707026D01*
X129475247Y-68636454D01*
X129331986Y-68592997D01*
X129220333Y-68582000D01*
X129220322Y-68582000D01*
X129183000Y-68578324D01*
X129145678Y-68582000D01*
X121320912Y-68582000D01*
X121283589Y-68578324D01*
X121246266Y-68582000D01*
X121246256Y-68582000D01*
X121134603Y-68592997D01*
X120991342Y-68636454D01*
X120859313Y-68707026D01*
X120743588Y-68801999D01*
X120719790Y-68830997D01*
X119403504Y-70147284D01*
X119374500Y-70171087D01*
X119345006Y-70207026D01*
X119279527Y-70286812D01*
X119255367Y-70332012D01*
X119208955Y-70418842D01*
X119165498Y-70562103D01*
X119154501Y-70673756D01*
X119154501Y-70673766D01*
X119150825Y-70711088D01*
X119154501Y-70748411D01*
X119154502Y-73387000D01*
X119024061Y-73387000D01*
X118824102Y-73426774D01*
X118635744Y-73504795D01*
X118466226Y-73618063D01*
X118322063Y-73762226D01*
X118208795Y-73931744D01*
X118130774Y-74120102D01*
X118091000Y-74320061D01*
X118091000Y-74382198D01*
X117878000Y-74595198D01*
X117878000Y-74548998D01*
X117719252Y-74548998D01*
X117878000Y-74390250D01*
X117881072Y-73926000D01*
X117868812Y-73801518D01*
X117832502Y-73681820D01*
X117773537Y-73571506D01*
X117694185Y-73474815D01*
X117597494Y-73395463D01*
X117487180Y-73336498D01*
X117367482Y-73300188D01*
X117243000Y-73287928D01*
X117028750Y-73291000D01*
X116870000Y-73449750D01*
X116870000Y-74022260D01*
X116834117Y-73978263D01*
X116796690Y-73931714D01*
X116794985Y-73930283D01*
X116793577Y-73928557D01*
X116747527Y-73890461D01*
X116701754Y-73852053D01*
X116699802Y-73850980D01*
X116698087Y-73849561D01*
X116645539Y-73821149D01*
X116616000Y-73804909D01*
X116616000Y-73449750D01*
X116457250Y-73291000D01*
X116243000Y-73287928D01*
X116118518Y-73300188D01*
X116093000Y-73307929D01*
X116067482Y-73300188D01*
X115943000Y-73287928D01*
X114943000Y-73287928D01*
X114818518Y-73300188D01*
X114793000Y-73307929D01*
X114767482Y-73300188D01*
X114643000Y-73287928D01*
X113643000Y-73287928D01*
X113518518Y-73300188D01*
X113398820Y-73336498D01*
X113288506Y-73395463D01*
X113191815Y-73474815D01*
X113112463Y-73571506D01*
X113053498Y-73681820D01*
X113017188Y-73801518D01*
X113004928Y-73926000D01*
X112508500Y-73926000D01*
X112508500Y-70845109D01*
X112509701Y-70845911D01*
X112831586Y-70979240D01*
X113173297Y-71047211D01*
X113521703Y-71047211D01*
X113863414Y-70979240D01*
X114185299Y-70845911D01*
X114474988Y-70652348D01*
X114721348Y-70405988D01*
X114914911Y-70116299D01*
X115048240Y-69794414D01*
X115116211Y-69452703D01*
X115116211Y-69104297D01*
X115048240Y-68762586D01*
X114914911Y-68440701D01*
X114914109Y-68439500D01*
X162110316Y-68439500D01*
X162099665Y-68455441D01*
G37*
%TD.AperFunction*%
D18*
X137362522Y-88074474D02*
X137375753Y-88081546D01*
X137519014Y-88125003D01*
X137630667Y-88136000D01*
X137630676Y-88136000D01*
X137667999Y-88139676D01*
X137705322Y-88136000D01*
X139093910Y-88136000D01*
X139131232Y-88139676D01*
X139168554Y-88136000D01*
X139168565Y-88136000D01*
X139229807Y-88129968D01*
X139161416Y-88257918D01*
X139116571Y-88405755D01*
X139101428Y-88559500D01*
X139101428Y-88859500D01*
X139116571Y-89013245D01*
X139161416Y-89161082D01*
X139234242Y-89297329D01*
X139272954Y-89344500D01*
X139234242Y-89391671D01*
X139161416Y-89527918D01*
X139116571Y-89675755D01*
X139101428Y-89829500D01*
X139101428Y-90129500D01*
X139116571Y-90283245D01*
X139161416Y-90431082D01*
X139234242Y-90567329D01*
X139272954Y-90614500D01*
X139234242Y-90661671D01*
X139161416Y-90797918D01*
X139116571Y-90945755D01*
X139101428Y-91099500D01*
X139101428Y-91399500D01*
X139116571Y-91553245D01*
X139161416Y-91701082D01*
X139234242Y-91837329D01*
X139272954Y-91884500D01*
X139234242Y-91931671D01*
X139161416Y-92067918D01*
X139116571Y-92215755D01*
X139116257Y-92218941D01*
X137317224Y-94017974D01*
X137215750Y-93916500D01*
X135891500Y-93916500D01*
X135891500Y-93936500D01*
X135637500Y-93936500D01*
X135637500Y-93916500D01*
X134313250Y-93916500D01*
X134154500Y-94075250D01*
X134151428Y-94089500D01*
X134163688Y-94213982D01*
X134199998Y-94333680D01*
X134258963Y-94443994D01*
X134338315Y-94540685D01*
X134435006Y-94620037D01*
X134528499Y-94670011D01*
X133432500Y-94670011D01*
X133432500Y-94576561D01*
X133392726Y-94376602D01*
X133314705Y-94188244D01*
X133245500Y-94084671D01*
X133245500Y-93584820D01*
X133289994Y-93561037D01*
X133386685Y-93481685D01*
X133466037Y-93384994D01*
X133525002Y-93274680D01*
X133561312Y-93154982D01*
X133573572Y-93030500D01*
X133573572Y-92630500D01*
X133561312Y-92506018D01*
X133538404Y-92430500D01*
X133561312Y-92354982D01*
X133573572Y-92230500D01*
X133573572Y-91830500D01*
X133561312Y-91706018D01*
X133560124Y-91702103D01*
X133685244Y-91785705D01*
X133873602Y-91863726D01*
X134073561Y-91903500D01*
X134167819Y-91903500D01*
X134264253Y-91955046D01*
X134270702Y-91957002D01*
X134211416Y-92067918D01*
X134166571Y-92215755D01*
X134151428Y-92369500D01*
X134151428Y-92669500D01*
X134166571Y-92823245D01*
X134211416Y-92971082D01*
X134283230Y-93105436D01*
X134258963Y-93135006D01*
X134199998Y-93245320D01*
X134163688Y-93365018D01*
X134151428Y-93489500D01*
X134154500Y-93503750D01*
X134313250Y-93662500D01*
X135637500Y-93662500D01*
X135637500Y-93642500D01*
X135891500Y-93642500D01*
X135891500Y-93662500D01*
X137215750Y-93662500D01*
X137374500Y-93503750D01*
X137377572Y-93489500D01*
X137365312Y-93365018D01*
X137329002Y-93245320D01*
X137270037Y-93135006D01*
X137245770Y-93105436D01*
X137317584Y-92971082D01*
X137362429Y-92823245D01*
X137377572Y-92669500D01*
X137377572Y-92369500D01*
X137362429Y-92215755D01*
X137317584Y-92067918D01*
X137244758Y-91931671D01*
X137206046Y-91884500D01*
X137244758Y-91837329D01*
X137317584Y-91701082D01*
X137362429Y-91553245D01*
X137377572Y-91399500D01*
X137377572Y-91099500D01*
X137362429Y-90945755D01*
X137317584Y-90797918D01*
X137244758Y-90661671D01*
X137206046Y-90614500D01*
X137244758Y-90567329D01*
X137317584Y-90431082D01*
X137362429Y-90283245D01*
X137377572Y-90129500D01*
X137377572Y-89829500D01*
X137362429Y-89675755D01*
X137317584Y-89527918D01*
X137244758Y-89391671D01*
X137206046Y-89344500D01*
X137244758Y-89297329D01*
X137317584Y-89161082D01*
X137362429Y-89013245D01*
X137377572Y-88859500D01*
X137377572Y-88559500D01*
X137362429Y-88405755D01*
X137317584Y-88257918D01*
X137244758Y-88121671D01*
X137206046Y-88074500D01*
X137244758Y-88027329D01*
X137251327Y-88015039D01*
X137362522Y-88074474D01*
%TA.AperFunction,Conductor*%
D19*
G36*
X137362522Y-88074474D02*
G01*
X137375753Y-88081546D01*
X137519014Y-88125003D01*
X137630667Y-88136000D01*
X137630676Y-88136000D01*
X137667999Y-88139676D01*
X137705322Y-88136000D01*
X139093910Y-88136000D01*
X139131232Y-88139676D01*
X139168554Y-88136000D01*
X139168565Y-88136000D01*
X139229807Y-88129968D01*
X139161416Y-88257918D01*
X139116571Y-88405755D01*
X139101428Y-88559500D01*
X139101428Y-88859500D01*
X139116571Y-89013245D01*
X139161416Y-89161082D01*
X139234242Y-89297329D01*
X139272954Y-89344500D01*
X139234242Y-89391671D01*
X139161416Y-89527918D01*
X139116571Y-89675755D01*
X139101428Y-89829500D01*
X139101428Y-90129500D01*
X139116571Y-90283245D01*
X139161416Y-90431082D01*
X139234242Y-90567329D01*
X139272954Y-90614500D01*
X139234242Y-90661671D01*
X139161416Y-90797918D01*
X139116571Y-90945755D01*
X139101428Y-91099500D01*
X139101428Y-91399500D01*
X139116571Y-91553245D01*
X139161416Y-91701082D01*
X139234242Y-91837329D01*
X139272954Y-91884500D01*
X139234242Y-91931671D01*
X139161416Y-92067918D01*
X139116571Y-92215755D01*
X139116257Y-92218941D01*
X137317224Y-94017974D01*
X137215750Y-93916500D01*
X135891500Y-93916500D01*
X135891500Y-93936500D01*
X135637500Y-93936500D01*
X135637500Y-93916500D01*
X134313250Y-93916500D01*
X134154500Y-94075250D01*
X134151428Y-94089500D01*
X134163688Y-94213982D01*
X134199998Y-94333680D01*
X134258963Y-94443994D01*
X134338315Y-94540685D01*
X134435006Y-94620037D01*
X134528499Y-94670011D01*
X133432500Y-94670011D01*
X133432500Y-94576561D01*
X133392726Y-94376602D01*
X133314705Y-94188244D01*
X133245500Y-94084671D01*
X133245500Y-93584820D01*
X133289994Y-93561037D01*
X133386685Y-93481685D01*
X133466037Y-93384994D01*
X133525002Y-93274680D01*
X133561312Y-93154982D01*
X133573572Y-93030500D01*
X133573572Y-92630500D01*
X133561312Y-92506018D01*
X133538404Y-92430500D01*
X133561312Y-92354982D01*
X133573572Y-92230500D01*
X133573572Y-91830500D01*
X133561312Y-91706018D01*
X133560124Y-91702103D01*
X133685244Y-91785705D01*
X133873602Y-91863726D01*
X134073561Y-91903500D01*
X134167819Y-91903500D01*
X134264253Y-91955046D01*
X134270702Y-91957002D01*
X134211416Y-92067918D01*
X134166571Y-92215755D01*
X134151428Y-92369500D01*
X134151428Y-92669500D01*
X134166571Y-92823245D01*
X134211416Y-92971082D01*
X134283230Y-93105436D01*
X134258963Y-93135006D01*
X134199998Y-93245320D01*
X134163688Y-93365018D01*
X134151428Y-93489500D01*
X134154500Y-93503750D01*
X134313250Y-93662500D01*
X135637500Y-93662500D01*
X135637500Y-93642500D01*
X135891500Y-93642500D01*
X135891500Y-93662500D01*
X137215750Y-93662500D01*
X137374500Y-93503750D01*
X137377572Y-93489500D01*
X137365312Y-93365018D01*
X137329002Y-93245320D01*
X137270037Y-93135006D01*
X137245770Y-93105436D01*
X137317584Y-92971082D01*
X137362429Y-92823245D01*
X137377572Y-92669500D01*
X137377572Y-92369500D01*
X137362429Y-92215755D01*
X137317584Y-92067918D01*
X137244758Y-91931671D01*
X137206046Y-91884500D01*
X137244758Y-91837329D01*
X137317584Y-91701082D01*
X137362429Y-91553245D01*
X137377572Y-91399500D01*
X137377572Y-91099500D01*
X137362429Y-90945755D01*
X137317584Y-90797918D01*
X137244758Y-90661671D01*
X137206046Y-90614500D01*
X137244758Y-90567329D01*
X137317584Y-90431082D01*
X137362429Y-90283245D01*
X137377572Y-90129500D01*
X137377572Y-89829500D01*
X137362429Y-89675755D01*
X137317584Y-89527918D01*
X137244758Y-89391671D01*
X137206046Y-89344500D01*
X137244758Y-89297329D01*
X137317584Y-89161082D01*
X137362429Y-89013245D01*
X137377572Y-88859500D01*
X137377572Y-88559500D01*
X137362429Y-88405755D01*
X137317584Y-88257918D01*
X137244758Y-88121671D01*
X137206046Y-88074500D01*
X137244758Y-88027329D01*
X137251327Y-88015039D01*
X137362522Y-88074474D01*
G37*
%TD.AperFunction*%
D18*
X123913753Y-87827546D02*
X124057014Y-87871003D01*
X124168667Y-87882000D01*
X124168677Y-87882000D01*
X124206000Y-87885676D01*
X124243323Y-87882000D01*
X125438678Y-87882000D01*
X125476000Y-87885676D01*
X125513322Y-87882000D01*
X125513333Y-87882000D01*
X125624986Y-87871003D01*
X125687567Y-87852020D01*
X125699416Y-87891082D01*
X125772242Y-88027329D01*
X125810954Y-88074500D01*
X125772242Y-88121671D01*
X125699416Y-88257918D01*
X125654571Y-88405755D01*
X125639428Y-88559500D01*
X125639428Y-88859500D01*
X125654571Y-89013245D01*
X125699416Y-89161082D01*
X125772242Y-89297329D01*
X125810954Y-89344500D01*
X125772242Y-89391671D01*
X125699416Y-89527918D01*
X125654571Y-89675755D01*
X125639428Y-89829500D01*
X125639428Y-90129500D01*
X125654571Y-90283245D01*
X125699416Y-90431082D01*
X125772242Y-90567329D01*
X125810954Y-90614500D01*
X125772242Y-90661671D01*
X125699416Y-90797918D01*
X125654571Y-90945755D01*
X125639428Y-91099500D01*
X125639428Y-91399500D01*
X125654571Y-91553245D01*
X125699416Y-91701082D01*
X125772242Y-91837329D01*
X125810954Y-91884500D01*
X125772242Y-91931671D01*
X125699416Y-92067918D01*
X125654571Y-92215755D01*
X125639428Y-92369500D01*
X125639428Y-92487770D01*
X123898999Y-94228200D01*
X123903312Y-94213982D01*
X123915572Y-94089500D01*
X123912500Y-94075250D01*
X123753750Y-93916500D01*
X122429500Y-93916500D01*
X122429500Y-93936500D01*
X122175500Y-93936500D01*
X122175500Y-93916500D01*
X120851250Y-93916500D01*
X120692500Y-94075250D01*
X120689428Y-94089500D01*
X120701688Y-94213982D01*
X120737998Y-94333680D01*
X120796963Y-94443994D01*
X120876315Y-94540685D01*
X120969305Y-94617000D01*
X119372883Y-94617000D01*
X118156517Y-93400634D01*
X118221410Y-93387726D01*
X118409768Y-93309705D01*
X118579286Y-93196437D01*
X118723449Y-93052274D01*
X118836717Y-92882756D01*
X118914738Y-92694398D01*
X118954512Y-92494439D01*
X118954512Y-92290561D01*
X118914738Y-92090602D01*
X118836717Y-91902244D01*
X118723449Y-91732726D01*
X118591500Y-91600777D01*
X118591500Y-91235320D01*
X118635994Y-91211537D01*
X118681500Y-91174191D01*
X118727006Y-91211537D01*
X118837320Y-91270502D01*
X118957018Y-91306812D01*
X119081500Y-91319072D01*
X119294771Y-91319072D01*
X119647301Y-91671602D01*
X119671099Y-91700601D01*
X119786824Y-91795574D01*
X119918853Y-91866146D01*
X120025910Y-91898621D01*
X120091826Y-91964537D01*
X120261344Y-92077805D01*
X120449702Y-92155826D01*
X120649661Y-92195600D01*
X120710685Y-92195600D01*
X120704571Y-92215755D01*
X120689428Y-92369500D01*
X120689428Y-92669500D01*
X120704571Y-92823245D01*
X120749416Y-92971082D01*
X120821230Y-93105436D01*
X120796963Y-93135006D01*
X120737998Y-93245320D01*
X120701688Y-93365018D01*
X120689428Y-93489500D01*
X120692500Y-93503750D01*
X120851250Y-93662500D01*
X122175500Y-93662500D01*
X122175500Y-93642500D01*
X122429500Y-93642500D01*
X122429500Y-93662500D01*
X123753750Y-93662500D01*
X123912500Y-93503750D01*
X123915572Y-93489500D01*
X123903312Y-93365018D01*
X123867002Y-93245320D01*
X123808037Y-93135006D01*
X123783770Y-93105436D01*
X123855584Y-92971082D01*
X123900429Y-92823245D01*
X123915572Y-92669500D01*
X123915572Y-92369500D01*
X123900429Y-92215755D01*
X123855584Y-92067918D01*
X123782758Y-91931671D01*
X123744046Y-91884500D01*
X123782758Y-91837329D01*
X123855584Y-91701082D01*
X123900429Y-91553245D01*
X123915572Y-91399500D01*
X123915572Y-91099500D01*
X123900429Y-90945755D01*
X123855584Y-90797918D01*
X123782758Y-90661671D01*
X123744046Y-90614500D01*
X123782758Y-90567329D01*
X123855584Y-90431082D01*
X123900429Y-90283245D01*
X123915572Y-90129500D01*
X123915572Y-89829500D01*
X123900429Y-89675755D01*
X123855584Y-89527918D01*
X123782758Y-89391671D01*
X123744046Y-89344500D01*
X123782758Y-89297329D01*
X123855584Y-89161082D01*
X123900429Y-89013245D01*
X123915572Y-88859500D01*
X123915572Y-88559500D01*
X123900429Y-88405755D01*
X123855584Y-88257918D01*
X123782758Y-88121671D01*
X123744046Y-88074500D01*
X123782758Y-88027329D01*
X123855584Y-87891082D01*
X123880284Y-87809656D01*
X123913753Y-87827546D01*
%TA.AperFunction,Conductor*%
D19*
G36*
X123913753Y-87827546D02*
G01*
X124057014Y-87871003D01*
X124168667Y-87882000D01*
X124168677Y-87882000D01*
X124206000Y-87885676D01*
X124243323Y-87882000D01*
X125438678Y-87882000D01*
X125476000Y-87885676D01*
X125513322Y-87882000D01*
X125513333Y-87882000D01*
X125624986Y-87871003D01*
X125687567Y-87852020D01*
X125699416Y-87891082D01*
X125772242Y-88027329D01*
X125810954Y-88074500D01*
X125772242Y-88121671D01*
X125699416Y-88257918D01*
X125654571Y-88405755D01*
X125639428Y-88559500D01*
X125639428Y-88859500D01*
X125654571Y-89013245D01*
X125699416Y-89161082D01*
X125772242Y-89297329D01*
X125810954Y-89344500D01*
X125772242Y-89391671D01*
X125699416Y-89527918D01*
X125654571Y-89675755D01*
X125639428Y-89829500D01*
X125639428Y-90129500D01*
X125654571Y-90283245D01*
X125699416Y-90431082D01*
X125772242Y-90567329D01*
X125810954Y-90614500D01*
X125772242Y-90661671D01*
X125699416Y-90797918D01*
X125654571Y-90945755D01*
X125639428Y-91099500D01*
X125639428Y-91399500D01*
X125654571Y-91553245D01*
X125699416Y-91701082D01*
X125772242Y-91837329D01*
X125810954Y-91884500D01*
X125772242Y-91931671D01*
X125699416Y-92067918D01*
X125654571Y-92215755D01*
X125639428Y-92369500D01*
X125639428Y-92487770D01*
X123898999Y-94228200D01*
X123903312Y-94213982D01*
X123915572Y-94089500D01*
X123912500Y-94075250D01*
X123753750Y-93916500D01*
X122429500Y-93916500D01*
X122429500Y-93936500D01*
X122175500Y-93936500D01*
X122175500Y-93916500D01*
X120851250Y-93916500D01*
X120692500Y-94075250D01*
X120689428Y-94089500D01*
X120701688Y-94213982D01*
X120737998Y-94333680D01*
X120796963Y-94443994D01*
X120876315Y-94540685D01*
X120969305Y-94617000D01*
X119372883Y-94617000D01*
X118156517Y-93400634D01*
X118221410Y-93387726D01*
X118409768Y-93309705D01*
X118579286Y-93196437D01*
X118723449Y-93052274D01*
X118836717Y-92882756D01*
X118914738Y-92694398D01*
X118954512Y-92494439D01*
X118954512Y-92290561D01*
X118914738Y-92090602D01*
X118836717Y-91902244D01*
X118723449Y-91732726D01*
X118591500Y-91600777D01*
X118591500Y-91235320D01*
X118635994Y-91211537D01*
X118681500Y-91174191D01*
X118727006Y-91211537D01*
X118837320Y-91270502D01*
X118957018Y-91306812D01*
X119081500Y-91319072D01*
X119294771Y-91319072D01*
X119647301Y-91671602D01*
X119671099Y-91700601D01*
X119786824Y-91795574D01*
X119918853Y-91866146D01*
X120025910Y-91898621D01*
X120091826Y-91964537D01*
X120261344Y-92077805D01*
X120449702Y-92155826D01*
X120649661Y-92195600D01*
X120710685Y-92195600D01*
X120704571Y-92215755D01*
X120689428Y-92369500D01*
X120689428Y-92669500D01*
X120704571Y-92823245D01*
X120749416Y-92971082D01*
X120821230Y-93105436D01*
X120796963Y-93135006D01*
X120737998Y-93245320D01*
X120701688Y-93365018D01*
X120689428Y-93489500D01*
X120692500Y-93503750D01*
X120851250Y-93662500D01*
X122175500Y-93662500D01*
X122175500Y-93642500D01*
X122429500Y-93642500D01*
X122429500Y-93662500D01*
X123753750Y-93662500D01*
X123912500Y-93503750D01*
X123915572Y-93489500D01*
X123903312Y-93365018D01*
X123867002Y-93245320D01*
X123808037Y-93135006D01*
X123783770Y-93105436D01*
X123855584Y-92971082D01*
X123900429Y-92823245D01*
X123915572Y-92669500D01*
X123915572Y-92369500D01*
X123900429Y-92215755D01*
X123855584Y-92067918D01*
X123782758Y-91931671D01*
X123744046Y-91884500D01*
X123782758Y-91837329D01*
X123855584Y-91701082D01*
X123900429Y-91553245D01*
X123915572Y-91399500D01*
X123915572Y-91099500D01*
X123900429Y-90945755D01*
X123855584Y-90797918D01*
X123782758Y-90661671D01*
X123744046Y-90614500D01*
X123782758Y-90567329D01*
X123855584Y-90431082D01*
X123900429Y-90283245D01*
X123915572Y-90129500D01*
X123915572Y-89829500D01*
X123900429Y-89675755D01*
X123855584Y-89527918D01*
X123782758Y-89391671D01*
X123744046Y-89344500D01*
X123782758Y-89297329D01*
X123855584Y-89161082D01*
X123900429Y-89013245D01*
X123915572Y-88859500D01*
X123915572Y-88559500D01*
X123900429Y-88405755D01*
X123855584Y-88257918D01*
X123782758Y-88121671D01*
X123744046Y-88074500D01*
X123782758Y-88027329D01*
X123855584Y-87891082D01*
X123880284Y-87809656D01*
X123913753Y-87827546D01*
G37*
%TD.AperFunction*%
D18*
X152823242Y-88027329D02*
X152861954Y-88074500D01*
X152823242Y-88121671D01*
X152750416Y-88257918D01*
X152705571Y-88405755D01*
X152690428Y-88559500D01*
X152690428Y-88859500D01*
X152705571Y-89013245D01*
X152750416Y-89161082D01*
X152823242Y-89297329D01*
X152861954Y-89344500D01*
X152823242Y-89391671D01*
X152750416Y-89527918D01*
X152705571Y-89675755D01*
X152690428Y-89829500D01*
X152690428Y-90129500D01*
X152705571Y-90283245D01*
X152750416Y-90431082D01*
X152823242Y-90567329D01*
X152861954Y-90614500D01*
X152823242Y-90661671D01*
X152750416Y-90797918D01*
X152705571Y-90945755D01*
X152690428Y-91099500D01*
X152690428Y-91399500D01*
X152705571Y-91553245D01*
X152750416Y-91701082D01*
X152823242Y-91837329D01*
X152861954Y-91884500D01*
X152823242Y-91931671D01*
X152750416Y-92067918D01*
X152705571Y-92215755D01*
X152690428Y-92369500D01*
X152690428Y-92614770D01*
X150849116Y-94456083D01*
X150859037Y-94443994D01*
X150918002Y-94333680D01*
X150954312Y-94213982D01*
X150966572Y-94089500D01*
X150963500Y-94075250D01*
X150804750Y-93916500D01*
X149480500Y-93916500D01*
X149480500Y-93936500D01*
X149226500Y-93936500D01*
X149226500Y-93916500D01*
X147902250Y-93916500D01*
X147743500Y-94075250D01*
X147740428Y-94089500D01*
X147752688Y-94213982D01*
X147788998Y-94333680D01*
X147847963Y-94443994D01*
X147927315Y-94540685D01*
X147975222Y-94580001D01*
X146894500Y-94580001D01*
X146894500Y-94513061D01*
X146854726Y-94313102D01*
X146776705Y-94124744D01*
X146707500Y-94021171D01*
X146707500Y-93584820D01*
X146751994Y-93561037D01*
X146848685Y-93481685D01*
X146928037Y-93384994D01*
X146987002Y-93274680D01*
X147023312Y-93154982D01*
X147035572Y-93030500D01*
X147035572Y-92630500D01*
X147023312Y-92506018D01*
X147000404Y-92430500D01*
X147023312Y-92354982D01*
X147035572Y-92230500D01*
X147035572Y-92219048D01*
X147147244Y-92293665D01*
X147335602Y-92371686D01*
X147535561Y-92411460D01*
X147739439Y-92411460D01*
X147740428Y-92411263D01*
X147740428Y-92669500D01*
X147755571Y-92823245D01*
X147800416Y-92971082D01*
X147872230Y-93105436D01*
X147847963Y-93135006D01*
X147788998Y-93245320D01*
X147752688Y-93365018D01*
X147740428Y-93489500D01*
X147743500Y-93503750D01*
X147902250Y-93662500D01*
X149226500Y-93662500D01*
X149226500Y-93642500D01*
X149480500Y-93642500D01*
X149480500Y-93662500D01*
X150804750Y-93662500D01*
X150963500Y-93503750D01*
X150966572Y-93489500D01*
X150954312Y-93365018D01*
X150918002Y-93245320D01*
X150859037Y-93135006D01*
X150834770Y-93105436D01*
X150906584Y-92971082D01*
X150951429Y-92823245D01*
X150966572Y-92669500D01*
X150966572Y-92369500D01*
X150951429Y-92215755D01*
X150906584Y-92067918D01*
X150833758Y-91931671D01*
X150795046Y-91884500D01*
X150833758Y-91837329D01*
X150906584Y-91701082D01*
X150951429Y-91553245D01*
X150966572Y-91399500D01*
X150966572Y-91099500D01*
X150951429Y-90945755D01*
X150906584Y-90797918D01*
X150833758Y-90661671D01*
X150795046Y-90614500D01*
X150833758Y-90567329D01*
X150906584Y-90431082D01*
X150951429Y-90283245D01*
X150966572Y-90129500D01*
X150966572Y-89829500D01*
X150951429Y-89675755D01*
X150906584Y-89527918D01*
X150833758Y-89391671D01*
X150795046Y-89344500D01*
X150833758Y-89297329D01*
X150906584Y-89161082D01*
X150951429Y-89013245D01*
X150966572Y-88859500D01*
X150966572Y-88559500D01*
X150951429Y-88405755D01*
X150906584Y-88257918D01*
X150833758Y-88121671D01*
X150795046Y-88074500D01*
X150804048Y-88063530D01*
X150824522Y-88074474D01*
X150837753Y-88081546D01*
X150981014Y-88125003D01*
X151092667Y-88136000D01*
X151092676Y-88136000D01*
X151129999Y-88139676D01*
X151167322Y-88136000D01*
X152362678Y-88136000D01*
X152400000Y-88139676D01*
X152437322Y-88136000D01*
X152437333Y-88136000D01*
X152548986Y-88125003D01*
X152692247Y-88081546D01*
X152816672Y-88015038D01*
X152823242Y-88027329D01*
%TA.AperFunction,Conductor*%
D19*
G36*
X152823242Y-88027329D02*
G01*
X152861954Y-88074500D01*
X152823242Y-88121671D01*
X152750416Y-88257918D01*
X152705571Y-88405755D01*
X152690428Y-88559500D01*
X152690428Y-88859500D01*
X152705571Y-89013245D01*
X152750416Y-89161082D01*
X152823242Y-89297329D01*
X152861954Y-89344500D01*
X152823242Y-89391671D01*
X152750416Y-89527918D01*
X152705571Y-89675755D01*
X152690428Y-89829500D01*
X152690428Y-90129500D01*
X152705571Y-90283245D01*
X152750416Y-90431082D01*
X152823242Y-90567329D01*
X152861954Y-90614500D01*
X152823242Y-90661671D01*
X152750416Y-90797918D01*
X152705571Y-90945755D01*
X152690428Y-91099500D01*
X152690428Y-91399500D01*
X152705571Y-91553245D01*
X152750416Y-91701082D01*
X152823242Y-91837329D01*
X152861954Y-91884500D01*
X152823242Y-91931671D01*
X152750416Y-92067918D01*
X152705571Y-92215755D01*
X152690428Y-92369500D01*
X152690428Y-92614770D01*
X150849116Y-94456083D01*
X150859037Y-94443994D01*
X150918002Y-94333680D01*
X150954312Y-94213982D01*
X150966572Y-94089500D01*
X150963500Y-94075250D01*
X150804750Y-93916500D01*
X149480500Y-93916500D01*
X149480500Y-93936500D01*
X149226500Y-93936500D01*
X149226500Y-93916500D01*
X147902250Y-93916500D01*
X147743500Y-94075250D01*
X147740428Y-94089500D01*
X147752688Y-94213982D01*
X147788998Y-94333680D01*
X147847963Y-94443994D01*
X147927315Y-94540685D01*
X147975222Y-94580001D01*
X146894500Y-94580001D01*
X146894500Y-94513061D01*
X146854726Y-94313102D01*
X146776705Y-94124744D01*
X146707500Y-94021171D01*
X146707500Y-93584820D01*
X146751994Y-93561037D01*
X146848685Y-93481685D01*
X146928037Y-93384994D01*
X146987002Y-93274680D01*
X147023312Y-93154982D01*
X147035572Y-93030500D01*
X147035572Y-92630500D01*
X147023312Y-92506018D01*
X147000404Y-92430500D01*
X147023312Y-92354982D01*
X147035572Y-92230500D01*
X147035572Y-92219048D01*
X147147244Y-92293665D01*
X147335602Y-92371686D01*
X147535561Y-92411460D01*
X147739439Y-92411460D01*
X147740428Y-92411263D01*
X147740428Y-92669500D01*
X147755571Y-92823245D01*
X147800416Y-92971082D01*
X147872230Y-93105436D01*
X147847963Y-93135006D01*
X147788998Y-93245320D01*
X147752688Y-93365018D01*
X147740428Y-93489500D01*
X147743500Y-93503750D01*
X147902250Y-93662500D01*
X149226500Y-93662500D01*
X149226500Y-93642500D01*
X149480500Y-93642500D01*
X149480500Y-93662500D01*
X150804750Y-93662500D01*
X150963500Y-93503750D01*
X150966572Y-93489500D01*
X150954312Y-93365018D01*
X150918002Y-93245320D01*
X150859037Y-93135006D01*
X150834770Y-93105436D01*
X150906584Y-92971082D01*
X150951429Y-92823245D01*
X150966572Y-92669500D01*
X150966572Y-92369500D01*
X150951429Y-92215755D01*
X150906584Y-92067918D01*
X150833758Y-91931671D01*
X150795046Y-91884500D01*
X150833758Y-91837329D01*
X150906584Y-91701082D01*
X150951429Y-91553245D01*
X150966572Y-91399500D01*
X150966572Y-91099500D01*
X150951429Y-90945755D01*
X150906584Y-90797918D01*
X150833758Y-90661671D01*
X150795046Y-90614500D01*
X150833758Y-90567329D01*
X150906584Y-90431082D01*
X150951429Y-90283245D01*
X150966572Y-90129500D01*
X150966572Y-89829500D01*
X150951429Y-89675755D01*
X150906584Y-89527918D01*
X150833758Y-89391671D01*
X150795046Y-89344500D01*
X150833758Y-89297329D01*
X150906584Y-89161082D01*
X150951429Y-89013245D01*
X150966572Y-88859500D01*
X150966572Y-88559500D01*
X150951429Y-88405755D01*
X150906584Y-88257918D01*
X150833758Y-88121671D01*
X150795046Y-88074500D01*
X150804048Y-88063530D01*
X150824522Y-88074474D01*
X150837753Y-88081546D01*
X150981014Y-88125003D01*
X151092667Y-88136000D01*
X151092676Y-88136000D01*
X151129999Y-88139676D01*
X151167322Y-88136000D01*
X152362678Y-88136000D01*
X152400000Y-88139676D01*
X152437322Y-88136000D01*
X152437333Y-88136000D01*
X152548986Y-88125003D01*
X152692247Y-88081546D01*
X152816672Y-88015038D01*
X152823242Y-88027329D01*
G37*
%TD.AperFunction*%
D18*
X158097006Y-91211537D02*
X158141501Y-91235320D01*
X158141501Y-92489794D01*
X158073066Y-92558229D01*
X157959798Y-92727747D01*
X157881777Y-92916105D01*
X157842003Y-93116064D01*
X157842003Y-93319942D01*
X157881777Y-93519901D01*
X157959798Y-93708259D01*
X158073066Y-93877777D01*
X158217229Y-94021940D01*
X158386747Y-94135208D01*
X158575105Y-94213229D01*
X158775064Y-94253003D01*
X158926196Y-94253003D01*
X158689199Y-94490000D01*
X156002602Y-94490000D01*
X155820741Y-94308139D01*
X155856584Y-94241082D01*
X155901429Y-94093245D01*
X155916572Y-93939500D01*
X155916572Y-93639500D01*
X155901429Y-93485755D01*
X155856584Y-93337918D01*
X155783758Y-93201671D01*
X155745046Y-93154500D01*
X155783758Y-93107329D01*
X155856584Y-92971082D01*
X155901429Y-92823245D01*
X155916572Y-92669500D01*
X155916572Y-92369500D01*
X155901634Y-92217832D01*
X155917561Y-92221000D01*
X156121439Y-92221000D01*
X156321398Y-92181226D01*
X156509756Y-92103205D01*
X156679274Y-91989937D01*
X156772840Y-91896371D01*
X156788747Y-91891546D01*
X156920776Y-91820974D01*
X157036501Y-91726001D01*
X157060303Y-91696998D01*
X157438230Y-91319072D01*
X157651500Y-91319072D01*
X157775982Y-91306812D01*
X157895680Y-91270502D01*
X158005994Y-91211537D01*
X158051500Y-91174191D01*
X158097006Y-91211537D01*
%TA.AperFunction,Conductor*%
D19*
G36*
X158097006Y-91211537D02*
G01*
X158141501Y-91235320D01*
X158141501Y-92489794D01*
X158073066Y-92558229D01*
X157959798Y-92727747D01*
X157881777Y-92916105D01*
X157842003Y-93116064D01*
X157842003Y-93319942D01*
X157881777Y-93519901D01*
X157959798Y-93708259D01*
X158073066Y-93877777D01*
X158217229Y-94021940D01*
X158386747Y-94135208D01*
X158575105Y-94213229D01*
X158775064Y-94253003D01*
X158926196Y-94253003D01*
X158689199Y-94490000D01*
X156002602Y-94490000D01*
X155820741Y-94308139D01*
X155856584Y-94241082D01*
X155901429Y-94093245D01*
X155916572Y-93939500D01*
X155916572Y-93639500D01*
X155901429Y-93485755D01*
X155856584Y-93337918D01*
X155783758Y-93201671D01*
X155745046Y-93154500D01*
X155783758Y-93107329D01*
X155856584Y-92971082D01*
X155901429Y-92823245D01*
X155916572Y-92669500D01*
X155916572Y-92369500D01*
X155901634Y-92217832D01*
X155917561Y-92221000D01*
X156121439Y-92221000D01*
X156321398Y-92181226D01*
X156509756Y-92103205D01*
X156679274Y-91989937D01*
X156772840Y-91896371D01*
X156788747Y-91891546D01*
X156920776Y-91820974D01*
X157036501Y-91726001D01*
X157060303Y-91696998D01*
X157438230Y-91319072D01*
X157651500Y-91319072D01*
X157775982Y-91306812D01*
X157895680Y-91270502D01*
X158005994Y-91211537D01*
X158051500Y-91174191D01*
X158097006Y-91211537D01*
G37*
%TD.AperFunction*%
D18*
X152367999Y-86327999D02*
X152344201Y-86356997D01*
X152085199Y-86616000D01*
X151444802Y-86616000D01*
X151132293Y-86303492D01*
X151124914Y-86294500D01*
X152408818Y-86294500D01*
X152367999Y-86327999D01*
%TA.AperFunction,Conductor*%
D19*
G36*
X152367999Y-86327999D02*
G01*
X152344201Y-86356997D01*
X152085199Y-86616000D01*
X151444802Y-86616000D01*
X151132293Y-86303492D01*
X151124914Y-86294500D01*
X152408818Y-86294500D01*
X152367999Y-86327999D01*
G37*
%TD.AperFunction*%
D18*
X138816431Y-86616000D02*
X137982802Y-86616000D01*
X137671291Y-86304490D01*
X139127940Y-86304490D01*
X138816431Y-86616000D01*
%TA.AperFunction,Conductor*%
D19*
G36*
X138816431Y-86616000D02*
G01*
X137982802Y-86616000D01*
X137671291Y-86304490D01*
X139127940Y-86304490D01*
X138816431Y-86616000D01*
G37*
%TD.AperFunction*%
D18*
X125219706Y-86303493D02*
X125161199Y-86362000D01*
X124520801Y-86362000D01*
X124462294Y-86303493D01*
X124446715Y-86284510D01*
X125235285Y-86284510D01*
X125219706Y-86303493D01*
%TA.AperFunction,Conductor*%
D19*
G36*
X125219706Y-86303493D02*
G01*
X125161199Y-86362000D01*
X124520801Y-86362000D01*
X124462294Y-86303493D01*
X124446715Y-86284510D01*
X125235285Y-86284510D01*
X125219706Y-86303493D01*
G37*
%TD.AperFunction*%
D18*
X148226918Y-84021416D02*
X148090671Y-84094242D01*
X147971249Y-84192249D01*
X147873242Y-84311671D01*
X147800416Y-84447918D01*
X147755571Y-84595755D01*
X147740428Y-84749500D01*
X147740428Y-84784490D01*
X145436272Y-84784490D01*
X145433500Y-84613750D01*
X145274750Y-84455000D01*
X144475500Y-84455000D01*
X144475500Y-84475000D01*
X144221500Y-84475000D01*
X144221500Y-84455000D01*
X144201500Y-84455000D01*
X144201500Y-84201000D01*
X144221500Y-84201000D01*
X144221500Y-84181000D01*
X144475500Y-84181000D01*
X144475500Y-84201000D01*
X145274750Y-84201000D01*
X145433500Y-84042250D01*
X145434080Y-84006500D01*
X148276090Y-84006500D01*
X148226918Y-84021416D01*
%TA.AperFunction,Conductor*%
D19*
G36*
X148226918Y-84021416D02*
G01*
X148090671Y-84094242D01*
X147971249Y-84192249D01*
X147873242Y-84311671D01*
X147800416Y-84447918D01*
X147755571Y-84595755D01*
X147740428Y-84749500D01*
X147740428Y-84784490D01*
X145436272Y-84784490D01*
X145433500Y-84613750D01*
X145274750Y-84455000D01*
X144475500Y-84455000D01*
X144475500Y-84475000D01*
X144221500Y-84475000D01*
X144221500Y-84455000D01*
X144201500Y-84455000D01*
X144201500Y-84201000D01*
X144221500Y-84201000D01*
X144221500Y-84181000D01*
X144475500Y-84181000D01*
X144475500Y-84201000D01*
X145274750Y-84201000D01*
X145433500Y-84042250D01*
X145434080Y-84006500D01*
X148276090Y-84006500D01*
X148226918Y-84021416D01*
G37*
%TD.AperFunction*%
D18*
X134637918Y-84021416D02*
X134501671Y-84094242D01*
X134382249Y-84192249D01*
X134284242Y-84311671D01*
X134211416Y-84447918D01*
X134166571Y-84595755D01*
X134151428Y-84749500D01*
X134151428Y-84764510D01*
X131973947Y-84764510D01*
X131971500Y-84613750D01*
X131812750Y-84455000D01*
X131013500Y-84455000D01*
X131013500Y-84475000D01*
X130759500Y-84475000D01*
X130759500Y-84455000D01*
X130739500Y-84455000D01*
X130739500Y-84201000D01*
X130759500Y-84201000D01*
X130759500Y-84181000D01*
X131013500Y-84181000D01*
X131013500Y-84201000D01*
X131812750Y-84201000D01*
X131971500Y-84042250D01*
X131972080Y-84006500D01*
X134687090Y-84006500D01*
X134637918Y-84021416D01*
%TA.AperFunction,Conductor*%
D19*
G36*
X134637918Y-84021416D02*
G01*
X134501671Y-84094242D01*
X134382249Y-84192249D01*
X134284242Y-84311671D01*
X134211416Y-84447918D01*
X134166571Y-84595755D01*
X134151428Y-84749500D01*
X134151428Y-84764510D01*
X131973947Y-84764510D01*
X131971500Y-84613750D01*
X131812750Y-84455000D01*
X131013500Y-84455000D01*
X131013500Y-84475000D01*
X130759500Y-84475000D01*
X130759500Y-84455000D01*
X130739500Y-84455000D01*
X130739500Y-84201000D01*
X130759500Y-84201000D01*
X130759500Y-84181000D01*
X131013500Y-84181000D01*
X131013500Y-84201000D01*
X131812750Y-84201000D01*
X131971500Y-84042250D01*
X131972080Y-84006500D01*
X134687090Y-84006500D01*
X134637918Y-84021416D01*
G37*
%TD.AperFunction*%
D18*
X161535092Y-77449228D02*
X161735051Y-77489002D01*
X161802001Y-77489002D01*
X161802000Y-80299928D01*
X161456000Y-80299928D01*
X161331518Y-80312188D01*
X161211820Y-80348498D01*
X161101506Y-80407463D01*
X161004815Y-80486815D01*
X160925463Y-80583506D01*
X160866498Y-80693820D01*
X160830188Y-80813518D01*
X160817928Y-80938000D01*
X160817928Y-82024494D01*
X160605922Y-82236500D01*
X157852301Y-82236500D01*
X160531003Y-79557799D01*
X160560001Y-79534001D01*
X160615749Y-79466072D01*
X160743000Y-79466072D01*
X160867482Y-79453812D01*
X160987180Y-79417502D01*
X161097494Y-79358537D01*
X161194185Y-79279185D01*
X161273537Y-79182494D01*
X161332502Y-79072180D01*
X161368812Y-78952482D01*
X161381072Y-78828000D01*
X161381072Y-77385430D01*
X161535092Y-77449228D01*
%TA.AperFunction,Conductor*%
D19*
G36*
X161535092Y-77449228D02*
G01*
X161735051Y-77489002D01*
X161802001Y-77489002D01*
X161802000Y-80299928D01*
X161456000Y-80299928D01*
X161331518Y-80312188D01*
X161211820Y-80348498D01*
X161101506Y-80407463D01*
X161004815Y-80486815D01*
X160925463Y-80583506D01*
X160866498Y-80693820D01*
X160830188Y-80813518D01*
X160817928Y-80938000D01*
X160817928Y-82024494D01*
X160605922Y-82236500D01*
X157852301Y-82236500D01*
X160531003Y-79557799D01*
X160560001Y-79534001D01*
X160615749Y-79466072D01*
X160743000Y-79466072D01*
X160867482Y-79453812D01*
X160987180Y-79417502D01*
X161097494Y-79358537D01*
X161194185Y-79279185D01*
X161273537Y-79182494D01*
X161332502Y-79072180D01*
X161368812Y-78952482D01*
X161381072Y-78828000D01*
X161381072Y-77385430D01*
X161535092Y-77449228D01*
G37*
%TD.AperFunction*%
D18*
X148579525Y-78924632D02*
X148786368Y-79131475D01*
X148973000Y-79256179D01*
X148973000Y-80076198D01*
X148280093Y-80769105D01*
X148161102Y-80792774D01*
X147972744Y-80870795D01*
X147803226Y-80984063D01*
X147659063Y-81128226D01*
X147545795Y-81297744D01*
X147467774Y-81486102D01*
X147428000Y-81686061D01*
X147428000Y-81786489D01*
X137958889Y-81786489D01*
X137964726Y-81772398D01*
X138004500Y-81572439D01*
X138004500Y-81368561D01*
X137964726Y-81168602D01*
X137886705Y-80980244D01*
X137793000Y-80840004D01*
X137793000Y-79256178D01*
X137979632Y-79131475D01*
X138186475Y-78924632D01*
X138303000Y-78750240D01*
X138419525Y-78924632D01*
X138626368Y-79131475D01*
X138869589Y-79293990D01*
X139139842Y-79405932D01*
X139426740Y-79463000D01*
X139719260Y-79463000D01*
X140006158Y-79405932D01*
X140276411Y-79293990D01*
X140519632Y-79131475D01*
X140726475Y-78924632D01*
X140843000Y-78750240D01*
X140959525Y-78924632D01*
X141166368Y-79131475D01*
X141409589Y-79293990D01*
X141679842Y-79405932D01*
X141966740Y-79463000D01*
X142259260Y-79463000D01*
X142546158Y-79405932D01*
X142816411Y-79293990D01*
X143059632Y-79131475D01*
X143266475Y-78924632D01*
X143383000Y-78750240D01*
X143499525Y-78924632D01*
X143706368Y-79131475D01*
X143949589Y-79293990D01*
X144219842Y-79405932D01*
X144506740Y-79463000D01*
X144799260Y-79463000D01*
X145086158Y-79405932D01*
X145356411Y-79293990D01*
X145599632Y-79131475D01*
X145806475Y-78924632D01*
X145923000Y-78750240D01*
X146039525Y-78924632D01*
X146246368Y-79131475D01*
X146489589Y-79293990D01*
X146759842Y-79405932D01*
X147046740Y-79463000D01*
X147339260Y-79463000D01*
X147626158Y-79405932D01*
X147896411Y-79293990D01*
X148139632Y-79131475D01*
X148346475Y-78924632D01*
X148463000Y-78750240D01*
X148579525Y-78924632D01*
%TA.AperFunction,Conductor*%
D19*
G36*
X148579525Y-78924632D02*
G01*
X148786368Y-79131475D01*
X148973000Y-79256179D01*
X148973000Y-80076198D01*
X148280093Y-80769105D01*
X148161102Y-80792774D01*
X147972744Y-80870795D01*
X147803226Y-80984063D01*
X147659063Y-81128226D01*
X147545795Y-81297744D01*
X147467774Y-81486102D01*
X147428000Y-81686061D01*
X147428000Y-81786489D01*
X137958889Y-81786489D01*
X137964726Y-81772398D01*
X138004500Y-81572439D01*
X138004500Y-81368561D01*
X137964726Y-81168602D01*
X137886705Y-80980244D01*
X137793000Y-80840004D01*
X137793000Y-79256178D01*
X137979632Y-79131475D01*
X138186475Y-78924632D01*
X138303000Y-78750240D01*
X138419525Y-78924632D01*
X138626368Y-79131475D01*
X138869589Y-79293990D01*
X139139842Y-79405932D01*
X139426740Y-79463000D01*
X139719260Y-79463000D01*
X140006158Y-79405932D01*
X140276411Y-79293990D01*
X140519632Y-79131475D01*
X140726475Y-78924632D01*
X140843000Y-78750240D01*
X140959525Y-78924632D01*
X141166368Y-79131475D01*
X141409589Y-79293990D01*
X141679842Y-79405932D01*
X141966740Y-79463000D01*
X142259260Y-79463000D01*
X142546158Y-79405932D01*
X142816411Y-79293990D01*
X143059632Y-79131475D01*
X143266475Y-78924632D01*
X143383000Y-78750240D01*
X143499525Y-78924632D01*
X143706368Y-79131475D01*
X143949589Y-79293990D01*
X144219842Y-79405932D01*
X144506740Y-79463000D01*
X144799260Y-79463000D01*
X145086158Y-79405932D01*
X145356411Y-79293990D01*
X145599632Y-79131475D01*
X145806475Y-78924632D01*
X145923000Y-78750240D01*
X146039525Y-78924632D01*
X146246368Y-79131475D01*
X146489589Y-79293990D01*
X146759842Y-79405932D01*
X147046740Y-79463000D01*
X147339260Y-79463000D01*
X147626158Y-79405932D01*
X147896411Y-79293990D01*
X148139632Y-79131475D01*
X148346475Y-78924632D01*
X148463000Y-78750240D01*
X148579525Y-78924632D01*
G37*
%TD.AperFunction*%
D18*
X158453498Y-79072180D02*
X158512463Y-79182494D01*
X158591815Y-79279185D01*
X158629273Y-79309926D01*
X156152710Y-81786489D01*
X152652278Y-81786489D01*
X153631769Y-80806999D01*
X155246679Y-80806999D01*
X155284001Y-80810675D01*
X155321323Y-80806999D01*
X155321334Y-80806999D01*
X155432987Y-80796002D01*
X155576248Y-80752545D01*
X155708277Y-80681973D01*
X155824002Y-80587000D01*
X155847805Y-80557997D01*
X156986593Y-79419210D01*
X157206740Y-79463000D01*
X157499260Y-79463000D01*
X157786158Y-79405932D01*
X158056411Y-79293990D01*
X158299632Y-79131475D01*
X158431487Y-78999620D01*
X158453498Y-79072180D01*
%TA.AperFunction,Conductor*%
D19*
G36*
X158453498Y-79072180D02*
G01*
X158512463Y-79182494D01*
X158591815Y-79279185D01*
X158629273Y-79309926D01*
X156152710Y-81786489D01*
X152652278Y-81786489D01*
X153631769Y-80806999D01*
X155246679Y-80806999D01*
X155284001Y-80810675D01*
X155321323Y-80806999D01*
X155321334Y-80806999D01*
X155432987Y-80796002D01*
X155576248Y-80752545D01*
X155708277Y-80681973D01*
X155824002Y-80587000D01*
X155847805Y-80557997D01*
X156986593Y-79419210D01*
X157206740Y-79463000D01*
X157499260Y-79463000D01*
X157786158Y-79405932D01*
X158056411Y-79293990D01*
X158299632Y-79131475D01*
X158431487Y-78999620D01*
X158453498Y-79072180D01*
G37*
%TD.AperFunction*%
%TD*%
M02*
