M48
; DRILL file {KiCad (5.1.9)-1} date 11/30/21 20:56:47
; FORMAT={-:-/ absolute / inch / decimal}
; #@! TF.CreationDate,2021-11-30T20:56:47+09:00
; #@! TF.GenerationSoftware,Kicad,Pcbnew,(5.1.9)-1
; #@! TF.FileFunction,Plated,1,2,PTH
FMAT,2
INCH
T1C0.0157
T2C0.0394
%
G90
G05
T1
X4.6425Y-3.6375
X4.66Y-2.84
X4.69Y-2.93
X4.751Y-3.439
X4.7525Y-3.4875
X4.7525Y-3.5375
X4.754Y-3.589
X4.835Y-3.2138
X4.89Y-3.2138
X4.9Y-3.375
X4.9125Y-3.5775
X4.945Y-3.2138
X5.0Y-3.2138
X5.09Y-3.645
X5.09Y-3.51
X5.09Y-3.555
X5.0907Y-3.6
X5.12Y-3.205
X5.2057Y-3.2082
X5.24Y-3.32
X5.2466Y-3.2088
X5.27Y-3.55
X5.27Y-3.7115
X5.2702Y-3.4291
X5.2702Y-3.4694
X5.2702Y-3.5098
X5.29Y-3.21
X5.3925Y-3.2075
X5.44Y-3.375
X5.4425Y-3.5775
X5.62Y-3.515
X5.62Y-3.555
X5.62Y-3.6
X5.62Y-3.645
X5.675Y-3.195
X5.785Y-3.315
X5.8047Y-3.4293
X5.805Y-3.56
X5.805Y-3.515
X5.805Y-3.47
X5.805Y-3.71
X5.8432Y-3.2134
X5.8839Y-3.2129
X5.9236Y-3.2136
X5.9676Y-3.2138
X5.9725Y-3.5975
X6.1423Y-3.49
X6.1425Y-3.59
X6.1425Y-3.54
X6.1436Y-3.4486
X6.155Y-3.19
X6.18Y-3.66
X6.24Y-3.405
X6.255Y-3.67
X6.265Y-3.215
X6.315Y-3.17
T2
X4.51Y-3.225
X4.51Y-3.325
X4.51Y-3.425
X4.51Y-3.525
X4.51Y-3.625
X4.595Y-3.07
X4.695Y-3.07
X4.795Y-2.815
X4.795Y-2.915
X4.795Y-3.07
X4.895Y-2.815
X4.895Y-2.915
X4.895Y-3.07
X4.995Y-2.815
X4.995Y-2.915
X4.995Y-3.07
X5.095Y-2.815
X5.095Y-2.915
X5.095Y-3.07
X5.195Y-2.815
X5.195Y-2.915
X5.195Y-3.07
X5.295Y-2.815
X5.295Y-2.915
X5.295Y-3.07
X5.395Y-2.815
X5.395Y-2.915
X5.395Y-3.07
X5.495Y-2.815
X5.495Y-2.915
X5.495Y-3.07
X5.595Y-2.815
X5.595Y-2.915
X5.595Y-3.07
X5.695Y-2.815
X5.695Y-2.915
X5.695Y-3.07
X5.795Y-2.815
X5.795Y-2.915
X5.795Y-3.07
X5.895Y-2.815
X5.895Y-2.915
X5.895Y-3.07
X5.995Y-2.815
X5.995Y-2.915
X5.995Y-3.07
X6.095Y-2.815
X6.095Y-2.915
X6.095Y-3.07
X6.195Y-3.07
X6.295Y-3.07
X6.39Y-3.22
X6.39Y-3.32
X6.39Y-3.42
X6.39Y-3.52
X6.39Y-3.62
T0
M30
