M48
; DRILL file {KiCad (5.1.9)-1} date 11/29/21 20:51:57
; FORMAT={-:-/ absolute / inch / decimal}
; #@! TF.CreationDate,2021-11-29T20:51:57+09:00
; #@! TF.GenerationSoftware,Kicad,Pcbnew,(5.1.9)-1
; #@! TF.FileFunction,Plated,1,2,PTH
FMAT,2
INCH
T1C0.0157
T2C0.0394
%
G90
G05
T1
X4.545Y-2.8827
X4.61Y-3.745
X4.6425Y-2.8575
X4.6665Y-3.6315
X4.735Y-3.64
X4.8725Y-3.4475
X4.875Y-3.49
X4.875Y-3.54
X4.88Y-3.59
X4.9025Y-3.3475
X4.9325Y-3.2075
X4.9625Y-3.4475
X4.9636Y-3.5865
X4.965Y-3.49
X4.965Y-3.54
X4.9798Y-3.206
X5.0228Y-3.206
X5.0625Y-3.206
X5.195Y-3.7285
X5.2325Y-3.2075
X5.2525Y-3.3225
X5.255Y-3.58
X5.2825Y-3.2079
X5.3325Y-3.2095
X5.3925Y-3.2075
X5.4058Y-3.4375
X5.411Y-3.589
X5.4125Y-3.4881
X5.4125Y-3.5375
X5.4625Y-3.6275
X5.5514Y-3.539
X5.5514Y-3.589
X5.5514Y-3.4422
X5.5514Y-3.489
X5.6425Y-3.3975
X5.6975Y-3.21
X5.725Y-3.725
X5.77Y-3.3175
X5.79Y-3.595
X5.845Y-3.215
X5.8696Y-3.435
X5.8696Y-3.485
X5.8696Y-3.535
X5.8696Y-3.585
X5.8855Y-3.2213
X5.9254Y-3.2213
X5.9662Y-3.2213
X5.9725Y-3.5975
X6.0644Y-3.485
X6.0644Y-3.4385
X6.0644Y-3.535
X6.0644Y-3.585
X6.1425Y-3.1575
X6.1625Y-3.6375
X6.225Y-3.7
X6.2525Y-3.2175
X6.2825Y-3.4175
X6.3715Y-3.01
T2
X4.51Y-3.225
X4.51Y-3.325
X4.51Y-3.425
X4.51Y-3.525
X4.51Y-3.625
X4.595Y-3.07
X4.695Y-3.07
X4.795Y-2.815
X4.795Y-2.915
X4.795Y-3.07
X4.895Y-2.815
X4.895Y-2.915
X4.895Y-3.07
X4.995Y-2.815
X4.995Y-2.915
X4.995Y-3.07
X5.095Y-2.815
X5.095Y-2.915
X5.095Y-3.07
X5.195Y-2.815
X5.195Y-2.915
X5.195Y-3.07
X5.295Y-2.815
X5.295Y-2.915
X5.295Y-3.07
X5.395Y-2.815
X5.395Y-2.915
X5.395Y-3.07
X5.495Y-2.815
X5.495Y-2.915
X5.495Y-3.07
X5.595Y-2.815
X5.595Y-2.915
X5.595Y-3.07
X5.695Y-2.815
X5.695Y-2.915
X5.695Y-3.07
X5.795Y-2.815
X5.795Y-2.915
X5.795Y-3.07
X5.895Y-2.815
X5.895Y-2.915
X5.895Y-3.07
X5.995Y-2.815
X5.995Y-2.915
X5.995Y-3.07
X6.095Y-2.815
X6.095Y-2.915
X6.095Y-3.07
X6.195Y-3.07
X6.295Y-3.07
X6.39Y-3.22
X6.39Y-3.32
X6.39Y-3.42
X6.39Y-3.52
X6.39Y-3.62
T0
M30
