%TF.GenerationSoftware,KiCad,Pcbnew,(6.0.2)*%
%TF.CreationDate,2022-04-10T16:45:17+09:00*%
%TF.ProjectId,joystick-input,6a6f7973-7469-4636-9b2d-696e7075742e,rev?*%
%TF.SameCoordinates,Original*%
%TF.FileFunction,Copper,L2,Bot*%
%TF.FilePolarity,Positive*%
%FSLAX46Y46*%
G04 Gerber Fmt 4.6, Leading zero omitted, Abs format (unit mm)*
G04 Created by KiCad (PCBNEW (6.0.2)) date 2022-04-10 16:45:17*
%MOMM*%
%LPD*%
G01*
G04 APERTURE LIST*
%TA.AperFunction,ComponentPad*%
%ADD10R,1.700000X1.700000*%
%TD*%
%TA.AperFunction,ComponentPad*%
%ADD11O,1.700000X1.700000*%
%TD*%
%TA.AperFunction,ViaPad*%
%ADD12C,0.800000*%
%TD*%
%TA.AperFunction,Conductor*%
%ADD13C,0.250000*%
%TD*%
G04 APERTURE END LIST*
D10*
%TO.P,OUT1,1,Pin_1*%
%TO.N,VCC*%
X162306000Y-81788000D03*
D11*
%TO.P,OUT1,2,Pin_2*%
%TO.N,GND*%
X162306000Y-84328000D03*
%TO.P,OUT1,3,Pin_3*%
%TO.N,/LOAD*%
X162306000Y-86868000D03*
%TO.P,OUT1,4,Pin_4*%
%TO.N,/CLK*%
X162306000Y-89408000D03*
%TO.P,OUT1,5,Pin_5*%
%TO.N,/D_OUT*%
X162306000Y-91948000D03*
%TD*%
D10*
%TO.P,J2,1,Pin_1*%
%TO.N,/C_SHORT*%
X154813000Y-71501000D03*
D11*
%TO.P,J2,2,Pin_2*%
X154813000Y-74041000D03*
%TO.P,J2,3,Pin_3*%
%TO.N,/C_P1_UP*%
X152273000Y-71501000D03*
%TO.P,J2,4,Pin_4*%
%TO.N,/C_P2_UP*%
X152273000Y-74041000D03*
%TO.P,J2,5,Pin_5*%
%TO.N,/C_P1_DOWN*%
X149733000Y-71501000D03*
%TO.P,J2,6,Pin_6*%
%TO.N,/C_P2_DOWN*%
X149733000Y-74041000D03*
%TO.P,J2,7,Pin_7*%
%TO.N,/C_P1_LEFT*%
X147193000Y-71501000D03*
%TO.P,J2,8,Pin_8*%
%TO.N,/C_P2_LEFT*%
X147193000Y-74041000D03*
%TO.P,J2,9,Pin_9*%
%TO.N,/C_P1_RIGHT*%
X144653000Y-71501000D03*
%TO.P,J2,10,Pin_10*%
%TO.N,/C_P2_RIGHT*%
X144653000Y-74041000D03*
%TO.P,J2,11,Pin_11*%
%TO.N,/C_P1_START*%
X142113000Y-71501000D03*
%TO.P,J2,12,Pin_12*%
%TO.N,/C_P2_START*%
X142113000Y-74041000D03*
%TO.P,J2,13,Pin_13*%
%TO.N,/C_P1_SELECT*%
X139573000Y-71501000D03*
%TO.P,J2,14,Pin_14*%
%TO.N,/C_P2_SELECT*%
X139573000Y-74041000D03*
%TO.P,J2,15,Pin_15*%
%TO.N,/C_P1_A*%
X137033000Y-71501000D03*
%TO.P,J2,16,Pin_16*%
%TO.N,/C_P2_A*%
X137033000Y-74041000D03*
%TO.P,J2,17,Pin_17*%
%TO.N,/C_P1_B*%
X134493000Y-71501000D03*
%TO.P,J2,18,Pin_18*%
%TO.N,/C_P2_B*%
X134493000Y-74041000D03*
%TO.P,J2,19,Pin_19*%
%TO.N,/C_P1_X*%
X131953000Y-71501000D03*
%TO.P,J2,20,Pin_20*%
%TO.N,/C_P2_X*%
X131953000Y-74041000D03*
%TO.P,J2,21,Pin_21*%
%TO.N,/C_P1_Y*%
X129413000Y-71501000D03*
%TO.P,J2,22,Pin_22*%
%TO.N,/C_P2_Y*%
X129413000Y-74041000D03*
%TO.P,J2,23,Pin_23*%
%TO.N,/C_P1_L*%
X126873000Y-71501000D03*
%TO.P,J2,24,Pin_24*%
%TO.N,/C_P2_L*%
X126873000Y-74041000D03*
%TO.P,J2,25,Pin_25*%
%TO.N,/C_P1_R*%
X124333000Y-71501000D03*
%TO.P,J2,26,Pin_26*%
%TO.N,/C_P2_R*%
X124333000Y-74041000D03*
%TO.P,J2,27,Pin_27*%
%TO.N,/C_SHORT*%
X121793000Y-71501000D03*
%TO.P,J2,28,Pin_28*%
X121793000Y-74041000D03*
%TD*%
D10*
%TO.P,IN1,1,Pin_1*%
%TO.N,VCC*%
X114554000Y-81915000D03*
D11*
%TO.P,IN1,2,Pin_2*%
%TO.N,GND*%
X114554000Y-84455000D03*
%TO.P,IN1,3,Pin_3*%
%TO.N,/LOAD*%
X114554000Y-86995000D03*
%TO.P,IN1,4,Pin_4*%
%TO.N,/CLK*%
X114554000Y-89535000D03*
%TO.P,IN1,5,Pin_5*%
%TO.N,/D_IN*%
X114554000Y-92075000D03*
%TD*%
D10*
%TO.P,J1,1,Pin_1*%
%TO.N,/C_SHORT*%
X159893000Y-77978000D03*
D11*
%TO.P,J1,2,Pin_2*%
%TO.N,/C_P1_UP*%
X157353000Y-77978000D03*
%TO.P,J1,3,Pin_3*%
%TO.N,/C_P1_DOWN*%
X154813000Y-77978000D03*
%TO.P,J1,4,Pin_4*%
%TO.N,/C_P1_LEFT*%
X152273000Y-77978000D03*
%TO.P,J1,5,Pin_5*%
%TO.N,/C_P1_RIGHT*%
X149733000Y-77978000D03*
%TO.P,J1,6,Pin_6*%
%TO.N,/C_P1_START*%
X147193000Y-77978000D03*
%TO.P,J1,7,Pin_7*%
%TO.N,/C_P1_SELECT*%
X144653000Y-77978000D03*
%TO.P,J1,8,Pin_8*%
%TO.N,/C_P1_A*%
X142113000Y-77978000D03*
%TO.P,J1,9,Pin_9*%
%TO.N,/C_P1_B*%
X139573000Y-77978000D03*
%TO.P,J1,10,Pin_10*%
%TO.N,/C_P1_X*%
X137033000Y-77978000D03*
%TO.P,J1,11,Pin_11*%
%TO.N,/C_P1_Y*%
X134493000Y-77978000D03*
%TO.P,J1,12,Pin_12*%
%TO.N,/C_P1_L*%
X131953000Y-77978000D03*
%TO.P,J1,13,Pin_13*%
%TO.N,/C_P1_R*%
X129413000Y-77978000D03*
%TO.P,J1,14,Pin_14*%
%TO.N,/C_P2_UP*%
X126873000Y-77978000D03*
%TO.P,J1,15,Pin_15*%
%TO.N,/C_P2_DOWN*%
X124333000Y-77978000D03*
%TO.P,J1,16,Pin_16*%
%TO.N,/C_P2_LEFT*%
X121793000Y-77978000D03*
%TO.P,J1,17,Pin_17*%
%TO.N,/C_P2_RIGHT*%
X119253000Y-77978000D03*
%TO.P,J1,18,Pin_18*%
%TO.N,/C_SHORT*%
X116713000Y-77978000D03*
%TD*%
D12*
%TO.N,/PULL*%
X158877003Y-93218003D03*
X133858000Y-94270990D03*
X160020000Y-81534000D03*
X117919512Y-92392500D03*
X147447000Y-94234000D03*
%TO.N,GND*%
X158496000Y-86487000D03*
X138176000Y-85725000D03*
X138239500Y-90868500D03*
X144145000Y-81153000D03*
X124777500Y-90868500D03*
X151701500Y-91376500D03*
X156972000Y-92964000D03*
X133096000Y-84328000D03*
X146939000Y-84201000D03*
X130048000Y-81407000D03*
X124460000Y-85725000D03*
X118364000Y-72136000D03*
%TO.N,/C_P1_START*%
X156046794Y-87595185D03*
%TO.N,/C_P1_SELECT*%
X156013480Y-88645980D03*
%TO.N,/C_P1_A*%
X156019504Y-89915996D03*
%TO.N,/C_P1_B*%
X156019500Y-91186000D03*
%TO.N,/C_P1_UP*%
X147446996Y-90424000D03*
X151576711Y-81630979D03*
%TO.N,/C_P1_DOWN*%
X147446998Y-89281000D03*
X150459696Y-81625696D03*
%TO.N,/C_P1_LEFT*%
X147447000Y-88138000D03*
X149451486Y-81608586D03*
%TO.N,/C_P1_RIGHT*%
X148417392Y-81619219D03*
X147438850Y-87104530D03*
%TO.N,/C_P1_X*%
X133858000Y-90170000D03*
X136969500Y-81470500D03*
%TO.N,/C_P1_Y*%
X133862660Y-89149340D03*
X134366000Y-81533980D03*
%TO.N,/C_P1_L*%
X133264569Y-81502767D03*
X133862660Y-88124020D03*
%TO.N,/C_P1_R*%
X133862660Y-87098701D03*
X132224066Y-81487583D03*
%TO.N,/C_P2_START*%
X120751600Y-91160600D03*
%TO.N,/C_P2_SELECT*%
X120713500Y-89852500D03*
%TO.N,/C_P2_A*%
X120713500Y-88582500D03*
%TO.N,/C_P2_B*%
X120675400Y-87350600D03*
%TO.N,/C_P2_UP*%
X142748000Y-89281012D03*
%TO.N,/C_P2_DOWN*%
X142748000Y-90297010D03*
%TO.N,/C_P2_LEFT*%
X142748000Y-91440000D03*
%TO.N,/C_P2_RIGHT*%
X142748004Y-92583000D03*
%TO.N,/C_P2_X*%
X129286000Y-89153988D03*
X122809001Y-81630979D03*
%TO.N,/C_P2_Y*%
X124206000Y-81630979D03*
X129286000Y-90296990D03*
%TO.N,/C_P2_L*%
X129303820Y-91439990D03*
X125603000Y-81630979D03*
%TO.N,/C_P2_R*%
X127000000Y-81630979D03*
X129285994Y-92583000D03*
%TO.N,/C_SHORT*%
X119126000Y-74422000D03*
%TD*%
D13*
%TO.N,/PULL*%
X149352000Y-95250000D02*
X156845006Y-95250000D01*
X158115006Y-93980000D02*
X158877003Y-93218003D01*
X160020000Y-92075006D02*
X158877003Y-93218003D01*
X160020000Y-81534000D02*
X160020000Y-92075006D01*
X147447000Y-95250000D02*
X147447000Y-94234000D01*
X149352000Y-95250000D02*
X147447000Y-95250000D01*
X141224000Y-95250000D02*
X149352000Y-95250000D01*
X133858000Y-95250000D02*
X133858000Y-94270990D01*
X120777012Y-95250000D02*
X141224000Y-95250000D01*
X117919512Y-92392500D02*
X120777012Y-95250000D01*
X156845006Y-95250000D02*
X158115006Y-93980000D01*
%TO.N,/C_P1_START*%
X148763967Y-79421967D02*
X152573967Y-79421967D01*
X147320000Y-77978000D02*
X148763967Y-79421967D01*
X155646795Y-87195186D02*
X156046794Y-87595185D01*
X155646795Y-82494795D02*
X155646795Y-87195186D01*
X152573967Y-79421967D02*
X155646795Y-82494795D01*
%TO.N,/C_P1_SELECT*%
X144780000Y-77978000D02*
X146673978Y-79871978D01*
X154743989Y-82355452D02*
X154743989Y-87376489D01*
X146673978Y-79871978D02*
X152260515Y-79871978D01*
X152260515Y-79871978D02*
X154743989Y-82355452D01*
X154743989Y-87376489D02*
X156013480Y-88645980D01*
%TO.N,/C_P1_A*%
X142240000Y-77978000D02*
X144012489Y-79750489D01*
X152074115Y-80321989D02*
X154293978Y-82541852D01*
X154293978Y-82541852D02*
X154293978Y-88190470D01*
X146487578Y-80321989D02*
X152074115Y-80321989D01*
X145916078Y-79750489D02*
X146487578Y-80321989D01*
X154293978Y-88190470D02*
X156019504Y-89915996D01*
X144012489Y-79750489D02*
X145916078Y-79750489D01*
%TO.N,/C_P1_B*%
X141922500Y-80200500D02*
X145729678Y-80200500D01*
X153843967Y-82728252D02*
X153843967Y-89010467D01*
X145729678Y-80200500D02*
X146338176Y-80808998D01*
X153843967Y-89010467D02*
X156019500Y-91186000D01*
X146338176Y-80808998D02*
X151924713Y-80808998D01*
X139700000Y-77978000D02*
X141922500Y-80200500D01*
X151924713Y-80808998D02*
X153843967Y-82728252D01*
%TO.N,/C_P1_UP*%
X151576711Y-86294285D02*
X151576711Y-81630979D01*
X147446996Y-90424000D02*
X151576711Y-86294285D01*
%TO.N,/C_P1_DOWN*%
X149409989Y-82675403D02*
X149409989Y-87318009D01*
X150459696Y-81625696D02*
X149409989Y-82675403D01*
X149409989Y-87318009D02*
X147446998Y-89281000D01*
%TO.N,/C_P1_LEFT*%
X148959978Y-86625022D02*
X147447000Y-88138000D01*
X148959978Y-82100094D02*
X148959978Y-86625022D01*
X149451486Y-81608586D02*
X148959978Y-82100094D01*
%TO.N,/C_P1_RIGHT*%
X148417392Y-81619219D02*
X148417392Y-86125988D01*
X148417392Y-86125988D02*
X147438850Y-87104530D01*
%TO.N,/C_P1_X*%
X136969500Y-87624185D02*
X134423685Y-90170000D01*
X134423685Y-90170000D02*
X133858000Y-90170000D01*
X136969500Y-81470500D02*
X136969500Y-87624185D01*
%TO.N,/C_P1_Y*%
X133862660Y-89149340D02*
X135255000Y-87757000D01*
X135255000Y-87757000D02*
X135255000Y-82422980D01*
X135255000Y-82422980D02*
X134366000Y-81533980D01*
%TO.N,/C_P1_L*%
X133862660Y-88124020D02*
X134620000Y-87366680D01*
X134620000Y-87366680D02*
X134620000Y-82858198D01*
X134620000Y-82858198D02*
X133264569Y-81502767D01*
%TO.N,/C_P1_R*%
X133862660Y-87098701D02*
X133985000Y-86976361D01*
X133985000Y-86976361D02*
X133985000Y-83248517D01*
X133985000Y-83248517D02*
X132224066Y-81487583D01*
%TO.N,/C_P2_START*%
X114554000Y-72898000D02*
X114554000Y-79121000D01*
X140843000Y-70842000D02*
X139279500Y-69278500D01*
X139279500Y-69278500D02*
X118173500Y-69278500D01*
X118681500Y-89090500D02*
X120751600Y-91160600D01*
X114554000Y-79121000D02*
X118681500Y-83248500D01*
X142113000Y-74041000D02*
X140843000Y-72771000D01*
X118681500Y-83248500D02*
X118681500Y-89090500D01*
X140843000Y-72771000D02*
X140843000Y-70842000D01*
X118173500Y-69278500D02*
X114554000Y-72898000D01*
%TO.N,/C_P2_SELECT*%
X138303000Y-72771000D02*
X138303000Y-70821999D01*
X119131511Y-83062100D02*
X119131511Y-88270511D01*
X119131511Y-88270511D02*
X120713500Y-89852500D01*
X138303000Y-70821999D02*
X137209512Y-69728511D01*
X115004011Y-73084399D02*
X115004011Y-78934600D01*
X139573000Y-74041000D02*
X138303000Y-72771000D01*
X118359899Y-69728511D02*
X115004011Y-73084399D01*
X137209512Y-69728511D02*
X118359899Y-69728511D01*
X115004011Y-78934600D02*
X119131511Y-83062100D01*
%TO.N,/C_P2_A*%
X135763000Y-70948999D02*
X134992523Y-70178522D01*
X118546298Y-70178522D02*
X115454022Y-73270798D01*
X134992523Y-70178522D02*
X118546298Y-70178522D01*
X115454022Y-73270798D02*
X115454022Y-78748200D01*
X119691989Y-82986167D02*
X119691989Y-87560989D01*
X137033000Y-74041000D02*
X135763000Y-72771000D01*
X115454022Y-78748200D02*
X119691989Y-82986167D01*
X135763000Y-72771000D02*
X135763000Y-70948999D01*
X119691989Y-87560989D02*
X120713500Y-88582500D01*
%TO.N,/C_P2_B*%
X117999533Y-80641674D02*
X120142000Y-82784141D01*
X120142000Y-86817200D02*
X120675400Y-87350600D01*
X133286500Y-72834500D02*
X119443500Y-72834500D01*
X119443500Y-72834500D02*
X117999533Y-74278467D01*
X117999533Y-74278467D02*
X117999533Y-80641674D01*
X120142000Y-82784141D02*
X120142000Y-86817200D01*
X134493000Y-74041000D02*
X133286500Y-72834500D01*
%TO.N,/C_P2_UP*%
X139478001Y-79153001D02*
X140843000Y-80518000D01*
X152273000Y-74295000D02*
X149843467Y-76724533D01*
X128752710Y-76724533D02*
X127499243Y-77978000D01*
X128674244Y-79153001D02*
X139478001Y-79153001D01*
X141605000Y-83884042D02*
X141605000Y-88138012D01*
X141605000Y-88138012D02*
X142748000Y-89281012D01*
X140843000Y-80518000D02*
X140843000Y-83122042D01*
X149843467Y-76724533D02*
X128752710Y-76724533D01*
X127499243Y-77978000D02*
X128674244Y-79153001D01*
X140843000Y-83122042D02*
X141605000Y-83884042D01*
%TO.N,/C_P2_DOWN*%
X139315318Y-79692500D02*
X140281599Y-80658783D01*
X142691006Y-90297010D02*
X142748000Y-90297010D01*
X140281599Y-80658783D02*
X140281599Y-84416873D01*
X126174500Y-79692500D02*
X139315318Y-79692500D01*
X149733000Y-74041000D02*
X147499478Y-76274522D01*
X147499478Y-76274522D02*
X126163478Y-76274522D01*
X141154989Y-88760993D02*
X142691006Y-90297010D01*
X126163478Y-76274522D02*
X124460000Y-77978000D01*
X140281599Y-84416873D02*
X141154989Y-85290263D01*
X124460000Y-77978000D02*
X126174500Y-79692500D01*
X141154989Y-85290263D02*
X141154989Y-88760993D01*
%TO.N,/C_P2_LEFT*%
X140593978Y-89342982D02*
X142690996Y-91440000D01*
X140593978Y-85635104D02*
X140593978Y-89342982D01*
X139128917Y-80142511D02*
X139831588Y-80845183D01*
X147193000Y-74295000D02*
X145663489Y-75824511D01*
X139831588Y-80845183D02*
X139831588Y-84872714D01*
X124084511Y-80142511D02*
X139128917Y-80142511D01*
X139831588Y-84872714D02*
X140593978Y-85635104D01*
X124073489Y-75824511D02*
X121920000Y-77978000D01*
X121920000Y-77978000D02*
X124084511Y-80142511D01*
X145663489Y-75824511D02*
X124073489Y-75824511D01*
X142690996Y-91440000D02*
X142748000Y-91440000D01*
%TO.N,/C_P2_RIGHT*%
X140107501Y-89942497D02*
X142748004Y-92583000D01*
X144653000Y-74295000D02*
X143573500Y-75374500D01*
X121983500Y-75374500D02*
X119380000Y-77978000D01*
X122047000Y-80645000D02*
X138994994Y-80645000D01*
X140107501Y-85821499D02*
X140107501Y-89942497D01*
X138994994Y-80645000D02*
X139381577Y-81031583D01*
X143573500Y-75374500D02*
X121983500Y-75374500D01*
X119380000Y-77978000D02*
X122047000Y-80645000D01*
X139381577Y-85095575D02*
X140107501Y-85821499D01*
X139381577Y-81031583D02*
X139381577Y-85095575D01*
%TO.N,/C_P2_X*%
X122809001Y-82676989D02*
X122809001Y-81630979D01*
X129286000Y-89153988D02*
X122809001Y-82676989D01*
%TO.N,/C_P2_Y*%
X130085387Y-87510366D02*
X124605999Y-82030978D01*
X124605999Y-82030978D02*
X124206000Y-81630979D01*
X130085387Y-89497603D02*
X130085387Y-87510366D01*
X129286000Y-90296990D02*
X130085387Y-89497603D01*
%TO.N,/C_P2_L*%
X130667762Y-86695741D02*
X126002999Y-82030978D01*
X130667762Y-90076048D02*
X130667762Y-86695741D01*
X129303820Y-91439990D02*
X130667762Y-90076048D01*
X126002999Y-82030978D02*
X125603000Y-81630979D01*
%TO.N,/C_P2_R*%
X131117773Y-90751221D02*
X131117773Y-85748752D01*
X131117773Y-85748752D02*
X127000000Y-81630979D01*
X129285994Y-92583000D02*
X131117773Y-90751221D01*
%TO.N,/C_SHORT*%
X119126000Y-74422000D02*
X121412000Y-74422000D01*
X121412000Y-74422000D02*
X121793000Y-74041000D01*
%TD*%
%TA.AperFunction,Conductor*%
%TO.N,GND*%
G36*
X162222967Y-68282502D02*
G01*
X162269460Y-68336158D01*
X162279564Y-68406432D01*
X162250657Y-68470331D01*
X162186845Y-68545045D01*
X162061507Y-68749579D01*
X162059614Y-68754149D01*
X162059612Y-68754153D01*
X162019218Y-68851673D01*
X161969708Y-68971202D01*
X161968553Y-68976014D01*
X161914863Y-69199644D01*
X161914862Y-69199650D01*
X161913708Y-69204457D01*
X161895375Y-69437394D01*
X161894887Y-69443600D01*
X161913708Y-69682743D01*
X161914862Y-69687550D01*
X161914863Y-69687556D01*
X161933224Y-69764034D01*
X161969708Y-69915998D01*
X161971601Y-69920569D01*
X161971602Y-69920571D01*
X162031337Y-70064783D01*
X162061507Y-70137621D01*
X162186845Y-70342155D01*
X162342637Y-70524563D01*
X162525045Y-70680355D01*
X162729579Y-70805693D01*
X162734149Y-70807586D01*
X162734153Y-70807588D01*
X162946629Y-70895598D01*
X162951202Y-70897492D01*
X163033225Y-70917184D01*
X163179644Y-70952337D01*
X163179650Y-70952338D01*
X163184457Y-70953492D01*
X163423600Y-70972313D01*
X163662743Y-70953492D01*
X163667550Y-70952338D01*
X163667556Y-70952337D01*
X163813975Y-70917184D01*
X163895998Y-70897492D01*
X163900571Y-70895598D01*
X164113047Y-70807588D01*
X164113051Y-70807586D01*
X164117621Y-70805693D01*
X164322155Y-70680355D01*
X164325910Y-70677148D01*
X164325914Y-70677145D01*
X164423521Y-70593780D01*
X164447670Y-70573155D01*
X164512459Y-70544124D01*
X164582659Y-70554729D01*
X164635981Y-70601603D01*
X164655500Y-70668966D01*
X164655500Y-94237513D01*
X164635498Y-94305634D01*
X164581842Y-94352127D01*
X164511568Y-94362231D01*
X164447670Y-94333324D01*
X164344356Y-94245085D01*
X164344351Y-94245082D01*
X164340591Y-94241870D01*
X164131861Y-94113960D01*
X164127291Y-94112067D01*
X164127287Y-94112065D01*
X163910264Y-94022172D01*
X163910262Y-94022171D01*
X163905691Y-94020278D01*
X163795070Y-93993720D01*
X163672463Y-93964284D01*
X163672457Y-93964283D01*
X163667650Y-93963129D01*
X163423600Y-93943922D01*
X163179550Y-93963129D01*
X163174743Y-93964283D01*
X163174737Y-93964284D01*
X163052130Y-93993720D01*
X162941509Y-94020278D01*
X162936938Y-94022171D01*
X162936936Y-94022172D01*
X162719913Y-94112065D01*
X162719909Y-94112067D01*
X162715339Y-94113960D01*
X162506609Y-94241870D01*
X162502849Y-94245082D01*
X162502844Y-94245085D01*
X162376784Y-94352751D01*
X162320458Y-94400858D01*
X162317245Y-94404620D01*
X162164685Y-94583244D01*
X162164682Y-94583249D01*
X162161470Y-94587009D01*
X162033560Y-94795739D01*
X162031667Y-94800309D01*
X162031665Y-94800313D01*
X161948663Y-95000700D01*
X161939878Y-95021909D01*
X161934851Y-95042849D01*
X161883884Y-95255137D01*
X161883883Y-95255143D01*
X161882729Y-95259950D01*
X161863522Y-95504000D01*
X161882729Y-95748050D01*
X161883883Y-95752857D01*
X161883884Y-95752863D01*
X161915056Y-95882702D01*
X161939878Y-95986091D01*
X161941771Y-95990662D01*
X161941772Y-95990664D01*
X162029410Y-96202241D01*
X162033560Y-96212261D01*
X162161470Y-96420991D01*
X162164686Y-96424756D01*
X162231230Y-96502670D01*
X162260261Y-96567460D01*
X162249656Y-96637660D01*
X162202781Y-96690982D01*
X162135419Y-96710500D01*
X114785060Y-96710500D01*
X114716939Y-96690498D01*
X114670446Y-96636842D01*
X114660342Y-96566568D01*
X114689249Y-96502669D01*
X114771545Y-96406314D01*
X114771548Y-96406310D01*
X114774755Y-96402555D01*
X114900093Y-96198021D01*
X114971805Y-96024894D01*
X114989998Y-95980971D01*
X114989999Y-95980969D01*
X114991892Y-95976398D01*
X115016835Y-95872505D01*
X115046737Y-95747956D01*
X115046738Y-95747950D01*
X115047892Y-95743143D01*
X115066713Y-95504000D01*
X115047892Y-95264857D01*
X115046738Y-95260050D01*
X115046737Y-95260044D01*
X114993047Y-95036414D01*
X114991892Y-95031602D01*
X114979092Y-95000700D01*
X114901988Y-94814553D01*
X114901986Y-94814549D01*
X114900093Y-94809979D01*
X114774755Y-94605445D01*
X114618963Y-94423037D01*
X114436555Y-94267245D01*
X114232021Y-94141907D01*
X114227451Y-94140014D01*
X114227447Y-94140012D01*
X114014971Y-94052002D01*
X114014969Y-94052001D01*
X114010398Y-94050108D01*
X113928375Y-94030416D01*
X113781956Y-93995263D01*
X113781950Y-93995262D01*
X113777143Y-93994108D01*
X113538000Y-93975287D01*
X113298857Y-93994108D01*
X113294050Y-93995262D01*
X113294044Y-93995263D01*
X113147625Y-94030416D01*
X113065602Y-94050108D01*
X113061031Y-94052001D01*
X113061029Y-94052002D01*
X112848553Y-94140012D01*
X112848549Y-94140014D01*
X112843979Y-94141907D01*
X112639445Y-94267245D01*
X112635690Y-94270452D01*
X112635686Y-94270455D01*
X112572639Y-94324303D01*
X112540062Y-94352127D01*
X112539331Y-94352751D01*
X112474541Y-94381782D01*
X112404341Y-94371177D01*
X112351019Y-94324303D01*
X112331500Y-94256940D01*
X112331500Y-92041695D01*
X113191251Y-92041695D01*
X113191548Y-92046848D01*
X113191548Y-92046851D01*
X113202458Y-92236069D01*
X113204110Y-92264715D01*
X113205247Y-92269761D01*
X113205248Y-92269767D01*
X113223061Y-92348808D01*
X113253222Y-92482639D01*
X113337266Y-92689616D01*
X113339965Y-92694020D01*
X113424206Y-92831489D01*
X113453987Y-92880088D01*
X113600250Y-93048938D01*
X113772126Y-93191632D01*
X113965000Y-93304338D01*
X113969825Y-93306180D01*
X113969826Y-93306181D01*
X114042612Y-93333975D01*
X114173692Y-93384030D01*
X114178760Y-93385061D01*
X114178763Y-93385062D01*
X114258910Y-93401368D01*
X114392597Y-93428567D01*
X114397772Y-93428757D01*
X114397774Y-93428757D01*
X114610673Y-93436564D01*
X114610677Y-93436564D01*
X114615837Y-93436753D01*
X114620957Y-93436097D01*
X114620959Y-93436097D01*
X114832288Y-93409025D01*
X114832289Y-93409025D01*
X114837416Y-93408368D01*
X114849039Y-93404881D01*
X115046429Y-93345661D01*
X115046434Y-93345659D01*
X115051384Y-93344174D01*
X115251994Y-93245896D01*
X115433860Y-93116173D01*
X115485582Y-93064632D01*
X115558296Y-92992171D01*
X115592096Y-92958489D01*
X115618361Y-92921938D01*
X115719435Y-92781277D01*
X115722453Y-92777077D01*
X115728889Y-92764056D01*
X115819136Y-92581453D01*
X115819137Y-92581451D01*
X115821430Y-92576811D01*
X115877428Y-92392500D01*
X117006008Y-92392500D01*
X117006698Y-92399065D01*
X117024734Y-92570665D01*
X117025970Y-92582428D01*
X117084985Y-92764056D01*
X117088288Y-92769778D01*
X117088289Y-92769779D01*
X117121494Y-92827292D01*
X117180472Y-92929444D01*
X117184890Y-92934351D01*
X117184891Y-92934352D01*
X117263627Y-93021797D01*
X117308259Y-93071366D01*
X117462760Y-93183618D01*
X117468788Y-93186302D01*
X117468790Y-93186303D01*
X117631193Y-93258609D01*
X117637224Y-93261294D01*
X117724678Y-93279883D01*
X117817568Y-93299628D01*
X117817573Y-93299628D01*
X117824025Y-93301000D01*
X117879918Y-93301000D01*
X117948039Y-93321002D01*
X117969013Y-93337905D01*
X120273355Y-95642247D01*
X120280899Y-95650537D01*
X120285012Y-95657018D01*
X120290789Y-95662443D01*
X120334679Y-95703658D01*
X120337521Y-95706413D01*
X120357242Y-95726134D01*
X120360437Y-95728612D01*
X120369459Y-95736318D01*
X120401691Y-95766586D01*
X120408640Y-95770406D01*
X120419444Y-95776346D01*
X120435968Y-95787199D01*
X120451971Y-95799613D01*
X120492555Y-95817176D01*
X120503185Y-95822383D01*
X120541952Y-95843695D01*
X120549629Y-95845666D01*
X120549634Y-95845668D01*
X120561570Y-95848732D01*
X120580278Y-95855137D01*
X120598867Y-95863181D01*
X120606695Y-95864421D01*
X120606702Y-95864423D01*
X120642536Y-95870099D01*
X120654156Y-95872505D01*
X120685971Y-95880673D01*
X120696982Y-95883500D01*
X120717236Y-95883500D01*
X120736946Y-95885051D01*
X120756955Y-95888220D01*
X120764847Y-95887474D01*
X120776275Y-95886394D01*
X120800974Y-95884059D01*
X120812831Y-95883500D01*
X133786207Y-95883500D01*
X133809816Y-95885732D01*
X133810119Y-95885790D01*
X133810123Y-95885790D01*
X133817906Y-95887275D01*
X133873951Y-95883749D01*
X133881862Y-95883500D01*
X147375207Y-95883500D01*
X147398816Y-95885732D01*
X147399119Y-95885790D01*
X147399123Y-95885790D01*
X147406906Y-95887275D01*
X147462951Y-95883749D01*
X147470862Y-95883500D01*
X156766239Y-95883500D01*
X156777422Y-95884027D01*
X156784915Y-95885702D01*
X156792841Y-95885453D01*
X156792842Y-95885453D01*
X156852992Y-95883562D01*
X156856951Y-95883500D01*
X156884862Y-95883500D01*
X156888797Y-95883003D01*
X156888862Y-95882995D01*
X156900699Y-95882062D01*
X156932957Y-95881048D01*
X156936976Y-95880922D01*
X156944895Y-95880673D01*
X156964349Y-95875021D01*
X156983706Y-95871013D01*
X156995936Y-95869468D01*
X156995937Y-95869468D01*
X157003803Y-95868474D01*
X157011174Y-95865555D01*
X157011176Y-95865555D01*
X157044918Y-95852196D01*
X157056148Y-95848351D01*
X157090989Y-95838229D01*
X157090990Y-95838229D01*
X157098599Y-95836018D01*
X157105418Y-95831985D01*
X157105423Y-95831983D01*
X157116034Y-95825707D01*
X157133782Y-95817012D01*
X157152623Y-95809552D01*
X157172993Y-95794753D01*
X157188393Y-95783564D01*
X157198313Y-95777048D01*
X157229541Y-95758580D01*
X157229544Y-95758578D01*
X157236368Y-95754542D01*
X157250689Y-95740221D01*
X157265723Y-95727380D01*
X157267438Y-95726134D01*
X157282113Y-95715472D01*
X157310304Y-95681395D01*
X157318294Y-95672616D01*
X158827502Y-94163408D01*
X158889814Y-94129382D01*
X158916597Y-94126503D01*
X158972490Y-94126503D01*
X158978942Y-94125131D01*
X158978947Y-94125131D01*
X159065890Y-94106650D01*
X159159291Y-94086797D01*
X159186273Y-94074784D01*
X159327725Y-94011806D01*
X159327727Y-94011805D01*
X159333755Y-94009121D01*
X159488256Y-93896869D01*
X159513593Y-93868729D01*
X159611624Y-93759855D01*
X159611625Y-93759854D01*
X159616043Y-93754947D01*
X159711530Y-93589559D01*
X159770545Y-93407931D01*
X159779682Y-93321002D01*
X159787910Y-93242711D01*
X159814923Y-93177054D01*
X159824125Y-93166785D01*
X160106921Y-92883990D01*
X160412258Y-92578653D01*
X160420537Y-92571119D01*
X160427018Y-92567006D01*
X160473644Y-92517354D01*
X160476398Y-92514513D01*
X160496135Y-92494776D01*
X160498615Y-92491579D01*
X160506320Y-92482557D01*
X160531159Y-92456106D01*
X160536586Y-92450327D01*
X160540405Y-92443381D01*
X160540407Y-92443378D01*
X160546348Y-92432572D01*
X160557199Y-92416053D01*
X160557559Y-92415589D01*
X160569614Y-92400047D01*
X160572759Y-92392778D01*
X160572762Y-92392774D01*
X160587174Y-92359469D01*
X160592391Y-92348819D01*
X160613695Y-92310066D01*
X160618733Y-92290443D01*
X160625137Y-92271740D01*
X160630033Y-92260426D01*
X160630033Y-92260425D01*
X160633181Y-92253151D01*
X160634420Y-92245328D01*
X160634423Y-92245318D01*
X160640099Y-92209482D01*
X160642505Y-92197862D01*
X160651528Y-92162717D01*
X160651528Y-92162716D01*
X160653500Y-92155036D01*
X160653500Y-92134782D01*
X160655051Y-92115071D01*
X160656980Y-92102892D01*
X160658220Y-92095063D01*
X160654059Y-92051044D01*
X160653500Y-92039187D01*
X160653500Y-91914695D01*
X160943251Y-91914695D01*
X160943548Y-91919848D01*
X160943548Y-91919851D01*
X160952465Y-92074497D01*
X160956110Y-92137715D01*
X160957247Y-92142761D01*
X160957248Y-92142767D01*
X160972726Y-92211444D01*
X161005222Y-92355639D01*
X161058734Y-92487425D01*
X161078156Y-92535254D01*
X161089266Y-92562616D01*
X161205987Y-92753088D01*
X161352250Y-92921938D01*
X161524126Y-93064632D01*
X161717000Y-93177338D01*
X161721825Y-93179180D01*
X161721826Y-93179181D01*
X161740477Y-93186303D01*
X161925692Y-93257030D01*
X161930760Y-93258061D01*
X161930763Y-93258062D01*
X161985607Y-93269220D01*
X162144597Y-93301567D01*
X162149772Y-93301757D01*
X162149774Y-93301757D01*
X162362673Y-93309564D01*
X162362677Y-93309564D01*
X162367837Y-93309753D01*
X162372957Y-93309097D01*
X162372959Y-93309097D01*
X162584288Y-93282025D01*
X162584289Y-93282025D01*
X162589416Y-93281368D01*
X162594366Y-93279883D01*
X162798429Y-93218661D01*
X162798434Y-93218659D01*
X162803384Y-93217174D01*
X163003994Y-93118896D01*
X163185860Y-92989173D01*
X163216652Y-92958489D01*
X163299741Y-92875689D01*
X163344096Y-92831489D01*
X163397068Y-92757771D01*
X163471435Y-92654277D01*
X163474453Y-92650077D01*
X163495394Y-92607707D01*
X163571136Y-92454453D01*
X163571137Y-92454451D01*
X163573430Y-92449811D01*
X163621850Y-92290444D01*
X163636865Y-92241023D01*
X163636865Y-92241021D01*
X163638370Y-92236069D01*
X163667529Y-92014590D01*
X163667751Y-92005502D01*
X163669074Y-91951365D01*
X163669074Y-91951361D01*
X163669156Y-91948000D01*
X163650852Y-91725361D01*
X163596431Y-91508702D01*
X163507354Y-91303840D01*
X163421865Y-91171694D01*
X163388822Y-91120617D01*
X163388820Y-91120614D01*
X163386014Y-91116277D01*
X163235670Y-90951051D01*
X163231619Y-90947852D01*
X163231615Y-90947848D01*
X163064414Y-90815800D01*
X163064410Y-90815798D01*
X163060359Y-90812598D01*
X163019053Y-90789796D01*
X162969084Y-90739364D01*
X162954312Y-90669921D01*
X162979428Y-90603516D01*
X163006780Y-90576909D01*
X163065154Y-90535271D01*
X163185860Y-90449173D01*
X163216652Y-90418489D01*
X163282003Y-90353365D01*
X163344096Y-90291489D01*
X163387358Y-90231284D01*
X163471435Y-90114277D01*
X163474453Y-90110077D01*
X163488727Y-90081197D01*
X163571136Y-89914453D01*
X163571137Y-89914451D01*
X163573430Y-89909811D01*
X163629273Y-89726010D01*
X163636865Y-89701023D01*
X163636865Y-89701021D01*
X163638370Y-89696069D01*
X163667529Y-89474590D01*
X163667618Y-89470940D01*
X163669074Y-89411365D01*
X163669074Y-89411361D01*
X163669156Y-89408000D01*
X163650852Y-89185361D01*
X163596431Y-88968702D01*
X163507354Y-88763840D01*
X163426860Y-88639415D01*
X163388822Y-88580617D01*
X163388820Y-88580614D01*
X163386014Y-88576277D01*
X163235670Y-88411051D01*
X163231619Y-88407852D01*
X163231615Y-88407848D01*
X163064414Y-88275800D01*
X163064410Y-88275798D01*
X163060359Y-88272598D01*
X163019053Y-88249796D01*
X162969084Y-88199364D01*
X162954312Y-88129921D01*
X162979428Y-88063516D01*
X163006780Y-88036909D01*
X163068959Y-87992557D01*
X163185860Y-87909173D01*
X163203487Y-87891608D01*
X163274423Y-87820919D01*
X163344096Y-87751489D01*
X163361062Y-87727879D01*
X163463670Y-87585083D01*
X163474453Y-87570077D01*
X163502129Y-87514080D01*
X163571136Y-87374453D01*
X163571137Y-87374451D01*
X163573430Y-87369811D01*
X163631237Y-87179547D01*
X163636865Y-87161023D01*
X163636865Y-87161021D01*
X163638370Y-87156069D01*
X163667529Y-86934590D01*
X163667611Y-86931240D01*
X163669074Y-86871365D01*
X163669074Y-86871361D01*
X163669156Y-86868000D01*
X163650852Y-86645361D01*
X163596431Y-86428702D01*
X163507354Y-86223840D01*
X163407045Y-86068786D01*
X163388822Y-86040617D01*
X163388820Y-86040614D01*
X163386014Y-86036277D01*
X163235670Y-85871051D01*
X163231619Y-85867852D01*
X163231615Y-85867848D01*
X163064414Y-85735800D01*
X163064410Y-85735798D01*
X163060359Y-85732598D01*
X163018569Y-85709529D01*
X162968598Y-85659097D01*
X162953826Y-85589654D01*
X162978942Y-85523248D01*
X163006294Y-85496641D01*
X163181328Y-85371792D01*
X163189200Y-85365139D01*
X163340052Y-85214812D01*
X163346730Y-85206965D01*
X163471003Y-85034020D01*
X163476313Y-85025183D01*
X163570670Y-84834267D01*
X163574469Y-84824672D01*
X163636377Y-84620910D01*
X163638555Y-84610837D01*
X163639986Y-84599962D01*
X163637775Y-84585778D01*
X163624617Y-84582000D01*
X160989225Y-84582000D01*
X160975694Y-84585973D01*
X160974257Y-84595966D01*
X161004565Y-84730446D01*
X161007645Y-84740275D01*
X161087770Y-84937603D01*
X161092413Y-84946794D01*
X161203694Y-85128388D01*
X161209777Y-85136699D01*
X161349213Y-85297667D01*
X161356580Y-85304883D01*
X161520434Y-85440916D01*
X161528881Y-85446831D01*
X161597969Y-85487203D01*
X161646693Y-85538842D01*
X161659764Y-85608625D01*
X161633033Y-85674396D01*
X161592584Y-85707752D01*
X161579607Y-85714507D01*
X161575474Y-85717610D01*
X161575471Y-85717612D01*
X161406323Y-85844612D01*
X161400965Y-85848635D01*
X161397393Y-85852373D01*
X161258180Y-85998051D01*
X161246629Y-86010138D01*
X161243715Y-86014410D01*
X161243714Y-86014411D01*
X161206622Y-86068786D01*
X161120743Y-86194680D01*
X161101686Y-86235736D01*
X161037360Y-86374315D01*
X161026688Y-86397305D01*
X160966989Y-86612570D01*
X160943251Y-86834695D01*
X160943548Y-86839848D01*
X160943548Y-86839851D01*
X160952494Y-86995000D01*
X160956110Y-87057715D01*
X160957247Y-87062761D01*
X160957248Y-87062767D01*
X160966660Y-87104530D01*
X161005222Y-87275639D01*
X161043461Y-87369811D01*
X161084248Y-87470257D01*
X161089266Y-87482616D01*
X161205987Y-87673088D01*
X161352250Y-87841938D01*
X161472527Y-87941794D01*
X161509464Y-87972459D01*
X161524126Y-87984632D01*
X161549580Y-87999506D01*
X161597445Y-88027476D01*
X161646169Y-88079114D01*
X161659240Y-88148897D01*
X161632509Y-88214669D01*
X161592055Y-88248027D01*
X161579607Y-88254507D01*
X161575474Y-88257610D01*
X161575471Y-88257612D01*
X161406323Y-88384612D01*
X161400965Y-88388635D01*
X161397393Y-88392373D01*
X161258180Y-88538051D01*
X161246629Y-88550138D01*
X161243715Y-88554410D01*
X161243714Y-88554411D01*
X161207801Y-88607057D01*
X161120743Y-88734680D01*
X161076801Y-88829345D01*
X161029290Y-88931700D01*
X161026688Y-88937305D01*
X160966989Y-89152570D01*
X160943251Y-89374695D01*
X160943548Y-89379848D01*
X160943548Y-89379851D01*
X160952359Y-89532658D01*
X160956110Y-89597715D01*
X160957247Y-89602761D01*
X160957248Y-89602767D01*
X160970726Y-89662572D01*
X161005222Y-89815639D01*
X161047481Y-89919711D01*
X161076939Y-89992257D01*
X161089266Y-90022616D01*
X161091965Y-90027020D01*
X161195571Y-90196090D01*
X161205987Y-90213088D01*
X161352250Y-90381938D01*
X161524126Y-90524632D01*
X161542333Y-90535271D01*
X161597445Y-90567476D01*
X161646169Y-90619114D01*
X161659240Y-90688897D01*
X161632509Y-90754669D01*
X161592055Y-90788027D01*
X161579607Y-90794507D01*
X161575474Y-90797610D01*
X161575471Y-90797612D01*
X161410424Y-90921533D01*
X161400965Y-90928635D01*
X161354522Y-90977235D01*
X161257751Y-91078500D01*
X161246629Y-91090138D01*
X161243715Y-91094410D01*
X161243714Y-91094411D01*
X161176758Y-91192565D01*
X161120743Y-91274680D01*
X161105003Y-91308590D01*
X161040962Y-91446555D01*
X161026688Y-91477305D01*
X160966989Y-91692570D01*
X160943251Y-91914695D01*
X160653500Y-91914695D01*
X160653500Y-82236524D01*
X160673502Y-82168403D01*
X160685864Y-82152214D01*
X160702090Y-82134193D01*
X160727865Y-82105567D01*
X160788309Y-82068328D01*
X160859293Y-82069680D01*
X160918278Y-82109193D01*
X160946536Y-82174324D01*
X160947500Y-82189878D01*
X160947500Y-82686134D01*
X160954255Y-82748316D01*
X161005385Y-82884705D01*
X161092739Y-83001261D01*
X161209295Y-83088615D01*
X161217704Y-83091767D01*
X161217705Y-83091768D01*
X161326960Y-83132726D01*
X161383725Y-83175367D01*
X161408425Y-83241929D01*
X161393218Y-83311278D01*
X161373825Y-83337759D01*
X161250590Y-83466717D01*
X161244104Y-83474727D01*
X161124098Y-83650649D01*
X161119000Y-83659623D01*
X161029338Y-83852783D01*
X161025775Y-83862470D01*
X160970389Y-84062183D01*
X160971912Y-84070607D01*
X160984292Y-84074000D01*
X163624344Y-84074000D01*
X163637875Y-84070027D01*
X163639180Y-84060947D01*
X163597214Y-83893875D01*
X163593894Y-83884124D01*
X163508972Y-83688814D01*
X163504105Y-83679739D01*
X163388426Y-83500926D01*
X163382136Y-83492757D01*
X163238293Y-83334677D01*
X163207241Y-83270831D01*
X163215635Y-83200333D01*
X163260812Y-83145564D01*
X163287256Y-83131895D01*
X163394297Y-83091767D01*
X163402705Y-83088615D01*
X163519261Y-83001261D01*
X163606615Y-82884705D01*
X163657745Y-82748316D01*
X163664500Y-82686134D01*
X163664500Y-80889866D01*
X163657745Y-80827684D01*
X163606615Y-80691295D01*
X163519261Y-80574739D01*
X163402705Y-80487385D01*
X163266316Y-80436255D01*
X163204134Y-80429500D01*
X161407866Y-80429500D01*
X161345684Y-80436255D01*
X161209295Y-80487385D01*
X161092739Y-80574739D01*
X161005385Y-80691295D01*
X160954255Y-80827684D01*
X160947500Y-80889866D01*
X160946449Y-80889752D01*
X160924260Y-80952541D01*
X160868168Y-80996064D01*
X160797451Y-81002353D01*
X160734559Y-80969412D01*
X160728464Y-80963098D01*
X160718959Y-80952541D01*
X160683466Y-80913123D01*
X160635675Y-80860045D01*
X160635674Y-80860044D01*
X160631253Y-80855134D01*
X160476752Y-80742882D01*
X160470724Y-80740198D01*
X160470722Y-80740197D01*
X160308319Y-80667891D01*
X160308318Y-80667891D01*
X160302288Y-80665206D01*
X160208887Y-80645353D01*
X160121944Y-80626872D01*
X160121939Y-80626872D01*
X160115487Y-80625500D01*
X159924513Y-80625500D01*
X159918061Y-80626872D01*
X159918056Y-80626872D01*
X159831113Y-80645353D01*
X159737712Y-80665206D01*
X159731682Y-80667891D01*
X159731681Y-80667891D01*
X159569278Y-80740197D01*
X159569276Y-80740198D01*
X159563248Y-80742882D01*
X159408747Y-80855134D01*
X159404326Y-80860044D01*
X159404325Y-80860045D01*
X159374398Y-80893283D01*
X159280960Y-80997056D01*
X159222686Y-81097990D01*
X159189102Y-81156159D01*
X159185473Y-81162444D01*
X159126458Y-81344072D01*
X159125768Y-81350633D01*
X159125768Y-81350635D01*
X159118249Y-81422179D01*
X159106496Y-81534000D01*
X159107186Y-81540565D01*
X159120890Y-81670948D01*
X159126458Y-81723928D01*
X159185473Y-81905556D01*
X159280960Y-82070944D01*
X159354136Y-82152214D01*
X159384853Y-82216221D01*
X159386500Y-82236524D01*
X159386500Y-91760411D01*
X159366498Y-91828532D01*
X159349595Y-91849507D01*
X158926502Y-92272599D01*
X158864190Y-92306624D01*
X158837407Y-92309503D01*
X158781516Y-92309503D01*
X158775064Y-92310875D01*
X158775059Y-92310875D01*
X158688115Y-92329356D01*
X158594715Y-92349209D01*
X158588685Y-92351894D01*
X158588684Y-92351894D01*
X158426281Y-92424200D01*
X158426279Y-92424201D01*
X158420251Y-92426885D01*
X158414910Y-92430765D01*
X158414909Y-92430766D01*
X158397550Y-92443378D01*
X158265750Y-92539137D01*
X158261329Y-92544047D01*
X158261328Y-92544048D01*
X158162078Y-92654277D01*
X158137963Y-92681059D01*
X158042476Y-92846447D01*
X157983461Y-93028075D01*
X157982771Y-93034636D01*
X157982771Y-93034638D01*
X157966096Y-93193295D01*
X157939083Y-93258952D01*
X157929881Y-93269220D01*
X156619506Y-94579595D01*
X156557194Y-94613621D01*
X156530411Y-94616500D01*
X148451395Y-94616500D01*
X148383274Y-94596498D01*
X148336781Y-94542842D01*
X148326677Y-94472568D01*
X148331563Y-94451562D01*
X148338502Y-94430208D01*
X148338503Y-94430203D01*
X148340542Y-94423928D01*
X148342572Y-94404620D01*
X148359814Y-94240565D01*
X148360504Y-94234000D01*
X148348159Y-94116546D01*
X148341232Y-94050635D01*
X148341232Y-94050633D01*
X148340542Y-94044072D01*
X148281527Y-93862444D01*
X148186040Y-93697056D01*
X148094403Y-93595282D01*
X148062675Y-93560045D01*
X148062674Y-93560044D01*
X148058253Y-93555134D01*
X147917907Y-93453166D01*
X147909094Y-93446763D01*
X147909093Y-93446762D01*
X147903752Y-93442882D01*
X147897724Y-93440198D01*
X147897722Y-93440197D01*
X147735319Y-93367891D01*
X147735318Y-93367891D01*
X147729288Y-93365206D01*
X147619619Y-93341895D01*
X147548944Y-93326872D01*
X147548939Y-93326872D01*
X147542487Y-93325500D01*
X147351513Y-93325500D01*
X147345061Y-93326872D01*
X147345056Y-93326872D01*
X147274381Y-93341895D01*
X147164712Y-93365206D01*
X147158682Y-93367891D01*
X147158681Y-93367891D01*
X146996278Y-93440197D01*
X146996276Y-93440198D01*
X146990248Y-93442882D01*
X146984907Y-93446762D01*
X146984906Y-93446763D01*
X146976093Y-93453166D01*
X146835747Y-93555134D01*
X146831326Y-93560044D01*
X146831325Y-93560045D01*
X146799598Y-93595282D01*
X146707960Y-93697056D01*
X146612473Y-93862444D01*
X146553458Y-94044072D01*
X146552768Y-94050633D01*
X146552768Y-94050635D01*
X146545841Y-94116546D01*
X146533496Y-94234000D01*
X146534186Y-94240565D01*
X146551429Y-94404620D01*
X146553458Y-94423928D01*
X146555497Y-94430203D01*
X146555498Y-94430208D01*
X146562437Y-94451562D01*
X146564466Y-94522529D01*
X146527805Y-94583328D01*
X146464093Y-94614654D01*
X146442605Y-94616500D01*
X134873363Y-94616500D01*
X134805242Y-94596498D01*
X134758749Y-94542842D01*
X134748645Y-94472568D01*
X134749721Y-94466521D01*
X134751542Y-94460918D01*
X134752526Y-94451562D01*
X134770814Y-94277555D01*
X134771504Y-94270990D01*
X134768172Y-94239286D01*
X134752232Y-94087625D01*
X134752232Y-94087623D01*
X134751542Y-94081062D01*
X134692527Y-93899434D01*
X134674800Y-93868729D01*
X134600341Y-93739764D01*
X134597040Y-93734046D01*
X134469253Y-93592124D01*
X134314752Y-93479872D01*
X134308724Y-93477188D01*
X134308722Y-93477187D01*
X134146319Y-93404881D01*
X134146318Y-93404881D01*
X134140288Y-93402196D01*
X134046144Y-93382185D01*
X133959944Y-93363862D01*
X133959939Y-93363862D01*
X133953487Y-93362490D01*
X133762513Y-93362490D01*
X133756061Y-93363862D01*
X133756056Y-93363862D01*
X133669856Y-93382185D01*
X133575712Y-93402196D01*
X133569682Y-93404881D01*
X133569681Y-93404881D01*
X133407278Y-93477187D01*
X133407276Y-93477188D01*
X133401248Y-93479872D01*
X133246747Y-93592124D01*
X133118960Y-93734046D01*
X133115659Y-93739764D01*
X133041201Y-93868729D01*
X133023473Y-93899434D01*
X132964458Y-94081062D01*
X132963768Y-94087623D01*
X132963768Y-94087625D01*
X132947828Y-94239286D01*
X132944496Y-94270990D01*
X132945186Y-94277555D01*
X132963475Y-94451562D01*
X132964458Y-94460918D01*
X132965821Y-94465113D01*
X132960483Y-94535090D01*
X132917668Y-94591724D01*
X132851031Y-94616220D01*
X132842637Y-94616500D01*
X121091607Y-94616500D01*
X121023486Y-94596498D01*
X121002512Y-94579595D01*
X118866634Y-92443717D01*
X118832608Y-92381405D01*
X118830419Y-92367792D01*
X118829384Y-92357939D01*
X118820116Y-92269767D01*
X118813744Y-92209135D01*
X118813744Y-92209133D01*
X118813054Y-92202572D01*
X118754039Y-92020944D01*
X118748586Y-92011498D01*
X118661853Y-91861274D01*
X118658552Y-91855556D01*
X118653106Y-91849507D01*
X118535187Y-91718545D01*
X118535186Y-91718544D01*
X118530765Y-91713634D01*
X118376264Y-91601382D01*
X118370236Y-91598698D01*
X118370234Y-91598697D01*
X118207831Y-91526391D01*
X118207830Y-91526391D01*
X118201800Y-91523706D01*
X118108399Y-91503853D01*
X118021456Y-91485372D01*
X118021451Y-91485372D01*
X118014999Y-91484000D01*
X117824025Y-91484000D01*
X117817573Y-91485372D01*
X117817568Y-91485372D01*
X117730625Y-91503853D01*
X117637224Y-91523706D01*
X117631194Y-91526391D01*
X117631193Y-91526391D01*
X117468790Y-91598697D01*
X117468788Y-91598698D01*
X117462760Y-91601382D01*
X117308259Y-91713634D01*
X117303838Y-91718544D01*
X117303837Y-91718545D01*
X117185919Y-91849507D01*
X117180472Y-91855556D01*
X117177171Y-91861274D01*
X117090439Y-92011498D01*
X117084985Y-92020944D01*
X117025970Y-92202572D01*
X117025280Y-92209133D01*
X117025280Y-92209135D01*
X117010702Y-92347837D01*
X117006008Y-92392500D01*
X115877428Y-92392500D01*
X115886370Y-92363069D01*
X115915529Y-92141590D01*
X115917156Y-92075000D01*
X115898852Y-91852361D01*
X115844431Y-91635702D01*
X115755354Y-91430840D01*
X115654330Y-91274680D01*
X115636822Y-91247617D01*
X115636820Y-91247614D01*
X115634014Y-91243277D01*
X115483670Y-91078051D01*
X115479619Y-91074852D01*
X115479615Y-91074848D01*
X115312414Y-90942800D01*
X115312410Y-90942798D01*
X115308359Y-90939598D01*
X115267053Y-90916796D01*
X115217084Y-90866364D01*
X115202312Y-90796921D01*
X115227428Y-90730516D01*
X115254780Y-90703909D01*
X115323665Y-90654774D01*
X115433860Y-90576173D01*
X115442588Y-90567476D01*
X115558296Y-90452171D01*
X115592096Y-90418489D01*
X115599781Y-90407795D01*
X115719435Y-90241277D01*
X115722453Y-90237077D01*
X115728889Y-90224056D01*
X115819136Y-90041453D01*
X115819137Y-90041451D01*
X115821430Y-90036811D01*
X115877428Y-89852500D01*
X115884865Y-89828023D01*
X115884865Y-89828021D01*
X115886370Y-89823069D01*
X115915529Y-89601590D01*
X115916772Y-89550725D01*
X115917074Y-89538365D01*
X115917074Y-89538361D01*
X115917156Y-89535000D01*
X115898852Y-89312361D01*
X115844431Y-89095702D01*
X115755354Y-88890840D01*
X115654330Y-88734680D01*
X115636822Y-88707617D01*
X115636820Y-88707614D01*
X115634014Y-88703277D01*
X115483670Y-88538051D01*
X115479619Y-88534852D01*
X115479615Y-88534848D01*
X115312414Y-88402800D01*
X115312410Y-88402798D01*
X115308359Y-88399598D01*
X115267053Y-88376796D01*
X115217084Y-88326364D01*
X115202312Y-88256921D01*
X115227428Y-88190516D01*
X115254780Y-88163909D01*
X115319906Y-88117455D01*
X115433860Y-88036173D01*
X115442588Y-88027476D01*
X115558296Y-87912171D01*
X115592096Y-87878489D01*
X115618361Y-87841938D01*
X115719435Y-87701277D01*
X115722453Y-87697077D01*
X115728936Y-87683961D01*
X115819136Y-87501453D01*
X115819137Y-87501451D01*
X115821430Y-87496811D01*
X115863858Y-87357165D01*
X115884865Y-87288023D01*
X115884865Y-87288021D01*
X115886370Y-87283069D01*
X115915529Y-87061590D01*
X115917156Y-86995000D01*
X115898852Y-86772361D01*
X115844431Y-86555702D01*
X115755354Y-86350840D01*
X115657367Y-86199375D01*
X115636822Y-86167617D01*
X115636820Y-86167614D01*
X115634014Y-86163277D01*
X115483670Y-85998051D01*
X115479619Y-85994852D01*
X115479615Y-85994848D01*
X115312414Y-85862800D01*
X115312410Y-85862798D01*
X115308359Y-85859598D01*
X115288500Y-85848635D01*
X115266569Y-85836529D01*
X115216598Y-85786097D01*
X115201826Y-85716654D01*
X115226942Y-85650248D01*
X115254294Y-85623641D01*
X115429328Y-85498792D01*
X115437200Y-85492139D01*
X115588052Y-85341812D01*
X115594730Y-85333965D01*
X115719003Y-85161020D01*
X115724313Y-85152183D01*
X115818670Y-84961267D01*
X115822469Y-84951672D01*
X115884377Y-84747910D01*
X115886555Y-84737837D01*
X115887986Y-84726962D01*
X115885775Y-84712778D01*
X115872617Y-84709000D01*
X113237225Y-84709000D01*
X113223694Y-84712973D01*
X113222257Y-84722966D01*
X113252565Y-84857446D01*
X113255645Y-84867275D01*
X113335770Y-85064603D01*
X113340413Y-85073794D01*
X113451694Y-85255388D01*
X113457777Y-85263699D01*
X113597213Y-85424667D01*
X113604580Y-85431883D01*
X113768434Y-85567916D01*
X113776881Y-85573831D01*
X113845969Y-85614203D01*
X113894693Y-85665842D01*
X113907764Y-85735625D01*
X113881033Y-85801396D01*
X113840584Y-85834752D01*
X113827607Y-85841507D01*
X113823474Y-85844610D01*
X113823471Y-85844612D01*
X113653100Y-85972530D01*
X113648965Y-85975635D01*
X113494629Y-86137138D01*
X113491715Y-86141410D01*
X113491714Y-86141411D01*
X113454456Y-86196030D01*
X113368743Y-86321680D01*
X113339421Y-86384849D01*
X113281457Y-86509723D01*
X113274688Y-86524305D01*
X113214989Y-86739570D01*
X113191251Y-86961695D01*
X113191548Y-86966848D01*
X113191548Y-86966851D01*
X113202362Y-87154394D01*
X113204110Y-87184715D01*
X113205247Y-87189761D01*
X113205248Y-87189767D01*
X113214296Y-87229914D01*
X113253222Y-87402639D01*
X113311762Y-87546806D01*
X113331001Y-87594186D01*
X113337266Y-87609616D01*
X113353649Y-87636350D01*
X113440789Y-87778550D01*
X113453987Y-87800088D01*
X113600250Y-87968938D01*
X113772126Y-88111632D01*
X113806015Y-88131435D01*
X113845445Y-88154476D01*
X113894169Y-88206114D01*
X113907240Y-88275897D01*
X113880509Y-88341669D01*
X113840055Y-88375027D01*
X113827607Y-88381507D01*
X113823474Y-88384610D01*
X113823471Y-88384612D01*
X113675681Y-88495576D01*
X113648965Y-88515635D01*
X113494629Y-88677138D01*
X113491715Y-88681410D01*
X113491714Y-88681411D01*
X113429627Y-88772428D01*
X113368743Y-88861680D01*
X113343649Y-88915741D01*
X113279352Y-89054258D01*
X113274688Y-89064305D01*
X113214989Y-89279570D01*
X113191251Y-89501695D01*
X113191548Y-89506848D01*
X113191548Y-89506851D01*
X113202458Y-89696069D01*
X113204110Y-89724715D01*
X113205247Y-89729761D01*
X113205248Y-89729767D01*
X113219436Y-89792721D01*
X113253222Y-89942639D01*
X113290509Y-90034467D01*
X113334340Y-90142409D01*
X113337266Y-90149616D01*
X113339965Y-90154020D01*
X113431600Y-90303555D01*
X113453987Y-90340088D01*
X113600250Y-90508938D01*
X113772126Y-90651632D01*
X113801730Y-90668931D01*
X113845445Y-90694476D01*
X113894169Y-90746114D01*
X113907240Y-90815897D01*
X113880509Y-90881669D01*
X113840055Y-90915027D01*
X113827607Y-90921507D01*
X113823474Y-90924610D01*
X113823471Y-90924612D01*
X113653100Y-91052530D01*
X113648965Y-91055635D01*
X113636209Y-91068983D01*
X113500775Y-91210707D01*
X113494629Y-91217138D01*
X113491715Y-91221410D01*
X113491714Y-91221411D01*
X113443020Y-91292794D01*
X113368743Y-91401680D01*
X113329895Y-91485372D01*
X113293732Y-91563279D01*
X113274688Y-91604305D01*
X113214989Y-91819570D01*
X113191251Y-92041695D01*
X112331500Y-92041695D01*
X112331500Y-82813134D01*
X113195500Y-82813134D01*
X113202255Y-82875316D01*
X113253385Y-83011705D01*
X113340739Y-83128261D01*
X113457295Y-83215615D01*
X113465704Y-83218767D01*
X113465705Y-83218768D01*
X113574960Y-83259726D01*
X113631725Y-83302367D01*
X113656425Y-83368929D01*
X113641218Y-83438278D01*
X113621825Y-83464759D01*
X113498590Y-83593717D01*
X113492104Y-83601727D01*
X113372098Y-83777649D01*
X113367000Y-83786623D01*
X113277338Y-83979783D01*
X113273775Y-83989470D01*
X113218389Y-84189183D01*
X113219912Y-84197607D01*
X113232292Y-84201000D01*
X115872344Y-84201000D01*
X115885875Y-84197027D01*
X115887180Y-84187947D01*
X115845214Y-84020875D01*
X115841894Y-84011124D01*
X115756972Y-83815814D01*
X115752105Y-83806739D01*
X115636426Y-83627926D01*
X115630136Y-83619757D01*
X115486293Y-83461677D01*
X115455241Y-83397831D01*
X115463635Y-83327333D01*
X115508812Y-83272564D01*
X115535256Y-83258895D01*
X115642297Y-83218767D01*
X115650705Y-83215615D01*
X115767261Y-83128261D01*
X115854615Y-83011705D01*
X115905745Y-82875316D01*
X115912500Y-82813134D01*
X115912500Y-81679594D01*
X115932502Y-81611473D01*
X115986158Y-81564980D01*
X116056432Y-81554876D01*
X116121012Y-81584370D01*
X116127595Y-81590499D01*
X118011095Y-83473999D01*
X118045121Y-83536311D01*
X118048000Y-83563094D01*
X118048000Y-89011733D01*
X118047473Y-89022916D01*
X118045798Y-89030409D01*
X118046047Y-89038335D01*
X118046047Y-89038336D01*
X118047938Y-89098486D01*
X118048000Y-89102437D01*
X118048000Y-89130356D01*
X118048497Y-89134290D01*
X118048497Y-89134291D01*
X118048505Y-89134356D01*
X118049438Y-89146193D01*
X118050827Y-89190389D01*
X118056478Y-89209839D01*
X118060487Y-89229200D01*
X118063026Y-89249297D01*
X118065945Y-89256668D01*
X118065945Y-89256670D01*
X118079304Y-89290412D01*
X118083149Y-89301642D01*
X118093271Y-89336483D01*
X118095482Y-89344093D01*
X118099515Y-89350912D01*
X118099517Y-89350917D01*
X118105793Y-89361528D01*
X118114488Y-89379276D01*
X118121948Y-89398117D01*
X118126610Y-89404533D01*
X118126610Y-89404534D01*
X118147936Y-89433887D01*
X118154452Y-89443807D01*
X118170499Y-89470940D01*
X118176958Y-89481862D01*
X118191279Y-89496183D01*
X118204119Y-89511216D01*
X118216028Y-89527607D01*
X118222134Y-89532658D01*
X118250105Y-89555798D01*
X118258884Y-89563788D01*
X119804478Y-91109382D01*
X119838504Y-91171694D01*
X119840692Y-91185303D01*
X119858058Y-91350528D01*
X119917073Y-91532156D01*
X120012560Y-91697544D01*
X120016978Y-91702451D01*
X120016979Y-91702452D01*
X120127058Y-91824707D01*
X120140347Y-91839466D01*
X120294848Y-91951718D01*
X120300876Y-91954402D01*
X120300878Y-91954403D01*
X120443514Y-92017908D01*
X120469312Y-92029394D01*
X120562713Y-92049247D01*
X120649656Y-92067728D01*
X120649661Y-92067728D01*
X120656113Y-92069100D01*
X120847087Y-92069100D01*
X120853539Y-92067728D01*
X120853544Y-92067728D01*
X120940488Y-92049247D01*
X121033888Y-92029394D01*
X121059686Y-92017908D01*
X121202322Y-91954403D01*
X121202324Y-91954402D01*
X121208352Y-91951718D01*
X121362853Y-91839466D01*
X121376142Y-91824707D01*
X121486221Y-91702452D01*
X121486222Y-91702451D01*
X121490640Y-91697544D01*
X121586127Y-91532156D01*
X121645142Y-91350528D01*
X121652621Y-91279375D01*
X121664414Y-91167165D01*
X121665104Y-91160600D01*
X121657698Y-91090138D01*
X121645832Y-90977235D01*
X121645832Y-90977233D01*
X121645142Y-90970672D01*
X121586127Y-90789044D01*
X121567060Y-90756018D01*
X121493943Y-90629377D01*
X121490640Y-90623656D01*
X121475972Y-90607365D01*
X121450338Y-90578896D01*
X121442061Y-90569703D01*
X121411344Y-90505696D01*
X121420107Y-90435243D01*
X121442061Y-90401082D01*
X121448121Y-90394352D01*
X121448122Y-90394351D01*
X121452540Y-90389444D01*
X121505907Y-90297010D01*
X121544723Y-90229779D01*
X121544724Y-90229778D01*
X121548027Y-90224056D01*
X121607042Y-90042428D01*
X121608662Y-90027020D01*
X121626314Y-89859065D01*
X121627004Y-89852500D01*
X121617287Y-89760046D01*
X121607732Y-89669135D01*
X121607732Y-89669133D01*
X121607042Y-89662572D01*
X121548027Y-89480944D01*
X121544616Y-89475035D01*
X121489335Y-89379287D01*
X121452540Y-89315556D01*
X121440162Y-89301809D01*
X121409446Y-89237803D01*
X121418210Y-89167350D01*
X121440161Y-89133193D01*
X121452540Y-89119444D01*
X121541146Y-88965975D01*
X121544723Y-88959779D01*
X121544724Y-88959778D01*
X121548027Y-88954056D01*
X121607042Y-88772428D01*
X121611010Y-88734680D01*
X121626314Y-88589065D01*
X121627004Y-88582500D01*
X121617271Y-88489894D01*
X121607732Y-88399135D01*
X121607732Y-88399133D01*
X121607042Y-88392572D01*
X121548027Y-88210944D01*
X121522019Y-88165896D01*
X121471915Y-88079114D01*
X121452540Y-88045556D01*
X121434993Y-88026068D01*
X121404277Y-87962062D01*
X121413042Y-87891608D01*
X121419512Y-87878760D01*
X121506623Y-87727879D01*
X121506624Y-87727878D01*
X121509927Y-87722156D01*
X121568942Y-87540528D01*
X121574058Y-87491857D01*
X121588214Y-87357165D01*
X121588904Y-87350600D01*
X121583663Y-87300736D01*
X121569632Y-87167235D01*
X121569632Y-87167233D01*
X121568942Y-87160672D01*
X121509927Y-86979044D01*
X121502888Y-86966851D01*
X121447758Y-86871365D01*
X121414440Y-86813656D01*
X121409301Y-86807948D01*
X121291075Y-86676645D01*
X121291074Y-86676644D01*
X121286653Y-86671734D01*
X121143306Y-86567586D01*
X121137494Y-86563363D01*
X121137493Y-86563362D01*
X121132152Y-86559482D01*
X121126124Y-86556798D01*
X121126122Y-86556797D01*
X120963719Y-86484491D01*
X120963718Y-86484491D01*
X120957688Y-86481806D01*
X120951233Y-86480434D01*
X120951230Y-86480433D01*
X120876725Y-86464597D01*
X120875304Y-86464295D01*
X120812830Y-86430567D01*
X120778509Y-86368418D01*
X120775500Y-86341048D01*
X120775500Y-82862908D01*
X120776027Y-82851725D01*
X120777702Y-82844232D01*
X120775562Y-82776141D01*
X120775500Y-82772184D01*
X120775500Y-82744285D01*
X120774996Y-82740294D01*
X120774063Y-82728452D01*
X120774010Y-82726749D01*
X120772674Y-82684252D01*
X120770462Y-82676638D01*
X120770461Y-82676633D01*
X120767023Y-82664800D01*
X120763012Y-82645436D01*
X120761467Y-82633205D01*
X120760474Y-82625344D01*
X120757557Y-82617977D01*
X120757556Y-82617972D01*
X120744198Y-82584233D01*
X120740354Y-82573006D01*
X120732786Y-82546959D01*
X120728018Y-82530548D01*
X120717707Y-82513113D01*
X120709012Y-82495365D01*
X120701552Y-82476524D01*
X120675564Y-82440754D01*
X120669048Y-82430834D01*
X120650580Y-82399606D01*
X120650578Y-82399603D01*
X120646542Y-82392779D01*
X120632221Y-82378458D01*
X120619380Y-82363424D01*
X120612131Y-82353447D01*
X120607472Y-82347034D01*
X120573395Y-82318843D01*
X120564616Y-82310853D01*
X118669938Y-80416174D01*
X118635912Y-80353862D01*
X118633033Y-80327079D01*
X118633033Y-79378502D01*
X118653035Y-79310381D01*
X118706691Y-79263888D01*
X118776965Y-79253784D01*
X118803981Y-79260792D01*
X118872692Y-79287030D01*
X118877760Y-79288061D01*
X118877763Y-79288062D01*
X118935094Y-79299726D01*
X119091597Y-79331567D01*
X119096772Y-79331757D01*
X119096774Y-79331757D01*
X119309673Y-79339564D01*
X119309677Y-79339564D01*
X119314837Y-79339753D01*
X119319957Y-79339097D01*
X119319959Y-79339097D01*
X119531288Y-79312025D01*
X119531289Y-79312025D01*
X119536416Y-79311368D01*
X119541367Y-79309883D01*
X119541370Y-79309882D01*
X119680520Y-79268135D01*
X119751515Y-79267719D01*
X119805822Y-79299726D01*
X121543343Y-81037247D01*
X121550887Y-81045537D01*
X121555000Y-81052018D01*
X121560777Y-81057443D01*
X121604667Y-81098658D01*
X121607509Y-81101413D01*
X121627231Y-81121135D01*
X121630355Y-81123558D01*
X121630359Y-81123562D01*
X121630424Y-81123612D01*
X121639445Y-81131317D01*
X121671679Y-81161586D01*
X121678627Y-81165405D01*
X121678629Y-81165407D01*
X121689432Y-81171346D01*
X121705959Y-81182202D01*
X121715698Y-81189757D01*
X121715700Y-81189758D01*
X121721960Y-81194614D01*
X121762540Y-81212174D01*
X121773188Y-81217391D01*
X121780561Y-81221444D01*
X121811940Y-81238695D01*
X121819616Y-81240666D01*
X121819619Y-81240667D01*
X121831562Y-81243733D01*
X121850266Y-81250137D01*
X121856595Y-81252875D01*
X121911165Y-81298290D01*
X121932520Y-81365999D01*
X121926378Y-81407444D01*
X121917499Y-81434770D01*
X121917497Y-81434777D01*
X121915459Y-81441051D01*
X121914769Y-81447612D01*
X121914769Y-81447614D01*
X121913054Y-81463936D01*
X121895497Y-81630979D01*
X121915459Y-81820907D01*
X121974474Y-82002535D01*
X121977777Y-82008257D01*
X121977778Y-82008258D01*
X121991265Y-82031618D01*
X122069961Y-82167923D01*
X122143138Y-82249194D01*
X122173854Y-82313200D01*
X122175501Y-82333503D01*
X122175501Y-82598222D01*
X122174974Y-82609405D01*
X122173299Y-82616898D01*
X122173548Y-82624824D01*
X122173548Y-82624825D01*
X122175439Y-82684975D01*
X122175501Y-82688934D01*
X122175501Y-82716845D01*
X122175998Y-82720779D01*
X122175998Y-82720780D01*
X122176006Y-82720845D01*
X122176939Y-82732682D01*
X122178328Y-82776878D01*
X122183979Y-82796328D01*
X122187988Y-82815689D01*
X122190527Y-82835786D01*
X122193446Y-82843157D01*
X122193446Y-82843159D01*
X122206805Y-82876901D01*
X122210650Y-82888131D01*
X122213093Y-82896541D01*
X122222983Y-82930582D01*
X122227016Y-82937401D01*
X122227018Y-82937406D01*
X122233294Y-82948017D01*
X122241989Y-82965765D01*
X122249449Y-82984606D01*
X122254111Y-82991022D01*
X122254111Y-82991023D01*
X122275437Y-83020376D01*
X122281953Y-83030296D01*
X122304459Y-83068351D01*
X122318780Y-83082672D01*
X122331620Y-83097705D01*
X122343529Y-83114096D01*
X122360652Y-83128261D01*
X122377606Y-83142287D01*
X122386385Y-83150277D01*
X128338878Y-89102771D01*
X128372904Y-89165083D01*
X128375093Y-89178694D01*
X128380401Y-89229200D01*
X128391280Y-89332705D01*
X128392458Y-89343916D01*
X128451473Y-89525544D01*
X128454776Y-89531266D01*
X128454777Y-89531267D01*
X128530538Y-89662489D01*
X128547276Y-89731484D01*
X128530538Y-89788489D01*
X128456922Y-89915996D01*
X128451473Y-89925434D01*
X128392458Y-90107062D01*
X128391768Y-90113623D01*
X128391768Y-90113625D01*
X128377423Y-90250114D01*
X128372496Y-90296990D01*
X128373186Y-90303555D01*
X128388286Y-90447219D01*
X128392458Y-90486918D01*
X128451473Y-90668546D01*
X128454776Y-90674268D01*
X128454777Y-90674269D01*
X128539448Y-90820923D01*
X128556186Y-90889918D01*
X128539448Y-90946921D01*
X128534654Y-90955226D01*
X128476683Y-91055635D01*
X128469293Y-91068434D01*
X128410278Y-91250062D01*
X128409588Y-91256623D01*
X128409588Y-91256625D01*
X128399719Y-91350528D01*
X128390316Y-91439990D01*
X128391006Y-91446555D01*
X128408111Y-91609297D01*
X128410278Y-91629918D01*
X128469293Y-91811546D01*
X128472596Y-91817268D01*
X128472597Y-91817269D01*
X128489960Y-91847342D01*
X128528847Y-91914695D01*
X128539448Y-91933057D01*
X128556186Y-92002052D01*
X128539448Y-92059057D01*
X128459309Y-92197862D01*
X128451467Y-92211444D01*
X128392452Y-92393072D01*
X128391762Y-92399633D01*
X128391762Y-92399635D01*
X128386434Y-92450327D01*
X128372490Y-92583000D01*
X128373180Y-92589565D01*
X128391520Y-92764056D01*
X128392452Y-92772928D01*
X128451467Y-92954556D01*
X128546954Y-93119944D01*
X128551372Y-93124851D01*
X128551373Y-93124852D01*
X128662412Y-93248173D01*
X128674741Y-93261866D01*
X128740652Y-93309753D01*
X128816976Y-93365206D01*
X128829242Y-93374118D01*
X128835270Y-93376802D01*
X128835272Y-93376803D01*
X128983689Y-93442882D01*
X129003706Y-93451794D01*
X129097107Y-93471647D01*
X129184050Y-93490128D01*
X129184055Y-93490128D01*
X129190507Y-93491500D01*
X129381481Y-93491500D01*
X129387933Y-93490128D01*
X129387938Y-93490128D01*
X129474882Y-93471647D01*
X129568282Y-93451794D01*
X129588299Y-93442882D01*
X129736716Y-93376803D01*
X129736718Y-93376802D01*
X129742746Y-93374118D01*
X129755013Y-93365206D01*
X129831336Y-93309753D01*
X129897247Y-93261866D01*
X129909576Y-93248173D01*
X130020615Y-93124852D01*
X130020616Y-93124851D01*
X130025034Y-93119944D01*
X130120521Y-92954556D01*
X130179536Y-92772928D01*
X130180469Y-92764056D01*
X130189708Y-92676151D01*
X130196901Y-92607706D01*
X130223914Y-92542050D01*
X130233116Y-92531782D01*
X131510020Y-91254878D01*
X131518310Y-91247334D01*
X131524791Y-91243221D01*
X131571432Y-91193553D01*
X131574186Y-91190712D01*
X131593908Y-91170990D01*
X131596392Y-91167788D01*
X131604090Y-91158776D01*
X131628934Y-91132319D01*
X131634359Y-91126542D01*
X131644120Y-91108787D01*
X131654971Y-91092268D01*
X131667387Y-91076262D01*
X131670770Y-91068444D01*
X131684947Y-91035684D01*
X131690164Y-91025034D01*
X131711468Y-90986281D01*
X131716506Y-90966658D01*
X131722910Y-90947955D01*
X131727806Y-90936641D01*
X131727806Y-90936640D01*
X131730954Y-90929366D01*
X131732193Y-90921543D01*
X131732196Y-90921533D01*
X131737872Y-90885697D01*
X131740278Y-90874077D01*
X131749301Y-90838932D01*
X131749301Y-90838931D01*
X131751273Y-90831251D01*
X131751273Y-90810997D01*
X131752824Y-90791286D01*
X131754753Y-90779107D01*
X131755993Y-90771278D01*
X131754760Y-90758229D01*
X131751832Y-90727260D01*
X131751273Y-90715402D01*
X131751273Y-85827515D01*
X131751800Y-85816331D01*
X131753474Y-85808843D01*
X131751335Y-85740784D01*
X131751273Y-85736827D01*
X131751273Y-85708896D01*
X131750767Y-85704890D01*
X131749834Y-85693044D01*
X131748980Y-85665842D01*
X131748446Y-85648862D01*
X131742795Y-85629410D01*
X131738787Y-85610058D01*
X131737241Y-85597820D01*
X131737240Y-85597818D01*
X131736247Y-85589955D01*
X131719967Y-85548838D01*
X131716132Y-85537637D01*
X131703791Y-85495158D01*
X131699758Y-85488339D01*
X131699756Y-85488334D01*
X131693480Y-85477723D01*
X131684783Y-85459973D01*
X131677325Y-85441135D01*
X131651344Y-85405375D01*
X131644826Y-85395453D01*
X131626351Y-85364212D01*
X131626347Y-85364207D01*
X131622315Y-85357389D01*
X131607991Y-85343065D01*
X131595149Y-85328030D01*
X131583245Y-85311645D01*
X131549179Y-85283463D01*
X131540400Y-85275474D01*
X127947122Y-81682196D01*
X127913096Y-81619884D01*
X127910907Y-81606271D01*
X127894232Y-81447614D01*
X127894232Y-81447612D01*
X127893542Y-81441051D01*
X127891502Y-81434774D01*
X127890636Y-81430698D01*
X127896037Y-81359907D01*
X127938853Y-81303274D01*
X128005490Y-81278780D01*
X128013882Y-81278500D01*
X131192600Y-81278500D01*
X131260721Y-81298502D01*
X131307214Y-81352158D01*
X131317910Y-81417670D01*
X131316541Y-81430698D01*
X131310562Y-81487583D01*
X131311252Y-81494148D01*
X131328729Y-81660428D01*
X131330524Y-81677511D01*
X131389539Y-81859139D01*
X131485026Y-82024527D01*
X131489444Y-82029434D01*
X131489445Y-82029435D01*
X131598403Y-82150445D01*
X131612813Y-82166449D01*
X131667261Y-82206008D01*
X131726699Y-82249192D01*
X131767314Y-82278701D01*
X131773342Y-82281385D01*
X131773344Y-82281386D01*
X131909448Y-82341983D01*
X131941778Y-82356377D01*
X132021051Y-82373227D01*
X132122122Y-82394711D01*
X132122127Y-82394711D01*
X132128579Y-82396083D01*
X132184472Y-82396083D01*
X132252593Y-82416085D01*
X132273567Y-82432988D01*
X133314595Y-83474017D01*
X133348621Y-83536329D01*
X133351500Y-83563112D01*
X133351500Y-86282913D01*
X133331498Y-86351034D01*
X133299561Y-86384849D01*
X133251407Y-86419835D01*
X133246986Y-86424745D01*
X133246985Y-86424746D01*
X133170472Y-86509723D01*
X133123620Y-86561757D01*
X133081141Y-86635332D01*
X133034072Y-86716859D01*
X133028133Y-86727145D01*
X132969118Y-86908773D01*
X132968428Y-86915334D01*
X132968428Y-86915336D01*
X132966056Y-86937908D01*
X132949156Y-87098701D01*
X132949846Y-87105266D01*
X132967223Y-87270596D01*
X132969118Y-87288629D01*
X133028133Y-87470257D01*
X133031436Y-87475979D01*
X133031437Y-87475980D01*
X133073226Y-87548361D01*
X133089964Y-87617357D01*
X133073226Y-87674361D01*
X133042763Y-87727125D01*
X133028133Y-87752464D01*
X132969118Y-87934092D01*
X132968428Y-87940653D01*
X132968428Y-87940655D01*
X132964153Y-87981327D01*
X132949156Y-88124020D01*
X132949846Y-88130585D01*
X132965109Y-88275800D01*
X132969118Y-88313948D01*
X133028133Y-88495576D01*
X133073228Y-88573682D01*
X133089965Y-88642675D01*
X133073228Y-88699678D01*
X133028133Y-88777784D01*
X132969118Y-88959412D01*
X132968428Y-88965973D01*
X132968428Y-88965975D01*
X132953253Y-89110356D01*
X132949156Y-89149340D01*
X132949846Y-89155905D01*
X132962844Y-89279570D01*
X132969118Y-89339268D01*
X133028133Y-89520896D01*
X133031436Y-89526618D01*
X133031437Y-89526619D01*
X133069551Y-89592634D01*
X133086289Y-89661629D01*
X133069551Y-89718634D01*
X133065293Y-89726010D01*
X133023473Y-89798444D01*
X132964458Y-89980072D01*
X132963768Y-89986633D01*
X132963768Y-89986635D01*
X132953829Y-90081197D01*
X132944496Y-90170000D01*
X132945186Y-90176565D01*
X132961001Y-90327032D01*
X132964458Y-90359928D01*
X133023473Y-90541556D01*
X133026776Y-90547278D01*
X133026777Y-90547279D01*
X133038438Y-90567476D01*
X133118960Y-90706944D01*
X133123378Y-90711851D01*
X133123379Y-90711852D01*
X133221412Y-90820729D01*
X133246747Y-90848866D01*
X133303250Y-90889918D01*
X133376036Y-90942800D01*
X133401248Y-90961118D01*
X133407276Y-90963802D01*
X133407278Y-90963803D01*
X133569681Y-91036109D01*
X133575712Y-91038794D01*
X133669113Y-91058647D01*
X133756056Y-91077128D01*
X133756061Y-91077128D01*
X133762513Y-91078500D01*
X133953487Y-91078500D01*
X133959939Y-91077128D01*
X133959944Y-91077128D01*
X134046888Y-91058647D01*
X134140288Y-91038794D01*
X134146319Y-91036109D01*
X134308722Y-90963803D01*
X134308724Y-90963802D01*
X134314752Y-90961118D01*
X134339965Y-90942800D01*
X134450474Y-90862510D01*
X134469253Y-90848866D01*
X134484723Y-90831685D01*
X134545169Y-90794446D01*
X134562567Y-90790990D01*
X134574615Y-90789468D01*
X134574616Y-90789468D01*
X134582482Y-90788474D01*
X134589853Y-90785555D01*
X134589855Y-90785555D01*
X134623597Y-90772196D01*
X134634827Y-90768351D01*
X134669668Y-90758229D01*
X134669669Y-90758229D01*
X134677278Y-90756018D01*
X134684097Y-90751985D01*
X134684102Y-90751983D01*
X134694713Y-90745707D01*
X134712461Y-90737012D01*
X134731302Y-90729552D01*
X134767072Y-90703564D01*
X134776992Y-90697048D01*
X134808220Y-90678580D01*
X134808223Y-90678578D01*
X134815047Y-90674542D01*
X134829368Y-90660221D01*
X134844402Y-90647380D01*
X134860792Y-90635472D01*
X134888983Y-90601395D01*
X134896973Y-90592616D01*
X137361753Y-88127837D01*
X137370039Y-88120297D01*
X137376518Y-88116185D01*
X137423144Y-88066533D01*
X137425898Y-88063692D01*
X137445635Y-88043955D01*
X137448115Y-88040758D01*
X137455820Y-88031736D01*
X137486086Y-87999506D01*
X137489905Y-87992560D01*
X137489907Y-87992557D01*
X137495848Y-87981751D01*
X137506699Y-87965232D01*
X137514258Y-87955486D01*
X137519114Y-87949226D01*
X137522259Y-87941957D01*
X137522262Y-87941953D01*
X137536674Y-87908648D01*
X137541891Y-87897998D01*
X137563195Y-87859245D01*
X137568233Y-87839622D01*
X137574637Y-87820919D01*
X137579533Y-87809605D01*
X137579533Y-87809604D01*
X137582681Y-87802330D01*
X137583920Y-87794507D01*
X137583923Y-87794497D01*
X137589599Y-87758661D01*
X137592005Y-87747041D01*
X137601028Y-87711896D01*
X137601028Y-87711895D01*
X137603000Y-87704215D01*
X137603000Y-87683961D01*
X137604551Y-87664250D01*
X137606480Y-87652071D01*
X137607720Y-87644242D01*
X137603559Y-87600223D01*
X137603000Y-87588366D01*
X137603000Y-82173024D01*
X137623002Y-82104903D01*
X137635358Y-82088721D01*
X137708540Y-82007444D01*
X137804027Y-81842056D01*
X137863042Y-81660428D01*
X137864464Y-81646904D01*
X137882314Y-81477065D01*
X137883004Y-81470500D01*
X137877451Y-81417669D01*
X137890223Y-81347833D01*
X137938724Y-81295986D01*
X138002761Y-81278500D01*
X138622077Y-81278500D01*
X138690198Y-81298502D01*
X138736691Y-81352158D01*
X138748077Y-81404500D01*
X138748077Y-85016808D01*
X138747550Y-85027991D01*
X138745875Y-85035484D01*
X138746124Y-85043410D01*
X138746124Y-85043411D01*
X138748015Y-85103561D01*
X138748077Y-85107520D01*
X138748077Y-85135431D01*
X138748574Y-85139365D01*
X138748574Y-85139366D01*
X138748582Y-85139431D01*
X138749515Y-85151268D01*
X138750904Y-85195464D01*
X138756525Y-85214812D01*
X138756555Y-85214914D01*
X138760564Y-85234275D01*
X138763103Y-85254372D01*
X138766022Y-85261743D01*
X138766022Y-85261745D01*
X138779381Y-85295487D01*
X138783226Y-85306717D01*
X138789418Y-85328030D01*
X138795559Y-85349168D01*
X138799592Y-85355987D01*
X138799594Y-85355992D01*
X138805870Y-85366603D01*
X138814565Y-85384351D01*
X138822025Y-85403192D01*
X138826687Y-85409608D01*
X138826687Y-85409609D01*
X138848013Y-85438962D01*
X138854529Y-85448882D01*
X138871586Y-85477723D01*
X138877035Y-85486937D01*
X138891356Y-85501258D01*
X138904196Y-85516291D01*
X138916105Y-85532682D01*
X138927314Y-85541955D01*
X138950182Y-85560873D01*
X138958961Y-85568863D01*
X139437096Y-86046998D01*
X139471122Y-86109310D01*
X139474001Y-86136093D01*
X139474001Y-89863730D01*
X139473474Y-89874913D01*
X139471799Y-89882406D01*
X139472048Y-89890332D01*
X139472048Y-89890333D01*
X139473939Y-89950483D01*
X139474001Y-89954442D01*
X139474001Y-89982353D01*
X139474498Y-89986287D01*
X139474498Y-89986288D01*
X139474506Y-89986353D01*
X139475439Y-89998190D01*
X139476828Y-90042386D01*
X139481576Y-90058729D01*
X139482479Y-90061836D01*
X139486488Y-90081197D01*
X139489027Y-90101294D01*
X139491946Y-90108665D01*
X139491946Y-90108667D01*
X139505305Y-90142409D01*
X139509150Y-90153639D01*
X139519272Y-90188480D01*
X139521483Y-90196090D01*
X139525516Y-90202909D01*
X139525518Y-90202914D01*
X139531794Y-90213525D01*
X139540489Y-90231273D01*
X139547949Y-90250114D01*
X139552611Y-90256530D01*
X139552611Y-90256531D01*
X139573937Y-90285884D01*
X139580453Y-90295804D01*
X139602959Y-90333859D01*
X139617280Y-90348180D01*
X139630120Y-90363213D01*
X139642029Y-90379604D01*
X139676106Y-90407795D01*
X139684885Y-90415785D01*
X141800882Y-92531782D01*
X141834908Y-92594094D01*
X141837096Y-92607703D01*
X141844290Y-92676151D01*
X141853530Y-92764056D01*
X141854462Y-92772928D01*
X141913477Y-92954556D01*
X142008964Y-93119944D01*
X142013382Y-93124851D01*
X142013383Y-93124852D01*
X142124422Y-93248173D01*
X142136751Y-93261866D01*
X142202662Y-93309753D01*
X142278986Y-93365206D01*
X142291252Y-93374118D01*
X142297280Y-93376802D01*
X142297282Y-93376803D01*
X142445699Y-93442882D01*
X142465716Y-93451794D01*
X142559117Y-93471647D01*
X142646060Y-93490128D01*
X142646065Y-93490128D01*
X142652517Y-93491500D01*
X142843491Y-93491500D01*
X142849943Y-93490128D01*
X142849948Y-93490128D01*
X142936892Y-93471647D01*
X143030292Y-93451794D01*
X143050309Y-93442882D01*
X143198726Y-93376803D01*
X143198728Y-93376802D01*
X143204756Y-93374118D01*
X143217023Y-93365206D01*
X143293346Y-93309753D01*
X143359257Y-93261866D01*
X143371586Y-93248173D01*
X143482625Y-93124852D01*
X143482626Y-93124851D01*
X143487044Y-93119944D01*
X143582531Y-92954556D01*
X143641546Y-92772928D01*
X143642479Y-92764056D01*
X143660818Y-92589565D01*
X143661508Y-92583000D01*
X143647564Y-92450327D01*
X143642236Y-92399635D01*
X143642236Y-92399633D01*
X143641546Y-92393072D01*
X143582531Y-92211444D01*
X143574690Y-92197862D01*
X143542201Y-92141590D01*
X143503464Y-92074496D01*
X143486726Y-92005502D01*
X143503464Y-91948497D01*
X143579223Y-91817279D01*
X143579224Y-91817278D01*
X143582527Y-91811556D01*
X143641542Y-91629928D01*
X143643711Y-91609297D01*
X143660814Y-91446565D01*
X143661504Y-91440000D01*
X143652100Y-91350528D01*
X143642232Y-91256635D01*
X143642232Y-91256633D01*
X143641542Y-91250072D01*
X143582527Y-91068444D01*
X143539098Y-90993222D01*
X143514750Y-90951051D01*
X143503465Y-90931505D01*
X143486727Y-90862510D01*
X143503465Y-90805505D01*
X143504234Y-90804174D01*
X143557536Y-90711852D01*
X143579223Y-90674289D01*
X143579224Y-90674288D01*
X143582527Y-90668566D01*
X143641542Y-90486938D01*
X143649021Y-90415785D01*
X143660814Y-90303575D01*
X143661504Y-90297010D01*
X143653094Y-90216990D01*
X143642232Y-90113645D01*
X143642232Y-90113643D01*
X143641542Y-90107082D01*
X143582527Y-89925454D01*
X143540123Y-89852009D01*
X143523386Y-89783017D01*
X143540123Y-89726013D01*
X143582527Y-89652568D01*
X143641542Y-89470940D01*
X143644932Y-89438692D01*
X143660814Y-89287577D01*
X143661504Y-89281012D01*
X143648355Y-89155905D01*
X143642232Y-89097647D01*
X143642232Y-89097645D01*
X143641542Y-89091084D01*
X143582527Y-88909456D01*
X143574522Y-88895590D01*
X143536275Y-88829345D01*
X143487040Y-88744068D01*
X143454220Y-88707617D01*
X143363675Y-88607057D01*
X143363674Y-88607056D01*
X143359253Y-88602146D01*
X143204752Y-88489894D01*
X143198724Y-88487210D01*
X143198722Y-88487209D01*
X143036319Y-88414903D01*
X143036318Y-88414903D01*
X143030288Y-88412218D01*
X142936887Y-88392365D01*
X142849944Y-88373884D01*
X142849939Y-88373884D01*
X142843487Y-88372512D01*
X142787595Y-88372512D01*
X142719474Y-88352510D01*
X142698499Y-88335607D01*
X142275404Y-87912511D01*
X142241379Y-87850199D01*
X142238500Y-87823416D01*
X142238500Y-83962810D01*
X142239027Y-83951627D01*
X142240702Y-83944134D01*
X142238562Y-83876043D01*
X142238500Y-83872086D01*
X142238500Y-83844186D01*
X142237996Y-83840195D01*
X142237063Y-83828353D01*
X142235923Y-83792078D01*
X142235674Y-83784153D01*
X142233462Y-83776539D01*
X142233461Y-83776534D01*
X142230023Y-83764701D01*
X142226012Y-83745337D01*
X142224467Y-83733106D01*
X142223474Y-83725245D01*
X142220557Y-83717878D01*
X142220556Y-83717873D01*
X142207198Y-83684134D01*
X142203354Y-83672907D01*
X142193230Y-83638064D01*
X142191018Y-83630449D01*
X142180707Y-83613014D01*
X142172012Y-83595266D01*
X142164552Y-83576425D01*
X142138564Y-83540655D01*
X142132048Y-83530735D01*
X142113580Y-83499507D01*
X142113578Y-83499504D01*
X142109542Y-83492680D01*
X142095221Y-83478359D01*
X142082380Y-83463325D01*
X142075132Y-83453349D01*
X142070472Y-83446935D01*
X142036407Y-83418754D01*
X142027626Y-83410764D01*
X141513404Y-82896541D01*
X141479379Y-82834229D01*
X141476500Y-82807446D01*
X141476500Y-80891284D01*
X141496502Y-80823163D01*
X141550158Y-80776670D01*
X141620432Y-80766566D01*
X141663200Y-80780869D01*
X141687440Y-80794195D01*
X141695116Y-80796166D01*
X141695119Y-80796167D01*
X141707062Y-80799233D01*
X141725767Y-80805637D01*
X141744355Y-80813681D01*
X141752178Y-80814920D01*
X141752188Y-80814923D01*
X141788024Y-80820599D01*
X141799644Y-80823005D01*
X141834789Y-80832028D01*
X141842470Y-80834000D01*
X141862724Y-80834000D01*
X141882434Y-80835551D01*
X141902443Y-80838720D01*
X141910335Y-80837974D01*
X141935967Y-80835551D01*
X141946462Y-80834559D01*
X141958319Y-80834000D01*
X145415083Y-80834000D01*
X145483204Y-80854002D01*
X145504179Y-80870905D01*
X145834529Y-81201256D01*
X145842063Y-81209535D01*
X145846176Y-81216016D01*
X145866259Y-81234875D01*
X145895827Y-81262641D01*
X145898669Y-81265396D01*
X145918406Y-81285133D01*
X145921603Y-81287613D01*
X145930623Y-81295316D01*
X145962855Y-81325584D01*
X145969801Y-81329403D01*
X145969804Y-81329405D01*
X145980610Y-81335346D01*
X145997129Y-81346197D01*
X146013135Y-81358612D01*
X146020404Y-81361757D01*
X146020408Y-81361760D01*
X146053713Y-81376172D01*
X146064363Y-81381389D01*
X146103116Y-81402693D01*
X146110791Y-81404664D01*
X146110792Y-81404664D01*
X146122738Y-81407731D01*
X146141442Y-81414135D01*
X146149614Y-81417671D01*
X146160031Y-81422179D01*
X146167854Y-81423418D01*
X146167864Y-81423421D01*
X146203700Y-81429097D01*
X146215320Y-81431503D01*
X146250465Y-81440526D01*
X146258146Y-81442498D01*
X146278400Y-81442498D01*
X146298110Y-81444049D01*
X146318119Y-81447218D01*
X146326011Y-81446472D01*
X146362137Y-81443057D01*
X146373995Y-81442498D01*
X147382525Y-81442498D01*
X147450646Y-81462500D01*
X147497139Y-81516156D01*
X147507835Y-81581668D01*
X147503888Y-81619219D01*
X147523850Y-81809147D01*
X147582865Y-81990775D01*
X147586168Y-81996497D01*
X147586169Y-81996498D01*
X147599050Y-82018809D01*
X147678352Y-82156163D01*
X147751529Y-82237434D01*
X147782245Y-82301440D01*
X147783892Y-82321743D01*
X147783892Y-85811393D01*
X147763890Y-85879514D01*
X147746987Y-85900488D01*
X147488350Y-86159125D01*
X147426038Y-86193151D01*
X147399255Y-86196030D01*
X147343363Y-86196030D01*
X147336911Y-86197402D01*
X147336906Y-86197402D01*
X147249963Y-86215883D01*
X147156562Y-86235736D01*
X147150532Y-86238421D01*
X147150531Y-86238421D01*
X146988128Y-86310727D01*
X146988126Y-86310728D01*
X146982098Y-86313412D01*
X146976757Y-86317292D01*
X146976756Y-86317293D01*
X146970718Y-86321680D01*
X146827597Y-86425664D01*
X146823176Y-86430574D01*
X146823175Y-86430575D01*
X146709478Y-86556849D01*
X146699810Y-86567586D01*
X146644921Y-86662657D01*
X146610993Y-86721422D01*
X146604323Y-86732974D01*
X146545308Y-86914602D01*
X146525346Y-87104530D01*
X146526036Y-87111095D01*
X146544006Y-87282066D01*
X146545308Y-87294458D01*
X146604323Y-87476086D01*
X146607626Y-87481808D01*
X146607627Y-87481809D01*
X146655844Y-87565323D01*
X146672582Y-87634318D01*
X146655844Y-87691323D01*
X146616967Y-87758661D01*
X146612473Y-87766444D01*
X146553458Y-87948072D01*
X146552768Y-87954633D01*
X146552768Y-87954635D01*
X146543709Y-88040829D01*
X146533496Y-88138000D01*
X146534186Y-88144565D01*
X146551989Y-88313948D01*
X146553458Y-88327928D01*
X146612473Y-88509556D01*
X146615776Y-88515278D01*
X146615777Y-88515279D01*
X146635903Y-88550138D01*
X146689330Y-88642675D01*
X146691537Y-88646498D01*
X146708275Y-88715493D01*
X146691537Y-88772498D01*
X146620470Y-88895590D01*
X146612471Y-88909444D01*
X146553456Y-89091072D01*
X146552766Y-89097633D01*
X146552766Y-89097635D01*
X146542708Y-89193334D01*
X146533494Y-89281000D01*
X146534184Y-89287565D01*
X146550606Y-89443807D01*
X146553456Y-89470928D01*
X146612471Y-89652556D01*
X146691254Y-89789011D01*
X146691535Y-89789498D01*
X146708273Y-89858493D01*
X146691535Y-89915498D01*
X146618815Y-90041453D01*
X146612469Y-90052444D01*
X146553454Y-90234072D01*
X146552764Y-90240633D01*
X146552764Y-90240635D01*
X146547036Y-90295137D01*
X146533492Y-90424000D01*
X146534182Y-90430565D01*
X146552360Y-90603516D01*
X146553454Y-90613928D01*
X146612469Y-90795556D01*
X146615772Y-90801278D01*
X146615773Y-90801279D01*
X146633301Y-90831638D01*
X146707956Y-90960944D01*
X146712374Y-90965851D01*
X146712375Y-90965852D01*
X146811789Y-91076262D01*
X146835743Y-91102866D01*
X146893287Y-91144674D01*
X146959203Y-91192565D01*
X146990244Y-91215118D01*
X146996272Y-91217802D01*
X146996274Y-91217803D01*
X147083493Y-91256635D01*
X147164708Y-91292794D01*
X147239022Y-91308590D01*
X147345052Y-91331128D01*
X147345057Y-91331128D01*
X147351509Y-91332500D01*
X147542483Y-91332500D01*
X147548935Y-91331128D01*
X147548940Y-91331128D01*
X147654970Y-91308590D01*
X147729284Y-91292794D01*
X147810499Y-91256635D01*
X147897718Y-91217803D01*
X147897720Y-91217802D01*
X147903748Y-91215118D01*
X147934790Y-91192565D01*
X148000705Y-91144674D01*
X148058249Y-91102866D01*
X148082203Y-91076262D01*
X148181617Y-90965852D01*
X148181618Y-90965851D01*
X148186036Y-90960944D01*
X148260691Y-90831638D01*
X148278219Y-90801279D01*
X148278220Y-90801278D01*
X148281523Y-90795556D01*
X148340538Y-90613928D01*
X148341633Y-90603516D01*
X148351573Y-90508938D01*
X148357903Y-90448706D01*
X148384916Y-90383050D01*
X148394118Y-90372782D01*
X150168638Y-88598263D01*
X151968964Y-86797937D01*
X151977250Y-86790397D01*
X151983729Y-86786285D01*
X152030355Y-86736633D01*
X152033109Y-86733792D01*
X152052846Y-86714055D01*
X152055326Y-86710858D01*
X152063031Y-86701836D01*
X152087870Y-86675385D01*
X152093297Y-86669606D01*
X152097116Y-86662660D01*
X152097118Y-86662657D01*
X152103059Y-86651851D01*
X152113910Y-86635332D01*
X152121469Y-86625586D01*
X152126325Y-86619326D01*
X152129470Y-86612057D01*
X152129473Y-86612053D01*
X152143885Y-86578748D01*
X152149102Y-86568098D01*
X152170406Y-86529345D01*
X152175444Y-86509722D01*
X152181848Y-86491019D01*
X152186744Y-86479705D01*
X152186744Y-86479704D01*
X152189892Y-86472430D01*
X152191131Y-86464607D01*
X152191134Y-86464597D01*
X152196810Y-86428761D01*
X152199216Y-86417141D01*
X152208239Y-86381996D01*
X152208239Y-86381995D01*
X152210211Y-86374315D01*
X152210211Y-86354061D01*
X152211762Y-86334350D01*
X152213691Y-86322171D01*
X152214931Y-86314342D01*
X152210770Y-86270323D01*
X152210211Y-86258466D01*
X152210211Y-82333503D01*
X152230213Y-82265382D01*
X152242566Y-82249203D01*
X152261013Y-82228715D01*
X152321455Y-82191478D01*
X152392438Y-82192828D01*
X152443742Y-82223932D01*
X153173562Y-82953752D01*
X153207588Y-83016064D01*
X153210467Y-83042847D01*
X153210467Y-88931700D01*
X153209940Y-88942883D01*
X153208265Y-88950376D01*
X153208514Y-88958302D01*
X153208514Y-88958303D01*
X153210405Y-89018453D01*
X153210467Y-89022412D01*
X153210467Y-89050323D01*
X153210964Y-89054257D01*
X153210964Y-89054258D01*
X153210972Y-89054323D01*
X153211905Y-89066160D01*
X153213294Y-89110356D01*
X153217359Y-89124347D01*
X153218945Y-89129806D01*
X153222954Y-89149167D01*
X153225493Y-89169264D01*
X153228412Y-89176635D01*
X153228412Y-89176637D01*
X153241771Y-89210379D01*
X153245616Y-89221609D01*
X153253660Y-89249297D01*
X153257949Y-89264060D01*
X153261982Y-89270879D01*
X153261984Y-89270884D01*
X153268260Y-89281495D01*
X153276955Y-89299243D01*
X153284415Y-89318084D01*
X153289077Y-89324500D01*
X153289077Y-89324501D01*
X153310403Y-89353854D01*
X153316919Y-89363774D01*
X153326094Y-89379287D01*
X153339425Y-89401829D01*
X153353746Y-89416150D01*
X153366586Y-89431183D01*
X153378495Y-89447574D01*
X153384601Y-89452625D01*
X153412572Y-89475765D01*
X153421351Y-89483755D01*
X155072378Y-91134782D01*
X155106404Y-91197094D01*
X155108592Y-91210703D01*
X155112010Y-91243221D01*
X155122599Y-91343965D01*
X155125958Y-91375928D01*
X155184973Y-91557556D01*
X155280460Y-91722944D01*
X155284878Y-91727851D01*
X155284879Y-91727852D01*
X155367462Y-91819570D01*
X155408247Y-91864866D01*
X155507343Y-91936864D01*
X155531484Y-91954403D01*
X155562748Y-91977118D01*
X155568776Y-91979802D01*
X155568778Y-91979803D01*
X155731181Y-92052109D01*
X155737212Y-92054794D01*
X155816494Y-92071646D01*
X155917556Y-92093128D01*
X155917561Y-92093128D01*
X155924013Y-92094500D01*
X156114987Y-92094500D01*
X156121439Y-92093128D01*
X156121444Y-92093128D01*
X156222506Y-92071646D01*
X156301788Y-92054794D01*
X156307819Y-92052109D01*
X156470222Y-91979803D01*
X156470224Y-91979802D01*
X156476252Y-91977118D01*
X156507517Y-91954403D01*
X156531657Y-91936864D01*
X156630753Y-91864866D01*
X156671538Y-91819570D01*
X156754121Y-91727852D01*
X156754122Y-91727851D01*
X156758540Y-91722944D01*
X156854027Y-91557556D01*
X156913042Y-91375928D01*
X156916402Y-91343965D01*
X156932314Y-91192565D01*
X156933004Y-91186000D01*
X156924889Y-91108790D01*
X156913732Y-91002635D01*
X156913732Y-91002633D01*
X156913042Y-90996072D01*
X156854027Y-90814444D01*
X156758540Y-90649056D01*
X156746164Y-90635311D01*
X156715446Y-90571304D01*
X156724211Y-90500850D01*
X156746162Y-90466693D01*
X156754121Y-90457853D01*
X156754124Y-90457849D01*
X156758544Y-90452940D01*
X156779043Y-90417435D01*
X156850727Y-90293275D01*
X156850728Y-90293274D01*
X156854031Y-90287552D01*
X156913046Y-90105924D01*
X156914360Y-90093427D01*
X156932318Y-89922561D01*
X156933008Y-89915996D01*
X156922963Y-89820425D01*
X156913736Y-89732631D01*
X156913736Y-89732629D01*
X156913046Y-89726068D01*
X156854031Y-89544440D01*
X156846645Y-89531646D01*
X156811589Y-89470928D01*
X156758544Y-89379052D01*
X156743148Y-89361953D01*
X156712430Y-89297946D01*
X156721195Y-89227492D01*
X156743144Y-89193337D01*
X156752520Y-89182924D01*
X156848007Y-89017536D01*
X156907022Y-88835908D01*
X156912471Y-88784069D01*
X156926294Y-88652545D01*
X156926984Y-88645980D01*
X156912958Y-88512530D01*
X156907712Y-88462615D01*
X156907712Y-88462613D01*
X156907022Y-88456052D01*
X156848007Y-88274424D01*
X156812215Y-88212431D01*
X156795478Y-88143438D01*
X156812215Y-88086436D01*
X156881321Y-87966741D01*
X156940336Y-87785113D01*
X156944338Y-87747041D01*
X156959608Y-87601750D01*
X156960298Y-87595185D01*
X156950829Y-87505091D01*
X156941026Y-87411820D01*
X156941026Y-87411818D01*
X156940336Y-87405257D01*
X156881321Y-87223629D01*
X156785834Y-87058241D01*
X156731922Y-86998365D01*
X156662469Y-86921230D01*
X156662468Y-86921229D01*
X156658047Y-86916319D01*
X156503546Y-86804067D01*
X156497518Y-86801383D01*
X156497516Y-86801382D01*
X156371932Y-86745469D01*
X156355046Y-86737951D01*
X156300951Y-86691971D01*
X156280295Y-86622844D01*
X156280295Y-82573562D01*
X156280822Y-82562379D01*
X156282497Y-82554886D01*
X156281804Y-82532824D01*
X156280357Y-82486809D01*
X156280295Y-82482850D01*
X156280295Y-82454939D01*
X156279790Y-82450939D01*
X156278857Y-82439096D01*
X156278598Y-82430834D01*
X156277468Y-82394906D01*
X156271816Y-82375452D01*
X156267808Y-82356095D01*
X156266263Y-82343865D01*
X156266263Y-82343864D01*
X156265269Y-82335998D01*
X156258477Y-82318843D01*
X156248991Y-82294883D01*
X156245146Y-82283653D01*
X156235024Y-82248812D01*
X156235024Y-82248811D01*
X156232813Y-82241202D01*
X156228780Y-82234383D01*
X156228778Y-82234378D01*
X156222502Y-82223767D01*
X156213807Y-82206019D01*
X156206347Y-82187178D01*
X156180359Y-82151408D01*
X156173843Y-82141488D01*
X156155375Y-82110260D01*
X156155373Y-82110257D01*
X156151337Y-82103433D01*
X156137016Y-82089112D01*
X156124175Y-82074078D01*
X156120980Y-82069680D01*
X156112267Y-82057688D01*
X156078190Y-82029497D01*
X156069411Y-82021507D01*
X154604083Y-80556179D01*
X153199144Y-79151239D01*
X153165119Y-79088929D01*
X153170184Y-79018114D01*
X153199300Y-78972895D01*
X153234000Y-78938316D01*
X153311096Y-78861489D01*
X153441453Y-78680077D01*
X153442776Y-78681028D01*
X153489645Y-78637857D01*
X153559580Y-78625625D01*
X153625026Y-78653144D01*
X153652875Y-78684994D01*
X153712987Y-78783088D01*
X153859250Y-78951938D01*
X154031126Y-79094632D01*
X154224000Y-79207338D01*
X154228825Y-79209180D01*
X154228826Y-79209181D01*
X154259486Y-79220889D01*
X154432692Y-79287030D01*
X154437760Y-79288061D01*
X154437763Y-79288062D01*
X154495094Y-79299726D01*
X154651597Y-79331567D01*
X154656772Y-79331757D01*
X154656774Y-79331757D01*
X154869673Y-79339564D01*
X154869677Y-79339564D01*
X154874837Y-79339753D01*
X154879957Y-79339097D01*
X154879959Y-79339097D01*
X155091288Y-79312025D01*
X155091289Y-79312025D01*
X155096416Y-79311368D01*
X155101369Y-79309882D01*
X155305429Y-79248661D01*
X155305434Y-79248659D01*
X155310384Y-79247174D01*
X155510994Y-79148896D01*
X155692860Y-79019173D01*
X155851096Y-78861489D01*
X155981453Y-78680077D01*
X155982776Y-78681028D01*
X156029645Y-78637857D01*
X156099580Y-78625625D01*
X156165026Y-78653144D01*
X156192875Y-78684994D01*
X156252987Y-78783088D01*
X156399250Y-78951938D01*
X156571126Y-79094632D01*
X156764000Y-79207338D01*
X156768825Y-79209180D01*
X156768826Y-79209181D01*
X156799486Y-79220889D01*
X156972692Y-79287030D01*
X156977760Y-79288061D01*
X156977763Y-79288062D01*
X157035094Y-79299726D01*
X157191597Y-79331567D01*
X157196772Y-79331757D01*
X157196774Y-79331757D01*
X157409673Y-79339564D01*
X157409677Y-79339564D01*
X157414837Y-79339753D01*
X157419957Y-79339097D01*
X157419959Y-79339097D01*
X157631288Y-79312025D01*
X157631289Y-79312025D01*
X157636416Y-79311368D01*
X157641369Y-79309882D01*
X157845429Y-79248661D01*
X157845434Y-79248659D01*
X157850384Y-79247174D01*
X158050994Y-79148896D01*
X158232860Y-79019173D01*
X158341091Y-78911319D01*
X158403462Y-78877404D01*
X158474268Y-78882592D01*
X158531030Y-78925238D01*
X158548012Y-78956341D01*
X158592385Y-79074705D01*
X158679739Y-79191261D01*
X158796295Y-79278615D01*
X158932684Y-79329745D01*
X158994866Y-79336500D01*
X160791134Y-79336500D01*
X160853316Y-79329745D01*
X160989705Y-79278615D01*
X161106261Y-79191261D01*
X161193615Y-79074705D01*
X161244745Y-78938316D01*
X161251500Y-78876134D01*
X161251500Y-77079866D01*
X161244745Y-77017684D01*
X161193615Y-76881295D01*
X161106261Y-76764739D01*
X160989705Y-76677385D01*
X160853316Y-76626255D01*
X160791134Y-76619500D01*
X158994866Y-76619500D01*
X158932684Y-76626255D01*
X158796295Y-76677385D01*
X158679739Y-76764739D01*
X158592385Y-76881295D01*
X158589233Y-76889703D01*
X158547919Y-76999907D01*
X158505277Y-77056671D01*
X158438716Y-77081371D01*
X158369367Y-77066163D01*
X158336743Y-77040476D01*
X158286151Y-76984875D01*
X158286142Y-76984866D01*
X158282670Y-76981051D01*
X158278619Y-76977852D01*
X158278615Y-76977848D01*
X158111414Y-76845800D01*
X158111410Y-76845798D01*
X158107359Y-76842598D01*
X157911789Y-76734638D01*
X157906920Y-76732914D01*
X157906916Y-76732912D01*
X157706087Y-76661795D01*
X157706083Y-76661794D01*
X157701212Y-76660069D01*
X157696119Y-76659162D01*
X157696116Y-76659161D01*
X157486373Y-76621800D01*
X157486367Y-76621799D01*
X157481284Y-76620894D01*
X157407452Y-76619992D01*
X157263081Y-76618228D01*
X157263079Y-76618228D01*
X157257911Y-76618165D01*
X157037091Y-76651955D01*
X156824756Y-76721357D01*
X156794443Y-76737137D01*
X156699305Y-76786663D01*
X156626607Y-76824507D01*
X156622474Y-76827610D01*
X156622471Y-76827612D01*
X156523790Y-76901704D01*
X156447965Y-76958635D01*
X156408525Y-76999907D01*
X156354280Y-77056671D01*
X156293629Y-77120138D01*
X156186201Y-77277621D01*
X156131293Y-77322621D01*
X156060768Y-77330792D01*
X155997021Y-77299538D01*
X155976324Y-77275054D01*
X155895822Y-77150617D01*
X155895820Y-77150614D01*
X155893014Y-77146277D01*
X155742670Y-76981051D01*
X155738619Y-76977852D01*
X155738615Y-76977848D01*
X155571414Y-76845800D01*
X155571410Y-76845798D01*
X155567359Y-76842598D01*
X155371789Y-76734638D01*
X155366920Y-76732914D01*
X155366916Y-76732912D01*
X155166087Y-76661795D01*
X155166083Y-76661794D01*
X155161212Y-76660069D01*
X155156119Y-76659162D01*
X155156116Y-76659161D01*
X154946373Y-76621800D01*
X154946367Y-76621799D01*
X154941284Y-76620894D01*
X154867452Y-76619992D01*
X154723081Y-76618228D01*
X154723079Y-76618228D01*
X154717911Y-76618165D01*
X154497091Y-76651955D01*
X154284756Y-76721357D01*
X154254443Y-76737137D01*
X154159305Y-76786663D01*
X154086607Y-76824507D01*
X154082474Y-76827610D01*
X154082471Y-76827612D01*
X153983790Y-76901704D01*
X153907965Y-76958635D01*
X153868525Y-76999907D01*
X153814280Y-77056671D01*
X153753629Y-77120138D01*
X153646201Y-77277621D01*
X153591293Y-77322621D01*
X153520768Y-77330792D01*
X153457021Y-77299538D01*
X153436324Y-77275054D01*
X153355822Y-77150617D01*
X153355820Y-77150614D01*
X153353014Y-77146277D01*
X153202670Y-76981051D01*
X153198619Y-76977852D01*
X153198615Y-76977848D01*
X153031414Y-76845800D01*
X153031410Y-76845798D01*
X153027359Y-76842598D01*
X152831789Y-76734638D01*
X152826920Y-76732914D01*
X152826916Y-76732912D01*
X152626087Y-76661795D01*
X152626083Y-76661794D01*
X152621212Y-76660069D01*
X152616119Y-76659162D01*
X152616116Y-76659161D01*
X152406373Y-76621800D01*
X152406367Y-76621799D01*
X152401284Y-76620894D01*
X152327452Y-76619992D01*
X152183081Y-76618228D01*
X152183079Y-76618228D01*
X152177911Y-76618165D01*
X151957091Y-76651955D01*
X151744756Y-76721357D01*
X151714443Y-76737137D01*
X151619305Y-76786663D01*
X151546607Y-76824507D01*
X151542474Y-76827610D01*
X151542471Y-76827612D01*
X151443790Y-76901704D01*
X151367965Y-76958635D01*
X151328525Y-76999907D01*
X151274280Y-77056671D01*
X151213629Y-77120138D01*
X151106201Y-77277621D01*
X151051293Y-77322621D01*
X150980768Y-77330792D01*
X150917021Y-77299538D01*
X150896324Y-77275054D01*
X150815822Y-77150617D01*
X150815820Y-77150614D01*
X150813014Y-77146277D01*
X150664345Y-76982892D01*
X150664344Y-76982890D01*
X150662670Y-76981051D01*
X150663050Y-76980705D01*
X150628565Y-76922467D01*
X150631162Y-76851518D01*
X150661584Y-76802320D01*
X152031999Y-75431905D01*
X152094311Y-75397879D01*
X152125711Y-75395085D01*
X152329673Y-75402564D01*
X152329677Y-75402564D01*
X152334837Y-75402753D01*
X152339957Y-75402097D01*
X152339959Y-75402097D01*
X152551288Y-75375025D01*
X152551289Y-75375025D01*
X152556416Y-75374368D01*
X152595434Y-75362662D01*
X152765429Y-75311661D01*
X152765434Y-75311659D01*
X152770384Y-75310174D01*
X152970994Y-75211896D01*
X153152860Y-75082173D01*
X153159555Y-75075502D01*
X153307435Y-74928137D01*
X153311096Y-74924489D01*
X153441453Y-74743077D01*
X153442776Y-74744028D01*
X153489645Y-74700857D01*
X153559580Y-74688625D01*
X153625026Y-74716144D01*
X153652875Y-74747994D01*
X153712987Y-74846088D01*
X153859250Y-75014938D01*
X154031126Y-75157632D01*
X154224000Y-75270338D01*
X154228825Y-75272180D01*
X154228826Y-75272181D01*
X154270537Y-75288109D01*
X154432692Y-75350030D01*
X154437760Y-75351061D01*
X154437763Y-75351062D01*
X154533880Y-75370617D01*
X154651597Y-75394567D01*
X154656772Y-75394757D01*
X154656774Y-75394757D01*
X154869673Y-75402564D01*
X154869677Y-75402564D01*
X154874837Y-75402753D01*
X154879957Y-75402097D01*
X154879959Y-75402097D01*
X155091288Y-75375025D01*
X155091289Y-75375025D01*
X155096416Y-75374368D01*
X155135434Y-75362662D01*
X155305429Y-75311661D01*
X155305434Y-75311659D01*
X155310384Y-75310174D01*
X155510994Y-75211896D01*
X155692860Y-75082173D01*
X155699555Y-75075502D01*
X155847435Y-74928137D01*
X155851096Y-74924489D01*
X155981453Y-74743077D01*
X156002320Y-74700857D01*
X156078136Y-74547453D01*
X156078137Y-74547451D01*
X156080430Y-74542811D01*
X156145370Y-74329069D01*
X156174529Y-74107590D01*
X156176156Y-74041000D01*
X156157852Y-73818361D01*
X156103431Y-73601702D01*
X156014354Y-73396840D01*
X155893014Y-73209277D01*
X155889532Y-73205450D01*
X155745798Y-73047488D01*
X155714746Y-72983642D01*
X155723141Y-72913143D01*
X155768317Y-72858375D01*
X155794761Y-72844706D01*
X155901297Y-72804767D01*
X155909705Y-72801615D01*
X156026261Y-72714261D01*
X156113615Y-72597705D01*
X156164745Y-72461316D01*
X156171500Y-72399134D01*
X156171500Y-70602866D01*
X156164745Y-70540684D01*
X156113615Y-70404295D01*
X156026261Y-70287739D01*
X155909705Y-70200385D01*
X155773316Y-70149255D01*
X155711134Y-70142500D01*
X153914866Y-70142500D01*
X153852684Y-70149255D01*
X153716295Y-70200385D01*
X153599739Y-70287739D01*
X153512385Y-70404295D01*
X153509233Y-70412703D01*
X153467919Y-70522907D01*
X153425277Y-70579671D01*
X153358716Y-70604371D01*
X153289367Y-70589163D01*
X153256743Y-70563476D01*
X153206151Y-70507875D01*
X153206142Y-70507866D01*
X153202670Y-70504051D01*
X153198619Y-70500852D01*
X153198615Y-70500848D01*
X153031414Y-70368800D01*
X153031410Y-70368798D01*
X153027359Y-70365598D01*
X153004397Y-70352922D01*
X152965835Y-70331635D01*
X152831789Y-70257638D01*
X152826920Y-70255914D01*
X152826916Y-70255912D01*
X152626087Y-70184795D01*
X152626083Y-70184794D01*
X152621212Y-70183069D01*
X152616119Y-70182162D01*
X152616116Y-70182161D01*
X152406373Y-70144800D01*
X152406367Y-70144799D01*
X152401284Y-70143894D01*
X152327452Y-70142992D01*
X152183081Y-70141228D01*
X152183079Y-70141228D01*
X152177911Y-70141165D01*
X151957091Y-70174955D01*
X151744756Y-70244357D01*
X151546607Y-70347507D01*
X151542474Y-70350610D01*
X151542471Y-70350612D01*
X151372100Y-70478530D01*
X151367965Y-70481635D01*
X151330531Y-70520807D01*
X151274280Y-70579671D01*
X151213629Y-70643138D01*
X151106201Y-70800621D01*
X151051293Y-70845621D01*
X150980768Y-70853792D01*
X150917021Y-70822538D01*
X150896324Y-70798054D01*
X150815822Y-70673617D01*
X150815820Y-70673614D01*
X150813014Y-70669277D01*
X150662670Y-70504051D01*
X150658619Y-70500852D01*
X150658615Y-70500848D01*
X150491414Y-70368800D01*
X150491410Y-70368798D01*
X150487359Y-70365598D01*
X150464397Y-70352922D01*
X150425835Y-70331635D01*
X150291789Y-70257638D01*
X150286920Y-70255914D01*
X150286916Y-70255912D01*
X150086087Y-70184795D01*
X150086083Y-70184794D01*
X150081212Y-70183069D01*
X150076119Y-70182162D01*
X150076116Y-70182161D01*
X149866373Y-70144800D01*
X149866367Y-70144799D01*
X149861284Y-70143894D01*
X149787452Y-70142992D01*
X149643081Y-70141228D01*
X149643079Y-70141228D01*
X149637911Y-70141165D01*
X149417091Y-70174955D01*
X149204756Y-70244357D01*
X149006607Y-70347507D01*
X149002474Y-70350610D01*
X149002471Y-70350612D01*
X148832100Y-70478530D01*
X148827965Y-70481635D01*
X148790531Y-70520807D01*
X148734280Y-70579671D01*
X148673629Y-70643138D01*
X148566201Y-70800621D01*
X148511293Y-70845621D01*
X148440768Y-70853792D01*
X148377021Y-70822538D01*
X148356324Y-70798054D01*
X148275822Y-70673617D01*
X148275820Y-70673614D01*
X148273014Y-70669277D01*
X148122670Y-70504051D01*
X148118619Y-70500852D01*
X148118615Y-70500848D01*
X147951414Y-70368800D01*
X147951410Y-70368798D01*
X147947359Y-70365598D01*
X147924397Y-70352922D01*
X147885835Y-70331635D01*
X147751789Y-70257638D01*
X147746920Y-70255914D01*
X147746916Y-70255912D01*
X147546087Y-70184795D01*
X147546083Y-70184794D01*
X147541212Y-70183069D01*
X147536119Y-70182162D01*
X147536116Y-70182161D01*
X147326373Y-70144800D01*
X147326367Y-70144799D01*
X147321284Y-70143894D01*
X147247452Y-70142992D01*
X147103081Y-70141228D01*
X147103079Y-70141228D01*
X147097911Y-70141165D01*
X146877091Y-70174955D01*
X146664756Y-70244357D01*
X146466607Y-70347507D01*
X146462474Y-70350610D01*
X146462471Y-70350612D01*
X146292100Y-70478530D01*
X146287965Y-70481635D01*
X146250531Y-70520807D01*
X146194280Y-70579671D01*
X146133629Y-70643138D01*
X146026201Y-70800621D01*
X145971293Y-70845621D01*
X145900768Y-70853792D01*
X145837021Y-70822538D01*
X145816324Y-70798054D01*
X145735822Y-70673617D01*
X145735820Y-70673614D01*
X145733014Y-70669277D01*
X145582670Y-70504051D01*
X145578619Y-70500852D01*
X145578615Y-70500848D01*
X145411414Y-70368800D01*
X145411410Y-70368798D01*
X145407359Y-70365598D01*
X145384397Y-70352922D01*
X145345835Y-70331635D01*
X145211789Y-70257638D01*
X145206920Y-70255914D01*
X145206916Y-70255912D01*
X145006087Y-70184795D01*
X145006083Y-70184794D01*
X145001212Y-70183069D01*
X144996119Y-70182162D01*
X144996116Y-70182161D01*
X144786373Y-70144800D01*
X144786367Y-70144799D01*
X144781284Y-70143894D01*
X144707452Y-70142992D01*
X144563081Y-70141228D01*
X144563079Y-70141228D01*
X144557911Y-70141165D01*
X144337091Y-70174955D01*
X144124756Y-70244357D01*
X143926607Y-70347507D01*
X143922474Y-70350610D01*
X143922471Y-70350612D01*
X143752100Y-70478530D01*
X143747965Y-70481635D01*
X143710531Y-70520807D01*
X143654280Y-70579671D01*
X143593629Y-70643138D01*
X143486201Y-70800621D01*
X143431293Y-70845621D01*
X143360768Y-70853792D01*
X143297021Y-70822538D01*
X143276324Y-70798054D01*
X143195822Y-70673617D01*
X143195820Y-70673614D01*
X143193014Y-70669277D01*
X143042670Y-70504051D01*
X143038619Y-70500852D01*
X143038615Y-70500848D01*
X142871414Y-70368800D01*
X142871410Y-70368798D01*
X142867359Y-70365598D01*
X142844397Y-70352922D01*
X142805835Y-70331635D01*
X142671789Y-70257638D01*
X142666920Y-70255914D01*
X142666916Y-70255912D01*
X142466087Y-70184795D01*
X142466083Y-70184794D01*
X142461212Y-70183069D01*
X142456119Y-70182162D01*
X142456116Y-70182161D01*
X142246373Y-70144800D01*
X142246367Y-70144799D01*
X142241284Y-70143894D01*
X142167452Y-70142992D01*
X142023081Y-70141228D01*
X142023079Y-70141228D01*
X142017911Y-70141165D01*
X141797091Y-70174955D01*
X141584756Y-70244357D01*
X141386607Y-70347507D01*
X141384175Y-70349333D01*
X141316469Y-70368535D01*
X141248536Y-70347903D01*
X141228539Y-70331635D01*
X139783152Y-68886247D01*
X139775612Y-68877961D01*
X139771500Y-68871482D01*
X139721848Y-68824856D01*
X139719007Y-68822102D01*
X139699270Y-68802365D01*
X139696073Y-68799885D01*
X139687051Y-68792180D01*
X139673622Y-68779569D01*
X139654821Y-68761914D01*
X139647875Y-68758095D01*
X139647872Y-68758093D01*
X139637066Y-68752152D01*
X139620547Y-68741301D01*
X139620083Y-68740941D01*
X139604541Y-68728886D01*
X139597272Y-68725741D01*
X139597268Y-68725738D01*
X139563963Y-68711326D01*
X139553313Y-68706109D01*
X139514560Y-68684805D01*
X139494937Y-68679767D01*
X139476234Y-68673363D01*
X139464920Y-68668467D01*
X139464919Y-68668467D01*
X139457645Y-68665319D01*
X139449822Y-68664080D01*
X139449812Y-68664077D01*
X139413976Y-68658401D01*
X139402356Y-68655995D01*
X139367211Y-68646972D01*
X139367210Y-68646972D01*
X139359530Y-68645000D01*
X139339276Y-68645000D01*
X139319565Y-68643449D01*
X139307386Y-68641520D01*
X139299557Y-68640280D01*
X139270286Y-68643047D01*
X139255539Y-68644441D01*
X139243681Y-68645000D01*
X118252267Y-68645000D01*
X118241084Y-68644473D01*
X118233591Y-68642798D01*
X118225665Y-68643047D01*
X118225664Y-68643047D01*
X118165514Y-68644938D01*
X118161555Y-68645000D01*
X118133644Y-68645000D01*
X118129710Y-68645497D01*
X118129709Y-68645497D01*
X118129644Y-68645505D01*
X118117807Y-68646438D01*
X118085549Y-68647452D01*
X118081530Y-68647578D01*
X118073611Y-68647827D01*
X118054157Y-68653479D01*
X118034800Y-68657487D01*
X118022570Y-68659032D01*
X118022569Y-68659032D01*
X118014703Y-68660026D01*
X118007332Y-68662945D01*
X118007330Y-68662945D01*
X117973588Y-68676304D01*
X117962358Y-68680149D01*
X117927517Y-68690271D01*
X117927516Y-68690271D01*
X117919907Y-68692482D01*
X117913088Y-68696515D01*
X117913083Y-68696517D01*
X117902472Y-68702793D01*
X117884724Y-68711488D01*
X117865883Y-68718948D01*
X117859467Y-68723610D01*
X117859466Y-68723610D01*
X117830113Y-68744936D01*
X117820193Y-68751452D01*
X117788965Y-68769920D01*
X117788962Y-68769922D01*
X117782138Y-68773958D01*
X117767817Y-68788279D01*
X117752784Y-68801119D01*
X117736393Y-68813028D01*
X117727717Y-68823516D01*
X117708202Y-68847105D01*
X117700212Y-68855884D01*
X114161747Y-72394348D01*
X114153461Y-72401888D01*
X114146982Y-72406000D01*
X114141557Y-72411777D01*
X114100357Y-72455651D01*
X114097602Y-72458493D01*
X114077865Y-72478230D01*
X114075385Y-72481427D01*
X114067682Y-72490447D01*
X114037414Y-72522679D01*
X114033595Y-72529625D01*
X114033593Y-72529628D01*
X114027652Y-72540434D01*
X114016801Y-72556953D01*
X114004386Y-72572959D01*
X114001241Y-72580228D01*
X114001238Y-72580232D01*
X113986826Y-72613537D01*
X113981609Y-72624187D01*
X113960305Y-72662940D01*
X113958334Y-72670615D01*
X113958334Y-72670616D01*
X113955267Y-72682562D01*
X113948863Y-72701266D01*
X113940819Y-72719855D01*
X113939580Y-72727678D01*
X113939577Y-72727688D01*
X113933901Y-72763524D01*
X113931495Y-72775144D01*
X113922472Y-72810289D01*
X113920500Y-72817970D01*
X113920500Y-72838224D01*
X113918949Y-72857934D01*
X113915780Y-72877943D01*
X113916526Y-72885835D01*
X113919941Y-72921961D01*
X113920500Y-72933819D01*
X113920500Y-79042233D01*
X113919973Y-79053416D01*
X113918298Y-79060909D01*
X113918547Y-79068835D01*
X113918547Y-79068836D01*
X113920438Y-79128986D01*
X113920500Y-79132945D01*
X113920500Y-79160856D01*
X113920997Y-79164790D01*
X113920997Y-79164791D01*
X113921005Y-79164856D01*
X113921938Y-79176693D01*
X113923327Y-79220889D01*
X113928978Y-79240339D01*
X113932987Y-79259700D01*
X113934286Y-79269978D01*
X113935526Y-79279797D01*
X113938445Y-79287168D01*
X113938445Y-79287170D01*
X113951804Y-79320912D01*
X113955649Y-79332142D01*
X113967982Y-79374593D01*
X113972015Y-79381412D01*
X113972017Y-79381417D01*
X113978293Y-79392028D01*
X113986988Y-79409776D01*
X113994448Y-79428617D01*
X113999110Y-79435033D01*
X113999110Y-79435034D01*
X114020436Y-79464387D01*
X114026952Y-79474307D01*
X114049458Y-79512362D01*
X114063779Y-79526683D01*
X114076619Y-79541716D01*
X114088528Y-79558107D01*
X114094634Y-79563158D01*
X114122605Y-79586298D01*
X114131384Y-79594288D01*
X114878501Y-80341405D01*
X114912527Y-80403717D01*
X114907462Y-80474532D01*
X114864915Y-80531368D01*
X114798395Y-80556179D01*
X114789406Y-80556500D01*
X113655866Y-80556500D01*
X113593684Y-80563255D01*
X113457295Y-80614385D01*
X113340739Y-80701739D01*
X113253385Y-80818295D01*
X113202255Y-80954684D01*
X113195500Y-81016866D01*
X113195500Y-82813134D01*
X112331500Y-82813134D01*
X112331500Y-70782581D01*
X112351502Y-70714460D01*
X112405158Y-70667967D01*
X112475432Y-70657863D01*
X112539330Y-70686770D01*
X112571751Y-70714460D01*
X112621009Y-70756530D01*
X112829739Y-70884440D01*
X112834309Y-70886333D01*
X112834313Y-70886335D01*
X113051336Y-70976228D01*
X113055909Y-70978122D01*
X113139537Y-70998199D01*
X113289137Y-71034116D01*
X113289143Y-71034117D01*
X113293950Y-71035271D01*
X113538000Y-71054478D01*
X113782050Y-71035271D01*
X113786857Y-71034117D01*
X113786863Y-71034116D01*
X113936463Y-70998199D01*
X114020091Y-70978122D01*
X114024664Y-70976228D01*
X114241687Y-70886335D01*
X114241691Y-70886333D01*
X114246261Y-70884440D01*
X114454991Y-70756530D01*
X114458751Y-70753318D01*
X114458756Y-70753315D01*
X114637380Y-70600755D01*
X114641142Y-70597542D01*
X114703472Y-70524563D01*
X114796915Y-70415156D01*
X114796918Y-70415151D01*
X114800130Y-70411391D01*
X114928040Y-70202661D01*
X114930289Y-70197233D01*
X115019828Y-69981064D01*
X115019829Y-69981062D01*
X115021722Y-69976491D01*
X115072729Y-69764034D01*
X115077716Y-69743263D01*
X115077717Y-69743257D01*
X115078871Y-69738450D01*
X115098078Y-69494400D01*
X115078871Y-69250350D01*
X115077717Y-69245543D01*
X115077716Y-69245537D01*
X115022877Y-69017121D01*
X115021722Y-69012309D01*
X115006688Y-68976014D01*
X114929935Y-68790713D01*
X114929933Y-68790709D01*
X114928040Y-68786139D01*
X114800130Y-68577409D01*
X114796918Y-68573649D01*
X114796915Y-68573644D01*
X114708676Y-68470330D01*
X114679645Y-68405541D01*
X114690250Y-68335341D01*
X114737125Y-68282018D01*
X114804487Y-68262500D01*
X162154846Y-68262500D01*
X162222967Y-68282502D01*
G37*
%TD.AperFunction*%
%TA.AperFunction,Conductor*%
G36*
X120485732Y-70832024D02*
G01*
X120532225Y-70885680D01*
X120542329Y-70955954D01*
X120531899Y-70991072D01*
X120513688Y-71030305D01*
X120453989Y-71245570D01*
X120430251Y-71467695D01*
X120443110Y-71690715D01*
X120444247Y-71695761D01*
X120444248Y-71695767D01*
X120468304Y-71802508D01*
X120492222Y-71908639D01*
X120524723Y-71988680D01*
X120540525Y-72027596D01*
X120547621Y-72098237D01*
X120515399Y-72161501D01*
X120454089Y-72197301D01*
X120423782Y-72201000D01*
X119522268Y-72201000D01*
X119511085Y-72200473D01*
X119503592Y-72198798D01*
X119495666Y-72199047D01*
X119495665Y-72199047D01*
X119435502Y-72200938D01*
X119431544Y-72201000D01*
X119403644Y-72201000D01*
X119399654Y-72201504D01*
X119387820Y-72202436D01*
X119343611Y-72203826D01*
X119335997Y-72206038D01*
X119335992Y-72206039D01*
X119324159Y-72209477D01*
X119304796Y-72213488D01*
X119284703Y-72216026D01*
X119277336Y-72218943D01*
X119277331Y-72218944D01*
X119243592Y-72232302D01*
X119232365Y-72236146D01*
X119189907Y-72248482D01*
X119183081Y-72252519D01*
X119172472Y-72258793D01*
X119154724Y-72267488D01*
X119135883Y-72274948D01*
X119129467Y-72279610D01*
X119129466Y-72279610D01*
X119100113Y-72300936D01*
X119090193Y-72307452D01*
X119058965Y-72325920D01*
X119058962Y-72325922D01*
X119052138Y-72329958D01*
X119037817Y-72344279D01*
X119022784Y-72357119D01*
X119006393Y-72369028D01*
X118984314Y-72395717D01*
X118978202Y-72403105D01*
X118970212Y-72411884D01*
X117607280Y-73774815D01*
X117598994Y-73782355D01*
X117592515Y-73786467D01*
X117587090Y-73792244D01*
X117545890Y-73836118D01*
X117543135Y-73838960D01*
X117523398Y-73858697D01*
X117520918Y-73861894D01*
X117513215Y-73870914D01*
X117482947Y-73903146D01*
X117479128Y-73910092D01*
X117479126Y-73910095D01*
X117473185Y-73920901D01*
X117462334Y-73937420D01*
X117449919Y-73953426D01*
X117446774Y-73960695D01*
X117446771Y-73960699D01*
X117432359Y-73994004D01*
X117427142Y-74004654D01*
X117405838Y-74043407D01*
X117403867Y-74051082D01*
X117403867Y-74051083D01*
X117400800Y-74063029D01*
X117394396Y-74081733D01*
X117386352Y-74100322D01*
X117385113Y-74108145D01*
X117385110Y-74108155D01*
X117379434Y-74143991D01*
X117377028Y-74155611D01*
X117366033Y-74198437D01*
X117366033Y-74218691D01*
X117364482Y-74238401D01*
X117361313Y-74258410D01*
X117362059Y-74266302D01*
X117365474Y-74302428D01*
X117366033Y-74314286D01*
X117366033Y-76589725D01*
X117346031Y-76657846D01*
X117292375Y-76704339D01*
X117222101Y-76714443D01*
X117197974Y-76708498D01*
X117066091Y-76661796D01*
X117066083Y-76661794D01*
X117061212Y-76660069D01*
X117056119Y-76659162D01*
X117056116Y-76659161D01*
X116846373Y-76621800D01*
X116846367Y-76621799D01*
X116841284Y-76620894D01*
X116767452Y-76619992D01*
X116623081Y-76618228D01*
X116623079Y-76618228D01*
X116617911Y-76618165D01*
X116397091Y-76651955D01*
X116302810Y-76682771D01*
X116252667Y-76699160D01*
X116181703Y-76701311D01*
X116120841Y-76664755D01*
X116089405Y-76601097D01*
X116087522Y-76579395D01*
X116087522Y-73585392D01*
X116107524Y-73517271D01*
X116124427Y-73496297D01*
X118771797Y-70848927D01*
X118834109Y-70814901D01*
X118860892Y-70812022D01*
X120417611Y-70812022D01*
X120485732Y-70832024D01*
G37*
%TD.AperFunction*%
%TD*%
M02*
