%TF.GenerationSoftware,KiCad,Pcbnew,(6.0.10)*%
%TF.CreationDate,2023-02-08T01:16:55+09:00*%
%TF.ProjectId,rasp_gpio_input,72617370-5f67-4706-996f-5f696e707574,1*%
%TF.SameCoordinates,PX7baf2f0PY78dfd90*%
%TF.FileFunction,Legend,Bot*%
%TF.FilePolarity,Positive*%
%FSLAX46Y46*%
G04 Gerber Fmt 4.6, Leading zero omitted, Abs format (unit mm)*
G04 Created by KiCad (PCBNEW (6.0.10)) date 2023-02-08 01:16:55*
%MOMM*%
%LPD*%
G01*
G04 APERTURE LIST*
G04 Aperture macros list*
%AMRoundRect*
0 Rectangle with rounded corners*
0 $1 Rounding radius*
0 $2 $3 $4 $5 $6 $7 $8 $9 X,Y pos of 4 corners*
0 Add a 4 corners polygon primitive as box body*
4,1,4,$2,$3,$4,$5,$6,$7,$8,$9,$2,$3,0*
0 Add four circle primitives for the rounded corners*
1,1,$1+$1,$2,$3*
1,1,$1+$1,$4,$5*
1,1,$1+$1,$6,$7*
1,1,$1+$1,$8,$9*
0 Add four rect primitives between the rounded corners*
20,1,$1+$1,$2,$3,$4,$5,0*
20,1,$1+$1,$4,$5,$6,$7,0*
20,1,$1+$1,$6,$7,$8,$9,0*
20,1,$1+$1,$8,$9,$2,$3,0*%
G04 Aperture macros list end*
%ADD10R,1.700000X1.700000*%
%ADD11O,1.700000X1.700000*%
%ADD12RoundRect,0.200000X-0.450000X0.200000X-0.450000X-0.200000X0.450000X-0.200000X0.450000X0.200000X0*%
%ADD13O,1.300000X0.800000*%
G04 APERTURE END LIST*
%LPC*%
D10*
%TO.C,J5*%
X19329400Y41148000D03*
D11*
X19329400Y38608000D03*
X19329400Y36068000D03*
X19329400Y33528000D03*
X19329400Y30988000D03*
X19329400Y28448000D03*
X19329400Y25908000D03*
X19329400Y23368000D03*
X19329400Y20828000D03*
X19329400Y18288000D03*
X19329400Y15748000D03*
X19329400Y13208000D03*
X19329400Y10668000D03*
X19329400Y8128000D03*
X19329400Y5588000D03*
%TD*%
D12*
%TO.C,J1*%
X3454400Y41097200D03*
D13*
X3454400Y39847200D03*
X3454400Y38597200D03*
X3454400Y37347200D03*
X3454400Y36097200D03*
X3454400Y34847200D03*
%TD*%
D12*
%TO.C,J3*%
X3454400Y30683200D03*
D13*
X3454400Y29433200D03*
X3454400Y28183200D03*
X3454400Y26933200D03*
X3454400Y25683200D03*
X3454400Y24433200D03*
X3454400Y23183200D03*
X3454400Y21933200D03*
X3454400Y20683200D03*
X3454400Y19433200D03*
X3454400Y18183200D03*
X3454400Y16933200D03*
X3454400Y15683200D03*
X3454400Y14433200D03*
X3454400Y13183200D03*
%TD*%
D10*
%TO.C,J4*%
X14833600Y41097200D03*
D11*
X14833600Y38557200D03*
X14833600Y36017200D03*
X14833600Y33477200D03*
X14833600Y30937200D03*
X14833600Y28397200D03*
X14833600Y25857200D03*
X14833600Y23317200D03*
X14833600Y20777200D03*
X14833600Y18237200D03*
X14833600Y15697200D03*
X14833600Y13157200D03*
X14833600Y10617200D03*
X14833600Y8077200D03*
X14833600Y5537200D03*
%TD*%
D12*
%TO.C,J2*%
X3454400Y9093200D03*
D13*
X3454400Y7843200D03*
X3454400Y6593200D03*
X3454400Y5343200D03*
%TD*%
M02*
