%TF.GenerationSoftware,KiCad,Pcbnew,(6.0.10)*%
%TF.CreationDate,2023-01-20T02:58:03+09:00*%
%TF.ProjectId,monitor_control_board,6d6f6e69-746f-4725-9f63-6f6e74726f6c,rev?*%
%TF.SameCoordinates,PX7ab4258PY723a4bd*%
%TF.FileFunction,Legend,Top*%
%TF.FilePolarity,Positive*%
%FSLAX46Y46*%
G04 Gerber Fmt 4.6, Leading zero omitted, Abs format (unit mm)*
G04 Created by KiCad (PCBNEW (6.0.10)) date 2023-01-20 02:58:03*
%MOMM*%
%LPD*%
G01*
G04 APERTURE LIST*
G04 Aperture macros list*
%AMRoundRect*
0 Rectangle with rounded corners*
0 $1 Rounding radius*
0 $2 $3 $4 $5 $6 $7 $8 $9 X,Y pos of 4 corners*
0 Add a 4 corners polygon primitive as box body*
4,1,4,$2,$3,$4,$5,$6,$7,$8,$9,$2,$3,0*
0 Add four circle primitives for the rounded corners*
1,1,$1+$1,$2,$3*
1,1,$1+$1,$4,$5*
1,1,$1+$1,$6,$7*
1,1,$1+$1,$8,$9*
0 Add four rect primitives between the rounded corners*
20,1,$1+$1,$2,$3,$4,$5,0*
20,1,$1+$1,$4,$5,$6,$7,0*
20,1,$1+$1,$6,$7,$8,$9,0*
20,1,$1+$1,$8,$9,$2,$3,0*%
G04 Aperture macros list end*
%ADD10C,0.150000*%
%ADD11C,0.250000*%
%ADD12C,0.200000*%
%ADD13C,0.120000*%
%ADD14O,3.048000X1.850000*%
%ADD15O,1.850000X3.048000*%
%ADD16RoundRect,0.250200X-0.649800X0.649800X-0.649800X-0.649800X0.649800X-0.649800X0.649800X0.649800X0*%
%ADD17C,1.800000*%
%ADD18R,1.800000X1.800000*%
%ADD19C,2.000000*%
%ADD20RoundRect,0.250000X-1.050000X-0.550000X1.050000X-0.550000X1.050000X0.550000X-1.050000X0.550000X0*%
%ADD21RoundRect,0.250000X0.450000X-0.350000X0.450000X0.350000X-0.450000X0.350000X-0.450000X-0.350000X0*%
%ADD22RoundRect,0.250000X-0.337500X-0.475000X0.337500X-0.475000X0.337500X0.475000X-0.337500X0.475000X0*%
%ADD23R,1.300000X1.700000*%
%ADD24R,1.700000X1.700000*%
%ADD25O,1.700000X1.700000*%
%ADD26RoundRect,0.250000X0.625000X-0.350000X0.625000X0.350000X-0.625000X0.350000X-0.625000X-0.350000X0*%
%ADD27O,1.750000X1.200000*%
G04 APERTURE END LIST*
D10*
X35610348Y15763445D02*
X49643848Y15763445D01*
X27120514Y10092874D02*
X27120514Y9559541D01*
X26930038Y10397636D02*
X26739562Y9826207D01*
X27234800Y9826207D01*
X27463371Y10359541D02*
X27996705Y10359541D01*
X27653848Y9559541D01*
X28644324Y10092874D02*
X28644324Y9559541D01*
X28301467Y10092874D02*
X28301467Y9673826D01*
X28339562Y9597636D01*
X28415752Y9559541D01*
X28530038Y9559541D01*
X28606228Y9597636D01*
X28644324Y9635731D01*
X29291943Y9978588D02*
X29025276Y9978588D01*
X29025276Y9559541D02*
X29025276Y10359541D01*
X29406228Y10359541D01*
D11*
X22799505Y22357988D02*
X22799505Y23557988D01*
X23085219Y23557988D01*
X23256648Y23500845D01*
X23370933Y23386560D01*
X23428076Y23272274D01*
X23485219Y23043703D01*
X23485219Y22872274D01*
X23428076Y22643703D01*
X23370933Y22529417D01*
X23256648Y22415131D01*
X23085219Y22357988D01*
X22799505Y22357988D01*
X24228076Y23557988D02*
X24456648Y23557988D01*
X24570933Y23500845D01*
X24685219Y23386560D01*
X24742362Y23157988D01*
X24742362Y22757988D01*
X24685219Y22529417D01*
X24570933Y22415131D01*
X24456648Y22357988D01*
X24228076Y22357988D01*
X24113790Y22415131D01*
X23999505Y22529417D01*
X23942362Y22757988D01*
X23942362Y23157988D01*
X23999505Y23386560D01*
X24113790Y23500845D01*
X24228076Y23557988D01*
X25142362Y23557988D02*
X25428076Y22357988D01*
X25656648Y23215131D01*
X25885219Y22357988D01*
X26170933Y23557988D01*
X26628076Y22357988D02*
X26628076Y23557988D01*
X27313790Y22357988D01*
X27313790Y23557988D01*
D10*
X28415752Y7483065D02*
X28415752Y7102112D01*
X27615752Y7102112D01*
X27653848Y8168779D02*
X27615752Y8092588D01*
X27615752Y7978303D01*
X27653848Y7864017D01*
X27730038Y7787826D01*
X27806228Y7749731D01*
X27958609Y7711636D01*
X28072895Y7711636D01*
X28225276Y7749731D01*
X28301467Y7787826D01*
X28377657Y7864017D01*
X28415752Y7978303D01*
X28415752Y8054493D01*
X28377657Y8168779D01*
X28339562Y8206874D01*
X28072895Y8206874D01*
X28072895Y8054493D01*
D12*
X2387276Y50537684D02*
X2501562Y50490065D01*
X2692038Y50490065D01*
X2768228Y50537684D01*
X2806324Y50585303D01*
X2844419Y50680541D01*
X2844419Y50775779D01*
X2806324Y50871017D01*
X2768228Y50918636D01*
X2692038Y50966255D01*
X2539657Y51013874D01*
X2463467Y51061493D01*
X2425371Y51109112D01*
X2387276Y51204350D01*
X2387276Y51299588D01*
X2425371Y51394826D01*
X2463467Y51442445D01*
X2539657Y51490065D01*
X2730133Y51490065D01*
X2844419Y51442445D01*
X3644419Y50490065D02*
X3377752Y50966255D01*
X3187276Y50490065D02*
X3187276Y51490065D01*
X3492038Y51490065D01*
X3568228Y51442445D01*
X3606324Y51394826D01*
X3644419Y51299588D01*
X3644419Y51156731D01*
X3606324Y51061493D01*
X3568228Y51013874D01*
X3492038Y50966255D01*
X3187276Y50966255D01*
X4444419Y50585303D02*
X4406324Y50537684D01*
X4292038Y50490065D01*
X4215848Y50490065D01*
X4101562Y50537684D01*
X4025371Y50632922D01*
X3987276Y50728160D01*
X3949181Y50918636D01*
X3949181Y51061493D01*
X3987276Y51251969D01*
X4025371Y51347207D01*
X4101562Y51442445D01*
X4215848Y51490065D01*
X4292038Y51490065D01*
X4406324Y51442445D01*
X4444419Y51394826D01*
D11*
X23304514Y34905588D02*
X23304514Y36105588D01*
X23637848Y35248445D01*
X23971181Y36105588D01*
X23971181Y34905588D01*
X24447371Y35534160D02*
X24780705Y35534160D01*
X24923562Y34905588D02*
X24447371Y34905588D01*
X24447371Y36105588D01*
X24923562Y36105588D01*
X25352133Y34905588D02*
X25352133Y36105588D01*
X25923562Y34905588D01*
X25923562Y36105588D01*
X26399752Y36105588D02*
X26399752Y35134160D01*
X26447371Y35019874D01*
X26494990Y34962731D01*
X26590228Y34905588D01*
X26780705Y34905588D01*
X26875943Y34962731D01*
X26923562Y35019874D01*
X26971181Y35134160D01*
X26971181Y36105588D01*
X37220419Y869588D02*
X37220419Y2069588D01*
X37677562Y2069588D01*
X37791848Y2012445D01*
X37848990Y1955303D01*
X37906133Y1841017D01*
X37906133Y1669588D01*
X37848990Y1555303D01*
X37791848Y1498160D01*
X37677562Y1441017D01*
X37220419Y1441017D01*
X38648990Y2069588D02*
X38877562Y2069588D01*
X38991848Y2012445D01*
X39106133Y1898160D01*
X39163276Y1669588D01*
X39163276Y1269588D01*
X39106133Y1041017D01*
X38991848Y926731D01*
X38877562Y869588D01*
X38648990Y869588D01*
X38534705Y926731D01*
X38420419Y1041017D01*
X38363276Y1269588D01*
X38363276Y1669588D01*
X38420419Y1898160D01*
X38534705Y2012445D01*
X38648990Y2069588D01*
X39563276Y2069588D02*
X39848990Y869588D01*
X40077562Y1726731D01*
X40306133Y869588D01*
X40591848Y2069588D01*
X41048990Y1498160D02*
X41448990Y1498160D01*
X41620419Y869588D02*
X41048990Y869588D01*
X41048990Y2069588D01*
X41620419Y2069588D01*
X42820419Y869588D02*
X42420419Y1441017D01*
X42134705Y869588D02*
X42134705Y2069588D01*
X42591848Y2069588D01*
X42706133Y2012445D01*
X42763276Y1955303D01*
X42820419Y1841017D01*
X42820419Y1669588D01*
X42763276Y1555303D01*
X42706133Y1498160D01*
X42591848Y1441017D01*
X42134705Y1441017D01*
X24139190Y48856388D02*
X24139190Y47884960D01*
X24196333Y47770674D01*
X24253476Y47713531D01*
X24367762Y47656388D01*
X24596333Y47656388D01*
X24710619Y47713531D01*
X24767762Y47770674D01*
X24824905Y47884960D01*
X24824905Y48856388D01*
X25396333Y47656388D02*
X25396333Y48856388D01*
X25853476Y48856388D01*
X25967762Y48799245D01*
X26024905Y48742103D01*
X26082048Y48627817D01*
X26082048Y48456388D01*
X26024905Y48342103D01*
X25967762Y48284960D01*
X25853476Y48227817D01*
X25396333Y48227817D01*
X10201105Y36207188D02*
X10601105Y35007188D01*
X11001105Y36207188D01*
X11629676Y36207188D02*
X11858248Y36207188D01*
X11972533Y36150045D01*
X12086819Y36035760D01*
X12143962Y35807188D01*
X12143962Y35407188D01*
X12086819Y35178617D01*
X11972533Y35064331D01*
X11858248Y35007188D01*
X11629676Y35007188D01*
X11515390Y35064331D01*
X11401105Y35178617D01*
X11343962Y35407188D01*
X11343962Y35807188D01*
X11401105Y36035760D01*
X11515390Y36150045D01*
X11629676Y36207188D01*
X13229676Y35007188D02*
X12658248Y35007188D01*
X12658248Y36207188D01*
X13629676Y35464331D02*
X14543962Y35464331D01*
D10*
X12796871Y10631636D02*
X12796871Y10593541D01*
X12834967Y10707826D02*
X12834967Y10593541D01*
X12873062Y10784017D02*
X12873062Y10593541D01*
X12911157Y10860207D02*
X12911157Y10593541D01*
X12949252Y10898303D02*
X12949252Y10593541D01*
X12987348Y10974493D02*
X12987348Y10593541D01*
X13025443Y11050684D02*
X13025443Y10593541D01*
X13063538Y11126874D02*
X13063538Y10593541D01*
X13101633Y11203065D02*
X13101633Y10593541D01*
X13139728Y11126874D02*
X13139728Y10593541D01*
X13177824Y11050684D02*
X13177824Y10593541D01*
X13215919Y10974493D02*
X13215919Y10593541D01*
X13254014Y10898303D02*
X13254014Y10593541D01*
X13292109Y10860207D02*
X13292109Y10593541D01*
X13330205Y10784017D02*
X13330205Y10593541D01*
X13368300Y10707826D02*
X13368300Y10593541D01*
X13406395Y10593541D02*
X13101633Y11164969D01*
X12796871Y10593541D01*
X13406395Y10631636D02*
X13406395Y10593541D01*
X13101633Y11203065D02*
X13444490Y10593541D01*
X12758776Y10593541D01*
X13101633Y11203065D01*
X11577824Y9305541D02*
X11577824Y10105541D01*
X11844490Y9838874D02*
X12149252Y9838874D01*
X11958776Y9305541D02*
X11958776Y9991255D01*
X11996871Y10067445D01*
X12073062Y10105541D01*
X12149252Y10105541D01*
X13025443Y9838874D02*
X13025443Y9305541D01*
X13025443Y9762684D02*
X13063538Y9800779D01*
X13139728Y9838874D01*
X13254014Y9838874D01*
X13330205Y9800779D01*
X13368300Y9724588D01*
X13368300Y9305541D01*
X13863538Y9305541D02*
X13787348Y9343636D01*
X13749252Y9381731D01*
X13711157Y9457922D01*
X13711157Y9686493D01*
X13749252Y9762684D01*
X13787348Y9800779D01*
X13863538Y9838874D01*
X13977824Y9838874D01*
X14054014Y9800779D01*
X14092109Y9762684D01*
X14130205Y9686493D01*
X14130205Y9457922D01*
X14092109Y9381731D01*
X14054014Y9343636D01*
X13977824Y9305541D01*
X13863538Y9305541D01*
X14358776Y9838874D02*
X14663538Y9838874D01*
X14473062Y10105541D02*
X14473062Y9419826D01*
X14511157Y9343636D01*
X14587348Y9305541D01*
X14663538Y9305541D01*
X15882586Y9838874D02*
X15882586Y9305541D01*
X15539728Y9838874D02*
X15539728Y9419826D01*
X15577824Y9343636D01*
X15654014Y9305541D01*
X15768300Y9305541D01*
X15844490Y9343636D01*
X15882586Y9381731D01*
X16225443Y9343636D02*
X16301633Y9305541D01*
X16454014Y9305541D01*
X16530205Y9343636D01*
X16568300Y9419826D01*
X16568300Y9457922D01*
X16530205Y9534112D01*
X16454014Y9572207D01*
X16339728Y9572207D01*
X16263538Y9610303D01*
X16225443Y9686493D01*
X16225443Y9724588D01*
X16263538Y9800779D01*
X16339728Y9838874D01*
X16454014Y9838874D01*
X16530205Y9800779D01*
X17215919Y9343636D02*
X17139728Y9305541D01*
X16987348Y9305541D01*
X16911157Y9343636D01*
X16873062Y9419826D01*
X16873062Y9724588D01*
X16911157Y9800779D01*
X16987348Y9838874D01*
X17139728Y9838874D01*
X17215919Y9800779D01*
X17254014Y9724588D01*
X17254014Y9648398D01*
X16873062Y9572207D01*
X17939728Y9305541D02*
X17939728Y10105541D01*
X17939728Y9343636D02*
X17863538Y9305541D01*
X17711157Y9305541D01*
X17634967Y9343636D01*
X17596871Y9381731D01*
X17558776Y9457922D01*
X17558776Y9686493D01*
X17596871Y9762684D01*
X17634967Y9800779D01*
X17711157Y9838874D01*
X17863538Y9838874D01*
X17939728Y9800779D01*
X18358776Y9343636D02*
X18358776Y9305541D01*
X18320681Y9229350D01*
X18282586Y9191255D01*
X11539728Y8055636D02*
X11654014Y8017541D01*
X11844490Y8017541D01*
X11920681Y8055636D01*
X11958776Y8093731D01*
X11996871Y8169922D01*
X11996871Y8246112D01*
X11958776Y8322303D01*
X11920681Y8360398D01*
X11844490Y8398493D01*
X11692109Y8436588D01*
X11615919Y8474684D01*
X11577824Y8512779D01*
X11539728Y8588969D01*
X11539728Y8665160D01*
X11577824Y8741350D01*
X11615919Y8779445D01*
X11692109Y8817541D01*
X11882586Y8817541D01*
X11996871Y8779445D01*
X12339728Y8017541D02*
X12339728Y8817541D01*
X12339728Y8436588D02*
X12796871Y8436588D01*
X12796871Y8017541D02*
X12796871Y8817541D01*
X13330205Y8817541D02*
X13482586Y8817541D01*
X13558776Y8779445D01*
X13634967Y8703255D01*
X13673062Y8550874D01*
X13673062Y8284207D01*
X13634967Y8131826D01*
X13558776Y8055636D01*
X13482586Y8017541D01*
X13330205Y8017541D01*
X13254014Y8055636D01*
X13177824Y8131826D01*
X13139728Y8284207D01*
X13139728Y8550874D01*
X13177824Y8703255D01*
X13254014Y8779445D01*
X13330205Y8817541D01*
X14473062Y8017541D02*
X14206395Y8398493D01*
X14015919Y8017541D02*
X14015919Y8817541D01*
X14320681Y8817541D01*
X14396871Y8779445D01*
X14434967Y8741350D01*
X14473062Y8665160D01*
X14473062Y8550874D01*
X14434967Y8474684D01*
X14396871Y8436588D01*
X14320681Y8398493D01*
X14015919Y8398493D01*
X14701633Y8817541D02*
X15158776Y8817541D01*
X14930205Y8017541D02*
X14930205Y8817541D01*
X16034967Y8017541D02*
X16034967Y8550874D01*
X16034967Y8817541D02*
X15996871Y8779445D01*
X16034967Y8741350D01*
X16073062Y8779445D01*
X16034967Y8817541D01*
X16034967Y8741350D01*
X16301633Y8550874D02*
X16606395Y8550874D01*
X16415919Y8817541D02*
X16415919Y8131826D01*
X16454014Y8055636D01*
X16530205Y8017541D01*
X16606395Y8017541D01*
X16873062Y8093731D02*
X16911157Y8055636D01*
X16873062Y8017541D01*
X16834967Y8055636D01*
X16873062Y8093731D01*
X16873062Y8017541D01*
X28415752Y2403065D02*
X28415752Y2022112D01*
X27615752Y2022112D01*
X28415752Y3126874D02*
X28034800Y2860207D01*
X28415752Y2669731D02*
X27615752Y2669731D01*
X27615752Y2974493D01*
X27653848Y3050684D01*
X27691943Y3088779D01*
X27768133Y3126874D01*
X27882419Y3126874D01*
X27958609Y3088779D01*
X27996705Y3050684D01*
X28034800Y2974493D01*
X28034800Y2669731D01*
D12*
X8140324Y47886445D02*
X8064133Y47934065D01*
X7949848Y47934065D01*
X7835562Y47886445D01*
X7759371Y47791207D01*
X7721276Y47695969D01*
X7683181Y47505493D01*
X7683181Y47362636D01*
X7721276Y47172160D01*
X7759371Y47076922D01*
X7835562Y46981684D01*
X7949848Y46934065D01*
X8026038Y46934065D01*
X8140324Y46981684D01*
X8178419Y47029303D01*
X8178419Y47362636D01*
X8026038Y47362636D01*
X8521276Y46934065D02*
X8521276Y47934065D01*
X8978419Y46934065D01*
X8978419Y47934065D01*
X9359371Y46934065D02*
X9359371Y47934065D01*
X9549848Y47934065D01*
X9664133Y47886445D01*
X9740324Y47791207D01*
X9778419Y47695969D01*
X9816514Y47505493D01*
X9816514Y47362636D01*
X9778419Y47172160D01*
X9740324Y47076922D01*
X9664133Y46981684D01*
X9549848Y46934065D01*
X9359371Y46934065D01*
D10*
X8749943Y18041445D02*
X8654705Y18089065D01*
X8511848Y18089065D01*
X8368990Y18041445D01*
X8273752Y17946207D01*
X8226133Y17850969D01*
X8178514Y17660493D01*
X8178514Y17517636D01*
X8226133Y17327160D01*
X8273752Y17231922D01*
X8368990Y17136684D01*
X8511848Y17089065D01*
X8607086Y17089065D01*
X8749943Y17136684D01*
X8797562Y17184303D01*
X8797562Y17517636D01*
X8607086Y17517636D01*
X9226133Y17089065D02*
X9226133Y18089065D01*
X9797562Y17089065D01*
X9797562Y18089065D01*
X10273752Y17089065D02*
X10273752Y18089065D01*
X10511848Y18089065D01*
X10654705Y18041445D01*
X10749943Y17946207D01*
X10797562Y17850969D01*
X10845181Y17660493D01*
X10845181Y17517636D01*
X10797562Y17327160D01*
X10749943Y17231922D01*
X10654705Y17136684D01*
X10511848Y17089065D01*
X10273752Y17089065D01*
D12*
X2349181Y43251065D02*
X2349181Y44251065D01*
X2653943Y44251065D01*
X2730133Y44203445D01*
X2768228Y44155826D01*
X2806324Y44060588D01*
X2806324Y43917731D01*
X2768228Y43822493D01*
X2730133Y43774874D01*
X2653943Y43727255D01*
X2349181Y43727255D01*
X3072990Y44251065D02*
X3263467Y43251065D01*
X3415848Y43965350D01*
X3568228Y43251065D01*
X3758705Y44251065D01*
X4520609Y43251065D02*
X4253943Y43727255D01*
X4063467Y43251065D02*
X4063467Y44251065D01*
X4368228Y44251065D01*
X4444419Y44203445D01*
X4482514Y44155826D01*
X4520609Y44060588D01*
X4520609Y43917731D01*
X4482514Y43822493D01*
X4444419Y43774874D01*
X4368228Y43727255D01*
X4063467Y43727255D01*
D10*
X18511967Y5970731D02*
X18473871Y5932636D01*
X18359586Y5894541D01*
X18283395Y5894541D01*
X18169109Y5932636D01*
X18092919Y6008826D01*
X18054824Y6085017D01*
X18016728Y6237398D01*
X18016728Y6351684D01*
X18054824Y6504065D01*
X18092919Y6580255D01*
X18169109Y6656445D01*
X18283395Y6694541D01*
X18359586Y6694541D01*
X18473871Y6656445D01*
X18511967Y6618350D01*
X19273871Y5894541D02*
X18816728Y5894541D01*
X19045300Y5894541D02*
X19045300Y6694541D01*
X18969109Y6580255D01*
X18892919Y6504065D01*
X18816728Y6465969D01*
X20226252Y6199303D02*
X20835776Y6199303D01*
X21978633Y6694541D02*
X22054824Y6694541D01*
X22131014Y6656445D01*
X22169109Y6618350D01*
X22207205Y6542160D01*
X22245300Y6389779D01*
X22245300Y6199303D01*
X22207205Y6046922D01*
X22169109Y5970731D01*
X22131014Y5932636D01*
X22054824Y5894541D01*
X21978633Y5894541D01*
X21902443Y5932636D01*
X21864348Y5970731D01*
X21826252Y6046922D01*
X21788157Y6199303D01*
X21788157Y6389779D01*
X21826252Y6542160D01*
X21864348Y6618350D01*
X21902443Y6656445D01*
X21978633Y6694541D01*
X22588157Y5970731D02*
X22626252Y5932636D01*
X22588157Y5894541D01*
X22550062Y5932636D01*
X22588157Y5970731D01*
X22588157Y5894541D01*
X23388157Y5894541D02*
X22931014Y5894541D01*
X23159586Y5894541D02*
X23159586Y6694541D01*
X23083395Y6580255D01*
X23007205Y6504065D01*
X22931014Y6465969D01*
X24073871Y6427874D02*
X24073871Y5894541D01*
X23731014Y6427874D02*
X23731014Y6008826D01*
X23769109Y5932636D01*
X23845300Y5894541D01*
X23959586Y5894541D01*
X24035776Y5932636D01*
X24073871Y5970731D01*
X24721490Y6313588D02*
X24454824Y6313588D01*
X24454824Y5894541D02*
X24454824Y6694541D01*
X24835776Y6694541D01*
X18511967Y4682731D02*
X18473871Y4644636D01*
X18359586Y4606541D01*
X18283395Y4606541D01*
X18169109Y4644636D01*
X18092919Y4720826D01*
X18054824Y4797017D01*
X18016728Y4949398D01*
X18016728Y5063684D01*
X18054824Y5216065D01*
X18092919Y5292255D01*
X18169109Y5368445D01*
X18283395Y5406541D01*
X18359586Y5406541D01*
X18473871Y5368445D01*
X18511967Y5330350D01*
X18816728Y5330350D02*
X18854824Y5368445D01*
X18931014Y5406541D01*
X19121490Y5406541D01*
X19197681Y5368445D01*
X19235776Y5330350D01*
X19273871Y5254160D01*
X19273871Y5177969D01*
X19235776Y5063684D01*
X18778633Y4606541D01*
X19273871Y4606541D01*
X20226252Y4911303D02*
X20835776Y4911303D01*
X22207205Y5406541D02*
X21826252Y5406541D01*
X21788157Y5025588D01*
X21826252Y5063684D01*
X21902443Y5101779D01*
X22092919Y5101779D01*
X22169109Y5063684D01*
X22207205Y5025588D01*
X22245300Y4949398D01*
X22245300Y4758922D01*
X22207205Y4682731D01*
X22169109Y4644636D01*
X22092919Y4606541D01*
X21902443Y4606541D01*
X21826252Y4644636D01*
X21788157Y4682731D01*
X22931014Y5406541D02*
X22778633Y5406541D01*
X22702443Y5368445D01*
X22664348Y5330350D01*
X22588157Y5216065D01*
X22550062Y5063684D01*
X22550062Y4758922D01*
X22588157Y4682731D01*
X22626252Y4644636D01*
X22702443Y4606541D01*
X22854824Y4606541D01*
X22931014Y4644636D01*
X22969109Y4682731D01*
X23007205Y4758922D01*
X23007205Y4949398D01*
X22969109Y5025588D01*
X22931014Y5063684D01*
X22854824Y5101779D01*
X22702443Y5101779D01*
X22626252Y5063684D01*
X22588157Y5025588D01*
X22550062Y4949398D01*
X23502443Y5406541D02*
X23578633Y5406541D01*
X23654824Y5368445D01*
X23692919Y5330350D01*
X23731014Y5254160D01*
X23769109Y5101779D01*
X23769109Y4911303D01*
X23731014Y4758922D01*
X23692919Y4682731D01*
X23654824Y4644636D01*
X23578633Y4606541D01*
X23502443Y4606541D01*
X23426252Y4644636D01*
X23388157Y4682731D01*
X23350062Y4758922D01*
X23311967Y4911303D01*
X23311967Y5101779D01*
X23350062Y5254160D01*
X23388157Y5330350D01*
X23426252Y5368445D01*
X23502443Y5406541D01*
X24111967Y5139874D02*
X24111967Y4339874D01*
X24111967Y5101779D02*
X24188157Y5139874D01*
X24340538Y5139874D01*
X24416728Y5101779D01*
X24454824Y5063684D01*
X24492919Y4987493D01*
X24492919Y4758922D01*
X24454824Y4682731D01*
X24416728Y4644636D01*
X24340538Y4606541D01*
X24188157Y4606541D01*
X24111967Y4644636D01*
X25102443Y5025588D02*
X24835776Y5025588D01*
X24835776Y4606541D02*
X24835776Y5406541D01*
X25216728Y5406541D01*
X18511967Y3318541D02*
X18245300Y3699493D01*
X18054824Y3318541D02*
X18054824Y4118541D01*
X18359586Y4118541D01*
X18435776Y4080445D01*
X18473871Y4042350D01*
X18511967Y3966160D01*
X18511967Y3851874D01*
X18473871Y3775684D01*
X18435776Y3737588D01*
X18359586Y3699493D01*
X18054824Y3699493D01*
X19273871Y3318541D02*
X18816728Y3318541D01*
X19045300Y3318541D02*
X19045300Y4118541D01*
X18969109Y4004255D01*
X18892919Y3928065D01*
X18816728Y3889969D01*
X20226252Y3623303D02*
X20835776Y3623303D01*
X22207205Y4118541D02*
X21826252Y4118541D01*
X21788157Y3737588D01*
X21826252Y3775684D01*
X21902443Y3813779D01*
X22092919Y3813779D01*
X22169109Y3775684D01*
X22207205Y3737588D01*
X22245300Y3661398D01*
X22245300Y3470922D01*
X22207205Y3394731D01*
X22169109Y3356636D01*
X22092919Y3318541D01*
X21902443Y3318541D01*
X21826252Y3356636D01*
X21788157Y3394731D01*
X22588157Y3394731D02*
X22626252Y3356636D01*
X22588157Y3318541D01*
X22550062Y3356636D01*
X22588157Y3394731D01*
X22588157Y3318541D01*
X23388157Y3318541D02*
X22931014Y3318541D01*
X23159586Y3318541D02*
X23159586Y4118541D01*
X23083395Y4004255D01*
X23007205Y3928065D01*
X22931014Y3889969D01*
X23731014Y3318541D02*
X23731014Y4118541D01*
X23807205Y3623303D02*
X24035776Y3318541D01*
X24035776Y3851874D02*
X23731014Y3547112D01*
D11*
X35370705Y36181788D02*
X35770705Y34981788D01*
X36170705Y36181788D01*
X36799276Y36181788D02*
X37027848Y36181788D01*
X37142133Y36124645D01*
X37256419Y36010360D01*
X37313562Y35781788D01*
X37313562Y35381788D01*
X37256419Y35153217D01*
X37142133Y35038931D01*
X37027848Y34981788D01*
X36799276Y34981788D01*
X36684990Y35038931D01*
X36570705Y35153217D01*
X36513562Y35381788D01*
X36513562Y35781788D01*
X36570705Y36010360D01*
X36684990Y36124645D01*
X36799276Y36181788D01*
X38399276Y34981788D02*
X37827848Y34981788D01*
X37827848Y36181788D01*
X38799276Y35438931D02*
X39713562Y35438931D01*
X39256419Y34981788D02*
X39256419Y35896074D01*
D10*
X48443752Y7242207D02*
X49015181Y7242207D01*
X49129467Y7204112D01*
X49205657Y7127922D01*
X49243752Y7013636D01*
X49243752Y6937445D01*
X49243752Y8004112D02*
X49243752Y7623160D01*
X48443752Y7623160D01*
X49167562Y8727922D02*
X49205657Y8689826D01*
X49243752Y8575541D01*
X49243752Y8499350D01*
X49205657Y8385065D01*
X49129467Y8308874D01*
X49053276Y8270779D01*
X48900895Y8232684D01*
X48786609Y8232684D01*
X48634228Y8270779D01*
X48558038Y8308874D01*
X48481848Y8385065D01*
X48443752Y8499350D01*
X48443752Y8575541D01*
X48481848Y8689826D01*
X48519943Y8727922D01*
X48443752Y9299350D02*
X49015181Y9299350D01*
X49129467Y9261255D01*
X49205657Y9185065D01*
X49243752Y9070779D01*
X49243752Y8994588D01*
X49243752Y10061255D02*
X49243752Y9680303D01*
X48443752Y9680303D01*
X49167562Y10785065D02*
X49205657Y10746969D01*
X49243752Y10632684D01*
X49243752Y10556493D01*
X49205657Y10442207D01*
X49129467Y10366017D01*
X49053276Y10327922D01*
X48900895Y10289826D01*
X48786609Y10289826D01*
X48634228Y10327922D01*
X48558038Y10366017D01*
X48481848Y10442207D01*
X48443752Y10556493D01*
X48443752Y10632684D01*
X48481848Y10746969D01*
X48519943Y10785065D01*
X48443752Y11356493D02*
X49015181Y11356493D01*
X49129467Y11318398D01*
X49205657Y11242207D01*
X49243752Y11127922D01*
X49243752Y11051731D01*
X49243752Y12118398D02*
X49243752Y11737445D01*
X48443752Y11737445D01*
X49167562Y12842207D02*
X49205657Y12804112D01*
X49243752Y12689826D01*
X49243752Y12613636D01*
X49205657Y12499350D01*
X49129467Y12423160D01*
X49053276Y12385065D01*
X48900895Y12346969D01*
X48786609Y12346969D01*
X48634228Y12385065D01*
X48558038Y12423160D01*
X48481848Y12499350D01*
X48443752Y12613636D01*
X48443752Y12689826D01*
X48481848Y12804112D01*
X48519943Y12842207D01*
X48443752Y13413636D02*
X49015181Y13413636D01*
X49129467Y13375541D01*
X49205657Y13299350D01*
X49243752Y13185065D01*
X49243752Y13108874D01*
X49243752Y14175541D02*
X49243752Y13794588D01*
X48443752Y13794588D01*
X49167562Y14899350D02*
X49205657Y14861255D01*
X49243752Y14746969D01*
X49243752Y14670779D01*
X49205657Y14556493D01*
X49129467Y14480303D01*
X49053276Y14442207D01*
X48900895Y14404112D01*
X48786609Y14404112D01*
X48634228Y14442207D01*
X48558038Y14480303D01*
X48481848Y14556493D01*
X48443752Y14670779D01*
X48443752Y14746969D01*
X48481848Y14861255D01*
X48519943Y14899350D01*
%TO.C,U1*%
X6787752Y6365522D02*
X7435371Y6365522D01*
X7511562Y6403617D01*
X7549657Y6441712D01*
X7587752Y6517903D01*
X7587752Y6670284D01*
X7549657Y6746474D01*
X7511562Y6784569D01*
X7435371Y6822665D01*
X6787752Y6822665D01*
X7587752Y7622665D02*
X7587752Y7165522D01*
X7587752Y7394093D02*
X6787752Y7394093D01*
X6902038Y7317903D01*
X6978228Y7241712D01*
X7016324Y7165522D01*
%TO.C,D2*%
X32860752Y4504969D02*
X32060752Y4504969D01*
X32060752Y4695445D01*
X32098848Y4809731D01*
X32175038Y4885922D01*
X32251228Y4924017D01*
X32403609Y4962112D01*
X32517895Y4962112D01*
X32670276Y4924017D01*
X32746467Y4885922D01*
X32822657Y4809731D01*
X32860752Y4695445D01*
X32860752Y4504969D01*
X32136943Y5266874D02*
X32098848Y5304969D01*
X32060752Y5381160D01*
X32060752Y5571636D01*
X32098848Y5647826D01*
X32136943Y5685922D01*
X32213133Y5724017D01*
X32289324Y5724017D01*
X32403609Y5685922D01*
X32860752Y5228779D01*
X32860752Y5724017D01*
%TO.C,E1*%
X28517467Y13153588D02*
X28784133Y13153588D01*
X28898419Y12734541D02*
X28517467Y12734541D01*
X28517467Y13534541D01*
X28898419Y13534541D01*
X29660324Y12734541D02*
X29203181Y12734541D01*
X29431752Y12734541D02*
X29431752Y13534541D01*
X29355562Y13420255D01*
X29279371Y13344065D01*
X29203181Y13305969D01*
%TO.C,R1*%
X16985752Y12074112D02*
X16604800Y11807445D01*
X16985752Y11616969D02*
X16185752Y11616969D01*
X16185752Y11921731D01*
X16223848Y11997922D01*
X16261943Y12036017D01*
X16338133Y12074112D01*
X16452419Y12074112D01*
X16528609Y12036017D01*
X16566705Y11997922D01*
X16604800Y11921731D01*
X16604800Y11616969D01*
X16985752Y12836017D02*
X16985752Y12378874D01*
X16985752Y12607445D02*
X16185752Y12607445D01*
X16300038Y12531255D01*
X16376228Y12455065D01*
X16414324Y12378874D01*
%TO.C,C1*%
X19703562Y13217112D02*
X19741657Y13179017D01*
X19779752Y13064731D01*
X19779752Y12988541D01*
X19741657Y12874255D01*
X19665467Y12798065D01*
X19589276Y12759969D01*
X19436895Y12721874D01*
X19322609Y12721874D01*
X19170228Y12759969D01*
X19094038Y12798065D01*
X19017848Y12874255D01*
X18979752Y12988541D01*
X18979752Y13064731D01*
X19017848Y13179017D01*
X19055943Y13217112D01*
X19779752Y13979017D02*
X19779752Y13521874D01*
X19779752Y13750445D02*
X18979752Y13750445D01*
X19094038Y13674255D01*
X19170228Y13598065D01*
X19208324Y13521874D01*
%TO.C,C2*%
X19703562Y10931112D02*
X19741657Y10893017D01*
X19779752Y10778731D01*
X19779752Y10702541D01*
X19741657Y10588255D01*
X19665467Y10512065D01*
X19589276Y10473969D01*
X19436895Y10435874D01*
X19322609Y10435874D01*
X19170228Y10473969D01*
X19094038Y10512065D01*
X19017848Y10588255D01*
X18979752Y10702541D01*
X18979752Y10778731D01*
X19017848Y10893017D01*
X19055943Y10931112D01*
X19055943Y11235874D02*
X19017848Y11273969D01*
X18979752Y11350160D01*
X18979752Y11540636D01*
X19017848Y11616826D01*
X19055943Y11654922D01*
X19132133Y11693017D01*
X19208324Y11693017D01*
X19322609Y11654922D01*
X19779752Y11197779D01*
X19779752Y11693017D01*
%TO.C,D1*%
X12477371Y12099541D02*
X12477371Y12899541D01*
X12667848Y12899541D01*
X12782133Y12861445D01*
X12858324Y12785255D01*
X12896419Y12709065D01*
X12934514Y12556684D01*
X12934514Y12442398D01*
X12896419Y12290017D01*
X12858324Y12213826D01*
X12782133Y12137636D01*
X12667848Y12099541D01*
X12477371Y12099541D01*
X13696419Y12099541D02*
X13239276Y12099541D01*
X13467848Y12099541D02*
X13467848Y12899541D01*
X13391657Y12785255D01*
X13315467Y12709065D01*
X13239276Y12670969D01*
D13*
%TO.C,SW2*%
X31161848Y55828445D02*
X31161848Y53397645D01*
X18863448Y53346845D02*
X18861848Y55828445D01*
X18865048Y48368445D02*
X18863448Y51010045D01*
X18861848Y55828445D02*
X31161848Y55828445D01*
X31161848Y45980845D02*
X31161848Y43528445D01*
X31157048Y50959245D02*
X31157048Y48419245D01*
X31161848Y43528445D02*
X18861848Y43528445D01*
X18861848Y43528445D02*
X18863448Y45980845D01*
X29614698Y49630445D02*
G75*
G03*
X29614698Y49630445I-4579050J0D01*
G01*
%TO.C,SW4*%
X18861848Y18158445D02*
X18861848Y20589245D01*
X31160248Y20640045D02*
X31161848Y18158445D01*
X31158648Y25618445D02*
X31160248Y22976845D01*
X31161848Y18158445D02*
X18861848Y18158445D01*
X18861848Y28006045D02*
X18861848Y30458445D01*
X18866648Y23027645D02*
X18866648Y25567645D01*
X18861848Y30458445D02*
X31161848Y30458445D01*
X31161848Y30458445D02*
X31160248Y28006045D01*
X29567098Y24356445D02*
G75*
G03*
X29567098Y24356445I-4579050J0D01*
G01*
%TO.C,SW5*%
X43861848Y30868445D02*
X41431048Y30868445D01*
X41380248Y43166845D02*
X43861848Y43168445D01*
X36401848Y43165245D02*
X39043448Y43166845D01*
X43861848Y43168445D02*
X43861848Y30868445D01*
X34014248Y30868445D02*
X31561848Y30868445D01*
X38992648Y30873245D02*
X36452648Y30873245D01*
X31561848Y30868445D02*
X31561848Y43168445D01*
X31561848Y43168445D02*
X34014248Y43166845D01*
X42242898Y36994645D02*
G75*
G03*
X42242898Y36994645I-4579050J0D01*
G01*
%TO.C,SW1*%
X6131848Y43168445D02*
X8562648Y43168445D01*
X8613448Y30870045D02*
X6131848Y30868445D01*
X13591848Y30871645D02*
X10950248Y30870045D01*
X6131848Y30868445D02*
X6131848Y43168445D01*
X15979448Y43168445D02*
X18431848Y43168445D01*
X11001048Y43163645D02*
X13541048Y43163645D01*
X18431848Y43168445D02*
X18431848Y30868445D01*
X18431848Y30868445D02*
X15979448Y30870045D01*
X16908898Y37042245D02*
G75*
G03*
X16908898Y37042245I-4579050J0D01*
G01*
%TO.C,SW3*%
X29604698Y36970445D02*
G75*
G03*
X29604698Y36970445I-4579050J0D01*
G01*
X18851848Y30868445D02*
X18853448Y33320845D01*
X31151848Y30868445D02*
X18851848Y30868445D01*
X31147048Y38299245D02*
X31147048Y35759245D01*
X31151848Y33320845D02*
X31151848Y30868445D01*
X18851848Y43168445D02*
X31151848Y43168445D01*
X18855048Y35708445D02*
X18853448Y38350045D01*
X18853448Y40686845D02*
X18851848Y43168445D01*
X31151848Y43168445D02*
X31151848Y40737645D01*
%TO.C,U1*%
X10894848Y4273445D02*
X10894848Y6873445D01*
X10544848Y4273445D02*
X10894848Y4273445D01*
X8224848Y4273445D02*
X7884848Y4273445D01*
X7884848Y4273445D02*
X7884848Y9363445D01*
X7883112Y8973362D02*
G75*
G03*
X7884848Y4773445I101736J-2099917D01*
G01*
%TO.C,D2*%
X30784848Y3535445D02*
X30940848Y3535445D01*
X28468848Y3535445D02*
X28624848Y3535445D01*
X28626240Y6767780D02*
G75*
G03*
X28469332Y3535445I1078608J-1672335D01*
G01*
X30784848Y4054484D02*
G75*
G03*
X30784685Y6136575I-1080000J1040961D01*
G01*
X28625011Y6136575D02*
G75*
G03*
X28624848Y4054484I1079837J-1041130D01*
G01*
X30940364Y3535445D02*
G75*
G03*
X30783456Y6767780I-1235516J1560000D01*
G01*
%TO.C,SW6*%
X43297848Y4762445D02*
X43297848Y9262445D01*
X39297848Y3512445D02*
X40797848Y3512445D01*
X40797848Y10512445D02*
X39297848Y10512445D01*
X36797848Y9262445D02*
X36797848Y4762445D01*
%TO.C,TP1*%
X4615848Y49037445D02*
G75*
G03*
X4615848Y49037445I-1200000J0D01*
G01*
%TO.C,TP3*%
X4615848Y45735445D02*
G75*
G03*
X4615848Y45735445I-1200000J0D01*
G01*
%TO.C,TP2*%
X7409848Y47386445D02*
G75*
G03*
X7409848Y47386445I-1200000J0D01*
G01*
%TO.C,E1*%
X25412848Y10376882D02*
X25412848Y10512445D01*
X26477285Y9312445D02*
X29932848Y9312445D01*
X26477285Y13832445D02*
X29932848Y13832445D01*
X24672848Y13132445D02*
X25172848Y13132445D01*
X29932848Y9312445D02*
X29932848Y10512445D01*
X25412848Y10376882D02*
X26477285Y9312445D01*
X25412848Y12768008D02*
X25412848Y12632445D01*
X25412848Y12768008D02*
X26477285Y13832445D01*
X29932848Y13832445D02*
X29932848Y12632445D01*
X24922848Y13382445D02*
X24922848Y12882445D01*
%TO.C,R1*%
X17158848Y11980381D02*
X17158848Y12434509D01*
X18628848Y11980381D02*
X18628848Y12434509D01*
%TO.C,C1*%
X21315596Y14085445D02*
X21838100Y14085445D01*
X21315596Y12615445D02*
X21838100Y12615445D01*
%TO.C,TP4*%
X10711848Y19700445D02*
G75*
G03*
X10711848Y19700445I-1200000J0D01*
G01*
%TO.C,C2*%
X21315596Y10329445D02*
X21838100Y10329445D01*
X21315596Y11799445D02*
X21838100Y11799445D01*
%TO.C,D1*%
X11317848Y11461445D02*
X15617848Y11461445D01*
X15617848Y13461445D02*
X11317848Y13461445D01*
X15617848Y11461445D02*
X15617848Y13461445D01*
%TD*%
%LPC*%
D14*
%TO.C,SW2*%
X18761848Y52178445D03*
X31261848Y52178445D03*
X18761848Y47178445D03*
X31261848Y47178445D03*
%TD*%
%TO.C,SW4*%
X31261848Y21808445D03*
X18761848Y21808445D03*
X31261848Y26808445D03*
X18761848Y26808445D03*
%TD*%
D15*
%TO.C,SW5*%
X40211848Y43268445D03*
X40211848Y30768445D03*
X35211848Y43268445D03*
X35211848Y30768445D03*
%TD*%
%TO.C,SW1*%
X9781848Y30768445D03*
X9781848Y43268445D03*
X14781848Y30768445D03*
X14781848Y43268445D03*
%TD*%
D14*
%TO.C,SW3*%
X31251848Y34518445D03*
X18751848Y34518445D03*
X31251848Y39518445D03*
X18751848Y39518445D03*
%TD*%
D16*
%TO.C,U1*%
X9384848Y9413445D03*
D17*
X9384848Y6873445D03*
X9384848Y4333445D03*
%TD*%
D18*
%TO.C,D2*%
X29704848Y2555445D03*
D17*
X29704848Y5095445D03*
X29704848Y7635445D03*
%TD*%
D19*
%TO.C,SW6*%
X37797848Y10262445D03*
X37797848Y3762445D03*
X42297848Y3762445D03*
X42297848Y10262445D03*
%TD*%
%TO.C,TP1*%
X3415848Y49037445D03*
%TD*%
%TO.C,TP3*%
X3415848Y45735445D03*
%TD*%
%TO.C,TP2*%
X6209848Y47386445D03*
%TD*%
D20*
%TO.C,E1*%
X25872848Y11572445D03*
X29472848Y11572445D03*
%TD*%
D21*
%TO.C,R1*%
X17893848Y11207445D03*
X17893848Y13207445D03*
%TD*%
D22*
%TO.C,C1*%
X20539348Y13350445D03*
X22614348Y13350445D03*
%TD*%
D19*
%TO.C,TP4*%
X9511848Y19700445D03*
%TD*%
D22*
%TO.C,C2*%
X20539348Y11064445D03*
X22614348Y11064445D03*
%TD*%
D23*
%TO.C,D1*%
X14817848Y12461445D03*
X11317848Y12461445D03*
%TD*%
D24*
%TO.C,J5*%
X23481848Y1666445D03*
D25*
X20941848Y1666445D03*
X18401848Y1666445D03*
X15861848Y1666445D03*
X13321848Y1666445D03*
%TD*%
D26*
%TO.C,J3*%
X4177848Y25702445D03*
D27*
X4177848Y27702445D03*
X4177848Y29702445D03*
X4177848Y31702445D03*
X4177848Y33702445D03*
X4177848Y35702445D03*
X4177848Y37702445D03*
X4177848Y39702445D03*
%TD*%
D24*
%TO.C,J2*%
X46595848Y42799445D03*
D25*
X46595848Y40259445D03*
X46595848Y37719445D03*
X46595848Y35179445D03*
X46595848Y32639445D03*
X46595848Y30099445D03*
X46595848Y27559445D03*
X46595848Y25019445D03*
%TD*%
D26*
%TO.C,J6*%
X4418048Y3444445D03*
D27*
X4418048Y5444445D03*
X4418048Y7444445D03*
X4418048Y9444445D03*
X4418048Y11444445D03*
%TD*%
M02*
