%TF.GenerationSoftware,KiCad,Pcbnew,(6.0.10)*%
%TF.CreationDate,2023-01-21T19:04:37+09:00*%
%TF.ProjectId,monitor_control_board,6d6f6e69-746f-4725-9f63-6f6e74726f6c,rev?*%
%TF.SameCoordinates,PX7ab4258PY723a4bd*%
%TF.FileFunction,Legend,Bot*%
%TF.FilePolarity,Positive*%
%FSLAX46Y46*%
G04 Gerber Fmt 4.6, Leading zero omitted, Abs format (unit mm)*
G04 Created by KiCad (PCBNEW (6.0.10)) date 2023-01-21 19:04:37*
%MOMM*%
%LPD*%
G01*
G04 APERTURE LIST*
G04 Aperture macros list*
%AMRoundRect*
0 Rectangle with rounded corners*
0 $1 Rounding radius*
0 $2 $3 $4 $5 $6 $7 $8 $9 X,Y pos of 4 corners*
0 Add a 4 corners polygon primitive as box body*
4,1,4,$2,$3,$4,$5,$6,$7,$8,$9,$2,$3,0*
0 Add four circle primitives for the rounded corners*
1,1,$1+$1,$2,$3*
1,1,$1+$1,$4,$5*
1,1,$1+$1,$6,$7*
1,1,$1+$1,$8,$9*
0 Add four rect primitives between the rounded corners*
20,1,$1+$1,$2,$3,$4,$5,0*
20,1,$1+$1,$4,$5,$6,$7,0*
20,1,$1+$1,$6,$7,$8,$9,0*
20,1,$1+$1,$8,$9,$2,$3,0*%
G04 Aperture macros list end*
%ADD10C,0.150000*%
%ADD11C,0.200000*%
%ADD12C,0.120000*%
%ADD13O,1.850000X3.048000*%
%ADD14RoundRect,0.250200X-0.649800X0.649800X-0.649800X-0.649800X0.649800X-0.649800X0.649800X0.649800X0*%
%ADD15C,1.800000*%
%ADD16R,1.800000X1.800000*%
%ADD17C,2.000000*%
%ADD18O,3.048000X1.850000*%
%ADD19O,1.700000X1.700000*%
%ADD20R,1.700000X1.700000*%
%ADD21RoundRect,0.250000X0.625000X-0.350000X0.625000X0.350000X-0.625000X0.350000X-0.625000X-0.350000X0*%
%ADD22O,1.750000X1.200000*%
G04 APERTURE END LIST*
D10*
X6139943Y28361874D02*
X5492324Y28361874D01*
X5416133Y28399969D01*
X5378038Y28438065D01*
X5339943Y28514255D01*
X5339943Y28666636D01*
X5378038Y28742826D01*
X5416133Y28780922D01*
X5492324Y28819017D01*
X6139943Y28819017D01*
X6266943Y3292065D02*
X6266943Y2911112D01*
X5885990Y2873017D01*
X5924086Y2911112D01*
X5962181Y2987303D01*
X5962181Y3177779D01*
X5924086Y3253969D01*
X5885990Y3292065D01*
X5809800Y3330160D01*
X5619324Y3330160D01*
X5543133Y3292065D01*
X5505038Y3253969D01*
X5466943Y3177779D01*
X5466943Y2987303D01*
X5505038Y2911112D01*
X5543133Y2873017D01*
X6266943Y3558731D02*
X5466943Y3825398D01*
X6266943Y4092065D01*
D11*
X4444419Y50537684D02*
X4330133Y50490065D01*
X4139657Y50490065D01*
X4063467Y50537684D01*
X4025371Y50585303D01*
X3987276Y50680541D01*
X3987276Y50775779D01*
X4025371Y50871017D01*
X4063467Y50918636D01*
X4139657Y50966255D01*
X4292038Y51013874D01*
X4368228Y51061493D01*
X4406324Y51109112D01*
X4444419Y51204350D01*
X4444419Y51299588D01*
X4406324Y51394826D01*
X4368228Y51442445D01*
X4292038Y51490065D01*
X4101562Y51490065D01*
X3987276Y51442445D01*
X3187276Y50490065D02*
X3453943Y50966255D01*
X3644419Y50490065D02*
X3644419Y51490065D01*
X3339657Y51490065D01*
X3263467Y51442445D01*
X3225371Y51394826D01*
X3187276Y51299588D01*
X3187276Y51156731D01*
X3225371Y51061493D01*
X3263467Y51013874D01*
X3339657Y50966255D01*
X3644419Y50966255D01*
X2387276Y50585303D02*
X2425371Y50537684D01*
X2539657Y50490065D01*
X2615848Y50490065D01*
X2730133Y50537684D01*
X2806324Y50632922D01*
X2844419Y50728160D01*
X2882514Y50918636D01*
X2882514Y51061493D01*
X2844419Y51251969D01*
X2806324Y51347207D01*
X2730133Y51442445D01*
X2615848Y51490065D01*
X2539657Y51490065D01*
X2425371Y51442445D01*
X2387276Y51394826D01*
D10*
X13112324Y3971445D02*
X13188514Y4009541D01*
X13302800Y4009541D01*
X13417086Y3971445D01*
X13493276Y3895255D01*
X13531371Y3819065D01*
X13569467Y3666684D01*
X13569467Y3552398D01*
X13531371Y3400017D01*
X13493276Y3323826D01*
X13417086Y3247636D01*
X13302800Y3209541D01*
X13226609Y3209541D01*
X13112324Y3247636D01*
X13074228Y3285731D01*
X13074228Y3552398D01*
X13226609Y3552398D01*
X5339943Y30412922D02*
X6139943Y30412922D01*
X6139943Y30603398D01*
X6101848Y30717684D01*
X6025657Y30793874D01*
X5949467Y30831969D01*
X5797086Y30870065D01*
X5682800Y30870065D01*
X5530419Y30831969D01*
X5454228Y30793874D01*
X5378038Y30717684D01*
X5339943Y30603398D01*
X5339943Y30412922D01*
X9964133Y53538065D02*
X10297467Y54014255D01*
X10535562Y53538065D02*
X10535562Y54538065D01*
X10154609Y54538065D01*
X10059371Y54490445D01*
X10011752Y54442826D01*
X9964133Y54347588D01*
X9964133Y54204731D01*
X10011752Y54109493D01*
X10059371Y54061874D01*
X10154609Y54014255D01*
X10535562Y54014255D01*
X9154609Y53585684D02*
X9249848Y53538065D01*
X9440324Y53538065D01*
X9535562Y53585684D01*
X9583181Y53680922D01*
X9583181Y54061874D01*
X9535562Y54157112D01*
X9440324Y54204731D01*
X9249848Y54204731D01*
X9154609Y54157112D01*
X9106990Y54061874D01*
X9106990Y53966636D01*
X9583181Y53871398D01*
X8773657Y54204731D02*
X8535562Y53538065D01*
X8297467Y54204731D01*
X7916514Y53633303D02*
X7868895Y53585684D01*
X7916514Y53538065D01*
X7964133Y53585684D01*
X7916514Y53633303D01*
X7916514Y53538065D01*
X7011752Y54204731D02*
X7011752Y53538065D01*
X7249848Y54585684D02*
X7487943Y53871398D01*
X6868895Y53871398D01*
X6101848Y24786769D02*
X6139943Y24710579D01*
X6139943Y24596293D01*
X6101848Y24482007D01*
X6025657Y24405817D01*
X5949467Y24367722D01*
X5797086Y24329626D01*
X5682800Y24329626D01*
X5530419Y24367722D01*
X5454228Y24405817D01*
X5378038Y24482007D01*
X5339943Y24596293D01*
X5339943Y24672484D01*
X5378038Y24786769D01*
X5416133Y24824865D01*
X5682800Y24824865D01*
X5682800Y24672484D01*
X33672705Y13061588D02*
X33672705Y14261588D01*
X32415562Y13061588D02*
X32815562Y13633017D01*
X33101276Y13061588D02*
X33101276Y14261588D01*
X32644133Y14261588D01*
X32529848Y14204445D01*
X32472705Y14147303D01*
X32415562Y14033017D01*
X32415562Y13861588D01*
X32472705Y13747303D01*
X32529848Y13690160D01*
X32644133Y13633017D01*
X33101276Y13633017D01*
X30301276Y13061588D02*
X30701276Y13633017D01*
X30986990Y13061588D02*
X30986990Y14261588D01*
X30529848Y14261588D01*
X30415562Y14204445D01*
X30358419Y14147303D01*
X30301276Y14033017D01*
X30301276Y13861588D01*
X30358419Y13747303D01*
X30415562Y13690160D01*
X30529848Y13633017D01*
X30986990Y13633017D01*
X29329848Y13118731D02*
X29444133Y13061588D01*
X29672705Y13061588D01*
X29786990Y13118731D01*
X29844133Y13233017D01*
X29844133Y13690160D01*
X29786990Y13804445D01*
X29672705Y13861588D01*
X29444133Y13861588D01*
X29329848Y13804445D01*
X29272705Y13690160D01*
X29272705Y13575874D01*
X29844133Y13461588D01*
X28244133Y13118731D02*
X28358419Y13061588D01*
X28586990Y13061588D01*
X28701276Y13118731D01*
X28758419Y13175874D01*
X28815562Y13290160D01*
X28815562Y13633017D01*
X28758419Y13747303D01*
X28701276Y13804445D01*
X28586990Y13861588D01*
X28358419Y13861588D01*
X28244133Y13804445D01*
X27272705Y13118731D02*
X27386990Y13061588D01*
X27615562Y13061588D01*
X27729848Y13118731D01*
X27786990Y13233017D01*
X27786990Y13690160D01*
X27729848Y13804445D01*
X27615562Y13861588D01*
X27386990Y13861588D01*
X27272705Y13804445D01*
X27215562Y13690160D01*
X27215562Y13575874D01*
X27786990Y13461588D01*
X26701276Y13061588D02*
X26701276Y13861588D01*
X26701276Y14261588D02*
X26758419Y14204445D01*
X26701276Y14147303D01*
X26644133Y14204445D01*
X26701276Y14261588D01*
X26701276Y14147303D01*
X26244133Y13861588D02*
X25958419Y13061588D01*
X25672705Y13861588D01*
X24758419Y13118731D02*
X24872705Y13061588D01*
X25101276Y13061588D01*
X25215562Y13118731D01*
X25272705Y13233017D01*
X25272705Y13690160D01*
X25215562Y13804445D01*
X25101276Y13861588D01*
X24872705Y13861588D01*
X24758419Y13804445D01*
X24701276Y13690160D01*
X24701276Y13575874D01*
X25272705Y13461588D01*
X24186990Y13061588D02*
X24186990Y13861588D01*
X24186990Y13633017D02*
X24129848Y13747303D01*
X24072705Y13804445D01*
X23958419Y13861588D01*
X23844133Y13861588D01*
X22529848Y13061588D02*
X22529848Y14261588D01*
X22072705Y14261588D01*
X21958419Y14204445D01*
X21901276Y14147303D01*
X21844133Y14033017D01*
X21844133Y13861588D01*
X21901276Y13747303D01*
X21958419Y13690160D01*
X22072705Y13633017D01*
X22529848Y13633017D01*
X20815562Y13061588D02*
X20815562Y13690160D01*
X20872705Y13804445D01*
X20986990Y13861588D01*
X21215562Y13861588D01*
X21329848Y13804445D01*
X20815562Y13118731D02*
X20929848Y13061588D01*
X21215562Y13061588D01*
X21329848Y13118731D01*
X21386990Y13233017D01*
X21386990Y13347303D01*
X21329848Y13461588D01*
X21215562Y13518731D01*
X20929848Y13518731D01*
X20815562Y13575874D01*
X20244133Y13061588D02*
X20244133Y13861588D01*
X20244133Y13633017D02*
X20186990Y13747303D01*
X20129848Y13804445D01*
X20015562Y13861588D01*
X19901276Y13861588D01*
X19672705Y13861588D02*
X19215562Y13861588D01*
X19501276Y14261588D02*
X19501276Y13233017D01*
X19444133Y13118731D01*
X19329848Y13061588D01*
X19215562Y13061588D01*
D11*
X4482514Y43251065D02*
X4482514Y44251065D01*
X4177752Y44251065D01*
X4101562Y44203445D01*
X4063467Y44155826D01*
X4025371Y44060588D01*
X4025371Y43917731D01*
X4063467Y43822493D01*
X4101562Y43774874D01*
X4177752Y43727255D01*
X4482514Y43727255D01*
X3758705Y44251065D02*
X3568228Y43251065D01*
X3415848Y43965350D01*
X3263467Y43251065D01*
X3072990Y44251065D01*
X2311086Y43251065D02*
X2577752Y43727255D01*
X2768228Y43251065D02*
X2768228Y44251065D01*
X2463467Y44251065D01*
X2387276Y44203445D01*
X2349181Y44155826D01*
X2311086Y44060588D01*
X2311086Y43917731D01*
X2349181Y43822493D01*
X2387276Y43774874D01*
X2463467Y43727255D01*
X2768228Y43727255D01*
D10*
X10273752Y18041445D02*
X10368990Y18089065D01*
X10511848Y18089065D01*
X10654705Y18041445D01*
X10749943Y17946207D01*
X10797562Y17850969D01*
X10845181Y17660493D01*
X10845181Y17517636D01*
X10797562Y17327160D01*
X10749943Y17231922D01*
X10654705Y17136684D01*
X10511848Y17089065D01*
X10416609Y17089065D01*
X10273752Y17136684D01*
X10226133Y17184303D01*
X10226133Y17517636D01*
X10416609Y17517636D01*
X9797562Y17089065D02*
X9797562Y18089065D01*
X9226133Y17089065D01*
X9226133Y18089065D01*
X8749943Y17089065D02*
X8749943Y18089065D01*
X8511848Y18089065D01*
X8368990Y18041445D01*
X8273752Y17946207D01*
X8226133Y17850969D01*
X8178514Y17660493D01*
X8178514Y17517636D01*
X8226133Y17327160D01*
X8273752Y17231922D01*
X8368990Y17136684D01*
X8511848Y17089065D01*
X8749943Y17089065D01*
X48334228Y37416826D02*
X49334228Y37083493D01*
X48334228Y36750160D01*
X48953276Y36416826D02*
X48953276Y35654922D01*
X49334228Y36035874D02*
X48572324Y36035874D01*
X5378038Y25980674D02*
X5339943Y26094960D01*
X5339943Y26285436D01*
X5378038Y26361626D01*
X5416133Y26399722D01*
X5492324Y26437817D01*
X5568514Y26437817D01*
X5644705Y26399722D01*
X5682800Y26361626D01*
X5720895Y26285436D01*
X5758990Y26133055D01*
X5797086Y26056865D01*
X5835181Y26018769D01*
X5911371Y25980674D01*
X5987562Y25980674D01*
X6063752Y26018769D01*
X6101848Y26056865D01*
X6139943Y26133055D01*
X6139943Y26323531D01*
X6101848Y26437817D01*
X5339943Y27237817D02*
X5720895Y26971150D01*
X5339943Y26780674D02*
X6139943Y26780674D01*
X6139943Y27085436D01*
X6101848Y27161626D01*
X6063752Y27199722D01*
X5987562Y27237817D01*
X5873276Y27237817D01*
X5797086Y27199722D01*
X5758990Y27161626D01*
X5720895Y27085436D01*
X5720895Y26780674D01*
X6139943Y31841741D02*
X5339943Y32108407D01*
X6139943Y32375074D01*
X5644705Y32641741D02*
X5644705Y33251265D01*
X5339943Y32946503D02*
X5949467Y32946503D01*
X5466943Y9013445D02*
X6266943Y9013445D01*
X5466943Y9851541D02*
X5847895Y9584874D01*
X5466943Y9394398D02*
X6266943Y9394398D01*
X6266943Y9699160D01*
X6228848Y9775350D01*
X6190752Y9813445D01*
X6114562Y9851541D01*
X6000276Y9851541D01*
X5924086Y9813445D01*
X5885990Y9775350D01*
X5847895Y9699160D01*
X5847895Y9394398D01*
X5466943Y5324065D02*
X5466943Y4943112D01*
X6266943Y4943112D01*
X5466943Y6047874D02*
X5847895Y5781207D01*
X5466943Y5590731D02*
X6266943Y5590731D01*
X6266943Y5895493D01*
X6228848Y5971684D01*
X6190752Y6009779D01*
X6114562Y6047874D01*
X6000276Y6047874D01*
X5924086Y6009779D01*
X5885990Y5971684D01*
X5847895Y5895493D01*
X5847895Y5590731D01*
X31093990Y55352588D02*
X31093990Y56552588D01*
X30693990Y55695445D01*
X30293990Y56552588D01*
X30293990Y55352588D01*
X29551133Y55352588D02*
X29665419Y55409731D01*
X29722562Y55466874D01*
X29779705Y55581160D01*
X29779705Y55924017D01*
X29722562Y56038303D01*
X29665419Y56095445D01*
X29551133Y56152588D01*
X29379705Y56152588D01*
X29265419Y56095445D01*
X29208276Y56038303D01*
X29151133Y55924017D01*
X29151133Y55581160D01*
X29208276Y55466874D01*
X29265419Y55409731D01*
X29379705Y55352588D01*
X29551133Y55352588D01*
X28636848Y56152588D02*
X28636848Y55352588D01*
X28636848Y56038303D02*
X28579705Y56095445D01*
X28465419Y56152588D01*
X28293990Y56152588D01*
X28179705Y56095445D01*
X28122562Y55981160D01*
X28122562Y55352588D01*
X27551133Y55352588D02*
X27551133Y56152588D01*
X27551133Y56552588D02*
X27608276Y56495445D01*
X27551133Y56438303D01*
X27493990Y56495445D01*
X27551133Y56552588D01*
X27551133Y56438303D01*
X27151133Y56152588D02*
X26693990Y56152588D01*
X26979705Y56552588D02*
X26979705Y55524017D01*
X26922562Y55409731D01*
X26808276Y55352588D01*
X26693990Y55352588D01*
X26122562Y55352588D02*
X26236848Y55409731D01*
X26293990Y55466874D01*
X26351133Y55581160D01*
X26351133Y55924017D01*
X26293990Y56038303D01*
X26236848Y56095445D01*
X26122562Y56152588D01*
X25951133Y56152588D01*
X25836848Y56095445D01*
X25779705Y56038303D01*
X25722562Y55924017D01*
X25722562Y55581160D01*
X25779705Y55466874D01*
X25836848Y55409731D01*
X25951133Y55352588D01*
X26122562Y55352588D01*
X25208276Y55352588D02*
X25208276Y56152588D01*
X25208276Y55924017D02*
X25151133Y56038303D01*
X25093990Y56095445D01*
X24979705Y56152588D01*
X24865419Y56152588D01*
X23322562Y56552588D02*
X23093990Y56552588D01*
X22979705Y56495445D01*
X22865419Y56381160D01*
X22808276Y56152588D01*
X22808276Y55752588D01*
X22865419Y55524017D01*
X22979705Y55409731D01*
X23093990Y55352588D01*
X23322562Y55352588D01*
X23436848Y55409731D01*
X23551133Y55524017D01*
X23608276Y55752588D01*
X23608276Y56152588D01*
X23551133Y56381160D01*
X23436848Y56495445D01*
X23322562Y56552588D01*
X22351133Y55409731D02*
X22179705Y55352588D01*
X21893990Y55352588D01*
X21779705Y55409731D01*
X21722562Y55466874D01*
X21665419Y55581160D01*
X21665419Y55695445D01*
X21722562Y55809731D01*
X21779705Y55866874D01*
X21893990Y55924017D01*
X22122562Y55981160D01*
X22236848Y56038303D01*
X22293990Y56095445D01*
X22351133Y56209731D01*
X22351133Y56324017D01*
X22293990Y56438303D01*
X22236848Y56495445D01*
X22122562Y56552588D01*
X21836848Y56552588D01*
X21665419Y56495445D01*
X21151133Y55352588D02*
X21151133Y56552588D01*
X20865419Y56552588D01*
X20693990Y56495445D01*
X20579705Y56381160D01*
X20522562Y56266874D01*
X20465419Y56038303D01*
X20465419Y55866874D01*
X20522562Y55638303D01*
X20579705Y55524017D01*
X20693990Y55409731D01*
X20865419Y55352588D01*
X21151133Y55352588D01*
X18351133Y55466874D02*
X18408276Y55409731D01*
X18579705Y55352588D01*
X18693990Y55352588D01*
X18865419Y55409731D01*
X18979705Y55524017D01*
X19036848Y55638303D01*
X19093990Y55866874D01*
X19093990Y56038303D01*
X19036848Y56266874D01*
X18979705Y56381160D01*
X18865419Y56495445D01*
X18693990Y56552588D01*
X18579705Y56552588D01*
X18408276Y56495445D01*
X18351133Y56438303D01*
X17665419Y55352588D02*
X17779705Y55409731D01*
X17836848Y55466874D01*
X17893990Y55581160D01*
X17893990Y55924017D01*
X17836848Y56038303D01*
X17779705Y56095445D01*
X17665419Y56152588D01*
X17493990Y56152588D01*
X17379705Y56095445D01*
X17322562Y56038303D01*
X17265419Y55924017D01*
X17265419Y55581160D01*
X17322562Y55466874D01*
X17379705Y55409731D01*
X17493990Y55352588D01*
X17665419Y55352588D01*
X16751133Y56152588D02*
X16751133Y55352588D01*
X16751133Y56038303D02*
X16693990Y56095445D01*
X16579705Y56152588D01*
X16408276Y56152588D01*
X16293990Y56095445D01*
X16236848Y55981160D01*
X16236848Y55352588D01*
X15836848Y56152588D02*
X15379705Y56152588D01*
X15665419Y56552588D02*
X15665419Y55524017D01*
X15608276Y55409731D01*
X15493990Y55352588D01*
X15379705Y55352588D01*
X14979705Y55352588D02*
X14979705Y56152588D01*
X14979705Y55924017D02*
X14922562Y56038303D01*
X14865419Y56095445D01*
X14751133Y56152588D01*
X14636848Y56152588D01*
X14065419Y55352588D02*
X14179705Y55409731D01*
X14236848Y55466874D01*
X14293990Y55581160D01*
X14293990Y55924017D01*
X14236848Y56038303D01*
X14179705Y56095445D01*
X14065419Y56152588D01*
X13893990Y56152588D01*
X13779705Y56095445D01*
X13722562Y56038303D01*
X13665419Y55924017D01*
X13665419Y55581160D01*
X13722562Y55466874D01*
X13779705Y55409731D01*
X13893990Y55352588D01*
X14065419Y55352588D01*
X12979705Y55352588D02*
X13093990Y55409731D01*
X13151133Y55524017D01*
X13151133Y56552588D01*
X11208276Y55981160D02*
X11036848Y55924017D01*
X10979705Y55866874D01*
X10922562Y55752588D01*
X10922562Y55581160D01*
X10979705Y55466874D01*
X11036848Y55409731D01*
X11151133Y55352588D01*
X11608276Y55352588D01*
X11608276Y56552588D01*
X11208276Y56552588D01*
X11093990Y56495445D01*
X11036848Y56438303D01*
X10979705Y56324017D01*
X10979705Y56209731D01*
X11036848Y56095445D01*
X11093990Y56038303D01*
X11208276Y55981160D01*
X11608276Y55981160D01*
X10236848Y55352588D02*
X10351133Y55409731D01*
X10408276Y55466874D01*
X10465419Y55581160D01*
X10465419Y55924017D01*
X10408276Y56038303D01*
X10351133Y56095445D01*
X10236848Y56152588D01*
X10065419Y56152588D01*
X9951133Y56095445D01*
X9893990Y56038303D01*
X9836848Y55924017D01*
X9836848Y55581160D01*
X9893990Y55466874D01*
X9951133Y55409731D01*
X10065419Y55352588D01*
X10236848Y55352588D01*
X8808276Y55352588D02*
X8808276Y55981160D01*
X8865419Y56095445D01*
X8979705Y56152588D01*
X9208276Y56152588D01*
X9322562Y56095445D01*
X8808276Y55409731D02*
X8922562Y55352588D01*
X9208276Y55352588D01*
X9322562Y55409731D01*
X9379705Y55524017D01*
X9379705Y55638303D01*
X9322562Y55752588D01*
X9208276Y55809731D01*
X8922562Y55809731D01*
X8808276Y55866874D01*
X8236848Y55352588D02*
X8236848Y56152588D01*
X8236848Y55924017D02*
X8179705Y56038303D01*
X8122562Y56095445D01*
X8008276Y56152588D01*
X7893990Y56152588D01*
X6979705Y55352588D02*
X6979705Y56552588D01*
X6979705Y55409731D02*
X7093990Y55352588D01*
X7322562Y55352588D01*
X7436848Y55409731D01*
X7493990Y55466874D01*
X7551133Y55581160D01*
X7551133Y55924017D01*
X7493990Y56038303D01*
X7436848Y56095445D01*
X7322562Y56152588D01*
X7093990Y56152588D01*
X6979705Y56095445D01*
X48381848Y26067941D02*
X48334228Y26163179D01*
X48334228Y26306036D01*
X48381848Y26448893D01*
X48477086Y26544131D01*
X48572324Y26591750D01*
X48762800Y26639369D01*
X48905657Y26639369D01*
X49096133Y26591750D01*
X49191371Y26544131D01*
X49286609Y26448893D01*
X49334228Y26306036D01*
X49334228Y26210798D01*
X49286609Y26067941D01*
X49238990Y26020322D01*
X48905657Y26020322D01*
X48905657Y26210798D01*
X5339943Y37931379D02*
X6139943Y37931379D01*
X6139943Y38236141D01*
X6101848Y38312331D01*
X6063752Y38350426D01*
X5987562Y38388522D01*
X5873276Y38388522D01*
X5797086Y38350426D01*
X5758990Y38312331D01*
X5720895Y38236141D01*
X5720895Y37931379D01*
X6139943Y38655188D02*
X5339943Y38845665D01*
X5911371Y38998045D01*
X5339943Y39150426D01*
X6139943Y39340903D01*
X23634228Y4009541D02*
X24015181Y4009541D01*
X24053276Y3628588D01*
X24015181Y3666684D01*
X23938990Y3704779D01*
X23748514Y3704779D01*
X23672324Y3666684D01*
X23634228Y3628588D01*
X23596133Y3552398D01*
X23596133Y3361922D01*
X23634228Y3285731D01*
X23672324Y3247636D01*
X23748514Y3209541D01*
X23938990Y3209541D01*
X24015181Y3247636D01*
X24053276Y3285731D01*
X23367562Y4009541D02*
X23100895Y3209541D01*
X22834228Y4009541D01*
X49334228Y29703179D02*
X48334228Y29703179D01*
X48334228Y29322226D01*
X48381848Y29226988D01*
X48429467Y29179369D01*
X48524705Y29131750D01*
X48667562Y29131750D01*
X48762800Y29179369D01*
X48810419Y29226988D01*
X48858038Y29322226D01*
X48858038Y29703179D01*
X48334228Y28798417D02*
X49334228Y28560322D01*
X48619943Y28369845D01*
X49334228Y28179369D01*
X48334228Y27941274D01*
X48334228Y34902226D02*
X49334228Y34568893D01*
X48334228Y34235560D01*
X48953276Y33902226D02*
X48953276Y33140322D01*
X5466943Y7229065D02*
X5466943Y6848112D01*
X6266943Y6848112D01*
X6228848Y7914779D02*
X6266943Y7838588D01*
X6266943Y7724303D01*
X6228848Y7610017D01*
X6152657Y7533826D01*
X6076467Y7495731D01*
X5924086Y7457636D01*
X5809800Y7457636D01*
X5657419Y7495731D01*
X5581228Y7533826D01*
X5505038Y7610017D01*
X5466943Y7724303D01*
X5466943Y7800493D01*
X5505038Y7914779D01*
X5543133Y7952874D01*
X5809800Y7952874D01*
X5809800Y7800493D01*
X49334228Y39291750D02*
X48334228Y39291750D01*
X48334228Y39053655D01*
X48381848Y38910798D01*
X48477086Y38815560D01*
X48572324Y38767941D01*
X48762800Y38720322D01*
X48905657Y38720322D01*
X49096133Y38767941D01*
X49191371Y38815560D01*
X49286609Y38910798D01*
X49334228Y39053655D01*
X49334228Y39291750D01*
X48334228Y41855560D02*
X49143752Y41855560D01*
X49238990Y41807941D01*
X49286609Y41760322D01*
X49334228Y41665084D01*
X49334228Y41474607D01*
X49286609Y41379369D01*
X49238990Y41331750D01*
X49143752Y41284131D01*
X48334228Y41284131D01*
X6101848Y40788769D02*
X6139943Y40712579D01*
X6139943Y40598293D01*
X6101848Y40484007D01*
X6025657Y40407817D01*
X5949467Y40369722D01*
X5797086Y40331626D01*
X5682800Y40331626D01*
X5530419Y40369722D01*
X5454228Y40407817D01*
X5378038Y40484007D01*
X5339943Y40598293D01*
X5339943Y40674484D01*
X5378038Y40788769D01*
X5416133Y40826865D01*
X5682800Y40826865D01*
X5682800Y40674484D01*
X48254848Y46413341D02*
X48207228Y46508579D01*
X48207228Y46651436D01*
X48254848Y46794293D01*
X48350086Y46889531D01*
X48445324Y46937150D01*
X48635800Y46984769D01*
X48778657Y46984769D01*
X48969133Y46937150D01*
X49064371Y46889531D01*
X49159609Y46794293D01*
X49207228Y46651436D01*
X49207228Y46556198D01*
X49159609Y46413341D01*
X49111990Y46365722D01*
X48778657Y46365722D01*
X48778657Y46556198D01*
X16261848Y3209541D02*
X16261848Y4009541D01*
X15423752Y3209541D02*
X15690419Y3590493D01*
X15880895Y3209541D02*
X15880895Y4009541D01*
X15576133Y4009541D01*
X15499943Y3971445D01*
X15461848Y3933350D01*
X15423752Y3857160D01*
X15423752Y3742874D01*
X15461848Y3666684D01*
X15499943Y3628588D01*
X15576133Y3590493D01*
X15880895Y3590493D01*
X6228848Y11654969D02*
X6266943Y11578779D01*
X6266943Y11464493D01*
X6228848Y11350207D01*
X6152657Y11274017D01*
X6076467Y11235922D01*
X5924086Y11197826D01*
X5809800Y11197826D01*
X5657419Y11235922D01*
X5581228Y11274017D01*
X5505038Y11350207D01*
X5466943Y11464493D01*
X5466943Y11540684D01*
X5505038Y11654969D01*
X5543133Y11693065D01*
X5809800Y11693065D01*
X5809800Y11540684D01*
X49334228Y31743179D02*
X48334228Y31743179D01*
X49048514Y31409845D01*
X48334228Y31076512D01*
X49334228Y31076512D01*
X6139943Y33822941D02*
X5339943Y34089607D01*
X6139943Y34356274D01*
X5644705Y34622941D02*
X5644705Y35232465D01*
X18554228Y3209541D02*
X18935181Y3209541D01*
X18935181Y4009541D01*
X17868514Y3971445D02*
X17944705Y4009541D01*
X18058990Y4009541D01*
X18173276Y3971445D01*
X18249467Y3895255D01*
X18287562Y3819065D01*
X18325657Y3666684D01*
X18325657Y3552398D01*
X18287562Y3400017D01*
X18249467Y3323826D01*
X18173276Y3247636D01*
X18058990Y3209541D01*
X17982800Y3209541D01*
X17868514Y3247636D01*
X17830419Y3285731D01*
X17830419Y3552398D01*
X17982800Y3552398D01*
X5339943Y36299379D02*
X6139943Y36299379D01*
X5568514Y36566045D01*
X6139943Y36832712D01*
X5339943Y36832712D01*
D11*
X9359371Y47886445D02*
X9435562Y47934065D01*
X9549848Y47934065D01*
X9664133Y47886445D01*
X9740324Y47791207D01*
X9778419Y47695969D01*
X9816514Y47505493D01*
X9816514Y47362636D01*
X9778419Y47172160D01*
X9740324Y47076922D01*
X9664133Y46981684D01*
X9549848Y46934065D01*
X9473657Y46934065D01*
X9359371Y46981684D01*
X9321276Y47029303D01*
X9321276Y47362636D01*
X9473657Y47362636D01*
X8978419Y46934065D02*
X8978419Y47934065D01*
X8521276Y46934065D01*
X8521276Y47934065D01*
X8140324Y46934065D02*
X8140324Y47934065D01*
X7949848Y47934065D01*
X7835562Y47886445D01*
X7759371Y47791207D01*
X7721276Y47695969D01*
X7683181Y47505493D01*
X7683181Y47362636D01*
X7721276Y47172160D01*
X7759371Y47076922D01*
X7835562Y46981684D01*
X7949848Y46934065D01*
X8140324Y46934065D01*
D10*
X21094228Y3209541D02*
X21475181Y3209541D01*
X21475181Y4009541D01*
X20370419Y3209541D02*
X20637086Y3590493D01*
X20827562Y3209541D02*
X20827562Y4009541D01*
X20522800Y4009541D01*
X20446609Y3971445D01*
X20408514Y3933350D01*
X20370419Y3857160D01*
X20370419Y3742874D01*
X20408514Y3666684D01*
X20446609Y3628588D01*
X20522800Y3590493D01*
X20827562Y3590493D01*
X49148609Y44895560D02*
X49196228Y44752703D01*
X49196228Y44514607D01*
X49148609Y44419369D01*
X49100990Y44371750D01*
X49005752Y44324131D01*
X48910514Y44324131D01*
X48815276Y44371750D01*
X48767657Y44419369D01*
X48720038Y44514607D01*
X48672419Y44705084D01*
X48624800Y44800322D01*
X48577181Y44847941D01*
X48481943Y44895560D01*
X48386705Y44895560D01*
X48291467Y44847941D01*
X48243848Y44800322D01*
X48196228Y44705084D01*
X48196228Y44466988D01*
X48243848Y44324131D01*
X49196228Y43324131D02*
X48720038Y43657465D01*
X49196228Y43895560D02*
X48196228Y43895560D01*
X48196228Y43514607D01*
X48243848Y43419369D01*
X48291467Y43371750D01*
X48386705Y43324131D01*
X48529562Y43324131D01*
X48624800Y43371750D01*
X48672419Y43419369D01*
X48720038Y43514607D01*
X48720038Y43895560D01*
%TO.C,J4*%
X25831314Y2104541D02*
X25831314Y1533112D01*
X25869409Y1418826D01*
X25945600Y1342636D01*
X26059886Y1304541D01*
X26136076Y1304541D01*
X25107505Y1837874D02*
X25107505Y1304541D01*
X25297981Y2142636D02*
X25488457Y1571207D01*
X24993219Y1571207D01*
%TO.C,J1*%
X1148952Y32869312D02*
X1720381Y32869312D01*
X1834667Y32907407D01*
X1910857Y32983598D01*
X1948952Y33097884D01*
X1948952Y33174074D01*
X1948952Y32069312D02*
X1948952Y32526455D01*
X1948952Y32297884D02*
X1148952Y32297884D01*
X1263238Y32374074D01*
X1339428Y32450265D01*
X1377524Y32526455D01*
%TO.C,J2*%
X46106952Y49271912D02*
X46678381Y49271912D01*
X46792667Y49310007D01*
X46868857Y49386198D01*
X46906952Y49500484D01*
X46906952Y49576674D01*
X46183143Y48929055D02*
X46145048Y48890960D01*
X46106952Y48814769D01*
X46106952Y48624293D01*
X46145048Y48548103D01*
X46183143Y48510007D01*
X46259333Y48471912D01*
X46335524Y48471912D01*
X46449809Y48510007D01*
X46906952Y48967150D01*
X46906952Y48471912D01*
%TO.C,J3*%
X1402952Y7724312D02*
X1974381Y7724312D01*
X2088667Y7762407D01*
X2164857Y7838598D01*
X2202952Y7952884D01*
X2202952Y8029074D01*
X1402952Y7419550D02*
X1402952Y6924312D01*
X1707714Y7190979D01*
X1707714Y7076693D01*
X1745809Y7000503D01*
X1783905Y6962407D01*
X1860095Y6924312D01*
X2050571Y6924312D01*
X2126762Y6962407D01*
X2164857Y7000503D01*
X2202952Y7076693D01*
X2202952Y7305265D01*
X2164857Y7381455D01*
X2126762Y7419550D01*
D12*
%TO.C,J4*%
X22211848Y336445D02*
X22211848Y2996445D01*
X23481848Y336445D02*
X24811848Y336445D01*
X11991848Y336445D02*
X11991848Y2996445D01*
X22211848Y2996445D02*
X11991848Y2996445D01*
X24811848Y336445D02*
X24811848Y1666445D01*
X22211848Y336445D02*
X11991848Y336445D01*
%TO.C,J1*%
X4012448Y23742645D02*
X4012448Y23462645D01*
X52448Y24302645D02*
X1652448Y24302645D01*
X52448Y23802645D02*
X-2207552Y23802645D01*
X4012448Y23462645D02*
X5612448Y23462645D01*
X1652448Y40902645D02*
X1652448Y41902645D01*
X4012448Y42662645D02*
X4012448Y41742645D01*
X52448Y41902645D02*
X52448Y40902645D01*
X4012448Y41742645D02*
X4012448Y41462645D01*
X52448Y24302645D02*
X-2207552Y24302645D01*
X-2207552Y22542645D02*
X-2207552Y42662645D01*
X5612448Y22542645D02*
X-2207552Y22542645D01*
X4012448Y22542645D02*
X4012448Y23462645D01*
X5612448Y42662645D02*
X5612448Y41742645D01*
X2152448Y25102645D02*
X2152448Y40102645D01*
X4012448Y23742645D02*
X5227448Y23742645D01*
X-2207552Y25102645D02*
X2152448Y25102645D01*
X52448Y23302645D02*
X52448Y24302645D01*
X5612448Y41742645D02*
X4012448Y41742645D01*
X2152448Y40102645D02*
X-2207552Y40102645D01*
X1652448Y24302645D02*
X1652448Y23302645D01*
X1652448Y41902645D02*
X52448Y41902645D01*
X52448Y40902645D02*
X1652448Y40902645D01*
X1652448Y23302645D02*
X52448Y23302645D01*
X-2207552Y42662645D02*
X5612448Y42662645D01*
X5612448Y23462645D02*
X5612448Y22542645D01*
%TO.C,J2*%
X45215048Y45405245D02*
X45215048Y25025245D01*
X47875048Y46675245D02*
X47875048Y48005245D01*
X47875048Y25025245D02*
X45215048Y25025245D01*
X47875048Y45405245D02*
X45215048Y45405245D01*
X47875048Y48005245D02*
X46545048Y48005245D01*
X47875048Y45405245D02*
X47875048Y25025245D01*
%TO.C,J3*%
X-1941952Y3944445D02*
X2418048Y3944445D01*
X4278048Y12584445D02*
X4278048Y12304445D01*
X318048Y3144445D02*
X-1941952Y3144445D01*
X1918048Y11744445D02*
X1918048Y12744445D01*
X4278048Y2304445D02*
X5878048Y2304445D01*
X1918048Y3144445D02*
X1918048Y2144445D01*
X-1941952Y13504445D02*
X5878048Y13504445D01*
X-1941952Y1384445D02*
X-1941952Y13504445D01*
X2418048Y10944445D02*
X-1941952Y10944445D01*
X5878048Y2304445D02*
X5878048Y1384445D01*
X318048Y11744445D02*
X1918048Y11744445D01*
X2418048Y3944445D02*
X2418048Y10944445D01*
X5878048Y13504445D02*
X5878048Y12584445D01*
X4278048Y13504445D02*
X4278048Y12584445D01*
X318048Y3144445D02*
X1918048Y3144445D01*
X4278048Y1384445D02*
X4278048Y2304445D01*
X4278048Y2584445D02*
X5493048Y2584445D01*
X4278048Y2584445D02*
X4278048Y2304445D01*
X318048Y2144445D02*
X318048Y3144445D01*
X318048Y2644445D02*
X-1941952Y2644445D01*
X1918048Y2144445D02*
X318048Y2144445D01*
X5878048Y12584445D02*
X4278048Y12584445D01*
X1918048Y12744445D02*
X318048Y12744445D01*
X318048Y12744445D02*
X318048Y11744445D01*
X5878048Y1384445D02*
X-1941952Y1384445D01*
%TD*%
%LPC*%
D13*
%TO.C,SW1*%
X9811848Y43268445D03*
X9811848Y30768445D03*
X14811848Y43268445D03*
X14811848Y30768445D03*
%TD*%
D14*
%TO.C,U1*%
X9384848Y9413445D03*
D15*
X9384848Y6873445D03*
X9384848Y4333445D03*
%TD*%
D16*
%TO.C,D2*%
X29704848Y2555445D03*
D15*
X29704848Y5095445D03*
X29704848Y7635445D03*
%TD*%
D17*
%TO.C,SW6*%
X37797848Y10262445D03*
X37797848Y3762445D03*
X42297848Y3762445D03*
X42297848Y10262445D03*
%TD*%
%TO.C,TP2*%
X3415848Y49037445D03*
%TD*%
D13*
%TO.C,SW5*%
X40171848Y30778445D03*
X40171848Y43278445D03*
X35171848Y30778445D03*
X35171848Y43278445D03*
%TD*%
D17*
%TO.C,TP1*%
X3415848Y45735445D03*
%TD*%
%TO.C,TP3*%
X6209848Y47386445D03*
%TD*%
D18*
%TO.C,SW4*%
X18751848Y21808445D03*
X31251848Y21808445D03*
X18751848Y26808445D03*
X31251848Y26808445D03*
%TD*%
%TO.C,SW2*%
X31251848Y52178445D03*
X18751848Y52178445D03*
X31251848Y47178445D03*
X18751848Y47178445D03*
%TD*%
D17*
%TO.C,TP4*%
X9511848Y19700445D03*
%TD*%
D18*
%TO.C,SW3*%
X18751848Y39518445D03*
X31251848Y39518445D03*
X18751848Y34518445D03*
X31251848Y34518445D03*
%TD*%
D19*
%TO.C,J4*%
X13321848Y1666445D03*
X15861848Y1666445D03*
X18401848Y1666445D03*
X20941848Y1666445D03*
D20*
X23481848Y1666445D03*
%TD*%
D21*
%TO.C,J1*%
X4152448Y24602645D03*
D22*
X4152448Y26602645D03*
X4152448Y28602645D03*
X4152448Y30602645D03*
X4152448Y32602645D03*
X4152448Y34602645D03*
X4152448Y36602645D03*
X4152448Y38602645D03*
X4152448Y40602645D03*
%TD*%
D19*
%TO.C,J2*%
X46545048Y26355245D03*
X46545048Y28895245D03*
X46545048Y31435245D03*
X46545048Y33975245D03*
X46545048Y36515245D03*
X46545048Y39055245D03*
X46545048Y41595245D03*
X46545048Y44135245D03*
D20*
X46545048Y46675245D03*
%TD*%
D21*
%TO.C,J3*%
X4418048Y3444445D03*
D22*
X4418048Y5444445D03*
X4418048Y7444445D03*
X4418048Y9444445D03*
X4418048Y11444445D03*
%TD*%
M02*
