%TF.GenerationSoftware,KiCad,Pcbnew,(6.0.7)*%
%TF.CreationDate,2022-08-16T23:57:58+09:00*%
%TF.ProjectId,monitor_control_board,6d6f6e69-746f-4725-9f63-6f6e74726f6c,rev?*%
%TF.SameCoordinates,Original*%
%TF.FileFunction,Legend,Bot*%
%TF.FilePolarity,Positive*%
%FSLAX46Y46*%
G04 Gerber Fmt 4.6, Leading zero omitted, Abs format (unit mm)*
G04 Created by KiCad (PCBNEW (6.0.7)) date 2022-08-16 23:57:58*
%MOMM*%
%LPD*%
G01*
G04 APERTURE LIST*
%ADD10C,0.150000*%
%ADD11C,0.120000*%
G04 APERTURE END LIST*
D10*
X160248571Y-112591904D02*
X160248571Y-113239523D01*
X160210476Y-113315714D01*
X160172380Y-113353809D01*
X160096190Y-113391904D01*
X159943809Y-113391904D01*
X159867619Y-113353809D01*
X159829523Y-113315714D01*
X159791428Y-113239523D01*
X159791428Y-112591904D01*
X158197523Y-113391904D02*
X158197523Y-112591904D01*
X158007047Y-112591904D01*
X157892761Y-112630000D01*
X157816571Y-112706190D01*
X157778476Y-112782380D01*
X157740380Y-112934761D01*
X157740380Y-113049047D01*
X157778476Y-113201428D01*
X157816571Y-113277619D01*
X157892761Y-113353809D01*
X158007047Y-113391904D01*
X158197523Y-113391904D01*
X132897619Y-92463904D02*
X133897619Y-92463904D01*
X133897619Y-92225809D01*
X133850000Y-92082952D01*
X133754761Y-91987714D01*
X133659523Y-91940095D01*
X133469047Y-91892476D01*
X133326190Y-91892476D01*
X133135714Y-91940095D01*
X133040476Y-91987714D01*
X132945238Y-92082952D01*
X132897619Y-92225809D01*
X132897619Y-92463904D01*
X132897619Y-82875333D02*
X133897619Y-82875333D01*
X133897619Y-82494380D01*
X133850000Y-82399142D01*
X133802380Y-82351523D01*
X133707142Y-82303904D01*
X133564285Y-82303904D01*
X133469047Y-82351523D01*
X133421428Y-82399142D01*
X133373809Y-82494380D01*
X133373809Y-82875333D01*
X133897619Y-81970571D02*
X132897619Y-81732476D01*
X133611904Y-81542000D01*
X132897619Y-81351523D01*
X133897619Y-81113428D01*
X162966285Y-113353809D02*
X162852000Y-113391904D01*
X162661523Y-113391904D01*
X162585333Y-113353809D01*
X162547238Y-113315714D01*
X162509142Y-113239523D01*
X162509142Y-113163333D01*
X162547238Y-113087142D01*
X162585333Y-113049047D01*
X162661523Y-113010952D01*
X162813904Y-112972857D01*
X162890095Y-112934761D01*
X162928190Y-112896666D01*
X162966285Y-112820476D01*
X162966285Y-112744285D01*
X162928190Y-112668095D01*
X162890095Y-112630000D01*
X162813904Y-112591904D01*
X162623428Y-112591904D01*
X162509142Y-112630000D01*
X162166285Y-112972857D02*
X161899619Y-112972857D01*
X161785333Y-113391904D02*
X162166285Y-113391904D01*
X162166285Y-112591904D01*
X161785333Y-112591904D01*
X161061523Y-113391904D02*
X161442476Y-113391904D01*
X161442476Y-112591904D01*
X156717904Y-112591904D02*
X156451238Y-113391904D01*
X156184571Y-112591904D01*
X155917904Y-113087142D02*
X155308380Y-113087142D01*
X155613142Y-113391904D02*
X155613142Y-112782380D01*
X133897619Y-95027714D02*
X133088095Y-95027714D01*
X132992857Y-94980095D01*
X132945238Y-94932476D01*
X132897619Y-94837238D01*
X132897619Y-94646761D01*
X132945238Y-94551523D01*
X132992857Y-94503904D01*
X133088095Y-94456285D01*
X133897619Y-94456285D01*
X133897619Y-88074380D02*
X132897619Y-87741047D01*
X133897619Y-87407714D01*
X133278571Y-87074380D02*
X133278571Y-86312476D01*
X166355714Y-60994857D02*
X166355714Y-59794857D01*
X165955714Y-60652000D01*
X165555714Y-59794857D01*
X165555714Y-60994857D01*
X164812857Y-60994857D02*
X164927142Y-60937714D01*
X164984285Y-60880571D01*
X165041428Y-60766285D01*
X165041428Y-60423428D01*
X164984285Y-60309142D01*
X164927142Y-60252000D01*
X164812857Y-60194857D01*
X164641428Y-60194857D01*
X164527142Y-60252000D01*
X164470000Y-60309142D01*
X164412857Y-60423428D01*
X164412857Y-60766285D01*
X164470000Y-60880571D01*
X164527142Y-60937714D01*
X164641428Y-60994857D01*
X164812857Y-60994857D01*
X163898571Y-60194857D02*
X163898571Y-60994857D01*
X163898571Y-60309142D02*
X163841428Y-60252000D01*
X163727142Y-60194857D01*
X163555714Y-60194857D01*
X163441428Y-60252000D01*
X163384285Y-60366285D01*
X163384285Y-60994857D01*
X162812857Y-60994857D02*
X162812857Y-60194857D01*
X162812857Y-59794857D02*
X162870000Y-59852000D01*
X162812857Y-59909142D01*
X162755714Y-59852000D01*
X162812857Y-59794857D01*
X162812857Y-59909142D01*
X162412857Y-60194857D02*
X161955714Y-60194857D01*
X162241428Y-59794857D02*
X162241428Y-60823428D01*
X162184285Y-60937714D01*
X162070000Y-60994857D01*
X161955714Y-60994857D01*
X161384285Y-60994857D02*
X161498571Y-60937714D01*
X161555714Y-60880571D01*
X161612857Y-60766285D01*
X161612857Y-60423428D01*
X161555714Y-60309142D01*
X161498571Y-60252000D01*
X161384285Y-60194857D01*
X161212857Y-60194857D01*
X161098571Y-60252000D01*
X161041428Y-60309142D01*
X160984285Y-60423428D01*
X160984285Y-60766285D01*
X161041428Y-60880571D01*
X161098571Y-60937714D01*
X161212857Y-60994857D01*
X161384285Y-60994857D01*
X160470000Y-60994857D02*
X160470000Y-60194857D01*
X160470000Y-60423428D02*
X160412857Y-60309142D01*
X160355714Y-60252000D01*
X160241428Y-60194857D01*
X160127142Y-60194857D01*
X158127142Y-60880571D02*
X158184285Y-60937714D01*
X158355714Y-60994857D01*
X158470000Y-60994857D01*
X158641428Y-60937714D01*
X158755714Y-60823428D01*
X158812857Y-60709142D01*
X158870000Y-60480571D01*
X158870000Y-60309142D01*
X158812857Y-60080571D01*
X158755714Y-59966285D01*
X158641428Y-59852000D01*
X158470000Y-59794857D01*
X158355714Y-59794857D01*
X158184285Y-59852000D01*
X158127142Y-59909142D01*
X157441428Y-60994857D02*
X157555714Y-60937714D01*
X157612857Y-60880571D01*
X157670000Y-60766285D01*
X157670000Y-60423428D01*
X157612857Y-60309142D01*
X157555714Y-60252000D01*
X157441428Y-60194857D01*
X157270000Y-60194857D01*
X157155714Y-60252000D01*
X157098571Y-60309142D01*
X157041428Y-60423428D01*
X157041428Y-60766285D01*
X157098571Y-60880571D01*
X157155714Y-60937714D01*
X157270000Y-60994857D01*
X157441428Y-60994857D01*
X156527142Y-60194857D02*
X156527142Y-60994857D01*
X156527142Y-60309142D02*
X156470000Y-60252000D01*
X156355714Y-60194857D01*
X156184285Y-60194857D01*
X156070000Y-60252000D01*
X156012857Y-60366285D01*
X156012857Y-60994857D01*
X155612857Y-60194857D02*
X155155714Y-60194857D01*
X155441428Y-59794857D02*
X155441428Y-60823428D01*
X155384285Y-60937714D01*
X155270000Y-60994857D01*
X155155714Y-60994857D01*
X154755714Y-60994857D02*
X154755714Y-60194857D01*
X154755714Y-60423428D02*
X154698571Y-60309142D01*
X154641428Y-60252000D01*
X154527142Y-60194857D01*
X154412857Y-60194857D01*
X153841428Y-60994857D02*
X153955714Y-60937714D01*
X154012857Y-60880571D01*
X154070000Y-60766285D01*
X154070000Y-60423428D01*
X154012857Y-60309142D01*
X153955714Y-60252000D01*
X153841428Y-60194857D01*
X153670000Y-60194857D01*
X153555714Y-60252000D01*
X153498571Y-60309142D01*
X153441428Y-60423428D01*
X153441428Y-60766285D01*
X153498571Y-60880571D01*
X153555714Y-60937714D01*
X153670000Y-60994857D01*
X153841428Y-60994857D01*
X152755714Y-60994857D02*
X152870000Y-60937714D01*
X152927142Y-60823428D01*
X152927142Y-59794857D01*
X150984285Y-60366285D02*
X150812857Y-60423428D01*
X150755714Y-60480571D01*
X150698571Y-60594857D01*
X150698571Y-60766285D01*
X150755714Y-60880571D01*
X150812857Y-60937714D01*
X150927142Y-60994857D01*
X151384285Y-60994857D01*
X151384285Y-59794857D01*
X150984285Y-59794857D01*
X150870000Y-59852000D01*
X150812857Y-59909142D01*
X150755714Y-60023428D01*
X150755714Y-60137714D01*
X150812857Y-60252000D01*
X150870000Y-60309142D01*
X150984285Y-60366285D01*
X151384285Y-60366285D01*
X150012857Y-60994857D02*
X150127142Y-60937714D01*
X150184285Y-60880571D01*
X150241428Y-60766285D01*
X150241428Y-60423428D01*
X150184285Y-60309142D01*
X150127142Y-60252000D01*
X150012857Y-60194857D01*
X149841428Y-60194857D01*
X149727142Y-60252000D01*
X149670000Y-60309142D01*
X149612857Y-60423428D01*
X149612857Y-60766285D01*
X149670000Y-60880571D01*
X149727142Y-60937714D01*
X149841428Y-60994857D01*
X150012857Y-60994857D01*
X148584285Y-60994857D02*
X148584285Y-60366285D01*
X148641428Y-60252000D01*
X148755714Y-60194857D01*
X148984285Y-60194857D01*
X149098571Y-60252000D01*
X148584285Y-60937714D02*
X148698571Y-60994857D01*
X148984285Y-60994857D01*
X149098571Y-60937714D01*
X149155714Y-60823428D01*
X149155714Y-60709142D01*
X149098571Y-60594857D01*
X148984285Y-60537714D01*
X148698571Y-60537714D01*
X148584285Y-60480571D01*
X148012857Y-60994857D02*
X148012857Y-60194857D01*
X148012857Y-60423428D02*
X147955714Y-60309142D01*
X147898571Y-60252000D01*
X147784285Y-60194857D01*
X147670000Y-60194857D01*
X146755714Y-60994857D02*
X146755714Y-59794857D01*
X146755714Y-60937714D02*
X146870000Y-60994857D01*
X147098571Y-60994857D01*
X147212857Y-60937714D01*
X147270000Y-60880571D01*
X147327142Y-60766285D01*
X147327142Y-60423428D01*
X147270000Y-60309142D01*
X147212857Y-60252000D01*
X147098571Y-60194857D01*
X146870000Y-60194857D01*
X146755714Y-60252000D01*
X144584285Y-60994857D02*
X144984285Y-60423428D01*
X145270000Y-60994857D02*
X145270000Y-59794857D01*
X144812857Y-59794857D01*
X144698571Y-59852000D01*
X144641428Y-59909142D01*
X144584285Y-60023428D01*
X144584285Y-60194857D01*
X144641428Y-60309142D01*
X144698571Y-60366285D01*
X144812857Y-60423428D01*
X145270000Y-60423428D01*
X143612857Y-60937714D02*
X143727142Y-60994857D01*
X143955714Y-60994857D01*
X144070000Y-60937714D01*
X144127142Y-60823428D01*
X144127142Y-60366285D01*
X144070000Y-60252000D01*
X143955714Y-60194857D01*
X143727142Y-60194857D01*
X143612857Y-60252000D01*
X143555714Y-60366285D01*
X143555714Y-60480571D01*
X144127142Y-60594857D01*
X143155714Y-60194857D02*
X142870000Y-60994857D01*
X142584285Y-60194857D01*
X142127142Y-60880571D02*
X142070000Y-60937714D01*
X142127142Y-60994857D01*
X142184285Y-60937714D01*
X142127142Y-60880571D01*
X142127142Y-60994857D01*
X140927142Y-60994857D02*
X141612857Y-60994857D01*
X141270000Y-60994857D02*
X141270000Y-59794857D01*
X141384285Y-59966285D01*
X141498571Y-60080571D01*
X141612857Y-60137714D01*
X150780666Y-113391904D02*
X150780666Y-112591904D01*
X150475904Y-112591904D01*
X150399714Y-112630000D01*
X150361619Y-112668095D01*
X150323523Y-112744285D01*
X150323523Y-112858571D01*
X150361619Y-112934761D01*
X150399714Y-112972857D01*
X150475904Y-113010952D01*
X150780666Y-113010952D01*
X150056857Y-112591904D02*
X149866380Y-113391904D01*
X149714000Y-112820476D01*
X149561619Y-113391904D01*
X149371142Y-112591904D01*
X133850000Y-79240095D02*
X133897619Y-79335333D01*
X133897619Y-79478190D01*
X133850000Y-79621047D01*
X133754761Y-79716285D01*
X133659523Y-79763904D01*
X133469047Y-79811523D01*
X133326190Y-79811523D01*
X133135714Y-79763904D01*
X133040476Y-79716285D01*
X132945238Y-79621047D01*
X132897619Y-79478190D01*
X132897619Y-79382952D01*
X132945238Y-79240095D01*
X132992857Y-79192476D01*
X133326190Y-79192476D01*
X133326190Y-79382952D01*
X132945238Y-98424857D02*
X132897619Y-98282000D01*
X132897619Y-98043904D01*
X132945238Y-97948666D01*
X132992857Y-97901047D01*
X133088095Y-97853428D01*
X133183333Y-97853428D01*
X133278571Y-97901047D01*
X133326190Y-97948666D01*
X133373809Y-98043904D01*
X133421428Y-98234380D01*
X133469047Y-98329619D01*
X133516666Y-98377238D01*
X133611904Y-98424857D01*
X133707142Y-98424857D01*
X133802380Y-98377238D01*
X133850000Y-98329619D01*
X133897619Y-98234380D01*
X133897619Y-97996285D01*
X133850000Y-97853428D01*
X133421428Y-97424857D02*
X133421428Y-97091523D01*
X132897619Y-96948666D02*
X132897619Y-97424857D01*
X133897619Y-97424857D01*
X133897619Y-96948666D01*
X132897619Y-96043904D02*
X132897619Y-96520095D01*
X133897619Y-96520095D01*
X147872476Y-112630000D02*
X147948666Y-112591904D01*
X148062952Y-112591904D01*
X148177238Y-112630000D01*
X148253428Y-112706190D01*
X148291523Y-112782380D01*
X148329619Y-112934761D01*
X148329619Y-113049047D01*
X148291523Y-113201428D01*
X148253428Y-113277619D01*
X148177238Y-113353809D01*
X148062952Y-113391904D01*
X147986761Y-113391904D01*
X147872476Y-113353809D01*
X147834380Y-113315714D01*
X147834380Y-113049047D01*
X147986761Y-113049047D01*
X154685904Y-112591904D02*
X154419238Y-113391904D01*
X154152571Y-112591904D01*
X153885904Y-113087142D02*
X153276380Y-113087142D01*
X132897619Y-84915333D02*
X133897619Y-84915333D01*
X133183333Y-84582000D01*
X133897619Y-84248666D01*
X132897619Y-84248666D01*
X152412666Y-113391904D02*
X152412666Y-112591904D01*
X152146000Y-113163333D01*
X151879333Y-112591904D01*
X151879333Y-113391904D01*
X133897619Y-90614380D02*
X132897619Y-90281047D01*
X133897619Y-89947714D01*
X133278571Y-89614380D02*
X133278571Y-88852476D01*
X132897619Y-89233428D02*
X133659523Y-89233428D01*
%TO.C,J2*%
X131651333Y-99064380D02*
X131651333Y-99778666D01*
X131698952Y-99921523D01*
X131794190Y-100016761D01*
X131937047Y-100064380D01*
X132032285Y-100064380D01*
X131222761Y-99159619D02*
X131175142Y-99112000D01*
X131079904Y-99064380D01*
X130841809Y-99064380D01*
X130746571Y-99112000D01*
X130698952Y-99159619D01*
X130651333Y-99254857D01*
X130651333Y-99350095D01*
X130698952Y-99492952D01*
X131270380Y-100064380D01*
X130651333Y-100064380D01*
%TO.C,J3*%
X155019333Y-118578380D02*
X155019333Y-119292666D01*
X155066952Y-119435523D01*
X155162190Y-119530761D01*
X155305047Y-119578380D01*
X155400285Y-119578380D01*
X154638380Y-118578380D02*
X154019333Y-118578380D01*
X154352666Y-118959333D01*
X154209809Y-118959333D01*
X154114571Y-119006952D01*
X154066952Y-119054571D01*
X154019333Y-119149809D01*
X154019333Y-119387904D01*
X154066952Y-119483142D01*
X154114571Y-119530761D01*
X154209809Y-119578380D01*
X154495523Y-119578380D01*
X154590761Y-119530761D01*
X154638380Y-119483142D01*
%TO.C,J1*%
X140422380Y-112046666D02*
X141136666Y-112046666D01*
X141279523Y-111999047D01*
X141374761Y-111903809D01*
X141422380Y-111760952D01*
X141422380Y-111665714D01*
X141422380Y-113046666D02*
X141422380Y-112475238D01*
X141422380Y-112760952D02*
X140422380Y-112760952D01*
X140565238Y-112665714D01*
X140660476Y-112570476D01*
X140708095Y-112475238D01*
D11*
%TO.C,J2*%
X129988000Y-97282000D02*
X129988000Y-98612000D01*
X129988000Y-96012000D02*
X129988000Y-78172000D01*
X129988000Y-78172000D02*
X132648000Y-78172000D01*
X132648000Y-96012000D02*
X132648000Y-78172000D01*
X129988000Y-98612000D02*
X131318000Y-98612000D01*
X129988000Y-96012000D02*
X132648000Y-96012000D01*
%TO.C,J3*%
X145992000Y-115710000D02*
X146912000Y-115710000D01*
X145992000Y-121930000D02*
X145992000Y-114110000D01*
X162912000Y-115710000D02*
X162912000Y-114495000D01*
X162852000Y-119670000D02*
X162852000Y-121930000D01*
X146912000Y-115710000D02*
X147192000Y-115710000D01*
X163192000Y-115710000D02*
X163192000Y-114110000D01*
X162352000Y-118070000D02*
X163352000Y-118070000D01*
X164112000Y-121930000D02*
X145992000Y-121930000D01*
X164112000Y-115710000D02*
X163192000Y-115710000D01*
X146752000Y-119670000D02*
X147752000Y-119670000D01*
X161552000Y-117570000D02*
X148552000Y-117570000D01*
X164112000Y-114110000D02*
X164112000Y-121930000D01*
X163352000Y-118070000D02*
X163352000Y-119670000D01*
X148552000Y-117570000D02*
X148552000Y-121930000D01*
X162912000Y-115710000D02*
X163192000Y-115710000D01*
X161552000Y-121930000D02*
X161552000Y-117570000D01*
X146752000Y-118070000D02*
X146752000Y-119670000D01*
X163192000Y-114110000D02*
X164112000Y-114110000D01*
X145992000Y-114110000D02*
X146912000Y-114110000D01*
X146912000Y-114110000D02*
X146912000Y-115710000D01*
X162352000Y-119670000D02*
X162352000Y-121930000D01*
X147752000Y-118070000D02*
X146752000Y-118070000D01*
X162352000Y-119670000D02*
X162352000Y-118070000D01*
X147752000Y-119670000D02*
X147752000Y-118070000D01*
X163352000Y-119670000D02*
X162352000Y-119670000D01*
%TO.C,J1*%
X143188000Y-105787000D02*
X143188000Y-107587000D01*
X143188000Y-119257000D02*
X143188000Y-117457000D01*
X141738000Y-119257000D02*
X143188000Y-119257000D01*
X138918000Y-117987000D02*
X138918000Y-107057000D01*
X141738000Y-105787000D02*
X143188000Y-105787000D01*
X143188000Y-117457000D02*
X144178000Y-117457000D01*
%TD*%
M02*
