%TF.GenerationSoftware,KiCad,Pcbnew,(6.0.10)*%
%TF.CreationDate,2023-01-18T17:29:09+09:00*%
%TF.ProjectId,monitor_control_board,6d6f6e69-746f-4725-9f63-6f6e74726f6c,rev?*%
%TF.SameCoordinates,PX7ab4257PY723a4bd*%
%TF.FileFunction,Legend,Top*%
%TF.FilePolarity,Positive*%
%FSLAX46Y46*%
G04 Gerber Fmt 4.6, Leading zero omitted, Abs format (unit mm)*
G04 Created by KiCad (PCBNEW (6.0.10)) date 2023-01-18 17:29:09*
%MOMM*%
%LPD*%
G01*
G04 APERTURE LIST*
%ADD10C,0.150000*%
%ADD11C,0.250000*%
%ADD12C,0.200000*%
%ADD13C,0.120000*%
G04 APERTURE END LIST*
D10*
X18511968Y5970731D02*
X18473872Y5932636D01*
X18359587Y5894541D01*
X18283396Y5894541D01*
X18169110Y5932636D01*
X18092920Y6008826D01*
X18054825Y6085017D01*
X18016729Y6237398D01*
X18016729Y6351684D01*
X18054825Y6504065D01*
X18092920Y6580255D01*
X18169110Y6656445D01*
X18283396Y6694541D01*
X18359587Y6694541D01*
X18473872Y6656445D01*
X18511968Y6618350D01*
X19273872Y5894541D02*
X18816729Y5894541D01*
X19045301Y5894541D02*
X19045301Y6694541D01*
X18969110Y6580255D01*
X18892920Y6504065D01*
X18816729Y6465969D01*
X20226253Y6199303D02*
X20835777Y6199303D01*
X21978634Y6694541D02*
X22054825Y6694541D01*
X22131015Y6656445D01*
X22169110Y6618350D01*
X22207206Y6542160D01*
X22245301Y6389779D01*
X22245301Y6199303D01*
X22207206Y6046922D01*
X22169110Y5970731D01*
X22131015Y5932636D01*
X22054825Y5894541D01*
X21978634Y5894541D01*
X21902444Y5932636D01*
X21864349Y5970731D01*
X21826253Y6046922D01*
X21788158Y6199303D01*
X21788158Y6389779D01*
X21826253Y6542160D01*
X21864349Y6618350D01*
X21902444Y6656445D01*
X21978634Y6694541D01*
X22588158Y5970731D02*
X22626253Y5932636D01*
X22588158Y5894541D01*
X22550063Y5932636D01*
X22588158Y5970731D01*
X22588158Y5894541D01*
X23388158Y5894541D02*
X22931015Y5894541D01*
X23159587Y5894541D02*
X23159587Y6694541D01*
X23083396Y6580255D01*
X23007206Y6504065D01*
X22931015Y6465969D01*
X24073872Y6427874D02*
X24073872Y5894541D01*
X23731015Y6427874D02*
X23731015Y6008826D01*
X23769110Y5932636D01*
X23845301Y5894541D01*
X23959587Y5894541D01*
X24035777Y5932636D01*
X24073872Y5970731D01*
X24721491Y6313588D02*
X24454825Y6313588D01*
X24454825Y5894541D02*
X24454825Y6694541D01*
X24835777Y6694541D01*
X18511968Y4682731D02*
X18473872Y4644636D01*
X18359587Y4606541D01*
X18283396Y4606541D01*
X18169110Y4644636D01*
X18092920Y4720826D01*
X18054825Y4797017D01*
X18016729Y4949398D01*
X18016729Y5063684D01*
X18054825Y5216065D01*
X18092920Y5292255D01*
X18169110Y5368445D01*
X18283396Y5406541D01*
X18359587Y5406541D01*
X18473872Y5368445D01*
X18511968Y5330350D01*
X18816729Y5330350D02*
X18854825Y5368445D01*
X18931015Y5406541D01*
X19121491Y5406541D01*
X19197682Y5368445D01*
X19235777Y5330350D01*
X19273872Y5254160D01*
X19273872Y5177969D01*
X19235777Y5063684D01*
X18778634Y4606541D01*
X19273872Y4606541D01*
X20226253Y4911303D02*
X20835777Y4911303D01*
X22207206Y5406541D02*
X21826253Y5406541D01*
X21788158Y5025588D01*
X21826253Y5063684D01*
X21902444Y5101779D01*
X22092920Y5101779D01*
X22169110Y5063684D01*
X22207206Y5025588D01*
X22245301Y4949398D01*
X22245301Y4758922D01*
X22207206Y4682731D01*
X22169110Y4644636D01*
X22092920Y4606541D01*
X21902444Y4606541D01*
X21826253Y4644636D01*
X21788158Y4682731D01*
X22931015Y5406541D02*
X22778634Y5406541D01*
X22702444Y5368445D01*
X22664349Y5330350D01*
X22588158Y5216065D01*
X22550063Y5063684D01*
X22550063Y4758922D01*
X22588158Y4682731D01*
X22626253Y4644636D01*
X22702444Y4606541D01*
X22854825Y4606541D01*
X22931015Y4644636D01*
X22969110Y4682731D01*
X23007206Y4758922D01*
X23007206Y4949398D01*
X22969110Y5025588D01*
X22931015Y5063684D01*
X22854825Y5101779D01*
X22702444Y5101779D01*
X22626253Y5063684D01*
X22588158Y5025588D01*
X22550063Y4949398D01*
X23502444Y5406541D02*
X23578634Y5406541D01*
X23654825Y5368445D01*
X23692920Y5330350D01*
X23731015Y5254160D01*
X23769110Y5101779D01*
X23769110Y4911303D01*
X23731015Y4758922D01*
X23692920Y4682731D01*
X23654825Y4644636D01*
X23578634Y4606541D01*
X23502444Y4606541D01*
X23426253Y4644636D01*
X23388158Y4682731D01*
X23350063Y4758922D01*
X23311968Y4911303D01*
X23311968Y5101779D01*
X23350063Y5254160D01*
X23388158Y5330350D01*
X23426253Y5368445D01*
X23502444Y5406541D01*
X24111968Y5139874D02*
X24111968Y4339874D01*
X24111968Y5101779D02*
X24188158Y5139874D01*
X24340539Y5139874D01*
X24416729Y5101779D01*
X24454825Y5063684D01*
X24492920Y4987493D01*
X24492920Y4758922D01*
X24454825Y4682731D01*
X24416729Y4644636D01*
X24340539Y4606541D01*
X24188158Y4606541D01*
X24111968Y4644636D01*
X25102444Y5025588D02*
X24835777Y5025588D01*
X24835777Y4606541D02*
X24835777Y5406541D01*
X25216729Y5406541D01*
X18511968Y3318541D02*
X18245301Y3699493D01*
X18054825Y3318541D02*
X18054825Y4118541D01*
X18359587Y4118541D01*
X18435777Y4080445D01*
X18473872Y4042350D01*
X18511968Y3966160D01*
X18511968Y3851874D01*
X18473872Y3775684D01*
X18435777Y3737588D01*
X18359587Y3699493D01*
X18054825Y3699493D01*
X19273872Y3318541D02*
X18816729Y3318541D01*
X19045301Y3318541D02*
X19045301Y4118541D01*
X18969110Y4004255D01*
X18892920Y3928065D01*
X18816729Y3889969D01*
X20226253Y3623303D02*
X20835777Y3623303D01*
X22207206Y4118541D02*
X21826253Y4118541D01*
X21788158Y3737588D01*
X21826253Y3775684D01*
X21902444Y3813779D01*
X22092920Y3813779D01*
X22169110Y3775684D01*
X22207206Y3737588D01*
X22245301Y3661398D01*
X22245301Y3470922D01*
X22207206Y3394731D01*
X22169110Y3356636D01*
X22092920Y3318541D01*
X21902444Y3318541D01*
X21826253Y3356636D01*
X21788158Y3394731D01*
X22588158Y3394731D02*
X22626253Y3356636D01*
X22588158Y3318541D01*
X22550063Y3356636D01*
X22588158Y3394731D01*
X22588158Y3318541D01*
X23388158Y3318541D02*
X22931015Y3318541D01*
X23159587Y3318541D02*
X23159587Y4118541D01*
X23083396Y4004255D01*
X23007206Y3928065D01*
X22931015Y3889969D01*
X23731015Y3318541D02*
X23731015Y4118541D01*
X23807206Y3623303D02*
X24035777Y3318541D01*
X24035777Y3851874D02*
X23731015Y3547112D01*
X27120515Y10092874D02*
X27120515Y9559541D01*
X26930039Y10397636D02*
X26739563Y9826207D01*
X27234801Y9826207D01*
X27463372Y10359541D02*
X27996706Y10359541D01*
X27653849Y9559541D01*
X28644325Y10092874D02*
X28644325Y9559541D01*
X28301468Y10092874D02*
X28301468Y9673826D01*
X28339563Y9597636D01*
X28415753Y9559541D01*
X28530039Y9559541D01*
X28606229Y9597636D01*
X28644325Y9635731D01*
X29291944Y9978588D02*
X29025277Y9978588D01*
X29025277Y9559541D02*
X29025277Y10359541D01*
X29406229Y10359541D01*
X35610349Y15763445D02*
X49643849Y15763445D01*
D11*
X22799506Y22357988D02*
X22799506Y23557988D01*
X23085220Y23557988D01*
X23256649Y23500845D01*
X23370934Y23386560D01*
X23428077Y23272274D01*
X23485220Y23043703D01*
X23485220Y22872274D01*
X23428077Y22643703D01*
X23370934Y22529417D01*
X23256649Y22415131D01*
X23085220Y22357988D01*
X22799506Y22357988D01*
X24228077Y23557988D02*
X24456649Y23557988D01*
X24570934Y23500845D01*
X24685220Y23386560D01*
X24742363Y23157988D01*
X24742363Y22757988D01*
X24685220Y22529417D01*
X24570934Y22415131D01*
X24456649Y22357988D01*
X24228077Y22357988D01*
X24113791Y22415131D01*
X23999506Y22529417D01*
X23942363Y22757988D01*
X23942363Y23157988D01*
X23999506Y23386560D01*
X24113791Y23500845D01*
X24228077Y23557988D01*
X25142363Y23557988D02*
X25428077Y22357988D01*
X25656649Y23215131D01*
X25885220Y22357988D01*
X26170934Y23557988D01*
X26628077Y22357988D02*
X26628077Y23557988D01*
X27313791Y22357988D01*
X27313791Y23557988D01*
D10*
X28415753Y7483065D02*
X28415753Y7102112D01*
X27615753Y7102112D01*
X27653849Y8168779D02*
X27615753Y8092588D01*
X27615753Y7978303D01*
X27653849Y7864017D01*
X27730039Y7787826D01*
X27806229Y7749731D01*
X27958610Y7711636D01*
X28072896Y7711636D01*
X28225277Y7749731D01*
X28301468Y7787826D01*
X28377658Y7864017D01*
X28415753Y7978303D01*
X28415753Y8054493D01*
X28377658Y8168779D01*
X28339563Y8206874D01*
X28072896Y8206874D01*
X28072896Y8054493D01*
D12*
X2387277Y50537684D02*
X2501563Y50490065D01*
X2692039Y50490065D01*
X2768229Y50537684D01*
X2806325Y50585303D01*
X2844420Y50680541D01*
X2844420Y50775779D01*
X2806325Y50871017D01*
X2768229Y50918636D01*
X2692039Y50966255D01*
X2539658Y51013874D01*
X2463468Y51061493D01*
X2425372Y51109112D01*
X2387277Y51204350D01*
X2387277Y51299588D01*
X2425372Y51394826D01*
X2463468Y51442445D01*
X2539658Y51490065D01*
X2730134Y51490065D01*
X2844420Y51442445D01*
X3644420Y50490065D02*
X3377753Y50966255D01*
X3187277Y50490065D02*
X3187277Y51490065D01*
X3492039Y51490065D01*
X3568229Y51442445D01*
X3606325Y51394826D01*
X3644420Y51299588D01*
X3644420Y51156731D01*
X3606325Y51061493D01*
X3568229Y51013874D01*
X3492039Y50966255D01*
X3187277Y50966255D01*
X4444420Y50585303D02*
X4406325Y50537684D01*
X4292039Y50490065D01*
X4215849Y50490065D01*
X4101563Y50537684D01*
X4025372Y50632922D01*
X3987277Y50728160D01*
X3949182Y50918636D01*
X3949182Y51061493D01*
X3987277Y51251969D01*
X4025372Y51347207D01*
X4101563Y51442445D01*
X4215849Y51490065D01*
X4292039Y51490065D01*
X4406325Y51442445D01*
X4444420Y51394826D01*
D11*
X23304515Y34905588D02*
X23304515Y36105588D01*
X23637849Y35248445D01*
X23971182Y36105588D01*
X23971182Y34905588D01*
X24447372Y35534160D02*
X24780706Y35534160D01*
X24923563Y34905588D02*
X24447372Y34905588D01*
X24447372Y36105588D01*
X24923563Y36105588D01*
X25352134Y34905588D02*
X25352134Y36105588D01*
X25923563Y34905588D01*
X25923563Y36105588D01*
X26399753Y36105588D02*
X26399753Y35134160D01*
X26447372Y35019874D01*
X26494991Y34962731D01*
X26590229Y34905588D01*
X26780706Y34905588D01*
X26875944Y34962731D01*
X26923563Y35019874D01*
X26971182Y35134160D01*
X26971182Y36105588D01*
X37220420Y869588D02*
X37220420Y2069588D01*
X37677563Y2069588D01*
X37791849Y2012445D01*
X37848991Y1955303D01*
X37906134Y1841017D01*
X37906134Y1669588D01*
X37848991Y1555303D01*
X37791849Y1498160D01*
X37677563Y1441017D01*
X37220420Y1441017D01*
X38648991Y2069588D02*
X38877563Y2069588D01*
X38991849Y2012445D01*
X39106134Y1898160D01*
X39163277Y1669588D01*
X39163277Y1269588D01*
X39106134Y1041017D01*
X38991849Y926731D01*
X38877563Y869588D01*
X38648991Y869588D01*
X38534706Y926731D01*
X38420420Y1041017D01*
X38363277Y1269588D01*
X38363277Y1669588D01*
X38420420Y1898160D01*
X38534706Y2012445D01*
X38648991Y2069588D01*
X39563277Y2069588D02*
X39848991Y869588D01*
X40077563Y1726731D01*
X40306134Y869588D01*
X40591849Y2069588D01*
X41048991Y1498160D02*
X41448991Y1498160D01*
X41620420Y869588D02*
X41048991Y869588D01*
X41048991Y2069588D01*
X41620420Y2069588D01*
X42820420Y869588D02*
X42420420Y1441017D01*
X42134706Y869588D02*
X42134706Y2069588D01*
X42591849Y2069588D01*
X42706134Y2012445D01*
X42763277Y1955303D01*
X42820420Y1841017D01*
X42820420Y1669588D01*
X42763277Y1555303D01*
X42706134Y1498160D01*
X42591849Y1441017D01*
X42134706Y1441017D01*
X24139191Y48856388D02*
X24139191Y47884960D01*
X24196334Y47770674D01*
X24253477Y47713531D01*
X24367763Y47656388D01*
X24596334Y47656388D01*
X24710620Y47713531D01*
X24767763Y47770674D01*
X24824906Y47884960D01*
X24824906Y48856388D01*
X25396334Y47656388D02*
X25396334Y48856388D01*
X25853477Y48856388D01*
X25967763Y48799245D01*
X26024906Y48742103D01*
X26082049Y48627817D01*
X26082049Y48456388D01*
X26024906Y48342103D01*
X25967763Y48284960D01*
X25853477Y48227817D01*
X25396334Y48227817D01*
X10201106Y36207188D02*
X10601106Y35007188D01*
X11001106Y36207188D01*
X11629677Y36207188D02*
X11858249Y36207188D01*
X11972534Y36150045D01*
X12086820Y36035760D01*
X12143963Y35807188D01*
X12143963Y35407188D01*
X12086820Y35178617D01*
X11972534Y35064331D01*
X11858249Y35007188D01*
X11629677Y35007188D01*
X11515391Y35064331D01*
X11401106Y35178617D01*
X11343963Y35407188D01*
X11343963Y35807188D01*
X11401106Y36035760D01*
X11515391Y36150045D01*
X11629677Y36207188D01*
X13229677Y35007188D02*
X12658249Y35007188D01*
X12658249Y36207188D01*
X13629677Y35464331D02*
X14543963Y35464331D01*
D10*
X12796872Y10631636D02*
X12796872Y10593541D01*
X12834968Y10707826D02*
X12834968Y10593541D01*
X12873063Y10784017D02*
X12873063Y10593541D01*
X12911158Y10860207D02*
X12911158Y10593541D01*
X12949253Y10898303D02*
X12949253Y10593541D01*
X12987349Y10974493D02*
X12987349Y10593541D01*
X13025444Y11050684D02*
X13025444Y10593541D01*
X13063539Y11126874D02*
X13063539Y10593541D01*
X13101634Y11203065D02*
X13101634Y10593541D01*
X13139729Y11126874D02*
X13139729Y10593541D01*
X13177825Y11050684D02*
X13177825Y10593541D01*
X13215920Y10974493D02*
X13215920Y10593541D01*
X13254015Y10898303D02*
X13254015Y10593541D01*
X13292110Y10860207D02*
X13292110Y10593541D01*
X13330206Y10784017D02*
X13330206Y10593541D01*
X13368301Y10707826D02*
X13368301Y10593541D01*
X13406396Y10593541D02*
X13101634Y11164969D01*
X12796872Y10593541D01*
X13406396Y10631636D02*
X13406396Y10593541D01*
X13101634Y11203065D02*
X13444491Y10593541D01*
X12758777Y10593541D01*
X13101634Y11203065D01*
X11577825Y9305541D02*
X11577825Y10105541D01*
X11844491Y9838874D02*
X12149253Y9838874D01*
X11958777Y9305541D02*
X11958777Y9991255D01*
X11996872Y10067445D01*
X12073063Y10105541D01*
X12149253Y10105541D01*
X13025444Y9838874D02*
X13025444Y9305541D01*
X13025444Y9762684D02*
X13063539Y9800779D01*
X13139729Y9838874D01*
X13254015Y9838874D01*
X13330206Y9800779D01*
X13368301Y9724588D01*
X13368301Y9305541D01*
X13863539Y9305541D02*
X13787349Y9343636D01*
X13749253Y9381731D01*
X13711158Y9457922D01*
X13711158Y9686493D01*
X13749253Y9762684D01*
X13787349Y9800779D01*
X13863539Y9838874D01*
X13977825Y9838874D01*
X14054015Y9800779D01*
X14092110Y9762684D01*
X14130206Y9686493D01*
X14130206Y9457922D01*
X14092110Y9381731D01*
X14054015Y9343636D01*
X13977825Y9305541D01*
X13863539Y9305541D01*
X14358777Y9838874D02*
X14663539Y9838874D01*
X14473063Y10105541D02*
X14473063Y9419826D01*
X14511158Y9343636D01*
X14587349Y9305541D01*
X14663539Y9305541D01*
X15882587Y9838874D02*
X15882587Y9305541D01*
X15539729Y9838874D02*
X15539729Y9419826D01*
X15577825Y9343636D01*
X15654015Y9305541D01*
X15768301Y9305541D01*
X15844491Y9343636D01*
X15882587Y9381731D01*
X16225444Y9343636D02*
X16301634Y9305541D01*
X16454015Y9305541D01*
X16530206Y9343636D01*
X16568301Y9419826D01*
X16568301Y9457922D01*
X16530206Y9534112D01*
X16454015Y9572207D01*
X16339729Y9572207D01*
X16263539Y9610303D01*
X16225444Y9686493D01*
X16225444Y9724588D01*
X16263539Y9800779D01*
X16339729Y9838874D01*
X16454015Y9838874D01*
X16530206Y9800779D01*
X17215920Y9343636D02*
X17139729Y9305541D01*
X16987349Y9305541D01*
X16911158Y9343636D01*
X16873063Y9419826D01*
X16873063Y9724588D01*
X16911158Y9800779D01*
X16987349Y9838874D01*
X17139729Y9838874D01*
X17215920Y9800779D01*
X17254015Y9724588D01*
X17254015Y9648398D01*
X16873063Y9572207D01*
X17939729Y9305541D02*
X17939729Y10105541D01*
X17939729Y9343636D02*
X17863539Y9305541D01*
X17711158Y9305541D01*
X17634968Y9343636D01*
X17596872Y9381731D01*
X17558777Y9457922D01*
X17558777Y9686493D01*
X17596872Y9762684D01*
X17634968Y9800779D01*
X17711158Y9838874D01*
X17863539Y9838874D01*
X17939729Y9800779D01*
X18358777Y9343636D02*
X18358777Y9305541D01*
X18320682Y9229350D01*
X18282587Y9191255D01*
X11539729Y8055636D02*
X11654015Y8017541D01*
X11844491Y8017541D01*
X11920682Y8055636D01*
X11958777Y8093731D01*
X11996872Y8169922D01*
X11996872Y8246112D01*
X11958777Y8322303D01*
X11920682Y8360398D01*
X11844491Y8398493D01*
X11692110Y8436588D01*
X11615920Y8474684D01*
X11577825Y8512779D01*
X11539729Y8588969D01*
X11539729Y8665160D01*
X11577825Y8741350D01*
X11615920Y8779445D01*
X11692110Y8817541D01*
X11882587Y8817541D01*
X11996872Y8779445D01*
X12339729Y8017541D02*
X12339729Y8817541D01*
X12339729Y8436588D02*
X12796872Y8436588D01*
X12796872Y8017541D02*
X12796872Y8817541D01*
X13330206Y8817541D02*
X13482587Y8817541D01*
X13558777Y8779445D01*
X13634968Y8703255D01*
X13673063Y8550874D01*
X13673063Y8284207D01*
X13634968Y8131826D01*
X13558777Y8055636D01*
X13482587Y8017541D01*
X13330206Y8017541D01*
X13254015Y8055636D01*
X13177825Y8131826D01*
X13139729Y8284207D01*
X13139729Y8550874D01*
X13177825Y8703255D01*
X13254015Y8779445D01*
X13330206Y8817541D01*
X14473063Y8017541D02*
X14206396Y8398493D01*
X14015920Y8017541D02*
X14015920Y8817541D01*
X14320682Y8817541D01*
X14396872Y8779445D01*
X14434968Y8741350D01*
X14473063Y8665160D01*
X14473063Y8550874D01*
X14434968Y8474684D01*
X14396872Y8436588D01*
X14320682Y8398493D01*
X14015920Y8398493D01*
X14701634Y8817541D02*
X15158777Y8817541D01*
X14930206Y8017541D02*
X14930206Y8817541D01*
X16034968Y8017541D02*
X16034968Y8550874D01*
X16034968Y8817541D02*
X15996872Y8779445D01*
X16034968Y8741350D01*
X16073063Y8779445D01*
X16034968Y8817541D01*
X16034968Y8741350D01*
X16301634Y8550874D02*
X16606396Y8550874D01*
X16415920Y8817541D02*
X16415920Y8131826D01*
X16454015Y8055636D01*
X16530206Y8017541D01*
X16606396Y8017541D01*
X16873063Y8093731D02*
X16911158Y8055636D01*
X16873063Y8017541D01*
X16834968Y8055636D01*
X16873063Y8093731D01*
X16873063Y8017541D01*
X28415753Y2403065D02*
X28415753Y2022112D01*
X27615753Y2022112D01*
X28415753Y3126874D02*
X28034801Y2860207D01*
X28415753Y2669731D02*
X27615753Y2669731D01*
X27615753Y2974493D01*
X27653849Y3050684D01*
X27691944Y3088779D01*
X27768134Y3126874D01*
X27882420Y3126874D01*
X27958610Y3088779D01*
X27996706Y3050684D01*
X28034801Y2974493D01*
X28034801Y2669731D01*
D12*
X8140325Y47886445D02*
X8064134Y47934065D01*
X7949849Y47934065D01*
X7835563Y47886445D01*
X7759372Y47791207D01*
X7721277Y47695969D01*
X7683182Y47505493D01*
X7683182Y47362636D01*
X7721277Y47172160D01*
X7759372Y47076922D01*
X7835563Y46981684D01*
X7949849Y46934065D01*
X8026039Y46934065D01*
X8140325Y46981684D01*
X8178420Y47029303D01*
X8178420Y47362636D01*
X8026039Y47362636D01*
X8521277Y46934065D02*
X8521277Y47934065D01*
X8978420Y46934065D01*
X8978420Y47934065D01*
X9359372Y46934065D02*
X9359372Y47934065D01*
X9549849Y47934065D01*
X9664134Y47886445D01*
X9740325Y47791207D01*
X9778420Y47695969D01*
X9816515Y47505493D01*
X9816515Y47362636D01*
X9778420Y47172160D01*
X9740325Y47076922D01*
X9664134Y46981684D01*
X9549849Y46934065D01*
X9359372Y46934065D01*
D10*
X8749944Y18041445D02*
X8654706Y18089065D01*
X8511849Y18089065D01*
X8368991Y18041445D01*
X8273753Y17946207D01*
X8226134Y17850969D01*
X8178515Y17660493D01*
X8178515Y17517636D01*
X8226134Y17327160D01*
X8273753Y17231922D01*
X8368991Y17136684D01*
X8511849Y17089065D01*
X8607087Y17089065D01*
X8749944Y17136684D01*
X8797563Y17184303D01*
X8797563Y17517636D01*
X8607087Y17517636D01*
X9226134Y17089065D02*
X9226134Y18089065D01*
X9797563Y17089065D01*
X9797563Y18089065D01*
X10273753Y17089065D02*
X10273753Y18089065D01*
X10511849Y18089065D01*
X10654706Y18041445D01*
X10749944Y17946207D01*
X10797563Y17850969D01*
X10845182Y17660493D01*
X10845182Y17517636D01*
X10797563Y17327160D01*
X10749944Y17231922D01*
X10654706Y17136684D01*
X10511849Y17089065D01*
X10273753Y17089065D01*
D12*
X2349182Y43251065D02*
X2349182Y44251065D01*
X2653944Y44251065D01*
X2730134Y44203445D01*
X2768229Y44155826D01*
X2806325Y44060588D01*
X2806325Y43917731D01*
X2768229Y43822493D01*
X2730134Y43774874D01*
X2653944Y43727255D01*
X2349182Y43727255D01*
X3072991Y44251065D02*
X3263468Y43251065D01*
X3415849Y43965350D01*
X3568229Y43251065D01*
X3758706Y44251065D01*
X4520610Y43251065D02*
X4253944Y43727255D01*
X4063468Y43251065D02*
X4063468Y44251065D01*
X4368229Y44251065D01*
X4444420Y44203445D01*
X4482515Y44155826D01*
X4520610Y44060588D01*
X4520610Y43917731D01*
X4482515Y43822493D01*
X4444420Y43774874D01*
X4368229Y43727255D01*
X4063468Y43727255D01*
D11*
X35370706Y36181788D02*
X35770706Y34981788D01*
X36170706Y36181788D01*
X36799277Y36181788D02*
X37027849Y36181788D01*
X37142134Y36124645D01*
X37256420Y36010360D01*
X37313563Y35781788D01*
X37313563Y35381788D01*
X37256420Y35153217D01*
X37142134Y35038931D01*
X37027849Y34981788D01*
X36799277Y34981788D01*
X36684991Y35038931D01*
X36570706Y35153217D01*
X36513563Y35381788D01*
X36513563Y35781788D01*
X36570706Y36010360D01*
X36684991Y36124645D01*
X36799277Y36181788D01*
X38399277Y34981788D02*
X37827849Y34981788D01*
X37827849Y36181788D01*
X38799277Y35438931D02*
X39713563Y35438931D01*
X39256420Y34981788D02*
X39256420Y35896074D01*
D10*
X48443753Y7242207D02*
X49015182Y7242207D01*
X49129468Y7204112D01*
X49205658Y7127922D01*
X49243753Y7013636D01*
X49243753Y6937445D01*
X49243753Y8004112D02*
X49243753Y7623160D01*
X48443753Y7623160D01*
X49167563Y8727922D02*
X49205658Y8689826D01*
X49243753Y8575541D01*
X49243753Y8499350D01*
X49205658Y8385065D01*
X49129468Y8308874D01*
X49053277Y8270779D01*
X48900896Y8232684D01*
X48786610Y8232684D01*
X48634229Y8270779D01*
X48558039Y8308874D01*
X48481849Y8385065D01*
X48443753Y8499350D01*
X48443753Y8575541D01*
X48481849Y8689826D01*
X48519944Y8727922D01*
X48443753Y9299350D02*
X49015182Y9299350D01*
X49129468Y9261255D01*
X49205658Y9185065D01*
X49243753Y9070779D01*
X49243753Y8994588D01*
X49243753Y10061255D02*
X49243753Y9680303D01*
X48443753Y9680303D01*
X49167563Y10785065D02*
X49205658Y10746969D01*
X49243753Y10632684D01*
X49243753Y10556493D01*
X49205658Y10442207D01*
X49129468Y10366017D01*
X49053277Y10327922D01*
X48900896Y10289826D01*
X48786610Y10289826D01*
X48634229Y10327922D01*
X48558039Y10366017D01*
X48481849Y10442207D01*
X48443753Y10556493D01*
X48443753Y10632684D01*
X48481849Y10746969D01*
X48519944Y10785065D01*
X48443753Y11356493D02*
X49015182Y11356493D01*
X49129468Y11318398D01*
X49205658Y11242207D01*
X49243753Y11127922D01*
X49243753Y11051731D01*
X49243753Y12118398D02*
X49243753Y11737445D01*
X48443753Y11737445D01*
X49167563Y12842207D02*
X49205658Y12804112D01*
X49243753Y12689826D01*
X49243753Y12613636D01*
X49205658Y12499350D01*
X49129468Y12423160D01*
X49053277Y12385065D01*
X48900896Y12346969D01*
X48786610Y12346969D01*
X48634229Y12385065D01*
X48558039Y12423160D01*
X48481849Y12499350D01*
X48443753Y12613636D01*
X48443753Y12689826D01*
X48481849Y12804112D01*
X48519944Y12842207D01*
X48443753Y13413636D02*
X49015182Y13413636D01*
X49129468Y13375541D01*
X49205658Y13299350D01*
X49243753Y13185065D01*
X49243753Y13108874D01*
X49243753Y14175541D02*
X49243753Y13794588D01*
X48443753Y13794588D01*
X49167563Y14899350D02*
X49205658Y14861255D01*
X49243753Y14746969D01*
X49243753Y14670779D01*
X49205658Y14556493D01*
X49129468Y14480303D01*
X49053277Y14442207D01*
X48900896Y14404112D01*
X48786610Y14404112D01*
X48634229Y14442207D01*
X48558039Y14480303D01*
X48481849Y14556493D01*
X48443753Y14670779D01*
X48443753Y14746969D01*
X48481849Y14861255D01*
X48519944Y14899350D01*
%TO.C,U1*%
X6787753Y6365522D02*
X7435372Y6365522D01*
X7511563Y6403617D01*
X7549658Y6441712D01*
X7587753Y6517903D01*
X7587753Y6670284D01*
X7549658Y6746474D01*
X7511563Y6784569D01*
X7435372Y6822665D01*
X6787753Y6822665D01*
X7587753Y7622665D02*
X7587753Y7165522D01*
X7587753Y7394093D02*
X6787753Y7394093D01*
X6902039Y7317903D01*
X6978229Y7241712D01*
X7016325Y7165522D01*
%TO.C,D2*%
X32860753Y4504969D02*
X32060753Y4504969D01*
X32060753Y4695445D01*
X32098849Y4809731D01*
X32175039Y4885922D01*
X32251229Y4924017D01*
X32403610Y4962112D01*
X32517896Y4962112D01*
X32670277Y4924017D01*
X32746468Y4885922D01*
X32822658Y4809731D01*
X32860753Y4695445D01*
X32860753Y4504969D01*
X32136944Y5266874D02*
X32098849Y5304969D01*
X32060753Y5381160D01*
X32060753Y5571636D01*
X32098849Y5647826D01*
X32136944Y5685922D01*
X32213134Y5724017D01*
X32289325Y5724017D01*
X32403610Y5685922D01*
X32860753Y5228779D01*
X32860753Y5724017D01*
%TO.C,E1*%
X28517468Y13153588D02*
X28784134Y13153588D01*
X28898420Y12734541D02*
X28517468Y12734541D01*
X28517468Y13534541D01*
X28898420Y13534541D01*
X29660325Y12734541D02*
X29203182Y12734541D01*
X29431753Y12734541D02*
X29431753Y13534541D01*
X29355563Y13420255D01*
X29279372Y13344065D01*
X29203182Y13305969D01*
%TO.C,R1*%
X16985753Y12074112D02*
X16604801Y11807445D01*
X16985753Y11616969D02*
X16185753Y11616969D01*
X16185753Y11921731D01*
X16223849Y11997922D01*
X16261944Y12036017D01*
X16338134Y12074112D01*
X16452420Y12074112D01*
X16528610Y12036017D01*
X16566706Y11997922D01*
X16604801Y11921731D01*
X16604801Y11616969D01*
X16985753Y12836017D02*
X16985753Y12378874D01*
X16985753Y12607445D02*
X16185753Y12607445D01*
X16300039Y12531255D01*
X16376229Y12455065D01*
X16414325Y12378874D01*
%TO.C,C1*%
X19703563Y13217112D02*
X19741658Y13179017D01*
X19779753Y13064731D01*
X19779753Y12988541D01*
X19741658Y12874255D01*
X19665468Y12798065D01*
X19589277Y12759969D01*
X19436896Y12721874D01*
X19322610Y12721874D01*
X19170229Y12759969D01*
X19094039Y12798065D01*
X19017849Y12874255D01*
X18979753Y12988541D01*
X18979753Y13064731D01*
X19017849Y13179017D01*
X19055944Y13217112D01*
X19779753Y13979017D02*
X19779753Y13521874D01*
X19779753Y13750445D02*
X18979753Y13750445D01*
X19094039Y13674255D01*
X19170229Y13598065D01*
X19208325Y13521874D01*
%TO.C,C2*%
X19703563Y10931112D02*
X19741658Y10893017D01*
X19779753Y10778731D01*
X19779753Y10702541D01*
X19741658Y10588255D01*
X19665468Y10512065D01*
X19589277Y10473969D01*
X19436896Y10435874D01*
X19322610Y10435874D01*
X19170229Y10473969D01*
X19094039Y10512065D01*
X19017849Y10588255D01*
X18979753Y10702541D01*
X18979753Y10778731D01*
X19017849Y10893017D01*
X19055944Y10931112D01*
X19055944Y11235874D02*
X19017849Y11273969D01*
X18979753Y11350160D01*
X18979753Y11540636D01*
X19017849Y11616826D01*
X19055944Y11654922D01*
X19132134Y11693017D01*
X19208325Y11693017D01*
X19322610Y11654922D01*
X19779753Y11197779D01*
X19779753Y11693017D01*
%TO.C,D1*%
X12477372Y12099541D02*
X12477372Y12899541D01*
X12667849Y12899541D01*
X12782134Y12861445D01*
X12858325Y12785255D01*
X12896420Y12709065D01*
X12934515Y12556684D01*
X12934515Y12442398D01*
X12896420Y12290017D01*
X12858325Y12213826D01*
X12782134Y12137636D01*
X12667849Y12099541D01*
X12477372Y12099541D01*
X13696420Y12099541D02*
X13239277Y12099541D01*
X13467849Y12099541D02*
X13467849Y12899541D01*
X13391658Y12785255D01*
X13315468Y12709065D01*
X13239277Y12670969D01*
D13*
%TO.C,SW1*%
X6217849Y43192445D02*
X8937849Y43192445D01*
X8937849Y30892445D02*
X6217849Y30892445D01*
X18517849Y43192445D02*
X18517849Y30892445D01*
X10797849Y43192445D02*
X13937849Y43192445D01*
X18517849Y30892445D02*
X15797849Y30892445D01*
X6217849Y30892445D02*
X6217849Y43192445D01*
X13937849Y30892445D02*
X10797849Y30892445D01*
X15797849Y43192445D02*
X18517849Y43192445D01*
X16986899Y37142445D02*
G75*
G03*
X16986899Y37142445I-4579050J0D01*
G01*
%TO.C,U1*%
X10894849Y4273445D02*
X10894849Y6873445D01*
X10544849Y4273445D02*
X10894849Y4273445D01*
X8224849Y4273445D02*
X7884849Y4273445D01*
X7884849Y4273445D02*
X7884849Y9363445D01*
X7883113Y8973362D02*
G75*
G03*
X7884849Y4773445I101736J-2099917D01*
G01*
%TO.C,D2*%
X30784849Y3535445D02*
X30940849Y3535445D01*
X28468849Y3535445D02*
X28624849Y3535445D01*
X28626241Y6767780D02*
G75*
G03*
X28469333Y3535445I1078608J-1672335D01*
G01*
X30784849Y4054484D02*
G75*
G03*
X30784686Y6136575I-1080000J1040961D01*
G01*
X28625012Y6136575D02*
G75*
G03*
X28624849Y4054484I1079837J-1041130D01*
G01*
X30940365Y3535445D02*
G75*
G03*
X30783457Y6767780I-1235516J1560000D01*
G01*
%TO.C,SW6*%
X40797849Y10512445D02*
X39297849Y10512445D01*
X43297849Y4762445D02*
X43297849Y9262445D01*
X39297849Y3512445D02*
X40797849Y3512445D01*
X36797849Y9262445D02*
X36797849Y4762445D01*
%TO.C,TP1*%
X4615849Y49037445D02*
G75*
G03*
X4615849Y49037445I-1200000J0D01*
G01*
%TO.C,SW5*%
X43817849Y43202445D02*
X43817849Y30902445D01*
X31517849Y30902445D02*
X31517849Y43202445D01*
X31517849Y43202445D02*
X34237849Y43202445D01*
X36097849Y43202445D02*
X39237849Y43202445D01*
X34237849Y30902445D02*
X31517849Y30902445D01*
X39237849Y30902445D02*
X36097849Y30902445D01*
X41097849Y43202445D02*
X43817849Y43202445D01*
X43817849Y30902445D02*
X41097849Y30902445D01*
X42206899Y36952445D02*
G75*
G03*
X42206899Y36952445I-4579050J0D01*
G01*
%TO.C,TP3*%
X4615849Y45735445D02*
G75*
G03*
X4615849Y45735445I-1200000J0D01*
G01*
%TO.C,TP2*%
X7409849Y47386445D02*
G75*
G03*
X7409849Y47386445I-1200000J0D01*
G01*
%TO.C,SW4*%
X31157849Y18222445D02*
X18857849Y18222445D01*
X31157849Y30522445D02*
X31157849Y27802445D01*
X18857849Y22802445D02*
X18857849Y25942445D01*
X31157849Y25942445D02*
X31157849Y22802445D01*
X18857849Y30522445D02*
X31157849Y30522445D01*
X18857849Y18222445D02*
X18857849Y20942445D01*
X31157849Y20942445D02*
X31157849Y18222445D01*
X18857849Y27802445D02*
X18857849Y30522445D01*
X29486899Y24412445D02*
G75*
G03*
X29486899Y24412445I-4579050J0D01*
G01*
%TO.C,E1*%
X24922849Y13382445D02*
X24922849Y12882445D01*
X29932849Y13832445D02*
X29932849Y12632445D01*
X25412849Y12768008D02*
X26477286Y13832445D01*
X25412849Y12768008D02*
X25412849Y12632445D01*
X25412849Y10376882D02*
X26477286Y9312445D01*
X29932849Y9312445D02*
X29932849Y10512445D01*
X24672849Y13132445D02*
X25172849Y13132445D01*
X26477286Y13832445D02*
X29932849Y13832445D01*
X26477286Y9312445D02*
X29932849Y9312445D01*
X25412849Y10376882D02*
X25412849Y10512445D01*
%TO.C,SW2*%
X18887849Y53082445D02*
X18887849Y55802445D01*
X18887849Y55802445D02*
X31187849Y55802445D01*
X31187849Y55802445D02*
X31187849Y53082445D01*
X18887849Y43502445D02*
X18887849Y46222445D01*
X31187849Y43502445D02*
X18887849Y43502445D01*
X31187849Y46222445D02*
X31187849Y43502445D01*
X31187849Y51222445D02*
X31187849Y48082445D01*
X18887849Y48082445D02*
X18887849Y51222445D01*
X29716899Y49612445D02*
G75*
G03*
X29716899Y49612445I-4579050J0D01*
G01*
%TO.C,R1*%
X17158849Y11980381D02*
X17158849Y12434509D01*
X18628849Y11980381D02*
X18628849Y12434509D01*
%TO.C,C1*%
X21315597Y14085445D02*
X21838101Y14085445D01*
X21315597Y12615445D02*
X21838101Y12615445D01*
%TO.C,TP4*%
X10711849Y19700445D02*
G75*
G03*
X10711849Y19700445I-1200000J0D01*
G01*
%TO.C,C2*%
X21315597Y10329445D02*
X21838101Y10329445D01*
X21315597Y11799445D02*
X21838101Y11799445D01*
%TO.C,D1*%
X15617849Y11461445D02*
X15617849Y13461445D01*
X15617849Y13461445D02*
X11317849Y13461445D01*
X11317849Y11461445D02*
X15617849Y11461445D01*
%TO.C,SW3*%
X18887849Y30873245D02*
X18887849Y33593245D01*
X18887849Y40453245D02*
X18887849Y43173245D01*
X31187849Y43173245D02*
X31187849Y40453245D01*
X18887849Y43173245D02*
X31187849Y43173245D01*
X18887849Y35453245D02*
X18887849Y38593245D01*
X31187849Y33593245D02*
X31187849Y30873245D01*
X31187849Y30873245D02*
X18887849Y30873245D01*
X31187849Y38593245D02*
X31187849Y35453245D01*
X29716899Y36983245D02*
G75*
G03*
X29716899Y36983245I-4579050J0D01*
G01*
%TD*%
M02*
