%TF.GenerationSoftware,KiCad,Pcbnew,(6.0.10)*%
%TF.CreationDate,2023-02-11T15:04:05+09:00*%
%TF.ProjectId,monitor_control_board,6d6f6e69-746f-4725-9f63-6f6e74726f6c,4*%
%TF.SameCoordinates,PX7ab4258PY723a4bd*%
%TF.FileFunction,Copper,L1,Top*%
%TF.FilePolarity,Positive*%
%FSLAX46Y46*%
G04 Gerber Fmt 4.6, Leading zero omitted, Abs format (unit mm)*
G04 Created by KiCad (PCBNEW (6.0.10)) date 2023-02-11 15:04:05*
%MOMM*%
%LPD*%
G01*
G04 APERTURE LIST*
G04 Aperture macros list*
%AMRoundRect*
0 Rectangle with rounded corners*
0 $1 Rounding radius*
0 $2 $3 $4 $5 $6 $7 $8 $9 X,Y pos of 4 corners*
0 Add a 4 corners polygon primitive as box body*
4,1,4,$2,$3,$4,$5,$6,$7,$8,$9,$2,$3,0*
0 Add four circle primitives for the rounded corners*
1,1,$1+$1,$2,$3*
1,1,$1+$1,$4,$5*
1,1,$1+$1,$6,$7*
1,1,$1+$1,$8,$9*
0 Add four rect primitives between the rounded corners*
20,1,$1+$1,$2,$3,$4,$5,0*
20,1,$1+$1,$4,$5,$6,$7,0*
20,1,$1+$1,$6,$7,$8,$9,0*
20,1,$1+$1,$8,$9,$2,$3,0*%
G04 Aperture macros list end*
%TA.AperFunction,ComponentPad*%
%ADD10R,1.350000X1.350000*%
%TD*%
%TA.AperFunction,ComponentPad*%
%ADD11O,1.350000X1.350000*%
%TD*%
%TA.AperFunction,ComponentPad*%
%ADD12O,1.850000X3.048000*%
%TD*%
%TA.AperFunction,ComponentPad*%
%ADD13RoundRect,0.250200X-0.649800X0.649800X-0.649800X-0.649800X0.649800X-0.649800X0.649800X0.649800X0*%
%TD*%
%TA.AperFunction,ComponentPad*%
%ADD14C,1.800000*%
%TD*%
%TA.AperFunction,ComponentPad*%
%ADD15R,1.800000X1.800000*%
%TD*%
%TA.AperFunction,ComponentPad*%
%ADD16C,2.000000*%
%TD*%
%TA.AperFunction,ComponentPad*%
%ADD17C,1.500000*%
%TD*%
%TA.AperFunction,ComponentPad*%
%ADD18O,3.048000X1.850000*%
%TD*%
%TA.AperFunction,SMDPad,CuDef*%
%ADD19RoundRect,0.250000X-1.050000X-0.550000X1.050000X-0.550000X1.050000X0.550000X-1.050000X0.550000X0*%
%TD*%
%TA.AperFunction,SMDPad,CuDef*%
%ADD20RoundRect,0.250000X0.450000X-0.350000X0.450000X0.350000X-0.450000X0.350000X-0.450000X-0.350000X0*%
%TD*%
%TA.AperFunction,SMDPad,CuDef*%
%ADD21RoundRect,0.250000X0.475000X-0.337500X0.475000X0.337500X-0.475000X0.337500X-0.475000X-0.337500X0*%
%TD*%
%TA.AperFunction,SMDPad,CuDef*%
%ADD22R,1.300000X1.700000*%
%TD*%
%TA.AperFunction,ComponentPad*%
%ADD23R,1.700000X1.700000*%
%TD*%
%TA.AperFunction,ComponentPad*%
%ADD24O,1.700000X1.700000*%
%TD*%
%TA.AperFunction,ViaPad*%
%ADD25C,0.800000*%
%TD*%
%TA.AperFunction,Conductor*%
%ADD26C,0.250000*%
%TD*%
%TA.AperFunction,Conductor*%
%ADD27C,0.500000*%
%TD*%
%TA.AperFunction,Conductor*%
%ADD28C,0.300000*%
%TD*%
G04 APERTURE END LIST*
D10*
%TO.P,J3,1,Pin_1*%
%TO.N,+5V*%
X4177848Y3444445D03*
D11*
%TO.P,J3,2,Pin_2*%
%TO.N,/LED_R*%
X4177848Y5444445D03*
%TO.P,J3,3,Pin_3*%
%TO.N,/LED_G*%
X4177848Y7444445D03*
%TO.P,J3,4,Pin_4*%
%TO.N,/IRIN*%
X4177848Y9444445D03*
%TO.P,J3,5,Pin_5*%
%TO.N,GND*%
X4177848Y11444445D03*
%TD*%
D10*
%TO.P,J1,1,Pin_1*%
%TO.N,GND*%
X4177848Y24882045D03*
D11*
%TO.P,J1,2,Pin_2*%
%TO.N,/SOURCE*%
X4177848Y26882045D03*
%TO.P,J1,3,Pin_3*%
%TO.N,/UP*%
X4177848Y28882045D03*
%TO.P,J1,4,Pin_4*%
%TO.N,/DOWN*%
X4177848Y30882045D03*
%TO.P,J1,5,Pin_5*%
%TO.N,/VOL_P*%
X4177848Y32882045D03*
%TO.P,J1,6,Pin_6*%
%TO.N,/VOL_M*%
X4177848Y34882045D03*
%TO.P,J1,7,Pin_7*%
%TO.N,/MENU*%
X4177848Y36882045D03*
%TO.P,J1,8,Pin_8*%
%TO.N,/POWER*%
X4177848Y38882045D03*
%TO.P,J1,9,Pin_9*%
%TO.N,GND*%
X4177848Y40882045D03*
%TD*%
D12*
%TO.P,SW1,1,1*%
%TO.N,/VOL_M*%
X9511848Y43288445D03*
X9511848Y30788445D03*
%TO.P,SW1,2,2*%
%TO.N,GND*%
X14511848Y43288445D03*
X14511848Y30788445D03*
%TD*%
D13*
%TO.P,U1,1,OUT*%
%TO.N,/IRIN*%
X9384848Y9413445D03*
D14*
%TO.P,U1,2,GND*%
%TO.N,GND*%
X9384848Y6873445D03*
%TO.P,U1,3,Vs*%
%TO.N,Net-(C1-Pad1)*%
X9384848Y4333445D03*
%TD*%
D15*
%TO.P,D2,1,A1*%
%TO.N,/LED_R*%
X29704848Y2555445D03*
D14*
%TO.P,D2,2,K*%
%TO.N,GND*%
X29704848Y5095445D03*
%TO.P,D2,3,A2*%
%TO.N,/LED_G*%
X29704848Y7635445D03*
%TD*%
D16*
%TO.P,SW6,1,1*%
%TO.N,/POWER*%
X42261848Y3751645D03*
X42261848Y10251645D03*
%TO.P,SW6,2,2*%
%TO.N,GND*%
X37761848Y10251645D03*
X37761848Y3751645D03*
%TD*%
D17*
%TO.P,TP2,1,1*%
%TO.N,/SOURCE*%
X5955848Y48910445D03*
%TD*%
D12*
%TO.P,SW5,1,1*%
%TO.N,/VOL_P*%
X40491848Y30798445D03*
X40491848Y43298445D03*
%TO.P,SW5,2,2*%
%TO.N,GND*%
X35491848Y30798445D03*
X35491848Y43298445D03*
%TD*%
D17*
%TO.P,TP1,1,1*%
%TO.N,/POWER*%
X11035848Y48910445D03*
%TD*%
%TO.P,TP3,1,1*%
%TO.N,GND*%
X8495848Y48910445D03*
%TD*%
D18*
%TO.P,SW4,1,1*%
%TO.N,/DOWN*%
X18741848Y21508445D03*
X31241848Y21508445D03*
%TO.P,SW4,2,2*%
%TO.N,GND*%
X18741848Y26508445D03*
X31241848Y26508445D03*
%TD*%
D19*
%TO.P,E1,1*%
%TO.N,Net-(C1-Pad1)*%
X25872848Y11572445D03*
%TO.P,E1,2*%
%TO.N,GND*%
X29472848Y11572445D03*
%TD*%
D18*
%TO.P,SW2,1,1*%
%TO.N,/UP*%
X31251848Y52488445D03*
X18751848Y52488445D03*
%TO.P,SW2,2,2*%
%TO.N,GND*%
X31251848Y47488445D03*
X18751848Y47488445D03*
%TD*%
D20*
%TO.P,R1,1*%
%TO.N,/IRIN*%
X18046248Y11486845D03*
%TO.P,R1,2*%
%TO.N,Net-(C1-Pad1)*%
X18046248Y13486845D03*
%TD*%
D21*
%TO.P,C1,1*%
%TO.N,Net-(C1-Pad1)*%
X22465848Y11449345D03*
%TO.P,C1,2*%
%TO.N,GND*%
X22465848Y13524345D03*
%TD*%
D16*
%TO.P,TP4,1,1*%
%TO.N,GND*%
X8749848Y19700445D03*
%TD*%
D21*
%TO.P,C2,1*%
%TO.N,/IRIN*%
X20230648Y11449345D03*
%TO.P,C2,2*%
%TO.N,GND*%
X20230648Y13524345D03*
%TD*%
D22*
%TO.P,D1,1,K*%
%TO.N,Net-(C1-Pad1)*%
X14817848Y12461445D03*
%TO.P,D1,2,A*%
%TO.N,+5V*%
X11317848Y12461445D03*
%TD*%
D18*
%TO.P,SW3,1,1*%
%TO.N,/MENU*%
X18751848Y39518445D03*
X31251848Y39518445D03*
%TO.P,SW3,2,2*%
%TO.N,GND*%
X18751848Y34518445D03*
X31251848Y34518445D03*
%TD*%
D23*
%TO.P,J4,1,Pin_1*%
%TO.N,+5V*%
X1637848Y2144445D03*
D24*
%TO.P,J4,2,Pin_2*%
%TO.N,/LED_R*%
X1637848Y4684445D03*
%TO.P,J4,3,Pin_3*%
%TO.N,/LED_G*%
X1637848Y7224445D03*
%TO.P,J4,4,Pin_4*%
%TO.N,/IRIN*%
X1637848Y9764445D03*
%TO.P,J4,5,Pin_5*%
%TO.N,GND*%
X1637848Y12304445D03*
%TD*%
D23*
%TO.P,J2,1,Pin_1*%
%TO.N,GND*%
X1637848Y24018445D03*
D24*
%TO.P,J2,2,Pin_2*%
%TO.N,/SOURCE*%
X1637848Y26558445D03*
%TO.P,J2,3,Pin_3*%
%TO.N,/UP*%
X1637848Y29098445D03*
%TO.P,J2,4,Pin_4*%
%TO.N,/DOWN*%
X1637848Y31638445D03*
%TO.P,J2,5,Pin_5*%
%TO.N,/VOL_P*%
X1637848Y34178445D03*
%TO.P,J2,6,Pin_6*%
%TO.N,/VOL_M*%
X1637848Y36718445D03*
%TO.P,J2,7,Pin_7*%
%TO.N,/MENU*%
X1637848Y39258445D03*
%TO.P,J2,8,Pin_8*%
%TO.N,/POWER*%
X1637848Y41798445D03*
%TO.P,J2,9,Pin_9*%
%TO.N,GND*%
X1637848Y44338445D03*
%TD*%
D25*
%TO.N,/IRIN*%
X16496848Y11404133D03*
%TO.N,Net-(C1-Pad1)*%
X12178848Y1539445D03*
%TD*%
D26*
%TO.N,/POWER*%
X33667248Y54523845D02*
X42261848Y45929245D01*
X16649248Y54523845D02*
X33667248Y54523845D01*
X11035848Y48910445D02*
X16649248Y54523845D01*
X42261848Y45929245D02*
X42261848Y10251645D01*
D27*
%TO.N,GND*%
X8495848Y48275445D02*
X8495848Y48910445D01*
X1637848Y44338445D02*
X4558848Y44338445D01*
X4558848Y44338445D02*
X8495848Y48275445D01*
X8749848Y20310045D02*
X8749848Y19700445D01*
X4177848Y24882045D02*
X8749848Y20310045D01*
X3314248Y24018445D02*
X4177848Y24882045D01*
X1637848Y24018445D02*
X3314248Y24018445D01*
D26*
%TO.N,/SOURCE*%
X1961448Y26882045D02*
X4177848Y26882045D01*
X1637848Y26558445D02*
X1961448Y26882045D01*
%TO.N,/UP*%
X1637848Y29098445D02*
X1854248Y28882045D01*
X1854248Y28882045D02*
X4177848Y28882045D01*
%TO.N,/DOWN*%
X2394248Y30882045D02*
X1637848Y31638445D01*
X4177848Y30882045D02*
X2394248Y30882045D01*
%TO.N,/VOL_P*%
X4177848Y32882045D02*
X2934248Y32882045D01*
X2934248Y32882045D02*
X1637848Y34178445D01*
%TO.N,/MENU*%
X4177848Y36882045D02*
X4014248Y36882045D01*
X4014248Y36882045D02*
X1637848Y39258445D01*
D27*
%TO.N,GND*%
X4177848Y40882045D02*
X4177848Y41798445D01*
X4177848Y41798445D02*
X1637848Y44338445D01*
D26*
%TO.N,/POWER*%
X1637848Y41519045D02*
X1637848Y41798445D01*
X4177848Y38979045D02*
X1637848Y41519045D01*
X4177848Y38882045D02*
X4177848Y38979045D01*
X5955848Y43322445D02*
X11035848Y48402445D01*
X11035848Y48402445D02*
X11035848Y48910445D01*
X5955848Y40325245D02*
X5955848Y43322445D01*
X4512648Y38882045D02*
X5955848Y40325245D01*
X4177848Y38882045D02*
X4512648Y38882045D01*
%TO.N,/VOL_P*%
X38055248Y28361845D02*
X40491848Y30798445D01*
X8800648Y28361845D02*
X38055248Y28361845D01*
X4177848Y32882045D02*
X4280448Y32882045D01*
X4280448Y32882045D02*
X8800648Y28361845D01*
%TO.N,/DOWN*%
X13749048Y21508445D02*
X18741848Y21508445D01*
X4375448Y30882045D02*
X13749048Y21508445D01*
X4177848Y30882045D02*
X4375448Y30882045D01*
%TO.N,/MENU*%
X7130248Y39518445D02*
X18751848Y39518445D01*
X4493848Y36882045D02*
X7130248Y39518445D01*
X4177848Y36882045D02*
X4493848Y36882045D01*
D28*
%TO.N,/VOL_M*%
X8787048Y30788445D02*
X9511848Y30788445D01*
X4693448Y34882045D02*
X8787048Y30788445D01*
X4177848Y34882045D02*
X4693448Y34882045D01*
X1942648Y36718445D02*
X1637848Y36718445D01*
X3779048Y34882045D02*
X1942648Y36718445D01*
X4177848Y34882045D02*
X3779048Y34882045D01*
D27*
%TO.N,GND*%
X4177848Y11534445D02*
X7225848Y14582445D01*
X4177848Y11444445D02*
X4177848Y11534445D01*
X7606848Y6873445D02*
X9384848Y6873445D01*
X5574848Y10320445D02*
X5574848Y8905445D01*
X4177848Y11444445D02*
X4450848Y11444445D01*
X5574848Y8905445D02*
X7606848Y6873445D01*
X4450848Y11444445D02*
X5574848Y10320445D01*
X7225848Y14582445D02*
X7225848Y18176445D01*
X1637848Y12304445D02*
X3317848Y12304445D01*
%TO.N,+5V*%
X2877848Y2144445D02*
X4177848Y3444445D01*
X1637848Y2144445D02*
X2877848Y2144445D01*
%TO.N,GND*%
X7225848Y18176445D02*
X8749848Y19700445D01*
X3317848Y12304445D02*
X4177848Y11444445D01*
X27799848Y9159445D02*
X27799848Y6492445D01*
X22465848Y13524345D02*
X27520948Y13524345D01*
X29472848Y10832445D02*
X27799848Y9159445D01*
X27799848Y6492445D02*
X29196848Y5095445D01*
X29472848Y11572445D02*
X29472848Y10832445D01*
X29196848Y5095445D02*
X29704848Y5095445D01*
X20230648Y13524345D02*
X22465848Y13524345D01*
X27520948Y13524345D02*
X29472848Y11572445D01*
%TO.N,+5V*%
X1637848Y2144445D02*
X2623848Y1158445D01*
X11670848Y12108445D02*
X11317848Y12461445D01*
X2623848Y1158445D02*
X9892848Y1158445D01*
X9892848Y1158445D02*
X11670848Y2936445D01*
X11670848Y2936445D02*
X11670848Y12108445D01*
D26*
%TO.N,/IRIN*%
X18046248Y11486845D02*
X20193148Y11486845D01*
X16579560Y11486845D02*
X18046248Y11486845D01*
X20193148Y11486845D02*
X20230648Y11449345D01*
X16496848Y11404133D02*
X16579560Y11486845D01*
D27*
%TO.N,Net-(C1-Pad1)*%
X22465848Y11449345D02*
X25749748Y11449345D01*
X25872848Y4184445D02*
X25872848Y11572445D01*
X14817848Y12461445D02*
X15843248Y13486845D01*
X14817848Y12461445D02*
X14817848Y11219445D01*
X14817848Y11219445D02*
X15861848Y10175445D01*
X15861848Y10175445D02*
X21576848Y10175445D01*
X15843248Y13486845D02*
X18046248Y13486845D01*
X22465848Y11064445D02*
X22465848Y11449345D01*
X23227848Y1539445D02*
X25872848Y4184445D01*
X25749748Y11449345D02*
X25872848Y11572445D01*
X21576848Y10175445D02*
X22465848Y11064445D01*
X12178848Y1539445D02*
X23227848Y1539445D01*
%TD*%
M02*
