%TF.GenerationSoftware,KiCad,Pcbnew,(6.0.9)*%
%TF.CreationDate,2023-01-09T21:15:12+09:00*%
%TF.ProjectId,monitor_control_board,6d6f6e69-746f-4725-9f63-6f6e74726f6c,rev?*%
%TF.SameCoordinates,PX7acff10PY74ffa90*%
%TF.FileFunction,Copper,L2,Bot*%
%TF.FilePolarity,Positive*%
%FSLAX46Y46*%
G04 Gerber Fmt 4.6, Leading zero omitted, Abs format (unit mm)*
G04 Created by KiCad (PCBNEW (6.0.9)) date 2023-01-09 21:15:12*
%MOMM*%
%LPD*%
G01*
G04 APERTURE LIST*
G04 Aperture macros list*
%AMRoundRect*
0 Rectangle with rounded corners*
0 $1 Rounding radius*
0 $2 $3 $4 $5 $6 $7 $8 $9 X,Y pos of 4 corners*
0 Add a 4 corners polygon primitive as box body*
4,1,4,$2,$3,$4,$5,$6,$7,$8,$9,$2,$3,0*
0 Add four circle primitives for the rounded corners*
1,1,$1+$1,$2,$3*
1,1,$1+$1,$4,$5*
1,1,$1+$1,$6,$7*
1,1,$1+$1,$8,$9*
0 Add four rect primitives between the rounded corners*
20,1,$1+$1,$2,$3,$4,$5,0*
20,1,$1+$1,$4,$5,$6,$7,0*
20,1,$1+$1,$6,$7,$8,$9,0*
20,1,$1+$1,$8,$9,$2,$3,0*%
G04 Aperture macros list end*
%TA.AperFunction,ComponentPad*%
%ADD10R,1.700000X1.700000*%
%TD*%
%TA.AperFunction,ComponentPad*%
%ADD11O,1.700000X1.700000*%
%TD*%
%TA.AperFunction,ComponentPad*%
%ADD12O,1.850000X3.048000*%
%TD*%
%TA.AperFunction,ComponentPad*%
%ADD13C,2.000000*%
%TD*%
%TA.AperFunction,ComponentPad*%
%ADD14O,3.048000X1.850000*%
%TD*%
%TA.AperFunction,ComponentPad*%
%ADD15O,1.750000X1.200000*%
%TD*%
%TA.AperFunction,ComponentPad*%
%ADD16RoundRect,0.250000X0.625000X-0.350000X0.625000X0.350000X-0.625000X0.350000X-0.625000X-0.350000X0*%
%TD*%
%TA.AperFunction,SMDPad,CuDef*%
%ADD17RoundRect,0.150000X0.700000X-0.150000X0.700000X0.150000X-0.700000X0.150000X-0.700000X-0.150000X0*%
%TD*%
%TA.AperFunction,SMDPad,CuDef*%
%ADD18RoundRect,0.250000X1.100000X-0.250000X1.100000X0.250000X-1.100000X0.250000X-1.100000X-0.250000X0*%
%TD*%
%TA.AperFunction,ViaPad*%
%ADD19C,0.800000*%
%TD*%
%TA.AperFunction,Conductor*%
%ADD20C,0.300000*%
%TD*%
%TA.AperFunction,Conductor*%
%ADD21C,0.250000*%
%TD*%
G04 APERTURE END LIST*
D10*
%TO.P,J2,1,Pin_1*%
%TO.N,/SOURCE*%
X46228000Y45720000D03*
D11*
%TO.P,J2,2,Pin_2*%
%TO.N,/UP*%
X46228000Y43180000D03*
%TO.P,J2,3,Pin_3*%
%TO.N,/DOWN*%
X46228000Y40640000D03*
%TO.P,J2,4,Pin_4*%
%TO.N,/VOL_P*%
X46228000Y38100000D03*
%TO.P,J2,5,Pin_5*%
%TO.N,/VOL_M*%
X46228000Y35560000D03*
%TO.P,J2,6,Pin_6*%
%TO.N,/MENU*%
X46228000Y33020000D03*
%TO.P,J2,7,Pin_7*%
%TO.N,/POWER*%
X46228000Y30480000D03*
%TO.P,J2,8,Pin_8*%
%TO.N,GND*%
X46228000Y27940000D03*
%TD*%
D12*
%TO.P,SW1,1,1*%
%TO.N,/VOL_M*%
X9754000Y33698000D03*
X9754000Y46198000D03*
%TO.P,SW1,2,2*%
%TO.N,GND*%
X14754000Y33698000D03*
X14754000Y46198000D03*
%TD*%
D13*
%TO.P,SW6,1,1*%
%TO.N,/POWER*%
X37684000Y13168000D03*
X37684000Y6668000D03*
%TO.P,SW6,2,2*%
%TO.N,GND*%
X42184000Y6668000D03*
X42184000Y13168000D03*
%TD*%
%TO.P,TP1,1,1*%
%TO.N,/SOURCE*%
X11176000Y55880000D03*
%TD*%
D12*
%TO.P,SW5,1,1*%
%TO.N,/VOL_P*%
X40054000Y33708000D03*
X40054000Y46208000D03*
%TO.P,SW5,2,2*%
%TO.N,GND*%
X35054000Y46208000D03*
X35054000Y33708000D03*
%TD*%
D13*
%TO.P,TP3,1,1*%
%TO.N,/POWER*%
X7620000Y55880000D03*
%TD*%
%TO.P,TP2,1,1*%
%TO.N,GND*%
X9398000Y51816000D03*
%TD*%
D14*
%TO.P,SW4,1,1*%
%TO.N,/DOWN*%
X18644000Y24778000D03*
X31144000Y24778000D03*
%TO.P,SW4,2,2*%
%TO.N,GND*%
X31144000Y29778000D03*
X18644000Y29778000D03*
%TD*%
%TO.P,SW2,1,1*%
%TO.N,/UP*%
X31174000Y55058000D03*
X18674000Y55058000D03*
%TO.P,SW2,2,2*%
%TO.N,GND*%
X31174000Y50058000D03*
X18674000Y50058000D03*
%TD*%
%TO.P,SW3,1,1*%
%TO.N,/MENU*%
X18674000Y42428800D03*
X31174000Y42428800D03*
%TO.P,SW3,2,2*%
%TO.N,GND*%
X31174000Y37428800D03*
X18674000Y37428800D03*
%TD*%
D15*
%TO.P,J3,8,Pin_8*%
%TO.N,GND*%
X4064000Y42702000D03*
%TO.P,J3,7,Pin_7*%
%TO.N,/POWER*%
X4064000Y40702000D03*
%TO.P,J3,6,Pin_6*%
%TO.N,/MENU*%
X4064000Y38702000D03*
%TO.P,J3,5,Pin_5*%
%TO.N,/VOL_M*%
X4064000Y36702000D03*
%TO.P,J3,4,Pin_4*%
%TO.N,/VOL_P*%
X4064000Y34702000D03*
%TO.P,J3,3,Pin_3*%
%TO.N,/DOWN*%
X4064000Y32702000D03*
%TO.P,J3,2,Pin_2*%
%TO.N,/UP*%
X4064000Y30702000D03*
D16*
%TO.P,J3,1,Pin_1*%
%TO.N,/SOURCE*%
X4064000Y28702000D03*
%TD*%
D17*
%TO.P,J1,1,Pin_1*%
%TO.N,/SOURCE*%
X13711800Y19755000D03*
%TO.P,J1,2,Pin_2*%
%TO.N,/UP*%
X13711800Y21005000D03*
%TO.P,J1,3,Pin_3*%
%TO.N,/DOWN*%
X13711800Y22255000D03*
%TO.P,J1,4,Pin_4*%
%TO.N,/VOL_P*%
X13711800Y23505000D03*
%TO.P,J1,5,Pin_5*%
%TO.N,/VOL_M*%
X13711800Y24755000D03*
%TO.P,J1,6,Pin_6*%
%TO.N,/MENU*%
X13711800Y26005000D03*
%TO.P,J1,7,Pin_7*%
%TO.N,/POWER*%
X13711800Y27255000D03*
%TO.P,J1,8,Pin_8*%
%TO.N,GND*%
X13711800Y28505000D03*
D18*
%TO.P,J1,MP*%
%TO.N,N/C*%
X10511800Y30355000D03*
X10511800Y17905000D03*
%TD*%
D19*
%TO.N,/DOWN*%
X42091000Y30553000D03*
%TD*%
D20*
%TO.N,GND*%
X32982000Y27940000D02*
X31144000Y29778000D01*
X46228000Y27940000D02*
X32982000Y27940000D01*
%TO.N,/DOWN*%
X46228000Y40604000D02*
X46228000Y40640000D01*
X42164000Y36540000D02*
X46228000Y40604000D01*
X42164000Y30626000D02*
X42164000Y36540000D01*
X42091000Y30553000D02*
X42164000Y30626000D01*
%TO.N,/VOL_P*%
X6604000Y28034000D02*
X11133000Y23505000D01*
X4668000Y34702000D02*
X6604000Y32766000D01*
X4064000Y34702000D02*
X4668000Y34702000D01*
X6604000Y32766000D02*
X6604000Y28034000D01*
X11133000Y23505000D02*
X13711800Y23505000D01*
%TO.N,/DOWN*%
X11463000Y22255000D02*
X13711800Y22255000D01*
X6096000Y27622000D02*
X11463000Y22255000D01*
X6096000Y31750000D02*
X6096000Y27622000D01*
X5144000Y32702000D02*
X6096000Y31750000D01*
X4064000Y32702000D02*
X5144000Y32702000D01*
%TO.N,/POWER*%
X4541000Y40702000D02*
X4064000Y40702000D01*
X8128000Y37115000D02*
X4541000Y40702000D01*
X10464000Y27255000D02*
X8128000Y29591000D01*
X13711800Y27255000D02*
X10464000Y27255000D01*
X8128000Y29591000D02*
X8128000Y37115000D01*
%TO.N,/MENU*%
X7620000Y28956000D02*
X10571000Y26005000D01*
X7620000Y35980852D02*
X7620000Y28956000D01*
X4898852Y38702000D02*
X7620000Y35980852D01*
X4064000Y38702000D02*
X4898852Y38702000D01*
X10571000Y26005000D02*
X13711800Y26005000D01*
%TO.N,/VOL_M*%
X4446000Y36702000D02*
X4064000Y36702000D01*
X7112000Y34036000D02*
X4446000Y36702000D01*
X7112000Y28448000D02*
X7112000Y34036000D01*
X13711800Y24755000D02*
X10805000Y24755000D01*
X10805000Y24755000D02*
X7112000Y28448000D01*
%TO.N,/UP*%
X11589000Y21005000D02*
X13711800Y21005000D01*
X5588000Y27006000D02*
X11589000Y21005000D01*
X5588000Y30226000D02*
X5588000Y27006000D01*
X5112000Y30702000D02*
X5588000Y30226000D01*
X4064000Y30702000D02*
X5112000Y30702000D01*
%TO.N,/SOURCE*%
X11741000Y19755000D02*
X13711800Y19755000D01*
X4826000Y26670000D02*
X11741000Y19755000D01*
X4826000Y27940000D02*
X4826000Y26670000D01*
X4064000Y28702000D02*
X4826000Y27940000D01*
%TO.N,/UP*%
X939800Y52476400D02*
X6324600Y57861200D01*
X6324600Y57861200D02*
X15875000Y57861200D01*
X18652000Y55027200D02*
X31152000Y55027200D01*
X18652000Y55084200D02*
X18652000Y55027200D01*
X4064000Y30702000D02*
X3334000Y30702000D01*
X939800Y33096200D02*
X939800Y52476400D01*
%TO.N,GND*%
X11861200Y49072800D02*
X14779000Y46155000D01*
%TO.N,/UP*%
X15875000Y57861200D02*
X18652000Y55084200D01*
%TO.N,GND*%
X5208800Y49072800D02*
X11861200Y49072800D01*
X4736000Y48600000D02*
X5208800Y49072800D01*
%TO.N,/UP*%
X3334000Y30702000D02*
X939800Y33096200D01*
%TO.N,GND*%
X4736000Y43374000D02*
X4736000Y48600000D01*
X4064000Y42702000D02*
X4736000Y43374000D01*
%TO.N,/POWER*%
X35560000Y19304000D02*
X32004000Y19304000D01*
X37684000Y17180000D02*
X35560000Y19304000D01*
X37684000Y13168000D02*
X37684000Y17180000D01*
X19304000Y19304000D02*
X32004000Y19304000D01*
X15748000Y22860000D02*
X19304000Y19304000D01*
X15748000Y26416000D02*
X15748000Y22860000D01*
X14909000Y27255000D02*
X15748000Y26416000D01*
X13711800Y27255000D02*
X14909000Y27255000D01*
%TO.N,/MENU*%
X18674000Y42428800D02*
X31174000Y42428800D01*
%TO.N,/VOL_P*%
X40041200Y33719600D02*
X40041200Y46219600D01*
D21*
%TO.N,/DOWN*%
X18682800Y24779600D02*
X31182800Y24779600D01*
D20*
%TO.N,/VOL_M*%
X9754000Y46198000D02*
X9754000Y33698000D01*
%TO.N,/POWER*%
X37684000Y13168000D02*
X37684000Y6668000D01*
%TO.N,GND*%
X18652000Y50027200D02*
X18651200Y50027200D01*
X31182800Y29779600D02*
X42142800Y18819600D01*
X31182800Y29779600D02*
X31182800Y29861200D01*
X34861200Y33719600D02*
X31152000Y37428800D01*
X15439000Y28505000D02*
X13711800Y28505000D01*
X31182800Y29861200D02*
X35041200Y33719600D01*
X42184000Y13208000D02*
X42184000Y6708000D01*
X18644000Y29778000D02*
X16712000Y29778000D01*
X14779000Y33655000D02*
X14878200Y33655000D01*
X14878200Y33655000D02*
X18652000Y37428800D01*
X18654400Y29779600D02*
X14779000Y33655000D01*
X34959600Y46219600D02*
X31152000Y50027200D01*
X35041200Y33719600D02*
X34861200Y33719600D01*
X14754000Y33698000D02*
X14754000Y46198000D01*
X18674000Y37428800D02*
X31174000Y37428800D01*
X16712000Y29778000D02*
X15439000Y28505000D01*
X31152000Y50027200D02*
X18652000Y50027200D01*
X42142800Y18819600D02*
X42142800Y13249200D01*
X18682800Y29779600D02*
X31182800Y29779600D01*
X18651200Y50027200D02*
X14779000Y46155000D01*
X35054000Y33708000D02*
X35054000Y46208000D01*
X42142800Y13249200D02*
X42184000Y13208000D01*
X35041200Y46219600D02*
X34959600Y46219600D01*
X18682800Y29779600D02*
X18654400Y29779600D01*
%TD*%
M02*
