%TF.GenerationSoftware,KiCad,Pcbnew,(6.0.10)*%
%TF.CreationDate,2023-01-20T02:58:03+09:00*%
%TF.ProjectId,monitor_control_board,6d6f6e69-746f-4725-9f63-6f6e74726f6c,rev?*%
%TF.SameCoordinates,PX7ab4258PY723a4bd*%
%TF.FileFunction,Soldermask,Top*%
%TF.FilePolarity,Negative*%
%FSLAX46Y46*%
G04 Gerber Fmt 4.6, Leading zero omitted, Abs format (unit mm)*
G04 Created by KiCad (PCBNEW (6.0.10)) date 2023-01-20 02:58:03*
%MOMM*%
%LPD*%
G01*
G04 APERTURE LIST*
G04 Aperture macros list*
%AMRoundRect*
0 Rectangle with rounded corners*
0 $1 Rounding radius*
0 $2 $3 $4 $5 $6 $7 $8 $9 X,Y pos of 4 corners*
0 Add a 4 corners polygon primitive as box body*
4,1,4,$2,$3,$4,$5,$6,$7,$8,$9,$2,$3,0*
0 Add four circle primitives for the rounded corners*
1,1,$1+$1,$2,$3*
1,1,$1+$1,$4,$5*
1,1,$1+$1,$6,$7*
1,1,$1+$1,$8,$9*
0 Add four rect primitives between the rounded corners*
20,1,$1+$1,$2,$3,$4,$5,0*
20,1,$1+$1,$4,$5,$6,$7,0*
20,1,$1+$1,$6,$7,$8,$9,0*
20,1,$1+$1,$8,$9,$2,$3,0*%
G04 Aperture macros list end*
%ADD10O,3.048000X1.850000*%
%ADD11O,1.850000X3.048000*%
%ADD12RoundRect,0.250200X-0.649800X0.649800X-0.649800X-0.649800X0.649800X-0.649800X0.649800X0.649800X0*%
%ADD13C,1.800000*%
%ADD14R,1.800000X1.800000*%
%ADD15C,2.000000*%
%ADD16RoundRect,0.250000X-1.050000X-0.550000X1.050000X-0.550000X1.050000X0.550000X-1.050000X0.550000X0*%
%ADD17RoundRect,0.250000X0.450000X-0.350000X0.450000X0.350000X-0.450000X0.350000X-0.450000X-0.350000X0*%
%ADD18RoundRect,0.250000X-0.337500X-0.475000X0.337500X-0.475000X0.337500X0.475000X-0.337500X0.475000X0*%
%ADD19R,1.300000X1.700000*%
%ADD20R,1.700000X1.700000*%
%ADD21O,1.700000X1.700000*%
%ADD22RoundRect,0.250000X0.625000X-0.350000X0.625000X0.350000X-0.625000X0.350000X-0.625000X-0.350000X0*%
%ADD23O,1.750000X1.200000*%
G04 APERTURE END LIST*
D10*
%TO.C,SW2*%
X18761848Y52178445D03*
X31261848Y52178445D03*
X18761848Y47178445D03*
X31261848Y47178445D03*
%TD*%
%TO.C,SW4*%
X31261848Y21808445D03*
X18761848Y21808445D03*
X31261848Y26808445D03*
X18761848Y26808445D03*
%TD*%
D11*
%TO.C,SW5*%
X40211848Y43268445D03*
X40211848Y30768445D03*
X35211848Y43268445D03*
X35211848Y30768445D03*
%TD*%
%TO.C,SW1*%
X9781848Y30768445D03*
X9781848Y43268445D03*
X14781848Y30768445D03*
X14781848Y43268445D03*
%TD*%
D10*
%TO.C,SW3*%
X31251848Y34518445D03*
X18751848Y34518445D03*
X31251848Y39518445D03*
X18751848Y39518445D03*
%TD*%
D12*
%TO.C,U1*%
X9384848Y9413445D03*
D13*
X9384848Y6873445D03*
X9384848Y4333445D03*
%TD*%
D14*
%TO.C,D2*%
X29704848Y2555445D03*
D13*
X29704848Y5095445D03*
X29704848Y7635445D03*
%TD*%
D15*
%TO.C,SW6*%
X37797848Y10262445D03*
X37797848Y3762445D03*
X42297848Y3762445D03*
X42297848Y10262445D03*
%TD*%
%TO.C,TP1*%
X3415848Y49037445D03*
%TD*%
%TO.C,TP3*%
X3415848Y45735445D03*
%TD*%
%TO.C,TP2*%
X6209848Y47386445D03*
%TD*%
D16*
%TO.C,E1*%
X25872848Y11572445D03*
X29472848Y11572445D03*
%TD*%
D17*
%TO.C,R1*%
X17893848Y11207445D03*
X17893848Y13207445D03*
%TD*%
D18*
%TO.C,C1*%
X20539348Y13350445D03*
X22614348Y13350445D03*
%TD*%
D15*
%TO.C,TP4*%
X9511848Y19700445D03*
%TD*%
D18*
%TO.C,C2*%
X20539348Y11064445D03*
X22614348Y11064445D03*
%TD*%
D19*
%TO.C,D1*%
X14817848Y12461445D03*
X11317848Y12461445D03*
%TD*%
D20*
%TO.C,J5*%
X23481848Y1666445D03*
D21*
X20941848Y1666445D03*
X18401848Y1666445D03*
X15861848Y1666445D03*
X13321848Y1666445D03*
%TD*%
D22*
%TO.C,J3*%
X4177848Y25702445D03*
D23*
X4177848Y27702445D03*
X4177848Y29702445D03*
X4177848Y31702445D03*
X4177848Y33702445D03*
X4177848Y35702445D03*
X4177848Y37702445D03*
X4177848Y39702445D03*
%TD*%
D20*
%TO.C,J2*%
X46595848Y42799445D03*
D21*
X46595848Y40259445D03*
X46595848Y37719445D03*
X46595848Y35179445D03*
X46595848Y32639445D03*
X46595848Y30099445D03*
X46595848Y27559445D03*
X46595848Y25019445D03*
%TD*%
D22*
%TO.C,J6*%
X4418048Y3444445D03*
D23*
X4418048Y5444445D03*
X4418048Y7444445D03*
X4418048Y9444445D03*
X4418048Y11444445D03*
%TD*%
M02*
