%TF.GenerationSoftware,KiCad,Pcbnew,(6.0.10)*%
%TF.CreationDate,2023-01-29T21:33:37+09:00*%
%TF.ProjectId,monitor_control_board,6d6f6e69-746f-4725-9f63-6f6e74726f6c,4*%
%TF.SameCoordinates,PX7ab4258PY723a4bd*%
%TF.FileFunction,Legend,Bot*%
%TF.FilePolarity,Positive*%
%FSLAX46Y46*%
G04 Gerber Fmt 4.6, Leading zero omitted, Abs format (unit mm)*
G04 Created by KiCad (PCBNEW (6.0.10)) date 2023-01-29 21:33:37*
%MOMM*%
%LPD*%
G01*
G04 APERTURE LIST*
G04 Aperture macros list*
%AMRoundRect*
0 Rectangle with rounded corners*
0 $1 Rounding radius*
0 $2 $3 $4 $5 $6 $7 $8 $9 X,Y pos of 4 corners*
0 Add a 4 corners polygon primitive as box body*
4,1,4,$2,$3,$4,$5,$6,$7,$8,$9,$2,$3,0*
0 Add four circle primitives for the rounded corners*
1,1,$1+$1,$2,$3*
1,1,$1+$1,$4,$5*
1,1,$1+$1,$6,$7*
1,1,$1+$1,$8,$9*
0 Add four rect primitives between the rounded corners*
20,1,$1+$1,$2,$3,$4,$5,0*
20,1,$1+$1,$4,$5,$6,$7,0*
20,1,$1+$1,$6,$7,$8,$9,0*
20,1,$1+$1,$8,$9,$2,$3,0*%
G04 Aperture macros list end*
%ADD10C,0.150000*%
%ADD11C,0.250000*%
%ADD12C,0.200000*%
%ADD13C,0.120000*%
%ADD14C,1.500000*%
%ADD15O,1.850000X3.048000*%
%ADD16RoundRect,0.250200X-0.649800X0.649800X-0.649800X-0.649800X0.649800X-0.649800X0.649800X0.649800X0*%
%ADD17C,1.800000*%
%ADD18R,1.800000X1.800000*%
%ADD19C,2.000000*%
%ADD20O,3.048000X1.850000*%
%ADD21R,1.700000X1.700000*%
%ADD22O,1.700000X1.700000*%
%ADD23RoundRect,0.250000X0.625000X-0.350000X0.625000X0.350000X-0.625000X0.350000X-0.625000X-0.350000X0*%
%ADD24O,1.750000X1.200000*%
G04 APERTURE END LIST*
D10*
X29205848Y50002645D02*
G75*
G03*
X29205848Y50002645I-4200000J0D01*
G01*
X29205848Y24018445D02*
G75*
G03*
X29205848Y24018445I-4200000J0D01*
G01*
X42210648Y37048645D02*
G75*
G03*
X42210648Y37048645I-4200000J0D01*
G01*
X29031248Y37023245D02*
G75*
G03*
X29031248Y37023245I-4000000J0D01*
G01*
X16226448Y37023245D02*
G75*
G03*
X16226448Y37023245I-4200000J0D01*
G01*
X6139943Y28361874D02*
X5492324Y28361874D01*
X5416133Y28399969D01*
X5378038Y28438065D01*
X5339943Y28514255D01*
X5339943Y28666636D01*
X5378038Y28742826D01*
X5416133Y28780922D01*
X5492324Y28819017D01*
X6139943Y28819017D01*
X6266943Y3292065D02*
X6266943Y2911112D01*
X5885990Y2873017D01*
X5924086Y2911112D01*
X5962181Y2987303D01*
X5962181Y3177779D01*
X5924086Y3253969D01*
X5885990Y3292065D01*
X5809800Y3330160D01*
X5619324Y3330160D01*
X5543133Y3292065D01*
X5505038Y3253969D01*
X5466943Y3177779D01*
X5466943Y2987303D01*
X5505038Y2911112D01*
X5543133Y2873017D01*
X6266943Y3558731D02*
X5466943Y3825398D01*
X6266943Y4092065D01*
D11*
X14258190Y36207188D02*
X13858190Y35007188D01*
X13458190Y36207188D01*
X12829619Y36207188D02*
X12601048Y36207188D01*
X12486762Y36150045D01*
X12372476Y36035760D01*
X12315333Y35807188D01*
X12315333Y35407188D01*
X12372476Y35178617D01*
X12486762Y35064331D01*
X12601048Y35007188D01*
X12829619Y35007188D01*
X12943905Y35064331D01*
X13058190Y35178617D01*
X13115333Y35407188D01*
X13115333Y35807188D01*
X13058190Y36035760D01*
X12943905Y36150045D01*
X12829619Y36207188D01*
X11229619Y35007188D02*
X11801048Y35007188D01*
X11801048Y36207188D01*
X10829619Y35464331D02*
X9915333Y35464331D01*
D12*
X4444419Y48505684D02*
X4330133Y48458065D01*
X4139657Y48458065D01*
X4063467Y48505684D01*
X4025371Y48553303D01*
X3987276Y48648541D01*
X3987276Y48743779D01*
X4025371Y48839017D01*
X4063467Y48886636D01*
X4139657Y48934255D01*
X4292038Y48981874D01*
X4368228Y49029493D01*
X4406324Y49077112D01*
X4444419Y49172350D01*
X4444419Y49267588D01*
X4406324Y49362826D01*
X4368228Y49410445D01*
X4292038Y49458065D01*
X4101562Y49458065D01*
X3987276Y49410445D01*
X3187276Y48458065D02*
X3453943Y48934255D01*
X3644419Y48458065D02*
X3644419Y49458065D01*
X3339657Y49458065D01*
X3263467Y49410445D01*
X3225371Y49362826D01*
X3187276Y49267588D01*
X3187276Y49124731D01*
X3225371Y49029493D01*
X3263467Y48981874D01*
X3339657Y48934255D01*
X3644419Y48934255D01*
X2387276Y48553303D02*
X2425371Y48505684D01*
X2539657Y48458065D01*
X2615848Y48458065D01*
X2730133Y48505684D01*
X2806324Y48600922D01*
X2844419Y48696160D01*
X2882514Y48886636D01*
X2882514Y49029493D01*
X2844419Y49219969D01*
X2806324Y49315207D01*
X2730133Y49410445D01*
X2615848Y49458065D01*
X2539657Y49458065D01*
X2425371Y49410445D01*
X2387276Y49362826D01*
D11*
X26024905Y49161188D02*
X26024905Y48189760D01*
X25967762Y48075474D01*
X25910619Y48018331D01*
X25796333Y47961188D01*
X25567762Y47961188D01*
X25453476Y48018331D01*
X25396333Y48075474D01*
X25339190Y48189760D01*
X25339190Y49161188D01*
X24767762Y47961188D02*
X24767762Y49161188D01*
X24310619Y49161188D01*
X24196333Y49104045D01*
X24139190Y49046903D01*
X24082048Y48932617D01*
X24082048Y48761188D01*
X24139190Y48646903D01*
X24196333Y48589760D01*
X24310619Y48532617D01*
X24767762Y48532617D01*
D10*
X13112324Y3971445D02*
X13188514Y4009541D01*
X13302800Y4009541D01*
X13417086Y3971445D01*
X13493276Y3895255D01*
X13531371Y3819065D01*
X13569467Y3666684D01*
X13569467Y3552398D01*
X13531371Y3400017D01*
X13493276Y3323826D01*
X13417086Y3247636D01*
X13302800Y3209541D01*
X13226609Y3209541D01*
X13112324Y3247636D01*
X13074228Y3285731D01*
X13074228Y3552398D01*
X13226609Y3552398D01*
X5339943Y30412922D02*
X6139943Y30412922D01*
X6139943Y30603398D01*
X6101848Y30717684D01*
X6025657Y30793874D01*
X5949467Y30831969D01*
X5797086Y30870065D01*
X5682800Y30870065D01*
X5530419Y30831969D01*
X5454228Y30793874D01*
X5378038Y30717684D01*
X5339943Y30603398D01*
X5339943Y30412922D01*
X9964133Y53538065D02*
X10297467Y54014255D01*
X10535562Y53538065D02*
X10535562Y54538065D01*
X10154609Y54538065D01*
X10059371Y54490445D01*
X10011752Y54442826D01*
X9964133Y54347588D01*
X9964133Y54204731D01*
X10011752Y54109493D01*
X10059371Y54061874D01*
X10154609Y54014255D01*
X10535562Y54014255D01*
X9154609Y53585684D02*
X9249848Y53538065D01*
X9440324Y53538065D01*
X9535562Y53585684D01*
X9583181Y53680922D01*
X9583181Y54061874D01*
X9535562Y54157112D01*
X9440324Y54204731D01*
X9249848Y54204731D01*
X9154609Y54157112D01*
X9106990Y54061874D01*
X9106990Y53966636D01*
X9583181Y53871398D01*
X8773657Y54204731D02*
X8535562Y53538065D01*
X8297467Y54204731D01*
X7916514Y53633303D02*
X7868895Y53585684D01*
X7916514Y53538065D01*
X7964133Y53585684D01*
X7916514Y53633303D01*
X7916514Y53538065D01*
X7011752Y54204731D02*
X7011752Y53538065D01*
X7249848Y54585684D02*
X7487943Y53871398D01*
X6868895Y53871398D01*
X6101848Y24786769D02*
X6139943Y24710579D01*
X6139943Y24596293D01*
X6101848Y24482007D01*
X6025657Y24405817D01*
X5949467Y24367722D01*
X5797086Y24329626D01*
X5682800Y24329626D01*
X5530419Y24367722D01*
X5454228Y24405817D01*
X5378038Y24482007D01*
X5339943Y24596293D01*
X5339943Y24672484D01*
X5378038Y24786769D01*
X5416133Y24824865D01*
X5682800Y24824865D01*
X5682800Y24672484D01*
X33672705Y13061588D02*
X33672705Y14261588D01*
X32415562Y13061588D02*
X32815562Y13633017D01*
X33101276Y13061588D02*
X33101276Y14261588D01*
X32644133Y14261588D01*
X32529848Y14204445D01*
X32472705Y14147303D01*
X32415562Y14033017D01*
X32415562Y13861588D01*
X32472705Y13747303D01*
X32529848Y13690160D01*
X32644133Y13633017D01*
X33101276Y13633017D01*
X30301276Y13061588D02*
X30701276Y13633017D01*
X30986990Y13061588D02*
X30986990Y14261588D01*
X30529848Y14261588D01*
X30415562Y14204445D01*
X30358419Y14147303D01*
X30301276Y14033017D01*
X30301276Y13861588D01*
X30358419Y13747303D01*
X30415562Y13690160D01*
X30529848Y13633017D01*
X30986990Y13633017D01*
X29329848Y13118731D02*
X29444133Y13061588D01*
X29672705Y13061588D01*
X29786990Y13118731D01*
X29844133Y13233017D01*
X29844133Y13690160D01*
X29786990Y13804445D01*
X29672705Y13861588D01*
X29444133Y13861588D01*
X29329848Y13804445D01*
X29272705Y13690160D01*
X29272705Y13575874D01*
X29844133Y13461588D01*
X28244133Y13118731D02*
X28358419Y13061588D01*
X28586990Y13061588D01*
X28701276Y13118731D01*
X28758419Y13175874D01*
X28815562Y13290160D01*
X28815562Y13633017D01*
X28758419Y13747303D01*
X28701276Y13804445D01*
X28586990Y13861588D01*
X28358419Y13861588D01*
X28244133Y13804445D01*
X27272705Y13118731D02*
X27386990Y13061588D01*
X27615562Y13061588D01*
X27729848Y13118731D01*
X27786990Y13233017D01*
X27786990Y13690160D01*
X27729848Y13804445D01*
X27615562Y13861588D01*
X27386990Y13861588D01*
X27272705Y13804445D01*
X27215562Y13690160D01*
X27215562Y13575874D01*
X27786990Y13461588D01*
X26701276Y13061588D02*
X26701276Y13861588D01*
X26701276Y14261588D02*
X26758419Y14204445D01*
X26701276Y14147303D01*
X26644133Y14204445D01*
X26701276Y14261588D01*
X26701276Y14147303D01*
X26244133Y13861588D02*
X25958419Y13061588D01*
X25672705Y13861588D01*
X24758419Y13118731D02*
X24872705Y13061588D01*
X25101276Y13061588D01*
X25215562Y13118731D01*
X25272705Y13233017D01*
X25272705Y13690160D01*
X25215562Y13804445D01*
X25101276Y13861588D01*
X24872705Y13861588D01*
X24758419Y13804445D01*
X24701276Y13690160D01*
X24701276Y13575874D01*
X25272705Y13461588D01*
X24186990Y13061588D02*
X24186990Y13861588D01*
X24186990Y13633017D02*
X24129848Y13747303D01*
X24072705Y13804445D01*
X23958419Y13861588D01*
X23844133Y13861588D01*
X22529848Y13061588D02*
X22529848Y14261588D01*
X22072705Y14261588D01*
X21958419Y14204445D01*
X21901276Y14147303D01*
X21844133Y14033017D01*
X21844133Y13861588D01*
X21901276Y13747303D01*
X21958419Y13690160D01*
X22072705Y13633017D01*
X22529848Y13633017D01*
X20815562Y13061588D02*
X20815562Y13690160D01*
X20872705Y13804445D01*
X20986990Y13861588D01*
X21215562Y13861588D01*
X21329848Y13804445D01*
X20815562Y13118731D02*
X20929848Y13061588D01*
X21215562Y13061588D01*
X21329848Y13118731D01*
X21386990Y13233017D01*
X21386990Y13347303D01*
X21329848Y13461588D01*
X21215562Y13518731D01*
X20929848Y13518731D01*
X20815562Y13575874D01*
X20244133Y13061588D02*
X20244133Y13861588D01*
X20244133Y13633017D02*
X20186990Y13747303D01*
X20129848Y13804445D01*
X20015562Y13861588D01*
X19901276Y13861588D01*
X19672705Y13861588D02*
X19215562Y13861588D01*
X19501276Y14261588D02*
X19501276Y13233017D01*
X19444133Y13118731D01*
X19329848Y13061588D01*
X19215562Y13061588D01*
D12*
X14642514Y48458065D02*
X14642514Y49458065D01*
X14337752Y49458065D01*
X14261562Y49410445D01*
X14223467Y49362826D01*
X14185371Y49267588D01*
X14185371Y49124731D01*
X14223467Y49029493D01*
X14261562Y48981874D01*
X14337752Y48934255D01*
X14642514Y48934255D01*
X13918705Y49458065D02*
X13728228Y48458065D01*
X13575848Y49172350D01*
X13423467Y48458065D01*
X13232990Y49458065D01*
X12471086Y48458065D02*
X12737752Y48934255D01*
X12928228Y48458065D02*
X12928228Y49458065D01*
X12623467Y49458065D01*
X12547276Y49410445D01*
X12509181Y49362826D01*
X12471086Y49267588D01*
X12471086Y49124731D01*
X12509181Y49029493D01*
X12547276Y48981874D01*
X12623467Y48934255D01*
X12928228Y48934255D01*
D10*
X10273752Y18041445D02*
X10368990Y18089065D01*
X10511848Y18089065D01*
X10654705Y18041445D01*
X10749943Y17946207D01*
X10797562Y17850969D01*
X10845181Y17660493D01*
X10845181Y17517636D01*
X10797562Y17327160D01*
X10749943Y17231922D01*
X10654705Y17136684D01*
X10511848Y17089065D01*
X10416609Y17089065D01*
X10273752Y17136684D01*
X10226133Y17184303D01*
X10226133Y17517636D01*
X10416609Y17517636D01*
X9797562Y17089065D02*
X9797562Y18089065D01*
X9226133Y17089065D01*
X9226133Y18089065D01*
X8749943Y17089065D02*
X8749943Y18089065D01*
X8511848Y18089065D01*
X8368990Y18041445D01*
X8273752Y17946207D01*
X8226133Y17850969D01*
X8178514Y17660493D01*
X8178514Y17517636D01*
X8226133Y17327160D01*
X8273752Y17231922D01*
X8368990Y17136684D01*
X8511848Y17089065D01*
X8749943Y17089065D01*
X48308828Y37620026D02*
X49308828Y37286693D01*
X48308828Y36953360D01*
X48927876Y36620026D02*
X48927876Y35858122D01*
X49308828Y36239074D02*
X48546924Y36239074D01*
X5378038Y25980674D02*
X5339943Y26094960D01*
X5339943Y26285436D01*
X5378038Y26361626D01*
X5416133Y26399722D01*
X5492324Y26437817D01*
X5568514Y26437817D01*
X5644705Y26399722D01*
X5682800Y26361626D01*
X5720895Y26285436D01*
X5758990Y26133055D01*
X5797086Y26056865D01*
X5835181Y26018769D01*
X5911371Y25980674D01*
X5987562Y25980674D01*
X6063752Y26018769D01*
X6101848Y26056865D01*
X6139943Y26133055D01*
X6139943Y26323531D01*
X6101848Y26437817D01*
X5339943Y27237817D02*
X5720895Y26971150D01*
X5339943Y26780674D02*
X6139943Y26780674D01*
X6139943Y27085436D01*
X6101848Y27161626D01*
X6063752Y27199722D01*
X5987562Y27237817D01*
X5873276Y27237817D01*
X5797086Y27199722D01*
X5758990Y27161626D01*
X5720895Y27085436D01*
X5720895Y26780674D01*
X6139943Y31841741D02*
X5339943Y32108407D01*
X6139943Y32375074D01*
X5644705Y32641741D02*
X5644705Y33251265D01*
X5339943Y32946503D02*
X5949467Y32946503D01*
X5466943Y9013445D02*
X6266943Y9013445D01*
X5466943Y9851541D02*
X5847895Y9584874D01*
X5466943Y9394398D02*
X6266943Y9394398D01*
X6266943Y9699160D01*
X6228848Y9775350D01*
X6190752Y9813445D01*
X6114562Y9851541D01*
X6000276Y9851541D01*
X5924086Y9813445D01*
X5885990Y9775350D01*
X5847895Y9699160D01*
X5847895Y9394398D01*
X5466943Y5324065D02*
X5466943Y4943112D01*
X6266943Y4943112D01*
X5466943Y6047874D02*
X5847895Y5781207D01*
X5466943Y5590731D02*
X6266943Y5590731D01*
X6266943Y5895493D01*
X6228848Y5971684D01*
X6190752Y6009779D01*
X6114562Y6047874D01*
X6000276Y6047874D01*
X5924086Y6009779D01*
X5885990Y5971684D01*
X5847895Y5895493D01*
X5847895Y5590731D01*
X31093990Y55352588D02*
X31093990Y56552588D01*
X30693990Y55695445D01*
X30293990Y56552588D01*
X30293990Y55352588D01*
X29551133Y55352588D02*
X29665419Y55409731D01*
X29722562Y55466874D01*
X29779705Y55581160D01*
X29779705Y55924017D01*
X29722562Y56038303D01*
X29665419Y56095445D01*
X29551133Y56152588D01*
X29379705Y56152588D01*
X29265419Y56095445D01*
X29208276Y56038303D01*
X29151133Y55924017D01*
X29151133Y55581160D01*
X29208276Y55466874D01*
X29265419Y55409731D01*
X29379705Y55352588D01*
X29551133Y55352588D01*
X28636848Y56152588D02*
X28636848Y55352588D01*
X28636848Y56038303D02*
X28579705Y56095445D01*
X28465419Y56152588D01*
X28293990Y56152588D01*
X28179705Y56095445D01*
X28122562Y55981160D01*
X28122562Y55352588D01*
X27551133Y55352588D02*
X27551133Y56152588D01*
X27551133Y56552588D02*
X27608276Y56495445D01*
X27551133Y56438303D01*
X27493990Y56495445D01*
X27551133Y56552588D01*
X27551133Y56438303D01*
X27151133Y56152588D02*
X26693990Y56152588D01*
X26979705Y56552588D02*
X26979705Y55524017D01*
X26922562Y55409731D01*
X26808276Y55352588D01*
X26693990Y55352588D01*
X26122562Y55352588D02*
X26236848Y55409731D01*
X26293990Y55466874D01*
X26351133Y55581160D01*
X26351133Y55924017D01*
X26293990Y56038303D01*
X26236848Y56095445D01*
X26122562Y56152588D01*
X25951133Y56152588D01*
X25836848Y56095445D01*
X25779705Y56038303D01*
X25722562Y55924017D01*
X25722562Y55581160D01*
X25779705Y55466874D01*
X25836848Y55409731D01*
X25951133Y55352588D01*
X26122562Y55352588D01*
X25208276Y55352588D02*
X25208276Y56152588D01*
X25208276Y55924017D02*
X25151133Y56038303D01*
X25093990Y56095445D01*
X24979705Y56152588D01*
X24865419Y56152588D01*
X23322562Y56552588D02*
X23093990Y56552588D01*
X22979705Y56495445D01*
X22865419Y56381160D01*
X22808276Y56152588D01*
X22808276Y55752588D01*
X22865419Y55524017D01*
X22979705Y55409731D01*
X23093990Y55352588D01*
X23322562Y55352588D01*
X23436848Y55409731D01*
X23551133Y55524017D01*
X23608276Y55752588D01*
X23608276Y56152588D01*
X23551133Y56381160D01*
X23436848Y56495445D01*
X23322562Y56552588D01*
X22351133Y55409731D02*
X22179705Y55352588D01*
X21893990Y55352588D01*
X21779705Y55409731D01*
X21722562Y55466874D01*
X21665419Y55581160D01*
X21665419Y55695445D01*
X21722562Y55809731D01*
X21779705Y55866874D01*
X21893990Y55924017D01*
X22122562Y55981160D01*
X22236848Y56038303D01*
X22293990Y56095445D01*
X22351133Y56209731D01*
X22351133Y56324017D01*
X22293990Y56438303D01*
X22236848Y56495445D01*
X22122562Y56552588D01*
X21836848Y56552588D01*
X21665419Y56495445D01*
X21151133Y55352588D02*
X21151133Y56552588D01*
X20865419Y56552588D01*
X20693990Y56495445D01*
X20579705Y56381160D01*
X20522562Y56266874D01*
X20465419Y56038303D01*
X20465419Y55866874D01*
X20522562Y55638303D01*
X20579705Y55524017D01*
X20693990Y55409731D01*
X20865419Y55352588D01*
X21151133Y55352588D01*
X18351133Y55466874D02*
X18408276Y55409731D01*
X18579705Y55352588D01*
X18693990Y55352588D01*
X18865419Y55409731D01*
X18979705Y55524017D01*
X19036848Y55638303D01*
X19093990Y55866874D01*
X19093990Y56038303D01*
X19036848Y56266874D01*
X18979705Y56381160D01*
X18865419Y56495445D01*
X18693990Y56552588D01*
X18579705Y56552588D01*
X18408276Y56495445D01*
X18351133Y56438303D01*
X17665419Y55352588D02*
X17779705Y55409731D01*
X17836848Y55466874D01*
X17893990Y55581160D01*
X17893990Y55924017D01*
X17836848Y56038303D01*
X17779705Y56095445D01*
X17665419Y56152588D01*
X17493990Y56152588D01*
X17379705Y56095445D01*
X17322562Y56038303D01*
X17265419Y55924017D01*
X17265419Y55581160D01*
X17322562Y55466874D01*
X17379705Y55409731D01*
X17493990Y55352588D01*
X17665419Y55352588D01*
X16751133Y56152588D02*
X16751133Y55352588D01*
X16751133Y56038303D02*
X16693990Y56095445D01*
X16579705Y56152588D01*
X16408276Y56152588D01*
X16293990Y56095445D01*
X16236848Y55981160D01*
X16236848Y55352588D01*
X15836848Y56152588D02*
X15379705Y56152588D01*
X15665419Y56552588D02*
X15665419Y55524017D01*
X15608276Y55409731D01*
X15493990Y55352588D01*
X15379705Y55352588D01*
X14979705Y55352588D02*
X14979705Y56152588D01*
X14979705Y55924017D02*
X14922562Y56038303D01*
X14865419Y56095445D01*
X14751133Y56152588D01*
X14636848Y56152588D01*
X14065419Y55352588D02*
X14179705Y55409731D01*
X14236848Y55466874D01*
X14293990Y55581160D01*
X14293990Y55924017D01*
X14236848Y56038303D01*
X14179705Y56095445D01*
X14065419Y56152588D01*
X13893990Y56152588D01*
X13779705Y56095445D01*
X13722562Y56038303D01*
X13665419Y55924017D01*
X13665419Y55581160D01*
X13722562Y55466874D01*
X13779705Y55409731D01*
X13893990Y55352588D01*
X14065419Y55352588D01*
X12979705Y55352588D02*
X13093990Y55409731D01*
X13151133Y55524017D01*
X13151133Y56552588D01*
X11208276Y55981160D02*
X11036848Y55924017D01*
X10979705Y55866874D01*
X10922562Y55752588D01*
X10922562Y55581160D01*
X10979705Y55466874D01*
X11036848Y55409731D01*
X11151133Y55352588D01*
X11608276Y55352588D01*
X11608276Y56552588D01*
X11208276Y56552588D01*
X11093990Y56495445D01*
X11036848Y56438303D01*
X10979705Y56324017D01*
X10979705Y56209731D01*
X11036848Y56095445D01*
X11093990Y56038303D01*
X11208276Y55981160D01*
X11608276Y55981160D01*
X10236848Y55352588D02*
X10351133Y55409731D01*
X10408276Y55466874D01*
X10465419Y55581160D01*
X10465419Y55924017D01*
X10408276Y56038303D01*
X10351133Y56095445D01*
X10236848Y56152588D01*
X10065419Y56152588D01*
X9951133Y56095445D01*
X9893990Y56038303D01*
X9836848Y55924017D01*
X9836848Y55581160D01*
X9893990Y55466874D01*
X9951133Y55409731D01*
X10065419Y55352588D01*
X10236848Y55352588D01*
X8808276Y55352588D02*
X8808276Y55981160D01*
X8865419Y56095445D01*
X8979705Y56152588D01*
X9208276Y56152588D01*
X9322562Y56095445D01*
X8808276Y55409731D02*
X8922562Y55352588D01*
X9208276Y55352588D01*
X9322562Y55409731D01*
X9379705Y55524017D01*
X9379705Y55638303D01*
X9322562Y55752588D01*
X9208276Y55809731D01*
X8922562Y55809731D01*
X8808276Y55866874D01*
X8236848Y55352588D02*
X8236848Y56152588D01*
X8236848Y55924017D02*
X8179705Y56038303D01*
X8122562Y56095445D01*
X8008276Y56152588D01*
X7893990Y56152588D01*
X6979705Y55352588D02*
X6979705Y56552588D01*
X6979705Y55409731D02*
X7093990Y55352588D01*
X7322562Y55352588D01*
X7436848Y55409731D01*
X7493990Y55466874D01*
X7551133Y55581160D01*
X7551133Y55924017D01*
X7493990Y56038303D01*
X7436848Y56095445D01*
X7322562Y56152588D01*
X7093990Y56152588D01*
X6979705Y56095445D01*
X48381848Y26245741D02*
X48334228Y26340979D01*
X48334228Y26483836D01*
X48381848Y26626693D01*
X48477086Y26721931D01*
X48572324Y26769550D01*
X48762800Y26817169D01*
X48905657Y26817169D01*
X49096133Y26769550D01*
X49191371Y26721931D01*
X49286609Y26626693D01*
X49334228Y26483836D01*
X49334228Y26388598D01*
X49286609Y26245741D01*
X49238990Y26198122D01*
X48905657Y26198122D01*
X48905657Y26388598D01*
X5339943Y37931379D02*
X6139943Y37931379D01*
X6139943Y38236141D01*
X6101848Y38312331D01*
X6063752Y38350426D01*
X5987562Y38388522D01*
X5873276Y38388522D01*
X5797086Y38350426D01*
X5758990Y38312331D01*
X5720895Y38236141D01*
X5720895Y37931379D01*
X6139943Y38655188D02*
X5339943Y38845665D01*
X5911371Y38998045D01*
X5339943Y39150426D01*
X6139943Y39340903D01*
X23634228Y4009541D02*
X24015181Y4009541D01*
X24053276Y3628588D01*
X24015181Y3666684D01*
X23938990Y3704779D01*
X23748514Y3704779D01*
X23672324Y3666684D01*
X23634228Y3628588D01*
X23596133Y3552398D01*
X23596133Y3361922D01*
X23634228Y3285731D01*
X23672324Y3247636D01*
X23748514Y3209541D01*
X23938990Y3209541D01*
X24015181Y3247636D01*
X24053276Y3285731D01*
X23367562Y4009541D02*
X23100895Y3209541D01*
X22834228Y4009541D01*
X49334228Y29880979D02*
X48334228Y29880979D01*
X48334228Y29500026D01*
X48381848Y29404788D01*
X48429467Y29357169D01*
X48524705Y29309550D01*
X48667562Y29309550D01*
X48762800Y29357169D01*
X48810419Y29404788D01*
X48858038Y29500026D01*
X48858038Y29880979D01*
X48334228Y28976217D02*
X49334228Y28738122D01*
X48619943Y28547645D01*
X49334228Y28357169D01*
X48334228Y28119074D01*
X48308828Y35105426D02*
X49308828Y34772093D01*
X48308828Y34438760D01*
X48927876Y34105426D02*
X48927876Y33343522D01*
X5466943Y7229065D02*
X5466943Y6848112D01*
X6266943Y6848112D01*
X6228848Y7914779D02*
X6266943Y7838588D01*
X6266943Y7724303D01*
X6228848Y7610017D01*
X6152657Y7533826D01*
X6076467Y7495731D01*
X5924086Y7457636D01*
X5809800Y7457636D01*
X5657419Y7495731D01*
X5581228Y7533826D01*
X5505038Y7610017D01*
X5466943Y7724303D01*
X5466943Y7800493D01*
X5505038Y7914779D01*
X5543133Y7952874D01*
X5809800Y7952874D01*
X5809800Y7800493D01*
X49308828Y39494950D02*
X48308828Y39494950D01*
X48308828Y39256855D01*
X48356448Y39113998D01*
X48451686Y39018760D01*
X48546924Y38971141D01*
X48737400Y38923522D01*
X48880257Y38923522D01*
X49070733Y38971141D01*
X49165971Y39018760D01*
X49261209Y39113998D01*
X49308828Y39256855D01*
X49308828Y39494950D01*
X48308828Y42058760D02*
X49118352Y42058760D01*
X49213590Y42011141D01*
X49261209Y41963522D01*
X49308828Y41868284D01*
X49308828Y41677807D01*
X49261209Y41582569D01*
X49213590Y41534950D01*
X49118352Y41487331D01*
X48308828Y41487331D01*
X6101848Y40788769D02*
X6139943Y40712579D01*
X6139943Y40598293D01*
X6101848Y40484007D01*
X6025657Y40407817D01*
X5949467Y40369722D01*
X5797086Y40331626D01*
X5682800Y40331626D01*
X5530419Y40369722D01*
X5454228Y40407817D01*
X5378038Y40484007D01*
X5339943Y40598293D01*
X5339943Y40674484D01*
X5378038Y40788769D01*
X5416133Y40826865D01*
X5682800Y40826865D01*
X5682800Y40674484D01*
X48229448Y46616541D02*
X48181828Y46711779D01*
X48181828Y46854636D01*
X48229448Y46997493D01*
X48324686Y47092731D01*
X48419924Y47140350D01*
X48610400Y47187969D01*
X48753257Y47187969D01*
X48943733Y47140350D01*
X49038971Y47092731D01*
X49134209Y46997493D01*
X49181828Y46854636D01*
X49181828Y46759398D01*
X49134209Y46616541D01*
X49086590Y46568922D01*
X48753257Y46568922D01*
X48753257Y46759398D01*
X16261848Y3209541D02*
X16261848Y4009541D01*
X15423752Y3209541D02*
X15690419Y3590493D01*
X15880895Y3209541D02*
X15880895Y4009541D01*
X15576133Y4009541D01*
X15499943Y3971445D01*
X15461848Y3933350D01*
X15423752Y3857160D01*
X15423752Y3742874D01*
X15461848Y3666684D01*
X15499943Y3628588D01*
X15576133Y3590493D01*
X15880895Y3590493D01*
X6228848Y11654969D02*
X6266943Y11578779D01*
X6266943Y11464493D01*
X6228848Y11350207D01*
X6152657Y11274017D01*
X6076467Y11235922D01*
X5924086Y11197826D01*
X5809800Y11197826D01*
X5657419Y11235922D01*
X5581228Y11274017D01*
X5505038Y11350207D01*
X5466943Y11464493D01*
X5466943Y11540684D01*
X5505038Y11654969D01*
X5543133Y11693065D01*
X5809800Y11693065D01*
X5809800Y11540684D01*
X49334228Y31920979D02*
X48334228Y31920979D01*
X49048514Y31587645D01*
X48334228Y31254312D01*
X49334228Y31254312D01*
X6139943Y33822941D02*
X5339943Y34089607D01*
X6139943Y34356274D01*
X5644705Y34622941D02*
X5644705Y35232465D01*
D11*
X40242390Y36181788D02*
X39842390Y34981788D01*
X39442390Y36181788D01*
X38813819Y36181788D02*
X38585248Y36181788D01*
X38470962Y36124645D01*
X38356676Y36010360D01*
X38299533Y35781788D01*
X38299533Y35381788D01*
X38356676Y35153217D01*
X38470962Y35038931D01*
X38585248Y34981788D01*
X38813819Y34981788D01*
X38928105Y35038931D01*
X39042390Y35153217D01*
X39099533Y35381788D01*
X39099533Y35781788D01*
X39042390Y36010360D01*
X38928105Y36124645D01*
X38813819Y36181788D01*
X37213819Y34981788D02*
X37785248Y34981788D01*
X37785248Y36181788D01*
X36813819Y35438931D02*
X35899533Y35438931D01*
X36356676Y34981788D02*
X36356676Y35896074D01*
X27313790Y21951588D02*
X27313790Y23151588D01*
X27028076Y23151588D01*
X26856648Y23094445D01*
X26742362Y22980160D01*
X26685219Y22865874D01*
X26628076Y22637303D01*
X26628076Y22465874D01*
X26685219Y22237303D01*
X26742362Y22123017D01*
X26856648Y22008731D01*
X27028076Y21951588D01*
X27313790Y21951588D01*
X25885219Y23151588D02*
X25656648Y23151588D01*
X25542362Y23094445D01*
X25428076Y22980160D01*
X25370933Y22751588D01*
X25370933Y22351588D01*
X25428076Y22123017D01*
X25542362Y22008731D01*
X25656648Y21951588D01*
X25885219Y21951588D01*
X25999505Y22008731D01*
X26113790Y22123017D01*
X26170933Y22351588D01*
X26170933Y22751588D01*
X26113790Y22980160D01*
X25999505Y23094445D01*
X25885219Y23151588D01*
X24970933Y23151588D02*
X24685219Y21951588D01*
X24456648Y22808731D01*
X24228076Y21951588D01*
X23942362Y23151588D01*
X23485219Y21951588D02*
X23485219Y23151588D01*
X22799505Y21951588D01*
X22799505Y23151588D01*
D10*
X18554228Y3209541D02*
X18935181Y3209541D01*
X18935181Y4009541D01*
X17868514Y3971445D02*
X17944705Y4009541D01*
X18058990Y4009541D01*
X18173276Y3971445D01*
X18249467Y3895255D01*
X18287562Y3819065D01*
X18325657Y3666684D01*
X18325657Y3552398D01*
X18287562Y3400017D01*
X18249467Y3323826D01*
X18173276Y3247636D01*
X18058990Y3209541D01*
X17982800Y3209541D01*
X17868514Y3247636D01*
X17830419Y3285731D01*
X17830419Y3552398D01*
X17982800Y3552398D01*
X5339943Y36299379D02*
X6139943Y36299379D01*
X5568514Y36566045D01*
X6139943Y36832712D01*
X5339943Y36832712D01*
D12*
X9105371Y47378445D02*
X9181562Y47426065D01*
X9295848Y47426065D01*
X9410133Y47378445D01*
X9486324Y47283207D01*
X9524419Y47187969D01*
X9562514Y46997493D01*
X9562514Y46854636D01*
X9524419Y46664160D01*
X9486324Y46568922D01*
X9410133Y46473684D01*
X9295848Y46426065D01*
X9219657Y46426065D01*
X9105371Y46473684D01*
X9067276Y46521303D01*
X9067276Y46854636D01*
X9219657Y46854636D01*
X8724419Y46426065D02*
X8724419Y47426065D01*
X8267276Y46426065D01*
X8267276Y47426065D01*
X7886324Y46426065D02*
X7886324Y47426065D01*
X7695848Y47426065D01*
X7581562Y47378445D01*
X7505371Y47283207D01*
X7467276Y47187969D01*
X7429181Y46997493D01*
X7429181Y46854636D01*
X7467276Y46664160D01*
X7505371Y46568922D01*
X7581562Y46473684D01*
X7695848Y46426065D01*
X7886324Y46426065D01*
D10*
X21094228Y3209541D02*
X21475181Y3209541D01*
X21475181Y4009541D01*
X20370419Y3209541D02*
X20637086Y3590493D01*
X20827562Y3209541D02*
X20827562Y4009541D01*
X20522800Y4009541D01*
X20446609Y3971445D01*
X20408514Y3933350D01*
X20370419Y3857160D01*
X20370419Y3742874D01*
X20408514Y3666684D01*
X20446609Y3628588D01*
X20522800Y3590493D01*
X20827562Y3590493D01*
X49123209Y45098760D02*
X49170828Y44955903D01*
X49170828Y44717807D01*
X49123209Y44622569D01*
X49075590Y44574950D01*
X48980352Y44527331D01*
X48885114Y44527331D01*
X48789876Y44574950D01*
X48742257Y44622569D01*
X48694638Y44717807D01*
X48647019Y44908284D01*
X48599400Y45003522D01*
X48551781Y45051141D01*
X48456543Y45098760D01*
X48361305Y45098760D01*
X48266067Y45051141D01*
X48218448Y45003522D01*
X48170828Y44908284D01*
X48170828Y44670188D01*
X48218448Y44527331D01*
X49170828Y43527331D02*
X48694638Y43860665D01*
X49170828Y44098760D02*
X48170828Y44098760D01*
X48170828Y43717807D01*
X48218448Y43622569D01*
X48266067Y43574950D01*
X48361305Y43527331D01*
X48504162Y43527331D01*
X48599400Y43574950D01*
X48647019Y43622569D01*
X48694638Y43717807D01*
X48694638Y44098760D01*
D11*
X42763276Y12248788D02*
X42763276Y13448788D01*
X42306133Y13448788D01*
X42191848Y13391645D01*
X42134705Y13334503D01*
X42077562Y13220217D01*
X42077562Y13048788D01*
X42134705Y12934503D01*
X42191848Y12877360D01*
X42306133Y12820217D01*
X42763276Y12820217D01*
X41334705Y13448788D02*
X41106133Y13448788D01*
X40991848Y13391645D01*
X40877562Y13277360D01*
X40820419Y13048788D01*
X40820419Y12648788D01*
X40877562Y12420217D01*
X40991848Y12305931D01*
X41106133Y12248788D01*
X41334705Y12248788D01*
X41448990Y12305931D01*
X41563276Y12420217D01*
X41620419Y12648788D01*
X41620419Y13048788D01*
X41563276Y13277360D01*
X41448990Y13391645D01*
X41334705Y13448788D01*
X40420419Y13448788D02*
X40134705Y12248788D01*
X39906133Y13105931D01*
X39677562Y12248788D01*
X39391848Y13448788D01*
X38934705Y12877360D02*
X38534705Y12877360D01*
X38363276Y12248788D02*
X38934705Y12248788D01*
X38934705Y13448788D01*
X38363276Y13448788D01*
X37163276Y12248788D02*
X37563276Y12820217D01*
X37848990Y12248788D02*
X37848990Y13448788D01*
X37391848Y13448788D01*
X37277562Y13391645D01*
X37220419Y13334503D01*
X37163276Y13220217D01*
X37163276Y13048788D01*
X37220419Y12934503D01*
X37277562Y12877360D01*
X37391848Y12820217D01*
X37848990Y12820217D01*
X26966181Y34905588D02*
X26966181Y36105588D01*
X26632848Y35248445D01*
X26299514Y36105588D01*
X26299514Y34905588D01*
X25823324Y35534160D02*
X25489990Y35534160D01*
X25347133Y34905588D02*
X25823324Y34905588D01*
X25823324Y36105588D01*
X25347133Y36105588D01*
X24918562Y34905588D02*
X24918562Y36105588D01*
X24347133Y34905588D01*
X24347133Y36105588D01*
X23870943Y36105588D02*
X23870943Y35134160D01*
X23823324Y35019874D01*
X23775705Y34962731D01*
X23680467Y34905588D01*
X23489990Y34905588D01*
X23394752Y34962731D01*
X23347133Y35019874D01*
X23299514Y35134160D01*
X23299514Y36105588D01*
D10*
%TO.C,J4*%
X25831314Y2104541D02*
X25831314Y1533112D01*
X25869409Y1418826D01*
X25945600Y1342636D01*
X26059886Y1304541D01*
X26136076Y1304541D01*
X25107505Y1837874D02*
X25107505Y1304541D01*
X25297981Y2142636D02*
X25488457Y1571207D01*
X24993219Y1571207D01*
%TO.C,J1*%
X838352Y32885112D02*
X1409781Y32885112D01*
X1524067Y32923207D01*
X1600257Y32999398D01*
X1638352Y33113684D01*
X1638352Y33189874D01*
X1638352Y32085112D02*
X1638352Y32542255D01*
X1638352Y32313684D02*
X838352Y32313684D01*
X952638Y32389874D01*
X1028828Y32466065D01*
X1066924Y32542255D01*
%TO.C,J2*%
X46106952Y49424312D02*
X46678381Y49424312D01*
X46792667Y49462407D01*
X46868857Y49538598D01*
X46906952Y49652884D01*
X46906952Y49729074D01*
X46183143Y49081455D02*
X46145048Y49043360D01*
X46106952Y48967169D01*
X46106952Y48776693D01*
X46145048Y48700503D01*
X46183143Y48662407D01*
X46259333Y48624312D01*
X46335524Y48624312D01*
X46449809Y48662407D01*
X46906952Y49119550D01*
X46906952Y48624312D01*
%TO.C,J3*%
X1402952Y7724312D02*
X1974381Y7724312D01*
X2088667Y7762407D01*
X2164857Y7838598D01*
X2202952Y7952884D01*
X2202952Y8029074D01*
X1402952Y7419550D02*
X1402952Y6924312D01*
X1707714Y7190979D01*
X1707714Y7076693D01*
X1745809Y7000503D01*
X1783905Y6962407D01*
X1860095Y6924312D01*
X2050571Y6924312D01*
X2126762Y6962407D01*
X2164857Y7000503D01*
X2202952Y7076693D01*
X2202952Y7305265D01*
X2164857Y7381455D01*
X2126762Y7419550D01*
D13*
%TO.C,J4*%
X22211848Y336445D02*
X11991848Y336445D01*
X24811848Y336445D02*
X24811848Y1666445D01*
X22211848Y2996445D02*
X11991848Y2996445D01*
X11991848Y336445D02*
X11991848Y2996445D01*
X23481848Y336445D02*
X24811848Y336445D01*
X22211848Y336445D02*
X22211848Y2996445D01*
%TO.C,J1*%
X3701848Y23758445D02*
X3701848Y23478445D01*
X-258152Y24318445D02*
X1341848Y24318445D01*
X-258152Y23818445D02*
X-2518152Y23818445D01*
X3701848Y23478445D02*
X5301848Y23478445D01*
X1341848Y40918445D02*
X1341848Y41918445D01*
X3701848Y42678445D02*
X3701848Y41758445D01*
X-258152Y41918445D02*
X-258152Y40918445D01*
X3701848Y41758445D02*
X3701848Y41478445D01*
X-258152Y24318445D02*
X-2518152Y24318445D01*
X-2518152Y22558445D02*
X-2518152Y42678445D01*
X5301848Y22558445D02*
X-2518152Y22558445D01*
X3701848Y22558445D02*
X3701848Y23478445D01*
X5301848Y42678445D02*
X5301848Y41758445D01*
X1841848Y25118445D02*
X1841848Y40118445D01*
X3701848Y23758445D02*
X4916848Y23758445D01*
X-2518152Y25118445D02*
X1841848Y25118445D01*
X-258152Y23318445D02*
X-258152Y24318445D01*
X5301848Y41758445D02*
X3701848Y41758445D01*
X1841848Y40118445D02*
X-2518152Y40118445D01*
X1341848Y24318445D02*
X1341848Y23318445D01*
X1341848Y41918445D02*
X-258152Y41918445D01*
X-258152Y40918445D02*
X1341848Y40918445D01*
X1341848Y23318445D02*
X-258152Y23318445D01*
X-2518152Y42678445D02*
X5301848Y42678445D01*
X5301848Y23478445D02*
X5301848Y22558445D01*
%TO.C,J2*%
X47875048Y45557645D02*
X47875048Y25177645D01*
X47875048Y48157645D02*
X46545048Y48157645D01*
X47875048Y45557645D02*
X45215048Y45557645D01*
X47875048Y25177645D02*
X45215048Y25177645D01*
X47875048Y46827645D02*
X47875048Y48157645D01*
X45215048Y45557645D02*
X45215048Y25177645D01*
%TO.C,J3*%
X-1941952Y3944445D02*
X2418048Y3944445D01*
X4278048Y12584445D02*
X4278048Y12304445D01*
X318048Y3144445D02*
X-1941952Y3144445D01*
X1918048Y11744445D02*
X1918048Y12744445D01*
X4278048Y2304445D02*
X5878048Y2304445D01*
X1918048Y3144445D02*
X1918048Y2144445D01*
X-1941952Y13504445D02*
X5878048Y13504445D01*
X-1941952Y1384445D02*
X-1941952Y13504445D01*
X2418048Y10944445D02*
X-1941952Y10944445D01*
X5878048Y2304445D02*
X5878048Y1384445D01*
X318048Y11744445D02*
X1918048Y11744445D01*
X2418048Y3944445D02*
X2418048Y10944445D01*
X5878048Y13504445D02*
X5878048Y12584445D01*
X4278048Y13504445D02*
X4278048Y12584445D01*
X318048Y3144445D02*
X1918048Y3144445D01*
X4278048Y1384445D02*
X4278048Y2304445D01*
X4278048Y2584445D02*
X5493048Y2584445D01*
X4278048Y2584445D02*
X4278048Y2304445D01*
X318048Y2144445D02*
X318048Y3144445D01*
X318048Y2644445D02*
X-1941952Y2644445D01*
X1918048Y2144445D02*
X318048Y2144445D01*
X5878048Y12584445D02*
X4278048Y12584445D01*
X1918048Y12744445D02*
X318048Y12744445D01*
X318048Y12744445D02*
X318048Y11744445D01*
X5878048Y1384445D02*
X-1941952Y1384445D01*
%TD*%
%LPC*%
D14*
%TO.C,TP3*%
X8495848Y48910445D03*
%TD*%
%TO.C,TP2*%
X5955848Y48910445D03*
%TD*%
%TO.C,TP1*%
X11035848Y48910445D03*
%TD*%
D15*
%TO.C,SW1*%
X9511848Y43288445D03*
X9511848Y30788445D03*
X14511848Y43288445D03*
X14511848Y30788445D03*
%TD*%
D16*
%TO.C,U1*%
X9384848Y9413445D03*
D17*
X9384848Y6873445D03*
X9384848Y4333445D03*
%TD*%
D18*
%TO.C,D2*%
X29704848Y2555445D03*
D17*
X29704848Y5095445D03*
X29704848Y7635445D03*
%TD*%
D19*
%TO.C,SW6*%
X37797848Y10262445D03*
X37797848Y3762445D03*
X42297848Y3762445D03*
X42297848Y10262445D03*
%TD*%
D15*
%TO.C,SW5*%
X40491848Y30798445D03*
X40491848Y43298445D03*
X35491848Y30798445D03*
X35491848Y43298445D03*
%TD*%
D20*
%TO.C,SW4*%
X18741848Y21508445D03*
X31241848Y21508445D03*
X18741848Y26508445D03*
X31241848Y26508445D03*
%TD*%
%TO.C,SW2*%
X31251848Y52488445D03*
X18751848Y52488445D03*
X31251848Y47488445D03*
X18751848Y47488445D03*
%TD*%
D19*
%TO.C,TP4*%
X9511848Y19700445D03*
%TD*%
D20*
%TO.C,SW3*%
X18751848Y39518445D03*
X31251848Y39518445D03*
X18751848Y34518445D03*
X31251848Y34518445D03*
%TD*%
D21*
%TO.C,J4*%
X23481848Y1666445D03*
D22*
X20941848Y1666445D03*
X18401848Y1666445D03*
X15861848Y1666445D03*
X13321848Y1666445D03*
%TD*%
D23*
%TO.C,J1*%
X3841848Y24618445D03*
D24*
X3841848Y26618445D03*
X3841848Y28618445D03*
X3841848Y30618445D03*
X3841848Y32618445D03*
X3841848Y34618445D03*
X3841848Y36618445D03*
X3841848Y38618445D03*
X3841848Y40618445D03*
%TD*%
D21*
%TO.C,J2*%
X46545048Y46827645D03*
D22*
X46545048Y44287645D03*
X46545048Y41747645D03*
X46545048Y39207645D03*
X46545048Y36667645D03*
X46545048Y34127645D03*
X46545048Y31587645D03*
X46545048Y29047645D03*
X46545048Y26507645D03*
%TD*%
D23*
%TO.C,J3*%
X4418048Y3444445D03*
D24*
X4418048Y5444445D03*
X4418048Y7444445D03*
X4418048Y9444445D03*
X4418048Y11444445D03*
%TD*%
M02*
