%TF.GenerationSoftware,KiCad,Pcbnew,(6.0.10)*%
%TF.CreationDate,2023-01-21T15:45:26+09:00*%
%TF.ProjectId,monitor_control_board,6d6f6e69-746f-4725-9f63-6f6e74726f6c,rev?*%
%TF.SameCoordinates,PX7ab4258PY723a4bd*%
%TF.FileFunction,Soldermask,Bot*%
%TF.FilePolarity,Negative*%
%FSLAX46Y46*%
G04 Gerber Fmt 4.6, Leading zero omitted, Abs format (unit mm)*
G04 Created by KiCad (PCBNEW (6.0.10)) date 2023-01-21 15:45:26*
%MOMM*%
%LPD*%
G01*
G04 APERTURE LIST*
G04 Aperture macros list*
%AMRoundRect*
0 Rectangle with rounded corners*
0 $1 Rounding radius*
0 $2 $3 $4 $5 $6 $7 $8 $9 X,Y pos of 4 corners*
0 Add a 4 corners polygon primitive as box body*
4,1,4,$2,$3,$4,$5,$6,$7,$8,$9,$2,$3,0*
0 Add four circle primitives for the rounded corners*
1,1,$1+$1,$2,$3*
1,1,$1+$1,$4,$5*
1,1,$1+$1,$6,$7*
1,1,$1+$1,$8,$9*
0 Add four rect primitives between the rounded corners*
20,1,$1+$1,$2,$3,$4,$5,0*
20,1,$1+$1,$4,$5,$6,$7,0*
20,1,$1+$1,$6,$7,$8,$9,0*
20,1,$1+$1,$8,$9,$2,$3,0*%
G04 Aperture macros list end*
%ADD10RoundRect,0.250000X0.625000X-0.350000X0.625000X0.350000X-0.625000X0.350000X-0.625000X-0.350000X0*%
%ADD11O,1.750000X1.200000*%
%ADD12O,1.700000X1.700000*%
%ADD13R,1.700000X1.700000*%
%ADD14O,1.850000X3.048000*%
%ADD15RoundRect,0.250200X-0.649800X0.649800X-0.649800X-0.649800X0.649800X-0.649800X0.649800X0.649800X0*%
%ADD16C,1.800000*%
%ADD17R,1.800000X1.800000*%
%ADD18C,2.000000*%
%ADD19O,3.048000X1.850000*%
G04 APERTURE END LIST*
D10*
%TO.C,J3*%
X4152448Y24602645D03*
D11*
X4152448Y26602645D03*
X4152448Y28602645D03*
X4152448Y30602645D03*
X4152448Y32602645D03*
X4152448Y34602645D03*
X4152448Y36602645D03*
X4152448Y38602645D03*
X4152448Y40602645D03*
%TD*%
D12*
%TO.C,J2*%
X46545048Y26355245D03*
X46545048Y28895245D03*
X46545048Y31435245D03*
X46545048Y33975245D03*
X46545048Y36515245D03*
X46545048Y39055245D03*
X46545048Y41595245D03*
X46545048Y44135245D03*
D13*
X46545048Y46675245D03*
%TD*%
D14*
%TO.C,SW1*%
X9811848Y43268445D03*
X9811848Y30768445D03*
X14811848Y43268445D03*
X14811848Y30768445D03*
%TD*%
D15*
%TO.C,U1*%
X9384848Y9413445D03*
D16*
X9384848Y6873445D03*
X9384848Y4333445D03*
%TD*%
D17*
%TO.C,D2*%
X29704848Y2555445D03*
D16*
X29704848Y5095445D03*
X29704848Y7635445D03*
%TD*%
D18*
%TO.C,SW6*%
X37797848Y10262445D03*
X37797848Y3762445D03*
X42297848Y3762445D03*
X42297848Y10262445D03*
%TD*%
%TO.C,TP1*%
X3415848Y49037445D03*
%TD*%
D14*
%TO.C,SW5*%
X40171848Y30778445D03*
X40171848Y43278445D03*
X35171848Y30778445D03*
X35171848Y43278445D03*
%TD*%
D18*
%TO.C,TP3*%
X3415848Y45735445D03*
%TD*%
%TO.C,TP2*%
X6209848Y47386445D03*
%TD*%
D19*
%TO.C,SW4*%
X18751848Y21808445D03*
X31251848Y21808445D03*
X18751848Y26808445D03*
X31251848Y26808445D03*
%TD*%
%TO.C,SW2*%
X31251848Y52178445D03*
X18751848Y52178445D03*
X31251848Y47178445D03*
X18751848Y47178445D03*
%TD*%
D18*
%TO.C,TP4*%
X9511848Y19700445D03*
%TD*%
D19*
%TO.C,SW3*%
X18751848Y39518445D03*
X31251848Y39518445D03*
X18751848Y34518445D03*
X31251848Y34518445D03*
%TD*%
D13*
%TO.C,J5*%
X23481848Y1666445D03*
D12*
X20941848Y1666445D03*
X18401848Y1666445D03*
X15861848Y1666445D03*
X13321848Y1666445D03*
%TD*%
D10*
%TO.C,J6*%
X4418048Y3444445D03*
D11*
X4418048Y5444445D03*
X4418048Y7444445D03*
X4418048Y9444445D03*
X4418048Y11444445D03*
%TD*%
M02*
