M48
; DRILL file {KiCad (6.0.10)} date Fri Jan 20 02:58:05 2023
; FORMAT={-:-/ absolute / inch / decimal}
; #@! TF.CreationDate,2023-01-20T02:58:05+09:00
; #@! TF.GenerationSoftware,Kicad,Pcbnew,(6.0.10)
; #@! TF.FileFunction,Plated,1,2,PTH
FMAT,2
INCH
; #@! TA.AperFunction,Plated,PTH,ViaDrill
T1C0.0157
; #@! TA.AperFunction,Plated,PTH,ComponentDrill
T2C0.0295
; #@! TA.AperFunction,Plated,PTH,ComponentDrill
T3C0.0354
; #@! TA.AperFunction,Plated,PTH,ComponentDrill
T4C0.0394
; #@! TA.AperFunction,Plated,PTH,ComponentDrill
T5C0.0433
; #@! TA.AperFunction,Plated,PTH,ComponentDrill
T6C0.0512
%
G90
G05
T1
X0.9745Y0.3856
X0.9745Y0.3406
T2
X0.1645Y1.5631
X0.1645Y1.4843
X0.1645Y1.4056
X0.1645Y1.3269
X0.1645Y1.2481
X0.1645Y1.1694
X0.1645Y1.0906
X0.1645Y1.0119
X0.1739Y0.4506
X0.1739Y0.3718
X0.1739Y0.2931
X0.1739Y0.2143
X0.1739Y0.1356
T3
X0.3695Y0.3706
X0.3695Y0.2706
X0.3695Y0.1706
X1.1695Y0.3006
X1.1695Y0.2006
X1.1695Y0.1006
T4
X0.1345Y1.9306
X0.1345Y1.8006
X0.2445Y1.8656
X0.3745Y0.7756
X0.5245Y0.0656
X0.6245Y0.0656
X0.7245Y0.0656
X0.8245Y0.0656
X0.9245Y0.0656
X1.8345Y1.685
X1.8345Y1.585
X1.8345Y1.485
X1.8345Y1.385
X1.8345Y1.285
X1.8345Y1.185
X1.8345Y1.085
X1.8345Y0.985
T5
X1.4881Y0.404
X1.4881Y0.1481
X1.6653Y0.404
X1.6653Y0.1481
T6
X0.3851Y1.7035
X0.3851Y1.2114
X0.582Y1.7035
X0.582Y1.2114
X0.7383Y1.5558
X0.7383Y1.359
X0.7387Y2.0543
X0.7387Y1.8574
X0.7387Y1.0555
X0.7387Y0.8586
X1.2304Y1.5558
X1.2304Y1.359
X1.2308Y2.0543
X1.2308Y1.8574
X1.2308Y1.0555
X1.2308Y0.8586
X1.3863Y1.7035
X1.3863Y1.2114
X1.5831Y1.7035
X1.5831Y1.2114
T0
M30
