%TF.GenerationSoftware,KiCad,Pcbnew,(6.0.10)*%
%TF.CreationDate,2023-01-29T19:54:13+09:00*%
%TF.ProjectId,monitor_control_board,6d6f6e69-746f-4725-9f63-6f6e74726f6c,4*%
%TF.SameCoordinates,PX7ab4258PY723a4bd*%
%TF.FileFunction,Soldermask,Bot*%
%TF.FilePolarity,Negative*%
%FSLAX46Y46*%
G04 Gerber Fmt 4.6, Leading zero omitted, Abs format (unit mm)*
G04 Created by KiCad (PCBNEW (6.0.10)) date 2023-01-29 19:54:13*
%MOMM*%
%LPD*%
G01*
G04 APERTURE LIST*
G04 Aperture macros list*
%AMRoundRect*
0 Rectangle with rounded corners*
0 $1 Rounding radius*
0 $2 $3 $4 $5 $6 $7 $8 $9 X,Y pos of 4 corners*
0 Add a 4 corners polygon primitive as box body*
4,1,4,$2,$3,$4,$5,$6,$7,$8,$9,$2,$3,0*
0 Add four circle primitives for the rounded corners*
1,1,$1+$1,$2,$3*
1,1,$1+$1,$4,$5*
1,1,$1+$1,$6,$7*
1,1,$1+$1,$8,$9*
0 Add four rect primitives between the rounded corners*
20,1,$1+$1,$2,$3,$4,$5,0*
20,1,$1+$1,$4,$5,$6,$7,0*
20,1,$1+$1,$6,$7,$8,$9,0*
20,1,$1+$1,$8,$9,$2,$3,0*%
G04 Aperture macros list end*
%ADD10O,1.850000X3.048000*%
%ADD11RoundRect,0.250200X-0.649800X0.649800X-0.649800X-0.649800X0.649800X-0.649800X0.649800X0.649800X0*%
%ADD12C,1.800000*%
%ADD13R,1.800000X1.800000*%
%ADD14C,2.000000*%
%ADD15O,3.048000X1.850000*%
%ADD16R,1.700000X1.700000*%
%ADD17O,1.700000X1.700000*%
%ADD18RoundRect,0.250000X0.625000X-0.350000X0.625000X0.350000X-0.625000X0.350000X-0.625000X-0.350000X0*%
%ADD19O,1.750000X1.200000*%
G04 APERTURE END LIST*
D10*
%TO.C,SW1*%
X9511848Y43288445D03*
X9511848Y30788445D03*
X14511848Y43288445D03*
X14511848Y30788445D03*
%TD*%
D11*
%TO.C,U1*%
X9384848Y9413445D03*
D12*
X9384848Y6873445D03*
X9384848Y4333445D03*
%TD*%
D13*
%TO.C,D2*%
X29704848Y2555445D03*
D12*
X29704848Y5095445D03*
X29704848Y7635445D03*
%TD*%
D14*
%TO.C,SW6*%
X37797848Y10262445D03*
X37797848Y3762445D03*
X42297848Y3762445D03*
X42297848Y10262445D03*
%TD*%
%TO.C,TP2*%
X4431848Y48910445D03*
%TD*%
D10*
%TO.C,SW5*%
X40491848Y30798445D03*
X40491848Y43298445D03*
X35491848Y30798445D03*
X35491848Y43298445D03*
%TD*%
D14*
%TO.C,TP1*%
X7733848Y48910445D03*
%TD*%
%TO.C,TP3*%
X11035848Y48910445D03*
%TD*%
D15*
%TO.C,SW4*%
X18741848Y21508445D03*
X31241848Y21508445D03*
X18741848Y26508445D03*
X31241848Y26508445D03*
%TD*%
%TO.C,SW2*%
X31251848Y52488445D03*
X18751848Y52488445D03*
X31251848Y47488445D03*
X18751848Y47488445D03*
%TD*%
D14*
%TO.C,TP4*%
X9511848Y19700445D03*
%TD*%
D15*
%TO.C,SW3*%
X18751848Y39518445D03*
X31251848Y39518445D03*
X18751848Y34518445D03*
X31251848Y34518445D03*
%TD*%
D16*
%TO.C,J4*%
X23481848Y1666445D03*
D17*
X20941848Y1666445D03*
X18401848Y1666445D03*
X15861848Y1666445D03*
X13321848Y1666445D03*
%TD*%
D18*
%TO.C,J1*%
X3841848Y24618445D03*
D19*
X3841848Y26618445D03*
X3841848Y28618445D03*
X3841848Y30618445D03*
X3841848Y32618445D03*
X3841848Y34618445D03*
X3841848Y36618445D03*
X3841848Y38618445D03*
X3841848Y40618445D03*
%TD*%
D16*
%TO.C,J2*%
X46545048Y46827645D03*
D17*
X46545048Y44287645D03*
X46545048Y41747645D03*
X46545048Y39207645D03*
X46545048Y36667645D03*
X46545048Y34127645D03*
X46545048Y31587645D03*
X46545048Y29047645D03*
X46545048Y26507645D03*
%TD*%
D18*
%TO.C,J3*%
X4418048Y3444445D03*
D19*
X4418048Y5444445D03*
X4418048Y7444445D03*
X4418048Y9444445D03*
X4418048Y11444445D03*
%TD*%
M02*
