%TF.GenerationSoftware,KiCad,Pcbnew,(6.0.10)*%
%TF.CreationDate,2023-01-19T00:21:36+09:00*%
%TF.ProjectId,monitor_control_board,6d6f6e69-746f-4725-9f63-6f6e74726f6c,rev?*%
%TF.SameCoordinates,PX7ab4257PY723a4bd*%
%TF.FileFunction,Legend,Bot*%
%TF.FilePolarity,Positive*%
%FSLAX46Y46*%
G04 Gerber Fmt 4.6, Leading zero omitted, Abs format (unit mm)*
G04 Created by KiCad (PCBNEW (6.0.10)) date 2023-01-19 00:21:36*
%MOMM*%
%LPD*%
G01*
G04 APERTURE LIST*
G04 Aperture macros list*
%AMRoundRect*
0 Rectangle with rounded corners*
0 $1 Rounding radius*
0 $2 $3 $4 $5 $6 $7 $8 $9 X,Y pos of 4 corners*
0 Add a 4 corners polygon primitive as box body*
4,1,4,$2,$3,$4,$5,$6,$7,$8,$9,$2,$3,0*
0 Add four circle primitives for the rounded corners*
1,1,$1+$1,$2,$3*
1,1,$1+$1,$4,$5*
1,1,$1+$1,$6,$7*
1,1,$1+$1,$8,$9*
0 Add four rect primitives between the rounded corners*
20,1,$1+$1,$2,$3,$4,$5,0*
20,1,$1+$1,$4,$5,$6,$7,0*
20,1,$1+$1,$6,$7,$8,$9,0*
20,1,$1+$1,$8,$9,$2,$3,0*%
G04 Aperture macros list end*
%ADD10C,0.150000*%
%ADD11C,0.200000*%
%ADD12C,0.120000*%
%ADD13O,1.850000X3.048000*%
%ADD14RoundRect,0.250200X-0.649800X0.649800X-0.649800X-0.649800X0.649800X-0.649800X0.649800X0.649800X0*%
%ADD15C,1.800000*%
%ADD16R,1.800000X1.800000*%
%ADD17C,2.000000*%
%ADD18O,3.048000X1.850000*%
%ADD19R,1.700000X1.700000*%
%ADD20O,1.700000X1.700000*%
%ADD21RoundRect,0.250000X0.625000X-0.350000X0.625000X0.350000X-0.625000X0.350000X-0.625000X-0.350000X0*%
%ADD22O,1.750000X1.200000*%
G04 APERTURE END LIST*
D10*
X6139944Y27472874D02*
X5492325Y27472874D01*
X5416134Y27510969D01*
X5378039Y27549065D01*
X5339944Y27625255D01*
X5339944Y27777636D01*
X5378039Y27853826D01*
X5416134Y27891922D01*
X5492325Y27930017D01*
X6139944Y27930017D01*
X6266944Y3292065D02*
X6266944Y2911112D01*
X5885991Y2873017D01*
X5924087Y2911112D01*
X5962182Y2987303D01*
X5962182Y3177779D01*
X5924087Y3253969D01*
X5885991Y3292065D01*
X5809801Y3330160D01*
X5619325Y3330160D01*
X5543134Y3292065D01*
X5505039Y3253969D01*
X5466944Y3177779D01*
X5466944Y2987303D01*
X5505039Y2911112D01*
X5543134Y2873017D01*
X6266944Y3558731D02*
X5466944Y3825398D01*
X6266944Y4092065D01*
D11*
X4444420Y50537684D02*
X4330134Y50490065D01*
X4139658Y50490065D01*
X4063468Y50537684D01*
X4025372Y50585303D01*
X3987277Y50680541D01*
X3987277Y50775779D01*
X4025372Y50871017D01*
X4063468Y50918636D01*
X4139658Y50966255D01*
X4292039Y51013874D01*
X4368229Y51061493D01*
X4406325Y51109112D01*
X4444420Y51204350D01*
X4444420Y51299588D01*
X4406325Y51394826D01*
X4368229Y51442445D01*
X4292039Y51490065D01*
X4101563Y51490065D01*
X3987277Y51442445D01*
X3187277Y50490065D02*
X3453944Y50966255D01*
X3644420Y50490065D02*
X3644420Y51490065D01*
X3339658Y51490065D01*
X3263468Y51442445D01*
X3225372Y51394826D01*
X3187277Y51299588D01*
X3187277Y51156731D01*
X3225372Y51061493D01*
X3263468Y51013874D01*
X3339658Y50966255D01*
X3644420Y50966255D01*
X2387277Y50585303D02*
X2425372Y50537684D01*
X2539658Y50490065D01*
X2615849Y50490065D01*
X2730134Y50537684D01*
X2806325Y50632922D01*
X2844420Y50728160D01*
X2882515Y50918636D01*
X2882515Y51061493D01*
X2844420Y51251969D01*
X2806325Y51347207D01*
X2730134Y51442445D01*
X2615849Y51490065D01*
X2539658Y51490065D01*
X2425372Y51442445D01*
X2387277Y51394826D01*
D10*
X11842325Y4098445D02*
X11918515Y4136541D01*
X12032801Y4136541D01*
X12147087Y4098445D01*
X12223277Y4022255D01*
X12261372Y3946065D01*
X12299468Y3793684D01*
X12299468Y3679398D01*
X12261372Y3527017D01*
X12223277Y3450826D01*
X12147087Y3374636D01*
X12032801Y3336541D01*
X11956610Y3336541D01*
X11842325Y3374636D01*
X11804229Y3412731D01*
X11804229Y3679398D01*
X11956610Y3679398D01*
X5339944Y29523922D02*
X6139944Y29523922D01*
X6139944Y29714398D01*
X6101849Y29828684D01*
X6025658Y29904874D01*
X5949468Y29942969D01*
X5797087Y29981065D01*
X5682801Y29981065D01*
X5530420Y29942969D01*
X5454229Y29904874D01*
X5378039Y29828684D01*
X5339944Y29714398D01*
X5339944Y29523922D01*
X9964134Y53538065D02*
X10297468Y54014255D01*
X10535563Y53538065D02*
X10535563Y54538065D01*
X10154610Y54538065D01*
X10059372Y54490445D01*
X10011753Y54442826D01*
X9964134Y54347588D01*
X9964134Y54204731D01*
X10011753Y54109493D01*
X10059372Y54061874D01*
X10154610Y54014255D01*
X10535563Y54014255D01*
X9154610Y53585684D02*
X9249849Y53538065D01*
X9440325Y53538065D01*
X9535563Y53585684D01*
X9583182Y53680922D01*
X9583182Y54061874D01*
X9535563Y54157112D01*
X9440325Y54204731D01*
X9249849Y54204731D01*
X9154610Y54157112D01*
X9106991Y54061874D01*
X9106991Y53966636D01*
X9583182Y53871398D01*
X8773658Y54204731D02*
X8535563Y53538065D01*
X8297468Y54204731D01*
X7916515Y53633303D02*
X7868896Y53585684D01*
X7916515Y53538065D01*
X7964134Y53585684D01*
X7916515Y53633303D01*
X7916515Y53538065D01*
X7011753Y54204731D02*
X7011753Y53538065D01*
X7249849Y54585684D02*
X7487944Y53871398D01*
X6868896Y53871398D01*
X33672706Y13061588D02*
X33672706Y14261588D01*
X32415563Y13061588D02*
X32815563Y13633017D01*
X33101277Y13061588D02*
X33101277Y14261588D01*
X32644134Y14261588D01*
X32529849Y14204445D01*
X32472706Y14147303D01*
X32415563Y14033017D01*
X32415563Y13861588D01*
X32472706Y13747303D01*
X32529849Y13690160D01*
X32644134Y13633017D01*
X33101277Y13633017D01*
X30301277Y13061588D02*
X30701277Y13633017D01*
X30986991Y13061588D02*
X30986991Y14261588D01*
X30529849Y14261588D01*
X30415563Y14204445D01*
X30358420Y14147303D01*
X30301277Y14033017D01*
X30301277Y13861588D01*
X30358420Y13747303D01*
X30415563Y13690160D01*
X30529849Y13633017D01*
X30986991Y13633017D01*
X29329849Y13118731D02*
X29444134Y13061588D01*
X29672706Y13061588D01*
X29786991Y13118731D01*
X29844134Y13233017D01*
X29844134Y13690160D01*
X29786991Y13804445D01*
X29672706Y13861588D01*
X29444134Y13861588D01*
X29329849Y13804445D01*
X29272706Y13690160D01*
X29272706Y13575874D01*
X29844134Y13461588D01*
X28244134Y13118731D02*
X28358420Y13061588D01*
X28586991Y13061588D01*
X28701277Y13118731D01*
X28758420Y13175874D01*
X28815563Y13290160D01*
X28815563Y13633017D01*
X28758420Y13747303D01*
X28701277Y13804445D01*
X28586991Y13861588D01*
X28358420Y13861588D01*
X28244134Y13804445D01*
X27272706Y13118731D02*
X27386991Y13061588D01*
X27615563Y13061588D01*
X27729849Y13118731D01*
X27786991Y13233017D01*
X27786991Y13690160D01*
X27729849Y13804445D01*
X27615563Y13861588D01*
X27386991Y13861588D01*
X27272706Y13804445D01*
X27215563Y13690160D01*
X27215563Y13575874D01*
X27786991Y13461588D01*
X26701277Y13061588D02*
X26701277Y13861588D01*
X26701277Y14261588D02*
X26758420Y14204445D01*
X26701277Y14147303D01*
X26644134Y14204445D01*
X26701277Y14261588D01*
X26701277Y14147303D01*
X26244134Y13861588D02*
X25958420Y13061588D01*
X25672706Y13861588D01*
X24758420Y13118731D02*
X24872706Y13061588D01*
X25101277Y13061588D01*
X25215563Y13118731D01*
X25272706Y13233017D01*
X25272706Y13690160D01*
X25215563Y13804445D01*
X25101277Y13861588D01*
X24872706Y13861588D01*
X24758420Y13804445D01*
X24701277Y13690160D01*
X24701277Y13575874D01*
X25272706Y13461588D01*
X24186991Y13061588D02*
X24186991Y13861588D01*
X24186991Y13633017D02*
X24129849Y13747303D01*
X24072706Y13804445D01*
X23958420Y13861588D01*
X23844134Y13861588D01*
X22529849Y13061588D02*
X22529849Y14261588D01*
X22072706Y14261588D01*
X21958420Y14204445D01*
X21901277Y14147303D01*
X21844134Y14033017D01*
X21844134Y13861588D01*
X21901277Y13747303D01*
X21958420Y13690160D01*
X22072706Y13633017D01*
X22529849Y13633017D01*
X20815563Y13061588D02*
X20815563Y13690160D01*
X20872706Y13804445D01*
X20986991Y13861588D01*
X21215563Y13861588D01*
X21329849Y13804445D01*
X20815563Y13118731D02*
X20929849Y13061588D01*
X21215563Y13061588D01*
X21329849Y13118731D01*
X21386991Y13233017D01*
X21386991Y13347303D01*
X21329849Y13461588D01*
X21215563Y13518731D01*
X20929849Y13518731D01*
X20815563Y13575874D01*
X20244134Y13061588D02*
X20244134Y13861588D01*
X20244134Y13633017D02*
X20186991Y13747303D01*
X20129849Y13804445D01*
X20015563Y13861588D01*
X19901277Y13861588D01*
X19672706Y13861588D02*
X19215563Y13861588D01*
X19501277Y14261588D02*
X19501277Y13233017D01*
X19444134Y13118731D01*
X19329849Y13061588D01*
X19215563Y13061588D01*
D11*
X4482515Y43251065D02*
X4482515Y44251065D01*
X4177753Y44251065D01*
X4101563Y44203445D01*
X4063468Y44155826D01*
X4025372Y44060588D01*
X4025372Y43917731D01*
X4063468Y43822493D01*
X4101563Y43774874D01*
X4177753Y43727255D01*
X4482515Y43727255D01*
X3758706Y44251065D02*
X3568229Y43251065D01*
X3415849Y43965350D01*
X3263468Y43251065D01*
X3072991Y44251065D01*
X2311087Y43251065D02*
X2577753Y43727255D01*
X2768229Y43251065D02*
X2768229Y44251065D01*
X2463468Y44251065D01*
X2387277Y44203445D01*
X2349182Y44155826D01*
X2311087Y44060588D01*
X2311087Y43917731D01*
X2349182Y43822493D01*
X2387277Y43774874D01*
X2463468Y43727255D01*
X2768229Y43727255D01*
D10*
X10273753Y18041445D02*
X10368991Y18089065D01*
X10511849Y18089065D01*
X10654706Y18041445D01*
X10749944Y17946207D01*
X10797563Y17850969D01*
X10845182Y17660493D01*
X10845182Y17517636D01*
X10797563Y17327160D01*
X10749944Y17231922D01*
X10654706Y17136684D01*
X10511849Y17089065D01*
X10416610Y17089065D01*
X10273753Y17136684D01*
X10226134Y17184303D01*
X10226134Y17517636D01*
X10416610Y17517636D01*
X9797563Y17089065D02*
X9797563Y18089065D01*
X9226134Y17089065D01*
X9226134Y18089065D01*
X8749944Y17089065D02*
X8749944Y18089065D01*
X8511849Y18089065D01*
X8368991Y18041445D01*
X8273753Y17946207D01*
X8226134Y17850969D01*
X8178515Y17660493D01*
X8178515Y17517636D01*
X8226134Y17327160D01*
X8273753Y17231922D01*
X8368991Y17136684D01*
X8511849Y17089065D01*
X8749944Y17089065D01*
X48334229Y35956826D02*
X49334229Y35623493D01*
X48334229Y35290160D01*
X48953277Y34956826D02*
X48953277Y34194922D01*
X49334229Y34575874D02*
X48572325Y34575874D01*
X5378039Y25040874D02*
X5339944Y25155160D01*
X5339944Y25345636D01*
X5378039Y25421826D01*
X5416134Y25459922D01*
X5492325Y25498017D01*
X5568515Y25498017D01*
X5644706Y25459922D01*
X5682801Y25421826D01*
X5720896Y25345636D01*
X5758991Y25193255D01*
X5797087Y25117065D01*
X5835182Y25078969D01*
X5911372Y25040874D01*
X5987563Y25040874D01*
X6063753Y25078969D01*
X6101849Y25117065D01*
X6139944Y25193255D01*
X6139944Y25383731D01*
X6101849Y25498017D01*
X5339944Y26298017D02*
X5720896Y26031350D01*
X5339944Y25840874D02*
X6139944Y25840874D01*
X6139944Y26145636D01*
X6101849Y26221826D01*
X6063753Y26259922D01*
X5987563Y26298017D01*
X5873277Y26298017D01*
X5797087Y26259922D01*
X5758991Y26221826D01*
X5720896Y26145636D01*
X5720896Y25840874D01*
X6139944Y31003541D02*
X5339944Y31270207D01*
X6139944Y31536874D01*
X5644706Y31803541D02*
X5644706Y32413065D01*
X5339944Y32108303D02*
X5949468Y32108303D01*
X5466944Y9013445D02*
X6266944Y9013445D01*
X5466944Y9851541D02*
X5847896Y9584874D01*
X5466944Y9394398D02*
X6266944Y9394398D01*
X6266944Y9699160D01*
X6228849Y9775350D01*
X6190753Y9813445D01*
X6114563Y9851541D01*
X6000277Y9851541D01*
X5924087Y9813445D01*
X5885991Y9775350D01*
X5847896Y9699160D01*
X5847896Y9394398D01*
X5466944Y5324065D02*
X5466944Y4943112D01*
X6266944Y4943112D01*
X5466944Y6047874D02*
X5847896Y5781207D01*
X5466944Y5590731D02*
X6266944Y5590731D01*
X6266944Y5895493D01*
X6228849Y5971684D01*
X6190753Y6009779D01*
X6114563Y6047874D01*
X6000277Y6047874D01*
X5924087Y6009779D01*
X5885991Y5971684D01*
X5847896Y5895493D01*
X5847896Y5590731D01*
X31093991Y55352588D02*
X31093991Y56552588D01*
X30693991Y55695445D01*
X30293991Y56552588D01*
X30293991Y55352588D01*
X29551134Y55352588D02*
X29665420Y55409731D01*
X29722563Y55466874D01*
X29779706Y55581160D01*
X29779706Y55924017D01*
X29722563Y56038303D01*
X29665420Y56095445D01*
X29551134Y56152588D01*
X29379706Y56152588D01*
X29265420Y56095445D01*
X29208277Y56038303D01*
X29151134Y55924017D01*
X29151134Y55581160D01*
X29208277Y55466874D01*
X29265420Y55409731D01*
X29379706Y55352588D01*
X29551134Y55352588D01*
X28636849Y56152588D02*
X28636849Y55352588D01*
X28636849Y56038303D02*
X28579706Y56095445D01*
X28465420Y56152588D01*
X28293991Y56152588D01*
X28179706Y56095445D01*
X28122563Y55981160D01*
X28122563Y55352588D01*
X27551134Y55352588D02*
X27551134Y56152588D01*
X27551134Y56552588D02*
X27608277Y56495445D01*
X27551134Y56438303D01*
X27493991Y56495445D01*
X27551134Y56552588D01*
X27551134Y56438303D01*
X27151134Y56152588D02*
X26693991Y56152588D01*
X26979706Y56552588D02*
X26979706Y55524017D01*
X26922563Y55409731D01*
X26808277Y55352588D01*
X26693991Y55352588D01*
X26122563Y55352588D02*
X26236849Y55409731D01*
X26293991Y55466874D01*
X26351134Y55581160D01*
X26351134Y55924017D01*
X26293991Y56038303D01*
X26236849Y56095445D01*
X26122563Y56152588D01*
X25951134Y56152588D01*
X25836849Y56095445D01*
X25779706Y56038303D01*
X25722563Y55924017D01*
X25722563Y55581160D01*
X25779706Y55466874D01*
X25836849Y55409731D01*
X25951134Y55352588D01*
X26122563Y55352588D01*
X25208277Y55352588D02*
X25208277Y56152588D01*
X25208277Y55924017D02*
X25151134Y56038303D01*
X25093991Y56095445D01*
X24979706Y56152588D01*
X24865420Y56152588D01*
X23322563Y56552588D02*
X23093991Y56552588D01*
X22979706Y56495445D01*
X22865420Y56381160D01*
X22808277Y56152588D01*
X22808277Y55752588D01*
X22865420Y55524017D01*
X22979706Y55409731D01*
X23093991Y55352588D01*
X23322563Y55352588D01*
X23436849Y55409731D01*
X23551134Y55524017D01*
X23608277Y55752588D01*
X23608277Y56152588D01*
X23551134Y56381160D01*
X23436849Y56495445D01*
X23322563Y56552588D01*
X22351134Y55409731D02*
X22179706Y55352588D01*
X21893991Y55352588D01*
X21779706Y55409731D01*
X21722563Y55466874D01*
X21665420Y55581160D01*
X21665420Y55695445D01*
X21722563Y55809731D01*
X21779706Y55866874D01*
X21893991Y55924017D01*
X22122563Y55981160D01*
X22236849Y56038303D01*
X22293991Y56095445D01*
X22351134Y56209731D01*
X22351134Y56324017D01*
X22293991Y56438303D01*
X22236849Y56495445D01*
X22122563Y56552588D01*
X21836849Y56552588D01*
X21665420Y56495445D01*
X21151134Y55352588D02*
X21151134Y56552588D01*
X20865420Y56552588D01*
X20693991Y56495445D01*
X20579706Y56381160D01*
X20522563Y56266874D01*
X20465420Y56038303D01*
X20465420Y55866874D01*
X20522563Y55638303D01*
X20579706Y55524017D01*
X20693991Y55409731D01*
X20865420Y55352588D01*
X21151134Y55352588D01*
X18351134Y55466874D02*
X18408277Y55409731D01*
X18579706Y55352588D01*
X18693991Y55352588D01*
X18865420Y55409731D01*
X18979706Y55524017D01*
X19036849Y55638303D01*
X19093991Y55866874D01*
X19093991Y56038303D01*
X19036849Y56266874D01*
X18979706Y56381160D01*
X18865420Y56495445D01*
X18693991Y56552588D01*
X18579706Y56552588D01*
X18408277Y56495445D01*
X18351134Y56438303D01*
X17665420Y55352588D02*
X17779706Y55409731D01*
X17836849Y55466874D01*
X17893991Y55581160D01*
X17893991Y55924017D01*
X17836849Y56038303D01*
X17779706Y56095445D01*
X17665420Y56152588D01*
X17493991Y56152588D01*
X17379706Y56095445D01*
X17322563Y56038303D01*
X17265420Y55924017D01*
X17265420Y55581160D01*
X17322563Y55466874D01*
X17379706Y55409731D01*
X17493991Y55352588D01*
X17665420Y55352588D01*
X16751134Y56152588D02*
X16751134Y55352588D01*
X16751134Y56038303D02*
X16693991Y56095445D01*
X16579706Y56152588D01*
X16408277Y56152588D01*
X16293991Y56095445D01*
X16236849Y55981160D01*
X16236849Y55352588D01*
X15836849Y56152588D02*
X15379706Y56152588D01*
X15665420Y56552588D02*
X15665420Y55524017D01*
X15608277Y55409731D01*
X15493991Y55352588D01*
X15379706Y55352588D01*
X14979706Y55352588D02*
X14979706Y56152588D01*
X14979706Y55924017D02*
X14922563Y56038303D01*
X14865420Y56095445D01*
X14751134Y56152588D01*
X14636849Y56152588D01*
X14065420Y55352588D02*
X14179706Y55409731D01*
X14236849Y55466874D01*
X14293991Y55581160D01*
X14293991Y55924017D01*
X14236849Y56038303D01*
X14179706Y56095445D01*
X14065420Y56152588D01*
X13893991Y56152588D01*
X13779706Y56095445D01*
X13722563Y56038303D01*
X13665420Y55924017D01*
X13665420Y55581160D01*
X13722563Y55466874D01*
X13779706Y55409731D01*
X13893991Y55352588D01*
X14065420Y55352588D01*
X12979706Y55352588D02*
X13093991Y55409731D01*
X13151134Y55524017D01*
X13151134Y56552588D01*
X11208277Y55981160D02*
X11036849Y55924017D01*
X10979706Y55866874D01*
X10922563Y55752588D01*
X10922563Y55581160D01*
X10979706Y55466874D01*
X11036849Y55409731D01*
X11151134Y55352588D01*
X11608277Y55352588D01*
X11608277Y56552588D01*
X11208277Y56552588D01*
X11093991Y56495445D01*
X11036849Y56438303D01*
X10979706Y56324017D01*
X10979706Y56209731D01*
X11036849Y56095445D01*
X11093991Y56038303D01*
X11208277Y55981160D01*
X11608277Y55981160D01*
X10236849Y55352588D02*
X10351134Y55409731D01*
X10408277Y55466874D01*
X10465420Y55581160D01*
X10465420Y55924017D01*
X10408277Y56038303D01*
X10351134Y56095445D01*
X10236849Y56152588D01*
X10065420Y56152588D01*
X9951134Y56095445D01*
X9893991Y56038303D01*
X9836849Y55924017D01*
X9836849Y55581160D01*
X9893991Y55466874D01*
X9951134Y55409731D01*
X10065420Y55352588D01*
X10236849Y55352588D01*
X8808277Y55352588D02*
X8808277Y55981160D01*
X8865420Y56095445D01*
X8979706Y56152588D01*
X9208277Y56152588D01*
X9322563Y56095445D01*
X8808277Y55409731D02*
X8922563Y55352588D01*
X9208277Y55352588D01*
X9322563Y55409731D01*
X9379706Y55524017D01*
X9379706Y55638303D01*
X9322563Y55752588D01*
X9208277Y55809731D01*
X8922563Y55809731D01*
X8808277Y55866874D01*
X8236849Y55352588D02*
X8236849Y56152588D01*
X8236849Y55924017D02*
X8179706Y56038303D01*
X8122563Y56095445D01*
X8008277Y56152588D01*
X7893991Y56152588D01*
X6979706Y55352588D02*
X6979706Y56552588D01*
X6979706Y55409731D02*
X7093991Y55352588D01*
X7322563Y55352588D01*
X7436849Y55409731D01*
X7493991Y55466874D01*
X7551134Y55581160D01*
X7551134Y55924017D01*
X7493991Y56038303D01*
X7436849Y56095445D01*
X7322563Y56152588D01*
X7093991Y56152588D01*
X6979706Y56095445D01*
X48381849Y24582541D02*
X48334229Y24677779D01*
X48334229Y24820636D01*
X48381849Y24963493D01*
X48477087Y25058731D01*
X48572325Y25106350D01*
X48762801Y25153969D01*
X48905658Y25153969D01*
X49096134Y25106350D01*
X49191372Y25058731D01*
X49286610Y24963493D01*
X49334229Y24820636D01*
X49334229Y24725398D01*
X49286610Y24582541D01*
X49238991Y24534922D01*
X48905658Y24534922D01*
X48905658Y24725398D01*
X5339944Y37067779D02*
X6139944Y37067779D01*
X6139944Y37372541D01*
X6101849Y37448731D01*
X6063753Y37486826D01*
X5987563Y37524922D01*
X5873277Y37524922D01*
X5797087Y37486826D01*
X5758991Y37448731D01*
X5720896Y37372541D01*
X5720896Y37067779D01*
X6139944Y37791588D02*
X5339944Y37982065D01*
X5911372Y38134445D01*
X5339944Y38286826D01*
X6139944Y38477303D01*
X22364229Y4136541D02*
X22745182Y4136541D01*
X22783277Y3755588D01*
X22745182Y3793684D01*
X22668991Y3831779D01*
X22478515Y3831779D01*
X22402325Y3793684D01*
X22364229Y3755588D01*
X22326134Y3679398D01*
X22326134Y3488922D01*
X22364229Y3412731D01*
X22402325Y3374636D01*
X22478515Y3336541D01*
X22668991Y3336541D01*
X22745182Y3374636D01*
X22783277Y3412731D01*
X22097563Y4136541D02*
X21830896Y3336541D01*
X21564229Y4136541D01*
X49334229Y28411779D02*
X48334229Y28411779D01*
X48334229Y28030826D01*
X48381849Y27935588D01*
X48429468Y27887969D01*
X48524706Y27840350D01*
X48667563Y27840350D01*
X48762801Y27887969D01*
X48810420Y27935588D01*
X48858039Y28030826D01*
X48858039Y28411779D01*
X48334229Y27507017D02*
X49334229Y27268922D01*
X48619944Y27078445D01*
X49334229Y26887969D01*
X48334229Y26649874D01*
X48334229Y33670826D02*
X49334229Y33337493D01*
X48334229Y33004160D01*
X48953277Y32670826D02*
X48953277Y31908922D01*
X5466944Y7229065D02*
X5466944Y6848112D01*
X6266944Y6848112D01*
X6228849Y7914779D02*
X6266944Y7838588D01*
X6266944Y7724303D01*
X6228849Y7610017D01*
X6152658Y7533826D01*
X6076468Y7495731D01*
X5924087Y7457636D01*
X5809801Y7457636D01*
X5657420Y7495731D01*
X5581229Y7533826D01*
X5505039Y7610017D01*
X5466944Y7724303D01*
X5466944Y7800493D01*
X5505039Y7914779D01*
X5543134Y7952874D01*
X5809801Y7952874D01*
X5809801Y7800493D01*
X49334229Y37806350D02*
X48334229Y37806350D01*
X48334229Y37568255D01*
X48381849Y37425398D01*
X48477087Y37330160D01*
X48572325Y37282541D01*
X48762801Y37234922D01*
X48905658Y37234922D01*
X49096134Y37282541D01*
X49191372Y37330160D01*
X49286610Y37425398D01*
X49334229Y37568255D01*
X49334229Y37806350D01*
X48334229Y40624160D02*
X49143753Y40624160D01*
X49238991Y40576541D01*
X49286610Y40528922D01*
X49334229Y40433684D01*
X49334229Y40243207D01*
X49286610Y40147969D01*
X49238991Y40100350D01*
X49143753Y40052731D01*
X48334229Y40052731D01*
X6101849Y39848969D02*
X6139944Y39772779D01*
X6139944Y39658493D01*
X6101849Y39544207D01*
X6025658Y39468017D01*
X5949468Y39429922D01*
X5797087Y39391826D01*
X5682801Y39391826D01*
X5530420Y39429922D01*
X5454229Y39468017D01*
X5378039Y39544207D01*
X5339944Y39658493D01*
X5339944Y39734684D01*
X5378039Y39848969D01*
X5416134Y39887065D01*
X5682801Y39887065D01*
X5682801Y39734684D01*
X14991849Y3336541D02*
X14991849Y4136541D01*
X14153753Y3336541D02*
X14420420Y3717493D01*
X14610896Y3336541D02*
X14610896Y4136541D01*
X14306134Y4136541D01*
X14229944Y4098445D01*
X14191849Y4060350D01*
X14153753Y3984160D01*
X14153753Y3869874D01*
X14191849Y3793684D01*
X14229944Y3755588D01*
X14306134Y3717493D01*
X14610896Y3717493D01*
X6228849Y11654969D02*
X6266944Y11578779D01*
X6266944Y11464493D01*
X6228849Y11350207D01*
X6152658Y11274017D01*
X6076468Y11235922D01*
X5924087Y11197826D01*
X5809801Y11197826D01*
X5657420Y11235922D01*
X5581229Y11274017D01*
X5505039Y11350207D01*
X5466944Y11464493D01*
X5466944Y11540684D01*
X5505039Y11654969D01*
X5543134Y11693065D01*
X5809801Y11693065D01*
X5809801Y11540684D01*
X49334229Y30511779D02*
X48334229Y30511779D01*
X49048515Y30178445D01*
X48334229Y29845112D01*
X49334229Y29845112D01*
X6139944Y32908541D02*
X5339944Y33175207D01*
X6139944Y33441874D01*
X5644706Y33708541D02*
X5644706Y34318065D01*
X17284229Y3336541D02*
X17665182Y3336541D01*
X17665182Y4136541D01*
X16598515Y4098445D02*
X16674706Y4136541D01*
X16788991Y4136541D01*
X16903277Y4098445D01*
X16979468Y4022255D01*
X17017563Y3946065D01*
X17055658Y3793684D01*
X17055658Y3679398D01*
X17017563Y3527017D01*
X16979468Y3450826D01*
X16903277Y3374636D01*
X16788991Y3336541D01*
X16712801Y3336541D01*
X16598515Y3374636D01*
X16560420Y3412731D01*
X16560420Y3679398D01*
X16712801Y3679398D01*
X5339944Y35435779D02*
X6139944Y35435779D01*
X5568515Y35702445D01*
X6139944Y35969112D01*
X5339944Y35969112D01*
D11*
X9359372Y47886445D02*
X9435563Y47934065D01*
X9549849Y47934065D01*
X9664134Y47886445D01*
X9740325Y47791207D01*
X9778420Y47695969D01*
X9816515Y47505493D01*
X9816515Y47362636D01*
X9778420Y47172160D01*
X9740325Y47076922D01*
X9664134Y46981684D01*
X9549849Y46934065D01*
X9473658Y46934065D01*
X9359372Y46981684D01*
X9321277Y47029303D01*
X9321277Y47362636D01*
X9473658Y47362636D01*
X8978420Y46934065D02*
X8978420Y47934065D01*
X8521277Y46934065D01*
X8521277Y47934065D01*
X8140325Y46934065D02*
X8140325Y47934065D01*
X7949849Y47934065D01*
X7835563Y47886445D01*
X7759372Y47791207D01*
X7721277Y47695969D01*
X7683182Y47505493D01*
X7683182Y47362636D01*
X7721277Y47172160D01*
X7759372Y47076922D01*
X7835563Y46981684D01*
X7949849Y46934065D01*
X8140325Y46934065D01*
D10*
X19824229Y3336541D02*
X20205182Y3336541D01*
X20205182Y4136541D01*
X19100420Y3336541D02*
X19367087Y3717493D01*
X19557563Y3336541D02*
X19557563Y4136541D01*
X19252801Y4136541D01*
X19176610Y4098445D01*
X19138515Y4060350D01*
X19100420Y3984160D01*
X19100420Y3869874D01*
X19138515Y3793684D01*
X19176610Y3755588D01*
X19252801Y3717493D01*
X19557563Y3717493D01*
X49148610Y43664160D02*
X49196229Y43521303D01*
X49196229Y43283207D01*
X49148610Y43187969D01*
X49100991Y43140350D01*
X49005753Y43092731D01*
X48910515Y43092731D01*
X48815277Y43140350D01*
X48767658Y43187969D01*
X48720039Y43283207D01*
X48672420Y43473684D01*
X48624801Y43568922D01*
X48577182Y43616541D01*
X48481944Y43664160D01*
X48386706Y43664160D01*
X48291468Y43616541D01*
X48243849Y43568922D01*
X48196229Y43473684D01*
X48196229Y43235588D01*
X48243849Y43092731D01*
X49196229Y42092731D02*
X48720039Y42426065D01*
X49196229Y42664160D02*
X48196229Y42664160D01*
X48196229Y42283207D01*
X48243849Y42187969D01*
X48291468Y42140350D01*
X48386706Y42092731D01*
X48529563Y42092731D01*
X48624801Y42140350D01*
X48672420Y42187969D01*
X48720039Y42283207D01*
X48720039Y42664160D01*
%TO.C,J5*%
X25075753Y1933112D02*
X25647182Y1933112D01*
X25761468Y1971207D01*
X25837658Y2047398D01*
X25875753Y2161684D01*
X25875753Y2237874D01*
X25075753Y1171207D02*
X25075753Y1552160D01*
X25456706Y1590255D01*
X25418610Y1552160D01*
X25380515Y1475969D01*
X25380515Y1285493D01*
X25418610Y1209303D01*
X25456706Y1171207D01*
X25532896Y1133112D01*
X25723372Y1133112D01*
X25799563Y1171207D01*
X25837658Y1209303D01*
X25875753Y1285493D01*
X25875753Y1475969D01*
X25837658Y1552160D01*
X25799563Y1590255D01*
%TO.C,J3*%
X582229Y33495779D02*
X1296515Y33495779D01*
X1439372Y33543398D01*
X1534610Y33638636D01*
X1582229Y33781493D01*
X1582229Y33876731D01*
X582229Y33114826D02*
X582229Y32495779D01*
X963182Y32829112D01*
X963182Y32686255D01*
X1010801Y32591017D01*
X1058420Y32543398D01*
X1153658Y32495779D01*
X1391753Y32495779D01*
X1486991Y32543398D01*
X1534610Y32591017D01*
X1582229Y32686255D01*
X1582229Y32971969D01*
X1534610Y33067207D01*
X1486991Y33114826D01*
%TO.C,J2*%
X46929182Y45677065D02*
X46929182Y44962779D01*
X46976801Y44819922D01*
X47072039Y44724684D01*
X47214896Y44677065D01*
X47310134Y44677065D01*
X46500610Y45581826D02*
X46452991Y45629445D01*
X46357753Y45677065D01*
X46119658Y45677065D01*
X46024420Y45629445D01*
X45976801Y45581826D01*
X45929182Y45486588D01*
X45929182Y45391350D01*
X45976801Y45248493D01*
X46548229Y44677065D01*
X45929182Y44677065D01*
%TO.C,J6*%
X691753Y8029112D02*
X1263182Y8029112D01*
X1377468Y8067207D01*
X1453658Y8143398D01*
X1491753Y8257684D01*
X1491753Y8333874D01*
X691753Y7305303D02*
X691753Y7457684D01*
X729849Y7533874D01*
X767944Y7571969D01*
X882229Y7648160D01*
X1034610Y7686255D01*
X1339372Y7686255D01*
X1415563Y7648160D01*
X1453658Y7610065D01*
X1491753Y7533874D01*
X1491753Y7381493D01*
X1453658Y7305303D01*
X1415563Y7267207D01*
X1339372Y7229112D01*
X1148896Y7229112D01*
X1072706Y7267207D01*
X1034610Y7305303D01*
X996515Y7381493D01*
X996515Y7533874D01*
X1034610Y7610065D01*
X1072706Y7648160D01*
X1148896Y7686255D01*
D12*
%TO.C,J5*%
X22211849Y336445D02*
X11991849Y336445D01*
X24811849Y336445D02*
X24811849Y1666445D01*
X22211849Y2996445D02*
X11991849Y2996445D01*
X11991849Y336445D02*
X11991849Y2996445D01*
X23481849Y336445D02*
X24811849Y336445D01*
X22211849Y336445D02*
X22211849Y2996445D01*
%TO.C,J3*%
X5637849Y40842445D02*
X4037849Y40842445D01*
X-2182151Y41762445D02*
X5637849Y41762445D01*
X4037849Y40842445D02*
X4037849Y40562445D01*
X1677849Y24402445D02*
X77849Y24402445D01*
X77849Y40002445D02*
X1677849Y40002445D01*
X1677849Y25402445D02*
X1677849Y24402445D01*
X4037849Y24842445D02*
X5252849Y24842445D01*
X-2182151Y23642445D02*
X-2182151Y41762445D01*
X2177849Y39202445D02*
X-2182151Y39202445D01*
X5637849Y24562445D02*
X5637849Y23642445D01*
X77849Y24902445D02*
X-2182151Y24902445D01*
X77849Y41002445D02*
X77849Y40002445D01*
X5637849Y23642445D02*
X-2182151Y23642445D01*
X77849Y24402445D02*
X77849Y25402445D01*
X77849Y25402445D02*
X1677849Y25402445D01*
X77849Y25402445D02*
X-2182151Y25402445D01*
X4037849Y24842445D02*
X4037849Y24562445D01*
X4037849Y24562445D02*
X5637849Y24562445D01*
X4037849Y23642445D02*
X4037849Y24562445D01*
X5637849Y41762445D02*
X5637849Y40842445D01*
X-2182151Y26202445D02*
X2177849Y26202445D01*
X2177849Y26202445D02*
X2177849Y39202445D01*
X1677849Y41002445D02*
X77849Y41002445D01*
X1677849Y40002445D02*
X1677849Y41002445D01*
X4037849Y41762445D02*
X4037849Y40842445D01*
%TO.C,J2*%
X47925849Y41529445D02*
X45265849Y41529445D01*
X47925849Y23689445D02*
X45265849Y23689445D01*
X47925849Y44129445D02*
X46595849Y44129445D01*
X45265849Y41529445D02*
X45265849Y23689445D01*
X47925849Y42799445D02*
X47925849Y44129445D01*
X47925849Y41529445D02*
X47925849Y23689445D01*
%TO.C,J6*%
X-1941951Y3944445D02*
X2418049Y3944445D01*
X4278049Y12584445D02*
X4278049Y12304445D01*
X318049Y3144445D02*
X-1941951Y3144445D01*
X1918049Y11744445D02*
X1918049Y12744445D01*
X4278049Y2304445D02*
X5878049Y2304445D01*
X1918049Y3144445D02*
X1918049Y2144445D01*
X-1941951Y13504445D02*
X5878049Y13504445D01*
X-1941951Y1384445D02*
X-1941951Y13504445D01*
X2418049Y10944445D02*
X-1941951Y10944445D01*
X5878049Y2304445D02*
X5878049Y1384445D01*
X318049Y11744445D02*
X1918049Y11744445D01*
X2418049Y3944445D02*
X2418049Y10944445D01*
X5878049Y13504445D02*
X5878049Y12584445D01*
X4278049Y13504445D02*
X4278049Y12584445D01*
X318049Y3144445D02*
X1918049Y3144445D01*
X4278049Y1384445D02*
X4278049Y2304445D01*
X4278049Y2584445D02*
X5493049Y2584445D01*
X4278049Y2584445D02*
X4278049Y2304445D01*
X318049Y2144445D02*
X318049Y3144445D01*
X318049Y2644445D02*
X-1941951Y2644445D01*
X1918049Y2144445D02*
X318049Y2144445D01*
X5878049Y12584445D02*
X4278049Y12584445D01*
X1918049Y12744445D02*
X318049Y12744445D01*
X318049Y12744445D02*
X318049Y11744445D01*
X5878049Y1384445D02*
X-1941951Y1384445D01*
%TD*%
%LPC*%
D13*
%TO.C,SW1*%
X9867849Y30792445D03*
X9867849Y43292445D03*
X14867849Y30792445D03*
X14867849Y43292445D03*
%TD*%
D14*
%TO.C,U1*%
X9384849Y9413445D03*
D15*
X9384849Y6873445D03*
X9384849Y4333445D03*
%TD*%
D16*
%TO.C,D2*%
X29704849Y2555445D03*
D15*
X29704849Y5095445D03*
X29704849Y7635445D03*
%TD*%
D17*
%TO.C,SW6*%
X37797849Y10262445D03*
X37797849Y3762445D03*
X42297849Y3762445D03*
X42297849Y10262445D03*
%TD*%
%TO.C,TP1*%
X3415849Y49037445D03*
%TD*%
D13*
%TO.C,SW5*%
X40167849Y30802445D03*
X40167849Y43302445D03*
X35167849Y43302445D03*
X35167849Y30802445D03*
%TD*%
D17*
%TO.C,TP3*%
X3415849Y45735445D03*
%TD*%
%TO.C,TP2*%
X6209849Y47386445D03*
%TD*%
D18*
%TO.C,SW4*%
X18757849Y21872445D03*
X31257849Y21872445D03*
X31257849Y26872445D03*
X18757849Y26872445D03*
%TD*%
%TO.C,SW2*%
X31287849Y52152445D03*
X18787849Y52152445D03*
X31287849Y47152445D03*
X18787849Y47152445D03*
%TD*%
D17*
%TO.C,TP4*%
X9511849Y19700445D03*
%TD*%
D18*
%TO.C,SW3*%
X18787849Y39523245D03*
X31287849Y39523245D03*
X31287849Y34523245D03*
X18787849Y34523245D03*
%TD*%
D19*
%TO.C,J5*%
X23481849Y1666445D03*
D20*
X20941849Y1666445D03*
X18401849Y1666445D03*
X15861849Y1666445D03*
X13321849Y1666445D03*
%TD*%
D21*
%TO.C,J3*%
X4177849Y25702445D03*
D22*
X4177849Y27702445D03*
X4177849Y29702445D03*
X4177849Y31702445D03*
X4177849Y33702445D03*
X4177849Y35702445D03*
X4177849Y37702445D03*
X4177849Y39702445D03*
%TD*%
D19*
%TO.C,J2*%
X46595849Y42799445D03*
D20*
X46595849Y40259445D03*
X46595849Y37719445D03*
X46595849Y35179445D03*
X46595849Y32639445D03*
X46595849Y30099445D03*
X46595849Y27559445D03*
X46595849Y25019445D03*
%TD*%
D21*
%TO.C,J6*%
X4418049Y3444445D03*
D22*
X4418049Y5444445D03*
X4418049Y7444445D03*
X4418049Y9444445D03*
X4418049Y11444445D03*
%TD*%
M02*
