%TF.GenerationSoftware,KiCad,Pcbnew,(6.0.10)*%
%TF.CreationDate,2023-02-11T15:04:05+09:00*%
%TF.ProjectId,monitor_control_board,6d6f6e69-746f-4725-9f63-6f6e74726f6c,4*%
%TF.SameCoordinates,PX7ab4258PY723a4bd*%
%TF.FileFunction,Soldermask,Top*%
%TF.FilePolarity,Negative*%
%FSLAX46Y46*%
G04 Gerber Fmt 4.6, Leading zero omitted, Abs format (unit mm)*
G04 Created by KiCad (PCBNEW (6.0.10)) date 2023-02-11 15:04:05*
%MOMM*%
%LPD*%
G01*
G04 APERTURE LIST*
G04 Aperture macros list*
%AMRoundRect*
0 Rectangle with rounded corners*
0 $1 Rounding radius*
0 $2 $3 $4 $5 $6 $7 $8 $9 X,Y pos of 4 corners*
0 Add a 4 corners polygon primitive as box body*
4,1,4,$2,$3,$4,$5,$6,$7,$8,$9,$2,$3,0*
0 Add four circle primitives for the rounded corners*
1,1,$1+$1,$2,$3*
1,1,$1+$1,$4,$5*
1,1,$1+$1,$6,$7*
1,1,$1+$1,$8,$9*
0 Add four rect primitives between the rounded corners*
20,1,$1+$1,$2,$3,$4,$5,0*
20,1,$1+$1,$4,$5,$6,$7,0*
20,1,$1+$1,$6,$7,$8,$9,0*
20,1,$1+$1,$8,$9,$2,$3,0*%
G04 Aperture macros list end*
%ADD10R,1.350000X1.350000*%
%ADD11O,1.350000X1.350000*%
%ADD12O,1.850000X3.048000*%
%ADD13RoundRect,0.250200X-0.649800X0.649800X-0.649800X-0.649800X0.649800X-0.649800X0.649800X0.649800X0*%
%ADD14C,1.800000*%
%ADD15R,1.800000X1.800000*%
%ADD16C,2.000000*%
%ADD17C,1.500000*%
%ADD18O,3.048000X1.850000*%
%ADD19RoundRect,0.250000X-1.050000X-0.550000X1.050000X-0.550000X1.050000X0.550000X-1.050000X0.550000X0*%
%ADD20RoundRect,0.250000X0.450000X-0.350000X0.450000X0.350000X-0.450000X0.350000X-0.450000X-0.350000X0*%
%ADD21RoundRect,0.250000X0.475000X-0.337500X0.475000X0.337500X-0.475000X0.337500X-0.475000X-0.337500X0*%
%ADD22R,1.300000X1.700000*%
%ADD23R,1.700000X1.700000*%
%ADD24O,1.700000X1.700000*%
G04 APERTURE END LIST*
D10*
%TO.C,J3*%
X4177848Y3444445D03*
D11*
X4177848Y5444445D03*
X4177848Y7444445D03*
X4177848Y9444445D03*
X4177848Y11444445D03*
%TD*%
D10*
%TO.C,J1*%
X4177848Y24882045D03*
D11*
X4177848Y26882045D03*
X4177848Y28882045D03*
X4177848Y30882045D03*
X4177848Y32882045D03*
X4177848Y34882045D03*
X4177848Y36882045D03*
X4177848Y38882045D03*
X4177848Y40882045D03*
%TD*%
D12*
%TO.C,SW1*%
X9511848Y43288445D03*
X9511848Y30788445D03*
X14511848Y43288445D03*
X14511848Y30788445D03*
%TD*%
D13*
%TO.C,U1*%
X9384848Y9413445D03*
D14*
X9384848Y6873445D03*
X9384848Y4333445D03*
%TD*%
D15*
%TO.C,D2*%
X29704848Y2555445D03*
D14*
X29704848Y5095445D03*
X29704848Y7635445D03*
%TD*%
D16*
%TO.C,SW6*%
X42261848Y3751645D03*
X42261848Y10251645D03*
X37761848Y10251645D03*
X37761848Y3751645D03*
%TD*%
D17*
%TO.C,TP2*%
X5955848Y48910445D03*
%TD*%
D12*
%TO.C,SW5*%
X40491848Y30798445D03*
X40491848Y43298445D03*
X35491848Y30798445D03*
X35491848Y43298445D03*
%TD*%
D17*
%TO.C,TP1*%
X11035848Y48910445D03*
%TD*%
%TO.C,TP3*%
X8495848Y48910445D03*
%TD*%
D18*
%TO.C,SW4*%
X18741848Y21508445D03*
X31241848Y21508445D03*
X18741848Y26508445D03*
X31241848Y26508445D03*
%TD*%
D19*
%TO.C,E1*%
X25872848Y11572445D03*
X29472848Y11572445D03*
%TD*%
D18*
%TO.C,SW2*%
X31251848Y52488445D03*
X18751848Y52488445D03*
X31251848Y47488445D03*
X18751848Y47488445D03*
%TD*%
D20*
%TO.C,R1*%
X18046248Y11486845D03*
X18046248Y13486845D03*
%TD*%
D21*
%TO.C,C1*%
X22465848Y11449345D03*
X22465848Y13524345D03*
%TD*%
D16*
%TO.C,TP4*%
X8749848Y19700445D03*
%TD*%
D21*
%TO.C,C2*%
X20230648Y11449345D03*
X20230648Y13524345D03*
%TD*%
D22*
%TO.C,D1*%
X14817848Y12461445D03*
X11317848Y12461445D03*
%TD*%
D18*
%TO.C,SW3*%
X18751848Y39518445D03*
X31251848Y39518445D03*
X18751848Y34518445D03*
X31251848Y34518445D03*
%TD*%
D23*
%TO.C,J4*%
X1637848Y2144445D03*
D24*
X1637848Y4684445D03*
X1637848Y7224445D03*
X1637848Y9764445D03*
X1637848Y12304445D03*
%TD*%
D23*
%TO.C,J2*%
X1637848Y24018445D03*
D24*
X1637848Y26558445D03*
X1637848Y29098445D03*
X1637848Y31638445D03*
X1637848Y34178445D03*
X1637848Y36718445D03*
X1637848Y39258445D03*
X1637848Y41798445D03*
X1637848Y44338445D03*
%TD*%
M02*
