M48
; DRILL file {KiCad (6.0.10)} date Sun Jan 29 21:33:40 2023
; FORMAT={-:-/ absolute / inch / decimal}
; #@! TF.CreationDate,2023-01-29T21:33:40+09:00
; #@! TF.GenerationSoftware,Kicad,Pcbnew,(6.0.10)
; #@! TF.FileFunction,Plated,1,2,PTH
FMAT,2
INCH
; #@! TA.AperFunction,Plated,PTH,ViaDrill
T1C0.0157
; #@! TA.AperFunction,Plated,PTH,ComponentDrill
T2C0.0276
; #@! TA.AperFunction,Plated,PTH,ComponentDrill
T3C0.0295
; #@! TA.AperFunction,Plated,PTH,ComponentDrill
T4C0.0354
; #@! TA.AperFunction,Plated,PTH,ComponentDrill
T5C0.0394
; #@! TA.AperFunction,Plated,PTH,ComponentDrill
T6C0.0433
; #@! TA.AperFunction,Plated,PTH,ComponentDrill
T7C0.0512
%
G90
G05
T1
X0.4781Y0.137
X0.5745Y0.1206
X0.6495Y0.449
X1.071Y0.2956
T2
X0.2345Y1.9256
X0.3345Y1.9256
X0.4345Y1.9256
T3
X0.1513Y1.5992
X0.1513Y1.5204
X0.1513Y1.4417
X0.1513Y1.3629
X0.1513Y1.2842
X0.1513Y1.2055
X0.1513Y1.1267
X0.1513Y1.048
X0.1513Y0.9692
X0.1739Y0.4506
X0.1739Y0.3718
X0.1739Y0.2931
X0.1739Y0.2143
X0.1739Y0.1356
T4
X0.3695Y0.3706
X0.3695Y0.2706
X0.3695Y0.1706
X1.1695Y0.3006
X1.1695Y0.2006
X1.1695Y0.1006
T5
X0.3745Y0.7756
X0.5245Y0.0656
X0.6245Y0.0656
X0.7245Y0.0656
X0.8245Y0.0656
X0.9245Y0.0656
X1.8325Y1.8436
X1.8325Y1.7436
X1.8325Y1.6436
X1.8325Y1.5436
X1.8325Y1.4436
X1.8325Y1.3436
X1.8325Y1.2436
X1.8325Y1.1436
X1.8325Y1.0436
T6
X1.4881Y0.404
X1.4881Y0.1481
X1.6653Y0.404
X1.6653Y0.1481
T7
X0.3745Y1.7043
X0.3745Y1.2121
X0.5713Y1.7043
X0.5713Y1.2121
X0.7379Y1.0436
X0.7379Y0.8468
X0.7383Y2.0665
X0.7383Y1.8696
X0.7383Y1.5558
X0.7383Y1.359
X1.23Y1.0436
X1.23Y0.8468
X1.2304Y2.0665
X1.2304Y1.8696
X1.2304Y1.5558
X1.2304Y1.359
X1.3973Y1.7047
X1.3973Y1.2125
X1.5942Y1.7047
X1.5942Y1.2125
T0
M30
