M48
; DRILL file {KiCad (6.0.9)} date Mon Jan  9 21:15:14 2023
; FORMAT={-:-/ absolute / inch / decimal}
; #@! TF.CreationDate,2023-01-09T21:15:14+09:00
; #@! TF.GenerationSoftware,Kicad,Pcbnew,(6.0.9)
; #@! TF.FileFunction,Plated,1,2,PTH
FMAT,2
INCH
; #@! TA.AperFunction,Plated,PTH,ViaDrill
T1C0.0157
; #@! TA.AperFunction,Plated,PTH,ComponentDrill
T2C0.0295
; #@! TA.AperFunction,Plated,PTH,ComponentDrill
T3C0.0394
; #@! TA.AperFunction,Plated,PTH,ComponentDrill
T4C0.0433
; #@! TA.AperFunction,Plated,PTH,ComponentDrill
T5C0.0512
%
G90
G05
T1
X1.6571Y1.2029
T2
X0.16Y1.6812
X0.16Y1.6024
X0.16Y1.5237
X0.16Y1.445
X0.16Y1.3662
X0.16Y1.2875
X0.16Y1.2087
X0.16Y1.13
T3
X0.3Y2.2
X0.37Y2.04
X0.44Y2.2
X1.82Y1.8
X1.82Y1.7
X1.82Y1.6
X1.82Y1.5
X1.82Y1.4
X1.82Y1.3
X1.82Y1.2
X1.82Y1.1
T4
X1.4836Y0.5184
X1.4836Y0.2625
X1.6608Y0.5184
X1.6608Y0.2625
T5
X0.384Y1.8188
X0.384Y1.3267
X0.5809Y1.8188
X0.5809Y1.3267
X0.734Y1.1724
X0.734Y0.9755
X0.7352Y2.1676
X0.7352Y1.9708
X0.7352Y1.6704
X0.7352Y1.4736
X1.2261Y1.1724
X1.2261Y0.9755
X1.2273Y2.1676
X1.2273Y1.9708
X1.2273Y1.6704
X1.2273Y1.4736
X1.3801Y1.8192
X1.3801Y1.3271
X1.5769Y1.8192
X1.5769Y1.3271
T0
M30
