%TF.GenerationSoftware,KiCad,Pcbnew,(6.0.9)*%
%TF.CreationDate,2023-01-09T21:15:12+09:00*%
%TF.ProjectId,monitor_control_board,6d6f6e69-746f-4725-9f63-6f6e74726f6c,rev?*%
%TF.SameCoordinates,PX7acff10PY74ffa90*%
%TF.FileFunction,Legend,Top*%
%TF.FilePolarity,Positive*%
%FSLAX46Y46*%
G04 Gerber Fmt 4.6, Leading zero omitted, Abs format (unit mm)*
G04 Created by KiCad (PCBNEW (6.0.9)) date 2023-01-09 21:15:12*
%MOMM*%
%LPD*%
G01*
G04 APERTURE LIST*
%ADD10C,0.150000*%
%ADD11C,0.250000*%
%ADD12C,0.200000*%
%ADD13C,0.120000*%
G04 APERTURE END LIST*
D10*
X35306000Y14986000D02*
X49657000Y14986000D01*
D11*
X22536857Y26775143D02*
X22536857Y27975143D01*
X22822571Y27975143D01*
X22994000Y27918000D01*
X23108285Y27803715D01*
X23165428Y27689429D01*
X23222571Y27460858D01*
X23222571Y27289429D01*
X23165428Y27060858D01*
X23108285Y26946572D01*
X22994000Y26832286D01*
X22822571Y26775143D01*
X22536857Y26775143D01*
X23965428Y27975143D02*
X24194000Y27975143D01*
X24308285Y27918000D01*
X24422571Y27803715D01*
X24479714Y27575143D01*
X24479714Y27175143D01*
X24422571Y26946572D01*
X24308285Y26832286D01*
X24194000Y26775143D01*
X23965428Y26775143D01*
X23851142Y26832286D01*
X23736857Y26946572D01*
X23679714Y27175143D01*
X23679714Y27575143D01*
X23736857Y27803715D01*
X23851142Y27918000D01*
X23965428Y27975143D01*
X24879714Y27975143D02*
X25165428Y26775143D01*
X25394000Y27632286D01*
X25622571Y26775143D01*
X25908285Y27975143D01*
X26365428Y26775143D02*
X26365428Y27975143D01*
X27051142Y26775143D01*
X27051142Y27975143D01*
D12*
X9709428Y57761239D02*
X9823714Y57713620D01*
X10014190Y57713620D01*
X10090380Y57761239D01*
X10128476Y57808858D01*
X10166571Y57904096D01*
X10166571Y57999334D01*
X10128476Y58094572D01*
X10090380Y58142191D01*
X10014190Y58189810D01*
X9861809Y58237429D01*
X9785619Y58285048D01*
X9747523Y58332667D01*
X9709428Y58427905D01*
X9709428Y58523143D01*
X9747523Y58618381D01*
X9785619Y58666000D01*
X9861809Y58713620D01*
X10052285Y58713620D01*
X10166571Y58666000D01*
X10661809Y58713620D02*
X10814190Y58713620D01*
X10890380Y58666000D01*
X10966571Y58570762D01*
X11004666Y58380286D01*
X11004666Y58046953D01*
X10966571Y57856477D01*
X10890380Y57761239D01*
X10814190Y57713620D01*
X10661809Y57713620D01*
X10585619Y57761239D01*
X10509428Y57856477D01*
X10471333Y58046953D01*
X10471333Y58380286D01*
X10509428Y58570762D01*
X10585619Y58666000D01*
X10661809Y58713620D01*
X11347523Y58713620D02*
X11347523Y57904096D01*
X11385619Y57808858D01*
X11423714Y57761239D01*
X11499904Y57713620D01*
X11652285Y57713620D01*
X11728476Y57761239D01*
X11766571Y57808858D01*
X11804666Y57904096D01*
X11804666Y58713620D01*
X12642761Y57713620D02*
X12376095Y58189810D01*
X12185619Y57713620D02*
X12185619Y58713620D01*
X12490380Y58713620D01*
X12566571Y58666000D01*
X12604666Y58618381D01*
X12642761Y58523143D01*
X12642761Y58380286D01*
X12604666Y58285048D01*
X12566571Y58237429D01*
X12490380Y58189810D01*
X12185619Y58189810D01*
X13442761Y57808858D02*
X13404666Y57761239D01*
X13290380Y57713620D01*
X13214190Y57713620D01*
X13099904Y57761239D01*
X13023714Y57856477D01*
X12985619Y57951715D01*
X12947523Y58142191D01*
X12947523Y58285048D01*
X12985619Y58475524D01*
X13023714Y58570762D01*
X13099904Y58666000D01*
X13214190Y58713620D01*
X13290380Y58713620D01*
X13404666Y58666000D01*
X13442761Y58618381D01*
X13785619Y58237429D02*
X14052285Y58237429D01*
X14166571Y57713620D02*
X13785619Y57713620D01*
X13785619Y58713620D01*
X14166571Y58713620D01*
D11*
X23190666Y37811143D02*
X23190666Y39011143D01*
X23524000Y38154000D01*
X23857333Y39011143D01*
X23857333Y37811143D01*
X24333523Y38439715D02*
X24666857Y38439715D01*
X24809714Y37811143D02*
X24333523Y37811143D01*
X24333523Y39011143D01*
X24809714Y39011143D01*
X25238285Y37811143D02*
X25238285Y39011143D01*
X25809714Y37811143D01*
X25809714Y39011143D01*
X26285904Y39011143D02*
X26285904Y38039715D01*
X26333523Y37925429D01*
X26381142Y37868286D01*
X26476380Y37811143D01*
X26666857Y37811143D01*
X26762095Y37868286D01*
X26809714Y37925429D01*
X26857333Y38039715D01*
X26857333Y39011143D01*
X37258971Y3724343D02*
X37258971Y4924343D01*
X37716114Y4924343D01*
X37830400Y4867200D01*
X37887542Y4810058D01*
X37944685Y4695772D01*
X37944685Y4524343D01*
X37887542Y4410058D01*
X37830400Y4352915D01*
X37716114Y4295772D01*
X37258971Y4295772D01*
X38687542Y4924343D02*
X38916114Y4924343D01*
X39030400Y4867200D01*
X39144685Y4752915D01*
X39201828Y4524343D01*
X39201828Y4124343D01*
X39144685Y3895772D01*
X39030400Y3781486D01*
X38916114Y3724343D01*
X38687542Y3724343D01*
X38573257Y3781486D01*
X38458971Y3895772D01*
X38401828Y4124343D01*
X38401828Y4524343D01*
X38458971Y4752915D01*
X38573257Y4867200D01*
X38687542Y4924343D01*
X39601828Y4924343D02*
X39887542Y3724343D01*
X40116114Y4581486D01*
X40344685Y3724343D01*
X40630400Y4924343D01*
X41087542Y4352915D02*
X41487542Y4352915D01*
X41658971Y3724343D02*
X41087542Y3724343D01*
X41087542Y4924343D01*
X41658971Y4924343D01*
X42858971Y3724343D02*
X42458971Y4295772D01*
X42173257Y3724343D02*
X42173257Y4924343D01*
X42630400Y4924343D01*
X42744685Y4867200D01*
X42801828Y4810058D01*
X42858971Y4695772D01*
X42858971Y4524343D01*
X42801828Y4410058D01*
X42744685Y4352915D01*
X42630400Y4295772D01*
X42173257Y4295772D01*
X24081142Y53175143D02*
X24081142Y52203715D01*
X24138285Y52089429D01*
X24195428Y52032286D01*
X24309714Y51975143D01*
X24538285Y51975143D01*
X24652571Y52032286D01*
X24709714Y52089429D01*
X24766857Y52203715D01*
X24766857Y53175143D01*
X25338285Y51975143D02*
X25338285Y53175143D01*
X25795428Y53175143D01*
X25909714Y53118000D01*
X25966857Y53060858D01*
X26024000Y52946572D01*
X26024000Y52775143D01*
X25966857Y52660858D01*
X25909714Y52603715D01*
X25795428Y52546572D01*
X25338285Y52546572D01*
X10188857Y40535143D02*
X10588857Y39335143D01*
X10988857Y40535143D01*
X11617428Y40535143D02*
X11846000Y40535143D01*
X11960285Y40478000D01*
X12074571Y40363715D01*
X12131714Y40135143D01*
X12131714Y39735143D01*
X12074571Y39506572D01*
X11960285Y39392286D01*
X11846000Y39335143D01*
X11617428Y39335143D01*
X11503142Y39392286D01*
X11388857Y39506572D01*
X11331714Y39735143D01*
X11331714Y40135143D01*
X11388857Y40363715D01*
X11503142Y40478000D01*
X11617428Y40535143D01*
X13217428Y39335143D02*
X12646000Y39335143D01*
X12646000Y40535143D01*
X13617428Y39792286D02*
X14531714Y39792286D01*
D12*
X5994476Y52316000D02*
X5918285Y52363620D01*
X5804000Y52363620D01*
X5689714Y52316000D01*
X5613523Y52220762D01*
X5575428Y52125524D01*
X5537333Y51935048D01*
X5537333Y51792191D01*
X5575428Y51601715D01*
X5613523Y51506477D01*
X5689714Y51411239D01*
X5804000Y51363620D01*
X5880190Y51363620D01*
X5994476Y51411239D01*
X6032571Y51458858D01*
X6032571Y51792191D01*
X5880190Y51792191D01*
X6375428Y51363620D02*
X6375428Y52363620D01*
X6832571Y51363620D01*
X6832571Y52363620D01*
X7213523Y51363620D02*
X7213523Y52363620D01*
X7404000Y52363620D01*
X7518285Y52316000D01*
X7594476Y52220762D01*
X7632571Y52125524D01*
X7670666Y51935048D01*
X7670666Y51792191D01*
X7632571Y51601715D01*
X7594476Y51506477D01*
X7518285Y51411239D01*
X7404000Y51363620D01*
X7213523Y51363620D01*
X5264380Y57713620D02*
X5264380Y58713620D01*
X5569142Y58713620D01*
X5645333Y58666000D01*
X5683428Y58618381D01*
X5721523Y58523143D01*
X5721523Y58380286D01*
X5683428Y58285048D01*
X5645333Y58237429D01*
X5569142Y58189810D01*
X5264380Y58189810D01*
X6216761Y58713620D02*
X6369142Y58713620D01*
X6445333Y58666000D01*
X6521523Y58570762D01*
X6559619Y58380286D01*
X6559619Y58046953D01*
X6521523Y57856477D01*
X6445333Y57761239D01*
X6369142Y57713620D01*
X6216761Y57713620D01*
X6140571Y57761239D01*
X6064380Y57856477D01*
X6026285Y58046953D01*
X6026285Y58380286D01*
X6064380Y58570762D01*
X6140571Y58666000D01*
X6216761Y58713620D01*
X6826285Y58713620D02*
X7016761Y57713620D01*
X7169142Y58427905D01*
X7321523Y57713620D01*
X7512000Y58713620D01*
X7816761Y58237429D02*
X8083428Y58237429D01*
X8197714Y57713620D02*
X7816761Y57713620D01*
X7816761Y58713620D01*
X8197714Y58713620D01*
X8997714Y57713620D02*
X8731047Y58189810D01*
X8540571Y57713620D02*
X8540571Y58713620D01*
X8845333Y58713620D01*
X8921523Y58666000D01*
X8959619Y58618381D01*
X8997714Y58523143D01*
X8997714Y58380286D01*
X8959619Y58285048D01*
X8921523Y58237429D01*
X8845333Y58189810D01*
X8540571Y58189810D01*
D11*
X35256857Y40515143D02*
X35656857Y39315143D01*
X36056857Y40515143D01*
X36685428Y40515143D02*
X36914000Y40515143D01*
X37028285Y40458000D01*
X37142571Y40343715D01*
X37199714Y40115143D01*
X37199714Y39715143D01*
X37142571Y39486572D01*
X37028285Y39372286D01*
X36914000Y39315143D01*
X36685428Y39315143D01*
X36571142Y39372286D01*
X36456857Y39486572D01*
X36399714Y39715143D01*
X36399714Y40115143D01*
X36456857Y40343715D01*
X36571142Y40458000D01*
X36685428Y40515143D01*
X38285428Y39315143D02*
X37714000Y39315143D01*
X37714000Y40515143D01*
X38685428Y39772286D02*
X39599714Y39772286D01*
X39142571Y39315143D02*
X39142571Y40229429D01*
D13*
%TO.C,SW1*%
X6104000Y46098000D02*
X8824000Y46098000D01*
X8824000Y33798000D02*
X6104000Y33798000D01*
X18404000Y46098000D02*
X18404000Y33798000D01*
X10684000Y46098000D02*
X13824000Y46098000D01*
X18404000Y33798000D02*
X15684000Y33798000D01*
X6104000Y33798000D02*
X6104000Y46098000D01*
X13824000Y33798000D02*
X10684000Y33798000D01*
X15684000Y46098000D02*
X18404000Y46098000D01*
X16873050Y40048000D02*
G75*
G03*
X16873050Y40048000I-4579050J0D01*
G01*
%TO.C,SW6*%
X40684000Y13418000D02*
X39184000Y13418000D01*
X43184000Y7668000D02*
X43184000Y12168000D01*
X39184000Y6418000D02*
X40684000Y6418000D01*
X36684000Y12168000D02*
X36684000Y7668000D01*
%TO.C,TP1*%
X12376000Y55880000D02*
G75*
G03*
X12376000Y55880000I-1200000J0D01*
G01*
%TO.C,SW5*%
X43704000Y46108000D02*
X43704000Y33808000D01*
X31404000Y33808000D02*
X31404000Y46108000D01*
X31404000Y46108000D02*
X34124000Y46108000D01*
X35984000Y46108000D02*
X39124000Y46108000D01*
X34124000Y33808000D02*
X31404000Y33808000D01*
X39124000Y33808000D02*
X35984000Y33808000D01*
X40984000Y46108000D02*
X43704000Y46108000D01*
X43704000Y33808000D02*
X40984000Y33808000D01*
X42093050Y39858000D02*
G75*
G03*
X42093050Y39858000I-4579050J0D01*
G01*
%TO.C,TP3*%
X8820000Y55880000D02*
G75*
G03*
X8820000Y55880000I-1200000J0D01*
G01*
%TO.C,TP2*%
X10598000Y51816000D02*
G75*
G03*
X10598000Y51816000I-1200000J0D01*
G01*
%TO.C,SW4*%
X31044000Y21128000D02*
X18744000Y21128000D01*
X31044000Y33428000D02*
X31044000Y30708000D01*
X18744000Y25708000D02*
X18744000Y28848000D01*
X31044000Y28848000D02*
X31044000Y25708000D01*
X18744000Y33428000D02*
X31044000Y33428000D01*
X18744000Y21128000D02*
X18744000Y23848000D01*
X31044000Y23848000D02*
X31044000Y21128000D01*
X18744000Y30708000D02*
X18744000Y33428000D01*
X29373050Y27318000D02*
G75*
G03*
X29373050Y27318000I-4579050J0D01*
G01*
%TO.C,SW2*%
X18774000Y55988000D02*
X18774000Y58708000D01*
X18774000Y58708000D02*
X31074000Y58708000D01*
X31074000Y58708000D02*
X31074000Y55988000D01*
X18774000Y46408000D02*
X18774000Y49128000D01*
X31074000Y46408000D02*
X18774000Y46408000D01*
X31074000Y49128000D02*
X31074000Y46408000D01*
X31074000Y54128000D02*
X31074000Y50988000D01*
X18774000Y50988000D02*
X18774000Y54128000D01*
X29603050Y52518000D02*
G75*
G03*
X29603050Y52518000I-4579050J0D01*
G01*
%TO.C,SW3*%
X18774000Y33778800D02*
X18774000Y36498800D01*
X18774000Y43358800D02*
X18774000Y46078800D01*
X31074000Y46078800D02*
X31074000Y43358800D01*
X18774000Y46078800D02*
X31074000Y46078800D01*
X18774000Y38358800D02*
X18774000Y41498800D01*
X31074000Y36498800D02*
X31074000Y33778800D01*
X31074000Y33778800D02*
X18774000Y33778800D01*
X31074000Y41498800D02*
X31074000Y38358800D01*
X29603050Y39888800D02*
G75*
G03*
X29603050Y39888800I-4579050J0D01*
G01*
%TD*%
M02*
