M48
; DRILL file {KiCad (6.0.10)} date Sat Jan 21 19:04:40 2023
; FORMAT={-:-/ absolute / inch / decimal}
; #@! TF.CreationDate,2023-01-21T19:04:40+09:00
; #@! TF.GenerationSoftware,Kicad,Pcbnew,(6.0.10)
; #@! TF.FileFunction,Plated,1,2,PTH
FMAT,2
INCH
; #@! TA.AperFunction,Plated,PTH,ViaDrill
T1C0.0157
; #@! TA.AperFunction,Plated,PTH,ComponentDrill
T2C0.0295
; #@! TA.AperFunction,Plated,PTH,ComponentDrill
T3C0.0354
; #@! TA.AperFunction,Plated,PTH,ComponentDrill
T4C0.0394
; #@! TA.AperFunction,Plated,PTH,ComponentDrill
T5C0.0433
; #@! TA.AperFunction,Plated,PTH,ComponentDrill
T6C0.0512
%
G90
G05
T1
X0.4781Y0.137
X0.5745Y0.1206
X0.6495Y0.449
X1.071Y0.2956
T2
X0.1635Y1.5985
X0.1635Y1.5198
X0.1635Y1.441
X0.1635Y1.3623
X0.1635Y1.2836
X0.1635Y1.2048
X0.1635Y1.1261
X0.1635Y1.0473
X0.1635Y0.9686
X0.1739Y0.4506
X0.1739Y0.3718
X0.1739Y0.2931
X0.1739Y0.2143
X0.1739Y0.1356
T3
X0.3695Y0.3706
X0.3695Y0.2706
X0.3695Y0.1706
X1.1695Y0.3006
X1.1695Y0.2006
X1.1695Y0.1006
T4
X0.1345Y1.9306
X0.1345Y1.8006
X0.2445Y1.8656
X0.3745Y0.7756
X0.5245Y0.0656
X0.6245Y0.0656
X0.7245Y0.0656
X0.8245Y0.0656
X0.9245Y0.0656
X1.8325Y1.8376
X1.8325Y1.7376
X1.8325Y1.6376
X1.8325Y1.5376
X1.8325Y1.4376
X1.8325Y1.3376
X1.8325Y1.2376
X1.8325Y1.1376
X1.8325Y1.0376
T5
X1.4881Y0.404
X1.4881Y0.1481
X1.6653Y0.404
X1.6653Y0.1481
T6
X0.3863Y1.7035
X0.3863Y1.2114
X0.5831Y1.7035
X0.5831Y1.2114
X0.7383Y2.0543
X0.7383Y1.8574
X0.7383Y1.5558
X0.7383Y1.359
X0.7383Y1.0555
X0.7383Y0.8586
X1.2304Y2.0543
X1.2304Y1.8574
X1.2304Y1.5558
X1.2304Y1.359
X1.2304Y1.0555
X1.2304Y0.8586
X1.3847Y1.7039
X1.3847Y1.2117
X1.5816Y1.7039
X1.5816Y1.2117
T0
M30
