%TF.GenerationSoftware,KiCad,Pcbnew,(6.0.7)*%
%TF.CreationDate,2022-08-16T23:57:58+09:00*%
%TF.ProjectId,monitor_control_board,6d6f6e69-746f-4725-9f63-6f6e74726f6c,rev?*%
%TF.SameCoordinates,Original*%
%TF.FileFunction,Copper,L2,Bot*%
%TF.FilePolarity,Positive*%
%FSLAX46Y46*%
G04 Gerber Fmt 4.6, Leading zero omitted, Abs format (unit mm)*
G04 Created by KiCad (PCBNEW (6.0.7)) date 2022-08-16 23:57:58*
%MOMM*%
%LPD*%
G01*
G04 APERTURE LIST*
G04 Aperture macros list*
%AMRoundRect*
0 Rectangle with rounded corners*
0 $1 Rounding radius*
0 $2 $3 $4 $5 $6 $7 $8 $9 X,Y pos of 4 corners*
0 Add a 4 corners polygon primitive as box body*
4,1,4,$2,$3,$4,$5,$6,$7,$8,$9,$2,$3,0*
0 Add four circle primitives for the rounded corners*
1,1,$1+$1,$2,$3*
1,1,$1+$1,$4,$5*
1,1,$1+$1,$6,$7*
1,1,$1+$1,$8,$9*
0 Add four rect primitives between the rounded corners*
20,1,$1+$1,$2,$3,$4,$5,0*
20,1,$1+$1,$4,$5,$6,$7,0*
20,1,$1+$1,$6,$7,$8,$9,0*
20,1,$1+$1,$8,$9,$2,$3,0*%
G04 Aperture macros list end*
%TA.AperFunction,ComponentPad*%
%ADD10O,1.850000X3.048000*%
%TD*%
%TA.AperFunction,ComponentPad*%
%ADD11C,2.000000*%
%TD*%
%TA.AperFunction,ComponentPad*%
%ADD12O,3.048000X1.850000*%
%TD*%
%TA.AperFunction,ComponentPad*%
%ADD13R,1.700000X1.700000*%
%TD*%
%TA.AperFunction,ComponentPad*%
%ADD14O,1.700000X1.700000*%
%TD*%
%TA.AperFunction,ComponentPad*%
%ADD15RoundRect,0.250000X0.350000X0.625000X-0.350000X0.625000X-0.350000X-0.625000X0.350000X-0.625000X0*%
%TD*%
%TA.AperFunction,ComponentPad*%
%ADD16O,1.200000X1.750000*%
%TD*%
%TA.AperFunction,SMDPad,CuDef*%
%ADD17RoundRect,0.150000X0.700000X-0.150000X0.700000X0.150000X-0.700000X0.150000X-0.700000X-0.150000X0*%
%TD*%
%TA.AperFunction,SMDPad,CuDef*%
%ADD18RoundRect,0.250000X1.100000X-0.250000X1.100000X0.250000X-1.100000X0.250000X-1.100000X-0.250000X0*%
%TD*%
%TA.AperFunction,Conductor*%
%ADD19C,0.300000*%
%TD*%
%TA.AperFunction,Conductor*%
%ADD20C,0.250000*%
%TD*%
G04 APERTURE END LIST*
D10*
%TO.P,SW1,1,1*%
%TO.N,/VOL_M*%
X138557000Y-89027000D03*
X138557000Y-76527000D03*
%TO.P,SW1,2,2*%
%TO.N,GND*%
X143557000Y-89027000D03*
X143557000Y-76527000D03*
%TD*%
D11*
%TO.P,SW6,1,1*%
%TO.N,/POWER*%
X166420800Y-109476400D03*
X166420800Y-115976400D03*
%TO.P,SW6,2,2*%
%TO.N,GND*%
X170920800Y-115976400D03*
X170920800Y-109476400D03*
%TD*%
D10*
%TO.P,SW5,1,1*%
%TO.N,/VOL_P*%
X168819200Y-88962400D03*
X168819200Y-76462400D03*
%TO.P,SW5,2,2*%
%TO.N,GND*%
X163819200Y-76462400D03*
X163819200Y-88962400D03*
%TD*%
D12*
%TO.P,SW4,1,1*%
%TO.N,/DOWN*%
X147460800Y-97902400D03*
X159960800Y-97902400D03*
%TO.P,SW4,2,2*%
%TO.N,GND*%
X159960800Y-92902400D03*
X147460800Y-92902400D03*
%TD*%
%TO.P,SW2,1,1*%
%TO.N,/UP*%
X159930000Y-67654800D03*
X147430000Y-67654800D03*
%TO.P,SW2,2,2*%
%TO.N,GND*%
X159930000Y-72654800D03*
X147430000Y-72654800D03*
%TD*%
%TO.P,SW3,1,1*%
%TO.N,/SELECT*%
X147430000Y-80253200D03*
X159930000Y-80253200D03*
%TO.P,SW3,2,2*%
%TO.N,GND*%
X159930000Y-85253200D03*
X147430000Y-85253200D03*
%TD*%
D13*
%TO.P,J2,1,Pin_1*%
%TO.N,/SELECT*%
X131318000Y-97282000D03*
D14*
%TO.P,J2,2,Pin_2*%
%TO.N,/UP*%
X131318000Y-94742000D03*
%TO.P,J2,3,Pin_3*%
%TO.N,/DOWN*%
X131318000Y-92202000D03*
%TO.P,J2,4,Pin_4*%
%TO.N,/VOL_P*%
X131318000Y-89662000D03*
%TO.P,J2,5,Pin_5*%
%TO.N,/VOL_M*%
X131318000Y-87122000D03*
%TO.P,J2,6,Pin_6*%
%TO.N,/MENU*%
X131318000Y-84582000D03*
%TO.P,J2,7,Pin_7*%
%TO.N,/POWER*%
X131318000Y-82042000D03*
%TO.P,J2,8,Pin_8*%
%TO.N,GND*%
X131318000Y-79502000D03*
%TD*%
D15*
%TO.P,J3,1,Pin_1*%
%TO.N,/SELECT*%
X162052000Y-115570000D03*
D16*
%TO.P,J3,2,Pin_2*%
%TO.N,/UP*%
X160052000Y-115570000D03*
%TO.P,J3,3,Pin_3*%
%TO.N,/DOWN*%
X158052000Y-115570000D03*
%TO.P,J3,4,Pin_4*%
%TO.N,/VOL_P*%
X156052000Y-115570000D03*
%TO.P,J3,5,Pin_5*%
%TO.N,/VOL_M*%
X154052000Y-115570000D03*
%TO.P,J3,6,Pin_6*%
%TO.N,/MENU*%
X152052000Y-115570000D03*
%TO.P,J3,7,Pin_7*%
%TO.N,/POWER*%
X150052000Y-115570000D03*
%TO.P,J3,8,Pin_8*%
%TO.N,GND*%
X148052000Y-115570000D03*
%TD*%
D17*
%TO.P,J1,1,Pin_1*%
%TO.N,/SELECT*%
X143328000Y-116897000D03*
%TO.P,J1,2,Pin_2*%
%TO.N,/UP*%
X143328000Y-115647000D03*
%TO.P,J1,3,Pin_3*%
%TO.N,/DOWN*%
X143328000Y-114397000D03*
%TO.P,J1,4,Pin_4*%
%TO.N,/VOL_P*%
X143328000Y-113147000D03*
%TO.P,J1,5,Pin_5*%
%TO.N,/VOL_M*%
X143328000Y-111897000D03*
%TO.P,J1,6,Pin_6*%
%TO.N,/MENU*%
X143328000Y-110647000D03*
%TO.P,J1,7,Pin_7*%
%TO.N,/POWER*%
X143328000Y-109397000D03*
%TO.P,J1,8,Pin_8*%
%TO.N,GND*%
X143328000Y-108147000D03*
D18*
%TO.P,J1,MP*%
%TO.N,N/C*%
X140128000Y-106297000D03*
X140128000Y-118747000D03*
%TD*%
D19*
%TO.N,/SELECT*%
X162052000Y-115570000D02*
X162052000Y-117602000D01*
D20*
X134874000Y-115570000D02*
X134874000Y-100838000D01*
D19*
X159766000Y-119888000D02*
X146558000Y-119888000D01*
X143567000Y-116897000D02*
X143328000Y-116897000D01*
D20*
X136201000Y-116897000D02*
X134874000Y-115570000D01*
D19*
X146558000Y-119888000D02*
X143567000Y-116897000D01*
D20*
X147430000Y-80253200D02*
X159930000Y-80253200D01*
X143328000Y-116897000D02*
X136201000Y-116897000D01*
D19*
X162052000Y-117602000D02*
X159766000Y-119888000D01*
D20*
X134874000Y-100838000D02*
X131318000Y-97282000D01*
%TO.N,/UP*%
X144758000Y-116056000D02*
X144758000Y-117326000D01*
X135440000Y-114358000D02*
X135440000Y-98864000D01*
X147430000Y-67654800D02*
X159930000Y-67654800D01*
X135440000Y-98864000D02*
X131318000Y-94742000D01*
X146812000Y-119380000D02*
X157988000Y-119380000D01*
X136729000Y-115647000D02*
X135440000Y-114358000D01*
X144349000Y-115647000D02*
X144758000Y-116056000D01*
X160052000Y-117316000D02*
X160052000Y-115570000D01*
X143328000Y-115647000D02*
X144349000Y-115647000D01*
X157988000Y-119380000D02*
X160052000Y-117316000D01*
X143328000Y-115647000D02*
X136729000Y-115647000D01*
X144758000Y-117326000D02*
X146812000Y-119380000D01*
%TO.N,/VOL_P*%
X137785000Y-113147000D02*
X136398000Y-111760000D01*
X145658000Y-116953208D02*
X147068792Y-118364000D01*
X143328000Y-113147000D02*
X144389000Y-113147000D01*
X145658000Y-114416000D02*
X145658000Y-116953208D01*
X143328000Y-113147000D02*
X137785000Y-113147000D01*
X144389000Y-113147000D02*
X145658000Y-114416000D01*
X153258000Y-118364000D02*
X156052000Y-115570000D01*
X168819200Y-88962400D02*
X168819200Y-76462400D01*
X147068792Y-118364000D02*
X153258000Y-118364000D01*
X136398000Y-94742000D02*
X131318000Y-89662000D01*
X136398000Y-111760000D02*
X136398000Y-94742000D01*
%TO.N,/DOWN*%
X146940396Y-118872000D02*
X156464000Y-118872000D01*
X144369000Y-114397000D02*
X145208000Y-115236000D01*
X158052000Y-117284000D02*
X158052000Y-115570000D01*
X147460800Y-97902400D02*
X159960800Y-97902400D01*
X145208000Y-117139604D02*
X146940396Y-118872000D01*
X135890000Y-96774000D02*
X131318000Y-92202000D01*
X135890000Y-113030000D02*
X135890000Y-96774000D01*
X156464000Y-118872000D02*
X158052000Y-117284000D01*
X137257000Y-114397000D02*
X135890000Y-113030000D01*
X143328000Y-114397000D02*
X144369000Y-114397000D01*
X143328000Y-114397000D02*
X137257000Y-114397000D01*
X145208000Y-115236000D02*
X145208000Y-117139604D01*
%TO.N,/VOL_M*%
X136906000Y-110490000D02*
X136906000Y-94613604D01*
X144409000Y-111897000D02*
X146108000Y-113596000D01*
X134620000Y-90424000D02*
X131318000Y-87122000D01*
X151766000Y-117856000D02*
X154052000Y-115570000D01*
X138313000Y-111897000D02*
X136906000Y-110490000D01*
X147197188Y-117856000D02*
X151766000Y-117856000D01*
X146108000Y-113596000D02*
X146108000Y-116766812D01*
X143328000Y-111897000D02*
X138313000Y-111897000D01*
X138557000Y-89027000D02*
X138557000Y-76527000D01*
X143328000Y-111897000D02*
X144409000Y-111897000D01*
X136906000Y-94613604D02*
X134620000Y-92327604D01*
X146108000Y-116766812D02*
X147197188Y-117856000D01*
X134620000Y-92327604D02*
X134620000Y-90424000D01*
%TO.N,/POWER*%
X150052000Y-115000000D02*
X150052000Y-115570000D01*
X143328000Y-109397000D02*
X144449000Y-109397000D01*
X166420800Y-115976400D02*
X166420800Y-109476400D01*
X139623000Y-109397000D02*
X137922000Y-107696000D01*
X143328000Y-109397000D02*
X139623000Y-109397000D01*
X137922000Y-94356812D02*
X135636000Y-92070812D01*
X135636000Y-86360000D02*
X131318000Y-82042000D01*
X135636000Y-92070812D02*
X135636000Y-86360000D01*
X144449000Y-109397000D02*
X150052000Y-115000000D01*
X137922000Y-107696000D02*
X137922000Y-94356812D01*
%TO.N,GND*%
X147430000Y-72654800D02*
X147429200Y-72654800D01*
X143328000Y-108147000D02*
X169591400Y-108147000D01*
D19*
X131318000Y-79502000D02*
X136144000Y-84328000D01*
D20*
X159960800Y-92902400D02*
X159960800Y-92820800D01*
X163639200Y-88962400D02*
X159930000Y-85253200D01*
X163819200Y-81364000D02*
X163819200Y-76462400D01*
X159960800Y-92820800D02*
X163819200Y-88962400D01*
X143557000Y-89027000D02*
X143656200Y-89027000D01*
X159930000Y-85253200D02*
X163819200Y-81364000D01*
D19*
X136144000Y-91907060D02*
X143328000Y-99091060D01*
D20*
X143656200Y-89027000D02*
X147430000Y-85253200D01*
X170920800Y-109476400D02*
X170920800Y-115976400D01*
X147432400Y-92902400D02*
X143557000Y-89027000D01*
X163737600Y-76462400D02*
X159930000Y-72654800D01*
X163819200Y-88962400D02*
X163639200Y-88962400D01*
D19*
X136144000Y-84328000D02*
X136144000Y-91907060D01*
D20*
X159930000Y-72654800D02*
X147430000Y-72654800D01*
X163819200Y-88962400D02*
X163819200Y-102374800D01*
X147460800Y-92902400D02*
X159960800Y-92902400D01*
X147429200Y-72654800D02*
X143557000Y-76527000D01*
X163819200Y-102374800D02*
X170920800Y-109476400D01*
X143557000Y-89027000D02*
X143557000Y-76527000D01*
D19*
X143328000Y-99091060D02*
X143328000Y-108147000D01*
D20*
X163819200Y-76462400D02*
X163737600Y-76462400D01*
X169591400Y-108147000D02*
X170920800Y-109476400D01*
X147460800Y-92902400D02*
X147432400Y-92902400D01*
%TO.N,/MENU*%
X137414000Y-109474000D02*
X137414000Y-94485208D01*
X138587000Y-110647000D02*
X137414000Y-109474000D01*
X146558000Y-112776000D02*
X146558000Y-116580416D01*
X135128000Y-88392000D02*
X131318000Y-84582000D01*
X135128000Y-92199208D02*
X135128000Y-88392000D01*
X152052000Y-116172000D02*
X152052000Y-115570000D01*
X137414000Y-94485208D02*
X135128000Y-92199208D01*
X144429000Y-110647000D02*
X146558000Y-112776000D01*
X143328000Y-110647000D02*
X138587000Y-110647000D01*
X147325584Y-117348000D02*
X150876000Y-117348000D01*
X150876000Y-117348000D02*
X152052000Y-116172000D01*
X146558000Y-116580416D02*
X147325584Y-117348000D01*
X143328000Y-110647000D02*
X144429000Y-110647000D01*
%TD*%
M02*
