%TF.GenerationSoftware,KiCad,Pcbnew,(6.0.7)*%
%TF.CreationDate,2022-08-18T01:15:56+09:00*%
%TF.ProjectId,monitor_control_board,6d6f6e69-746f-4725-9f63-6f6e74726f6c,rev?*%
%TF.SameCoordinates,Original*%
%TF.FileFunction,Copper,L1,Top*%
%TF.FilePolarity,Positive*%
%FSLAX46Y46*%
G04 Gerber Fmt 4.6, Leading zero omitted, Abs format (unit mm)*
G04 Created by KiCad (PCBNEW (6.0.7)) date 2022-08-18 01:15:56*
%MOMM*%
%LPD*%
G01*
G04 APERTURE LIST*
G04 Aperture macros list*
%AMRoundRect*
0 Rectangle with rounded corners*
0 $1 Rounding radius*
0 $2 $3 $4 $5 $6 $7 $8 $9 X,Y pos of 4 corners*
0 Add a 4 corners polygon primitive as box body*
4,1,4,$2,$3,$4,$5,$6,$7,$8,$9,$2,$3,0*
0 Add four circle primitives for the rounded corners*
1,1,$1+$1,$2,$3*
1,1,$1+$1,$4,$5*
1,1,$1+$1,$6,$7*
1,1,$1+$1,$8,$9*
0 Add four rect primitives between the rounded corners*
20,1,$1+$1,$2,$3,$4,$5,0*
20,1,$1+$1,$4,$5,$6,$7,0*
20,1,$1+$1,$6,$7,$8,$9,0*
20,1,$1+$1,$8,$9,$2,$3,0*%
G04 Aperture macros list end*
%TA.AperFunction,ComponentPad*%
%ADD10O,1.850000X3.048000*%
%TD*%
%TA.AperFunction,ComponentPad*%
%ADD11C,2.000000*%
%TD*%
%TA.AperFunction,ComponentPad*%
%ADD12O,3.048000X1.850000*%
%TD*%
%TA.AperFunction,ComponentPad*%
%ADD13R,1.700000X1.700000*%
%TD*%
%TA.AperFunction,ComponentPad*%
%ADD14O,1.700000X1.700000*%
%TD*%
%TA.AperFunction,ComponentPad*%
%ADD15RoundRect,0.250000X0.350000X0.625000X-0.350000X0.625000X-0.350000X-0.625000X0.350000X-0.625000X0*%
%TD*%
%TA.AperFunction,ComponentPad*%
%ADD16O,1.200000X1.750000*%
%TD*%
%TA.AperFunction,Conductor*%
%ADD17C,0.250000*%
%TD*%
%TA.AperFunction,Conductor*%
%ADD18C,0.300000*%
%TD*%
G04 APERTURE END LIST*
D10*
%TO.P,SW1,1,1*%
%TO.N,/VOL_M*%
X138557000Y-89027000D03*
X138557000Y-76527000D03*
%TO.P,SW1,2,2*%
%TO.N,GND*%
X143557000Y-89027000D03*
X143557000Y-76527000D03*
%TD*%
D11*
%TO.P,SW6,1,1*%
%TO.N,/POWER*%
X166420800Y-109476400D03*
X166420800Y-115976400D03*
%TO.P,SW6,2,2*%
%TO.N,GND*%
X170920800Y-115976400D03*
X170920800Y-109476400D03*
%TD*%
%TO.P,TP1,1,1*%
%TO.N,/MENU*%
X139954000Y-66802000D03*
%TD*%
D10*
%TO.P,SW5,1,1*%
%TO.N,/VOL_P*%
X168819200Y-88962400D03*
X168819200Y-76462400D03*
%TO.P,SW5,2,2*%
%TO.N,GND*%
X163819200Y-76462400D03*
X163819200Y-88962400D03*
%TD*%
D11*
%TO.P,TP3,1,1*%
%TO.N,/POWER*%
X136398000Y-66802000D03*
%TD*%
%TO.P,TP2,1,1*%
%TO.N,GND*%
X138176000Y-69850000D03*
%TD*%
D12*
%TO.P,SW4,1,1*%
%TO.N,/DOWN*%
X147460800Y-97902400D03*
X159960800Y-97902400D03*
%TO.P,SW4,2,2*%
%TO.N,GND*%
X159960800Y-92902400D03*
X147460800Y-92902400D03*
%TD*%
%TO.P,SW2,1,1*%
%TO.N,/UP*%
X159930000Y-67654800D03*
X147430000Y-67654800D03*
%TO.P,SW2,2,2*%
%TO.N,GND*%
X159930000Y-72654800D03*
X147430000Y-72654800D03*
%TD*%
%TO.P,SW3,1,1*%
%TO.N,/SELECT*%
X147430000Y-80253200D03*
X159930000Y-80253200D03*
%TO.P,SW3,2,2*%
%TO.N,GND*%
X159930000Y-85253200D03*
X147430000Y-85253200D03*
%TD*%
D13*
%TO.P,J2,1,Pin_1*%
%TO.N,/SELECT*%
X131318000Y-97282000D03*
D14*
%TO.P,J2,2,Pin_2*%
%TO.N,/UP*%
X131318000Y-94742000D03*
%TO.P,J2,3,Pin_3*%
%TO.N,/DOWN*%
X131318000Y-92202000D03*
%TO.P,J2,4,Pin_4*%
%TO.N,/VOL_P*%
X131318000Y-89662000D03*
%TO.P,J2,5,Pin_5*%
%TO.N,/VOL_M*%
X131318000Y-87122000D03*
%TO.P,J2,6,Pin_6*%
%TO.N,/MENU*%
X131318000Y-84582000D03*
%TO.P,J2,7,Pin_7*%
%TO.N,/POWER*%
X131318000Y-82042000D03*
%TO.P,J2,8,Pin_8*%
%TO.N,GND*%
X131318000Y-79502000D03*
%TD*%
D15*
%TO.P,J3,1,Pin_1*%
%TO.N,/SELECT*%
X161290000Y-107594400D03*
D16*
%TO.P,J3,2,Pin_2*%
%TO.N,/UP*%
X159290000Y-107594400D03*
%TO.P,J3,3,Pin_3*%
%TO.N,/DOWN*%
X157290000Y-107594400D03*
%TO.P,J3,4,Pin_4*%
%TO.N,/VOL_P*%
X155290000Y-107594400D03*
%TO.P,J3,5,Pin_5*%
%TO.N,/VOL_M*%
X153290000Y-107594400D03*
%TO.P,J3,6,Pin_6*%
%TO.N,/MENU*%
X151290000Y-107594400D03*
%TO.P,J3,7,Pin_7*%
%TO.N,/POWER*%
X149290000Y-107594400D03*
%TO.P,J3,8,Pin_8*%
%TO.N,GND*%
X147290000Y-107594400D03*
%TD*%
D17*
%TO.N,/SELECT*%
X154432000Y-87122000D02*
X159930000Y-81624000D01*
X154432000Y-96266000D02*
X154432000Y-87122000D01*
X159930000Y-81624000D02*
X159930000Y-80253200D01*
X131318000Y-97282000D02*
X134366000Y-100330000D01*
X134366000Y-100330000D02*
X150368000Y-100330000D01*
X150368000Y-100330000D02*
X154432000Y-96266000D01*
%TO.N,/VOL_P*%
X138430000Y-82550000D02*
X149352000Y-82550000D01*
X149352000Y-82550000D02*
X153162000Y-78740000D01*
X131318000Y-89662000D02*
X138430000Y-82550000D01*
X153162000Y-78740000D02*
X166541600Y-78740000D01*
X166541600Y-78740000D02*
X168819200Y-76462400D01*
%TO.N,/DOWN*%
X141760400Y-92202000D02*
X147460800Y-97902400D01*
X131318000Y-92202000D02*
X141760400Y-92202000D01*
%TO.N,/VOL_M*%
X138557000Y-79883000D02*
X138557000Y-76527000D01*
X131318000Y-87122000D02*
X138557000Y-79883000D01*
%TO.N,/POWER*%
X133299200Y-69900800D02*
X136398000Y-66802000D01*
X131318000Y-82042000D02*
X133299200Y-80060800D01*
X133299200Y-80060800D02*
X133299200Y-69900800D01*
D18*
%TO.N,GND*%
X144625200Y-69850000D02*
X147430000Y-72654800D01*
X138176000Y-69850000D02*
X144625200Y-69850000D01*
D17*
%TO.N,/MENU*%
X137490200Y-68097400D02*
X134162800Y-71424800D01*
X138633200Y-68097400D02*
X137490200Y-68097400D01*
X134162800Y-81737200D02*
X131318000Y-84582000D01*
X134162800Y-71424800D02*
X134162800Y-81737200D01*
X139928600Y-66802000D02*
X138633200Y-68097400D01*
X139954000Y-66802000D02*
X139928600Y-66802000D01*
%TD*%
M02*
