%TF.GenerationSoftware,KiCad,Pcbnew,(6.0.9)*%
%TF.CreationDate,2023-01-09T21:15:12+09:00*%
%TF.ProjectId,monitor_control_board,6d6f6e69-746f-4725-9f63-6f6e74726f6c,rev?*%
%TF.SameCoordinates,PX7acff10PY74ffa90*%
%TF.FileFunction,Profile,NP*%
%FSLAX46Y46*%
G04 Gerber Fmt 4.6, Leading zero omitted, Abs format (unit mm)*
G04 Created by KiCad (PCBNEW (6.0.9)) date 2023-01-09 21:15:12*
%MOMM*%
%LPD*%
G01*
G04 APERTURE LIST*
%ADD10C,0.150000*%
%TA.AperFunction,Profile*%
%ADD11C,0.264583*%
%TD*%
G04 APERTURE END LIST*
D10*
X48583904Y14109239D02*
X49155333Y14109239D01*
X49269619Y14147334D01*
X49345809Y14223524D01*
X49383904Y14337810D01*
X49383904Y14414000D01*
X49383904Y13347334D02*
X49383904Y13728286D01*
X48583904Y13728286D01*
X49307714Y12623524D02*
X49345809Y12661620D01*
X49383904Y12775905D01*
X49383904Y12852096D01*
X49345809Y12966381D01*
X49269619Y13042572D01*
X49193428Y13080667D01*
X49041047Y13118762D01*
X48926761Y13118762D01*
X48774380Y13080667D01*
X48698190Y13042572D01*
X48622000Y12966381D01*
X48583904Y12852096D01*
X48583904Y12775905D01*
X48622000Y12661620D01*
X48660095Y12623524D01*
X48583904Y12052096D02*
X49155333Y12052096D01*
X49269619Y12090191D01*
X49345809Y12166381D01*
X49383904Y12280667D01*
X49383904Y12356858D01*
X49383904Y11290191D02*
X49383904Y11671143D01*
X48583904Y11671143D01*
X49307714Y10566381D02*
X49345809Y10604477D01*
X49383904Y10718762D01*
X49383904Y10794953D01*
X49345809Y10909239D01*
X49269619Y10985429D01*
X49193428Y11023524D01*
X49041047Y11061620D01*
X48926761Y11061620D01*
X48774380Y11023524D01*
X48698190Y10985429D01*
X48622000Y10909239D01*
X48583904Y10794953D01*
X48583904Y10718762D01*
X48622000Y10604477D01*
X48660095Y10566381D01*
X48583904Y9994953D02*
X49155333Y9994953D01*
X49269619Y10033048D01*
X49345809Y10109239D01*
X49383904Y10223524D01*
X49383904Y10299715D01*
X49383904Y9233048D02*
X49383904Y9614000D01*
X48583904Y9614000D01*
X49307714Y8509239D02*
X49345809Y8547334D01*
X49383904Y8661620D01*
X49383904Y8737810D01*
X49345809Y8852096D01*
X49269619Y8928286D01*
X49193428Y8966381D01*
X49041047Y9004477D01*
X48926761Y9004477D01*
X48774380Y8966381D01*
X48698190Y8928286D01*
X48622000Y8852096D01*
X48583904Y8737810D01*
X48583904Y8661620D01*
X48622000Y8547334D01*
X48660095Y8509239D01*
X48583904Y7937810D02*
X49155333Y7937810D01*
X49269619Y7975905D01*
X49345809Y8052096D01*
X49383904Y8166381D01*
X49383904Y8242572D01*
X49383904Y7175905D02*
X49383904Y7556858D01*
X48583904Y7556858D01*
X49307714Y6452096D02*
X49345809Y6490191D01*
X49383904Y6604477D01*
X49383904Y6680667D01*
X49345809Y6794953D01*
X49269619Y6871143D01*
X49193428Y6909239D01*
X49041047Y6947334D01*
X48926761Y6947334D01*
X48774380Y6909239D01*
X48698190Y6871143D01*
X48622000Y6794953D01*
X48583904Y6680667D01*
X48583904Y6604477D01*
X48622000Y6490191D01*
X48660095Y6452096D01*
D11*
X46081408Y61425084D02*
X46115575Y61370091D01*
X46050867Y3368004D02*
X46036989Y3338733D01*
X25012037Y39429271D02*
X25044076Y39434504D01*
X47557751Y18717273D02*
X47504038Y18755880D01*
X3826637Y62401565D02*
X3802555Y62443425D01*
X1967812Y17723654D02*
X1978990Y17675288D01*
X46882723Y3923002D02*
X46818225Y3916722D01*
X39561876Y9607465D02*
X39577592Y9589352D01*
X47844000Y3368004D02*
X47813458Y3425091D01*
X39921729Y9426481D02*
X39947432Y9425832D01*
X46024057Y18309009D02*
X46012084Y18278850D01*
X47947432Y61925085D02*
X47945216Y61991724D01*
X2275164Y61185159D02*
X2311444Y61153741D01*
X2240438Y17218262D02*
X2275164Y17185164D01*
X3506458Y62753976D02*
X3465891Y62779976D01*
X25447432Y39925086D02*
X25447432Y39925086D01*
X47882783Y17571331D02*
X47893784Y17601899D01*
X2429052Y18780021D02*
X2388484Y18754024D01*
X3886669Y18268798D02*
X3868756Y18314191D01*
X3776542Y62483982D02*
X3748661Y62523172D01*
X2470923Y62804083D02*
X2429052Y62780017D01*
X47927803Y2727810D02*
X47933746Y2760084D01*
X3927061Y62126547D02*
X3915884Y62174910D01*
X46173393Y62558244D02*
X46153262Y62532796D01*
X40095972Y10401905D02*
X40072266Y10408630D01*
X24642274Y39528995D02*
X24669131Y39509691D01*
X39822599Y9441542D02*
X39846767Y9435970D01*
X2207329Y61252973D02*
X2240438Y61218257D01*
X24457248Y39826446D02*
X24464741Y39794627D01*
X3927045Y61723571D02*
X3935855Y61772800D01*
X25437620Y40023726D02*
X25430126Y40055545D01*
X3148960Y62904384D02*
X3099727Y62913176D01*
X39561876Y10242709D02*
X39547030Y10223850D01*
X46024057Y62309003D02*
X46012084Y62278844D01*
X2092361Y62443484D02*
X2068276Y62401624D01*
X47741604Y2317380D02*
X47760881Y2343443D01*
X46115575Y17370096D02*
X46153262Y17317379D01*
X2998842Y16926775D02*
X3049613Y16930633D01*
X46628095Y60977418D02*
X46690700Y60958577D01*
X2275224Y18665071D02*
X2240495Y18631975D01*
X47933746Y61760079D02*
X47938638Y61792625D01*
X45982050Y61664167D02*
X46001083Y61601894D01*
X2650181Y62879775D02*
X2603726Y62864063D01*
X34947440Y14924527D02*
X34947440Y-74703D01*
X3244771Y18879754D02*
X3197328Y18893225D01*
X40424777Y10073594D02*
X40416896Y10096795D01*
X2998924Y18923399D02*
X2947478Y18924702D01*
X24570899Y39596101D02*
X24593106Y39572291D01*
X40283360Y10294685D02*
X40265224Y10310373D01*
X45949652Y17858452D02*
X45956230Y17792631D01*
X25265462Y39539250D02*
X25277951Y39549892D01*
X47700501Y2267121D02*
X47721473Y2291932D01*
X46447432Y62791112D02*
X46418776Y62773925D01*
X47870810Y3309007D02*
X47844000Y3368004D01*
X39486942Y10119471D02*
X39477972Y10096797D01*
X2008233Y18268854D02*
X1992499Y18222406D01*
X45991068Y62217322D02*
X45982050Y62186003D01*
X24850791Y40415667D02*
X24819067Y40408341D01*
X47779291Y2370097D02*
X47796822Y2397320D01*
X40386844Y10163114D02*
X40374795Y10184021D01*
X47813458Y3425091D02*
X47779291Y3480083D01*
X24850791Y39434504D02*
X24882830Y39429271D01*
X24726842Y40373800D02*
X24697432Y40358100D01*
X3868756Y62314186D02*
X3848725Y62358464D01*
X3465822Y17070158D02*
X3506390Y17096155D01*
X3654378Y61218200D02*
X3687490Y61252913D01*
X46337115Y2132910D02*
X46390829Y2094303D01*
X46363604Y18736986D02*
X46337115Y18717273D01*
X46690700Y62891593D02*
X46628095Y62872753D01*
X25447154Y39908381D02*
X25447432Y39925086D01*
X2388484Y18754024D02*
X2349281Y18726158D01*
X3776542Y18483987D02*
X3748661Y18523177D01*
X47266771Y62872753D02*
X47204165Y62891593D01*
X40119185Y10394059D02*
X40095972Y10401905D01*
X2008233Y62268849D02*
X1992499Y62222402D01*
X3654378Y17218204D02*
X3687490Y17252917D01*
X47656088Y61219495D02*
X47678702Y61242964D01*
X24787764Y40398920D02*
X24756987Y40387407D01*
X3545592Y61124017D02*
X3583367Y61153689D01*
X2175899Y17289249D02*
X2207329Y17252978D01*
X2697545Y16956955D02*
X2745914Y16945792D01*
X25430125Y39794627D02*
X25434127Y39810457D01*
X3946114Y17873604D02*
X3947437Y17925049D01*
X-52566Y14924527D02*
X34947440Y14924527D01*
X2068276Y62401624D02*
X2046184Y62358523D01*
X46754147Y3906255D02*
X46690700Y3891601D01*
X47328325Y17000445D02*
X47388616Y17027659D01*
X3291147Y16986112D02*
X3336551Y17004006D01*
X1978990Y61675285D02*
X1992475Y61627847D01*
X24506555Y40160940D02*
X24499150Y40146543D01*
X3946118Y61976527D02*
X3942241Y62027293D01*
X24464741Y39794627D02*
X24474258Y39763490D01*
X25447432Y39925086D02*
X25447436Y39925086D01*
X46098045Y62452856D02*
X46081408Y62425086D01*
X47857878Y17511446D02*
X47870810Y17541172D01*
X47608469Y62675473D02*
X47557751Y62717266D01*
X24593106Y40277881D02*
X24581799Y40266146D01*
X46262194Y62653438D02*
X46238778Y62630675D01*
X45956230Y18057551D02*
X45952402Y18024754D01*
X1947437Y17925130D02*
X1948755Y17873684D01*
X24447434Y39925086D02*
X24448542Y39891766D01*
X40246343Y9524980D02*
X40265224Y9539798D01*
X25434127Y39810457D02*
X25437618Y39826446D01*
X24451831Y39858856D02*
X24457248Y39826446D01*
X46337115Y61132904D02*
X46390829Y61094297D01*
X46024057Y2541173D02*
X46050867Y2482175D01*
X2092319Y17406761D02*
X2118332Y17366203D01*
X47388616Y2027663D02*
X47447436Y2059064D01*
X3802555Y18443430D02*
X3776542Y18483987D01*
X1959006Y17772883D02*
X1967812Y17723654D01*
X46447432Y3791119D02*
X46447432Y3791119D01*
X39752993Y9465049D02*
X39775681Y9456113D01*
X1947437Y17925130D02*
X1947437Y17925130D01*
X46286397Y18675479D02*
X46262194Y18653444D01*
X47076640Y3916722D02*
X47012141Y3923002D01*
X3802512Y17406691D02*
X3826598Y17448551D01*
X40226749Y10339107D02*
X40206474Y10352089D01*
X3687545Y62597203D02*
X3654436Y62631918D01*
X45956230Y3057550D02*
X45952402Y3024753D01*
X1947437Y61925126D02*
X1947437Y61925126D01*
X3197328Y18893225D02*
X3148960Y18904387D01*
X3197249Y16956933D02*
X3244693Y16970400D01*
X47920822Y61695827D02*
X47927803Y61727805D01*
X24460739Y40039715D02*
X24457248Y40023726D01*
X24492211Y40131907D02*
X24485745Y40117044D01*
X3336626Y62846138D02*
X3291224Y62864036D01*
X40407926Y10119469D02*
X40397898Y10141586D01*
X40141873Y10385123D02*
X40119185Y10394059D01*
X2207383Y62597258D02*
X2175951Y62560989D01*
X2558248Y17004040D02*
X2603649Y16986141D01*
X39450085Y9874025D02*
X39453296Y9849031D01*
X3545592Y17124021D02*
X3583367Y17153693D01*
X25107102Y39451251D02*
X25137879Y39462765D01*
X1959018Y18077375D02*
X1952641Y18027345D01*
X39822599Y10408630D02*
X39798893Y10401905D01*
X39688393Y9498083D02*
X39709318Y9486065D01*
X47583491Y17153417D02*
X47608469Y17174701D01*
X47844000Y61482170D02*
X47857878Y61511441D01*
X25197434Y40358100D02*
X25197434Y40358100D01*
X2311444Y61153741D02*
X2349216Y61124066D01*
X47204165Y16958578D02*
X47266771Y16977418D01*
X40444783Y9976153D02*
X40441571Y10001146D01*
X47140718Y60943924D02*
X47204165Y60958577D01*
X47328325Y62849726D02*
X47266771Y62872753D01*
X46194365Y2267121D02*
X46238778Y2219501D01*
X47829189Y17453382D02*
X47844000Y17482175D01*
X46390829Y62755873D02*
X46363604Y62736980D01*
X47942466Y61825422D02*
X47945216Y61858446D01*
X40317275Y10260821D02*
X40300721Y10278157D01*
X2026117Y61536002D02*
X2046149Y61491721D01*
X47844000Y17482175D02*
X47857878Y17511446D01*
X40265224Y9539798D02*
X40283360Y9555487D01*
X47656088Y17219499D02*
X47678702Y17242968D01*
X39520073Y9666153D02*
X39533085Y9645897D01*
X45967064Y62122366D02*
X45961121Y62090092D01*
X39896363Y9428408D02*
X39921729Y9426481D01*
X47927803Y3122370D02*
X47912817Y3186008D01*
X24655519Y40331033D02*
X24642274Y40321176D01*
X45982050Y3186008D02*
X45974045Y3154348D01*
X2470851Y17046133D02*
X2513961Y17024058D01*
X3148879Y60945770D02*
X3197249Y60956928D01*
X2046149Y17491725D02*
X2068237Y17448622D01*
X25430126Y40055545D02*
X25420610Y40086681D01*
X47844000Y62368000D02*
X47813458Y62425086D01*
X47857878Y2511447D02*
X47870810Y2541173D01*
X24915079Y39426131D02*
X24947434Y39425084D01*
X47012141Y60927177D02*
X47076640Y60933457D01*
X45947436Y17925091D02*
X45949652Y17858452D01*
X45949652Y17991730D02*
X45947992Y17958502D01*
X46098045Y3452860D02*
X46081408Y3425091D01*
X39709318Y9486065D02*
X39730862Y9475043D01*
X46133985Y62506733D02*
X46115575Y62480079D01*
X47947432Y2925091D02*
X47947432Y2925091D01*
X47933746Y17760084D02*
X47938638Y17792631D01*
X45947992Y2958501D02*
X45947436Y2925091D01*
X24697432Y39492072D02*
X24697432Y39492072D01*
X46818225Y18916722D02*
X46754147Y18906255D01*
X45947436Y61925085D02*
X45949652Y61858446D01*
X47903800Y61632848D02*
X47912817Y61664167D01*
X2514034Y18826158D02*
X2470923Y18804087D01*
X47204165Y3891601D02*
X47140718Y3906255D01*
X46001083Y17601899D02*
X46024057Y17541172D01*
X3380913Y62826120D02*
X3336626Y62846138D01*
X24474258Y39763490D02*
X24485745Y39733127D01*
X3049613Y60930628D02*
X3099646Y60936982D01*
X2558323Y62846169D02*
X2514034Y62826154D01*
X39508023Y10163115D02*
X39496969Y10141587D01*
X45952402Y18024754D02*
X45949652Y17991730D01*
X24499150Y40146543D02*
X24492211Y40131907D01*
X40386844Y9687058D02*
X40397898Y9708585D01*
X45947992Y17958502D02*
X45947436Y17925091D01*
X40164004Y10375129D02*
X40141873Y10385123D01*
X25380446Y39675085D02*
X25388311Y39689232D01*
X2845179Y16930642D02*
X2895950Y16926780D01*
X47870810Y2541173D02*
X47882783Y2571331D01*
X46418776Y62773925D02*
X46390829Y62755873D01*
X47447436Y3791119D02*
X47388616Y3822520D01*
X46036989Y62338729D02*
X46024057Y62309003D01*
X25252592Y39528995D02*
X25265462Y39539250D01*
X47012141Y62922993D02*
X46947432Y62925087D01*
X24514421Y40175086D02*
X24506555Y40160940D01*
X46337115Y17132907D02*
X46390829Y17094299D01*
X24448542Y39958405D02*
X24447712Y39941791D01*
X45991068Y18217328D02*
X45982050Y18186009D01*
X3380913Y18826122D02*
X3336626Y18846140D01*
X47938638Y2792631D02*
X47942466Y2825428D01*
X39629643Y9539799D02*
X39648524Y9524981D01*
X47388616Y62822512D02*
X47328325Y62849726D01*
X47204165Y62891593D02*
X47140718Y62906247D01*
X47583491Y61153414D02*
X47608469Y61174698D01*
X39947432Y9425832D02*
X39947432Y9425832D01*
X47447436Y61059058D02*
X47447436Y61059058D01*
X3336626Y18846140D02*
X3291224Y18864038D01*
X25380446Y40175086D02*
X25363363Y40202582D01*
X1952632Y17822914D02*
X1959006Y17772883D01*
X2845179Y60930636D02*
X2895950Y60926775D01*
X45949652Y2858452D02*
X45956230Y2792631D01*
X2947478Y18924702D02*
X2896032Y18923404D01*
X24485745Y39733127D02*
X24499150Y39703629D01*
X46194365Y61267115D02*
X46238778Y61219495D01*
X25313068Y39584025D02*
X25323967Y39596101D01*
X46024057Y61541168D02*
X46050867Y61482170D01*
X47700501Y61267115D02*
X47721473Y61291926D01*
X24756987Y39462765D02*
X24787764Y39451251D01*
X2514034Y62826154D02*
X2470923Y62804083D01*
X40407926Y9730702D02*
X40416896Y9753376D01*
X46081408Y17425089D02*
X46115575Y17370096D01*
X3049694Y62919534D02*
X2998924Y62923396D01*
X47504038Y18755880D02*
X47447436Y18791119D01*
X46818225Y3916722D02*
X46754147Y3906255D01*
X45974045Y18154349D02*
X45967064Y18122371D01*
X46447432Y61059058D02*
X46447432Y61059058D01*
X47076640Y16933457D02*
X47140718Y16943924D01*
X24604813Y40289262D02*
X24593106Y40277881D01*
X3902375Y17627773D02*
X3915863Y17675210D01*
X47893784Y3248281D02*
X47870810Y3309007D01*
X24947434Y39425084D02*
X24979788Y39426131D01*
X46081408Y3425091D02*
X46065678Y3396798D01*
X47870810Y62309003D02*
X47844000Y62368000D01*
X47760881Y2343443D02*
X47779291Y2370097D01*
X47447436Y18791119D02*
X47447436Y18791119D01*
X47947432Y2925091D02*
X47947432Y2925091D01*
X39775681Y9456113D02*
X39798893Y9448267D01*
X47844000Y18368006D02*
X47813458Y18425092D01*
X3802512Y61406687D02*
X3826598Y61448547D01*
X45961121Y62090092D02*
X45956230Y62057545D01*
X47388616Y18822520D02*
X47328325Y18849734D01*
X47945216Y61991724D02*
X47938638Y62057545D01*
X49947436Y-74703D02*
X34947440Y-74703D01*
X1967829Y18126604D02*
X1959018Y18077375D01*
X47447436Y17059060D02*
X47476092Y17076247D01*
X47882783Y61571326D02*
X47893784Y61601894D01*
X46286397Y2174703D02*
X46337115Y2132910D01*
X2311507Y18696486D02*
X2275224Y18665071D01*
X47700501Y62583055D02*
X47656088Y62630675D01*
X45956230Y61792625D02*
X45967064Y61727805D01*
X3868725Y61535927D02*
X3886641Y61581322D01*
X47204165Y18891601D02*
X47140718Y18906255D01*
X39477972Y10096797D02*
X39470091Y10073596D01*
X49947436Y64925481D02*
X49947436Y-74703D01*
X45967064Y2727810D02*
X45982050Y2664172D01*
X25444949Y39875254D02*
X25446324Y39891766D01*
X39470091Y10073596D02*
X39463330Y10049901D01*
X1992475Y61627847D02*
X2008205Y61581398D01*
X47870810Y61541168D02*
X47882783Y61571326D01*
X47632673Y17196736D02*
X47656088Y17219499D01*
X25437618Y39826446D02*
X25440589Y39842583D01*
X46628095Y18872761D02*
X46566542Y18849734D01*
X3942241Y62027293D02*
X3935868Y62077321D01*
X24629404Y40310922D02*
X24616915Y40300280D01*
X39453296Y10001149D02*
X39450085Y9976156D01*
X40206474Y9498082D02*
X40226749Y9511065D01*
X46216165Y3607212D02*
X46194365Y3583061D01*
X47076640Y18916722D02*
X47012141Y18923002D01*
X46390829Y18755880D02*
X46363604Y18736986D01*
X25415108Y39748206D02*
X25420608Y39763490D01*
X3776496Y61366131D02*
X3802512Y61406687D01*
X46153262Y2317380D02*
X46194365Y2267121D01*
X47741604Y18532802D02*
X47700501Y18583062D01*
X39871366Y10418590D02*
X39846767Y10414202D01*
X39520073Y10184022D02*
X39508023Y10163115D01*
X47656088Y62630675D02*
X47608469Y62675473D01*
X47700501Y17267119D02*
X47721473Y17291931D01*
X46447432Y18791119D02*
X46418776Y18773932D01*
X39775681Y10394059D02*
X39752993Y10385123D01*
X47608469Y2174703D02*
X47632673Y2196738D01*
X25402655Y39718264D02*
X25409121Y39733127D01*
X25363363Y40202582D02*
X25344519Y40228941D01*
X1992499Y62222402D02*
X1979010Y62174964D01*
X2068237Y61448618D02*
X2092319Y61406757D01*
X2118377Y62484040D02*
X2092361Y62443484D01*
X25409122Y40117044D02*
X25395717Y40146543D01*
X47608469Y61174698D02*
X47632673Y61196732D01*
X47656088Y18630681D02*
X47608469Y18675479D01*
X25211762Y39500665D02*
X25225735Y39509691D01*
X46173393Y3558249D02*
X46153262Y3532801D01*
X40095972Y9448267D02*
X40119185Y9456113D01*
X47912817Y2664172D02*
X47920822Y2695832D01*
X25420608Y39763490D02*
X25425616Y39778968D01*
X3947437Y17925049D02*
X3947437Y17925091D01*
X47632673Y2196738D02*
X47656088Y2219501D01*
X46115575Y3480083D02*
X46098045Y3452860D01*
X40447436Y9925088D02*
X40446748Y9950790D01*
X46001083Y62248277D02*
X45991068Y62217322D01*
X2118332Y17366203D02*
X2146213Y17327011D01*
X3927045Y17723575D02*
X3935855Y17772804D01*
X47140718Y16943924D02*
X47204165Y16958578D01*
X2895950Y60926775D02*
X2947396Y60925472D01*
X46001083Y2601899D02*
X46024057Y2541173D01*
X46818225Y62916713D02*
X46754147Y62906247D01*
X24581799Y40266146D02*
X24570899Y40254071D01*
X47583491Y2153420D02*
X47608469Y2174703D01*
X24464741Y40055545D02*
X24460739Y40039715D01*
X3583367Y17153693D02*
X3619649Y17185108D01*
X45982050Y62186003D02*
X45974045Y62154344D01*
X40361782Y10204277D02*
X40347837Y10223849D01*
X24522739Y40188971D02*
X24514421Y40175086D01*
X46050867Y62368000D02*
X46036989Y62338729D01*
X2146262Y62523229D02*
X2118377Y62484040D01*
X1967812Y61723650D02*
X1978990Y61675285D01*
X47328325Y2000449D02*
X47388616Y2027663D01*
X46081408Y62425086D02*
X46065678Y62396793D01*
X39547030Y10223850D02*
X39533085Y10204278D01*
X47938638Y62057545D02*
X47927803Y62122366D01*
X3099646Y16936987D02*
X3148879Y16945774D01*
X1992499Y18222406D02*
X1979010Y18174969D01*
X46882723Y62922993D02*
X46818225Y62916713D01*
X39998501Y10421764D02*
X39973135Y10423691D01*
X47927803Y18122371D02*
X47912817Y18186009D01*
X46447432Y61059058D02*
X46506251Y61027658D01*
X40283360Y9555487D02*
X40300721Y9572015D01*
X1952641Y18027345D02*
X1948759Y17976575D01*
X39846767Y10414202D02*
X39822599Y10408630D01*
X2092319Y61406757D02*
X2118332Y61366198D01*
X46286397Y61174698D02*
X46337115Y61132904D01*
X47531263Y2113197D02*
X47557751Y2132910D01*
X40265224Y10310373D02*
X40246343Y10325191D01*
X47557751Y3717273D02*
X47504038Y3755880D01*
X25290053Y39560909D02*
X25301761Y39572291D01*
X2947396Y16925477D02*
X2998842Y16926775D01*
X46566542Y3849734D02*
X46506251Y3822520D01*
X3848690Y17491652D02*
X3868725Y17535931D01*
X24756987Y40387407D02*
X24726842Y40373800D01*
X2388484Y62754020D02*
X2349281Y62726154D01*
X25372127Y39661201D02*
X25380446Y39675085D01*
X2026149Y18314248D02*
X2008233Y18268854D01*
X46337115Y18717273D02*
X46311375Y18696763D01*
X3915884Y62174910D02*
X3902399Y62222346D01*
X39998501Y9428408D02*
X40023499Y9431581D01*
X40441571Y10001146D02*
X40437146Y10025739D01*
X47447436Y18791119D02*
X47388616Y18822520D01*
X45974045Y62154344D02*
X45967064Y62122366D01*
X3465891Y62779976D02*
X3424022Y62804045D01*
X1948755Y17873684D02*
X1952632Y17822914D01*
X47760881Y17343442D02*
X47779291Y17370096D01*
X3244693Y60970395D02*
X3291147Y60986107D01*
X46363604Y3736986D02*
X46337115Y3717273D01*
X25137879Y39462765D02*
X25168025Y39476372D01*
X3244693Y16970400D02*
X3291147Y16986112D01*
X3848690Y61491648D02*
X3868725Y61535927D01*
X46882723Y18923002D02*
X46818225Y18916722D01*
X47266771Y1977422D02*
X47328325Y2000449D01*
X3802555Y62443425D02*
X3776542Y62483982D01*
X39533085Y9645897D02*
X39547030Y9626324D01*
X47447436Y2059064D02*
X47476092Y2076251D01*
X40444783Y9874019D02*
X40446748Y9899382D01*
X2207383Y18597262D02*
X2175951Y18560994D01*
X47504038Y2094303D02*
X47531263Y2113197D01*
X3946114Y61873599D02*
X3947437Y61925045D01*
X1978990Y17675288D02*
X1992475Y17627850D01*
X46238778Y61219495D02*
X46286397Y61174698D01*
X46628095Y62872753D02*
X46566542Y62849726D01*
X39496969Y10141587D02*
X39486942Y10119471D01*
X46024057Y17541172D02*
X46050867Y17482175D01*
X46390829Y2094303D02*
X46447432Y2059064D01*
X47945216Y2858452D02*
X47946876Y2891681D01*
X46690700Y3891601D02*
X46628095Y3872761D01*
X39668118Y9511065D02*
X39688393Y9498083D01*
X45949652Y2991730D02*
X45947992Y2958501D01*
X2947478Y62924699D02*
X2947478Y62924699D01*
X1992475Y17627850D02*
X2008205Y17581401D01*
X47012141Y3923002D02*
X46947432Y3925095D01*
X24447712Y39941791D02*
X24447434Y39925086D01*
X25197434Y40358100D02*
X25168025Y40373800D01*
X3244771Y62879751D02*
X3197328Y62893222D01*
X40446748Y9950790D02*
X40444783Y9976153D01*
X46754147Y62906247D02*
X46690700Y62891593D01*
X46050867Y17482175D02*
X46081408Y17425089D01*
X46194365Y3583061D02*
X46173393Y3558249D01*
X25344519Y39621230D02*
X25354157Y39634262D01*
X1959006Y61772880D02*
X1967812Y61723650D01*
X2118377Y18484044D02*
X2092361Y18443488D01*
X46115575Y62480079D02*
X46098045Y62452856D01*
X46337115Y3717273D02*
X46311375Y3696763D01*
X39611507Y9555487D02*
X39629643Y9539799D01*
X40424777Y9776577D02*
X40431537Y9800273D01*
X24550348Y40228941D02*
X24540709Y40215910D01*
X3619649Y61185104D02*
X3654378Y61218200D01*
X3886641Y17581326D02*
X3902375Y17627773D01*
X46690700Y60958577D02*
X46754147Y60943924D01*
X2008205Y61581398D02*
X2026117Y61536002D01*
X47140718Y18906255D02*
X47076640Y18916722D01*
X40441571Y9849025D02*
X40444783Y9874019D01*
X46194365Y17267119D02*
X46238778Y17219499D01*
X47076640Y1933461D02*
X47140718Y1943928D01*
X46418776Y18773932D02*
X46390829Y18755880D01*
X2275164Y17185164D02*
X2311444Y17153746D01*
X2175951Y18560994D02*
X2146262Y18523234D01*
X47796822Y17397320D02*
X47813458Y17425089D01*
X46818225Y1933461D02*
X46882723Y1927181D01*
X3423950Y61046088D02*
X3465822Y61070154D01*
X3336551Y61004002D02*
X3380839Y61024016D01*
X3197249Y60956928D02*
X3244693Y60970395D01*
X47946876Y61891675D02*
X47947432Y61925085D01*
X47942466Y2825428D02*
X47945216Y2858452D01*
X46947432Y18925095D02*
X46882723Y18923002D01*
X46447432Y3791119D02*
X46418776Y3773932D01*
X3942241Y18027299D02*
X3935868Y18077327D01*
X39730862Y10375129D02*
X39709318Y10364107D01*
X3583367Y61153689D02*
X3619649Y61185104D01*
X3942233Y17822834D02*
X3946114Y17873604D01*
X47557751Y17132907D02*
X47583491Y17153417D01*
X40347837Y10223849D02*
X40332991Y10242708D01*
X47012141Y18923002D02*
X46947432Y18925095D01*
X3868725Y17535931D02*
X3886641Y17581326D01*
X46628095Y3872761D02*
X46566542Y3849734D01*
X1967829Y62126600D02*
X1959018Y62077371D01*
X3935868Y62077321D02*
X3927061Y62126547D01*
X47557751Y2132910D02*
X47583491Y2153420D01*
X46690700Y1958582D02*
X46754147Y1943928D01*
X3423950Y17046092D02*
X3465822Y17070158D01*
X45974045Y3154348D02*
X45967064Y3122370D01*
X47447436Y3791119D02*
X47447436Y3791119D01*
X45967064Y3122370D02*
X45961121Y3090096D01*
X39508023Y9687060D02*
X39520073Y9666153D01*
X2745914Y60945786D02*
X2795146Y60936994D01*
X40431537Y10049898D02*
X40424777Y10073594D01*
X25388311Y39689232D02*
X25395716Y39703629D01*
X3291224Y18864038D02*
X3244771Y18879754D01*
X47912817Y18186009D02*
X47893784Y18248282D01*
X47447436Y17059060D02*
X47447436Y17059060D01*
X39457722Y10025741D02*
X39453296Y10001149D01*
X46194365Y62583055D02*
X46173393Y62558244D01*
X46566542Y17000445D02*
X46628095Y16977418D01*
X1947437Y61925126D02*
X1948755Y61873680D01*
X47938638Y17792631D02*
X47942466Y17825428D01*
X47893784Y62248277D02*
X47870810Y62309003D01*
X47741604Y61317374D02*
X47760881Y61343437D01*
X3654436Y18631922D02*
X3619710Y18665019D01*
X39798893Y10401905D02*
X39775681Y10394059D01*
X24479758Y40101965D02*
X24474258Y40086681D01*
X3380839Y17024021D02*
X3423950Y17046092D01*
X40446748Y9899382D02*
X40447436Y9925084D01*
X47779291Y18480085D02*
X47741604Y18532802D01*
X3049613Y16930633D02*
X3099646Y16936987D01*
X24882830Y40420901D02*
X24850791Y40415667D01*
X2068237Y17448622D02*
X2092319Y17406761D01*
X2745994Y62904401D02*
X2697624Y62893242D01*
X3291224Y62864036D02*
X3244771Y62879751D01*
X46153262Y17317379D02*
X46194365Y17267119D01*
X2175951Y62560989D02*
X2146262Y62523229D01*
X46001083Y3248281D02*
X45991068Y3217326D01*
X46447432Y18791119D02*
X46447432Y18791119D01*
X46262194Y3653444D02*
X46238778Y3630681D01*
X1952632Y61822911D02*
X1959006Y61772880D01*
X46506251Y2027663D02*
X46566542Y2000449D01*
X39846767Y9435970D02*
X39871366Y9431581D01*
X46153262Y18532802D02*
X46133985Y18506739D01*
X47796822Y61397315D02*
X47813458Y61425084D01*
X25197434Y39492072D02*
X25211762Y39500665D01*
X25446324Y39891766D02*
X25447154Y39908381D01*
X2046149Y61491721D02*
X2068237Y61448618D01*
X46115575Y18480085D02*
X46098045Y18452861D01*
X2603649Y16986141D02*
X2650103Y16970425D01*
X46390829Y61094297D02*
X46447432Y61059058D01*
X2275224Y62665066D02*
X2240495Y62631971D01*
X25277951Y39549892D02*
X25290053Y39560909D01*
X46447432Y62791112D02*
X46447432Y62791112D01*
X46115575Y2370097D02*
X46153262Y2317380D01*
X2207329Y17252978D02*
X2240438Y17218262D01*
X24457248Y40023726D02*
X24454277Y40007589D01*
X3506390Y17096155D02*
X3545592Y17124021D01*
X46506251Y62822512D02*
X46447432Y62791112D01*
X24454277Y40007589D02*
X24451831Y39991316D01*
X2745994Y18904405D02*
X2697624Y18893246D01*
X47557751Y61132904D02*
X47583491Y61153414D01*
X2697624Y62893242D02*
X2650181Y62879775D01*
X47557751Y62717266D02*
X47504038Y62755873D01*
X47388616Y3822520D02*
X47328325Y3849734D01*
X47779291Y17370096D02*
X47796822Y17397320D01*
X1952641Y62027341D02*
X1948759Y61976571D01*
X3886641Y61581322D02*
X3902375Y61627769D01*
X24499150Y39703629D02*
X24514421Y39675085D01*
X47076640Y62916713D02*
X47012141Y62922993D01*
X39496969Y9708588D02*
X39508023Y9687060D01*
X2240495Y62631971D02*
X2207383Y62597258D01*
X47476092Y61076245D02*
X47504038Y61094297D01*
X2558323Y18846173D02*
X2514034Y18826158D01*
X46286397Y17174701D02*
X46337115Y17132907D01*
X2795227Y18913192D02*
X2745994Y18904405D01*
X39453296Y9849031D02*
X39457722Y9824438D01*
X3545658Y18726111D02*
X3506458Y18753979D01*
X46081408Y2425090D02*
X46115575Y2370097D01*
X46818225Y16933457D02*
X46882723Y16927177D01*
X2470851Y61046127D02*
X2513961Y61024052D01*
X46216165Y18607213D02*
X46194365Y18583062D01*
X46882723Y16927177D02*
X46947432Y16925084D01*
X46947432Y3925095D02*
X46882723Y3923002D01*
X25239348Y39519138D02*
X25252592Y39528995D01*
X46133985Y18506739D02*
X46115575Y18480085D01*
X2146213Y61327007D02*
X2175899Y61289244D01*
X47447436Y62791112D02*
X47447436Y62791112D01*
X46690700Y18891601D02*
X46628095Y18872761D01*
X25420610Y40086681D02*
X25409122Y40117044D01*
X40048098Y10414202D02*
X40023499Y10418590D01*
X2697545Y60956949D02*
X2745914Y60945786D01*
X46754147Y60943924D02*
X46818225Y60933457D01*
X47882783Y2571331D02*
X47893784Y2601899D01*
X3947437Y61925045D02*
X3947437Y61925085D01*
X3935868Y18077327D02*
X3927061Y18126554D01*
X2092361Y18443488D02*
X2068276Y18401628D01*
X47140718Y62906247D02*
X47076640Y62916713D01*
X45982050Y2664172D02*
X46001083Y2601899D01*
X25075800Y39441831D02*
X25107102Y39451251D01*
X3687490Y61252913D02*
X3718922Y61289181D01*
X2795146Y60936994D02*
X2845179Y60930636D01*
X2947478Y62924699D02*
X2896032Y62923400D01*
X25225735Y39509691D02*
X25239348Y39519138D01*
X3848725Y62358464D02*
X3826637Y62401565D01*
X46447432Y17059060D02*
X46447432Y17059060D01*
X2046184Y62358523D02*
X2026149Y62314244D01*
X47946876Y17891681D02*
X47947432Y17925091D01*
X-52566Y64925481D02*
X49947436Y64925481D01*
X3935855Y17772804D02*
X3942233Y17822834D01*
X46065678Y62396793D02*
X46050867Y62368000D01*
X46311375Y18696763D02*
X46286397Y18675479D01*
X39450085Y9976156D02*
X39448120Y9950793D01*
X47893784Y18248282D02*
X47870810Y18309009D01*
X46754147Y18906255D02*
X46690700Y18891601D01*
X47608469Y17174701D02*
X47632673Y17196736D01*
X2845260Y62919543D02*
X2795227Y62913189D01*
X47912817Y17664172D02*
X47920822Y17695832D01*
X2795227Y62913189D02*
X2745994Y62904401D01*
X2650103Y16970425D02*
X2697545Y16956955D01*
X47678702Y61242964D02*
X47700501Y61267115D01*
X3915884Y18174916D02*
X3902399Y18222352D01*
X46065678Y18396799D02*
X46050867Y18368006D01*
X3902375Y61627769D02*
X3915863Y61675206D01*
X39752993Y10385123D02*
X39730862Y10375129D01*
X24915079Y40424041D02*
X24882830Y40420901D01*
X2175899Y61289244D02*
X2207329Y61252973D01*
X47447436Y61059058D02*
X47476092Y61076245D01*
X45952402Y3024753D02*
X45949652Y2991730D01*
X47779291Y3480083D02*
X47741604Y3532801D01*
X39477972Y9753380D02*
X39486942Y9730705D01*
X3776496Y17366135D02*
X3802512Y17406691D01*
X3826598Y61448547D02*
X3848690Y61491648D01*
X39973135Y10423691D02*
X39947432Y10424340D01*
X24449917Y39974917D02*
X24448542Y39958405D01*
X3291147Y60986107D02*
X3336551Y61004002D01*
X2513961Y17024058D02*
X2558248Y17004040D01*
X47844000Y2482175D02*
X47857878Y2511447D01*
X24697432Y40358100D02*
X24683104Y40349506D01*
X2349216Y61124066D02*
X2388416Y61096197D01*
X47721473Y2291932D02*
X47741604Y2317380D01*
X46153262Y3532801D02*
X46133985Y3506738D01*
X3748661Y62523172D02*
X3718974Y62560934D01*
X47741604Y3532801D02*
X47700501Y3583061D01*
X25323967Y40254071D02*
X25301761Y40277881D01*
X46133985Y3506738D02*
X46115575Y3480083D01*
X24540709Y40215910D02*
X24531504Y40202582D01*
X47504038Y61094297D02*
X47531263Y61113191D01*
X47328325Y61000445D02*
X47388616Y61027658D01*
X25363362Y39647589D02*
X25372127Y39661201D01*
X39648524Y9524981D02*
X39668118Y9511065D01*
X25075800Y40408341D02*
X25044076Y40415667D01*
X1959018Y62077371D02*
X1952641Y62027341D01*
X2603649Y60986135D02*
X2650103Y60970419D01*
X2947396Y16925477D02*
X2947396Y16925477D01*
X2947396Y60925472D02*
X2998842Y60926770D01*
X2947396Y60925472D02*
X2947396Y60925472D01*
X47893784Y17601899D02*
X47903800Y17632853D01*
X39577592Y10260821D02*
X39561876Y10242709D01*
X24560413Y40241665D02*
X24550348Y40228941D01*
X24669131Y40340480D02*
X24655519Y40331033D01*
X3718922Y61289181D02*
X3748612Y61326941D01*
X1979010Y18174969D02*
X1967829Y18126604D01*
X45947436Y61925085D02*
X45947436Y61925085D01*
X3748661Y18523177D02*
X3718974Y18560938D01*
X25395716Y39703629D02*
X25402655Y39718264D01*
X39470091Y9776581D02*
X39477972Y9753380D01*
X46754147Y1943928D02*
X46818225Y1933461D01*
X45967064Y18122371D02*
X45961121Y18090098D01*
X46238778Y62630675D02*
X46216165Y62607207D01*
X24531504Y40202582D02*
X24522739Y40188971D01*
X3336551Y17004006D02*
X3380839Y17024021D01*
X25301761Y39572291D02*
X25313068Y39584025D01*
X40185548Y10364107D02*
X40164004Y10375129D01*
X39668118Y10339107D02*
X39648524Y10325191D01*
X39533085Y10204278D02*
X39520073Y10184022D01*
X46153262Y62532796D02*
X46133985Y62506733D01*
X3687545Y18597207D02*
X3654436Y18631922D01*
X46012084Y18278850D02*
X46001083Y18248282D01*
X24979788Y39426131D02*
X25012037Y39429271D01*
X3826598Y17448551D02*
X3848690Y17491652D01*
X39448120Y9899389D02*
X39450085Y9874025D01*
X47721473Y61291926D02*
X47741604Y61317374D01*
X3718974Y62560934D02*
X3687545Y62597203D01*
X2311507Y62696482D02*
X2275224Y62665066D01*
X2146213Y17327011D02*
X2175899Y17289249D01*
X40164004Y9475043D02*
X40185548Y9486065D01*
X24683104Y40349506D02*
X24669131Y40340480D01*
X47447436Y2059064D02*
X47447436Y2059064D01*
X39457722Y9824438D02*
X39463330Y9800278D01*
X2428982Y17070202D02*
X2470851Y17046133D01*
X47012141Y1927181D02*
X47076640Y1933461D01*
X3099727Y62913176D02*
X3049694Y62919534D01*
X24787764Y39451251D02*
X24819067Y39441831D01*
X46194365Y18583062D02*
X46173393Y18558250D01*
X47204165Y60958577D02*
X47266771Y60977418D01*
X46050867Y18368006D02*
X46036989Y18338735D01*
X2697624Y18893246D02*
X2650181Y18879779D01*
X47813458Y62425086D02*
X47779291Y62480079D01*
X3148879Y16945774D02*
X3197249Y16956933D01*
X46001083Y61601894D02*
X46024057Y61541168D01*
X25323967Y39596101D02*
X25334453Y39608506D01*
X45947436Y2925091D02*
X45949652Y2858452D01*
X47721473Y17291931D02*
X47741604Y17317379D01*
X45947436Y2925091D02*
X45947436Y2925091D01*
X45961121Y18090098D02*
X45956230Y18057551D01*
X47947432Y17925091D02*
X47947432Y17925091D01*
X24485745Y40117044D02*
X24479758Y40101965D01*
X2026117Y17536005D02*
X2046149Y17491725D01*
X3927061Y18126554D02*
X3915884Y18174916D01*
X3583430Y62696433D02*
X3545658Y62726107D01*
X3506458Y18753979D02*
X3465891Y18779979D01*
X39688393Y10352089D02*
X39668118Y10339107D01*
X39947432Y10424340D02*
X39921729Y10423691D01*
X2349281Y18726158D02*
X2311507Y18696486D01*
X47903800Y2632854D02*
X47912817Y2664172D01*
X46566542Y61000445D02*
X46628095Y60977418D01*
X2603726Y18864067D02*
X2558323Y18846173D01*
X46390829Y3755880D02*
X46363604Y3736986D01*
X47760881Y61343437D02*
X47779291Y61370091D01*
X3545658Y62726107D02*
X3506458Y62753976D01*
X3197328Y62893222D02*
X3148960Y62904384D01*
X25354157Y39634262D02*
X25363362Y39647589D01*
X46098045Y18452861D02*
X46081408Y18425092D01*
X40374795Y9666151D02*
X40386844Y9687058D01*
X39947432Y9425832D02*
X39973135Y9426481D01*
X39547030Y9626324D02*
X39561876Y9607465D01*
X47656088Y3630681D02*
X47608469Y3675479D01*
X25012037Y40420901D02*
X24979788Y40424041D01*
X25395717Y40146543D02*
X25380446Y40175086D01*
X39447432Y9925091D02*
X39447432Y9925091D01*
X40141873Y9465049D02*
X40164004Y9475043D01*
X3619710Y18665019D02*
X3583430Y18696436D01*
X47504038Y17094299D02*
X47531263Y17113194D01*
X39463330Y9800278D02*
X39470091Y9776581D01*
X47912817Y3186008D02*
X47893784Y3248281D01*
X3148960Y18904387D02*
X3099727Y18913179D01*
X47945216Y2991730D02*
X47938638Y3057550D01*
X46754147Y16943924D02*
X46818225Y16933457D01*
X47140718Y1943928D02*
X47204165Y1958582D01*
X47447436Y62791112D02*
X47388616Y62822512D01*
X47388616Y61027658D02*
X47447436Y61059058D01*
X2388416Y17096202D02*
X2428982Y17070202D01*
X47945216Y17991730D02*
X47938638Y18057551D01*
X47927803Y61727805D02*
X47933746Y61760079D01*
X46001083Y18248282D02*
X45991068Y18217328D01*
X3718922Y17289185D02*
X3748612Y17326945D01*
X24474258Y40086681D02*
X24469250Y40071204D01*
X47870810Y18309009D02*
X47844000Y18368006D01*
X39448120Y9950793D02*
X39447432Y9925091D01*
X47796822Y2397320D02*
X47813458Y2425090D01*
X47945216Y17858452D02*
X47946876Y17891681D01*
X40317275Y9589351D02*
X40332991Y9607464D01*
X46390829Y17094299D02*
X46447432Y17059060D01*
X46262194Y18653444D02*
X46238778Y18630681D01*
X45956230Y17792631D02*
X45967064Y17727810D01*
X45952402Y62024748D02*
X45949652Y61991724D01*
X47927803Y62122366D02*
X47912817Y62186003D01*
X45982050Y17664172D02*
X46001083Y17601899D01*
X2745914Y16945792D02*
X2795146Y16937000D01*
X47476092Y2076251D02*
X47504038Y2094303D01*
X-52566Y64925481D02*
X-52566Y14924527D01*
X46065678Y3396798D02*
X46050867Y3368004D01*
X47328325Y18849734D02*
X47266771Y18872761D01*
X40397898Y9708585D02*
X40407926Y9730702D01*
X24514421Y39675085D02*
X24531504Y39647589D01*
X45956230Y62057545D02*
X45952402Y62024748D01*
X25137879Y40387407D02*
X25107102Y40398920D01*
X3654436Y62631918D02*
X3619710Y62665016D01*
X25044076Y39434504D02*
X25075800Y39441831D01*
X47938638Y18057551D02*
X47927803Y18122371D01*
X3915863Y17675210D02*
X3927045Y17723575D01*
X3424022Y62804045D02*
X3380913Y62826120D01*
X24531504Y39647589D02*
X24550348Y39621230D01*
X45956230Y2792631D02*
X45967064Y2727810D01*
X39947432Y10424340D02*
X39947432Y10424340D01*
X47933746Y2760084D02*
X47938638Y2792631D01*
X2650181Y18879779D02*
X2603726Y18864067D01*
X47531263Y61113191D02*
X47557751Y61132904D01*
X3099727Y18913179D02*
X3049694Y18919537D01*
X46418776Y3773932D02*
X46390829Y3755880D01*
X3826637Y18401570D02*
X3802555Y18443430D01*
X39447432Y9925091D02*
X39448120Y9899389D01*
X46012084Y3278848D02*
X46001083Y3248281D01*
X40447436Y9925084D02*
X40447436Y9925084D01*
X47938638Y61792625D02*
X47942466Y61825422D01*
X3902399Y18222352D02*
X3886669Y18268798D01*
X3465891Y18779979D02*
X3424022Y18804048D01*
X3946118Y17976533D02*
X3942241Y18027299D01*
X46628095Y1977422D02*
X46690700Y1958582D01*
X47204165Y1958582D02*
X47266771Y1977422D01*
X40437146Y10025739D02*
X40431537Y10049898D01*
X25344519Y40228941D02*
X25323967Y40254071D01*
X46566542Y62849726D02*
X46506251Y62822512D01*
X46337115Y62717266D02*
X46311375Y62696756D01*
X25168025Y40373800D02*
X25137879Y40387407D01*
X39463330Y10049901D02*
X39457722Y10025741D01*
X25443035Y39858856D02*
X25444949Y39875254D01*
X2146262Y18523234D02*
X2118377Y18484044D01*
X2947478Y18924702D02*
X2947478Y18924702D01*
X2603726Y62864063D02*
X2558323Y62846169D01*
X39973135Y9426481D02*
X39998501Y9428408D01*
X47813458Y61425084D02*
X47829189Y61453377D01*
X47504038Y3755880D02*
X47447436Y3791119D01*
X24616915Y40300280D02*
X24604813Y40289262D01*
X1948759Y61976571D02*
X1947437Y61925126D01*
X2026149Y62314244D02*
X2008233Y62268849D01*
X47927803Y17727810D02*
X47933746Y17760084D01*
X24550348Y39621230D02*
X24570899Y39596101D01*
X47945216Y61858446D02*
X47946876Y61891675D01*
X25334453Y39608506D02*
X25344519Y39621230D01*
X46882723Y1927181D02*
X46947432Y1925088D01*
X24469250Y40071204D02*
X24464741Y40055545D01*
X3049694Y18919537D02*
X2998924Y18923399D01*
X47741604Y62532796D02*
X47700501Y62583055D01*
X25277951Y40300280D02*
X25252592Y40321176D01*
X1979010Y62174964D02*
X1967829Y62126600D01*
X47920822Y17695832D02*
X47927803Y17727810D01*
X39577592Y9589352D02*
X39594146Y9572015D01*
X2240495Y18631975D02*
X2207383Y18597262D01*
X24570899Y40254071D02*
X24560413Y40241665D01*
X3583430Y18696436D02*
X3545658Y18726111D01*
X46024057Y3309007D02*
X46012084Y3278848D01*
X1948755Y61873680D02*
X1952632Y61822911D01*
X46566542Y2000449D02*
X46628095Y1977422D01*
X39629643Y10310374D02*
X39611507Y10294685D01*
X2845260Y18919546D02*
X2795227Y18913192D01*
X25440589Y39842583D02*
X25443035Y39858856D01*
X40397898Y10141586D02*
X40386844Y10163114D01*
X46566542Y18849734D02*
X46506251Y18822520D01*
X46947432Y62925087D02*
X46882723Y62922993D01*
X2349281Y62726154D02*
X2311507Y62696482D01*
X40332991Y9607464D02*
X40347837Y9626322D01*
X25409121Y39733127D02*
X25415108Y39748206D01*
X40374795Y10184021D02*
X40361782Y10204277D01*
X3748612Y61326941D02*
X3776496Y61366131D01*
X47946876Y2891681D02*
X47947432Y2925091D01*
X45991068Y3217326D02*
X45982050Y3186008D01*
X45949652Y61991724D02*
X45947992Y61958496D01*
X47829189Y61453377D02*
X47844000Y61482170D01*
X47942466Y17825428D02*
X47945216Y17858452D01*
X47947432Y2925091D02*
X47945216Y2991730D01*
X24593106Y39572291D02*
X24616915Y39549892D01*
X24642274Y40321176D02*
X24629404Y40310922D01*
X24451831Y39991316D02*
X24449917Y39974917D01*
X47870810Y17541172D02*
X47882783Y17571331D01*
X25197434Y39492072D02*
X25197434Y39492072D01*
X2068276Y18401628D02*
X2046184Y18358527D01*
X47813458Y2425090D02*
X47829189Y2453382D01*
X3718974Y18560938D02*
X3687545Y18597207D01*
X40431537Y9800273D02*
X40437146Y9824433D01*
X2650103Y60970419D02*
X2697545Y60956949D01*
X47476092Y17076247D02*
X47504038Y17094299D01*
X24669131Y39509691D02*
X24697432Y39492072D01*
X45967064Y61727805D02*
X45982050Y61664167D01*
X3915863Y61675206D02*
X3927045Y61723571D01*
X46153262Y61317374D02*
X46194365Y61267115D01*
X39896363Y10421764D02*
X39871366Y10418590D01*
X46506251Y3822520D02*
X46447432Y3791119D01*
X46238778Y2219501D02*
X46286397Y2174703D01*
X40119185Y9456113D02*
X40141873Y9465049D01*
X3868756Y18314191D02*
X3848725Y18358470D01*
X47266771Y60977418D02*
X47328325Y61000445D01*
X46238778Y18630681D02*
X46216165Y18607213D01*
X40347837Y9626322D02*
X40361782Y9645895D01*
X46050867Y2482175D02*
X46081408Y2425090D01*
X47947432Y61925085D02*
X47947432Y61925085D01*
X47903800Y17632853D02*
X47912817Y17664172D01*
X39594146Y9572015D02*
X39611507Y9555487D01*
X46506251Y17027659D02*
X46566542Y17000445D01*
X2349216Y17124071D02*
X2388416Y17096202D01*
X47779291Y62480079D02*
X47741604Y62532796D01*
X24447434Y39925086D02*
X24447434Y39925086D01*
X3947437Y61925085D02*
X3946118Y61976527D01*
X2470923Y18804087D02*
X2429052Y18780021D01*
X47813458Y17425089D02*
X47829189Y17453382D01*
X47266771Y16977418D02*
X47328325Y17000445D01*
X47678702Y17242968D02*
X47700501Y17267119D01*
X3947437Y17925091D02*
X3946118Y17976533D01*
X39730862Y9475043D02*
X39752993Y9465049D01*
X25044076Y40415667D02*
X25012037Y40420901D01*
X24697432Y40358100D02*
X24697432Y40358100D01*
X2118332Y61366198D02*
X2146213Y61327007D01*
X2388416Y61096197D02*
X2428982Y61070196D01*
X2429052Y62780017D02*
X2388484Y62754020D01*
X47938638Y3057550D02*
X47927803Y3122370D01*
X46238778Y3630681D02*
X46216165Y3607212D01*
X3687490Y17252917D02*
X3718922Y17289185D01*
X47947432Y17925091D02*
X47947432Y17925091D01*
X40416896Y9753376D02*
X40424777Y9776577D01*
X40300721Y9572015D02*
X40317275Y9589351D01*
X46216165Y62607207D02*
X46194365Y62583055D01*
X3619710Y62665016D02*
X3583430Y62696433D01*
X3380839Y61024016D02*
X3423950Y61046088D01*
X47700501Y18583062D02*
X47656088Y18630681D01*
X2795146Y16937000D02*
X2845179Y16930642D01*
X47328325Y3849734D02*
X47266771Y3872761D01*
X25225735Y40340480D02*
X25197434Y40358100D01*
X46286397Y62675473D02*
X46262194Y62653438D01*
X39921729Y10423691D02*
X39896363Y10421764D01*
X47893784Y61601894D02*
X47903800Y61632848D01*
X40072266Y10408630D02*
X40048098Y10414202D01*
X46311375Y3696763D02*
X46286397Y3675479D01*
X45947436Y17925091D02*
X45947436Y17925091D01*
X24979788Y40424041D02*
X24947434Y40425088D01*
X46690700Y16958578D02*
X46754147Y16943924D01*
X39594146Y10278157D02*
X39577592Y10260821D01*
X25107102Y40398920D02*
X25075800Y40408341D01*
X25425616Y39778968D02*
X25430125Y39794627D01*
X47388616Y17027659D02*
X47447436Y17059060D01*
X3748612Y17326945D02*
X3776496Y17366135D01*
X46447432Y17059060D02*
X46506251Y17027659D01*
X24819067Y39441831D02*
X24850791Y39434504D01*
X40416896Y10096795D02*
X40407926Y10119469D01*
X40023499Y10418590D02*
X39998501Y10421764D01*
X46947432Y60925084D02*
X47012141Y60927177D01*
X47608469Y18675479D02*
X47557751Y18717273D01*
X2513961Y61024052D02*
X2558248Y61004034D01*
X1948759Y17976575D02*
X1947437Y17925130D01*
X40185548Y9486065D02*
X40206474Y9498082D01*
X46036989Y18338735D02*
X46024057Y18309009D01*
X46173393Y18558250D02*
X46153262Y18532802D01*
X46882723Y60927177D02*
X46947432Y60925084D01*
X47700501Y3583061D02*
X47656088Y3630681D01*
X47912817Y61664167D02*
X47920822Y61695827D01*
X47608469Y3675479D02*
X47557751Y3717273D01*
X47947432Y61925085D02*
X47947432Y61925085D01*
X3942233Y61822830D02*
X3946114Y61873599D01*
X46238778Y17219499D02*
X46286397Y17174701D01*
X2008205Y17581401D02*
X2026117Y17536005D01*
X40048098Y9435970D02*
X40072266Y9441542D01*
X46506251Y18822520D02*
X46447432Y18791119D01*
X24882830Y39429271D02*
X24915079Y39426131D01*
X39798893Y9448267D02*
X39822599Y9441542D01*
X47140718Y3906255D02*
X47076640Y3916722D01*
X47741604Y17317379D02*
X47760881Y17343442D01*
X25446327Y39958405D02*
X25443038Y39991316D01*
X47632673Y61196732D02*
X47656088Y61219495D01*
X39871366Y9431581D02*
X39896363Y9428408D01*
X3902399Y62222346D02*
X3886669Y62268792D01*
X47947432Y17925091D02*
X47945216Y17991730D01*
X47813458Y18425092D02*
X47779291Y18480085D01*
X45949652Y61858446D02*
X45956230Y61792625D01*
X40072266Y9441542D02*
X40095972Y9448267D01*
X3947437Y17925049D02*
X3947437Y17925049D01*
X46081408Y18425092D02*
X46065678Y18396799D01*
X47656088Y2219501D02*
X47678702Y2242969D01*
X2895950Y16926780D02*
X2947396Y16925477D01*
X46036989Y3338733D02*
X46024057Y3309007D01*
X3506390Y61096151D02*
X3545592Y61124017D01*
X3619649Y17185108D02*
X3654378Y17218204D01*
X25168025Y39476372D02*
X25197434Y39492072D01*
X3947437Y61925045D02*
X3947437Y61925045D01*
X39611507Y10294685D02*
X39594146Y10278157D01*
X47504038Y62755873D02*
X47447436Y62791112D01*
X40437146Y9824433D02*
X40441571Y9849025D01*
X39486942Y9730705D02*
X39496969Y9708588D01*
X47012141Y16927177D02*
X47076640Y16933457D01*
X46311375Y62696756D02*
X46286397Y62675473D01*
X46506251Y61027658D02*
X46566542Y61000445D01*
X40023499Y9431581D02*
X40048098Y9435970D01*
X45947992Y61958496D02*
X45947436Y61925085D01*
X46447432Y2059064D02*
X46506251Y2027663D01*
X2311444Y17153746D02*
X2349216Y17124071D01*
X47266771Y18872761D02*
X47204165Y18891601D01*
X3848725Y18358470D02*
X3826637Y18401570D01*
X39709318Y10364107D02*
X39688393Y10352089D01*
X40332991Y10242708D02*
X40317275Y10260821D01*
X47678702Y2242969D02*
X47700501Y2267121D01*
X47893784Y2601899D02*
X47903800Y2632854D01*
X40226749Y9511065D02*
X40246343Y9524980D01*
X2896032Y18923404D02*
X2845260Y18919546D01*
X3424022Y18804048D02*
X3380913Y18826122D01*
X46286397Y3675479D02*
X46262194Y3653444D01*
X25252592Y40321176D02*
X25225735Y40340480D01*
X47829189Y2453382D02*
X47844000Y2482175D01*
X46447432Y2059064D02*
X46447432Y2059064D01*
X40361782Y9645895D02*
X40374795Y9666151D01*
X2558248Y61004034D02*
X2603649Y60986135D01*
X46628095Y16977418D02*
X46690700Y16958578D01*
X3935855Y61772800D02*
X3942233Y61822830D01*
X3465822Y61070154D02*
X3506390Y61096151D01*
X25447436Y39925086D02*
X25446327Y39958405D01*
X45961121Y3090096D02*
X45956230Y3057550D01*
X2896032Y62923400D02*
X2845260Y62919543D01*
X39648524Y10325191D02*
X39629643Y10310374D01*
X46947432Y16925084D02*
X47012141Y16927177D01*
X47857878Y61511441D02*
X47870810Y61541168D01*
X46818225Y60933457D02*
X46882723Y60927177D01*
X47779291Y61370091D02*
X47796822Y61397315D01*
X46363604Y62736980D02*
X46337115Y62717266D01*
X24616915Y39549892D02*
X24642274Y39528995D01*
X47920822Y2695832D02*
X47927803Y2727810D01*
X24947434Y40425088D02*
X24915079Y40424041D01*
X3886669Y62268792D02*
X3868756Y62314186D01*
X47531263Y17113194D02*
X47557751Y17132907D01*
X25301761Y40277881D02*
X25277951Y40300280D01*
X24726842Y39476372D02*
X24756987Y39462765D01*
X46012084Y62278844D02*
X46001083Y62248277D01*
X40447436Y9925084D02*
X40447436Y9925088D01*
X46115575Y61370091D02*
X46153262Y61317374D01*
X3099646Y60936982D02*
X3148879Y60945770D01*
X47912817Y62186003D02*
X47893784Y62248277D01*
X46050867Y61482170D02*
X46081408Y61425084D01*
X25443038Y39991316D02*
X25437620Y40023726D01*
X40206474Y10352089D02*
X40185548Y10364107D01*
X2240438Y61218257D02*
X2275164Y61185159D01*
X47076640Y60933457D02*
X47140718Y60943924D01*
X24448542Y39891766D02*
X24451831Y39858856D01*
X45967064Y17727810D02*
X45982050Y17664172D01*
X2428982Y61070196D02*
X2470851Y61046127D01*
X45982050Y18186009D02*
X45974045Y18154349D01*
X46947432Y1925088D02*
X47012141Y1927181D01*
X40300721Y10278157D02*
X40283360Y10294685D01*
X2998842Y60926770D02*
X3049613Y60930628D01*
X2998924Y62923396D02*
X2947478Y62924699D01*
X24697432Y39492072D02*
X24726842Y39476372D01*
X2046184Y18358527D02*
X2026149Y18314248D01*
X40246343Y10325191D02*
X40226749Y10339107D01*
X47266771Y3872761D02*
X47204165Y3891601D01*
X24819067Y40408341D02*
X24787764Y40398920D01*
M02*
