%TF.GenerationSoftware,KiCad,Pcbnew,(6.0.10)*%
%TF.CreationDate,2023-01-29T19:54:13+09:00*%
%TF.ProjectId,monitor_control_board,6d6f6e69-746f-4725-9f63-6f6e74726f6c,4*%
%TF.SameCoordinates,PX7ab4258PY723a4bd*%
%TF.FileFunction,Copper,L1,Top*%
%TF.FilePolarity,Positive*%
%FSLAX46Y46*%
G04 Gerber Fmt 4.6, Leading zero omitted, Abs format (unit mm)*
G04 Created by KiCad (PCBNEW (6.0.10)) date 2023-01-29 19:54:13*
%MOMM*%
%LPD*%
G01*
G04 APERTURE LIST*
G04 Aperture macros list*
%AMRoundRect*
0 Rectangle with rounded corners*
0 $1 Rounding radius*
0 $2 $3 $4 $5 $6 $7 $8 $9 X,Y pos of 4 corners*
0 Add a 4 corners polygon primitive as box body*
4,1,4,$2,$3,$4,$5,$6,$7,$8,$9,$2,$3,0*
0 Add four circle primitives for the rounded corners*
1,1,$1+$1,$2,$3*
1,1,$1+$1,$4,$5*
1,1,$1+$1,$6,$7*
1,1,$1+$1,$8,$9*
0 Add four rect primitives between the rounded corners*
20,1,$1+$1,$2,$3,$4,$5,0*
20,1,$1+$1,$4,$5,$6,$7,0*
20,1,$1+$1,$6,$7,$8,$9,0*
20,1,$1+$1,$8,$9,$2,$3,0*%
G04 Aperture macros list end*
%TA.AperFunction,ComponentPad*%
%ADD10O,1.850000X3.048000*%
%TD*%
%TA.AperFunction,ComponentPad*%
%ADD11RoundRect,0.250200X-0.649800X0.649800X-0.649800X-0.649800X0.649800X-0.649800X0.649800X0.649800X0*%
%TD*%
%TA.AperFunction,ComponentPad*%
%ADD12C,1.800000*%
%TD*%
%TA.AperFunction,ComponentPad*%
%ADD13R,1.800000X1.800000*%
%TD*%
%TA.AperFunction,ComponentPad*%
%ADD14C,2.000000*%
%TD*%
%TA.AperFunction,ComponentPad*%
%ADD15O,3.048000X1.850000*%
%TD*%
%TA.AperFunction,SMDPad,CuDef*%
%ADD16RoundRect,0.250000X-1.050000X-0.550000X1.050000X-0.550000X1.050000X0.550000X-1.050000X0.550000X0*%
%TD*%
%TA.AperFunction,SMDPad,CuDef*%
%ADD17RoundRect,0.250000X0.450000X-0.350000X0.450000X0.350000X-0.450000X0.350000X-0.450000X-0.350000X0*%
%TD*%
%TA.AperFunction,SMDPad,CuDef*%
%ADD18RoundRect,0.250000X0.475000X-0.337500X0.475000X0.337500X-0.475000X0.337500X-0.475000X-0.337500X0*%
%TD*%
%TA.AperFunction,SMDPad,CuDef*%
%ADD19R,1.300000X1.700000*%
%TD*%
%TA.AperFunction,ComponentPad*%
%ADD20R,1.700000X1.700000*%
%TD*%
%TA.AperFunction,ComponentPad*%
%ADD21O,1.700000X1.700000*%
%TD*%
%TA.AperFunction,ComponentPad*%
%ADD22RoundRect,0.250000X0.625000X-0.350000X0.625000X0.350000X-0.625000X0.350000X-0.625000X-0.350000X0*%
%TD*%
%TA.AperFunction,ComponentPad*%
%ADD23O,1.750000X1.200000*%
%TD*%
%TA.AperFunction,ViaPad*%
%ADD24C,0.800000*%
%TD*%
%TA.AperFunction,Conductor*%
%ADD25C,0.250000*%
%TD*%
%TA.AperFunction,Conductor*%
%ADD26C,0.500000*%
%TD*%
%TA.AperFunction,Conductor*%
%ADD27C,0.300000*%
%TD*%
G04 APERTURE END LIST*
D10*
%TO.P,SW1,1,1*%
%TO.N,/VOL_M*%
X9511848Y43288445D03*
X9511848Y30788445D03*
%TO.P,SW1,2,2*%
%TO.N,GND*%
X14511848Y43288445D03*
X14511848Y30788445D03*
%TD*%
D11*
%TO.P,U1,1,OUT*%
%TO.N,/IRIN*%
X9384848Y9413445D03*
D12*
%TO.P,U1,2,GND*%
%TO.N,GND*%
X9384848Y6873445D03*
%TO.P,U1,3,Vs*%
%TO.N,Net-(C1-Pad1)*%
X9384848Y4333445D03*
%TD*%
D13*
%TO.P,D2,1,A1*%
%TO.N,/LED_R*%
X29704848Y2555445D03*
D12*
%TO.P,D2,2,K*%
%TO.N,GND*%
X29704848Y5095445D03*
%TO.P,D2,3,A2*%
%TO.N,/LED_G*%
X29704848Y7635445D03*
%TD*%
D14*
%TO.P,SW6,1,1*%
%TO.N,/POWER*%
X37797848Y10262445D03*
X37797848Y3762445D03*
%TO.P,SW6,2,2*%
%TO.N,GND*%
X42297848Y3762445D03*
X42297848Y10262445D03*
%TD*%
%TO.P,TP2,1,1*%
%TO.N,/SOURCE*%
X4431848Y48910445D03*
%TD*%
D10*
%TO.P,SW5,1,1*%
%TO.N,/VOL_P*%
X40491848Y30798445D03*
X40491848Y43298445D03*
%TO.P,SW5,2,2*%
%TO.N,GND*%
X35491848Y30798445D03*
X35491848Y43298445D03*
%TD*%
D14*
%TO.P,TP1,1,1*%
%TO.N,/POWER*%
X7733848Y48910445D03*
%TD*%
%TO.P,TP3,1,1*%
%TO.N,GND*%
X11035848Y48910445D03*
%TD*%
D15*
%TO.P,SW4,1,1*%
%TO.N,/DOWN*%
X18741848Y21508445D03*
X31241848Y21508445D03*
%TO.P,SW4,2,2*%
%TO.N,GND*%
X18741848Y26508445D03*
X31241848Y26508445D03*
%TD*%
D16*
%TO.P,E1,1*%
%TO.N,Net-(C1-Pad1)*%
X25872848Y11572445D03*
%TO.P,E1,2*%
%TO.N,GND*%
X29472848Y11572445D03*
%TD*%
D15*
%TO.P,SW2,1,1*%
%TO.N,/UP*%
X31251848Y52488445D03*
X18751848Y52488445D03*
%TO.P,SW2,2,2*%
%TO.N,GND*%
X31251848Y47488445D03*
X18751848Y47488445D03*
%TD*%
D17*
%TO.P,R1,1*%
%TO.N,/IRIN*%
X18046248Y11486845D03*
%TO.P,R1,2*%
%TO.N,Net-(C1-Pad1)*%
X18046248Y13486845D03*
%TD*%
D18*
%TO.P,C1,1*%
%TO.N,Net-(C1-Pad1)*%
X22465848Y11449345D03*
%TO.P,C1,2*%
%TO.N,GND*%
X22465848Y13524345D03*
%TD*%
D14*
%TO.P,TP4,1,1*%
%TO.N,GND*%
X9511848Y19700445D03*
%TD*%
D18*
%TO.P,C2,1*%
%TO.N,/IRIN*%
X20230648Y11449345D03*
%TO.P,C2,2*%
%TO.N,GND*%
X20230648Y13524345D03*
%TD*%
D19*
%TO.P,D1,1,K*%
%TO.N,Net-(C1-Pad1)*%
X14817848Y12461445D03*
%TO.P,D1,2,A*%
%TO.N,+5V*%
X11317848Y12461445D03*
%TD*%
D15*
%TO.P,SW3,1,1*%
%TO.N,/MENU*%
X18751848Y39518445D03*
X31251848Y39518445D03*
%TO.P,SW3,2,2*%
%TO.N,GND*%
X18751848Y34518445D03*
X31251848Y34518445D03*
%TD*%
D20*
%TO.P,J4,1,Pin_1*%
%TO.N,+5V*%
X23481848Y1666445D03*
D21*
%TO.P,J4,2,Pin_2*%
%TO.N,/LED_R*%
X20941848Y1666445D03*
%TO.P,J4,3,Pin_3*%
%TO.N,/LED_G*%
X18401848Y1666445D03*
%TO.P,J4,4,Pin_4*%
%TO.N,/IRIN*%
X15861848Y1666445D03*
%TO.P,J4,5,Pin_5*%
%TO.N,GND*%
X13321848Y1666445D03*
%TD*%
D22*
%TO.P,J1,1,Pin_1*%
%TO.N,GND*%
X3841848Y24618445D03*
D23*
%TO.P,J1,2,Pin_2*%
%TO.N,/SOURCE*%
X3841848Y26618445D03*
%TO.P,J1,3,Pin_3*%
%TO.N,/UP*%
X3841848Y28618445D03*
%TO.P,J1,4,Pin_4*%
%TO.N,/DOWN*%
X3841848Y30618445D03*
%TO.P,J1,5,Pin_5*%
%TO.N,/VOL_P*%
X3841848Y32618445D03*
%TO.P,J1,6,Pin_6*%
%TO.N,/VOL_M*%
X3841848Y34618445D03*
%TO.P,J1,7,Pin_7*%
%TO.N,/MENU*%
X3841848Y36618445D03*
%TO.P,J1,8,Pin_8*%
%TO.N,/POWER*%
X3841848Y38618445D03*
%TO.P,J1,9,Pin_9*%
%TO.N,GND*%
X3841848Y40618445D03*
%TD*%
D20*
%TO.P,J2,1,Pin_1*%
%TO.N,GND*%
X46545048Y46827645D03*
D21*
%TO.P,J2,2,Pin_2*%
%TO.N,/SOURCE*%
X46545048Y44287645D03*
%TO.P,J2,3,Pin_3*%
%TO.N,/UP*%
X46545048Y41747645D03*
%TO.P,J2,4,Pin_4*%
%TO.N,/DOWN*%
X46545048Y39207645D03*
%TO.P,J2,5,Pin_5*%
%TO.N,/VOL_P*%
X46545048Y36667645D03*
%TO.P,J2,6,Pin_6*%
%TO.N,/VOL_M*%
X46545048Y34127645D03*
%TO.P,J2,7,Pin_7*%
%TO.N,/MENU*%
X46545048Y31587645D03*
%TO.P,J2,8,Pin_8*%
%TO.N,/POWER*%
X46545048Y29047645D03*
%TO.P,J2,9,Pin_9*%
%TO.N,GND*%
X46545048Y26507645D03*
%TD*%
D22*
%TO.P,J3,1,Pin_1*%
%TO.N,+5V*%
X4418048Y3444445D03*
D23*
%TO.P,J3,2,Pin_2*%
%TO.N,/LED_R*%
X4418048Y5444445D03*
%TO.P,J3,3,Pin_3*%
%TO.N,/LED_G*%
X4418048Y7444445D03*
%TO.P,J3,4,Pin_4*%
%TO.N,/IRIN*%
X4418048Y9444445D03*
%TO.P,J3,5,Pin_5*%
%TO.N,GND*%
X4418048Y11444445D03*
%TD*%
D24*
%TO.N,/LED_R*%
X12144536Y3478757D03*
%TO.N,/LED_G*%
X14591848Y3063445D03*
%TO.N,/IRIN*%
X16496848Y11404133D03*
%TO.N,Net-(C1-Pad1)*%
X27204348Y7508445D03*
%TD*%
D25*
%TO.N,/SOURCE*%
X3355848Y26618445D02*
X2145848Y27828445D01*
X2145848Y27828445D02*
X2145848Y46624445D01*
X10019848Y54498445D02*
X4431848Y48910445D01*
X46545048Y44287645D02*
X45935448Y44287645D01*
X45935448Y44287645D02*
X35724648Y54498445D01*
X3841848Y26618445D02*
X3355848Y26618445D01*
X35724648Y54498445D02*
X10019848Y54498445D01*
X2145848Y46624445D02*
X4431848Y48910445D01*
D26*
%TO.N,GND*%
X12457848Y47488445D02*
X11035848Y48910445D01*
X18751848Y47488445D02*
X12457848Y47488445D01*
D25*
%TO.N,/POWER*%
X3841848Y38618445D02*
X4299848Y38618445D01*
X4299848Y38618445D02*
X5955848Y40274445D01*
X5955848Y47132445D02*
X7733848Y48910445D01*
X5955848Y40274445D02*
X5955848Y47132445D01*
%TO.N,/VOL_M*%
X39534648Y41138045D02*
X46545048Y34127645D01*
X11662248Y41138045D02*
X39534648Y41138045D01*
X9511848Y43288445D02*
X11662248Y41138045D01*
D26*
%TO.N,GND*%
X4593848Y24618445D02*
X9511848Y19700445D01*
X3841848Y24618445D02*
X4593848Y24618445D01*
D25*
%TO.N,/VOL_P*%
X38156848Y28463445D02*
X40491848Y30798445D01*
X8419648Y28463445D02*
X38156848Y28463445D01*
X4264648Y32618445D02*
X8419648Y28463445D01*
X3841848Y32618445D02*
X4264648Y32618445D01*
D27*
%TO.N,/VOL_M*%
X5681848Y34618445D02*
X9511848Y30788445D01*
X3841848Y34618445D02*
X5681848Y34618445D01*
D25*
%TO.N,/MENU*%
X18747048Y39523245D02*
X18751848Y39518445D01*
X7236648Y39523245D02*
X18747048Y39523245D01*
X4331848Y36618445D02*
X7236648Y39523245D01*
X3841848Y36618445D02*
X4331848Y36618445D01*
D26*
%TO.N,GND*%
X21449848Y20868845D02*
X21449848Y23800445D01*
X21449848Y23800445D02*
X18741848Y26508445D01*
X20281448Y19700445D02*
X21449848Y20868845D01*
X9511848Y19700445D02*
X20281448Y19700445D01*
X42297848Y10262445D02*
X42297848Y22260445D01*
X42297848Y22260445D02*
X46545048Y26507645D01*
D25*
%TO.N,/MENU*%
X31256648Y39523245D02*
X31251848Y39518445D01*
X46545048Y31587645D02*
X38609448Y39523245D01*
X38609448Y39523245D02*
X31256648Y39523245D01*
%TO.N,/VOL_P*%
X40491848Y42720845D02*
X40491848Y43298445D01*
X46545048Y36667645D02*
X40491848Y42720845D01*
%TO.N,/UP*%
X46037048Y41747645D02*
X35296248Y52488445D01*
X46545048Y41747645D02*
X46037048Y41747645D01*
X35296248Y52488445D02*
X31251848Y52488445D01*
D26*
%TO.N,GND*%
X46545048Y26507645D02*
X46544248Y26508445D01*
X46544248Y26508445D02*
X31241848Y26508445D01*
D25*
%TO.N,/DOWN*%
X12951848Y21508445D02*
X18741848Y21508445D01*
X3841848Y30618445D02*
X12951848Y21508445D01*
D26*
%TO.N,GND*%
X31355848Y9689445D02*
X31355848Y6746445D01*
X29472848Y11572445D02*
X31355848Y9689445D01*
X10273848Y6873445D02*
X9384848Y6873445D01*
X13321848Y3825445D02*
X10273848Y6873445D01*
X31355848Y6746445D02*
X29704848Y5095445D01*
X13321848Y1666445D02*
X13321848Y3825445D01*
X22465848Y13524345D02*
X27520948Y13524345D01*
X20230648Y13524345D02*
X22465848Y13524345D01*
X27520948Y13524345D02*
X29472848Y11572445D01*
%TO.N,+5V*%
X3923848Y3444445D02*
X2907848Y4460445D01*
X4418048Y3444445D02*
X3923848Y3444445D01*
X2907848Y12080445D02*
X3669848Y12842445D01*
X10936848Y12842445D02*
X11317848Y12461445D01*
X3669848Y12842445D02*
X10936848Y12842445D01*
X2907848Y4460445D02*
X2907848Y12080445D01*
D25*
%TO.N,/LED_R*%
X10146848Y5603445D02*
X4577048Y5603445D01*
X28942848Y3317445D02*
X29704848Y2555445D01*
X12144536Y3605757D02*
X10146848Y5603445D01*
X20941848Y2301445D02*
X21957848Y3317445D01*
X20941848Y1666445D02*
X20941848Y2301445D01*
X21957848Y3317445D02*
X28942848Y3317445D01*
X12144536Y3478757D02*
X12144536Y3605757D01*
X4577048Y5603445D02*
X4418048Y5444445D01*
%TO.N,/LED_G*%
X14591848Y3952445D02*
X10400848Y8143445D01*
X5828848Y8143445D02*
X5129848Y7444445D01*
X10400848Y8143445D02*
X5828848Y8143445D01*
X14591848Y3063445D02*
X14591848Y3952445D01*
X26148848Y4079445D02*
X20179848Y4079445D01*
X29704848Y7635445D02*
X26148848Y4079445D01*
X5129848Y7444445D02*
X4418048Y7444445D01*
X20179848Y4079445D02*
X18401848Y2301445D01*
X18401848Y2301445D02*
X18401848Y1666445D01*
%TO.N,/IRIN*%
X18046248Y11486845D02*
X20193148Y11486845D01*
X4418048Y9444445D02*
X9353848Y9444445D01*
X15861848Y3825445D02*
X10273848Y9413445D01*
X16579560Y11486845D02*
X18046248Y11486845D01*
X9353848Y9444445D02*
X9384848Y9413445D01*
X20193148Y11486845D02*
X20230648Y11449345D01*
X16496848Y11404133D02*
X16579560Y11486845D01*
X10273848Y9413445D02*
X9384848Y9413445D01*
X15861848Y1666445D02*
X15861848Y3825445D01*
D26*
%TO.N,Net-(C1-Pad1)*%
X22465848Y11449345D02*
X25749748Y11449345D01*
X14817848Y12461445D02*
X15843248Y13486845D01*
X14817848Y12461445D02*
X14817848Y11219445D01*
X25872848Y11467445D02*
X25872848Y11572445D01*
X14817848Y11219445D02*
X15861848Y10175445D01*
X15861848Y10175445D02*
X21576848Y10175445D01*
X27204348Y7508445D02*
X27204348Y10135945D01*
X15843248Y13486845D02*
X18046248Y13486845D01*
X22465848Y11064445D02*
X22465848Y11449345D01*
X27204348Y10135945D02*
X25872848Y11467445D01*
X25749748Y11449345D02*
X25872848Y11572445D01*
X21576848Y10175445D02*
X22465848Y11064445D01*
%TD*%
M02*
