%TF.GenerationSoftware,KiCad,Pcbnew,(6.0.9)*%
%TF.CreationDate,2023-01-18T02:21:45+09:00*%
%TF.ProjectId,monitor_control_board,6d6f6e69-746f-4725-9f63-6f6e74726f6c,rev?*%
%TF.SameCoordinates,PX7ab4257PY723a4bd*%
%TF.FileFunction,Legend,Top*%
%TF.FilePolarity,Positive*%
%FSLAX46Y46*%
G04 Gerber Fmt 4.6, Leading zero omitted, Abs format (unit mm)*
G04 Created by KiCad (PCBNEW (6.0.9)) date 2023-01-18 02:21:45*
%MOMM*%
%LPD*%
G01*
G04 APERTURE LIST*
%ADD10C,0.150000*%
%ADD11C,0.250000*%
%ADD12C,0.200000*%
%ADD13C,0.120000*%
G04 APERTURE END LIST*
D10*
X6971849Y10937445D02*
X6971849Y2936445D01*
X6971849Y2936445D02*
X9511849Y2936445D01*
X6971849Y10937445D02*
X9511849Y10937445D01*
X35610349Y15763445D02*
X49961349Y15763445D01*
D11*
X22799506Y22357988D02*
X22799506Y23557988D01*
X23085220Y23557988D01*
X23256649Y23500845D01*
X23370934Y23386560D01*
X23428077Y23272274D01*
X23485220Y23043703D01*
X23485220Y22872274D01*
X23428077Y22643703D01*
X23370934Y22529417D01*
X23256649Y22415131D01*
X23085220Y22357988D01*
X22799506Y22357988D01*
X24228077Y23557988D02*
X24456649Y23557988D01*
X24570934Y23500845D01*
X24685220Y23386560D01*
X24742363Y23157988D01*
X24742363Y22757988D01*
X24685220Y22529417D01*
X24570934Y22415131D01*
X24456649Y22357988D01*
X24228077Y22357988D01*
X24113791Y22415131D01*
X23999506Y22529417D01*
X23942363Y22757988D01*
X23942363Y23157988D01*
X23999506Y23386560D01*
X24113791Y23500845D01*
X24228077Y23557988D01*
X25142363Y23557988D02*
X25428077Y22357988D01*
X25656649Y23215131D01*
X25885220Y22357988D01*
X26170934Y23557988D01*
X26628077Y22357988D02*
X26628077Y23557988D01*
X27313791Y22357988D01*
X27313791Y23557988D01*
D12*
X1187277Y50537684D02*
X1301563Y50490065D01*
X1492039Y50490065D01*
X1568229Y50537684D01*
X1606325Y50585303D01*
X1644420Y50680541D01*
X1644420Y50775779D01*
X1606325Y50871017D01*
X1568229Y50918636D01*
X1492039Y50966255D01*
X1339658Y51013874D01*
X1263468Y51061493D01*
X1225372Y51109112D01*
X1187277Y51204350D01*
X1187277Y51299588D01*
X1225372Y51394826D01*
X1263468Y51442445D01*
X1339658Y51490065D01*
X1530134Y51490065D01*
X1644420Y51442445D01*
X2139658Y51490065D02*
X2292039Y51490065D01*
X2368229Y51442445D01*
X2444420Y51347207D01*
X2482515Y51156731D01*
X2482515Y50823398D01*
X2444420Y50632922D01*
X2368229Y50537684D01*
X2292039Y50490065D01*
X2139658Y50490065D01*
X2063468Y50537684D01*
X1987277Y50632922D01*
X1949182Y50823398D01*
X1949182Y51156731D01*
X1987277Y51347207D01*
X2063468Y51442445D01*
X2139658Y51490065D01*
X2825372Y51490065D02*
X2825372Y50680541D01*
X2863468Y50585303D01*
X2901563Y50537684D01*
X2977753Y50490065D01*
X3130134Y50490065D01*
X3206325Y50537684D01*
X3244420Y50585303D01*
X3282515Y50680541D01*
X3282515Y51490065D01*
X4120610Y50490065D02*
X3853944Y50966255D01*
X3663468Y50490065D02*
X3663468Y51490065D01*
X3968229Y51490065D01*
X4044420Y51442445D01*
X4082515Y51394826D01*
X4120610Y51299588D01*
X4120610Y51156731D01*
X4082515Y51061493D01*
X4044420Y51013874D01*
X3968229Y50966255D01*
X3663468Y50966255D01*
X4920610Y50585303D02*
X4882515Y50537684D01*
X4768229Y50490065D01*
X4692039Y50490065D01*
X4577753Y50537684D01*
X4501563Y50632922D01*
X4463468Y50728160D01*
X4425372Y50918636D01*
X4425372Y51061493D01*
X4463468Y51251969D01*
X4501563Y51347207D01*
X4577753Y51442445D01*
X4692039Y51490065D01*
X4768229Y51490065D01*
X4882515Y51442445D01*
X4920610Y51394826D01*
X5263468Y51013874D02*
X5530134Y51013874D01*
X5644420Y50490065D02*
X5263468Y50490065D01*
X5263468Y51490065D01*
X5644420Y51490065D01*
D11*
X23304515Y34905588D02*
X23304515Y36105588D01*
X23637849Y35248445D01*
X23971182Y36105588D01*
X23971182Y34905588D01*
X24447372Y35534160D02*
X24780706Y35534160D01*
X24923563Y34905588D02*
X24447372Y34905588D01*
X24447372Y36105588D01*
X24923563Y36105588D01*
X25352134Y34905588D02*
X25352134Y36105588D01*
X25923563Y34905588D01*
X25923563Y36105588D01*
X26399753Y36105588D02*
X26399753Y35134160D01*
X26447372Y35019874D01*
X26494991Y34962731D01*
X26590229Y34905588D01*
X26780706Y34905588D01*
X26875944Y34962731D01*
X26923563Y35019874D01*
X26971182Y35134160D01*
X26971182Y36105588D01*
X37220420Y869588D02*
X37220420Y2069588D01*
X37677563Y2069588D01*
X37791849Y2012445D01*
X37848991Y1955303D01*
X37906134Y1841017D01*
X37906134Y1669588D01*
X37848991Y1555303D01*
X37791849Y1498160D01*
X37677563Y1441017D01*
X37220420Y1441017D01*
X38648991Y2069588D02*
X38877563Y2069588D01*
X38991849Y2012445D01*
X39106134Y1898160D01*
X39163277Y1669588D01*
X39163277Y1269588D01*
X39106134Y1041017D01*
X38991849Y926731D01*
X38877563Y869588D01*
X38648991Y869588D01*
X38534706Y926731D01*
X38420420Y1041017D01*
X38363277Y1269588D01*
X38363277Y1669588D01*
X38420420Y1898160D01*
X38534706Y2012445D01*
X38648991Y2069588D01*
X39563277Y2069588D02*
X39848991Y869588D01*
X40077563Y1726731D01*
X40306134Y869588D01*
X40591849Y2069588D01*
X41048991Y1498160D02*
X41448991Y1498160D01*
X41620420Y869588D02*
X41048991Y869588D01*
X41048991Y2069588D01*
X41620420Y2069588D01*
X42820420Y869588D02*
X42420420Y1441017D01*
X42134706Y869588D02*
X42134706Y2069588D01*
X42591849Y2069588D01*
X42706134Y2012445D01*
X42763277Y1955303D01*
X42820420Y1841017D01*
X42820420Y1669588D01*
X42763277Y1555303D01*
X42706134Y1498160D01*
X42591849Y1441017D01*
X42134706Y1441017D01*
X24139191Y48856388D02*
X24139191Y47884960D01*
X24196334Y47770674D01*
X24253477Y47713531D01*
X24367763Y47656388D01*
X24596334Y47656388D01*
X24710620Y47713531D01*
X24767763Y47770674D01*
X24824906Y47884960D01*
X24824906Y48856388D01*
X25396334Y47656388D02*
X25396334Y48856388D01*
X25853477Y48856388D01*
X25967763Y48799245D01*
X26024906Y48742103D01*
X26082049Y48627817D01*
X26082049Y48456388D01*
X26024906Y48342103D01*
X25967763Y48284960D01*
X25853477Y48227817D01*
X25396334Y48227817D01*
X10201106Y36207188D02*
X10601106Y35007188D01*
X11001106Y36207188D01*
X11629677Y36207188D02*
X11858249Y36207188D01*
X11972534Y36150045D01*
X12086820Y36035760D01*
X12143963Y35807188D01*
X12143963Y35407188D01*
X12086820Y35178617D01*
X11972534Y35064331D01*
X11858249Y35007188D01*
X11629677Y35007188D01*
X11515391Y35064331D01*
X11401106Y35178617D01*
X11343963Y35407188D01*
X11343963Y35807188D01*
X11401106Y36035760D01*
X11515391Y36150045D01*
X11629677Y36207188D01*
X13229677Y35007188D02*
X12658249Y35007188D01*
X12658249Y36207188D01*
X13629677Y35464331D02*
X14543963Y35464331D01*
D12*
X8140325Y47886445D02*
X8064134Y47934065D01*
X7949849Y47934065D01*
X7835563Y47886445D01*
X7759372Y47791207D01*
X7721277Y47695969D01*
X7683182Y47505493D01*
X7683182Y47362636D01*
X7721277Y47172160D01*
X7759372Y47076922D01*
X7835563Y46981684D01*
X7949849Y46934065D01*
X8026039Y46934065D01*
X8140325Y46981684D01*
X8178420Y47029303D01*
X8178420Y47362636D01*
X8026039Y47362636D01*
X8521277Y46934065D02*
X8521277Y47934065D01*
X8978420Y46934065D01*
X8978420Y47934065D01*
X9359372Y46934065D02*
X9359372Y47934065D01*
X9549849Y47934065D01*
X9664134Y47886445D01*
X9740325Y47791207D01*
X9778420Y47695969D01*
X9816515Y47505493D01*
X9816515Y47362636D01*
X9778420Y47172160D01*
X9740325Y47076922D01*
X9664134Y46981684D01*
X9549849Y46934065D01*
X9359372Y46934065D01*
D10*
X9765944Y18168445D02*
X9670706Y18216065D01*
X9527849Y18216065D01*
X9384991Y18168445D01*
X9289753Y18073207D01*
X9242134Y17977969D01*
X9194515Y17787493D01*
X9194515Y17644636D01*
X9242134Y17454160D01*
X9289753Y17358922D01*
X9384991Y17263684D01*
X9527849Y17216065D01*
X9623087Y17216065D01*
X9765944Y17263684D01*
X9813563Y17311303D01*
X9813563Y17644636D01*
X9623087Y17644636D01*
X10242134Y17216065D02*
X10242134Y18216065D01*
X10813563Y17216065D01*
X10813563Y18216065D01*
X11289753Y17216065D02*
X11289753Y18216065D01*
X11527849Y18216065D01*
X11670706Y18168445D01*
X11765944Y18073207D01*
X11813563Y17977969D01*
X11861182Y17787493D01*
X11861182Y17644636D01*
X11813563Y17454160D01*
X11765944Y17358922D01*
X11670706Y17263684D01*
X11527849Y17216065D01*
X11289753Y17216065D01*
D12*
X1568229Y43251065D02*
X1568229Y44251065D01*
X1872991Y44251065D01*
X1949182Y44203445D01*
X1987277Y44155826D01*
X2025372Y44060588D01*
X2025372Y43917731D01*
X1987277Y43822493D01*
X1949182Y43774874D01*
X1872991Y43727255D01*
X1568229Y43727255D01*
X2520610Y44251065D02*
X2672991Y44251065D01*
X2749182Y44203445D01*
X2825372Y44108207D01*
X2863468Y43917731D01*
X2863468Y43584398D01*
X2825372Y43393922D01*
X2749182Y43298684D01*
X2672991Y43251065D01*
X2520610Y43251065D01*
X2444420Y43298684D01*
X2368229Y43393922D01*
X2330134Y43584398D01*
X2330134Y43917731D01*
X2368229Y44108207D01*
X2444420Y44203445D01*
X2520610Y44251065D01*
X3130134Y44251065D02*
X3320610Y43251065D01*
X3472991Y43965350D01*
X3625372Y43251065D01*
X3815849Y44251065D01*
X4120610Y43774874D02*
X4387277Y43774874D01*
X4501563Y43251065D02*
X4120610Y43251065D01*
X4120610Y44251065D01*
X4501563Y44251065D01*
X5301563Y43251065D02*
X5034896Y43727255D01*
X4844420Y43251065D02*
X4844420Y44251065D01*
X5149182Y44251065D01*
X5225372Y44203445D01*
X5263468Y44155826D01*
X5301563Y44060588D01*
X5301563Y43917731D01*
X5263468Y43822493D01*
X5225372Y43774874D01*
X5149182Y43727255D01*
X4844420Y43727255D01*
D11*
X35370706Y36181788D02*
X35770706Y34981788D01*
X36170706Y36181788D01*
X36799277Y36181788D02*
X37027849Y36181788D01*
X37142134Y36124645D01*
X37256420Y36010360D01*
X37313563Y35781788D01*
X37313563Y35381788D01*
X37256420Y35153217D01*
X37142134Y35038931D01*
X37027849Y34981788D01*
X36799277Y34981788D01*
X36684991Y35038931D01*
X36570706Y35153217D01*
X36513563Y35381788D01*
X36513563Y35781788D01*
X36570706Y36010360D01*
X36684991Y36124645D01*
X36799277Y36181788D01*
X38399277Y34981788D02*
X37827849Y34981788D01*
X37827849Y36181788D01*
X38799277Y35438931D02*
X39713563Y35438931D01*
X39256420Y34981788D02*
X39256420Y35896074D01*
D10*
X48443753Y7242207D02*
X49015182Y7242207D01*
X49129468Y7204112D01*
X49205658Y7127922D01*
X49243753Y7013636D01*
X49243753Y6937445D01*
X49243753Y8004112D02*
X49243753Y7623160D01*
X48443753Y7623160D01*
X49167563Y8727922D02*
X49205658Y8689826D01*
X49243753Y8575541D01*
X49243753Y8499350D01*
X49205658Y8385065D01*
X49129468Y8308874D01*
X49053277Y8270779D01*
X48900896Y8232684D01*
X48786610Y8232684D01*
X48634229Y8270779D01*
X48558039Y8308874D01*
X48481849Y8385065D01*
X48443753Y8499350D01*
X48443753Y8575541D01*
X48481849Y8689826D01*
X48519944Y8727922D01*
X48443753Y9299350D02*
X49015182Y9299350D01*
X49129468Y9261255D01*
X49205658Y9185065D01*
X49243753Y9070779D01*
X49243753Y8994588D01*
X49243753Y10061255D02*
X49243753Y9680303D01*
X48443753Y9680303D01*
X49167563Y10785065D02*
X49205658Y10746969D01*
X49243753Y10632684D01*
X49243753Y10556493D01*
X49205658Y10442207D01*
X49129468Y10366017D01*
X49053277Y10327922D01*
X48900896Y10289826D01*
X48786610Y10289826D01*
X48634229Y10327922D01*
X48558039Y10366017D01*
X48481849Y10442207D01*
X48443753Y10556493D01*
X48443753Y10632684D01*
X48481849Y10746969D01*
X48519944Y10785065D01*
X48443753Y11356493D02*
X49015182Y11356493D01*
X49129468Y11318398D01*
X49205658Y11242207D01*
X49243753Y11127922D01*
X49243753Y11051731D01*
X49243753Y12118398D02*
X49243753Y11737445D01*
X48443753Y11737445D01*
X49167563Y12842207D02*
X49205658Y12804112D01*
X49243753Y12689826D01*
X49243753Y12613636D01*
X49205658Y12499350D01*
X49129468Y12423160D01*
X49053277Y12385065D01*
X48900896Y12346969D01*
X48786610Y12346969D01*
X48634229Y12385065D01*
X48558039Y12423160D01*
X48481849Y12499350D01*
X48443753Y12613636D01*
X48443753Y12689826D01*
X48481849Y12804112D01*
X48519944Y12842207D01*
X48443753Y13413636D02*
X49015182Y13413636D01*
X49129468Y13375541D01*
X49205658Y13299350D01*
X49243753Y13185065D01*
X49243753Y13108874D01*
X49243753Y14175541D02*
X49243753Y13794588D01*
X48443753Y13794588D01*
X49167563Y14899350D02*
X49205658Y14861255D01*
X49243753Y14746969D01*
X49243753Y14670779D01*
X49205658Y14556493D01*
X49129468Y14480303D01*
X49053277Y14442207D01*
X48900896Y14404112D01*
X48786610Y14404112D01*
X48634229Y14442207D01*
X48558039Y14480303D01*
X48481849Y14556493D01*
X48443753Y14670779D01*
X48443753Y14746969D01*
X48481849Y14861255D01*
X48519944Y14899350D01*
%TO.C,U1*%
X11237229Y6303941D02*
X12046753Y6303941D01*
X12141991Y6351560D01*
X12189610Y6399179D01*
X12237229Y6494417D01*
X12237229Y6684893D01*
X12189610Y6780131D01*
X12141991Y6827750D01*
X12046753Y6875369D01*
X11237229Y6875369D01*
X12237229Y7875369D02*
X12237229Y7303941D01*
X12237229Y7589655D02*
X11237229Y7589655D01*
X11380087Y7494417D01*
X11475325Y7399179D01*
X11522944Y7303941D01*
%TO.C,D2*%
X33078229Y4357350D02*
X32078229Y4357350D01*
X32078229Y4595445D01*
X32125849Y4738303D01*
X32221087Y4833541D01*
X32316325Y4881160D01*
X32506801Y4928779D01*
X32649658Y4928779D01*
X32840134Y4881160D01*
X32935372Y4833541D01*
X33030610Y4738303D01*
X33078229Y4595445D01*
X33078229Y4357350D01*
X32173468Y5309731D02*
X32125849Y5357350D01*
X32078229Y5452588D01*
X32078229Y5690684D01*
X32125849Y5785922D01*
X32173468Y5833541D01*
X32268706Y5881160D01*
X32363944Y5881160D01*
X32506801Y5833541D01*
X33078229Y5262112D01*
X33078229Y5881160D01*
%TO.C,E1*%
X29522372Y10373874D02*
X29855706Y10373874D01*
X29998563Y9850065D02*
X29522372Y9850065D01*
X29522372Y10850065D01*
X29998563Y10850065D01*
X30950944Y9850065D02*
X30379515Y9850065D01*
X30665229Y9850065D02*
X30665229Y10850065D01*
X30569991Y10707207D01*
X30474753Y10611969D01*
X30379515Y10564350D01*
%TO.C,R1*%
X18600229Y11786779D02*
X18124039Y11453445D01*
X18600229Y11215350D02*
X17600229Y11215350D01*
X17600229Y11596303D01*
X17647849Y11691541D01*
X17695468Y11739160D01*
X17790706Y11786779D01*
X17933563Y11786779D01*
X18028801Y11739160D01*
X18076420Y11691541D01*
X18124039Y11596303D01*
X18124039Y11215350D01*
X18600229Y12739160D02*
X18600229Y12167731D01*
X18600229Y12453445D02*
X17600229Y12453445D01*
X17743087Y12358207D01*
X17838325Y12262969D01*
X17885944Y12167731D01*
%TO.C,C1*%
X25601182Y12739303D02*
X25553563Y12691684D01*
X25410706Y12644065D01*
X25315468Y12644065D01*
X25172610Y12691684D01*
X25077372Y12786922D01*
X25029753Y12882160D01*
X24982134Y13072636D01*
X24982134Y13215493D01*
X25029753Y13405969D01*
X25077372Y13501207D01*
X25172610Y13596445D01*
X25315468Y13644065D01*
X25410706Y13644065D01*
X25553563Y13596445D01*
X25601182Y13548826D01*
X26553563Y12644065D02*
X25982134Y12644065D01*
X26267849Y12644065D02*
X26267849Y13644065D01*
X26172610Y13501207D01*
X26077372Y13405969D01*
X25982134Y13358350D01*
%TO.C,C2*%
X25601182Y10707303D02*
X25553563Y10659684D01*
X25410706Y10612065D01*
X25315468Y10612065D01*
X25172610Y10659684D01*
X25077372Y10754922D01*
X25029753Y10850160D01*
X24982134Y11040636D01*
X24982134Y11183493D01*
X25029753Y11373969D01*
X25077372Y11469207D01*
X25172610Y11564445D01*
X25315468Y11612065D01*
X25410706Y11612065D01*
X25553563Y11564445D01*
X25601182Y11516826D01*
X25982134Y11516826D02*
X26029753Y11564445D01*
X26124991Y11612065D01*
X26363087Y11612065D01*
X26458325Y11564445D01*
X26505944Y11516826D01*
X26553563Y11421588D01*
X26553563Y11326350D01*
X26505944Y11183493D01*
X25934515Y10612065D01*
X26553563Y10612065D01*
%TO.C,D1*%
X8773753Y12009065D02*
X8773753Y13009065D01*
X9011849Y13009065D01*
X9154706Y12961445D01*
X9249944Y12866207D01*
X9297563Y12770969D01*
X9345182Y12580493D01*
X9345182Y12437636D01*
X9297563Y12247160D01*
X9249944Y12151922D01*
X9154706Y12056684D01*
X9011849Y12009065D01*
X8773753Y12009065D01*
X10297563Y12009065D02*
X9726134Y12009065D01*
X10011849Y12009065D02*
X10011849Y13009065D01*
X9916610Y12866207D01*
X9821372Y12770969D01*
X9726134Y12723350D01*
D13*
%TO.C,SW1*%
X6217849Y43192445D02*
X8937849Y43192445D01*
X8937849Y30892445D02*
X6217849Y30892445D01*
X18517849Y43192445D02*
X18517849Y30892445D01*
X10797849Y43192445D02*
X13937849Y43192445D01*
X18517849Y30892445D02*
X15797849Y30892445D01*
X6217849Y30892445D02*
X6217849Y43192445D01*
X13937849Y30892445D02*
X10797849Y30892445D01*
X15797849Y43192445D02*
X18517849Y43192445D01*
X16986899Y37142445D02*
G75*
G03*
X16986899Y37142445I-4579050J0D01*
G01*
%TO.C,U1*%
X10894849Y4425845D02*
X10894849Y7025845D01*
X10544849Y4425845D02*
X10894849Y4425845D01*
X8224849Y4425845D02*
X7884849Y4425845D01*
X7884849Y4425845D02*
X7884849Y9515845D01*
X7883113Y9125762D02*
G75*
G03*
X7884849Y4925845I101736J-2099917D01*
G01*
%TO.C,D2*%
X30784849Y3535445D02*
X30940849Y3535445D01*
X28468849Y3535445D02*
X28624849Y3535445D01*
X28626241Y6767780D02*
G75*
G03*
X28469333Y3535445I1078608J-1672335D01*
G01*
X30784849Y4054484D02*
G75*
G03*
X30784686Y6136575I-1080000J1040961D01*
G01*
X28625012Y6136575D02*
G75*
G03*
X28624849Y4054484I1079837J-1041130D01*
G01*
X30940365Y3535445D02*
G75*
G03*
X30783457Y6767780I-1235516J1560000D01*
G01*
%TO.C,SW6*%
X40797849Y10512445D02*
X39297849Y10512445D01*
X43297849Y4762445D02*
X43297849Y9262445D01*
X39297849Y3512445D02*
X40797849Y3512445D01*
X36797849Y9262445D02*
X36797849Y4762445D01*
%TO.C,TP1*%
X4615849Y49037445D02*
G75*
G03*
X4615849Y49037445I-1200000J0D01*
G01*
%TO.C,SW5*%
X43817849Y43202445D02*
X43817849Y30902445D01*
X31517849Y30902445D02*
X31517849Y43202445D01*
X31517849Y43202445D02*
X34237849Y43202445D01*
X36097849Y43202445D02*
X39237849Y43202445D01*
X34237849Y30902445D02*
X31517849Y30902445D01*
X39237849Y30902445D02*
X36097849Y30902445D01*
X41097849Y43202445D02*
X43817849Y43202445D01*
X43817849Y30902445D02*
X41097849Y30902445D01*
X42206899Y36952445D02*
G75*
G03*
X42206899Y36952445I-4579050J0D01*
G01*
%TO.C,TP3*%
X4615849Y45735445D02*
G75*
G03*
X4615849Y45735445I-1200000J0D01*
G01*
%TO.C,TP2*%
X7409849Y47386445D02*
G75*
G03*
X7409849Y47386445I-1200000J0D01*
G01*
%TO.C,SW4*%
X31157849Y18222445D02*
X18857849Y18222445D01*
X31157849Y30522445D02*
X31157849Y27802445D01*
X18857849Y22802445D02*
X18857849Y25942445D01*
X31157849Y25942445D02*
X31157849Y22802445D01*
X18857849Y30522445D02*
X31157849Y30522445D01*
X18857849Y18222445D02*
X18857849Y20942445D01*
X31157849Y20942445D02*
X31157849Y18222445D01*
X18857849Y27802445D02*
X18857849Y30522445D01*
X29486899Y24412445D02*
G75*
G03*
X29486899Y24412445I-4579050J0D01*
G01*
%TO.C,E1*%
X27952849Y10630882D02*
X27952849Y10766445D01*
X29017286Y9566445D02*
X32472849Y9566445D01*
X29017286Y14086445D02*
X32472849Y14086445D01*
X27212849Y13386445D02*
X27712849Y13386445D01*
X32472849Y9566445D02*
X32472849Y10766445D01*
X27952849Y10630882D02*
X29017286Y9566445D01*
X27952849Y13022008D02*
X27952849Y12886445D01*
X27952849Y13022008D02*
X29017286Y14086445D01*
X32472849Y14086445D02*
X32472849Y12886445D01*
X27462849Y13636445D02*
X27462849Y13136445D01*
%TO.C,SW2*%
X18887849Y53082445D02*
X18887849Y55802445D01*
X18887849Y55802445D02*
X31187849Y55802445D01*
X31187849Y55802445D02*
X31187849Y53082445D01*
X18887849Y43502445D02*
X18887849Y46222445D01*
X31187849Y43502445D02*
X18887849Y43502445D01*
X31187849Y46222445D02*
X31187849Y43502445D01*
X31187849Y51222445D02*
X31187849Y48082445D01*
X18887849Y48082445D02*
X18887849Y51222445D01*
X29716899Y49612445D02*
G75*
G03*
X29716899Y49612445I-4579050J0D01*
G01*
%TO.C,R1*%
X18936849Y11726381D02*
X18936849Y12180509D01*
X20406849Y11726381D02*
X20406849Y12180509D01*
%TO.C,C1*%
X22712597Y13831445D02*
X23235101Y13831445D01*
X22712597Y12361445D02*
X23235101Y12361445D01*
%TO.C,TP4*%
X11727849Y19700445D02*
G75*
G03*
X11727849Y19700445I-1200000J0D01*
G01*
%TO.C,C2*%
X22712597Y10329445D02*
X23235101Y10329445D01*
X22712597Y11799445D02*
X23235101Y11799445D01*
%TO.C,D1*%
X11317849Y11461445D02*
X15617849Y11461445D01*
X15617849Y13461445D02*
X11317849Y13461445D01*
X15617849Y11461445D02*
X15617849Y13461445D01*
%TO.C,SW3*%
X18887849Y30873245D02*
X18887849Y33593245D01*
X18887849Y40453245D02*
X18887849Y43173245D01*
X31187849Y43173245D02*
X31187849Y40453245D01*
X18887849Y43173245D02*
X31187849Y43173245D01*
X18887849Y35453245D02*
X18887849Y38593245D01*
X31187849Y33593245D02*
X31187849Y30873245D01*
X31187849Y30873245D02*
X18887849Y30873245D01*
X31187849Y38593245D02*
X31187849Y35453245D01*
X29716899Y36983245D02*
G75*
G03*
X29716899Y36983245I-4579050J0D01*
G01*
%TD*%
M02*
