%TF.GenerationSoftware,KiCad,Pcbnew,(6.0.7)*%
%TF.CreationDate,2022-08-18T12:53:55+09:00*%
%TF.ProjectId,monitor_control_board,6d6f6e69-746f-4725-9f63-6f6e74726f6c,rev?*%
%TF.SameCoordinates,Original*%
%TF.FileFunction,Profile,NP*%
%FSLAX46Y46*%
G04 Gerber Fmt 4.6, Leading zero omitted, Abs format (unit mm)*
G04 Created by KiCad (PCBNEW (6.0.7)) date 2022-08-18 12:53:55*
%MOMM*%
%LPD*%
G01*
G04 APERTURE LIST*
%TA.AperFunction,Profile*%
%ADD10C,0.264582*%
%TD*%
G04 APERTURE END LIST*
D10*
X154196297Y-82909166D02*
X154203042Y-82885449D01*
X176354760Y-120531833D02*
X176391040Y-120500420D01*
X168249238Y-112588683D02*
X168241371Y-112611905D01*
X168546970Y-113229967D02*
X168570196Y-113237823D01*
X153291303Y-83019698D02*
X153304311Y-83039975D01*
X168546970Y-112291097D02*
X168524270Y-112300044D01*
X169218171Y-112734811D02*
X169216229Y-112709428D01*
X130750419Y-119510716D02*
X130739237Y-119559077D01*
X131011901Y-119053745D02*
X130978790Y-119088455D01*
X169218834Y-112760532D02*
X169218171Y-112734811D01*
X174763909Y-104463282D02*
X174750419Y-104510716D01*
X132016110Y-103805953D02*
X131968670Y-103792486D01*
X154196297Y-82611913D02*
X154188430Y-82588691D01*
X169188430Y-112588683D02*
X169179472Y-112565988D01*
X169216229Y-112709428D02*
X169213040Y-112684415D01*
X169196297Y-112611905D02*
X169188430Y-112588683D01*
X169213040Y-112684415D02*
X169208633Y-112659802D01*
X132673760Y-120057789D02*
X132687250Y-120010355D01*
X168459639Y-112333118D02*
X168439356Y-112346116D01*
X154146366Y-83019698D02*
X154158408Y-82998770D01*
X169208633Y-112659802D02*
X169203042Y-112635622D01*
X153769939Y-82263363D02*
X153744555Y-82261434D01*
X168224628Y-112684415D02*
X168221438Y-112709428D01*
X130750419Y-104510716D02*
X130739237Y-104559077D01*
X130739237Y-119961995D02*
X130750419Y-120010355D01*
X169203042Y-112635622D02*
X169196297Y-112611905D01*
X175082908Y-59989244D02*
X175046627Y-60020657D01*
X168744555Y-113259637D02*
X168769939Y-113257708D01*
X130750419Y-60510721D02*
X130739237Y-60559082D01*
X169179472Y-112565988D02*
X169169454Y-112543850D01*
X175200445Y-105615363D02*
X175242314Y-105639427D01*
X176640108Y-60371453D02*
X176620072Y-60327177D01*
X131046627Y-119020651D02*
X131011901Y-119053745D01*
X169169454Y-112543850D02*
X169158408Y-112522301D01*
X169158408Y-112522301D02*
X169146366Y-112501373D01*
X176016109Y-59805959D02*
X175968669Y-59792492D01*
X169146366Y-112501373D02*
X169133358Y-112481096D01*
X174917671Y-104162478D02*
X174889788Y-104201665D01*
X153794954Y-82266541D02*
X153769939Y-82263363D01*
X169133358Y-112481096D02*
X169119416Y-112461503D01*
X132425769Y-60053750D02*
X132391042Y-60020657D01*
X174739236Y-119559077D02*
X174730423Y-119608302D01*
X175200445Y-59905714D02*
X175159880Y-59931710D01*
X168400870Y-112374883D02*
X168382730Y-112390590D01*
X131375108Y-103821665D02*
X131329708Y-103839559D01*
X174779643Y-60416844D02*
X174763909Y-60463288D01*
X175159880Y-118931704D02*
X175120680Y-118959568D01*
X169119416Y-112461503D02*
X169104572Y-112442624D01*
X176698432Y-104559077D02*
X176687249Y-104510716D01*
X174889788Y-120319407D02*
X174917671Y-120358593D01*
X169104572Y-112442624D02*
X169088856Y-112424492D01*
X131718835Y-120760047D02*
X131718835Y-120760047D01*
X169088856Y-112424492D02*
X169072301Y-112407136D01*
X153593916Y-82276515D02*
X153570196Y-82283248D01*
X168333096Y-112442624D02*
X168318252Y-112461503D01*
X169072301Y-112407136D02*
X169054938Y-112390590D01*
X175517365Y-59781333D02*
X175468999Y-59792492D01*
X176107960Y-103839559D02*
X176062560Y-103821665D01*
X174839687Y-120236997D02*
X174863772Y-120278854D01*
X132152247Y-59859579D02*
X132107962Y-59839565D01*
X175968669Y-103792486D02*
X175920303Y-103781327D01*
X169054938Y-112390590D02*
X169036797Y-112374883D01*
X168318252Y-112461503D02*
X168304310Y-112481096D01*
X175200445Y-118905708D02*
X175159880Y-118931704D01*
X130730424Y-119912769D02*
X130739237Y-119961995D01*
X176717508Y-104709094D02*
X176713624Y-104658328D01*
X131517366Y-118781327D02*
X131468999Y-118792486D01*
X169036797Y-112374883D02*
X169017911Y-112360048D01*
X169017911Y-112360048D02*
X168998311Y-112346116D01*
X169203042Y-112885442D02*
X169208633Y-112861261D01*
X168998311Y-112346116D02*
X168978028Y-112333118D01*
X168978028Y-112333118D02*
X168957094Y-112321086D01*
X130724044Y-104658328D02*
X130720160Y-104709094D01*
X168224628Y-112836649D02*
X168229034Y-112861261D01*
X168957094Y-112321086D02*
X168935540Y-112310051D01*
X168221438Y-112709428D02*
X168219496Y-112734811D01*
X176490308Y-60124726D02*
X176458877Y-60088461D01*
X168419756Y-112360048D02*
X168400870Y-112374883D01*
X176425767Y-61467333D02*
X176458877Y-61432622D01*
X130839687Y-119284074D02*
X130817596Y-119327172D01*
X168258196Y-112565988D02*
X168249238Y-112588683D01*
X174817595Y-105193899D02*
X174839687Y-105236997D01*
X168593916Y-112276507D02*
X168570196Y-112283241D01*
X174763909Y-120057789D02*
X174779643Y-120104233D01*
X168935540Y-112310051D02*
X168913397Y-112300044D01*
X178718838Y-122760330D02*
X128718832Y-122760330D01*
X132354761Y-120531833D02*
X132391042Y-120500420D01*
X168718834Y-112260776D02*
X168693113Y-112261426D01*
X168913397Y-112300044D02*
X168890697Y-112291097D01*
X131159880Y-120589367D02*
X131200446Y-120615363D01*
X168348811Y-112424492D02*
X168333096Y-112442624D01*
X130724044Y-119862743D02*
X130730424Y-119912769D01*
X132658026Y-119416838D02*
X132640109Y-119371447D01*
X168890697Y-112291097D02*
X168867472Y-112283241D01*
X176107960Y-61681518D02*
X176152246Y-61661504D01*
X132316990Y-61561509D02*
X132354761Y-61531839D01*
X168279260Y-112522301D02*
X168268214Y-112543850D01*
X130779644Y-120104233D02*
X130797560Y-120149624D01*
X132458879Y-105432616D02*
X132490310Y-105396350D01*
X168867472Y-112283241D02*
X168843751Y-112276507D01*
X168365366Y-112407136D02*
X168348811Y-112424492D01*
X176707244Y-60608307D02*
X176698432Y-60559082D01*
X168642714Y-112266533D02*
X168618099Y-112270928D01*
X168843751Y-112276507D02*
X168819568Y-112270928D01*
X168718834Y-113260288D02*
X168744555Y-113259637D01*
X130817596Y-104327172D02*
X130797560Y-104371447D01*
X168291302Y-112501373D02*
X168279260Y-112522301D01*
X168957094Y-113199978D02*
X168978028Y-113187945D01*
X131082908Y-105531833D02*
X131120680Y-105561503D01*
X130730424Y-60912775D02*
X130739237Y-60962001D01*
X168819568Y-112270928D02*
X168794954Y-112266533D01*
X176354760Y-59989244D02*
X176316988Y-59959574D01*
X176354760Y-118989238D02*
X176316988Y-118959568D01*
X168502128Y-112310051D02*
X168480573Y-112321086D01*
X174797560Y-105149624D02*
X174817595Y-105193899D01*
X153224629Y-82684422D02*
X153221439Y-82709436D01*
X153221439Y-82709436D02*
X153219497Y-82734819D01*
X176519997Y-104162478D02*
X176490308Y-104124721D01*
X168794954Y-112266533D02*
X168769939Y-112263356D01*
X154188430Y-82588691D02*
X154179472Y-82565995D01*
X168524270Y-112300044D02*
X168502128Y-112310051D01*
X130720160Y-119709094D02*
X130718835Y-119760536D01*
X153400871Y-82374891D02*
X153382730Y-82390597D01*
X153419757Y-83161023D02*
X153439357Y-83174955D01*
X168769939Y-112263356D02*
X168744555Y-112261426D01*
X132152247Y-120661498D02*
X132195355Y-120639427D01*
X132237224Y-61615369D02*
X132277789Y-61589373D01*
X132316990Y-120561503D02*
X132354761Y-120531833D01*
X175285422Y-105661498D02*
X175329707Y-105681512D01*
X168744555Y-112261426D02*
X168718834Y-112260776D01*
X168718834Y-112260776D02*
X168718834Y-112260776D01*
X130839687Y-105236997D02*
X130863772Y-105278854D01*
X176016109Y-120715118D02*
X176062560Y-120699406D01*
X153718834Y-82260783D02*
X153693113Y-82261434D01*
X169218171Y-112786253D02*
X169218834Y-112760532D01*
X168693113Y-112261426D02*
X168667729Y-112263356D01*
X176547880Y-105319407D02*
X176573896Y-105278854D01*
X132062562Y-59821671D02*
X132016110Y-59805959D01*
X175159880Y-59931710D02*
X175120680Y-59959574D01*
X168667729Y-112263356D02*
X168642714Y-112266533D01*
X175517365Y-103781327D02*
X175468999Y-103792486D01*
X131718835Y-120760047D02*
X131770277Y-120758747D01*
X168618099Y-112270928D02*
X168593916Y-112276507D01*
X168304310Y-112481096D02*
X168291302Y-112501373D01*
X176277788Y-120589367D02*
X176316988Y-120561503D01*
X168570196Y-112283241D02*
X168546970Y-112291097D01*
X132718835Y-104760536D02*
X132718835Y-104760536D01*
X131242314Y-120639427D02*
X131285422Y-120661498D01*
X168480573Y-112321086D02*
X168459639Y-112333118D01*
X153618099Y-83250144D02*
X153642714Y-83254538D01*
X168439356Y-112346116D02*
X168419756Y-112360048D01*
X174889788Y-119201665D02*
X174863772Y-119242218D01*
X131120680Y-120561503D02*
X131159880Y-120589367D01*
X132458879Y-120432616D02*
X132490310Y-120396350D01*
X168382730Y-112390590D02*
X168365366Y-112407136D01*
X130863772Y-119242218D02*
X130839687Y-119284074D01*
X176458877Y-105432616D02*
X176490308Y-105396350D01*
X168268214Y-112543850D02*
X168258196Y-112565988D01*
X132597982Y-120236997D02*
X132620074Y-120193899D01*
X153258197Y-82955083D02*
X153268215Y-82977221D01*
X168241371Y-112611905D02*
X168234626Y-112635622D01*
X168234626Y-112635622D02*
X168229034Y-112659802D01*
X132717509Y-119811977D02*
X132718835Y-119760536D01*
X168229034Y-112659802D02*
X168224628Y-112684415D01*
X175968669Y-105728585D02*
X176016109Y-105715118D01*
X168219496Y-112734811D02*
X168218834Y-112760532D01*
X176354760Y-61531839D02*
X176391040Y-61500426D01*
X131421559Y-118805953D02*
X131375108Y-118821665D01*
X168218834Y-112760532D02*
X168218834Y-112760532D01*
X168218834Y-112760532D02*
X168219496Y-112786253D01*
X168219496Y-112786253D02*
X168221438Y-112811635D01*
X168221438Y-112811635D02*
X168224628Y-112836649D01*
X130978790Y-105432616D02*
X131011901Y-105467326D01*
X168229034Y-112861261D02*
X168234626Y-112885442D01*
X132277789Y-59931710D02*
X132237224Y-59905714D01*
X132718835Y-119760536D02*
X132717509Y-119709094D01*
X132673760Y-119463282D02*
X132658026Y-119416838D01*
X168234626Y-112885442D02*
X168241371Y-112909158D01*
X174947359Y-119124721D02*
X174917671Y-119162478D01*
X168241371Y-112909158D02*
X168249238Y-112932380D01*
X131082908Y-103989238D02*
X131046627Y-104020651D01*
X176658024Y-61104239D02*
X176673759Y-61057795D01*
X132016110Y-120715118D02*
X132062562Y-120699406D01*
X168249238Y-112932380D02*
X168258196Y-112955076D01*
X168718834Y-113260288D02*
X168718834Y-113260288D01*
X131329708Y-118839559D02*
X131285422Y-118859573D01*
X168258196Y-112955076D02*
X168268214Y-112977214D01*
X174763909Y-61057795D02*
X174779643Y-61104239D01*
X168978028Y-113187945D02*
X168998311Y-113174947D01*
X168268214Y-112977214D02*
X168279260Y-112998762D01*
X168279260Y-112998762D02*
X168291302Y-113019691D01*
X168291302Y-113019691D02*
X168304310Y-113039967D01*
X176107960Y-105681512D02*
X176152246Y-105661498D01*
X168304310Y-113039967D02*
X168318252Y-113059560D01*
X153268215Y-82543857D02*
X153258197Y-82565995D01*
X168318252Y-113059560D02*
X168333096Y-113078439D01*
X130724044Y-60658334D02*
X130720160Y-60709100D01*
X132195355Y-120639427D02*
X132237224Y-120615363D01*
X168333096Y-113078439D02*
X168348811Y-113096572D01*
X175120680Y-118959568D02*
X175082908Y-118989238D01*
X130978790Y-120432616D02*
X131011901Y-120467326D01*
X168348811Y-113096572D02*
X168365366Y-113113927D01*
X168365366Y-113113927D02*
X168382730Y-113130474D01*
X176237222Y-103905708D02*
X176195354Y-103881644D01*
X132658026Y-120104233D02*
X132673760Y-120057789D01*
X168382730Y-113130474D02*
X168400870Y-113146180D01*
X174978790Y-60088461D02*
X174947359Y-60124726D01*
X175285422Y-118859573D02*
X175242314Y-118881644D01*
X168400870Y-113146180D02*
X168419756Y-113161015D01*
X176547880Y-104201665D02*
X176519997Y-104162478D01*
X154218171Y-82786260D02*
X154218834Y-82760539D01*
X168419756Y-113161015D02*
X168439356Y-113174947D01*
X168439356Y-113174947D02*
X168459639Y-113187945D01*
X176597981Y-119284074D02*
X176573896Y-119242218D01*
X130763909Y-119463282D02*
X130750419Y-119510716D01*
X154218834Y-82760539D02*
X154218834Y-82760539D01*
X168459639Y-113187945D02*
X168480573Y-113199978D01*
X174978790Y-120432616D02*
X175011900Y-120467326D01*
X168480573Y-113199978D02*
X168502128Y-113211013D01*
X168502128Y-113211013D02*
X168524270Y-113221020D01*
X168524270Y-113221020D02*
X168546970Y-113229967D01*
X168570196Y-113237823D02*
X168593916Y-113244556D01*
X176519997Y-105358593D02*
X176547880Y-105319407D01*
X132107962Y-120681512D02*
X132152247Y-120661498D01*
X168593916Y-113244556D02*
X168618099Y-113250136D01*
X176717508Y-119709094D02*
X176713624Y-119658328D01*
X131968670Y-120728585D02*
X132016110Y-120715118D01*
X168618099Y-113250136D02*
X168642714Y-113254530D01*
X175082908Y-61531839D02*
X175120680Y-61561509D01*
X130779644Y-61104239D02*
X130797560Y-61149630D01*
X168642714Y-113254530D02*
X168667729Y-113257708D01*
X174750419Y-60510721D02*
X174739236Y-60559082D01*
X130739237Y-60559082D02*
X130730424Y-60608307D01*
X176237222Y-118905708D02*
X176195354Y-118881644D01*
X168667729Y-113257708D02*
X168693113Y-113259637D01*
X132277789Y-103931704D02*
X132237224Y-103905708D01*
X131718835Y-105760047D02*
X131770277Y-105758747D01*
X168693113Y-113259637D02*
X168718834Y-113260288D01*
X131011901Y-60053750D02*
X130978790Y-60088461D01*
X131285422Y-120661498D02*
X131329708Y-120681512D01*
X168769939Y-113257708D02*
X168794954Y-113254530D01*
X131120680Y-118959568D02*
X131082908Y-118989238D01*
X168794954Y-113254530D02*
X168819568Y-113250136D01*
X168819568Y-113250136D02*
X168843751Y-113244556D01*
X168843751Y-113244556D02*
X168867472Y-113237823D01*
X132316990Y-105561503D02*
X132354761Y-105531833D01*
X130724044Y-60862749D02*
X130730424Y-60912775D01*
X168867472Y-113237823D02*
X168890697Y-113229967D01*
X132707246Y-119912769D02*
X132713625Y-119862743D01*
X168890697Y-113229967D02*
X168913397Y-113221020D01*
X131329708Y-61681518D02*
X131375108Y-61699412D01*
X132425769Y-119053745D02*
X132391042Y-119020651D01*
X168913397Y-113221020D02*
X168935540Y-113211013D01*
X131517366Y-103781327D02*
X131468999Y-103792486D01*
X176458877Y-60088461D02*
X176425767Y-60053750D01*
X175667392Y-118762324D02*
X175616624Y-118766183D01*
X168935540Y-113211013D02*
X168957094Y-113199978D01*
X175920303Y-59781333D02*
X175871073Y-59772544D01*
X168998311Y-113174947D02*
X169017911Y-113161015D01*
X154072301Y-83113935D02*
X154088856Y-83096579D01*
X169017911Y-113161015D02*
X169036797Y-113146180D01*
X174720159Y-104811977D02*
X174724043Y-104862743D01*
X176490308Y-61396356D02*
X176519997Y-61358599D01*
X169036797Y-113146180D02*
X169054938Y-113130474D01*
X130863772Y-61278860D02*
X130889788Y-61319413D01*
X131082908Y-118989238D02*
X131046627Y-119020651D01*
X169054938Y-113130474D02*
X169072301Y-113113927D01*
X169072301Y-113113927D02*
X169088856Y-113096572D01*
X176547880Y-119201665D02*
X176519997Y-119162478D01*
X176277788Y-59931710D02*
X176237222Y-59905714D01*
X131011901Y-61467333D02*
X131046627Y-61500426D01*
X169088856Y-113096572D02*
X169104572Y-113078439D01*
X169104572Y-113078439D02*
X169119416Y-113059560D01*
X169119416Y-113059560D02*
X169133358Y-113039967D01*
X175375107Y-105699406D02*
X175421559Y-105715118D01*
X174718834Y-119760536D02*
X174720159Y-119811977D01*
X169133358Y-113039967D02*
X169146366Y-113019691D01*
X169146366Y-113019691D02*
X169158408Y-112998762D01*
X153241371Y-82909166D02*
X153249239Y-82932388D01*
X174889788Y-60201670D02*
X174863772Y-60242223D01*
X175667392Y-61758753D02*
X175718834Y-61760053D01*
X169158408Y-112998762D02*
X169169454Y-112977214D01*
X131242314Y-118881644D02*
X131200446Y-118905708D01*
X154119416Y-82461511D02*
X154104572Y-82442632D01*
X130839687Y-61237003D02*
X130863772Y-61278860D01*
X169169454Y-112977214D02*
X169179472Y-112955076D01*
X132717509Y-104811977D02*
X132718835Y-104760536D01*
X169179472Y-112955076D02*
X169188430Y-112932380D01*
X174863772Y-120278854D02*
X174889788Y-120319407D01*
X169188430Y-112932380D02*
X169196297Y-112909158D01*
X154218834Y-82760539D02*
X154218834Y-82760539D01*
X169196297Y-112909158D02*
X169203042Y-112885442D01*
X131159880Y-118931704D02*
X131120680Y-118959568D01*
X169208633Y-112861261D02*
X169213040Y-112836649D01*
X175468999Y-118792486D02*
X175421559Y-118805953D01*
X132573897Y-104242218D02*
X132547882Y-104201665D01*
X169213040Y-112836649D02*
X169216229Y-112811635D01*
X169216229Y-112811635D02*
X169218171Y-112786253D01*
X154036797Y-83146188D02*
X154054938Y-83130481D01*
X169218834Y-112760532D02*
X169218834Y-112760532D01*
X169218834Y-112760532D02*
X169218834Y-112760532D01*
X132490310Y-104124721D02*
X132458879Y-104088455D01*
X128718832Y-57760140D02*
X178718838Y-57760140D01*
X132713625Y-119862743D02*
X132717509Y-119811977D01*
X175011900Y-120467326D02*
X175046627Y-120500420D01*
X154218834Y-82760539D02*
X154218171Y-82734819D01*
X131968670Y-61728591D02*
X132016110Y-61715124D01*
X154119416Y-83059568D02*
X154133358Y-83039975D01*
X130839687Y-60284079D02*
X130817596Y-60327177D01*
X154218171Y-82734819D02*
X154216229Y-82709436D01*
X132391042Y-104020651D02*
X132354761Y-103989238D01*
X154054938Y-83130481D02*
X154072301Y-83113935D01*
X176718834Y-60760541D02*
X176718834Y-60760541D01*
X154216229Y-82709436D02*
X154213040Y-82684422D01*
X175011900Y-104053745D02*
X174978790Y-104088455D01*
X153642714Y-83254538D02*
X153667729Y-83257715D01*
X154213040Y-82684422D02*
X154208633Y-82659810D01*
X176658024Y-104416838D02*
X176640108Y-104371447D01*
X175242314Y-118881644D02*
X175200445Y-118905708D01*
X154208633Y-82659810D02*
X154203042Y-82635629D01*
X154203042Y-82635629D02*
X154196297Y-82611913D01*
X175011900Y-119053745D02*
X174978790Y-119088455D01*
X154179472Y-82565995D02*
X154169454Y-82543857D01*
X176713624Y-119658328D02*
X176707244Y-119608302D01*
X174797560Y-119371447D02*
X174779643Y-119416838D01*
X132237224Y-120615363D02*
X132277789Y-120589367D01*
X154169454Y-82543857D02*
X154158408Y-82522309D01*
X154158408Y-82522309D02*
X154146366Y-82501380D01*
X132391042Y-119020651D02*
X132354761Y-118989238D01*
X154146366Y-82501380D02*
X154133358Y-82481104D01*
X175468999Y-120728585D02*
X175517365Y-120739744D01*
X176277788Y-61589373D02*
X176316988Y-61561509D01*
X130817596Y-60327177D02*
X130797560Y-60371453D01*
X154133358Y-82481104D02*
X154119416Y-82461511D01*
X154104572Y-82442632D02*
X154088856Y-82424499D01*
X153998311Y-82346124D02*
X153978028Y-82333126D01*
X154088856Y-82424499D02*
X154072301Y-82407144D01*
X154072301Y-82407144D02*
X154054938Y-82390597D01*
X153769939Y-83257715D02*
X153794954Y-83254538D01*
X154054938Y-82390597D02*
X154036797Y-82374891D01*
X154036797Y-82374891D02*
X154017911Y-82360056D01*
X174730423Y-104912769D02*
X174739236Y-104961995D01*
X174750419Y-119510716D02*
X174739236Y-119559077D01*
X175468999Y-59792492D02*
X175421559Y-59805959D01*
X154017911Y-82360056D02*
X153998311Y-82346124D01*
X153978028Y-82333126D02*
X153957094Y-82321093D01*
X131667392Y-59762330D02*
X131616625Y-59766189D01*
X174724043Y-60658334D02*
X174720159Y-60709100D01*
X153957094Y-82321093D02*
X153935540Y-82310058D01*
X132620074Y-61193906D02*
X132640109Y-61149630D01*
X132573897Y-105278854D02*
X132597982Y-105236997D01*
X153935540Y-82310058D02*
X153913397Y-82300051D01*
X153913397Y-82300051D02*
X153890697Y-82291104D01*
X132717509Y-60811983D02*
X132718835Y-60760541D01*
X132425769Y-120467326D02*
X132458879Y-120432616D01*
X130917671Y-120358593D02*
X130947360Y-120396350D01*
X153890697Y-82291104D02*
X153867472Y-82283248D01*
X153419757Y-82360056D02*
X153400871Y-82374891D01*
X153867472Y-82283248D02*
X153843751Y-82276515D01*
X153843751Y-82276515D02*
X153819568Y-82270935D01*
X175770276Y-120758747D02*
X175821044Y-120754888D01*
X153819568Y-82270935D02*
X153794954Y-82266541D01*
X153218834Y-82760539D02*
X153219497Y-82786260D01*
X153744555Y-82261434D02*
X153718834Y-82260783D01*
X174718834Y-119760536D02*
X174718834Y-119760536D01*
X153718834Y-82260783D02*
X153718834Y-82260783D01*
X153219497Y-82786260D02*
X153221439Y-82811643D01*
X174779643Y-119416838D02*
X174763909Y-119463282D01*
X176640108Y-61149630D02*
X176658024Y-61104239D01*
X131667392Y-120758747D02*
X131718835Y-120760047D01*
X153693113Y-82261434D02*
X153667729Y-82263363D01*
X176597981Y-104284074D02*
X176573896Y-104242218D01*
X153667729Y-82263363D02*
X153642714Y-82266541D01*
X153642714Y-82266541D02*
X153618099Y-82270935D01*
X132547882Y-119201665D02*
X132519998Y-119162478D01*
X153618099Y-82270935D02*
X153593916Y-82276515D01*
X175920303Y-118781327D02*
X175871073Y-118772539D01*
X153439357Y-82346124D02*
X153419757Y-82360056D01*
X131920304Y-59781333D02*
X131871075Y-59772544D01*
X153570196Y-82283248D02*
X153546971Y-82291104D01*
X130863772Y-60242223D02*
X130839687Y-60284079D01*
X153546971Y-82291104D02*
X153524271Y-82300051D01*
X130730424Y-104912769D02*
X130739237Y-104961995D01*
X153459640Y-83187953D02*
X153480574Y-83199985D01*
X153524271Y-82300051D02*
X153502128Y-82310058D01*
X153502128Y-82310058D02*
X153480574Y-82321093D01*
X130839687Y-120236997D02*
X130863772Y-120278854D01*
X174730423Y-119608302D02*
X174724043Y-119658328D01*
X153480574Y-82321093D02*
X153459640Y-82333126D01*
X153502128Y-83211021D02*
X153524271Y-83221027D01*
X153459640Y-82333126D02*
X153439357Y-82346124D01*
X153382730Y-82390597D02*
X153365367Y-82407144D01*
X153365367Y-82407144D02*
X153348812Y-82424499D01*
X153348812Y-82424499D02*
X153333097Y-82442632D01*
X153333097Y-82442632D02*
X153318252Y-82461511D01*
X153318252Y-82461511D02*
X153304311Y-82481104D01*
X153524271Y-83221027D02*
X153546971Y-83229975D01*
X176425767Y-104053745D02*
X176391040Y-104020651D01*
X131421559Y-120715118D02*
X131468999Y-120728585D01*
X153304311Y-82481104D02*
X153291303Y-82501380D01*
X153291303Y-82501380D02*
X153279260Y-82522309D01*
X132458879Y-61432622D02*
X132490310Y-61396356D01*
X153279260Y-82522309D02*
X153268215Y-82543857D01*
X132062562Y-105699406D02*
X132107962Y-105681512D01*
X153258197Y-82565995D02*
X153249239Y-82588691D01*
X176707244Y-60912775D02*
X176713624Y-60862749D01*
X153249239Y-82588691D02*
X153241371Y-82611913D01*
X153241371Y-82611913D02*
X153234626Y-82635629D01*
X153234626Y-82635629D02*
X153229035Y-82659810D01*
X130718835Y-104760536D02*
X130718835Y-104760536D01*
X153229035Y-82659810D02*
X153224629Y-82684422D01*
X176673759Y-119463282D02*
X176658024Y-119416838D01*
X131375108Y-118821665D02*
X131329708Y-118839559D01*
X153219497Y-82734819D02*
X153218834Y-82760539D01*
X174779643Y-120104233D02*
X174797560Y-120149624D01*
X153218834Y-82760539D02*
X153218834Y-82760539D01*
X131770277Y-59762330D02*
X131718835Y-59761030D01*
X175616624Y-120754888D02*
X175667392Y-120758747D01*
X153221439Y-82811643D02*
X153224629Y-82836656D01*
X153224629Y-82836656D02*
X153229035Y-82861269D01*
X176277788Y-105589367D02*
X176316988Y-105561503D01*
X132490310Y-119124721D02*
X132458879Y-119088455D01*
X153249239Y-82932388D02*
X153258197Y-82955083D01*
X175718834Y-103761024D02*
X175718834Y-103761024D01*
X153229035Y-82861269D02*
X153234626Y-82885449D01*
X131718835Y-103761024D02*
X131667392Y-103762324D01*
X132673760Y-61057795D02*
X132687250Y-61010361D01*
X153234626Y-82885449D02*
X153241371Y-82909166D01*
X153570196Y-83237831D02*
X153593916Y-83244564D01*
X153268215Y-82977221D02*
X153279260Y-82998770D01*
X132391042Y-120500420D02*
X132425769Y-120467326D01*
X132718835Y-104760536D02*
X132717509Y-104709094D01*
X153279260Y-82998770D02*
X153291303Y-83019698D01*
X153304311Y-83039975D02*
X153318252Y-83059568D01*
X130978790Y-119088455D02*
X130947360Y-119124721D01*
X153318252Y-83059568D02*
X153333097Y-83078447D01*
X153333097Y-83078447D02*
X153348812Y-83096579D01*
X131285422Y-103859573D02*
X131242314Y-103881644D01*
X153348812Y-83096579D02*
X153365367Y-83113935D01*
X174720159Y-60709100D02*
X174718834Y-60760541D01*
X174720159Y-119709094D02*
X174718834Y-119760536D01*
X132458879Y-119088455D02*
X132425769Y-119053745D01*
X153365367Y-83113935D02*
X153382730Y-83130481D01*
X174839687Y-61237003D02*
X174863772Y-61278860D01*
X153382730Y-83130481D02*
X153400871Y-83146188D01*
X153400871Y-83146188D02*
X153419757Y-83161023D01*
X132316990Y-103959568D02*
X132277789Y-103931704D01*
X174817595Y-61193906D02*
X174839687Y-61237003D01*
X153439357Y-83174955D02*
X153459640Y-83187953D01*
X153718834Y-83260295D02*
X153744555Y-83259645D01*
X153480574Y-83199985D02*
X153502128Y-83211021D01*
X132237224Y-105615363D02*
X132277789Y-105589367D01*
X175821044Y-103766183D02*
X175770276Y-103762324D01*
X175329707Y-120681512D02*
X175375107Y-120699406D01*
X132277789Y-61589373D02*
X132316990Y-61561509D01*
X174750419Y-120010355D02*
X174763909Y-120057789D01*
X153546971Y-83229975D02*
X153570196Y-83237831D01*
X132195355Y-105639427D02*
X132237224Y-105615363D01*
X153593916Y-83244564D02*
X153618099Y-83250144D01*
X153957094Y-83199985D02*
X153978028Y-83187953D01*
X132698433Y-60962001D02*
X132707246Y-60912775D01*
X153667729Y-83257715D02*
X153693113Y-83259645D01*
X153693113Y-83259645D02*
X153718834Y-83260295D01*
X153718834Y-83260295D02*
X153718834Y-83260295D01*
X153744555Y-83259645D02*
X153769939Y-83257715D01*
X176458877Y-119088455D02*
X176425767Y-119053745D01*
X176195354Y-120639427D02*
X176237222Y-120615363D01*
X153794954Y-83254538D02*
X153819568Y-83250144D01*
X153819568Y-83250144D02*
X153843751Y-83244564D01*
X176673759Y-105057789D02*
X176687249Y-105010355D01*
X153843751Y-83244564D02*
X153867472Y-83237831D01*
X176620072Y-61193906D02*
X176640108Y-61149630D01*
X153867472Y-83237831D02*
X153890697Y-83229975D01*
X153890697Y-83229975D02*
X153913397Y-83221027D01*
X130730424Y-60608307D02*
X130724044Y-60658334D01*
X153913397Y-83221027D02*
X153935540Y-83211021D01*
X175871073Y-120748533D02*
X175920303Y-120739744D01*
X153935540Y-83211021D02*
X153957094Y-83199985D01*
X175120680Y-120561503D02*
X175159880Y-120589367D01*
X153978028Y-83187953D02*
X153998311Y-83174955D01*
X132707246Y-60912775D02*
X132713625Y-60862749D01*
X153998311Y-83174955D02*
X154017911Y-83161023D01*
X176640108Y-105149624D02*
X176658024Y-105104233D01*
X130889788Y-60201670D02*
X130863772Y-60242223D01*
X154017911Y-83161023D02*
X154036797Y-83146188D01*
X154088856Y-83096579D02*
X154104572Y-83078447D01*
X154104572Y-83078447D02*
X154119416Y-83059568D01*
X154133358Y-83039975D02*
X154146366Y-83019698D01*
X154158408Y-82998770D02*
X154169454Y-82977221D01*
X154216229Y-82811643D02*
X154218171Y-82786260D01*
X154169454Y-82977221D02*
X154179472Y-82955083D01*
X130978790Y-104088455D02*
X130947360Y-104124721D01*
X176573896Y-119242218D02*
X176547880Y-119201665D01*
X130763909Y-105057789D02*
X130779644Y-105104233D01*
X154179472Y-82955083D02*
X154188430Y-82932388D01*
X154188430Y-82932388D02*
X154196297Y-82909166D01*
X154203042Y-82885449D02*
X154208633Y-82861269D01*
X176425767Y-119053745D02*
X176391040Y-119020651D01*
X131871075Y-105748533D02*
X131920304Y-105739744D01*
X154208633Y-82861269D02*
X154213040Y-82836656D01*
X154213040Y-82836656D02*
X154216229Y-82811643D01*
X131082908Y-59989244D02*
X131046627Y-60020657D01*
X132717509Y-119709094D02*
X132713625Y-119658328D01*
X175871073Y-61748538D02*
X175920303Y-61739750D01*
X131821045Y-120754888D02*
X131871075Y-120748533D01*
X131200446Y-118905708D02*
X131159880Y-118931704D01*
X132713625Y-119658328D02*
X132707246Y-119608302D01*
X132707246Y-119608302D02*
X132698433Y-119559077D01*
X174947359Y-105396350D02*
X174978790Y-105432616D01*
X132458879Y-104088455D02*
X132425769Y-104053745D01*
X131011901Y-120467326D02*
X131046627Y-120500420D01*
X174718834Y-60760541D02*
X174720159Y-60811983D01*
X175421559Y-118805953D02*
X175375107Y-118821665D01*
X132698433Y-119559077D02*
X132687250Y-119510716D01*
X132687250Y-119510716D02*
X132673760Y-119463282D01*
X132640109Y-119371447D02*
X132620074Y-119327172D01*
X174739236Y-104961995D02*
X174750419Y-105010355D01*
X176658024Y-119416838D02*
X176640108Y-119371447D01*
X176717508Y-104811977D02*
X176718834Y-104760536D01*
X132698433Y-104559077D02*
X132687250Y-104510716D01*
X132620074Y-119327172D02*
X132597982Y-119284074D01*
X132597982Y-119284074D02*
X132573897Y-119242218D01*
X175968669Y-118792486D02*
X175920303Y-118781327D01*
X175242314Y-105639427D02*
X175285422Y-105661498D01*
X132573897Y-119242218D02*
X132547882Y-119201665D01*
X132547882Y-105319407D02*
X132573897Y-105278854D01*
X174750419Y-61010361D02*
X174763909Y-61057795D01*
X130750419Y-120010355D02*
X130763909Y-120057789D01*
X130947360Y-104124721D02*
X130917671Y-104162478D01*
X132519998Y-119162478D02*
X132490310Y-119124721D01*
X176673759Y-120057789D02*
X176687249Y-120010355D01*
X175375107Y-118821665D02*
X175329707Y-118839559D01*
X175821044Y-105754888D02*
X175871073Y-105748533D01*
X132354761Y-118989238D02*
X132316990Y-118959568D01*
X132316990Y-118959568D02*
X132277789Y-118931704D01*
X131329708Y-120681512D02*
X131375108Y-120699406D01*
X132277789Y-118931704D02*
X132237224Y-118905708D01*
X132237224Y-118905708D02*
X132195355Y-118881644D01*
X132195355Y-118881644D02*
X132152247Y-118859573D01*
X176687249Y-119510716D02*
X176673759Y-119463282D01*
X132152247Y-118859573D02*
X132107962Y-118839559D01*
X131329708Y-59839565D02*
X131285422Y-59859579D01*
X132107962Y-118839559D02*
X132062562Y-118821665D01*
X132062562Y-118821665D02*
X132016110Y-118805953D01*
X174724043Y-104658328D02*
X174720159Y-104709094D01*
X175871073Y-118772539D02*
X175821044Y-118766183D01*
X132016110Y-118805953D02*
X131968670Y-118792486D01*
X175616624Y-103766183D02*
X175566594Y-103772539D01*
X175718834Y-120760047D02*
X175718834Y-120760047D01*
X131968670Y-118792486D02*
X131920304Y-118781327D01*
X176195354Y-118881644D02*
X176152246Y-118859573D01*
X131920304Y-118781327D02*
X131871075Y-118772539D01*
X131468999Y-120728585D02*
X131517366Y-120739744D01*
X131871075Y-118772539D02*
X131821045Y-118766183D01*
X176717508Y-119811977D02*
X176718834Y-119760536D01*
X131821045Y-118766183D02*
X131770277Y-118762324D01*
X131770277Y-118762324D02*
X131718835Y-118761024D01*
X174730423Y-119912769D02*
X174739236Y-119961995D01*
X175718834Y-59761030D02*
X175718834Y-59761030D01*
X130720160Y-60811983D02*
X130724044Y-60862749D01*
X131718835Y-118761024D02*
X131718835Y-118761024D01*
X131718835Y-118761024D02*
X131667392Y-118762324D01*
X174779643Y-104416838D02*
X174763909Y-104463282D01*
X175821044Y-61754893D02*
X175871073Y-61748538D01*
X131667392Y-118762324D02*
X131616625Y-118766183D01*
X132458879Y-60088461D02*
X132425769Y-60053750D01*
X131616625Y-118766183D02*
X131566595Y-118772539D01*
X131566595Y-118772539D02*
X131517366Y-118781327D01*
X131468999Y-118792486D02*
X131421559Y-118805953D01*
X174817595Y-104327172D02*
X174797560Y-104371447D01*
X131285422Y-118859573D02*
X131242314Y-118881644D01*
X130947360Y-119124721D02*
X130917671Y-119162478D01*
X130917671Y-119162478D02*
X130889788Y-119201665D01*
X131821045Y-105754888D02*
X131871075Y-105748533D01*
X132107962Y-103839559D02*
X132062562Y-103821665D01*
X175011900Y-60053750D02*
X174978790Y-60088461D01*
X130889788Y-119201665D02*
X130863772Y-119242218D01*
X130817596Y-119327172D02*
X130797560Y-119371447D01*
X130797560Y-119371447D02*
X130779644Y-119416838D01*
X130779644Y-119416838D02*
X130763909Y-119463282D01*
X130739237Y-119559077D02*
X130730424Y-119608302D01*
X176718834Y-104760536D02*
X176718834Y-104760536D01*
X174889788Y-105319407D02*
X174917671Y-105358593D01*
X130730424Y-119608302D02*
X130724044Y-119658328D01*
X132519998Y-120358593D02*
X132547882Y-120319407D01*
X176718834Y-119760536D02*
X176718834Y-119760536D01*
X174917671Y-119162478D02*
X174889788Y-119201665D01*
X130724044Y-119658328D02*
X130720160Y-119709094D01*
X130917671Y-104162478D02*
X130889788Y-104201665D01*
X130718835Y-119760536D02*
X130718835Y-119760536D01*
X130718835Y-119760536D02*
X130720160Y-119811977D01*
X175718834Y-59761030D02*
X175667392Y-59762330D01*
X130720160Y-119811977D02*
X130724044Y-119862743D01*
X130763909Y-120057789D02*
X130779644Y-120104233D01*
X132519998Y-104162478D02*
X132490310Y-104124721D01*
X176062560Y-120699406D02*
X176107960Y-120681512D01*
X130797560Y-120149624D02*
X130817596Y-120193899D01*
X174720159Y-104709094D02*
X174718834Y-104760536D01*
X131968670Y-103792486D02*
X131920304Y-103781327D01*
X131566595Y-61748538D02*
X131616625Y-61754893D01*
X130817596Y-120193899D02*
X130839687Y-120236997D01*
X130863772Y-120278854D02*
X130889788Y-120319407D01*
X131616625Y-103766183D02*
X131566595Y-103772539D01*
X130889788Y-120319407D02*
X130917671Y-120358593D01*
X130947360Y-120396350D02*
X130978790Y-120432616D01*
X132717509Y-60709100D02*
X132713625Y-60658334D01*
X174817595Y-120193899D02*
X174839687Y-120236997D01*
X131046627Y-120500420D02*
X131082908Y-120531833D01*
X131082908Y-120531833D02*
X131120680Y-120561503D01*
X175375107Y-59821671D02*
X175329707Y-59839565D01*
X131200446Y-120615363D02*
X131242314Y-120639427D01*
X132687250Y-104510716D02*
X132673760Y-104463282D01*
X131375108Y-120699406D02*
X131421559Y-120715118D01*
X131517366Y-120739744D02*
X131566595Y-120748533D01*
X175200445Y-120615363D02*
X175242314Y-120639427D01*
X174917671Y-60162483D02*
X174889788Y-60201670D01*
X131566595Y-120748533D02*
X131616625Y-120754888D01*
X176718834Y-104760536D02*
X176718834Y-104760536D01*
X131616625Y-120754888D02*
X131667392Y-120758747D01*
X174739236Y-60962001D02*
X174750419Y-61010361D01*
X175566594Y-118772539D02*
X175517365Y-118781327D01*
X131770277Y-120758747D02*
X131821045Y-120754888D01*
X175159880Y-120589367D02*
X175200445Y-120615363D01*
X132490310Y-60124726D02*
X132458879Y-60088461D01*
X131120680Y-105561503D02*
X131159880Y-105589367D01*
X131871075Y-120748533D02*
X131920304Y-120739744D01*
X176391040Y-61500426D02*
X176425767Y-61467333D01*
X132687250Y-60510721D02*
X132673760Y-60463288D01*
X131920304Y-120739744D02*
X131968670Y-120728585D01*
X132062562Y-120699406D02*
X132107962Y-120681512D01*
X176713624Y-60658334D02*
X176707244Y-60608307D01*
X176519997Y-119162478D02*
X176490308Y-119124721D01*
X132277789Y-120589367D02*
X132316990Y-120561503D01*
X132658026Y-61104239D02*
X132673760Y-61057795D01*
X132490310Y-120396350D02*
X132519998Y-120358593D01*
X176620072Y-60327177D02*
X176597981Y-60284079D01*
X132547882Y-120319407D02*
X132573897Y-120278854D01*
X132573897Y-120278854D02*
X132597982Y-120236997D01*
X132713625Y-104658328D02*
X132707246Y-104608302D01*
X175718834Y-103761024D02*
X175667392Y-103762324D01*
X132620074Y-120193899D02*
X132640109Y-120149624D01*
X132640109Y-120149624D02*
X132658026Y-120104233D01*
X132687250Y-120010355D02*
X132698433Y-119961995D01*
X176062560Y-61699412D02*
X176107960Y-61681518D01*
X132698433Y-119961995D02*
X132707246Y-119912769D01*
X175566594Y-103772539D02*
X175517365Y-103781327D01*
X132718835Y-119760536D02*
X132718835Y-119760536D01*
X132718835Y-119760536D02*
X132718835Y-119760536D01*
X132597982Y-105236997D02*
X132620074Y-105193899D01*
X128718832Y-57760140D02*
X128718832Y-122760330D01*
X176718834Y-119760536D02*
X176717508Y-119709094D01*
X130797560Y-104371447D02*
X130779644Y-104416838D01*
X176640108Y-120149624D02*
X176658024Y-120104233D01*
X175517365Y-61739750D02*
X175566594Y-61748538D01*
X174763909Y-119463282D02*
X174750419Y-119510716D01*
X176707244Y-119608302D02*
X176698432Y-119559077D01*
X176698432Y-119559077D02*
X176687249Y-119510716D01*
X174817595Y-119327172D02*
X174797560Y-119371447D01*
X176640108Y-119371447D02*
X176620072Y-119327172D01*
X176620072Y-119327172D02*
X176597981Y-119284074D01*
X132354761Y-61531839D02*
X132391042Y-61500426D01*
X176490308Y-119124721D02*
X176458877Y-119088455D01*
X176391040Y-119020651D02*
X176354760Y-118989238D01*
X176316988Y-118959568D02*
X176277788Y-118931704D01*
X176277788Y-118931704D02*
X176237222Y-118905708D01*
X176152246Y-118859573D02*
X176107960Y-118839559D01*
X176107960Y-118839559D02*
X176062560Y-118821665D01*
X176547880Y-120319407D02*
X176573896Y-120278854D01*
X176062560Y-118821665D02*
X176016109Y-118805953D01*
X176016109Y-118805953D02*
X175968669Y-118792486D01*
X175821044Y-118766183D02*
X175770276Y-118762324D01*
X176687249Y-104510716D02*
X176673759Y-104463282D01*
X176237222Y-61615369D02*
X176277788Y-61589373D01*
X175770276Y-118762324D02*
X175718834Y-118761024D01*
X176316988Y-103959568D02*
X176277788Y-103931704D01*
X175920303Y-105739744D02*
X175968669Y-105728585D01*
X175718834Y-118761024D02*
X175718834Y-118761024D01*
X175718834Y-118761024D02*
X175667392Y-118762324D01*
X176195354Y-61639433D02*
X176237222Y-61615369D01*
X175616624Y-118766183D02*
X175566594Y-118772539D01*
X130863772Y-104242218D02*
X130839687Y-104284074D01*
X175517365Y-118781327D02*
X175468999Y-118792486D01*
X175329707Y-118839559D02*
X175285422Y-118859573D01*
X175082908Y-118989238D02*
X175046627Y-119020651D01*
X175046627Y-119020651D02*
X175011900Y-119053745D01*
X174978790Y-119088455D02*
X174947359Y-119124721D01*
X174863772Y-119242218D02*
X174839687Y-119284074D01*
X174839687Y-119284074D02*
X174817595Y-119327172D01*
X176673759Y-61057795D02*
X176687249Y-61010361D01*
X174724043Y-119658328D02*
X174720159Y-119709094D01*
X174720159Y-119811977D02*
X174724043Y-119862743D01*
X174724043Y-119862743D02*
X174730423Y-119912769D01*
X174739236Y-119961995D02*
X174750419Y-120010355D01*
X174797560Y-120149624D02*
X174817595Y-120193899D01*
X175200445Y-103905708D02*
X175159880Y-103931704D01*
X174917671Y-120358593D02*
X174947359Y-120396350D01*
X174739236Y-104559077D02*
X174730423Y-104608302D01*
X174947359Y-120396350D02*
X174978790Y-120432616D01*
X131120680Y-103959568D02*
X131082908Y-103989238D01*
X175046627Y-120500420D02*
X175082908Y-120531833D01*
X175082908Y-120531833D02*
X175120680Y-120561503D01*
X132391042Y-60020657D02*
X132354761Y-59989244D01*
X175242314Y-120639427D02*
X175285422Y-120661498D01*
X175285422Y-120661498D02*
X175329707Y-120681512D01*
X175375107Y-120699406D02*
X175421559Y-120715118D01*
X175421559Y-120715118D02*
X175468999Y-120728585D01*
X131159880Y-105589367D02*
X131200446Y-105615363D01*
X175517365Y-120739744D02*
X175566594Y-120748533D01*
X175566594Y-120748533D02*
X175616624Y-120754888D01*
X131159880Y-103931704D02*
X131120680Y-103959568D01*
X175667392Y-120758747D02*
X175718834Y-120760047D01*
X175718834Y-120760047D02*
X175770276Y-120758747D01*
X175821044Y-120754888D02*
X175871073Y-120748533D01*
X175920303Y-120739744D02*
X175968669Y-120728585D01*
X175968669Y-120728585D02*
X176016109Y-120715118D01*
X176107960Y-120681512D02*
X176152246Y-120661498D01*
X176152246Y-120661498D02*
X176195354Y-120639427D01*
X131329708Y-105681512D02*
X131375108Y-105699406D01*
X176237222Y-120615363D02*
X176277788Y-120589367D01*
X176316988Y-120561503D02*
X176354760Y-120531833D01*
X130839687Y-104284074D02*
X130817596Y-104327172D01*
X176391040Y-120500420D02*
X176425767Y-120467326D01*
X176425767Y-120467326D02*
X176458877Y-120432616D01*
X132707246Y-60608307D02*
X132698433Y-60559082D01*
X176458877Y-120432616D02*
X176490308Y-120396350D01*
X176490308Y-120396350D02*
X176519997Y-120358593D01*
X176519997Y-120358593D02*
X176547880Y-120319407D01*
X132620074Y-104327172D02*
X132597982Y-104284074D01*
X176195354Y-59881649D02*
X176152246Y-59859579D01*
X176573896Y-120278854D02*
X176597981Y-120236997D01*
X176597981Y-120236997D02*
X176620072Y-120193899D01*
X176620072Y-120193899D02*
X176640108Y-120149624D01*
X174724043Y-60862749D02*
X174730423Y-60912775D01*
X175159880Y-61589373D02*
X175200445Y-61615369D01*
X176658024Y-120104233D02*
X176673759Y-120057789D01*
X176687249Y-120010355D02*
X176698432Y-119961995D01*
X176698432Y-119961995D02*
X176707244Y-119912769D01*
X176707244Y-119912769D02*
X176713624Y-119862743D01*
X130718835Y-60760541D02*
X130718835Y-60760541D01*
X176713624Y-119862743D02*
X176717508Y-119811977D01*
X176718834Y-119760536D02*
X176718834Y-119760536D01*
X132717509Y-104709094D02*
X132713625Y-104658328D01*
X132707246Y-104608302D02*
X132698433Y-104559077D01*
X132673760Y-104463282D02*
X132658026Y-104416838D01*
X132658026Y-104416838D02*
X132640109Y-104371447D01*
X132640109Y-104371447D02*
X132620074Y-104327172D01*
X132597982Y-104284074D02*
X132573897Y-104242218D01*
X132547882Y-104201665D02*
X132519998Y-104162478D01*
X132718835Y-104760536D02*
X132718835Y-104760536D01*
X132658026Y-60416844D02*
X132640109Y-60371453D01*
X176620072Y-105193899D02*
X176640108Y-105149624D01*
X132425769Y-104053745D02*
X132391042Y-104020651D01*
X132354761Y-103989238D02*
X132316990Y-103959568D01*
X132237224Y-103905708D02*
X132195355Y-103881644D01*
X174779643Y-61104239D02*
X174797560Y-61149630D01*
X130797560Y-61149630D02*
X130817596Y-61193906D01*
X132195355Y-103881644D02*
X132152247Y-103859573D01*
X132152247Y-103859573D02*
X132107962Y-103839559D01*
X175375107Y-61699412D02*
X175421559Y-61715124D01*
X175159880Y-103931704D02*
X175120680Y-103959568D01*
X131770277Y-61758753D02*
X131821045Y-61754893D01*
X132062562Y-103821665D02*
X132016110Y-103805953D01*
X131920304Y-103781327D02*
X131871075Y-103772539D01*
X131871075Y-103772539D02*
X131821045Y-103766183D01*
X131821045Y-103766183D02*
X131770277Y-103762324D01*
X131770277Y-103762324D02*
X131718835Y-103761024D01*
X131718835Y-103761024D02*
X131718835Y-103761024D01*
X131667392Y-103762324D02*
X131616625Y-103766183D01*
X131566595Y-103772539D02*
X131517366Y-103781327D01*
X131468999Y-103792486D02*
X131421559Y-103805953D01*
X131421559Y-103805953D02*
X131375108Y-103821665D01*
X176717508Y-60811983D02*
X176718834Y-60760541D01*
X131329708Y-103839559D02*
X131285422Y-103859573D01*
X131242314Y-103881644D02*
X131200446Y-103905708D01*
X131200446Y-103905708D02*
X131159880Y-103931704D01*
X131046627Y-104020651D02*
X131011901Y-104053745D01*
X131011901Y-104053745D02*
X130978790Y-104088455D01*
X130720160Y-60709100D02*
X130718835Y-60760541D01*
X130889788Y-104201665D02*
X130863772Y-104242218D01*
X130779644Y-104416838D02*
X130763909Y-104463282D01*
X175329707Y-103839559D02*
X175285422Y-103859573D01*
X130763909Y-104463282D02*
X130750419Y-104510716D01*
X176316988Y-59959574D02*
X176277788Y-59931710D01*
X130739237Y-104559077D02*
X130730424Y-104608302D01*
X130730424Y-104608302D02*
X130724044Y-104658328D01*
X130720160Y-104709094D02*
X130718835Y-104760536D01*
X130718835Y-104760536D02*
X130720160Y-104811977D01*
X130720160Y-104811977D02*
X130724044Y-104862743D01*
X176687249Y-60510721D02*
X176673759Y-60463288D01*
X130724044Y-104862743D02*
X130730424Y-104912769D01*
X131082908Y-61531839D02*
X131120680Y-61561509D01*
X130739237Y-104961995D02*
X130750419Y-105010355D01*
X130750419Y-105010355D02*
X130763909Y-105057789D01*
X130779644Y-105104233D02*
X130797560Y-105149624D01*
X130797560Y-105149624D02*
X130817596Y-105193899D01*
X175468999Y-105728585D02*
X175517365Y-105739744D01*
X130817596Y-105193899D02*
X130839687Y-105236997D01*
X130863772Y-105278854D02*
X130889788Y-105319407D01*
X130889788Y-105319407D02*
X130917671Y-105358593D01*
X176687249Y-61010361D02*
X176698432Y-60962001D01*
X174863772Y-60242223D02*
X174839687Y-60284079D01*
X130917671Y-105358593D02*
X130947360Y-105396350D01*
X130947360Y-105396350D02*
X130978790Y-105432616D01*
X131011901Y-105467326D02*
X131046627Y-105500420D01*
X131046627Y-105500420D02*
X131082908Y-105531833D01*
X131200446Y-105615363D02*
X131242314Y-105639427D01*
X174917671Y-61358599D02*
X174947359Y-61396356D01*
X176573896Y-104242218D02*
X176547880Y-104201665D01*
X130750419Y-61010361D02*
X130763909Y-61057795D01*
X131242314Y-105639427D02*
X131285422Y-105661498D01*
X176573896Y-105278854D02*
X176597981Y-105236997D01*
X131285422Y-105661498D02*
X131329708Y-105681512D01*
X131375108Y-105699406D02*
X131421559Y-105715118D01*
X174863772Y-104242218D02*
X174839687Y-104284074D01*
X131421559Y-105715118D02*
X131468999Y-105728585D01*
X131468999Y-105728585D02*
X131517366Y-105739744D01*
X176152246Y-105661498D02*
X176195354Y-105639427D01*
X131517366Y-105739744D02*
X131566595Y-105748533D01*
X131566595Y-105748533D02*
X131616625Y-105754888D01*
X131616625Y-105754888D02*
X131667392Y-105758747D01*
X131667392Y-105758747D02*
X131718835Y-105760047D01*
X131718835Y-105760047D02*
X131718835Y-105760047D01*
X131770277Y-105758747D02*
X131821045Y-105754888D01*
X131920304Y-105739744D02*
X131968670Y-105728585D01*
X131968670Y-105728585D02*
X132016110Y-105715118D01*
X174817595Y-60327177D02*
X174797560Y-60371453D01*
X132016110Y-105715118D02*
X132062562Y-105699406D01*
X175616624Y-61754893D02*
X175667392Y-61758753D01*
X131200446Y-59905714D02*
X131159880Y-59931710D01*
X132698433Y-60559082D02*
X132687250Y-60510721D01*
X132107962Y-105681512D02*
X132152247Y-105661498D01*
X131616625Y-61754893D02*
X131667392Y-61758753D01*
X132152247Y-105661498D02*
X132195355Y-105639427D01*
X175468999Y-61728591D02*
X175517365Y-61739750D01*
X132277789Y-105589367D02*
X132316990Y-105561503D01*
X132354761Y-105531833D02*
X132391042Y-105500420D01*
X130947360Y-61396356D02*
X130978790Y-61432622D01*
X132391042Y-105500420D02*
X132425769Y-105467326D01*
X132425769Y-105467326D02*
X132458879Y-105432616D01*
X174724043Y-104862743D02*
X174730423Y-104912769D01*
X132490310Y-105396350D02*
X132519998Y-105358593D01*
X176707244Y-104608302D02*
X176698432Y-104559077D01*
X132519998Y-105358593D02*
X132547882Y-105319407D01*
X132620074Y-105193899D02*
X132640109Y-105149624D01*
X132640109Y-105149624D02*
X132658026Y-105104233D01*
X132658026Y-105104233D02*
X132673760Y-105057789D01*
X132673760Y-105057789D02*
X132687250Y-105010355D01*
X176354760Y-103989238D02*
X176316988Y-103959568D01*
X132687250Y-105010355D02*
X132698433Y-104961995D01*
X176016109Y-61715124D02*
X176062560Y-61699412D01*
X131566595Y-59772544D02*
X131517366Y-59781333D01*
X132698433Y-104961995D02*
X132707246Y-104912769D01*
X132707246Y-104912769D02*
X132713625Y-104862743D01*
X132713625Y-104862743D02*
X132717509Y-104811977D01*
X176718834Y-104760536D02*
X176717508Y-104709094D01*
X176713624Y-104658328D02*
X176707244Y-104608302D01*
X176673759Y-104463282D02*
X176658024Y-104416838D01*
X132718835Y-60760541D02*
X132718835Y-60760541D01*
X176640108Y-104371447D02*
X176620072Y-104327172D01*
X176620072Y-104327172D02*
X176597981Y-104284074D01*
X174718834Y-104760536D02*
X174720159Y-104811977D01*
X176490308Y-104124721D02*
X176458877Y-104088455D01*
X176316988Y-105561503D02*
X176354760Y-105531833D01*
X176458877Y-104088455D02*
X176425767Y-104053745D01*
X176391040Y-104020651D02*
X176354760Y-103989238D01*
X176277788Y-103931704D02*
X176237222Y-103905708D01*
X176195354Y-103881644D02*
X176152246Y-103859573D01*
X176152246Y-103859573D02*
X176107960Y-103839559D01*
X176062560Y-103821665D02*
X176016109Y-103805953D01*
X130763909Y-60463288D02*
X130750419Y-60510721D01*
X176016109Y-103805953D02*
X175968669Y-103792486D01*
X175920303Y-103781327D02*
X175871073Y-103772539D01*
X175082908Y-105531833D02*
X175120680Y-105561503D01*
X175871073Y-103772539D02*
X175821044Y-103766183D01*
X175770276Y-103762324D02*
X175718834Y-103761024D01*
X175667392Y-103762324D02*
X175616624Y-103766183D01*
X175468999Y-103792486D02*
X175421559Y-103805953D01*
X175421559Y-103805953D02*
X175375107Y-103821665D01*
X175375107Y-103821665D02*
X175329707Y-103839559D01*
X176354760Y-105531833D02*
X176391040Y-105500420D01*
X175285422Y-103859573D02*
X175242314Y-103881644D01*
X175242314Y-103881644D02*
X175200445Y-103905708D01*
X175120680Y-103959568D02*
X175082908Y-103989238D01*
X175082908Y-103989238D02*
X175046627Y-104020651D01*
X176016109Y-105715118D02*
X176062560Y-105699406D01*
X175046627Y-104020651D02*
X175011900Y-104053745D01*
X174978790Y-104088455D02*
X174947359Y-104124721D01*
X174947359Y-104124721D02*
X174917671Y-104162478D01*
X132237224Y-59905714D02*
X132195355Y-59881649D01*
X174889788Y-104201665D02*
X174863772Y-104242218D01*
X174839687Y-104284074D02*
X174817595Y-104327172D01*
X174797560Y-104371447D02*
X174779643Y-104416838D01*
X174750419Y-104510716D02*
X174739236Y-104559077D01*
X174730423Y-104608302D02*
X174724043Y-104658328D01*
X174718834Y-104760536D02*
X174718834Y-104760536D01*
X175770276Y-105758747D02*
X175821044Y-105754888D01*
X174750419Y-105010355D02*
X174763909Y-105057789D01*
X174763909Y-105057789D02*
X174779643Y-105104233D01*
X175120680Y-59959574D02*
X175082908Y-59989244D01*
X174779643Y-105104233D02*
X174797560Y-105149624D01*
X174839687Y-105236997D02*
X174863772Y-105278854D01*
X174863772Y-105278854D02*
X174889788Y-105319407D01*
X174917671Y-105358593D02*
X174947359Y-105396350D01*
X174978790Y-105432616D02*
X175011900Y-105467326D01*
X175011900Y-105467326D02*
X175046627Y-105500420D01*
X175046627Y-105500420D02*
X175082908Y-105531833D01*
X175120680Y-105561503D02*
X175159880Y-105589367D01*
X175159880Y-105589367D02*
X175200445Y-105615363D01*
X175329707Y-105681512D02*
X175375107Y-105699406D01*
X175421559Y-105715118D02*
X175468999Y-105728585D01*
X175821044Y-59766189D02*
X175770276Y-59762330D01*
X175517365Y-105739744D02*
X175566594Y-105748533D01*
X175566594Y-105748533D02*
X175616624Y-105754888D01*
X175616624Y-105754888D02*
X175667392Y-105758747D01*
X175667392Y-105758747D02*
X175718834Y-105760047D01*
X130797560Y-60371453D02*
X130779644Y-60416844D01*
X175718834Y-105760047D02*
X175718834Y-105760047D01*
X131375108Y-59821671D02*
X131329708Y-59839565D01*
X175718834Y-105760047D02*
X175770276Y-105758747D01*
X175871073Y-105748533D02*
X175920303Y-105739744D01*
X176062560Y-105699406D02*
X176107960Y-105681512D01*
X176195354Y-105639427D02*
X176237222Y-105615363D01*
X176237222Y-105615363D02*
X176277788Y-105589367D01*
X176597981Y-105236997D02*
X176620072Y-105193899D01*
X176391040Y-105500420D02*
X176425767Y-105467326D01*
X176425767Y-105467326D02*
X176458877Y-105432616D01*
X176490308Y-105396350D02*
X176519997Y-105358593D01*
X176658024Y-105104233D02*
X176673759Y-105057789D01*
X131046627Y-61500426D02*
X131082908Y-61531839D01*
X176687249Y-105010355D02*
X176698432Y-104961995D01*
X176698432Y-104961995D02*
X176707244Y-104912769D01*
X176707244Y-104912769D02*
X176713624Y-104862743D01*
X176713624Y-104862743D02*
X176717508Y-104811977D01*
X178718838Y-57760140D02*
X178718838Y-122760330D01*
X130889788Y-61319413D02*
X130917671Y-61358599D01*
X176718834Y-60760541D02*
X176717508Y-60709100D01*
X176717508Y-60709100D02*
X176713624Y-60658334D01*
X175200445Y-61615369D02*
X175242314Y-61639433D01*
X176698432Y-60559082D02*
X176687249Y-60510721D01*
X176673759Y-60463288D02*
X176658024Y-60416844D01*
X176658024Y-60416844D02*
X176640108Y-60371453D01*
X176597981Y-60284079D02*
X176573896Y-60242223D01*
X176573896Y-60242223D02*
X176547880Y-60201670D01*
X131200446Y-61615369D02*
X131242314Y-61639433D01*
X176547880Y-60201670D02*
X176519997Y-60162483D01*
X176519997Y-60162483D02*
X176490308Y-60124726D01*
X131242314Y-59881649D02*
X131200446Y-59905714D01*
X176425767Y-60053750D02*
X176391040Y-60020657D01*
X176391040Y-60020657D02*
X176354760Y-59989244D01*
X176237222Y-59905714D02*
X176195354Y-59881649D01*
X176152246Y-59859579D02*
X176107960Y-59839565D01*
X131718835Y-59761030D02*
X131718835Y-59761030D01*
X176107960Y-59839565D02*
X176062560Y-59821671D01*
X176062560Y-59821671D02*
X176016109Y-59805959D01*
X175968669Y-59792492D02*
X175920303Y-59781333D01*
X131046627Y-60020657D02*
X131011901Y-60053750D01*
X175871073Y-59772544D02*
X175821044Y-59766189D01*
X175770276Y-59762330D02*
X175718834Y-59761030D01*
X175667392Y-59762330D02*
X175616624Y-59766189D01*
X131120680Y-59959574D02*
X131082908Y-59989244D01*
X175616624Y-59766189D02*
X175566594Y-59772544D01*
X175566594Y-59772544D02*
X175517365Y-59781333D01*
X175421559Y-59805959D02*
X175375107Y-59821671D01*
X175329707Y-59839565D02*
X175285422Y-59859579D01*
X175285422Y-59859579D02*
X175242314Y-59881649D01*
X175242314Y-59881649D02*
X175200445Y-59905714D01*
X175046627Y-60020657D02*
X175011900Y-60053750D01*
X174947359Y-60124726D02*
X174917671Y-60162483D01*
X174839687Y-60284079D02*
X174817595Y-60327177D01*
X132547882Y-61319413D02*
X132573897Y-61278860D01*
X174797560Y-60371453D02*
X174779643Y-60416844D01*
X174763909Y-60463288D02*
X174750419Y-60510721D01*
X174739236Y-60559082D02*
X174730423Y-60608307D01*
X174730423Y-60608307D02*
X174724043Y-60658334D01*
X174718834Y-60760541D02*
X174718834Y-60760541D01*
X174720159Y-60811983D02*
X174724043Y-60862749D01*
X174730423Y-60912775D02*
X174739236Y-60962001D01*
X174797560Y-61149630D02*
X174817595Y-61193906D01*
X174863772Y-61278860D02*
X174889788Y-61319413D01*
X132107962Y-59839565D02*
X132062562Y-59821671D01*
X174889788Y-61319413D02*
X174917671Y-61358599D01*
X174947359Y-61396356D02*
X174978790Y-61432622D01*
X174978790Y-61432622D02*
X175011900Y-61467333D01*
X175011900Y-61467333D02*
X175046627Y-61500426D01*
X175046627Y-61500426D02*
X175082908Y-61531839D01*
X175120680Y-61561509D02*
X175159880Y-61589373D01*
X175242314Y-61639433D02*
X175285422Y-61661504D01*
X175285422Y-61661504D02*
X175329707Y-61681518D01*
X175329707Y-61681518D02*
X175375107Y-61699412D01*
X132391042Y-61500426D02*
X132425769Y-61467333D01*
X175421559Y-61715124D02*
X175468999Y-61728591D01*
X175566594Y-61748538D02*
X175616624Y-61754893D01*
X175718834Y-61760053D02*
X175718834Y-61760053D01*
X175718834Y-61760053D02*
X175770276Y-61758753D01*
X175770276Y-61758753D02*
X175821044Y-61754893D01*
X175920303Y-61739750D02*
X175968669Y-61728591D01*
X175968669Y-61728591D02*
X176016109Y-61715124D01*
X131718835Y-59761030D02*
X131667392Y-59762330D01*
X176152246Y-61661504D02*
X176195354Y-61639433D01*
X176316988Y-61561509D02*
X176354760Y-61531839D01*
X176458877Y-61432622D02*
X176490308Y-61396356D01*
X176519997Y-61358599D02*
X176547880Y-61319413D01*
X176547880Y-61319413D02*
X176573896Y-61278860D01*
X176573896Y-61278860D02*
X176597981Y-61237003D01*
X176597981Y-61237003D02*
X176620072Y-61193906D01*
X176698432Y-60962001D02*
X176707244Y-60912775D01*
X176713624Y-60862749D02*
X176717508Y-60811983D01*
X176718834Y-60760541D02*
X176718834Y-60760541D01*
X132718835Y-60760541D02*
X132717509Y-60709100D01*
X132713625Y-60658334D02*
X132707246Y-60608307D01*
X132673760Y-60463288D02*
X132658026Y-60416844D01*
X132640109Y-60371453D02*
X132620074Y-60327177D01*
X132620074Y-60327177D02*
X132597982Y-60284079D01*
X132597982Y-60284079D02*
X132573897Y-60242223D01*
X131159880Y-61589373D02*
X131200446Y-61615369D01*
X132573897Y-60242223D02*
X132547882Y-60201670D01*
X132547882Y-60201670D02*
X132519998Y-60162483D01*
X132519998Y-60162483D02*
X132490310Y-60124726D01*
X132354761Y-59989244D02*
X132316990Y-59959574D01*
X132316990Y-59959574D02*
X132277789Y-59931710D01*
X132195355Y-59881649D02*
X132152247Y-59859579D01*
X132016110Y-59805959D02*
X131968670Y-59792492D01*
X131968670Y-59792492D02*
X131920304Y-59781333D01*
X131871075Y-59772544D02*
X131821045Y-59766189D01*
X131821045Y-59766189D02*
X131770277Y-59762330D01*
X131616625Y-59766189D02*
X131566595Y-59772544D01*
X131517366Y-59781333D02*
X131468999Y-59792492D01*
X132713625Y-60862749D02*
X132717509Y-60811983D01*
X131468999Y-59792492D02*
X131421559Y-59805959D01*
X131421559Y-59805959D02*
X131375108Y-59821671D01*
X131285422Y-59859579D02*
X131242314Y-59881649D01*
X131159880Y-59931710D02*
X131120680Y-59959574D01*
X130978790Y-60088461D02*
X130947360Y-60124726D01*
X130947360Y-60124726D02*
X130917671Y-60162483D01*
X130917671Y-60162483D02*
X130889788Y-60201670D01*
X130779644Y-60416844D02*
X130763909Y-60463288D01*
X130718835Y-60760541D02*
X130720160Y-60811983D01*
X130739237Y-60962001D02*
X130750419Y-61010361D01*
X130763909Y-61057795D02*
X130779644Y-61104239D01*
X130817596Y-61193906D02*
X130839687Y-61237003D01*
X130917671Y-61358599D02*
X130947360Y-61396356D01*
X130978790Y-61432622D02*
X131011901Y-61467333D01*
X131120680Y-61561509D02*
X131159880Y-61589373D01*
X131242314Y-61639433D02*
X131285422Y-61661504D01*
X131285422Y-61661504D02*
X131329708Y-61681518D01*
X131375108Y-61699412D02*
X131421559Y-61715124D01*
X131421559Y-61715124D02*
X131468999Y-61728591D01*
X131468999Y-61728591D02*
X131517366Y-61739750D01*
X131517366Y-61739750D02*
X131566595Y-61748538D01*
X131667392Y-61758753D02*
X131718835Y-61760053D01*
X131718835Y-61760053D02*
X131718835Y-61760053D01*
X131718835Y-61760053D02*
X131770277Y-61758753D01*
X131821045Y-61754893D02*
X131871075Y-61748538D01*
X131871075Y-61748538D02*
X131920304Y-61739750D01*
X131920304Y-61739750D02*
X131968670Y-61728591D01*
X132016110Y-61715124D02*
X132062562Y-61699412D01*
X132062562Y-61699412D02*
X132107962Y-61681518D01*
X132107962Y-61681518D02*
X132152247Y-61661504D01*
X132152247Y-61661504D02*
X132195355Y-61639433D01*
X132195355Y-61639433D02*
X132237224Y-61615369D01*
X132425769Y-61467333D02*
X132458879Y-61432622D01*
X132490310Y-61396356D02*
X132519998Y-61358599D01*
X132519998Y-61358599D02*
X132547882Y-61319413D01*
X132573897Y-61278860D02*
X132597982Y-61237003D01*
X132597982Y-61237003D02*
X132620074Y-61193906D01*
X132640109Y-61149630D02*
X132658026Y-61104239D01*
X132687250Y-61010361D02*
X132698433Y-60962001D01*
X132718835Y-60760541D02*
X132718835Y-60760541D01*
M02*
