%TF.GenerationSoftware,KiCad,Pcbnew,(6.0.7)*%
%TF.CreationDate,2022-08-18T01:15:56+09:00*%
%TF.ProjectId,monitor_control_board,6d6f6e69-746f-4725-9f63-6f6e74726f6c,rev?*%
%TF.SameCoordinates,Original*%
%TF.FileFunction,Legend,Bot*%
%TF.FilePolarity,Positive*%
%FSLAX46Y46*%
G04 Gerber Fmt 4.6, Leading zero omitted, Abs format (unit mm)*
G04 Created by KiCad (PCBNEW (6.0.7)) date 2022-08-18 01:15:56*
%MOMM*%
%LPD*%
G01*
G04 APERTURE LIST*
%ADD10C,0.150000*%
%ADD11C,0.200000*%
%ADD12C,0.120000*%
G04 APERTURE END LIST*
D10*
X158622971Y-104641704D02*
X158622971Y-105289323D01*
X158584876Y-105365514D01*
X158546780Y-105403609D01*
X158470590Y-105441704D01*
X158318209Y-105441704D01*
X158242019Y-105403609D01*
X158203923Y-105365514D01*
X158165828Y-105289323D01*
X158165828Y-104641704D01*
D11*
X141674666Y-65222380D02*
X141674666Y-64222380D01*
X141408000Y-64936666D01*
X141141333Y-64222380D01*
X141141333Y-65222380D01*
X140760380Y-64698571D02*
X140493714Y-64698571D01*
X140379428Y-65222380D02*
X140760380Y-65222380D01*
X140760380Y-64222380D01*
X140379428Y-64222380D01*
X140036571Y-65222380D02*
X140036571Y-64222380D01*
X139579428Y-65222380D01*
X139579428Y-64222380D01*
X139198476Y-64222380D02*
X139198476Y-65031904D01*
X139160380Y-65127142D01*
X139122285Y-65174761D01*
X139046095Y-65222380D01*
X138893714Y-65222380D01*
X138817523Y-65174761D01*
X138779428Y-65127142D01*
X138741333Y-65031904D01*
X138741333Y-64222380D01*
D10*
X156571923Y-105441704D02*
X156571923Y-104641704D01*
X156381447Y-104641704D01*
X156267161Y-104679800D01*
X156190971Y-104755990D01*
X156152876Y-104832180D01*
X156114780Y-104984561D01*
X156114780Y-105098847D01*
X156152876Y-105251228D01*
X156190971Y-105327419D01*
X156267161Y-105403609D01*
X156381447Y-105441704D01*
X156571923Y-105441704D01*
X132897619Y-92463904D02*
X133897619Y-92463904D01*
X133897619Y-92225809D01*
X133850000Y-92082952D01*
X133754761Y-91987714D01*
X133659523Y-91940095D01*
X133469047Y-91892476D01*
X133326190Y-91892476D01*
X133135714Y-91940095D01*
X133040476Y-91987714D01*
X132945238Y-92082952D01*
X132897619Y-92225809D01*
X132897619Y-92463904D01*
X132897619Y-82875333D02*
X133897619Y-82875333D01*
X133897619Y-82494380D01*
X133850000Y-82399142D01*
X133802380Y-82351523D01*
X133707142Y-82303904D01*
X133564285Y-82303904D01*
X133469047Y-82351523D01*
X133421428Y-82399142D01*
X133373809Y-82494380D01*
X133373809Y-82875333D01*
X133897619Y-81970571D02*
X132897619Y-81732476D01*
X133611904Y-81542000D01*
X132897619Y-81351523D01*
X133897619Y-81113428D01*
D11*
X137737619Y-65222380D02*
X137737619Y-64222380D01*
X137432857Y-64222380D01*
X137356666Y-64270000D01*
X137318571Y-64317619D01*
X137280476Y-64412857D01*
X137280476Y-64555714D01*
X137318571Y-64650952D01*
X137356666Y-64698571D01*
X137432857Y-64746190D01*
X137737619Y-64746190D01*
X136785238Y-64222380D02*
X136632857Y-64222380D01*
X136556666Y-64270000D01*
X136480476Y-64365238D01*
X136442380Y-64555714D01*
X136442380Y-64889047D01*
X136480476Y-65079523D01*
X136556666Y-65174761D01*
X136632857Y-65222380D01*
X136785238Y-65222380D01*
X136861428Y-65174761D01*
X136937619Y-65079523D01*
X136975714Y-64889047D01*
X136975714Y-64555714D01*
X136937619Y-64365238D01*
X136861428Y-64270000D01*
X136785238Y-64222380D01*
X136175714Y-64222380D02*
X135985238Y-65222380D01*
X135832857Y-64508095D01*
X135680476Y-65222380D01*
X135490000Y-64222380D01*
X135185238Y-64698571D02*
X134918571Y-64698571D01*
X134804285Y-65222380D02*
X135185238Y-65222380D01*
X135185238Y-64222380D01*
X134804285Y-64222380D01*
X134004285Y-65222380D02*
X134270952Y-64746190D01*
X134461428Y-65222380D02*
X134461428Y-64222380D01*
X134156666Y-64222380D01*
X134080476Y-64270000D01*
X134042380Y-64317619D01*
X134004285Y-64412857D01*
X134004285Y-64555714D01*
X134042380Y-64650952D01*
X134080476Y-64698571D01*
X134156666Y-64746190D01*
X134461428Y-64746190D01*
D10*
X161340685Y-105403609D02*
X161226400Y-105441704D01*
X161035923Y-105441704D01*
X160959733Y-105403609D01*
X160921638Y-105365514D01*
X160883542Y-105289323D01*
X160883542Y-105213133D01*
X160921638Y-105136942D01*
X160959733Y-105098847D01*
X161035923Y-105060752D01*
X161188304Y-105022657D01*
X161264495Y-104984561D01*
X161302590Y-104946466D01*
X161340685Y-104870276D01*
X161340685Y-104794085D01*
X161302590Y-104717895D01*
X161264495Y-104679800D01*
X161188304Y-104641704D01*
X160997828Y-104641704D01*
X160883542Y-104679800D01*
X160540685Y-105022657D02*
X160274019Y-105022657D01*
X160159733Y-105441704D02*
X160540685Y-105441704D01*
X160540685Y-104641704D01*
X160159733Y-104641704D01*
X159435923Y-105441704D02*
X159816876Y-105441704D01*
X159816876Y-104641704D01*
X155092304Y-104641704D02*
X154825638Y-105441704D01*
X154558971Y-104641704D01*
X154292304Y-105136942D02*
X153682780Y-105136942D01*
X153987542Y-105441704D02*
X153987542Y-104832180D01*
X133897619Y-95027714D02*
X133088095Y-95027714D01*
X132992857Y-94980095D01*
X132945238Y-94932476D01*
X132897619Y-94837238D01*
X132897619Y-94646761D01*
X132945238Y-94551523D01*
X132992857Y-94503904D01*
X133088095Y-94456285D01*
X133897619Y-94456285D01*
X133897619Y-88074380D02*
X132897619Y-87741047D01*
X133897619Y-87407714D01*
X133278571Y-87074380D02*
X133278571Y-86312476D01*
X171207114Y-60766257D02*
X171207114Y-59566257D01*
X170807114Y-60423400D01*
X170407114Y-59566257D01*
X170407114Y-60766257D01*
X169664257Y-60766257D02*
X169778542Y-60709114D01*
X169835685Y-60651971D01*
X169892828Y-60537685D01*
X169892828Y-60194828D01*
X169835685Y-60080542D01*
X169778542Y-60023400D01*
X169664257Y-59966257D01*
X169492828Y-59966257D01*
X169378542Y-60023400D01*
X169321400Y-60080542D01*
X169264257Y-60194828D01*
X169264257Y-60537685D01*
X169321400Y-60651971D01*
X169378542Y-60709114D01*
X169492828Y-60766257D01*
X169664257Y-60766257D01*
X168749971Y-59966257D02*
X168749971Y-60766257D01*
X168749971Y-60080542D02*
X168692828Y-60023400D01*
X168578542Y-59966257D01*
X168407114Y-59966257D01*
X168292828Y-60023400D01*
X168235685Y-60137685D01*
X168235685Y-60766257D01*
X167664257Y-60766257D02*
X167664257Y-59966257D01*
X167664257Y-59566257D02*
X167721400Y-59623400D01*
X167664257Y-59680542D01*
X167607114Y-59623400D01*
X167664257Y-59566257D01*
X167664257Y-59680542D01*
X167264257Y-59966257D02*
X166807114Y-59966257D01*
X167092828Y-59566257D02*
X167092828Y-60594828D01*
X167035685Y-60709114D01*
X166921400Y-60766257D01*
X166807114Y-60766257D01*
X166235685Y-60766257D02*
X166349971Y-60709114D01*
X166407114Y-60651971D01*
X166464257Y-60537685D01*
X166464257Y-60194828D01*
X166407114Y-60080542D01*
X166349971Y-60023400D01*
X166235685Y-59966257D01*
X166064257Y-59966257D01*
X165949971Y-60023400D01*
X165892828Y-60080542D01*
X165835685Y-60194828D01*
X165835685Y-60537685D01*
X165892828Y-60651971D01*
X165949971Y-60709114D01*
X166064257Y-60766257D01*
X166235685Y-60766257D01*
X165321400Y-60766257D02*
X165321400Y-59966257D01*
X165321400Y-60194828D02*
X165264257Y-60080542D01*
X165207114Y-60023400D01*
X165092828Y-59966257D01*
X164978542Y-59966257D01*
X162978542Y-60651971D02*
X163035685Y-60709114D01*
X163207114Y-60766257D01*
X163321400Y-60766257D01*
X163492828Y-60709114D01*
X163607114Y-60594828D01*
X163664257Y-60480542D01*
X163721400Y-60251971D01*
X163721400Y-60080542D01*
X163664257Y-59851971D01*
X163607114Y-59737685D01*
X163492828Y-59623400D01*
X163321400Y-59566257D01*
X163207114Y-59566257D01*
X163035685Y-59623400D01*
X162978542Y-59680542D01*
X162292828Y-60766257D02*
X162407114Y-60709114D01*
X162464257Y-60651971D01*
X162521400Y-60537685D01*
X162521400Y-60194828D01*
X162464257Y-60080542D01*
X162407114Y-60023400D01*
X162292828Y-59966257D01*
X162121400Y-59966257D01*
X162007114Y-60023400D01*
X161949971Y-60080542D01*
X161892828Y-60194828D01*
X161892828Y-60537685D01*
X161949971Y-60651971D01*
X162007114Y-60709114D01*
X162121400Y-60766257D01*
X162292828Y-60766257D01*
X161378542Y-59966257D02*
X161378542Y-60766257D01*
X161378542Y-60080542D02*
X161321400Y-60023400D01*
X161207114Y-59966257D01*
X161035685Y-59966257D01*
X160921400Y-60023400D01*
X160864257Y-60137685D01*
X160864257Y-60766257D01*
X160464257Y-59966257D02*
X160007114Y-59966257D01*
X160292828Y-59566257D02*
X160292828Y-60594828D01*
X160235685Y-60709114D01*
X160121400Y-60766257D01*
X160007114Y-60766257D01*
X159607114Y-60766257D02*
X159607114Y-59966257D01*
X159607114Y-60194828D02*
X159549971Y-60080542D01*
X159492828Y-60023400D01*
X159378542Y-59966257D01*
X159264257Y-59966257D01*
X158692828Y-60766257D02*
X158807114Y-60709114D01*
X158864257Y-60651971D01*
X158921400Y-60537685D01*
X158921400Y-60194828D01*
X158864257Y-60080542D01*
X158807114Y-60023400D01*
X158692828Y-59966257D01*
X158521400Y-59966257D01*
X158407114Y-60023400D01*
X158349971Y-60080542D01*
X158292828Y-60194828D01*
X158292828Y-60537685D01*
X158349971Y-60651971D01*
X158407114Y-60709114D01*
X158521400Y-60766257D01*
X158692828Y-60766257D01*
X157607114Y-60766257D02*
X157721400Y-60709114D01*
X157778542Y-60594828D01*
X157778542Y-59566257D01*
X155835685Y-60137685D02*
X155664257Y-60194828D01*
X155607114Y-60251971D01*
X155549971Y-60366257D01*
X155549971Y-60537685D01*
X155607114Y-60651971D01*
X155664257Y-60709114D01*
X155778542Y-60766257D01*
X156235685Y-60766257D01*
X156235685Y-59566257D01*
X155835685Y-59566257D01*
X155721400Y-59623400D01*
X155664257Y-59680542D01*
X155607114Y-59794828D01*
X155607114Y-59909114D01*
X155664257Y-60023400D01*
X155721400Y-60080542D01*
X155835685Y-60137685D01*
X156235685Y-60137685D01*
X154864257Y-60766257D02*
X154978542Y-60709114D01*
X155035685Y-60651971D01*
X155092828Y-60537685D01*
X155092828Y-60194828D01*
X155035685Y-60080542D01*
X154978542Y-60023400D01*
X154864257Y-59966257D01*
X154692828Y-59966257D01*
X154578542Y-60023400D01*
X154521400Y-60080542D01*
X154464257Y-60194828D01*
X154464257Y-60537685D01*
X154521400Y-60651971D01*
X154578542Y-60709114D01*
X154692828Y-60766257D01*
X154864257Y-60766257D01*
X153435685Y-60766257D02*
X153435685Y-60137685D01*
X153492828Y-60023400D01*
X153607114Y-59966257D01*
X153835685Y-59966257D01*
X153949971Y-60023400D01*
X153435685Y-60709114D02*
X153549971Y-60766257D01*
X153835685Y-60766257D01*
X153949971Y-60709114D01*
X154007114Y-60594828D01*
X154007114Y-60480542D01*
X153949971Y-60366257D01*
X153835685Y-60309114D01*
X153549971Y-60309114D01*
X153435685Y-60251971D01*
X152864257Y-60766257D02*
X152864257Y-59966257D01*
X152864257Y-60194828D02*
X152807114Y-60080542D01*
X152749971Y-60023400D01*
X152635685Y-59966257D01*
X152521400Y-59966257D01*
X151607114Y-60766257D02*
X151607114Y-59566257D01*
X151607114Y-60709114D02*
X151721400Y-60766257D01*
X151949971Y-60766257D01*
X152064257Y-60709114D01*
X152121400Y-60651971D01*
X152178542Y-60537685D01*
X152178542Y-60194828D01*
X152121400Y-60080542D01*
X152064257Y-60023400D01*
X151949971Y-59966257D01*
X151721400Y-59966257D01*
X151607114Y-60023400D01*
X149435685Y-60766257D02*
X149835685Y-60194828D01*
X150121400Y-60766257D02*
X150121400Y-59566257D01*
X149664257Y-59566257D01*
X149549971Y-59623400D01*
X149492828Y-59680542D01*
X149435685Y-59794828D01*
X149435685Y-59966257D01*
X149492828Y-60080542D01*
X149549971Y-60137685D01*
X149664257Y-60194828D01*
X150121400Y-60194828D01*
X148464257Y-60709114D02*
X148578542Y-60766257D01*
X148807114Y-60766257D01*
X148921400Y-60709114D01*
X148978542Y-60594828D01*
X148978542Y-60137685D01*
X148921400Y-60023400D01*
X148807114Y-59966257D01*
X148578542Y-59966257D01*
X148464257Y-60023400D01*
X148407114Y-60137685D01*
X148407114Y-60251971D01*
X148978542Y-60366257D01*
X148007114Y-59966257D02*
X147721400Y-60766257D01*
X147435685Y-59966257D01*
X146978542Y-60651971D02*
X146921400Y-60709114D01*
X146978542Y-60766257D01*
X147035685Y-60709114D01*
X146978542Y-60651971D01*
X146978542Y-60766257D01*
X146464257Y-59680542D02*
X146407114Y-59623400D01*
X146292828Y-59566257D01*
X146007114Y-59566257D01*
X145892828Y-59623400D01*
X145835685Y-59680542D01*
X145778542Y-59794828D01*
X145778542Y-59909114D01*
X145835685Y-60080542D01*
X146521400Y-60766257D01*
X145778542Y-60766257D01*
X149155066Y-105441704D02*
X149155066Y-104641704D01*
X148850304Y-104641704D01*
X148774114Y-104679800D01*
X148736019Y-104717895D01*
X148697923Y-104794085D01*
X148697923Y-104908371D01*
X148736019Y-104984561D01*
X148774114Y-105022657D01*
X148850304Y-105060752D01*
X149155066Y-105060752D01*
X148431257Y-104641704D02*
X148240780Y-105441704D01*
X148088400Y-104870276D01*
X147936019Y-105441704D01*
X147745542Y-104641704D01*
X133850000Y-79240095D02*
X133897619Y-79335333D01*
X133897619Y-79478190D01*
X133850000Y-79621047D01*
X133754761Y-79716285D01*
X133659523Y-79763904D01*
X133469047Y-79811523D01*
X133326190Y-79811523D01*
X133135714Y-79763904D01*
X133040476Y-79716285D01*
X132945238Y-79621047D01*
X132897619Y-79478190D01*
X132897619Y-79382952D01*
X132945238Y-79240095D01*
X132992857Y-79192476D01*
X133326190Y-79192476D01*
X133326190Y-79382952D01*
X132945238Y-98424857D02*
X132897619Y-98282000D01*
X132897619Y-98043904D01*
X132945238Y-97948666D01*
X132992857Y-97901047D01*
X133088095Y-97853428D01*
X133183333Y-97853428D01*
X133278571Y-97901047D01*
X133326190Y-97948666D01*
X133373809Y-98043904D01*
X133421428Y-98234380D01*
X133469047Y-98329619D01*
X133516666Y-98377238D01*
X133611904Y-98424857D01*
X133707142Y-98424857D01*
X133802380Y-98377238D01*
X133850000Y-98329619D01*
X133897619Y-98234380D01*
X133897619Y-97996285D01*
X133850000Y-97853428D01*
X133421428Y-97424857D02*
X133421428Y-97091523D01*
X132897619Y-96948666D02*
X132897619Y-97424857D01*
X133897619Y-97424857D01*
X133897619Y-96948666D01*
X132897619Y-96043904D02*
X132897619Y-96520095D01*
X133897619Y-96520095D01*
X146246876Y-104679800D02*
X146323066Y-104641704D01*
X146437352Y-104641704D01*
X146551638Y-104679800D01*
X146627828Y-104755990D01*
X146665923Y-104832180D01*
X146704019Y-104984561D01*
X146704019Y-105098847D01*
X146665923Y-105251228D01*
X146627828Y-105327419D01*
X146551638Y-105403609D01*
X146437352Y-105441704D01*
X146361161Y-105441704D01*
X146246876Y-105403609D01*
X146208780Y-105365514D01*
X146208780Y-105098847D01*
X146361161Y-105098847D01*
X153060304Y-104641704D02*
X152793638Y-105441704D01*
X152526971Y-104641704D01*
X152260304Y-105136942D02*
X151650780Y-105136942D01*
X132897619Y-84915333D02*
X133897619Y-84915333D01*
X133183333Y-84582000D01*
X133897619Y-84248666D01*
X132897619Y-84248666D01*
X150787066Y-105441704D02*
X150787066Y-104641704D01*
X150520400Y-105213133D01*
X150253733Y-104641704D01*
X150253733Y-105441704D01*
X133897619Y-90614380D02*
X132897619Y-90281047D01*
X133897619Y-89947714D01*
X133278571Y-89614380D02*
X133278571Y-88852476D01*
X132897619Y-89233428D02*
X133659523Y-89233428D01*
D11*
X138785523Y-71382000D02*
X138861714Y-71334380D01*
X138976000Y-71334380D01*
X139090285Y-71382000D01*
X139166476Y-71477238D01*
X139204571Y-71572476D01*
X139242666Y-71762952D01*
X139242666Y-71905809D01*
X139204571Y-72096285D01*
X139166476Y-72191523D01*
X139090285Y-72286761D01*
X138976000Y-72334380D01*
X138899809Y-72334380D01*
X138785523Y-72286761D01*
X138747428Y-72239142D01*
X138747428Y-71905809D01*
X138899809Y-71905809D01*
X138404571Y-72334380D02*
X138404571Y-71334380D01*
X137947428Y-72334380D01*
X137947428Y-71334380D01*
X137566476Y-72334380D02*
X137566476Y-71334380D01*
X137376000Y-71334380D01*
X137261714Y-71382000D01*
X137185523Y-71477238D01*
X137147428Y-71572476D01*
X137109333Y-71762952D01*
X137109333Y-71905809D01*
X137147428Y-72096285D01*
X137185523Y-72191523D01*
X137261714Y-72286761D01*
X137376000Y-72334380D01*
X137566476Y-72334380D01*
D10*
%TO.C,J2*%
X131651333Y-99064380D02*
X131651333Y-99778666D01*
X131698952Y-99921523D01*
X131794190Y-100016761D01*
X131937047Y-100064380D01*
X132032285Y-100064380D01*
X131222761Y-99159619D02*
X131175142Y-99112000D01*
X131079904Y-99064380D01*
X130841809Y-99064380D01*
X130746571Y-99112000D01*
X130698952Y-99159619D01*
X130651333Y-99254857D01*
X130651333Y-99350095D01*
X130698952Y-99492952D01*
X131270380Y-100064380D01*
X130651333Y-100064380D01*
%TO.C,J3*%
X154257333Y-110602780D02*
X154257333Y-111317066D01*
X154304952Y-111459923D01*
X154400190Y-111555161D01*
X154543047Y-111602780D01*
X154638285Y-111602780D01*
X153876380Y-110602780D02*
X153257333Y-110602780D01*
X153590666Y-110983733D01*
X153447809Y-110983733D01*
X153352571Y-111031352D01*
X153304952Y-111078971D01*
X153257333Y-111174209D01*
X153257333Y-111412304D01*
X153304952Y-111507542D01*
X153352571Y-111555161D01*
X153447809Y-111602780D01*
X153733523Y-111602780D01*
X153828761Y-111555161D01*
X153876380Y-111507542D01*
%TO.C,J1*%
X139584180Y-99803866D02*
X140298466Y-99803866D01*
X140441323Y-99756247D01*
X140536561Y-99661009D01*
X140584180Y-99518152D01*
X140584180Y-99422914D01*
X140584180Y-100803866D02*
X140584180Y-100232438D01*
X140584180Y-100518152D02*
X139584180Y-100518152D01*
X139727038Y-100422914D01*
X139822276Y-100327676D01*
X139869895Y-100232438D01*
D12*
%TO.C,J2*%
X129988000Y-97282000D02*
X129988000Y-98612000D01*
X129988000Y-96012000D02*
X129988000Y-78172000D01*
X129988000Y-78172000D02*
X132648000Y-78172000D01*
X132648000Y-96012000D02*
X132648000Y-78172000D01*
X129988000Y-98612000D02*
X131318000Y-98612000D01*
X129988000Y-96012000D02*
X132648000Y-96012000D01*
%TO.C,J3*%
X145230000Y-107734400D02*
X146150000Y-107734400D01*
X145230000Y-113954400D02*
X145230000Y-106134400D01*
X162150000Y-107734400D02*
X162150000Y-106519400D01*
X162090000Y-111694400D02*
X162090000Y-113954400D01*
X146150000Y-107734400D02*
X146430000Y-107734400D01*
X162430000Y-107734400D02*
X162430000Y-106134400D01*
X161590000Y-110094400D02*
X162590000Y-110094400D01*
X163350000Y-113954400D02*
X145230000Y-113954400D01*
X163350000Y-107734400D02*
X162430000Y-107734400D01*
X145990000Y-111694400D02*
X146990000Y-111694400D01*
X160790000Y-109594400D02*
X147790000Y-109594400D01*
X163350000Y-106134400D02*
X163350000Y-113954400D01*
X162590000Y-110094400D02*
X162590000Y-111694400D01*
X147790000Y-109594400D02*
X147790000Y-113954400D01*
X162150000Y-107734400D02*
X162430000Y-107734400D01*
X160790000Y-113954400D02*
X160790000Y-109594400D01*
X145990000Y-110094400D02*
X145990000Y-111694400D01*
X162430000Y-106134400D02*
X163350000Y-106134400D01*
X145230000Y-106134400D02*
X146150000Y-106134400D01*
X146150000Y-106134400D02*
X146150000Y-107734400D01*
X161590000Y-111694400D02*
X161590000Y-113954400D01*
X146990000Y-110094400D02*
X145990000Y-110094400D01*
X161590000Y-111694400D02*
X161590000Y-110094400D01*
X146990000Y-111694400D02*
X146990000Y-110094400D01*
X162590000Y-111694400D02*
X161590000Y-111694400D01*
%TO.C,J1*%
X142349800Y-93544200D02*
X142349800Y-95344200D01*
X142349800Y-107014200D02*
X142349800Y-105214200D01*
X140899800Y-107014200D02*
X142349800Y-107014200D01*
X138079800Y-105744200D02*
X138079800Y-94814200D01*
X140899800Y-93544200D02*
X142349800Y-93544200D01*
X142349800Y-105214200D02*
X143339800Y-105214200D01*
%TD*%
M02*
