%TF.GenerationSoftware,KiCad,Pcbnew,(6.0.10)*%
%TF.CreationDate,2023-01-20T17:01:51+09:00*%
%TF.ProjectId,monitor_control_board,6d6f6e69-746f-4725-9f63-6f6e74726f6c,rev?*%
%TF.SameCoordinates,PX7ab4258PY723a4bd*%
%TF.FileFunction,Copper,L2,Bot*%
%TF.FilePolarity,Positive*%
%FSLAX46Y46*%
G04 Gerber Fmt 4.6, Leading zero omitted, Abs format (unit mm)*
G04 Created by KiCad (PCBNEW (6.0.10)) date 2023-01-20 17:01:51*
%MOMM*%
%LPD*%
G01*
G04 APERTURE LIST*
G04 Aperture macros list*
%AMRoundRect*
0 Rectangle with rounded corners*
0 $1 Rounding radius*
0 $2 $3 $4 $5 $6 $7 $8 $9 X,Y pos of 4 corners*
0 Add a 4 corners polygon primitive as box body*
4,1,4,$2,$3,$4,$5,$6,$7,$8,$9,$2,$3,0*
0 Add four circle primitives for the rounded corners*
1,1,$1+$1,$2,$3*
1,1,$1+$1,$4,$5*
1,1,$1+$1,$6,$7*
1,1,$1+$1,$8,$9*
0 Add four rect primitives between the rounded corners*
20,1,$1+$1,$2,$3,$4,$5,0*
20,1,$1+$1,$4,$5,$6,$7,0*
20,1,$1+$1,$6,$7,$8,$9,0*
20,1,$1+$1,$8,$9,$2,$3,0*%
G04 Aperture macros list end*
%TA.AperFunction,ComponentPad*%
%ADD10O,3.048000X1.850000*%
%TD*%
%TA.AperFunction,ComponentPad*%
%ADD11O,1.850000X3.048000*%
%TD*%
%TA.AperFunction,ComponentPad*%
%ADD12RoundRect,0.250200X-0.649800X0.649800X-0.649800X-0.649800X0.649800X-0.649800X0.649800X0.649800X0*%
%TD*%
%TA.AperFunction,ComponentPad*%
%ADD13C,1.800000*%
%TD*%
%TA.AperFunction,ComponentPad*%
%ADD14R,1.800000X1.800000*%
%TD*%
%TA.AperFunction,ComponentPad*%
%ADD15C,2.000000*%
%TD*%
%TA.AperFunction,ComponentPad*%
%ADD16R,1.700000X1.700000*%
%TD*%
%TA.AperFunction,ComponentPad*%
%ADD17O,1.700000X1.700000*%
%TD*%
%TA.AperFunction,ComponentPad*%
%ADD18RoundRect,0.250000X0.625000X-0.350000X0.625000X0.350000X-0.625000X0.350000X-0.625000X-0.350000X0*%
%TD*%
%TA.AperFunction,ComponentPad*%
%ADD19O,1.750000X1.200000*%
%TD*%
%TA.AperFunction,ViaPad*%
%ADD20C,0.800000*%
%TD*%
%TA.AperFunction,Conductor*%
%ADD21C,0.250000*%
%TD*%
%TA.AperFunction,Conductor*%
%ADD22C,0.500000*%
%TD*%
G04 APERTURE END LIST*
D10*
%TO.P,SW4,2,2*%
%TO.N,GND*%
X18751848Y26808445D03*
X31251848Y26808445D03*
%TO.P,SW4,1,1*%
%TO.N,/DOWN*%
X18751848Y21808445D03*
X31251848Y21808445D03*
%TD*%
D11*
%TO.P,SW5,1,1*%
%TO.N,/VOL_P*%
X40171848Y43278445D03*
X40171848Y30778445D03*
%TO.P,SW5,2,2*%
%TO.N,GND*%
X35171848Y43278445D03*
X35171848Y30778445D03*
%TD*%
D10*
%TO.P,SW2,1,1*%
%TO.N,/UP*%
X18751848Y52178445D03*
X31251848Y52178445D03*
%TO.P,SW2,2,2*%
%TO.N,GND*%
X18751848Y47178445D03*
X31251848Y47178445D03*
%TD*%
D11*
%TO.P,SW1,1,1*%
%TO.N,/VOL_M*%
X9811848Y30768445D03*
X9811848Y43268445D03*
%TO.P,SW1,2,2*%
%TO.N,GND*%
X14811848Y30768445D03*
X14811848Y43268445D03*
%TD*%
D10*
%TO.P,SW3,2,2*%
%TO.N,GND*%
X31251848Y34518445D03*
X18751848Y34518445D03*
%TO.P,SW3,1,1*%
%TO.N,/MENU*%
X31251848Y39518445D03*
X18751848Y39518445D03*
%TD*%
D12*
%TO.P,U1,1,OUT*%
%TO.N,/IRIN*%
X9384848Y9413445D03*
D13*
%TO.P,U1,2,GND*%
%TO.N,GND*%
X9384848Y6873445D03*
%TO.P,U1,3,Vs*%
%TO.N,Net-(C1-Pad1)*%
X9384848Y4333445D03*
%TD*%
D14*
%TO.P,D2,1,A1*%
%TO.N,/LED_R*%
X29704848Y2555445D03*
D13*
%TO.P,D2,2,K*%
%TO.N,GND*%
X29704848Y5095445D03*
%TO.P,D2,3,A2*%
%TO.N,/LED_G*%
X29704848Y7635445D03*
%TD*%
D15*
%TO.P,SW6,1,1*%
%TO.N,/POWER*%
X37797848Y10262445D03*
X37797848Y3762445D03*
%TO.P,SW6,2,2*%
%TO.N,GND*%
X42297848Y3762445D03*
X42297848Y10262445D03*
%TD*%
%TO.P,TP1,1,1*%
%TO.N,/SOURCE*%
X3415848Y49037445D03*
%TD*%
%TO.P,TP3,1,1*%
%TO.N,/POWER*%
X3415848Y45735445D03*
%TD*%
%TO.P,TP2,1,1*%
%TO.N,GND*%
X6209848Y47386445D03*
%TD*%
%TO.P,TP4,1,1*%
%TO.N,GND*%
X9511848Y19700445D03*
%TD*%
D16*
%TO.P,J5,1,Pin_1*%
%TO.N,+5V*%
X23481848Y1666445D03*
D17*
%TO.P,J5,2,Pin_2*%
%TO.N,/LED_R*%
X20941848Y1666445D03*
%TO.P,J5,3,Pin_3*%
%TO.N,/LED_G*%
X18401848Y1666445D03*
%TO.P,J5,4,Pin_4*%
%TO.N,/IRIN*%
X15861848Y1666445D03*
%TO.P,J5,5,Pin_5*%
%TO.N,GND*%
X13321848Y1666445D03*
%TD*%
D18*
%TO.P,J3,1,Pin_1*%
%TO.N,/SOURCE*%
X4177848Y25702445D03*
D19*
%TO.P,J3,2,Pin_2*%
%TO.N,/UP*%
X4177848Y27702445D03*
%TO.P,J3,3,Pin_3*%
%TO.N,/DOWN*%
X4177848Y29702445D03*
%TO.P,J3,4,Pin_4*%
%TO.N,/VOL_P*%
X4177848Y31702445D03*
%TO.P,J3,5,Pin_5*%
%TO.N,/VOL_M*%
X4177848Y33702445D03*
%TO.P,J3,6,Pin_6*%
%TO.N,/MENU*%
X4177848Y35702445D03*
%TO.P,J3,7,Pin_7*%
%TO.N,/POWER*%
X4177848Y37702445D03*
%TO.P,J3,8,Pin_8*%
%TO.N,GND*%
X4177848Y39702445D03*
%TD*%
D16*
%TO.P,J2,1,Pin_1*%
%TO.N,/SOURCE*%
X46595848Y42799445D03*
D17*
%TO.P,J2,2,Pin_2*%
%TO.N,/UP*%
X46595848Y40259445D03*
%TO.P,J2,3,Pin_3*%
%TO.N,/DOWN*%
X46595848Y37719445D03*
%TO.P,J2,4,Pin_4*%
%TO.N,/VOL_P*%
X46595848Y35179445D03*
%TO.P,J2,5,Pin_5*%
%TO.N,/VOL_M*%
X46595848Y32639445D03*
%TO.P,J2,6,Pin_6*%
%TO.N,/MENU*%
X46595848Y30099445D03*
%TO.P,J2,7,Pin_7*%
%TO.N,/POWER*%
X46595848Y27559445D03*
%TO.P,J2,8,Pin_8*%
%TO.N,GND*%
X46595848Y25019445D03*
%TD*%
D18*
%TO.P,J6,1,Pin_1*%
%TO.N,+5V*%
X4418048Y3444445D03*
D19*
%TO.P,J6,2,Pin_2*%
%TO.N,/LED_R*%
X4418048Y5444445D03*
%TO.P,J6,3,Pin_3*%
%TO.N,/LED_G*%
X4418048Y7444445D03*
%TO.P,J6,4,Pin_4*%
%TO.N,/IRIN*%
X4418048Y9444445D03*
%TO.P,J6,5,Pin_5*%
%TO.N,GND*%
X4418048Y11444445D03*
%TD*%
D20*
%TO.N,/LED_R*%
X12144536Y3478757D03*
%TO.N,/LED_G*%
X14591848Y3063445D03*
%TO.N,/IRIN*%
X16496848Y11404133D03*
%TO.N,Net-(C1-Pad1)*%
X27204348Y7508445D03*
%TD*%
D21*
%TO.N,/DOWN*%
X43293848Y34417445D02*
X46595848Y37719445D01*
X43293848Y28844445D02*
X43293848Y34417445D01*
X36321848Y21872445D02*
X43293848Y28844445D01*
X31315848Y21872445D02*
X36321848Y21872445D01*
D22*
%TO.N,GND*%
X35189448Y30804045D02*
X31475048Y34518445D01*
X35189448Y30766845D02*
X35189448Y30804045D01*
D21*
%TO.N,/DOWN*%
X31251848Y21808445D02*
X31315848Y21872445D01*
D22*
%TO.N,GND*%
X31251848Y26808445D02*
X31251848Y26829245D01*
X14873848Y30768445D02*
X14811848Y30768445D01*
X18751848Y26890445D02*
X14873848Y30768445D01*
X18751848Y26808445D02*
X18751848Y26890445D01*
X31251848Y26829245D02*
X35189448Y30766845D01*
X31475048Y34518445D02*
X31251848Y34518445D01*
X18751848Y47116445D02*
X18751848Y47178445D01*
X14811848Y43268445D02*
X14903848Y43268445D01*
D21*
%TO.N,/UP*%
X18725848Y52152445D02*
X18751848Y52178445D01*
X14277848Y52152445D02*
X18725848Y52152445D01*
D22*
%TO.N,GND*%
X14903848Y43268445D02*
X18751848Y47116445D01*
D21*
%TO.N,/UP*%
X2145848Y40020445D02*
X14277848Y52152445D01*
X3795848Y27702445D02*
X2145848Y29352445D01*
X2145848Y29352445D02*
X2145848Y40020445D01*
X4177848Y27702445D02*
X3795848Y27702445D01*
D22*
%TO.N,GND*%
X14811848Y43168445D02*
X14811848Y43268445D01*
X4177848Y39702445D02*
X11345848Y39702445D01*
X11345848Y39702445D02*
X14811848Y43168445D01*
X15011048Y30768445D02*
X18765848Y34523245D01*
X14811848Y30768445D02*
X15011048Y30768445D01*
D21*
%TO.N,/POWER*%
X37797848Y19284445D02*
X37797848Y11480445D01*
X35927848Y19192445D02*
X44309848Y27574445D01*
X4177848Y37702445D02*
X4748848Y37702445D01*
X7733848Y27193445D02*
X15734848Y19192445D01*
X7733848Y34717445D02*
X7733848Y27193445D01*
X37797848Y11480445D02*
X37797848Y10262445D01*
X46580848Y27574445D02*
X46595848Y27559445D01*
X15734848Y19192445D02*
X35927848Y19192445D01*
X46072848Y27559445D02*
X37797848Y19284445D01*
X4748848Y37702445D02*
X7733848Y34717445D01*
X46595848Y27559445D02*
X46072848Y27559445D01*
X44309848Y27574445D02*
X46580848Y27574445D01*
D22*
%TO.N,GND*%
X28180848Y8089245D02*
X28180848Y6619445D01*
X9892848Y6873445D02*
X12204248Y9184845D01*
X3338648Y11444445D02*
X4418048Y11444445D01*
X9511848Y14620445D02*
X9511848Y19700445D01*
X28180848Y6619445D02*
X29704848Y5095445D01*
X31265848Y47121645D02*
X35073448Y43314045D01*
X27085248Y9184845D02*
X28180848Y8089245D01*
X2399848Y2809445D02*
X2399848Y10505645D01*
X2399848Y10505645D02*
X3338648Y11444445D01*
X4418048Y11444445D02*
X6324048Y13350445D01*
X12559848Y904445D02*
X4304848Y904445D01*
X12204248Y9184845D02*
X27085248Y9184845D01*
X8241848Y13350445D02*
X9511848Y14620445D01*
X6324048Y13350445D02*
X8241848Y13350445D01*
X35073448Y43314045D02*
X35155048Y43314045D01*
X13321848Y1666445D02*
X12559848Y904445D01*
X4304848Y904445D02*
X2399848Y2809445D01*
X9384848Y6873445D02*
X9892848Y6873445D01*
%TO.N,+5V*%
X5701848Y1666445D02*
X9003848Y1666445D01*
X4418048Y2950245D02*
X5701848Y1666445D01*
X23481848Y1920445D02*
X23481848Y1666445D01*
X4418048Y3444445D02*
X4418048Y2950245D01*
X9003848Y1666445D02*
X11797848Y4460445D01*
X11797848Y4460445D02*
X20941848Y4460445D01*
X20941848Y4460445D02*
X23481848Y1920445D01*
D21*
%TO.N,/LED_R*%
X20941848Y2047445D02*
X20941848Y1666445D01*
X12144536Y3478757D02*
X12491224Y3825445D01*
X19163848Y3825445D02*
X20941848Y2047445D01*
X12491224Y3825445D02*
X19163848Y3825445D01*
%TO.N,/LED_G*%
X14591848Y3063445D02*
X17385848Y3063445D01*
X17385848Y3063445D02*
X18401848Y2047445D01*
X18401848Y2047445D02*
X18401848Y1666445D01*
%TO.N,/IRIN*%
X16496848Y11404133D02*
X15141160Y10048445D01*
X15141160Y10048445D02*
X10019848Y10048445D01*
X10019848Y10048445D02*
X9384848Y9413445D01*
D22*
%TO.N,Net-(C1-Pad1)*%
X24878848Y5095445D02*
X21296798Y5095445D01*
X27204348Y7420945D02*
X24878848Y5095445D01*
X21296798Y5095445D02*
X21231797Y5160445D01*
X21231797Y5160445D02*
X10465848Y5160445D01*
X27204348Y7508445D02*
X27204348Y7420945D01*
X9638848Y4333445D02*
X9384848Y4333445D01*
X10465848Y5160445D02*
X9638848Y4333445D01*
%TD*%
M02*
