M48
; DRILL file {KiCad (6.0.10)} date Thu Jan 19 00:21:38 2023
; FORMAT={-:-/ absolute / inch / decimal}
; #@! TF.CreationDate,2023-01-19T00:21:38+09:00
; #@! TF.GenerationSoftware,Kicad,Pcbnew,(6.0.10)
; #@! TF.FileFunction,Plated,1,2,PTH
FMAT,2
INCH
; #@! TA.AperFunction,Plated,PTH,ViaDrill
T1C0.0157
; #@! TA.AperFunction,Plated,PTH,ComponentDrill
T2C0.0295
; #@! TA.AperFunction,Plated,PTH,ComponentDrill
T3C0.0354
; #@! TA.AperFunction,Plated,PTH,ComponentDrill
T4C0.0394
; #@! TA.AperFunction,Plated,PTH,ComponentDrill
T5C0.0433
; #@! TA.AperFunction,Plated,PTH,ComponentDrill
T6C0.0512
%
G90
G05
T1
X0.9745Y0.3856
X0.9745Y0.3406
T2
X0.1645Y1.5631
X0.1645Y1.4843
X0.1645Y1.4056
X0.1645Y1.3269
X0.1645Y1.2481
X0.1645Y1.1694
X0.1645Y1.0906
X0.1645Y1.0119
X0.1739Y0.4506
X0.1739Y0.3718
X0.1739Y0.2931
X0.1739Y0.2143
X0.1739Y0.1356
T3
X0.3695Y0.3706
X0.3695Y0.2706
X0.3695Y0.1706
X1.1695Y0.3006
X1.1695Y0.2006
X1.1695Y0.1006
T4
X0.1345Y1.9306
X0.1345Y1.8006
X0.2445Y1.8656
X0.3745Y0.7756
X0.5245Y0.0656
X0.6245Y0.0656
X0.7245Y0.0656
X0.8245Y0.0656
X0.9245Y0.0656
X1.8345Y1.685
X1.8345Y1.585
X1.8345Y1.485
X1.8345Y1.385
X1.8345Y1.285
X1.8345Y1.185
X1.8345Y1.085
X1.8345Y0.985
T5
X1.4881Y0.404
X1.4881Y0.1481
X1.6653Y0.404
X1.6653Y0.1481
T6
X0.3885Y1.7044
X0.3885Y1.2123
X0.5853Y1.7044
X0.5853Y1.2123
X0.7385Y1.058
X0.7385Y0.8611
X0.7397Y2.0532
X0.7397Y1.8564
X0.7397Y1.556
X0.7397Y1.3592
X1.2306Y1.058
X1.2306Y0.8611
X1.2318Y2.0532
X1.2318Y1.8564
X1.2318Y1.556
X1.2318Y1.3592
X1.3846Y1.7048
X1.3846Y1.2127
X1.5814Y1.7048
X1.5814Y1.2127
T0
M30
