%TF.GenerationSoftware,KiCad,Pcbnew,(6.0.7)*%
%TF.CreationDate,2022-08-16T23:57:58+09:00*%
%TF.ProjectId,monitor_control_board,6d6f6e69-746f-4725-9f63-6f6e74726f6c,rev?*%
%TF.SameCoordinates,Original*%
%TF.FileFunction,Legend,Top*%
%TF.FilePolarity,Positive*%
%FSLAX46Y46*%
G04 Gerber Fmt 4.6, Leading zero omitted, Abs format (unit mm)*
G04 Created by KiCad (PCBNEW (6.0.7)) date 2022-08-16 23:57:58*
%MOMM*%
%LPD*%
G01*
G04 APERTURE LIST*
%ADD10C,0.300000*%
%ADD11C,0.120000*%
G04 APERTURE END LIST*
D10*
X150848571Y-103548571D02*
X150848571Y-102048571D01*
X151205714Y-102048571D01*
X151420000Y-102120000D01*
X151562857Y-102262857D01*
X151634285Y-102405714D01*
X151705714Y-102691428D01*
X151705714Y-102905714D01*
X151634285Y-103191428D01*
X151562857Y-103334285D01*
X151420000Y-103477142D01*
X151205714Y-103548571D01*
X150848571Y-103548571D01*
X152634285Y-102048571D02*
X152920000Y-102048571D01*
X153062857Y-102120000D01*
X153205714Y-102262857D01*
X153277142Y-102548571D01*
X153277142Y-103048571D01*
X153205714Y-103334285D01*
X153062857Y-103477142D01*
X152920000Y-103548571D01*
X152634285Y-103548571D01*
X152491428Y-103477142D01*
X152348571Y-103334285D01*
X152277142Y-103048571D01*
X152277142Y-102548571D01*
X152348571Y-102262857D01*
X152491428Y-102120000D01*
X152634285Y-102048571D01*
X153777142Y-102048571D02*
X154134285Y-103548571D01*
X154420000Y-102477142D01*
X154705714Y-103548571D01*
X155062857Y-102048571D01*
X155634285Y-103548571D02*
X155634285Y-102048571D01*
X156491428Y-103548571D01*
X156491428Y-102048571D01*
X133902000Y-71290571D02*
X133902000Y-69790571D01*
X134402000Y-70862000D01*
X134902000Y-69790571D01*
X134902000Y-71290571D01*
X135616285Y-70504857D02*
X136116285Y-70504857D01*
X136330571Y-71290571D02*
X135616285Y-71290571D01*
X135616285Y-69790571D01*
X136330571Y-69790571D01*
X136973428Y-71290571D02*
X136973428Y-69790571D01*
X137830571Y-71290571D01*
X137830571Y-69790571D01*
X138544857Y-69790571D02*
X138544857Y-71004857D01*
X138616285Y-71147714D01*
X138687714Y-71219142D01*
X138830571Y-71290571D01*
X139116285Y-71290571D01*
X139259142Y-71219142D01*
X139330571Y-71147714D01*
X139402000Y-71004857D01*
X139402000Y-69790571D01*
X149955714Y-83411142D02*
X150170000Y-83482571D01*
X150527142Y-83482571D01*
X150670000Y-83411142D01*
X150741428Y-83339714D01*
X150812857Y-83196857D01*
X150812857Y-83054000D01*
X150741428Y-82911142D01*
X150670000Y-82839714D01*
X150527142Y-82768285D01*
X150241428Y-82696857D01*
X150098571Y-82625428D01*
X150027142Y-82554000D01*
X149955714Y-82411142D01*
X149955714Y-82268285D01*
X150027142Y-82125428D01*
X150098571Y-82054000D01*
X150241428Y-81982571D01*
X150598571Y-81982571D01*
X150812857Y-82054000D01*
X151455714Y-82696857D02*
X151955714Y-82696857D01*
X152170000Y-83482571D02*
X151455714Y-83482571D01*
X151455714Y-81982571D01*
X152170000Y-81982571D01*
X153527142Y-83482571D02*
X152812857Y-83482571D01*
X152812857Y-81982571D01*
X154027142Y-82696857D02*
X154527142Y-82696857D01*
X154741428Y-83482571D02*
X154027142Y-83482571D01*
X154027142Y-81982571D01*
X154741428Y-81982571D01*
X156241428Y-83339714D02*
X156170000Y-83411142D01*
X155955714Y-83482571D01*
X155812857Y-83482571D01*
X155598571Y-83411142D01*
X155455714Y-83268285D01*
X155384285Y-83125428D01*
X155312857Y-82839714D01*
X155312857Y-82625428D01*
X155384285Y-82339714D01*
X155455714Y-82196857D01*
X155598571Y-82054000D01*
X155812857Y-81982571D01*
X155955714Y-81982571D01*
X156170000Y-82054000D01*
X156241428Y-82125428D01*
X156670000Y-81982571D02*
X157527142Y-81982571D01*
X157098571Y-83482571D02*
X157098571Y-81982571D01*
X165191714Y-107612571D02*
X165191714Y-106112571D01*
X165763142Y-106112571D01*
X165906000Y-106184000D01*
X165977428Y-106255428D01*
X166048857Y-106398285D01*
X166048857Y-106612571D01*
X165977428Y-106755428D01*
X165906000Y-106826857D01*
X165763142Y-106898285D01*
X165191714Y-106898285D01*
X166977428Y-106112571D02*
X167263142Y-106112571D01*
X167406000Y-106184000D01*
X167548857Y-106326857D01*
X167620285Y-106612571D01*
X167620285Y-107112571D01*
X167548857Y-107398285D01*
X167406000Y-107541142D01*
X167263142Y-107612571D01*
X166977428Y-107612571D01*
X166834571Y-107541142D01*
X166691714Y-107398285D01*
X166620285Y-107112571D01*
X166620285Y-106612571D01*
X166691714Y-106326857D01*
X166834571Y-106184000D01*
X166977428Y-106112571D01*
X168120285Y-106112571D02*
X168477428Y-107612571D01*
X168763142Y-106541142D01*
X169048857Y-107612571D01*
X169406000Y-106112571D01*
X169977428Y-106826857D02*
X170477428Y-106826857D01*
X170691714Y-107612571D02*
X169977428Y-107612571D01*
X169977428Y-106112571D01*
X170691714Y-106112571D01*
X172191714Y-107612571D02*
X171691714Y-106898285D01*
X171334571Y-107612571D02*
X171334571Y-106112571D01*
X171906000Y-106112571D01*
X172048857Y-106184000D01*
X172120285Y-106255428D01*
X172191714Y-106398285D01*
X172191714Y-106612571D01*
X172120285Y-106755428D01*
X172048857Y-106826857D01*
X171906000Y-106898285D01*
X171334571Y-106898285D01*
X152999428Y-61916571D02*
X152999428Y-63130857D01*
X153070857Y-63273714D01*
X153142285Y-63345142D01*
X153285142Y-63416571D01*
X153570857Y-63416571D01*
X153713714Y-63345142D01*
X153785142Y-63273714D01*
X153856571Y-63130857D01*
X153856571Y-61916571D01*
X154570857Y-63416571D02*
X154570857Y-61916571D01*
X155142285Y-61916571D01*
X155285142Y-61988000D01*
X155356571Y-62059428D01*
X155428000Y-62202285D01*
X155428000Y-62416571D01*
X155356571Y-62559428D01*
X155285142Y-62630857D01*
X155142285Y-62702285D01*
X154570857Y-62702285D01*
X138402571Y-91126571D02*
X138902571Y-92626571D01*
X139402571Y-91126571D01*
X140188285Y-91126571D02*
X140474000Y-91126571D01*
X140616857Y-91198000D01*
X140759714Y-91340857D01*
X140831142Y-91626571D01*
X140831142Y-92126571D01*
X140759714Y-92412285D01*
X140616857Y-92555142D01*
X140474000Y-92626571D01*
X140188285Y-92626571D01*
X140045428Y-92555142D01*
X139902571Y-92412285D01*
X139831142Y-92126571D01*
X139831142Y-91626571D01*
X139902571Y-91340857D01*
X140045428Y-91198000D01*
X140188285Y-91126571D01*
X142188285Y-92626571D02*
X141474000Y-92626571D01*
X141474000Y-91126571D01*
X142688285Y-92055142D02*
X143831142Y-92055142D01*
X163548571Y-91126571D02*
X164048571Y-92626571D01*
X164548571Y-91126571D01*
X165334285Y-91126571D02*
X165620000Y-91126571D01*
X165762857Y-91198000D01*
X165905714Y-91340857D01*
X165977142Y-91626571D01*
X165977142Y-92126571D01*
X165905714Y-92412285D01*
X165762857Y-92555142D01*
X165620000Y-92626571D01*
X165334285Y-92626571D01*
X165191428Y-92555142D01*
X165048571Y-92412285D01*
X164977142Y-92126571D01*
X164977142Y-91626571D01*
X165048571Y-91340857D01*
X165191428Y-91198000D01*
X165334285Y-91126571D01*
X167334285Y-92626571D02*
X166620000Y-92626571D01*
X166620000Y-91126571D01*
X167834285Y-92055142D02*
X168977142Y-92055142D01*
X168405714Y-92626571D02*
X168405714Y-91483714D01*
D11*
%TO.C,SW1*%
X134907000Y-76627000D02*
X137627000Y-76627000D01*
X137627000Y-88927000D02*
X134907000Y-88927000D01*
X147207000Y-76627000D02*
X147207000Y-88927000D01*
X139487000Y-76627000D02*
X142627000Y-76627000D01*
X147207000Y-88927000D02*
X144487000Y-88927000D01*
X134907000Y-88927000D02*
X134907000Y-76627000D01*
X142627000Y-88927000D02*
X139487000Y-88927000D01*
X144487000Y-76627000D02*
X147207000Y-76627000D01*
X145676050Y-82677000D02*
G75*
G03*
X145676050Y-82677000I-4579050J0D01*
G01*
%TO.C,SW6*%
X169420800Y-109226400D02*
X167920800Y-109226400D01*
X171920800Y-114976400D02*
X171920800Y-110476400D01*
X167920800Y-116226400D02*
X169420800Y-116226400D01*
X165420800Y-110476400D02*
X165420800Y-114976400D01*
%TO.C,TP1*%
X142424000Y-70612000D02*
G75*
G03*
X142424000Y-70612000I-1200000J0D01*
G01*
%TO.C,SW5*%
X172469200Y-76562400D02*
X172469200Y-88862400D01*
X160169200Y-88862400D02*
X160169200Y-76562400D01*
X160169200Y-76562400D02*
X162889200Y-76562400D01*
X164749200Y-76562400D02*
X167889200Y-76562400D01*
X162889200Y-88862400D02*
X160169200Y-88862400D01*
X167889200Y-88862400D02*
X164749200Y-88862400D01*
X169749200Y-76562400D02*
X172469200Y-76562400D01*
X172469200Y-88862400D02*
X169749200Y-88862400D01*
X170858250Y-82812400D02*
G75*
G03*
X170858250Y-82812400I-4579050J0D01*
G01*
%TO.C,SW4*%
X159860800Y-101552400D02*
X147560800Y-101552400D01*
X159860800Y-89252400D02*
X159860800Y-91972400D01*
X147560800Y-96972400D02*
X147560800Y-93832400D01*
X159860800Y-93832400D02*
X159860800Y-96972400D01*
X147560800Y-89252400D02*
X159860800Y-89252400D01*
X147560800Y-101552400D02*
X147560800Y-98832400D01*
X159860800Y-98832400D02*
X159860800Y-101552400D01*
X147560800Y-91972400D02*
X147560800Y-89252400D01*
X158189850Y-95362400D02*
G75*
G03*
X158189850Y-95362400I-4579050J0D01*
G01*
%TO.C,SW2*%
X147530000Y-66724800D02*
X147530000Y-64004800D01*
X147530000Y-64004800D02*
X159830000Y-64004800D01*
X159830000Y-64004800D02*
X159830000Y-66724800D01*
X147530000Y-76304800D02*
X147530000Y-73584800D01*
X159830000Y-76304800D02*
X147530000Y-76304800D01*
X159830000Y-73584800D02*
X159830000Y-76304800D01*
X159830000Y-68584800D02*
X159830000Y-71724800D01*
X147530000Y-71724800D02*
X147530000Y-68584800D01*
X158359050Y-70194800D02*
G75*
G03*
X158359050Y-70194800I-4579050J0D01*
G01*
%TO.C,SW3*%
X147530000Y-88903200D02*
X147530000Y-86183200D01*
X147530000Y-79323200D02*
X147530000Y-76603200D01*
X159830000Y-76603200D02*
X159830000Y-79323200D01*
X147530000Y-76603200D02*
X159830000Y-76603200D01*
X147530000Y-84323200D02*
X147530000Y-81183200D01*
X159830000Y-86183200D02*
X159830000Y-88903200D01*
X159830000Y-88903200D02*
X147530000Y-88903200D01*
X159830000Y-81183200D02*
X159830000Y-84323200D01*
X158359050Y-82793200D02*
G75*
G03*
X158359050Y-82793200I-4579050J0D01*
G01*
%TD*%
M02*
