M48
; DRILL file {KiCad (6.0.7)} date Thu Aug 18 12:53:57 2022
; FORMAT={-:-/ absolute / inch / decimal}
; #@! TF.CreationDate,2022-08-18T12:53:57+09:00
; #@! TF.GenerationSoftware,Kicad,Pcbnew,(6.0.7)
; #@! TF.FileFunction,Plated,1,2,PTH
FMAT,2
INCH
; #@! TA.AperFunction,Plated,PTH,ComponentDrill
T1C0.0295
; #@! TA.AperFunction,Plated,PTH,ComponentDrill
T2C0.0394
; #@! TA.AperFunction,Plated,PTH,ComponentDrill
T3C0.0433
; #@! TA.AperFunction,Plated,PTH,ComponentDrill
T4C0.0512
%
G90
G05
T1
X5.7988Y-4.236
X5.8776Y-4.236
X5.9563Y-4.236
X6.035Y-4.236
X6.1138Y-4.236
X6.1925Y-4.236
X6.2713Y-4.236
X6.35Y-4.236
T2
X5.17Y-3.13
X5.17Y-3.23
X5.17Y-3.33
X5.17Y-3.43
X5.17Y-3.53
X5.17Y-3.63
X5.17Y-3.73
X5.17Y-3.83
X5.37Y-2.63
X5.44Y-2.75
X5.51Y-2.63
T3
X6.5536Y-4.3116
X6.5536Y-4.5675
X6.7308Y-4.3116
X6.7308Y-4.5675
T4
X5.456Y-3.0124
X5.456Y-3.5045
X5.6528Y-3.0124
X5.6528Y-3.5045
X5.8048Y-3.6572
X5.8048Y-3.8541
X5.8052Y-3.1596
X5.8052Y-3.3564
X5.8056Y-2.6636
X5.8056Y-2.8604
X6.2969Y-3.6572
X6.2969Y-3.8541
X6.2973Y-3.1596
X6.2973Y-3.3564
X6.2977Y-2.6636
X6.2977Y-2.8604
X6.4496Y-3.0112
X6.4496Y-3.5033
X6.6464Y-3.0112
X6.6464Y-3.5033
T0
M30
