%TF.GenerationSoftware,KiCad,Pcbnew,(5.1.9)-1*%
%TF.CreationDate,2021-09-05T20:46:35+09:00*%
%TF.ProjectId,joystick-input,6a6f7973-7469-4636-9b2d-696e7075742e,rev?*%
%TF.SameCoordinates,Original*%
%TF.FileFunction,Legend,Top*%
%TF.FilePolarity,Positive*%
%FSLAX46Y46*%
G04 Gerber Fmt 4.6, Leading zero omitted, Abs format (unit mm)*
G04 Created by KiCad (PCBNEW (5.1.9)-1) date 2021-09-05 20:46:35*
%MOMM*%
%LPD*%
G01*
G04 APERTURE LIST*
%ADD10C,0.120000*%
%ADD11C,0.100000*%
%ADD12C,0.150000*%
G04 APERTURE END LIST*
D10*
X154178000Y-67310000D02*
X154432000Y-67310000D01*
X154178000Y-66802000D02*
X154178000Y-67310000D01*
X151130000Y-67310000D02*
X151384000Y-67310000D01*
X151130000Y-66802000D02*
X151130000Y-67310000D01*
X156210000Y-67310000D02*
X155956000Y-67310000D01*
X156210000Y-66802000D02*
X156210000Y-67310000D01*
X153162000Y-67310000D02*
X152908000Y-67310000D01*
X153162000Y-66802000D02*
X153162000Y-67310000D01*
X154178000Y-59690000D02*
X154178000Y-60198000D01*
X154432000Y-59690000D02*
X154178000Y-59690000D01*
X156210000Y-59690000D02*
X156210000Y-60198000D01*
X155956000Y-59690000D02*
X156210000Y-59690000D01*
X153162000Y-59690000D02*
X153162000Y-60198000D01*
X152908000Y-59690000D02*
X153162000Y-59690000D01*
X151130000Y-59690000D02*
X151384000Y-59690000D01*
X151130000Y-60198000D02*
X151130000Y-59690000D01*
D11*
X146681666Y-67626666D02*
X146448333Y-67293333D01*
X146281666Y-67626666D02*
X146281666Y-66926666D01*
X146548333Y-66926666D01*
X146615000Y-66960000D01*
X146648333Y-66993333D01*
X146681666Y-67060000D01*
X146681666Y-67160000D01*
X146648333Y-67226666D01*
X146615000Y-67260000D01*
X146548333Y-67293333D01*
X146281666Y-67293333D01*
X147248333Y-67593333D02*
X147181666Y-67626666D01*
X147048333Y-67626666D01*
X146981666Y-67593333D01*
X146948333Y-67526666D01*
X146948333Y-67260000D01*
X146981666Y-67193333D01*
X147048333Y-67160000D01*
X147181666Y-67160000D01*
X147248333Y-67193333D01*
X147281666Y-67260000D01*
X147281666Y-67326666D01*
X146948333Y-67393333D01*
X147515000Y-67160000D02*
X147681666Y-67626666D01*
X147848333Y-67160000D01*
X148115000Y-67560000D02*
X148148333Y-67593333D01*
X148115000Y-67626666D01*
X148081666Y-67593333D01*
X148115000Y-67560000D01*
X148115000Y-67626666D01*
X148815000Y-67626666D02*
X148415000Y-67626666D01*
X148615000Y-67626666D02*
X148615000Y-66926666D01*
X148548333Y-67026666D01*
X148481666Y-67093333D01*
X148415000Y-67126666D01*
D12*
X132319047Y-65571666D02*
X132795238Y-65571666D01*
X132223809Y-65857380D02*
X132557142Y-64857380D01*
X132890476Y-65857380D01*
X133223809Y-65857380D02*
X133223809Y-65190714D01*
X133223809Y-65285952D02*
X133271428Y-65238333D01*
X133366666Y-65190714D01*
X133509523Y-65190714D01*
X133604761Y-65238333D01*
X133652380Y-65333571D01*
X133652380Y-65857380D01*
X133652380Y-65333571D02*
X133700000Y-65238333D01*
X133795238Y-65190714D01*
X133938095Y-65190714D01*
X134033333Y-65238333D01*
X134080952Y-65333571D01*
X134080952Y-65857380D01*
X134700000Y-65857380D02*
X134604761Y-65809761D01*
X134557142Y-65762142D01*
X134509523Y-65666904D01*
X134509523Y-65381190D01*
X134557142Y-65285952D01*
X134604761Y-65238333D01*
X134700000Y-65190714D01*
X134842857Y-65190714D01*
X134938095Y-65238333D01*
X134985714Y-65285952D01*
X135033333Y-65381190D01*
X135033333Y-65666904D01*
X134985714Y-65762142D01*
X134938095Y-65809761D01*
X134842857Y-65857380D01*
X134700000Y-65857380D01*
X135414285Y-65809761D02*
X135509523Y-65857380D01*
X135700000Y-65857380D01*
X135795238Y-65809761D01*
X135842857Y-65714523D01*
X135842857Y-65666904D01*
X135795238Y-65571666D01*
X135700000Y-65524047D01*
X135557142Y-65524047D01*
X135461904Y-65476428D01*
X135414285Y-65381190D01*
X135414285Y-65333571D01*
X135461904Y-65238333D01*
X135557142Y-65190714D01*
X135700000Y-65190714D01*
X135795238Y-65238333D01*
X137319047Y-64857380D02*
X137319047Y-65571666D01*
X137271428Y-65714523D01*
X137176190Y-65809761D01*
X137033333Y-65857380D01*
X136938095Y-65857380D01*
X137938095Y-65857380D02*
X137842857Y-65809761D01*
X137795238Y-65762142D01*
X137747619Y-65666904D01*
X137747619Y-65381190D01*
X137795238Y-65285952D01*
X137842857Y-65238333D01*
X137938095Y-65190714D01*
X138080952Y-65190714D01*
X138176190Y-65238333D01*
X138223809Y-65285952D01*
X138271428Y-65381190D01*
X138271428Y-65666904D01*
X138223809Y-65762142D01*
X138176190Y-65809761D01*
X138080952Y-65857380D01*
X137938095Y-65857380D01*
X138604761Y-65190714D02*
X138842857Y-65857380D01*
X139080952Y-65190714D02*
X138842857Y-65857380D01*
X138747619Y-66095476D01*
X138700000Y-66143095D01*
X138604761Y-66190714D01*
X139414285Y-65809761D02*
X139509523Y-65857380D01*
X139700000Y-65857380D01*
X139795238Y-65809761D01*
X139842857Y-65714523D01*
X139842857Y-65666904D01*
X139795238Y-65571666D01*
X139700000Y-65524047D01*
X139557142Y-65524047D01*
X139461904Y-65476428D01*
X139414285Y-65381190D01*
X139414285Y-65333571D01*
X139461904Y-65238333D01*
X139557142Y-65190714D01*
X139700000Y-65190714D01*
X139795238Y-65238333D01*
X140128571Y-65190714D02*
X140509523Y-65190714D01*
X140271428Y-64857380D02*
X140271428Y-65714523D01*
X140319047Y-65809761D01*
X140414285Y-65857380D01*
X140509523Y-65857380D01*
X140842857Y-65857380D02*
X140842857Y-65190714D01*
X140842857Y-64857380D02*
X140795238Y-64905000D01*
X140842857Y-64952619D01*
X140890476Y-64905000D01*
X140842857Y-64857380D01*
X140842857Y-64952619D01*
X141747619Y-65809761D02*
X141652380Y-65857380D01*
X141461904Y-65857380D01*
X141366666Y-65809761D01*
X141319047Y-65762142D01*
X141271428Y-65666904D01*
X141271428Y-65381190D01*
X141319047Y-65285952D01*
X141366666Y-65238333D01*
X141461904Y-65190714D01*
X141652380Y-65190714D01*
X141747619Y-65238333D01*
X142176190Y-65857380D02*
X142176190Y-64857380D01*
X142271428Y-65476428D02*
X142557142Y-65857380D01*
X142557142Y-65190714D02*
X142176190Y-65571666D01*
X143747619Y-65857380D02*
X143747619Y-64857380D01*
X144223809Y-65190714D02*
X144223809Y-65857380D01*
X144223809Y-65285952D02*
X144271428Y-65238333D01*
X144366666Y-65190714D01*
X144509523Y-65190714D01*
X144604761Y-65238333D01*
X144652380Y-65333571D01*
X144652380Y-65857380D01*
X145128571Y-65190714D02*
X145128571Y-66190714D01*
X145128571Y-65238333D02*
X145223809Y-65190714D01*
X145414285Y-65190714D01*
X145509523Y-65238333D01*
X145557142Y-65285952D01*
X145604761Y-65381190D01*
X145604761Y-65666904D01*
X145557142Y-65762142D01*
X145509523Y-65809761D01*
X145414285Y-65857380D01*
X145223809Y-65857380D01*
X145128571Y-65809761D01*
X146461904Y-65190714D02*
X146461904Y-65857380D01*
X146033333Y-65190714D02*
X146033333Y-65714523D01*
X146080952Y-65809761D01*
X146176190Y-65857380D01*
X146319047Y-65857380D01*
X146414285Y-65809761D01*
X146461904Y-65762142D01*
X146795238Y-65190714D02*
X147176190Y-65190714D01*
X146938095Y-64857380D02*
X146938095Y-65714523D01*
X146985714Y-65809761D01*
X147080952Y-65857380D01*
X147176190Y-65857380D01*
X159694761Y-36647380D02*
X159694761Y-35647380D01*
X160075714Y-35647380D01*
X160170952Y-35695000D01*
X160218571Y-35742619D01*
X160266190Y-35837857D01*
X160266190Y-35980714D01*
X160218571Y-36075952D01*
X160170952Y-36123571D01*
X160075714Y-36171190D01*
X159694761Y-36171190D01*
X160694761Y-35647380D02*
X160694761Y-36456904D01*
X160742380Y-36552142D01*
X160790000Y-36599761D01*
X160885238Y-36647380D01*
X161075714Y-36647380D01*
X161170952Y-36599761D01*
X161218571Y-36552142D01*
X161266190Y-36456904D01*
X161266190Y-35647380D01*
X162218571Y-36647380D02*
X161742380Y-36647380D01*
X161742380Y-35647380D01*
X163028095Y-36647380D02*
X162551904Y-36647380D01*
X162551904Y-35647380D01*
D11*
X113974761Y-36647380D02*
X113974761Y-35647380D01*
X114355714Y-35647380D01*
X114450952Y-35695000D01*
X114498571Y-35742619D01*
X114546190Y-35837857D01*
X114546190Y-35980714D01*
X114498571Y-36075952D01*
X114450952Y-36123571D01*
X114355714Y-36171190D01*
X113974761Y-36171190D01*
X114974761Y-35647380D02*
X114974761Y-36456904D01*
X115022380Y-36552142D01*
X115070000Y-36599761D01*
X115165238Y-36647380D01*
X115355714Y-36647380D01*
X115450952Y-36599761D01*
X115498571Y-36552142D01*
X115546190Y-36456904D01*
X115546190Y-35647380D01*
X116498571Y-36647380D02*
X116022380Y-36647380D01*
X116022380Y-35647380D01*
X117308095Y-36647380D02*
X116831904Y-36647380D01*
X116831904Y-35647380D01*
X119267142Y-46626428D02*
X118924285Y-46626428D01*
X119095714Y-46626428D02*
X119095714Y-46026428D01*
X119038571Y-46112142D01*
X118981428Y-46169285D01*
X118924285Y-46197857D01*
X119781428Y-46026428D02*
X119667142Y-46026428D01*
X119610000Y-46055000D01*
X119581428Y-46083571D01*
X119524285Y-46169285D01*
X119495714Y-46283571D01*
X119495714Y-46512142D01*
X119524285Y-46569285D01*
X119552857Y-46597857D01*
X119610000Y-46626428D01*
X119724285Y-46626428D01*
X119781428Y-46597857D01*
X119810000Y-46569285D01*
X119838571Y-46512142D01*
X119838571Y-46369285D01*
X119810000Y-46312142D01*
X119781428Y-46283571D01*
X119724285Y-46255000D01*
X119610000Y-46255000D01*
X119552857Y-46283571D01*
X119524285Y-46312142D01*
X119495714Y-46369285D01*
X121781428Y-46626428D02*
X121438571Y-46626428D01*
X121610000Y-46626428D02*
X121610000Y-46026428D01*
X121552857Y-46112142D01*
X121495714Y-46169285D01*
X121438571Y-46197857D01*
X122324285Y-46026428D02*
X122038571Y-46026428D01*
X122010000Y-46312142D01*
X122038571Y-46283571D01*
X122095714Y-46255000D01*
X122238571Y-46255000D01*
X122295714Y-46283571D01*
X122324285Y-46312142D01*
X122352857Y-46369285D01*
X122352857Y-46512142D01*
X122324285Y-46569285D01*
X122295714Y-46597857D01*
X122238571Y-46626428D01*
X122095714Y-46626428D01*
X122038571Y-46597857D01*
X122010000Y-46569285D01*
X124295714Y-46626428D02*
X123952857Y-46626428D01*
X124124285Y-46626428D02*
X124124285Y-46026428D01*
X124067142Y-46112142D01*
X124010000Y-46169285D01*
X123952857Y-46197857D01*
X124810000Y-46226428D02*
X124810000Y-46626428D01*
X124667142Y-45997857D02*
X124524285Y-46426428D01*
X124895714Y-46426428D01*
X126810000Y-46626428D02*
X126467142Y-46626428D01*
X126638571Y-46626428D02*
X126638571Y-46026428D01*
X126581428Y-46112142D01*
X126524285Y-46169285D01*
X126467142Y-46197857D01*
X127010000Y-46026428D02*
X127381428Y-46026428D01*
X127181428Y-46255000D01*
X127267142Y-46255000D01*
X127324285Y-46283571D01*
X127352857Y-46312142D01*
X127381428Y-46369285D01*
X127381428Y-46512142D01*
X127352857Y-46569285D01*
X127324285Y-46597857D01*
X127267142Y-46626428D01*
X127095714Y-46626428D01*
X127038571Y-46597857D01*
X127010000Y-46569285D01*
X129324285Y-46626428D02*
X128981428Y-46626428D01*
X129152857Y-46626428D02*
X129152857Y-46026428D01*
X129095714Y-46112142D01*
X129038571Y-46169285D01*
X128981428Y-46197857D01*
X129552857Y-46083571D02*
X129581428Y-46055000D01*
X129638571Y-46026428D01*
X129781428Y-46026428D01*
X129838571Y-46055000D01*
X129867142Y-46083571D01*
X129895714Y-46140714D01*
X129895714Y-46197857D01*
X129867142Y-46283571D01*
X129524285Y-46626428D01*
X129895714Y-46626428D01*
X131838571Y-46626428D02*
X131495714Y-46626428D01*
X131667142Y-46626428D02*
X131667142Y-46026428D01*
X131610000Y-46112142D01*
X131552857Y-46169285D01*
X131495714Y-46197857D01*
X132410000Y-46626428D02*
X132067142Y-46626428D01*
X132238571Y-46626428D02*
X132238571Y-46026428D01*
X132181428Y-46112142D01*
X132124285Y-46169285D01*
X132067142Y-46197857D01*
X134352857Y-46626428D02*
X134009999Y-46626428D01*
X134181428Y-46626428D02*
X134181428Y-46026428D01*
X134124285Y-46112142D01*
X134067142Y-46169285D01*
X134009999Y-46197857D01*
X134724285Y-46026428D02*
X134781428Y-46026428D01*
X134838571Y-46055000D01*
X134867142Y-46083571D01*
X134895714Y-46140714D01*
X134924285Y-46255000D01*
X134924285Y-46397857D01*
X134895714Y-46512142D01*
X134867142Y-46569285D01*
X134838571Y-46597857D01*
X134781428Y-46626428D01*
X134724285Y-46626428D01*
X134667142Y-46597857D01*
X134638571Y-46569285D01*
X134610000Y-46512142D01*
X134581428Y-46397857D01*
X134581428Y-46255000D01*
X134610000Y-46140714D01*
X134638571Y-46083571D01*
X134667142Y-46055000D01*
X134724285Y-46026428D01*
X137038571Y-46626428D02*
X137152857Y-46626428D01*
X137210000Y-46597857D01*
X137238571Y-46569285D01*
X137295714Y-46483571D01*
X137324285Y-46369285D01*
X137324285Y-46140714D01*
X137295714Y-46083571D01*
X137267142Y-46055000D01*
X137210000Y-46026428D01*
X137095714Y-46026428D01*
X137038571Y-46055000D01*
X137010000Y-46083571D01*
X136981428Y-46140714D01*
X136981428Y-46283571D01*
X137010000Y-46340714D01*
X137038571Y-46369285D01*
X137095714Y-46397857D01*
X137210000Y-46397857D01*
X137267142Y-46369285D01*
X137295714Y-46340714D01*
X137324285Y-46283571D01*
X139495714Y-46283571D02*
X139438571Y-46255000D01*
X139410000Y-46226428D01*
X139381428Y-46169285D01*
X139381428Y-46140714D01*
X139410000Y-46083571D01*
X139438571Y-46055000D01*
X139495714Y-46026428D01*
X139610000Y-46026428D01*
X139667142Y-46055000D01*
X139695714Y-46083571D01*
X139724285Y-46140714D01*
X139724285Y-46169285D01*
X139695714Y-46226428D01*
X139667142Y-46255000D01*
X139610000Y-46283571D01*
X139495714Y-46283571D01*
X139438571Y-46312142D01*
X139410000Y-46340714D01*
X139381428Y-46397857D01*
X139381428Y-46512142D01*
X139410000Y-46569285D01*
X139438571Y-46597857D01*
X139495714Y-46626428D01*
X139610000Y-46626428D01*
X139667142Y-46597857D01*
X139695714Y-46569285D01*
X139724285Y-46512142D01*
X139724285Y-46397857D01*
X139695714Y-46340714D01*
X139667142Y-46312142D01*
X139610000Y-46283571D01*
X142210000Y-46026428D02*
X142610000Y-46026428D01*
X142352857Y-46626428D01*
X144924285Y-46026428D02*
X144810000Y-46026428D01*
X144752857Y-46055000D01*
X144724285Y-46083571D01*
X144667142Y-46169285D01*
X144638571Y-46283571D01*
X144638571Y-46512142D01*
X144667142Y-46569285D01*
X144695714Y-46597857D01*
X144752857Y-46626428D01*
X144867142Y-46626428D01*
X144924285Y-46597857D01*
X144952857Y-46569285D01*
X144981428Y-46512142D01*
X144981428Y-46369285D01*
X144952857Y-46312142D01*
X144924285Y-46283571D01*
X144867142Y-46255000D01*
X144752857Y-46255000D01*
X144695714Y-46283571D01*
X144667142Y-46312142D01*
X144638571Y-46369285D01*
X147352857Y-46026428D02*
X147067142Y-46026428D01*
X147038571Y-46312142D01*
X147067142Y-46283571D01*
X147124285Y-46255000D01*
X147267142Y-46255000D01*
X147324285Y-46283571D01*
X147352857Y-46312142D01*
X147381428Y-46369285D01*
X147381428Y-46512142D01*
X147352857Y-46569285D01*
X147324285Y-46597857D01*
X147267142Y-46626428D01*
X147124285Y-46626428D01*
X147067142Y-46597857D01*
X147038571Y-46569285D01*
X150181428Y-46226428D02*
X150181428Y-46626428D01*
X150038571Y-45997857D02*
X149895714Y-46426428D01*
X150267142Y-46426428D01*
X152267142Y-46026428D02*
X152638571Y-46026428D01*
X152438571Y-46255000D01*
X152524285Y-46255000D01*
X152581428Y-46283571D01*
X152610000Y-46312142D01*
X152638571Y-46369285D01*
X152638571Y-46512142D01*
X152610000Y-46569285D01*
X152581428Y-46597857D01*
X152524285Y-46626428D01*
X152352857Y-46626428D01*
X152295714Y-46597857D01*
X152267142Y-46569285D01*
X154695714Y-46083571D02*
X154724285Y-46055000D01*
X154781428Y-46026428D01*
X154924285Y-46026428D01*
X154981428Y-46055000D01*
X155010000Y-46083571D01*
X155038571Y-46140714D01*
X155038571Y-46197857D01*
X155010000Y-46283571D01*
X154667142Y-46626428D01*
X155038571Y-46626428D01*
X157438571Y-46626428D02*
X157095714Y-46626428D01*
X157267142Y-46626428D02*
X157267142Y-46026428D01*
X157210000Y-46112142D01*
X157152857Y-46169285D01*
X157095714Y-46197857D01*
X159038571Y-46597857D02*
X159124285Y-46626428D01*
X159267142Y-46626428D01*
X159324285Y-46597857D01*
X159352857Y-46569285D01*
X159381428Y-46512142D01*
X159381428Y-46455000D01*
X159352857Y-46397857D01*
X159324285Y-46369285D01*
X159267142Y-46340714D01*
X159152857Y-46312142D01*
X159095714Y-46283571D01*
X159067142Y-46255000D01*
X159038571Y-46197857D01*
X159038571Y-46140714D01*
X159067142Y-46083571D01*
X159095714Y-46055000D01*
X159152857Y-46026428D01*
X159295714Y-46026428D01*
X159381428Y-46055000D01*
X159638571Y-46626428D02*
X159638571Y-46026428D01*
X159895714Y-46626428D02*
X159895714Y-46312142D01*
X159867142Y-46255000D01*
X159810000Y-46226428D01*
X159724285Y-46226428D01*
X159667142Y-46255000D01*
X159638571Y-46283571D01*
X160267142Y-46626428D02*
X160210000Y-46597857D01*
X160181428Y-46569285D01*
X160152857Y-46512142D01*
X160152857Y-46340714D01*
X160181428Y-46283571D01*
X160210000Y-46255000D01*
X160267142Y-46226428D01*
X160352857Y-46226428D01*
X160410000Y-46255000D01*
X160438571Y-46283571D01*
X160467142Y-46340714D01*
X160467142Y-46512142D01*
X160438571Y-46569285D01*
X160410000Y-46597857D01*
X160352857Y-46626428D01*
X160267142Y-46626428D01*
X160724285Y-46626428D02*
X160724285Y-46226428D01*
X160724285Y-46340714D02*
X160752857Y-46283571D01*
X160781428Y-46255000D01*
X160838571Y-46226428D01*
X160895714Y-46226428D01*
X161010000Y-46226428D02*
X161238571Y-46226428D01*
X161095714Y-46026428D02*
X161095714Y-46540714D01*
X161124285Y-46597857D01*
X161181428Y-46626428D01*
X161238571Y-46626428D01*
X151603333Y-59306666D02*
X151603333Y-59873333D01*
X151636666Y-59940000D01*
X151670000Y-59973333D01*
X151736666Y-60006666D01*
X151870000Y-60006666D01*
X151936666Y-59973333D01*
X151970000Y-59940000D01*
X152003333Y-59873333D01*
X152003333Y-59306666D01*
X152336666Y-60006666D02*
X152336666Y-59306666D01*
X152603333Y-59306666D01*
X152670000Y-59340000D01*
X152703333Y-59373333D01*
X152736666Y-59440000D01*
X152736666Y-59540000D01*
X152703333Y-59606666D01*
X152670000Y-59640000D01*
X152603333Y-59673333D01*
X152336666Y-59673333D01*
X154636666Y-60006666D02*
X154636666Y-59306666D01*
X154803333Y-59306666D01*
X154903333Y-59340000D01*
X154970000Y-59406666D01*
X155003333Y-59473333D01*
X155036666Y-59606666D01*
X155036666Y-59706666D01*
X155003333Y-59840000D01*
X154970000Y-59906666D01*
X154903333Y-59973333D01*
X154803333Y-60006666D01*
X154636666Y-60006666D01*
X155336666Y-60006666D02*
X155336666Y-59306666D01*
X155736666Y-60006666D01*
X155736666Y-59306666D01*
X151603333Y-66926666D02*
X151603333Y-67493333D01*
X151636666Y-67560000D01*
X151670000Y-67593333D01*
X151736666Y-67626666D01*
X151870000Y-67626666D01*
X151936666Y-67593333D01*
X151970000Y-67560000D01*
X152003333Y-67493333D01*
X152003333Y-66926666D01*
X152336666Y-67626666D02*
X152336666Y-66926666D01*
X152603333Y-66926666D01*
X152670000Y-66960000D01*
X152703333Y-66993333D01*
X152736666Y-67060000D01*
X152736666Y-67160000D01*
X152703333Y-67226666D01*
X152670000Y-67260000D01*
X152603333Y-67293333D01*
X152336666Y-67293333D01*
X154636666Y-67626666D02*
X154636666Y-66926666D01*
X154803333Y-66926666D01*
X154903333Y-66960000D01*
X154970000Y-67026666D01*
X155003333Y-67093333D01*
X155036666Y-67226666D01*
X155036666Y-67326666D01*
X155003333Y-67460000D01*
X154970000Y-67526666D01*
X154903333Y-67593333D01*
X154803333Y-67626666D01*
X154636666Y-67626666D01*
X155336666Y-67626666D02*
X155336666Y-66926666D01*
X155736666Y-67626666D01*
X155736666Y-66926666D01*
X117540000Y-58671666D02*
X117773333Y-59371666D01*
X118006666Y-58671666D01*
X120740000Y-58705000D02*
X120673333Y-58671666D01*
X120573333Y-58671666D01*
X120473333Y-58705000D01*
X120406666Y-58771666D01*
X120373333Y-58838333D01*
X120340000Y-58971666D01*
X120340000Y-59071666D01*
X120373333Y-59205000D01*
X120406666Y-59271666D01*
X120473333Y-59338333D01*
X120573333Y-59371666D01*
X120640000Y-59371666D01*
X120740000Y-59338333D01*
X120773333Y-59305000D01*
X120773333Y-59071666D01*
X120640000Y-59071666D01*
X123073333Y-59305000D02*
X123040000Y-59338333D01*
X122940000Y-59371666D01*
X122873333Y-59371666D01*
X122773333Y-59338333D01*
X122706666Y-59271666D01*
X122673333Y-59205000D01*
X122640000Y-59071666D01*
X122640000Y-58971666D01*
X122673333Y-58838333D01*
X122706666Y-58771666D01*
X122773333Y-58705000D01*
X122873333Y-58671666D01*
X122940000Y-58671666D01*
X123040000Y-58705000D01*
X123073333Y-58738333D01*
X123373333Y-59371666D02*
X123373333Y-58671666D01*
X123773333Y-59371666D02*
X123473333Y-58971666D01*
X123773333Y-58671666D02*
X123373333Y-59071666D01*
X125473333Y-59371666D02*
X125140000Y-59371666D01*
X125140000Y-58671666D01*
X125706666Y-59371666D02*
X125706666Y-58671666D01*
X125873333Y-58671666D01*
X125973333Y-58705000D01*
X126040000Y-58771666D01*
X126073333Y-58838333D01*
X126106666Y-58971666D01*
X126106666Y-59071666D01*
X126073333Y-59205000D01*
X126040000Y-59271666D01*
X125973333Y-59338333D01*
X125873333Y-59371666D01*
X125706666Y-59371666D01*
X128006666Y-59371666D02*
X128006666Y-58671666D01*
X128340000Y-59371666D02*
X128340000Y-58671666D01*
X128740000Y-59371666D01*
X128740000Y-58671666D01*
X117723333Y-66926666D02*
X117956666Y-67626666D01*
X118190000Y-66926666D01*
X120923333Y-66960000D02*
X120856666Y-66926666D01*
X120756666Y-66926666D01*
X120656666Y-66960000D01*
X120590000Y-67026666D01*
X120556666Y-67093333D01*
X120523333Y-67226666D01*
X120523333Y-67326666D01*
X120556666Y-67460000D01*
X120590000Y-67526666D01*
X120656666Y-67593333D01*
X120756666Y-67626666D01*
X120823333Y-67626666D01*
X120923333Y-67593333D01*
X120956666Y-67560000D01*
X120956666Y-67326666D01*
X120823333Y-67326666D01*
X123256666Y-67560000D02*
X123223333Y-67593333D01*
X123123333Y-67626666D01*
X123056666Y-67626666D01*
X122956666Y-67593333D01*
X122890000Y-67526666D01*
X122856666Y-67460000D01*
X122823333Y-67326666D01*
X122823333Y-67226666D01*
X122856666Y-67093333D01*
X122890000Y-67026666D01*
X122956666Y-66960000D01*
X123056666Y-66926666D01*
X123123333Y-66926666D01*
X123223333Y-66960000D01*
X123256666Y-66993333D01*
X123556666Y-67626666D02*
X123556666Y-66926666D01*
X123956666Y-67626666D02*
X123656666Y-67226666D01*
X123956666Y-66926666D02*
X123556666Y-67326666D01*
X125656666Y-67626666D02*
X125323333Y-67626666D01*
X125323333Y-66926666D01*
X125890000Y-67626666D02*
X125890000Y-66926666D01*
X126056666Y-66926666D01*
X126156666Y-66960000D01*
X126223333Y-67026666D01*
X126256666Y-67093333D01*
X126290000Y-67226666D01*
X126290000Y-67326666D01*
X126256666Y-67460000D01*
X126223333Y-67526666D01*
X126156666Y-67593333D01*
X126056666Y-67626666D01*
X125890000Y-67626666D01*
X128190000Y-67626666D02*
X128190000Y-66926666D01*
X128356666Y-66926666D01*
X128456666Y-66960000D01*
X128523333Y-67026666D01*
X128556666Y-67093333D01*
X128590000Y-67226666D01*
X128590000Y-67326666D01*
X128556666Y-67460000D01*
X128523333Y-67526666D01*
X128456666Y-67593333D01*
X128356666Y-67626666D01*
X128190000Y-67626666D01*
D10*
%TO.C,H2*%
X158369000Y-34925000D02*
X158369000Y-37465000D01*
X157861000Y-37465000D02*
X157861000Y-34925000D01*
X157861000Y-34925000D02*
X158369000Y-34925000D01*
X158369000Y-37465000D02*
X157861000Y-37465000D01*
X155829000Y-34925000D02*
X155829000Y-37465000D01*
X155321000Y-37465000D02*
X155321000Y-34925000D01*
X155321000Y-34925000D02*
X155829000Y-34925000D01*
X155829000Y-37465000D02*
X155321000Y-37465000D01*
X153289000Y-34925000D02*
X153289000Y-37465000D01*
X152781000Y-37465000D02*
X152781000Y-34925000D01*
X152781000Y-34925000D02*
X153289000Y-34925000D01*
X153289000Y-37465000D02*
X152781000Y-37465000D01*
X150749000Y-34925000D02*
X150749000Y-37465000D01*
X150241000Y-37465000D02*
X150241000Y-34925000D01*
X150241000Y-34925000D02*
X150749000Y-34925000D01*
X150749000Y-37465000D02*
X150241000Y-37465000D01*
X148209000Y-34925000D02*
X148209000Y-37465000D01*
X147701000Y-37465000D02*
X147701000Y-34925000D01*
X147701000Y-34925000D02*
X148209000Y-34925000D01*
X148209000Y-37465000D02*
X147701000Y-37465000D01*
X145669000Y-34925000D02*
X145669000Y-37465000D01*
X145161000Y-37465000D02*
X145161000Y-34925000D01*
X145161000Y-34925000D02*
X145669000Y-34925000D01*
X145669000Y-37465000D02*
X145161000Y-37465000D01*
X143129000Y-34925000D02*
X143129000Y-37465000D01*
X142621000Y-37465000D02*
X142621000Y-34925000D01*
X142621000Y-34925000D02*
X143129000Y-34925000D01*
X143129000Y-37465000D02*
X142621000Y-37465000D01*
X158623000Y-38735000D02*
G75*
G03*
X158623000Y-38735000I-508000J0D01*
G01*
X156083000Y-38735000D02*
G75*
G03*
X156083000Y-38735000I-508000J0D01*
G01*
X153543000Y-38735000D02*
G75*
G03*
X153543000Y-38735000I-508000J0D01*
G01*
X151003000Y-38735000D02*
G75*
G03*
X151003000Y-38735000I-508000J0D01*
G01*
X148463000Y-38735000D02*
G75*
G03*
X148463000Y-38735000I-508000J0D01*
G01*
X145923000Y-38735000D02*
G75*
G03*
X145923000Y-38735000I-508000J0D01*
G01*
X143383000Y-38735000D02*
G75*
G03*
X143383000Y-38735000I-508000J0D01*
G01*
X140843000Y-38735000D02*
G75*
G03*
X140843000Y-38735000I-508000J0D01*
G01*
X159385000Y-40005000D02*
X139065000Y-40005000D01*
X159385000Y-32385000D02*
X159385000Y-40005000D01*
X139065000Y-32385000D02*
X159385000Y-32385000D01*
X139065000Y-40005000D02*
X139065000Y-32385000D01*
X140081000Y-34925000D02*
X140589000Y-34925000D01*
X140589000Y-34925000D02*
X140589000Y-37465000D01*
X140589000Y-37465000D02*
X140081000Y-37465000D01*
X140081000Y-37465000D02*
X140081000Y-34925000D01*
%TO.C,H1*%
X136779000Y-34925000D02*
X136779000Y-37465000D01*
X136271000Y-37465000D02*
X136271000Y-34925000D01*
X136271000Y-34925000D02*
X136779000Y-34925000D01*
X136779000Y-37465000D02*
X136271000Y-37465000D01*
X134239000Y-34925000D02*
X134239000Y-37465000D01*
X133731000Y-37465000D02*
X133731000Y-34925000D01*
X133731000Y-34925000D02*
X134239000Y-34925000D01*
X134239000Y-37465000D02*
X133731000Y-37465000D01*
X131699000Y-34925000D02*
X131699000Y-37465000D01*
X131191000Y-37465000D02*
X131191000Y-34925000D01*
X131191000Y-34925000D02*
X131699000Y-34925000D01*
X131699000Y-37465000D02*
X131191000Y-37465000D01*
X129159000Y-34925000D02*
X129159000Y-37465000D01*
X128651000Y-37465000D02*
X128651000Y-34925000D01*
X128651000Y-34925000D02*
X129159000Y-34925000D01*
X129159000Y-37465000D02*
X128651000Y-37465000D01*
X126619000Y-34925000D02*
X126619000Y-37465000D01*
X126111000Y-37465000D02*
X126111000Y-34925000D01*
X126111000Y-34925000D02*
X126619000Y-34925000D01*
X126619000Y-37465000D02*
X126111000Y-37465000D01*
X124079000Y-34925000D02*
X124079000Y-37465000D01*
X123571000Y-37465000D02*
X123571000Y-34925000D01*
X123571000Y-34925000D02*
X124079000Y-34925000D01*
X124079000Y-37465000D02*
X123571000Y-37465000D01*
X121539000Y-34925000D02*
X121539000Y-37465000D01*
X121031000Y-37465000D02*
X121031000Y-34925000D01*
X121031000Y-34925000D02*
X121539000Y-34925000D01*
X121539000Y-37465000D02*
X121031000Y-37465000D01*
X137033000Y-38735000D02*
G75*
G03*
X137033000Y-38735000I-508000J0D01*
G01*
X134493000Y-38735000D02*
G75*
G03*
X134493000Y-38735000I-508000J0D01*
G01*
X131953000Y-38735000D02*
G75*
G03*
X131953000Y-38735000I-508000J0D01*
G01*
X129413000Y-38735000D02*
G75*
G03*
X129413000Y-38735000I-508000J0D01*
G01*
X126873000Y-38735000D02*
G75*
G03*
X126873000Y-38735000I-508000J0D01*
G01*
X124333000Y-38735000D02*
G75*
G03*
X124333000Y-38735000I-508000J0D01*
G01*
X121793000Y-38735000D02*
G75*
G03*
X121793000Y-38735000I-508000J0D01*
G01*
X119253000Y-38735000D02*
G75*
G03*
X119253000Y-38735000I-508000J0D01*
G01*
X137795000Y-40005000D02*
X117475000Y-40005000D01*
X137795000Y-32385000D02*
X137795000Y-40005000D01*
X117475000Y-32385000D02*
X137795000Y-32385000D01*
X117475000Y-40005000D02*
X117475000Y-32385000D01*
X118491000Y-34925000D02*
X118999000Y-34925000D01*
X118999000Y-34925000D02*
X118999000Y-37465000D01*
X118999000Y-37465000D02*
X118491000Y-37465000D01*
X118491000Y-37465000D02*
X118491000Y-34925000D01*
%TO.C,74HC165_1*%
X160080000Y-52340000D02*
X160080000Y-50690000D01*
X160080000Y-50690000D02*
X139640000Y-50690000D01*
X139640000Y-50690000D02*
X139640000Y-55990000D01*
X139640000Y-55990000D02*
X160080000Y-55990000D01*
X160080000Y-55990000D02*
X160080000Y-54340000D01*
X160080000Y-54340000D02*
G75*
G02*
X160080000Y-52340000I0J1000000D01*
G01*
%TO.C,JOYSTICK*%
X161350000Y-43120000D02*
X161350000Y-44450000D01*
X160020000Y-43120000D02*
X161350000Y-43120000D01*
X158750000Y-43120000D02*
X158750000Y-45780000D01*
X158750000Y-45780000D02*
X118050000Y-45780000D01*
X158750000Y-43120000D02*
X118050000Y-43120000D01*
X118050000Y-43120000D02*
X118050000Y-45780000D01*
%TO.C,RN2*%
X114765000Y-37335000D02*
X114765000Y-40135000D01*
X114765000Y-40135000D02*
X137965000Y-40135000D01*
X137965000Y-40135000D02*
X137965000Y-37335000D01*
X137965000Y-37335000D02*
X114765000Y-37335000D01*
X117475000Y-37335000D02*
X117475000Y-40135000D01*
%TO.C,SHORT*%
X157540000Y-62925000D02*
X157540000Y-60265000D01*
X152400000Y-62925000D02*
X157540000Y-62925000D01*
X152400000Y-60265000D02*
X157540000Y-60265000D01*
X152400000Y-62925000D02*
X152400000Y-60265000D01*
X151130000Y-62925000D02*
X149800000Y-62925000D01*
X149800000Y-62925000D02*
X149800000Y-61595000D01*
%TO.C,PULL*%
X157540000Y-66735000D02*
X157540000Y-64075000D01*
X152400000Y-66735000D02*
X157540000Y-66735000D01*
X152400000Y-64075000D02*
X157540000Y-64075000D01*
X152400000Y-66735000D02*
X152400000Y-64075000D01*
X151130000Y-66735000D02*
X149800000Y-66735000D01*
X149800000Y-66735000D02*
X149800000Y-65405000D01*
%TO.C,74HC165_2*%
X138490000Y-55990000D02*
X138490000Y-54340000D01*
X118050000Y-55990000D02*
X138490000Y-55990000D01*
X118050000Y-50690000D02*
X118050000Y-55990000D01*
X138490000Y-50690000D02*
X118050000Y-50690000D01*
X138490000Y-52340000D02*
X138490000Y-50690000D01*
X138490000Y-54340000D02*
G75*
G02*
X138490000Y-52340000I0J1000000D01*
G01*
%TO.C,RN1*%
X162095000Y-40135000D02*
X162095000Y-37335000D01*
X162095000Y-37335000D02*
X138895000Y-37335000D01*
X138895000Y-37335000D02*
X138895000Y-40135000D01*
X138895000Y-40135000D02*
X162095000Y-40135000D01*
X159385000Y-40135000D02*
X159385000Y-37335000D01*
%TO.C,OUT*%
X129600000Y-66735000D02*
X129600000Y-64075000D01*
X119380000Y-66735000D02*
X129600000Y-66735000D01*
X119380000Y-64075000D02*
X129600000Y-64075000D01*
X119380000Y-66735000D02*
X119380000Y-64075000D01*
X118110000Y-66735000D02*
X116780000Y-66735000D01*
X116780000Y-66735000D02*
X116780000Y-65405000D01*
%TO.C,IN*%
X116780000Y-62290000D02*
X116780000Y-60960000D01*
X118110000Y-62290000D02*
X116780000Y-62290000D01*
X119380000Y-62290000D02*
X119380000Y-59630000D01*
X119380000Y-59630000D02*
X129600000Y-59630000D01*
X119380000Y-62290000D02*
X129600000Y-62290000D01*
X129600000Y-62290000D02*
X129600000Y-59630000D01*
%TO.C,74HC165_1*%
D12*
X140660952Y-51522380D02*
X141327619Y-51522380D01*
X140899047Y-52522380D01*
X142137142Y-51855714D02*
X142137142Y-52522380D01*
X141899047Y-51474761D02*
X141660952Y-52189047D01*
X142280000Y-52189047D01*
X142660952Y-52522380D02*
X142660952Y-51522380D01*
X142660952Y-51998571D02*
X143232380Y-51998571D01*
X143232380Y-52522380D02*
X143232380Y-51522380D01*
X144280000Y-52427142D02*
X144232380Y-52474761D01*
X144089523Y-52522380D01*
X143994285Y-52522380D01*
X143851428Y-52474761D01*
X143756190Y-52379523D01*
X143708571Y-52284285D01*
X143660952Y-52093809D01*
X143660952Y-51950952D01*
X143708571Y-51760476D01*
X143756190Y-51665238D01*
X143851428Y-51570000D01*
X143994285Y-51522380D01*
X144089523Y-51522380D01*
X144232380Y-51570000D01*
X144280000Y-51617619D01*
X145232380Y-52522380D02*
X144660952Y-52522380D01*
X144946666Y-52522380D02*
X144946666Y-51522380D01*
X144851428Y-51665238D01*
X144756190Y-51760476D01*
X144660952Y-51808095D01*
X146089523Y-51522380D02*
X145899047Y-51522380D01*
X145803809Y-51570000D01*
X145756190Y-51617619D01*
X145660952Y-51760476D01*
X145613333Y-51950952D01*
X145613333Y-52331904D01*
X145660952Y-52427142D01*
X145708571Y-52474761D01*
X145803809Y-52522380D01*
X145994285Y-52522380D01*
X146089523Y-52474761D01*
X146137142Y-52427142D01*
X146184761Y-52331904D01*
X146184761Y-52093809D01*
X146137142Y-51998571D01*
X146089523Y-51950952D01*
X145994285Y-51903333D01*
X145803809Y-51903333D01*
X145708571Y-51950952D01*
X145660952Y-51998571D01*
X145613333Y-52093809D01*
X147089523Y-51522380D02*
X146613333Y-51522380D01*
X146565714Y-51998571D01*
X146613333Y-51950952D01*
X146708571Y-51903333D01*
X146946666Y-51903333D01*
X147041904Y-51950952D01*
X147089523Y-51998571D01*
X147137142Y-52093809D01*
X147137142Y-52331904D01*
X147089523Y-52427142D01*
X147041904Y-52474761D01*
X146946666Y-52522380D01*
X146708571Y-52522380D01*
X146613333Y-52474761D01*
X146565714Y-52427142D01*
X147327619Y-52617619D02*
X148089523Y-52617619D01*
X148851428Y-52522380D02*
X148280000Y-52522380D01*
X148565714Y-52522380D02*
X148565714Y-51522380D01*
X148470476Y-51665238D01*
X148375238Y-51760476D01*
X148280000Y-51808095D01*
%TO.C,JOYSTICK*%
X137430238Y-41362380D02*
X137430238Y-42076666D01*
X137382619Y-42219523D01*
X137287380Y-42314761D01*
X137144523Y-42362380D01*
X137049285Y-42362380D01*
X138096904Y-41362380D02*
X138287380Y-41362380D01*
X138382619Y-41410000D01*
X138477857Y-41505238D01*
X138525476Y-41695714D01*
X138525476Y-42029047D01*
X138477857Y-42219523D01*
X138382619Y-42314761D01*
X138287380Y-42362380D01*
X138096904Y-42362380D01*
X138001666Y-42314761D01*
X137906428Y-42219523D01*
X137858809Y-42029047D01*
X137858809Y-41695714D01*
X137906428Y-41505238D01*
X138001666Y-41410000D01*
X138096904Y-41362380D01*
X139144523Y-41886190D02*
X139144523Y-42362380D01*
X138811190Y-41362380D02*
X139144523Y-41886190D01*
X139477857Y-41362380D01*
X139763571Y-42314761D02*
X139906428Y-42362380D01*
X140144523Y-42362380D01*
X140239761Y-42314761D01*
X140287380Y-42267142D01*
X140335000Y-42171904D01*
X140335000Y-42076666D01*
X140287380Y-41981428D01*
X140239761Y-41933809D01*
X140144523Y-41886190D01*
X139954047Y-41838571D01*
X139858809Y-41790952D01*
X139811190Y-41743333D01*
X139763571Y-41648095D01*
X139763571Y-41552857D01*
X139811190Y-41457619D01*
X139858809Y-41410000D01*
X139954047Y-41362380D01*
X140192142Y-41362380D01*
X140335000Y-41410000D01*
X140620714Y-41362380D02*
X141192142Y-41362380D01*
X140906428Y-42362380D02*
X140906428Y-41362380D01*
X141525476Y-42362380D02*
X141525476Y-41362380D01*
X142573095Y-42267142D02*
X142525476Y-42314761D01*
X142382619Y-42362380D01*
X142287380Y-42362380D01*
X142144523Y-42314761D01*
X142049285Y-42219523D01*
X142001666Y-42124285D01*
X141954047Y-41933809D01*
X141954047Y-41790952D01*
X142001666Y-41600476D01*
X142049285Y-41505238D01*
X142144523Y-41410000D01*
X142287380Y-41362380D01*
X142382619Y-41362380D01*
X142525476Y-41410000D01*
X142573095Y-41457619D01*
X143001666Y-42362380D02*
X143001666Y-41362380D01*
X143573095Y-42362380D02*
X143144523Y-41790952D01*
X143573095Y-41362380D02*
X143001666Y-41933809D01*
%TO.C,RN2*%
X126944523Y-41727380D02*
X126611190Y-41251190D01*
X126373095Y-41727380D02*
X126373095Y-40727380D01*
X126754047Y-40727380D01*
X126849285Y-40775000D01*
X126896904Y-40822619D01*
X126944523Y-40917857D01*
X126944523Y-41060714D01*
X126896904Y-41155952D01*
X126849285Y-41203571D01*
X126754047Y-41251190D01*
X126373095Y-41251190D01*
X127373095Y-41727380D02*
X127373095Y-40727380D01*
X127944523Y-41727380D01*
X127944523Y-40727380D01*
X128373095Y-40822619D02*
X128420714Y-40775000D01*
X128515952Y-40727380D01*
X128754047Y-40727380D01*
X128849285Y-40775000D01*
X128896904Y-40822619D01*
X128944523Y-40917857D01*
X128944523Y-41013095D01*
X128896904Y-41155952D01*
X128325476Y-41727380D01*
X128944523Y-41727380D01*
%TO.C,SHORT*%
X158402976Y-61999761D02*
X158545833Y-62047380D01*
X158783928Y-62047380D01*
X158879166Y-61999761D01*
X158926785Y-61952142D01*
X158974404Y-61856904D01*
X158974404Y-61761666D01*
X158926785Y-61666428D01*
X158879166Y-61618809D01*
X158783928Y-61571190D01*
X158593452Y-61523571D01*
X158498214Y-61475952D01*
X158450595Y-61428333D01*
X158402976Y-61333095D01*
X158402976Y-61237857D01*
X158450595Y-61142619D01*
X158498214Y-61095000D01*
X158593452Y-61047380D01*
X158831547Y-61047380D01*
X158974404Y-61095000D01*
X159402976Y-62047380D02*
X159402976Y-61047380D01*
X159402976Y-61523571D02*
X159974404Y-61523571D01*
X159974404Y-62047380D02*
X159974404Y-61047380D01*
X160641071Y-61047380D02*
X160831547Y-61047380D01*
X160926785Y-61095000D01*
X161022023Y-61190238D01*
X161069642Y-61380714D01*
X161069642Y-61714047D01*
X161022023Y-61904523D01*
X160926785Y-61999761D01*
X160831547Y-62047380D01*
X160641071Y-62047380D01*
X160545833Y-61999761D01*
X160450595Y-61904523D01*
X160402976Y-61714047D01*
X160402976Y-61380714D01*
X160450595Y-61190238D01*
X160545833Y-61095000D01*
X160641071Y-61047380D01*
X162069642Y-62047380D02*
X161736309Y-61571190D01*
X161498214Y-62047380D02*
X161498214Y-61047380D01*
X161879166Y-61047380D01*
X161974404Y-61095000D01*
X162022023Y-61142619D01*
X162069642Y-61237857D01*
X162069642Y-61380714D01*
X162022023Y-61475952D01*
X161974404Y-61523571D01*
X161879166Y-61571190D01*
X161498214Y-61571190D01*
X162355357Y-61047380D02*
X162926785Y-61047380D01*
X162641071Y-62047380D02*
X162641071Y-61047380D01*
%TO.C,PULL*%
X158450595Y-65857380D02*
X158450595Y-64857380D01*
X158831547Y-64857380D01*
X158926785Y-64905000D01*
X158974404Y-64952619D01*
X159022023Y-65047857D01*
X159022023Y-65190714D01*
X158974404Y-65285952D01*
X158926785Y-65333571D01*
X158831547Y-65381190D01*
X158450595Y-65381190D01*
X159450595Y-64857380D02*
X159450595Y-65666904D01*
X159498214Y-65762142D01*
X159545833Y-65809761D01*
X159641071Y-65857380D01*
X159831547Y-65857380D01*
X159926785Y-65809761D01*
X159974404Y-65762142D01*
X160022023Y-65666904D01*
X160022023Y-64857380D01*
X160974404Y-65857380D02*
X160498214Y-65857380D01*
X160498214Y-64857380D01*
X161783928Y-65857380D02*
X161307738Y-65857380D01*
X161307738Y-64857380D01*
%TO.C,74HC165_2*%
X119070952Y-51522380D02*
X119737619Y-51522380D01*
X119309047Y-52522380D01*
X120547142Y-51855714D02*
X120547142Y-52522380D01*
X120309047Y-51474761D02*
X120070952Y-52189047D01*
X120690000Y-52189047D01*
X121070952Y-52522380D02*
X121070952Y-51522380D01*
X121070952Y-51998571D02*
X121642380Y-51998571D01*
X121642380Y-52522380D02*
X121642380Y-51522380D01*
X122690000Y-52427142D02*
X122642380Y-52474761D01*
X122499523Y-52522380D01*
X122404285Y-52522380D01*
X122261428Y-52474761D01*
X122166190Y-52379523D01*
X122118571Y-52284285D01*
X122070952Y-52093809D01*
X122070952Y-51950952D01*
X122118571Y-51760476D01*
X122166190Y-51665238D01*
X122261428Y-51570000D01*
X122404285Y-51522380D01*
X122499523Y-51522380D01*
X122642380Y-51570000D01*
X122690000Y-51617619D01*
X123642380Y-52522380D02*
X123070952Y-52522380D01*
X123356666Y-52522380D02*
X123356666Y-51522380D01*
X123261428Y-51665238D01*
X123166190Y-51760476D01*
X123070952Y-51808095D01*
X124499523Y-51522380D02*
X124309047Y-51522380D01*
X124213809Y-51570000D01*
X124166190Y-51617619D01*
X124070952Y-51760476D01*
X124023333Y-51950952D01*
X124023333Y-52331904D01*
X124070952Y-52427142D01*
X124118571Y-52474761D01*
X124213809Y-52522380D01*
X124404285Y-52522380D01*
X124499523Y-52474761D01*
X124547142Y-52427142D01*
X124594761Y-52331904D01*
X124594761Y-52093809D01*
X124547142Y-51998571D01*
X124499523Y-51950952D01*
X124404285Y-51903333D01*
X124213809Y-51903333D01*
X124118571Y-51950952D01*
X124070952Y-51998571D01*
X124023333Y-52093809D01*
X125499523Y-51522380D02*
X125023333Y-51522380D01*
X124975714Y-51998571D01*
X125023333Y-51950952D01*
X125118571Y-51903333D01*
X125356666Y-51903333D01*
X125451904Y-51950952D01*
X125499523Y-51998571D01*
X125547142Y-52093809D01*
X125547142Y-52331904D01*
X125499523Y-52427142D01*
X125451904Y-52474761D01*
X125356666Y-52522380D01*
X125118571Y-52522380D01*
X125023333Y-52474761D01*
X124975714Y-52427142D01*
X125737619Y-52617619D02*
X126499523Y-52617619D01*
X126690000Y-51617619D02*
X126737619Y-51570000D01*
X126832857Y-51522380D01*
X127070952Y-51522380D01*
X127166190Y-51570000D01*
X127213809Y-51617619D01*
X127261428Y-51712857D01*
X127261428Y-51808095D01*
X127213809Y-51950952D01*
X126642380Y-52522380D01*
X127261428Y-52522380D01*
%TO.C,RN1*%
X148534523Y-41587380D02*
X148201190Y-41111190D01*
X147963095Y-41587380D02*
X147963095Y-40587380D01*
X148344047Y-40587380D01*
X148439285Y-40635000D01*
X148486904Y-40682619D01*
X148534523Y-40777857D01*
X148534523Y-40920714D01*
X148486904Y-41015952D01*
X148439285Y-41063571D01*
X148344047Y-41111190D01*
X147963095Y-41111190D01*
X148963095Y-41587380D02*
X148963095Y-40587380D01*
X149534523Y-41587380D01*
X149534523Y-40587380D01*
X150534523Y-41587380D02*
X149963095Y-41587380D01*
X150248809Y-41587380D02*
X150248809Y-40587380D01*
X150153571Y-40730238D01*
X150058333Y-40825476D01*
X149963095Y-40873095D01*
%TO.C,OUT*%
X113678928Y-64857380D02*
X113869404Y-64857380D01*
X113964642Y-64905000D01*
X114059880Y-65000238D01*
X114107500Y-65190714D01*
X114107500Y-65524047D01*
X114059880Y-65714523D01*
X113964642Y-65809761D01*
X113869404Y-65857380D01*
X113678928Y-65857380D01*
X113583690Y-65809761D01*
X113488452Y-65714523D01*
X113440833Y-65524047D01*
X113440833Y-65190714D01*
X113488452Y-65000238D01*
X113583690Y-64905000D01*
X113678928Y-64857380D01*
X114536071Y-64857380D02*
X114536071Y-65666904D01*
X114583690Y-65762142D01*
X114631309Y-65809761D01*
X114726547Y-65857380D01*
X114917023Y-65857380D01*
X115012261Y-65809761D01*
X115059880Y-65762142D01*
X115107500Y-65666904D01*
X115107500Y-64857380D01*
X115440833Y-64857380D02*
X116012261Y-64857380D01*
X115726547Y-65857380D02*
X115726547Y-64857380D01*
%TO.C,IN*%
X114821785Y-61412380D02*
X114821785Y-60412380D01*
X115297976Y-61412380D02*
X115297976Y-60412380D01*
X115869404Y-61412380D01*
X115869404Y-60412380D01*
%TD*%
M02*
