%TF.GenerationSoftware,KiCad,Pcbnew,(6.0.2)*%
%TF.CreationDate,2022-04-13T02:02:00+09:00*%
%TF.ProjectId,joystick-input,6a6f7973-7469-4636-9b2d-696e7075742e,rev?*%
%TF.SameCoordinates,Original*%
%TF.FileFunction,Legend,Bot*%
%TF.FilePolarity,Positive*%
%FSLAX46Y46*%
G04 Gerber Fmt 4.6, Leading zero omitted, Abs format (unit mm)*
G04 Created by KiCad (PCBNEW (6.0.2)) date 2022-04-13 02:02:00*
%MOMM*%
%LPD*%
G01*
G04 APERTURE LIST*
%ADD10C,0.150000*%
%ADD11C,0.100000*%
G04 APERTURE END LIST*
D10*
X150128952Y-106973666D02*
X149652761Y-106973666D01*
X150224190Y-107259380D02*
X149890857Y-106259380D01*
X149557523Y-107259380D01*
X149224190Y-107259380D02*
X149224190Y-106592714D01*
X149224190Y-106687952D02*
X149176571Y-106640333D01*
X149081333Y-106592714D01*
X148938476Y-106592714D01*
X148843238Y-106640333D01*
X148795619Y-106735571D01*
X148795619Y-107259380D01*
X148795619Y-106735571D02*
X148748000Y-106640333D01*
X148652761Y-106592714D01*
X148509904Y-106592714D01*
X148414666Y-106640333D01*
X148367047Y-106735571D01*
X148367047Y-107259380D01*
X147748000Y-107259380D02*
X147843238Y-107211761D01*
X147890857Y-107164142D01*
X147938476Y-107068904D01*
X147938476Y-106783190D01*
X147890857Y-106687952D01*
X147843238Y-106640333D01*
X147748000Y-106592714D01*
X147605142Y-106592714D01*
X147509904Y-106640333D01*
X147462285Y-106687952D01*
X147414666Y-106783190D01*
X147414666Y-107068904D01*
X147462285Y-107164142D01*
X147509904Y-107211761D01*
X147605142Y-107259380D01*
X147748000Y-107259380D01*
X147033714Y-107211761D02*
X146938476Y-107259380D01*
X146748000Y-107259380D01*
X146652761Y-107211761D01*
X146605142Y-107116523D01*
X146605142Y-107068904D01*
X146652761Y-106973666D01*
X146748000Y-106926047D01*
X146890857Y-106926047D01*
X146986095Y-106878428D01*
X147033714Y-106783190D01*
X147033714Y-106735571D01*
X146986095Y-106640333D01*
X146890857Y-106592714D01*
X146748000Y-106592714D01*
X146652761Y-106640333D01*
X145128952Y-106259380D02*
X145128952Y-106973666D01*
X145176571Y-107116523D01*
X145271809Y-107211761D01*
X145414666Y-107259380D01*
X145509904Y-107259380D01*
X144509904Y-107259380D02*
X144605142Y-107211761D01*
X144652761Y-107164142D01*
X144700380Y-107068904D01*
X144700380Y-106783190D01*
X144652761Y-106687952D01*
X144605142Y-106640333D01*
X144509904Y-106592714D01*
X144367047Y-106592714D01*
X144271809Y-106640333D01*
X144224190Y-106687952D01*
X144176571Y-106783190D01*
X144176571Y-107068904D01*
X144224190Y-107164142D01*
X144271809Y-107211761D01*
X144367047Y-107259380D01*
X144509904Y-107259380D01*
X143843238Y-106592714D02*
X143605142Y-107259380D01*
X143367047Y-106592714D02*
X143605142Y-107259380D01*
X143700380Y-107497476D01*
X143748000Y-107545095D01*
X143843238Y-107592714D01*
X143033714Y-107211761D02*
X142938476Y-107259380D01*
X142748000Y-107259380D01*
X142652761Y-107211761D01*
X142605142Y-107116523D01*
X142605142Y-107068904D01*
X142652761Y-106973666D01*
X142748000Y-106926047D01*
X142890857Y-106926047D01*
X142986095Y-106878428D01*
X143033714Y-106783190D01*
X143033714Y-106735571D01*
X142986095Y-106640333D01*
X142890857Y-106592714D01*
X142748000Y-106592714D01*
X142652761Y-106640333D01*
X142319428Y-106592714D02*
X141938476Y-106592714D01*
X142176571Y-106259380D02*
X142176571Y-107116523D01*
X142128952Y-107211761D01*
X142033714Y-107259380D01*
X141938476Y-107259380D01*
X141605142Y-107259380D02*
X141605142Y-106592714D01*
X141605142Y-106259380D02*
X141652761Y-106307000D01*
X141605142Y-106354619D01*
X141557523Y-106307000D01*
X141605142Y-106259380D01*
X141605142Y-106354619D01*
X140700380Y-107211761D02*
X140795619Y-107259380D01*
X140986095Y-107259380D01*
X141081333Y-107211761D01*
X141128952Y-107164142D01*
X141176571Y-107068904D01*
X141176571Y-106783190D01*
X141128952Y-106687952D01*
X141081333Y-106640333D01*
X140986095Y-106592714D01*
X140795619Y-106592714D01*
X140700380Y-106640333D01*
X140271809Y-107259380D02*
X140271809Y-106259380D01*
X140176571Y-106878428D02*
X139890857Y-107259380D01*
X139890857Y-106592714D02*
X140271809Y-106973666D01*
X138700380Y-107259380D02*
X138700380Y-106259380D01*
X138224190Y-106592714D02*
X138224190Y-107259380D01*
X138224190Y-106687952D02*
X138176571Y-106640333D01*
X138081333Y-106592714D01*
X137938476Y-106592714D01*
X137843238Y-106640333D01*
X137795619Y-106735571D01*
X137795619Y-107259380D01*
X137319428Y-106592714D02*
X137319428Y-107592714D01*
X137319428Y-106640333D02*
X137224190Y-106592714D01*
X137033714Y-106592714D01*
X136938476Y-106640333D01*
X136890857Y-106687952D01*
X136843238Y-106783190D01*
X136843238Y-107068904D01*
X136890857Y-107164142D01*
X136938476Y-107211761D01*
X137033714Y-107259380D01*
X137224190Y-107259380D01*
X137319428Y-107211761D01*
X135986095Y-106592714D02*
X135986095Y-107259380D01*
X136414666Y-106592714D02*
X136414666Y-107116523D01*
X136367047Y-107211761D01*
X136271809Y-107259380D01*
X136128952Y-107259380D01*
X136033714Y-107211761D01*
X135986095Y-107164142D01*
X135652761Y-106592714D02*
X135271809Y-106592714D01*
X135509904Y-106259380D02*
X135509904Y-107116523D01*
X135462285Y-107211761D01*
X135367047Y-107259380D01*
X135271809Y-107259380D01*
D11*
X133988333Y-107377666D02*
X134221666Y-107044333D01*
X134388333Y-107377666D02*
X134388333Y-106677666D01*
X134121666Y-106677666D01*
X134055000Y-106711000D01*
X134021666Y-106744333D01*
X133988333Y-106811000D01*
X133988333Y-106911000D01*
X134021666Y-106977666D01*
X134055000Y-107011000D01*
X134121666Y-107044333D01*
X134388333Y-107044333D01*
X133421666Y-107344333D02*
X133488333Y-107377666D01*
X133621666Y-107377666D01*
X133688333Y-107344333D01*
X133721666Y-107277666D01*
X133721666Y-107011000D01*
X133688333Y-106944333D01*
X133621666Y-106911000D01*
X133488333Y-106911000D01*
X133421666Y-106944333D01*
X133388333Y-107011000D01*
X133388333Y-107077666D01*
X133721666Y-107144333D01*
X133155000Y-106911000D02*
X132988333Y-107377666D01*
X132821666Y-106911000D01*
X132555000Y-107311000D02*
X132521666Y-107344333D01*
X132555000Y-107377666D01*
X132588333Y-107344333D01*
X132555000Y-107311000D01*
X132555000Y-107377666D01*
X132255000Y-106744333D02*
X132221666Y-106711000D01*
X132155000Y-106677666D01*
X131988333Y-106677666D01*
X131921666Y-106711000D01*
X131888333Y-106744333D01*
X131855000Y-106811000D01*
X131855000Y-106877666D01*
X131888333Y-106977666D01*
X132288333Y-107377666D01*
X131855000Y-107377666D01*
M02*
