%TF.GenerationSoftware,KiCad,Pcbnew,(5.1.9)-1*%
%TF.CreationDate,2021-11-25T01:50:05+09:00*%
%TF.ProjectId,joystick-input,6a6f7973-7469-4636-9b2d-696e7075742e,rev?*%
%TF.SameCoordinates,Original*%
%TF.FileFunction,Soldermask,Bot*%
%TF.FilePolarity,Negative*%
%FSLAX46Y46*%
G04 Gerber Fmt 4.6, Leading zero omitted, Abs format (unit mm)*
G04 Created by KiCad (PCBNEW (5.1.9)-1) date 2021-11-25 01:50:05*
%MOMM*%
%LPD*%
G01*
G04 APERTURE LIST*
%ADD10C,1.600000*%
%ADD11O,1.700000X1.700000*%
%ADD12R,1.700000X1.700000*%
%ADD13O,1.600000X1.600000*%
%ADD14R,1.600000X1.600000*%
G04 APERTURE END LIST*
D10*
%TO.C,C2*%
X131652000Y-59690000D03*
X136652000Y-59690000D03*
%TD*%
%TO.C,C1*%
X152734000Y-59690000D03*
X157734000Y-59690000D03*
%TD*%
D11*
%TO.C,J1*%
X116840000Y-44958000D03*
X119380000Y-44958000D03*
X121920000Y-44958000D03*
X124460000Y-44958000D03*
X127000000Y-44958000D03*
X129540000Y-44958000D03*
X132080000Y-44958000D03*
X134620000Y-44958000D03*
X137160000Y-44958000D03*
X139700000Y-44958000D03*
X142240000Y-44958000D03*
X144780000Y-44958000D03*
X147320000Y-44958000D03*
X149860000Y-44958000D03*
X152400000Y-44958000D03*
X154940000Y-44958000D03*
X157480000Y-44958000D03*
D12*
X160020000Y-44958000D03*
%TD*%
D13*
%TO.C,74HC165_1*%
X157734000Y-57150000D03*
X139954000Y-49530000D03*
X155194000Y-57150000D03*
X142494000Y-49530000D03*
X152654000Y-57150000D03*
X145034000Y-49530000D03*
X150114000Y-57150000D03*
X147574000Y-49530000D03*
X147574000Y-57150000D03*
X150114000Y-49530000D03*
X145034000Y-57150000D03*
X152654000Y-49530000D03*
X142494000Y-57150000D03*
X155194000Y-49530000D03*
X139954000Y-57150000D03*
D14*
X157734000Y-49530000D03*
%TD*%
D13*
%TO.C,RN2*%
X136652000Y-40005000D03*
X134112000Y-40005000D03*
X131572000Y-40005000D03*
X129032000Y-40005000D03*
X126492000Y-40005000D03*
X123952000Y-40005000D03*
X121412000Y-40005000D03*
X118872000Y-40005000D03*
D14*
X116332000Y-40005000D03*
%TD*%
D11*
%TO.C,SHORT1*%
X128270000Y-60452000D03*
X125730000Y-60452000D03*
D12*
X123190000Y-60452000D03*
%TD*%
D11*
%TO.C,PULL1*%
X149352000Y-60452000D03*
X146812000Y-60452000D03*
D12*
X144272000Y-60452000D03*
%TD*%
D14*
%TO.C,74HC165_2*%
X136652000Y-49530000D03*
D13*
X118872000Y-57150000D03*
X134112000Y-49530000D03*
X121412000Y-57150000D03*
X131572000Y-49530000D03*
X123952000Y-57150000D03*
X129032000Y-49530000D03*
X126492000Y-57150000D03*
X126492000Y-49530000D03*
X129032000Y-57150000D03*
X123952000Y-49530000D03*
X131572000Y-57150000D03*
X121412000Y-49530000D03*
X134112000Y-57150000D03*
X118872000Y-49530000D03*
X136652000Y-57150000D03*
%TD*%
D14*
%TO.C,RN1*%
X160528000Y-40005000D03*
D13*
X157988000Y-40005000D03*
X155448000Y-40005000D03*
X152908000Y-40005000D03*
X150368000Y-40005000D03*
X147828000Y-40005000D03*
X145288000Y-40005000D03*
X142748000Y-40005000D03*
X140208000Y-40005000D03*
%TD*%
D12*
%TO.C,OUT1*%
X162052000Y-59436000D03*
D11*
X162052000Y-56896000D03*
X162052000Y-54356000D03*
X162052000Y-51816000D03*
X162052000Y-49276000D03*
%TD*%
%TO.C,IN1*%
X114808000Y-49276000D03*
X114808000Y-51816000D03*
X114808000Y-54356000D03*
X114808000Y-56896000D03*
D12*
X114808000Y-59436000D03*
%TD*%
M02*
