%TF.GenerationSoftware,KiCad,Pcbnew,(5.1.9)-1*%
%TF.CreationDate,2022-01-25T20:04:02+09:00*%
%TF.ProjectId,joystick-input,6a6f7973-7469-4636-9b2d-696e7075742e,rev?*%
%TF.SameCoordinates,Original*%
%TF.FileFunction,Copper,L2,Bot*%
%TF.FilePolarity,Positive*%
%FSLAX46Y46*%
G04 Gerber Fmt 4.6, Leading zero omitted, Abs format (unit mm)*
G04 Created by KiCad (PCBNEW (5.1.9)-1) date 2022-01-25 20:04:02*
%MOMM*%
%LPD*%
G01*
G04 APERTURE LIST*
%TA.AperFunction,ComponentPad*%
%ADD10C,1.600000*%
%TD*%
%TA.AperFunction,ComponentPad*%
%ADD11O,1.700000X1.700000*%
%TD*%
%TA.AperFunction,ComponentPad*%
%ADD12R,1.700000X1.700000*%
%TD*%
%TA.AperFunction,ComponentPad*%
%ADD13O,1.600000X1.600000*%
%TD*%
%TA.AperFunction,ComponentPad*%
%ADD14R,1.600000X1.600000*%
%TD*%
%TA.AperFunction,ViaPad*%
%ADD15C,0.800000*%
%TD*%
%TA.AperFunction,Conductor*%
%ADD16C,0.250000*%
%TD*%
%TA.AperFunction,Conductor*%
%ADD17C,0.254000*%
%TD*%
%TA.AperFunction,Conductor*%
%ADD18C,0.100000*%
%TD*%
G04 APERTURE END LIST*
D10*
%TO.P,C2,2*%
%TO.N,GND*%
X147146000Y-104140000D03*
%TO.P,C2,1*%
%TO.N,VCC*%
X152146000Y-104140000D03*
%TD*%
%TO.P,C1,2*%
%TO.N,GND*%
X168228000Y-104140000D03*
%TO.P,C1,1*%
%TO.N,VCC*%
X173228000Y-104140000D03*
%TD*%
D11*
%TO.P,J1,18*%
%TO.N,/C_SHORT*%
X132334000Y-84201000D03*
%TO.P,J1,17*%
%TO.N,/C_EX4*%
X134874000Y-84201000D03*
%TO.P,J1,16*%
%TO.N,/C_EX3*%
X137414000Y-84201000D03*
%TO.P,J1,15*%
%TO.N,/C_EX2*%
X139954000Y-84201000D03*
%TO.P,J1,14*%
%TO.N,/C_EX1*%
X142494000Y-84201000D03*
%TO.P,J1,13*%
%TO.N,/C_R*%
X145034000Y-84201000D03*
%TO.P,J1,12*%
%TO.N,/C_L*%
X147574000Y-84201000D03*
%TO.P,J1,11*%
%TO.N,/C_Y*%
X150114000Y-84201000D03*
%TO.P,J1,10*%
%TO.N,/C_X*%
X152654000Y-84201000D03*
%TO.P,J1,9*%
%TO.N,/C_B*%
X155194000Y-84201000D03*
%TO.P,J1,8*%
%TO.N,/C_A*%
X157734000Y-84201000D03*
%TO.P,J1,7*%
%TO.N,/C_SELECT*%
X160274000Y-84201000D03*
%TO.P,J1,6*%
%TO.N,/C_START*%
X162814000Y-84201000D03*
%TO.P,J1,5*%
%TO.N,/C_RIGHT*%
X165354000Y-84201000D03*
%TO.P,J1,4*%
%TO.N,/C_LEFT*%
X167894000Y-84201000D03*
%TO.P,J1,3*%
%TO.N,/C_DOWN*%
X170434000Y-84201000D03*
%TO.P,J1,2*%
%TO.N,/C_UP*%
X172974000Y-84201000D03*
D12*
%TO.P,J1,1*%
%TO.N,/C_SHORT*%
X175514000Y-84201000D03*
%TD*%
D13*
%TO.P,74HC165_1,16*%
%TO.N,VCC*%
X173228000Y-101219000D03*
%TO.P,74HC165_1,8*%
%TO.N,GND*%
X155448000Y-93599000D03*
%TO.P,74HC165_1,15*%
X170688000Y-101219000D03*
%TO.P,74HC165_1,7*%
%TO.N,N/C*%
X157988000Y-93599000D03*
%TO.P,74HC165_1,14*%
%TO.N,/C_START*%
X168148000Y-101219000D03*
%TO.P,74HC165_1,6*%
%TO.N,/C_UP*%
X160528000Y-93599000D03*
%TO.P,74HC165_1,13*%
%TO.N,/C_SELECT*%
X165608000Y-101219000D03*
%TO.P,74HC165_1,5*%
%TO.N,/C_DOWN*%
X163068000Y-93599000D03*
%TO.P,74HC165_1,12*%
%TO.N,/C_A*%
X163068000Y-101219000D03*
%TO.P,74HC165_1,4*%
%TO.N,/C_LEFT*%
X165608000Y-93599000D03*
%TO.P,74HC165_1,11*%
%TO.N,/C_B*%
X160528000Y-101219000D03*
%TO.P,74HC165_1,3*%
%TO.N,/C_RIGHT*%
X168148000Y-93599000D03*
%TO.P,74HC165_1,10*%
%TO.N,/Q7*%
X157988000Y-101219000D03*
%TO.P,74HC165_1,2*%
%TO.N,/CLK*%
X170688000Y-93599000D03*
%TO.P,74HC165_1,9*%
%TO.N,/D_OUT*%
X155448000Y-101219000D03*
D14*
%TO.P,74HC165_1,1*%
%TO.N,/LOAD*%
X173228000Y-93599000D03*
%TD*%
D13*
%TO.P,RN2,9*%
%TO.N,/C_X*%
X152146000Y-89154000D03*
%TO.P,RN2,8*%
%TO.N,/C_Y*%
X149606000Y-89154000D03*
%TO.P,RN2,7*%
%TO.N,/C_L*%
X147066000Y-89154000D03*
%TO.P,RN2,6*%
%TO.N,/C_R*%
X144526000Y-89154000D03*
%TO.P,RN2,5*%
%TO.N,/C_EX1*%
X141986000Y-89154000D03*
%TO.P,RN2,4*%
%TO.N,/C_EX2*%
X139446000Y-89154000D03*
%TO.P,RN2,3*%
%TO.N,/C_EX3*%
X136906000Y-89154000D03*
%TO.P,RN2,2*%
%TO.N,/C_EX4*%
X134366000Y-89154000D03*
D14*
%TO.P,RN2,1*%
%TO.N,/PULL*%
X131826000Y-89154000D03*
%TD*%
%TO.P,74HC165_2,1*%
%TO.N,/LOAD*%
X152146000Y-93599000D03*
D13*
%TO.P,74HC165_2,9*%
%TO.N,/Q7*%
X134366000Y-101219000D03*
%TO.P,74HC165_2,2*%
%TO.N,/CLK*%
X149606000Y-93599000D03*
%TO.P,74HC165_2,10*%
%TO.N,/D_IN*%
X136906000Y-101219000D03*
%TO.P,74HC165_2,3*%
%TO.N,/C_R*%
X147066000Y-93599000D03*
%TO.P,74HC165_2,11*%
%TO.N,/C_EX4*%
X139446000Y-101219000D03*
%TO.P,74HC165_2,4*%
%TO.N,/C_L*%
X144526000Y-93599000D03*
%TO.P,74HC165_2,12*%
%TO.N,/C_EX3*%
X141986000Y-101219000D03*
%TO.P,74HC165_2,5*%
%TO.N,/C_Y*%
X141986000Y-93599000D03*
%TO.P,74HC165_2,13*%
%TO.N,/C_EX2*%
X144526000Y-101219000D03*
%TO.P,74HC165_2,6*%
%TO.N,/C_X*%
X139446000Y-93599000D03*
%TO.P,74HC165_2,14*%
%TO.N,/C_EX1*%
X147066000Y-101219000D03*
%TO.P,74HC165_2,7*%
%TO.N,N/C*%
X136906000Y-93599000D03*
%TO.P,74HC165_2,15*%
%TO.N,GND*%
X149606000Y-101219000D03*
%TO.P,74HC165_2,8*%
X134366000Y-93599000D03*
%TO.P,74HC165_2,16*%
%TO.N,VCC*%
X152146000Y-101219000D03*
%TD*%
D14*
%TO.P,RN1,1*%
%TO.N,/PULL*%
X176022000Y-89154000D03*
D13*
%TO.P,RN1,2*%
%TO.N,/C_UP*%
X173482000Y-89154000D03*
%TO.P,RN1,3*%
%TO.N,/C_DOWN*%
X170942000Y-89154000D03*
%TO.P,RN1,4*%
%TO.N,/C_LEFT*%
X168402000Y-89154000D03*
%TO.P,RN1,5*%
%TO.N,/C_RIGHT*%
X165862000Y-89154000D03*
%TO.P,RN1,6*%
%TO.N,/C_START*%
X163322000Y-89154000D03*
%TO.P,RN1,7*%
%TO.N,/C_SELECT*%
X160782000Y-89154000D03*
%TO.P,RN1,8*%
%TO.N,/C_A*%
X158242000Y-89154000D03*
%TO.P,RN1,9*%
%TO.N,/C_B*%
X155702000Y-89154000D03*
%TD*%
D12*
%TO.P,OUT1,1*%
%TO.N,VCC*%
X177546000Y-103505000D03*
D11*
%TO.P,OUT1,2*%
%TO.N,GND*%
X177546000Y-100965000D03*
%TO.P,OUT1,3*%
%TO.N,/LOAD*%
X177546000Y-98425000D03*
%TO.P,OUT1,4*%
%TO.N,/CLK*%
X177546000Y-95885000D03*
%TO.P,OUT1,5*%
%TO.N,/D_OUT*%
X177546000Y-93345000D03*
%TD*%
%TO.P,IN1,5*%
%TO.N,/D_IN*%
X130302000Y-93345000D03*
%TO.P,IN1,4*%
%TO.N,/CLK*%
X130302000Y-95885000D03*
%TO.P,IN1,3*%
%TO.N,/LOAD*%
X130302000Y-98425000D03*
%TO.P,IN1,2*%
%TO.N,GND*%
X130302000Y-100965000D03*
D12*
%TO.P,IN1,1*%
%TO.N,VCC*%
X130302000Y-103505000D03*
%TD*%
D15*
%TO.N,GND*%
X159385000Y-104140000D03*
X138176000Y-104140000D03*
%TO.N,/LOAD*%
X152146000Y-98425000D03*
X172085000Y-98425000D03*
%TO.N,/CLK*%
X149606000Y-97155000D03*
X170688000Y-97155000D03*
%TD*%
D16*
%TO.N,/PULL*%
X131826000Y-88773000D02*
X131826000Y-89154000D01*
X133731000Y-86868000D02*
X131826000Y-88773000D01*
X174625000Y-86868000D02*
X133731000Y-86868000D01*
X176022000Y-88265000D02*
X174625000Y-86868000D01*
X176022000Y-89154000D02*
X176022000Y-88265000D01*
%TO.N,/C_UP*%
X174498000Y-90170000D02*
X173482000Y-89154000D01*
X174498000Y-94742000D02*
X174498000Y-90170000D01*
X173355000Y-95885000D02*
X174498000Y-94742000D01*
X162814000Y-95885000D02*
X173355000Y-95885000D01*
X160528000Y-93599000D02*
X162814000Y-95885000D01*
%TO.N,/C_DOWN*%
X171958000Y-90170000D02*
X170942000Y-89154000D01*
X171958000Y-94615000D02*
X171958000Y-90170000D01*
X171196000Y-95377000D02*
X171958000Y-94615000D01*
X164846000Y-95377000D02*
X171196000Y-95377000D01*
X163068000Y-93599000D02*
X164846000Y-95377000D01*
%TO.N,/C_LEFT*%
X169418000Y-90170000D02*
X168402000Y-89154000D01*
X165608000Y-93599000D02*
X166878000Y-94869000D01*
X166878000Y-94869000D02*
X169037000Y-94869000D01*
X169037000Y-94869000D02*
X169418000Y-94488000D01*
X169418000Y-94488000D02*
X169418000Y-90170000D01*
%TO.N,/C_RIGHT*%
X165862000Y-89535000D02*
X165862000Y-89154000D01*
X168148000Y-93599000D02*
X168148000Y-91821000D01*
X168148000Y-91821000D02*
X165862000Y-89535000D01*
%TO.N,/D_OUT*%
X173863000Y-102489000D02*
X156718000Y-102489000D01*
X176657000Y-99695000D02*
X173863000Y-102489000D01*
X178015002Y-99695000D02*
X176657000Y-99695000D01*
X178816000Y-98894002D02*
X178015002Y-99695000D01*
X178816000Y-94615000D02*
X178816000Y-98894002D01*
X156718000Y-102489000D02*
X155448000Y-101219000D01*
X177546000Y-93345000D02*
X178816000Y-94615000D01*
%TO.N,/LOAD*%
X130302000Y-98425000D02*
X152146000Y-98425000D01*
X152146000Y-98425000D02*
X172085000Y-98425000D01*
X177546000Y-98425000D02*
X172085000Y-98425000D01*
%TO.N,/CLK*%
X130302000Y-95885000D02*
X131572000Y-97155000D01*
X177546000Y-95885000D02*
X176276000Y-97155000D01*
X149606000Y-97155000D02*
X169164000Y-97155000D01*
X131572000Y-97155000D02*
X149606000Y-97155000D01*
X170688000Y-97155000D02*
X169164000Y-97155000D01*
X176276000Y-97155000D02*
X170688000Y-97155000D01*
%TO.N,/C_X*%
X153416000Y-90424000D02*
X152146000Y-89154000D01*
X152400000Y-95885000D02*
X153416000Y-94869000D01*
X153416000Y-94869000D02*
X153416000Y-90424000D01*
X141732000Y-95885000D02*
X152400000Y-95885000D01*
X139446000Y-93599000D02*
X141732000Y-95885000D01*
%TO.N,/C_Y*%
X150876000Y-90424000D02*
X149606000Y-89154000D01*
X150876000Y-94488000D02*
X150876000Y-90424000D01*
X149987000Y-95377000D02*
X150876000Y-94488000D01*
X143764000Y-95377000D02*
X149987000Y-95377000D01*
X141986000Y-93599000D02*
X143764000Y-95377000D01*
%TO.N,/Q7*%
X155956000Y-99187000D02*
X157988000Y-101219000D01*
X136398000Y-99187000D02*
X155956000Y-99187000D01*
X134366000Y-101219000D02*
X136398000Y-99187000D01*
%TO.N,/C_R*%
X147066000Y-91694000D02*
X144526000Y-89154000D01*
X147066000Y-93599000D02*
X147066000Y-91694000D01*
%TO.N,/C_L*%
X148336000Y-90424000D02*
X147066000Y-89154000D01*
X148336000Y-94361000D02*
X148336000Y-90424000D01*
X147828000Y-94869000D02*
X148336000Y-94361000D01*
X145796000Y-94869000D02*
X147828000Y-94869000D01*
X144526000Y-93599000D02*
X145796000Y-94869000D01*
%TD*%
D17*
%TO.N,GND*%
X177208258Y-80547644D02*
X177071498Y-80877811D01*
X177001778Y-81228315D01*
X177001778Y-81585685D01*
X177071498Y-81936189D01*
X177208258Y-82266356D01*
X177406802Y-82563499D01*
X177659501Y-82816198D01*
X177956644Y-83014742D01*
X178286811Y-83151502D01*
X178637315Y-83221222D01*
X178994685Y-83221222D01*
X179345189Y-83151502D01*
X179675356Y-83014742D01*
X179705000Y-82994935D01*
X179705000Y-105473065D01*
X179675356Y-105453258D01*
X179345189Y-105316498D01*
X178994685Y-105246778D01*
X178637315Y-105246778D01*
X178286811Y-105316498D01*
X177956644Y-105453258D01*
X177659501Y-105651802D01*
X177406802Y-105904501D01*
X177208258Y-106201644D01*
X177071498Y-106531811D01*
X177001778Y-106882315D01*
X177001778Y-107239685D01*
X177071498Y-107590189D01*
X177208258Y-107920356D01*
X177228065Y-107950000D01*
X130619935Y-107950000D01*
X130639742Y-107920356D01*
X130776502Y-107590189D01*
X130846222Y-107239685D01*
X130846222Y-106882315D01*
X130776502Y-106531811D01*
X130639742Y-106201644D01*
X130441198Y-105904501D01*
X130188499Y-105651802D01*
X129891356Y-105453258D01*
X129561189Y-105316498D01*
X129210685Y-105246778D01*
X128853315Y-105246778D01*
X128502811Y-105316498D01*
X128172644Y-105453258D01*
X128143000Y-105473065D01*
X128143000Y-105132702D01*
X146332903Y-105132702D01*
X146404486Y-105376671D01*
X146659996Y-105497571D01*
X146934184Y-105566300D01*
X147216512Y-105580217D01*
X147496130Y-105538787D01*
X147762292Y-105443603D01*
X147887514Y-105376671D01*
X147959097Y-105132702D01*
X147146000Y-104319605D01*
X146332903Y-105132702D01*
X128143000Y-105132702D01*
X128143000Y-102655000D01*
X128813928Y-102655000D01*
X128813928Y-104355000D01*
X128826188Y-104479482D01*
X128862498Y-104599180D01*
X128921463Y-104709494D01*
X129000815Y-104806185D01*
X129097506Y-104885537D01*
X129207820Y-104944502D01*
X129327518Y-104980812D01*
X129452000Y-104993072D01*
X131152000Y-104993072D01*
X131276482Y-104980812D01*
X131396180Y-104944502D01*
X131506494Y-104885537D01*
X131603185Y-104806185D01*
X131682537Y-104709494D01*
X131741502Y-104599180D01*
X131777812Y-104479482D01*
X131790072Y-104355000D01*
X131790072Y-104210512D01*
X145705783Y-104210512D01*
X145747213Y-104490130D01*
X145842397Y-104756292D01*
X145909329Y-104881514D01*
X146153298Y-104953097D01*
X146966395Y-104140000D01*
X147325605Y-104140000D01*
X148138702Y-104953097D01*
X148382671Y-104881514D01*
X148503571Y-104626004D01*
X148572300Y-104351816D01*
X148586217Y-104069488D01*
X148575724Y-103998665D01*
X150711000Y-103998665D01*
X150711000Y-104281335D01*
X150766147Y-104558574D01*
X150874320Y-104819727D01*
X151031363Y-105054759D01*
X151231241Y-105254637D01*
X151466273Y-105411680D01*
X151727426Y-105519853D01*
X152004665Y-105575000D01*
X152287335Y-105575000D01*
X152564574Y-105519853D01*
X152825727Y-105411680D01*
X153060759Y-105254637D01*
X153182694Y-105132702D01*
X167414903Y-105132702D01*
X167486486Y-105376671D01*
X167741996Y-105497571D01*
X168016184Y-105566300D01*
X168298512Y-105580217D01*
X168578130Y-105538787D01*
X168844292Y-105443603D01*
X168969514Y-105376671D01*
X169041097Y-105132702D01*
X168228000Y-104319605D01*
X167414903Y-105132702D01*
X153182694Y-105132702D01*
X153260637Y-105054759D01*
X153417680Y-104819727D01*
X153525853Y-104558574D01*
X153581000Y-104281335D01*
X153581000Y-103998665D01*
X153525853Y-103721426D01*
X153417680Y-103460273D01*
X153260637Y-103225241D01*
X153060759Y-103025363D01*
X152825727Y-102868320D01*
X152564574Y-102760147D01*
X152287335Y-102705000D01*
X152004665Y-102705000D01*
X151727426Y-102760147D01*
X151466273Y-102868320D01*
X151231241Y-103025363D01*
X151031363Y-103225241D01*
X150874320Y-103460273D01*
X150766147Y-103721426D01*
X150711000Y-103998665D01*
X148575724Y-103998665D01*
X148544787Y-103789870D01*
X148449603Y-103523708D01*
X148382671Y-103398486D01*
X148138702Y-103326903D01*
X147325605Y-104140000D01*
X146966395Y-104140000D01*
X146153298Y-103326903D01*
X145909329Y-103398486D01*
X145788429Y-103653996D01*
X145719700Y-103928184D01*
X145705783Y-104210512D01*
X131790072Y-104210512D01*
X131790072Y-103147298D01*
X146332903Y-103147298D01*
X147146000Y-103960395D01*
X147959097Y-103147298D01*
X147887514Y-102903329D01*
X147632004Y-102782429D01*
X147357816Y-102713700D01*
X147075488Y-102699783D01*
X146795870Y-102741213D01*
X146529708Y-102836397D01*
X146404486Y-102903329D01*
X146332903Y-103147298D01*
X131790072Y-103147298D01*
X131790072Y-102655000D01*
X131777812Y-102530518D01*
X131741502Y-102410820D01*
X131682537Y-102300506D01*
X131603185Y-102203815D01*
X131506494Y-102124463D01*
X131396180Y-102065498D01*
X131315534Y-102041034D01*
X131399588Y-101965269D01*
X131573641Y-101731920D01*
X131698825Y-101469099D01*
X131743476Y-101321890D01*
X131622155Y-101092000D01*
X130429000Y-101092000D01*
X130429000Y-101112000D01*
X130175000Y-101112000D01*
X130175000Y-101092000D01*
X128981845Y-101092000D01*
X128860524Y-101321890D01*
X128905175Y-101469099D01*
X129030359Y-101731920D01*
X129204412Y-101965269D01*
X129288466Y-102041034D01*
X129207820Y-102065498D01*
X129097506Y-102124463D01*
X129000815Y-102203815D01*
X128921463Y-102300506D01*
X128862498Y-102410820D01*
X128826188Y-102530518D01*
X128813928Y-102655000D01*
X128143000Y-102655000D01*
X128143000Y-93198740D01*
X128817000Y-93198740D01*
X128817000Y-93491260D01*
X128874068Y-93778158D01*
X128986010Y-94048411D01*
X129148525Y-94291632D01*
X129355368Y-94498475D01*
X129529760Y-94615000D01*
X129355368Y-94731525D01*
X129148525Y-94938368D01*
X128986010Y-95181589D01*
X128874068Y-95451842D01*
X128817000Y-95738740D01*
X128817000Y-96031260D01*
X128874068Y-96318158D01*
X128986010Y-96588411D01*
X129148525Y-96831632D01*
X129355368Y-97038475D01*
X129529760Y-97155000D01*
X129355368Y-97271525D01*
X129148525Y-97478368D01*
X128986010Y-97721589D01*
X128874068Y-97991842D01*
X128817000Y-98278740D01*
X128817000Y-98571260D01*
X128874068Y-98858158D01*
X128986010Y-99128411D01*
X129148525Y-99371632D01*
X129355368Y-99578475D01*
X129537534Y-99700195D01*
X129420645Y-99769822D01*
X129204412Y-99964731D01*
X129030359Y-100198080D01*
X128905175Y-100460901D01*
X128860524Y-100608110D01*
X128981845Y-100838000D01*
X130175000Y-100838000D01*
X130175000Y-100818000D01*
X130429000Y-100818000D01*
X130429000Y-100838000D01*
X131622155Y-100838000D01*
X131743476Y-100608110D01*
X131698825Y-100460901D01*
X131573641Y-100198080D01*
X131399588Y-99964731D01*
X131183355Y-99769822D01*
X131066466Y-99700195D01*
X131248632Y-99578475D01*
X131455475Y-99371632D01*
X131580178Y-99185000D01*
X135325198Y-99185000D01*
X134689886Y-99820312D01*
X134507335Y-99784000D01*
X134224665Y-99784000D01*
X133947426Y-99839147D01*
X133686273Y-99947320D01*
X133451241Y-100104363D01*
X133251363Y-100304241D01*
X133094320Y-100539273D01*
X132986147Y-100800426D01*
X132931000Y-101077665D01*
X132931000Y-101360335D01*
X132986147Y-101637574D01*
X133094320Y-101898727D01*
X133251363Y-102133759D01*
X133451241Y-102333637D01*
X133686273Y-102490680D01*
X133947426Y-102598853D01*
X134224665Y-102654000D01*
X134507335Y-102654000D01*
X134784574Y-102598853D01*
X135045727Y-102490680D01*
X135280759Y-102333637D01*
X135480637Y-102133759D01*
X135636000Y-101901241D01*
X135791363Y-102133759D01*
X135991241Y-102333637D01*
X136226273Y-102490680D01*
X136487426Y-102598853D01*
X136764665Y-102654000D01*
X137047335Y-102654000D01*
X137324574Y-102598853D01*
X137585727Y-102490680D01*
X137820759Y-102333637D01*
X138020637Y-102133759D01*
X138176000Y-101901241D01*
X138331363Y-102133759D01*
X138531241Y-102333637D01*
X138766273Y-102490680D01*
X139027426Y-102598853D01*
X139304665Y-102654000D01*
X139587335Y-102654000D01*
X139864574Y-102598853D01*
X140125727Y-102490680D01*
X140360759Y-102333637D01*
X140560637Y-102133759D01*
X140716000Y-101901241D01*
X140871363Y-102133759D01*
X141071241Y-102333637D01*
X141306273Y-102490680D01*
X141567426Y-102598853D01*
X141844665Y-102654000D01*
X142127335Y-102654000D01*
X142404574Y-102598853D01*
X142665727Y-102490680D01*
X142900759Y-102333637D01*
X143100637Y-102133759D01*
X143256000Y-101901241D01*
X143411363Y-102133759D01*
X143611241Y-102333637D01*
X143846273Y-102490680D01*
X144107426Y-102598853D01*
X144384665Y-102654000D01*
X144667335Y-102654000D01*
X144944574Y-102598853D01*
X145205727Y-102490680D01*
X145440759Y-102333637D01*
X145640637Y-102133759D01*
X145796000Y-101901241D01*
X145951363Y-102133759D01*
X146151241Y-102333637D01*
X146386273Y-102490680D01*
X146647426Y-102598853D01*
X146924665Y-102654000D01*
X147207335Y-102654000D01*
X147484574Y-102598853D01*
X147745727Y-102490680D01*
X147980759Y-102333637D01*
X148180637Y-102133759D01*
X148337680Y-101898727D01*
X148342067Y-101888135D01*
X148453615Y-102074131D01*
X148642586Y-102282519D01*
X148868580Y-102450037D01*
X149122913Y-102570246D01*
X149256961Y-102610904D01*
X149479000Y-102488915D01*
X149479000Y-101346000D01*
X149459000Y-101346000D01*
X149459000Y-101092000D01*
X149479000Y-101092000D01*
X149479000Y-101072000D01*
X149733000Y-101072000D01*
X149733000Y-101092000D01*
X149753000Y-101092000D01*
X149753000Y-101346000D01*
X149733000Y-101346000D01*
X149733000Y-102488915D01*
X149955039Y-102610904D01*
X150089087Y-102570246D01*
X150343420Y-102450037D01*
X150569414Y-102282519D01*
X150758385Y-102074131D01*
X150869933Y-101888135D01*
X150874320Y-101898727D01*
X151031363Y-102133759D01*
X151231241Y-102333637D01*
X151466273Y-102490680D01*
X151727426Y-102598853D01*
X152004665Y-102654000D01*
X152287335Y-102654000D01*
X152564574Y-102598853D01*
X152825727Y-102490680D01*
X153060759Y-102333637D01*
X153260637Y-102133759D01*
X153417680Y-101898727D01*
X153525853Y-101637574D01*
X153581000Y-101360335D01*
X153581000Y-101077665D01*
X153525853Y-100800426D01*
X153417680Y-100539273D01*
X153260637Y-100304241D01*
X153060759Y-100104363D01*
X152825727Y-99947320D01*
X152824954Y-99947000D01*
X154769046Y-99947000D01*
X154768273Y-99947320D01*
X154533241Y-100104363D01*
X154333363Y-100304241D01*
X154176320Y-100539273D01*
X154068147Y-100800426D01*
X154013000Y-101077665D01*
X154013000Y-101360335D01*
X154068147Y-101637574D01*
X154176320Y-101898727D01*
X154333363Y-102133759D01*
X154533241Y-102333637D01*
X154768273Y-102490680D01*
X155029426Y-102598853D01*
X155306665Y-102654000D01*
X155589335Y-102654000D01*
X155771886Y-102617688D01*
X156154201Y-103000003D01*
X156177999Y-103029001D01*
X156293724Y-103123974D01*
X156425753Y-103194546D01*
X156569014Y-103238003D01*
X156680667Y-103249000D01*
X156680676Y-103249000D01*
X156717999Y-103252676D01*
X156755322Y-103249000D01*
X167157393Y-103249000D01*
X167235296Y-103326903D01*
X166991329Y-103398486D01*
X166870429Y-103653996D01*
X166801700Y-103928184D01*
X166787783Y-104210512D01*
X166829213Y-104490130D01*
X166924397Y-104756292D01*
X166991329Y-104881514D01*
X167235298Y-104953097D01*
X168048395Y-104140000D01*
X168034253Y-104125858D01*
X168213858Y-103946253D01*
X168228000Y-103960395D01*
X168242143Y-103946253D01*
X168421748Y-104125858D01*
X168407605Y-104140000D01*
X169220702Y-104953097D01*
X169464671Y-104881514D01*
X169585571Y-104626004D01*
X169654300Y-104351816D01*
X169668217Y-104069488D01*
X169626787Y-103789870D01*
X169531603Y-103523708D01*
X169464671Y-103398486D01*
X169220704Y-103326903D01*
X169298607Y-103249000D01*
X172097488Y-103249000D01*
X171956320Y-103460273D01*
X171848147Y-103721426D01*
X171793000Y-103998665D01*
X171793000Y-104281335D01*
X171848147Y-104558574D01*
X171956320Y-104819727D01*
X172113363Y-105054759D01*
X172313241Y-105254637D01*
X172548273Y-105411680D01*
X172809426Y-105519853D01*
X173086665Y-105575000D01*
X173369335Y-105575000D01*
X173646574Y-105519853D01*
X173907727Y-105411680D01*
X174142759Y-105254637D01*
X174342637Y-105054759D01*
X174499680Y-104819727D01*
X174607853Y-104558574D01*
X174663000Y-104281335D01*
X174663000Y-103998665D01*
X174607853Y-103721426D01*
X174499680Y-103460273D01*
X174342637Y-103225241D01*
X174257360Y-103139964D01*
X174287276Y-103123974D01*
X174403001Y-103029001D01*
X174426804Y-102999997D01*
X176104614Y-101322187D01*
X176149175Y-101469099D01*
X176274359Y-101731920D01*
X176448412Y-101965269D01*
X176532466Y-102041034D01*
X176451820Y-102065498D01*
X176341506Y-102124463D01*
X176244815Y-102203815D01*
X176165463Y-102300506D01*
X176106498Y-102410820D01*
X176070188Y-102530518D01*
X176057928Y-102655000D01*
X176057928Y-104355000D01*
X176070188Y-104479482D01*
X176106498Y-104599180D01*
X176165463Y-104709494D01*
X176244815Y-104806185D01*
X176341506Y-104885537D01*
X176451820Y-104944502D01*
X176571518Y-104980812D01*
X176696000Y-104993072D01*
X178396000Y-104993072D01*
X178520482Y-104980812D01*
X178640180Y-104944502D01*
X178750494Y-104885537D01*
X178847185Y-104806185D01*
X178926537Y-104709494D01*
X178985502Y-104599180D01*
X179021812Y-104479482D01*
X179034072Y-104355000D01*
X179034072Y-102655000D01*
X179021812Y-102530518D01*
X178985502Y-102410820D01*
X178926537Y-102300506D01*
X178847185Y-102203815D01*
X178750494Y-102124463D01*
X178640180Y-102065498D01*
X178559534Y-102041034D01*
X178643588Y-101965269D01*
X178817641Y-101731920D01*
X178942825Y-101469099D01*
X178987476Y-101321890D01*
X178866155Y-101092000D01*
X177673000Y-101092000D01*
X177673000Y-101112000D01*
X177419000Y-101112000D01*
X177419000Y-101092000D01*
X177399000Y-101092000D01*
X177399000Y-100838000D01*
X177419000Y-100838000D01*
X177419000Y-100818000D01*
X177673000Y-100818000D01*
X177673000Y-100838000D01*
X178866155Y-100838000D01*
X178987476Y-100608110D01*
X178942825Y-100460901D01*
X178817641Y-100198080D01*
X178718987Y-100065816D01*
X179327002Y-99457801D01*
X179356001Y-99434003D01*
X179450974Y-99318278D01*
X179521546Y-99186249D01*
X179565003Y-99042988D01*
X179576000Y-98931335D01*
X179576000Y-98931324D01*
X179579676Y-98894003D01*
X179576000Y-98856680D01*
X179576000Y-94652322D01*
X179579676Y-94614999D01*
X179576000Y-94577676D01*
X179576000Y-94577667D01*
X179565003Y-94466014D01*
X179521546Y-94322753D01*
X179450974Y-94190724D01*
X179356001Y-94074999D01*
X179327003Y-94051201D01*
X178987210Y-93711408D01*
X179031000Y-93491260D01*
X179031000Y-93198740D01*
X178973932Y-92911842D01*
X178861990Y-92641589D01*
X178699475Y-92398368D01*
X178492632Y-92191525D01*
X178249411Y-92029010D01*
X177979158Y-91917068D01*
X177692260Y-91860000D01*
X177399740Y-91860000D01*
X177112842Y-91917068D01*
X176842589Y-92029010D01*
X176599368Y-92191525D01*
X176392525Y-92398368D01*
X176230010Y-92641589D01*
X176118068Y-92911842D01*
X176061000Y-93198740D01*
X176061000Y-93491260D01*
X176118068Y-93778158D01*
X176230010Y-94048411D01*
X176392525Y-94291632D01*
X176599368Y-94498475D01*
X176773760Y-94615000D01*
X176599368Y-94731525D01*
X176392525Y-94938368D01*
X176230010Y-95181589D01*
X176118068Y-95451842D01*
X176061000Y-95738740D01*
X176061000Y-96031260D01*
X176104791Y-96251408D01*
X175961199Y-96395000D01*
X173919801Y-96395000D01*
X175009004Y-95305798D01*
X175038001Y-95282001D01*
X175082307Y-95228014D01*
X175132974Y-95166277D01*
X175203546Y-95034247D01*
X175232630Y-94938368D01*
X175247003Y-94890986D01*
X175258000Y-94779333D01*
X175258000Y-94779324D01*
X175261676Y-94742001D01*
X175258000Y-94704678D01*
X175258000Y-90592072D01*
X176822000Y-90592072D01*
X176946482Y-90579812D01*
X177066180Y-90543502D01*
X177176494Y-90484537D01*
X177273185Y-90405185D01*
X177352537Y-90308494D01*
X177411502Y-90198180D01*
X177447812Y-90078482D01*
X177460072Y-89954000D01*
X177460072Y-88354000D01*
X177447812Y-88229518D01*
X177411502Y-88109820D01*
X177352537Y-87999506D01*
X177273185Y-87902815D01*
X177176494Y-87823463D01*
X177066180Y-87764498D01*
X176946482Y-87728188D01*
X176822000Y-87715928D01*
X176550948Y-87715928D01*
X176533003Y-87701201D01*
X175188804Y-86357003D01*
X175165001Y-86327999D01*
X175049276Y-86233026D01*
X174917247Y-86162454D01*
X174773986Y-86118997D01*
X174662333Y-86108000D01*
X174662322Y-86108000D01*
X174625000Y-86104324D01*
X174587678Y-86108000D01*
X133768323Y-86108000D01*
X133731000Y-86104324D01*
X133693677Y-86108000D01*
X133693667Y-86108000D01*
X133582014Y-86118997D01*
X133438753Y-86162454D01*
X133306724Y-86233026D01*
X133190999Y-86327999D01*
X133167201Y-86356997D01*
X131808271Y-87715928D01*
X131026000Y-87715928D01*
X130901518Y-87728188D01*
X130781820Y-87764498D01*
X130671506Y-87823463D01*
X130574815Y-87902815D01*
X130495463Y-87999506D01*
X130436498Y-88109820D01*
X130400188Y-88229518D01*
X130387928Y-88354000D01*
X130387928Y-89954000D01*
X130400188Y-90078482D01*
X130436498Y-90198180D01*
X130495463Y-90308494D01*
X130574815Y-90405185D01*
X130671506Y-90484537D01*
X130781820Y-90543502D01*
X130901518Y-90579812D01*
X131026000Y-90592072D01*
X132626000Y-90592072D01*
X132750482Y-90579812D01*
X132870180Y-90543502D01*
X132980494Y-90484537D01*
X133077185Y-90405185D01*
X133156537Y-90308494D01*
X133215502Y-90198180D01*
X133251812Y-90078482D01*
X133252643Y-90070039D01*
X133451241Y-90268637D01*
X133686273Y-90425680D01*
X133947426Y-90533853D01*
X134224665Y-90589000D01*
X134507335Y-90589000D01*
X134784574Y-90533853D01*
X135045727Y-90425680D01*
X135280759Y-90268637D01*
X135480637Y-90068759D01*
X135636000Y-89836241D01*
X135791363Y-90068759D01*
X135991241Y-90268637D01*
X136226273Y-90425680D01*
X136487426Y-90533853D01*
X136764665Y-90589000D01*
X137047335Y-90589000D01*
X137324574Y-90533853D01*
X137585727Y-90425680D01*
X137820759Y-90268637D01*
X138020637Y-90068759D01*
X138176000Y-89836241D01*
X138331363Y-90068759D01*
X138531241Y-90268637D01*
X138766273Y-90425680D01*
X139027426Y-90533853D01*
X139304665Y-90589000D01*
X139587335Y-90589000D01*
X139864574Y-90533853D01*
X140125727Y-90425680D01*
X140360759Y-90268637D01*
X140560637Y-90068759D01*
X140716000Y-89836241D01*
X140871363Y-90068759D01*
X141071241Y-90268637D01*
X141306273Y-90425680D01*
X141567426Y-90533853D01*
X141844665Y-90589000D01*
X142127335Y-90589000D01*
X142404574Y-90533853D01*
X142665727Y-90425680D01*
X142900759Y-90268637D01*
X143100637Y-90068759D01*
X143256000Y-89836241D01*
X143411363Y-90068759D01*
X143611241Y-90268637D01*
X143846273Y-90425680D01*
X144107426Y-90533853D01*
X144384665Y-90589000D01*
X144667335Y-90589000D01*
X144849886Y-90552688D01*
X146306001Y-92008804D01*
X146306001Y-92380956D01*
X146151241Y-92484363D01*
X145951363Y-92684241D01*
X145796000Y-92916759D01*
X145640637Y-92684241D01*
X145440759Y-92484363D01*
X145205727Y-92327320D01*
X144944574Y-92219147D01*
X144667335Y-92164000D01*
X144384665Y-92164000D01*
X144107426Y-92219147D01*
X143846273Y-92327320D01*
X143611241Y-92484363D01*
X143411363Y-92684241D01*
X143256000Y-92916759D01*
X143100637Y-92684241D01*
X142900759Y-92484363D01*
X142665727Y-92327320D01*
X142404574Y-92219147D01*
X142127335Y-92164000D01*
X141844665Y-92164000D01*
X141567426Y-92219147D01*
X141306273Y-92327320D01*
X141071241Y-92484363D01*
X140871363Y-92684241D01*
X140716000Y-92916759D01*
X140560637Y-92684241D01*
X140360759Y-92484363D01*
X140125727Y-92327320D01*
X139864574Y-92219147D01*
X139587335Y-92164000D01*
X139304665Y-92164000D01*
X139027426Y-92219147D01*
X138766273Y-92327320D01*
X138531241Y-92484363D01*
X138331363Y-92684241D01*
X138176000Y-92916759D01*
X138020637Y-92684241D01*
X137820759Y-92484363D01*
X137585727Y-92327320D01*
X137324574Y-92219147D01*
X137047335Y-92164000D01*
X136764665Y-92164000D01*
X136487426Y-92219147D01*
X136226273Y-92327320D01*
X135991241Y-92484363D01*
X135791363Y-92684241D01*
X135634320Y-92919273D01*
X135629933Y-92929865D01*
X135518385Y-92743869D01*
X135329414Y-92535481D01*
X135103420Y-92367963D01*
X134849087Y-92247754D01*
X134715039Y-92207096D01*
X134493000Y-92329085D01*
X134493000Y-93472000D01*
X134513000Y-93472000D01*
X134513000Y-93726000D01*
X134493000Y-93726000D01*
X134493000Y-94868915D01*
X134715039Y-94990904D01*
X134849087Y-94950246D01*
X135103420Y-94830037D01*
X135329414Y-94662519D01*
X135518385Y-94454131D01*
X135629933Y-94268135D01*
X135634320Y-94278727D01*
X135791363Y-94513759D01*
X135991241Y-94713637D01*
X136226273Y-94870680D01*
X136487426Y-94978853D01*
X136764665Y-95034000D01*
X137047335Y-95034000D01*
X137324574Y-94978853D01*
X137585727Y-94870680D01*
X137820759Y-94713637D01*
X138020637Y-94513759D01*
X138176000Y-94281241D01*
X138331363Y-94513759D01*
X138531241Y-94713637D01*
X138766273Y-94870680D01*
X139027426Y-94978853D01*
X139304665Y-95034000D01*
X139587335Y-95034000D01*
X139769886Y-94997688D01*
X141167198Y-96395000D01*
X131886802Y-96395000D01*
X131743210Y-96251408D01*
X131787000Y-96031260D01*
X131787000Y-95738740D01*
X131729932Y-95451842D01*
X131617990Y-95181589D01*
X131455475Y-94938368D01*
X131248632Y-94731525D01*
X131074240Y-94615000D01*
X131248632Y-94498475D01*
X131455475Y-94291632D01*
X131617990Y-94048411D01*
X131659564Y-93948040D01*
X132974091Y-93948040D01*
X133068930Y-94212881D01*
X133213615Y-94454131D01*
X133402586Y-94662519D01*
X133628580Y-94830037D01*
X133882913Y-94950246D01*
X134016961Y-94990904D01*
X134239000Y-94868915D01*
X134239000Y-93726000D01*
X133095376Y-93726000D01*
X132974091Y-93948040D01*
X131659564Y-93948040D01*
X131729932Y-93778158D01*
X131787000Y-93491260D01*
X131787000Y-93249960D01*
X132974091Y-93249960D01*
X133095376Y-93472000D01*
X134239000Y-93472000D01*
X134239000Y-92329085D01*
X134016961Y-92207096D01*
X133882913Y-92247754D01*
X133628580Y-92367963D01*
X133402586Y-92535481D01*
X133213615Y-92743869D01*
X133068930Y-92985119D01*
X132974091Y-93249960D01*
X131787000Y-93249960D01*
X131787000Y-93198740D01*
X131729932Y-92911842D01*
X131617990Y-92641589D01*
X131455475Y-92398368D01*
X131248632Y-92191525D01*
X131005411Y-92029010D01*
X130735158Y-91917068D01*
X130448260Y-91860000D01*
X130155740Y-91860000D01*
X129868842Y-91917068D01*
X129598589Y-92029010D01*
X129355368Y-92191525D01*
X129148525Y-92398368D01*
X128986010Y-92641589D01*
X128874068Y-92911842D01*
X128817000Y-93198740D01*
X128143000Y-93198740D01*
X128143000Y-84054740D01*
X130849000Y-84054740D01*
X130849000Y-84347260D01*
X130906068Y-84634158D01*
X131018010Y-84904411D01*
X131180525Y-85147632D01*
X131387368Y-85354475D01*
X131630589Y-85516990D01*
X131900842Y-85628932D01*
X132187740Y-85686000D01*
X132480260Y-85686000D01*
X132767158Y-85628932D01*
X133037411Y-85516990D01*
X133280632Y-85354475D01*
X133487475Y-85147632D01*
X133604000Y-84973240D01*
X133720525Y-85147632D01*
X133927368Y-85354475D01*
X134170589Y-85516990D01*
X134440842Y-85628932D01*
X134727740Y-85686000D01*
X135020260Y-85686000D01*
X135307158Y-85628932D01*
X135577411Y-85516990D01*
X135820632Y-85354475D01*
X136027475Y-85147632D01*
X136144000Y-84973240D01*
X136260525Y-85147632D01*
X136467368Y-85354475D01*
X136710589Y-85516990D01*
X136980842Y-85628932D01*
X137267740Y-85686000D01*
X137560260Y-85686000D01*
X137847158Y-85628932D01*
X138117411Y-85516990D01*
X138360632Y-85354475D01*
X138567475Y-85147632D01*
X138684000Y-84973240D01*
X138800525Y-85147632D01*
X139007368Y-85354475D01*
X139250589Y-85516990D01*
X139520842Y-85628932D01*
X139807740Y-85686000D01*
X140100260Y-85686000D01*
X140387158Y-85628932D01*
X140657411Y-85516990D01*
X140900632Y-85354475D01*
X141107475Y-85147632D01*
X141224000Y-84973240D01*
X141340525Y-85147632D01*
X141547368Y-85354475D01*
X141790589Y-85516990D01*
X142060842Y-85628932D01*
X142347740Y-85686000D01*
X142640260Y-85686000D01*
X142927158Y-85628932D01*
X143197411Y-85516990D01*
X143440632Y-85354475D01*
X143647475Y-85147632D01*
X143764000Y-84973240D01*
X143880525Y-85147632D01*
X144087368Y-85354475D01*
X144330589Y-85516990D01*
X144600842Y-85628932D01*
X144887740Y-85686000D01*
X145180260Y-85686000D01*
X145467158Y-85628932D01*
X145737411Y-85516990D01*
X145980632Y-85354475D01*
X146187475Y-85147632D01*
X146304000Y-84973240D01*
X146420525Y-85147632D01*
X146627368Y-85354475D01*
X146870589Y-85516990D01*
X147140842Y-85628932D01*
X147427740Y-85686000D01*
X147720260Y-85686000D01*
X148007158Y-85628932D01*
X148277411Y-85516990D01*
X148520632Y-85354475D01*
X148727475Y-85147632D01*
X148844000Y-84973240D01*
X148960525Y-85147632D01*
X149167368Y-85354475D01*
X149410589Y-85516990D01*
X149680842Y-85628932D01*
X149967740Y-85686000D01*
X150260260Y-85686000D01*
X150547158Y-85628932D01*
X150817411Y-85516990D01*
X151060632Y-85354475D01*
X151267475Y-85147632D01*
X151384000Y-84973240D01*
X151500525Y-85147632D01*
X151707368Y-85354475D01*
X151950589Y-85516990D01*
X152220842Y-85628932D01*
X152507740Y-85686000D01*
X152800260Y-85686000D01*
X153087158Y-85628932D01*
X153357411Y-85516990D01*
X153600632Y-85354475D01*
X153807475Y-85147632D01*
X153924000Y-84973240D01*
X154040525Y-85147632D01*
X154247368Y-85354475D01*
X154490589Y-85516990D01*
X154760842Y-85628932D01*
X155047740Y-85686000D01*
X155340260Y-85686000D01*
X155627158Y-85628932D01*
X155897411Y-85516990D01*
X156140632Y-85354475D01*
X156347475Y-85147632D01*
X156464000Y-84973240D01*
X156580525Y-85147632D01*
X156787368Y-85354475D01*
X157030589Y-85516990D01*
X157300842Y-85628932D01*
X157587740Y-85686000D01*
X157880260Y-85686000D01*
X158167158Y-85628932D01*
X158437411Y-85516990D01*
X158680632Y-85354475D01*
X158887475Y-85147632D01*
X159004000Y-84973240D01*
X159120525Y-85147632D01*
X159327368Y-85354475D01*
X159570589Y-85516990D01*
X159840842Y-85628932D01*
X160127740Y-85686000D01*
X160420260Y-85686000D01*
X160707158Y-85628932D01*
X160977411Y-85516990D01*
X161220632Y-85354475D01*
X161427475Y-85147632D01*
X161544000Y-84973240D01*
X161660525Y-85147632D01*
X161867368Y-85354475D01*
X162110589Y-85516990D01*
X162380842Y-85628932D01*
X162667740Y-85686000D01*
X162960260Y-85686000D01*
X163247158Y-85628932D01*
X163517411Y-85516990D01*
X163760632Y-85354475D01*
X163967475Y-85147632D01*
X164084000Y-84973240D01*
X164200525Y-85147632D01*
X164407368Y-85354475D01*
X164650589Y-85516990D01*
X164920842Y-85628932D01*
X165207740Y-85686000D01*
X165500260Y-85686000D01*
X165787158Y-85628932D01*
X166057411Y-85516990D01*
X166300632Y-85354475D01*
X166507475Y-85147632D01*
X166624000Y-84973240D01*
X166740525Y-85147632D01*
X166947368Y-85354475D01*
X167190589Y-85516990D01*
X167460842Y-85628932D01*
X167747740Y-85686000D01*
X168040260Y-85686000D01*
X168327158Y-85628932D01*
X168597411Y-85516990D01*
X168840632Y-85354475D01*
X169047475Y-85147632D01*
X169164000Y-84973240D01*
X169280525Y-85147632D01*
X169487368Y-85354475D01*
X169730589Y-85516990D01*
X170000842Y-85628932D01*
X170287740Y-85686000D01*
X170580260Y-85686000D01*
X170867158Y-85628932D01*
X171137411Y-85516990D01*
X171380632Y-85354475D01*
X171587475Y-85147632D01*
X171704000Y-84973240D01*
X171820525Y-85147632D01*
X172027368Y-85354475D01*
X172270589Y-85516990D01*
X172540842Y-85628932D01*
X172827740Y-85686000D01*
X173120260Y-85686000D01*
X173407158Y-85628932D01*
X173677411Y-85516990D01*
X173920632Y-85354475D01*
X174052487Y-85222620D01*
X174074498Y-85295180D01*
X174133463Y-85405494D01*
X174212815Y-85502185D01*
X174309506Y-85581537D01*
X174419820Y-85640502D01*
X174539518Y-85676812D01*
X174664000Y-85689072D01*
X176364000Y-85689072D01*
X176488482Y-85676812D01*
X176608180Y-85640502D01*
X176718494Y-85581537D01*
X176815185Y-85502185D01*
X176894537Y-85405494D01*
X176953502Y-85295180D01*
X176989812Y-85175482D01*
X177002072Y-85051000D01*
X177002072Y-83351000D01*
X176989812Y-83226518D01*
X176953502Y-83106820D01*
X176894537Y-82996506D01*
X176815185Y-82899815D01*
X176718494Y-82820463D01*
X176608180Y-82761498D01*
X176488482Y-82725188D01*
X176364000Y-82712928D01*
X174664000Y-82712928D01*
X174539518Y-82725188D01*
X174419820Y-82761498D01*
X174309506Y-82820463D01*
X174212815Y-82899815D01*
X174133463Y-82996506D01*
X174074498Y-83106820D01*
X174052487Y-83179380D01*
X173920632Y-83047525D01*
X173677411Y-82885010D01*
X173407158Y-82773068D01*
X173120260Y-82716000D01*
X172827740Y-82716000D01*
X172540842Y-82773068D01*
X172270589Y-82885010D01*
X172027368Y-83047525D01*
X171820525Y-83254368D01*
X171704000Y-83428760D01*
X171587475Y-83254368D01*
X171380632Y-83047525D01*
X171137411Y-82885010D01*
X170867158Y-82773068D01*
X170580260Y-82716000D01*
X170287740Y-82716000D01*
X170000842Y-82773068D01*
X169730589Y-82885010D01*
X169487368Y-83047525D01*
X169280525Y-83254368D01*
X169164000Y-83428760D01*
X169047475Y-83254368D01*
X168840632Y-83047525D01*
X168597411Y-82885010D01*
X168327158Y-82773068D01*
X168040260Y-82716000D01*
X167747740Y-82716000D01*
X167460842Y-82773068D01*
X167190589Y-82885010D01*
X166947368Y-83047525D01*
X166740525Y-83254368D01*
X166624000Y-83428760D01*
X166507475Y-83254368D01*
X166300632Y-83047525D01*
X166057411Y-82885010D01*
X165787158Y-82773068D01*
X165500260Y-82716000D01*
X165207740Y-82716000D01*
X164920842Y-82773068D01*
X164650589Y-82885010D01*
X164407368Y-83047525D01*
X164200525Y-83254368D01*
X164084000Y-83428760D01*
X163967475Y-83254368D01*
X163760632Y-83047525D01*
X163517411Y-82885010D01*
X163247158Y-82773068D01*
X162960260Y-82716000D01*
X162667740Y-82716000D01*
X162380842Y-82773068D01*
X162110589Y-82885010D01*
X161867368Y-83047525D01*
X161660525Y-83254368D01*
X161544000Y-83428760D01*
X161427475Y-83254368D01*
X161220632Y-83047525D01*
X160977411Y-82885010D01*
X160707158Y-82773068D01*
X160420260Y-82716000D01*
X160127740Y-82716000D01*
X159840842Y-82773068D01*
X159570589Y-82885010D01*
X159327368Y-83047525D01*
X159120525Y-83254368D01*
X159004000Y-83428760D01*
X158887475Y-83254368D01*
X158680632Y-83047525D01*
X158437411Y-82885010D01*
X158167158Y-82773068D01*
X157880260Y-82716000D01*
X157587740Y-82716000D01*
X157300842Y-82773068D01*
X157030589Y-82885010D01*
X156787368Y-83047525D01*
X156580525Y-83254368D01*
X156464000Y-83428760D01*
X156347475Y-83254368D01*
X156140632Y-83047525D01*
X155897411Y-82885010D01*
X155627158Y-82773068D01*
X155340260Y-82716000D01*
X155047740Y-82716000D01*
X154760842Y-82773068D01*
X154490589Y-82885010D01*
X154247368Y-83047525D01*
X154040525Y-83254368D01*
X153924000Y-83428760D01*
X153807475Y-83254368D01*
X153600632Y-83047525D01*
X153357411Y-82885010D01*
X153087158Y-82773068D01*
X152800260Y-82716000D01*
X152507740Y-82716000D01*
X152220842Y-82773068D01*
X151950589Y-82885010D01*
X151707368Y-83047525D01*
X151500525Y-83254368D01*
X151384000Y-83428760D01*
X151267475Y-83254368D01*
X151060632Y-83047525D01*
X150817411Y-82885010D01*
X150547158Y-82773068D01*
X150260260Y-82716000D01*
X149967740Y-82716000D01*
X149680842Y-82773068D01*
X149410589Y-82885010D01*
X149167368Y-83047525D01*
X148960525Y-83254368D01*
X148844000Y-83428760D01*
X148727475Y-83254368D01*
X148520632Y-83047525D01*
X148277411Y-82885010D01*
X148007158Y-82773068D01*
X147720260Y-82716000D01*
X147427740Y-82716000D01*
X147140842Y-82773068D01*
X146870589Y-82885010D01*
X146627368Y-83047525D01*
X146420525Y-83254368D01*
X146304000Y-83428760D01*
X146187475Y-83254368D01*
X145980632Y-83047525D01*
X145737411Y-82885010D01*
X145467158Y-82773068D01*
X145180260Y-82716000D01*
X144887740Y-82716000D01*
X144600842Y-82773068D01*
X144330589Y-82885010D01*
X144087368Y-83047525D01*
X143880525Y-83254368D01*
X143764000Y-83428760D01*
X143647475Y-83254368D01*
X143440632Y-83047525D01*
X143197411Y-82885010D01*
X142927158Y-82773068D01*
X142640260Y-82716000D01*
X142347740Y-82716000D01*
X142060842Y-82773068D01*
X141790589Y-82885010D01*
X141547368Y-83047525D01*
X141340525Y-83254368D01*
X141224000Y-83428760D01*
X141107475Y-83254368D01*
X140900632Y-83047525D01*
X140657411Y-82885010D01*
X140387158Y-82773068D01*
X140100260Y-82716000D01*
X139807740Y-82716000D01*
X139520842Y-82773068D01*
X139250589Y-82885010D01*
X139007368Y-83047525D01*
X138800525Y-83254368D01*
X138684000Y-83428760D01*
X138567475Y-83254368D01*
X138360632Y-83047525D01*
X138117411Y-82885010D01*
X137847158Y-82773068D01*
X137560260Y-82716000D01*
X137267740Y-82716000D01*
X136980842Y-82773068D01*
X136710589Y-82885010D01*
X136467368Y-83047525D01*
X136260525Y-83254368D01*
X136144000Y-83428760D01*
X136027475Y-83254368D01*
X135820632Y-83047525D01*
X135577411Y-82885010D01*
X135307158Y-82773068D01*
X135020260Y-82716000D01*
X134727740Y-82716000D01*
X134440842Y-82773068D01*
X134170589Y-82885010D01*
X133927368Y-83047525D01*
X133720525Y-83254368D01*
X133604000Y-83428760D01*
X133487475Y-83254368D01*
X133280632Y-83047525D01*
X133037411Y-82885010D01*
X132767158Y-82773068D01*
X132480260Y-82716000D01*
X132187740Y-82716000D01*
X131900842Y-82773068D01*
X131630589Y-82885010D01*
X131387368Y-83047525D01*
X131180525Y-83254368D01*
X131018010Y-83497589D01*
X130906068Y-83767842D01*
X130849000Y-84054740D01*
X128143000Y-84054740D01*
X128143000Y-82994935D01*
X128172644Y-83014742D01*
X128502811Y-83151502D01*
X128853315Y-83221222D01*
X129210685Y-83221222D01*
X129561189Y-83151502D01*
X129891356Y-83014742D01*
X130188499Y-82816198D01*
X130441198Y-82563499D01*
X130639742Y-82266356D01*
X130776502Y-81936189D01*
X130846222Y-81585685D01*
X130846222Y-81228315D01*
X130776502Y-80877811D01*
X130639742Y-80547644D01*
X130619935Y-80518000D01*
X177228065Y-80518000D01*
X177208258Y-80547644D01*
%TA.AperFunction,Conductor*%
D18*
G36*
X177208258Y-80547644D02*
G01*
X177071498Y-80877811D01*
X177001778Y-81228315D01*
X177001778Y-81585685D01*
X177071498Y-81936189D01*
X177208258Y-82266356D01*
X177406802Y-82563499D01*
X177659501Y-82816198D01*
X177956644Y-83014742D01*
X178286811Y-83151502D01*
X178637315Y-83221222D01*
X178994685Y-83221222D01*
X179345189Y-83151502D01*
X179675356Y-83014742D01*
X179705000Y-82994935D01*
X179705000Y-105473065D01*
X179675356Y-105453258D01*
X179345189Y-105316498D01*
X178994685Y-105246778D01*
X178637315Y-105246778D01*
X178286811Y-105316498D01*
X177956644Y-105453258D01*
X177659501Y-105651802D01*
X177406802Y-105904501D01*
X177208258Y-106201644D01*
X177071498Y-106531811D01*
X177001778Y-106882315D01*
X177001778Y-107239685D01*
X177071498Y-107590189D01*
X177208258Y-107920356D01*
X177228065Y-107950000D01*
X130619935Y-107950000D01*
X130639742Y-107920356D01*
X130776502Y-107590189D01*
X130846222Y-107239685D01*
X130846222Y-106882315D01*
X130776502Y-106531811D01*
X130639742Y-106201644D01*
X130441198Y-105904501D01*
X130188499Y-105651802D01*
X129891356Y-105453258D01*
X129561189Y-105316498D01*
X129210685Y-105246778D01*
X128853315Y-105246778D01*
X128502811Y-105316498D01*
X128172644Y-105453258D01*
X128143000Y-105473065D01*
X128143000Y-105132702D01*
X146332903Y-105132702D01*
X146404486Y-105376671D01*
X146659996Y-105497571D01*
X146934184Y-105566300D01*
X147216512Y-105580217D01*
X147496130Y-105538787D01*
X147762292Y-105443603D01*
X147887514Y-105376671D01*
X147959097Y-105132702D01*
X147146000Y-104319605D01*
X146332903Y-105132702D01*
X128143000Y-105132702D01*
X128143000Y-102655000D01*
X128813928Y-102655000D01*
X128813928Y-104355000D01*
X128826188Y-104479482D01*
X128862498Y-104599180D01*
X128921463Y-104709494D01*
X129000815Y-104806185D01*
X129097506Y-104885537D01*
X129207820Y-104944502D01*
X129327518Y-104980812D01*
X129452000Y-104993072D01*
X131152000Y-104993072D01*
X131276482Y-104980812D01*
X131396180Y-104944502D01*
X131506494Y-104885537D01*
X131603185Y-104806185D01*
X131682537Y-104709494D01*
X131741502Y-104599180D01*
X131777812Y-104479482D01*
X131790072Y-104355000D01*
X131790072Y-104210512D01*
X145705783Y-104210512D01*
X145747213Y-104490130D01*
X145842397Y-104756292D01*
X145909329Y-104881514D01*
X146153298Y-104953097D01*
X146966395Y-104140000D01*
X147325605Y-104140000D01*
X148138702Y-104953097D01*
X148382671Y-104881514D01*
X148503571Y-104626004D01*
X148572300Y-104351816D01*
X148586217Y-104069488D01*
X148575724Y-103998665D01*
X150711000Y-103998665D01*
X150711000Y-104281335D01*
X150766147Y-104558574D01*
X150874320Y-104819727D01*
X151031363Y-105054759D01*
X151231241Y-105254637D01*
X151466273Y-105411680D01*
X151727426Y-105519853D01*
X152004665Y-105575000D01*
X152287335Y-105575000D01*
X152564574Y-105519853D01*
X152825727Y-105411680D01*
X153060759Y-105254637D01*
X153182694Y-105132702D01*
X167414903Y-105132702D01*
X167486486Y-105376671D01*
X167741996Y-105497571D01*
X168016184Y-105566300D01*
X168298512Y-105580217D01*
X168578130Y-105538787D01*
X168844292Y-105443603D01*
X168969514Y-105376671D01*
X169041097Y-105132702D01*
X168228000Y-104319605D01*
X167414903Y-105132702D01*
X153182694Y-105132702D01*
X153260637Y-105054759D01*
X153417680Y-104819727D01*
X153525853Y-104558574D01*
X153581000Y-104281335D01*
X153581000Y-103998665D01*
X153525853Y-103721426D01*
X153417680Y-103460273D01*
X153260637Y-103225241D01*
X153060759Y-103025363D01*
X152825727Y-102868320D01*
X152564574Y-102760147D01*
X152287335Y-102705000D01*
X152004665Y-102705000D01*
X151727426Y-102760147D01*
X151466273Y-102868320D01*
X151231241Y-103025363D01*
X151031363Y-103225241D01*
X150874320Y-103460273D01*
X150766147Y-103721426D01*
X150711000Y-103998665D01*
X148575724Y-103998665D01*
X148544787Y-103789870D01*
X148449603Y-103523708D01*
X148382671Y-103398486D01*
X148138702Y-103326903D01*
X147325605Y-104140000D01*
X146966395Y-104140000D01*
X146153298Y-103326903D01*
X145909329Y-103398486D01*
X145788429Y-103653996D01*
X145719700Y-103928184D01*
X145705783Y-104210512D01*
X131790072Y-104210512D01*
X131790072Y-103147298D01*
X146332903Y-103147298D01*
X147146000Y-103960395D01*
X147959097Y-103147298D01*
X147887514Y-102903329D01*
X147632004Y-102782429D01*
X147357816Y-102713700D01*
X147075488Y-102699783D01*
X146795870Y-102741213D01*
X146529708Y-102836397D01*
X146404486Y-102903329D01*
X146332903Y-103147298D01*
X131790072Y-103147298D01*
X131790072Y-102655000D01*
X131777812Y-102530518D01*
X131741502Y-102410820D01*
X131682537Y-102300506D01*
X131603185Y-102203815D01*
X131506494Y-102124463D01*
X131396180Y-102065498D01*
X131315534Y-102041034D01*
X131399588Y-101965269D01*
X131573641Y-101731920D01*
X131698825Y-101469099D01*
X131743476Y-101321890D01*
X131622155Y-101092000D01*
X130429000Y-101092000D01*
X130429000Y-101112000D01*
X130175000Y-101112000D01*
X130175000Y-101092000D01*
X128981845Y-101092000D01*
X128860524Y-101321890D01*
X128905175Y-101469099D01*
X129030359Y-101731920D01*
X129204412Y-101965269D01*
X129288466Y-102041034D01*
X129207820Y-102065498D01*
X129097506Y-102124463D01*
X129000815Y-102203815D01*
X128921463Y-102300506D01*
X128862498Y-102410820D01*
X128826188Y-102530518D01*
X128813928Y-102655000D01*
X128143000Y-102655000D01*
X128143000Y-93198740D01*
X128817000Y-93198740D01*
X128817000Y-93491260D01*
X128874068Y-93778158D01*
X128986010Y-94048411D01*
X129148525Y-94291632D01*
X129355368Y-94498475D01*
X129529760Y-94615000D01*
X129355368Y-94731525D01*
X129148525Y-94938368D01*
X128986010Y-95181589D01*
X128874068Y-95451842D01*
X128817000Y-95738740D01*
X128817000Y-96031260D01*
X128874068Y-96318158D01*
X128986010Y-96588411D01*
X129148525Y-96831632D01*
X129355368Y-97038475D01*
X129529760Y-97155000D01*
X129355368Y-97271525D01*
X129148525Y-97478368D01*
X128986010Y-97721589D01*
X128874068Y-97991842D01*
X128817000Y-98278740D01*
X128817000Y-98571260D01*
X128874068Y-98858158D01*
X128986010Y-99128411D01*
X129148525Y-99371632D01*
X129355368Y-99578475D01*
X129537534Y-99700195D01*
X129420645Y-99769822D01*
X129204412Y-99964731D01*
X129030359Y-100198080D01*
X128905175Y-100460901D01*
X128860524Y-100608110D01*
X128981845Y-100838000D01*
X130175000Y-100838000D01*
X130175000Y-100818000D01*
X130429000Y-100818000D01*
X130429000Y-100838000D01*
X131622155Y-100838000D01*
X131743476Y-100608110D01*
X131698825Y-100460901D01*
X131573641Y-100198080D01*
X131399588Y-99964731D01*
X131183355Y-99769822D01*
X131066466Y-99700195D01*
X131248632Y-99578475D01*
X131455475Y-99371632D01*
X131580178Y-99185000D01*
X135325198Y-99185000D01*
X134689886Y-99820312D01*
X134507335Y-99784000D01*
X134224665Y-99784000D01*
X133947426Y-99839147D01*
X133686273Y-99947320D01*
X133451241Y-100104363D01*
X133251363Y-100304241D01*
X133094320Y-100539273D01*
X132986147Y-100800426D01*
X132931000Y-101077665D01*
X132931000Y-101360335D01*
X132986147Y-101637574D01*
X133094320Y-101898727D01*
X133251363Y-102133759D01*
X133451241Y-102333637D01*
X133686273Y-102490680D01*
X133947426Y-102598853D01*
X134224665Y-102654000D01*
X134507335Y-102654000D01*
X134784574Y-102598853D01*
X135045727Y-102490680D01*
X135280759Y-102333637D01*
X135480637Y-102133759D01*
X135636000Y-101901241D01*
X135791363Y-102133759D01*
X135991241Y-102333637D01*
X136226273Y-102490680D01*
X136487426Y-102598853D01*
X136764665Y-102654000D01*
X137047335Y-102654000D01*
X137324574Y-102598853D01*
X137585727Y-102490680D01*
X137820759Y-102333637D01*
X138020637Y-102133759D01*
X138176000Y-101901241D01*
X138331363Y-102133759D01*
X138531241Y-102333637D01*
X138766273Y-102490680D01*
X139027426Y-102598853D01*
X139304665Y-102654000D01*
X139587335Y-102654000D01*
X139864574Y-102598853D01*
X140125727Y-102490680D01*
X140360759Y-102333637D01*
X140560637Y-102133759D01*
X140716000Y-101901241D01*
X140871363Y-102133759D01*
X141071241Y-102333637D01*
X141306273Y-102490680D01*
X141567426Y-102598853D01*
X141844665Y-102654000D01*
X142127335Y-102654000D01*
X142404574Y-102598853D01*
X142665727Y-102490680D01*
X142900759Y-102333637D01*
X143100637Y-102133759D01*
X143256000Y-101901241D01*
X143411363Y-102133759D01*
X143611241Y-102333637D01*
X143846273Y-102490680D01*
X144107426Y-102598853D01*
X144384665Y-102654000D01*
X144667335Y-102654000D01*
X144944574Y-102598853D01*
X145205727Y-102490680D01*
X145440759Y-102333637D01*
X145640637Y-102133759D01*
X145796000Y-101901241D01*
X145951363Y-102133759D01*
X146151241Y-102333637D01*
X146386273Y-102490680D01*
X146647426Y-102598853D01*
X146924665Y-102654000D01*
X147207335Y-102654000D01*
X147484574Y-102598853D01*
X147745727Y-102490680D01*
X147980759Y-102333637D01*
X148180637Y-102133759D01*
X148337680Y-101898727D01*
X148342067Y-101888135D01*
X148453615Y-102074131D01*
X148642586Y-102282519D01*
X148868580Y-102450037D01*
X149122913Y-102570246D01*
X149256961Y-102610904D01*
X149479000Y-102488915D01*
X149479000Y-101346000D01*
X149459000Y-101346000D01*
X149459000Y-101092000D01*
X149479000Y-101092000D01*
X149479000Y-101072000D01*
X149733000Y-101072000D01*
X149733000Y-101092000D01*
X149753000Y-101092000D01*
X149753000Y-101346000D01*
X149733000Y-101346000D01*
X149733000Y-102488915D01*
X149955039Y-102610904D01*
X150089087Y-102570246D01*
X150343420Y-102450037D01*
X150569414Y-102282519D01*
X150758385Y-102074131D01*
X150869933Y-101888135D01*
X150874320Y-101898727D01*
X151031363Y-102133759D01*
X151231241Y-102333637D01*
X151466273Y-102490680D01*
X151727426Y-102598853D01*
X152004665Y-102654000D01*
X152287335Y-102654000D01*
X152564574Y-102598853D01*
X152825727Y-102490680D01*
X153060759Y-102333637D01*
X153260637Y-102133759D01*
X153417680Y-101898727D01*
X153525853Y-101637574D01*
X153581000Y-101360335D01*
X153581000Y-101077665D01*
X153525853Y-100800426D01*
X153417680Y-100539273D01*
X153260637Y-100304241D01*
X153060759Y-100104363D01*
X152825727Y-99947320D01*
X152824954Y-99947000D01*
X154769046Y-99947000D01*
X154768273Y-99947320D01*
X154533241Y-100104363D01*
X154333363Y-100304241D01*
X154176320Y-100539273D01*
X154068147Y-100800426D01*
X154013000Y-101077665D01*
X154013000Y-101360335D01*
X154068147Y-101637574D01*
X154176320Y-101898727D01*
X154333363Y-102133759D01*
X154533241Y-102333637D01*
X154768273Y-102490680D01*
X155029426Y-102598853D01*
X155306665Y-102654000D01*
X155589335Y-102654000D01*
X155771886Y-102617688D01*
X156154201Y-103000003D01*
X156177999Y-103029001D01*
X156293724Y-103123974D01*
X156425753Y-103194546D01*
X156569014Y-103238003D01*
X156680667Y-103249000D01*
X156680676Y-103249000D01*
X156717999Y-103252676D01*
X156755322Y-103249000D01*
X167157393Y-103249000D01*
X167235296Y-103326903D01*
X166991329Y-103398486D01*
X166870429Y-103653996D01*
X166801700Y-103928184D01*
X166787783Y-104210512D01*
X166829213Y-104490130D01*
X166924397Y-104756292D01*
X166991329Y-104881514D01*
X167235298Y-104953097D01*
X168048395Y-104140000D01*
X168034253Y-104125858D01*
X168213858Y-103946253D01*
X168228000Y-103960395D01*
X168242143Y-103946253D01*
X168421748Y-104125858D01*
X168407605Y-104140000D01*
X169220702Y-104953097D01*
X169464671Y-104881514D01*
X169585571Y-104626004D01*
X169654300Y-104351816D01*
X169668217Y-104069488D01*
X169626787Y-103789870D01*
X169531603Y-103523708D01*
X169464671Y-103398486D01*
X169220704Y-103326903D01*
X169298607Y-103249000D01*
X172097488Y-103249000D01*
X171956320Y-103460273D01*
X171848147Y-103721426D01*
X171793000Y-103998665D01*
X171793000Y-104281335D01*
X171848147Y-104558574D01*
X171956320Y-104819727D01*
X172113363Y-105054759D01*
X172313241Y-105254637D01*
X172548273Y-105411680D01*
X172809426Y-105519853D01*
X173086665Y-105575000D01*
X173369335Y-105575000D01*
X173646574Y-105519853D01*
X173907727Y-105411680D01*
X174142759Y-105254637D01*
X174342637Y-105054759D01*
X174499680Y-104819727D01*
X174607853Y-104558574D01*
X174663000Y-104281335D01*
X174663000Y-103998665D01*
X174607853Y-103721426D01*
X174499680Y-103460273D01*
X174342637Y-103225241D01*
X174257360Y-103139964D01*
X174287276Y-103123974D01*
X174403001Y-103029001D01*
X174426804Y-102999997D01*
X176104614Y-101322187D01*
X176149175Y-101469099D01*
X176274359Y-101731920D01*
X176448412Y-101965269D01*
X176532466Y-102041034D01*
X176451820Y-102065498D01*
X176341506Y-102124463D01*
X176244815Y-102203815D01*
X176165463Y-102300506D01*
X176106498Y-102410820D01*
X176070188Y-102530518D01*
X176057928Y-102655000D01*
X176057928Y-104355000D01*
X176070188Y-104479482D01*
X176106498Y-104599180D01*
X176165463Y-104709494D01*
X176244815Y-104806185D01*
X176341506Y-104885537D01*
X176451820Y-104944502D01*
X176571518Y-104980812D01*
X176696000Y-104993072D01*
X178396000Y-104993072D01*
X178520482Y-104980812D01*
X178640180Y-104944502D01*
X178750494Y-104885537D01*
X178847185Y-104806185D01*
X178926537Y-104709494D01*
X178985502Y-104599180D01*
X179021812Y-104479482D01*
X179034072Y-104355000D01*
X179034072Y-102655000D01*
X179021812Y-102530518D01*
X178985502Y-102410820D01*
X178926537Y-102300506D01*
X178847185Y-102203815D01*
X178750494Y-102124463D01*
X178640180Y-102065498D01*
X178559534Y-102041034D01*
X178643588Y-101965269D01*
X178817641Y-101731920D01*
X178942825Y-101469099D01*
X178987476Y-101321890D01*
X178866155Y-101092000D01*
X177673000Y-101092000D01*
X177673000Y-101112000D01*
X177419000Y-101112000D01*
X177419000Y-101092000D01*
X177399000Y-101092000D01*
X177399000Y-100838000D01*
X177419000Y-100838000D01*
X177419000Y-100818000D01*
X177673000Y-100818000D01*
X177673000Y-100838000D01*
X178866155Y-100838000D01*
X178987476Y-100608110D01*
X178942825Y-100460901D01*
X178817641Y-100198080D01*
X178718987Y-100065816D01*
X179327002Y-99457801D01*
X179356001Y-99434003D01*
X179450974Y-99318278D01*
X179521546Y-99186249D01*
X179565003Y-99042988D01*
X179576000Y-98931335D01*
X179576000Y-98931324D01*
X179579676Y-98894003D01*
X179576000Y-98856680D01*
X179576000Y-94652322D01*
X179579676Y-94614999D01*
X179576000Y-94577676D01*
X179576000Y-94577667D01*
X179565003Y-94466014D01*
X179521546Y-94322753D01*
X179450974Y-94190724D01*
X179356001Y-94074999D01*
X179327003Y-94051201D01*
X178987210Y-93711408D01*
X179031000Y-93491260D01*
X179031000Y-93198740D01*
X178973932Y-92911842D01*
X178861990Y-92641589D01*
X178699475Y-92398368D01*
X178492632Y-92191525D01*
X178249411Y-92029010D01*
X177979158Y-91917068D01*
X177692260Y-91860000D01*
X177399740Y-91860000D01*
X177112842Y-91917068D01*
X176842589Y-92029010D01*
X176599368Y-92191525D01*
X176392525Y-92398368D01*
X176230010Y-92641589D01*
X176118068Y-92911842D01*
X176061000Y-93198740D01*
X176061000Y-93491260D01*
X176118068Y-93778158D01*
X176230010Y-94048411D01*
X176392525Y-94291632D01*
X176599368Y-94498475D01*
X176773760Y-94615000D01*
X176599368Y-94731525D01*
X176392525Y-94938368D01*
X176230010Y-95181589D01*
X176118068Y-95451842D01*
X176061000Y-95738740D01*
X176061000Y-96031260D01*
X176104791Y-96251408D01*
X175961199Y-96395000D01*
X173919801Y-96395000D01*
X175009004Y-95305798D01*
X175038001Y-95282001D01*
X175082307Y-95228014D01*
X175132974Y-95166277D01*
X175203546Y-95034247D01*
X175232630Y-94938368D01*
X175247003Y-94890986D01*
X175258000Y-94779333D01*
X175258000Y-94779324D01*
X175261676Y-94742001D01*
X175258000Y-94704678D01*
X175258000Y-90592072D01*
X176822000Y-90592072D01*
X176946482Y-90579812D01*
X177066180Y-90543502D01*
X177176494Y-90484537D01*
X177273185Y-90405185D01*
X177352537Y-90308494D01*
X177411502Y-90198180D01*
X177447812Y-90078482D01*
X177460072Y-89954000D01*
X177460072Y-88354000D01*
X177447812Y-88229518D01*
X177411502Y-88109820D01*
X177352537Y-87999506D01*
X177273185Y-87902815D01*
X177176494Y-87823463D01*
X177066180Y-87764498D01*
X176946482Y-87728188D01*
X176822000Y-87715928D01*
X176550948Y-87715928D01*
X176533003Y-87701201D01*
X175188804Y-86357003D01*
X175165001Y-86327999D01*
X175049276Y-86233026D01*
X174917247Y-86162454D01*
X174773986Y-86118997D01*
X174662333Y-86108000D01*
X174662322Y-86108000D01*
X174625000Y-86104324D01*
X174587678Y-86108000D01*
X133768323Y-86108000D01*
X133731000Y-86104324D01*
X133693677Y-86108000D01*
X133693667Y-86108000D01*
X133582014Y-86118997D01*
X133438753Y-86162454D01*
X133306724Y-86233026D01*
X133190999Y-86327999D01*
X133167201Y-86356997D01*
X131808271Y-87715928D01*
X131026000Y-87715928D01*
X130901518Y-87728188D01*
X130781820Y-87764498D01*
X130671506Y-87823463D01*
X130574815Y-87902815D01*
X130495463Y-87999506D01*
X130436498Y-88109820D01*
X130400188Y-88229518D01*
X130387928Y-88354000D01*
X130387928Y-89954000D01*
X130400188Y-90078482D01*
X130436498Y-90198180D01*
X130495463Y-90308494D01*
X130574815Y-90405185D01*
X130671506Y-90484537D01*
X130781820Y-90543502D01*
X130901518Y-90579812D01*
X131026000Y-90592072D01*
X132626000Y-90592072D01*
X132750482Y-90579812D01*
X132870180Y-90543502D01*
X132980494Y-90484537D01*
X133077185Y-90405185D01*
X133156537Y-90308494D01*
X133215502Y-90198180D01*
X133251812Y-90078482D01*
X133252643Y-90070039D01*
X133451241Y-90268637D01*
X133686273Y-90425680D01*
X133947426Y-90533853D01*
X134224665Y-90589000D01*
X134507335Y-90589000D01*
X134784574Y-90533853D01*
X135045727Y-90425680D01*
X135280759Y-90268637D01*
X135480637Y-90068759D01*
X135636000Y-89836241D01*
X135791363Y-90068759D01*
X135991241Y-90268637D01*
X136226273Y-90425680D01*
X136487426Y-90533853D01*
X136764665Y-90589000D01*
X137047335Y-90589000D01*
X137324574Y-90533853D01*
X137585727Y-90425680D01*
X137820759Y-90268637D01*
X138020637Y-90068759D01*
X138176000Y-89836241D01*
X138331363Y-90068759D01*
X138531241Y-90268637D01*
X138766273Y-90425680D01*
X139027426Y-90533853D01*
X139304665Y-90589000D01*
X139587335Y-90589000D01*
X139864574Y-90533853D01*
X140125727Y-90425680D01*
X140360759Y-90268637D01*
X140560637Y-90068759D01*
X140716000Y-89836241D01*
X140871363Y-90068759D01*
X141071241Y-90268637D01*
X141306273Y-90425680D01*
X141567426Y-90533853D01*
X141844665Y-90589000D01*
X142127335Y-90589000D01*
X142404574Y-90533853D01*
X142665727Y-90425680D01*
X142900759Y-90268637D01*
X143100637Y-90068759D01*
X143256000Y-89836241D01*
X143411363Y-90068759D01*
X143611241Y-90268637D01*
X143846273Y-90425680D01*
X144107426Y-90533853D01*
X144384665Y-90589000D01*
X144667335Y-90589000D01*
X144849886Y-90552688D01*
X146306001Y-92008804D01*
X146306001Y-92380956D01*
X146151241Y-92484363D01*
X145951363Y-92684241D01*
X145796000Y-92916759D01*
X145640637Y-92684241D01*
X145440759Y-92484363D01*
X145205727Y-92327320D01*
X144944574Y-92219147D01*
X144667335Y-92164000D01*
X144384665Y-92164000D01*
X144107426Y-92219147D01*
X143846273Y-92327320D01*
X143611241Y-92484363D01*
X143411363Y-92684241D01*
X143256000Y-92916759D01*
X143100637Y-92684241D01*
X142900759Y-92484363D01*
X142665727Y-92327320D01*
X142404574Y-92219147D01*
X142127335Y-92164000D01*
X141844665Y-92164000D01*
X141567426Y-92219147D01*
X141306273Y-92327320D01*
X141071241Y-92484363D01*
X140871363Y-92684241D01*
X140716000Y-92916759D01*
X140560637Y-92684241D01*
X140360759Y-92484363D01*
X140125727Y-92327320D01*
X139864574Y-92219147D01*
X139587335Y-92164000D01*
X139304665Y-92164000D01*
X139027426Y-92219147D01*
X138766273Y-92327320D01*
X138531241Y-92484363D01*
X138331363Y-92684241D01*
X138176000Y-92916759D01*
X138020637Y-92684241D01*
X137820759Y-92484363D01*
X137585727Y-92327320D01*
X137324574Y-92219147D01*
X137047335Y-92164000D01*
X136764665Y-92164000D01*
X136487426Y-92219147D01*
X136226273Y-92327320D01*
X135991241Y-92484363D01*
X135791363Y-92684241D01*
X135634320Y-92919273D01*
X135629933Y-92929865D01*
X135518385Y-92743869D01*
X135329414Y-92535481D01*
X135103420Y-92367963D01*
X134849087Y-92247754D01*
X134715039Y-92207096D01*
X134493000Y-92329085D01*
X134493000Y-93472000D01*
X134513000Y-93472000D01*
X134513000Y-93726000D01*
X134493000Y-93726000D01*
X134493000Y-94868915D01*
X134715039Y-94990904D01*
X134849087Y-94950246D01*
X135103420Y-94830037D01*
X135329414Y-94662519D01*
X135518385Y-94454131D01*
X135629933Y-94268135D01*
X135634320Y-94278727D01*
X135791363Y-94513759D01*
X135991241Y-94713637D01*
X136226273Y-94870680D01*
X136487426Y-94978853D01*
X136764665Y-95034000D01*
X137047335Y-95034000D01*
X137324574Y-94978853D01*
X137585727Y-94870680D01*
X137820759Y-94713637D01*
X138020637Y-94513759D01*
X138176000Y-94281241D01*
X138331363Y-94513759D01*
X138531241Y-94713637D01*
X138766273Y-94870680D01*
X139027426Y-94978853D01*
X139304665Y-95034000D01*
X139587335Y-95034000D01*
X139769886Y-94997688D01*
X141167198Y-96395000D01*
X131886802Y-96395000D01*
X131743210Y-96251408D01*
X131787000Y-96031260D01*
X131787000Y-95738740D01*
X131729932Y-95451842D01*
X131617990Y-95181589D01*
X131455475Y-94938368D01*
X131248632Y-94731525D01*
X131074240Y-94615000D01*
X131248632Y-94498475D01*
X131455475Y-94291632D01*
X131617990Y-94048411D01*
X131659564Y-93948040D01*
X132974091Y-93948040D01*
X133068930Y-94212881D01*
X133213615Y-94454131D01*
X133402586Y-94662519D01*
X133628580Y-94830037D01*
X133882913Y-94950246D01*
X134016961Y-94990904D01*
X134239000Y-94868915D01*
X134239000Y-93726000D01*
X133095376Y-93726000D01*
X132974091Y-93948040D01*
X131659564Y-93948040D01*
X131729932Y-93778158D01*
X131787000Y-93491260D01*
X131787000Y-93249960D01*
X132974091Y-93249960D01*
X133095376Y-93472000D01*
X134239000Y-93472000D01*
X134239000Y-92329085D01*
X134016961Y-92207096D01*
X133882913Y-92247754D01*
X133628580Y-92367963D01*
X133402586Y-92535481D01*
X133213615Y-92743869D01*
X133068930Y-92985119D01*
X132974091Y-93249960D01*
X131787000Y-93249960D01*
X131787000Y-93198740D01*
X131729932Y-92911842D01*
X131617990Y-92641589D01*
X131455475Y-92398368D01*
X131248632Y-92191525D01*
X131005411Y-92029010D01*
X130735158Y-91917068D01*
X130448260Y-91860000D01*
X130155740Y-91860000D01*
X129868842Y-91917068D01*
X129598589Y-92029010D01*
X129355368Y-92191525D01*
X129148525Y-92398368D01*
X128986010Y-92641589D01*
X128874068Y-92911842D01*
X128817000Y-93198740D01*
X128143000Y-93198740D01*
X128143000Y-84054740D01*
X130849000Y-84054740D01*
X130849000Y-84347260D01*
X130906068Y-84634158D01*
X131018010Y-84904411D01*
X131180525Y-85147632D01*
X131387368Y-85354475D01*
X131630589Y-85516990D01*
X131900842Y-85628932D01*
X132187740Y-85686000D01*
X132480260Y-85686000D01*
X132767158Y-85628932D01*
X133037411Y-85516990D01*
X133280632Y-85354475D01*
X133487475Y-85147632D01*
X133604000Y-84973240D01*
X133720525Y-85147632D01*
X133927368Y-85354475D01*
X134170589Y-85516990D01*
X134440842Y-85628932D01*
X134727740Y-85686000D01*
X135020260Y-85686000D01*
X135307158Y-85628932D01*
X135577411Y-85516990D01*
X135820632Y-85354475D01*
X136027475Y-85147632D01*
X136144000Y-84973240D01*
X136260525Y-85147632D01*
X136467368Y-85354475D01*
X136710589Y-85516990D01*
X136980842Y-85628932D01*
X137267740Y-85686000D01*
X137560260Y-85686000D01*
X137847158Y-85628932D01*
X138117411Y-85516990D01*
X138360632Y-85354475D01*
X138567475Y-85147632D01*
X138684000Y-84973240D01*
X138800525Y-85147632D01*
X139007368Y-85354475D01*
X139250589Y-85516990D01*
X139520842Y-85628932D01*
X139807740Y-85686000D01*
X140100260Y-85686000D01*
X140387158Y-85628932D01*
X140657411Y-85516990D01*
X140900632Y-85354475D01*
X141107475Y-85147632D01*
X141224000Y-84973240D01*
X141340525Y-85147632D01*
X141547368Y-85354475D01*
X141790589Y-85516990D01*
X142060842Y-85628932D01*
X142347740Y-85686000D01*
X142640260Y-85686000D01*
X142927158Y-85628932D01*
X143197411Y-85516990D01*
X143440632Y-85354475D01*
X143647475Y-85147632D01*
X143764000Y-84973240D01*
X143880525Y-85147632D01*
X144087368Y-85354475D01*
X144330589Y-85516990D01*
X144600842Y-85628932D01*
X144887740Y-85686000D01*
X145180260Y-85686000D01*
X145467158Y-85628932D01*
X145737411Y-85516990D01*
X145980632Y-85354475D01*
X146187475Y-85147632D01*
X146304000Y-84973240D01*
X146420525Y-85147632D01*
X146627368Y-85354475D01*
X146870589Y-85516990D01*
X147140842Y-85628932D01*
X147427740Y-85686000D01*
X147720260Y-85686000D01*
X148007158Y-85628932D01*
X148277411Y-85516990D01*
X148520632Y-85354475D01*
X148727475Y-85147632D01*
X148844000Y-84973240D01*
X148960525Y-85147632D01*
X149167368Y-85354475D01*
X149410589Y-85516990D01*
X149680842Y-85628932D01*
X149967740Y-85686000D01*
X150260260Y-85686000D01*
X150547158Y-85628932D01*
X150817411Y-85516990D01*
X151060632Y-85354475D01*
X151267475Y-85147632D01*
X151384000Y-84973240D01*
X151500525Y-85147632D01*
X151707368Y-85354475D01*
X151950589Y-85516990D01*
X152220842Y-85628932D01*
X152507740Y-85686000D01*
X152800260Y-85686000D01*
X153087158Y-85628932D01*
X153357411Y-85516990D01*
X153600632Y-85354475D01*
X153807475Y-85147632D01*
X153924000Y-84973240D01*
X154040525Y-85147632D01*
X154247368Y-85354475D01*
X154490589Y-85516990D01*
X154760842Y-85628932D01*
X155047740Y-85686000D01*
X155340260Y-85686000D01*
X155627158Y-85628932D01*
X155897411Y-85516990D01*
X156140632Y-85354475D01*
X156347475Y-85147632D01*
X156464000Y-84973240D01*
X156580525Y-85147632D01*
X156787368Y-85354475D01*
X157030589Y-85516990D01*
X157300842Y-85628932D01*
X157587740Y-85686000D01*
X157880260Y-85686000D01*
X158167158Y-85628932D01*
X158437411Y-85516990D01*
X158680632Y-85354475D01*
X158887475Y-85147632D01*
X159004000Y-84973240D01*
X159120525Y-85147632D01*
X159327368Y-85354475D01*
X159570589Y-85516990D01*
X159840842Y-85628932D01*
X160127740Y-85686000D01*
X160420260Y-85686000D01*
X160707158Y-85628932D01*
X160977411Y-85516990D01*
X161220632Y-85354475D01*
X161427475Y-85147632D01*
X161544000Y-84973240D01*
X161660525Y-85147632D01*
X161867368Y-85354475D01*
X162110589Y-85516990D01*
X162380842Y-85628932D01*
X162667740Y-85686000D01*
X162960260Y-85686000D01*
X163247158Y-85628932D01*
X163517411Y-85516990D01*
X163760632Y-85354475D01*
X163967475Y-85147632D01*
X164084000Y-84973240D01*
X164200525Y-85147632D01*
X164407368Y-85354475D01*
X164650589Y-85516990D01*
X164920842Y-85628932D01*
X165207740Y-85686000D01*
X165500260Y-85686000D01*
X165787158Y-85628932D01*
X166057411Y-85516990D01*
X166300632Y-85354475D01*
X166507475Y-85147632D01*
X166624000Y-84973240D01*
X166740525Y-85147632D01*
X166947368Y-85354475D01*
X167190589Y-85516990D01*
X167460842Y-85628932D01*
X167747740Y-85686000D01*
X168040260Y-85686000D01*
X168327158Y-85628932D01*
X168597411Y-85516990D01*
X168840632Y-85354475D01*
X169047475Y-85147632D01*
X169164000Y-84973240D01*
X169280525Y-85147632D01*
X169487368Y-85354475D01*
X169730589Y-85516990D01*
X170000842Y-85628932D01*
X170287740Y-85686000D01*
X170580260Y-85686000D01*
X170867158Y-85628932D01*
X171137411Y-85516990D01*
X171380632Y-85354475D01*
X171587475Y-85147632D01*
X171704000Y-84973240D01*
X171820525Y-85147632D01*
X172027368Y-85354475D01*
X172270589Y-85516990D01*
X172540842Y-85628932D01*
X172827740Y-85686000D01*
X173120260Y-85686000D01*
X173407158Y-85628932D01*
X173677411Y-85516990D01*
X173920632Y-85354475D01*
X174052487Y-85222620D01*
X174074498Y-85295180D01*
X174133463Y-85405494D01*
X174212815Y-85502185D01*
X174309506Y-85581537D01*
X174419820Y-85640502D01*
X174539518Y-85676812D01*
X174664000Y-85689072D01*
X176364000Y-85689072D01*
X176488482Y-85676812D01*
X176608180Y-85640502D01*
X176718494Y-85581537D01*
X176815185Y-85502185D01*
X176894537Y-85405494D01*
X176953502Y-85295180D01*
X176989812Y-85175482D01*
X177002072Y-85051000D01*
X177002072Y-83351000D01*
X176989812Y-83226518D01*
X176953502Y-83106820D01*
X176894537Y-82996506D01*
X176815185Y-82899815D01*
X176718494Y-82820463D01*
X176608180Y-82761498D01*
X176488482Y-82725188D01*
X176364000Y-82712928D01*
X174664000Y-82712928D01*
X174539518Y-82725188D01*
X174419820Y-82761498D01*
X174309506Y-82820463D01*
X174212815Y-82899815D01*
X174133463Y-82996506D01*
X174074498Y-83106820D01*
X174052487Y-83179380D01*
X173920632Y-83047525D01*
X173677411Y-82885010D01*
X173407158Y-82773068D01*
X173120260Y-82716000D01*
X172827740Y-82716000D01*
X172540842Y-82773068D01*
X172270589Y-82885010D01*
X172027368Y-83047525D01*
X171820525Y-83254368D01*
X171704000Y-83428760D01*
X171587475Y-83254368D01*
X171380632Y-83047525D01*
X171137411Y-82885010D01*
X170867158Y-82773068D01*
X170580260Y-82716000D01*
X170287740Y-82716000D01*
X170000842Y-82773068D01*
X169730589Y-82885010D01*
X169487368Y-83047525D01*
X169280525Y-83254368D01*
X169164000Y-83428760D01*
X169047475Y-83254368D01*
X168840632Y-83047525D01*
X168597411Y-82885010D01*
X168327158Y-82773068D01*
X168040260Y-82716000D01*
X167747740Y-82716000D01*
X167460842Y-82773068D01*
X167190589Y-82885010D01*
X166947368Y-83047525D01*
X166740525Y-83254368D01*
X166624000Y-83428760D01*
X166507475Y-83254368D01*
X166300632Y-83047525D01*
X166057411Y-82885010D01*
X165787158Y-82773068D01*
X165500260Y-82716000D01*
X165207740Y-82716000D01*
X164920842Y-82773068D01*
X164650589Y-82885010D01*
X164407368Y-83047525D01*
X164200525Y-83254368D01*
X164084000Y-83428760D01*
X163967475Y-83254368D01*
X163760632Y-83047525D01*
X163517411Y-82885010D01*
X163247158Y-82773068D01*
X162960260Y-82716000D01*
X162667740Y-82716000D01*
X162380842Y-82773068D01*
X162110589Y-82885010D01*
X161867368Y-83047525D01*
X161660525Y-83254368D01*
X161544000Y-83428760D01*
X161427475Y-83254368D01*
X161220632Y-83047525D01*
X160977411Y-82885010D01*
X160707158Y-82773068D01*
X160420260Y-82716000D01*
X160127740Y-82716000D01*
X159840842Y-82773068D01*
X159570589Y-82885010D01*
X159327368Y-83047525D01*
X159120525Y-83254368D01*
X159004000Y-83428760D01*
X158887475Y-83254368D01*
X158680632Y-83047525D01*
X158437411Y-82885010D01*
X158167158Y-82773068D01*
X157880260Y-82716000D01*
X157587740Y-82716000D01*
X157300842Y-82773068D01*
X157030589Y-82885010D01*
X156787368Y-83047525D01*
X156580525Y-83254368D01*
X156464000Y-83428760D01*
X156347475Y-83254368D01*
X156140632Y-83047525D01*
X155897411Y-82885010D01*
X155627158Y-82773068D01*
X155340260Y-82716000D01*
X155047740Y-82716000D01*
X154760842Y-82773068D01*
X154490589Y-82885010D01*
X154247368Y-83047525D01*
X154040525Y-83254368D01*
X153924000Y-83428760D01*
X153807475Y-83254368D01*
X153600632Y-83047525D01*
X153357411Y-82885010D01*
X153087158Y-82773068D01*
X152800260Y-82716000D01*
X152507740Y-82716000D01*
X152220842Y-82773068D01*
X151950589Y-82885010D01*
X151707368Y-83047525D01*
X151500525Y-83254368D01*
X151384000Y-83428760D01*
X151267475Y-83254368D01*
X151060632Y-83047525D01*
X150817411Y-82885010D01*
X150547158Y-82773068D01*
X150260260Y-82716000D01*
X149967740Y-82716000D01*
X149680842Y-82773068D01*
X149410589Y-82885010D01*
X149167368Y-83047525D01*
X148960525Y-83254368D01*
X148844000Y-83428760D01*
X148727475Y-83254368D01*
X148520632Y-83047525D01*
X148277411Y-82885010D01*
X148007158Y-82773068D01*
X147720260Y-82716000D01*
X147427740Y-82716000D01*
X147140842Y-82773068D01*
X146870589Y-82885010D01*
X146627368Y-83047525D01*
X146420525Y-83254368D01*
X146304000Y-83428760D01*
X146187475Y-83254368D01*
X145980632Y-83047525D01*
X145737411Y-82885010D01*
X145467158Y-82773068D01*
X145180260Y-82716000D01*
X144887740Y-82716000D01*
X144600842Y-82773068D01*
X144330589Y-82885010D01*
X144087368Y-83047525D01*
X143880525Y-83254368D01*
X143764000Y-83428760D01*
X143647475Y-83254368D01*
X143440632Y-83047525D01*
X143197411Y-82885010D01*
X142927158Y-82773068D01*
X142640260Y-82716000D01*
X142347740Y-82716000D01*
X142060842Y-82773068D01*
X141790589Y-82885010D01*
X141547368Y-83047525D01*
X141340525Y-83254368D01*
X141224000Y-83428760D01*
X141107475Y-83254368D01*
X140900632Y-83047525D01*
X140657411Y-82885010D01*
X140387158Y-82773068D01*
X140100260Y-82716000D01*
X139807740Y-82716000D01*
X139520842Y-82773068D01*
X139250589Y-82885010D01*
X139007368Y-83047525D01*
X138800525Y-83254368D01*
X138684000Y-83428760D01*
X138567475Y-83254368D01*
X138360632Y-83047525D01*
X138117411Y-82885010D01*
X137847158Y-82773068D01*
X137560260Y-82716000D01*
X137267740Y-82716000D01*
X136980842Y-82773068D01*
X136710589Y-82885010D01*
X136467368Y-83047525D01*
X136260525Y-83254368D01*
X136144000Y-83428760D01*
X136027475Y-83254368D01*
X135820632Y-83047525D01*
X135577411Y-82885010D01*
X135307158Y-82773068D01*
X135020260Y-82716000D01*
X134727740Y-82716000D01*
X134440842Y-82773068D01*
X134170589Y-82885010D01*
X133927368Y-83047525D01*
X133720525Y-83254368D01*
X133604000Y-83428760D01*
X133487475Y-83254368D01*
X133280632Y-83047525D01*
X133037411Y-82885010D01*
X132767158Y-82773068D01*
X132480260Y-82716000D01*
X132187740Y-82716000D01*
X131900842Y-82773068D01*
X131630589Y-82885010D01*
X131387368Y-83047525D01*
X131180525Y-83254368D01*
X131018010Y-83497589D01*
X130906068Y-83767842D01*
X130849000Y-84054740D01*
X128143000Y-84054740D01*
X128143000Y-82994935D01*
X128172644Y-83014742D01*
X128502811Y-83151502D01*
X128853315Y-83221222D01*
X129210685Y-83221222D01*
X129561189Y-83151502D01*
X129891356Y-83014742D01*
X130188499Y-82816198D01*
X130441198Y-82563499D01*
X130639742Y-82266356D01*
X130776502Y-81936189D01*
X130846222Y-81585685D01*
X130846222Y-81228315D01*
X130776502Y-80877811D01*
X130639742Y-80547644D01*
X130619935Y-80518000D01*
X177228065Y-80518000D01*
X177208258Y-80547644D01*
G37*
%TD.AperFunction*%
D17*
X171425226Y-99228937D02*
X171594744Y-99342205D01*
X171783102Y-99420226D01*
X171983061Y-99460000D01*
X172186939Y-99460000D01*
X172386898Y-99420226D01*
X172575256Y-99342205D01*
X172744774Y-99228937D01*
X172788711Y-99185000D01*
X176092198Y-99185000D01*
X174569460Y-100707738D01*
X174499680Y-100539273D01*
X174342637Y-100304241D01*
X174142759Y-100104363D01*
X173907727Y-99947320D01*
X173646574Y-99839147D01*
X173369335Y-99784000D01*
X173086665Y-99784000D01*
X172809426Y-99839147D01*
X172548273Y-99947320D01*
X172313241Y-100104363D01*
X172113363Y-100304241D01*
X171956320Y-100539273D01*
X171951933Y-100549865D01*
X171840385Y-100363869D01*
X171651414Y-100155481D01*
X171425420Y-99987963D01*
X171171087Y-99867754D01*
X171037039Y-99827096D01*
X170815000Y-99949085D01*
X170815000Y-101092000D01*
X170835000Y-101092000D01*
X170835000Y-101346000D01*
X170815000Y-101346000D01*
X170815000Y-101366000D01*
X170561000Y-101366000D01*
X170561000Y-101346000D01*
X170541000Y-101346000D01*
X170541000Y-101092000D01*
X170561000Y-101092000D01*
X170561000Y-99949085D01*
X170338961Y-99827096D01*
X170204913Y-99867754D01*
X169950580Y-99987963D01*
X169724586Y-100155481D01*
X169535615Y-100363869D01*
X169424067Y-100549865D01*
X169419680Y-100539273D01*
X169262637Y-100304241D01*
X169062759Y-100104363D01*
X168827727Y-99947320D01*
X168566574Y-99839147D01*
X168289335Y-99784000D01*
X168006665Y-99784000D01*
X167729426Y-99839147D01*
X167468273Y-99947320D01*
X167233241Y-100104363D01*
X167033363Y-100304241D01*
X166878000Y-100536759D01*
X166722637Y-100304241D01*
X166522759Y-100104363D01*
X166287727Y-99947320D01*
X166026574Y-99839147D01*
X165749335Y-99784000D01*
X165466665Y-99784000D01*
X165189426Y-99839147D01*
X164928273Y-99947320D01*
X164693241Y-100104363D01*
X164493363Y-100304241D01*
X164338000Y-100536759D01*
X164182637Y-100304241D01*
X163982759Y-100104363D01*
X163747727Y-99947320D01*
X163486574Y-99839147D01*
X163209335Y-99784000D01*
X162926665Y-99784000D01*
X162649426Y-99839147D01*
X162388273Y-99947320D01*
X162153241Y-100104363D01*
X161953363Y-100304241D01*
X161798000Y-100536759D01*
X161642637Y-100304241D01*
X161442759Y-100104363D01*
X161207727Y-99947320D01*
X160946574Y-99839147D01*
X160669335Y-99784000D01*
X160386665Y-99784000D01*
X160109426Y-99839147D01*
X159848273Y-99947320D01*
X159613241Y-100104363D01*
X159413363Y-100304241D01*
X159258000Y-100536759D01*
X159102637Y-100304241D01*
X158902759Y-100104363D01*
X158667727Y-99947320D01*
X158406574Y-99839147D01*
X158129335Y-99784000D01*
X157846665Y-99784000D01*
X157664114Y-99820312D01*
X157028801Y-99185000D01*
X171381289Y-99185000D01*
X171425226Y-99228937D01*
%TA.AperFunction,Conductor*%
D18*
G36*
X171425226Y-99228937D02*
G01*
X171594744Y-99342205D01*
X171783102Y-99420226D01*
X171983061Y-99460000D01*
X172186939Y-99460000D01*
X172386898Y-99420226D01*
X172575256Y-99342205D01*
X172744774Y-99228937D01*
X172788711Y-99185000D01*
X176092198Y-99185000D01*
X174569460Y-100707738D01*
X174499680Y-100539273D01*
X174342637Y-100304241D01*
X174142759Y-100104363D01*
X173907727Y-99947320D01*
X173646574Y-99839147D01*
X173369335Y-99784000D01*
X173086665Y-99784000D01*
X172809426Y-99839147D01*
X172548273Y-99947320D01*
X172313241Y-100104363D01*
X172113363Y-100304241D01*
X171956320Y-100539273D01*
X171951933Y-100549865D01*
X171840385Y-100363869D01*
X171651414Y-100155481D01*
X171425420Y-99987963D01*
X171171087Y-99867754D01*
X171037039Y-99827096D01*
X170815000Y-99949085D01*
X170815000Y-101092000D01*
X170835000Y-101092000D01*
X170835000Y-101346000D01*
X170815000Y-101346000D01*
X170815000Y-101366000D01*
X170561000Y-101366000D01*
X170561000Y-101346000D01*
X170541000Y-101346000D01*
X170541000Y-101092000D01*
X170561000Y-101092000D01*
X170561000Y-99949085D01*
X170338961Y-99827096D01*
X170204913Y-99867754D01*
X169950580Y-99987963D01*
X169724586Y-100155481D01*
X169535615Y-100363869D01*
X169424067Y-100549865D01*
X169419680Y-100539273D01*
X169262637Y-100304241D01*
X169062759Y-100104363D01*
X168827727Y-99947320D01*
X168566574Y-99839147D01*
X168289335Y-99784000D01*
X168006665Y-99784000D01*
X167729426Y-99839147D01*
X167468273Y-99947320D01*
X167233241Y-100104363D01*
X167033363Y-100304241D01*
X166878000Y-100536759D01*
X166722637Y-100304241D01*
X166522759Y-100104363D01*
X166287727Y-99947320D01*
X166026574Y-99839147D01*
X165749335Y-99784000D01*
X165466665Y-99784000D01*
X165189426Y-99839147D01*
X164928273Y-99947320D01*
X164693241Y-100104363D01*
X164493363Y-100304241D01*
X164338000Y-100536759D01*
X164182637Y-100304241D01*
X163982759Y-100104363D01*
X163747727Y-99947320D01*
X163486574Y-99839147D01*
X163209335Y-99784000D01*
X162926665Y-99784000D01*
X162649426Y-99839147D01*
X162388273Y-99947320D01*
X162153241Y-100104363D01*
X161953363Y-100304241D01*
X161798000Y-100536759D01*
X161642637Y-100304241D01*
X161442759Y-100104363D01*
X161207727Y-99947320D01*
X160946574Y-99839147D01*
X160669335Y-99784000D01*
X160386665Y-99784000D01*
X160109426Y-99839147D01*
X159848273Y-99947320D01*
X159613241Y-100104363D01*
X159413363Y-100304241D01*
X159258000Y-100536759D01*
X159102637Y-100304241D01*
X158902759Y-100104363D01*
X158667727Y-99947320D01*
X158406574Y-99839147D01*
X158129335Y-99784000D01*
X157846665Y-99784000D01*
X157664114Y-99820312D01*
X157028801Y-99185000D01*
X171381289Y-99185000D01*
X171425226Y-99228937D01*
G37*
%TD.AperFunction*%
D17*
X174688064Y-88005865D02*
X174632498Y-88109820D01*
X174596188Y-88229518D01*
X174595357Y-88237961D01*
X174396759Y-88039363D01*
X174161727Y-87882320D01*
X173900574Y-87774147D01*
X173623335Y-87719000D01*
X173340665Y-87719000D01*
X173063426Y-87774147D01*
X172802273Y-87882320D01*
X172567241Y-88039363D01*
X172367363Y-88239241D01*
X172212000Y-88471759D01*
X172056637Y-88239241D01*
X171856759Y-88039363D01*
X171621727Y-87882320D01*
X171360574Y-87774147D01*
X171083335Y-87719000D01*
X170800665Y-87719000D01*
X170523426Y-87774147D01*
X170262273Y-87882320D01*
X170027241Y-88039363D01*
X169827363Y-88239241D01*
X169672000Y-88471759D01*
X169516637Y-88239241D01*
X169316759Y-88039363D01*
X169081727Y-87882320D01*
X168820574Y-87774147D01*
X168543335Y-87719000D01*
X168260665Y-87719000D01*
X167983426Y-87774147D01*
X167722273Y-87882320D01*
X167487241Y-88039363D01*
X167287363Y-88239241D01*
X167132000Y-88471759D01*
X166976637Y-88239241D01*
X166776759Y-88039363D01*
X166541727Y-87882320D01*
X166280574Y-87774147D01*
X166003335Y-87719000D01*
X165720665Y-87719000D01*
X165443426Y-87774147D01*
X165182273Y-87882320D01*
X164947241Y-88039363D01*
X164747363Y-88239241D01*
X164592000Y-88471759D01*
X164436637Y-88239241D01*
X164236759Y-88039363D01*
X164001727Y-87882320D01*
X163740574Y-87774147D01*
X163463335Y-87719000D01*
X163180665Y-87719000D01*
X162903426Y-87774147D01*
X162642273Y-87882320D01*
X162407241Y-88039363D01*
X162207363Y-88239241D01*
X162052000Y-88471759D01*
X161896637Y-88239241D01*
X161696759Y-88039363D01*
X161461727Y-87882320D01*
X161200574Y-87774147D01*
X160923335Y-87719000D01*
X160640665Y-87719000D01*
X160363426Y-87774147D01*
X160102273Y-87882320D01*
X159867241Y-88039363D01*
X159667363Y-88239241D01*
X159512000Y-88471759D01*
X159356637Y-88239241D01*
X159156759Y-88039363D01*
X158921727Y-87882320D01*
X158660574Y-87774147D01*
X158383335Y-87719000D01*
X158100665Y-87719000D01*
X157823426Y-87774147D01*
X157562273Y-87882320D01*
X157327241Y-88039363D01*
X157127363Y-88239241D01*
X156972000Y-88471759D01*
X156816637Y-88239241D01*
X156616759Y-88039363D01*
X156381727Y-87882320D01*
X156120574Y-87774147D01*
X155843335Y-87719000D01*
X155560665Y-87719000D01*
X155283426Y-87774147D01*
X155022273Y-87882320D01*
X154787241Y-88039363D01*
X154587363Y-88239241D01*
X154430320Y-88474273D01*
X154322147Y-88735426D01*
X154267000Y-89012665D01*
X154267000Y-89295335D01*
X154322147Y-89572574D01*
X154430320Y-89833727D01*
X154587363Y-90068759D01*
X154787241Y-90268637D01*
X155022273Y-90425680D01*
X155283426Y-90533853D01*
X155560665Y-90589000D01*
X155843335Y-90589000D01*
X156120574Y-90533853D01*
X156381727Y-90425680D01*
X156616759Y-90268637D01*
X156816637Y-90068759D01*
X156972000Y-89836241D01*
X157127363Y-90068759D01*
X157327241Y-90268637D01*
X157562273Y-90425680D01*
X157823426Y-90533853D01*
X158100665Y-90589000D01*
X158383335Y-90589000D01*
X158660574Y-90533853D01*
X158921727Y-90425680D01*
X159156759Y-90268637D01*
X159356637Y-90068759D01*
X159512000Y-89836241D01*
X159667363Y-90068759D01*
X159867241Y-90268637D01*
X160102273Y-90425680D01*
X160363426Y-90533853D01*
X160640665Y-90589000D01*
X160923335Y-90589000D01*
X161200574Y-90533853D01*
X161461727Y-90425680D01*
X161696759Y-90268637D01*
X161896637Y-90068759D01*
X162052000Y-89836241D01*
X162207363Y-90068759D01*
X162407241Y-90268637D01*
X162642273Y-90425680D01*
X162903426Y-90533853D01*
X163180665Y-90589000D01*
X163463335Y-90589000D01*
X163740574Y-90533853D01*
X164001727Y-90425680D01*
X164236759Y-90268637D01*
X164436637Y-90068759D01*
X164592000Y-89836241D01*
X164747363Y-90068759D01*
X164947241Y-90268637D01*
X165182273Y-90425680D01*
X165443426Y-90533853D01*
X165720665Y-90589000D01*
X165841199Y-90589000D01*
X167388001Y-92135803D01*
X167388001Y-92380956D01*
X167233241Y-92484363D01*
X167033363Y-92684241D01*
X166878000Y-92916759D01*
X166722637Y-92684241D01*
X166522759Y-92484363D01*
X166287727Y-92327320D01*
X166026574Y-92219147D01*
X165749335Y-92164000D01*
X165466665Y-92164000D01*
X165189426Y-92219147D01*
X164928273Y-92327320D01*
X164693241Y-92484363D01*
X164493363Y-92684241D01*
X164338000Y-92916759D01*
X164182637Y-92684241D01*
X163982759Y-92484363D01*
X163747727Y-92327320D01*
X163486574Y-92219147D01*
X163209335Y-92164000D01*
X162926665Y-92164000D01*
X162649426Y-92219147D01*
X162388273Y-92327320D01*
X162153241Y-92484363D01*
X161953363Y-92684241D01*
X161798000Y-92916759D01*
X161642637Y-92684241D01*
X161442759Y-92484363D01*
X161207727Y-92327320D01*
X160946574Y-92219147D01*
X160669335Y-92164000D01*
X160386665Y-92164000D01*
X160109426Y-92219147D01*
X159848273Y-92327320D01*
X159613241Y-92484363D01*
X159413363Y-92684241D01*
X159258000Y-92916759D01*
X159102637Y-92684241D01*
X158902759Y-92484363D01*
X158667727Y-92327320D01*
X158406574Y-92219147D01*
X158129335Y-92164000D01*
X157846665Y-92164000D01*
X157569426Y-92219147D01*
X157308273Y-92327320D01*
X157073241Y-92484363D01*
X156873363Y-92684241D01*
X156716320Y-92919273D01*
X156711933Y-92929865D01*
X156600385Y-92743869D01*
X156411414Y-92535481D01*
X156185420Y-92367963D01*
X155931087Y-92247754D01*
X155797039Y-92207096D01*
X155575000Y-92329085D01*
X155575000Y-93472000D01*
X155595000Y-93472000D01*
X155595000Y-93726000D01*
X155575000Y-93726000D01*
X155575000Y-94868915D01*
X155797039Y-94990904D01*
X155931087Y-94950246D01*
X156185420Y-94830037D01*
X156411414Y-94662519D01*
X156600385Y-94454131D01*
X156711933Y-94268135D01*
X156716320Y-94278727D01*
X156873363Y-94513759D01*
X157073241Y-94713637D01*
X157308273Y-94870680D01*
X157569426Y-94978853D01*
X157846665Y-95034000D01*
X158129335Y-95034000D01*
X158406574Y-94978853D01*
X158667727Y-94870680D01*
X158902759Y-94713637D01*
X159102637Y-94513759D01*
X159258000Y-94281241D01*
X159413363Y-94513759D01*
X159613241Y-94713637D01*
X159848273Y-94870680D01*
X160109426Y-94978853D01*
X160386665Y-95034000D01*
X160669335Y-95034000D01*
X160851886Y-94997688D01*
X162249198Y-96395000D01*
X152964801Y-96395000D01*
X153927004Y-95432798D01*
X153956001Y-95409001D01*
X154028057Y-95321201D01*
X154050974Y-95293277D01*
X154121546Y-95161247D01*
X154144749Y-95084754D01*
X154165003Y-95017986D01*
X154176000Y-94906333D01*
X154176000Y-94906323D01*
X154179676Y-94869000D01*
X154176000Y-94831678D01*
X154176000Y-94254683D01*
X154295615Y-94454131D01*
X154484586Y-94662519D01*
X154710580Y-94830037D01*
X154964913Y-94950246D01*
X155098961Y-94990904D01*
X155321000Y-94868915D01*
X155321000Y-93726000D01*
X155301000Y-93726000D01*
X155301000Y-93472000D01*
X155321000Y-93472000D01*
X155321000Y-92329085D01*
X155098961Y-92207096D01*
X154964913Y-92247754D01*
X154710580Y-92367963D01*
X154484586Y-92535481D01*
X154295615Y-92743869D01*
X154176000Y-92943317D01*
X154176000Y-90461322D01*
X154179676Y-90423999D01*
X154176000Y-90386676D01*
X154176000Y-90386667D01*
X154165003Y-90275014D01*
X154121546Y-90131753D01*
X154050974Y-89999724D01*
X153956001Y-89883999D01*
X153927003Y-89860201D01*
X153544688Y-89477886D01*
X153581000Y-89295335D01*
X153581000Y-89012665D01*
X153525853Y-88735426D01*
X153417680Y-88474273D01*
X153260637Y-88239241D01*
X153060759Y-88039363D01*
X152825727Y-87882320D01*
X152564574Y-87774147D01*
X152287335Y-87719000D01*
X152004665Y-87719000D01*
X151727426Y-87774147D01*
X151466273Y-87882320D01*
X151231241Y-88039363D01*
X151031363Y-88239241D01*
X150876000Y-88471759D01*
X150720637Y-88239241D01*
X150520759Y-88039363D01*
X150285727Y-87882320D01*
X150024574Y-87774147D01*
X149747335Y-87719000D01*
X149464665Y-87719000D01*
X149187426Y-87774147D01*
X148926273Y-87882320D01*
X148691241Y-88039363D01*
X148491363Y-88239241D01*
X148336000Y-88471759D01*
X148180637Y-88239241D01*
X147980759Y-88039363D01*
X147745727Y-87882320D01*
X147484574Y-87774147D01*
X147207335Y-87719000D01*
X146924665Y-87719000D01*
X146647426Y-87774147D01*
X146386273Y-87882320D01*
X146151241Y-88039363D01*
X145951363Y-88239241D01*
X145796000Y-88471759D01*
X145640637Y-88239241D01*
X145440759Y-88039363D01*
X145205727Y-87882320D01*
X144944574Y-87774147D01*
X144667335Y-87719000D01*
X144384665Y-87719000D01*
X144107426Y-87774147D01*
X143846273Y-87882320D01*
X143611241Y-88039363D01*
X143411363Y-88239241D01*
X143256000Y-88471759D01*
X143100637Y-88239241D01*
X142900759Y-88039363D01*
X142665727Y-87882320D01*
X142404574Y-87774147D01*
X142127335Y-87719000D01*
X141844665Y-87719000D01*
X141567426Y-87774147D01*
X141306273Y-87882320D01*
X141071241Y-88039363D01*
X140871363Y-88239241D01*
X140716000Y-88471759D01*
X140560637Y-88239241D01*
X140360759Y-88039363D01*
X140125727Y-87882320D01*
X139864574Y-87774147D01*
X139587335Y-87719000D01*
X139304665Y-87719000D01*
X139027426Y-87774147D01*
X138766273Y-87882320D01*
X138531241Y-88039363D01*
X138331363Y-88239241D01*
X138176000Y-88471759D01*
X138020637Y-88239241D01*
X137820759Y-88039363D01*
X137585727Y-87882320D01*
X137324574Y-87774147D01*
X137047335Y-87719000D01*
X136764665Y-87719000D01*
X136487426Y-87774147D01*
X136226273Y-87882320D01*
X135991241Y-88039363D01*
X135791363Y-88239241D01*
X135636000Y-88471759D01*
X135480637Y-88239241D01*
X135280759Y-88039363D01*
X135045727Y-87882320D01*
X134784574Y-87774147D01*
X134507335Y-87719000D01*
X134224665Y-87719000D01*
X133947426Y-87774147D01*
X133865875Y-87807926D01*
X134045802Y-87628000D01*
X174310199Y-87628000D01*
X174688064Y-88005865D01*
%TA.AperFunction,Conductor*%
D18*
G36*
X174688064Y-88005865D02*
G01*
X174632498Y-88109820D01*
X174596188Y-88229518D01*
X174595357Y-88237961D01*
X174396759Y-88039363D01*
X174161727Y-87882320D01*
X173900574Y-87774147D01*
X173623335Y-87719000D01*
X173340665Y-87719000D01*
X173063426Y-87774147D01*
X172802273Y-87882320D01*
X172567241Y-88039363D01*
X172367363Y-88239241D01*
X172212000Y-88471759D01*
X172056637Y-88239241D01*
X171856759Y-88039363D01*
X171621727Y-87882320D01*
X171360574Y-87774147D01*
X171083335Y-87719000D01*
X170800665Y-87719000D01*
X170523426Y-87774147D01*
X170262273Y-87882320D01*
X170027241Y-88039363D01*
X169827363Y-88239241D01*
X169672000Y-88471759D01*
X169516637Y-88239241D01*
X169316759Y-88039363D01*
X169081727Y-87882320D01*
X168820574Y-87774147D01*
X168543335Y-87719000D01*
X168260665Y-87719000D01*
X167983426Y-87774147D01*
X167722273Y-87882320D01*
X167487241Y-88039363D01*
X167287363Y-88239241D01*
X167132000Y-88471759D01*
X166976637Y-88239241D01*
X166776759Y-88039363D01*
X166541727Y-87882320D01*
X166280574Y-87774147D01*
X166003335Y-87719000D01*
X165720665Y-87719000D01*
X165443426Y-87774147D01*
X165182273Y-87882320D01*
X164947241Y-88039363D01*
X164747363Y-88239241D01*
X164592000Y-88471759D01*
X164436637Y-88239241D01*
X164236759Y-88039363D01*
X164001727Y-87882320D01*
X163740574Y-87774147D01*
X163463335Y-87719000D01*
X163180665Y-87719000D01*
X162903426Y-87774147D01*
X162642273Y-87882320D01*
X162407241Y-88039363D01*
X162207363Y-88239241D01*
X162052000Y-88471759D01*
X161896637Y-88239241D01*
X161696759Y-88039363D01*
X161461727Y-87882320D01*
X161200574Y-87774147D01*
X160923335Y-87719000D01*
X160640665Y-87719000D01*
X160363426Y-87774147D01*
X160102273Y-87882320D01*
X159867241Y-88039363D01*
X159667363Y-88239241D01*
X159512000Y-88471759D01*
X159356637Y-88239241D01*
X159156759Y-88039363D01*
X158921727Y-87882320D01*
X158660574Y-87774147D01*
X158383335Y-87719000D01*
X158100665Y-87719000D01*
X157823426Y-87774147D01*
X157562273Y-87882320D01*
X157327241Y-88039363D01*
X157127363Y-88239241D01*
X156972000Y-88471759D01*
X156816637Y-88239241D01*
X156616759Y-88039363D01*
X156381727Y-87882320D01*
X156120574Y-87774147D01*
X155843335Y-87719000D01*
X155560665Y-87719000D01*
X155283426Y-87774147D01*
X155022273Y-87882320D01*
X154787241Y-88039363D01*
X154587363Y-88239241D01*
X154430320Y-88474273D01*
X154322147Y-88735426D01*
X154267000Y-89012665D01*
X154267000Y-89295335D01*
X154322147Y-89572574D01*
X154430320Y-89833727D01*
X154587363Y-90068759D01*
X154787241Y-90268637D01*
X155022273Y-90425680D01*
X155283426Y-90533853D01*
X155560665Y-90589000D01*
X155843335Y-90589000D01*
X156120574Y-90533853D01*
X156381727Y-90425680D01*
X156616759Y-90268637D01*
X156816637Y-90068759D01*
X156972000Y-89836241D01*
X157127363Y-90068759D01*
X157327241Y-90268637D01*
X157562273Y-90425680D01*
X157823426Y-90533853D01*
X158100665Y-90589000D01*
X158383335Y-90589000D01*
X158660574Y-90533853D01*
X158921727Y-90425680D01*
X159156759Y-90268637D01*
X159356637Y-90068759D01*
X159512000Y-89836241D01*
X159667363Y-90068759D01*
X159867241Y-90268637D01*
X160102273Y-90425680D01*
X160363426Y-90533853D01*
X160640665Y-90589000D01*
X160923335Y-90589000D01*
X161200574Y-90533853D01*
X161461727Y-90425680D01*
X161696759Y-90268637D01*
X161896637Y-90068759D01*
X162052000Y-89836241D01*
X162207363Y-90068759D01*
X162407241Y-90268637D01*
X162642273Y-90425680D01*
X162903426Y-90533853D01*
X163180665Y-90589000D01*
X163463335Y-90589000D01*
X163740574Y-90533853D01*
X164001727Y-90425680D01*
X164236759Y-90268637D01*
X164436637Y-90068759D01*
X164592000Y-89836241D01*
X164747363Y-90068759D01*
X164947241Y-90268637D01*
X165182273Y-90425680D01*
X165443426Y-90533853D01*
X165720665Y-90589000D01*
X165841199Y-90589000D01*
X167388001Y-92135803D01*
X167388001Y-92380956D01*
X167233241Y-92484363D01*
X167033363Y-92684241D01*
X166878000Y-92916759D01*
X166722637Y-92684241D01*
X166522759Y-92484363D01*
X166287727Y-92327320D01*
X166026574Y-92219147D01*
X165749335Y-92164000D01*
X165466665Y-92164000D01*
X165189426Y-92219147D01*
X164928273Y-92327320D01*
X164693241Y-92484363D01*
X164493363Y-92684241D01*
X164338000Y-92916759D01*
X164182637Y-92684241D01*
X163982759Y-92484363D01*
X163747727Y-92327320D01*
X163486574Y-92219147D01*
X163209335Y-92164000D01*
X162926665Y-92164000D01*
X162649426Y-92219147D01*
X162388273Y-92327320D01*
X162153241Y-92484363D01*
X161953363Y-92684241D01*
X161798000Y-92916759D01*
X161642637Y-92684241D01*
X161442759Y-92484363D01*
X161207727Y-92327320D01*
X160946574Y-92219147D01*
X160669335Y-92164000D01*
X160386665Y-92164000D01*
X160109426Y-92219147D01*
X159848273Y-92327320D01*
X159613241Y-92484363D01*
X159413363Y-92684241D01*
X159258000Y-92916759D01*
X159102637Y-92684241D01*
X158902759Y-92484363D01*
X158667727Y-92327320D01*
X158406574Y-92219147D01*
X158129335Y-92164000D01*
X157846665Y-92164000D01*
X157569426Y-92219147D01*
X157308273Y-92327320D01*
X157073241Y-92484363D01*
X156873363Y-92684241D01*
X156716320Y-92919273D01*
X156711933Y-92929865D01*
X156600385Y-92743869D01*
X156411414Y-92535481D01*
X156185420Y-92367963D01*
X155931087Y-92247754D01*
X155797039Y-92207096D01*
X155575000Y-92329085D01*
X155575000Y-93472000D01*
X155595000Y-93472000D01*
X155595000Y-93726000D01*
X155575000Y-93726000D01*
X155575000Y-94868915D01*
X155797039Y-94990904D01*
X155931087Y-94950246D01*
X156185420Y-94830037D01*
X156411414Y-94662519D01*
X156600385Y-94454131D01*
X156711933Y-94268135D01*
X156716320Y-94278727D01*
X156873363Y-94513759D01*
X157073241Y-94713637D01*
X157308273Y-94870680D01*
X157569426Y-94978853D01*
X157846665Y-95034000D01*
X158129335Y-95034000D01*
X158406574Y-94978853D01*
X158667727Y-94870680D01*
X158902759Y-94713637D01*
X159102637Y-94513759D01*
X159258000Y-94281241D01*
X159413363Y-94513759D01*
X159613241Y-94713637D01*
X159848273Y-94870680D01*
X160109426Y-94978853D01*
X160386665Y-95034000D01*
X160669335Y-95034000D01*
X160851886Y-94997688D01*
X162249198Y-96395000D01*
X152964801Y-96395000D01*
X153927004Y-95432798D01*
X153956001Y-95409001D01*
X154028057Y-95321201D01*
X154050974Y-95293277D01*
X154121546Y-95161247D01*
X154144749Y-95084754D01*
X154165003Y-95017986D01*
X154176000Y-94906333D01*
X154176000Y-94906323D01*
X154179676Y-94869000D01*
X154176000Y-94831678D01*
X154176000Y-94254683D01*
X154295615Y-94454131D01*
X154484586Y-94662519D01*
X154710580Y-94830037D01*
X154964913Y-94950246D01*
X155098961Y-94990904D01*
X155321000Y-94868915D01*
X155321000Y-93726000D01*
X155301000Y-93726000D01*
X155301000Y-93472000D01*
X155321000Y-93472000D01*
X155321000Y-92329085D01*
X155098961Y-92207096D01*
X154964913Y-92247754D01*
X154710580Y-92367963D01*
X154484586Y-92535481D01*
X154295615Y-92743869D01*
X154176000Y-92943317D01*
X154176000Y-90461322D01*
X154179676Y-90423999D01*
X154176000Y-90386676D01*
X154176000Y-90386667D01*
X154165003Y-90275014D01*
X154121546Y-90131753D01*
X154050974Y-89999724D01*
X153956001Y-89883999D01*
X153927003Y-89860201D01*
X153544688Y-89477886D01*
X153581000Y-89295335D01*
X153581000Y-89012665D01*
X153525853Y-88735426D01*
X153417680Y-88474273D01*
X153260637Y-88239241D01*
X153060759Y-88039363D01*
X152825727Y-87882320D01*
X152564574Y-87774147D01*
X152287335Y-87719000D01*
X152004665Y-87719000D01*
X151727426Y-87774147D01*
X151466273Y-87882320D01*
X151231241Y-88039363D01*
X151031363Y-88239241D01*
X150876000Y-88471759D01*
X150720637Y-88239241D01*
X150520759Y-88039363D01*
X150285727Y-87882320D01*
X150024574Y-87774147D01*
X149747335Y-87719000D01*
X149464665Y-87719000D01*
X149187426Y-87774147D01*
X148926273Y-87882320D01*
X148691241Y-88039363D01*
X148491363Y-88239241D01*
X148336000Y-88471759D01*
X148180637Y-88239241D01*
X147980759Y-88039363D01*
X147745727Y-87882320D01*
X147484574Y-87774147D01*
X147207335Y-87719000D01*
X146924665Y-87719000D01*
X146647426Y-87774147D01*
X146386273Y-87882320D01*
X146151241Y-88039363D01*
X145951363Y-88239241D01*
X145796000Y-88471759D01*
X145640637Y-88239241D01*
X145440759Y-88039363D01*
X145205727Y-87882320D01*
X144944574Y-87774147D01*
X144667335Y-87719000D01*
X144384665Y-87719000D01*
X144107426Y-87774147D01*
X143846273Y-87882320D01*
X143611241Y-88039363D01*
X143411363Y-88239241D01*
X143256000Y-88471759D01*
X143100637Y-88239241D01*
X142900759Y-88039363D01*
X142665727Y-87882320D01*
X142404574Y-87774147D01*
X142127335Y-87719000D01*
X141844665Y-87719000D01*
X141567426Y-87774147D01*
X141306273Y-87882320D01*
X141071241Y-88039363D01*
X140871363Y-88239241D01*
X140716000Y-88471759D01*
X140560637Y-88239241D01*
X140360759Y-88039363D01*
X140125727Y-87882320D01*
X139864574Y-87774147D01*
X139587335Y-87719000D01*
X139304665Y-87719000D01*
X139027426Y-87774147D01*
X138766273Y-87882320D01*
X138531241Y-88039363D01*
X138331363Y-88239241D01*
X138176000Y-88471759D01*
X138020637Y-88239241D01*
X137820759Y-88039363D01*
X137585727Y-87882320D01*
X137324574Y-87774147D01*
X137047335Y-87719000D01*
X136764665Y-87719000D01*
X136487426Y-87774147D01*
X136226273Y-87882320D01*
X135991241Y-88039363D01*
X135791363Y-88239241D01*
X135636000Y-88471759D01*
X135480637Y-88239241D01*
X135280759Y-88039363D01*
X135045727Y-87882320D01*
X134784574Y-87774147D01*
X134507335Y-87719000D01*
X134224665Y-87719000D01*
X133947426Y-87774147D01*
X133865875Y-87807926D01*
X134045802Y-87628000D01*
X174310199Y-87628000D01*
X174688064Y-88005865D01*
G37*
%TD.AperFunction*%
%TD*%
M02*
