%TF.GenerationSoftware,KiCad,Pcbnew,(5.1.9)-1*%
%TF.CreationDate,2022-01-25T20:04:02+09:00*%
%TF.ProjectId,joystick-input,6a6f7973-7469-4636-9b2d-696e7075742e,rev?*%
%TF.SameCoordinates,Original*%
%TF.FileFunction,Copper,L1,Top*%
%TF.FilePolarity,Positive*%
%FSLAX46Y46*%
G04 Gerber Fmt 4.6, Leading zero omitted, Abs format (unit mm)*
G04 Created by KiCad (PCBNEW (5.1.9)-1) date 2022-01-25 20:04:02*
%MOMM*%
%LPD*%
G01*
G04 APERTURE LIST*
%TA.AperFunction,EtchedComponent*%
%ADD10C,0.100000*%
%TD*%
%TA.AperFunction,SMDPad,CuDef*%
%ADD11R,1.000000X1.500000*%
%TD*%
%TA.AperFunction,ComponentPad*%
%ADD12C,1.600000*%
%TD*%
%TA.AperFunction,ComponentPad*%
%ADD13O,1.700000X1.700000*%
%TD*%
%TA.AperFunction,ComponentPad*%
%ADD14R,1.700000X1.700000*%
%TD*%
%TA.AperFunction,ComponentPad*%
%ADD15O,1.600000X1.600000*%
%TD*%
%TA.AperFunction,ComponentPad*%
%ADD16R,1.600000X1.600000*%
%TD*%
%TA.AperFunction,ViaPad*%
%ADD17C,0.800000*%
%TD*%
%TA.AperFunction,Conductor*%
%ADD18C,0.250000*%
%TD*%
%TA.AperFunction,Conductor*%
%ADD19C,0.500000*%
%TD*%
%TA.AperFunction,Conductor*%
%ADD20C,0.254000*%
%TD*%
%TA.AperFunction,Conductor*%
%ADD21C,0.100000*%
%TD*%
G04 APERTURE END LIST*
D10*
%TO.C,SHORT1*%
G36*
X138546000Y-103840000D02*
G01*
X139046000Y-103840000D01*
X139046000Y-104440000D01*
X138546000Y-104440000D01*
X138546000Y-103840000D01*
G37*
%TO.C,PULL1*%
G36*
X161585000Y-104440000D02*
G01*
X161085000Y-104440000D01*
X161085000Y-103840000D01*
X161585000Y-103840000D01*
X161585000Y-104440000D01*
G37*
%TD*%
D11*
%TO.P,SHORT1,2*%
%TO.N,/C_SHORT*%
X139446000Y-104140000D03*
%TO.P,SHORT1,3*%
%TO.N,VCC*%
X140746000Y-104140000D03*
%TO.P,SHORT1,1*%
%TO.N,GND*%
X138146000Y-104140000D03*
%TD*%
%TO.P,PULL1,2*%
%TO.N,/PULL*%
X160685000Y-104140000D03*
%TO.P,PULL1,3*%
%TO.N,GND*%
X159385000Y-104140000D03*
%TO.P,PULL1,1*%
%TO.N,VCC*%
X161985000Y-104140000D03*
%TD*%
D12*
%TO.P,C2,2*%
%TO.N,GND*%
X147146000Y-104140000D03*
%TO.P,C2,1*%
%TO.N,VCC*%
X152146000Y-104140000D03*
%TD*%
%TO.P,C1,2*%
%TO.N,GND*%
X168228000Y-104140000D03*
%TO.P,C1,1*%
%TO.N,VCC*%
X173228000Y-104140000D03*
%TD*%
D13*
%TO.P,J1,18*%
%TO.N,/C_SHORT*%
X132334000Y-84201000D03*
%TO.P,J1,17*%
%TO.N,/C_EX4*%
X134874000Y-84201000D03*
%TO.P,J1,16*%
%TO.N,/C_EX3*%
X137414000Y-84201000D03*
%TO.P,J1,15*%
%TO.N,/C_EX2*%
X139954000Y-84201000D03*
%TO.P,J1,14*%
%TO.N,/C_EX1*%
X142494000Y-84201000D03*
%TO.P,J1,13*%
%TO.N,/C_R*%
X145034000Y-84201000D03*
%TO.P,J1,12*%
%TO.N,/C_L*%
X147574000Y-84201000D03*
%TO.P,J1,11*%
%TO.N,/C_Y*%
X150114000Y-84201000D03*
%TO.P,J1,10*%
%TO.N,/C_X*%
X152654000Y-84201000D03*
%TO.P,J1,9*%
%TO.N,/C_B*%
X155194000Y-84201000D03*
%TO.P,J1,8*%
%TO.N,/C_A*%
X157734000Y-84201000D03*
%TO.P,J1,7*%
%TO.N,/C_SELECT*%
X160274000Y-84201000D03*
%TO.P,J1,6*%
%TO.N,/C_START*%
X162814000Y-84201000D03*
%TO.P,J1,5*%
%TO.N,/C_RIGHT*%
X165354000Y-84201000D03*
%TO.P,J1,4*%
%TO.N,/C_LEFT*%
X167894000Y-84201000D03*
%TO.P,J1,3*%
%TO.N,/C_DOWN*%
X170434000Y-84201000D03*
%TO.P,J1,2*%
%TO.N,/C_UP*%
X172974000Y-84201000D03*
D14*
%TO.P,J1,1*%
%TO.N,/C_SHORT*%
X175514000Y-84201000D03*
%TD*%
D15*
%TO.P,74HC165_1,16*%
%TO.N,VCC*%
X173228000Y-101219000D03*
%TO.P,74HC165_1,8*%
%TO.N,GND*%
X155448000Y-93599000D03*
%TO.P,74HC165_1,15*%
X170688000Y-101219000D03*
%TO.P,74HC165_1,7*%
%TO.N,N/C*%
X157988000Y-93599000D03*
%TO.P,74HC165_1,14*%
%TO.N,/C_START*%
X168148000Y-101219000D03*
%TO.P,74HC165_1,6*%
%TO.N,/C_UP*%
X160528000Y-93599000D03*
%TO.P,74HC165_1,13*%
%TO.N,/C_SELECT*%
X165608000Y-101219000D03*
%TO.P,74HC165_1,5*%
%TO.N,/C_DOWN*%
X163068000Y-93599000D03*
%TO.P,74HC165_1,12*%
%TO.N,/C_A*%
X163068000Y-101219000D03*
%TO.P,74HC165_1,4*%
%TO.N,/C_LEFT*%
X165608000Y-93599000D03*
%TO.P,74HC165_1,11*%
%TO.N,/C_B*%
X160528000Y-101219000D03*
%TO.P,74HC165_1,3*%
%TO.N,/C_RIGHT*%
X168148000Y-93599000D03*
%TO.P,74HC165_1,10*%
%TO.N,/Q7*%
X157988000Y-101219000D03*
%TO.P,74HC165_1,2*%
%TO.N,/CLK*%
X170688000Y-93599000D03*
%TO.P,74HC165_1,9*%
%TO.N,/D_OUT*%
X155448000Y-101219000D03*
D16*
%TO.P,74HC165_1,1*%
%TO.N,/LOAD*%
X173228000Y-93599000D03*
%TD*%
D15*
%TO.P,RN2,9*%
%TO.N,/C_X*%
X152146000Y-89154000D03*
%TO.P,RN2,8*%
%TO.N,/C_Y*%
X149606000Y-89154000D03*
%TO.P,RN2,7*%
%TO.N,/C_L*%
X147066000Y-89154000D03*
%TO.P,RN2,6*%
%TO.N,/C_R*%
X144526000Y-89154000D03*
%TO.P,RN2,5*%
%TO.N,/C_EX1*%
X141986000Y-89154000D03*
%TO.P,RN2,4*%
%TO.N,/C_EX2*%
X139446000Y-89154000D03*
%TO.P,RN2,3*%
%TO.N,/C_EX3*%
X136906000Y-89154000D03*
%TO.P,RN2,2*%
%TO.N,/C_EX4*%
X134366000Y-89154000D03*
D16*
%TO.P,RN2,1*%
%TO.N,/PULL*%
X131826000Y-89154000D03*
%TD*%
%TO.P,74HC165_2,1*%
%TO.N,/LOAD*%
X152146000Y-93599000D03*
D15*
%TO.P,74HC165_2,9*%
%TO.N,/Q7*%
X134366000Y-101219000D03*
%TO.P,74HC165_2,2*%
%TO.N,/CLK*%
X149606000Y-93599000D03*
%TO.P,74HC165_2,10*%
%TO.N,/D_IN*%
X136906000Y-101219000D03*
%TO.P,74HC165_2,3*%
%TO.N,/C_R*%
X147066000Y-93599000D03*
%TO.P,74HC165_2,11*%
%TO.N,/C_EX4*%
X139446000Y-101219000D03*
%TO.P,74HC165_2,4*%
%TO.N,/C_L*%
X144526000Y-93599000D03*
%TO.P,74HC165_2,12*%
%TO.N,/C_EX3*%
X141986000Y-101219000D03*
%TO.P,74HC165_2,5*%
%TO.N,/C_Y*%
X141986000Y-93599000D03*
%TO.P,74HC165_2,13*%
%TO.N,/C_EX2*%
X144526000Y-101219000D03*
%TO.P,74HC165_2,6*%
%TO.N,/C_X*%
X139446000Y-93599000D03*
%TO.P,74HC165_2,14*%
%TO.N,/C_EX1*%
X147066000Y-101219000D03*
%TO.P,74HC165_2,7*%
%TO.N,N/C*%
X136906000Y-93599000D03*
%TO.P,74HC165_2,15*%
%TO.N,GND*%
X149606000Y-101219000D03*
%TO.P,74HC165_2,8*%
X134366000Y-93599000D03*
%TO.P,74HC165_2,16*%
%TO.N,VCC*%
X152146000Y-101219000D03*
%TD*%
D16*
%TO.P,RN1,1*%
%TO.N,/PULL*%
X176022000Y-89154000D03*
D15*
%TO.P,RN1,2*%
%TO.N,/C_UP*%
X173482000Y-89154000D03*
%TO.P,RN1,3*%
%TO.N,/C_DOWN*%
X170942000Y-89154000D03*
%TO.P,RN1,4*%
%TO.N,/C_LEFT*%
X168402000Y-89154000D03*
%TO.P,RN1,5*%
%TO.N,/C_RIGHT*%
X165862000Y-89154000D03*
%TO.P,RN1,6*%
%TO.N,/C_START*%
X163322000Y-89154000D03*
%TO.P,RN1,7*%
%TO.N,/C_SELECT*%
X160782000Y-89154000D03*
%TO.P,RN1,8*%
%TO.N,/C_A*%
X158242000Y-89154000D03*
%TO.P,RN1,9*%
%TO.N,/C_B*%
X155702000Y-89154000D03*
%TD*%
D14*
%TO.P,OUT1,1*%
%TO.N,VCC*%
X177546000Y-103505000D03*
D13*
%TO.P,OUT1,2*%
%TO.N,GND*%
X177546000Y-100965000D03*
%TO.P,OUT1,3*%
%TO.N,/LOAD*%
X177546000Y-98425000D03*
%TO.P,OUT1,4*%
%TO.N,/CLK*%
X177546000Y-95885000D03*
%TO.P,OUT1,5*%
%TO.N,/D_OUT*%
X177546000Y-93345000D03*
%TD*%
%TO.P,IN1,5*%
%TO.N,/D_IN*%
X130302000Y-93345000D03*
%TO.P,IN1,4*%
%TO.N,/CLK*%
X130302000Y-95885000D03*
%TO.P,IN1,3*%
%TO.N,/LOAD*%
X130302000Y-98425000D03*
%TO.P,IN1,2*%
%TO.N,GND*%
X130302000Y-100965000D03*
D14*
%TO.P,IN1,1*%
%TO.N,VCC*%
X130302000Y-103505000D03*
%TD*%
D17*
%TO.N,GND*%
X159385000Y-104140000D03*
X138176000Y-104140000D03*
%TO.N,/LOAD*%
X152146000Y-98425000D03*
X172085000Y-98425000D03*
%TO.N,/CLK*%
X149606000Y-97155000D03*
X170688000Y-97155000D03*
%TD*%
D18*
%TO.N,/PULL*%
X176022000Y-96139000D02*
X176022000Y-88900000D01*
X170307000Y-99441000D02*
X172720000Y-99441000D01*
X169418000Y-100330000D02*
X170307000Y-99441000D01*
X169418000Y-101854000D02*
X169418000Y-100330000D01*
X161281000Y-102489000D02*
X168783000Y-102489000D01*
X172720000Y-99441000D02*
X176022000Y-96139000D01*
X160685000Y-103085000D02*
X161281000Y-102489000D01*
X168783000Y-102489000D02*
X169418000Y-101854000D01*
X160685000Y-104140000D02*
X160685000Y-103085000D01*
%TO.N,/C_SHORT*%
X133731000Y-82804000D02*
X132334000Y-84201000D01*
X174117000Y-82804000D02*
X133731000Y-82804000D01*
X175514000Y-84201000D02*
X174117000Y-82804000D01*
X138176000Y-99441000D02*
X138176000Y-101924501D01*
X132334000Y-84201000D02*
X133096000Y-84963000D01*
X133096000Y-90043000D02*
X135636000Y-92583000D01*
X138176000Y-101924501D02*
X139446000Y-103194501D01*
X133096000Y-84963000D02*
X133096000Y-90043000D01*
X135636000Y-92583000D02*
X135636000Y-96901000D01*
X135636000Y-96901000D02*
X138176000Y-99441000D01*
X139446000Y-103194501D02*
X139446000Y-104076500D01*
%TO.N,/C_UP*%
X173482000Y-84709000D02*
X173482000Y-89154000D01*
X172974000Y-84201000D02*
X173482000Y-84709000D01*
%TO.N,/C_DOWN*%
X170942000Y-84709000D02*
X170942000Y-89154000D01*
X170434000Y-84201000D02*
X170942000Y-84709000D01*
%TO.N,/C_LEFT*%
X168402000Y-84709000D02*
X168402000Y-89154000D01*
X167894000Y-84201000D02*
X168402000Y-84709000D01*
%TO.N,/C_RIGHT*%
X165862000Y-84709000D02*
X165862000Y-89154000D01*
X165354000Y-84201000D02*
X165862000Y-84709000D01*
%TO.N,/C_START*%
X166878000Y-99949000D02*
X168148000Y-101219000D01*
X166878000Y-92710000D02*
X166878000Y-99949000D01*
X163322000Y-89154000D02*
X166878000Y-92710000D01*
X163322000Y-84709000D02*
X163322000Y-89154000D01*
X162814000Y-84201000D02*
X163322000Y-84709000D01*
%TO.N,/C_SELECT*%
X164338000Y-99949000D02*
X165608000Y-101219000D01*
X164338000Y-92710000D02*
X164338000Y-99949000D01*
X160782000Y-89154000D02*
X164338000Y-92710000D01*
X160782000Y-84709000D02*
X160782000Y-89154000D01*
X160274000Y-84201000D02*
X160782000Y-84709000D01*
D19*
%TO.N,VCC*%
X140746000Y-106392500D02*
X140779500Y-106426000D01*
D18*
X140746000Y-104076500D02*
X140746000Y-106392500D01*
D19*
X161985000Y-106422500D02*
X161988500Y-106426000D01*
D18*
X161985000Y-104140000D02*
X161985000Y-106422500D01*
D19*
X173228000Y-104140000D02*
X173228000Y-101219000D01*
X152146000Y-101219000D02*
X152146000Y-104140000D01*
X131826000Y-103505000D02*
X130302000Y-103505000D01*
X134747000Y-106426000D02*
X131826000Y-103505000D01*
X161988500Y-106426000D02*
X134747000Y-106426000D01*
X177546000Y-103632000D02*
X177546000Y-103505000D01*
X174752000Y-106426000D02*
X177546000Y-103632000D01*
X161988500Y-106426000D02*
X174752000Y-106426000D01*
X175514000Y-103505000D02*
X173228000Y-101219000D01*
X177546000Y-103505000D02*
X175514000Y-103505000D01*
X153924000Y-102997000D02*
X153924000Y-106426000D01*
X152146000Y-101219000D02*
X153924000Y-102997000D01*
D18*
%TO.N,/D_IN*%
X130302000Y-93345000D02*
X130810000Y-93345000D01*
X130810000Y-93345000D02*
X136906000Y-99441000D01*
X136906000Y-99441000D02*
X136906000Y-101219000D01*
%TO.N,/LOAD*%
X152146000Y-93599000D02*
X152146000Y-98425000D01*
X173228000Y-97282000D02*
X172085000Y-98425000D01*
X173228000Y-93599000D02*
X173228000Y-97282000D01*
%TO.N,/CLK*%
X149606000Y-93599000D02*
X149606000Y-97155000D01*
X170688000Y-93599000D02*
X170688000Y-97155000D01*
%TO.N,/C_A*%
X161798000Y-99949000D02*
X163068000Y-101219000D01*
X161798000Y-92710000D02*
X161798000Y-99949000D01*
X158242000Y-89154000D02*
X161798000Y-92710000D01*
X158242000Y-84709000D02*
X158242000Y-89154000D01*
X157734000Y-84201000D02*
X158242000Y-84709000D01*
%TO.N,/C_B*%
X159258000Y-99949000D02*
X160528000Y-101219000D01*
X159258000Y-92710000D02*
X159258000Y-99949000D01*
X155702000Y-89154000D02*
X159258000Y-92710000D01*
X155702000Y-84709000D02*
X155702000Y-89154000D01*
X155194000Y-84201000D02*
X155702000Y-84709000D01*
%TO.N,/C_X*%
X152146000Y-84709000D02*
X152146000Y-89154000D01*
X152654000Y-84201000D02*
X152146000Y-84709000D01*
%TO.N,/C_Y*%
X149606000Y-84709000D02*
X149606000Y-89154000D01*
X150114000Y-84201000D02*
X149606000Y-84709000D01*
%TO.N,/C_EX4*%
X138176000Y-92964000D02*
X134366000Y-89154000D01*
X138176000Y-98044000D02*
X138176000Y-92964000D01*
X139446000Y-99314000D02*
X138176000Y-98044000D01*
X139446000Y-101219000D02*
X139446000Y-99314000D01*
X134366000Y-84709000D02*
X134874000Y-84201000D01*
X134366000Y-89154000D02*
X134366000Y-84709000D01*
%TO.N,/C_EX3*%
X140716000Y-99949000D02*
X141986000Y-101219000D01*
X140716000Y-92583000D02*
X140716000Y-99949000D01*
X137287000Y-89154000D02*
X140716000Y-92583000D01*
X136906000Y-89154000D02*
X137287000Y-89154000D01*
X136906000Y-84709000D02*
X136906000Y-89154000D01*
X137414000Y-84201000D02*
X136906000Y-84709000D01*
%TO.N,/C_EX2*%
X139446000Y-84709000D02*
X139446000Y-89154000D01*
X139954000Y-84201000D02*
X139446000Y-84709000D01*
X143256000Y-99949000D02*
X144526000Y-101219000D01*
X139827000Y-89154000D02*
X143256000Y-92583000D01*
X143256000Y-92583000D02*
X143256000Y-99949000D01*
X139446000Y-89154000D02*
X139827000Y-89154000D01*
%TO.N,/C_EX1*%
X141986000Y-84709000D02*
X141986000Y-89154000D01*
X142494000Y-84201000D02*
X141986000Y-84709000D01*
X145796000Y-99949000D02*
X147066000Y-101219000D01*
X145796000Y-92710000D02*
X145796000Y-99949000D01*
X142240000Y-89154000D02*
X145796000Y-92710000D01*
X141986000Y-89154000D02*
X142240000Y-89154000D01*
%TO.N,/C_R*%
X144526000Y-84709000D02*
X144526000Y-89154000D01*
X145034000Y-84201000D02*
X144526000Y-84709000D01*
%TO.N,/C_L*%
X147066000Y-84709000D02*
X147066000Y-89154000D01*
X147574000Y-84201000D02*
X147066000Y-84709000D01*
%TD*%
D20*
%TO.N,GND*%
X177208258Y-80547644D02*
X177071498Y-80877811D01*
X177001778Y-81228315D01*
X177001778Y-81585685D01*
X177071498Y-81936189D01*
X177208258Y-82266356D01*
X177406802Y-82563499D01*
X177659501Y-82816198D01*
X177956644Y-83014742D01*
X178286811Y-83151502D01*
X178637315Y-83221222D01*
X178994685Y-83221222D01*
X179345189Y-83151502D01*
X179675356Y-83014742D01*
X179705000Y-82994935D01*
X179705000Y-105473065D01*
X179675356Y-105453258D01*
X179345189Y-105316498D01*
X178994685Y-105246778D01*
X178637315Y-105246778D01*
X178286811Y-105316498D01*
X177956644Y-105453258D01*
X177659501Y-105651802D01*
X177406802Y-105904501D01*
X177208258Y-106201644D01*
X177071498Y-106531811D01*
X177001778Y-106882315D01*
X177001778Y-107239685D01*
X177071498Y-107590189D01*
X177208258Y-107920356D01*
X177228065Y-107950000D01*
X130619935Y-107950000D01*
X130639742Y-107920356D01*
X130776502Y-107590189D01*
X130846222Y-107239685D01*
X130846222Y-106882315D01*
X130776502Y-106531811D01*
X130639742Y-106201644D01*
X130441198Y-105904501D01*
X130188499Y-105651802D01*
X129891356Y-105453258D01*
X129561189Y-105316498D01*
X129210685Y-105246778D01*
X128853315Y-105246778D01*
X128502811Y-105316498D01*
X128172644Y-105453258D01*
X128143000Y-105473065D01*
X128143000Y-102655000D01*
X128813928Y-102655000D01*
X128813928Y-104355000D01*
X128826188Y-104479482D01*
X128862498Y-104599180D01*
X128921463Y-104709494D01*
X129000815Y-104806185D01*
X129097506Y-104885537D01*
X129207820Y-104944502D01*
X129327518Y-104980812D01*
X129452000Y-104993072D01*
X131152000Y-104993072D01*
X131276482Y-104980812D01*
X131396180Y-104944502D01*
X131506494Y-104885537D01*
X131603185Y-104806185D01*
X131682537Y-104709494D01*
X131716109Y-104646687D01*
X134090470Y-107021049D01*
X134118183Y-107054817D01*
X134151951Y-107082530D01*
X134151953Y-107082532D01*
X134207412Y-107128046D01*
X134252941Y-107165411D01*
X134406687Y-107247589D01*
X134573510Y-107298195D01*
X134703523Y-107311000D01*
X134703531Y-107311000D01*
X134747000Y-107315281D01*
X134790469Y-107311000D01*
X140736033Y-107311000D01*
X140779499Y-107315281D01*
X140822965Y-107311000D01*
X153880524Y-107311000D01*
X153924000Y-107315282D01*
X153967477Y-107311000D01*
X161945031Y-107311000D01*
X161988500Y-107315281D01*
X162031969Y-107311000D01*
X174708531Y-107311000D01*
X174752000Y-107315281D01*
X174795469Y-107311000D01*
X174795477Y-107311000D01*
X174925490Y-107298195D01*
X175092313Y-107247589D01*
X175246059Y-107165411D01*
X175380817Y-107054817D01*
X175408534Y-107021044D01*
X177436507Y-104993072D01*
X178396000Y-104993072D01*
X178520482Y-104980812D01*
X178640180Y-104944502D01*
X178750494Y-104885537D01*
X178847185Y-104806185D01*
X178926537Y-104709494D01*
X178985502Y-104599180D01*
X179021812Y-104479482D01*
X179034072Y-104355000D01*
X179034072Y-102655000D01*
X179021812Y-102530518D01*
X178985502Y-102410820D01*
X178926537Y-102300506D01*
X178847185Y-102203815D01*
X178750494Y-102124463D01*
X178640180Y-102065498D01*
X178559534Y-102041034D01*
X178643588Y-101965269D01*
X178817641Y-101731920D01*
X178942825Y-101469099D01*
X178987476Y-101321890D01*
X178866155Y-101092000D01*
X177673000Y-101092000D01*
X177673000Y-101112000D01*
X177419000Y-101112000D01*
X177419000Y-101092000D01*
X176225845Y-101092000D01*
X176104524Y-101321890D01*
X176149175Y-101469099D01*
X176274359Y-101731920D01*
X176448412Y-101965269D01*
X176532466Y-102041034D01*
X176451820Y-102065498D01*
X176341506Y-102124463D01*
X176244815Y-102203815D01*
X176165463Y-102300506D01*
X176106498Y-102410820D01*
X176070188Y-102530518D01*
X176061375Y-102620000D01*
X175880579Y-102620000D01*
X174656017Y-101395439D01*
X174663000Y-101360335D01*
X174663000Y-101077665D01*
X174607853Y-100800426D01*
X174499680Y-100539273D01*
X174342637Y-100304241D01*
X174142759Y-100104363D01*
X173907727Y-99947320D01*
X173646574Y-99839147D01*
X173438119Y-99797682D01*
X176398347Y-96837454D01*
X176599368Y-97038475D01*
X176773760Y-97155000D01*
X176599368Y-97271525D01*
X176392525Y-97478368D01*
X176230010Y-97721589D01*
X176118068Y-97991842D01*
X176061000Y-98278740D01*
X176061000Y-98571260D01*
X176118068Y-98858158D01*
X176230010Y-99128411D01*
X176392525Y-99371632D01*
X176599368Y-99578475D01*
X176781534Y-99700195D01*
X176664645Y-99769822D01*
X176448412Y-99964731D01*
X176274359Y-100198080D01*
X176149175Y-100460901D01*
X176104524Y-100608110D01*
X176225845Y-100838000D01*
X177419000Y-100838000D01*
X177419000Y-100818000D01*
X177673000Y-100818000D01*
X177673000Y-100838000D01*
X178866155Y-100838000D01*
X178987476Y-100608110D01*
X178942825Y-100460901D01*
X178817641Y-100198080D01*
X178643588Y-99964731D01*
X178427355Y-99769822D01*
X178310466Y-99700195D01*
X178492632Y-99578475D01*
X178699475Y-99371632D01*
X178861990Y-99128411D01*
X178973932Y-98858158D01*
X179031000Y-98571260D01*
X179031000Y-98278740D01*
X178973932Y-97991842D01*
X178861990Y-97721589D01*
X178699475Y-97478368D01*
X178492632Y-97271525D01*
X178318240Y-97155000D01*
X178492632Y-97038475D01*
X178699475Y-96831632D01*
X178861990Y-96588411D01*
X178973932Y-96318158D01*
X179031000Y-96031260D01*
X179031000Y-95738740D01*
X178973932Y-95451842D01*
X178861990Y-95181589D01*
X178699475Y-94938368D01*
X178492632Y-94731525D01*
X178318240Y-94615000D01*
X178492632Y-94498475D01*
X178699475Y-94291632D01*
X178861990Y-94048411D01*
X178973932Y-93778158D01*
X179031000Y-93491260D01*
X179031000Y-93198740D01*
X178973932Y-92911842D01*
X178861990Y-92641589D01*
X178699475Y-92398368D01*
X178492632Y-92191525D01*
X178249411Y-92029010D01*
X177979158Y-91917068D01*
X177692260Y-91860000D01*
X177399740Y-91860000D01*
X177112842Y-91917068D01*
X176842589Y-92029010D01*
X176782000Y-92069494D01*
X176782000Y-90592072D01*
X176822000Y-90592072D01*
X176946482Y-90579812D01*
X177066180Y-90543502D01*
X177176494Y-90484537D01*
X177273185Y-90405185D01*
X177352537Y-90308494D01*
X177411502Y-90198180D01*
X177447812Y-90078482D01*
X177460072Y-89954000D01*
X177460072Y-88354000D01*
X177447812Y-88229518D01*
X177411502Y-88109820D01*
X177352537Y-87999506D01*
X177273185Y-87902815D01*
X177176494Y-87823463D01*
X177066180Y-87764498D01*
X176946482Y-87728188D01*
X176822000Y-87715928D01*
X175222000Y-87715928D01*
X175097518Y-87728188D01*
X174977820Y-87764498D01*
X174867506Y-87823463D01*
X174770815Y-87902815D01*
X174691463Y-87999506D01*
X174632498Y-88109820D01*
X174596188Y-88229518D01*
X174595357Y-88237961D01*
X174396759Y-88039363D01*
X174242000Y-87935957D01*
X174242000Y-85526136D01*
X174309506Y-85581537D01*
X174419820Y-85640502D01*
X174539518Y-85676812D01*
X174664000Y-85689072D01*
X176364000Y-85689072D01*
X176488482Y-85676812D01*
X176608180Y-85640502D01*
X176718494Y-85581537D01*
X176815185Y-85502185D01*
X176894537Y-85405494D01*
X176953502Y-85295180D01*
X176989812Y-85175482D01*
X177002072Y-85051000D01*
X177002072Y-83351000D01*
X176989812Y-83226518D01*
X176953502Y-83106820D01*
X176894537Y-82996506D01*
X176815185Y-82899815D01*
X176718494Y-82820463D01*
X176608180Y-82761498D01*
X176488482Y-82725188D01*
X176364000Y-82712928D01*
X175100729Y-82712928D01*
X174680804Y-82293003D01*
X174657001Y-82263999D01*
X174541276Y-82169026D01*
X174409247Y-82098454D01*
X174265986Y-82054997D01*
X174154333Y-82044000D01*
X174154322Y-82044000D01*
X174117000Y-82040324D01*
X174079678Y-82044000D01*
X133768322Y-82044000D01*
X133730999Y-82040324D01*
X133693676Y-82044000D01*
X133693667Y-82044000D01*
X133582014Y-82054997D01*
X133438753Y-82098454D01*
X133306724Y-82169026D01*
X133190999Y-82263999D01*
X133167201Y-82292997D01*
X132700408Y-82759790D01*
X132480260Y-82716000D01*
X132187740Y-82716000D01*
X131900842Y-82773068D01*
X131630589Y-82885010D01*
X131387368Y-83047525D01*
X131180525Y-83254368D01*
X131018010Y-83497589D01*
X130906068Y-83767842D01*
X130849000Y-84054740D01*
X130849000Y-84347260D01*
X130906068Y-84634158D01*
X131018010Y-84904411D01*
X131180525Y-85147632D01*
X131387368Y-85354475D01*
X131630589Y-85516990D01*
X131900842Y-85628932D01*
X132187740Y-85686000D01*
X132336000Y-85686000D01*
X132336001Y-87715928D01*
X131026000Y-87715928D01*
X130901518Y-87728188D01*
X130781820Y-87764498D01*
X130671506Y-87823463D01*
X130574815Y-87902815D01*
X130495463Y-87999506D01*
X130436498Y-88109820D01*
X130400188Y-88229518D01*
X130387928Y-88354000D01*
X130387928Y-89954000D01*
X130400188Y-90078482D01*
X130436498Y-90198180D01*
X130495463Y-90308494D01*
X130574815Y-90405185D01*
X130671506Y-90484537D01*
X130781820Y-90543502D01*
X130901518Y-90579812D01*
X131026000Y-90592072D01*
X132567053Y-90592072D01*
X132584998Y-90606799D01*
X134238998Y-92260801D01*
X134238998Y-92329084D01*
X134016961Y-92207096D01*
X133882913Y-92247754D01*
X133628580Y-92367963D01*
X133402586Y-92535481D01*
X133213615Y-92743869D01*
X133068930Y-92985119D01*
X132974091Y-93249960D01*
X133095376Y-93472000D01*
X134239000Y-93472000D01*
X134239000Y-93452000D01*
X134493000Y-93452000D01*
X134493000Y-93472000D01*
X134513000Y-93472000D01*
X134513000Y-93726000D01*
X134493000Y-93726000D01*
X134493000Y-94868915D01*
X134715039Y-94990904D01*
X134849087Y-94950246D01*
X134876001Y-94937525D01*
X134876001Y-96336199D01*
X132487842Y-93948040D01*
X132974091Y-93948040D01*
X133068930Y-94212881D01*
X133213615Y-94454131D01*
X133402586Y-94662519D01*
X133628580Y-94830037D01*
X133882913Y-94950246D01*
X134016961Y-94990904D01*
X134239000Y-94868915D01*
X134239000Y-93726000D01*
X133095376Y-93726000D01*
X132974091Y-93948040D01*
X132487842Y-93948040D01*
X131787000Y-93247199D01*
X131787000Y-93198740D01*
X131729932Y-92911842D01*
X131617990Y-92641589D01*
X131455475Y-92398368D01*
X131248632Y-92191525D01*
X131005411Y-92029010D01*
X130735158Y-91917068D01*
X130448260Y-91860000D01*
X130155740Y-91860000D01*
X129868842Y-91917068D01*
X129598589Y-92029010D01*
X129355368Y-92191525D01*
X129148525Y-92398368D01*
X128986010Y-92641589D01*
X128874068Y-92911842D01*
X128817000Y-93198740D01*
X128817000Y-93491260D01*
X128874068Y-93778158D01*
X128986010Y-94048411D01*
X129148525Y-94291632D01*
X129355368Y-94498475D01*
X129529760Y-94615000D01*
X129355368Y-94731525D01*
X129148525Y-94938368D01*
X128986010Y-95181589D01*
X128874068Y-95451842D01*
X128817000Y-95738740D01*
X128817000Y-96031260D01*
X128874068Y-96318158D01*
X128986010Y-96588411D01*
X129148525Y-96831632D01*
X129355368Y-97038475D01*
X129529760Y-97155000D01*
X129355368Y-97271525D01*
X129148525Y-97478368D01*
X128986010Y-97721589D01*
X128874068Y-97991842D01*
X128817000Y-98278740D01*
X128817000Y-98571260D01*
X128874068Y-98858158D01*
X128986010Y-99128411D01*
X129148525Y-99371632D01*
X129355368Y-99578475D01*
X129537534Y-99700195D01*
X129420645Y-99769822D01*
X129204412Y-99964731D01*
X129030359Y-100198080D01*
X128905175Y-100460901D01*
X128860524Y-100608110D01*
X128981845Y-100838000D01*
X130175000Y-100838000D01*
X130175000Y-100818000D01*
X130429000Y-100818000D01*
X130429000Y-100838000D01*
X131622155Y-100838000D01*
X131743476Y-100608110D01*
X131698825Y-100460901D01*
X131573641Y-100198080D01*
X131399588Y-99964731D01*
X131183355Y-99769822D01*
X131066466Y-99700195D01*
X131248632Y-99578475D01*
X131455475Y-99371632D01*
X131617990Y-99128411D01*
X131729932Y-98858158D01*
X131787000Y-98571260D01*
X131787000Y-98278740D01*
X131729932Y-97991842D01*
X131617990Y-97721589D01*
X131455475Y-97478368D01*
X131248632Y-97271525D01*
X131074240Y-97155000D01*
X131248632Y-97038475D01*
X131455475Y-96831632D01*
X131617990Y-96588411D01*
X131729932Y-96318158D01*
X131787000Y-96031260D01*
X131787000Y-95738740D01*
X131729932Y-95451842D01*
X131650660Y-95260461D01*
X136146000Y-99755802D01*
X136146000Y-100000956D01*
X135991241Y-100104363D01*
X135791363Y-100304241D01*
X135636000Y-100536759D01*
X135480637Y-100304241D01*
X135280759Y-100104363D01*
X135045727Y-99947320D01*
X134784574Y-99839147D01*
X134507335Y-99784000D01*
X134224665Y-99784000D01*
X133947426Y-99839147D01*
X133686273Y-99947320D01*
X133451241Y-100104363D01*
X133251363Y-100304241D01*
X133094320Y-100539273D01*
X132986147Y-100800426D01*
X132931000Y-101077665D01*
X132931000Y-101360335D01*
X132986147Y-101637574D01*
X133094320Y-101898727D01*
X133251363Y-102133759D01*
X133451241Y-102333637D01*
X133686273Y-102490680D01*
X133947426Y-102598853D01*
X134224665Y-102654000D01*
X134507335Y-102654000D01*
X134784574Y-102598853D01*
X135045727Y-102490680D01*
X135280759Y-102333637D01*
X135480637Y-102133759D01*
X135636000Y-101901241D01*
X135791363Y-102133759D01*
X135991241Y-102333637D01*
X136226273Y-102490680D01*
X136487426Y-102598853D01*
X136764665Y-102654000D01*
X137047335Y-102654000D01*
X137324574Y-102598853D01*
X137585727Y-102490680D01*
X137632071Y-102459714D01*
X137636000Y-102464502D01*
X137664998Y-102488300D01*
X138018998Y-102842300D01*
X138018998Y-102913748D01*
X137860250Y-102755000D01*
X137646000Y-102751928D01*
X137521518Y-102764188D01*
X137401820Y-102800498D01*
X137291506Y-102859463D01*
X137194815Y-102938815D01*
X137115463Y-103035506D01*
X137056498Y-103145820D01*
X137020188Y-103265518D01*
X137007928Y-103390000D01*
X137011000Y-103854250D01*
X137169750Y-104013000D01*
X137911000Y-104013000D01*
X137911000Y-104267000D01*
X137169750Y-104267000D01*
X137011000Y-104425750D01*
X137007928Y-104890000D01*
X137020188Y-105014482D01*
X137056498Y-105134180D01*
X137115463Y-105244494D01*
X137194815Y-105341185D01*
X137291506Y-105420537D01*
X137401820Y-105479502D01*
X137521518Y-105515812D01*
X137646000Y-105528072D01*
X137860250Y-105525000D01*
X138019000Y-105366250D01*
X138019000Y-104793740D01*
X138054883Y-104837737D01*
X138092310Y-104884286D01*
X138094015Y-104885717D01*
X138095423Y-104887443D01*
X138141473Y-104925539D01*
X138187246Y-104963947D01*
X138189198Y-104965020D01*
X138190913Y-104966439D01*
X138243461Y-104994851D01*
X138273000Y-105011091D01*
X138273000Y-105366250D01*
X138431750Y-105525000D01*
X138646000Y-105528072D01*
X138770482Y-105515812D01*
X138796000Y-105508071D01*
X138821518Y-105515812D01*
X138946000Y-105528072D01*
X139946000Y-105528072D01*
X139986001Y-105524132D01*
X139986001Y-105541000D01*
X135113579Y-105541000D01*
X132482534Y-102909956D01*
X132454817Y-102876183D01*
X132320059Y-102765589D01*
X132166313Y-102683411D01*
X131999490Y-102632805D01*
X131869477Y-102620000D01*
X131869469Y-102620000D01*
X131826000Y-102615719D01*
X131786586Y-102619601D01*
X131777812Y-102530518D01*
X131741502Y-102410820D01*
X131682537Y-102300506D01*
X131603185Y-102203815D01*
X131506494Y-102124463D01*
X131396180Y-102065498D01*
X131315534Y-102041034D01*
X131399588Y-101965269D01*
X131573641Y-101731920D01*
X131698825Y-101469099D01*
X131743476Y-101321890D01*
X131622155Y-101092000D01*
X130429000Y-101092000D01*
X130429000Y-101112000D01*
X130175000Y-101112000D01*
X130175000Y-101092000D01*
X128981845Y-101092000D01*
X128860524Y-101321890D01*
X128905175Y-101469099D01*
X129030359Y-101731920D01*
X129204412Y-101965269D01*
X129288466Y-102041034D01*
X129207820Y-102065498D01*
X129097506Y-102124463D01*
X129000815Y-102203815D01*
X128921463Y-102300506D01*
X128862498Y-102410820D01*
X128826188Y-102530518D01*
X128813928Y-102655000D01*
X128143000Y-102655000D01*
X128143000Y-82994935D01*
X128172644Y-83014742D01*
X128502811Y-83151502D01*
X128853315Y-83221222D01*
X129210685Y-83221222D01*
X129561189Y-83151502D01*
X129891356Y-83014742D01*
X130188499Y-82816198D01*
X130441198Y-82563499D01*
X130639742Y-82266356D01*
X130776502Y-81936189D01*
X130846222Y-81585685D01*
X130846222Y-81228315D01*
X130776502Y-80877811D01*
X130639742Y-80547644D01*
X130619935Y-80518000D01*
X177228065Y-80518000D01*
X177208258Y-80547644D01*
%TA.AperFunction,Conductor*%
D21*
G36*
X177208258Y-80547644D02*
G01*
X177071498Y-80877811D01*
X177001778Y-81228315D01*
X177001778Y-81585685D01*
X177071498Y-81936189D01*
X177208258Y-82266356D01*
X177406802Y-82563499D01*
X177659501Y-82816198D01*
X177956644Y-83014742D01*
X178286811Y-83151502D01*
X178637315Y-83221222D01*
X178994685Y-83221222D01*
X179345189Y-83151502D01*
X179675356Y-83014742D01*
X179705000Y-82994935D01*
X179705000Y-105473065D01*
X179675356Y-105453258D01*
X179345189Y-105316498D01*
X178994685Y-105246778D01*
X178637315Y-105246778D01*
X178286811Y-105316498D01*
X177956644Y-105453258D01*
X177659501Y-105651802D01*
X177406802Y-105904501D01*
X177208258Y-106201644D01*
X177071498Y-106531811D01*
X177001778Y-106882315D01*
X177001778Y-107239685D01*
X177071498Y-107590189D01*
X177208258Y-107920356D01*
X177228065Y-107950000D01*
X130619935Y-107950000D01*
X130639742Y-107920356D01*
X130776502Y-107590189D01*
X130846222Y-107239685D01*
X130846222Y-106882315D01*
X130776502Y-106531811D01*
X130639742Y-106201644D01*
X130441198Y-105904501D01*
X130188499Y-105651802D01*
X129891356Y-105453258D01*
X129561189Y-105316498D01*
X129210685Y-105246778D01*
X128853315Y-105246778D01*
X128502811Y-105316498D01*
X128172644Y-105453258D01*
X128143000Y-105473065D01*
X128143000Y-102655000D01*
X128813928Y-102655000D01*
X128813928Y-104355000D01*
X128826188Y-104479482D01*
X128862498Y-104599180D01*
X128921463Y-104709494D01*
X129000815Y-104806185D01*
X129097506Y-104885537D01*
X129207820Y-104944502D01*
X129327518Y-104980812D01*
X129452000Y-104993072D01*
X131152000Y-104993072D01*
X131276482Y-104980812D01*
X131396180Y-104944502D01*
X131506494Y-104885537D01*
X131603185Y-104806185D01*
X131682537Y-104709494D01*
X131716109Y-104646687D01*
X134090470Y-107021049D01*
X134118183Y-107054817D01*
X134151951Y-107082530D01*
X134151953Y-107082532D01*
X134207412Y-107128046D01*
X134252941Y-107165411D01*
X134406687Y-107247589D01*
X134573510Y-107298195D01*
X134703523Y-107311000D01*
X134703531Y-107311000D01*
X134747000Y-107315281D01*
X134790469Y-107311000D01*
X140736033Y-107311000D01*
X140779499Y-107315281D01*
X140822965Y-107311000D01*
X153880524Y-107311000D01*
X153924000Y-107315282D01*
X153967477Y-107311000D01*
X161945031Y-107311000D01*
X161988500Y-107315281D01*
X162031969Y-107311000D01*
X174708531Y-107311000D01*
X174752000Y-107315281D01*
X174795469Y-107311000D01*
X174795477Y-107311000D01*
X174925490Y-107298195D01*
X175092313Y-107247589D01*
X175246059Y-107165411D01*
X175380817Y-107054817D01*
X175408534Y-107021044D01*
X177436507Y-104993072D01*
X178396000Y-104993072D01*
X178520482Y-104980812D01*
X178640180Y-104944502D01*
X178750494Y-104885537D01*
X178847185Y-104806185D01*
X178926537Y-104709494D01*
X178985502Y-104599180D01*
X179021812Y-104479482D01*
X179034072Y-104355000D01*
X179034072Y-102655000D01*
X179021812Y-102530518D01*
X178985502Y-102410820D01*
X178926537Y-102300506D01*
X178847185Y-102203815D01*
X178750494Y-102124463D01*
X178640180Y-102065498D01*
X178559534Y-102041034D01*
X178643588Y-101965269D01*
X178817641Y-101731920D01*
X178942825Y-101469099D01*
X178987476Y-101321890D01*
X178866155Y-101092000D01*
X177673000Y-101092000D01*
X177673000Y-101112000D01*
X177419000Y-101112000D01*
X177419000Y-101092000D01*
X176225845Y-101092000D01*
X176104524Y-101321890D01*
X176149175Y-101469099D01*
X176274359Y-101731920D01*
X176448412Y-101965269D01*
X176532466Y-102041034D01*
X176451820Y-102065498D01*
X176341506Y-102124463D01*
X176244815Y-102203815D01*
X176165463Y-102300506D01*
X176106498Y-102410820D01*
X176070188Y-102530518D01*
X176061375Y-102620000D01*
X175880579Y-102620000D01*
X174656017Y-101395439D01*
X174663000Y-101360335D01*
X174663000Y-101077665D01*
X174607853Y-100800426D01*
X174499680Y-100539273D01*
X174342637Y-100304241D01*
X174142759Y-100104363D01*
X173907727Y-99947320D01*
X173646574Y-99839147D01*
X173438119Y-99797682D01*
X176398347Y-96837454D01*
X176599368Y-97038475D01*
X176773760Y-97155000D01*
X176599368Y-97271525D01*
X176392525Y-97478368D01*
X176230010Y-97721589D01*
X176118068Y-97991842D01*
X176061000Y-98278740D01*
X176061000Y-98571260D01*
X176118068Y-98858158D01*
X176230010Y-99128411D01*
X176392525Y-99371632D01*
X176599368Y-99578475D01*
X176781534Y-99700195D01*
X176664645Y-99769822D01*
X176448412Y-99964731D01*
X176274359Y-100198080D01*
X176149175Y-100460901D01*
X176104524Y-100608110D01*
X176225845Y-100838000D01*
X177419000Y-100838000D01*
X177419000Y-100818000D01*
X177673000Y-100818000D01*
X177673000Y-100838000D01*
X178866155Y-100838000D01*
X178987476Y-100608110D01*
X178942825Y-100460901D01*
X178817641Y-100198080D01*
X178643588Y-99964731D01*
X178427355Y-99769822D01*
X178310466Y-99700195D01*
X178492632Y-99578475D01*
X178699475Y-99371632D01*
X178861990Y-99128411D01*
X178973932Y-98858158D01*
X179031000Y-98571260D01*
X179031000Y-98278740D01*
X178973932Y-97991842D01*
X178861990Y-97721589D01*
X178699475Y-97478368D01*
X178492632Y-97271525D01*
X178318240Y-97155000D01*
X178492632Y-97038475D01*
X178699475Y-96831632D01*
X178861990Y-96588411D01*
X178973932Y-96318158D01*
X179031000Y-96031260D01*
X179031000Y-95738740D01*
X178973932Y-95451842D01*
X178861990Y-95181589D01*
X178699475Y-94938368D01*
X178492632Y-94731525D01*
X178318240Y-94615000D01*
X178492632Y-94498475D01*
X178699475Y-94291632D01*
X178861990Y-94048411D01*
X178973932Y-93778158D01*
X179031000Y-93491260D01*
X179031000Y-93198740D01*
X178973932Y-92911842D01*
X178861990Y-92641589D01*
X178699475Y-92398368D01*
X178492632Y-92191525D01*
X178249411Y-92029010D01*
X177979158Y-91917068D01*
X177692260Y-91860000D01*
X177399740Y-91860000D01*
X177112842Y-91917068D01*
X176842589Y-92029010D01*
X176782000Y-92069494D01*
X176782000Y-90592072D01*
X176822000Y-90592072D01*
X176946482Y-90579812D01*
X177066180Y-90543502D01*
X177176494Y-90484537D01*
X177273185Y-90405185D01*
X177352537Y-90308494D01*
X177411502Y-90198180D01*
X177447812Y-90078482D01*
X177460072Y-89954000D01*
X177460072Y-88354000D01*
X177447812Y-88229518D01*
X177411502Y-88109820D01*
X177352537Y-87999506D01*
X177273185Y-87902815D01*
X177176494Y-87823463D01*
X177066180Y-87764498D01*
X176946482Y-87728188D01*
X176822000Y-87715928D01*
X175222000Y-87715928D01*
X175097518Y-87728188D01*
X174977820Y-87764498D01*
X174867506Y-87823463D01*
X174770815Y-87902815D01*
X174691463Y-87999506D01*
X174632498Y-88109820D01*
X174596188Y-88229518D01*
X174595357Y-88237961D01*
X174396759Y-88039363D01*
X174242000Y-87935957D01*
X174242000Y-85526136D01*
X174309506Y-85581537D01*
X174419820Y-85640502D01*
X174539518Y-85676812D01*
X174664000Y-85689072D01*
X176364000Y-85689072D01*
X176488482Y-85676812D01*
X176608180Y-85640502D01*
X176718494Y-85581537D01*
X176815185Y-85502185D01*
X176894537Y-85405494D01*
X176953502Y-85295180D01*
X176989812Y-85175482D01*
X177002072Y-85051000D01*
X177002072Y-83351000D01*
X176989812Y-83226518D01*
X176953502Y-83106820D01*
X176894537Y-82996506D01*
X176815185Y-82899815D01*
X176718494Y-82820463D01*
X176608180Y-82761498D01*
X176488482Y-82725188D01*
X176364000Y-82712928D01*
X175100729Y-82712928D01*
X174680804Y-82293003D01*
X174657001Y-82263999D01*
X174541276Y-82169026D01*
X174409247Y-82098454D01*
X174265986Y-82054997D01*
X174154333Y-82044000D01*
X174154322Y-82044000D01*
X174117000Y-82040324D01*
X174079678Y-82044000D01*
X133768322Y-82044000D01*
X133730999Y-82040324D01*
X133693676Y-82044000D01*
X133693667Y-82044000D01*
X133582014Y-82054997D01*
X133438753Y-82098454D01*
X133306724Y-82169026D01*
X133190999Y-82263999D01*
X133167201Y-82292997D01*
X132700408Y-82759790D01*
X132480260Y-82716000D01*
X132187740Y-82716000D01*
X131900842Y-82773068D01*
X131630589Y-82885010D01*
X131387368Y-83047525D01*
X131180525Y-83254368D01*
X131018010Y-83497589D01*
X130906068Y-83767842D01*
X130849000Y-84054740D01*
X130849000Y-84347260D01*
X130906068Y-84634158D01*
X131018010Y-84904411D01*
X131180525Y-85147632D01*
X131387368Y-85354475D01*
X131630589Y-85516990D01*
X131900842Y-85628932D01*
X132187740Y-85686000D01*
X132336000Y-85686000D01*
X132336001Y-87715928D01*
X131026000Y-87715928D01*
X130901518Y-87728188D01*
X130781820Y-87764498D01*
X130671506Y-87823463D01*
X130574815Y-87902815D01*
X130495463Y-87999506D01*
X130436498Y-88109820D01*
X130400188Y-88229518D01*
X130387928Y-88354000D01*
X130387928Y-89954000D01*
X130400188Y-90078482D01*
X130436498Y-90198180D01*
X130495463Y-90308494D01*
X130574815Y-90405185D01*
X130671506Y-90484537D01*
X130781820Y-90543502D01*
X130901518Y-90579812D01*
X131026000Y-90592072D01*
X132567053Y-90592072D01*
X132584998Y-90606799D01*
X134238998Y-92260801D01*
X134238998Y-92329084D01*
X134016961Y-92207096D01*
X133882913Y-92247754D01*
X133628580Y-92367963D01*
X133402586Y-92535481D01*
X133213615Y-92743869D01*
X133068930Y-92985119D01*
X132974091Y-93249960D01*
X133095376Y-93472000D01*
X134239000Y-93472000D01*
X134239000Y-93452000D01*
X134493000Y-93452000D01*
X134493000Y-93472000D01*
X134513000Y-93472000D01*
X134513000Y-93726000D01*
X134493000Y-93726000D01*
X134493000Y-94868915D01*
X134715039Y-94990904D01*
X134849087Y-94950246D01*
X134876001Y-94937525D01*
X134876001Y-96336199D01*
X132487842Y-93948040D01*
X132974091Y-93948040D01*
X133068930Y-94212881D01*
X133213615Y-94454131D01*
X133402586Y-94662519D01*
X133628580Y-94830037D01*
X133882913Y-94950246D01*
X134016961Y-94990904D01*
X134239000Y-94868915D01*
X134239000Y-93726000D01*
X133095376Y-93726000D01*
X132974091Y-93948040D01*
X132487842Y-93948040D01*
X131787000Y-93247199D01*
X131787000Y-93198740D01*
X131729932Y-92911842D01*
X131617990Y-92641589D01*
X131455475Y-92398368D01*
X131248632Y-92191525D01*
X131005411Y-92029010D01*
X130735158Y-91917068D01*
X130448260Y-91860000D01*
X130155740Y-91860000D01*
X129868842Y-91917068D01*
X129598589Y-92029010D01*
X129355368Y-92191525D01*
X129148525Y-92398368D01*
X128986010Y-92641589D01*
X128874068Y-92911842D01*
X128817000Y-93198740D01*
X128817000Y-93491260D01*
X128874068Y-93778158D01*
X128986010Y-94048411D01*
X129148525Y-94291632D01*
X129355368Y-94498475D01*
X129529760Y-94615000D01*
X129355368Y-94731525D01*
X129148525Y-94938368D01*
X128986010Y-95181589D01*
X128874068Y-95451842D01*
X128817000Y-95738740D01*
X128817000Y-96031260D01*
X128874068Y-96318158D01*
X128986010Y-96588411D01*
X129148525Y-96831632D01*
X129355368Y-97038475D01*
X129529760Y-97155000D01*
X129355368Y-97271525D01*
X129148525Y-97478368D01*
X128986010Y-97721589D01*
X128874068Y-97991842D01*
X128817000Y-98278740D01*
X128817000Y-98571260D01*
X128874068Y-98858158D01*
X128986010Y-99128411D01*
X129148525Y-99371632D01*
X129355368Y-99578475D01*
X129537534Y-99700195D01*
X129420645Y-99769822D01*
X129204412Y-99964731D01*
X129030359Y-100198080D01*
X128905175Y-100460901D01*
X128860524Y-100608110D01*
X128981845Y-100838000D01*
X130175000Y-100838000D01*
X130175000Y-100818000D01*
X130429000Y-100818000D01*
X130429000Y-100838000D01*
X131622155Y-100838000D01*
X131743476Y-100608110D01*
X131698825Y-100460901D01*
X131573641Y-100198080D01*
X131399588Y-99964731D01*
X131183355Y-99769822D01*
X131066466Y-99700195D01*
X131248632Y-99578475D01*
X131455475Y-99371632D01*
X131617990Y-99128411D01*
X131729932Y-98858158D01*
X131787000Y-98571260D01*
X131787000Y-98278740D01*
X131729932Y-97991842D01*
X131617990Y-97721589D01*
X131455475Y-97478368D01*
X131248632Y-97271525D01*
X131074240Y-97155000D01*
X131248632Y-97038475D01*
X131455475Y-96831632D01*
X131617990Y-96588411D01*
X131729932Y-96318158D01*
X131787000Y-96031260D01*
X131787000Y-95738740D01*
X131729932Y-95451842D01*
X131650660Y-95260461D01*
X136146000Y-99755802D01*
X136146000Y-100000956D01*
X135991241Y-100104363D01*
X135791363Y-100304241D01*
X135636000Y-100536759D01*
X135480637Y-100304241D01*
X135280759Y-100104363D01*
X135045727Y-99947320D01*
X134784574Y-99839147D01*
X134507335Y-99784000D01*
X134224665Y-99784000D01*
X133947426Y-99839147D01*
X133686273Y-99947320D01*
X133451241Y-100104363D01*
X133251363Y-100304241D01*
X133094320Y-100539273D01*
X132986147Y-100800426D01*
X132931000Y-101077665D01*
X132931000Y-101360335D01*
X132986147Y-101637574D01*
X133094320Y-101898727D01*
X133251363Y-102133759D01*
X133451241Y-102333637D01*
X133686273Y-102490680D01*
X133947426Y-102598853D01*
X134224665Y-102654000D01*
X134507335Y-102654000D01*
X134784574Y-102598853D01*
X135045727Y-102490680D01*
X135280759Y-102333637D01*
X135480637Y-102133759D01*
X135636000Y-101901241D01*
X135791363Y-102133759D01*
X135991241Y-102333637D01*
X136226273Y-102490680D01*
X136487426Y-102598853D01*
X136764665Y-102654000D01*
X137047335Y-102654000D01*
X137324574Y-102598853D01*
X137585727Y-102490680D01*
X137632071Y-102459714D01*
X137636000Y-102464502D01*
X137664998Y-102488300D01*
X138018998Y-102842300D01*
X138018998Y-102913748D01*
X137860250Y-102755000D01*
X137646000Y-102751928D01*
X137521518Y-102764188D01*
X137401820Y-102800498D01*
X137291506Y-102859463D01*
X137194815Y-102938815D01*
X137115463Y-103035506D01*
X137056498Y-103145820D01*
X137020188Y-103265518D01*
X137007928Y-103390000D01*
X137011000Y-103854250D01*
X137169750Y-104013000D01*
X137911000Y-104013000D01*
X137911000Y-104267000D01*
X137169750Y-104267000D01*
X137011000Y-104425750D01*
X137007928Y-104890000D01*
X137020188Y-105014482D01*
X137056498Y-105134180D01*
X137115463Y-105244494D01*
X137194815Y-105341185D01*
X137291506Y-105420537D01*
X137401820Y-105479502D01*
X137521518Y-105515812D01*
X137646000Y-105528072D01*
X137860250Y-105525000D01*
X138019000Y-105366250D01*
X138019000Y-104793740D01*
X138054883Y-104837737D01*
X138092310Y-104884286D01*
X138094015Y-104885717D01*
X138095423Y-104887443D01*
X138141473Y-104925539D01*
X138187246Y-104963947D01*
X138189198Y-104965020D01*
X138190913Y-104966439D01*
X138243461Y-104994851D01*
X138273000Y-105011091D01*
X138273000Y-105366250D01*
X138431750Y-105525000D01*
X138646000Y-105528072D01*
X138770482Y-105515812D01*
X138796000Y-105508071D01*
X138821518Y-105515812D01*
X138946000Y-105528072D01*
X139946000Y-105528072D01*
X139986001Y-105524132D01*
X139986001Y-105541000D01*
X135113579Y-105541000D01*
X132482534Y-102909956D01*
X132454817Y-102876183D01*
X132320059Y-102765589D01*
X132166313Y-102683411D01*
X131999490Y-102632805D01*
X131869477Y-102620000D01*
X131869469Y-102620000D01*
X131826000Y-102615719D01*
X131786586Y-102619601D01*
X131777812Y-102530518D01*
X131741502Y-102410820D01*
X131682537Y-102300506D01*
X131603185Y-102203815D01*
X131506494Y-102124463D01*
X131396180Y-102065498D01*
X131315534Y-102041034D01*
X131399588Y-101965269D01*
X131573641Y-101731920D01*
X131698825Y-101469099D01*
X131743476Y-101321890D01*
X131622155Y-101092000D01*
X130429000Y-101092000D01*
X130429000Y-101112000D01*
X130175000Y-101112000D01*
X130175000Y-101092000D01*
X128981845Y-101092000D01*
X128860524Y-101321890D01*
X128905175Y-101469099D01*
X129030359Y-101731920D01*
X129204412Y-101965269D01*
X129288466Y-102041034D01*
X129207820Y-102065498D01*
X129097506Y-102124463D01*
X129000815Y-102203815D01*
X128921463Y-102300506D01*
X128862498Y-102410820D01*
X128826188Y-102530518D01*
X128813928Y-102655000D01*
X128143000Y-102655000D01*
X128143000Y-82994935D01*
X128172644Y-83014742D01*
X128502811Y-83151502D01*
X128853315Y-83221222D01*
X129210685Y-83221222D01*
X129561189Y-83151502D01*
X129891356Y-83014742D01*
X130188499Y-82816198D01*
X130441198Y-82563499D01*
X130639742Y-82266356D01*
X130776502Y-81936189D01*
X130846222Y-81585685D01*
X130846222Y-81228315D01*
X130776502Y-80877811D01*
X130639742Y-80547644D01*
X130619935Y-80518000D01*
X177228065Y-80518000D01*
X177208258Y-80547644D01*
G37*
%TD.AperFunction*%
D20*
X170815000Y-101092000D02*
X170835000Y-101092000D01*
X170835000Y-101346000D01*
X170815000Y-101346000D01*
X170815000Y-102488915D01*
X171037039Y-102610904D01*
X171171087Y-102570246D01*
X171425420Y-102450037D01*
X171651414Y-102282519D01*
X171840385Y-102074131D01*
X171951933Y-101888135D01*
X171956320Y-101898727D01*
X172113363Y-102133759D01*
X172313241Y-102333637D01*
X172343001Y-102353522D01*
X172343000Y-103005478D01*
X172313241Y-103025363D01*
X172113363Y-103225241D01*
X171956320Y-103460273D01*
X171848147Y-103721426D01*
X171793000Y-103998665D01*
X171793000Y-104281335D01*
X171848147Y-104558574D01*
X171956320Y-104819727D01*
X172113363Y-105054759D01*
X172313241Y-105254637D01*
X172548273Y-105411680D01*
X172809426Y-105519853D01*
X172915738Y-105541000D01*
X168563194Y-105541000D01*
X168578130Y-105538787D01*
X168844292Y-105443603D01*
X168969514Y-105376671D01*
X169041097Y-105132702D01*
X168228000Y-104319605D01*
X167414903Y-105132702D01*
X167486486Y-105376671D01*
X167741996Y-105497571D01*
X167915252Y-105541000D01*
X162745000Y-105541000D01*
X162745000Y-105471046D01*
X162839494Y-105420537D01*
X162936185Y-105341185D01*
X163015537Y-105244494D01*
X163074502Y-105134180D01*
X163110812Y-105014482D01*
X163123072Y-104890000D01*
X163123072Y-103390000D01*
X163110812Y-103265518D01*
X163105801Y-103249000D01*
X167157393Y-103249000D01*
X167235296Y-103326903D01*
X166991329Y-103398486D01*
X166870429Y-103653996D01*
X166801700Y-103928184D01*
X166787783Y-104210512D01*
X166829213Y-104490130D01*
X166924397Y-104756292D01*
X166991329Y-104881514D01*
X167235298Y-104953097D01*
X168048395Y-104140000D01*
X168407605Y-104140000D01*
X169220702Y-104953097D01*
X169464671Y-104881514D01*
X169585571Y-104626004D01*
X169654300Y-104351816D01*
X169668217Y-104069488D01*
X169626787Y-103789870D01*
X169531603Y-103523708D01*
X169464671Y-103398486D01*
X169220702Y-103326903D01*
X168407605Y-104140000D01*
X168048395Y-104140000D01*
X168034253Y-104125858D01*
X168213858Y-103946253D01*
X168228000Y-103960395D01*
X168958406Y-103229989D01*
X169075247Y-103194546D01*
X169207276Y-103123974D01*
X169323001Y-103029001D01*
X169346803Y-102999998D01*
X169919674Y-102427128D01*
X169950580Y-102450037D01*
X170204913Y-102570246D01*
X170338961Y-102610904D01*
X170561000Y-102488915D01*
X170561000Y-101346000D01*
X170541000Y-101346000D01*
X170541000Y-101092000D01*
X170561000Y-101092000D01*
X170561000Y-101072000D01*
X170815000Y-101072000D01*
X170815000Y-101092000D01*
%TA.AperFunction,Conductor*%
D21*
G36*
X170815000Y-101092000D02*
G01*
X170835000Y-101092000D01*
X170835000Y-101346000D01*
X170815000Y-101346000D01*
X170815000Y-102488915D01*
X171037039Y-102610904D01*
X171171087Y-102570246D01*
X171425420Y-102450037D01*
X171651414Y-102282519D01*
X171840385Y-102074131D01*
X171951933Y-101888135D01*
X171956320Y-101898727D01*
X172113363Y-102133759D01*
X172313241Y-102333637D01*
X172343001Y-102353522D01*
X172343000Y-103005478D01*
X172313241Y-103025363D01*
X172113363Y-103225241D01*
X171956320Y-103460273D01*
X171848147Y-103721426D01*
X171793000Y-103998665D01*
X171793000Y-104281335D01*
X171848147Y-104558574D01*
X171956320Y-104819727D01*
X172113363Y-105054759D01*
X172313241Y-105254637D01*
X172548273Y-105411680D01*
X172809426Y-105519853D01*
X172915738Y-105541000D01*
X168563194Y-105541000D01*
X168578130Y-105538787D01*
X168844292Y-105443603D01*
X168969514Y-105376671D01*
X169041097Y-105132702D01*
X168228000Y-104319605D01*
X167414903Y-105132702D01*
X167486486Y-105376671D01*
X167741996Y-105497571D01*
X167915252Y-105541000D01*
X162745000Y-105541000D01*
X162745000Y-105471046D01*
X162839494Y-105420537D01*
X162936185Y-105341185D01*
X163015537Y-105244494D01*
X163074502Y-105134180D01*
X163110812Y-105014482D01*
X163123072Y-104890000D01*
X163123072Y-103390000D01*
X163110812Y-103265518D01*
X163105801Y-103249000D01*
X167157393Y-103249000D01*
X167235296Y-103326903D01*
X166991329Y-103398486D01*
X166870429Y-103653996D01*
X166801700Y-103928184D01*
X166787783Y-104210512D01*
X166829213Y-104490130D01*
X166924397Y-104756292D01*
X166991329Y-104881514D01*
X167235298Y-104953097D01*
X168048395Y-104140000D01*
X168407605Y-104140000D01*
X169220702Y-104953097D01*
X169464671Y-104881514D01*
X169585571Y-104626004D01*
X169654300Y-104351816D01*
X169668217Y-104069488D01*
X169626787Y-103789870D01*
X169531603Y-103523708D01*
X169464671Y-103398486D01*
X169220702Y-103326903D01*
X168407605Y-104140000D01*
X168048395Y-104140000D01*
X168034253Y-104125858D01*
X168213858Y-103946253D01*
X168228000Y-103960395D01*
X168958406Y-103229989D01*
X169075247Y-103194546D01*
X169207276Y-103123974D01*
X169323001Y-103029001D01*
X169346803Y-102999998D01*
X169919674Y-102427128D01*
X169950580Y-102450037D01*
X170204913Y-102570246D01*
X170338961Y-102610904D01*
X170561000Y-102488915D01*
X170561000Y-101346000D01*
X170541000Y-101346000D01*
X170541000Y-101092000D01*
X170561000Y-101092000D01*
X170561000Y-101072000D01*
X170815000Y-101072000D01*
X170815000Y-101092000D01*
G37*
%TD.AperFunction*%
D20*
X154040525Y-85147632D02*
X154247368Y-85354475D01*
X154490589Y-85516990D01*
X154760842Y-85628932D01*
X154942000Y-85664967D01*
X154942001Y-87935956D01*
X154787241Y-88039363D01*
X154587363Y-88239241D01*
X154430320Y-88474273D01*
X154322147Y-88735426D01*
X154267000Y-89012665D01*
X154267000Y-89295335D01*
X154322147Y-89572574D01*
X154430320Y-89833727D01*
X154587363Y-90068759D01*
X154787241Y-90268637D01*
X155022273Y-90425680D01*
X155283426Y-90533853D01*
X155560665Y-90589000D01*
X155843335Y-90589000D01*
X156025886Y-90552688D01*
X157671951Y-92198753D01*
X157569426Y-92219147D01*
X157308273Y-92327320D01*
X157073241Y-92484363D01*
X156873363Y-92684241D01*
X156716320Y-92919273D01*
X156711933Y-92929865D01*
X156600385Y-92743869D01*
X156411414Y-92535481D01*
X156185420Y-92367963D01*
X155931087Y-92247754D01*
X155797039Y-92207096D01*
X155575000Y-92329085D01*
X155575000Y-93472000D01*
X155595000Y-93472000D01*
X155595000Y-93726000D01*
X155575000Y-93726000D01*
X155575000Y-94868915D01*
X155797039Y-94990904D01*
X155931087Y-94950246D01*
X156185420Y-94830037D01*
X156411414Y-94662519D01*
X156600385Y-94454131D01*
X156711933Y-94268135D01*
X156716320Y-94278727D01*
X156873363Y-94513759D01*
X157073241Y-94713637D01*
X157308273Y-94870680D01*
X157569426Y-94978853D01*
X157846665Y-95034000D01*
X158129335Y-95034000D01*
X158406574Y-94978853D01*
X158498000Y-94940983D01*
X158498001Y-99877017D01*
X158406574Y-99839147D01*
X158129335Y-99784000D01*
X157846665Y-99784000D01*
X157569426Y-99839147D01*
X157308273Y-99947320D01*
X157073241Y-100104363D01*
X156873363Y-100304241D01*
X156718000Y-100536759D01*
X156562637Y-100304241D01*
X156362759Y-100104363D01*
X156127727Y-99947320D01*
X155866574Y-99839147D01*
X155589335Y-99784000D01*
X155306665Y-99784000D01*
X155029426Y-99839147D01*
X154768273Y-99947320D01*
X154533241Y-100104363D01*
X154333363Y-100304241D01*
X154176320Y-100539273D01*
X154068147Y-100800426D01*
X154013000Y-101077665D01*
X154013000Y-101360335D01*
X154068147Y-101637574D01*
X154176320Y-101898727D01*
X154333363Y-102133759D01*
X154533241Y-102333637D01*
X154768273Y-102490680D01*
X155029426Y-102598853D01*
X155306665Y-102654000D01*
X155589335Y-102654000D01*
X155866574Y-102598853D01*
X156127727Y-102490680D01*
X156362759Y-102333637D01*
X156562637Y-102133759D01*
X156718000Y-101901241D01*
X156873363Y-102133759D01*
X157073241Y-102333637D01*
X157308273Y-102490680D01*
X157569426Y-102598853D01*
X157846665Y-102654000D01*
X158129335Y-102654000D01*
X158406574Y-102598853D01*
X158667727Y-102490680D01*
X158902759Y-102333637D01*
X159102637Y-102133759D01*
X159258000Y-101901241D01*
X159413363Y-102133759D01*
X159613241Y-102333637D01*
X159848273Y-102490680D01*
X160102990Y-102596187D01*
X160050026Y-102660724D01*
X159995461Y-102762807D01*
X159885000Y-102751928D01*
X159670750Y-102755000D01*
X159512000Y-102913750D01*
X159512000Y-104013000D01*
X159532000Y-104013000D01*
X159532000Y-104267000D01*
X159512000Y-104267000D01*
X159512000Y-105366250D01*
X159670750Y-105525000D01*
X159885000Y-105528072D01*
X160009482Y-105515812D01*
X160035000Y-105508071D01*
X160060518Y-105515812D01*
X160185000Y-105528072D01*
X161185000Y-105528072D01*
X161225001Y-105524132D01*
X161225001Y-105541000D01*
X154809000Y-105541000D01*
X154809000Y-104890000D01*
X158246928Y-104890000D01*
X158259188Y-105014482D01*
X158295498Y-105134180D01*
X158354463Y-105244494D01*
X158433815Y-105341185D01*
X158530506Y-105420537D01*
X158640820Y-105479502D01*
X158760518Y-105515812D01*
X158885000Y-105528072D01*
X159099250Y-105525000D01*
X159258000Y-105366250D01*
X159258000Y-104267000D01*
X158408750Y-104267000D01*
X158250000Y-104425750D01*
X158246928Y-104890000D01*
X154809000Y-104890000D01*
X154809000Y-103390000D01*
X158246928Y-103390000D01*
X158250000Y-103854250D01*
X158408750Y-104013000D01*
X159258000Y-104013000D01*
X159258000Y-102913750D01*
X159099250Y-102755000D01*
X158885000Y-102751928D01*
X158760518Y-102764188D01*
X158640820Y-102800498D01*
X158530506Y-102859463D01*
X158433815Y-102938815D01*
X158354463Y-103035506D01*
X158295498Y-103145820D01*
X158259188Y-103265518D01*
X158246928Y-103390000D01*
X154809000Y-103390000D01*
X154809000Y-103040469D01*
X154813281Y-102997000D01*
X154809000Y-102953531D01*
X154809000Y-102953523D01*
X154796195Y-102823510D01*
X154745589Y-102656687D01*
X154663411Y-102502941D01*
X154651970Y-102489000D01*
X154580532Y-102401953D01*
X154580530Y-102401951D01*
X154552817Y-102368183D01*
X154519050Y-102340471D01*
X153574017Y-101395439D01*
X153581000Y-101360335D01*
X153581000Y-101077665D01*
X153525853Y-100800426D01*
X153417680Y-100539273D01*
X153260637Y-100304241D01*
X153060759Y-100104363D01*
X152825727Y-99947320D01*
X152564574Y-99839147D01*
X152287335Y-99784000D01*
X152004665Y-99784000D01*
X151727426Y-99839147D01*
X151466273Y-99947320D01*
X151231241Y-100104363D01*
X151031363Y-100304241D01*
X150874320Y-100539273D01*
X150869933Y-100549865D01*
X150758385Y-100363869D01*
X150569414Y-100155481D01*
X150343420Y-99987963D01*
X150089087Y-99867754D01*
X149955039Y-99827096D01*
X149733000Y-99949085D01*
X149733000Y-101092000D01*
X149753000Y-101092000D01*
X149753000Y-101346000D01*
X149733000Y-101346000D01*
X149733000Y-102488915D01*
X149955039Y-102610904D01*
X150089087Y-102570246D01*
X150343420Y-102450037D01*
X150569414Y-102282519D01*
X150758385Y-102074131D01*
X150869933Y-101888135D01*
X150874320Y-101898727D01*
X151031363Y-102133759D01*
X151231241Y-102333637D01*
X151261000Y-102353522D01*
X151261001Y-103005478D01*
X151231241Y-103025363D01*
X151031363Y-103225241D01*
X150874320Y-103460273D01*
X150766147Y-103721426D01*
X150711000Y-103998665D01*
X150711000Y-104281335D01*
X150766147Y-104558574D01*
X150874320Y-104819727D01*
X151031363Y-105054759D01*
X151231241Y-105254637D01*
X151466273Y-105411680D01*
X151727426Y-105519853D01*
X151833738Y-105541000D01*
X147481194Y-105541000D01*
X147496130Y-105538787D01*
X147762292Y-105443603D01*
X147887514Y-105376671D01*
X147959097Y-105132702D01*
X147146000Y-104319605D01*
X146332903Y-105132702D01*
X146404486Y-105376671D01*
X146659996Y-105497571D01*
X146833252Y-105541000D01*
X141506000Y-105541000D01*
X141506000Y-105471046D01*
X141600494Y-105420537D01*
X141697185Y-105341185D01*
X141776537Y-105244494D01*
X141835502Y-105134180D01*
X141871812Y-105014482D01*
X141884072Y-104890000D01*
X141884072Y-104210512D01*
X145705783Y-104210512D01*
X145747213Y-104490130D01*
X145842397Y-104756292D01*
X145909329Y-104881514D01*
X146153298Y-104953097D01*
X146966395Y-104140000D01*
X147325605Y-104140000D01*
X148138702Y-104953097D01*
X148382671Y-104881514D01*
X148503571Y-104626004D01*
X148572300Y-104351816D01*
X148586217Y-104069488D01*
X148544787Y-103789870D01*
X148449603Y-103523708D01*
X148382671Y-103398486D01*
X148138702Y-103326903D01*
X147325605Y-104140000D01*
X146966395Y-104140000D01*
X146153298Y-103326903D01*
X145909329Y-103398486D01*
X145788429Y-103653996D01*
X145719700Y-103928184D01*
X145705783Y-104210512D01*
X141884072Y-104210512D01*
X141884072Y-103390000D01*
X141871812Y-103265518D01*
X141835951Y-103147298D01*
X146332903Y-103147298D01*
X147146000Y-103960395D01*
X147959097Y-103147298D01*
X147887514Y-102903329D01*
X147632004Y-102782429D01*
X147357816Y-102713700D01*
X147075488Y-102699783D01*
X146795870Y-102741213D01*
X146529708Y-102836397D01*
X146404486Y-102903329D01*
X146332903Y-103147298D01*
X141835951Y-103147298D01*
X141835502Y-103145820D01*
X141776537Y-103035506D01*
X141697185Y-102938815D01*
X141600494Y-102859463D01*
X141490180Y-102800498D01*
X141370482Y-102764188D01*
X141246000Y-102751928D01*
X140246000Y-102751928D01*
X140121518Y-102764188D01*
X140096000Y-102771929D01*
X140077855Y-102766425D01*
X139986001Y-102654500D01*
X139957004Y-102630703D01*
X139907410Y-102581110D01*
X140125727Y-102490680D01*
X140360759Y-102333637D01*
X140560637Y-102133759D01*
X140716000Y-101901241D01*
X140871363Y-102133759D01*
X141071241Y-102333637D01*
X141306273Y-102490680D01*
X141567426Y-102598853D01*
X141844665Y-102654000D01*
X142127335Y-102654000D01*
X142404574Y-102598853D01*
X142665727Y-102490680D01*
X142900759Y-102333637D01*
X143100637Y-102133759D01*
X143256000Y-101901241D01*
X143411363Y-102133759D01*
X143611241Y-102333637D01*
X143846273Y-102490680D01*
X144107426Y-102598853D01*
X144384665Y-102654000D01*
X144667335Y-102654000D01*
X144944574Y-102598853D01*
X145205727Y-102490680D01*
X145440759Y-102333637D01*
X145640637Y-102133759D01*
X145796000Y-101901241D01*
X145951363Y-102133759D01*
X146151241Y-102333637D01*
X146386273Y-102490680D01*
X146647426Y-102598853D01*
X146924665Y-102654000D01*
X147207335Y-102654000D01*
X147484574Y-102598853D01*
X147745727Y-102490680D01*
X147980759Y-102333637D01*
X148180637Y-102133759D01*
X148337680Y-101898727D01*
X148342067Y-101888135D01*
X148453615Y-102074131D01*
X148642586Y-102282519D01*
X148868580Y-102450037D01*
X149122913Y-102570246D01*
X149256961Y-102610904D01*
X149479000Y-102488915D01*
X149479000Y-101346000D01*
X149459000Y-101346000D01*
X149459000Y-101092000D01*
X149479000Y-101092000D01*
X149479000Y-99949085D01*
X149256961Y-99827096D01*
X149122913Y-99867754D01*
X148868580Y-99987963D01*
X148642586Y-100155481D01*
X148453615Y-100363869D01*
X148342067Y-100549865D01*
X148337680Y-100539273D01*
X148180637Y-100304241D01*
X147980759Y-100104363D01*
X147745727Y-99947320D01*
X147484574Y-99839147D01*
X147207335Y-99784000D01*
X146924665Y-99784000D01*
X146742114Y-99820312D01*
X146556000Y-99634199D01*
X146556000Y-94940983D01*
X146647426Y-94978853D01*
X146924665Y-95034000D01*
X147207335Y-95034000D01*
X147484574Y-94978853D01*
X147745727Y-94870680D01*
X147980759Y-94713637D01*
X148180637Y-94513759D01*
X148336000Y-94281241D01*
X148491363Y-94513759D01*
X148691241Y-94713637D01*
X148846000Y-94817044D01*
X148846001Y-96451288D01*
X148802063Y-96495226D01*
X148688795Y-96664744D01*
X148610774Y-96853102D01*
X148571000Y-97053061D01*
X148571000Y-97256939D01*
X148610774Y-97456898D01*
X148688795Y-97645256D01*
X148802063Y-97814774D01*
X148946226Y-97958937D01*
X149115744Y-98072205D01*
X149304102Y-98150226D01*
X149504061Y-98190000D01*
X149707939Y-98190000D01*
X149907898Y-98150226D01*
X150096256Y-98072205D01*
X150265774Y-97958937D01*
X150409937Y-97814774D01*
X150523205Y-97645256D01*
X150601226Y-97456898D01*
X150641000Y-97256939D01*
X150641000Y-97053061D01*
X150601226Y-96853102D01*
X150523205Y-96664744D01*
X150409937Y-96495226D01*
X150366000Y-96451289D01*
X150366000Y-94817043D01*
X150520759Y-94713637D01*
X150719357Y-94515039D01*
X150720188Y-94523482D01*
X150756498Y-94643180D01*
X150815463Y-94753494D01*
X150894815Y-94850185D01*
X150991506Y-94929537D01*
X151101820Y-94988502D01*
X151221518Y-95024812D01*
X151346000Y-95037072D01*
X151386000Y-95037072D01*
X151386001Y-97721288D01*
X151342063Y-97765226D01*
X151228795Y-97934744D01*
X151150774Y-98123102D01*
X151111000Y-98323061D01*
X151111000Y-98526939D01*
X151150774Y-98726898D01*
X151228795Y-98915256D01*
X151342063Y-99084774D01*
X151486226Y-99228937D01*
X151655744Y-99342205D01*
X151844102Y-99420226D01*
X152044061Y-99460000D01*
X152247939Y-99460000D01*
X152447898Y-99420226D01*
X152636256Y-99342205D01*
X152805774Y-99228937D01*
X152949937Y-99084774D01*
X153063205Y-98915256D01*
X153141226Y-98726898D01*
X153181000Y-98526939D01*
X153181000Y-98323061D01*
X153141226Y-98123102D01*
X153063205Y-97934744D01*
X152949937Y-97765226D01*
X152906000Y-97721289D01*
X152906000Y-95037072D01*
X152946000Y-95037072D01*
X153070482Y-95024812D01*
X153190180Y-94988502D01*
X153300494Y-94929537D01*
X153397185Y-94850185D01*
X153476537Y-94753494D01*
X153535502Y-94643180D01*
X153571812Y-94523482D01*
X153584072Y-94399000D01*
X153584072Y-93948040D01*
X154056091Y-93948040D01*
X154150930Y-94212881D01*
X154295615Y-94454131D01*
X154484586Y-94662519D01*
X154710580Y-94830037D01*
X154964913Y-94950246D01*
X155098961Y-94990904D01*
X155321000Y-94868915D01*
X155321000Y-93726000D01*
X154177376Y-93726000D01*
X154056091Y-93948040D01*
X153584072Y-93948040D01*
X153584072Y-93249960D01*
X154056091Y-93249960D01*
X154177376Y-93472000D01*
X155321000Y-93472000D01*
X155321000Y-92329085D01*
X155098961Y-92207096D01*
X154964913Y-92247754D01*
X154710580Y-92367963D01*
X154484586Y-92535481D01*
X154295615Y-92743869D01*
X154150930Y-92985119D01*
X154056091Y-93249960D01*
X153584072Y-93249960D01*
X153584072Y-92799000D01*
X153571812Y-92674518D01*
X153535502Y-92554820D01*
X153476537Y-92444506D01*
X153397185Y-92347815D01*
X153300494Y-92268463D01*
X153190180Y-92209498D01*
X153070482Y-92173188D01*
X152946000Y-92160928D01*
X151346000Y-92160928D01*
X151221518Y-92173188D01*
X151101820Y-92209498D01*
X150991506Y-92268463D01*
X150894815Y-92347815D01*
X150815463Y-92444506D01*
X150756498Y-92554820D01*
X150720188Y-92674518D01*
X150719357Y-92682961D01*
X150520759Y-92484363D01*
X150285727Y-92327320D01*
X150024574Y-92219147D01*
X149747335Y-92164000D01*
X149464665Y-92164000D01*
X149187426Y-92219147D01*
X148926273Y-92327320D01*
X148691241Y-92484363D01*
X148491363Y-92684241D01*
X148336000Y-92916759D01*
X148180637Y-92684241D01*
X147980759Y-92484363D01*
X147745727Y-92327320D01*
X147484574Y-92219147D01*
X147207335Y-92164000D01*
X146924665Y-92164000D01*
X146647426Y-92219147D01*
X146441075Y-92304620D01*
X146430974Y-92285724D01*
X146372930Y-92214997D01*
X146359799Y-92198996D01*
X146359795Y-92198992D01*
X146336001Y-92169999D01*
X146307009Y-92146206D01*
X144736120Y-90575318D01*
X144944574Y-90533853D01*
X145205727Y-90425680D01*
X145440759Y-90268637D01*
X145640637Y-90068759D01*
X145796000Y-89836241D01*
X145951363Y-90068759D01*
X146151241Y-90268637D01*
X146386273Y-90425680D01*
X146647426Y-90533853D01*
X146924665Y-90589000D01*
X147207335Y-90589000D01*
X147484574Y-90533853D01*
X147745727Y-90425680D01*
X147980759Y-90268637D01*
X148180637Y-90068759D01*
X148336000Y-89836241D01*
X148491363Y-90068759D01*
X148691241Y-90268637D01*
X148926273Y-90425680D01*
X149187426Y-90533853D01*
X149464665Y-90589000D01*
X149747335Y-90589000D01*
X150024574Y-90533853D01*
X150285727Y-90425680D01*
X150520759Y-90268637D01*
X150720637Y-90068759D01*
X150876000Y-89836241D01*
X151031363Y-90068759D01*
X151231241Y-90268637D01*
X151466273Y-90425680D01*
X151727426Y-90533853D01*
X152004665Y-90589000D01*
X152287335Y-90589000D01*
X152564574Y-90533853D01*
X152825727Y-90425680D01*
X153060759Y-90268637D01*
X153260637Y-90068759D01*
X153417680Y-89833727D01*
X153525853Y-89572574D01*
X153581000Y-89295335D01*
X153581000Y-89012665D01*
X153525853Y-88735426D01*
X153417680Y-88474273D01*
X153260637Y-88239241D01*
X153060759Y-88039363D01*
X152906000Y-87935957D01*
X152906000Y-85664967D01*
X153087158Y-85628932D01*
X153357411Y-85516990D01*
X153600632Y-85354475D01*
X153807475Y-85147632D01*
X153924000Y-84973240D01*
X154040525Y-85147632D01*
%TA.AperFunction,Conductor*%
D21*
G36*
X154040525Y-85147632D02*
G01*
X154247368Y-85354475D01*
X154490589Y-85516990D01*
X154760842Y-85628932D01*
X154942000Y-85664967D01*
X154942001Y-87935956D01*
X154787241Y-88039363D01*
X154587363Y-88239241D01*
X154430320Y-88474273D01*
X154322147Y-88735426D01*
X154267000Y-89012665D01*
X154267000Y-89295335D01*
X154322147Y-89572574D01*
X154430320Y-89833727D01*
X154587363Y-90068759D01*
X154787241Y-90268637D01*
X155022273Y-90425680D01*
X155283426Y-90533853D01*
X155560665Y-90589000D01*
X155843335Y-90589000D01*
X156025886Y-90552688D01*
X157671951Y-92198753D01*
X157569426Y-92219147D01*
X157308273Y-92327320D01*
X157073241Y-92484363D01*
X156873363Y-92684241D01*
X156716320Y-92919273D01*
X156711933Y-92929865D01*
X156600385Y-92743869D01*
X156411414Y-92535481D01*
X156185420Y-92367963D01*
X155931087Y-92247754D01*
X155797039Y-92207096D01*
X155575000Y-92329085D01*
X155575000Y-93472000D01*
X155595000Y-93472000D01*
X155595000Y-93726000D01*
X155575000Y-93726000D01*
X155575000Y-94868915D01*
X155797039Y-94990904D01*
X155931087Y-94950246D01*
X156185420Y-94830037D01*
X156411414Y-94662519D01*
X156600385Y-94454131D01*
X156711933Y-94268135D01*
X156716320Y-94278727D01*
X156873363Y-94513759D01*
X157073241Y-94713637D01*
X157308273Y-94870680D01*
X157569426Y-94978853D01*
X157846665Y-95034000D01*
X158129335Y-95034000D01*
X158406574Y-94978853D01*
X158498000Y-94940983D01*
X158498001Y-99877017D01*
X158406574Y-99839147D01*
X158129335Y-99784000D01*
X157846665Y-99784000D01*
X157569426Y-99839147D01*
X157308273Y-99947320D01*
X157073241Y-100104363D01*
X156873363Y-100304241D01*
X156718000Y-100536759D01*
X156562637Y-100304241D01*
X156362759Y-100104363D01*
X156127727Y-99947320D01*
X155866574Y-99839147D01*
X155589335Y-99784000D01*
X155306665Y-99784000D01*
X155029426Y-99839147D01*
X154768273Y-99947320D01*
X154533241Y-100104363D01*
X154333363Y-100304241D01*
X154176320Y-100539273D01*
X154068147Y-100800426D01*
X154013000Y-101077665D01*
X154013000Y-101360335D01*
X154068147Y-101637574D01*
X154176320Y-101898727D01*
X154333363Y-102133759D01*
X154533241Y-102333637D01*
X154768273Y-102490680D01*
X155029426Y-102598853D01*
X155306665Y-102654000D01*
X155589335Y-102654000D01*
X155866574Y-102598853D01*
X156127727Y-102490680D01*
X156362759Y-102333637D01*
X156562637Y-102133759D01*
X156718000Y-101901241D01*
X156873363Y-102133759D01*
X157073241Y-102333637D01*
X157308273Y-102490680D01*
X157569426Y-102598853D01*
X157846665Y-102654000D01*
X158129335Y-102654000D01*
X158406574Y-102598853D01*
X158667727Y-102490680D01*
X158902759Y-102333637D01*
X159102637Y-102133759D01*
X159258000Y-101901241D01*
X159413363Y-102133759D01*
X159613241Y-102333637D01*
X159848273Y-102490680D01*
X160102990Y-102596187D01*
X160050026Y-102660724D01*
X159995461Y-102762807D01*
X159885000Y-102751928D01*
X159670750Y-102755000D01*
X159512000Y-102913750D01*
X159512000Y-104013000D01*
X159532000Y-104013000D01*
X159532000Y-104267000D01*
X159512000Y-104267000D01*
X159512000Y-105366250D01*
X159670750Y-105525000D01*
X159885000Y-105528072D01*
X160009482Y-105515812D01*
X160035000Y-105508071D01*
X160060518Y-105515812D01*
X160185000Y-105528072D01*
X161185000Y-105528072D01*
X161225001Y-105524132D01*
X161225001Y-105541000D01*
X154809000Y-105541000D01*
X154809000Y-104890000D01*
X158246928Y-104890000D01*
X158259188Y-105014482D01*
X158295498Y-105134180D01*
X158354463Y-105244494D01*
X158433815Y-105341185D01*
X158530506Y-105420537D01*
X158640820Y-105479502D01*
X158760518Y-105515812D01*
X158885000Y-105528072D01*
X159099250Y-105525000D01*
X159258000Y-105366250D01*
X159258000Y-104267000D01*
X158408750Y-104267000D01*
X158250000Y-104425750D01*
X158246928Y-104890000D01*
X154809000Y-104890000D01*
X154809000Y-103390000D01*
X158246928Y-103390000D01*
X158250000Y-103854250D01*
X158408750Y-104013000D01*
X159258000Y-104013000D01*
X159258000Y-102913750D01*
X159099250Y-102755000D01*
X158885000Y-102751928D01*
X158760518Y-102764188D01*
X158640820Y-102800498D01*
X158530506Y-102859463D01*
X158433815Y-102938815D01*
X158354463Y-103035506D01*
X158295498Y-103145820D01*
X158259188Y-103265518D01*
X158246928Y-103390000D01*
X154809000Y-103390000D01*
X154809000Y-103040469D01*
X154813281Y-102997000D01*
X154809000Y-102953531D01*
X154809000Y-102953523D01*
X154796195Y-102823510D01*
X154745589Y-102656687D01*
X154663411Y-102502941D01*
X154651970Y-102489000D01*
X154580532Y-102401953D01*
X154580530Y-102401951D01*
X154552817Y-102368183D01*
X154519050Y-102340471D01*
X153574017Y-101395439D01*
X153581000Y-101360335D01*
X153581000Y-101077665D01*
X153525853Y-100800426D01*
X153417680Y-100539273D01*
X153260637Y-100304241D01*
X153060759Y-100104363D01*
X152825727Y-99947320D01*
X152564574Y-99839147D01*
X152287335Y-99784000D01*
X152004665Y-99784000D01*
X151727426Y-99839147D01*
X151466273Y-99947320D01*
X151231241Y-100104363D01*
X151031363Y-100304241D01*
X150874320Y-100539273D01*
X150869933Y-100549865D01*
X150758385Y-100363869D01*
X150569414Y-100155481D01*
X150343420Y-99987963D01*
X150089087Y-99867754D01*
X149955039Y-99827096D01*
X149733000Y-99949085D01*
X149733000Y-101092000D01*
X149753000Y-101092000D01*
X149753000Y-101346000D01*
X149733000Y-101346000D01*
X149733000Y-102488915D01*
X149955039Y-102610904D01*
X150089087Y-102570246D01*
X150343420Y-102450037D01*
X150569414Y-102282519D01*
X150758385Y-102074131D01*
X150869933Y-101888135D01*
X150874320Y-101898727D01*
X151031363Y-102133759D01*
X151231241Y-102333637D01*
X151261000Y-102353522D01*
X151261001Y-103005478D01*
X151231241Y-103025363D01*
X151031363Y-103225241D01*
X150874320Y-103460273D01*
X150766147Y-103721426D01*
X150711000Y-103998665D01*
X150711000Y-104281335D01*
X150766147Y-104558574D01*
X150874320Y-104819727D01*
X151031363Y-105054759D01*
X151231241Y-105254637D01*
X151466273Y-105411680D01*
X151727426Y-105519853D01*
X151833738Y-105541000D01*
X147481194Y-105541000D01*
X147496130Y-105538787D01*
X147762292Y-105443603D01*
X147887514Y-105376671D01*
X147959097Y-105132702D01*
X147146000Y-104319605D01*
X146332903Y-105132702D01*
X146404486Y-105376671D01*
X146659996Y-105497571D01*
X146833252Y-105541000D01*
X141506000Y-105541000D01*
X141506000Y-105471046D01*
X141600494Y-105420537D01*
X141697185Y-105341185D01*
X141776537Y-105244494D01*
X141835502Y-105134180D01*
X141871812Y-105014482D01*
X141884072Y-104890000D01*
X141884072Y-104210512D01*
X145705783Y-104210512D01*
X145747213Y-104490130D01*
X145842397Y-104756292D01*
X145909329Y-104881514D01*
X146153298Y-104953097D01*
X146966395Y-104140000D01*
X147325605Y-104140000D01*
X148138702Y-104953097D01*
X148382671Y-104881514D01*
X148503571Y-104626004D01*
X148572300Y-104351816D01*
X148586217Y-104069488D01*
X148544787Y-103789870D01*
X148449603Y-103523708D01*
X148382671Y-103398486D01*
X148138702Y-103326903D01*
X147325605Y-104140000D01*
X146966395Y-104140000D01*
X146153298Y-103326903D01*
X145909329Y-103398486D01*
X145788429Y-103653996D01*
X145719700Y-103928184D01*
X145705783Y-104210512D01*
X141884072Y-104210512D01*
X141884072Y-103390000D01*
X141871812Y-103265518D01*
X141835951Y-103147298D01*
X146332903Y-103147298D01*
X147146000Y-103960395D01*
X147959097Y-103147298D01*
X147887514Y-102903329D01*
X147632004Y-102782429D01*
X147357816Y-102713700D01*
X147075488Y-102699783D01*
X146795870Y-102741213D01*
X146529708Y-102836397D01*
X146404486Y-102903329D01*
X146332903Y-103147298D01*
X141835951Y-103147298D01*
X141835502Y-103145820D01*
X141776537Y-103035506D01*
X141697185Y-102938815D01*
X141600494Y-102859463D01*
X141490180Y-102800498D01*
X141370482Y-102764188D01*
X141246000Y-102751928D01*
X140246000Y-102751928D01*
X140121518Y-102764188D01*
X140096000Y-102771929D01*
X140077855Y-102766425D01*
X139986001Y-102654500D01*
X139957004Y-102630703D01*
X139907410Y-102581110D01*
X140125727Y-102490680D01*
X140360759Y-102333637D01*
X140560637Y-102133759D01*
X140716000Y-101901241D01*
X140871363Y-102133759D01*
X141071241Y-102333637D01*
X141306273Y-102490680D01*
X141567426Y-102598853D01*
X141844665Y-102654000D01*
X142127335Y-102654000D01*
X142404574Y-102598853D01*
X142665727Y-102490680D01*
X142900759Y-102333637D01*
X143100637Y-102133759D01*
X143256000Y-101901241D01*
X143411363Y-102133759D01*
X143611241Y-102333637D01*
X143846273Y-102490680D01*
X144107426Y-102598853D01*
X144384665Y-102654000D01*
X144667335Y-102654000D01*
X144944574Y-102598853D01*
X145205727Y-102490680D01*
X145440759Y-102333637D01*
X145640637Y-102133759D01*
X145796000Y-101901241D01*
X145951363Y-102133759D01*
X146151241Y-102333637D01*
X146386273Y-102490680D01*
X146647426Y-102598853D01*
X146924665Y-102654000D01*
X147207335Y-102654000D01*
X147484574Y-102598853D01*
X147745727Y-102490680D01*
X147980759Y-102333637D01*
X148180637Y-102133759D01*
X148337680Y-101898727D01*
X148342067Y-101888135D01*
X148453615Y-102074131D01*
X148642586Y-102282519D01*
X148868580Y-102450037D01*
X149122913Y-102570246D01*
X149256961Y-102610904D01*
X149479000Y-102488915D01*
X149479000Y-101346000D01*
X149459000Y-101346000D01*
X149459000Y-101092000D01*
X149479000Y-101092000D01*
X149479000Y-99949085D01*
X149256961Y-99827096D01*
X149122913Y-99867754D01*
X148868580Y-99987963D01*
X148642586Y-100155481D01*
X148453615Y-100363869D01*
X148342067Y-100549865D01*
X148337680Y-100539273D01*
X148180637Y-100304241D01*
X147980759Y-100104363D01*
X147745727Y-99947320D01*
X147484574Y-99839147D01*
X147207335Y-99784000D01*
X146924665Y-99784000D01*
X146742114Y-99820312D01*
X146556000Y-99634199D01*
X146556000Y-94940983D01*
X146647426Y-94978853D01*
X146924665Y-95034000D01*
X147207335Y-95034000D01*
X147484574Y-94978853D01*
X147745727Y-94870680D01*
X147980759Y-94713637D01*
X148180637Y-94513759D01*
X148336000Y-94281241D01*
X148491363Y-94513759D01*
X148691241Y-94713637D01*
X148846000Y-94817044D01*
X148846001Y-96451288D01*
X148802063Y-96495226D01*
X148688795Y-96664744D01*
X148610774Y-96853102D01*
X148571000Y-97053061D01*
X148571000Y-97256939D01*
X148610774Y-97456898D01*
X148688795Y-97645256D01*
X148802063Y-97814774D01*
X148946226Y-97958937D01*
X149115744Y-98072205D01*
X149304102Y-98150226D01*
X149504061Y-98190000D01*
X149707939Y-98190000D01*
X149907898Y-98150226D01*
X150096256Y-98072205D01*
X150265774Y-97958937D01*
X150409937Y-97814774D01*
X150523205Y-97645256D01*
X150601226Y-97456898D01*
X150641000Y-97256939D01*
X150641000Y-97053061D01*
X150601226Y-96853102D01*
X150523205Y-96664744D01*
X150409937Y-96495226D01*
X150366000Y-96451289D01*
X150366000Y-94817043D01*
X150520759Y-94713637D01*
X150719357Y-94515039D01*
X150720188Y-94523482D01*
X150756498Y-94643180D01*
X150815463Y-94753494D01*
X150894815Y-94850185D01*
X150991506Y-94929537D01*
X151101820Y-94988502D01*
X151221518Y-95024812D01*
X151346000Y-95037072D01*
X151386000Y-95037072D01*
X151386001Y-97721288D01*
X151342063Y-97765226D01*
X151228795Y-97934744D01*
X151150774Y-98123102D01*
X151111000Y-98323061D01*
X151111000Y-98526939D01*
X151150774Y-98726898D01*
X151228795Y-98915256D01*
X151342063Y-99084774D01*
X151486226Y-99228937D01*
X151655744Y-99342205D01*
X151844102Y-99420226D01*
X152044061Y-99460000D01*
X152247939Y-99460000D01*
X152447898Y-99420226D01*
X152636256Y-99342205D01*
X152805774Y-99228937D01*
X152949937Y-99084774D01*
X153063205Y-98915256D01*
X153141226Y-98726898D01*
X153181000Y-98526939D01*
X153181000Y-98323061D01*
X153141226Y-98123102D01*
X153063205Y-97934744D01*
X152949937Y-97765226D01*
X152906000Y-97721289D01*
X152906000Y-95037072D01*
X152946000Y-95037072D01*
X153070482Y-95024812D01*
X153190180Y-94988502D01*
X153300494Y-94929537D01*
X153397185Y-94850185D01*
X153476537Y-94753494D01*
X153535502Y-94643180D01*
X153571812Y-94523482D01*
X153584072Y-94399000D01*
X153584072Y-93948040D01*
X154056091Y-93948040D01*
X154150930Y-94212881D01*
X154295615Y-94454131D01*
X154484586Y-94662519D01*
X154710580Y-94830037D01*
X154964913Y-94950246D01*
X155098961Y-94990904D01*
X155321000Y-94868915D01*
X155321000Y-93726000D01*
X154177376Y-93726000D01*
X154056091Y-93948040D01*
X153584072Y-93948040D01*
X153584072Y-93249960D01*
X154056091Y-93249960D01*
X154177376Y-93472000D01*
X155321000Y-93472000D01*
X155321000Y-92329085D01*
X155098961Y-92207096D01*
X154964913Y-92247754D01*
X154710580Y-92367963D01*
X154484586Y-92535481D01*
X154295615Y-92743869D01*
X154150930Y-92985119D01*
X154056091Y-93249960D01*
X153584072Y-93249960D01*
X153584072Y-92799000D01*
X153571812Y-92674518D01*
X153535502Y-92554820D01*
X153476537Y-92444506D01*
X153397185Y-92347815D01*
X153300494Y-92268463D01*
X153190180Y-92209498D01*
X153070482Y-92173188D01*
X152946000Y-92160928D01*
X151346000Y-92160928D01*
X151221518Y-92173188D01*
X151101820Y-92209498D01*
X150991506Y-92268463D01*
X150894815Y-92347815D01*
X150815463Y-92444506D01*
X150756498Y-92554820D01*
X150720188Y-92674518D01*
X150719357Y-92682961D01*
X150520759Y-92484363D01*
X150285727Y-92327320D01*
X150024574Y-92219147D01*
X149747335Y-92164000D01*
X149464665Y-92164000D01*
X149187426Y-92219147D01*
X148926273Y-92327320D01*
X148691241Y-92484363D01*
X148491363Y-92684241D01*
X148336000Y-92916759D01*
X148180637Y-92684241D01*
X147980759Y-92484363D01*
X147745727Y-92327320D01*
X147484574Y-92219147D01*
X147207335Y-92164000D01*
X146924665Y-92164000D01*
X146647426Y-92219147D01*
X146441075Y-92304620D01*
X146430974Y-92285724D01*
X146372930Y-92214997D01*
X146359799Y-92198996D01*
X146359795Y-92198992D01*
X146336001Y-92169999D01*
X146307009Y-92146206D01*
X144736120Y-90575318D01*
X144944574Y-90533853D01*
X145205727Y-90425680D01*
X145440759Y-90268637D01*
X145640637Y-90068759D01*
X145796000Y-89836241D01*
X145951363Y-90068759D01*
X146151241Y-90268637D01*
X146386273Y-90425680D01*
X146647426Y-90533853D01*
X146924665Y-90589000D01*
X147207335Y-90589000D01*
X147484574Y-90533853D01*
X147745727Y-90425680D01*
X147980759Y-90268637D01*
X148180637Y-90068759D01*
X148336000Y-89836241D01*
X148491363Y-90068759D01*
X148691241Y-90268637D01*
X148926273Y-90425680D01*
X149187426Y-90533853D01*
X149464665Y-90589000D01*
X149747335Y-90589000D01*
X150024574Y-90533853D01*
X150285727Y-90425680D01*
X150520759Y-90268637D01*
X150720637Y-90068759D01*
X150876000Y-89836241D01*
X151031363Y-90068759D01*
X151231241Y-90268637D01*
X151466273Y-90425680D01*
X151727426Y-90533853D01*
X152004665Y-90589000D01*
X152287335Y-90589000D01*
X152564574Y-90533853D01*
X152825727Y-90425680D01*
X153060759Y-90268637D01*
X153260637Y-90068759D01*
X153417680Y-89833727D01*
X153525853Y-89572574D01*
X153581000Y-89295335D01*
X153581000Y-89012665D01*
X153525853Y-88735426D01*
X153417680Y-88474273D01*
X153260637Y-88239241D01*
X153060759Y-88039363D01*
X152906000Y-87935957D01*
X152906000Y-85664967D01*
X153087158Y-85628932D01*
X153357411Y-85516990D01*
X153600632Y-85354475D01*
X153807475Y-85147632D01*
X153924000Y-84973240D01*
X154040525Y-85147632D01*
G37*
%TD.AperFunction*%
%TD*%
M02*
