%TF.GenerationSoftware,KiCad,Pcbnew,(5.1.9)-1*%
%TF.CreationDate,2021-11-25T01:50:05+09:00*%
%TF.ProjectId,joystick-input,6a6f7973-7469-4636-9b2d-696e7075742e,rev?*%
%TF.SameCoordinates,Original*%
%TF.FileFunction,Copper,L1,Top*%
%TF.FilePolarity,Positive*%
%FSLAX46Y46*%
G04 Gerber Fmt 4.6, Leading zero omitted, Abs format (unit mm)*
G04 Created by KiCad (PCBNEW (5.1.9)-1) date 2021-11-25 01:50:05*
%MOMM*%
%LPD*%
G01*
G04 APERTURE LIST*
%TA.AperFunction,ComponentPad*%
%ADD10C,1.600000*%
%TD*%
%TA.AperFunction,ComponentPad*%
%ADD11O,1.700000X1.700000*%
%TD*%
%TA.AperFunction,ComponentPad*%
%ADD12R,1.700000X1.700000*%
%TD*%
%TA.AperFunction,ComponentPad*%
%ADD13O,1.600000X1.600000*%
%TD*%
%TA.AperFunction,ComponentPad*%
%ADD14R,1.600000X1.600000*%
%TD*%
%TA.AperFunction,ViaPad*%
%ADD15C,0.800000*%
%TD*%
%TA.AperFunction,Conductor*%
%ADD16C,0.250000*%
%TD*%
%TA.AperFunction,Conductor*%
%ADD17C,0.500000*%
%TD*%
%TA.AperFunction,Conductor*%
%ADD18C,0.254000*%
%TD*%
%TA.AperFunction,Conductor*%
%ADD19C,0.100000*%
%TD*%
G04 APERTURE END LIST*
D10*
%TO.P,C2,2*%
%TO.N,GND*%
X131652000Y-59690000D03*
%TO.P,C2,1*%
%TO.N,VCC*%
X136652000Y-59690000D03*
%TD*%
%TO.P,C1,2*%
%TO.N,GND*%
X152734000Y-59690000D03*
%TO.P,C1,1*%
%TO.N,VCC*%
X157734000Y-59690000D03*
%TD*%
D11*
%TO.P,J1,18*%
%TO.N,/C_SHORT*%
X116840000Y-44958000D03*
%TO.P,J1,17*%
%TO.N,/C_EX4*%
X119380000Y-44958000D03*
%TO.P,J1,16*%
%TO.N,/C_EX3*%
X121920000Y-44958000D03*
%TO.P,J1,15*%
%TO.N,/C_EX2*%
X124460000Y-44958000D03*
%TO.P,J1,14*%
%TO.N,/C_EX1*%
X127000000Y-44958000D03*
%TO.P,J1,13*%
%TO.N,/C_R*%
X129540000Y-44958000D03*
%TO.P,J1,12*%
%TO.N,/C_L*%
X132080000Y-44958000D03*
%TO.P,J1,11*%
%TO.N,/C_Y*%
X134620000Y-44958000D03*
%TO.P,J1,10*%
%TO.N,/C_X*%
X137160000Y-44958000D03*
%TO.P,J1,9*%
%TO.N,/C_B*%
X139700000Y-44958000D03*
%TO.P,J1,8*%
%TO.N,/C_A*%
X142240000Y-44958000D03*
%TO.P,J1,7*%
%TO.N,/C_SELECT*%
X144780000Y-44958000D03*
%TO.P,J1,6*%
%TO.N,/C_START*%
X147320000Y-44958000D03*
%TO.P,J1,5*%
%TO.N,/C_RIGHT*%
X149860000Y-44958000D03*
%TO.P,J1,4*%
%TO.N,/C_LEFT*%
X152400000Y-44958000D03*
%TO.P,J1,3*%
%TO.N,/C_DOWN*%
X154940000Y-44958000D03*
%TO.P,J1,2*%
%TO.N,/C_UP*%
X157480000Y-44958000D03*
D12*
%TO.P,J1,1*%
%TO.N,/C_SHORT*%
X160020000Y-44958000D03*
%TD*%
D13*
%TO.P,74HC165_1,16*%
%TO.N,VCC*%
X157734000Y-57150000D03*
%TO.P,74HC165_1,8*%
%TO.N,GND*%
X139954000Y-49530000D03*
%TO.P,74HC165_1,15*%
X155194000Y-57150000D03*
%TO.P,74HC165_1,7*%
%TO.N,N/C*%
X142494000Y-49530000D03*
%TO.P,74HC165_1,14*%
%TO.N,/C_START*%
X152654000Y-57150000D03*
%TO.P,74HC165_1,6*%
%TO.N,/C_UP*%
X145034000Y-49530000D03*
%TO.P,74HC165_1,13*%
%TO.N,/C_SELECT*%
X150114000Y-57150000D03*
%TO.P,74HC165_1,5*%
%TO.N,/C_DOWN*%
X147574000Y-49530000D03*
%TO.P,74HC165_1,12*%
%TO.N,/C_A*%
X147574000Y-57150000D03*
%TO.P,74HC165_1,4*%
%TO.N,/C_LEFT*%
X150114000Y-49530000D03*
%TO.P,74HC165_1,11*%
%TO.N,/C_B*%
X145034000Y-57150000D03*
%TO.P,74HC165_1,3*%
%TO.N,/C_RIGHT*%
X152654000Y-49530000D03*
%TO.P,74HC165_1,10*%
%TO.N,/Q7*%
X142494000Y-57150000D03*
%TO.P,74HC165_1,2*%
%TO.N,/CLK*%
X155194000Y-49530000D03*
%TO.P,74HC165_1,9*%
%TO.N,/D_OUT*%
X139954000Y-57150000D03*
D14*
%TO.P,74HC165_1,1*%
%TO.N,/LOAD*%
X157734000Y-49530000D03*
%TD*%
D13*
%TO.P,RN2,9*%
%TO.N,/C_X*%
X136652000Y-40005000D03*
%TO.P,RN2,8*%
%TO.N,/C_Y*%
X134112000Y-40005000D03*
%TO.P,RN2,7*%
%TO.N,/C_L*%
X131572000Y-40005000D03*
%TO.P,RN2,6*%
%TO.N,/C_R*%
X129032000Y-40005000D03*
%TO.P,RN2,5*%
%TO.N,/C_EX1*%
X126492000Y-40005000D03*
%TO.P,RN2,4*%
%TO.N,/C_EX2*%
X123952000Y-40005000D03*
%TO.P,RN2,3*%
%TO.N,/C_EX3*%
X121412000Y-40005000D03*
%TO.P,RN2,2*%
%TO.N,/C_EX4*%
X118872000Y-40005000D03*
D14*
%TO.P,RN2,1*%
%TO.N,/PULL*%
X116332000Y-40005000D03*
%TD*%
D11*
%TO.P,SHORT1,3*%
%TO.N,GND*%
X128270000Y-60452000D03*
%TO.P,SHORT1,2*%
%TO.N,/C_SHORT*%
X125730000Y-60452000D03*
D12*
%TO.P,SHORT1,1*%
%TO.N,VCC*%
X123190000Y-60452000D03*
%TD*%
D11*
%TO.P,PULL1,3*%
%TO.N,GND*%
X149352000Y-60452000D03*
%TO.P,PULL1,2*%
%TO.N,/PULL*%
X146812000Y-60452000D03*
D12*
%TO.P,PULL1,1*%
%TO.N,VCC*%
X144272000Y-60452000D03*
%TD*%
D14*
%TO.P,74HC165_2,1*%
%TO.N,/LOAD*%
X136652000Y-49530000D03*
D13*
%TO.P,74HC165_2,9*%
%TO.N,/Q7*%
X118872000Y-57150000D03*
%TO.P,74HC165_2,2*%
%TO.N,/CLK*%
X134112000Y-49530000D03*
%TO.P,74HC165_2,10*%
%TO.N,/D_IN*%
X121412000Y-57150000D03*
%TO.P,74HC165_2,3*%
%TO.N,/C_R*%
X131572000Y-49530000D03*
%TO.P,74HC165_2,11*%
%TO.N,/C_EX4*%
X123952000Y-57150000D03*
%TO.P,74HC165_2,4*%
%TO.N,/C_L*%
X129032000Y-49530000D03*
%TO.P,74HC165_2,12*%
%TO.N,/C_EX3*%
X126492000Y-57150000D03*
%TO.P,74HC165_2,5*%
%TO.N,/C_Y*%
X126492000Y-49530000D03*
%TO.P,74HC165_2,13*%
%TO.N,/C_EX2*%
X129032000Y-57150000D03*
%TO.P,74HC165_2,6*%
%TO.N,/C_X*%
X123952000Y-49530000D03*
%TO.P,74HC165_2,14*%
%TO.N,/C_EX1*%
X131572000Y-57150000D03*
%TO.P,74HC165_2,7*%
%TO.N,N/C*%
X121412000Y-49530000D03*
%TO.P,74HC165_2,15*%
%TO.N,GND*%
X134112000Y-57150000D03*
%TO.P,74HC165_2,8*%
X118872000Y-49530000D03*
%TO.P,74HC165_2,16*%
%TO.N,VCC*%
X136652000Y-57150000D03*
%TD*%
D14*
%TO.P,RN1,1*%
%TO.N,/PULL*%
X160528000Y-40005000D03*
D13*
%TO.P,RN1,2*%
%TO.N,/C_UP*%
X157988000Y-40005000D03*
%TO.P,RN1,3*%
%TO.N,/C_DOWN*%
X155448000Y-40005000D03*
%TO.P,RN1,4*%
%TO.N,/C_LEFT*%
X152908000Y-40005000D03*
%TO.P,RN1,5*%
%TO.N,/C_RIGHT*%
X150368000Y-40005000D03*
%TO.P,RN1,6*%
%TO.N,/C_START*%
X147828000Y-40005000D03*
%TO.P,RN1,7*%
%TO.N,/C_SELECT*%
X145288000Y-40005000D03*
%TO.P,RN1,8*%
%TO.N,/C_A*%
X142748000Y-40005000D03*
%TO.P,RN1,9*%
%TO.N,/C_B*%
X140208000Y-40005000D03*
%TD*%
D12*
%TO.P,OUT1,1*%
%TO.N,VCC*%
X162052000Y-59436000D03*
D11*
%TO.P,OUT1,2*%
%TO.N,GND*%
X162052000Y-56896000D03*
%TO.P,OUT1,3*%
%TO.N,/LOAD*%
X162052000Y-54356000D03*
%TO.P,OUT1,4*%
%TO.N,/CLK*%
X162052000Y-51816000D03*
%TO.P,OUT1,5*%
%TO.N,/D_OUT*%
X162052000Y-49276000D03*
%TD*%
%TO.P,IN1,5*%
%TO.N,/D_IN*%
X114808000Y-49276000D03*
%TO.P,IN1,4*%
%TO.N,/CLK*%
X114808000Y-51816000D03*
%TO.P,IN1,3*%
%TO.N,/LOAD*%
X114808000Y-54356000D03*
%TO.P,IN1,2*%
%TO.N,GND*%
X114808000Y-56896000D03*
D12*
%TO.P,IN1,1*%
%TO.N,VCC*%
X114808000Y-59436000D03*
%TD*%
D15*
%TO.N,/LOAD*%
X136652000Y-54356000D03*
X157734000Y-54356000D03*
%TO.N,/CLK*%
X134112000Y-53086000D03*
X155194000Y-53086000D03*
%TD*%
D16*
%TO.N,/PULL*%
X161195001Y-40672001D02*
X160528000Y-40005000D01*
X161195001Y-46068001D02*
X161195001Y-40672001D01*
X160528000Y-46735002D02*
X161195001Y-46068001D01*
X160528000Y-52690998D02*
X160528000Y-46735002D01*
X156608999Y-56609999D02*
X160528000Y-52690998D01*
X156608999Y-59149999D02*
X156608999Y-56609999D01*
X147987001Y-61627001D02*
X154131997Y-61627001D01*
X154131997Y-61627001D02*
X156608999Y-59149999D01*
X146812000Y-60452000D02*
X147987001Y-61627001D01*
X117457001Y-38879999D02*
X116332000Y-40005000D01*
X159402999Y-38879999D02*
X117457001Y-38879999D01*
X160528000Y-40005000D02*
X159402999Y-38879999D01*
%TO.N,/C_SHORT*%
X116840000Y-49530000D02*
X116840000Y-44958000D01*
X122537001Y-55227001D02*
X116840000Y-49530000D01*
X122537001Y-57400003D02*
X122537001Y-55227001D01*
X125588998Y-60452000D02*
X122537001Y-57400003D01*
X125730000Y-60452000D02*
X125588998Y-60452000D01*
%TO.N,/C_UP*%
X157988000Y-44450000D02*
X157480000Y-44958000D01*
X157988000Y-40005000D02*
X157988000Y-44450000D01*
%TO.N,/C_DOWN*%
X155448000Y-44450000D02*
X154940000Y-44958000D01*
X155448000Y-40005000D02*
X155448000Y-44450000D01*
%TO.N,/C_LEFT*%
X152908000Y-44450000D02*
X152400000Y-44958000D01*
X152908000Y-40005000D02*
X152908000Y-44450000D01*
%TO.N,/C_RIGHT*%
X150368000Y-44450000D02*
X149860000Y-44958000D01*
X150368000Y-40005000D02*
X150368000Y-44450000D01*
%TO.N,/C_START*%
X147828000Y-44450000D02*
X147320000Y-44958000D01*
X147828000Y-40005000D02*
X147828000Y-44450000D01*
X151239001Y-48877001D02*
X147320000Y-44958000D01*
X151239001Y-55735001D02*
X151239001Y-48877001D01*
X152654000Y-57150000D02*
X151239001Y-55735001D01*
%TO.N,/C_SELECT*%
X145288000Y-44450000D02*
X144780000Y-44958000D01*
X145288000Y-40005000D02*
X145288000Y-44450000D01*
X148699001Y-48877001D02*
X144780000Y-44958000D01*
X148699001Y-55735001D02*
X148699001Y-48877001D01*
X150114000Y-57150000D02*
X148699001Y-55735001D01*
D17*
%TO.N,VCC*%
X122174000Y-59436000D02*
X123190000Y-60452000D01*
X114808000Y-59436000D02*
X122174000Y-59436000D01*
X136652000Y-57150000D02*
X136652000Y-59690000D01*
X157734000Y-59690000D02*
X157734000Y-57150000D01*
X161798000Y-59690000D02*
X162052000Y-59436000D01*
X157734000Y-59690000D02*
X161798000Y-59690000D01*
X123190000Y-60452000D02*
X123190000Y-60960000D01*
X123190000Y-60960000D02*
X124841000Y-62611000D01*
X154813000Y-62611000D02*
X157734000Y-59690000D01*
X136652000Y-62484000D02*
X136779000Y-62611000D01*
X136652000Y-59690000D02*
X136652000Y-62484000D01*
X124841000Y-62611000D02*
X136779000Y-62611000D01*
X144272000Y-62484000D02*
X144399000Y-62611000D01*
X144399000Y-62611000D02*
X154813000Y-62611000D01*
X144272000Y-60452000D02*
X144272000Y-62484000D01*
X136779000Y-62611000D02*
X144399000Y-62611000D01*
D16*
%TO.N,/D_IN*%
X114808000Y-49276000D02*
X115316000Y-49276000D01*
X115316000Y-49276000D02*
X121412000Y-55372000D01*
X121412000Y-55372000D02*
X121412000Y-57150000D01*
%TO.N,/LOAD*%
X136652000Y-49530000D02*
X136652000Y-54356000D01*
X157734000Y-49530000D02*
X157734000Y-54356000D01*
%TO.N,/CLK*%
X134112000Y-49530000D02*
X134112000Y-53086000D01*
X155194000Y-49530000D02*
X155194000Y-53086000D01*
%TO.N,/C_A*%
X142748000Y-44450000D02*
X142240000Y-44958000D01*
X142748000Y-40005000D02*
X142748000Y-44450000D01*
X146159001Y-48877001D02*
X142240000Y-44958000D01*
X146159001Y-55735001D02*
X146159001Y-48877001D01*
X147574000Y-57150000D02*
X146159001Y-55735001D01*
%TO.N,/C_B*%
X140208000Y-44450000D02*
X139700000Y-44958000D01*
X140208000Y-40005000D02*
X140208000Y-44450000D01*
X143908999Y-49166999D02*
X139700000Y-44958000D01*
X143908999Y-56024999D02*
X143908999Y-49166999D01*
X145034000Y-57150000D02*
X143908999Y-56024999D01*
%TO.N,/C_X*%
X136652000Y-44450000D02*
X137160000Y-44958000D01*
X136652000Y-40005000D02*
X136652000Y-44450000D01*
%TO.N,/C_Y*%
X134112000Y-44450000D02*
X134620000Y-44958000D01*
X134112000Y-40005000D02*
X134112000Y-44450000D01*
%TO.N,/C_EX4*%
X118872000Y-44450000D02*
X119380000Y-44958000D01*
X118872000Y-40005000D02*
X118872000Y-44450000D01*
%TO.N,/C_EX3*%
X121412000Y-44450000D02*
X121920000Y-44958000D01*
X121412000Y-40005000D02*
X121412000Y-44450000D01*
X125366999Y-48404999D02*
X121920000Y-44958000D01*
X125366999Y-56024999D02*
X125366999Y-48404999D01*
X126492000Y-57150000D02*
X125366999Y-56024999D01*
%TO.N,/C_EX2*%
X123952000Y-44450000D02*
X124460000Y-44958000D01*
X123952000Y-40005000D02*
X123952000Y-44450000D01*
X127906999Y-48404999D02*
X124460000Y-44958000D01*
X127906999Y-56024999D02*
X127906999Y-48404999D01*
X129032000Y-57150000D02*
X127906999Y-56024999D01*
%TO.N,/C_EX1*%
X126492000Y-44450000D02*
X127000000Y-44958000D01*
X126492000Y-40005000D02*
X126492000Y-44450000D01*
X130446999Y-48404999D02*
X127000000Y-44958000D01*
X130446999Y-56024999D02*
X130446999Y-48404999D01*
X131572000Y-57150000D02*
X130446999Y-56024999D01*
%TO.N,/C_R*%
X129032000Y-44450000D02*
X129540000Y-44958000D01*
X129032000Y-40005000D02*
X129032000Y-44450000D01*
%TO.N,/C_L*%
X131572000Y-44450000D02*
X132080000Y-44958000D01*
X131572000Y-40005000D02*
X131572000Y-44450000D01*
%TD*%
D18*
%TO.N,GND*%
X161714258Y-36478644D02*
X161577498Y-36808811D01*
X161507778Y-37159315D01*
X161507778Y-37516685D01*
X161577498Y-37867189D01*
X161714258Y-38197356D01*
X161912802Y-38494499D01*
X162165501Y-38747198D01*
X162462644Y-38945742D01*
X162792811Y-39082502D01*
X163143315Y-39152222D01*
X163500685Y-39152222D01*
X163851189Y-39082502D01*
X164181356Y-38945742D01*
X164211000Y-38925935D01*
X164211000Y-61404065D01*
X164181356Y-61384258D01*
X163851189Y-61247498D01*
X163500685Y-61177778D01*
X163143315Y-61177778D01*
X162792811Y-61247498D01*
X162462644Y-61384258D01*
X162165501Y-61582802D01*
X161912802Y-61835501D01*
X161714258Y-62132644D01*
X161577498Y-62462811D01*
X161507778Y-62813315D01*
X161507778Y-63170685D01*
X161577498Y-63521189D01*
X161714258Y-63851356D01*
X161734065Y-63881000D01*
X115125935Y-63881000D01*
X115145742Y-63851356D01*
X115282502Y-63521189D01*
X115352222Y-63170685D01*
X115352222Y-62813315D01*
X115282502Y-62462811D01*
X115145742Y-62132644D01*
X114947198Y-61835501D01*
X114694499Y-61582802D01*
X114397356Y-61384258D01*
X114067189Y-61247498D01*
X113716685Y-61177778D01*
X113359315Y-61177778D01*
X113008811Y-61247498D01*
X112678644Y-61384258D01*
X112649000Y-61404065D01*
X112649000Y-58586000D01*
X113319928Y-58586000D01*
X113319928Y-60286000D01*
X113332188Y-60410482D01*
X113368498Y-60530180D01*
X113427463Y-60640494D01*
X113506815Y-60737185D01*
X113603506Y-60816537D01*
X113713820Y-60875502D01*
X113833518Y-60911812D01*
X113958000Y-60924072D01*
X115658000Y-60924072D01*
X115782482Y-60911812D01*
X115902180Y-60875502D01*
X116012494Y-60816537D01*
X116109185Y-60737185D01*
X116188537Y-60640494D01*
X116247502Y-60530180D01*
X116283812Y-60410482D01*
X116292625Y-60321000D01*
X121701928Y-60321000D01*
X121701928Y-61302000D01*
X121714188Y-61426482D01*
X121750498Y-61546180D01*
X121809463Y-61656494D01*
X121888815Y-61753185D01*
X121985506Y-61832537D01*
X122095820Y-61891502D01*
X122215518Y-61927812D01*
X122340000Y-61940072D01*
X122918494Y-61940072D01*
X124184470Y-63206049D01*
X124212183Y-63239817D01*
X124245951Y-63267530D01*
X124245953Y-63267532D01*
X124346941Y-63350411D01*
X124500686Y-63432589D01*
X124571934Y-63454202D01*
X124667510Y-63483195D01*
X124797523Y-63496000D01*
X124797531Y-63496000D01*
X124841000Y-63500281D01*
X124884469Y-63496000D01*
X136735533Y-63496000D01*
X136778999Y-63500281D01*
X136822465Y-63496000D01*
X144355533Y-63496000D01*
X144398999Y-63500281D01*
X144442465Y-63496000D01*
X154769531Y-63496000D01*
X154813000Y-63500281D01*
X154856469Y-63496000D01*
X154856477Y-63496000D01*
X154986490Y-63483195D01*
X155153313Y-63432589D01*
X155307059Y-63350411D01*
X155441817Y-63239817D01*
X155469534Y-63206044D01*
X157557561Y-61118017D01*
X157592665Y-61125000D01*
X157875335Y-61125000D01*
X158152574Y-61069853D01*
X158413727Y-60961680D01*
X158648759Y-60804637D01*
X158848637Y-60604759D01*
X158868521Y-60575000D01*
X160636455Y-60575000D01*
X160671463Y-60640494D01*
X160750815Y-60737185D01*
X160847506Y-60816537D01*
X160957820Y-60875502D01*
X161077518Y-60911812D01*
X161202000Y-60924072D01*
X162902000Y-60924072D01*
X163026482Y-60911812D01*
X163146180Y-60875502D01*
X163256494Y-60816537D01*
X163353185Y-60737185D01*
X163432537Y-60640494D01*
X163491502Y-60530180D01*
X163527812Y-60410482D01*
X163540072Y-60286000D01*
X163540072Y-58586000D01*
X163527812Y-58461518D01*
X163491502Y-58341820D01*
X163432537Y-58231506D01*
X163353185Y-58134815D01*
X163256494Y-58055463D01*
X163146180Y-57996498D01*
X163065534Y-57972034D01*
X163149588Y-57896269D01*
X163323641Y-57662920D01*
X163448825Y-57400099D01*
X163493476Y-57252890D01*
X163372155Y-57023000D01*
X162179000Y-57023000D01*
X162179000Y-57043000D01*
X161925000Y-57043000D01*
X161925000Y-57023000D01*
X160731845Y-57023000D01*
X160610524Y-57252890D01*
X160655175Y-57400099D01*
X160780359Y-57662920D01*
X160954412Y-57896269D01*
X161038466Y-57972034D01*
X160957820Y-57996498D01*
X160847506Y-58055463D01*
X160750815Y-58134815D01*
X160671463Y-58231506D01*
X160612498Y-58341820D01*
X160576188Y-58461518D01*
X160563928Y-58586000D01*
X160563928Y-58805000D01*
X158868521Y-58805000D01*
X158848637Y-58775241D01*
X158648759Y-58575363D01*
X158619000Y-58555479D01*
X158619000Y-58284521D01*
X158648759Y-58264637D01*
X158848637Y-58064759D01*
X159005680Y-57829727D01*
X159113853Y-57568574D01*
X159169000Y-57291335D01*
X159169000Y-57008665D01*
X159113853Y-56731426D01*
X159005680Y-56470273D01*
X158848637Y-56235241D01*
X158648759Y-56035363D01*
X158414777Y-55879022D01*
X161039004Y-53254796D01*
X161068001Y-53230999D01*
X161162974Y-53115274D01*
X161205238Y-53036206D01*
X161279760Y-53086000D01*
X161105368Y-53202525D01*
X160898525Y-53409368D01*
X160736010Y-53652589D01*
X160624068Y-53922842D01*
X160567000Y-54209740D01*
X160567000Y-54502260D01*
X160624068Y-54789158D01*
X160736010Y-55059411D01*
X160898525Y-55302632D01*
X161105368Y-55509475D01*
X161287534Y-55631195D01*
X161170645Y-55700822D01*
X160954412Y-55895731D01*
X160780359Y-56129080D01*
X160655175Y-56391901D01*
X160610524Y-56539110D01*
X160731845Y-56769000D01*
X161925000Y-56769000D01*
X161925000Y-56749000D01*
X162179000Y-56749000D01*
X162179000Y-56769000D01*
X163372155Y-56769000D01*
X163493476Y-56539110D01*
X163448825Y-56391901D01*
X163323641Y-56129080D01*
X163149588Y-55895731D01*
X162933355Y-55700822D01*
X162816466Y-55631195D01*
X162998632Y-55509475D01*
X163205475Y-55302632D01*
X163367990Y-55059411D01*
X163479932Y-54789158D01*
X163537000Y-54502260D01*
X163537000Y-54209740D01*
X163479932Y-53922842D01*
X163367990Y-53652589D01*
X163205475Y-53409368D01*
X162998632Y-53202525D01*
X162824240Y-53086000D01*
X162998632Y-52969475D01*
X163205475Y-52762632D01*
X163367990Y-52519411D01*
X163479932Y-52249158D01*
X163537000Y-51962260D01*
X163537000Y-51669740D01*
X163479932Y-51382842D01*
X163367990Y-51112589D01*
X163205475Y-50869368D01*
X162998632Y-50662525D01*
X162824240Y-50546000D01*
X162998632Y-50429475D01*
X163205475Y-50222632D01*
X163367990Y-49979411D01*
X163479932Y-49709158D01*
X163537000Y-49422260D01*
X163537000Y-49129740D01*
X163479932Y-48842842D01*
X163367990Y-48572589D01*
X163205475Y-48329368D01*
X162998632Y-48122525D01*
X162755411Y-47960010D01*
X162485158Y-47848068D01*
X162198260Y-47791000D01*
X161905740Y-47791000D01*
X161618842Y-47848068D01*
X161348589Y-47960010D01*
X161288000Y-48000494D01*
X161288000Y-47049803D01*
X161706005Y-46631799D01*
X161735002Y-46608002D01*
X161829975Y-46492277D01*
X161900547Y-46360248D01*
X161944004Y-46216987D01*
X161955001Y-46105334D01*
X161955001Y-46105324D01*
X161958677Y-46068001D01*
X161955001Y-46030678D01*
X161955001Y-40917409D01*
X161966072Y-40805000D01*
X161966072Y-39205000D01*
X161953812Y-39080518D01*
X161917502Y-38960820D01*
X161858537Y-38850506D01*
X161779185Y-38753815D01*
X161682494Y-38674463D01*
X161572180Y-38615498D01*
X161452482Y-38579188D01*
X161328000Y-38566928D01*
X160164729Y-38566928D01*
X159966803Y-38369001D01*
X159943000Y-38339998D01*
X159827275Y-38245025D01*
X159695246Y-38174453D01*
X159551985Y-38130996D01*
X159440332Y-38119999D01*
X159440321Y-38119999D01*
X159402999Y-38116323D01*
X159365677Y-38119999D01*
X117494326Y-38119999D01*
X117457001Y-38116323D01*
X117419676Y-38119999D01*
X117419668Y-38119999D01*
X117308015Y-38130996D01*
X117164754Y-38174453D01*
X117032725Y-38245025D01*
X116917000Y-38339998D01*
X116893202Y-38368996D01*
X116695270Y-38566928D01*
X115532000Y-38566928D01*
X115407518Y-38579188D01*
X115287820Y-38615498D01*
X115177506Y-38674463D01*
X115080815Y-38753815D01*
X115001463Y-38850506D01*
X114942498Y-38960820D01*
X114906188Y-39080518D01*
X114893928Y-39205000D01*
X114893928Y-40805000D01*
X114906188Y-40929482D01*
X114942498Y-41049180D01*
X115001463Y-41159494D01*
X115080815Y-41256185D01*
X115177506Y-41335537D01*
X115287820Y-41394502D01*
X115407518Y-41430812D01*
X115532000Y-41443072D01*
X117132000Y-41443072D01*
X117256482Y-41430812D01*
X117376180Y-41394502D01*
X117486494Y-41335537D01*
X117583185Y-41256185D01*
X117662537Y-41159494D01*
X117721502Y-41049180D01*
X117757812Y-40929482D01*
X117758643Y-40921039D01*
X117957241Y-41119637D01*
X118112000Y-41223044D01*
X118112001Y-44182765D01*
X118110000Y-44185760D01*
X117993475Y-44011368D01*
X117786632Y-43804525D01*
X117543411Y-43642010D01*
X117273158Y-43530068D01*
X116986260Y-43473000D01*
X116693740Y-43473000D01*
X116406842Y-43530068D01*
X116136589Y-43642010D01*
X115893368Y-43804525D01*
X115686525Y-44011368D01*
X115524010Y-44254589D01*
X115412068Y-44524842D01*
X115355000Y-44811740D01*
X115355000Y-45104260D01*
X115412068Y-45391158D01*
X115524010Y-45661411D01*
X115686525Y-45904632D01*
X115893368Y-46111475D01*
X116080001Y-46236179D01*
X116080000Y-48506754D01*
X115961475Y-48329368D01*
X115754632Y-48122525D01*
X115511411Y-47960010D01*
X115241158Y-47848068D01*
X114954260Y-47791000D01*
X114661740Y-47791000D01*
X114374842Y-47848068D01*
X114104589Y-47960010D01*
X113861368Y-48122525D01*
X113654525Y-48329368D01*
X113492010Y-48572589D01*
X113380068Y-48842842D01*
X113323000Y-49129740D01*
X113323000Y-49422260D01*
X113380068Y-49709158D01*
X113492010Y-49979411D01*
X113654525Y-50222632D01*
X113861368Y-50429475D01*
X114035760Y-50546000D01*
X113861368Y-50662525D01*
X113654525Y-50869368D01*
X113492010Y-51112589D01*
X113380068Y-51382842D01*
X113323000Y-51669740D01*
X113323000Y-51962260D01*
X113380068Y-52249158D01*
X113492010Y-52519411D01*
X113654525Y-52762632D01*
X113861368Y-52969475D01*
X114035760Y-53086000D01*
X113861368Y-53202525D01*
X113654525Y-53409368D01*
X113492010Y-53652589D01*
X113380068Y-53922842D01*
X113323000Y-54209740D01*
X113323000Y-54502260D01*
X113380068Y-54789158D01*
X113492010Y-55059411D01*
X113654525Y-55302632D01*
X113861368Y-55509475D01*
X114043534Y-55631195D01*
X113926645Y-55700822D01*
X113710412Y-55895731D01*
X113536359Y-56129080D01*
X113411175Y-56391901D01*
X113366524Y-56539110D01*
X113487845Y-56769000D01*
X114681000Y-56769000D01*
X114681000Y-56749000D01*
X114935000Y-56749000D01*
X114935000Y-56769000D01*
X116128155Y-56769000D01*
X116249476Y-56539110D01*
X116204825Y-56391901D01*
X116079641Y-56129080D01*
X115905588Y-55895731D01*
X115689355Y-55700822D01*
X115572466Y-55631195D01*
X115754632Y-55509475D01*
X115961475Y-55302632D01*
X116123990Y-55059411D01*
X116235932Y-54789158D01*
X116293000Y-54502260D01*
X116293000Y-54209740D01*
X116235932Y-53922842D01*
X116123990Y-53652589D01*
X115961475Y-53409368D01*
X115754632Y-53202525D01*
X115580240Y-53086000D01*
X115754632Y-52969475D01*
X115961475Y-52762632D01*
X116123990Y-52519411D01*
X116235932Y-52249158D01*
X116293000Y-51962260D01*
X116293000Y-51669740D01*
X116235932Y-51382842D01*
X116156660Y-51191461D01*
X120652000Y-55686802D01*
X120652000Y-55931956D01*
X120497241Y-56035363D01*
X120297363Y-56235241D01*
X120142000Y-56467759D01*
X119986637Y-56235241D01*
X119786759Y-56035363D01*
X119551727Y-55878320D01*
X119290574Y-55770147D01*
X119013335Y-55715000D01*
X118730665Y-55715000D01*
X118453426Y-55770147D01*
X118192273Y-55878320D01*
X117957241Y-56035363D01*
X117757363Y-56235241D01*
X117600320Y-56470273D01*
X117492147Y-56731426D01*
X117437000Y-57008665D01*
X117437000Y-57291335D01*
X117492147Y-57568574D01*
X117600320Y-57829727D01*
X117757363Y-58064759D01*
X117957241Y-58264637D01*
X118192273Y-58421680D01*
X118453426Y-58529853D01*
X118559738Y-58551000D01*
X116292625Y-58551000D01*
X116283812Y-58461518D01*
X116247502Y-58341820D01*
X116188537Y-58231506D01*
X116109185Y-58134815D01*
X116012494Y-58055463D01*
X115902180Y-57996498D01*
X115821534Y-57972034D01*
X115905588Y-57896269D01*
X116079641Y-57662920D01*
X116204825Y-57400099D01*
X116249476Y-57252890D01*
X116128155Y-57023000D01*
X114935000Y-57023000D01*
X114935000Y-57043000D01*
X114681000Y-57043000D01*
X114681000Y-57023000D01*
X113487845Y-57023000D01*
X113366524Y-57252890D01*
X113411175Y-57400099D01*
X113536359Y-57662920D01*
X113710412Y-57896269D01*
X113794466Y-57972034D01*
X113713820Y-57996498D01*
X113603506Y-58055463D01*
X113506815Y-58134815D01*
X113427463Y-58231506D01*
X113368498Y-58341820D01*
X113332188Y-58461518D01*
X113319928Y-58586000D01*
X112649000Y-58586000D01*
X112649000Y-38925935D01*
X112678644Y-38945742D01*
X113008811Y-39082502D01*
X113359315Y-39152222D01*
X113716685Y-39152222D01*
X114067189Y-39082502D01*
X114397356Y-38945742D01*
X114694499Y-38747198D01*
X114947198Y-38494499D01*
X115145742Y-38197356D01*
X115282502Y-37867189D01*
X115352222Y-37516685D01*
X115352222Y-37159315D01*
X115282502Y-36808811D01*
X115145742Y-36478644D01*
X115125935Y-36449000D01*
X161734065Y-36449000D01*
X161714258Y-36478644D01*
%TA.AperFunction,Conductor*%
D19*
G36*
X161714258Y-36478644D02*
G01*
X161577498Y-36808811D01*
X161507778Y-37159315D01*
X161507778Y-37516685D01*
X161577498Y-37867189D01*
X161714258Y-38197356D01*
X161912802Y-38494499D01*
X162165501Y-38747198D01*
X162462644Y-38945742D01*
X162792811Y-39082502D01*
X163143315Y-39152222D01*
X163500685Y-39152222D01*
X163851189Y-39082502D01*
X164181356Y-38945742D01*
X164211000Y-38925935D01*
X164211000Y-61404065D01*
X164181356Y-61384258D01*
X163851189Y-61247498D01*
X163500685Y-61177778D01*
X163143315Y-61177778D01*
X162792811Y-61247498D01*
X162462644Y-61384258D01*
X162165501Y-61582802D01*
X161912802Y-61835501D01*
X161714258Y-62132644D01*
X161577498Y-62462811D01*
X161507778Y-62813315D01*
X161507778Y-63170685D01*
X161577498Y-63521189D01*
X161714258Y-63851356D01*
X161734065Y-63881000D01*
X115125935Y-63881000D01*
X115145742Y-63851356D01*
X115282502Y-63521189D01*
X115352222Y-63170685D01*
X115352222Y-62813315D01*
X115282502Y-62462811D01*
X115145742Y-62132644D01*
X114947198Y-61835501D01*
X114694499Y-61582802D01*
X114397356Y-61384258D01*
X114067189Y-61247498D01*
X113716685Y-61177778D01*
X113359315Y-61177778D01*
X113008811Y-61247498D01*
X112678644Y-61384258D01*
X112649000Y-61404065D01*
X112649000Y-58586000D01*
X113319928Y-58586000D01*
X113319928Y-60286000D01*
X113332188Y-60410482D01*
X113368498Y-60530180D01*
X113427463Y-60640494D01*
X113506815Y-60737185D01*
X113603506Y-60816537D01*
X113713820Y-60875502D01*
X113833518Y-60911812D01*
X113958000Y-60924072D01*
X115658000Y-60924072D01*
X115782482Y-60911812D01*
X115902180Y-60875502D01*
X116012494Y-60816537D01*
X116109185Y-60737185D01*
X116188537Y-60640494D01*
X116247502Y-60530180D01*
X116283812Y-60410482D01*
X116292625Y-60321000D01*
X121701928Y-60321000D01*
X121701928Y-61302000D01*
X121714188Y-61426482D01*
X121750498Y-61546180D01*
X121809463Y-61656494D01*
X121888815Y-61753185D01*
X121985506Y-61832537D01*
X122095820Y-61891502D01*
X122215518Y-61927812D01*
X122340000Y-61940072D01*
X122918494Y-61940072D01*
X124184470Y-63206049D01*
X124212183Y-63239817D01*
X124245951Y-63267530D01*
X124245953Y-63267532D01*
X124346941Y-63350411D01*
X124500686Y-63432589D01*
X124571934Y-63454202D01*
X124667510Y-63483195D01*
X124797523Y-63496000D01*
X124797531Y-63496000D01*
X124841000Y-63500281D01*
X124884469Y-63496000D01*
X136735533Y-63496000D01*
X136778999Y-63500281D01*
X136822465Y-63496000D01*
X144355533Y-63496000D01*
X144398999Y-63500281D01*
X144442465Y-63496000D01*
X154769531Y-63496000D01*
X154813000Y-63500281D01*
X154856469Y-63496000D01*
X154856477Y-63496000D01*
X154986490Y-63483195D01*
X155153313Y-63432589D01*
X155307059Y-63350411D01*
X155441817Y-63239817D01*
X155469534Y-63206044D01*
X157557561Y-61118017D01*
X157592665Y-61125000D01*
X157875335Y-61125000D01*
X158152574Y-61069853D01*
X158413727Y-60961680D01*
X158648759Y-60804637D01*
X158848637Y-60604759D01*
X158868521Y-60575000D01*
X160636455Y-60575000D01*
X160671463Y-60640494D01*
X160750815Y-60737185D01*
X160847506Y-60816537D01*
X160957820Y-60875502D01*
X161077518Y-60911812D01*
X161202000Y-60924072D01*
X162902000Y-60924072D01*
X163026482Y-60911812D01*
X163146180Y-60875502D01*
X163256494Y-60816537D01*
X163353185Y-60737185D01*
X163432537Y-60640494D01*
X163491502Y-60530180D01*
X163527812Y-60410482D01*
X163540072Y-60286000D01*
X163540072Y-58586000D01*
X163527812Y-58461518D01*
X163491502Y-58341820D01*
X163432537Y-58231506D01*
X163353185Y-58134815D01*
X163256494Y-58055463D01*
X163146180Y-57996498D01*
X163065534Y-57972034D01*
X163149588Y-57896269D01*
X163323641Y-57662920D01*
X163448825Y-57400099D01*
X163493476Y-57252890D01*
X163372155Y-57023000D01*
X162179000Y-57023000D01*
X162179000Y-57043000D01*
X161925000Y-57043000D01*
X161925000Y-57023000D01*
X160731845Y-57023000D01*
X160610524Y-57252890D01*
X160655175Y-57400099D01*
X160780359Y-57662920D01*
X160954412Y-57896269D01*
X161038466Y-57972034D01*
X160957820Y-57996498D01*
X160847506Y-58055463D01*
X160750815Y-58134815D01*
X160671463Y-58231506D01*
X160612498Y-58341820D01*
X160576188Y-58461518D01*
X160563928Y-58586000D01*
X160563928Y-58805000D01*
X158868521Y-58805000D01*
X158848637Y-58775241D01*
X158648759Y-58575363D01*
X158619000Y-58555479D01*
X158619000Y-58284521D01*
X158648759Y-58264637D01*
X158848637Y-58064759D01*
X159005680Y-57829727D01*
X159113853Y-57568574D01*
X159169000Y-57291335D01*
X159169000Y-57008665D01*
X159113853Y-56731426D01*
X159005680Y-56470273D01*
X158848637Y-56235241D01*
X158648759Y-56035363D01*
X158414777Y-55879022D01*
X161039004Y-53254796D01*
X161068001Y-53230999D01*
X161162974Y-53115274D01*
X161205238Y-53036206D01*
X161279760Y-53086000D01*
X161105368Y-53202525D01*
X160898525Y-53409368D01*
X160736010Y-53652589D01*
X160624068Y-53922842D01*
X160567000Y-54209740D01*
X160567000Y-54502260D01*
X160624068Y-54789158D01*
X160736010Y-55059411D01*
X160898525Y-55302632D01*
X161105368Y-55509475D01*
X161287534Y-55631195D01*
X161170645Y-55700822D01*
X160954412Y-55895731D01*
X160780359Y-56129080D01*
X160655175Y-56391901D01*
X160610524Y-56539110D01*
X160731845Y-56769000D01*
X161925000Y-56769000D01*
X161925000Y-56749000D01*
X162179000Y-56749000D01*
X162179000Y-56769000D01*
X163372155Y-56769000D01*
X163493476Y-56539110D01*
X163448825Y-56391901D01*
X163323641Y-56129080D01*
X163149588Y-55895731D01*
X162933355Y-55700822D01*
X162816466Y-55631195D01*
X162998632Y-55509475D01*
X163205475Y-55302632D01*
X163367990Y-55059411D01*
X163479932Y-54789158D01*
X163537000Y-54502260D01*
X163537000Y-54209740D01*
X163479932Y-53922842D01*
X163367990Y-53652589D01*
X163205475Y-53409368D01*
X162998632Y-53202525D01*
X162824240Y-53086000D01*
X162998632Y-52969475D01*
X163205475Y-52762632D01*
X163367990Y-52519411D01*
X163479932Y-52249158D01*
X163537000Y-51962260D01*
X163537000Y-51669740D01*
X163479932Y-51382842D01*
X163367990Y-51112589D01*
X163205475Y-50869368D01*
X162998632Y-50662525D01*
X162824240Y-50546000D01*
X162998632Y-50429475D01*
X163205475Y-50222632D01*
X163367990Y-49979411D01*
X163479932Y-49709158D01*
X163537000Y-49422260D01*
X163537000Y-49129740D01*
X163479932Y-48842842D01*
X163367990Y-48572589D01*
X163205475Y-48329368D01*
X162998632Y-48122525D01*
X162755411Y-47960010D01*
X162485158Y-47848068D01*
X162198260Y-47791000D01*
X161905740Y-47791000D01*
X161618842Y-47848068D01*
X161348589Y-47960010D01*
X161288000Y-48000494D01*
X161288000Y-47049803D01*
X161706005Y-46631799D01*
X161735002Y-46608002D01*
X161829975Y-46492277D01*
X161900547Y-46360248D01*
X161944004Y-46216987D01*
X161955001Y-46105334D01*
X161955001Y-46105324D01*
X161958677Y-46068001D01*
X161955001Y-46030678D01*
X161955001Y-40917409D01*
X161966072Y-40805000D01*
X161966072Y-39205000D01*
X161953812Y-39080518D01*
X161917502Y-38960820D01*
X161858537Y-38850506D01*
X161779185Y-38753815D01*
X161682494Y-38674463D01*
X161572180Y-38615498D01*
X161452482Y-38579188D01*
X161328000Y-38566928D01*
X160164729Y-38566928D01*
X159966803Y-38369001D01*
X159943000Y-38339998D01*
X159827275Y-38245025D01*
X159695246Y-38174453D01*
X159551985Y-38130996D01*
X159440332Y-38119999D01*
X159440321Y-38119999D01*
X159402999Y-38116323D01*
X159365677Y-38119999D01*
X117494326Y-38119999D01*
X117457001Y-38116323D01*
X117419676Y-38119999D01*
X117419668Y-38119999D01*
X117308015Y-38130996D01*
X117164754Y-38174453D01*
X117032725Y-38245025D01*
X116917000Y-38339998D01*
X116893202Y-38368996D01*
X116695270Y-38566928D01*
X115532000Y-38566928D01*
X115407518Y-38579188D01*
X115287820Y-38615498D01*
X115177506Y-38674463D01*
X115080815Y-38753815D01*
X115001463Y-38850506D01*
X114942498Y-38960820D01*
X114906188Y-39080518D01*
X114893928Y-39205000D01*
X114893928Y-40805000D01*
X114906188Y-40929482D01*
X114942498Y-41049180D01*
X115001463Y-41159494D01*
X115080815Y-41256185D01*
X115177506Y-41335537D01*
X115287820Y-41394502D01*
X115407518Y-41430812D01*
X115532000Y-41443072D01*
X117132000Y-41443072D01*
X117256482Y-41430812D01*
X117376180Y-41394502D01*
X117486494Y-41335537D01*
X117583185Y-41256185D01*
X117662537Y-41159494D01*
X117721502Y-41049180D01*
X117757812Y-40929482D01*
X117758643Y-40921039D01*
X117957241Y-41119637D01*
X118112000Y-41223044D01*
X118112001Y-44182765D01*
X118110000Y-44185760D01*
X117993475Y-44011368D01*
X117786632Y-43804525D01*
X117543411Y-43642010D01*
X117273158Y-43530068D01*
X116986260Y-43473000D01*
X116693740Y-43473000D01*
X116406842Y-43530068D01*
X116136589Y-43642010D01*
X115893368Y-43804525D01*
X115686525Y-44011368D01*
X115524010Y-44254589D01*
X115412068Y-44524842D01*
X115355000Y-44811740D01*
X115355000Y-45104260D01*
X115412068Y-45391158D01*
X115524010Y-45661411D01*
X115686525Y-45904632D01*
X115893368Y-46111475D01*
X116080001Y-46236179D01*
X116080000Y-48506754D01*
X115961475Y-48329368D01*
X115754632Y-48122525D01*
X115511411Y-47960010D01*
X115241158Y-47848068D01*
X114954260Y-47791000D01*
X114661740Y-47791000D01*
X114374842Y-47848068D01*
X114104589Y-47960010D01*
X113861368Y-48122525D01*
X113654525Y-48329368D01*
X113492010Y-48572589D01*
X113380068Y-48842842D01*
X113323000Y-49129740D01*
X113323000Y-49422260D01*
X113380068Y-49709158D01*
X113492010Y-49979411D01*
X113654525Y-50222632D01*
X113861368Y-50429475D01*
X114035760Y-50546000D01*
X113861368Y-50662525D01*
X113654525Y-50869368D01*
X113492010Y-51112589D01*
X113380068Y-51382842D01*
X113323000Y-51669740D01*
X113323000Y-51962260D01*
X113380068Y-52249158D01*
X113492010Y-52519411D01*
X113654525Y-52762632D01*
X113861368Y-52969475D01*
X114035760Y-53086000D01*
X113861368Y-53202525D01*
X113654525Y-53409368D01*
X113492010Y-53652589D01*
X113380068Y-53922842D01*
X113323000Y-54209740D01*
X113323000Y-54502260D01*
X113380068Y-54789158D01*
X113492010Y-55059411D01*
X113654525Y-55302632D01*
X113861368Y-55509475D01*
X114043534Y-55631195D01*
X113926645Y-55700822D01*
X113710412Y-55895731D01*
X113536359Y-56129080D01*
X113411175Y-56391901D01*
X113366524Y-56539110D01*
X113487845Y-56769000D01*
X114681000Y-56769000D01*
X114681000Y-56749000D01*
X114935000Y-56749000D01*
X114935000Y-56769000D01*
X116128155Y-56769000D01*
X116249476Y-56539110D01*
X116204825Y-56391901D01*
X116079641Y-56129080D01*
X115905588Y-55895731D01*
X115689355Y-55700822D01*
X115572466Y-55631195D01*
X115754632Y-55509475D01*
X115961475Y-55302632D01*
X116123990Y-55059411D01*
X116235932Y-54789158D01*
X116293000Y-54502260D01*
X116293000Y-54209740D01*
X116235932Y-53922842D01*
X116123990Y-53652589D01*
X115961475Y-53409368D01*
X115754632Y-53202525D01*
X115580240Y-53086000D01*
X115754632Y-52969475D01*
X115961475Y-52762632D01*
X116123990Y-52519411D01*
X116235932Y-52249158D01*
X116293000Y-51962260D01*
X116293000Y-51669740D01*
X116235932Y-51382842D01*
X116156660Y-51191461D01*
X120652000Y-55686802D01*
X120652000Y-55931956D01*
X120497241Y-56035363D01*
X120297363Y-56235241D01*
X120142000Y-56467759D01*
X119986637Y-56235241D01*
X119786759Y-56035363D01*
X119551727Y-55878320D01*
X119290574Y-55770147D01*
X119013335Y-55715000D01*
X118730665Y-55715000D01*
X118453426Y-55770147D01*
X118192273Y-55878320D01*
X117957241Y-56035363D01*
X117757363Y-56235241D01*
X117600320Y-56470273D01*
X117492147Y-56731426D01*
X117437000Y-57008665D01*
X117437000Y-57291335D01*
X117492147Y-57568574D01*
X117600320Y-57829727D01*
X117757363Y-58064759D01*
X117957241Y-58264637D01*
X118192273Y-58421680D01*
X118453426Y-58529853D01*
X118559738Y-58551000D01*
X116292625Y-58551000D01*
X116283812Y-58461518D01*
X116247502Y-58341820D01*
X116188537Y-58231506D01*
X116109185Y-58134815D01*
X116012494Y-58055463D01*
X115902180Y-57996498D01*
X115821534Y-57972034D01*
X115905588Y-57896269D01*
X116079641Y-57662920D01*
X116204825Y-57400099D01*
X116249476Y-57252890D01*
X116128155Y-57023000D01*
X114935000Y-57023000D01*
X114935000Y-57043000D01*
X114681000Y-57043000D01*
X114681000Y-57023000D01*
X113487845Y-57023000D01*
X113366524Y-57252890D01*
X113411175Y-57400099D01*
X113536359Y-57662920D01*
X113710412Y-57896269D01*
X113794466Y-57972034D01*
X113713820Y-57996498D01*
X113603506Y-58055463D01*
X113506815Y-58134815D01*
X113427463Y-58231506D01*
X113368498Y-58341820D01*
X113332188Y-58461518D01*
X113319928Y-58586000D01*
X112649000Y-58586000D01*
X112649000Y-38925935D01*
X112678644Y-38945742D01*
X113008811Y-39082502D01*
X113359315Y-39152222D01*
X113716685Y-39152222D01*
X114067189Y-39082502D01*
X114397356Y-38945742D01*
X114694499Y-38747198D01*
X114947198Y-38494499D01*
X115145742Y-38197356D01*
X115282502Y-37867189D01*
X115352222Y-37516685D01*
X115352222Y-37159315D01*
X115282502Y-36808811D01*
X115145742Y-36478644D01*
X115125935Y-36449000D01*
X161734065Y-36449000D01*
X161714258Y-36478644D01*
G37*
%TD.AperFunction*%
D18*
X138546525Y-45904632D02*
X138753368Y-46111475D01*
X138996589Y-46273990D01*
X139266842Y-46385932D01*
X139553740Y-46443000D01*
X139846260Y-46443000D01*
X140066408Y-46399209D01*
X141892935Y-48225737D01*
X141814273Y-48258320D01*
X141579241Y-48415363D01*
X141379363Y-48615241D01*
X141222320Y-48850273D01*
X141217933Y-48860865D01*
X141106385Y-48674869D01*
X140917414Y-48466481D01*
X140691420Y-48298963D01*
X140437087Y-48178754D01*
X140303039Y-48138096D01*
X140081000Y-48260085D01*
X140081000Y-49403000D01*
X140101000Y-49403000D01*
X140101000Y-49657000D01*
X140081000Y-49657000D01*
X140081000Y-50799915D01*
X140303039Y-50921904D01*
X140437087Y-50881246D01*
X140691420Y-50761037D01*
X140917414Y-50593519D01*
X141106385Y-50385131D01*
X141217933Y-50199135D01*
X141222320Y-50209727D01*
X141379363Y-50444759D01*
X141579241Y-50644637D01*
X141814273Y-50801680D01*
X142075426Y-50909853D01*
X142352665Y-50965000D01*
X142635335Y-50965000D01*
X142912574Y-50909853D01*
X143149000Y-50811922D01*
X143148999Y-55868077D01*
X142912574Y-55770147D01*
X142635335Y-55715000D01*
X142352665Y-55715000D01*
X142075426Y-55770147D01*
X141814273Y-55878320D01*
X141579241Y-56035363D01*
X141379363Y-56235241D01*
X141224000Y-56467759D01*
X141068637Y-56235241D01*
X140868759Y-56035363D01*
X140633727Y-55878320D01*
X140372574Y-55770147D01*
X140095335Y-55715000D01*
X139812665Y-55715000D01*
X139535426Y-55770147D01*
X139274273Y-55878320D01*
X139039241Y-56035363D01*
X138839363Y-56235241D01*
X138682320Y-56470273D01*
X138574147Y-56731426D01*
X138519000Y-57008665D01*
X138519000Y-57291335D01*
X138574147Y-57568574D01*
X138682320Y-57829727D01*
X138839363Y-58064759D01*
X139039241Y-58264637D01*
X139274273Y-58421680D01*
X139535426Y-58529853D01*
X139812665Y-58585000D01*
X140095335Y-58585000D01*
X140372574Y-58529853D01*
X140633727Y-58421680D01*
X140868759Y-58264637D01*
X141068637Y-58064759D01*
X141224000Y-57832241D01*
X141379363Y-58064759D01*
X141579241Y-58264637D01*
X141814273Y-58421680D01*
X142075426Y-58529853D01*
X142352665Y-58585000D01*
X142635335Y-58585000D01*
X142912574Y-58529853D01*
X143173727Y-58421680D01*
X143408759Y-58264637D01*
X143608637Y-58064759D01*
X143764000Y-57832241D01*
X143919363Y-58064759D01*
X144119241Y-58264637D01*
X144354273Y-58421680D01*
X144615426Y-58529853D01*
X144892665Y-58585000D01*
X145175335Y-58585000D01*
X145452574Y-58529853D01*
X145713727Y-58421680D01*
X145948759Y-58264637D01*
X146148637Y-58064759D01*
X146304000Y-57832241D01*
X146459363Y-58064759D01*
X146659241Y-58264637D01*
X146894273Y-58421680D01*
X147155426Y-58529853D01*
X147432665Y-58585000D01*
X147715335Y-58585000D01*
X147992574Y-58529853D01*
X148253727Y-58421680D01*
X148488759Y-58264637D01*
X148688637Y-58064759D01*
X148844000Y-57832241D01*
X148999363Y-58064759D01*
X149199241Y-58264637D01*
X149434273Y-58421680D01*
X149695426Y-58529853D01*
X149972665Y-58585000D01*
X150255335Y-58585000D01*
X150532574Y-58529853D01*
X150793727Y-58421680D01*
X151028759Y-58264637D01*
X151228637Y-58064759D01*
X151384000Y-57832241D01*
X151539363Y-58064759D01*
X151739241Y-58264637D01*
X151974273Y-58421680D01*
X152017894Y-58439748D01*
X151992486Y-58453329D01*
X151920903Y-58697298D01*
X152734000Y-59510395D01*
X153547097Y-58697298D01*
X153475514Y-58453329D01*
X153364778Y-58400932D01*
X153568759Y-58264637D01*
X153768637Y-58064759D01*
X153925680Y-57829727D01*
X153930067Y-57819135D01*
X154041615Y-58005131D01*
X154230586Y-58213519D01*
X154456580Y-58381037D01*
X154710913Y-58501246D01*
X154844961Y-58541904D01*
X155067000Y-58419915D01*
X155067000Y-57277000D01*
X155047000Y-57277000D01*
X155047000Y-57023000D01*
X155067000Y-57023000D01*
X155067000Y-55880085D01*
X154844961Y-55758096D01*
X154710913Y-55798754D01*
X154456580Y-55918963D01*
X154230586Y-56086481D01*
X154041615Y-56294869D01*
X153930067Y-56480865D01*
X153925680Y-56470273D01*
X153768637Y-56235241D01*
X153568759Y-56035363D01*
X153333727Y-55878320D01*
X153072574Y-55770147D01*
X152795335Y-55715000D01*
X152512665Y-55715000D01*
X152330114Y-55751312D01*
X151999001Y-55420200D01*
X151999001Y-50811923D01*
X152235426Y-50909853D01*
X152512665Y-50965000D01*
X152795335Y-50965000D01*
X153072574Y-50909853D01*
X153333727Y-50801680D01*
X153568759Y-50644637D01*
X153768637Y-50444759D01*
X153924000Y-50212241D01*
X154079363Y-50444759D01*
X154279241Y-50644637D01*
X154434000Y-50748044D01*
X154434001Y-52382288D01*
X154390063Y-52426226D01*
X154276795Y-52595744D01*
X154198774Y-52784102D01*
X154159000Y-52984061D01*
X154159000Y-53187939D01*
X154198774Y-53387898D01*
X154276795Y-53576256D01*
X154390063Y-53745774D01*
X154534226Y-53889937D01*
X154703744Y-54003205D01*
X154892102Y-54081226D01*
X155092061Y-54121000D01*
X155295939Y-54121000D01*
X155495898Y-54081226D01*
X155684256Y-54003205D01*
X155853774Y-53889937D01*
X155997937Y-53745774D01*
X156111205Y-53576256D01*
X156189226Y-53387898D01*
X156229000Y-53187939D01*
X156229000Y-52984061D01*
X156189226Y-52784102D01*
X156111205Y-52595744D01*
X155997937Y-52426226D01*
X155954000Y-52382289D01*
X155954000Y-50748043D01*
X156108759Y-50644637D01*
X156307357Y-50446039D01*
X156308188Y-50454482D01*
X156344498Y-50574180D01*
X156403463Y-50684494D01*
X156482815Y-50781185D01*
X156579506Y-50860537D01*
X156689820Y-50919502D01*
X156809518Y-50955812D01*
X156934000Y-50968072D01*
X156974000Y-50968072D01*
X156974001Y-53652288D01*
X156930063Y-53696226D01*
X156816795Y-53865744D01*
X156738774Y-54054102D01*
X156699000Y-54254061D01*
X156699000Y-54457939D01*
X156738774Y-54657898D01*
X156816795Y-54846256D01*
X156930063Y-55015774D01*
X157029243Y-55114954D01*
X156100157Y-56044040D01*
X155931420Y-55918963D01*
X155677087Y-55798754D01*
X155543039Y-55758096D01*
X155321000Y-55880085D01*
X155321000Y-57023000D01*
X155341000Y-57023000D01*
X155341000Y-57277000D01*
X155321000Y-57277000D01*
X155321000Y-58419915D01*
X155543039Y-58541904D01*
X155677087Y-58501246D01*
X155848999Y-58419993D01*
X155848999Y-58835197D01*
X153817196Y-60867001D01*
X153493022Y-60867001D01*
X153547097Y-60682702D01*
X152734000Y-59869605D01*
X151920903Y-60682702D01*
X151974978Y-60867001D01*
X150772868Y-60867001D01*
X150793481Y-60808891D01*
X150672814Y-60579000D01*
X149479000Y-60579000D01*
X149479000Y-60599000D01*
X149225000Y-60599000D01*
X149225000Y-60579000D01*
X149205000Y-60579000D01*
X149205000Y-60325000D01*
X149225000Y-60325000D01*
X149225000Y-59131845D01*
X149479000Y-59131845D01*
X149479000Y-60325000D01*
X150672814Y-60325000D01*
X150793481Y-60095109D01*
X150696157Y-59820748D01*
X150660277Y-59760512D01*
X151293783Y-59760512D01*
X151335213Y-60040130D01*
X151430397Y-60306292D01*
X151497329Y-60431514D01*
X151741298Y-60503097D01*
X152554395Y-59690000D01*
X152913605Y-59690000D01*
X153726702Y-60503097D01*
X153970671Y-60431514D01*
X154091571Y-60176004D01*
X154160300Y-59901816D01*
X154174217Y-59619488D01*
X154132787Y-59339870D01*
X154037603Y-59073708D01*
X153970671Y-58948486D01*
X153726702Y-58876903D01*
X152913605Y-59690000D01*
X152554395Y-59690000D01*
X151741298Y-58876903D01*
X151497329Y-58948486D01*
X151376429Y-59203996D01*
X151307700Y-59478184D01*
X151293783Y-59760512D01*
X150660277Y-59760512D01*
X150547178Y-59570645D01*
X150352269Y-59354412D01*
X150118920Y-59180359D01*
X149856099Y-59055175D01*
X149708890Y-59010524D01*
X149479000Y-59131845D01*
X149225000Y-59131845D01*
X148995110Y-59010524D01*
X148847901Y-59055175D01*
X148585080Y-59180359D01*
X148351731Y-59354412D01*
X148156822Y-59570645D01*
X148087195Y-59687534D01*
X147965475Y-59505368D01*
X147758632Y-59298525D01*
X147515411Y-59136010D01*
X147245158Y-59024068D01*
X146958260Y-58967000D01*
X146665740Y-58967000D01*
X146378842Y-59024068D01*
X146108589Y-59136010D01*
X145865368Y-59298525D01*
X145733513Y-59430380D01*
X145711502Y-59357820D01*
X145652537Y-59247506D01*
X145573185Y-59150815D01*
X145476494Y-59071463D01*
X145366180Y-59012498D01*
X145246482Y-58976188D01*
X145122000Y-58963928D01*
X143422000Y-58963928D01*
X143297518Y-58976188D01*
X143177820Y-59012498D01*
X143067506Y-59071463D01*
X142970815Y-59150815D01*
X142891463Y-59247506D01*
X142832498Y-59357820D01*
X142796188Y-59477518D01*
X142783928Y-59602000D01*
X142783928Y-61302000D01*
X142796188Y-61426482D01*
X142832498Y-61546180D01*
X142891463Y-61656494D01*
X142948505Y-61726000D01*
X137537000Y-61726000D01*
X137537000Y-60824521D01*
X137566759Y-60804637D01*
X137766637Y-60604759D01*
X137923680Y-60369727D01*
X138031853Y-60108574D01*
X138087000Y-59831335D01*
X138087000Y-59548665D01*
X138031853Y-59271426D01*
X137923680Y-59010273D01*
X137766637Y-58775241D01*
X137566759Y-58575363D01*
X137537000Y-58555479D01*
X137537000Y-58284521D01*
X137566759Y-58264637D01*
X137766637Y-58064759D01*
X137923680Y-57829727D01*
X138031853Y-57568574D01*
X138087000Y-57291335D01*
X138087000Y-57008665D01*
X138031853Y-56731426D01*
X137923680Y-56470273D01*
X137766637Y-56235241D01*
X137566759Y-56035363D01*
X137331727Y-55878320D01*
X137070574Y-55770147D01*
X136793335Y-55715000D01*
X136510665Y-55715000D01*
X136233426Y-55770147D01*
X135972273Y-55878320D01*
X135737241Y-56035363D01*
X135537363Y-56235241D01*
X135380320Y-56470273D01*
X135375933Y-56480865D01*
X135264385Y-56294869D01*
X135075414Y-56086481D01*
X134849420Y-55918963D01*
X134595087Y-55798754D01*
X134461039Y-55758096D01*
X134239000Y-55880085D01*
X134239000Y-57023000D01*
X134259000Y-57023000D01*
X134259000Y-57277000D01*
X134239000Y-57277000D01*
X134239000Y-58419915D01*
X134461039Y-58541904D01*
X134595087Y-58501246D01*
X134849420Y-58381037D01*
X135075414Y-58213519D01*
X135264385Y-58005131D01*
X135375933Y-57819135D01*
X135380320Y-57829727D01*
X135537363Y-58064759D01*
X135737241Y-58264637D01*
X135767000Y-58284522D01*
X135767001Y-58555478D01*
X135737241Y-58575363D01*
X135537363Y-58775241D01*
X135380320Y-59010273D01*
X135272147Y-59271426D01*
X135217000Y-59548665D01*
X135217000Y-59831335D01*
X135272147Y-60108574D01*
X135380320Y-60369727D01*
X135537363Y-60604759D01*
X135737241Y-60804637D01*
X135767000Y-60824522D01*
X135767001Y-61726000D01*
X129031967Y-61726000D01*
X129036920Y-61723641D01*
X129270269Y-61549588D01*
X129465178Y-61333355D01*
X129614157Y-61083252D01*
X129711481Y-60808891D01*
X129645246Y-60682702D01*
X130838903Y-60682702D01*
X130910486Y-60926671D01*
X131165996Y-61047571D01*
X131440184Y-61116300D01*
X131722512Y-61130217D01*
X132002130Y-61088787D01*
X132268292Y-60993603D01*
X132393514Y-60926671D01*
X132465097Y-60682702D01*
X131652000Y-59869605D01*
X130838903Y-60682702D01*
X129645246Y-60682702D01*
X129590814Y-60579000D01*
X128397000Y-60579000D01*
X128397000Y-60599000D01*
X128143000Y-60599000D01*
X128143000Y-60579000D01*
X128123000Y-60579000D01*
X128123000Y-60325000D01*
X128143000Y-60325000D01*
X128143000Y-59131845D01*
X128397000Y-59131845D01*
X128397000Y-60325000D01*
X129590814Y-60325000D01*
X129711481Y-60095109D01*
X129614157Y-59820748D01*
X129578277Y-59760512D01*
X130211783Y-59760512D01*
X130253213Y-60040130D01*
X130348397Y-60306292D01*
X130415329Y-60431514D01*
X130659298Y-60503097D01*
X131472395Y-59690000D01*
X131831605Y-59690000D01*
X132644702Y-60503097D01*
X132888671Y-60431514D01*
X133009571Y-60176004D01*
X133078300Y-59901816D01*
X133092217Y-59619488D01*
X133050787Y-59339870D01*
X132955603Y-59073708D01*
X132888671Y-58948486D01*
X132644702Y-58876903D01*
X131831605Y-59690000D01*
X131472395Y-59690000D01*
X130659298Y-58876903D01*
X130415329Y-58948486D01*
X130294429Y-59203996D01*
X130225700Y-59478184D01*
X130211783Y-59760512D01*
X129578277Y-59760512D01*
X129465178Y-59570645D01*
X129270269Y-59354412D01*
X129036920Y-59180359D01*
X128774099Y-59055175D01*
X128626890Y-59010524D01*
X128397000Y-59131845D01*
X128143000Y-59131845D01*
X127913110Y-59010524D01*
X127765901Y-59055175D01*
X127503080Y-59180359D01*
X127269731Y-59354412D01*
X127074822Y-59570645D01*
X127005195Y-59687534D01*
X126883475Y-59505368D01*
X126676632Y-59298525D01*
X126433411Y-59136010D01*
X126163158Y-59024068D01*
X125876260Y-58967000D01*
X125583740Y-58967000D01*
X125296842Y-59024068D01*
X125253727Y-59041927D01*
X124632778Y-58420978D01*
X124866759Y-58264637D01*
X125066637Y-58064759D01*
X125222000Y-57832241D01*
X125377363Y-58064759D01*
X125577241Y-58264637D01*
X125812273Y-58421680D01*
X126073426Y-58529853D01*
X126350665Y-58585000D01*
X126633335Y-58585000D01*
X126910574Y-58529853D01*
X127171727Y-58421680D01*
X127406759Y-58264637D01*
X127606637Y-58064759D01*
X127762000Y-57832241D01*
X127917363Y-58064759D01*
X128117241Y-58264637D01*
X128352273Y-58421680D01*
X128613426Y-58529853D01*
X128890665Y-58585000D01*
X129173335Y-58585000D01*
X129450574Y-58529853D01*
X129711727Y-58421680D01*
X129946759Y-58264637D01*
X130146637Y-58064759D01*
X130302000Y-57832241D01*
X130457363Y-58064759D01*
X130657241Y-58264637D01*
X130892273Y-58421680D01*
X130935894Y-58439748D01*
X130910486Y-58453329D01*
X130838903Y-58697298D01*
X131652000Y-59510395D01*
X132465097Y-58697298D01*
X132393514Y-58453329D01*
X132282778Y-58400932D01*
X132486759Y-58264637D01*
X132686637Y-58064759D01*
X132843680Y-57829727D01*
X132848067Y-57819135D01*
X132959615Y-58005131D01*
X133148586Y-58213519D01*
X133374580Y-58381037D01*
X133628913Y-58501246D01*
X133762961Y-58541904D01*
X133985000Y-58419915D01*
X133985000Y-57277000D01*
X133965000Y-57277000D01*
X133965000Y-57023000D01*
X133985000Y-57023000D01*
X133985000Y-55880085D01*
X133762961Y-55758096D01*
X133628913Y-55798754D01*
X133374580Y-55918963D01*
X133148586Y-56086481D01*
X132959615Y-56294869D01*
X132848067Y-56480865D01*
X132843680Y-56470273D01*
X132686637Y-56235241D01*
X132486759Y-56035363D01*
X132251727Y-55878320D01*
X131990574Y-55770147D01*
X131713335Y-55715000D01*
X131430665Y-55715000D01*
X131248113Y-55751312D01*
X131206999Y-55710198D01*
X131206999Y-50920509D01*
X131430665Y-50965000D01*
X131713335Y-50965000D01*
X131990574Y-50909853D01*
X132251727Y-50801680D01*
X132486759Y-50644637D01*
X132686637Y-50444759D01*
X132842000Y-50212241D01*
X132997363Y-50444759D01*
X133197241Y-50644637D01*
X133352000Y-50748044D01*
X133352001Y-52382288D01*
X133308063Y-52426226D01*
X133194795Y-52595744D01*
X133116774Y-52784102D01*
X133077000Y-52984061D01*
X133077000Y-53187939D01*
X133116774Y-53387898D01*
X133194795Y-53576256D01*
X133308063Y-53745774D01*
X133452226Y-53889937D01*
X133621744Y-54003205D01*
X133810102Y-54081226D01*
X134010061Y-54121000D01*
X134213939Y-54121000D01*
X134413898Y-54081226D01*
X134602256Y-54003205D01*
X134771774Y-53889937D01*
X134915937Y-53745774D01*
X135029205Y-53576256D01*
X135107226Y-53387898D01*
X135147000Y-53187939D01*
X135147000Y-52984061D01*
X135107226Y-52784102D01*
X135029205Y-52595744D01*
X134915937Y-52426226D01*
X134872000Y-52382289D01*
X134872000Y-50748043D01*
X135026759Y-50644637D01*
X135225357Y-50446039D01*
X135226188Y-50454482D01*
X135262498Y-50574180D01*
X135321463Y-50684494D01*
X135400815Y-50781185D01*
X135497506Y-50860537D01*
X135607820Y-50919502D01*
X135727518Y-50955812D01*
X135852000Y-50968072D01*
X135892000Y-50968072D01*
X135892001Y-53652288D01*
X135848063Y-53696226D01*
X135734795Y-53865744D01*
X135656774Y-54054102D01*
X135617000Y-54254061D01*
X135617000Y-54457939D01*
X135656774Y-54657898D01*
X135734795Y-54846256D01*
X135848063Y-55015774D01*
X135992226Y-55159937D01*
X136161744Y-55273205D01*
X136350102Y-55351226D01*
X136550061Y-55391000D01*
X136753939Y-55391000D01*
X136953898Y-55351226D01*
X137142256Y-55273205D01*
X137311774Y-55159937D01*
X137455937Y-55015774D01*
X137569205Y-54846256D01*
X137647226Y-54657898D01*
X137687000Y-54457939D01*
X137687000Y-54254061D01*
X137647226Y-54054102D01*
X137569205Y-53865744D01*
X137455937Y-53696226D01*
X137412000Y-53652289D01*
X137412000Y-50968072D01*
X137452000Y-50968072D01*
X137576482Y-50955812D01*
X137696180Y-50919502D01*
X137806494Y-50860537D01*
X137903185Y-50781185D01*
X137982537Y-50684494D01*
X138041502Y-50574180D01*
X138077812Y-50454482D01*
X138090072Y-50330000D01*
X138090072Y-49879040D01*
X138562091Y-49879040D01*
X138656930Y-50143881D01*
X138801615Y-50385131D01*
X138990586Y-50593519D01*
X139216580Y-50761037D01*
X139470913Y-50881246D01*
X139604961Y-50921904D01*
X139827000Y-50799915D01*
X139827000Y-49657000D01*
X138683376Y-49657000D01*
X138562091Y-49879040D01*
X138090072Y-49879040D01*
X138090072Y-49180960D01*
X138562091Y-49180960D01*
X138683376Y-49403000D01*
X139827000Y-49403000D01*
X139827000Y-48260085D01*
X139604961Y-48138096D01*
X139470913Y-48178754D01*
X139216580Y-48298963D01*
X138990586Y-48466481D01*
X138801615Y-48674869D01*
X138656930Y-48916119D01*
X138562091Y-49180960D01*
X138090072Y-49180960D01*
X138090072Y-48730000D01*
X138077812Y-48605518D01*
X138041502Y-48485820D01*
X137982537Y-48375506D01*
X137903185Y-48278815D01*
X137806494Y-48199463D01*
X137696180Y-48140498D01*
X137576482Y-48104188D01*
X137452000Y-48091928D01*
X135852000Y-48091928D01*
X135727518Y-48104188D01*
X135607820Y-48140498D01*
X135497506Y-48199463D01*
X135400815Y-48278815D01*
X135321463Y-48375506D01*
X135262498Y-48485820D01*
X135226188Y-48605518D01*
X135225357Y-48613961D01*
X135026759Y-48415363D01*
X134791727Y-48258320D01*
X134530574Y-48150147D01*
X134253335Y-48095000D01*
X133970665Y-48095000D01*
X133693426Y-48150147D01*
X133432273Y-48258320D01*
X133197241Y-48415363D01*
X132997363Y-48615241D01*
X132842000Y-48847759D01*
X132686637Y-48615241D01*
X132486759Y-48415363D01*
X132251727Y-48258320D01*
X131990574Y-48150147D01*
X131713335Y-48095000D01*
X131430665Y-48095000D01*
X131163293Y-48148184D01*
X131152545Y-48112752D01*
X131081973Y-47980723D01*
X130987000Y-47864998D01*
X130958002Y-47841200D01*
X129559802Y-46443000D01*
X129686260Y-46443000D01*
X129973158Y-46385932D01*
X130243411Y-46273990D01*
X130486632Y-46111475D01*
X130693475Y-45904632D01*
X130810000Y-45730240D01*
X130926525Y-45904632D01*
X131133368Y-46111475D01*
X131376589Y-46273990D01*
X131646842Y-46385932D01*
X131933740Y-46443000D01*
X132226260Y-46443000D01*
X132513158Y-46385932D01*
X132783411Y-46273990D01*
X133026632Y-46111475D01*
X133233475Y-45904632D01*
X133350000Y-45730240D01*
X133466525Y-45904632D01*
X133673368Y-46111475D01*
X133916589Y-46273990D01*
X134186842Y-46385932D01*
X134473740Y-46443000D01*
X134766260Y-46443000D01*
X135053158Y-46385932D01*
X135323411Y-46273990D01*
X135566632Y-46111475D01*
X135773475Y-45904632D01*
X135890000Y-45730240D01*
X136006525Y-45904632D01*
X136213368Y-46111475D01*
X136456589Y-46273990D01*
X136726842Y-46385932D01*
X137013740Y-46443000D01*
X137306260Y-46443000D01*
X137593158Y-46385932D01*
X137863411Y-46273990D01*
X138106632Y-46111475D01*
X138313475Y-45904632D01*
X138430000Y-45730240D01*
X138546525Y-45904632D01*
%TA.AperFunction,Conductor*%
D19*
G36*
X138546525Y-45904632D02*
G01*
X138753368Y-46111475D01*
X138996589Y-46273990D01*
X139266842Y-46385932D01*
X139553740Y-46443000D01*
X139846260Y-46443000D01*
X140066408Y-46399209D01*
X141892935Y-48225737D01*
X141814273Y-48258320D01*
X141579241Y-48415363D01*
X141379363Y-48615241D01*
X141222320Y-48850273D01*
X141217933Y-48860865D01*
X141106385Y-48674869D01*
X140917414Y-48466481D01*
X140691420Y-48298963D01*
X140437087Y-48178754D01*
X140303039Y-48138096D01*
X140081000Y-48260085D01*
X140081000Y-49403000D01*
X140101000Y-49403000D01*
X140101000Y-49657000D01*
X140081000Y-49657000D01*
X140081000Y-50799915D01*
X140303039Y-50921904D01*
X140437087Y-50881246D01*
X140691420Y-50761037D01*
X140917414Y-50593519D01*
X141106385Y-50385131D01*
X141217933Y-50199135D01*
X141222320Y-50209727D01*
X141379363Y-50444759D01*
X141579241Y-50644637D01*
X141814273Y-50801680D01*
X142075426Y-50909853D01*
X142352665Y-50965000D01*
X142635335Y-50965000D01*
X142912574Y-50909853D01*
X143149000Y-50811922D01*
X143148999Y-55868077D01*
X142912574Y-55770147D01*
X142635335Y-55715000D01*
X142352665Y-55715000D01*
X142075426Y-55770147D01*
X141814273Y-55878320D01*
X141579241Y-56035363D01*
X141379363Y-56235241D01*
X141224000Y-56467759D01*
X141068637Y-56235241D01*
X140868759Y-56035363D01*
X140633727Y-55878320D01*
X140372574Y-55770147D01*
X140095335Y-55715000D01*
X139812665Y-55715000D01*
X139535426Y-55770147D01*
X139274273Y-55878320D01*
X139039241Y-56035363D01*
X138839363Y-56235241D01*
X138682320Y-56470273D01*
X138574147Y-56731426D01*
X138519000Y-57008665D01*
X138519000Y-57291335D01*
X138574147Y-57568574D01*
X138682320Y-57829727D01*
X138839363Y-58064759D01*
X139039241Y-58264637D01*
X139274273Y-58421680D01*
X139535426Y-58529853D01*
X139812665Y-58585000D01*
X140095335Y-58585000D01*
X140372574Y-58529853D01*
X140633727Y-58421680D01*
X140868759Y-58264637D01*
X141068637Y-58064759D01*
X141224000Y-57832241D01*
X141379363Y-58064759D01*
X141579241Y-58264637D01*
X141814273Y-58421680D01*
X142075426Y-58529853D01*
X142352665Y-58585000D01*
X142635335Y-58585000D01*
X142912574Y-58529853D01*
X143173727Y-58421680D01*
X143408759Y-58264637D01*
X143608637Y-58064759D01*
X143764000Y-57832241D01*
X143919363Y-58064759D01*
X144119241Y-58264637D01*
X144354273Y-58421680D01*
X144615426Y-58529853D01*
X144892665Y-58585000D01*
X145175335Y-58585000D01*
X145452574Y-58529853D01*
X145713727Y-58421680D01*
X145948759Y-58264637D01*
X146148637Y-58064759D01*
X146304000Y-57832241D01*
X146459363Y-58064759D01*
X146659241Y-58264637D01*
X146894273Y-58421680D01*
X147155426Y-58529853D01*
X147432665Y-58585000D01*
X147715335Y-58585000D01*
X147992574Y-58529853D01*
X148253727Y-58421680D01*
X148488759Y-58264637D01*
X148688637Y-58064759D01*
X148844000Y-57832241D01*
X148999363Y-58064759D01*
X149199241Y-58264637D01*
X149434273Y-58421680D01*
X149695426Y-58529853D01*
X149972665Y-58585000D01*
X150255335Y-58585000D01*
X150532574Y-58529853D01*
X150793727Y-58421680D01*
X151028759Y-58264637D01*
X151228637Y-58064759D01*
X151384000Y-57832241D01*
X151539363Y-58064759D01*
X151739241Y-58264637D01*
X151974273Y-58421680D01*
X152017894Y-58439748D01*
X151992486Y-58453329D01*
X151920903Y-58697298D01*
X152734000Y-59510395D01*
X153547097Y-58697298D01*
X153475514Y-58453329D01*
X153364778Y-58400932D01*
X153568759Y-58264637D01*
X153768637Y-58064759D01*
X153925680Y-57829727D01*
X153930067Y-57819135D01*
X154041615Y-58005131D01*
X154230586Y-58213519D01*
X154456580Y-58381037D01*
X154710913Y-58501246D01*
X154844961Y-58541904D01*
X155067000Y-58419915D01*
X155067000Y-57277000D01*
X155047000Y-57277000D01*
X155047000Y-57023000D01*
X155067000Y-57023000D01*
X155067000Y-55880085D01*
X154844961Y-55758096D01*
X154710913Y-55798754D01*
X154456580Y-55918963D01*
X154230586Y-56086481D01*
X154041615Y-56294869D01*
X153930067Y-56480865D01*
X153925680Y-56470273D01*
X153768637Y-56235241D01*
X153568759Y-56035363D01*
X153333727Y-55878320D01*
X153072574Y-55770147D01*
X152795335Y-55715000D01*
X152512665Y-55715000D01*
X152330114Y-55751312D01*
X151999001Y-55420200D01*
X151999001Y-50811923D01*
X152235426Y-50909853D01*
X152512665Y-50965000D01*
X152795335Y-50965000D01*
X153072574Y-50909853D01*
X153333727Y-50801680D01*
X153568759Y-50644637D01*
X153768637Y-50444759D01*
X153924000Y-50212241D01*
X154079363Y-50444759D01*
X154279241Y-50644637D01*
X154434000Y-50748044D01*
X154434001Y-52382288D01*
X154390063Y-52426226D01*
X154276795Y-52595744D01*
X154198774Y-52784102D01*
X154159000Y-52984061D01*
X154159000Y-53187939D01*
X154198774Y-53387898D01*
X154276795Y-53576256D01*
X154390063Y-53745774D01*
X154534226Y-53889937D01*
X154703744Y-54003205D01*
X154892102Y-54081226D01*
X155092061Y-54121000D01*
X155295939Y-54121000D01*
X155495898Y-54081226D01*
X155684256Y-54003205D01*
X155853774Y-53889937D01*
X155997937Y-53745774D01*
X156111205Y-53576256D01*
X156189226Y-53387898D01*
X156229000Y-53187939D01*
X156229000Y-52984061D01*
X156189226Y-52784102D01*
X156111205Y-52595744D01*
X155997937Y-52426226D01*
X155954000Y-52382289D01*
X155954000Y-50748043D01*
X156108759Y-50644637D01*
X156307357Y-50446039D01*
X156308188Y-50454482D01*
X156344498Y-50574180D01*
X156403463Y-50684494D01*
X156482815Y-50781185D01*
X156579506Y-50860537D01*
X156689820Y-50919502D01*
X156809518Y-50955812D01*
X156934000Y-50968072D01*
X156974000Y-50968072D01*
X156974001Y-53652288D01*
X156930063Y-53696226D01*
X156816795Y-53865744D01*
X156738774Y-54054102D01*
X156699000Y-54254061D01*
X156699000Y-54457939D01*
X156738774Y-54657898D01*
X156816795Y-54846256D01*
X156930063Y-55015774D01*
X157029243Y-55114954D01*
X156100157Y-56044040D01*
X155931420Y-55918963D01*
X155677087Y-55798754D01*
X155543039Y-55758096D01*
X155321000Y-55880085D01*
X155321000Y-57023000D01*
X155341000Y-57023000D01*
X155341000Y-57277000D01*
X155321000Y-57277000D01*
X155321000Y-58419915D01*
X155543039Y-58541904D01*
X155677087Y-58501246D01*
X155848999Y-58419993D01*
X155848999Y-58835197D01*
X153817196Y-60867001D01*
X153493022Y-60867001D01*
X153547097Y-60682702D01*
X152734000Y-59869605D01*
X151920903Y-60682702D01*
X151974978Y-60867001D01*
X150772868Y-60867001D01*
X150793481Y-60808891D01*
X150672814Y-60579000D01*
X149479000Y-60579000D01*
X149479000Y-60599000D01*
X149225000Y-60599000D01*
X149225000Y-60579000D01*
X149205000Y-60579000D01*
X149205000Y-60325000D01*
X149225000Y-60325000D01*
X149225000Y-59131845D01*
X149479000Y-59131845D01*
X149479000Y-60325000D01*
X150672814Y-60325000D01*
X150793481Y-60095109D01*
X150696157Y-59820748D01*
X150660277Y-59760512D01*
X151293783Y-59760512D01*
X151335213Y-60040130D01*
X151430397Y-60306292D01*
X151497329Y-60431514D01*
X151741298Y-60503097D01*
X152554395Y-59690000D01*
X152913605Y-59690000D01*
X153726702Y-60503097D01*
X153970671Y-60431514D01*
X154091571Y-60176004D01*
X154160300Y-59901816D01*
X154174217Y-59619488D01*
X154132787Y-59339870D01*
X154037603Y-59073708D01*
X153970671Y-58948486D01*
X153726702Y-58876903D01*
X152913605Y-59690000D01*
X152554395Y-59690000D01*
X151741298Y-58876903D01*
X151497329Y-58948486D01*
X151376429Y-59203996D01*
X151307700Y-59478184D01*
X151293783Y-59760512D01*
X150660277Y-59760512D01*
X150547178Y-59570645D01*
X150352269Y-59354412D01*
X150118920Y-59180359D01*
X149856099Y-59055175D01*
X149708890Y-59010524D01*
X149479000Y-59131845D01*
X149225000Y-59131845D01*
X148995110Y-59010524D01*
X148847901Y-59055175D01*
X148585080Y-59180359D01*
X148351731Y-59354412D01*
X148156822Y-59570645D01*
X148087195Y-59687534D01*
X147965475Y-59505368D01*
X147758632Y-59298525D01*
X147515411Y-59136010D01*
X147245158Y-59024068D01*
X146958260Y-58967000D01*
X146665740Y-58967000D01*
X146378842Y-59024068D01*
X146108589Y-59136010D01*
X145865368Y-59298525D01*
X145733513Y-59430380D01*
X145711502Y-59357820D01*
X145652537Y-59247506D01*
X145573185Y-59150815D01*
X145476494Y-59071463D01*
X145366180Y-59012498D01*
X145246482Y-58976188D01*
X145122000Y-58963928D01*
X143422000Y-58963928D01*
X143297518Y-58976188D01*
X143177820Y-59012498D01*
X143067506Y-59071463D01*
X142970815Y-59150815D01*
X142891463Y-59247506D01*
X142832498Y-59357820D01*
X142796188Y-59477518D01*
X142783928Y-59602000D01*
X142783928Y-61302000D01*
X142796188Y-61426482D01*
X142832498Y-61546180D01*
X142891463Y-61656494D01*
X142948505Y-61726000D01*
X137537000Y-61726000D01*
X137537000Y-60824521D01*
X137566759Y-60804637D01*
X137766637Y-60604759D01*
X137923680Y-60369727D01*
X138031853Y-60108574D01*
X138087000Y-59831335D01*
X138087000Y-59548665D01*
X138031853Y-59271426D01*
X137923680Y-59010273D01*
X137766637Y-58775241D01*
X137566759Y-58575363D01*
X137537000Y-58555479D01*
X137537000Y-58284521D01*
X137566759Y-58264637D01*
X137766637Y-58064759D01*
X137923680Y-57829727D01*
X138031853Y-57568574D01*
X138087000Y-57291335D01*
X138087000Y-57008665D01*
X138031853Y-56731426D01*
X137923680Y-56470273D01*
X137766637Y-56235241D01*
X137566759Y-56035363D01*
X137331727Y-55878320D01*
X137070574Y-55770147D01*
X136793335Y-55715000D01*
X136510665Y-55715000D01*
X136233426Y-55770147D01*
X135972273Y-55878320D01*
X135737241Y-56035363D01*
X135537363Y-56235241D01*
X135380320Y-56470273D01*
X135375933Y-56480865D01*
X135264385Y-56294869D01*
X135075414Y-56086481D01*
X134849420Y-55918963D01*
X134595087Y-55798754D01*
X134461039Y-55758096D01*
X134239000Y-55880085D01*
X134239000Y-57023000D01*
X134259000Y-57023000D01*
X134259000Y-57277000D01*
X134239000Y-57277000D01*
X134239000Y-58419915D01*
X134461039Y-58541904D01*
X134595087Y-58501246D01*
X134849420Y-58381037D01*
X135075414Y-58213519D01*
X135264385Y-58005131D01*
X135375933Y-57819135D01*
X135380320Y-57829727D01*
X135537363Y-58064759D01*
X135737241Y-58264637D01*
X135767000Y-58284522D01*
X135767001Y-58555478D01*
X135737241Y-58575363D01*
X135537363Y-58775241D01*
X135380320Y-59010273D01*
X135272147Y-59271426D01*
X135217000Y-59548665D01*
X135217000Y-59831335D01*
X135272147Y-60108574D01*
X135380320Y-60369727D01*
X135537363Y-60604759D01*
X135737241Y-60804637D01*
X135767000Y-60824522D01*
X135767001Y-61726000D01*
X129031967Y-61726000D01*
X129036920Y-61723641D01*
X129270269Y-61549588D01*
X129465178Y-61333355D01*
X129614157Y-61083252D01*
X129711481Y-60808891D01*
X129645246Y-60682702D01*
X130838903Y-60682702D01*
X130910486Y-60926671D01*
X131165996Y-61047571D01*
X131440184Y-61116300D01*
X131722512Y-61130217D01*
X132002130Y-61088787D01*
X132268292Y-60993603D01*
X132393514Y-60926671D01*
X132465097Y-60682702D01*
X131652000Y-59869605D01*
X130838903Y-60682702D01*
X129645246Y-60682702D01*
X129590814Y-60579000D01*
X128397000Y-60579000D01*
X128397000Y-60599000D01*
X128143000Y-60599000D01*
X128143000Y-60579000D01*
X128123000Y-60579000D01*
X128123000Y-60325000D01*
X128143000Y-60325000D01*
X128143000Y-59131845D01*
X128397000Y-59131845D01*
X128397000Y-60325000D01*
X129590814Y-60325000D01*
X129711481Y-60095109D01*
X129614157Y-59820748D01*
X129578277Y-59760512D01*
X130211783Y-59760512D01*
X130253213Y-60040130D01*
X130348397Y-60306292D01*
X130415329Y-60431514D01*
X130659298Y-60503097D01*
X131472395Y-59690000D01*
X131831605Y-59690000D01*
X132644702Y-60503097D01*
X132888671Y-60431514D01*
X133009571Y-60176004D01*
X133078300Y-59901816D01*
X133092217Y-59619488D01*
X133050787Y-59339870D01*
X132955603Y-59073708D01*
X132888671Y-58948486D01*
X132644702Y-58876903D01*
X131831605Y-59690000D01*
X131472395Y-59690000D01*
X130659298Y-58876903D01*
X130415329Y-58948486D01*
X130294429Y-59203996D01*
X130225700Y-59478184D01*
X130211783Y-59760512D01*
X129578277Y-59760512D01*
X129465178Y-59570645D01*
X129270269Y-59354412D01*
X129036920Y-59180359D01*
X128774099Y-59055175D01*
X128626890Y-59010524D01*
X128397000Y-59131845D01*
X128143000Y-59131845D01*
X127913110Y-59010524D01*
X127765901Y-59055175D01*
X127503080Y-59180359D01*
X127269731Y-59354412D01*
X127074822Y-59570645D01*
X127005195Y-59687534D01*
X126883475Y-59505368D01*
X126676632Y-59298525D01*
X126433411Y-59136010D01*
X126163158Y-59024068D01*
X125876260Y-58967000D01*
X125583740Y-58967000D01*
X125296842Y-59024068D01*
X125253727Y-59041927D01*
X124632778Y-58420978D01*
X124866759Y-58264637D01*
X125066637Y-58064759D01*
X125222000Y-57832241D01*
X125377363Y-58064759D01*
X125577241Y-58264637D01*
X125812273Y-58421680D01*
X126073426Y-58529853D01*
X126350665Y-58585000D01*
X126633335Y-58585000D01*
X126910574Y-58529853D01*
X127171727Y-58421680D01*
X127406759Y-58264637D01*
X127606637Y-58064759D01*
X127762000Y-57832241D01*
X127917363Y-58064759D01*
X128117241Y-58264637D01*
X128352273Y-58421680D01*
X128613426Y-58529853D01*
X128890665Y-58585000D01*
X129173335Y-58585000D01*
X129450574Y-58529853D01*
X129711727Y-58421680D01*
X129946759Y-58264637D01*
X130146637Y-58064759D01*
X130302000Y-57832241D01*
X130457363Y-58064759D01*
X130657241Y-58264637D01*
X130892273Y-58421680D01*
X130935894Y-58439748D01*
X130910486Y-58453329D01*
X130838903Y-58697298D01*
X131652000Y-59510395D01*
X132465097Y-58697298D01*
X132393514Y-58453329D01*
X132282778Y-58400932D01*
X132486759Y-58264637D01*
X132686637Y-58064759D01*
X132843680Y-57829727D01*
X132848067Y-57819135D01*
X132959615Y-58005131D01*
X133148586Y-58213519D01*
X133374580Y-58381037D01*
X133628913Y-58501246D01*
X133762961Y-58541904D01*
X133985000Y-58419915D01*
X133985000Y-57277000D01*
X133965000Y-57277000D01*
X133965000Y-57023000D01*
X133985000Y-57023000D01*
X133985000Y-55880085D01*
X133762961Y-55758096D01*
X133628913Y-55798754D01*
X133374580Y-55918963D01*
X133148586Y-56086481D01*
X132959615Y-56294869D01*
X132848067Y-56480865D01*
X132843680Y-56470273D01*
X132686637Y-56235241D01*
X132486759Y-56035363D01*
X132251727Y-55878320D01*
X131990574Y-55770147D01*
X131713335Y-55715000D01*
X131430665Y-55715000D01*
X131248113Y-55751312D01*
X131206999Y-55710198D01*
X131206999Y-50920509D01*
X131430665Y-50965000D01*
X131713335Y-50965000D01*
X131990574Y-50909853D01*
X132251727Y-50801680D01*
X132486759Y-50644637D01*
X132686637Y-50444759D01*
X132842000Y-50212241D01*
X132997363Y-50444759D01*
X133197241Y-50644637D01*
X133352000Y-50748044D01*
X133352001Y-52382288D01*
X133308063Y-52426226D01*
X133194795Y-52595744D01*
X133116774Y-52784102D01*
X133077000Y-52984061D01*
X133077000Y-53187939D01*
X133116774Y-53387898D01*
X133194795Y-53576256D01*
X133308063Y-53745774D01*
X133452226Y-53889937D01*
X133621744Y-54003205D01*
X133810102Y-54081226D01*
X134010061Y-54121000D01*
X134213939Y-54121000D01*
X134413898Y-54081226D01*
X134602256Y-54003205D01*
X134771774Y-53889937D01*
X134915937Y-53745774D01*
X135029205Y-53576256D01*
X135107226Y-53387898D01*
X135147000Y-53187939D01*
X135147000Y-52984061D01*
X135107226Y-52784102D01*
X135029205Y-52595744D01*
X134915937Y-52426226D01*
X134872000Y-52382289D01*
X134872000Y-50748043D01*
X135026759Y-50644637D01*
X135225357Y-50446039D01*
X135226188Y-50454482D01*
X135262498Y-50574180D01*
X135321463Y-50684494D01*
X135400815Y-50781185D01*
X135497506Y-50860537D01*
X135607820Y-50919502D01*
X135727518Y-50955812D01*
X135852000Y-50968072D01*
X135892000Y-50968072D01*
X135892001Y-53652288D01*
X135848063Y-53696226D01*
X135734795Y-53865744D01*
X135656774Y-54054102D01*
X135617000Y-54254061D01*
X135617000Y-54457939D01*
X135656774Y-54657898D01*
X135734795Y-54846256D01*
X135848063Y-55015774D01*
X135992226Y-55159937D01*
X136161744Y-55273205D01*
X136350102Y-55351226D01*
X136550061Y-55391000D01*
X136753939Y-55391000D01*
X136953898Y-55351226D01*
X137142256Y-55273205D01*
X137311774Y-55159937D01*
X137455937Y-55015774D01*
X137569205Y-54846256D01*
X137647226Y-54657898D01*
X137687000Y-54457939D01*
X137687000Y-54254061D01*
X137647226Y-54054102D01*
X137569205Y-53865744D01*
X137455937Y-53696226D01*
X137412000Y-53652289D01*
X137412000Y-50968072D01*
X137452000Y-50968072D01*
X137576482Y-50955812D01*
X137696180Y-50919502D01*
X137806494Y-50860537D01*
X137903185Y-50781185D01*
X137982537Y-50684494D01*
X138041502Y-50574180D01*
X138077812Y-50454482D01*
X138090072Y-50330000D01*
X138090072Y-49879040D01*
X138562091Y-49879040D01*
X138656930Y-50143881D01*
X138801615Y-50385131D01*
X138990586Y-50593519D01*
X139216580Y-50761037D01*
X139470913Y-50881246D01*
X139604961Y-50921904D01*
X139827000Y-50799915D01*
X139827000Y-49657000D01*
X138683376Y-49657000D01*
X138562091Y-49879040D01*
X138090072Y-49879040D01*
X138090072Y-49180960D01*
X138562091Y-49180960D01*
X138683376Y-49403000D01*
X139827000Y-49403000D01*
X139827000Y-48260085D01*
X139604961Y-48138096D01*
X139470913Y-48178754D01*
X139216580Y-48298963D01*
X138990586Y-48466481D01*
X138801615Y-48674869D01*
X138656930Y-48916119D01*
X138562091Y-49180960D01*
X138090072Y-49180960D01*
X138090072Y-48730000D01*
X138077812Y-48605518D01*
X138041502Y-48485820D01*
X137982537Y-48375506D01*
X137903185Y-48278815D01*
X137806494Y-48199463D01*
X137696180Y-48140498D01*
X137576482Y-48104188D01*
X137452000Y-48091928D01*
X135852000Y-48091928D01*
X135727518Y-48104188D01*
X135607820Y-48140498D01*
X135497506Y-48199463D01*
X135400815Y-48278815D01*
X135321463Y-48375506D01*
X135262498Y-48485820D01*
X135226188Y-48605518D01*
X135225357Y-48613961D01*
X135026759Y-48415363D01*
X134791727Y-48258320D01*
X134530574Y-48150147D01*
X134253335Y-48095000D01*
X133970665Y-48095000D01*
X133693426Y-48150147D01*
X133432273Y-48258320D01*
X133197241Y-48415363D01*
X132997363Y-48615241D01*
X132842000Y-48847759D01*
X132686637Y-48615241D01*
X132486759Y-48415363D01*
X132251727Y-48258320D01*
X131990574Y-48150147D01*
X131713335Y-48095000D01*
X131430665Y-48095000D01*
X131163293Y-48148184D01*
X131152545Y-48112752D01*
X131081973Y-47980723D01*
X130987000Y-47864998D01*
X130958002Y-47841200D01*
X129559802Y-46443000D01*
X129686260Y-46443000D01*
X129973158Y-46385932D01*
X130243411Y-46273990D01*
X130486632Y-46111475D01*
X130693475Y-45904632D01*
X130810000Y-45730240D01*
X130926525Y-45904632D01*
X131133368Y-46111475D01*
X131376589Y-46273990D01*
X131646842Y-46385932D01*
X131933740Y-46443000D01*
X132226260Y-46443000D01*
X132513158Y-46385932D01*
X132783411Y-46273990D01*
X133026632Y-46111475D01*
X133233475Y-45904632D01*
X133350000Y-45730240D01*
X133466525Y-45904632D01*
X133673368Y-46111475D01*
X133916589Y-46273990D01*
X134186842Y-46385932D01*
X134473740Y-46443000D01*
X134766260Y-46443000D01*
X135053158Y-46385932D01*
X135323411Y-46273990D01*
X135566632Y-46111475D01*
X135773475Y-45904632D01*
X135890000Y-45730240D01*
X136006525Y-45904632D01*
X136213368Y-46111475D01*
X136456589Y-46273990D01*
X136726842Y-46385932D01*
X137013740Y-46443000D01*
X137306260Y-46443000D01*
X137593158Y-46385932D01*
X137863411Y-46273990D01*
X138106632Y-46111475D01*
X138313475Y-45904632D01*
X138430000Y-45730240D01*
X138546525Y-45904632D01*
G37*
%TD.AperFunction*%
D18*
X120766525Y-45904632D02*
X120973368Y-46111475D01*
X121216589Y-46273990D01*
X121486842Y-46385932D01*
X121773740Y-46443000D01*
X122066260Y-46443000D01*
X122286408Y-46399209D01*
X123982198Y-48095000D01*
X123810665Y-48095000D01*
X123533426Y-48150147D01*
X123272273Y-48258320D01*
X123037241Y-48415363D01*
X122837363Y-48615241D01*
X122682000Y-48847759D01*
X122526637Y-48615241D01*
X122326759Y-48415363D01*
X122091727Y-48258320D01*
X121830574Y-48150147D01*
X121553335Y-48095000D01*
X121270665Y-48095000D01*
X120993426Y-48150147D01*
X120732273Y-48258320D01*
X120497241Y-48415363D01*
X120297363Y-48615241D01*
X120140320Y-48850273D01*
X120135933Y-48860865D01*
X120024385Y-48674869D01*
X119835414Y-48466481D01*
X119609420Y-48298963D01*
X119355087Y-48178754D01*
X119221039Y-48138096D01*
X118999000Y-48260085D01*
X118999000Y-49403000D01*
X119019000Y-49403000D01*
X119019000Y-49657000D01*
X118999000Y-49657000D01*
X118999000Y-49677000D01*
X118745000Y-49677000D01*
X118745000Y-49657000D01*
X118725000Y-49657000D01*
X118725000Y-49403000D01*
X118745000Y-49403000D01*
X118745000Y-48260085D01*
X118522961Y-48138096D01*
X118388913Y-48178754D01*
X118134580Y-48298963D01*
X117908586Y-48466481D01*
X117719615Y-48674869D01*
X117600000Y-48874317D01*
X117600000Y-46236178D01*
X117786632Y-46111475D01*
X117993475Y-45904632D01*
X118110000Y-45730240D01*
X118226525Y-45904632D01*
X118433368Y-46111475D01*
X118676589Y-46273990D01*
X118946842Y-46385932D01*
X119233740Y-46443000D01*
X119526260Y-46443000D01*
X119813158Y-46385932D01*
X120083411Y-46273990D01*
X120326632Y-46111475D01*
X120533475Y-45904632D01*
X120650000Y-45730240D01*
X120766525Y-45904632D01*
%TA.AperFunction,Conductor*%
D19*
G36*
X120766525Y-45904632D02*
G01*
X120973368Y-46111475D01*
X121216589Y-46273990D01*
X121486842Y-46385932D01*
X121773740Y-46443000D01*
X122066260Y-46443000D01*
X122286408Y-46399209D01*
X123982198Y-48095000D01*
X123810665Y-48095000D01*
X123533426Y-48150147D01*
X123272273Y-48258320D01*
X123037241Y-48415363D01*
X122837363Y-48615241D01*
X122682000Y-48847759D01*
X122526637Y-48615241D01*
X122326759Y-48415363D01*
X122091727Y-48258320D01*
X121830574Y-48150147D01*
X121553335Y-48095000D01*
X121270665Y-48095000D01*
X120993426Y-48150147D01*
X120732273Y-48258320D01*
X120497241Y-48415363D01*
X120297363Y-48615241D01*
X120140320Y-48850273D01*
X120135933Y-48860865D01*
X120024385Y-48674869D01*
X119835414Y-48466481D01*
X119609420Y-48298963D01*
X119355087Y-48178754D01*
X119221039Y-48138096D01*
X118999000Y-48260085D01*
X118999000Y-49403000D01*
X119019000Y-49403000D01*
X119019000Y-49657000D01*
X118999000Y-49657000D01*
X118999000Y-49677000D01*
X118745000Y-49677000D01*
X118745000Y-49657000D01*
X118725000Y-49657000D01*
X118725000Y-49403000D01*
X118745000Y-49403000D01*
X118745000Y-48260085D01*
X118522961Y-48138096D01*
X118388913Y-48178754D01*
X118134580Y-48298963D01*
X117908586Y-48466481D01*
X117719615Y-48674869D01*
X117600000Y-48874317D01*
X117600000Y-46236178D01*
X117786632Y-46111475D01*
X117993475Y-45904632D01*
X118110000Y-45730240D01*
X118226525Y-45904632D01*
X118433368Y-46111475D01*
X118676589Y-46273990D01*
X118946842Y-46385932D01*
X119233740Y-46443000D01*
X119526260Y-46443000D01*
X119813158Y-46385932D01*
X120083411Y-46273990D01*
X120326632Y-46111475D01*
X120533475Y-45904632D01*
X120650000Y-45730240D01*
X120766525Y-45904632D01*
G37*
%TD.AperFunction*%
%TD*%
M02*
